<svg width="1019" height="991" viewBox="0 0 1019 991" fill="none" xmlns="http://www.w3.org/2000/svg">
<g clip-path="url(#clip0)">
<path d="M716.083 388.952V774.118L715.652 775.114L668.278 670.074L589.403 754.028L578.736 639.325L476.796 693.145L503.951 581.16L390.108 598.962L452.176 501.861L338.699 481.708L428.919 410.03L390.913 388.952H716.083Z" stroke="black" stroke-width="7" stroke-linecap="round" stroke-linejoin="round"/>
<path d="M1092.61 481.708L979.193 501.862L1041.2 598.962L927.354 581.16L954.51 693.145L852.634 639.325L841.902 754.028L763.027 670.074L716.084 774.118V388.952H390.914L328.16 354.17L436.733 315.664L359.533 230.1L474.748 228.92L429.542 122.954L538.929 159.227L530.621 44.3328L622.204 114.153L651.664 2.79004L715.653 98.5832L779.643 2.79004L809.102 114.153L900.749 44.3328L892.378 159.227L1001.76 122.954L956.559 228.92L1071.77 230.1L994.629 315.664L1103.21 354.17L1002.44 410.031L1092.61 481.708Z" fill="#FFD400" stroke="black" stroke-width="7" stroke-linecap="round" stroke-linejoin="round"/>
<path d="M899.322 410.812C899.322 512.233 817.091 594.458 715.661 594.458C614.231 594.458 532.008 512.233 532.008 410.812" stroke="#817878" stroke-width="7" stroke-linecap="round" stroke-linejoin="round"/>
<mask id="mask0" mask-type="alpha" maskUnits="userSpaceOnUse" x="498" y="390" width="218" height="247">
<rect x="498.297" y="390.635" width="217.657" height="245.542" fill="#C4C4C4"/>
</mask>
<g mask="url(#mask0)">
<path d="M899.318 410.812C899.318 512.234 817.087 594.459 715.657 594.459C614.227 594.459 532.004 512.234 532.004 410.812" stroke="white" stroke-width="7" stroke-linecap="round" stroke-linejoin="round"/>
</g>
<path d="M643.867 353.843C653.96 353.843 662.141 313.311 662.141 263.312C662.141 213.313 653.96 172.78 643.867 172.78C633.775 172.78 625.594 213.313 625.594 263.312C625.594 313.311 633.775 353.843 643.867 353.843Z" fill="black"/>
<path d="M787.449 353.843C797.542 353.843 805.723 313.311 805.723 263.312C805.723 213.313 797.542 172.78 787.449 172.78C777.357 172.78 769.176 213.313 769.176 263.312C769.176 313.311 777.357 353.843 787.449 353.843Z" fill="black"/>
<path d="M716.083 774.095V905.172H199.734V388.921H390.906L428.92 410.007L338.692 481.685L452.169 501.83L390.1 598.931L503.952 581.137L476.788 693.114L578.728 639.294L589.396 754.005L668.271 670.05L715.645 775.083L716.083 774.095Z" stroke="white" stroke-width="7" stroke-linecap="round" stroke-linejoin="round"/>
<path d="M157.35 431.341H242.164V346.533H157.35V431.341Z" fill="#FF5050" stroke="black" stroke-width="7" stroke-linecap="round" stroke-linejoin="round"/>
<path d="M673.685 431.341H758.5V346.533H673.685V431.341Z" fill="#FF5050" stroke="black" stroke-width="7" stroke-linecap="round" stroke-linejoin="round"/>
<path d="M673.685 947.632H758.5V862.824H673.685V947.632Z" fill="#FF5050" stroke="black" stroke-width="7" stroke-linecap="round" stroke-linejoin="round"/>
<path d="M157.35 947.632H242.164V862.824H157.35V947.632Z" fill="#FF5050" stroke="black" stroke-width="7" stroke-linecap="round" stroke-linejoin="round"/>
<path d="M199.733 524.151V741.105L168.105 821.273L136.046 741.288L60.3366 782.401L87.1809 700.495L2.78906 683.315L75.9632 637.866L22.3224 570.406L107.647 582.627L109.943 496.496L167.363 560.672L199.733 524.151Z" fill="#3092F7" stroke="black" stroke-width="7" stroke-linecap="round" stroke-linejoin="round"/>
<path d="M248.408 700.057L275.691 781.779L199.734 741.105V524.152L224.538 496.193L227.264 582.316L312.525 569.601L259.259 637.308L332.744 682.391L248.408 700.057Z" stroke="white" stroke-width="7" stroke-linecap="round" stroke-linejoin="round"/>
<path d="M986.633 846.545L1019.94 792.98L1024.1 855.92L1086.76 848.562L1040.14 891.054L1084.95 935.443L1022.66 925.501L1015.89 988.21L984.831 933.314L931.581 967.124L955.14 908.608L895.504 888.056L955.938 869.999L934.826 810.559L986.633 846.545Z" fill="#FFB3B3" stroke="black" stroke-width="7" stroke-linecap="round" stroke-linejoin="round"/>
</g>
<defs>
<clipPath id="clip0">
<rect width="1106" height="991" fill="white"/>
</clipPath>
</defs>
</svg>
