<svg xmlns="http://www.w3.org/2000/svg" width="1106" height="991" fill="none"><g clip-path="url(#clip0)"><path d="M716.083 388.952v385.166l-.431.996-47.374-105.04-78.875 83.954-10.667-114.703-101.94 53.82 27.155-111.985-113.843 17.802 62.068-97.101-113.477-20.153 90.22-71.678-38.006-21.078h325.17z" stroke="#000" stroke-width="7" stroke-linecap="round" stroke-linejoin="round"/><path d="M1092.61 481.708l-113.417 20.154 62.007 97.1-113.846-17.802 27.156 111.985-101.876-53.82-10.732 114.703-78.875-83.954-46.943 104.044V388.952h-325.17L328.16 354.17l108.573-38.506-77.2-85.564 115.215-1.18-45.206-105.966 109.387 36.273-8.308-114.894 91.583 69.82L651.664 2.79l63.989 95.793 63.99-95.793 29.459 111.363 91.647-69.82-8.371 114.894 109.382-36.273-45.201 105.966 115.211 1.18-77.141 85.564 108.581 38.506-100.77 55.861 90.17 71.677z" fill="#FFD400" stroke="#000" stroke-width="7" stroke-linecap="round" stroke-linejoin="round"/><path d="M899.322 410.812c0 101.421-82.231 183.646-183.661 183.646s-183.653-82.225-183.653-183.646" stroke="#817878" stroke-width="7" stroke-linecap="round" stroke-linejoin="round"/><mask id="a" maskUnits="userSpaceOnUse" x="498" y="390" width="218" height="247"><path fill="#C4C4C4" d="M498.297 390.635h217.657v245.542H498.297z"/></mask><g mask="url(#a)"><path d="M899.318 410.812c0 101.422-82.231 183.647-183.661 183.647s-183.653-82.225-183.653-183.647" stroke="#fff" stroke-width="7" stroke-linecap="round" stroke-linejoin="round"/></g><path d="M643.867 353.843c10.093 0 18.274-40.532 18.274-90.531 0-49.999-8.181-90.532-18.274-90.532-10.092 0-18.273 40.533-18.273 90.532 0 49.999 8.181 90.531 18.273 90.531zM787.449 353.843c10.093 0 18.274-40.532 18.274-90.531 0-49.999-8.181-90.532-18.274-90.532-10.092 0-18.273 40.533-18.273 90.532 0 49.999 8.181 90.531 18.273 90.531z" fill="#000"/><path d="M716.083 774.095v131.077H199.734V388.921h191.172l38.014 21.086-90.228 71.678 113.477 20.145-62.069 97.101 113.852-17.794-27.164 111.977 101.94-53.82 10.668 114.711 78.875-83.955 47.374 105.033.438-.988z" stroke="#fff" stroke-width="7" stroke-linecap="round" stroke-linejoin="round"/><path d="M157.35 431.341h84.814v-84.808H157.35v84.808zM673.685 431.341H758.5v-84.808h-84.815v84.808zM673.685 947.632H758.5v-84.808h-84.815v84.808zM157.35 947.632h84.814v-84.808H157.35v84.808z" fill="#FF5050" stroke="#000" stroke-width="7" stroke-linecap="round" stroke-linejoin="round"/><path d="M199.733 524.151v216.954l-31.628 80.168-32.059-79.985-75.71 41.113 26.845-81.906-84.392-17.18 73.174-45.449-53.64-67.46 85.324 12.221 2.296-86.131 57.42 64.176 32.37-36.521z" fill="#3092F7" stroke="#000" stroke-width="7" stroke-linecap="round" stroke-linejoin="round"/><path d="M248.408 700.057l27.283 81.722-75.957-40.674V524.152l24.804-27.959 2.726 86.123 85.261-12.715-53.266 67.707 73.485 45.083-84.336 17.666z" stroke="#fff" stroke-width="7" stroke-linecap="round" stroke-linejoin="round"/><path d="M986.633 846.545l33.307-53.565 4.16 62.94 62.66-7.358-46.62 42.492 44.81 44.389-62.29-9.942-6.77 62.709-31.059-54.896-53.25 33.81 23.559-58.516-59.636-20.552 60.434-18.057-21.112-59.44 51.807 35.986z" fill="#FFB3B3" stroke="#000" stroke-width="7" stroke-linecap="round" stroke-linejoin="round"/></g><defs><clipPath id="clip0"><path fill="#fff" d="M0 0h1106v991H0z"/></clipPath></defs></svg>