<svg width="1051" height="405" fill="none" xmlns="http://www.w3.org/2000/svg"><path d="M525.219 858.362V577.254c0-20.007 16.22-36.226 36.227-36.226h447.764c20.01 0 36.23-16.219 36.23-36.226V369.167c0-20.008-16.22-36.227-36.23-36.227H41.226C21.22 332.94 5 316.721 5 296.714V161.079c0-20.007 16.22-36.227 36.226-36.227H452.39" stroke="#7B61FF" stroke-width="10"/><path d="M441.982 124.853H233.895" stroke="url(#paint0_linear)" stroke-width="10"/><path d="M617.601 131.213c5.034-2.746 5.034-9.975 0-12.721L415.094 8.034c-5.575-3.041-12.087 2.052-10.478 8.196l27.968 106.787a7.248 7.248 0 010 3.671l-27.968 106.787c-1.609 6.143 4.903 11.237 10.478 8.196l202.507-110.458z" fill="#7B61FF"/><defs><linearGradient id="paint0_linear" x1="233.895" y1="124.853" x2="441.982" y2="124.853" gradientUnits="userSpaceOnUse"><stop stop-color="#7B61FF"/><stop offset="1" stop-color="#fff"/></linearGradient></defs></svg>