<svg width="765" height="596" fill="none" xmlns="http://www.w3.org/2000/svg"><path stroke="#000" stroke-width="5" d="M-5264.5-17203.2h9459v28010.7h-9459z"/><path fill-rule="evenodd" clip-rule="evenodd" d="M411.466 208.796c9.663 2.589 19.595-3.146 22.184-12.808l17.146-63.989c2.589-9.663-3.145-19.595-12.808-22.184l-63.989-17.146c-9.663-2.59-19.595 3.145-22.184 12.808l-17.146 63.989c-2.589 9.663 3.146 19.595 12.808 22.184l63.989 17.146zm-10.029-21.261l18.824-10.868-12.68-21.961 21.961-12.679-10.868-18.824-21.961 12.68-12.679-21.962-18.824 10.868 12.68 21.962-21.961 12.679 10.867 18.824 21.962-12.68 12.679 21.961zm-99.292 406.899c9.662 2.589 19.595-3.145 22.184-12.808l77.105-287.761c2.589-9.663-3.145-19.595-12.808-22.184l-287.761-77.106c-9.663-2.589-19.595 3.145-22.184 12.808L1.575 495.144c-2.589 9.663 3.146 19.595 12.809 22.184l287.761 77.106zm-72.259-79.923l61.38-35.438-41.344-71.61 71.609-41.344-35.437-61.38-71.61 41.344-41.343-71.609-61.38 35.437 41.343 71.61-71.61 41.344 35.438 61.38 71.61-41.344 41.344 71.61zm340.58-170.715c9.663 2.589 19.595-3.146 22.184-12.808l17.146-63.989c2.589-9.663-3.145-19.595-12.808-22.184l-63.989-17.146c-9.663-2.589-19.595 3.145-22.184 12.808l-17.146 63.989c-2.589 9.663 3.146 19.595 12.808 22.184l63.989 17.146zm-10.029-21.261l18.824-10.868-12.68-21.961 21.961-12.679-10.868-18.824-21.961 12.68-12.679-21.962-18.824 10.868 12.68 21.962-21.961 12.679 10.867 18.824 21.962-12.68 12.679 21.961zm147.254-125.601c9.662 2.589 19.594-3.145 22.184-12.808l34.059-127.11c2.589-9.663-3.146-19.595-12.808-22.184L624.015.772c-9.662-2.589-19.594 3.146-22.184 12.809l-34.059 127.11c-2.589 9.663 3.146 19.595 12.808 22.184l127.111 34.059zm-27.583-37.808l30.828-17.799-20.766-35.966 35.966-20.764-17.798-30.828-35.966 20.765-20.765-35.966-30.828 17.798 20.765 35.966-35.966 20.765 17.798 30.828 35.967-20.765 20.765 35.966z" fill="#7B61FF"/></svg>