<svg width="353" height="353" viewBox="0 0 353 353" fill="none" xmlns="http://www.w3.org/2000/svg">
<path d="M284.079 208.219L239.987 201.058L250.434 173.075C252.744 166.882 249.725 164.067 243.715 166.813L191.501 190.684L169.704 160.615C166.573 156.299 162.644 156.907 160.965 161.968L149.284 197.228L92.2951 190.266C85.736 189.466 83.71 193.063 87.7843 198.267L106.211 221.772L66.3432 241.935C58.8449 245.725 59.496 249.929 67.7903 251.28L111.882 258.441L101.435 286.424C99.1256 292.617 102.144 295.432 108.154 292.686L160.368 268.815L182.167 298.891C185.297 303.206 189.227 302.598 190.905 297.537L202.587 262.277L259.575 269.239C266.134 270.039 268.16 266.443 264.086 261.238L245.665 237.726L285.526 217.564C293.024 213.774 292.373 209.57 284.079 208.219Z" fill="#171717"/>
<mask id="mask0" mask-type="alpha" maskUnits="userSpaceOnUse" x="0" y="58" width="322" height="263">
<path d="M0 229.387L28.0034 311.102L40.0923 320.589L127.163 311.102L172.917 234.131L255.703 222.501L321.656 103.907L288.45 58H70.238L47.4374 160.373L0 229.387Z" fill="#C4C4C4"/>
</mask>
<g mask="url(#mask0)">
<path fill-rule="evenodd" clip-rule="evenodd" d="M259.389 266.565H305.352C306.028 266.565 306.576 266.017 306.576 265.34C306.576 264.664 306.028 264.116 305.352 264.116H251.105H227.834L135.812 517.435C135.581 518.07 134.879 518.398 134.243 518.168C133.608 517.937 133.28 517.234 133.51 516.599L225.229 264.116H183.203C181.072 264.116 179.344 262.389 179.344 260.257C179.344 258.126 181.072 256.398 183.203 256.398H263.717C263.585 256.098 263.571 255.743 263.723 255.406L276.892 226.166C277.523 224.764 278.497 223.542 279.724 222.614L282.202 220.74C285.048 218.587 288.698 217.806 292.171 218.601L310.212 174.691C312.541 172.025 314.959 171.214 317.466 172.257C317.505 172.273 317.545 172.29 317.584 172.307C320.504 173.599 321.824 177.013 320.532 179.933C312.693 197.654 306.598 211.433 302.247 221.268L326.446 227.686C327.1 227.86 327.489 228.53 327.316 229.183C327.142 229.837 326.472 230.226 325.819 230.053L301.244 223.535C300.161 225.985 299.201 228.155 298.364 230.047C300.27 230.772 301.138 233.647 301.472 238.718C301.517 239.408 300.982 239.999 300.291 240.022C293.433 240.25 287.652 241.357 282.948 243.332C280.654 244.295 278.775 245.891 277.312 248.139C278.808 248.182 280.173 248.366 281.594 248.796C284.727 249.744 286.994 251.702 287.933 254.855L310.46 255.043H459.44L487.773 344.636C488.983 348.463 488.309 352.436 486.271 355.553H529.953C530.856 352.735 532.934 350.974 535.778 350.115C537.032 349.735 538.238 349.563 539.547 349.514C538.231 347.552 536.557 346.155 534.527 345.304C530.23 343.502 524.949 342.49 518.681 342.28L503.871 342.28C503.194 342.28 502.646 341.732 502.646 341.056C502.646 340.38 503.194 339.832 503.871 339.832H518.701L518.742 339.832C525.298 340.05 530.875 341.117 535.474 343.046C540.111 344.991 543.146 349.204 544.59 355.553H557.113C555.781 349.093 553.196 344.985 549.413 343.121C545.011 340.952 536.038 337.417 522.53 332.534C522.071 332.368 521.772 331.956 521.728 331.5L513.971 324.811C513.459 324.369 513.402 323.596 513.843 323.084C514.285 322.572 515.058 322.515 515.57 322.956L523.135 329.481C546.664 335.054 559.642 338.916 562.65 341.331C567.185 344.971 570.133 350.053 571.488 356.527C571.515 356.658 571.521 356.787 571.507 356.912H592.923C595.055 356.912 596.782 358.64 596.782 360.771C596.782 362.903 595.055 364.63 592.923 364.63H490.913L563.082 516.491C563.372 517.102 563.113 517.832 562.502 518.123C561.891 518.413 561.161 518.153 560.871 517.542L488.202 364.63H453.633L509.423 473.061H492.626L506.52 516.645C506.772 517.435 506.182 518.241 505.353 518.241H497.443C497.424 518.242 497.405 518.242 497.386 518.241H383.932C383.073 518.241 382.481 517.38 382.789 516.579L384.714 511.559C386.791 506.141 391.346 502.051 396.955 500.567L417.866 495.036L411.014 473.061H383.932L345.912 375.668C346.327 375.383 346.538 374.858 346.401 374.343L326.489 299.848C325.195 295.01 327.885 290 332.632 288.405L381.574 271.957C382.215 271.742 382.56 271.048 382.344 270.407C382.129 269.766 381.435 269.421 380.794 269.636L331.852 286.084C325.88 288.091 322.496 294.394 324.123 300.48L343.72 373.796L333.766 472.702H303.748V517.017C303.748 517.693 303.2 518.241 302.524 518.241H290.417C289.741 518.241 289.193 517.693 289.193 517.017V490.021L267.667 517.767C267.435 518.066 267.078 518.241 266.7 518.241H181.329C180.47 518.241 179.879 517.38 180.186 516.579L182.111 511.559C184.188 506.141 188.743 502.051 194.353 500.567L215.771 494.901L220.463 472.702H185.919L226.141 357.17L226.274 357.172L259.389 266.565ZM551.763 200.278L514.283 199.383L466.431 92.9144C464.56 88.7518 466.418 83.8607 470.581 81.9899C471.637 81.5151 472.781 81.2676 473.94 81.2637L635.524 80.7109C639.562 80.697 643.019 83.6043 643.698 87.5853L662.333 196.887C684.99 202.575 701.768 223.078 701.768 247.5C701.768 276.319 678.406 299.681 649.587 299.681C620.768 299.681 597.406 276.319 597.406 247.5C597.406 236.856 600.593 226.956 606.065 218.702L603.556 221.134C602.667 221.996 601.656 222.722 600.555 223.288C595.341 225.965 590.788 226.669 586.93 225.31C583.678 224.164 581.642 222.232 580.928 219.605C578.586 221.608 575.7 222.254 572.373 221.5C568.759 220.68 566.486 218.598 565.68 215.396C562.986 217.134 560.216 217.531 557.454 216.518C552.332 214.641 549.468 209.186 550.829 203.904L551.763 200.278ZM85.422 208.515L90.4153 81.0891C90.5891 76.6547 94.2345 73.1494 98.6723 73.1494H283.309C284.114 73.1494 284.914 73.2669 285.685 73.4983C290.056 74.8104 292.536 79.4174 291.224 83.7884L257.231 197.031C255.444 202.985 249.963 207.062 243.747 207.062H165.433C165.399 207.062 165.364 207.062 165.33 207.062C165.544 207.197 165.757 207.34 165.967 207.493C166.559 207.922 167.089 208.378 167.554 208.862C170.186 211.596 170.521 215.806 168.356 218.922L153.387 240.46C153.355 240.505 153.321 240.549 153.283 240.59L149.175 245.059C146.465 248.008 142.536 249.407 138.651 248.925L131.356 255.271C131.518 256.944 131.601 258.639 131.601 260.354C131.601 289.173 108.238 312.535 79.4194 312.535C50.6006 312.535 27.2383 289.173 27.2383 260.354C27.2383 231.535 50.6006 208.173 79.4194 208.173C81.4494 208.173 83.4524 208.289 85.422 208.515ZM490.056 473.061H413.578L420.482 495.199H459.053C459.729 495.199 460.277 495.747 460.277 496.423C460.277 497.099 459.729 497.647 459.053 497.647H417.903C417.819 497.647 417.738 497.639 417.659 497.623L397.582 502.934C392.733 504.217 388.796 507.752 387 512.435L385.712 515.793H495.696L485.682 486.846C485.461 486.207 485.8 485.51 486.439 485.289C487.078 485.068 487.775 485.407 487.996 486.046L498.286 515.793H503.678L490.056 473.061ZM301.3 472.702H222.966L218.01 496.145C217.915 496.597 217.573 496.957 217.126 497.076L194.979 502.934C190.13 504.217 186.193 507.752 184.397 512.435L183.11 515.793H266.1L289.45 485.696C290.165 484.774 291.641 485.28 291.641 486.446V515.793H301.3V472.702ZM127.576 237.118L127.41 237.262C127.265 237.018 127.119 236.775 126.971 236.534L127.576 237.118ZM540.871 351.952C539.238 351.923 537.868 352.041 536.486 352.458C534.65 353.014 533.32 353.998 532.58 355.553H542.074C541.747 354.234 541.346 353.034 540.871 351.952ZM559.61 355.553H568.746C567.39 350.327 564.848 346.235 561.117 343.24C559.19 341.693 551.377 339.125 537.925 335.647C543.669 337.867 547.856 339.625 550.495 340.925C555.153 343.219 558.172 348.134 559.61 355.553ZM291.225 220.903C288.593 220.413 285.844 221.055 283.679 222.693L281.201 224.567C280.302 225.248 279.587 226.143 279.124 227.172L266.736 254.678L272.107 254.723C273.668 247.784 276.961 243.19 282 241.075C282.368 240.92 282.742 240.771 283.122 240.626L291.225 220.903ZM294.87 237.947C296.18 237.804 297.534 237.697 298.929 237.628C298.769 235.936 298.532 234.613 298.223 233.671C298.054 233.153 297.87 232.773 297.689 232.536C297.577 232.388 297.504 232.336 297.462 232.326C297.43 232.318 297.396 232.313 297.363 232.309C296.243 234.842 295.412 236.721 294.87 237.947ZM285.328 254.833C284.534 252.956 283.015 251.784 280.885 251.139C279.345 250.674 277.821 250.547 275.999 250.583C275.448 251.827 274.987 253.214 274.616 254.744L285.328 254.833ZM106.539 188.496C111.546 193.441 111.743 198.288 106.915 202.386C106.636 202.622 106.282 202.712 105.947 202.664L106.953 216.02C119.597 223.889 128.629 237.017 130.99 252.345L137.017 247.101C137.244 246.599 137.791 246.298 138.357 246.403C141.656 247.019 145.066 245.913 147.372 243.403L151.424 238.994L166.345 217.525C167.844 215.368 167.612 212.453 165.791 210.56C165.428 210.183 165.008 209.822 164.53 209.475C162.138 207.741 159.529 207.536 156.53 208.88L145.589 223.399C145.182 223.939 144.415 224.047 143.875 223.64C143.335 223.233 143.227 222.466 143.634 221.926L154.867 207.019C155.708 204.235 155.026 202.122 152.769 200.422C150.522 198.729 148.345 198.546 146.008 199.837C145.993 199.845 145.978 199.853 145.964 199.861C145.923 199.97 145.866 200.075 145.793 200.173L134.556 215.085C134.149 215.625 133.381 215.733 132.841 215.326C132.301 214.919 132.193 214.151 132.6 213.611L143.837 198.699C143.954 198.545 144.1 198.426 144.262 198.344C144.303 198.238 144.36 198.133 144.436 198.032L160.421 176.693C161.693 173.002 161.253 170.516 159.221 168.949C157.025 167.254 154.26 167.355 150.705 169.404C150.673 169.422 150.645 169.446 150.622 169.474L121.725 204.549C121.119 205.285 119.943 205.077 119.626 204.178C118.465 200.887 117.612 198.444 117.067 196.846C116.971 196.564 116.874 196.267 116.766 195.927C116.694 195.699 116.631 195.495 116.514 195.119C115.546 191.992 115.036 190.807 114.173 190.04C113.022 189.018 111.776 188.271 110.429 187.793C109.051 187.304 107.583 187.62 106.539 188.496ZM105.223 190.645C105.133 191.032 105.102 191.432 105.131 191.83L105.757 200.14C108.843 197.271 108.721 194.276 105.223 190.645ZM151.376 239.063L151.48 238.933L151.424 238.994L151.376 239.063ZM156.251 175.521C156.725 175.039 157.5 175.033 157.982 175.507C158.464 175.982 158.47 176.757 157.996 177.239C156.286 178.977 154.139 178.96 152.022 177.311C149.887 175.648 149.366 173.606 150.778 171.67C151.176 171.124 151.942 171.004 152.488 171.403C153.035 171.801 153.154 172.567 152.756 173.113C152.202 173.873 152.353 174.466 153.526 175.379C154.718 176.307 155.471 176.313 156.251 175.521ZM79.4194 310.087C106.886 310.087 129.152 287.821 129.152 260.354C129.152 232.888 106.886 210.622 79.4194 210.622C51.9528 210.622 29.6867 232.888 29.6867 260.354C29.6867 287.821 51.9528 310.087 79.4194 310.087ZM96.3732 256.927C94.9493 257.359 93.2744 257.028 91.4284 256.012C90.8361 255.685 90.6203 254.941 90.9464 254.349C91.2724 253.756 92.0169 253.541 92.6092 253.867C94.12 254.698 95.1939 254.85 95.9656 254.453L95.7421 253.097C95.6619 252.61 95.8814 252.123 96.299 251.861L107.616 244.755L98.9 242.406C99.4447 244.457 98.5041 246.679 96.5355 247.676C94.7181 248.597 92.7633 249.185 90.6774 249.441C88.5916 249.698 86.5524 249.599 84.5663 249.146C83.2359 248.842 82.1097 247.962 81.4931 246.745C80.3474 244.483 81.2522 241.721 83.5139 240.575C85.3313 239.654 87.2861 239.066 89.372 238.81C90.6071 238.658 91.8259 238.631 93.0269 238.728C92.0749 236.37 90.5236 234.369 88.5923 232.87L72.0533 240.458L57.7961 242.987C57.7182 243.492 57.6781 244.007 57.6781 244.529V279.516C65.7428 281.375 73.3805 281.987 80.5938 281.356C87.7273 280.732 94.041 279 99.5432 276.165L96.3732 256.927ZM91.5392 241.119C90.9225 241.122 90.2997 241.163 89.6704 241.24C87.8636 241.462 86.1824 241.968 84.6203 242.759C83.5648 243.294 83.1426 244.583 83.6772 245.638C83.965 246.206 84.4906 246.617 85.1114 246.759C86.8185 247.149 88.5723 247.233 90.379 247.011C92.1858 246.79 93.867 246.283 95.4291 245.492C96.4846 244.957 96.9068 243.668 96.3722 242.613C96.2675 242.406 96.1314 242.22 95.9706 242.061C95.9912 242.162 96.0064 242.266 96.0157 242.373C96.1409 243.804 95.1504 245.06 93.8033 245.177C92.4563 245.295 91.2628 244.231 91.1375 242.799C91.0834 242.181 91.2378 241.595 91.5392 241.119ZM95.7306 239.017L110.958 243.12C111.989 243.398 112.195 244.771 111.29 245.339L98.2902 253.502L102.102 276.636C102.187 277.151 101.936 277.663 101.477 277.912C95.4907 281.154 88.5974 283.113 80.8071 283.795C73.0411 284.474 64.8266 283.766 56.1665 281.674C55.6169 281.542 55.2297 281.05 55.2297 280.484V244.529C55.2297 239.395 58.357 234.779 63.1249 232.875L73.7582 228.63C74.8718 228.185 76.0304 227.863 77.2136 227.668C85.4028 226.318 93.2666 231.225 95.7306 239.017ZM80.6355 261.895C76.009 264.355 70.2644 262.598 67.8044 257.972C65.3445 253.346 67.1008 247.601 71.7273 245.141C72.3243 244.823 73.0655 245.05 73.3829 245.647C73.7003 246.244 73.4737 246.985 72.8767 247.303C69.4442 249.128 68.1411 253.39 69.9662 256.823C71.7913 260.255 76.0535 261.558 79.4861 259.733C80.083 259.416 80.8243 259.642 81.1417 260.239C81.4591 260.836 81.2325 261.577 80.6355 261.895ZM649.587 297.233C677.053 297.233 699.319 274.967 699.319 247.5C699.319 220.034 677.053 197.768 649.587 197.768C622.12 197.768 599.854 220.034 599.854 247.5C599.854 274.967 622.12 297.233 649.587 297.233ZM641.32 229.55C641.901 230.128 642.186 230.992 642 231.868C641.711 233.224 640.406 234.096 639.083 233.814C637.997 233.584 637.238 232.649 637.16 231.571C636.716 231.923 636.285 232.315 635.866 232.748C638.285 234.401 640.774 235.088 643.371 234.843C645.057 234.683 646.605 234.148 648.026 233.226C647.378 232.142 646.781 230.933 646.235 229.598C645.071 229.306 643.887 229.218 642.681 229.333C642.217 229.376 641.763 229.449 641.32 229.55ZM668.041 252.209L666.862 265.398C666.811 265.966 666.375 266.423 665.81 266.501C659.252 267.411 652.158 267.052 644.534 265.432C636.876 263.804 631.13 261.504 627.289 258.495C626.938 258.22 626.764 257.776 626.835 257.336L628.731 245.614C628.724 245.443 628.752 245.279 628.81 245.128L629.433 241.273L620.31 239.334C619.436 239.149 619.049 238.119 619.585 237.403L628.663 225.283C634.674 217.259 645.057 213.843 654.658 216.731L662.18 218.995C667.187 220.501 670.446 225.319 669.98 230.527L669.338 237.71L692.095 244.719C692.223 244.758 692.347 244.806 692.469 244.861C694.005 245.565 694.681 247.381 693.977 248.918L688.583 260.699C688.533 260.808 688.477 260.913 688.415 261.015C687.537 262.459 685.655 262.918 684.21 262.04L668.041 252.209ZM643.329 218.634C638.361 219.689 633.808 222.499 630.623 226.751L622.693 237.338L631.082 239.121C631.721 239.257 632.14 239.869 632.036 240.514L631.772 242.147C633.459 242.413 634.774 242.645 635.721 242.847C636.321 242.974 636.783 243.091 637.12 243.203C637.329 243.272 637.502 243.343 637.655 243.427C638.032 243.637 638.305 243.897 638.389 244.417C638.488 245.028 638.201 245.447 637.806 245.711C637.658 245.81 637.506 245.876 637.33 245.935C637.109 246.008 636.832 246.07 636.484 246.131C635.926 246.228 635.174 246.321 634.233 246.416C634.009 246.439 633.774 246.462 633.529 246.485C632.998 246.534 631.863 246.629 631.036 246.698L629.37 256.998C632.88 259.539 638.106 261.562 645.043 263.037C652.025 264.521 658.513 264.907 664.511 264.2L666.677 239.976C665.554 237.969 663.566 236.424 661.09 235.898C658.013 235.243 654.984 236.334 653.1 238.486C651.581 237.414 650.357 236.33 649.43 235.233C647.667 236.394 645.721 237.08 643.602 237.28C639.972 237.624 636.521 236.478 633.3 233.889C632.771 233.464 632.689 232.688 633.119 232.162C635.686 229.014 638.813 227.239 642.45 226.895C643.402 226.805 644.341 226.817 645.268 226.931C644.485 224.499 643.839 221.733 643.329 218.634ZM580.828 216.106C580.832 216.018 580.846 215.929 580.87 215.84L588.568 187.502C588.504 187.372 588.461 187.225 588.447 187.064C588.126 183.434 586.551 181.267 583.631 180.33C580.51 179.328 578.075 180.268 576.037 183.316C575.905 183.513 575.735 183.655 575.548 183.744L568.018 212.527C567.975 212.694 567.899 212.844 567.799 212.972C567.806 213.018 567.811 213.065 567.814 213.114C567.983 216.447 569.609 218.363 572.915 219.112C576.236 219.865 578.8 218.894 580.828 216.106ZM583.109 216.777C583.109 216.789 583.108 216.802 583.107 216.814C582.905 219.823 584.365 221.811 587.743 223C590.884 224.107 594.77 223.506 599.436 221.11C600.322 220.654 601.137 220.07 601.852 219.377L608.097 213.322L602.246 211.326C601.697 211.138 601.354 210.59 601.427 210.014L603.578 192.958C603.558 188.309 602.047 185.749 599.044 184.925C596.318 184.177 593.735 184.902 591.189 187.195L583.232 216.482C583.204 216.588 583.162 216.687 583.109 216.777ZM565.622 212.394C565.599 212.236 565.607 212.072 565.65 211.908L573.443 182.118C573.469 182.02 573.505 181.928 573.551 181.843C572.625 178.785 570.749 176.87 567.857 175.982C566.684 175.622 565.596 175.477 564.592 175.54C562.212 175.69 560.198 177.354 559.603 179.664L553.2 204.515C552.153 208.579 554.357 212.775 558.297 214.22C560.696 215.099 563.091 214.528 565.622 212.394ZM562.284 184.57C562.059 186.032 562.742 186.885 564.751 187.406C566.751 187.925 567.666 187.559 568.061 186.311C568.265 185.666 568.952 185.308 569.597 185.512C570.242 185.716 570.599 186.404 570.395 187.048C569.562 189.684 567.288 190.593 564.136 189.776C560.994 188.961 559.431 187.009 559.864 184.197C559.967 183.529 560.592 183.07 561.26 183.173C561.929 183.276 562.387 183.901 562.284 184.57ZM577.89 189.483C577.665 190.946 578.348 191.798 580.357 192.319C582.357 192.838 583.272 192.473 583.667 191.224C583.871 190.579 584.559 190.222 585.203 190.426C585.848 190.629 586.205 191.317 586.002 191.962C585.168 194.598 582.894 195.507 579.743 194.689C576.6 193.875 575.037 191.922 575.47 189.11C575.573 188.442 576.199 187.984 576.867 188.087C577.535 188.19 577.993 188.815 577.89 189.483ZM593.2 193.583C592.975 195.046 593.658 195.898 595.667 196.42C597.667 196.938 598.583 196.573 598.977 195.324C599.181 194.679 599.869 194.322 600.513 194.526C601.158 194.73 601.515 195.417 601.312 196.062C600.479 198.698 598.204 199.607 595.053 198.79C591.911 197.975 590.347 196.022 590.781 193.21C590.883 192.542 591.509 192.084 592.177 192.187C592.845 192.29 593.303 192.915 593.2 193.583ZM406.525 114.686C401.114 111.748 397.081 109.548 394.425 108.085C391.909 106.699 388.876 105.01 385.325 103.018C379.401 108.354 377.122 116.101 378.503 126.401L385.321 125.564C385.993 125.481 386.603 125.958 386.686 126.63C386.768 127.301 386.291 127.911 385.62 127.994L377.614 128.977C376.959 129.057 376.358 128.604 376.255 127.953C374.899 119.357 375.884 112.224 379.218 106.616L375.422 110.033C374.506 112.016 374.013 114.228 374.052 116.547L374.514 144.365C380.323 146.45 386.766 147.062 393.86 146.191C400.942 145.321 407.059 143.556 412.217 140.901L409.983 130.613C409.816 129.843 410.409 129.118 411.197 129.129C411.517 129.133 411.839 129.116 412.161 129.076C416.02 128.603 418.764 125.091 418.29 121.232C417.816 117.373 414.304 114.629 410.445 115.103C409.687 115.196 408.962 115.407 408.288 115.727C407.575 116.064 406.734 115.651 406.567 114.88L406.548 114.791C406.54 114.756 406.532 114.721 406.525 114.686ZM392.774 99.0461C400.192 100.193 406.474 105.551 408.617 112.989C409.114 112.843 409.625 112.737 410.147 112.673C415.348 112.034 420.082 115.733 420.72 120.934C421.35 126.062 417.763 130.736 412.677 131.477L414.807 141.289C414.923 141.82 414.673 142.364 414.195 142.624C408.586 145.673 401.905 147.67 394.158 148.621C386.364 149.578 379.261 148.828 372.864 146.363C372.399 146.183 372.089 145.739 372.08 145.241L371.604 116.588C371.492 109.884 375.198 103.95 380.78 100.953C377.129 99.7195 374.858 95.9481 375.606 92.0577C376.01 89.9599 377.235 88.176 378.928 87.0377C376.625 85.6837 375.282 83.003 375.761 80.2139C376.247 77.3834 378.504 75.1897 381.347 74.7843L386.14 74.1008C389.58 73.6103 392.767 76.0014 393.257 79.4415C393.258 79.4487 393.259 79.4559 393.26 79.4631C393.579 81.7548 392.691 83.9458 391.07 85.379C393.736 86.2422 395.8 88.5811 396.169 91.5453C396.17 91.5531 396.171 91.5609 396.172 91.5688C396.539 94.591 395.143 97.4353 392.774 99.0461ZM386.645 115.53C386.862 115.449 387.093 115.4 387.335 115.387C388.685 115.316 389.841 116.422 389.916 117.857C389.951 118.525 389.746 119.146 389.38 119.627C390.221 119.587 391.052 119.441 391.876 119.189C394.383 118.422 396.403 116.805 397.96 114.288C395.262 113.073 392.683 112.861 390.176 113.628C388.867 114.028 387.692 114.66 386.645 115.53ZM385.209 116.97C384.813 117.445 384.441 117.964 384.091 118.528C384.468 118.698 384.841 118.848 385.213 118.978C385.107 118.71 385.042 118.419 385.026 118.113C385.005 117.708 385.072 117.32 385.209 116.97ZM392.592 121.53C389.084 122.603 385.466 122.121 381.805 120.123C381.221 119.804 380.999 119.076 381.305 118.485C383.222 114.782 385.952 112.359 389.46 111.287C392.968 110.214 396.586 110.696 400.246 112.694C400.83 113.013 401.053 113.741 400.747 114.332C398.829 118.035 396.099 120.458 392.592 121.53ZM381.316 132.238C380.676 132.018 380.336 131.322 380.556 130.682C380.775 130.043 381.472 129.703 382.111 129.922C383.628 130.444 385.394 130.17 387.467 129.026C388.059 128.699 388.804 128.914 389.131 129.506C389.457 130.098 389.242 130.843 388.651 131.17C386.015 132.624 383.55 133.006 381.316 132.238ZM493.772 100.95L524.003 165.263C524.204 165.69 524.632 165.964 525.104 165.967L636.68 166.68C637.453 166.685 638.036 165.982 637.89 165.224L625.303 100.036C625.192 99.4591 624.687 99.0429 624.099 99.0436L494.878 99.2055C493.981 99.2066 493.39 100.139 493.772 100.95ZM623.091 101.493L635.203 164.222L525.891 163.523L496.806 101.651L623.091 101.493ZM569.835 152.347C573.252 152.347 577.645 150.993 580.361 149.333C585.506 146.187 587.739 140.914 587.739 134.443C587.739 130.422 586.762 126.209 584.523 123.22C581.258 118.86 575.701 116.539 569.835 116.539C564.008 116.539 558.982 119.645 555.713 123.955C553.434 126.959 551.931 130.382 551.931 134.443C551.931 139.833 554.764 144.514 558.533 147.797C561.677 150.536 565.337 152.347 569.835 152.347ZM118.134 109.626C116.275 109.626 114.768 111.133 114.768 112.992C114.768 114.852 116.275 116.359 118.134 116.359H244.532C246.392 116.359 247.899 114.852 247.899 112.992C247.899 111.133 246.392 109.626 244.532 109.626H118.134ZM118.747 132.885C116.887 132.885 115.38 134.393 115.38 136.252C115.38 138.111 116.887 139.618 118.747 139.618H167.556C169.415 139.618 170.922 138.111 170.922 136.252C170.922 134.393 169.415 132.885 167.556 132.885H118.747ZM183.935 132.885C182.076 132.885 180.568 134.393 180.568 136.252C180.568 138.111 182.076 139.618 183.935 139.618H208.04C209.899 139.618 211.407 138.111 211.407 136.252C211.407 134.393 209.899 132.885 208.04 132.885H183.935ZM223.109 132.885C221.25 132.885 219.742 134.393 219.742 136.252C219.742 138.111 221.25 139.618 223.109 139.618H241.125C242.984 139.618 244.492 138.111 244.492 136.252C244.492 134.393 242.984 132.885 241.125 132.885H223.109Z" fill="white"/>
<path fill-rule="evenodd" clip-rule="evenodd" d="M347.042 255.256L342.438 244.198C339.357 236.798 333.527 230.966 326.28 227.848L335.1 160.126C336.032 152.976 342.543 147.906 349.703 148.757L370.623 151.243L371.842 144.51L414.027 138.345L426.094 157.833L451.87 160.896C456.688 161.468 460.894 164.432 463.053 168.777L540.155 323.884H480.96L459.052 255.174L347.042 255.256ZM194.187 162.266H227.852C232.5 162.266 236.268 166.034 236.268 170.682C236.268 175.331 232.5 179.099 227.852 179.099H194.187C189.538 179.099 185.77 175.331 185.77 170.682C185.77 166.034 189.538 162.266 194.187 162.266ZM565.27 127.692C565.27 127.537 570.065 129.399 579.654 133.279L567.836 143.291C566.125 133.046 565.27 127.846 565.27 127.692ZM459.623 253.505L446.492 204.108C446.318 203.455 445.648 203.066 444.994 203.24C444.341 203.413 443.952 204.084 444.126 204.737L457.257 254.134C457.431 254.787 458.101 255.176 458.755 255.002C459.408 254.829 459.797 254.158 459.623 253.505ZM75.2034 276.754C75.6868 276.761 76.1702 276.756 76.6534 276.74L107.654 275.706C108.077 275.691 108.496 275.787 108.871 275.983C110.069 276.611 110.532 278.09 109.905 279.288L105.565 287.576L115.451 294.624C112.652 297.556 110.076 299.799 107.721 301.355C106.219 302.348 104.794 303.143 103.808 303.725C99.1211 306.492 94.3659 307.914 90.9724 308.751C87.0024 309.731 82.9309 310.122 78.3819 310.122C77.5477 310.122 75.0213 309.964 74.2102 309.879C67.8639 309.212 60.5877 307.424 52.4966 302.253C51.01 301.303 48.2379 299.234 45.7119 296.934C45.2506 296.514 44.5465 295.819 43.5996 294.85L53.4656 287.576L50.301 279.809C50.1772 279.505 50.1157 279.179 50.1203 278.851C50.1393 277.498 51.2507 276.418 52.6028 276.437L75.2034 276.754ZM645.494 258.83L674.823 260.141C676.174 260.202 677.22 261.346 677.159 262.696C677.146 262.989 677.081 263.276 676.966 263.545L674.993 268.185C672.961 272.963 673.992 278.495 677.609 282.22L681.198 285.918C672.207 293.529 661.67 297.335 649.586 297.335C645.311 297.335 640.181 296.577 635.599 295.262C633.11 294.548 630.666 293.536 628.672 292.622C626.417 291.589 623.848 290.183 621.067 288.26C620.467 287.845 619.557 287.153 618.337 286.183C621.625 281.304 622.748 275.281 621.439 269.545L618.924 258.519C618.623 257.201 619.448 255.888 620.767 255.587C621.06 255.52 621.362 255.508 621.66 255.551L642.503 258.549C643.495 258.692 644.493 258.786 645.494 258.83Z" fill="#FF4E00"/>
</g>
</svg>
