<svg width="433" height="353" fill="none" xmlns="http://www.w3.org/2000/svg"><path d="M321.104 86.992L307.28 129.47l-26.055-14.606c-5.766-3.23-9.011-.677-7.216 5.682l15.6 55.252-33.051 16.939c-4.744 2.434-4.744 6.41 0 8.843l33.057 16.939-15.6 55.252c-1.794 6.36 1.45 8.912 7.217 5.682l26.048-14.612 13.824 42.483c2.598 7.99 6.852 7.99 9.456 0l13.824-42.477 26.055 14.606c5.767 3.23 9.011.678 7.216-5.682l-15.6-55.252 33.057-16.939c4.744-2.433 4.744-6.409 0-8.843l-33.057-16.939 15.6-55.252c1.795-6.359-1.449-8.912-7.216-5.682l-26.055 14.606-13.824-42.477c-2.598-7.99-6.852-7.99-9.456 0z" fill="#171717"/><path fill-rule="evenodd" clip-rule="evenodd" d="M181.261 266.824a.934.934 0 00-.037-.079l-.193-.357 4.972-11.104a.725.725 0 00-1.323-.592l-4.516 10.086-5.089-9.443a.725.725 0 00-1.276.688l5.618 10.424-.141.315a.73.73 0 00-.024.059l-24.015 22.958-.341-.177-19.747 24.665a.725.725 0 01-.872.204l-65.018-30.318a.725.725 0 01-.197-1.178l3.059-2.956a10.688 10.688 0 017.427-3.002h22.509l11.414-9.013-29.876-15.577 59.734-57.892-39.965-7.047 2.087-11.835-23.698-6.208a.725.725 0 01-.541-.714l1.042-59.699-26.43 9.766c-1.264 2.966-3.194 5.921-5.784 9.088-5.926 7.248-12.99 11.307-21.236 11.307-7.686 0-14.888-4.232-21.128-11.285C2.403 121.947 0 116.892 0 110.208c0-6.226 2.13-12.62 5.733-17.566 5.295-7.27 13.623-11.42 23.071-11.42 5.608 0 11.07 2.327 16.611 6.474l8.014-12.442a18.116 18.116 0 0113.68-8.24l25.062-2.152a3.607 3.607 0 012.681 6.31l-2.546 2.223a2.717 2.717 0 001.883 4.762l4.49-.156a3.43 3.43 0 012.154 6.188l-3.31 2.44a2.717 2.717 0 001.32 4.888l8.502.924a3.623 3.623 0 01.865 7l-14.335 5.297 8.11 17.014 11.617 7.67 2.971-16.849 41.186 17.17 1.172-5.515c.121-.57.672-.944 1.247-.845l44.32 7.576c.592.101.99.663.889 1.255l-.009.043-3.429 15.907.075.032 21.332 31.268a9.24 9.24 0 00-10.881 1.719c-2.135 2.178-3.813 4.183-5.035 6.014l-4.838 7.252 9.263 1.871a.72.72 0 01.163-.224c1.321-1.232 2.778-3.111 4.362-5.631 1.643-2.615 4.219-5.787 7.731-9.525a.725.725 0 011.056.993c-3.453 3.675-5.974 6.779-7.56 9.303-1.45 2.308-2.811 4.113-4.089 5.42l8.279 1.672a.7.7 0 01.091-.194c1.707-2.58 3.386-4.776 5.038-6.59 1.629-1.79 3.47-3.755 5.521-5.895a.725.725 0 011.047 1.002 318.878 318.878 0 00-5.497 5.869c-1.534 1.684-3.101 3.722-4.7 6.111l4.67.943c-1.531-.591-2.199-1.691-1.762-3.111a.725.725 0 011.386.426c-.202.656.054 1.047 1.039 1.384.998.342 1.527.165 1.87-.553a.725.725 0 011.307.624c-.484 1.015-1.287 1.53-2.305 1.54l2.062.416a.724.724 0 01.248-.734l9.484-7.669a.724.724 0 11.911 1.127l-9.327 7.542 6.206 1.254-1.631 7.118v.278l15.717 3.155-.157-.327 38.019 6.972-12.648 28.034 4.584 2.465a6.34 6.34 0 008.547-2.509 2713.39 2713.39 0 0116.086-28.603c5.563-9.749 9.753-20.609 12.568-32.583a6.34 6.34 0 00-2.721-6.771l-14.144-9.175a.725.725 0 01.789-1.216l14.144 9.175a7.79 7.79 0 013.343 8.319c-2.847 12.106-7.087 23.097-12.721 32.97a2746.557 2746.557 0 00-16.077 28.587 7.788 7.788 0 01-10.5 3.082l-4.496-2.417-8.979 19.903a9.965 9.965 0 01-10.013 5.823l-77.545-7.276zm-28.33 21.753l-38.051-19.839-11.188 8.834 12.187 5.517a.725.725 0 01-.598 1.32l-13.129-5.943H79.548c-2.395 0-4.697.93-6.42 2.595l-2.3 2.224 56.191 26.202c6.557-6.337 12.374-9.531 17.486-9.531.076 0 .15.011.219.033l8.827-11.026-.62-.386zm-47.228-114.356l7.625-43.244-12.31-8.127a.723.723 0 01-.255-.293l-8.88-18.63A9.242 9.242 0 0087 99.335l-3.106-1.253-.746 42.737a.722.722 0 01.707-.105c9.632 3.725 13.27 14.022 11.022 30.671l10.825 2.836zm168.403-35.933c.48.131.975.201 1.485.21 1.551.027 2.985-.514 4.321-1.646-1.296-1.178-2.709-1.769-4.261-1.796a5.945 5.945 0 00-2.335.425c.136-.006.276.009.414.046.773.207 1.221 1.041 1.001 1.862a1.59 1.59 0 01-.625.899zm-2.228-1.128a1.637 1.637 0 01.366-1.131c-.31.195-.615.419-.915.673.181.164.364.317.549.458zm-1.113-8.056l-2.811 1.251a8.875 8.875 0 00-1.953 3.387l-4.611 14.805c3.04 1.992 6.24 3.463 9.604 4.415 3.374.955 7.434 1.33 12.179 1.118l.571-5.821a.724.724 0 01.947-.617 4.166 4.166 0 005.396-3.163 4.166 4.166 0 00-4.601-4.931.725.725 0 01-.812-.669c-2.507-2.79-4.379-4.846-5.617-6.166a807.163 807.163 0 01-4.196-4.517c-4.311 1.92-7.011 5.865-8.118 11.916l3.992.775a.725.725 0 01-.277 1.423l-4.687-.911a.724.724 0 01-.577-.825c.809-5.087 2.668-8.923 5.571-11.47zm9.018-1.782a11.647 11.647 0 016.39 10.748 5.615 5.615 0 11-1.068 11.159l-.476 4.859c5.528-.853 9.914-3.557 12.364-8.098 3.782-7.011 5.391-13.547 5.217-19.626-.134-4.68-1.297-8.798-3.182-12.536-1.525-3.022-6.047-6.797-11.183-9.082-6.122-2.723-12.296-3.114-17.408-.58-5.762 2.856-11.971 9.332-15.716 16.486-4.153 7.932-4.786 15.528-1.161 20.991 1.52 2.291 3.778 4.437 6.503 6.29l4.555-14.622a10.349 10.349 0 018.058-7.112 4.634 4.634 0 011.507-8.17 3.915 3.915 0 013.603-6.455l2.823.492a3.724 3.724 0 013.03 4.308l-.002.013a3.946 3.946 0 01-2.316 2.93 4.405 4.405 0 011.741 4.417 4.67 4.67 0 01-3.279 3.588zm12.106-40.264l-4.735 15.827c.427.168.853.347 1.28.537 5.418 2.41 10.195 6.398 11.887 9.753 1.977 3.917 3.197 8.24 3.337 13.147.182 6.338-1.489 13.125-5.39 20.356-4.043 7.495-12.797 10.365-23.159 8.69-9.441-1.526-18.601-6.661-22.757-12.924-3.967-5.978-3.289-14.11 1.085-22.464 3.88-7.413 10.304-14.113 16.356-17.113 4.793-2.375 10.382-2.384 15.997-.481l4.707-15.73c-.371-.2-.684-.46-.875-.75-.72-1.099.488-2.915 1.518-3.432 1.03-.518 2.335.349 2.601.883.266.535.556 1.538-.185 2.923-.323.603-.975.819-1.667.778zm-16.323 52.889c-2.171-.038-4.12-.971-5.815-2.766a.724.724 0 01.017-1.013c1.757-1.734 3.737-2.599 5.908-2.561 2.171.038 4.12.971 5.815 2.765a.725.725 0 01-.018 1.014c-1.756 1.734-3.737 2.599-5.907 2.561zm-8.307 3.965a.724.724 0 01.871-1.158c.759.571 1.803.74 3.18.475a.725.725 0 01.274 1.423c-1.75.337-3.207.101-4.325-.74zM128.428 310.144l5.946 2.773 9.184-11.472c-4.353.37-9.406 3.256-15.13 8.699zM93.465 171.015c2.121-15.953-1.29-25.53-10.132-28.95a.706.706 0 01-.204-.12l-.458 26.242 10.794 2.828zm-64.66-33.271c7.763 0 14.44-3.838 20.113-10.775 4.835-5.913 7.241-10.972 7.241-16.761 0-8.288-3.699-15.134-10.582-20.56-5.673-4.472-11.19-6.976-16.773-6.976-8.99 0-16.88 3.932-21.9 10.823-3.424 4.7-5.455 10.797-5.455 16.713 0 6.281 2.254 11.021 7.312 16.739 5.991 6.772 12.84 10.797 20.043 10.797zm34.667 47.067l-4.238 20.332 12.038 8.775-15.353 1.811-12.008 13.955 1.998-17.337-11.41-9.431 16.098-.073 12.875-18.032zm-48.075 78.891l12.13 16.112 12.965-2.035-8.441 10.667 1.203 16.127-9.546-12.005-12.982 1.238 9.987-10.052-5.316-20.052zM339.648 80.094l14.064 18.01 15.258-2.445-10.045 12.118 1.223 18.155-11.075-13.413-15.269 1.548 11.854-11.443-6.01-22.53zm42.74 90.198l-5.228 19.479 9.585 8.963-13.603-.085-11.967 10.877 3.582-14.913-8.968-9.468 14.071 1.682 12.528-16.535zm-13.046 111.325a12.002 12.002 0 00-1.141-1.04c13.046-6.749 23.09-12.089 25.218-13.529 6.587-4.456 6.903-12.48.536-16.606-4.317-2.798-14.068-1.051-29.096 5.391l-7.991 4.209c3.486 2.385 6.116 5.089 7.27 7.329 1.599 3.103 3.268 7.449 3.693 12.925-1.943-1.413-4.432-2.197-7.539-1.515-9.653 2.12-12.568 9.238-22.021 5.133-9.453-4.104-10.229-10.106-19.997-8.084a545.068 545.068 0 01-7.588 1.53c4.175-9.266 12.192-17.781 19.534-21.343 8.391-4.07 18.228-1.235 25.257 3.119l8.732-4.599.052-.025c15.487-6.641 25.595-8.454 30.482-5.286 7.271 4.712 6.905 14.005-.512 19.022-2.136 1.446-12.017 6.705-24.889 13.369zm-2.352 9.647c-.899 4.006-2.504 8.383-5.086 13.107-7.589 13.884-29.456 11.382-42.875 2.778-14.282 7.106-25.535 12.55-27.875 13.347-7.104 2.42-13.067-3.025-14.293-11.7-.788-5.579 7.787-12.71 25.69-21.784l4.574-2.409-.06.851c6.216-3.004 10.894-3.988 14.034-2.95 4.709 1.557 17.606 11.589 25.77 8.788 7.808-2.679 17.503-6.894 20.121-.028zm-49.344 14.955c-2.875-2.026-5.284-4.343-6.968-6.833-2.715-4.013-3.359-8.766-2.581-13.657l-4.875 2.568-.01.005c-17.277 8.757-25.571 15.652-24.915 20.292.523 3.707 2.043 6.914 4.213 8.895 2.262 2.065 5.081 2.689 8.176 1.635 2.256-.769 13.096-6.01 26.96-12.905zm47.239-50.4l-.052.025.026-.011.026-.014zM219.72 90.942l1.184.548a.736.736 0 01.084-.001c1.974-.245 3.04-1.05 3.36-2.437.332-1.44-.334-2.67-2.152-3.789a.697.697 0 01-.122-.095l-13.189-6.036a.726.726 0 01-.31-.27c-1.773-.022-2.772.692-3.182 2.247-.449 1.698.121 2.968 1.814 3.976a.716.716 0 01.257.254.724.724 0 01.274.067l11.691 5.402c-1.287-.83-1.564-2.16-.84-3.718.742-1.599 1.945-2.219 3.368-1.612a.725.725 0 11-.569 1.334c-.631-.27-1.046-.056-1.485.889-.444.957-.323 1.5.355 1.917a.725.725 0 01-.538 1.324zm.945 2.034L207.13 86.72a.722.722 0 01-.306-.266c-1.81.447-2.88 1.483-3.303 3.171-.302 1.203-.212 2.246.257 3.162a3.265 3.265 0 001.535 1.474l3.867 1.788a.73.73 0 01.127.038l8.003 3.228c2.098.172 3.439-.49 4.177-2.004.709-1.453.459-2.859-.822-4.336zm-8.759 5.724l-1.39 11.982 17.496-2.754a5.797 5.797 0 004.858-5.068l4.085-35.746c-2.635-2.186-2.552-5 .166-8.095a2.353 2.353 0 00-2.056-.805c-2.489.286-3.947 1.576-4.501 3.977-.214.924-1.232 4.712-3.066 11.401a.725.725 0 01-.843.52l-7.687-1.553 5.786 3.015c.02.01.039.022.058.034 2.29 1.477 3.243 3.384 2.73 5.606-.42 1.816-1.627 3.014-3.532 3.567 1.543 1.29 2.155 2.842 1.75 4.597-.397 1.72-1.585 2.835-3.466 3.334 1.176 1.695 1.358 3.467.496 5.235-1.033 2.118-2.994 3.059-5.719 2.803a.71.71 0 01-.203-.05l-4.962-2zm1.97-27.17l-2.51-.506a.18.18 0 00-.047-.004c-2.458.155-3.76 1.03-4.112 2.641-.346 1.579.217 2.829 1.78 3.875.091.06.161.133.212.212a.725.725 0 01.289.066l12.783 5.851a.735.735 0 01.187-.048c2.139-.257 3.307-1.151 3.672-2.73.362-1.57-.287-2.88-2.076-4.044l-10.085-5.255a.724.724 0 01-.093-.057zm23.813-10.924c-1.421 1.852-1.584 3.36-.525 4.678l.51-4.463c.008-.071.013-.143.015-.215zm.795 5.892a.725.725 0 01-.111.974l-4.063 35.553a7.248 7.248 0 01-6.073 6.335l-18.439 2.902a.724.724 0 01-.832-.799l1.533-13.206-5.795-2.68a4.714 4.714 0 01-2.216-2.128c-.636-1.242-.756-2.645-.373-4.175.454-1.812 1.526-3.098 3.165-3.822-1.335-1.245-1.782-2.844-1.289-4.713.433-1.639 1.42-2.69 2.885-3.114-1.069-1.195-1.443-2.637-1.085-4.274.508-2.32 2.389-3.585 5.436-3.777.143-.009.286 0 .426.029l14.626 2.954c1.712-6.251 2.673-9.827 2.873-10.692.692-3.002 2.651-4.735 5.748-5.09a3.804 3.804 0 014.214 4.21l-.63 5.513zm-16.122 14.947a.724.724 0 11-.922 1.118c-1.219-1.006-1.33-2.384-.379-3.853.958-1.48 2.235-1.927 3.56-1.127a.726.726 0 01-.749 1.24c-.588-.354-1.029-.2-1.594.674-.574.886-.529 1.442.084 1.948zm-4.947 15.776a.725.725 0 01-.842 1.18c-1.287-.92-1.493-2.287-.647-3.818.852-1.544 2.095-2.078 3.472-1.373a.725.725 0 01-.66 1.29c-.611-.313-1.04-.128-1.543.783-.51.924-.427 1.475.22 1.938zm-25.282 96.476l-1.224 5.68 45.141 8.857 1.258-5.056-45.175-9.481zm-13.662 3.239l10.972 2.153 1.232-5.698-43.043-9.035-1.174 5.524 32.013 7.056zm12.606-5.403l12.805-59.209-43.606-7.454-12.341 58.06 43.142 8.603zm-13.894-38.362c1.143.552 2.133 1.405 2.525 2.184 1.048 2.085 1.118 4.55-.433 7.43-.965 1.793-3.01 2.466-5.356 2.087-2.088-.338-4.112-1.475-5.062-2.91-.95-1.435-.792-3.322.194-5.21.852-1.629 2.257-3.099 3.616-3.774a4.266 4.266 0 011.703-.438l-1.58-3.27a.725.725 0 011.305-.631l1.204 2.492.383-2.422a.726.726 0 011.432.226l-.416 2.626 2.015-2.18a.724.724 0 111.064.984l-2.594 2.806zm-.786 1.233c-1.113-.496-2.207-.565-3.085-.129-1.069.532-2.26 1.777-2.976 3.148-.767 1.467-.879 2.819-.271 3.739.707 1.068 2.37 2.002 4.085 2.279 1.797.291 3.222-.178 3.849-1.343 1.315-2.442 1.26-4.411.414-6.092-.246-.49-1.073-1.182-2.016-1.602zm34.848 38.279a.725.725 0 111.357.508c-.554 1.48-1.821 2.033-3.52 1.613-1.711-.424-2.549-1.486-2.224-2.999a.724.724 0 111.417.304c-.144.671.145 1.038 1.156 1.288 1.024.254 1.535.031 1.814-.714zm9.46 2.526a.725.725 0 011.358.508c-.555 1.48-1.822 2.033-3.52 1.613-1.712-.424-2.549-1.486-2.225-2.999a.725.725 0 011.417.304c-.144.671.145 1.038 1.156 1.288 1.025.254 1.535.031 1.814-.714z" fill="#fff"/><path fill-rule="evenodd" clip-rule="evenodd" d="M223.269 179.417l-.894-1.394-20.695-29.828 3.068-16.459-1.443-.879 2.508-21.939a3.08 3.08 0 012.799-2.719l26.344-2.24v38.154l22.184 12.991 2.565-5.686c5.674 3.042 9.758 4.805 12.254 5.288 2.027.392 4.856 1.124 9.213 1.124.725 0 1.828-.088 3.31-.263l-.334 4.307 19.365 3.681a9.237 9.237 0 017.081 6.28l15.34 48.316a7.609 7.609 0 01-9.056 9.694l-63.732-15.55-6.789-14.214a18.11 18.11 0 00-6.116-7.143l-15.95-10.913a9.258 9.258 0 00-1.022-.608zm47.203 7.103a.725.725 0 00-.282 1.422l14.029 2.782a.725.725 0 00.825-.95l-4.708-13.501a.725.725 0 10-1.368.477l4.291 12.306-12.787-2.536z" fill="#FF4E00"/></svg>