<svg width="353" height="353" fill="none" xmlns="http://www.w3.org/2000/svg"><path d="M277.079 208.219l-44.092-7.161 10.447-27.983c2.31-6.193-.709-9.008-6.719-6.262l-52.214 23.871-21.797-30.069c-3.131-4.316-7.06-3.708-8.739 1.353l-11.681 35.26-56.989-6.962c-6.559-.8-8.585 2.797-4.51 8.001l18.426 23.505-39.868 20.163c-7.498 3.79-6.847 7.994 1.447 9.345l44.092 7.161-10.447 27.983c-2.31 6.193.71 9.008 6.719 6.262l52.214-23.871 21.799 30.076c3.13 4.315 7.06 3.707 8.738-1.354l11.682-35.26 56.988 6.962c6.559.8 8.585-2.796 4.511-8.001l-18.421-23.512 39.861-20.162c7.498-3.79 6.847-7.994-1.447-9.345z" fill="#171717"/><mask id="a" maskUnits="userSpaceOnUse" x="0" y="61" width="275" height="262"><path d="M136.764 294.323L213.88 322.5l34.767-13.347 25.541-37.569-5.273-44.984-36.251-35.427L205.806 61H19.444L0 79.125l57.672 135.447 79.092 79.751z" fill="#C4C4C4"/></mask><g mask="url(#a)" fill-rule="evenodd" clip-rule="evenodd"><path d="M-211.723 274.707h49.493a1.318 1.318 0 100-2.636h-83.472l-99.089 272.774a1.318 1.318 0 01-2.478-.901l98.762-271.873h-45.253a4.156 4.156 0 010-8.311h86.697a1.302 1.302 0 01.007-1.069l14.18-31.485a9.882 9.882 0 013.05-3.824l2.668-2.019a12.99 12.99 0 0110.735-2.303l19.426-47.282c2.508-2.871 5.112-3.745 7.811-2.622l.127.055a6.225 6.225 0 013.175 8.211l-19.689 44.51 26.057 6.911a1.319 1.319 0 01-.675 2.548l-26.462-7.018-3.102 7.012c2.052.781 2.987 3.877 3.346 9.337a1.318 1.318 0 01-1.271 1.404c-7.385.245-13.609 1.438-18.675 3.565-2.47 1.037-4.493 2.754-6.068 5.175 1.611.047 3.08.245 4.61.708 3.374 1.021 5.815 3.129 6.826 6.524l24.257.203H3.692L34.2 358.774c1.304 4.122.578 8.4-1.617 11.756h47.038c.972-3.035 3.21-4.93 6.272-5.856 1.35-.409 2.649-.594 4.058-.647-1.416-2.112-3.219-3.617-5.405-4.534-4.627-1.94-10.314-3.029-17.063-3.255H51.535a1.319 1.319 0 010-2.637h15.97l.043.001c7.06.234 13.066 1.383 18.017 3.46 4.993 2.094 8.262 6.631 9.816 13.468h13.485c-1.434-6.956-4.217-11.38-8.291-13.387-4.74-2.335-14.402-6.142-28.947-11.4a1.319 1.319 0 01-.865-1.113l-8.352-7.204a1.318 1.318 0 111.721-1.996l8.147 7.025c25.336 6.002 39.31 10.16 42.55 12.761 4.883 3.92 8.057 9.392 9.516 16.362.03.141.036.281.021.416h23.061a4.155 4.155 0 110 8.311H37.582l77.712 163.524a1.317 1.317 0 11-2.381 1.131l-78.25-164.655H-2.561l60.075 116.758H39.426l14.962 46.931a1.319 1.319 0 01-1.256 1.719H-77.615a1.319 1.319 0 01-1.231-1.791l2.073-5.405a19.443 19.443 0 0113.182-11.835l22.516-5.957-7.379-23.662h-29.161l-40.94-104.873c.447-.307.675-.873.526-1.427l-21.441-80.216a10.215 10.215 0 016.615-12.322l52.7-17.711a1.319 1.319 0 00-.84-2.499l-52.7 17.711c-6.43 2.161-10.074 8.948-8.322 15.502l21.102 78.946-10.719 106.502h-32.323v47.718c0 .728-.59 1.319-1.318 1.319h-13.037a1.319 1.319 0 01-1.318-1.319v-29.069l-23.179 29.877a1.32 1.32 0 01-1.042.511h-91.927a1.319 1.319 0 01-1.231-1.791l2.073-5.405a19.442 19.442 0 0113.182-11.835l23.063-6.102 5.053-23.904h-37.198l43.311-124.405.144.002 35.658-97.566zm314.829-71.377l-40.36-.964L11.22 87.72a8.898 8.898 0 018.085-12.545L193.3 74.58a8.898 8.898 0 018.802 7.402l20.066 117.696c24.398 6.125 42.464 28.203 42.464 54.501 0 31.032-25.157 56.188-56.189 56.188s-56.189-25.156-56.189-56.188c0-11.462 3.432-22.123 9.325-31.01l-2.702 2.619a13.516 13.516 0 01-3.231 2.318c-5.615 2.883-10.517 3.641-14.672 2.178-3.501-1.233-5.693-3.314-6.463-6.143-2.522 2.157-5.629 2.852-9.211 2.04-3.892-.882-6.34-3.124-7.207-6.573-2.901 1.873-5.884 2.3-8.858 1.209a11.43 11.43 0 01-7.134-13.583l1.006-3.904zm-502.157 8.869l5.377-137.212a8.897 8.897 0 018.891-8.55h198.817a8.9 8.9 0 018.523 11.456l-36.604 121.94a15.159 15.159 0 01-14.519 10.802h-84.44c.231.145.46.299.686.464.638.462 1.208.953 1.709 1.474a8.568 8.568 0 01.863 10.833l-16.118 23.192a1.512 1.512 0 01-.112.139l-4.423 4.813a13.176 13.176 0 01-11.333 4.163l-7.855 6.834a56.89 56.89 0 01.263 5.473c0 31.032-25.156 56.189-56.188 56.189-31.033 0-56.189-25.157-56.189-56.189s25.156-56.189 56.189-56.189c2.185 0 4.342.125 6.463.368zm435.71 284.864h-82.351l7.434 23.838H3.275a1.318 1.318 0 110 2.636h-44.31a1.34 1.34 0 01-.263-.026l-21.62 5.719a16.81 16.81 0 00-11.394 10.231l-1.386 3.615h118.43L31.95 511.907a1.319 1.319 0 012.491-.862l11.08 32.031h5.807l-14.669-46.013zm-203.252-.387h-84.351l-5.336 25.244a1.32 1.32 0 01-.952 1.002l-23.848 6.308a16.811 16.811 0 00-11.395 10.231l-1.386 3.615h89.364l25.144-32.408c.769-.992 2.359-.448 2.359.808v31.6h10.401v-46.4zm-187.066-253.677l-.18.155a56.12 56.12 0 00-.472-.784l.652.629zM91.377 366.652c-1.759-.031-3.234.096-4.721.545-1.978.598-3.41 1.658-4.206 3.333h10.222a24.012 24.012 0 00-1.295-3.878zm20.178 3.878h9.838c-1.461-5.628-4.197-10.033-8.215-13.258-2.075-1.666-10.488-4.432-24.974-8.177 6.186 2.39 10.695 4.283 13.536 5.683 5.015 2.471 8.266 7.763 9.815 15.752zm-288.997-144.991a10.346 10.346 0 00-8.125 1.927l-2.669 2.018a7.256 7.256 0 00-2.236 2.805l-13.34 29.619 5.784.048c1.68-7.472 5.227-12.418 10.652-14.696.397-.167.8-.328 1.209-.483l8.725-21.238zm3.925 18.352a74.548 74.548 0 014.371-.343c-.172-1.822-.428-3.246-.76-4.261-.183-.558-.38-.966-.575-1.222-.121-.159-.2-.215-.245-.226a.978.978 0 00-.106-.018 9561.86 9561.86 0 00-2.685 6.07zm-10.275 18.184c-.854-2.021-2.49-3.283-4.785-3.978-1.657-.501-3.298-.637-5.261-.599-.593 1.34-1.089 2.833-1.489 4.481l11.535.096zm-192.52-71.432c5.392 5.325 5.604 10.544.404 14.956-.3.255-.68.352-1.041.3l1.083 14.382c13.615 8.474 23.34 22.609 25.883 39.114l6.49-5.646a1.32 1.32 0 011.443-.752 10.542 10.542 0 009.707-3.231l4.363-4.747 16.067-23.118a5.93 5.93 0 00-.597-7.499c-.39-.406-.843-.796-1.357-1.169-2.576-1.867-5.385-2.088-8.615-.641l-11.781 15.635a1.319 1.319 0 01-2.105-1.587l12.095-16.052c.906-2.998.171-5.272-2.259-7.104-2.419-1.823-4.763-2.019-7.28-.629a1.1 1.1 0 01-.048.025 1.297 1.297 0 01-.183.336l-12.101 16.058a1.318 1.318 0 01-2.105-1.587l12.1-16.057c.125-.167.283-.295.457-.383.044-.114.106-.227.188-.336l17.212-22.978c1.37-3.974.896-6.651-1.291-8.339-2.366-1.825-5.343-1.715-9.171.49a.346.346 0 00-.09.076l-31.116 37.769a1.318 1.318 0 01-2.26-.4 829.59 829.59 0 01-2.755-7.895 42.453 42.453 0 01-.324-.99c-.078-.245-.146-.465-.272-.87-1.043-3.367-1.591-4.642-2.521-5.468-1.239-1.102-2.58-1.906-4.031-2.42a4.281 4.281 0 00-4.189.757zm-1.417 2.314c-.097.417-.13.847-.099 1.276l.674 8.949c3.323-3.09 3.192-6.315-.575-10.225zm49.698 52.136l.112-.14-.061.066-.051.074zm5.249-68.421a1.318 1.318 0 111.879 1.849c-1.842 1.871-4.153 1.853-6.433.078-2.299-1.791-2.86-3.99-1.34-6.074a1.319 1.319 0 012.13 1.553c-.596.818-.433 1.457.83 2.441 1.283.999 2.094 1.006 2.934.153zm-82.732 144.9c29.576 0 53.552-23.976 53.552-53.552s-23.976-53.552-53.552-53.552c-29.577 0-53.553 23.976-53.553 53.552s23.976 53.552 53.553 53.552zm18.255-57.243c-1.533.465-3.336.109-5.324-.985a1.319 1.319 0 011.271-2.31c1.627.896 2.783 1.059 3.614.631l-.24-1.46a1.318 1.318 0 01.6-1.331l12.185-7.651-9.385-2.529a4.944 4.944 0 01-2.546 5.674 18.982 18.982 0 01-6.308 1.901 18.97 18.97 0 01-6.58-.318 4.943 4.943 0 01-1.133-9.229 18.93 18.93 0 016.307-1.901 19.393 19.393 0 013.936-.089 15.16 15.16 0 00-4.775-6.307l-17.809 8.17-15.352 2.723a10.882 10.882 0 00-.128 1.661v37.674c8.685 2.002 16.909 2.661 24.676 1.981 7.681-.672 14.48-2.536 20.405-5.589l-3.414-20.716zm-5.205-17.021c-.664.003-1.335.046-2.012.129a16.334 16.334 0 00-5.438 1.636 2.308 2.308 0 00.529 4.307c1.838.42 3.726.511 5.672.272a16.341 16.341 0 005.438-1.636 2.307 2.307 0 00.583-3.695c.022.11.038.222.048.336.135 1.541-.931 2.894-2.382 3.02-1.45.127-2.736-1.019-2.87-2.56a2.899 2.899 0 01.432-1.809zm4.513-2.264l16.397 4.418c1.111.299 1.332 1.777.358 2.389l-13.998 8.79 4.105 24.911a1.32 1.32 0 01-.673 1.374c-6.447 3.491-13.87 5.601-22.258 6.335-8.363.731-17.208-.031-26.533-2.284a1.318 1.318 0 01-1.009-1.281v-38.717a13.51 13.51 0 018.502-12.548l11.45-4.572a17.851 17.851 0 013.72-1.036c8.819-1.453 17.286 3.831 19.939 12.221zm-16.254 24.635c-4.982 2.649-11.168.757-13.816-4.224-2.649-4.982-.758-11.168 4.224-13.817a1.317 1.317 0 111.237 2.328 7.58 7.58 0 007.117 13.385 1.318 1.318 0 111.238 2.328zm612.647 38.052c29.576 0 53.552-23.976 53.552-53.552s-23.976-53.553-53.552-53.553-53.552 23.977-53.552 53.553c0 29.576 23.976 53.552 53.552 53.552zm-8.902-72.881c.627.622.933 1.553.732 2.496-.31 1.46-1.716 2.399-3.14 2.096-1.169-.249-1.987-1.256-2.071-2.416-.479.379-.943.801-1.393 1.268 2.605 1.779 5.285 2.52 8.081 2.255a10.964 10.964 0 005.013-1.741 28.723 28.723 0 01-1.929-3.907 11.26 11.26 0 00-3.827-.285c-.5.047-.988.125-1.466.234zm28.774 24.399l-1.27 14.202a1.318 1.318 0 01-1.132 1.188c-7.063.98-14.701.593-22.911-1.152-8.245-1.752-14.433-4.229-18.569-7.469a1.321 1.321 0 01-.489-1.249l2.042-12.622a1.304 1.304 0 01.084-.523l.672-4.15-9.824-2.088a1.319 1.319 0 01-.781-2.08l9.776-13.051a25.714 25.714 0 0127.991-9.208l8.1 2.437a11.864 11.864 0 018.399 12.417l-.692 7.736 24.505 7.547a3.297 3.297 0 012.027 4.522l-5.809 12.685a3.295 3.295 0 01-4.708 1.444l-17.411-10.586zm-26.61-36.154a23.064 23.064 0 00-13.682 8.741l-8.539 11.4 9.033 1.92c.688.146 1.14.806 1.027 1.5l-.284 1.759c1.817.285 3.233.536 4.252.753.647.137 1.144.263 1.507.383.225.075.412.151.576.242.406.226.7.506.79 1.065.107.658-.202 1.109-.628 1.394a2.075 2.075 0 01-.512.241 6.66 6.66 0 01-.911.211c-.601.104-1.41.205-2.424.308l-.758.073c-.571.053-1.794.156-2.685.23l-1.793 11.09c3.779 2.737 9.407 4.916 16.876 6.503 7.518 1.598 14.505 2.014 20.963 1.253l2.333-26.085c-1.209-2.161-3.35-3.824-6.016-4.391-3.314-.705-6.575.47-8.604 2.787-1.636-1.154-2.953-2.322-3.952-3.503a13.582 13.582 0 01-6.275 2.205c-3.909.369-7.625-.864-11.093-3.651a1.32 1.32 0 01-.196-1.861c2.765-3.39 6.132-5.301 10.048-5.671a13.969 13.969 0 013.034.039c-.843-2.619-1.538-5.597-2.087-8.935zm-67.302-2.722c.005-.095.02-.19.046-.286l8.289-30.514a1.33 1.33 0 01-.13-.472c-.346-3.908-2.042-6.242-5.186-7.252-3.361-1.079-5.983-.066-8.177 3.216a1.305 1.305 0 01-.526.46l-8.109 30.995a1.322 1.322 0 01-.236.478c.008.05.013.101.016.154.182 3.588 1.933 5.651 5.493 6.458 3.576.811 6.337-.235 8.52-3.237zm2.457.723l-.002.039c-.217 3.24 1.354 5.381 4.992 6.662 3.382 1.191 7.567.544 12.591-2.036a10.866 10.866 0 002.601-1.866l6.725-6.52-6.3-2.149a1.319 1.319 0 01-.882-1.413l2.316-18.365c-.021-5.007-1.648-7.763-4.882-8.65-2.936-.806-5.717-.026-8.459 2.444l-8.567 31.536a1.302 1.302 0 01-.133.318zm-18.83-4.72a1.292 1.292 0 01.03-.523l8.392-32.079a1.34 1.34 0 01.116-.296c-.997-3.292-3.017-5.354-6.131-6.31-1.264-.388-2.435-.544-3.517-.476a5.93 5.93 0 00-5.371 4.44l-6.895 26.76a8.793 8.793 0 005.488 10.45c2.584.947 5.163.332 7.888-1.966zm-3.594-29.961c-.243 1.575.492 2.493 2.656 3.054 2.154.559 3.139.165 3.564-1.179a1.317 1.317 0 112.514.794c-.897 2.839-3.346 3.817-6.74 2.937-3.383-.877-5.067-2.98-4.6-6.008a1.318 1.318 0 112.606.402zm16.804 5.291c-.242 1.574.493 2.493 2.657 3.054 2.153.558 3.139.165 3.564-1.18a1.317 1.317 0 112.514.795c-.898 2.838-3.347 3.817-6.74 2.937-3.384-.878-5.067-2.98-4.6-6.008a1.318 1.318 0 112.605.402zm16.486 4.415c-.243 1.574.493 2.493 2.657 3.054 2.153.558 3.139.165 3.564-1.18a1.317 1.317 0 112.514.795c-.898 2.838-3.347 3.817-6.74 2.937-3.384-.878-5.067-2.98-4.6-6.008a1.318 1.318 0 112.605.402zm-201.012-84.956a2796.313 2796.313 0 01-13.03-7.109 1460.08 1460.08 0 01-9.798-5.456c-6.379 5.746-8.833 14.088-7.346 25.179l7.342-.902a1.318 1.318 0 11.321 2.617l-8.62 1.058a1.318 1.318 0 01-1.463-1.102c-1.461-9.256-.4-16.937 3.19-22.975l-4.088 3.678a16.058 16.058 0 00-1.475 7.015l.498 29.954c6.254 2.246 13.193 2.904 20.831 1.966 7.626-.936 14.213-2.837 19.768-5.696l-2.406-11.078a1.319 1.319 0 011.306-1.598 7.58 7.58 0 007.638-8.503 7.58 7.58 0 00-10.77-5.928 1.318 1.318 0 01-1.852-.911l-.021-.097-.025-.112zm-14.807-16.842c7.988 1.235 14.752 7.005 17.06 15.014a10.315 10.315 0 011.647-.34c5.6-.688 10.698 3.294 11.385 8.895.678 5.521-3.184 10.554-8.66 11.353l2.293 10.565a1.319 1.319 0 01-.658 1.438c-6.041 3.283-13.235 5.433-21.577 6.457-8.392 1.031-16.04.223-22.929-2.431a1.32 1.32 0 01-.844-1.209l-.513-30.853c-.12-7.219 3.87-13.608 9.881-16.836a8.433 8.433 0 01-1.994-14.984A7.125 7.125 0 01-80.4 68.198l5.162-.736a6.775 6.775 0 017.663 5.75l.004.024a7.173 7.173 0 01-2.359 6.37 8.02 8.02 0 015.491 6.64l.003.026a8.493 8.493 0 01-3.659 8.051zm-6.6 17.75c.234-.087.483-.14.743-.154 1.454-.076 2.698 1.114 2.78 2.659a2.889 2.889 0 01-.578 1.906c.906-.043 1.8-.2 2.688-.471 2.7-.826 4.875-2.567 6.551-5.277-2.905-1.309-5.682-1.537-8.382-.711a10.838 10.838 0 00-3.801 2.048zm-1.546 1.551a14.57 14.57 0 00-1.203 1.678c.405.182.807.344 1.207.484a2.947 2.947 0 01-.201-.932 2.93 2.93 0 01.197-1.23zm7.95 4.91c-3.778 1.155-7.674.636-11.615-1.516a1.318 1.318 0 01-.54-1.763c2.066-3.987 5.005-6.597 8.782-7.751 3.778-1.155 7.674-.636 11.615 1.515a1.32 1.32 0 01.54 1.764c-2.066 3.987-5.005 6.596-8.782 7.751zm-12.142 11.53a1.319 1.319 0 01.856-2.493c1.634.561 3.535.266 5.768-.966a1.319 1.319 0 011.274 2.309c-2.839 1.566-5.492 1.977-7.898 1.15zM40.66 96.374l32.554 69.252c.216.459.677.754 1.184.757l120.146.768a1.318 1.318 0 001.303-1.568l-13.554-70.194a1.317 1.317 0 00-1.296-1.069l-139.145.175a1.318 1.318 0 00-1.192 1.879zm139.251.584l13.043 67.547-117.708-.753-31.318-66.624 135.983-.17zm-57.346 54.759c3.679 0 8.411-1.457 11.335-3.245 5.54-3.387 7.944-9.065 7.944-16.033 0-4.331-1.052-8.867-3.462-12.085-3.516-4.695-9.5-7.194-15.817-7.194-6.274 0-11.686 3.344-15.206 7.985-2.454 3.235-4.073 6.921-4.073 11.294 0 5.804 3.051 10.844 7.109 14.379 3.386 2.949 7.327 4.899 12.17 4.899zm-486.391-46.002a3.625 3.625 0 000 7.25h136.105a3.625 3.625 0 000-7.25h-136.105zm.659 25.046a3.625 3.625 0 000 7.25h52.558a3.625 3.625 0 000-7.25h-52.558zm70.195 0a3.625 3.625 0 000 7.25h25.956a3.625 3.625 0 100-7.25h-25.956zm42.183 0a3.625 3.625 0 100 7.25h19.399a3.625 3.625 0 000-7.25h-19.399z" fill="#fff"/><path d="M-117.337 262.53l-4.957-11.907a32.958 32.958 0 00-17.4-17.605l9.498-72.924c1.003-7.699 8.014-13.158 15.724-12.242l22.527 2.677 1.312-7.25 45.426-6.639 12.993 20.985 27.756 3.298a15.49 15.49 0 0112.042 8.486l83.023 167.019h-63.74L3.275 262.442l-120.613.088zm-164.595-100.131h36.251a9.063 9.063 0 110 18.125h-36.251a9.062 9.062 0 01-9.062-9.063 9.062 9.062 0 019.062-9.062zm399.583-37.23c0-.167 5.163 1.839 15.489 6.016l-12.725 10.781c-1.843-11.031-2.764-16.631-2.764-16.797zM3.891 260.644l-14.14-53.19a1.319 1.319 0 00-2.548.678l14.14 53.19a1.319 1.319 0 002.548-.678zm-413.944 25.035c.52.008 1.041.003 1.561-.015l33.382-1.114a2.635 2.635 0 012.423 3.858l-4.672 8.924 10.644 7.59c-3.013 3.157-5.788 5.573-8.323 7.248-1.618 1.068-3.152 1.925-4.214 2.552-5.046 2.98-10.167 4.51-13.821 5.412-4.275 1.055-8.659 1.476-13.557 1.476-.899 0-3.619-.17-4.492-.262-6.834-.717-14.669-2.643-23.382-8.212-1.6-1.023-4.585-3.25-7.305-5.727-.497-.452-1.255-1.2-2.275-2.244l10.624-7.833-3.408-8.363a2.635 2.635 0 012.479-3.631l24.336.341zm614.089-19.3l31.581 1.412a2.637 2.637 0 012.309 3.665l-2.125 4.996a13.89 13.89 0 002.816 15.113l3.866 3.982c-9.682 8.196-21.028 12.294-34.04 12.294-4.603 0-10.127-.816-15.061-2.232-2.681-.769-5.312-1.859-7.46-2.843-2.428-1.112-5.194-2.626-8.189-4.697-.646-.447-1.625-1.192-2.939-2.237a22.929 22.929 0 003.34-17.915l-2.708-11.873a2.636 2.636 0 012.946-3.196l22.444 3.228c1.068.154 2.142.255 3.22.303z" fill="#FF4E00"/></g></svg>