<svg width="353" height="353" viewBox="0 0 353 353" fill="none" xmlns="http://www.w3.org/2000/svg">
<path d="M277.079 208.219L232.987 201.058L243.434 173.075C245.744 166.882 242.725 164.067 236.715 166.813L184.501 190.684L162.704 160.615C159.573 156.299 155.644 156.907 153.965 161.968L142.284 197.228L85.2951 190.266C78.736 189.466 76.71 193.063 80.7843 198.267L99.2107 221.772L59.3432 241.935C51.8449 245.725 52.496 249.929 60.7903 251.28L104.882 258.441L94.4349 286.424C92.1256 292.617 95.1444 295.432 101.154 292.686L153.368 268.815L175.167 298.891C178.297 303.206 182.227 302.598 183.905 297.537L195.587 262.277L252.575 269.239C259.134 270.039 261.16 266.443 257.086 261.238L238.665 237.726L278.526 217.564C286.024 213.774 285.373 209.57 277.079 208.219Z" fill="#171717"/>
<mask id="mask0" mask-type="alpha" maskUnits="userSpaceOnUse" x="0" y="61" width="275" height="262">
<path d="M136.764 294.323L213.88 322.5L248.647 309.153L274.188 271.584L268.915 226.6L232.664 191.173L205.806 61H19.4436L0 79.1254L57.6717 214.572L136.764 294.323Z" fill="#C4C4C4"/>
</mask>
<g mask="url(#mask0)">
<path fill-rule="evenodd" clip-rule="evenodd" d="M-211.723 274.707H-162.23C-161.502 274.707 -160.912 274.117 -160.912 273.389C-160.912 272.661 -161.502 272.071 -162.23 272.071H-220.644H-245.702L-344.791 544.845C-345.04 545.529 -345.796 545.882 -346.48 545.633C-347.165 545.385 -347.518 544.629 -347.269 543.944L-248.507 272.071H-293.76C-296.055 272.071 -297.915 270.21 -297.915 267.915C-297.915 265.62 -296.055 263.76 -293.76 263.76H-207.063C-207.205 263.437 -207.22 263.054 -207.056 262.691L-192.876 231.206C-192.196 229.696 -191.147 228.381 -189.826 227.382L-187.158 225.363C-184.094 223.045 -180.163 222.204 -176.423 223.06V223.06L-156.997 175.778C-154.489 172.907 -151.885 172.033 -149.186 173.156C-149.143 173.174 -149.101 173.192 -149.059 173.211C-145.915 174.601 -144.493 178.278 -145.884 181.422C-154.325 200.504 -160.888 215.341 -165.573 225.932L-139.516 232.843C-138.812 233.03 -138.393 233.751 -138.579 234.455C-138.766 235.159 -139.488 235.578 -140.191 235.391L-166.653 228.373C-167.82 231.011 -168.854 233.348 -169.755 235.385C-167.703 236.166 -166.768 239.262 -166.409 244.722C-166.36 245.465 -166.936 246.101 -167.68 246.126C-175.065 246.371 -181.289 247.564 -186.355 249.691C-188.825 250.728 -190.848 252.445 -192.423 254.866C-190.812 254.913 -189.343 255.111 -187.813 255.574C-184.439 256.595 -181.998 258.703 -180.987 262.098L-156.73 262.301H3.69168L34.2005 358.774C35.504 362.896 34.7783 367.174 32.5834 370.53H79.6205C80.5929 367.495 82.8304 365.6 85.8927 364.674C87.2434 364.265 88.5418 364.08 89.9508 364.027C88.5345 361.915 86.7322 360.41 84.5455 359.493C79.9191 357.553 74.2316 356.464 67.4826 356.238L51.5349 356.238C50.8069 356.238 50.2167 355.648 50.2163 354.92C50.2167 354.191 50.8069 353.601 51.5349 353.601L67.5046 353.601L67.5483 353.602C74.608 353.836 80.6138 354.985 85.5652 357.062C90.5585 359.156 93.8266 363.693 95.3813 370.53H108.866C107.432 363.574 104.649 359.15 100.575 357.143C95.8354 354.808 86.1727 351.001 71.6276 345.743C71.1334 345.564 70.8113 345.121 70.7634 344.63L62.4106 337.426C61.8593 336.951 61.7979 336.119 62.2733 335.567C62.7488 335.016 63.5812 334.954 64.1325 335.43L72.2786 342.455C97.615 348.457 111.589 352.615 114.829 355.216C119.712 359.136 122.886 364.608 124.345 371.578C124.375 371.719 124.381 371.859 124.366 371.994H147.427C149.722 371.994 151.582 373.854 151.582 376.149C151.582 378.444 149.722 380.305 147.427 380.305H37.5818L115.294 543.829C115.607 544.486 115.327 545.273 114.669 545.585C114.012 545.898 113.225 545.618 112.913 544.96L34.6628 380.305H-2.56058L57.5142 497.063H39.4265L54.3876 543.994C54.6586 544.844 54.0241 545.713 53.1317 545.713H44.6134C44.593 545.713 44.5725 545.713 44.5521 545.713H-77.6152C-78.5397 545.713 -79.1771 544.786 -78.846 543.922L-76.7733 538.517C-74.5363 532.683 -69.6318 528.28 -63.5914 526.682L-41.0749 520.725L-48.4537 497.063H-77.6155L-118.555 392.19C-118.108 391.883 -117.88 391.317 -118.029 390.763L-139.47 310.547C-140.863 305.337 -137.967 299.943 -132.855 298.225L-80.1543 280.514C-79.4642 280.282 -79.0928 279.534 -79.3247 278.844C-79.5566 278.154 -80.3041 277.783 -80.9942 278.015L-133.695 295.726C-140.125 297.887 -143.769 304.674 -142.017 311.228L-120.915 390.174L-131.634 496.676H-163.957V544.394C-163.957 545.122 -164.547 545.713 -165.275 545.713H-178.312C-179.04 545.713 -179.63 545.122 -179.63 544.394V515.325L-202.809 545.202C-203.059 545.524 -203.444 545.713 -203.851 545.713H-295.778C-296.703 545.713 -297.34 544.786 -297.009 543.922L-294.936 538.517C-292.699 532.683 -287.795 528.28 -281.754 526.682L-258.691 520.58L-253.638 496.676H-290.836L-247.525 372.271L-247.381 372.273L-211.723 274.707ZM103.106 203.33L62.7466 202.366L11.2199 87.7205C9.20535 83.2382 11.2059 77.9715 15.6882 75.9569C16.8258 75.4456 18.0581 75.1792 19.3054 75.1749L193.299 74.5797C197.648 74.5648 201.37 77.6953 202.101 81.9821L222.167 199.678C246.565 205.803 264.631 227.881 264.631 254.179C264.631 285.211 239.474 310.367 208.442 310.367C177.41 310.367 152.253 285.211 152.253 254.179C152.253 242.717 155.685 232.056 161.578 223.169L158.876 225.788C157.919 226.716 156.83 227.497 155.645 228.106C150.03 230.989 145.128 231.747 140.973 230.284C137.472 229.051 135.28 226.97 134.51 224.141C131.988 226.298 128.881 226.993 125.299 226.181C121.407 225.299 118.959 223.057 118.092 219.608C115.191 221.481 112.208 221.908 109.234 220.817C103.719 218.795 100.634 212.922 102.1 207.234L103.106 203.33ZM-399.051 212.199L-393.674 74.987C-393.487 70.212 -389.562 66.4375 -384.783 66.4375H-185.966C-185.099 66.4375 -184.237 66.5641 -183.407 66.8132C-178.701 68.226 -176.031 73.1869 -177.443 77.8936L-214.047 199.833C-215.971 206.245 -221.873 210.635 -228.566 210.635H-312.895C-312.932 210.635 -312.969 210.635 -313.006 210.635C-312.775 210.78 -312.546 210.934 -312.32 211.099C-311.682 211.561 -311.112 212.052 -310.611 212.573C-307.777 215.516 -307.416 220.051 -309.748 223.406L-325.866 246.598C-325.901 246.647 -325.938 246.693 -325.978 246.737L-330.401 251.55C-333.32 254.726 -337.55 256.232 -341.734 255.713L-349.589 262.547C-349.415 264.348 -349.326 266.173 -349.326 268.02C-349.326 299.052 -374.482 324.209 -405.514 324.209C-436.547 324.209 -461.703 299.052 -461.703 268.02C-461.703 236.988 -436.547 211.831 -405.514 211.831C-403.329 211.831 -401.172 211.956 -399.051 212.199ZM36.6594 497.063H-45.692L-38.2584 520.901H3.27539C4.00342 520.901 4.5936 521.491 4.5936 522.219C4.5936 522.947 4.00342 523.537 3.27539 523.537H-41.0352C-41.1252 523.537 -41.2132 523.528 -41.2981 523.511L-62.9171 529.23C-68.1385 530.612 -72.3779 534.418 -74.3117 539.461L-75.698 543.076H42.732L31.9495 511.907C31.7115 511.219 32.0763 510.468 32.7643 510.23C33.4523 509.992 34.203 510.357 34.441 511.045L45.5217 543.076H51.3278L36.6594 497.063ZM-166.593 496.676H-250.944L-256.28 521.92C-256.383 522.407 -256.751 522.794 -257.232 522.922L-281.08 529.23C-286.301 530.612 -290.541 534.418 -292.475 539.461L-293.861 543.076H-204.497L-179.353 510.668C-178.584 509.676 -176.994 510.22 -176.994 511.476V543.076H-166.593V496.676ZM-353.659 242.999L-353.839 243.154C-353.994 242.891 -354.152 242.63 -354.311 242.37L-353.659 242.999ZM91.3768 366.652C89.6182 366.621 88.1428 366.748 86.6557 367.197C84.6778 367.795 83.2458 368.855 82.4497 370.53H92.6719C92.3199 369.109 91.8881 367.817 91.3768 366.652ZM111.555 370.53H121.393C119.932 364.902 117.196 360.497 113.178 357.272C111.103 355.606 102.69 352.84 88.2044 349.095C94.3896 351.485 98.8989 353.378 101.74 354.778C106.755 357.249 110.006 362.541 111.555 370.53ZM-177.442 225.539C-180.276 225.011 -183.236 225.702 -185.567 227.466L-188.236 229.484C-189.204 230.217 -189.973 231.181 -190.472 232.289L-203.812 261.908L-198.028 261.956C-196.348 254.484 -192.801 249.538 -187.376 247.26C-186.979 247.093 -186.576 246.932 -186.167 246.777L-177.442 225.539ZM-173.517 243.891C-172.106 243.737 -170.649 243.623 -169.146 243.548C-169.318 241.726 -169.574 240.302 -169.906 239.287C-170.089 238.729 -170.286 238.321 -170.481 238.065C-170.602 237.906 -170.681 237.85 -170.726 237.839C-170.761 237.831 -170.797 237.825 -170.832 237.821C-172.039 240.548 -172.934 242.571 -173.517 243.891ZM-183.792 262.075C-184.646 260.054 -186.282 258.792 -188.577 258.097C-190.234 257.596 -191.875 257.46 -193.838 257.498C-194.431 258.838 -194.927 260.331 -195.327 261.979L-183.792 262.075ZM-376.312 190.643C-370.92 195.968 -370.708 201.187 -375.908 205.599C-376.208 205.854 -376.588 205.951 -376.949 205.899L-375.866 220.281C-362.251 228.755 -352.526 242.89 -349.983 259.395L-343.493 253.749C-343.249 253.208 -342.659 252.884 -342.05 252.997C-338.498 253.66 -334.827 252.469 -332.343 249.766L-327.98 245.019L-311.913 221.901C-310.298 219.578 -310.548 216.439 -312.51 214.402C-312.9 213.996 -313.353 213.606 -313.867 213.233C-316.443 211.366 -319.252 211.145 -322.482 212.592L-334.263 228.227C-334.701 228.808 -335.528 228.924 -336.109 228.486C-336.69 228.048 -336.807 227.221 -336.368 226.64L-324.273 210.588C-323.367 207.59 -324.102 205.316 -326.532 203.484C-328.951 201.661 -331.295 201.465 -333.812 202.855C-333.828 202.864 -333.844 202.872 -333.86 202.88C-333.903 202.998 -333.964 203.111 -334.043 203.216L-346.144 219.274C-346.582 219.855 -347.408 219.971 -347.99 219.533C-348.571 219.095 -348.687 218.269 -348.249 217.687L-336.149 201.63C-336.024 201.463 -335.866 201.335 -335.692 201.247C-335.648 201.133 -335.586 201.02 -335.504 200.911L-318.292 177.933C-316.922 173.959 -317.396 171.282 -319.583 169.594C-321.949 167.769 -324.926 167.879 -328.754 170.084C-328.788 170.104 -328.819 170.13 -328.844 170.16L-359.96 207.929C-360.612 208.721 -361.879 208.497 -362.22 207.529C-363.471 203.986 -364.389 201.354 -364.975 199.634C-365.079 199.331 -365.183 199.011 -365.299 198.644C-365.377 198.399 -365.445 198.179 -365.571 197.774C-366.614 194.407 -367.162 193.132 -368.092 192.306C-369.331 191.204 -370.672 190.4 -372.123 189.886C-373.607 189.359 -375.187 189.7 -376.312 190.643ZM-377.729 192.957C-377.826 193.374 -377.859 193.804 -377.828 194.233L-377.154 203.182C-373.831 200.092 -373.962 196.867 -377.729 192.957ZM-328.031 245.093L-327.919 244.953L-327.98 245.019L-328.031 245.093ZM-322.782 176.672C-322.272 176.153 -321.437 176.146 -320.918 176.657C-320.399 177.167 -320.393 178.002 -320.903 178.521C-322.745 180.392 -325.056 180.374 -327.336 178.599C-329.635 176.808 -330.196 174.609 -328.676 172.525C-328.247 171.937 -327.422 171.808 -326.834 172.237C-326.246 172.666 -326.117 173.49 -326.546 174.078C-327.142 174.896 -326.979 175.535 -325.716 176.519C-324.433 177.518 -323.622 177.525 -322.782 176.672ZM-405.514 321.572C-375.938 321.572 -351.962 297.596 -351.962 268.02C-351.962 238.444 -375.938 214.468 -405.514 214.468C-435.091 214.468 -459.067 238.444 -459.067 268.02C-459.067 297.596 -435.091 321.572 -405.514 321.572ZM-387.259 264.329C-388.792 264.794 -390.595 264.438 -392.583 263.344C-393.221 262.992 -393.453 262.191 -393.102 261.553C-392.751 260.915 -391.949 260.683 -391.312 261.034C-389.685 261.93 -388.529 262.093 -387.698 261.665L-387.938 260.205C-388.024 259.681 -387.788 259.156 -387.338 258.874L-375.153 251.223L-384.538 248.694C-383.951 250.902 -384.964 253.294 -387.084 254.368C-389.041 255.359 -391.146 255.993 -393.392 256.269C-395.638 256.545 -397.834 256.439 -399.972 255.951C-401.405 255.623 -402.618 254.676 -403.282 253.365C-404.515 250.93 -403.541 247.955 -401.105 246.722C-399.148 245.73 -397.044 245.096 -394.798 244.821C-393.468 244.657 -392.155 244.628 -390.862 244.732C-391.887 242.193 -393.557 240.038 -395.637 238.425L-413.446 246.595L-428.798 249.318C-428.882 249.862 -428.926 250.417 -428.926 250.979V288.653C-420.241 290.655 -412.017 291.314 -404.25 290.634C-396.569 289.962 -389.77 288.098 -383.845 285.045L-387.259 264.329ZM-392.464 247.308C-393.128 247.311 -393.799 247.354 -394.476 247.437C-396.422 247.676 -398.232 248.221 -399.914 249.073C-401.051 249.649 -401.505 251.037 -400.93 252.174C-400.62 252.785 -400.054 253.228 -399.385 253.38C-397.547 253.8 -395.659 253.891 -393.713 253.652C-391.768 253.413 -389.957 252.868 -388.275 252.016C-387.139 251.44 -386.684 250.052 -387.26 248.916C-387.372 248.693 -387.519 248.493 -387.692 248.321C-387.67 248.431 -387.654 248.543 -387.644 248.657C-387.509 250.198 -388.575 251.551 -390.026 251.677C-391.476 251.804 -392.762 250.658 -392.896 249.117C-392.955 248.451 -392.788 247.82 -392.464 247.308ZM-387.951 245.044L-371.554 249.462C-370.443 249.761 -370.222 251.239 -371.196 251.851L-385.194 260.641L-381.089 285.552C-380.998 286.107 -381.268 286.658 -381.762 286.926C-388.209 290.417 -395.632 292.527 -404.02 293.261C-412.383 293.992 -421.228 293.23 -430.553 290.977C-431.145 290.834 -431.562 290.305 -431.562 289.696V250.979C-431.562 245.451 -428.194 240.48 -423.06 238.431L-411.61 233.859C-410.411 233.38 -409.164 233.033 -407.89 232.823C-399.071 231.37 -390.604 236.654 -387.951 245.044ZM-404.205 269.679C-409.187 272.328 -415.373 270.436 -418.021 265.455C-420.67 260.473 -418.779 254.287 -413.797 251.638C-413.155 251.296 -412.356 251.54 -412.015 252.183C-411.673 252.826 -411.917 253.624 -412.56 253.966C-416.256 255.931 -417.659 260.521 -415.694 264.217C-413.728 267.913 -409.139 269.316 -405.443 267.351C-404.8 267.009 -404.002 267.253 -403.66 267.896C-403.318 268.539 -403.562 269.337 -404.205 269.679ZM208.442 307.731C238.018 307.731 261.994 283.755 261.994 254.179C261.994 224.603 238.018 200.626 208.442 200.626C178.866 200.626 154.89 224.603 154.89 254.179C154.89 283.755 178.866 307.731 208.442 307.731ZM199.54 234.85C200.167 235.472 200.473 236.403 200.272 237.346C199.962 238.806 198.556 239.745 197.132 239.442C195.963 239.193 195.145 238.186 195.061 237.026C194.582 237.405 194.118 237.827 193.668 238.294C196.273 240.073 198.953 240.814 201.749 240.549C203.564 240.377 205.232 239.801 206.762 238.808C206.063 237.641 205.42 236.339 204.833 234.901C203.58 234.587 202.305 234.493 201.006 234.616C200.506 234.663 200.018 234.741 199.54 234.85ZM228.314 259.249L227.044 273.451C226.989 274.062 226.52 274.555 225.912 274.639C218.849 275.619 211.211 275.232 203.001 273.487C194.756 271.735 188.568 269.258 184.432 266.018C184.054 265.722 183.867 265.243 183.943 264.769L185.985 252.147C185.977 251.964 186.007 251.786 186.069 251.624L186.741 247.474L176.917 245.386C175.976 245.186 175.559 244.076 176.136 243.306L185.912 230.255C192.384 221.614 203.565 217.936 213.903 221.047L222.003 223.484C227.395 225.106 230.903 230.294 230.402 235.901L229.71 243.637L254.215 251.184C254.353 251.226 254.487 251.277 254.617 251.337C256.272 252.095 256.999 254.051 256.242 255.706L250.433 268.391C250.38 268.508 250.32 268.622 250.253 268.731C249.307 270.287 247.28 270.781 245.725 269.835L228.314 259.249ZM201.704 223.095C196.354 224.231 191.452 227.257 188.022 231.836L179.483 243.236L188.516 245.156C189.204 245.302 189.656 245.962 189.543 246.656L189.259 248.415C191.076 248.7 192.492 248.951 193.511 249.168C194.158 249.305 194.655 249.431 195.018 249.551C195.243 249.626 195.43 249.702 195.594 249.793C196 250.019 196.294 250.299 196.384 250.858C196.491 251.516 196.182 251.967 195.756 252.252C195.597 252.358 195.433 252.43 195.244 252.493C195.006 252.571 194.707 252.639 194.333 252.704C193.732 252.808 192.923 252.909 191.909 253.012C191.668 253.036 191.415 253.06 191.151 253.085C190.58 253.138 189.357 253.241 188.466 253.315L186.673 264.405C190.452 267.142 196.08 269.321 203.549 270.908C211.067 272.506 218.054 272.922 224.512 272.161L226.845 246.076C225.636 243.915 223.495 242.252 220.829 241.685C217.515 240.98 214.254 242.155 212.225 244.472C210.589 243.318 209.272 242.15 208.273 240.969C206.375 242.219 204.279 242.958 201.998 243.174C198.089 243.543 194.373 242.31 190.905 239.523C190.335 239.064 190.247 238.229 190.709 237.662C193.474 234.272 196.841 232.361 200.757 231.991C201.782 231.894 202.794 231.907 203.791 232.03C202.948 229.411 202.253 226.433 201.704 223.095ZM134.402 220.373C134.407 220.278 134.422 220.183 134.448 220.087L142.737 189.573C142.668 189.432 142.622 189.274 142.607 189.101C142.261 185.193 140.565 182.859 137.421 181.849C134.06 180.77 131.438 181.783 129.244 185.065C129.102 185.277 128.919 185.43 128.718 185.525L120.609 216.52C120.562 216.699 120.48 216.861 120.373 216.998C120.381 217.048 120.386 217.099 120.389 217.152C120.571 220.74 122.322 222.803 125.882 223.61C129.458 224.421 132.219 223.375 134.402 220.373ZM136.859 221.096C136.858 221.109 136.858 221.122 136.857 221.135C136.64 224.375 138.211 226.516 141.849 227.797C145.231 228.988 149.416 228.341 154.44 225.761C155.394 225.271 156.271 224.642 157.041 223.895L163.766 217.375L157.466 215.226C156.874 215.024 156.506 214.434 156.584 213.813L158.9 195.448C158.879 190.441 157.252 187.685 154.018 186.798C151.082 185.992 148.301 186.772 145.559 189.242L136.992 220.778C136.961 220.892 136.916 220.999 136.859 221.096ZM118.029 216.376C118.004 216.206 118.012 216.029 118.059 215.853L126.451 183.774C126.478 183.669 126.518 183.57 126.567 183.478C125.57 180.186 123.55 178.124 120.436 177.168C119.172 176.78 118.001 176.624 116.919 176.692C114.357 176.853 112.188 178.645 111.548 181.132L104.653 207.892C103.525 212.268 105.898 216.786 110.141 218.342C112.725 219.289 115.304 218.674 118.029 216.376ZM114.435 186.415C114.192 187.99 114.927 188.908 117.091 189.469C119.245 190.028 120.23 189.634 120.655 188.29C120.874 187.595 121.615 187.21 122.309 187.43C123.003 187.649 123.388 188.39 123.169 189.084C122.272 191.923 119.823 192.901 116.429 192.021C113.046 191.144 111.362 189.041 111.829 186.013C111.94 185.294 112.613 184.8 113.332 184.911C114.052 185.022 114.545 185.695 114.435 186.415ZM131.239 191.706C130.997 193.28 131.732 194.199 133.896 194.76C136.049 195.318 137.035 194.925 137.46 193.58C137.679 192.886 138.42 192.501 139.114 192.721C139.808 192.94 140.193 193.681 139.974 194.375C139.076 197.213 136.627 198.192 133.234 197.312C129.85 196.434 128.167 194.332 128.634 191.304C128.744 190.585 129.418 190.091 130.137 190.202C130.857 190.313 131.35 190.986 131.239 191.706ZM147.725 196.121C147.482 197.695 148.218 198.614 150.382 199.175C152.535 199.733 153.521 199.34 153.946 197.995C154.165 197.301 154.906 196.916 155.6 197.136C156.294 197.355 156.679 198.096 156.46 198.79C155.562 201.628 153.113 202.607 149.72 201.727C146.336 200.849 144.653 198.747 145.12 195.719C145.23 195 145.904 194.506 146.623 194.617C147.343 194.728 147.836 195.401 147.725 196.121ZM-53.2873 111.165C-59.1131 108.001 -63.4561 105.631 -66.3164 104.056C-69.0252 102.564 -72.2913 100.745 -76.1147 98.5997C-82.4937 104.346 -84.9483 112.688 -83.4612 123.779L-76.1189 122.877C-75.3963 122.788 -74.7386 123.302 -74.6499 124.025C-74.5612 124.748 -75.075 125.405 -75.7976 125.494L-84.4186 126.552C-85.1237 126.639 -85.7706 126.151 -85.8814 125.45C-87.3421 116.194 -86.2812 108.513 -82.6912 102.475L-86.7786 106.153C-87.7648 108.289 -88.2958 110.671 -88.2542 113.168L-87.7559 143.122C-81.5018 145.368 -74.5632 146.026 -66.925 145.088C-59.2992 144.152 -52.7117 142.251 -47.1573 139.392L-49.5629 128.314C-49.7428 127.486 -49.1046 126.705 -48.2566 126.716C-47.9118 126.721 -47.565 126.702 -47.2178 126.66C-43.0629 126.15 -40.1082 122.368 -40.6184 118.213C-41.1285 114.058 -44.9104 111.103 -49.0653 111.613C-49.8816 111.714 -50.6627 111.941 -51.389 112.285C-52.156 112.648 -53.0615 112.203 -53.2415 111.374L-53.2624 111.277C-53.2706 111.24 -53.2789 111.202 -53.2873 111.165ZM-68.0937 94.323C-60.1059 95.5579 -53.3417 101.328 -51.0343 109.337C-50.4992 109.18 -49.9486 109.066 -49.3866 108.997C-43.7865 108.309 -38.6892 112.291 -38.0016 117.892C-37.3236 123.413 -41.1861 128.446 -46.6628 129.245L-44.3687 139.81C-44.2444 140.382 -44.5127 140.968 -45.0274 141.248C-51.0681 144.531 -58.2622 146.681 -66.6036 147.705C-74.9959 148.736 -82.6449 147.928 -89.533 145.274C-90.0342 145.08 -90.368 144.602 -90.377 144.065L-90.8903 113.212C-91.0104 105.993 -87.0194 99.6038 -81.0088 96.3762C-84.9406 95.0482 -87.3858 90.9872 -86.58 86.798C-86.1455 84.539 -84.826 82.6181 -83.0033 81.3924C-85.4833 79.9344 -86.9292 77.0479 -86.4136 74.0446C-85.8904 70.9966 -83.4603 68.6345 -80.3987 68.198L-75.2372 67.462C-71.5328 66.9338 -68.1017 69.5085 -67.5735 73.2129C-67.5724 73.2206 -67.5713 73.2283 -67.5703 73.2361C-67.2271 75.7038 -68.1836 78.0631 -69.929 79.6063C-67.0584 80.5358 -64.8358 83.0544 -64.4378 86.2462C-64.4368 86.2546 -64.4357 86.2631 -64.4347 86.2715C-64.0394 89.5258 -65.5427 92.5886 -68.0937 94.323ZM-74.6932 112.073C-74.46 111.986 -74.2109 111.933 -73.951 111.919C-72.497 111.843 -71.2526 113.033 -71.1716 114.578C-71.1339 115.298 -71.355 115.967 -71.7488 116.484C-70.8434 116.441 -69.9481 116.284 -69.0612 116.013C-66.3614 115.187 -64.186 113.446 -62.5097 110.736C-65.4146 109.427 -68.192 109.199 -70.8918 110.025C-72.3006 110.456 -73.5665 111.136 -74.6932 112.073ZM-76.2395 113.624C-76.6661 114.135 -77.0673 114.694 -77.4433 115.302C-77.0384 115.484 -76.6358 115.646 -76.2357 115.786C-76.3497 115.498 -76.42 115.184 -76.4372 114.854C-76.4601 114.418 -76.3878 114 -76.2395 113.624ZM-68.2903 118.534C-72.0676 119.689 -75.9636 119.17 -79.9051 117.018C-80.5342 116.675 -80.7737 115.892 -80.4441 115.255C-78.3795 111.268 -75.4399 108.658 -71.6627 107.504C-67.8854 106.349 -63.9894 106.868 -60.0479 109.019C-59.4188 109.363 -59.1793 110.146 -59.5089 110.783C-61.5735 114.77 -64.5131 117.379 -68.2903 118.534ZM-80.4323 130.064C-81.1208 129.827 -81.4872 129.077 -81.2506 128.389C-81.014 127.7 -80.2641 127.334 -79.5756 127.571C-77.9424 128.132 -76.0405 127.837 -73.808 126.605C-73.1707 126.254 -72.3688 126.485 -72.017 127.123C-71.6653 127.76 -71.8968 128.562 -72.5342 128.914C-75.3726 130.48 -78.0259 130.891 -80.4323 130.064ZM40.6602 96.3737L73.214 165.626C73.43 166.085 73.8907 166.38 74.3985 166.383L194.544 167.151C195.376 167.157 196.005 166.4 195.847 165.583L182.293 95.3887C182.174 94.7678 181.63 94.3196 180.997 94.3204L41.8516 94.4947C40.8863 94.4959 40.2496 95.5001 40.6602 96.3737ZM179.911 96.9582L192.954 164.505L75.2464 163.752L43.9283 97.1285L179.911 96.9582ZM122.565 151.717C126.244 151.717 130.976 150.26 133.9 148.472C139.44 145.085 141.844 139.407 141.844 132.439C141.844 128.108 140.792 123.572 138.382 120.354C134.866 115.659 128.882 113.16 122.565 113.16C116.291 113.16 110.879 116.504 107.359 121.145C104.905 124.38 103.286 128.066 103.286 132.439C103.286 138.243 106.337 143.283 110.395 146.818C113.781 149.767 117.722 151.717 122.565 151.717ZM-363.826 105.715C-365.828 105.715 -367.451 107.338 -367.451 109.34C-367.451 111.342 -365.828 112.965 -363.826 112.965H-227.721C-225.719 112.965 -224.096 111.342 -224.096 109.34C-224.096 107.338 -225.719 105.715 -227.721 105.715H-363.826ZM-363.167 130.761C-365.169 130.761 -366.792 132.384 -366.792 134.386C-366.792 136.388 -365.169 138.011 -363.167 138.011H-310.609C-308.607 138.011 -306.984 136.388 -306.984 134.386C-306.984 132.384 -308.607 130.761 -310.609 130.761H-363.167ZM-292.972 130.761C-294.974 130.761 -296.597 132.384 -296.597 134.386C-296.597 136.388 -294.974 138.011 -292.972 138.011H-267.016C-265.013 138.011 -263.39 136.388 -263.39 134.386C-263.39 132.384 -265.013 130.761 -267.016 130.761H-292.972ZM-250.789 130.761C-252.792 130.761 -254.415 132.384 -254.415 134.386C-254.415 136.388 -252.792 138.011 -250.789 138.011H-231.39C-229.388 138.011 -227.765 136.388 -227.765 134.386C-227.765 132.384 -229.388 130.761 -231.39 130.761H-250.789Z" fill="white"/>
<path fill-rule="evenodd" clip-rule="evenodd" d="M-117.337 262.53L-122.294 250.623C-125.612 242.655 -131.89 236.375 -139.694 233.018L-130.196 160.094C-129.193 152.395 -122.182 146.936 -114.472 147.852L-91.9451 150.529L-90.6328 143.279L-45.207 136.64L-32.2139 157.625L-4.45822 160.923C0.730347 161.54 5.25839 164.73 7.58423 169.409L90.6075 336.428H26.8661L3.27585 262.442L-117.337 262.53ZM-281.932 162.399H-245.681C-240.676 162.399 -236.618 166.456 -236.618 171.461C-236.618 176.467 -240.676 180.524 -245.681 180.524H-281.932C-286.937 180.524 -290.994 176.467 -290.994 171.461C-290.994 166.456 -286.937 162.399 -281.932 162.399ZM117.651 125.169C117.651 125.002 122.814 127.008 133.14 131.185L120.415 141.966C118.572 130.935 117.651 125.335 117.651 125.169ZM3.89072 260.644L-10.2492 207.454C-10.4363 206.751 -11.1583 206.332 -11.8619 206.519C-12.5655 206.706 -12.9842 207.428 -12.7971 208.132L1.3428 261.322C1.52982 262.025 2.25183 262.444 2.95544 262.257C3.65903 262.07 4.07776 261.348 3.89072 260.644ZM-410.053 285.679C-409.533 285.687 -409.012 285.682 -408.492 285.664L-375.11 284.55C-374.655 284.535 -374.203 284.638 -373.799 284.85C-372.509 285.525 -372.011 287.118 -372.687 288.408L-377.359 297.332L-366.715 304.922C-369.728 308.079 -372.503 310.495 -375.038 312.17C-376.656 313.238 -378.19 314.095 -379.252 314.722C-384.298 317.702 -389.419 319.232 -393.073 320.134C-397.348 321.189 -401.732 321.61 -406.63 321.61C-407.529 321.61 -410.249 321.44 -411.122 321.348C-417.956 320.631 -425.791 318.705 -434.504 313.136C-436.104 312.113 -439.089 309.886 -441.809 307.409C-442.306 306.957 -443.064 306.209 -444.084 305.165L-433.46 297.332L-436.868 288.969C-437.001 288.641 -437.067 288.29 -437.062 287.937C-437.042 286.481 -435.845 285.317 -434.389 285.338L-410.053 285.679ZM204.036 266.379L235.617 267.791C237.072 267.856 238.199 269.088 238.134 270.542C238.12 270.857 238.049 271.166 237.926 271.456L235.801 276.452C233.612 281.598 234.722 287.554 238.617 291.565L242.483 295.547C232.801 303.743 221.455 307.841 208.443 307.841C203.84 307.841 198.316 307.025 193.382 305.609C190.701 304.84 188.07 303.75 185.922 302.766C183.494 301.654 180.728 300.14 177.733 298.069C177.087 297.622 176.108 296.877 174.794 295.832C178.334 290.578 179.544 284.094 178.134 277.917L175.426 266.044C175.102 264.624 175.99 263.211 177.41 262.887C177.725 262.815 178.051 262.802 178.372 262.848L200.816 266.076C201.884 266.23 202.958 266.331 204.036 266.379Z" fill="#FF4E00"/>
</g>
</svg>
