<svg width="1563" height="1489" fill="none" xmlns="http://www.w3.org/2000/svg"><g clip-path="url(#clip0)"><g clip-path="url(#clip1)"><path d="M519.462 869.187l94.119-54.339c17.327-10.004 39.483-4.068 49.487 13.259l19.924 34.511c10.004 17.326 32.159 23.263 49.486 13.259 17.327-10.003 23.264-32.159 13.26-49.486l-92.377-160.002c-10.004-17.327-4.067-39.483 13.26-49.486 17.326-10.004 39.482-4.067 49.486 13.259l144.905 250.984c10.004 17.327 32.16 23.264 49.487 13.26 17.326-10.003 23.263-32.159 13.259-49.486L724.513 499.817c-10.004-17.327-4.067-39.482 13.26-49.486 17.327-10.004 39.482-4.067 49.486 13.26l108.679 188.238c10.004 17.326 32.16 23.263 49.487 13.259l34.51-19.924" stroke="#7B61FF" stroke-width="10"/><path d="M469.266 898.168l62.746-36.226" stroke="url(#paint0_linear)" stroke-width="10"/><path d="M1372.68 753.054l250.99-144.906c17.32-10.004 23.26-32.159 13.26-49.486v0c-10.01-17.327-32.16-23.264-49.49-13.26l-156.86 90.566c-17.33 10.004-39.49 4.067-49.49-13.26v0c-10-17.327-4.07-39.482 13.26-49.486l62.75-36.226c17.32-10.004 23.26-32.16 13.26-49.487v0c-10.01-17.326-32.16-23.263-49.49-13.259L1264 564.816" stroke="#7B61FF" stroke-width="10"/><path d="M1372.68 753.054l62.75-36.227" stroke="url(#paint1_linear)" stroke-width="10"/><path fill-rule="evenodd" clip-rule="evenodd" d="M1328.67 847.335c9.67 2.589 19.6-3.145 22.19-12.808l17.14-63.989c2.59-9.663-3.14-19.595-12.8-22.184l-63.99-17.146c-9.67-2.589-19.6 3.146-22.19 12.808l-17.14 63.989c-2.59 9.663 3.14 19.595 12.8 22.184l63.99 17.146zm-10.03-21.26l18.83-10.868-12.68-21.961 21.96-12.679-10.87-18.824-21.96 12.679-12.68-21.961-18.82 10.868 12.68 21.961-21.96 12.679 10.86 18.824 21.96-12.679 12.68 21.961z" fill="#7B61FF"/><path d="M1493.84 310.814l-38.04-65.883c-10-17.327-32.16-23.263-49.49-13.26v0c-17.32 10.004-23.26 32.16-13.26 49.486l36.23 62.746c10 17.327 4.07 39.483-13.26 49.487v0c-17.33 10.003-39.48 4.067-49.49-13.26l-128.6-222.748" stroke="#7B61FF" stroke-width="10"/><path d="M1239.74 160.52l36.23 62.746" stroke="url(#paint2_linear)" stroke-width="10"/><path d="M1492.03 307.678l-36.23-62.746" stroke="url(#paint3_linear)" stroke-width="10"/><path stroke="#7B61FF" stroke-width="14" d="M1526.71 367.746l-45.263-12.128 12.128-45.264 45.263 12.129z"/><path fill="#7B61FF" d="M1249.89 141.222l-6.75 25.194-25.195-6.75 6.75-25.195zm-33.59-9.002l-6.75 25.194-25.195-6.75 6.75-25.195zm42.6-24.591l-6.75 25.194-25.195-6.75 6.75-25.195zm-33.6-9.001l-6.75 25.194-25.195-6.75 6.75-25.195z"/><path d="M1129.71 477.119l-37.13-64.315c-10-17.327-4.06-39.483 13.26-49.486l94.12-54.34c17.33-10.004 23.26-32.159 13.26-49.486v0c-10-17.327-32.16-23.264-49.49-13.26L912.751 391.138c-17.327 10.003-39.483 4.067-49.486-13.26v0c-10.004-17.327-4.067-39.483 13.259-49.486l103.531-59.774" stroke="#7B61FF" stroke-width="10"/><path d="M976.918 270.43l-62.746 36.226" stroke="url(#paint4_linear)" stroke-width="10"/><path d="M1026.47 249.165c2.99-4.895-.63-11.156-6.36-11.017l-60.705 1.473c-6.349.154-9.441 7.821-4.976 12.337l18.465 18.675a7.25 7.25 0 011.836 3.179l6.941 25.329c1.678 6.126 9.864 7.281 13.172 1.859l31.627-51.835z" fill="#7B61FF"/><g filter="url(#filter0_d)"><rect x="903.121" y="521.252" width="290" height="290" rx="40" transform="rotate(-30 903.121 521.252)" fill="#333"/><path d="M1020.87 637.846l-.78.448c-3.07 1.68-.45 6.374 2.55 4.735l.77-.448c3.15-1.72.53-6.415-2.54-4.735zm2.83 10.773c-3.07 1.68-.45 6.375 2.55 4.735 3.07-1.68.53-6.415-2.55-4.735zm5.16-52.617l-.21.122c-1.88.806-3.36 1.661-4.74 2.364-2.58 1.395-4.6 2.464-6.79 1.757-2.61-.938-4.04-4.062-6.57-10.403l-1.03-2.601c-4.82-12.077-4.67-13.946 7.86-19.768 1.09-.54 2.44-.001 2.94 1.027.54 1.098 0 2.444-1.03 2.943-4.43 2.09-7.59 3.629-8.16 5.086-.49 1.416.67 4.41 2.55 8.967l1.03 2.601c.82 2.066 2.89 7.45 3.97 7.859.41.049 1.93-.736 3.2-1.468a52.637 52.637 0 015.03-2.527c1.14-.47 2.44-.001 2.91 1.138.47 1.139.03 2.333-.96 2.903zm171.57-33.243c-1.06.611-2.4.253-2.97-.734-.68-1.017-.32-2.352.7-3.033 2.21-1.373 4.26-2.554 6.16-3.653 4.87-2.809 8.39-4.844 8.81-7.058.3-1.587-.82-3.854-3.42-7.054l-1.77-2.264c-6.64-8.393-6.64-8.393-20.46.061l-.08.04c-1.05.611-2.39.253-2.96-.734-.61-1.057-.25-2.392.7-3.032 15.87-9.635 17.81-9.532 26.18 1.054l1.73 2.194c3.55 4.347 4.88 7.623 4.25 10.615-.77 4.205-5.07 6.688-10.92 10.067-1.76 1.018-3.74 2.158-5.95 3.531zm-157.5 54.357c-8.07 13.69-4.11 29.83 8.93 38.75 2.43 1.605 4.68-2.323 2.25-3.928-11.03-7.546-14-21.156-7.25-32.577 1.46-2.532-2.47-4.776-3.93-2.245zm85.84-50.967c-2.69-1.079-3.88 3.37-1.16 4.337 12.14 4.743 18.68 16.57 16.27 29.336-.52 2.84 3.86 4.073 4.34 1.162 2.91-15.313-4.88-29.144-19.45-34.835zm-49.97 52.352c-8.05 4.46-16.21 8.889-24.26 13.348-2.58 1.395-.3 5.344 2.28 3.949 8.05-4.459 16.21-8.889 24.26-13.348 2.58-1.395.3-5.344-2.28-3.949zm51.89-27.699c-14.04 7.445-28.04 14.778-42.08 22.223-2.58 1.395-.34 5.273 2.28 3.948 14.04-7.444 28.04-14.778 42.08-22.223 2.58-1.395.3-5.343-2.28-3.948zm29.45-40.981c1.56 13.111 3.07 26.152 4.55 39.304.32 2.827 4.88 2.917 4.53.021a6207.553 6207.553 0 01-4.55-39.305c-.32-2.826-4.81-2.958-4.53-.02zm-68.7 3.285c-1.89 11.056-2.79 22.199-2.81 33.399-.01 2.919 4.51 2.939 4.52.02-.03-10.795.89-21.575 2.7-32.298.45-2.799-3.93-4.032-4.41-1.121zm-22.14 2.532c-10.95 5.946-21.86 11.963-32.74 17.869-2.58 1.395-.3 5.344 2.28 3.949 10.95-5.947 21.86-11.964 32.74-17.869 2.47-1.425.19-5.374-2.28-3.949zm1.38 27.31c-22.95 14.473-46.46 28.141-70.37 41.103-2.582 1.395-.3 5.344 2.28 3.949 23.91-12.963 47.35-26.589 70.37-41.103 2.39-1.566.15-5.444-2.28-3.949zm78.84-46.643c-13.67 8.08-27.27 16.118-40.93 24.198-2.54 1.465-.26 5.414 2.28 3.948 13.66-8.079 27.26-16.118 40.93-24.197 2.5-1.536.22-5.485-2.28-3.949zm9.72-30.713l-44.56 24.597c-2.58 1.395-.3 5.344 2.28 3.948l44.56-24.597c2.54-1.465.3-5.343-2.28-3.948z" fill="#FDD05B"/></g><path d="M1075.79 819.888l-43.94-121.035-68.442 106.062 58.722-14.331 53.66 29.304z" fill="#464646" stroke="#000" stroke-width="10"/></g></g><defs><linearGradient id="paint0_linear" x1="532.012" y1="861.942" x2="469.266" y2="898.168" gradientUnits="userSpaceOnUse"><stop stop-color="#7B61FF"/><stop offset="1"/></linearGradient><linearGradient id="paint1_linear" x1="1435.43" y1="716.827" x2="1372.68" y2="753.054" gradientUnits="userSpaceOnUse"><stop stop-color="#7B61FF"/><stop offset="1"/></linearGradient><linearGradient id="paint2_linear" x1="1275.97" y1="223.266" x2="1239.74" y2="160.52" gradientUnits="userSpaceOnUse"><stop stop-color="#7B61FF"/><stop offset="1"/></linearGradient><linearGradient id="paint3_linear" x1="1455.8" y1="244.932" x2="1492.03" y2="307.678" gradientUnits="userSpaceOnUse"><stop stop-color="#7B61FF"/><stop offset="1"/></linearGradient><linearGradient id="paint4_linear" x1="914.172" y1="306.656" x2="976.918" y2="270.43" gradientUnits="userSpaceOnUse"><stop stop-color="#7B61FF"/><stop offset="1"/></linearGradient><clipPath id="clip0"><path fill="#fff" transform="rotate(-30 1225.979 328.5)" d="M0 0h1920v960H0z"/></clipPath><clipPath id="clip1"><path fill="#fff" transform="rotate(-30 1225.979 328.5)" d="M0 0h1920v960H0z"/></clipPath><filter id="filter0_d" x="794.442" y="267.573" width="613.506" height="613.506" filterUnits="userSpaceOnUse" color-interpolation-filters="sRGB"><feFlood flood-opacity="0" result="BackgroundImageFix"/><feColorMatrix in="SourceAlpha" values="0 0 0 0 0 0 0 0 0 0 0 0 0 0 0 0 0 0 127 0"/><feOffset/><feGaussianBlur stdDeviation="54.34"/><feColorMatrix values="0 0 0 0 0.0196078 0 0 0 0 0.0196078 0 0 0 0 0.0196078 0 0 0 0.8 0"/><feBlend in2="BackgroundImageFix" result="effect1_dropShadow"/><feBlend in="SourceGraphic" in2="effect1_dropShadow" result="shape"/></filter></defs></svg>