<svg width="433" height="353" fill="none" xmlns="http://www.w3.org/2000/svg"><g clip-path="url(#clip0)"><path d="M238.079 59.22l-44.092-7.162 10.447-27.983c2.31-6.193-.709-9.008-6.719-6.262l-52.214 23.871-21.797-30.07c-3.131-4.315-7.06-3.707-8.739 1.354l-11.681 35.26-56.989-6.962c-6.559-.8-8.585 2.797-4.51 8.001L60.21 72.772 20.343 92.935c-7.498 3.79-6.847 7.994 1.447 9.345l44.092 7.161-10.447 27.983c-2.31 6.193.71 9.008 6.72 6.262l52.213-23.871 21.799 30.076c3.13 4.315 7.06 3.707 8.738-1.354l11.682-35.26 56.988 6.962c6.559.8 8.585-2.796 4.511-8.001l-18.421-23.512 39.861-20.162c7.498-3.79 6.847-7.994-1.447-9.345z" fill="#171717"/><path fill-rule="evenodd" clip-rule="evenodd" d="M226.696 169.891v9.91c0 .871-1.306.871-1.306 0v-6.638c0-.87 1.306-.87 1.306 0 0 .871-1.306.871-1.306 0v-3.272h-58.818l-.124 12.847h6.001v.586a.648.648 0 01.327-.088h90.258l1.805-1.652v-11.693h-38.143zm34.911 14.651h-88.831a.647.647 0 01-.327-.087v10.128h87.957l.042-3.837v-5.142l1.159-1.062zm-89.158 11.347v2.384h-6.001l.206 14.23c.973-1.106 2.06-1.106 3.262 0 .176.162.343.339.503.529h90.029l3.68-1.633v-13.126h-3.762l.026-2.384h-87.943zm66.545 34.947l20.932-.009.483-16.489h-89.132c.484.939.848 2.082 1.091 3.428v10.697l.081 2.401 22.857-.009v8.269l-38.611-1.889a9.797 9.797 0 01-9.102-7.74c-10.668-49.99-9.793-78.528 2.624-85.616 22.545-12.868 24.528 16.279 35.493 13.839 10.964-2.44 1.431-31.009 24.524-33.34 23.093-2.332 17.225 13.469 25.128 24.94 7.903 11.472 13.235-15.88 35.717-15.799 24.988.09 24.216 17.763 24.216 34.55l-6.971 71.098a4.735 4.735 0 01-4.943 4.267l-44.502-2.178.115-10.42zm-21.038.009h.303a.654.654 0 01.502.634l.176 70.074 5.572-8.233a.653.653 0 111.082.732l-6.581 9.724 10.539-.006a.653.653 0 01.001 1.306l-22.884.012a.652.652 0 110-1.306l10.866-.006-7.736-9.619a.653.653 0 111.017-.819l6.818 8.477-.176-70.333a.652.652 0 01.501-.637zM51.702 132.331l10.607-24.686 4.074-1.567-8.818 21.809 14.387-20.615a.652.652 0 111.071.747l-13.391 19.188 21.38-18.732a.653.653 0 01.86.982l-22.436 19.659 33.75-24.235 20.01 42.374-45.525 11.677c-2.283 3.655-3.69 5.688-4.307 6.205-.767.644-1.657 1.1-2.628 1.229-1.28.17-2.558-.256-3.751-1.36-1.464-1.353-2.161-2.944-2.068-4.723-1.875.131-3.559-.48-5.01-1.822-1.583-1.465-2.264-3.131-1.992-4.941l-2.744-3.024a6.53 6.53 0 01-.969-7.379c1.976-3.835 4-6.885 6.08-9.151.503-.549.976-1.094 1.42-1.635zm110.923 159.041l-45.285.439 1.06 10.933h12.558a.653.653 0 010 1.306h-9.739c1.979.544 3.409 1.122 4.304 1.745 1.747 1.218 1.613 2.775-.255 4.103-1.739 1.236-3.474 1.322-5.06.216-1.42-.99-2.701-2.924-3.881-5.803l-19.177 3.253a8.328 8.328 0 00-6.377 5.216l-.353.914h62.743l15.225-13.379-5.763-8.943zm-46.596.451l-15.132.147-9.278-9.742 16.753-30.025a.653.653 0 00-1.141-.636l-16.556 29.671-.007-.008-.053.116-4.975 8.916-8.294 24.296a.653.653 0 01-.618.442H.654a.653.653 0 01-.61-.888l.695-1.802a9.634 9.634 0 017.377-6.034l17.285-2.932c-2.825-.812-4.77-1.63-5.856-2.476-1.68-1.307-1.466-2.855.47-4.083 1.8-1.143 3.538-1.138 5.064.049 1.36 1.058 2.533 3.042 3.557 5.955l8.323-10.819H24.697l27.74-50.553a.654.654 0 001.072-.14l32.51-64.54a.653.653 0 10-1.167-.587l-32.51 64.54a.649.649 0 00-.067.23l-16.707-17.541 32.307-64.116 30.918.343 32.294-.343v33.576l-14.703 32.154 44.939 62.272a.65.65 0 01.389.28l1.564 2.426.999 1.385-.106.001 5.621 8.723a.653.653 0 01-.118.844l-15.831 13.913a.655.655 0 01-.432.163h-63.94a.653.653 0 01-.61-.888l.695-1.802a9.634 9.634 0 017.377-6.034l17.284-2.932c-2.824-.812-4.768-1.63-5.855-2.476-1.681-1.307-1.466-2.855.469-4.083 1.801-1.143 3.539-1.138 5.065.049 1.151.895 2.168 2.455 3.075 4.68l-.94-9.691zm-32.352.147h-45.07l-8.288 10.774h11.824a.653.653 0 010 1.306h-9.738c1.978.544 3.409 1.122 4.303 1.745 1.747 1.218 1.614 2.775-.255 4.103-1.738 1.236-3.474 1.322-5.06.216-1.42-.99-2.7-2.924-3.881-5.803l-19.178 3.253a8.328 8.328 0 00-6.377 5.216l-.352.914h74.656l7.416-21.724zm-59.4 5.895c-1.071-.833-2.209-.837-3.562.022-1.22.774-1.284 1.238-.368 1.951 1.083.842 3.354 1.728 6.778 2.624-.875-2.275-1.834-3.808-2.848-4.597zm7.863 11.178c1.113.776 2.25.719 3.556-.209 1.177-.837 1.217-1.303.265-1.967-1.126-.785-3.44-1.551-6.905-2.267.992 2.227 2.03 3.708 3.084 4.443zm80.952-11.178c-1.071-.833-2.209-.837-3.563.022-1.219.774-1.283 1.238-.367 1.951 1.083.842 3.354 1.728 6.777 2.624-.874-2.275-1.833-3.808-2.847-4.597zm7.863 11.178c1.113.776 2.249.719 3.556-.209 1.177-.837 1.217-1.303.265-1.967-1.126-.785-3.44-1.551-6.906-2.267.993 2.227 2.031 3.708 3.085 4.443zm74.351-28.491h-26.385a7.674 7.674 0 01-7.627-6.828c-.562-5.069 1.034-9.028 4.787-11.876 7.948-6.033 12.064 2.334 15.291 1.501 3.227-.833-1.305-11.428 4.368-14.978 5.673-3.549 7.174 3.603 9.34 7.251.077.13.152.242.226.34v24.59zm43.284-13.215c.268-.045.546-.261.85-.702 2.136-3.101 3.616-9.181 9.211-6.163 5.594 3.017 6.463 12.627 9.646 13.335 3.182.708 8.627-9.616 16.465-4.488 4.219 2.76 5.076 7.328 2.571 13.705a7.672 7.672 0 01-7.152 4.868l-31.818-.042.227-20.513zM89.765 82.834c.456-.079.865-.488 1.242-1.328a.653.653 0 011.191.535c-.46 1.026-1.067 1.704-1.813 1.977l4.987 9.522c3.695 3.192 7.056 3.75 10.227 1.769 3.299-2.061 7.067-3.468 11.301-4.222l-14.174-24.122a5.372 5.372 0 00-.808-1.053l-6.459 3.282-9.481 2.078a7.53 7.53 0 00-.01 3.918 9.622 9.622 0 011.584-1.138 9.4 9.4 0 013.062-1.128 2.449 2.449 0 012.303 3.989 9.395 9.395 0 01-2.508 2.088 9.405 9.405 0 01-3.063 1.128 2.441 2.441 0 01-1.865-.425l-2.542 4.049 5.715-1.866a.653.653 0 01.781.318l.33.629zm-3.615-4.266c-.197-.586.002-1.235.52-1.559.611-.382 1.436-.165 1.843.485.172.276.241.586.217.88.348-.142.69-.31 1.026-.504a8.093 8.093 0 002.163-1.799 1.143 1.143 0 00-1.075-1.862 8.094 8.094 0 00-2.64.974 8.091 8.091 0 00-2.162 1.8 1.143 1.143 0 00.108 1.585zm-1.52.034a2.453 2.453 0 01.31-2.332 8.855 8.855 0 015.996-11.567l5.386-1.467a6.694 6.694 0 017.53 3.067l14.656 24.942a.653.653 0 01-.464.976c-4.45.68-8.366 2.08-11.753 4.195-3.731 2.332-7.737 1.642-11.87-1.973a.651.651 0 01-.149-.188L88.534 83.3l-6.905 2.255a.653.653 0 01-.756-.969l3.758-5.984zm13.62 3.134a.653.653 0 11-.205-1.29 3.755 3.755 0 10-1.175-7.418.653.653 0 11-.204-1.29 5.06 5.06 0 111.583 9.998zm13.355 49.978a.653.653 0 11-1.286.227l-1.003-5.685a.654.654 0 011.286-.226l1.003 5.684zm5.343 18.352a.653.653 0 01-1.193.531c-2.259-5.076-.809-9.932 4.249-14.434a.653.653 0 01.869.975c-4.661 4.149-5.935 8.413-3.925 12.928zm.951-21.87a.652.652 0 11-1.301.123l-.948-10.032a.653.653 0 111.3-.122l.949 10.031zm-56.507 9.951l-12.122 15.25-.008.009a.726.726 0 01-.008.05c-.313 1.463.18 2.789 1.54 4.046 1.37 1.266 2.933 1.722 4.754 1.385a.651.651 0 01.395.05l8.912-12.406c.14-2.25-.093-4.005-.678-5.261-.507-1.087-1.431-2.13-2.785-3.123zm-.969-.88l-2.356-5.499a2.285 2.285 0 00-3.963-.425 36.652 36.652 0 01-2.86 3.505c-1.993 2.173-3.955 5.128-5.88 8.867a5.224 5.224 0 00.774 5.903l2.381 2.624 11.904-14.975zm5.19 10.447L56.6 160.263a.649.649 0 01-.383.255c-.023 1.319.522 2.481 1.655 3.529.914.845 1.805 1.142 2.693 1.024.694-.092 1.368-.437 1.96-.934.623-.522 2.741-3.721 6.18-9.376-.12-1.79-.377-3.101-.758-3.918-.346-.743-1.126-1.794-2.333-3.129zm-10.738-13.513a.654.654 0 01-.497-1.208c1.593-.655 2.96-.073 3.895 1.597.943 1.683.718 3.106-.723 3.962a.653.653 0 01-.667-1.123c.773-.459.873-1.09.25-2.2-.629-1.124-1.314-1.416-2.258-1.028zm4.63 9.241a.653.653 0 01-.497-1.208c1.593-.656 2.96-.073 3.895 1.597.943 1.682.718 3.106-.724 3.962a.653.653 0 01-.666-1.123c.773-.46.873-1.09.25-2.201-.63-1.124-1.314-1.416-2.258-1.027zm4.644 8.756a.654.654 0 01-.497-1.208c1.593-.655 2.96-.073 3.895 1.597.943 1.683.718 3.106-.724 3.962a.653.653 0 01-.666-1.123c.773-.459.873-1.09.25-2.2-.63-1.124-1.314-1.416-2.258-1.028zm139.892 52.635c0-.871 1.306-.871 1.306 0v5.008c0 .871-1.306.871-1.306 0v-10.015c0-.871 1.306-.871 1.306 0v5.007c0 .871-1.306.871-1.306 0z" fill="#fff"/><path fill-rule="evenodd" clip-rule="evenodd" d="M86.118 110.006l-4.106-.722a.626.626 0 00.07-.32c-.019-.163-.057-.404-.29-.548-.315-.196-.609-.087-.97.233-.08.071-.215.188-.408.353l-7.277-1.284a.68.68 0 00-.14-.481l3.649-7.567a7.02 7.02 0 013.948-3.558l33.781-12.145 19.92 8.809a7.674 7.674 0 014.06 4.267l22.766 59.296-28.637 5.672-3.613-2.39H67.232l.44-.693 34.59-8.836c1.5 1.158 2.991 2.195 4.23 2.898 4.893 2.777 11.84 5.199 15.089 2.145 1.435-1.349 2.709-3.257 3.822-5.725a13.391 13.391 0 001.007-7.675l-4.273-25.998a2.512 2.512 0 00-4.33-1.29c-.593.646-1.115 1.689-1.567 3.129a2.89 2.89 0 00-4.639-.889 5.296 5.296 0 00-1.145 1.571c-.681 1.465-.949 3.911-.803 7.337l-8.846-5.305a1.336 1.336 0 00-.43-.166l-7.19-15.243-7.069 5.125zm80.455 85.883h100.733v3.428H166.573v10.286h100.733v3.428H163.471v-17.142h3.102zm97.556-12.611H163.471v-3.389h100.658v-9.999H163.471v-3.388h103.835v16.816h-3.177v-.04zm-91.679 3.387v-2.123h94.856v2.123h-50.122v5.795h50.122v2.123H172.45v-7.918zm87.999 31.101v13.714h-91.754v-3.428h24.979v-10.286h-24.979v-3.428h91.754v3.428z" fill="#FF4E00"/></g><defs><clipPath id="clip0"><path fill="#fff" d="M0 0h433v353H0z"/></clipPath></defs></svg>