<svg width="433" height="353" viewBox="0 0 433 353" fill="none" xmlns="http://www.w3.org/2000/svg">
<path d="M321.104 86.9923L307.28 129.469L281.225 114.863C275.459 111.633 272.214 114.186 274.009 120.545L289.609 175.797L256.558 192.736C251.814 195.17 251.814 199.146 256.558 201.579L289.615 218.518L274.015 273.77C272.221 280.13 275.465 282.682 281.232 279.452L307.28 264.84L321.104 307.323C323.702 315.313 327.956 315.313 330.56 307.323L344.384 264.846L370.439 279.452C376.206 282.682 379.45 280.13 377.655 273.77L362.055 218.518L395.112 201.579C399.856 199.146 399.856 195.17 395.112 192.736L362.055 175.797L377.655 120.545C379.45 114.186 376.206 111.633 370.439 114.863L344.384 129.469L330.56 86.9923C327.962 79.0024 323.708 79.0024 321.104 86.9923Z" fill="#171717"/>
<path fill-rule="evenodd" clip-rule="evenodd" d="M181.261 266.824C181.25 266.798 181.238 266.771 181.224 266.745L181.031 266.388L186.003 255.284C186.166 254.919 186.003 254.49 185.638 254.327C185.272 254.163 184.844 254.327 184.68 254.692L180.164 264.778L175.075 255.335C174.885 254.983 174.446 254.851 174.093 255.041C173.741 255.231 173.609 255.67 173.799 256.023L179.417 266.447L179.276 266.762C179.267 266.782 179.259 266.801 179.252 266.821L155.237 289.779L154.896 289.602L135.149 314.267C134.94 314.528 134.58 314.612 134.277 314.471L69.2594 284.153C68.7988 283.938 68.6966 283.328 69.0621 282.975L72.1208 280.019C74.1138 278.093 76.7769 277.017 79.5484 277.017H102.057L113.471 268.004L83.5949 252.427L143.329 194.535L103.364 187.488L105.451 175.653L81.7528 169.445C81.4295 169.36 81.2061 169.065 81.2119 168.731L82.254 109.032L55.8233 118.798C54.5604 121.764 52.6301 124.719 50.0402 127.886C44.1139 135.134 37.0509 139.193 28.8044 139.193C21.1177 139.193 13.9158 134.961 7.67594 127.908C2.40304 121.947 0 116.892 0 110.208C0 103.982 2.12993 97.5874 5.7328 92.6416C11.0283 85.3723 19.3558 81.2224 28.8044 81.2224C34.4119 81.2224 39.8743 83.5489 45.4153 87.6957L53.429 75.2542C56.467 70.5375 61.5191 67.4945 67.109 67.0145L92.1709 64.8622C93.3161 64.7639 94.4395 65.2173 95.1956 66.0829C96.5059 67.583 96.352 69.8613 94.852 71.1715L92.3064 73.395C91.6906 73.9329 91.3498 74.7194 91.3783 75.5364C91.4307 77.0363 92.689 78.2097 94.1889 78.1573L98.6782 78.0006C99.8094 77.9611 100.887 78.4822 101.559 79.3933C102.683 80.918 102.358 83.0653 100.833 84.1892L97.5238 86.6285C96.9117 87.0796 96.5167 87.7665 96.4346 88.5224C96.2725 90.0144 97.3506 91.3553 98.8426 91.5174L107.345 92.441C108.711 92.5894 109.876 93.498 110.352 94.7872C111.046 96.6642 110.087 98.748 108.21 99.4416L93.8746 104.738L101.985 121.752L113.602 129.422L116.573 112.573L157.759 129.743L158.931 124.228C159.052 123.658 159.603 123.284 160.178 123.383L204.498 130.959C205.09 131.06 205.488 131.622 205.387 132.214C205.383 132.235 205.383 132.235 205.378 132.257C204.159 137.914 203.016 143.217 201.949 148.164L202.024 148.196L223.356 179.464C219.788 177.593 215.355 178.246 212.475 181.183C210.34 183.361 208.662 185.366 207.44 187.197C205.281 190.434 203.668 192.851 202.602 194.449L211.865 196.32C211.903 196.238 211.958 196.161 212.028 196.096C213.349 194.864 214.806 192.985 216.39 190.465C218.033 187.85 220.609 184.678 224.121 180.94C224.395 180.649 224.854 180.634 225.145 180.908C225.437 181.182 225.451 181.641 225.177 181.933C221.724 185.608 219.203 188.712 217.617 191.236C216.167 193.544 214.806 195.349 213.528 196.656L221.807 198.328C221.827 198.26 221.857 198.195 221.898 198.134C223.605 195.554 225.284 193.358 226.936 191.544C228.565 189.754 230.406 187.789 232.457 185.649C232.734 185.36 233.193 185.35 233.482 185.627C233.771 185.904 233.781 186.362 233.504 186.651C231.46 188.784 229.628 190.74 228.007 192.52C226.473 194.204 224.906 196.242 223.307 198.631L227.977 199.574C226.446 198.983 225.778 197.883 226.215 196.463C226.333 196.081 226.739 195.866 227.121 195.984C227.504 196.101 227.718 196.507 227.601 196.889C227.399 197.545 227.655 197.936 228.64 198.273C229.638 198.615 230.167 198.438 230.51 197.72C230.682 197.359 231.115 197.206 231.476 197.378C231.837 197.551 231.99 197.983 231.817 198.344C231.333 199.359 230.53 199.874 229.512 199.884L231.574 200.3C231.51 200.037 231.597 199.748 231.822 199.566L241.306 191.897C241.617 191.645 242.073 191.694 242.325 192.005C242.577 192.316 242.528 192.772 242.217 193.024L232.89 200.566L239.096 201.82L237.465 208.938V209.216L253.182 212.371L253.025 212.044L291.044 219.016L278.396 247.05L282.98 249.515C286.036 251.158 289.844 250.04 291.527 247.006C297.044 237.061 302.406 227.527 307.613 218.403C313.176 208.654 317.366 197.794 320.181 185.82C320.794 183.215 319.705 180.506 317.46 179.049L303.316 169.874C302.98 169.656 302.885 169.207 303.102 168.872C303.32 168.536 303.769 168.44 304.105 168.658L318.249 177.833C321.007 179.623 322.345 182.951 321.592 186.152C318.745 198.258 314.505 209.249 308.871 219.122C303.668 228.24 298.309 237.77 292.794 247.709C290.727 251.436 286.048 252.81 282.294 250.791L277.798 248.374L268.819 268.277C267.068 272.158 263.045 274.497 258.806 274.1L181.261 266.824ZM152.931 288.577L114.88 268.738L103.692 277.572L115.879 283.089C116.243 283.254 116.405 283.683 116.24 284.048C116.075 284.412 115.646 284.574 115.281 284.409L102.152 278.466H79.5484C77.1527 278.466 74.8507 279.396 73.128 281.061L70.8271 283.285L127.019 309.487C133.576 303.15 139.393 299.956 144.505 299.956C144.581 299.956 144.655 299.967 144.724 299.989L153.551 288.963L152.931 288.577ZM105.703 174.221L113.328 130.977L101.018 122.85C100.908 122.778 100.82 122.676 100.763 122.557L91.8825 103.927C90.8873 101.84 89.1452 100.201 87.0005 99.3353L83.8946 98.0817L83.1486 140.819C83.343 140.667 83.6098 140.618 83.8563 140.714C93.488 144.439 97.1263 154.736 94.8778 171.385H94.8778L105.703 174.221ZM274.106 138.288C274.586 138.419 275.081 138.489 275.591 138.498C277.142 138.525 278.576 137.984 279.912 136.852C278.616 135.674 277.203 135.083 275.651 135.056C274.841 135.042 274.064 135.182 273.316 135.481C273.452 135.475 273.592 135.49 273.73 135.527C274.503 135.734 274.951 136.568 274.731 137.389C274.629 137.772 274.399 138.084 274.106 138.288ZM271.878 137.16C271.868 136.99 271.884 136.814 271.931 136.639C271.993 136.407 272.102 136.201 272.244 136.029C271.934 136.224 271.629 136.448 271.329 136.702C271.51 136.866 271.693 137.019 271.878 137.16ZM270.765 129.104L267.954 130.355C267.084 131.298 266.406 132.442 266.001 133.742L261.39 148.547C264.43 150.539 267.63 152.01 270.994 152.962C274.368 153.917 278.428 154.292 283.173 154.08L283.744 148.259C283.789 147.798 284.251 147.497 284.691 147.642C284.857 147.696 285.028 147.741 285.202 147.774C287.461 148.214 289.648 146.738 290.087 144.479C290.526 142.22 289.051 140.033 286.792 139.594C286.356 139.509 285.917 139.495 285.486 139.548C285.066 139.6 284.701 139.285 284.674 138.879C282.167 136.089 280.295 134.033 279.057 132.713C277.894 131.473 276.496 129.967 274.861 128.196C270.55 130.116 267.85 134.061 266.743 140.112L270.735 140.887C271.128 140.964 271.384 141.344 271.308 141.737C271.232 142.13 270.851 142.386 270.458 142.31L265.771 141.399C265.388 141.325 265.133 140.96 265.194 140.574C266.003 135.487 267.862 131.651 270.765 129.104ZM279.783 127.322C283.753 129.324 286.316 133.488 286.173 138.07C286.472 138.08 286.771 138.114 287.069 138.172C290.113 138.763 292.102 141.711 291.51 144.756C290.93 147.741 288.085 149.71 285.105 149.229L284.629 154.088C290.157 153.235 294.543 150.531 296.993 145.99C300.775 138.979 302.384 132.443 302.21 126.364C302.076 121.684 300.913 117.566 299.028 113.828C297.503 110.806 292.981 107.031 287.845 104.746C281.723 102.023 275.549 101.632 270.437 104.166C264.675 107.022 258.466 113.498 254.721 120.652C250.568 128.584 249.935 136.18 253.56 141.643C255.08 143.934 257.338 146.08 260.063 147.933L264.618 133.311C265.799 129.517 268.98 126.862 272.676 126.199C270.849 124.836 270.262 122.3 271.395 120.248C272.005 119.141 273.022 118.361 274.183 118.029C273.134 116.846 272.868 115.091 273.648 113.609C274.439 112.104 276.111 111.282 277.786 111.574L280.609 112.066C282.636 112.419 283.992 114.348 283.639 116.374C283.638 116.378 283.638 116.383 283.637 116.387C283.397 117.735 282.496 118.806 281.321 119.317C282.664 120.29 283.399 121.984 283.064 123.721C283.064 123.725 283.063 123.73 283.062 123.734C282.716 125.502 281.41 126.848 279.783 127.322ZM291.889 87.0585L287.154 102.885V102.885C287.581 103.053 288.007 103.232 288.434 103.422C293.852 105.832 298.629 109.82 300.321 113.175C302.298 117.092 303.518 121.415 303.658 126.322C303.84 132.66 302.169 139.447 298.268 146.678C294.225 154.173 285.471 157.043 275.109 155.368C265.668 153.842 256.508 148.707 252.352 142.444C248.385 136.466 249.063 128.334 253.437 119.98C257.317 112.567 263.741 105.867 269.793 102.867C274.586 100.492 280.175 100.483 285.79 102.386L290.497 86.656C290.126 86.4565 289.813 86.1965 289.622 85.9059C288.902 84.807 290.11 82.991 291.14 82.4736C292.17 81.9562 293.475 82.8228 293.741 83.3573C294.007 83.8918 294.297 84.8951 293.556 86.2801C293.233 86.8835 292.581 87.0987 291.889 87.0585ZM275.566 139.947C273.395 139.909 271.446 138.976 269.751 137.181C269.48 136.895 269.488 136.445 269.768 136.168C271.525 134.434 273.505 133.569 275.676 133.607C277.847 133.645 279.796 134.578 281.491 136.372C281.762 136.659 281.754 137.109 281.473 137.386C279.717 139.12 277.736 139.985 275.566 139.947ZM267.259 143.912C266.939 143.671 266.875 143.217 267.116 142.897C267.356 142.578 267.811 142.513 268.13 142.754C268.889 143.325 269.933 143.494 271.31 143.229C271.703 143.154 272.083 143.411 272.158 143.804C272.234 144.197 271.977 144.577 271.584 144.652C269.834 144.989 268.377 144.753 267.259 143.912ZM128.428 310.144L134.374 312.917L143.558 301.445C139.205 301.815 134.152 304.701 128.428 310.144ZM93.4652 171.015C95.5864 155.062 92.1741 145.485 83.3335 142.065C83.257 142.036 83.1885 141.995 83.129 141.945L82.6709 168.187L93.4652 171.015ZM28.8044 137.744C36.5679 137.744 43.2459 133.906 48.9182 126.969C53.753 121.056 56.1594 115.997 56.1594 110.208C56.1594 101.92 52.4602 95.0736 45.5772 89.6478C39.904 85.1755 34.3862 82.6717 28.8044 82.6717C19.8147 82.6717 11.9243 86.6038 6.90421 93.495C3.47995 98.1955 1.44928 104.292 1.44928 110.208C1.44928 116.489 3.70269 121.229 8.76145 126.947C14.7521 133.719 21.6012 137.744 28.8044 137.744ZM63.4723 184.811L59.2337 205.143L71.2715 213.918L55.9187 215.729L43.9115 229.684L45.9094 212.347L34.4985 202.916L50.5973 202.843L63.4723 184.811ZM15.3971 263.702L27.5279 279.814L40.4921 277.779L32.0508 288.446L33.2538 304.573L23.7078 292.568L10.7258 293.806L20.7135 283.754L15.3971 263.702ZM339.648 80.0938L353.712 98.1042L368.97 95.6585L358.925 107.777L360.148 125.932L349.073 112.519L333.804 114.067L345.658 102.624L339.648 80.0938ZM382.388 170.292L377.16 189.771L386.745 198.734L373.142 198.649L361.175 209.526L364.757 194.613L355.789 185.145L369.86 186.827L382.388 170.292ZM369.342 281.617C368.986 281.249 368.606 280.9 368.201 280.577C381.247 273.828 391.291 268.488 393.419 267.048C400.006 262.592 400.322 254.568 393.955 250.442C389.638 247.644 379.887 249.391 364.859 255.833L356.868 260.042C360.354 262.427 362.984 265.131 364.138 267.371C365.737 270.474 367.406 274.82 367.831 280.296C365.888 278.883 363.399 278.099 360.292 278.781C350.639 280.901 347.724 288.019 338.271 283.914C328.818 279.81 328.042 273.808 318.274 275.83C314.997 276.509 312.468 277.019 310.686 277.36C314.861 268.094 322.878 259.579 330.22 256.017C338.611 251.947 348.448 254.782 355.477 259.136L364.209 254.537C364.226 254.528 364.244 254.52 364.261 254.512C379.748 247.871 389.856 246.058 394.743 249.226C402.014 253.938 401.648 263.231 394.231 268.248C392.095 269.694 382.214 274.953 369.342 281.617ZM366.99 291.264C366.091 295.27 364.486 299.647 361.904 304.371C354.315 318.255 332.448 315.753 319.029 307.149C304.747 314.255 293.494 319.699 291.154 320.496C284.05 322.916 278.087 317.471 276.861 308.796C276.073 303.217 284.648 296.086 302.551 287.012L307.125 284.603L307.065 285.454C313.281 282.45 317.959 281.466 321.099 282.504C325.808 284.061 338.705 294.093 346.869 291.292C354.677 288.613 364.372 284.398 366.99 291.264ZM317.646 306.219C314.771 304.193 312.362 301.876 310.678 299.386C307.963 295.373 307.319 290.62 308.097 285.729L303.222 288.297L303.212 288.302C285.935 297.059 277.641 303.954 278.297 308.594C278.82 312.301 280.34 315.508 282.51 317.489C284.772 319.554 287.591 320.178 290.686 319.124C292.942 318.355 303.782 313.114 317.646 306.219ZM364.885 255.819L364.833 255.844C364.841 255.841 364.85 255.837 364.859 255.833L364.885 255.819ZM219.72 90.9424L220.904 91.4896C220.932 91.4878 220.96 91.4876 220.988 91.489C222.962 91.2437 224.028 90.4391 224.348 89.0525C224.68 87.6118 224.014 86.3829 222.196 85.2631C222.151 85.2354 222.11 85.2036 222.074 85.1684L208.885 79.1321C208.753 79.0717 208.648 78.9767 208.575 78.8629C208.575 78.8629 208.575 78.8629 208.575 78.8629C206.802 78.8396 205.803 79.5544 205.393 81.1091C204.944 82.8069 205.514 84.0768 207.207 85.0845C207.321 85.1519 207.406 85.2401 207.464 85.3391C207.556 85.3429 207.649 85.3645 207.738 85.4056L219.429 90.8082C218.142 89.9779 217.865 88.6486 218.589 87.0903C219.331 85.491 220.534 84.8713 221.957 85.4785C222.325 85.6355 222.496 86.0612 222.339 86.4293C222.182 86.7974 221.756 86.9685 221.388 86.8115C220.757 86.5422 220.342 86.7562 219.903 87.7007C219.459 88.6577 219.58 89.2017 220.258 89.6178C220.599 89.8271 220.706 90.2733 220.497 90.6144C220.33 90.8859 220.014 91.009 219.72 90.9424ZM220.665 92.9758L207.13 86.7211C207 86.661 206.896 86.567 206.824 86.4546C205.014 86.9019 203.944 87.9375 203.521 89.626C203.219 90.8287 203.309 91.8722 203.778 92.7885C204.111 93.4374 204.651 93.9563 205.313 94.2622L209.18 96.0503C209.223 96.059 209.265 96.0717 209.307 96.0885L217.31 99.316C219.408 99.4884 220.749 98.8266 221.487 97.3117C222.196 95.8589 221.946 94.453 220.665 92.9758ZM211.906 98.6995L210.516 110.682L228.012 107.928C230.586 107.523 232.574 105.449 232.87 102.86L236.955 67.1143C234.32 64.9276 234.403 62.1135 237.121 59.0192C236.629 58.4472 235.871 58.1214 235.065 58.2141C232.576 58.5004 231.118 59.7898 230.564 62.1908C230.35 63.1151 229.332 66.9025 227.498 73.5924C227.397 73.9598 227.029 74.1865 226.655 74.1111L218.968 72.5588L224.754 75.5739C224.774 75.5842 224.793 75.5955 224.812 75.6076C227.102 77.0852 228.055 78.9916 227.542 81.2137C227.122 83.0303 225.915 84.2277 224.01 84.7814C225.553 86.0711 226.165 87.6231 225.76 89.3785C225.363 91.0971 224.175 92.2129 222.294 92.7119C223.47 94.4066 223.652 96.1789 222.79 97.947C221.757 100.065 219.796 101.006 217.071 100.75C217.001 100.743 216.933 100.727 216.868 100.7L211.906 98.6995ZM213.876 71.5306L211.366 71.0237C211.35 71.0205 211.334 71.0194 211.319 71.0204C208.861 71.1753 207.559 72.0501 207.207 73.6611C206.861 75.2399 207.424 76.4896 208.987 77.5361C209.078 77.5965 209.148 77.6689 209.199 77.7484C209.296 77.7501 209.394 77.7713 209.488 77.8142L222.271 83.665C222.33 83.6411 222.393 83.6247 222.458 83.6168C224.597 83.3605 225.765 82.4658 226.13 80.8877C226.492 79.3176 225.843 78.0066 224.054 76.8433L213.969 71.588C213.936 71.5709 213.905 71.5517 213.876 71.5306ZM237.689 60.6063C236.268 62.4579 236.105 63.9653 237.164 65.2836L237.674 60.8211C237.682 60.7497 237.687 60.6781 237.689 60.6063ZM238.484 66.4978C238.662 66.7423 238.674 67.083 238.489 67.3435C238.455 67.3921 238.416 67.4351 238.373 67.4725L234.31 103.025C233.94 106.261 231.455 108.853 228.237 109.36L209.798 112.262C209.325 112.337 208.911 111.939 208.966 111.463L210.499 98.2565L204.704 95.5777C203.749 95.1358 202.968 94.3864 202.488 93.4491C201.852 92.2065 201.732 90.804 202.115 89.2738C202.569 87.4618 203.641 86.176 205.28 85.4519C203.945 84.2069 203.498 82.6079 203.991 80.7388C204.424 79.1001 205.411 78.0485 206.876 77.6253C205.807 76.4304 205.433 74.988 205.791 73.3512C206.299 71.0305 208.18 69.766 211.227 69.574C211.37 69.565 211.513 69.5748 211.653 69.603L226.279 72.5565C227.991 66.3057 228.952 62.7298 229.152 61.8648C229.844 58.8634 231.803 57.1304 234.9 56.7743C236.987 56.5342 238.874 58.0317 239.114 60.119C239.147 60.407 239.147 60.6977 239.114 60.9857L238.484 66.4978ZM222.362 81.4452C222.671 81.6999 222.715 82.1566 222.46 82.4653C222.205 82.774 221.749 82.8177 221.44 82.563C220.221 81.5567 220.11 80.1787 221.061 78.7099C222.019 77.2295 223.296 76.7832 224.621 77.5825C224.963 77.7893 225.073 78.2347 224.867 78.5773C224.66 78.92 224.214 79.0302 223.872 78.8234C223.284 78.469 222.843 78.6231 222.278 79.4973C221.704 80.3832 221.749 80.9388 222.362 81.4452ZM217.415 97.2207C217.741 97.4532 217.816 97.9058 217.584 98.2315C217.351 98.5572 216.899 98.6327 216.573 98.4001C215.286 97.4813 215.08 96.1143 215.926 94.5828C216.778 93.0392 218.021 92.5049 219.398 93.2099C219.754 93.3923 219.895 93.8289 219.713 94.1851C219.531 94.5414 219.094 94.6823 218.738 94.5C218.127 94.1874 217.698 94.3719 217.195 95.2834C216.685 96.2071 216.768 96.7583 217.415 97.2207ZM192.133 193.697C191.499 196.641 191.091 198.534 190.909 199.377L236.05 208.234L237.308 203.178L192.133 193.697ZM178.471 196.936L189.443 199.089L190.675 193.391L147.632 184.356L146.458 189.88L178.471 196.936ZM191.077 191.533L203.882 132.324L160.276 124.87L147.935 182.93L191.077 191.533ZM177.183 153.171C178.326 153.723 179.316 154.576 179.708 155.355C180.756 157.44 180.826 159.905 179.275 162.785C178.31 164.578 176.265 165.251 173.919 164.872C171.831 164.534 169.807 163.397 168.857 161.962C167.907 160.527 168.065 158.64 169.051 156.752C169.903 155.123 171.308 153.653 172.667 152.978C173.204 152.711 173.778 152.569 174.37 152.54L172.79 149.27C172.616 148.909 172.767 148.476 173.127 148.302C173.488 148.128 173.921 148.279 174.095 148.639L175.299 151.131L175.682 148.709C175.745 148.313 176.116 148.044 176.512 148.106C176.907 148.169 177.177 148.54 177.114 148.935L176.698 151.561L178.713 149.381C178.985 149.088 179.443 149.07 179.737 149.341C180.031 149.613 180.049 150.071 179.777 150.365L177.183 153.171ZM176.397 154.404C175.284 153.908 174.19 153.839 173.312 154.275C172.243 154.807 171.052 156.052 170.336 157.423C169.569 158.89 169.457 160.242 170.065 161.162C170.772 162.23 172.435 163.164 174.15 163.441C175.947 163.732 177.372 163.263 177.999 162.098C179.314 159.656 179.259 157.687 178.413 156.006C178.167 155.516 177.34 154.824 176.397 154.404ZM211.245 192.683C211.385 192.308 211.803 192.118 212.178 192.258C212.552 192.399 212.742 192.816 212.602 193.191C212.048 194.671 210.781 195.224 209.082 194.804C207.371 194.38 206.533 193.318 206.858 191.805C206.941 191.414 207.327 191.165 207.718 191.249C208.109 191.333 208.359 191.718 208.275 192.109C208.131 192.78 208.42 193.147 209.431 193.397C210.455 193.651 210.966 193.428 211.245 192.683ZM220.705 195.209C220.846 194.834 221.263 194.644 221.638 194.784C222.013 194.925 222.203 195.342 222.063 195.717C221.508 197.197 220.241 197.75 218.543 197.33C216.831 196.906 215.994 195.844 216.318 194.331C216.402 193.94 216.787 193.691 217.179 193.775C217.57 193.859 217.819 194.244 217.735 194.635C217.591 195.306 217.88 195.673 218.891 195.923C219.916 196.177 220.426 195.954 220.705 195.209Z" fill="white"/>
<path fill-rule="evenodd" clip-rule="evenodd" d="M223.269 179.417L222.375 178.023L201.68 148.195L204.748 131.736L203.305 130.857L205.813 108.918C205.98 107.461 207.151 106.323 208.612 106.199L234.956 103.959V142.113L257.14 155.104L259.705 149.418C265.379 152.46 269.463 154.223 271.959 154.706C273.986 155.098 276.815 155.83 281.172 155.83C281.897 155.83 283 155.742 284.482 155.567L284.148 159.874L303.513 163.555C306.848 164.188 309.567 166.6 310.594 169.835L325.934 218.151C327.205 222.156 324.989 226.434 320.984 227.705C319.654 228.128 318.234 228.176 316.878 227.845L253.146 212.295L246.357 198.081C244.983 195.203 242.873 192.739 240.241 190.938L224.291 180.025C223.96 179.798 223.619 179.596 223.269 179.417ZM270.472 186.52C270.079 186.442 269.698 186.698 269.62 187.09C269.542 187.483 269.797 187.864 270.19 187.942L284.219 190.724C284.769 190.833 285.229 190.303 285.044 189.774L280.336 176.273C280.205 175.895 279.791 175.696 279.414 175.827C279.036 175.959 278.836 176.372 278.968 176.75L283.259 189.056L270.472 186.52Z" fill="#FF4E00"/>
</svg>
