<svg width="433" height="353" fill="none" xmlns="http://www.w3.org/2000/svg"><path d="M321.104 86.992L307.28 129.47l-26.055-14.606c-5.766-3.23-9.011-.677-7.216 5.682l15.6 55.252-33.051 16.939c-4.744 2.434-4.744 6.41 0 8.843l33.057 16.939-15.6 55.252c-1.794 6.36 1.45 8.912 7.217 5.682l26.048-14.612 13.824 42.483c2.598 7.99 6.852 7.99 9.456 0l13.824-42.477 26.055 14.606c5.767 3.23 9.011.678 7.216-5.682l-15.6-55.252 33.057-16.939c4.744-2.433 4.744-6.409 0-8.843l-33.057-16.939 15.6-55.252c1.795-6.359-1.449-8.912-7.216-5.682l-26.055 14.606-13.824-42.477c-2.598-7.99-6.852-7.99-9.456 0z" fill="#171717"/><path d="M268.193 72H13.067C5.85 72 0 77.85 0 85.067V290.35c0 7.217 5.85 13.067 13.067 13.067h255.126c7.217 0 13.067-5.85 13.067-13.067V85.067c0-7.217-5.85-13.067-13.067-13.067z" fill="#fff"/><path d="M35.765 97.232v6.436l5.912-3.4 5.9-3.413-5.9-3.414-5.912-3.413v6.436l-5.242-3.023-5.912-3.413v13.64l5.912-3.4 5.242-3.036zm236.109 22.661c-.67 0-2.084-.098-1.84.073h.243c-.061.097-.426.146-.609.195-.927 0-.427-.183-.61-.256-1.535-.073-.134.402-1.535.39l-.183-.085c-.671.109-1.719.122-1.902.365-.622-.256-1.597.11-2.267 0-.134-.572 2.438 0 3.181-.268-.731-.122.427-.28.732-.414l-2.328.256a1.78 1.78 0 00-1.28-.159h.182c-.926 0-.682.305-1.474.22-.122 0 .121-.147.182-.183-.743 0-.609.134-1.109.183-.731 0 .366-.232-.244-.293a6.933 6.933 0 01-2.084 0c.305.329-2.95.451-1.353.744l-1.768.219c-.56-.17 1.219-.463.732-.731h1.414c-.244-.415-2.962.268-3.901-.195a8.878 8.878 0 01-1.999-.159l.244.366c-.744-.085-.975-.28-1.012-.354h-1.219c.167-.07.344-.111.524-.121-.56-.195-.719-.122-.914 0a5.352 5.352 0 01-1.219.073l.427-.134c-.293 0-.634.061-.671.134h-.548c.332.207.707.336 1.097.378a41.471 41.471 0 01-4.535-.366c0-.11.671-.232.476-.256-.732 0-1.536.134-1.463.292h-.402a1.227 1.227 0 00-.671-.195 1.298 1.298 0 00-.463-.073c-.244.281-1.658.147-1.962.268a8.55 8.55 0 001.219 0 2.754 2.754 0 01-1.585.256c1.097-.182-1.219-.304.488-.377-1.219-.366-.61.256-1.841.134l-.804-.147c.121-.207 1.292-.109 1.109-.182h-.549c.549-.159 2.633 0 3.925-.293l-2.584-.122c-3.255.256-7.314 0-10.056.427h.109s-.073.061-.109.134h-.122l-.549.158a26.274 26.274 0 00-2.767-.39c.622.122.622.122.683.281.061.158-.219.304-1.146.219 0-.146.561-.146-.122-.256.354.073 0 .171-.353.195-.354.024-1.39-.122-1.402-.268.198-.033.4-.033.597 0 .244 0-.975-.134-.268-.256h-.926c-.549-.122.353-.195.146-.268-1.56.097-2.365.439-3.779.536a.648.648 0 00.073-.317c-1.085-.097-2.328.366-3.559.39a4.197 4.197 0 011.012-.097c-3.779-.134-6.875-.134-10.422-.451l-.914.341-.927-.232c-3.73-.219-6.594 0-10.142.11-1.109 0-.658-.244-1.218-.341-2.438 0-3.011.353-5.327.426.317-.109.865-.402-.134-.414a1.22 1.22 0 01-.939.195l.317-.11a18.652 18.652 0 00-2.316-.073c-1.959.01-3.911.223-5.827.634-1.852 0 .195-.378-.158-.451 1.316.134.914 0 1.219-.171a3.349 3.349 0 01-1.889-.097c-.788-.01-1.575.047-2.353.171.475-.086.89-.001.439.158-.78-.085-2.792 0-2.682-.293h-14.627c-.829.159.621 0 .17.171-1.219.207-.95-.11-1.913 0l.402-.158a33.958 33.958 0 00-4.34.438c.232-.195-1.133-.158 0-.268-.67 0-1.499-.816-2.023-.646l.768.793c0 .073-.987 0-.89.073a9.344 9.344 0 00-1.731-.329c-.195-.208.829-.159 1.39-.159.085-.329-1.89-.207-1.073-.512-1.219 0 .171.171-.561.293l-1.048-.073.817.109a6.164 6.164 0 01-2.353.171l-1.219.317c-.122-.256-.89 0-1.511-.11l.39-.158a7.713 7.713 0 01-1.682-.134c.475-.232.755 0 .963-.171l-.915-.073c0 .146-.585.268.074.353a7.9 7.9 0 01-3.438.488c-.963-.256 1.036-.232.634-.476-2.206-.109-2.706.659-3.986.634a26.398 26.398 0 00-3.23.147c.536-.171-1.219-.183-1.475-.354l.67-.183c-.512.061-.999 0-.853-.134.098.232-2.157.22-3.315.329l.207.195c-1.028.111-2.062.16-3.096.147a7.453 7.453 0 00-2.194.463c-.598-.183-.537-.402-.342-.622.55.069 1.104.106 1.658.11a31.322 31.322 0 014.973-.5c.768-.487-1.219.061-2.084-.11h.158-.219c.646 0 1.694-.134 1.865-.39-1.073 0-.78.488-2.109.281a8.906 8.906 0 01-2.438-.281 3.87 3.87 0 01-2.304.5l.707-.28c-1.84 0-.865.402-2.559.39.597 0-.573.268.56.28-.898.145-1.812.174-2.718.085-.244 0 0 .098-.097.183 1.023.195 1.621-.183 2.437.098l.707-.293c.951.098 1.049.342.476.451.23-.03.464-.03.695 0 .158.439-1.146-.158-1.475.22h.67c.293.292-1.56.256-2.438.231-.877-.024-1.865-.183-1.938-.39l1.317-.085c-.814-.05-1.63-.021-2.438.085a.677.677 0 00-.22 0 1.48 1.48 0 01-.426-.085c-.671 0-1.658.11-2.28 0l.086.183.073-.11c.621 0 1.45.122.987.268a2.603 2.603 0 01-1.987-.39c.317-.292 1.341 0 2.048-.097-.427-.281-1.402 0-2.84-.22.573-.305 1.658 0 1.975-.28-1.146 0-1.451.171-2.658.097.146-.146 1.329-.158 1.219-.341l-.658-.073c1.914 0-.329-.378 1.158-.451-.707-.122-.987.256-1.987.061.28.134 1.085.378.122.487l-1.085-.085c-.451-.146 1.134-.329.427-.451l-1.134.098c0 .097.585.146.244.268-.658-.098-1.073.353-1.841.487a3.749 3.749 0 01-1.316-.134c-1.548.281-3.511.268-4.937.524.975-.182 0-.316-.622-.451 1.122 0 1.134-.329 1.061-.512-.683 0-1.134.33-.792.427-1.134-.122-.78.195-1.78 0-.646-.097.317-.28.097-.39-1.218 0-.329.354-1.67.28.074 0 .195 0 .098-.097a3.362 3.362 0 00-1.658.207c-.768-.366-2.157 0-2.011-.317-1.743.098.256.195-.085.329a8.808 8.808 0 01-2.438 0 8.55 8.55 0 011.219 0l-.366-.256c-2.17-.182-1.377.573-3.462.354 1.073-.134.354-.183.89-.366-.33 0-1.963 0-.975.183-.78 0-1.329 0-1.877-.11a10.58 10.58 0 00-1.853.329 12.29 12.29 0 01-2.438-.317c-2.316.183-4.45-.121-6.887.074h.17c-1.889 0 .842.341-1.12.329.255-.317-1.22-.208-1.817-.378-2.438-.159-4.169.231-6.4 0 0-.073.171-.146.598-.159-1.695-.097-3.06 0-4.596 0h.073a53.33 53.33 0 00-7.228.122c.207 0 .268-.158.427-.195a16.2 16.2 0 00-4.23.171c-1.511-.305-1 .085-2.95-.207h.317c-.95-.11-1.633-.073-2.608-.11a25.76 25.76 0 01-5.169.475c-.122-.414 1.536-.097 1.585-.438a4.881 4.881 0 01-1.61 0c.415-.159.086-.098.379-.256a8.656 8.656 0 00-2.11.402c0 .073.147.122.647.11a24.539 24.539 0 01-3.657.121c.39 0 1.621.098 1.158.293a11.28 11.28 0 00-3.279.488c-1.5-.195 1.097-.354.817-.647-.256-.109-.854-.353-.22-.463a28.832 28.832 0 00-3.51.256v-.085a40.52 40.52 0 01-4.876.232l.744.097a8.494 8.494 0 00-1.573.195c0-.146-1.048-.268-.597-.378-.744.439-3.791.268-4.632.695-.439-.122-.085-.293 0-.402.649.12 1.314.12 1.962 0-.877 0-1.511-.11-1.377-.207-.878.28-2.974.39-3.413.658-.634-.134-1.219-.207-1.024-.439-2.694.146 1.329.707-1.707.707-1.39-.219 1.354-.305-.56-.378h.353c-1.377-.597-.963.427-2.535.402-.207-.329 1.097-.231 0-.463a22.49 22.49 0 01-3.486.463l.231-.146H4.327c0-.061.098 0 .269-.073-1.683-.122-.707.171-2.085 0l-.39.158a9.443 9.443 0 002.901.086c-.877.183 1.378.414.939.695l.17-.122c2.697.411 5.416.652 8.143.719 1.828-.329 3.12.134 5.083-.098.305-.378.366-.073 2.048-.146-.89 0-.098.28.463.329a6.107 6.107 0 011.134-.158c1.06.258 2.16.316 3.242.17 1.024.122-.244.122-.463.208.414.195.84-.159 1.219 0h-.134c1.572 0 2.51.085 4.144.134.146-.378 1.61-.147 2.34-.281-.231.122.915.146 1.378.207l.878-.268c.865-.243 1.218.159 2.328 0l-.268-.073a15.872 15.872 0 013.778.317c7.57-.731 11.702.402 19.674.207.524-.109-.378-.182 0-.353h1.731c-.646-.11-.548 0-.463-.085l-1.122.109s.061 0 0-.097a8.368 8.368 0 01-1.304.085 5.087 5.087 0 011.853-.256c-.146.045-.298.07-.451.073.47-.028.943-.028 1.414 0 .731 0 .548 0 .646.086l2.243.158a7.33 7.33 0 012.876 0c-.243.244-1.487.073-2.047.317l.816.183v-.207h1.158-.073a.678.678 0 01.573-.086s.17.086 0 .086l.83-.098c-.489.195.718 0 .596.293 2.694.109 3.426-.317 5.79 0-.377-.11.756-.366 1.475-.33.427.061.537.11.268.208l.951-.122c1.357.225 2.734.31 4.108.256l-.085.097a9.885 9.885 0 012.328-.183l-.183.208c1.219.146.914-.427 2.23-.293 0-.232-.84-.341-.962-.548.305.219 1.719.256 1.39.097 1.316-.097.914 0 1.023 0l.768-.134c.927 0 .293.28 0 .414a9.183 9.183 0 012.78 0l-.403.098h1.292a11.116 11.116 0 013.096-.098l-.755.293c.768.146.39-.098.597-.158a3.936 3.936 0 012.084.231c1.926-.305 3.828.476 5.473 0l.208.171c2.243-.366 4.875.158 6.606-.354 2.731.61 1.792-.548 4.291 0l-.085-.085c8.252.097 16.992.414 24.696.122v.122c12.421.207 24.513 0 36.824 0 1.146-.11.451-.378 1.438-.512.427 0 1.402 0 1.414.146-.841.073-.365.207-.658.268 1.47.086 2.943.086 4.413 0l-1.036-.195a11.083 11.083 0 011.67 0c-.183.098.451.305.073.354 2.608-.476 2.035.207 4.229 0 .427-.403 3.182-.744 4.986-1.036l.951.109c-1.219 0 0 .305-1.548.281 1.316.122 2.523-.061 3.754 0-.232-.11-.171-.244.317-.293.768 0 .829.268 1.694.293l-.853.122a4.729 4.729 0 001.609-.074c.171.171 1.463.208 1.219.39 1.158-.231 1.572-.097 2.828-.243-1.304-.183.341-.232.195-.366h-1.475c2.072.11-.67 0-.524.329-.975-.134 1.341-.488-.293-.439 1.951-.146 2.365 0 4.364-.256-1.219 0 .232-.195-.414-.28 1.536 0 .378.097.853.28.63.105 1.272.105 1.902 0 1.353.086-.196.22.487.329-.5.208-3.766-.243-3.389.403-.707 0-1.572.243-2.584.231 1.076.174 2.167.227 3.255.159v-.366c.829 0 .999-.256 1.609-.219-.317.097.256.256.926.219-.195 0-.463 0-.39-.097 1.219 0 1.414-.281 2.889-.342-1.219-.097-1.475-.207-2.608-.365.304-.256.804 0 1.474 0-.097 0-.243 0 0 .085l.72-.122c1.511.11-.195.366 1.06.488.866.219 1.219-.11 1.841 0l-.122-.074h.329a5.342 5.342 0 001.902-.207c.085.086.694 0 .963-.073a4.167 4.167 0 012.194 0c.999 0 1.779.134 1.572.232l1.609.073-.171.256a7.321 7.321 0 002.341-.463c1.218.106 2.444.082 3.657-.074.199.013.398.013.597 0l-.622-.097c1.158 0 1.012-.122 1.768-.122h.244-.244.731a1.09 1.09 0 01-.378 0l.147.073c.914.268 1.401-.146 2.437 0h-.353c.548 0 1.353.415 1.572.195.173.019.349-.001.512-.061h.415-.402c.255-.073.487-.158.524-.109h1.414c.307.036.618.036.926 0l.232.109c.524 0 .524 0 .463.073 1.792.354 2.767-.182 4.693.122.378-.17-.427-.244-.488-.341a16.508 16.508 0 011.963-.341c.853.231 3.498.438 3.071.78 1.597 0-.499-.207.305-.329h.183a4.227 4.227 0 01-1.292-.293c-.122-.183 1.292-.231 1.719-.183l-.305.256c1.463-.085 1.158-.475 2.072-.743 1.219.109.5.341.744.573h1.219v.195a10.04 10.04 0 012.084-.159c-.792.183 1.658.183.561.439.609 0 .792-.317 1.097-.061.426-.207-.549-.097-.853-.171-.256-.292 1.34-.146 2.084-.219.061.158-.5.183.378.293a1.72 1.72 0 011.219-.074c0-.195.975 0 1.475 0-.561 0-1.353-.182-1-.353a7.52 7.52 0 011.792-.085l-.683-.098c.854-.293 1.414.207 2.585.122-.411.062-.818.148-1.219.256.548-.098 1.596-.232 2.438-.329l.975.292c.122-.146 1.109 0 1.109-.183 1.219.122-.987.232-1.109.378 1.536.122 1.219-.329 2.706 0l-.488.183a8.953 8.953 0 011.536 0c0-.073-.256 0-.561 0 .305-.39 2.268-.268 2.085-.67h-.671c.847-.169 1.71-.239 2.572-.207.61.134-.439.28-.792.378.975 0 .792-.439 1.95-.403-.621-.219-.499-.365-.134-.475zm-48.16 1.219a.51.51 0 01.268.183 1.95 1.95 0 01-1.036-.22c.548-.292 3.413.183 2.864 0 1.219-.109.866 0 .963.11-1.255-.037-1.95.061-3.059-.037v-.036zm12.64 0h-.171c.403 0 .634-.037.171.097v-.097zm13.067-1.463h.159-.159zm-3.524-26.939c.268 0-.073.427 0 .512l.098-.085c-.147.427.207.427.244.72v-.086a.387.387 0 01.231 0s-.219.183-.134.195a.459.459 0 01.085-.146c-.097.39.256.621.366.975.39.243.549.768.902 1.011 0 0 .207-.243.183-.158-.293.487.232.097 0 .463.305 0 .134.549.597.415l-.109.121c0 .074.06 0 .097 0 0 .098.207 0 .195.159l.122-.122s-.073.11 0 .073h-.073l.17-.073c-.219.22.086.122 0 .256-.085.134.269 0 .305.122.037.122 0 .207 0 .317.17.09.317.22.427.378l.134-.134h-.061c-.134.182.134 0 .061.158.11-.146 0 0 0 0s.207-.207.171-.097h.097c-.11.121-.134.195-.244.304.147.098.427 0 .488.159-.134.11.122 0-.11.256.134 0 .171-.147.293-.256a.62.62 0 010 .122.255.255 0 01-.098.146h-.158.183v.122c0 .012-.464 0-.476.28.183.354-.292-.17-.183.098l-.061-.098c-.012.173.009.347.061.512-.256-.28 0 0-.182-.085l.097.11c-.085 0-.146 0-.219-.098l.097.17-.122-.109c-.061 0-.073.244-.329 0 0 .293-.207.439-.414.56a.187.187 0 010 .22l-.171-.097c0 .073.134.28 0 .231 0 0-.122 0 0 .183s-.158 0-.268-.122c.219.22-.122 0-.122 0s-2.645 1.597-1.987 3.291c.098.134.11.244.256.354.146.11-.195-.098-.097 0 .097.097.256.292.438.378v.061c.073.073 0-.134.086 0l-.195-.208a.311.311 0 01.195.086c-.061-.098-.317-.39-.134-.329l.195.121.146.074c-.098 0 0 .17 0 .134 0-.037-.061 0 0-.098.061-.097.122.073.183.134.097.086 0 0 .085.098v-.159c.256.232 0-.17.207 0 0 .098.086.074.147.159l.097-.122v-.024c0-.013.073-.086.22.073.146.158-.159-.22 0-.195.158.024 0 .073.097.134v-.098s.146.171.098.171c.304 0 .914.341.95 0 .134.085.061.097.122.183 0-.268.415.073.5 0l-.085-.098c.438.146.438-.207.719-.244h-.085c-.061-.109 0-.158-.061-.231-.061-.073.182.219.195.134a.314.314 0 01-.134-.085c.377.097.621-.256.962-.366.244-.39.768-.536 1.012-.902 0 0-.244-.195-.158-.183.487.293.097-.232.463 0 0-.305.561-.134.427-.597l.109.109c.073 0 0-.06 0-.097.11 0 .073-.207.159-.195l-.122-.122s.11.073.085 0l.061.073-.073-.171c.207.232.11-.085.244 0 .134.086 0-.268.122-.304.122-.037.207 0 .317 0l.219-.281.171-.158s.146-.207.256-.244c.109-.036-.159.195-.073.134.085-.061.207-.17.207 0 0 .171-.061 0 0 0s.134.073-.061.293c-.195.219-.11.097-.11.061-.183.097.085 0-.122.158.11-.11.146 0 .146 0l.122-.134c.464-.292-.256.244-.122.28.135.037 0-.061.135-.109.134-.049-.086.183 0 .17a1.102 1.102 0 01-.208.317c.086 0 0 .159.183 0 .183-.158-.195.098-.085-.158l.158-.122c0 .061.159 0 .147.122a.564.564 0 01.085-.098c.11 0 .268-.097.292 0 .025.098-.134.073-.17 0-.037-.073 0 0 0 .147 0 .146 0 0-.146 0h.097c.195-.171 0 .073.122 0 .122-.074.366-.134.573-.232a.446.446 0 01-.134.158c0-.097 0 0-.061 0s-.11.256-.195.317c-.086.061.073-.121.158-.146l.061.085c.085-.097.085-.146.195-.182.11-.037 0 0 .086.085.085.085-.135.158-.159.122-.024-.037 0 .097.122 0 .122-.098.146 0 .268-.183v.122h-.061.098c.024 0 0 .097 0 .146v.122c0 .122.097-.085.146-.122l.061.085a3.514 3.514 0 01-.329.317c.097 0 .244-.219.28-.17-.183.134-.073.17-.28.317-.207.146 0 .207 0 .207s0-.11.158-.244c.147 0 .5-.268.524-.134v-.061a.417.417 0 00.232-.085c-.171.146-.366.475-.256.512.11.036.11-.183.244-.293h.073-.061c.098 0-.122.293.073.122l-.183.28.086-.121c.085-.074.158-.001.195-.061.036-.061.097.061 0 .182 0-.073.17-.243.243-.219-.256.244 0 .183-.134.305s0 .122.074 0l-.159.158c.219-.219.268-.146.354-.134-.305.281.085 0-.171.317.207-.195.171 0 .341-.158.171-.159-.134.207-.195.28h.098c-.086.11 0 .195 0 .292l.207-.134-.061.098s.11 0 .158-.122c.195-.183.074 0 .195-.061a.197.197 0 01-.097.098s-.098.121-.146.195c-.049.073.426-.281.451-.415.024-.134.17-.11.158-.061l-.171.195.208-.158c.061 0 0 .122 0 .17 0 .049-.39.281-.317.342.073.061-.171 0-.232.085s0 0-.097.098c.109 0 .134-.086.207 0-.159.158-.195.219-.207.317l.085-.147s0-.061.073-.122.256-.134.171 0c.195-.304.28-.097.39-.28.11-.183.097 0 0 .073-.098.073-.146.207-.256.305-.11.097.073-.146.158-.183.086-.037 0 .134-.073.195v.122c.086-.073.098-.183.171-.183.073 0 0 0 0 .098 0 .097-.244.243-.305.243s.134.086.244-.097c0-.085.122-.256.195-.22l.158-.073v.098s.086-.073.098 0c.012.073 0 .085-.11.146-.11.061.122 0 .183-.085l-.097.134c-.098.134.097.097 0 .207-.098.11 0 0 .146-.122-.232.317.061.268.17.305.22-.256 0 0 .281-.207-.098 0-.11.268-.244.256h.061c-.098.158-.171 0-.305.244 0 0 .354-.183.317 0-.036.182.098 0-.097.158s-.073 0-.098 0c0 .158.232-.171.39-.232.159-.061-.073.183-.158.269-.086.085 0 0 .097 0-.134 0 0-.183.159-.269-.159.22.085.11.17 0 .11-.292 0-.073.086-.378-.073 0-.244.232-.22.11.025-.122.086-.097.11-.134.024-.036-.073 0-.134 0-.061 0 .256-.195.244-.28l-.244.219c0-.061.183-.158.085-.146.146-.098.183-.195.281-.183.134-.268-.22 0-.354 0h.073-.122c-.036 0 .134-.085.195-.158h-.061s-.085 0 0 0c.089-.052.175-.109.256-.171l-.219.097c.073-.073.073-.182.171-.195h-.11l.146-.158a.081.081 0 00-.031.006.07.07 0 00-.025.02.069.069 0 00-.015.028.065.065 0 00-.002.031c0-.073-.414.134-.085-.158h-.342c.22-.073.11-.256.244-.256h-.207a.642.642 0 01.305-.268h-.232c0-.122.159-.159.134-.22l-.146.134v-.109c0 .073-.098.085-.134 0h.097c.122 0 0 0 .122-.134.122-.135 0 0-.097 0l-.086.097c-.146 0 .135-.134.098-.195l-.11.11c.11-.256-.231 0-.17-.195s.182-.134.146-.098c-.037.037-.134-.122-.317 0a.679.679 0 00.207-.353l-.17.073c0-.098-.135-.073 0-.195-.11.085 0 0-.11 0v-.061l-.11.122c.183-.317-.244 0-.085-.256l.146-.134-.097-.147-.061.11s-.159.073-.122 0c.036-.073 0 0 .085-.183h.073l-.158.086c-.159.085.17-.244 0-.171 0 .073-.159.146-.183.122-.025-.025 0-.085.073-.085s-.073-.11-.134-.086a.281.281 0 01.134-.134h-.183.061-.097l.085-.171-.061.098h-.098l.11-.073c-.122 0 .073-.244-.134-.183h.073c-.207.073.122-.219-.122-.097l.098-.098h-.098l.134-.122-.207.159.11-.147h-.073c.207-.268 0-.134.122-.353l-.159.158c-.426.22-.061-.426-.341-.414l.122-.122-.195.085c.061-.122.122-.085.17-.158.049-.073-.207.158-.304.134-.098-.024.097-.085.158-.11.061-.024-.28 0-.256-.146-.097 0-.097-.11-.158-.146-.061-.037.085 0 .109 0 .025 0 0-.086-.073 0l.134-.086c0-.06-.183 0-.061-.158.122-.159-.146.134-.17.097.17-.207-.159 0-.11-.158.049-.159.098 0 .085 0h-.158l.073-.073h-.219c.17-.208-.135-.086 0-.208.134-.121 0 .11-.122.086-.122-.025-.086 0 0-.134l.146-.098a.672.672 0 00-.293.183c0-.097-.061-.085 0-.207-.061 0 0-.11 0-.195a1.213 1.213 0 010-.085l.074.097-.074-.11c.074 0 .147 0 .208.159l.195-.195s-.159-.207-.061-.195c.097.012 0 .06.109.134.305 0-.268-.585 0-.61v-.146c-.243-.207.098.146-.073 0-.17-.146-.061-.146-.195-.28.098 0 0-.086 0-.122 0-.037.134-.086.317 0 0-.086-.195-.293-.158-.342.036-.048.134.147.231.147l-.097-.11s.073 0 .122.073c.048.073-.11-.183 0-.17l.073.134c0-.074 0-.074.085-.11.085-.037 0 .073 0 .073.183.134 0-.122 0-.122a.429.429 0 01-.207-.146s-.085-.207.061-.098l.073.135c0-.135-.11-.159 0-.183-.098-.171.085-.098.146-.147.061-.048-.073-.134-.061-.134a.763.763 0 01-.219-.17c.219.134-.146-.28 0-.244.146.036.122.158 0 .11.137.151.256.32.353.5 0-.074 0-.135.061 0l-.17-.171s-.207-.147-.244-.256c-.037-.11.207.158.134.073-.073-.085-.158-.207 0-.207s0 .06 0 0c0-.061.073-.134.293.06.219.196.097.11.061.11.109.183 0-.085.17.122-.122-.11 0-.146 0-.146l-.134-.122c-.292-.463.244.256.28.122.037-.134-.06 0-.109-.134s.183.085.183 0c.11.054.213.124.304.207 0-.085.159 0 0-.183-.158-.183.098.195-.146.086l-.122-.159s0-.159.122-.146a.32.32 0 01-.097-.086c0-.11-.11-.268 0-.292.109-.025.085.134.06.17-.024.037 0 0 .159 0 .158 0 0 0 0 .147v-.098c-.183-.195.061 0 0-.122-.061-.121-.134-.365-.219-.56a.355.355 0 01.146.122c-.098 0 0 0 0 0s.244.11.305.207c0-.11-.122-.086-.147-.17l.086-.062c-.098-.085-.147-.085-.183-.195-.037-.11 0 0 .097-.085.098-.085.147.134.11.158-.037.025.097 0 0-.122-.098-.121 0-.146-.183-.268h.134v.061c.159.134 0-.073 0-.097 0-.025.098 0 .159 0h.122c.121 0-.098-.098-.135-.147h.086l.329.33c0-.098-.232-.244-.183-.28.134.182.171.072.329.28.159.207.195 0 .195 0s-.109 0-.231-.159c.061-.146-.281-.5-.147-.512a.45.45 0 00-.097-.232c.146.171.475.366.524.256.049-.11-.195-.11-.305-.243v-.073a.102.102 0 010 .073c0-.11.293.11.122-.086l.281.183-.122-.085c-.061-.085 0-.159-.061-.195-.061-.037.061-.098.183 0-.074 0-.232-.17-.22-.244.256.256.183 0 .317.134s.122 0 0-.073l.158.158c-.219-.219-.146-.268-.134-.353.281.305 0-.085.317.17-.195-.207 0-.17-.158-.34l.292.194-.061-.097c.11.085.196 0 .305 0l-.146-.207.097.06s0-.11-.121-.158c-.195-.195 0-.073-.074-.195a.218.218 0 01.11.098s.11.097.183.146c.073.049-.268-.427-.414-.451-.147-.025-.11-.17 0-.146l.182.158-.158-.207c0-.061.134 0 .171 0 .036 0 .28.39.341.317.061-.073.073.17.085.231.012.061 0 0 .098.098 0-.11-.086-.134-.061-.207.158.158.219.195.317.207l-.147-.086s-.061 0-.121-.073c-.061-.073-.135-.256 0-.17-.293-.195-.098-.28-.281-.39-.183-.11 0-.098.073 0 .073.097.208.146.317.256.11.11-.158-.073-.195-.159-.036-.085.134 0 .195.073h.11c-.073-.085-.171-.097-.183-.17-.012-.073 0 0 .11 0 .109 0 .244.243.231.304-.012.061.086-.134-.097-.243-.085 0-.256-.11-.22-.196l-.073-.158h.098s-.073-.085 0-.097c.073-.013.085 0 .146.11.061.109 0-.123-.085-.183-.086-.062.061 0 .134.097.073.097.097-.098.207 0 .11.097 0 0-.122-.146.317.231.268 0 .317-.171-.268-.22 0 0-.207-.28 0 .097.256.11.256.243v-.06c.158.097 0 .17.256.304 0 0-.195-.353 0-.317.195.037 0-.097.158.098.159.195 0 .073 0 .097.159 0-.158-.231-.219-.39-.061-.158.183.073.256.159.073.085 0 0 0-.098.061.134-.171 0-.268-.158.219.158.109-.086 0-.17-.293-.11-.073 0-.366-.086 0 .073.219.244.098.22-.122-.025-.098-.086-.135-.11-.036-.025 0 .073 0 .134 0 .06-.207-.256-.292-.244l.219.244s-.158-.183-.146-.086c-.097-.146-.195-.183-.183-.28-.268-.134 0 .22 0 .353v-.073.122c0 .037-.073-.134-.146-.195l-.061.073s0 .086 0 0l-.183-.256.098.232c-.061-.086-.183-.085-.195-.183v.11l-.171-.147s0 .086.085.074c.086-.013.134.414-.158.085.061.195 0 .17 0 .341-.073-.22-.256-.11-.256-.244s.061.147 0 .208a.573.573 0 01-.256-.305v.231c-.11 0-.159-.158-.22-.134l.135.147h-.11c.073 0 .085.097.073.134v.06c-.061-.121-.061 0-.146-.121-.086-.122 0 0-.061.097l.109.086c0 .146-.146-.134-.207-.098l.11.11c-.256-.11 0 .231-.195.17-.195-.06-.134-.182-.098-.146.037.037-.109.134 0 .317-.17-.146-.219-.183-.341-.207-.122-.024 0 0 0 .17 0 .171-.073.135-.195 0 .085.11 0 0 0 .11l.11.11c-.305-.183 0 .244-.244.085v.073l-.122-.146-.146.098h.11s.073.158 0 .122c-.074-.037 0 0-.183-.086v-.073l.085.159c.085.158-.232-.171-.158 0 .073 0 .134.158.109.183-.024.024-.085 0-.085-.074 0-.073-.098.074-.073.134a.265.265 0 01-.146-.134c0 .171-.061 0 0 .183l-.061-.06v.097l-.171-.086.097.061v.098l-.085-.11c0 .122-.244-.073-.183.134v-.073c.086.207-.207-.122-.097.122 0 0-.073 0-.098-.098v.098l-.122-.134.159.207-.146-.11v.074c-.269-.208-.135 0-.354-.122l.159.158c.219.427-.427.061-.415.341l-.122-.121.098.195c-.134 0-.098-.122-.171-.171-.073-.049.171.207.134.305-.036.097-.085-.098-.11-.159-.024-.06 0 .28-.146.256 0 .098-.097.098-.134.159-.037.06 0-.086 0-.11 0-.024-.085 0 0 .073l-.097-.134c-.061 0 0 .183-.159 0-.158-.183.146.146.11.17-.207-.17 0 .16-.159.11-.158-.048 0-.097 0-.085v.159l-.073-.074v.22c-.207-.17-.073.134-.207 0s.122 0 .085.122c-.036.122 0 .085-.134 0l-.097-.147a.693.693 0 00.195.305h-.22c0 .134-.475-.195-.341.073l-.073-.11v.232h-.061c-.085 0-.134.147-.195.232 0 .183-.134 0-.134.146v-.073c.097.17-.293-.061-.146 0a.777.777 0 00.134.268c0 .073-.098 0-.183-.073-.086-.073 0 .146-.061.146h-.061v.134c.073.195-.256-.11 0 .208-.073 0-.085 0-.207-.061a1.72 1.72 0 010 .365h-.086l.086-.134c-.073 0-.073.11-.147.159-.073.048-.195 0-.158 0-.085 0 .085-.208 0-.232-.085-.024-.073 0-.244.146-.097 0 .11-.146.11-.183 0-.036-.122 0 0-.158-.305.244 0-.232-.268 0l.085-.17s-.207.194-.268.194c.063-.1.137-.194.219-.28l-.256.22c.073-.427-.317-.488-.292-.878-.134 0-.354 0-.415-.159v-.158.17h-.122c-.012 0 0-.463-.28-.475-.353.183.171-.292-.098-.183l.098-.073a1.424 1.424 0 00-.512.073c.28-.256-.061 0 .085-.183l-.109.098c0-.085 0-.158.097-.22l-.17.086.109-.11c0-.06-.244-.085 0-.329-.292 0-.439-.22-.56-.414a.173.173 0 01-.208 0l.086-.171c-.073 0-.281.134-.232 0-.061 0 0-.11-.183 0s0-.159.122-.268c-.219.207 0-.122 0-.122s-1.597-2.657-3.291-1.987a1.016 1.016 0 00-.354.256c-.085 0 .098-.207 0-.097-.097.11-.292.255-.377.438h-.061c-.074 0 .134 0 0 .086l.207-.195a.325.325 0 01-.086.195c.098 0 .391-.317.33-.135 0 0-.098.159-.122.208l-.061.134c0-.098-.183 0-.147 0 .037 0 .001-.061.098 0 .098.06-.073.122-.134.183-.085.085 0 0-.098.073h.159c-.232.244.171 0 0 .195-.098 0-.073.085-.159.158l.122.086h-.073.098c.012 0 .085.085-.073.231-.159.147.219-.17.195 0-.025.17-.074 0-.135.098h.098s-.171.134-.171.097c0 .305-.341.902 0 .951-.219.232-.219.159-.329.207zm8.643 8.07h.121c-.012 0-.158.109-.109 0h-.012zm-.305.219v-.085h.122l-.268.207.146-.122zm-.597-5.497h.061a.247.247 0 01-.135.085.489.489 0 00.086-.085h-.012zm-3.023 2.645h-.074.074zm-69.32 72.685h-36.106v36.105h36.106v-36.105zm-101.088 0H44.102v36.105h36.105v-36.105zm50.549 0H94.65v36.105h36.106v-36.105zm-50.549 46.895H44.102v36.105h36.105v-36.105zm50.549 0H94.65v36.105h36.106v-36.105zm50.539 0h-36.106v36.105h36.106v-36.105z" fill="#FF4E00"/></svg>