<svg width="433" height="353" viewBox="0 0 433 353" fill="none" xmlns="http://www.w3.org/2000/svg">
<path d="M321.104 86.9923L307.28 129.469L281.225 114.863C275.459 111.633 272.214 114.186 274.009 120.545L289.609 175.797L256.558 192.736C251.814 195.17 251.814 199.146 256.558 201.579L289.615 218.518L274.015 273.77C272.221 280.13 275.465 282.682 281.232 279.452L307.28 264.84L321.104 307.323C323.702 315.313 327.956 315.313 330.56 307.323L344.384 264.846L370.439 279.452C376.206 282.682 379.45 280.13 377.655 273.77L362.055 218.518L395.112 201.579C399.856 199.146 399.856 195.17 395.112 192.736L362.055 175.797L377.655 120.545C379.45 114.186 376.206 111.633 370.439 114.863L344.384 129.469L330.56 86.9923C327.962 79.0024 323.708 79.0024 321.104 86.9923Z" fill="#171717"/>
<path d="M268.193 72H13.0671C5.85035 72 0 77.8503 0 85.0671V290.35C0 297.567 5.85035 303.417 13.0671 303.417H268.193C275.41 303.417 281.26 297.567 281.26 290.35V85.0671C281.26 77.8503 275.41 72 268.193 72Z" fill="white"/>
<path d="M35.7647 97.2323V103.668L41.6766 100.268L47.5763 96.8545L41.6766 93.4414L35.7647 90.0283V96.4644L30.5232 93.4414L24.6113 90.0283V96.8545V103.668L30.5232 100.268L35.7647 97.2323Z" fill="#FF4E00"/>
<path d="M271.874 119.893C271.204 119.893 269.79 119.795 270.034 119.966H270.277C270.216 120.063 269.851 120.112 269.668 120.161C268.741 120.161 269.241 119.978 269.058 119.905C267.523 119.832 268.924 120.307 267.523 120.295L267.34 120.21C266.669 120.319 265.621 120.332 265.438 120.575C264.816 120.319 263.841 120.685 263.171 120.575C263.037 120.003 265.609 120.575 266.352 120.307C265.621 120.185 266.779 120.027 267.084 119.893L264.756 120.149C264.364 119.938 263.907 119.881 263.476 119.99H263.658C262.732 119.99 262.976 120.295 262.184 120.21C262.062 120.21 262.305 120.063 262.366 120.027C261.623 120.027 261.757 120.161 261.257 120.21C260.526 120.21 261.623 119.978 261.013 119.917C260.323 120.022 259.62 120.022 258.929 119.917C259.234 120.246 255.979 120.368 257.576 120.661L255.808 120.88C255.248 120.71 257.027 120.417 256.54 120.149H257.954C257.71 119.734 254.992 120.417 254.053 119.954C253.383 119.977 252.712 119.923 252.054 119.795L252.298 120.161C251.554 120.076 251.323 119.881 251.286 119.807C250.847 119.807 250.457 119.807 250.067 119.807C250.234 119.737 250.411 119.696 250.591 119.686C250.031 119.491 249.872 119.564 249.677 119.686C249.275 119.757 248.866 119.781 248.458 119.759L248.885 119.625C248.592 119.625 248.251 119.686 248.214 119.759H247.666C247.998 119.966 248.373 120.095 248.763 120.137C247.246 120.098 245.732 119.976 244.228 119.771C244.228 119.661 244.899 119.539 244.704 119.515C243.972 119.515 243.168 119.649 243.241 119.807H242.839C242.639 119.678 242.406 119.611 242.168 119.612C242.02 119.56 241.863 119.535 241.705 119.539C241.461 119.82 240.047 119.686 239.743 119.807C240.149 119.836 240.556 119.836 240.962 119.807C240.47 120.048 239.919 120.137 239.377 120.063C240.474 119.881 238.158 119.759 239.865 119.686C238.646 119.32 239.255 119.942 238.024 119.82L237.22 119.673C237.341 119.466 238.512 119.564 238.329 119.491H237.78C238.329 119.332 240.413 119.491 241.705 119.198L239.121 119.076C235.866 119.332 231.807 119.076 229.065 119.503H229.174C229.174 119.503 229.101 119.564 229.065 119.637H228.943L228.394 119.795C227.48 119.616 226.556 119.486 225.627 119.405C226.249 119.527 226.249 119.527 226.31 119.686C226.371 119.844 226.091 119.99 225.164 119.905C225.164 119.759 225.725 119.759 225.042 119.649C225.396 119.722 225.042 119.82 224.689 119.844C224.335 119.868 223.299 119.722 223.287 119.576C223.485 119.543 223.687 119.543 223.884 119.576C224.128 119.576 222.909 119.442 223.616 119.32H222.69C222.141 119.198 223.043 119.125 222.836 119.052C221.276 119.149 220.471 119.491 219.057 119.588C219.108 119.49 219.133 119.381 219.13 119.271C218.045 119.174 216.802 119.637 215.571 119.661C215.903 119.588 216.243 119.555 216.583 119.564C212.804 119.43 209.708 119.43 206.161 119.113L205.247 119.454L204.32 119.222C200.59 119.003 197.726 119.222 194.178 119.332C193.069 119.332 193.52 119.088 192.96 118.991C190.522 118.991 189.949 119.344 187.633 119.417C187.95 119.308 188.498 119.015 187.499 119.003C187.363 119.097 187.211 119.163 187.049 119.197C186.888 119.23 186.722 119.231 186.56 119.198L186.877 119.088C186.107 119.016 185.334 118.991 184.561 119.015C182.602 119.025 180.65 119.238 178.734 119.649C176.882 119.649 178.929 119.271 178.576 119.198C179.892 119.332 179.49 119.198 179.795 119.027C179.169 119.177 178.513 119.143 177.906 118.93C177.118 118.92 176.331 118.977 175.553 119.101C176.028 119.015 176.443 119.1 175.992 119.259C175.212 119.174 173.2 119.259 173.31 118.966C168.739 118.966 163.559 118.966 158.683 118.966C157.854 119.125 159.304 118.966 158.853 119.137C157.634 119.344 157.903 119.027 156.94 119.137L157.342 118.979C155.887 119.032 154.438 119.178 153.002 119.417C153.234 119.222 151.869 119.259 153.002 119.149C152.332 119.149 151.503 118.333 150.979 118.503L151.747 119.296C151.747 119.369 150.76 119.296 150.857 119.369C150.292 119.205 149.712 119.095 149.126 119.04C148.931 118.832 149.955 118.881 150.516 118.881C150.601 118.552 148.626 118.674 149.443 118.369C148.224 118.369 149.614 118.54 148.882 118.662L147.834 118.589L148.651 118.698C147.885 118.906 147.086 118.964 146.298 118.869L145.079 119.186C144.957 118.93 144.189 119.186 143.568 119.076L143.958 118.918C143.394 118.935 142.83 118.89 142.276 118.784C142.751 118.552 143.031 118.784 143.239 118.613L142.324 118.54C142.324 118.686 141.739 118.808 142.398 118.893C141.302 119.309 140.128 119.475 138.96 119.381C137.997 119.125 139.996 119.149 139.594 118.905C137.388 118.796 136.888 119.564 135.608 119.539C134.529 119.522 133.451 119.571 132.378 119.686C132.914 119.515 131.159 119.503 130.903 119.332L131.573 119.149C131.061 119.21 130.574 119.149 130.72 119.015C130.818 119.247 128.563 119.235 127.405 119.344L127.612 119.539C126.584 119.65 125.55 119.699 124.516 119.686C123.765 119.729 123.025 119.885 122.322 120.149C121.724 119.966 121.785 119.747 121.98 119.527C122.53 119.596 123.084 119.633 123.638 119.637C125.28 119.338 126.943 119.171 128.611 119.137C129.379 118.65 127.392 119.198 126.527 119.027C126.527 119.027 126.624 119.027 126.685 119.027H126.466C127.112 119.027 128.16 118.893 128.331 118.637C127.258 118.637 127.551 119.125 126.222 118.918C125.4 118.937 124.58 118.843 123.784 118.637C123.087 119.039 122.282 119.214 121.48 119.137L122.187 118.857C120.347 118.857 121.322 119.259 119.628 119.247C120.225 119.247 119.055 119.515 120.188 119.527C119.29 119.672 118.376 119.701 117.47 119.612C117.226 119.612 117.47 119.71 117.373 119.795C118.396 119.99 118.994 119.612 119.81 119.893L120.517 119.6C121.468 119.698 121.566 119.942 120.993 120.051C121.223 120.021 121.457 120.021 121.688 120.051C121.846 120.49 120.542 119.893 120.213 120.271H120.883C121.176 120.563 119.323 120.527 118.445 120.502C117.568 120.478 116.58 120.319 116.507 120.112L117.824 120.027C117.01 119.977 116.194 120.006 115.386 120.112C115.313 120.1 115.239 120.1 115.166 120.112C115.021 120.105 114.877 120.076 114.74 120.027C114.069 120.027 113.082 120.137 112.46 120.027L112.546 120.21L112.619 120.1C113.24 120.1 114.069 120.222 113.606 120.368C113.266 120.439 112.914 120.441 112.573 120.374C112.232 120.307 111.908 120.172 111.619 119.978C111.936 119.686 112.96 119.978 113.667 119.881C113.24 119.6 112.265 119.881 110.827 119.661C111.4 119.356 112.485 119.661 112.802 119.381C111.656 119.381 111.351 119.552 110.144 119.478C110.29 119.332 111.473 119.32 111.363 119.137L110.705 119.064C112.619 119.064 110.376 118.686 111.863 118.613C111.156 118.491 110.876 118.869 109.876 118.674C110.156 118.808 110.961 119.052 109.998 119.161L108.913 119.076C108.462 118.93 110.047 118.747 109.34 118.625L108.206 118.723C108.206 118.82 108.791 118.869 108.45 118.991C107.792 118.893 107.377 119.344 106.609 119.478C106.166 119.512 105.72 119.466 105.293 119.344C103.745 119.625 101.782 119.612 100.356 119.868C101.331 119.686 100.356 119.552 99.7344 119.417C100.856 119.417 100.868 119.088 100.795 118.905C100.112 118.905 99.6613 119.235 100.003 119.332C98.869 119.21 99.2225 119.527 98.2229 119.332C97.5769 119.235 98.5398 119.052 98.3204 118.942C97.1015 118.942 97.9913 119.296 96.6505 119.222C96.7236 119.222 96.8455 119.222 96.748 119.125C96.1868 119.053 95.6166 119.125 95.0902 119.332C94.3223 118.966 92.9327 119.332 93.0789 119.015C91.3359 119.113 93.3349 119.21 92.9936 119.344C92.1849 119.457 91.3644 119.457 90.5557 119.344C90.9615 119.315 91.3689 119.315 91.7747 119.344L91.409 119.088C89.2393 118.906 90.0316 119.661 87.9472 119.442C89.0199 119.308 88.3007 119.259 88.837 119.076C88.5079 119.076 86.8745 119.076 87.8619 119.259C87.0817 119.259 86.5332 119.259 85.9847 119.149C85.3585 119.203 84.7384 119.314 84.1319 119.478C83.3108 119.454 82.4941 119.348 81.694 119.161C79.378 119.344 77.2448 119.04 74.8069 119.235H74.9776C73.0882 119.235 75.8187 119.576 73.8562 119.564C74.1121 119.247 72.6372 119.356 72.0399 119.186C69.602 119.027 67.8711 119.417 65.6404 119.186C65.6404 119.113 65.8111 119.04 66.2377 119.027C64.5434 118.93 63.1782 119.027 61.6423 119.027H61.7154C59.306 118.904 56.891 118.945 54.4871 119.149C54.6943 119.149 54.7552 118.991 54.9137 118.954C53.5024 118.826 52.0804 118.883 50.684 119.125C49.1725 118.82 49.6844 119.21 47.7341 118.918C47.6244 118.918 47.9292 118.918 48.051 118.918C47.1003 118.808 46.4177 118.845 45.4425 118.808C43.7401 119.14 42.0085 119.299 40.2742 119.283C40.1523 118.869 41.81 119.186 41.8588 118.845C41.3262 118.934 40.7824 118.934 40.2498 118.845C40.6642 118.686 40.3351 118.747 40.6276 118.589C39.9108 118.635 39.2024 118.77 38.5189 118.991C38.5189 119.064 38.6651 119.113 39.1649 119.101C37.9507 119.232 36.7283 119.273 35.5081 119.222C35.8981 119.222 37.1293 119.32 36.6661 119.515C35.555 119.515 34.4501 119.68 33.3871 120.003C31.8878 119.808 34.4842 119.649 34.2038 119.356C33.9478 119.247 33.3505 119.003 33.9844 118.893C32.8101 118.907 31.6377 118.992 30.4738 119.149V119.064C28.8547 119.239 27.2265 119.317 25.598 119.296L26.3416 119.393C25.8125 119.409 25.2861 119.474 24.7691 119.588C24.7691 119.442 23.7208 119.32 24.1719 119.21C23.4283 119.649 20.3809 119.478 19.5399 119.905C19.101 119.783 19.4545 119.612 19.5399 119.503C20.1885 119.623 20.8537 119.623 21.5024 119.503C20.6247 119.503 19.9909 119.393 20.125 119.296C19.2473 119.576 17.1507 119.686 16.7119 119.954C16.078 119.82 15.493 119.747 15.688 119.515C12.9941 119.661 17.0166 120.222 13.9815 120.222C12.5919 120.003 15.3345 119.917 13.4207 119.844H13.7742C12.3968 119.247 12.8113 120.271 11.2388 120.246C11.0316 119.917 12.3359 120.015 11.2388 119.783C10.0906 120.028 8.92497 120.183 7.75263 120.246L7.98424 120.1C7.07003 120.1 5.29036 120.1 4.3274 120.1C4.3274 120.039 4.4249 120.1 4.59556 120.027C2.91341 119.905 3.88857 120.198 2.51116 120.027L2.12109 120.185C3.07796 120.363 4.05654 120.392 5.02219 120.271C4.14455 120.454 6.3996 120.685 5.96078 120.966L6.13143 120.844C8.82766 121.255 11.5473 121.496 14.274 121.563C16.1024 121.234 17.3945 121.697 19.357 121.465C19.6617 121.087 19.7227 121.392 21.4048 121.319C20.515 121.319 21.3073 121.599 21.868 121.648C22.2402 121.56 22.6197 121.507 23.0017 121.49C24.0625 121.748 25.1621 121.806 26.2441 121.66C27.268 121.782 26.0003 121.782 25.7809 121.868C26.1953 122.063 26.6219 121.709 26.9998 121.868C26.9998 121.868 26.9998 121.868 26.8657 121.868C28.4382 121.868 29.3768 121.953 31.0102 122.002C31.1564 121.624 32.6192 121.855 33.3505 121.721C33.1189 121.843 34.2647 121.867 34.7279 121.928L35.6056 121.66C36.471 121.417 36.8245 121.819 37.9338 121.66L37.6656 121.587C38.9333 121.541 40.202 121.648 41.4443 121.904C49.014 121.173 53.1462 122.306 61.1182 122.111C61.6423 122.002 60.7403 121.929 61.1182 121.758C61.9349 121.758 62.1177 121.758 62.8491 121.758C62.203 121.648 62.3005 121.758 62.3859 121.673L61.2644 121.782C61.2644 121.782 61.3254 121.782 61.2644 121.685C60.8326 121.747 60.3965 121.776 59.9602 121.77C60.5565 121.571 61.1848 121.484 61.813 121.514C61.6668 121.559 61.515 121.584 61.3619 121.587C61.8329 121.559 62.305 121.559 62.7759 121.587C63.5073 121.587 63.3245 121.587 63.422 121.673L65.6648 121.831C66.6143 121.641 67.5921 121.641 68.5415 121.831C68.2978 122.075 67.0544 121.904 66.4937 122.148L67.3104 122.331V122.124H68.4684H68.3953C68.4787 122.068 68.5732 122.032 68.6722 122.017C68.7712 122.002 68.8723 122.01 68.9682 122.038C68.9682 122.038 69.1388 122.124 68.9682 122.124L69.7971 122.026C69.3095 122.221 70.5162 122.026 70.3943 122.319C73.0882 122.428 73.8196 122.002 76.1843 122.319C75.8065 122.209 76.9401 121.953 77.6593 121.989C78.0859 122.05 78.1956 122.099 77.9274 122.197L78.8782 122.075C80.2352 122.3 81.6116 122.385 82.9861 122.331L82.9007 122.428C83.6668 122.275 84.4484 122.214 85.2289 122.245L85.0461 122.453C86.265 122.599 85.9603 122.026 87.2768 122.16C87.2768 121.928 86.4357 121.819 86.3138 121.612C86.6185 121.831 88.0325 121.868 87.7034 121.709C89.0199 121.612 88.6176 121.709 88.7273 121.709L89.4953 121.575C90.4217 121.575 89.7878 121.855 89.4953 121.989C90.4163 121.848 91.3534 121.848 92.2745 121.989L91.8722 122.087H93.1643C94.1867 121.91 95.2289 121.877 96.2604 121.989L95.5047 122.282C96.2726 122.428 95.8947 122.184 96.102 122.124C96.8049 122.011 97.5251 122.091 98.1863 122.355C100.112 122.05 102.014 122.831 103.659 122.355L103.867 122.526C106.11 122.16 108.742 122.684 110.473 122.172C113.204 122.782 112.265 121.624 114.764 122.172L114.679 122.087C122.931 122.184 131.671 122.501 139.375 122.209V122.331C151.796 122.538 163.888 122.331 176.199 122.331C177.345 122.221 176.65 121.953 177.637 121.819C178.064 121.819 179.039 121.819 179.051 121.965C178.21 122.038 178.686 122.172 178.393 122.233C179.863 122.319 181.336 122.319 182.806 122.233L181.77 122.038C182.325 121.996 182.884 121.996 183.44 122.038C183.257 122.136 183.891 122.343 183.513 122.392C186.121 121.916 185.548 122.599 187.742 122.392C188.169 121.989 190.924 121.648 192.728 121.356L193.679 121.465C192.46 121.465 193.679 121.77 192.131 121.746C193.447 121.868 194.654 121.685 195.885 121.746C195.653 121.636 195.714 121.502 196.202 121.453C196.97 121.453 197.031 121.721 197.896 121.746L197.043 121.868C197.58 121.935 198.124 121.911 198.652 121.794C198.823 121.965 200.115 122.002 199.871 122.184C201.029 121.953 201.443 122.087 202.699 121.941C201.395 121.758 203.04 121.709 202.894 121.575H201.419C203.491 121.685 200.749 121.575 200.895 121.904C199.92 121.77 202.236 121.416 200.602 121.465C202.553 121.319 202.967 121.465 204.966 121.209C203.747 121.209 205.198 121.014 204.552 120.929C206.088 120.929 204.93 121.026 205.405 121.209C206.035 121.314 206.677 121.314 207.307 121.209C208.66 121.295 207.111 121.429 207.794 121.538C207.294 121.746 204.028 121.295 204.405 121.941C203.698 121.941 202.833 122.184 201.821 122.172C202.897 122.346 203.988 122.399 205.076 122.331V121.965C205.905 121.965 206.075 121.709 206.685 121.746C206.368 121.843 206.941 122.002 207.611 121.965C207.416 121.965 207.148 121.965 207.221 121.868C208.44 121.868 208.635 121.587 210.11 121.526C208.891 121.429 208.635 121.319 207.502 121.161C207.806 120.905 208.306 121.161 208.976 121.161C208.879 121.161 208.733 121.161 208.976 121.246L209.696 121.124C211.207 121.234 209.501 121.49 210.756 121.612C211.622 121.831 211.975 121.502 212.597 121.612L212.475 121.538H212.804C213.445 121.584 214.089 121.514 214.706 121.331C214.791 121.417 215.4 121.331 215.669 121.258C216.387 121.062 217.144 121.062 217.863 121.258C218.862 121.258 219.642 121.392 219.435 121.49L221.044 121.563L220.873 121.819C221.674 121.794 222.464 121.637 223.214 121.356C224.432 121.462 225.658 121.438 226.871 121.282C227.07 121.295 227.269 121.295 227.468 121.282L226.846 121.185C228.004 121.185 227.858 121.063 228.614 121.063C228.455 121.063 228.443 121.063 228.858 121.063H228.614H228.918H229.345C229.22 121.085 229.092 121.085 228.967 121.063L229.114 121.136C230.028 121.404 230.515 120.99 231.551 121.136H231.198C231.746 121.136 232.551 121.551 232.77 121.331C232.943 121.35 233.119 121.33 233.282 121.27H233.697H233.295C233.55 121.197 233.782 121.112 233.819 121.161H235.233C235.54 121.197 235.851 121.197 236.159 121.161L236.391 121.27C236.915 121.27 236.915 121.27 236.854 121.343C238.646 121.697 239.621 121.161 241.547 121.465C241.925 121.295 241.12 121.221 241.059 121.124C241.706 120.971 242.361 120.857 243.022 120.783C243.875 121.014 246.52 121.221 246.093 121.563C247.69 121.563 245.594 121.356 246.398 121.234H246.581C246.138 121.205 245.702 121.106 245.289 120.941C245.167 120.758 246.581 120.71 247.008 120.758L246.703 121.014C248.166 120.929 247.861 120.539 248.775 120.271C249.994 120.38 249.275 120.612 249.519 120.844H250.738V121.039C251.425 120.914 252.124 120.86 252.822 120.88C252.03 121.063 254.48 121.063 253.383 121.319C253.992 121.319 254.175 121.002 254.48 121.258C254.906 121.051 253.931 121.161 253.627 121.087C253.371 120.795 254.967 120.941 255.711 120.868C255.772 121.026 255.211 121.051 256.089 121.161C256.472 120.988 256.906 120.962 257.308 121.087C257.308 120.892 258.283 121.087 258.783 121.087C258.222 121.087 257.43 120.905 257.783 120.734C258.375 120.634 258.976 120.606 259.575 120.649L258.892 120.551C259.746 120.258 260.306 120.758 261.477 120.673C261.066 120.735 260.659 120.821 260.258 120.929C260.806 120.831 261.854 120.697 262.696 120.6L263.671 120.892C263.793 120.746 264.78 120.892 264.78 120.709C265.999 120.831 263.793 120.941 263.671 121.087C265.207 121.209 264.89 120.758 266.377 121.087L265.889 121.27C266.4 121.226 266.914 121.226 267.425 121.27C267.425 121.197 267.169 121.27 266.864 121.27C267.169 120.88 269.132 121.002 268.949 120.6H268.278C269.125 120.431 269.988 120.361 270.85 120.393C271.46 120.527 270.411 120.673 270.058 120.771C271.033 120.771 270.85 120.332 272.008 120.368C271.387 120.149 271.509 120.003 271.874 119.893ZM223.714 121.112C223.82 121.142 223.915 121.206 223.982 121.295C223.623 121.318 223.264 121.243 222.946 121.075C223.494 120.783 226.359 121.258 225.81 121.075C227.029 120.966 226.676 121.075 226.773 121.185C225.518 121.148 224.823 121.246 223.714 121.148V121.112ZM236.354 121.112H236.183C236.586 121.112 236.817 121.075 236.354 121.209V121.112ZM249.421 119.649H249.58H249.421Z" fill="#FF4E00"/>
<path d="M245.897 92.7103C246.165 92.7103 245.824 93.1369 245.897 93.2222L245.995 93.1369C245.848 93.5635 246.202 93.5636 246.239 93.8561V93.7708C246.314 93.7473 246.395 93.7473 246.47 93.7708C246.47 93.7708 246.251 93.9536 246.336 93.9658C246.355 93.9121 246.384 93.8624 246.421 93.8195C246.324 94.2096 246.677 94.4412 246.787 94.7947C247.177 95.0385 247.336 95.5626 247.689 95.8064C247.689 95.8064 247.896 95.5626 247.872 95.6479C247.579 96.1355 248.104 95.7454 247.872 96.1111C248.177 96.1111 248.006 96.6597 248.469 96.5256L248.36 96.6475C248.36 96.7206 248.42 96.6475 248.457 96.6475C248.457 96.745 248.664 96.6475 248.652 96.8059L248.774 96.6841C248.774 96.6841 248.701 96.7938 248.774 96.7572H248.701L248.871 96.6841C248.652 96.9035 248.957 96.8059 248.871 96.94C248.786 97.0741 249.14 96.9401 249.176 97.0619C249.213 97.1838 249.176 97.2692 249.176 97.3789C249.346 97.4694 249.493 97.5989 249.603 97.7568L249.737 97.6226H249.676C249.542 97.8055 249.81 97.6226 249.737 97.7811C249.847 97.6348 249.737 97.7811 249.737 97.7811C249.737 97.7811 249.944 97.5739 249.908 97.6836H250.005C249.895 97.8055 249.871 97.8787 249.761 97.9884C249.908 98.0859 250.188 97.9884 250.249 98.1468C250.115 98.2565 250.371 98.1468 250.139 98.4028C250.273 98.4028 250.31 98.2565 250.432 98.1468C250.436 98.1873 250.436 98.2282 250.432 98.2687C250.418 98.3274 250.383 98.3792 250.334 98.415H250.176H250.359C250.359 98.415 250.359 98.5246 250.359 98.5368C250.359 98.549 249.895 98.5369 249.883 98.8172C250.066 99.1707 249.591 98.6465 249.7 98.9147L249.639 98.8172C249.627 98.9902 249.648 99.1639 249.7 99.3292C249.444 99.0488 249.7 99.3292 249.518 99.2438L249.615 99.3536C249.53 99.3536 249.469 99.3536 249.396 99.256L249.493 99.4267L249.371 99.317C249.31 99.317 249.298 99.5608 249.042 99.317C249.042 99.6095 248.835 99.7558 248.628 99.8777C248.651 99.9094 248.664 99.9478 248.664 99.9874C248.664 100.027 248.651 100.065 248.628 100.097L248.457 99.9996C248.457 100.073 248.591 100.28 248.457 100.231C248.457 100.231 248.335 100.231 248.457 100.414C248.579 100.597 248.299 100.414 248.189 100.292C248.408 100.512 248.067 100.292 248.067 100.292C248.067 100.292 245.422 101.889 246.08 103.583C246.178 103.717 246.19 103.827 246.336 103.937C246.482 104.047 246.141 103.839 246.239 103.937C246.336 104.034 246.495 104.229 246.677 104.315V104.376C246.75 104.449 246.677 104.242 246.763 104.376L246.568 104.168C246.641 104.173 246.71 104.203 246.763 104.254C246.702 104.156 246.446 103.864 246.629 103.925C246.629 103.925 246.787 104.022 246.824 104.046L246.97 104.12C246.872 104.12 246.97 104.29 246.97 104.254C246.97 104.217 246.909 104.254 246.97 104.156C247.031 104.059 247.092 104.229 247.153 104.29C247.25 104.376 247.153 104.29 247.238 104.388V104.229C247.494 104.461 247.238 104.059 247.445 104.229C247.445 104.327 247.531 104.303 247.592 104.388L247.689 104.266C247.689 104.266 247.689 104.363 247.689 104.339C247.689 104.315 247.689 104.254 247.689 104.242C247.689 104.229 247.762 104.156 247.909 104.315C248.055 104.473 247.75 104.095 247.909 104.12C248.067 104.144 247.909 104.193 248.006 104.254V104.156C248.006 104.156 248.152 104.327 248.104 104.327C248.408 104.327 249.018 104.668 249.054 104.327C249.188 104.412 249.115 104.424 249.176 104.51C249.176 104.242 249.591 104.583 249.676 104.51L249.591 104.412C250.029 104.558 250.029 104.205 250.31 104.168H250.225C250.164 104.059 250.225 104.01 250.164 103.937C250.103 103.864 250.346 104.156 250.359 104.071C250.307 104.054 250.261 104.025 250.225 103.986C250.602 104.083 250.846 103.73 251.187 103.62C251.431 103.23 251.955 103.084 252.199 102.718C252.199 102.718 251.955 102.523 252.041 102.535C252.528 102.828 252.138 102.303 252.504 102.535C252.504 102.23 253.065 102.401 252.931 101.938L253.04 102.047C253.113 102.047 253.04 101.987 253.04 101.95C253.15 101.95 253.113 101.743 253.199 101.755L253.077 101.633C253.077 101.633 253.187 101.706 253.162 101.633L253.223 101.706L253.15 101.535C253.357 101.767 253.26 101.45 253.394 101.535C253.528 101.621 253.394 101.267 253.516 101.231C253.638 101.194 253.723 101.231 253.833 101.231L254.052 100.95L254.223 100.792C254.223 100.792 254.369 100.585 254.479 100.548C254.588 100.512 254.32 100.743 254.406 100.682C254.491 100.621 254.613 100.512 254.613 100.682C254.613 100.853 254.552 100.682 254.613 100.682C254.674 100.682 254.747 100.755 254.552 100.975C254.357 101.194 254.442 101.072 254.442 101.036C254.259 101.133 254.527 101.036 254.32 101.194C254.43 101.084 254.466 101.194 254.466 101.194L254.588 101.06C255.052 100.768 254.332 101.304 254.466 101.34C254.601 101.377 254.466 101.279 254.601 101.231C254.735 101.182 254.515 101.414 254.601 101.401C254.55 101.518 254.48 101.626 254.393 101.718C254.479 101.718 254.393 101.877 254.576 101.718C254.759 101.56 254.381 101.816 254.491 101.56L254.649 101.438C254.649 101.499 254.808 101.438 254.796 101.56C254.82 101.524 254.849 101.492 254.881 101.462C254.991 101.462 255.149 101.365 255.173 101.462C255.198 101.56 255.039 101.535 255.003 101.462C254.966 101.389 255.003 101.462 255.003 101.609C255.003 101.755 255.003 101.609 254.857 101.609H254.954C255.149 101.438 254.954 101.682 255.076 101.609C255.198 101.535 255.442 101.475 255.649 101.377C255.617 101.44 255.571 101.494 255.515 101.535C255.515 101.438 255.515 101.535 255.454 101.535C255.393 101.535 255.344 101.791 255.259 101.852C255.173 101.913 255.332 101.731 255.417 101.706L255.478 101.791C255.563 101.694 255.563 101.645 255.673 101.609C255.783 101.572 255.673 101.609 255.759 101.694C255.844 101.779 255.624 101.852 255.6 101.816C255.576 101.779 255.6 101.913 255.722 101.816C255.844 101.718 255.868 101.816 255.99 101.633V101.755C255.99 101.755 255.917 101.755 255.929 101.755C255.941 101.755 256.002 101.755 256.027 101.755C256.051 101.755 256.027 101.852 256.027 101.901C256.027 101.95 256.027 101.901 256.027 102.023C256.027 102.145 256.124 101.938 256.173 101.901L256.234 101.986C256.131 102.099 256.021 102.205 255.905 102.303C256.002 102.303 256.149 102.084 256.185 102.133C256.002 102.267 256.112 102.303 255.905 102.45C255.698 102.596 255.905 102.657 255.905 102.657C255.905 102.657 255.905 102.547 256.063 102.413C256.21 102.413 256.563 102.145 256.587 102.279V102.218C256.671 102.214 256.752 102.184 256.819 102.133C256.648 102.279 256.453 102.608 256.563 102.645C256.673 102.681 256.673 102.462 256.807 102.352H256.88H256.819C256.917 102.352 256.697 102.645 256.892 102.474L256.709 102.754L256.795 102.633C256.88 102.559 256.953 102.632 256.99 102.572C257.026 102.511 257.087 102.633 256.99 102.754C256.99 102.681 257.16 102.511 257.233 102.535C256.977 102.779 257.233 102.718 257.099 102.84C256.965 102.962 257.099 102.962 257.173 102.84L257.014 102.998C257.233 102.779 257.282 102.852 257.368 102.864C257.063 103.145 257.453 102.864 257.197 103.181C257.404 102.986 257.368 103.181 257.538 103.023C257.709 102.864 257.404 103.23 257.343 103.303H257.441C257.355 103.413 257.441 103.498 257.441 103.595L257.648 103.461L257.587 103.559C257.587 103.559 257.697 103.559 257.745 103.437C257.94 103.254 257.819 103.437 257.94 103.376C257.921 103.419 257.886 103.454 257.843 103.474C257.843 103.474 257.745 103.595 257.697 103.669C257.648 103.742 258.123 103.388 258.148 103.254C258.172 103.12 258.318 103.144 258.306 103.193L258.135 103.388L258.343 103.23C258.404 103.23 258.343 103.352 258.343 103.4C258.343 103.449 257.953 103.681 258.026 103.742C258.099 103.803 257.855 103.742 257.794 103.827C257.733 103.912 257.794 103.827 257.697 103.925C257.806 103.925 257.831 103.839 257.904 103.925C257.745 104.083 257.709 104.144 257.697 104.242L257.782 104.095C257.782 104.095 257.782 104.034 257.855 103.973C257.928 103.912 258.111 103.839 258.026 103.973C258.221 103.669 258.306 103.876 258.416 103.693C258.526 103.51 258.513 103.693 258.416 103.766C258.318 103.839 258.27 103.973 258.16 104.071C258.05 104.168 258.233 103.925 258.318 103.888C258.404 103.851 258.318 104.022 258.245 104.083V104.205C258.331 104.132 258.343 104.022 258.416 104.022C258.489 104.022 258.416 104.022 258.416 104.12C258.416 104.217 258.172 104.363 258.111 104.363C258.05 104.363 258.245 104.449 258.355 104.266C258.355 104.181 258.477 104.01 258.55 104.046L258.708 103.973V104.071C258.708 104.071 258.794 103.998 258.806 104.071C258.818 104.144 258.806 104.156 258.696 104.217C258.586 104.278 258.818 104.217 258.879 104.132C258.94 104.047 258.879 104.132 258.782 104.266C258.684 104.4 258.879 104.363 258.782 104.473C258.684 104.583 258.782 104.473 258.928 104.351C258.696 104.668 258.989 104.619 259.098 104.656C259.318 104.4 259.098 104.656 259.379 104.449C259.281 104.449 259.269 104.717 259.135 104.705H259.196C259.098 104.863 259.025 104.705 258.891 104.949C258.891 104.949 259.245 104.766 259.208 104.949C259.172 105.131 259.306 104.949 259.111 105.107C258.916 105.265 259.038 105.107 259.013 105.107C259.013 105.265 259.245 104.936 259.403 104.875C259.562 104.814 259.33 105.058 259.245 105.144C259.159 105.229 259.245 105.144 259.342 105.144C259.208 105.144 259.342 104.961 259.501 104.875C259.342 105.095 259.586 104.985 259.671 104.875C259.781 104.583 259.671 104.802 259.757 104.497C259.684 104.497 259.513 104.729 259.537 104.607C259.562 104.485 259.623 104.51 259.647 104.473C259.671 104.437 259.574 104.473 259.513 104.473C259.452 104.473 259.769 104.278 259.757 104.193L259.513 104.412C259.513 104.351 259.696 104.254 259.598 104.266C259.744 104.168 259.781 104.071 259.879 104.083C260.013 103.815 259.659 104.083 259.525 104.083H259.598C259.525 104.083 259.513 104.083 259.476 104.083C259.44 104.083 259.61 103.998 259.671 103.925H259.61C259.61 103.925 259.525 103.925 259.61 103.925C259.699 103.873 259.785 103.816 259.866 103.754L259.647 103.851C259.72 103.778 259.72 103.669 259.818 103.656H259.708L259.854 103.498C259.843 103.498 259.833 103.5 259.823 103.504C259.813 103.509 259.805 103.515 259.798 103.524C259.791 103.532 259.786 103.541 259.783 103.552C259.78 103.562 259.779 103.573 259.781 103.583C259.781 103.51 259.367 103.717 259.696 103.425C259.501 103.425 259.525 103.425 259.354 103.425C259.574 103.352 259.464 103.169 259.598 103.169C259.732 103.169 259.452 103.169 259.391 103.169C259.461 103.049 259.568 102.955 259.696 102.901H259.586H259.464C259.464 102.779 259.623 102.742 259.598 102.681L259.452 102.815V102.706C259.452 102.779 259.354 102.791 259.318 102.706H259.415C259.537 102.706 259.415 102.706 259.537 102.572C259.659 102.437 259.537 102.572 259.44 102.572L259.354 102.669C259.208 102.669 259.489 102.535 259.452 102.474L259.342 102.584C259.452 102.328 259.111 102.584 259.172 102.389C259.233 102.194 259.354 102.255 259.318 102.291C259.281 102.328 259.184 102.169 259.001 102.291C259.105 102.197 259.177 102.074 259.208 101.938C259.208 101.938 259.208 101.938 259.038 102.011C259.038 101.913 258.903 101.938 259.038 101.816C258.928 101.901 259.038 101.816 258.928 101.816V101.755L258.818 101.877C259.001 101.56 258.574 101.877 258.733 101.621L258.879 101.487L258.782 101.34L258.721 101.45C258.721 101.45 258.562 101.523 258.599 101.45C258.635 101.377 258.599 101.45 258.684 101.267H258.757C258.757 101.267 258.757 101.267 258.599 101.353C258.44 101.438 258.769 101.109 258.599 101.182C258.599 101.255 258.44 101.328 258.416 101.304C258.391 101.279 258.416 101.219 258.489 101.219C258.562 101.219 258.416 101.109 258.355 101.133C258.383 101.074 258.43 101.027 258.489 100.999C258.318 100.999 258.489 100.999 258.306 100.999H258.367H258.27L258.355 100.828L258.294 100.926H258.196L258.306 100.853C258.184 100.853 258.379 100.609 258.172 100.67C258.172 100.67 258.233 100.67 258.245 100.67C258.038 100.743 258.367 100.451 258.123 100.573L258.221 100.475H258.123L258.257 100.353L258.05 100.512L258.16 100.365H258.087C258.294 100.097 258.087 100.231 258.209 100.012L258.05 100.17C257.624 100.39 257.989 99.7436 257.709 99.7558L257.831 99.6339L257.636 99.7192C257.697 99.5973 257.758 99.6339 257.806 99.5608C257.855 99.4876 257.599 99.7192 257.502 99.6948C257.404 99.6705 257.599 99.6096 257.66 99.5852C257.721 99.5608 257.38 99.5852 257.404 99.4389C257.307 99.4389 257.307 99.3292 257.246 99.2926C257.185 99.2561 257.331 99.2926 257.355 99.2926C257.38 99.2926 257.355 99.2073 257.282 99.2926L257.416 99.2073C257.416 99.1464 257.233 99.2073 257.355 99.0488C257.477 98.8904 257.209 99.1829 257.185 99.1463C257.355 98.9391 257.026 99.1464 257.075 98.9879C257.124 98.8294 257.173 98.9879 257.16 98.9879C257.148 98.9879 257.075 98.9879 257.002 98.9879L257.075 98.9147H256.856C257.026 98.7075 256.721 98.8294 256.856 98.7075C256.99 98.5856 256.856 98.8172 256.734 98.7928C256.612 98.7685 256.648 98.7928 256.734 98.6588L256.88 98.5612C256.768 98.5956 256.667 98.6587 256.587 98.7441C256.587 98.6466 256.526 98.6587 256.587 98.5368C256.526 98.5368 256.587 98.4272 256.587 98.3418C256.586 98.3134 256.586 98.2849 256.587 98.2565C256.587 98.2565 256.587 98.2565 256.661 98.354L256.587 98.2443C256.661 98.2443 256.734 98.2443 256.795 98.4028L256.99 98.2078C256.99 98.2078 256.831 98.0005 256.929 98.0127C257.026 98.0249 256.929 98.0737 257.038 98.1468C257.343 98.1468 256.77 97.5617 257.038 97.5374C257.038 97.4642 257.038 97.4276 257.038 97.391C256.795 97.1838 257.136 97.5373 256.965 97.391C256.795 97.2447 256.904 97.2448 256.77 97.1107C256.868 97.1107 256.77 97.0254 256.77 96.9888C256.77 96.9522 256.904 96.9035 257.087 96.9888C257.087 96.9035 256.892 96.6962 256.929 96.6475C256.965 96.5987 257.063 96.7937 257.16 96.7937L257.063 96.6841C257.063 96.6841 257.136 96.6841 257.185 96.7572C257.233 96.8303 257.075 96.5743 257.185 96.5865L257.258 96.7206C257.258 96.6475 257.258 96.6475 257.343 96.6109C257.428 96.5744 257.343 96.6841 257.343 96.6841C257.526 96.8182 257.343 96.5621 257.343 96.5621C257.261 96.5355 257.189 96.4845 257.136 96.4159C257.136 96.4159 257.051 96.2087 257.197 96.3184L257.27 96.4525C257.27 96.3184 257.16 96.294 257.27 96.2696C257.172 96.0989 257.355 96.1721 257.416 96.1233C257.477 96.0746 257.343 95.9893 257.355 95.9893C257.272 95.9462 257.198 95.8884 257.136 95.8186C257.355 95.9527 256.99 95.5382 257.136 95.5748C257.282 95.6114 257.258 95.7333 257.136 95.6845C257.273 95.8365 257.392 96.0043 257.489 96.1843C257.489 96.1111 257.489 96.0502 257.55 96.1843L257.38 96.0137C257.38 96.0137 257.173 95.8674 257.136 95.7577C257.099 95.648 257.343 95.9161 257.27 95.8308C257.197 95.7455 257.112 95.6236 257.27 95.6236C257.428 95.6236 257.27 95.6845 257.27 95.6236C257.27 95.5626 257.343 95.4895 257.563 95.6845C257.782 95.8796 257.66 95.7942 257.624 95.7942C257.733 95.977 257.624 95.7089 257.794 95.9161C257.672 95.8064 257.794 95.7699 257.794 95.7699L257.66 95.6479C257.368 95.1847 257.904 95.9039 257.94 95.7699C257.977 95.6358 257.88 95.7699 257.831 95.6358C257.782 95.5017 258.014 95.7211 258.014 95.6358C258.124 95.6901 258.227 95.7599 258.318 95.843C258.318 95.7577 258.477 95.843 258.318 95.6601C258.16 95.4773 258.416 95.8552 258.172 95.7455L258.05 95.587C258.05 95.587 258.05 95.4285 258.172 95.4407C258.134 95.419 258.101 95.39 258.075 95.3554C258.075 95.2457 257.965 95.0872 258.075 95.0629C258.184 95.0385 258.16 95.197 258.135 95.2335C258.111 95.2701 258.135 95.2335 258.294 95.2335C258.452 95.2335 258.294 95.2335 258.294 95.3798V95.2823C258.111 95.0872 258.355 95.2823 258.294 95.1604C258.233 95.0385 258.16 94.7947 258.075 94.5996C258.134 94.6261 258.184 94.6683 258.221 94.7216C258.123 94.7216 258.221 94.7216 258.221 94.7216C258.221 94.7216 258.465 94.8313 258.526 94.9288C258.526 94.8191 258.404 94.8434 258.379 94.7581L258.465 94.6972C258.367 94.6119 258.318 94.6118 258.282 94.5021C258.245 94.3924 258.282 94.5022 258.379 94.4169C258.477 94.3315 258.526 94.5509 258.489 94.5752C258.452 94.5996 258.586 94.5753 258.489 94.4534C258.391 94.3315 258.489 94.3071 258.306 94.1852H258.44C258.44 94.1852 258.44 94.2584 258.44 94.2462C258.599 94.3803 258.44 94.173 258.44 94.1486C258.44 94.1243 258.538 94.1486 258.599 94.1486C258.66 94.1486 258.599 94.1486 258.721 94.1486C258.842 94.1486 258.623 94.0511 258.586 94.0024H258.672L259.001 94.3315C259.001 94.234 258.769 94.0877 258.818 94.0511C258.952 94.2339 258.989 94.1243 259.147 94.3315C259.306 94.5387 259.342 94.3315 259.342 94.3315C259.342 94.3315 259.233 94.3315 259.111 94.173C259.172 94.0268 258.83 93.6732 258.964 93.661C258.954 93.5762 258.921 93.4958 258.867 93.4294C259.013 93.6001 259.342 93.7951 259.391 93.6854C259.44 93.5757 259.196 93.5757 259.086 93.4416V93.3685C259.095 93.3922 259.095 93.418 259.086 93.4416C259.086 93.3319 259.379 93.5513 259.208 93.3563L259.489 93.5392L259.367 93.4538C259.306 93.3685 259.367 93.2954 259.306 93.2588C259.245 93.2223 259.367 93.1613 259.489 93.2588C259.415 93.2588 259.257 93.0882 259.269 93.015C259.525 93.271 259.452 93.015 259.586 93.1491C259.72 93.2832 259.708 93.1491 259.586 93.076L259.744 93.2344C259.525 93.015 259.598 92.9663 259.61 92.881C259.891 93.1857 259.61 92.7956 259.927 93.0516C259.732 92.8443 259.927 92.8809 259.769 92.7103C259.769 92.7103 259.988 92.8565 260.061 92.9053L260 92.8078C260.11 92.8932 260.196 92.8078 260.305 92.8078L260.159 92.6006L260.256 92.6616C260.256 92.6616 260.256 92.5519 260.135 92.5031C259.94 92.3081 260.135 92.4299 260.061 92.308C260.108 92.327 260.147 92.3614 260.171 92.4056C260.171 92.4056 260.281 92.5031 260.354 92.5518C260.427 92.6006 260.086 92.1252 259.94 92.1008C259.793 92.0764 259.83 91.9302 259.94 91.9546L260.122 92.113L259.964 91.9057C259.964 91.8448 260.098 91.9057 260.135 91.9057C260.171 91.9057 260.415 92.2958 260.476 92.2227C260.537 92.1495 260.549 92.3933 260.561 92.4543C260.573 92.5152 260.561 92.4543 260.659 92.5518C260.659 92.4421 260.573 92.4178 260.598 92.3446C260.756 92.5031 260.817 92.5396 260.915 92.5518L260.768 92.4665C260.768 92.4665 260.707 92.4665 260.647 92.3934C260.586 92.3202 260.512 92.1374 260.647 92.2227C260.354 92.0277 260.549 91.9423 260.366 91.8326C260.183 91.7229 260.366 91.7351 260.439 91.8326C260.512 91.9301 260.647 91.9789 260.756 92.0886C260.866 92.1983 260.598 92.0155 260.561 91.9302C260.525 91.8448 260.695 91.9301 260.756 92.0033H260.866C260.793 91.918 260.695 91.9058 260.683 91.8326C260.671 91.7595 260.683 91.8326 260.793 91.8326C260.902 91.8326 261.037 92.0764 261.024 92.1374C261.012 92.1983 261.11 92.0033 260.927 91.8936C260.842 91.8936 260.671 91.7839 260.707 91.6985L260.634 91.5401H260.732C260.732 91.5401 260.659 91.4548 260.732 91.4426C260.805 91.4304 260.817 91.4426 260.878 91.5523C260.939 91.662 260.878 91.4304 260.793 91.3695C260.707 91.3085 260.854 91.3694 260.927 91.4669C261 91.5645 261.024 91.3694 261.134 91.4669C261.244 91.5645 261.134 91.467 261.012 91.3207C261.329 91.5523 261.28 91.3207 261.329 91.15C261.061 90.9306 261.329 91.15 261.122 90.8697C261.122 90.9672 261.378 90.9794 261.378 91.1135V91.0525C261.536 91.1501 261.378 91.2232 261.634 91.3573C261.634 91.3573 261.439 91.0038 261.634 91.0403C261.829 91.0769 261.634 90.9428 261.792 91.1379C261.951 91.3329 261.792 91.211 261.792 91.2353C261.951 91.2353 261.634 91.0037 261.573 90.8453C261.512 90.6868 261.756 90.9184 261.829 91.0037C261.902 91.0891 261.829 91.0038 261.829 90.9063C261.89 91.0404 261.658 90.9063 261.561 90.7478C261.78 90.9063 261.67 90.6625 261.561 90.5771C261.268 90.4674 261.488 90.5771 261.195 90.4918C261.195 90.5649 261.414 90.7356 261.293 90.7112C261.171 90.6868 261.195 90.6259 261.158 90.6015C261.122 90.5772 261.158 90.6747 261.158 90.7356C261.158 90.7966 260.951 90.4796 260.866 90.4918L261.085 90.7356C261.085 90.7356 260.927 90.5528 260.939 90.6503C260.842 90.504 260.744 90.4675 260.756 90.3699C260.488 90.2359 260.756 90.5893 260.756 90.7234V90.6503C260.756 90.7234 260.756 90.7356 260.756 90.7721C260.756 90.8087 260.683 90.6381 260.61 90.5771L260.549 90.6503C260.549 90.6503 260.549 90.7356 260.549 90.6503L260.366 90.3943L260.464 90.6259C260.403 90.5405 260.281 90.5406 260.269 90.4431V90.5527L260.098 90.4065C260.098 90.4065 260.098 90.4918 260.183 90.4796C260.269 90.4674 260.317 90.8941 260.025 90.5649C260.086 90.76 260.025 90.7356 260.025 90.9063C259.952 90.6869 259.769 90.7966 259.769 90.6625C259.769 90.5284 259.83 90.8087 259.769 90.8697C259.65 90.8019 259.559 90.6938 259.513 90.5649V90.6747V90.7965C259.403 90.7965 259.354 90.6381 259.293 90.6625L259.428 90.8087H259.318C259.391 90.8087 259.403 90.9062 259.391 90.9428V91.0037C259.33 90.8818 259.33 91.0038 259.245 90.8819C259.159 90.76 259.245 90.8819 259.184 90.9794L259.293 91.0647C259.293 91.211 259.147 90.9306 259.086 90.9672L259.196 91.0769C258.94 90.9672 259.196 91.3085 259.001 91.2475C258.806 91.1866 258.867 91.0647 258.903 91.1013C258.94 91.1378 258.794 91.2354 258.903 91.4182C258.733 91.2719 258.684 91.2354 258.562 91.211C258.44 91.1866 258.562 91.211 258.562 91.3816C258.562 91.5523 258.489 91.5157 258.367 91.3816C258.452 91.4913 258.367 91.3816 258.367 91.4913L258.477 91.601C258.172 91.4182 258.477 91.8448 258.233 91.6863V91.7595L258.111 91.6132L257.965 91.7107H258.075C258.075 91.7107 258.148 91.8692 258.075 91.8326C258.001 91.796 258.075 91.8327 257.892 91.7474V91.6742C257.892 91.6742 257.892 91.6742 257.977 91.8326C258.062 91.9911 257.745 91.662 257.819 91.8326C257.892 91.8326 257.953 91.9911 257.928 92.0155C257.904 92.0399 257.843 92.0155 257.843 91.9424C257.843 91.8692 257.745 92.0155 257.77 92.0764C257.706 92.0521 257.653 92.0041 257.624 91.9424C257.624 92.113 257.563 91.9424 257.624 92.1252L257.563 92.0642V92.1618L257.392 92.0764L257.489 92.1374V92.2349L257.404 92.1252C257.404 92.2471 257.16 92.0521 257.221 92.2593C257.221 92.2593 257.221 92.1983 257.221 92.1862C257.307 92.3934 257.014 92.0642 257.124 92.308C257.124 92.308 257.051 92.308 257.026 92.2105V92.308L256.904 92.174L257.063 92.3812L256.917 92.2715V92.3446C256.648 92.1374 256.782 92.3446 256.563 92.2227L256.722 92.3812C256.941 92.8078 256.295 92.4421 256.307 92.7225L256.185 92.6006L256.283 92.7956C256.149 92.7956 256.185 92.6737 256.112 92.625C256.039 92.5762 256.283 92.8322 256.246 92.9297C256.21 93.0272 256.161 92.8322 256.136 92.7712C256.112 92.7103 256.136 93.0516 255.99 93.0272C255.99 93.1247 255.893 93.1248 255.856 93.1857C255.819 93.2466 255.856 93.1003 255.856 93.076C255.856 93.0516 255.771 93.076 255.856 93.1491L255.759 93.015C255.698 93.015 255.759 93.1979 255.6 93.015C255.442 92.8322 255.746 93.1613 255.71 93.1857C255.503 93.015 255.71 93.3441 255.551 93.2954C255.393 93.2466 255.551 93.1978 255.551 93.21C255.551 93.2222 255.551 93.2954 255.551 93.3685L255.478 93.2954V93.5148C255.271 93.3441 255.405 93.6489 255.271 93.5148C255.137 93.3807 255.393 93.5148 255.356 93.6367C255.32 93.7586 255.356 93.722 255.222 93.6367L255.125 93.4904C255.162 93.6075 255.229 93.7126 255.32 93.7952C255.21 93.7952 255.234 93.7952 255.1 93.7952C255.1 93.9293 254.625 93.6001 254.759 93.8683L254.686 93.7586V93.9902H254.625C254.54 93.9902 254.491 94.1365 254.43 94.2218C254.43 94.4046 254.296 94.2218 254.296 94.368V94.2949C254.393 94.4656 254.003 94.234 254.15 94.2949C254.177 94.392 254.222 94.4831 254.284 94.5631C254.284 94.6363 254.186 94.5631 254.101 94.49C254.015 94.4168 254.101 94.6363 254.04 94.6363H253.979C253.979 94.6363 253.979 94.7338 253.979 94.7703C254.052 94.9654 253.723 94.6606 253.979 94.9775C253.906 94.9775 253.894 94.9775 253.772 94.9166C253.785 95.0381 253.785 95.1607 253.772 95.2823C253.699 95.2823 253.772 95.2823 253.686 95.2823L253.772 95.1482C253.699 95.1482 253.699 95.2579 253.625 95.3067C253.552 95.3554 253.43 95.3067 253.467 95.3067C253.382 95.3067 253.552 95.0994 253.467 95.0751C253.382 95.0507 253.394 95.075 253.223 95.2213C253.126 95.2213 253.333 95.075 253.333 95.0385C253.333 95.0019 253.211 95.0384 253.333 94.88C253.028 95.1238 253.333 94.6484 253.065 94.88L253.15 94.7094C253.15 94.7094 252.943 94.9044 252.882 94.9044C252.945 94.8036 253.019 94.7097 253.101 94.6241L252.845 94.8435C252.918 94.4168 252.528 94.3558 252.553 93.9658C252.419 93.9658 252.199 93.9658 252.138 93.8074V93.6489V93.8195C252.138 93.8195 252.029 93.8195 252.016 93.8195C252.004 93.8195 252.016 93.3564 251.736 93.3442C251.383 93.527 251.907 93.0516 251.638 93.1613L251.736 93.0882C251.562 93.0811 251.389 93.1059 251.224 93.1613C251.504 92.9053 251.163 93.1613 251.309 92.9784L251.2 93.076C251.2 92.9906 251.2 92.9175 251.297 92.8566L251.127 92.9419L251.236 92.8322C251.236 92.7712 250.992 92.7469 251.236 92.5031C250.944 92.5031 250.797 92.2837 250.676 92.0886C250.646 92.1114 250.609 92.1237 250.572 92.1237C250.534 92.1237 250.498 92.1114 250.468 92.0886L250.554 91.9179C250.481 91.9179 250.273 92.052 250.322 91.9179C250.261 91.9179 250.322 91.8082 250.139 91.9179C249.956 92.0277 250.139 91.7595 250.261 91.6498C250.042 91.857 250.261 91.5279 250.261 91.5279C250.261 91.5279 248.664 88.8706 246.97 89.5411C246.835 89.5997 246.714 89.687 246.616 89.797C246.531 89.797 246.714 89.5898 246.616 89.6995C246.519 89.8092 246.324 89.9555 246.239 90.1383H246.178C246.104 90.1383 246.312 90.1383 246.178 90.2237L246.385 90.0286C246.379 90.1013 246.349 90.1699 246.299 90.2237C246.397 90.2237 246.69 89.9067 246.629 90.0895C246.629 90.0895 246.531 90.248 246.507 90.2968L246.446 90.4309C246.446 90.3334 246.263 90.4309 246.299 90.4309C246.336 90.4309 246.3 90.3699 246.397 90.4309C246.495 90.4918 246.324 90.5527 246.263 90.6137C246.178 90.699 246.263 90.6137 246.165 90.6868H246.324C246.092 90.9306 246.495 90.6868 246.324 90.8819C246.226 90.8819 246.251 90.9672 246.165 91.0403L246.287 91.1257C246.287 91.1257 246.19 91.1257 246.214 91.1257C246.239 91.1257 246.299 91.1257 246.312 91.1257C246.324 91.1257 246.397 91.211 246.239 91.3573C246.08 91.5036 246.458 91.1866 246.434 91.3573C246.409 91.5279 246.36 91.3572 246.299 91.4547H246.397C246.397 91.4547 246.226 91.5888 246.226 91.5523C246.226 91.857 245.885 92.4543 246.226 92.5031C246.007 92.7347 246.007 92.6615 245.897 92.7103ZM254.54 100.78C254.601 100.78 254.674 100.78 254.661 100.78C254.649 100.78 254.503 100.889 254.552 100.78C254.548 100.78 254.544 100.78 254.54 100.78ZM254.235 100.999C254.235 100.999 254.235 100.999 254.235 100.914H254.296H254.357L254.089 101.121L254.235 100.999ZM253.638 95.5017H253.699C253.665 95.5443 253.617 95.5743 253.564 95.587C253.596 95.5623 253.625 95.5336 253.65 95.5017H253.638ZM250.615 98.1468C250.615 98.1468 250.615 98.1468 250.541 98.1468H250.615Z" fill="#FF4E00"/>
<path d="M181.295 170.832H145.189V206.937H181.295V170.832Z" fill="#FF4E00"/>
<path d="M80.2068 170.832H44.1016V206.937H80.2068V170.832Z" fill="#FF4E00"/>
<path d="M130.756 170.832H94.6504V206.937H130.756V170.832Z" fill="#FF4E00"/>
<path d="M80.2068 217.727H44.1016V253.832H80.2068V217.727Z" fill="#FF4E00"/>
<path d="M130.756 217.727H94.6504V253.832H130.756V217.727Z" fill="#FF4E00"/>
<path d="M181.295 217.727H145.189V253.832H181.295V217.727Z" fill="#FF4E00"/>
</svg>
