<svg width="353" height="353" fill="none" xmlns="http://www.w3.org/2000/svg"><path d="M284.079 208.219l-44.092-7.161 10.447-27.983c2.31-6.193-.709-9.008-6.719-6.262l-52.214 23.871-21.797-30.069c-3.131-4.316-7.06-3.708-8.739 1.353l-11.681 35.26-56.989-6.962c-6.559-.8-8.585 2.797-4.51 8.001l18.426 23.505-39.868 20.163c-7.498 3.79-6.847 7.994 1.447 9.345l44.092 7.161-10.447 27.983c-2.31 6.193.709 9.008 6.719 6.262l52.214-23.871 21.799 30.076c3.13 4.315 7.06 3.707 8.738-1.354l11.682-35.26 56.988 6.962c6.559.8 8.585-2.796 4.511-8.001l-18.421-23.512 39.861-20.162c7.498-3.79 6.847-7.994-1.447-9.345z" fill="#171717"/><mask id="a" maskUnits="userSpaceOnUse" x="0" y="58" width="322" height="263"><path d="M0 229.387l28.003 81.715 12.09 9.487 87.07-9.487 45.754-76.971 82.786-11.63 65.953-118.594L288.45 58H70.238l-22.8 102.373L0 229.387z" fill="#C4C4C4"/></mask><g mask="url(#a)" fill-rule="evenodd" clip-rule="evenodd"><path d="M259.389 266.565h45.963a1.224 1.224 0 000-2.449h-77.518l-92.022 253.319a1.226 1.226 0 01-2.302-.836l91.719-252.483h-42.026a3.859 3.859 0 110-7.718h80.514c-.132-.3-.146-.655.006-.992l13.169-29.24a9.176 9.176 0 012.832-3.552l2.478-1.874a12.062 12.062 0 019.969-2.139l18.041-43.91c2.329-2.666 4.747-3.477 7.254-2.434l.118.05a5.781 5.781 0 012.948 7.626l-18.285 41.335 24.199 6.418a1.225 1.225 0 01-.627 2.367l-24.575-6.518-2.88 6.512c1.906.725 2.774 3.6 3.108 8.671.045.69-.49 1.281-1.181 1.304-6.858.228-12.639 1.335-17.343 3.31-2.294.963-4.173 2.559-5.636 4.807 1.496.043 2.861.227 4.282.657 3.133.948 5.4 2.906 6.339 6.059l22.527.188h148.98l28.333 89.593a12.83 12.83 0 01-1.502 10.917h43.682c.903-2.818 2.981-4.579 5.825-5.438 1.254-.38 2.46-.552 3.769-.601-1.316-1.962-2.99-3.359-5.02-4.21-4.297-1.802-9.578-2.814-15.846-3.024h-14.81a1.224 1.224 0 110-2.448h14.871c6.556.218 12.133 1.285 16.732 3.214 4.637 1.945 7.672 6.158 9.116 12.507h12.523c-1.332-6.46-3.917-10.568-7.7-12.432-4.402-2.169-13.375-5.704-26.883-10.587a1.223 1.223 0 01-.802-1.034l-7.757-6.689a1.225 1.225 0 011.599-1.855l7.565 6.525c23.529 5.573 36.507 9.435 39.515 11.85 4.535 3.64 7.483 8.722 8.838 15.196.027.131.033.26.019.385h21.416a3.859 3.859 0 110 7.718h-102.01l72.169 151.861a1.225 1.225 0 01-2.211 1.051L488.202 364.63h-34.569l55.79 108.431h-16.797l13.894 43.584a1.224 1.224 0 01-1.167 1.596h-7.91a.542.542 0 01-.057 0H383.932a1.224 1.224 0 01-1.143-1.662l1.925-5.02a18.056 18.056 0 0112.241-10.992l20.911-5.531-6.852-21.975h-27.082l-38.02-97.393c.415-.285.626-.81.489-1.325l-19.912-74.495a9.486 9.486 0 016.143-11.443l48.942-16.448a1.224 1.224 0 00-.78-2.321l-48.942 16.448c-5.972 2.007-9.356 8.31-7.729 14.396l19.597 73.316-9.954 98.906h-30.018v44.315c0 .676-.548 1.224-1.224 1.224h-12.107a1.224 1.224 0 01-1.224-1.224v-26.996l-21.526 27.746a1.224 1.224 0 01-.967.474h-85.371c-.859 0-1.45-.861-1.143-1.662l1.925-5.02a18.056 18.056 0 0112.242-10.992l21.418-5.666 4.692-22.199h-34.544l40.222-115.532.133.002 33.115-90.607zm292.374-66.287l-37.48-.895-47.852-106.469a8.263 8.263 0 017.509-11.65l161.584-.553a8.264 8.264 0 018.174 6.874l18.635 109.302c22.657 5.688 39.435 26.191 39.435 50.613 0 28.819-23.362 52.181-52.181 52.181s-52.181-23.362-52.181-52.181c0-10.644 3.187-20.544 8.659-28.798l-2.509 2.432c-.889.862-1.9 1.588-3.001 2.154-5.214 2.677-9.767 3.381-13.625 2.022-3.252-1.146-5.288-3.078-6.002-5.705-2.342 2.003-5.228 2.649-8.555 1.895-3.614-.82-5.887-2.902-6.693-6.104-2.694 1.738-5.464 2.135-8.226 1.122a10.614 10.614 0 01-6.625-12.614l.934-3.626zm-466.341 8.237l4.993-127.426a8.263 8.263 0 018.257-7.94H283.31a8.264 8.264 0 017.915 10.639l-33.993 113.243a14.078 14.078 0 01-13.484 10.031H165.33c.214.135.427.278.637.431a11.77 11.77 0 011.587 1.369 7.957 7.957 0 01.802 10.06l-14.969 21.538a1.287 1.287 0 01-.104.13l-4.108 4.469a12.236 12.236 0 01-10.524 3.866l-7.295 6.346c.162 1.673.245 3.368.245 5.083 0 28.819-23.363 52.181-52.182 52.181-28.818 0-52.18-23.362-52.18-52.181s23.362-52.181 52.18-52.181c2.03 0 4.033.116 6.003.342zm404.634 264.546h-76.478l6.904 22.138h38.571a1.224 1.224 0 110 2.448h-41.15c-.084 0-.165-.008-.244-.024l-20.077 5.311A15.61 15.61 0 00387 512.435l-1.288 3.358h109.984l-10.014-28.947a1.224 1.224 0 112.314-.8l10.29 29.747h5.392l-13.622-42.732zm-188.756-.359h-78.334l-4.956 23.443a1.225 1.225 0 01-.884.931l-22.147 5.858a15.61 15.61 0 00-10.582 9.501l-1.287 3.358h82.99l23.35-30.097c.715-.922 2.191-.416 2.191.75v29.347h9.659v-43.091zM127.576 237.118l-.166.144a58.497 58.497 0 00-.439-.728l.605.584zm413.295 114.834c-1.633-.029-3.003.089-4.385.506-1.836.556-3.166 1.54-3.906 3.095h9.494a22.312 22.312 0 00-1.203-3.601zm18.739 3.601h9.136c-1.356-5.226-3.898-9.318-7.629-12.313-1.927-1.547-9.74-4.115-23.192-7.593 5.744 2.22 9.931 3.978 12.57 5.278 4.658 2.294 7.677 7.209 9.115 14.628zm-268.385-134.65a9.612 9.612 0 00-7.546 1.79l-2.478 1.874a6.737 6.737 0 00-2.077 2.605l-12.388 27.506 5.371.045c1.561-6.939 4.854-11.533 9.893-13.648.368-.155.742-.304 1.122-.449l8.103-19.723zm3.645 17.044c1.31-.143 2.664-.25 4.059-.319-.16-1.692-.397-3.015-.706-3.957-.169-.518-.353-.898-.534-1.135-.112-.148-.185-.2-.227-.21a.819.819 0 00-.099-.017l-2.493 5.638zm-9.542 16.886c-.794-1.877-2.313-3.049-4.443-3.694-1.54-.465-3.064-.592-4.886-.556-.551 1.244-1.012 2.631-1.383 4.161l10.712.089zm-178.789-66.337c5.007 4.945 5.204 9.792.376 13.89a1.226 1.226 0 01-.968.278l1.006 13.356c12.644 7.869 21.676 20.997 24.037 36.325l6.027-5.244a1.225 1.225 0 011.34-.698 9.79 9.79 0 009.015-3l4.052-4.409 14.921-21.469a5.51 5.51 0 00-.554-6.965 9.447 9.447 0 00-1.261-1.085c-2.392-1.734-5.001-1.939-8-.595l-10.941 14.519a1.224 1.224 0 11-1.955-1.473l11.233-14.907c.841-2.784.159-4.897-2.098-6.597-2.247-1.693-4.424-1.876-6.761-.585l-.044.024a1.271 1.271 0 01-.171.312l-11.237 14.912a1.225 1.225 0 01-1.956-1.474l11.237-14.912a1.23 1.23 0 01.425-.355c.041-.106.098-.211.174-.312l15.985-21.339c1.272-3.691.832-6.177-1.2-7.744-2.196-1.695-4.961-1.594-8.516.455a.295.295 0 00-.083.07l-28.897 35.075a1.223 1.223 0 01-2.099-.371 822.183 822.183 0 01-2.559-7.332 46.785 46.785 0 01-.301-.919l-.252-.808c-.968-3.127-1.478-4.312-2.341-5.079-1.151-1.022-2.397-1.769-3.744-2.247a3.976 3.976 0 00-3.89.703zm-1.316 2.149c-.09.387-.121.787-.092 1.185l.626 8.31c3.086-2.869 2.964-5.864-.534-9.495zm46.153 48.418l.104-.13-.056.061-.048.069zm4.875-63.542a1.224 1.224 0 111.745 1.718c-1.71 1.738-3.857 1.721-5.974.072-2.135-1.663-2.656-3.705-1.244-5.641a1.223 1.223 0 111.978 1.443c-.554.76-.403 1.353.77 2.266 1.192.928 1.945.934 2.725.142zM79.419 310.087c27.467 0 49.733-22.266 49.733-49.733 0-27.466-22.266-49.732-49.733-49.732-27.466 0-49.732 22.266-49.732 49.732 0 27.467 22.266 49.733 49.732 49.733zm16.954-53.16c-1.424.432-3.099.101-4.945-.915a1.225 1.225 0 011.181-2.145c1.511.831 2.585.983 3.357.586l-.224-1.356c-.08-.487.14-.974.557-1.236l11.317-7.106-8.716-2.349a4.593 4.593 0 01-2.365 5.27 17.604 17.604 0 01-5.858 1.765 17.609 17.609 0 01-6.11-.295 4.592 4.592 0 01-1.053-8.571 17.604 17.604 0 015.858-1.765 17.997 17.997 0 013.655-.082 14.092 14.092 0 00-4.435-5.858l-16.539 7.588-14.257 2.529a10.11 10.11 0 00-.118 1.542v34.987c8.065 1.859 15.703 2.471 22.916 1.84 7.133-.624 13.447-2.356 18.95-5.191l-3.17-19.238zm-4.834-15.808a16.02 16.02 0 00-1.869.121 15.179 15.179 0 00-5.05 1.519 2.142 2.142 0 00.491 4c1.707.39 3.461.474 5.268.252a15.155 15.155 0 005.05-1.519 2.142 2.142 0 00.542-3.431c.02.101.035.205.045.312.125 1.431-.866 2.687-2.213 2.804-1.347.118-2.54-.946-2.665-2.378-.055-.618.1-1.204.401-1.68zm4.192-2.102l15.227 4.103c1.031.278 1.237 1.651.332 2.219l-13 8.163 3.812 23.134a1.225 1.225 0 01-.625 1.276c-5.986 3.242-12.88 5.201-20.67 5.883-7.766.679-15.98-.029-24.64-2.121a1.223 1.223 0 01-.937-1.19v-35.955c0-5.134 3.127-9.75 7.895-11.654l10.633-4.245a16.574 16.574 0 013.456-.962c8.189-1.35 16.053 3.557 18.517 11.349zm-15.096 22.878c-4.626 2.46-10.37.703-12.83-3.923a9.488 9.488 0 013.922-12.831 1.224 1.224 0 111.15 2.162 7.04 7.04 0 106.61 12.43 1.224 1.224 0 011.148 2.162zm568.952 35.338c27.466 0 49.732-22.266 49.732-49.733 0-27.466-22.266-49.732-49.732-49.732-27.467 0-49.733 22.266-49.733 49.732 0 27.467 22.266 49.733 49.733 49.733zm-8.267-67.683c.581.578.866 1.442.68 2.318-.289 1.356-1.594 2.228-2.917 1.946-1.086-.23-1.845-1.165-1.923-2.243-.444.352-.875.744-1.294 1.177 2.419 1.653 4.908 2.34 7.505 2.095a10.185 10.185 0 004.655-1.617 26.945 26.945 0 01-1.791-3.628 10.428 10.428 0 00-3.554-.265c-.464.043-.918.116-1.361.217zm26.721 22.659l-1.179 13.189a1.224 1.224 0 01-1.052 1.103c-6.558.91-13.652.551-21.276-1.069-7.658-1.628-13.404-3.928-17.245-6.937a1.225 1.225 0 01-.454-1.159l1.896-11.722a1.212 1.212 0 01.079-.486l.623-3.855-9.123-1.939a1.224 1.224 0 01-.725-1.931l9.078-12.12a23.884 23.884 0 0125.995-8.552l7.522 2.264a11.017 11.017 0 017.8 11.532l-.642 7.183 22.757 7.009a3.061 3.061 0 011.882 4.199l-5.394 11.781a3.06 3.06 0 01-4.373 1.341l-16.169-9.831zm-24.712-33.575a21.42 21.42 0 00-12.706 8.117l-7.93 10.587 8.389 1.783c.639.136 1.058.748.954 1.393l-.264 1.633c1.687.266 3.002.498 3.949.7.6.127 1.062.244 1.399.356.209.069.382.14.535.224.377.21.65.47.734.99.099.611-.188 1.03-.583 1.294-.148.099-.3.165-.476.224a6.169 6.169 0 01-.846.196c-.558.097-1.31.19-2.251.285-.224.023-.459.046-.704.069-.531.049-1.666.144-2.493.213l-1.666 10.3c3.51 2.541 8.736 4.564 15.673 6.039 6.982 1.484 13.47 1.87 19.468 1.163l2.166-24.224c-1.123-2.007-3.111-3.552-5.587-4.078-3.077-.655-6.106.436-7.99 2.588-1.519-1.072-2.743-2.156-3.67-3.253a12.604 12.604 0 01-5.828 2.047c-3.63.344-7.081-.802-10.302-3.391a1.223 1.223 0 01-.181-1.727c2.567-3.148 5.694-4.923 9.331-5.267.952-.09 1.891-.078 2.818.036-.783-2.432-1.429-5.198-1.939-8.297zm-62.501-2.528c.004-.088.018-.177.042-.266l7.698-28.338a1.229 1.229 0 01-.121-.438c-.321-3.63-1.896-5.797-4.816-6.734-3.121-1.002-5.556-.062-7.594 2.986a1.219 1.219 0 01-.489.428l-7.53 28.783a1.212 1.212 0 01-.219.445c.007.046.012.093.015.142.169 3.333 1.795 5.249 5.101 5.998 3.321.753 5.885-.218 7.913-3.006zm2.281.671a.459.459 0 01-.002.037c-.202 3.009 1.258 4.997 4.636 6.186 3.141 1.107 7.027.506 11.693-1.89a10.138 10.138 0 002.416-1.733l6.245-6.055-5.851-1.996a1.225 1.225 0 01-.819-1.312l2.151-17.056c-.02-4.649-1.531-7.209-4.534-8.033-2.726-.748-5.309-.023-7.855 2.27l-7.957 29.287a1.17 1.17 0 01-.123.295zm-17.487-4.383a1.217 1.217 0 01.028-.486l7.793-29.79a1.25 1.25 0 01.108-.275c-.926-3.058-2.802-4.973-5.694-5.861-1.173-.36-2.261-.505-3.265-.442a5.51 5.51 0 00-4.989 4.124l-6.403 24.851a8.167 8.167 0 005.097 9.705c2.399.879 4.794.308 7.325-1.826zm-3.338-27.824c-.225 1.462.458 2.315 2.467 2.836 2 .519 2.915.153 3.31-1.095a1.224 1.224 0 112.334.737c-.833 2.636-3.107 3.545-6.259 2.728-3.142-.815-4.705-2.767-4.272-5.579a1.224 1.224 0 112.42.373zm15.606 4.913c-.225 1.463.458 2.315 2.467 2.836 2 .519 2.915.154 3.31-1.095a1.224 1.224 0 112.335.738c-.834 2.636-3.108 3.545-6.259 2.727-3.143-.814-4.706-2.767-4.273-5.579a1.225 1.225 0 012.42.373zm15.31 4.1c-.225 1.463.458 2.315 2.467 2.837 2 .518 2.916.153 3.31-1.096a1.224 1.224 0 112.335.738c-.833 2.636-3.108 3.545-6.259 2.728-3.142-.815-4.706-2.768-4.272-5.58a1.223 1.223 0 112.419.373zm-186.675-78.897a2505.917 2505.917 0 01-12.1-6.601 1383.274 1383.274 0 01-9.1-5.067c-5.924 5.336-8.203 13.083-6.822 23.383l6.818-.837a1.224 1.224 0 11.299 2.43l-8.006.983a1.225 1.225 0 01-1.359-1.024c-1.356-8.596-.371-15.729 2.963-21.337l-3.796 3.417a14.9 14.9 0 00-1.37 6.514l.462 27.818c5.809 2.085 12.252 2.697 19.346 1.826 7.082-.87 13.199-2.635 18.357-5.29l-2.234-10.288a1.225 1.225 0 011.214-1.484 7.038 7.038 0 007.093-7.897 7.04 7.04 0 00-10.002-5.505 1.224 1.224 0 01-1.721-.847l-.019-.089-.023-.105zm-13.751-15.64c7.418 1.147 13.7 6.505 15.843 13.943a9.487 9.487 0 0112.103 7.945 9.486 9.486 0 01-8.043 10.543l2.13 9.812a1.224 1.224 0 01-.612 1.335c-5.609 3.049-12.29 5.046-20.037 5.997-7.794.957-14.897.207-21.294-2.258a1.228 1.228 0 01-.784-1.122l-.476-28.653c-.112-6.704 3.594-12.638 9.176-15.635a7.833 7.833 0 01-1.852-13.915 6.617 6.617 0 012.419-12.254l4.793-.683a6.292 6.292 0 017.117 5.34l.003.022a6.66 6.66 0 01-2.19 5.916 7.446 7.446 0 015.102 6.19 7.888 7.888 0 01-3.398 7.477zm-6.129 16.484c.217-.081.448-.13.69-.143 1.35-.071 2.506 1.035 2.581 2.47a2.684 2.684 0 01-.536 1.77c.841-.04 1.672-.186 2.496-.438 2.507-.767 4.527-2.384 6.084-4.901-2.698-1.215-5.277-1.427-7.784-.66a10.066 10.066 0 00-3.531 1.902zm-1.436 1.44c-.396.475-.768.994-1.118 1.558.377.17.75.32 1.122.45a2.737 2.737 0 01-.187-.865 2.742 2.742 0 01.183-1.143zm7.383 4.56c-3.508 1.073-7.126.591-10.787-1.407a1.225 1.225 0 01-.5-1.638c1.917-3.703 4.647-6.126 8.155-7.198 3.508-1.073 7.126-.591 10.786 1.407.584.319.807 1.047.501 1.638-1.918 3.703-4.648 6.126-8.155 7.198zm-11.276 10.708a1.224 1.224 0 11.795-2.316c1.517.522 3.283.248 5.356-.896a1.225 1.225 0 011.184 2.144c-2.636 1.454-5.101 1.836-7.335 1.068zm112.456-31.288l30.231 64.313c.201.427.629.701 1.101.704l111.576.713a1.224 1.224 0 001.21-1.456l-12.587-65.188a1.224 1.224 0 00-1.204-.992l-129.221.162a1.223 1.223 0 00-1.106 1.744zm129.319.543l12.112 62.729-109.312-.699-29.085-61.872 126.285-.158zm-53.256 50.854c3.417 0 7.81-1.354 10.526-3.014 5.145-3.146 7.378-8.419 7.378-14.89 0-4.021-.977-8.234-3.216-11.223-3.265-4.36-8.822-6.681-14.688-6.681-5.827 0-10.853 3.106-14.122 7.416-2.279 3.004-3.782 6.427-3.782 10.488 0 5.39 2.833 10.071 6.602 13.354 3.144 2.739 6.804 4.55 11.302 4.55zm-451.701-42.721a3.366 3.366 0 100 6.733h126.398a3.366 3.366 0 100-6.733H118.134zm.613 23.259a3.367 3.367 0 000 6.733h48.809a3.366 3.366 0 100-6.733h-48.809zm65.188 0a3.368 3.368 0 000 6.733h24.105a3.367 3.367 0 100-6.733h-24.105zm39.174 0a3.368 3.368 0 000 6.733h18.016a3.367 3.367 0 100-6.733h-18.016z" fill="#fff"/><path d="M347.042 255.256l-4.604-11.058a30.608 30.608 0 00-16.158-16.35l8.82-67.722c.932-7.15 7.443-12.22 14.603-11.369l20.92 2.486 1.219-6.733 42.185-6.165 12.067 19.488 25.776 3.063a14.382 14.382 0 0111.183 7.881l77.102 155.107H480.96l-21.908-68.71-112.01.082zm-152.855-92.99h33.665a8.416 8.416 0 018.416 8.416 8.416 8.416 0 01-8.416 8.417h-33.665a8.416 8.416 0 110-16.833zm371.083-34.574c0-.155 4.795 1.707 14.384 5.587l-11.818 10.012c-1.711-10.245-2.566-15.445-2.566-15.599zM459.623 253.505l-13.131-49.397a1.224 1.224 0 00-2.366.629l13.131 49.397a1.224 1.224 0 002.366-.629zm-384.42 23.249c.484.007.967.002 1.45-.014l31.001-1.034a2.45 2.45 0 012.251 3.582l-4.34 8.288 9.886 7.048c-2.799 2.932-5.375 5.175-7.73 6.731-1.502.993-2.927 1.788-3.913 2.37-4.687 2.767-9.442 4.189-12.836 5.026-3.97.98-8.041 1.371-12.59 1.371-.834 0-3.36-.158-4.172-.243-6.346-.667-13.622-2.455-21.713-7.626-1.487-.95-4.26-3.019-6.785-5.319-.461-.42-1.166-1.115-2.112-2.084l9.866-7.274-3.165-7.767a2.45 2.45 0 012.302-3.372l22.6.317zm570.291-17.924l29.329 1.311a2.448 2.448 0 012.143 3.404l-1.973 4.64a12.901 12.901 0 002.616 14.035l3.589 3.698c-8.991 7.611-19.528 11.417-31.612 11.417-4.275 0-9.405-.758-13.987-2.073-2.489-.714-4.933-1.726-6.927-2.64-2.255-1.033-4.824-2.439-7.605-4.362-.6-.415-1.51-1.107-2.73-2.077a21.295 21.295 0 003.102-16.638l-2.515-11.026a2.449 2.449 0 012.736-2.968l20.843 2.998c.992.143 1.99.237 2.991.281z" fill="#FF4E00"/></g></svg>