<svg xmlns="http://www.w3.org/2000/svg" viewBox="0 0 282.83 96.12"><g id="Слой_2" data-name="Слой 2"><g id="Слой_1-2" data-name="Слой 1"><path fill="#ffffff" d="M0,75.7H7V3.08H0V2.45H46.46V21.69h-.63A18.57,18.57,0,0,0,27.22,3.08H16V36.79h7.33A11.85,11.85,0,0,0,35.09,25h.63V49.23h-.63a11.84,11.84,0,0,0-11.81-11.8H16V75.7h7v.75H0Z"/><path fill="#ffffff" d="M50,72.51a5.13,5.13,0,0,1,5.21-5.1,5,5,0,0,1,5.11,5.1,5.13,5.13,0,0,1-5.11,5.21A5.22,5.22,0,0,1,50,72.51Z"/><path fill="#ffffff" d="M87.19,75.81H89c2,0,4.25-1.38,7-10.85L115.58,0l22.64,75.81h7.13v.64h-23v-.64h6.91l-8.18-27.33c-6,.11-9.68,1.17-12,3.72-2.23,2.34-3.08,5.85-4,9.79-.21,1.06-.53,2.12-.74,3.19-1.28,4.78-3.83,8.08-7.45,9.88a16.27,16.27,0,0,1-2.12.75h14.14v.64H87.19Zm18.5-25.2c3.93-2.23,8.82-2.76,15.2-2.76l-9.46-31.8-12.65,42A18.08,18.08,0,0,1,105.69,50.61Z"/><path fill="#ffffff" d="M146.52,72.51a5.13,5.13,0,0,1,5.21-5.1,5,5,0,0,1,5.1,5.1,5.13,5.13,0,0,1-5.1,5.21A5.22,5.22,0,0,1,146.52,72.51Z"/><path fill="#ffffff" d="M241.15,89.63a40.7,40.7,0,0,1-11.7-12h-2c-22.11,0-40.08-17.12-40.08-38.28s18-38.28,40.08-38.28,40.19,17.12,40.19,38.28c0,19.78-15.73,36-35.93,38.06a29.19,29.19,0,0,0,6.8,5.74,32.22,32.22,0,0,0,24.14,4.26h.1l7.77,7.76-.54.11a39.64,39.64,0,0,1-7.86.85A37.72,37.72,0,0,1,241.15,89.63ZM227.43,77h1.71a39.82,39.82,0,0,1-5-12.44l-.21-.75a40.65,40.65,0,0,1,5.21-29.87,37.12,37.12,0,0,1,23.39-17C246.89,7.66,237.75,1.7,227.43,1.7c-17.22,0-31.15,16.91-31.15,37.64S210.21,77,227.43,77Zm-2.65-12.55a29.62,29.62,0,0,0,6.27,12.34c15.52-2.24,27.64-18.08,27.64-37.43A43.2,43.2,0,0,0,253,17.54a36.48,36.48,0,0,0-23.28,16.7,39.86,39.86,0,0,0-5.11,29.34Z"/><path fill="#ffffff" d="M272.52,72.51a5.13,5.13,0,0,1,5.21-5.1,5,5,0,0,1,5.1,5.1,5.13,5.13,0,0,1-5.1,5.21A5.22,5.22,0,0,1,272.52,72.51Z"/></g></g></svg>