<svg xmlns="http://www.w3.org/2000/svg" viewBox="0 0 520.58 103.35"><g id="Слой_2" data-name="Слой 2"><g id="Слой_1-2" data-name="Слой 1"><path fill="#ffffff" d="M7.66,2.23V73.36h7V74H0v-.64H7V.64H0V0H15.84L36.58,60.6,57.41,0H73.15V.64h-7V73.36h7V74H50.29v-.64h7V2.23L32.43,74.64Z"/><path fill="#ffffff" d="M79,51.57a23.66,23.66,0,1,1,23.71,23.71A23.64,23.64,0,0,1,79,51.57ZM92.19,62.09a32,32,0,0,0,14.56,8.4c5,1.07,9.36.22,12.23-2.66s3.72-7.12,2.55-12.12a29.72,29.72,0,0,0-8.4-14.56,29.72,29.72,0,0,0-14.56-8.4c-5-1.17-9.36-.21-12.13,2.55s-3.72,7.23-2.65,12.23A32,32,0,0,0,92.19,62.09Z"/><path fill="#ffffff" d="M132.49,73.36h4.67V29.77h-4.67v-.64H146V40.19a16.84,16.84,0,0,1,16-12.12c7.66,0,16.59,3.19,16.91,14.14V73.36h4.57V74H165.34v-.64H170V42.21c0-12.33-3.83-13.4-8-13.5a16.18,16.18,0,0,0-16,16v28.6h4.68V74H132.49Z"/><path fill="#ffffff" d="M196.18,68.37a23.68,23.68,0,0,1,33.49-33.5A24.25,24.25,0,0,1,235.94,46l.11.42H193.84c.85,5.11,3.83,10.74,8.61,15.63,9,8.93,21,11.59,26.79,5.74A22.34,22.34,0,0,0,235.3,57l.64.21a24.41,24.41,0,0,1-6.27,11.17,23.74,23.74,0,0,1-33.49,0Zm31.26-22.54A26.65,26.65,0,0,0,224,40.4c-4.46-5.63-10.2-8.93-16.16-9.25A14.75,14.75,0,0,0,196.6,35.3c-2.55,2.55-3.4,6.27-2.87,10.53Z"/><path fill="#ffffff" d="M234.56,95.58h.53c7.45,0,11.49-.1,14.68-2.76,3-2.55,5.1-7.44,9.35-17.76L240.84,29.77h-4.79v-.64h18.82v.64h-4.46l13.5,33.39,13.5-33.39H273v-.64h9.88v.64h-4.78s-19.14,47.42-19.56,48.38c-6.49,16.27-10.11,25.2-20.42,25.2h-.21Z"/><path fill="#ffffff" d="M324.94,70.17V74h-13.5v-.64h4.68V.64h-4.68V0h13.5V33.17A23.5,23.5,0,0,1,339.72,28a23.66,23.66,0,1,1-14.78,42.21Zm14.78,4.47c8,.11,14.78-10,14.78-23S347.69,28.6,339.72,28.6A22.62,22.62,0,0,0,324.94,34v35.3A22.52,22.52,0,0,0,339.72,74.64Z"/><path fill="#ffffff" d="M369.71,58.37a17.05,17.05,0,0,1,33.06-5.95V44.55c0-10.53-3.19-15.84-9.46-15.84-3.83,0-6.7,3.19-9,6.38l-.1.21-5.32-3.19.43-.32a34,34,0,0,1,14-3.72c12.55,0,18.39,6.38,18.39,16.48V73.36h7V74h-16V64.33a17.08,17.08,0,0,1-33.06-6Zm20.41,15.42c5.63,0,11.16-5.42,12.65-11.7V54.54c-1.49-6.27-7-11.69-12.65-11.69-6.59,0-11.48,7.44-11.48,15.52S383.53,73.79,390.12,73.79Z"/><path fill="#ffffff" d="M427.55,68.37A23.68,23.68,0,0,1,461,34.87a24,24,0,0,1,6.38,11.59H459a25.88,25.88,0,0,0-3.61-6.06c-4.47-5.63-10.21-8.93-16.16-9.25A14.93,14.93,0,0,0,428,35.3c-2.76,2.76-3.61,7.12-2.55,12.12a30.55,30.55,0,0,0,8.4,14.67,30,30,0,0,0,14.68,8.4c4.14,1,8.93.53,12.12-2.66A22.5,22.5,0,0,0,466.68,57l.63.21A24.42,24.42,0,0,1,461,68.37a23.74,23.74,0,0,1-33.49,0Z"/><path fill="#ffffff" d="M470.93,73.36h4.68V.64h-4.68V0h13.51V48.59l18-14.78a2.48,2.48,0,0,0,.75-1.7,2.36,2.36,0,0,0-2.34-2.34v-.64H513v.64c-3.41,0-6.38,1.38-10.21,4.57L485.07,48.91h1.17c3.72-.11,8.08-.11,12.12,1.49,4.58,1.91,8.3,5.74,11.06,11.69,4.47,9.57,7.23,11.27,11.16,11.27V74H500.81v-.64h12c-5.42-1.17-9.46-4.14-12.65-11-5.42-11.59-10.52-12.76-15.73-12.86V73.36h4.67V74H470.93Z"/></g></g></svg>