<svg xmlns="http://www.w3.org/2000/svg" viewBox="0 0 214.57 75.28"><g id="Слой_2" data-name="Слой 2"><g id="Слой_1-2" data-name="Слой 1"><path fill="#ffffff" d="M0,73.36H7V.64H0V0H32a17.49,17.49,0,1,1,0,35H16V73.36h7V74H0Zm24.67-39c5.53,0,9.78-1.8,12.54-5.31a19.49,19.49,0,0,0,3.41-11.49c0-3.29-.64-7.86-3.41-11.48S30.2.64,24.67.64H16v33.7Z"/><path fill="#ffffff" d="M53.91,73.36h4.68V29.77H53.91v-.64h13.5V39a14.87,14.87,0,0,1,3.72-6.17c5.74-5.74,13.61-5.42,17.23-3.82l.42.1L82.4,35.51l-.21-.1c-.11-.11-6.8-5.85-10.63-2a14.18,14.18,0,0,0-4.15,10v30h4.68V74H53.91Z"/><path fill="#ffffff" d="M92,73.36h4.68V29.77H92v-.64h13.51V73.36h4.67V74H92ZM103,8.93a5.13,5.13,0,0,1,2.77,6.81,5.18,5.18,0,0,1-6.7,2.76,5.11,5.11,0,0,1-2.77-6.8A5.17,5.17,0,0,1,103,8.93Z"/><path fill="#ffffff" d="M122.91,68.37a23.69,23.69,0,0,1,33.5-33.5,24,24,0,0,1,6.38,11.59h-8.4a25.59,25.59,0,0,0-3.62-6.06c-4.46-5.63-10.21-8.93-16.16-9.25a14.91,14.91,0,0,0-11.27,4.15c-2.76,2.76-3.62,7.12-2.55,12.12s4,10.21,8.4,14.67a30,30,0,0,0,14.67,8.4c4.15,1,8.93.53,12.12-2.66A22.42,22.42,0,0,0,162,57l.64.21a24.52,24.52,0,0,1-6.27,11.17,23.76,23.76,0,0,1-33.5,0Z"/><path fill="#ffffff" d="M174.7,68.37a23.68,23.68,0,0,1,33.49-33.5A24.25,24.25,0,0,1,214.46,46l.11.42H172.36c.85,5.11,3.82,10.74,8.61,15.63,9,8.93,20.94,11.59,26.79,5.74A22.34,22.34,0,0,0,213.82,57l.64.21a24.41,24.41,0,0,1-6.27,11.17,23.74,23.74,0,0,1-33.49,0ZM206,45.83a27.55,27.55,0,0,0-3.41-5.43c-4.46-5.63-10.2-8.93-16.16-9.25a14.75,14.75,0,0,0-11.27,4.15c-2.55,2.55-3.4,6.27-2.87,10.53Z"/></g></g></svg>