<svg xmlns="http://www.w3.org/2000/svg" viewBox="0 0 303.99 75.38"><g id="Слой_2" data-name="Слой 2"><g id="Слой_1-2" data-name="Слой 1"><path  d="M0,73.26H7V.64H0V0H46.46V19.24h-.63A18.56,18.56,0,0,0,27.22.64H16v33.7h7.33a11.84,11.84,0,0,0,11.81-11.8h.63V46.78h-.63A11.85,11.85,0,0,0,23.28,35H16V73.26h7V74H0Z"/><path  d="M46.47,51.57A23.66,23.66,0,1,1,70.18,75.28,23.64,23.64,0,0,1,46.47,51.57ZM59.65,62.09a32,32,0,0,0,14.57,8.4c5,1.07,9.35.22,12.22-2.66S90.17,60.71,89,55.71a29.8,29.8,0,0,0-8.4-14.56A29.75,29.75,0,0,0,66,32.75c-5-1.17-9.36-.21-12.12,2.55s-3.72,7.23-2.66,12.23A32.08,32.08,0,0,0,59.65,62.09Z"/><path  d="M100,73.36h4.68V29.77H100v-.64h13.5V39a14.89,14.89,0,0,1,3.73-6.17c5.74-5.74,13.6-5.42,17.22-3.82l.42.1-6.37,6.38-.22-.1c-.1-.11-6.8-5.85-10.63-2a14.18,14.18,0,0,0-4.15,10v30h4.68V74H100Z"/><path  d="M138,73.36h4.67V29.77H138v-.64h13.5V40.19c2.13-7.23,8.61-12.12,15.42-12.12,9,0,14,4.25,14.77,12.44,1.92-7,8.3-12.44,15.53-12.44,9.67,0,14.78,4.78,14.88,14.14V73.36h4.68V74H198.62v-.64h4.68V42.21c0-12.12-1.81-13.4-6.06-13.5-8.3,0-15.42,7.44-15.42,16v28.6h4.68V74H168.32v-.64H173V42.21c0-12.12-1.81-13.4-6.06-13.5-8.4,0-15.42,7.44-15.42,16v28.6h4.68V74H138Z"/><path  d="M221.91,58.37A17.06,17.06,0,0,1,255,52.42V44.55c0-10.53-3.19-15.84-9.47-15.84-3.82,0-6.7,3.19-9,6.38l-.11.21-5.32-3.19.43-.32a34,34,0,0,1,14-3.72c12.55,0,18.4,6.38,18.4,16.48V73.36h7V74H255V64.33a17.09,17.09,0,0,1-33.07-6Zm20.41,15.42c5.64,0,11.17-5.42,12.66-11.7V54.54c-1.49-6.27-7-11.69-12.66-11.69-6.59,0-11.48,7.44-11.48,15.52S235.73,73.79,242.32,73.79Z"/><path  d="M279,61.14V29.77h-4.68V29H279V19.24l8.82-3.93V29h14.89v.74H287.83V61.14c0,12.33,2.66,13.39,6.06,13.5,3.83,0,7.55-2.66,9.57-6.81l.53.22c-2.12,4.46-6.06,7.23-10.1,7.23C284.75,75.28,279.11,70.92,279,61.14Z"/></g></g></svg>