<svg xmlns="http://www.w3.org/2000/svg" viewBox="0 0 358.54 103.23"><g id="Слой_2" data-name="Слой 2"><g id="Слой_1-2" data-name="Слой 1"><path fill="#ffffff" d="M0,73.36H7V.64H0V0H32a17.49,17.49,0,1,1,0,35H16V73.36h7V74H0Zm24.67-39c5.53,0,9.78-1.8,12.54-5.31a19.49,19.49,0,0,0,3.41-11.49c0-3.29-.64-7.86-3.41-11.48S30.2.64,24.67.64H16v33.7Z"/><path fill="#ffffff" d="M53.91,73.36h4.68V29.77H53.91v-.64h13.5V39a14.87,14.87,0,0,1,3.72-6.17c5.74-5.74,13.61-5.42,17.23-3.82l.42.1L82.4,35.51l-.21-.1c-.11-.11-6.8-5.85-10.63-2a14.18,14.18,0,0,0-4.15,10v30h4.68V74H53.91Z"/><path fill="#ffffff" d="M87.4,51.57a23.66,23.66,0,1,1,23.71,23.71A23.64,23.64,0,0,1,87.4,51.57Zm13.19,10.52a32,32,0,0,0,14.56,8.4c5,1.07,9.36.22,12.23-2.66s3.72-7.12,2.55-12.12a29.72,29.72,0,0,0-8.4-14.56A29.72,29.72,0,0,0,107,32.75c-5-1.17-9.36-.21-12.13,2.55s-3.72,7.23-2.65,12.23A32,32,0,0,0,100.59,62.09Z"/><path fill="#ffffff" d="M143.12,98c-2.55-4.57-1.91-13.29,3.08-16.91l11.59-8.18a23.87,23.87,0,0,1-9.36-5.74,22.86,22.86,0,0,1,0-32.54A22.13,22.13,0,0,1,164.7,28a22.69,22.69,0,0,1,16,6.49,11.51,11.51,0,0,0,3.3-6.7,9.35,9.35,0,0,0-3.09-7.44L174,13.4h11A20.25,20.25,0,0,1,186.29,25a19.94,19.94,0,0,1-5.21,9.88,23.22,23.22,0,0,1,6.59,16A23,23,0,0,1,164.6,73.89a25.1,25.1,0,0,1-6-.74l-12.12,8.51c-2.34,1.7-4.57,6-1.27,10.63a7.37,7.37,0,0,0,10.1,1.27l18.5-13.07a14.65,14.65,0,0,1,11.59-2.87c3.4.63,6.48,2.44,9.25,4l2,1.06-.32.64c-5.53-3-9.36-1.7-13.83,1.49l-22.22,15.73C154.92,104.41,146.84,104.52,143.12,98ZM154.5,61a29.48,29.48,0,0,0,14.14,8.19c4.78,1.06,9,.21,11.8-2.45s3.61-7,2.55-11.91a29.4,29.4,0,0,0-8.19-14,29.4,29.4,0,0,0-14.14-8.19c-4.78-1.06-9-.32-11.8,2.45s-3.61,7-2.55,11.91A29.44,29.44,0,0,0,154.5,61Z"/><path fill="#ffffff" d="M193.94,73.36h4.68V29.77h-4.68v-.64h13.51V39a14.76,14.76,0,0,1,3.72-6.17c5.74-5.74,13.61-5.42,17.22-3.82l.43.1-6.38,6.38-.21-.1c-.11-.11-6.81-5.85-10.64-2a14.17,14.17,0,0,0-4.14,10v30h4.68V74H193.94Z"/><path fill="#ffffff" d="M226.91,58.37A17.05,17.05,0,0,1,260,52.42V44.55c0-10.53-3.19-15.84-9.46-15.84-3.83,0-6.7,3.19-9,6.38l-.1.21-5.32-3.19.43-.32a34,34,0,0,1,14-3.72c12.55,0,18.39,6.38,18.39,16.48V73.36h7V74H260V64.33a17.08,17.08,0,0,1-33.06-6Zm20.41,15.42c5.64,0,11.17-5.42,12.65-11.7V54.54c-1.48-6.27-7-11.69-12.65-11.69-6.59,0-11.48,7.44-11.48,15.52S240.73,73.79,247.32,73.79Z"/><path fill="#ffffff" d="M279.75,73.36h4.68V29.77h-4.68v-.64h13.51V40.19c2.12-7.23,8.61-12.12,15.41-12.12,9,0,14,4.25,14.78,12.44,1.92-7,8.29-12.44,15.52-12.44,9.68,0,14.78,4.78,14.89,14.14V73.36h4.68V74H340.36v-.64H345V42.21c0-12.12-1.81-13.4-6.07-13.5-8.29,0-15.41,7.44-15.41,16v28.6h4.68V74H310.05v-.64h4.68V42.21c0-12.12-1.8-13.4-6.06-13.5-8.4,0-15.41,7.44-15.41,16v28.6h4.67V74H279.75Z" /></g></g></svg>