<svg width="963" height="694" fill="none" xmlns="http://www.w3.org/2000/svg"><path d="M673.638 576.341l-170.31-155.146 106.147-100.974c.31-.31.31-.774.052-1.083a.798.798 0 00-1.083-.051L502.193 420.164l-125.85-111.386c-.155-.103-.31-.206-.516-.206H173.899V157.343a.793.793 0 00-.774-.773.793.793 0 00-.773.773v152.053c0 .413.361.774.773.774h202.444l126.16 111.644 170.207 155.042-79.74 59.791c-.361.257-.412.721-.154 1.082a.735.735 0 00.619.309.828.828 0 00.464-.155l80.513-60.357c.206-.154.31-.361.31-.567a.805.805 0 00-.31-.618zm52.61-368.175c0 9.123-8.201 16.494-18.362 16.494H361.901c-10.109 0-18.362-7.371-18.362-16.494V17.558c0-9.123 8.201-16.494 18.362-16.494h270.784c10.161 0 18.362 7.371 18.362 16.494v102.005c0 16.442 8.253 31.957 22.437 42.317l45.956 33.452c4.28 3.144 6.808 7.886 6.808 12.834z" fill="#fff"/><path d="M707.886 225.484H361.901c-10.573 0-19.135-7.731-19.135-17.267V17.558c0-9.535 8.562-17.267 19.135-17.267h270.785c10.573 0 19.135 7.732 19.135 17.267v102.004c0 16.237 8.046 31.442 22.127 41.699l45.956 33.452c4.539 3.298 7.118 8.195 7.118 13.452 0 9.536-8.614 17.319-19.136 17.319zM361.901 1.786c-9.697 0-17.588 7.061-17.588 15.72v190.608c0 8.659 7.891 15.721 17.588 15.721h345.985c9.697 0 17.588-7.062 17.588-15.721 0-4.742-2.372-9.226-6.498-12.216l-45.956-33.452c-14.442-10.514-22.746-26.184-22.746-42.935V17.558c0-8.66-7.892-15.72-17.588-15.72H361.901v-.052z" fill="#000"/><path d="M399.553 224.711h-37.652c-10.109 0-18.362-8.195-18.362-18.349v-52.42l1.135-4.484 15.783 45.255 33.732-89.48 5.364 119.478z" fill="#F9D84E"/><path d="M399.553 225.485h-37.652c-10.573 0-19.135-8.556-19.135-19.123v-52.626l1.134-4.484c.103-.309.361-.567.722-.567s.671.206.774.516l15.112 43.245 32.959-87.47c.155-.36.464-.567.825-.515.361.052.619.361.671.722l5.364 119.477c0 .206-.052.412-.207.567-.154.155-.309.258-.567.258zm-55.24-71.439v52.316c0 9.69 7.891 17.577 17.588 17.577h36.878L393.622 109.1l-32.391 85.923a.777.777 0 01-.723.515.777.777 0 01-.722-.515l-14.957-42.833-.516 1.856z" fill="#000"/><path d="M513.13 68.38c-19.6-2.577-46.472 4.794-81.905 8.453a45.713 45.713 0 00-40.541 38.864c0 .103-.051.258-.051.361-4.281 36.08-8.614 72.16-12.895 108.241h152.413c7.117-.052 14.235-.052 21.353-.103 2.321-3.299 10.316-15.515 8.046-31.596-1.083-7.577-4.074-13.35-6.344-16.855 5.261-8.969 12.688-24.999 12.585-45.616-.051-9.072-.206-36.08-18.929-51.286-8.717-7.061-17.64-8.35-33.732-10.463z" fill="#F9D84E"/><path d="M377.789 225.123a.83.83 0 01-.567-.257c-.155-.155-.206-.361-.206-.619l12.894-108.241.052-.361c3.043-21.081 20.012-37.317 41.211-39.533 12.842-1.34 24.756-3.196 35.278-4.794 19.136-2.938 34.197-5.309 46.782-3.66 15.628 2.062 25.066 3.248 34.247 10.721 19.033 15.412 19.136 42.833 19.187 51.853.104 15.618-4.229 31.338-12.43 45.564 3.249 5.206 5.364 10.824 6.189 16.752 2.167 15.411-5.003 27.627-8.2 32.112a.736.736 0 01-.619.309l-21.354.103H377.789v.051zm.826-1.546H530.15l20.992-.103c3.198-4.639 9.749-16.185 7.686-30.72-.826-5.824-2.94-11.391-6.19-16.545a.79.79 0 010-.825c8.253-14.123 12.534-29.741 12.482-45.204-.052-8.813-.155-35.72-18.62-50.667-8.458-6.855-16.814-8.195-33.474-10.36-12.378-1.598-27.336.722-46.368 3.66-10.522 1.65-22.436 3.453-35.331 4.793-20.476 2.114-36.878 17.834-39.818 38.194l-.052.361-12.842 107.416z" fill="#000"/><path d="M464.955 224.041l12.998-47.627a26.025 26.025 0 0114.132-16.803l15.938-7.474c-.877-4.381-1.754-8.813-2.579-13.195l-90.107 22.679c-5.519 20.979-10.986 42.008-16.505 62.987 22.024-.207 44.099-.361 66.123-.567z" fill="#FF6EC1"/><path d="M398.781 225.33a.736.736 0 01-.619-.309.781.781 0 01-.154-.67l16.505-62.986c.051-.258.309-.464.567-.567l90.107-22.679c.206-.052.412 0 .619.103a.95.95 0 01.361.515l2.579 13.195c.051.361-.103.722-.413.825l-15.938 7.474c-6.756 3.196-11.759 9.123-13.668 16.339l-12.997 47.626c-.104.31-.413.567-.723.567l-66.226.567zm17.124-63.089l-16.144 61.594 64.576-.515 12.843-47.059a26.847 26.847 0 0114.545-17.319l15.37-7.216-2.321-11.803-88.869 22.318z" fill="#000"/><path d="M529.324 188.425c.31 11.958.568 23.916.877 35.874 20.27-.103 40.54-.258 60.759-.361-8.717-34.998-17.382-69.996-26.099-104.994l-3.971 16.597" fill="#F9D84E"/><path d="M493.218 182.6a5.773 5.773 0 100-11.545 5.773 5.773 0 100 11.545z" fill="#fff"/><path d="M493.218 183.425c-3.61 0-6.55-2.938-6.55-6.546s2.94-6.546 6.55-6.546c3.611 0 6.551 2.938 6.551 6.546a6.525 6.525 0 01-6.551 6.546zm0-11.597a5.006 5.006 0 00-5.003 5c0 2.731 2.27 4.999 5.003 4.999 2.734 0 5.003-2.268 5.003-4.999 0-2.732-2.217-5-5.003-5z" fill="#000"/><path d="M173.282 323.829c9.116 0 16.505-7.384 16.505-16.494s-7.389-16.494-16.505-16.494c-9.115 0-16.505 7.384-16.505 16.494s7.39 16.494 16.505 16.494z" fill="#349948"/><path d="M173.283 324.602c-9.542 0-17.279-7.732-17.279-17.268 0-9.535 7.737-17.267 17.279-17.267 9.541 0 17.278 7.732 17.278 17.267 0 9.536-7.737 17.268-17.278 17.268zm0-32.988c-8.666 0-15.732 7.061-15.732 15.72 0 8.66 7.066 15.721 15.732 15.721 8.665 0 15.731-7.061 15.731-15.721 0-8.659-7.066-15.72-15.731-15.72z" fill="#000"/><path d="M445.612 171.775c25.495 0 46.162-20.653 46.162-46.131 0-25.477-20.667-46.131-46.162-46.131-25.495 0-46.163 20.654-46.163 46.131 0 25.478 20.668 46.131 46.163 46.131z" fill="#3FD1FF"/><path d="M445.612 172.548c-25.892 0-46.936-21.029-46.936-46.904 0-25.875 21.044-46.905 46.936-46.905s46.936 21.03 46.936 46.905-21.095 46.904-46.936 46.904zm0-92.262c-25.016 0-45.389 20.359-45.389 45.358 0 24.998 20.373 45.358 45.389 45.358 25.016 0 45.389-20.36 45.389-45.358 0-24.999-20.373-45.358-45.389-45.358z" fill="#000"/><path d="M427.61 167.755l-6.292 15.411c-1.754 4.278.774 9.072 5.312 10.051 3.405.722 6.809-.979 8.253-4.123l12.998-28.143" fill="#3FD1FF"/><path d="M428.229 194.145a7.052 7.052 0 01-1.754-.206c-2.372-.515-4.384-2.01-5.518-4.175-1.135-2.165-1.238-4.639-.361-6.907l6.292-15.36c.155-.412.619-.567 1.032-.412.412.155.567.619.412 1.031l-6.292 15.36c-.722 1.804-.619 3.866.258 5.618.876 1.753 2.527 2.99 4.487 3.402 3.043.67 6.086-.876 7.427-3.711l12.998-28.143c.155-.412.619-.567 1.031-.361.413.155.568.619.361 1.031l-12.997 28.143a8.12 8.12 0 01-7.376 4.69z" fill="#000"/><path d="M488.269 119.511c2.991.618 5.518 1.237 8.51 1.855 4.745.98 8.613 4.588 9.645 9.381.567 2.68.258 5.567-1.032 8.196l-1.495 2.938c-2.785 5.515-9.181 8.143-15.01 6.185-1.805-.619-3.558-1.186-5.364-1.804l2.94-13.917" fill="#3FD1FF"/><path d="M492.807 149.406c-1.393 0-2.785-.206-4.126-.67l-5.364-1.804c-.361-.103-.568-.515-.516-.876l2.94-13.917c.103-.412.516-.67.928-.618a.847.847 0 01.619.928l-2.785 13.246 4.693 1.598c5.416 1.804 11.502-.67 14.081-5.773l1.496-2.938c1.238-2.422 1.547-5.051.98-7.68-.928-4.381-4.487-7.783-9.078-8.762-1.495-.309-2.888-.619-4.281-.928-1.392-.309-2.733-.618-4.281-.928a.848.848 0 01-.619-.927.849.849 0 01.929-.619c1.496.309 2.888.619 4.281.928 1.392.309 2.733.618 4.281.928 5.158 1.082 9.181 4.999 10.264 9.947.619 2.99.258 5.979-1.135 8.711l-1.496 2.938c-2.321 4.536-6.963 7.216-11.811 7.216z" fill="#000"/><path d="M402.596 111.934c-3.043.051-5.674.103-8.717.154-4.848.052-9.387 2.835-11.296 7.268-1.083 2.525-1.392 5.36-.567 8.247l.877 3.195a12.385 12.385 0 0013.513 8.969c1.857-.258 3.766-.464 5.622-.722l-.154-14.226" fill="#3FD1FF"/><path d="M394.858 140.643c-5.828 0-11.141-3.917-12.74-9.638l-.877-3.196c-.825-2.938-.619-5.979.619-8.762 2.012-4.639 6.757-7.68 12.018-7.732 1.547 0 2.94-.052 4.332-.052 1.445-.051 2.837-.051 4.385-.051.412 0 .773.361.773.773a.793.793 0 01-.773.773c-1.548 0-2.94.052-4.385.052-1.392.051-2.836.051-4.332.051-4.642.052-8.82 2.732-10.625 6.804-1.083 2.474-1.238 5.103-.516 7.732l.877 3.195c1.547 5.515 6.963 9.123 12.636 8.453l4.952-.618-.155-13.556c0-.412.361-.773.774-.773.412 0 .774.361.774.773l.154 14.226a.78.78 0 01-.67.773l-5.622.722c-.516 0-1.083.051-1.599.051z" fill="#000"/><path d="M260.705 55.7l27.595 69.016c2.836 7.113 4.178-6.597 11.089-9.896l2.269-1.082c6.499-3.093 9.336-10.825 6.345-17.37L285.05 45.34c-3.868-8.557-15.164-10.515-21.663-3.66a13.253 13.253 0 00-2.682 14.02z" fill="#3FD1FF"/><path d="M289.899 127.5h-.103c-1.135-.052-1.754-1.392-2.218-2.526l-27.594-69.017c-2.012-5.05-.877-10.875 2.837-14.793 3.198-3.401 7.891-4.948 12.482-4.175 4.59.774 8.51 3.815 10.418 8.041l22.953 51.028c3.094 6.907.051 15.102-6.757 18.35l-2.27 1.082c-3.043 1.443-5.003 5.206-6.447 7.989-1.186 2.423-2.011 4.021-3.301 4.021zm-28.471-72.11l27.594 69.017c.465 1.186.774 1.443.877 1.546.464-.206 1.341-1.907 2.012-3.195 1.547-2.938 3.662-7.01 7.169-8.66l2.27-1.082c6.086-2.886 8.768-10.206 5.983-16.34L284.38 45.65c-1.702-3.815-5.157-6.443-9.284-7.165-4.074-.721-8.252.67-11.141 3.711-3.352 3.557-4.332 8.711-2.527 13.195z" fill="#000"/><path d="M250.027 116.83l38.736 40.513c5.312 5.515 14.132 5.412 19.341-.206l1.702-1.856c4.849-5.308 4.591-13.504-.619-18.504L268.75 98.068c-6.808-6.494-18-4.02-21.456 4.691-1.909 4.896-.825 10.36 2.733 14.071z" fill="#3FD1FF"/><path d="M298.305 162.24c-3.869 0-7.428-1.546-10.11-4.33l-38.735-40.513c-3.765-3.917-4.9-9.741-2.888-14.793 1.702-4.33 5.467-7.525 10.006-8.556 4.539-1.03 9.284.31 12.688 3.557l40.437 38.709c5.468 5.206 5.726 14.019.619 19.586l-1.702 1.856c-2.63 2.886-6.241 4.484-10.161 4.536-.051-.052-.103-.052-.154-.052zM259.57 95.285c-.877 0-1.806.103-2.682.31-4.075.876-7.376 3.71-8.923 7.576-1.754 4.485-.774 9.69 2.578 13.144l38.736 40.513c2.424 2.526 5.673 3.917 9.129 3.866 3.507-.052 6.705-1.495 9.078-4.021l1.702-1.855c4.538-4.948 4.281-12.731-.568-17.422l-40.437-38.709c-2.321-2.216-5.416-3.402-8.613-3.402z" fill="#000"/><path d="M259.468 34.103l27.594 69.017c2.837 7.113 4.178-6.598 11.089-9.897l2.269-1.082c6.499-3.093 9.336-10.824 6.345-17.37l-22.953-51.028c-3.868-8.556-15.164-10.515-21.662-3.66-3.508 3.763-4.591 9.227-2.682 14.02z" fill="#3FD1FF"/><path d="M288.661 105.903h-.103c-1.135-.052-1.754-1.392-2.218-2.526l-27.594-69.016c-2.012-5.051-.877-10.876 2.836-14.793 3.198-3.402 7.892-4.948 12.482-4.175a14.022 14.022 0 0110.419 8.04l22.952 51.029c3.095 6.906.052 15.102-6.756 18.349l-2.27 1.082c-3.043 1.444-5.003 5.206-6.447 7.99-1.135 2.422-2.012 4.02-3.301 4.02zm-28.471-72.11l27.594 69.017c.464 1.186.774 1.444.877 1.547.464-.207 1.341-1.907 2.011-3.196 1.548-2.938 3.662-7.01 7.17-8.66l2.269-1.082c6.086-2.886 8.768-10.205 5.983-16.339l-22.952-51.028c-1.702-3.814-5.158-6.443-9.284-7.165-4.075-.67-8.252.67-11.141 3.712-3.301 3.556-4.332 8.71-2.527 13.195z" fill="#000"/><path d="M297.274 173.682a106.363 106.363 0 01-10.11-30.926c-4.126-25.514 2.218-46.234 6.241-56.543l-16.917-47.368c-1.754-4.845-.516-10.257 3.197-13.917 6.706-6.597 17.95-4.278 21.508 4.433l10.265 25.101c2.682 6.598 8.819 21.7 11.501 28.35 5.313 13.143 12.121 29.843 17.434 42.987l10.057 27.369c5.107 13.968-1.547 29.483-15.215 35.359-.155.051-.309.154-.464.206-12.74 5.515-27.594.825-34.919-10.979l-2.578-4.072z" fill="#3FD1FF"/><path d="M323.632 191.825c-2.889 0-5.829-.463-8.614-1.34a28.58 28.58 0 01-15.834-12.319l-2.528-4.072s0-.051-.051-.051c-5.003-9.896-8.407-20.36-10.161-31.132-3.817-23.659 1.238-43.864 6.189-56.698l-16.866-47.06c-1.857-5.102-.516-10.875 3.353-14.689 3.352-3.299 8.046-4.69 12.636-3.711 4.591.928 8.356 4.072 10.161 8.401l10.264 25.102c2.682 6.65 8.82 21.7 11.502 28.349 5.313 13.144 12.121 29.844 17.434 42.987l10.057 27.37c5.261 14.329-1.599 30.307-15.628 36.338l-.464.206c-3.662 1.495-7.53 2.319-11.45 2.319zm-25.686-18.504l2.527 4.072c7.066 11.391 21.663 15.979 33.938 10.67l.465-.206c13.255-5.722 19.754-20.824 14.803-34.38l-10.058-27.369c-5.313-13.092-12.121-29.844-17.434-42.988-2.682-6.597-8.819-21.7-11.501-28.349L300.422 29.67c-1.599-3.866-4.952-6.65-9.027-7.474-4.074-.825-8.252.412-11.244 3.299a12.451 12.451 0 00-2.991 13.092l16.969 47.317a.871.871 0 010 .515c-4.952 12.68-10.006 32.679-6.241 56.182a108.422 108.422 0 0010.058 30.72z" fill="#000"/><path d="M239.661 76.42H105.559v81.954h134.102V76.42z" fill="#F15922"/><path d="M239.662 159.147H105.559a.793.793 0 01-.774-.773V76.42c0-.413.361-.773.774-.773h134.103c.412 0 .773.36.773.773v81.954a.793.793 0 01-.773.773zm-133.33-1.547h132.556V77.193H106.332V157.6z" fill="#000"/><path d="M172.608 117.912c-.154 0-.258-.051-.412-.103l-67.052-40.72c-.361-.205-.464-.72-.258-1.082.207-.36.722-.464 1.084-.257l66.638 40.461 66.639-40.461a.826.826 0 011.083.257.825.825 0 01-.258 1.083l-67.051 40.719c-.155.052-.31.103-.413.103z" fill="#000"/><path d="M239.66 159.147c-.155 0-.258-.051-.413-.103l-66.639-40.977-66.638 40.977a.827.827 0 01-1.084-.257.826.826 0 01.258-1.083l67.052-41.235a.794.794 0 01.825 0l67.051 41.235c.361.206.464.722.258 1.083-.155.206-.412.36-.67.36zm216.938-7.37a2.069 2.069 0 00-2.063 2.062c0 1.134.929 2.062 2.063 2.062a2.068 2.068 0 002.063-2.062 2.068 2.068 0 00-2.063-2.062zm-30.945-2.577a2.068 2.068 0 00-2.063 2.062c0 1.134.928 2.062 2.063 2.062a2.068 2.068 0 002.063-2.062 2.068 2.068 0 00-2.063-2.062zm166.081 74.583l-26.099-105.045c-.103-.361-.413-.567-.774-.567-.361 0-.67.258-.773.618l-3.972 16.597a.768.768 0 101.496.361l3.198-13.504 25.067 100.973-59.006.361-.825-35.152a.793.793 0 00-.773-.774.793.793 0 00-.774.774l.103 3.762c-1.857 5.979-5.003 13.711-10.625 21.648a77.409 77.409 0 01-9.129 10.721c6.86-.36 13.668-.67 20.528-1.03v.773c0 .412.361.773.773.773l60.759-.361a.736.736 0 00.619-.309.593.593 0 00.207-.619zM469.596 99.203a37.897 37.897 0 00-15.526 4.021 36.455 36.455 0 00-8.819 6.236c-1.084-12.112 6.808-23.71 6.911-23.864.258-.361.155-.825-.206-1.083-.361-.257-.825-.154-1.083.206-.361.516-8.201 12.01-7.221 24.535-2.682-3.505-5.932-6.597-9.645-8.968a37.262 37.262 0 00-12.74-5.155c-.413-.103-.825.206-.929.619-.103.412.207.824.619.927 4.385.877 8.459 2.578 12.224 4.949 3.972 2.525 7.428 5.927 10.11 9.793l-.155.155c-.052.051-.052.051-.052.103-.154-.052-.309-.052-.464-.103a.493.493 0 00-.464.103c-4.642.051-9.336.927-13.617 2.68a36.696 36.696 0 00-11.605 7.371.797.797 0 00-.051 1.082.826.826 0 00.567.258.666.666 0 00.516-.206 35.896 35.896 0 0111.089-7.062c4.333-1.752 9.129-2.629 13.823-2.577l.774.155-3.25 20.668c-.051.413.207.825.619.877h.103a.776.776 0 00.774-.67l3.25-20.566a35.667 35.667 0 019.541 3.866c4.436 2.577 8.305 6.185 11.296 10.411.155.207.413.31.619.31a.833.833 0 00.464-.155c.361-.258.413-.722.206-1.082-3.094-4.433-7.169-8.144-11.759-10.876a35.705 35.705 0 00-10.006-4.02.445.445 0 000-.361c-.052-.155-.052-.31-.052-.464 2.734-2.732 5.828-5 9.284-6.752 4.59-2.32 9.697-3.66 14.855-3.815.412 0 .773-.36.722-.824.051-.413-.31-.722-.722-.722z" fill="#000"/><path d="M591.578 113.738v228.698c0 10.927 8.871 19.793 19.806 19.793h373.58c10.934 0 19.806-8.866 19.806-19.793 0-5.979-2.68-11.649-7.376-15.411l-49.618-40.153c-15.319-12.422-24.242-31.029-24.242-50.77V113.738c0-10.927-8.871-19.793-19.806-19.793H611.332c-10.882-.051-19.754 8.866-19.754 19.793z" fill="#fff"/><path d="M985.014 363.001H611.435c-11.347 0-20.58-9.226-20.58-20.565V113.738c0-11.34 9.233-20.566 20.58-20.566h292.396c11.347 0 20.579 9.226 20.579 20.566v122.415c0 19.587 8.717 37.833 23.932 50.152l49.618 40.152a20.448 20.448 0 017.63 15.979c0 11.339-9.228 20.565-20.576 20.565zM611.435 94.667c-10.522 0-19.032 8.556-19.032 19.019v228.75c0 10.515 8.562 19.019 19.032 19.019h373.579c10.522 0 19.036-8.556 19.036-19.019 0-5.773-2.58-11.185-7.069-14.793l-49.619-40.153c-15.576-12.628-24.499-31.338-24.499-51.337V113.738c0-10.515-8.562-19.02-19.032-19.02H611.435v-.051z" fill="#000"/><path d="M649.707 362.125c19.29-.36 38.632-.721 57.922-1.03 20.941-25.669 41.83-51.338 62.771-76.955-2.786-6.443-6.912-14.483-13.153-22.937-6.705-9.02-14.751-14.947-20.425-19.638a16807.89 16807.89 0 01-28.677 33.71c-19.497 28.967-38.941 57.935-58.438 86.85z" fill="#FF6EC1"/><path d="M649.705 362.898c-.258 0-.567-.154-.67-.412-.155-.258-.103-.567.051-.825l58.49-86.851.051-.051 28.678-33.71c.258-.309.773-.36 1.083-.103.774.67 1.65 1.341 2.527 2.011 5.467 4.381 12.276 9.845 18.052 17.731 5.261 7.164 9.749 14.896 13.256 23.091a.821.821 0 01-.103.773l-62.874 77.006a1.238 1.238 0 01-.567.31l-57.974 1.03zm59.057-87.16l-57.612 85.614 56.116-1.031 62.255-76.336a112.43 112.43 0 00-12.895-22.369c-5.673-7.68-12.43-13.092-17.794-17.422-.67-.515-1.289-1.031-1.908-1.546l-28.162 33.09z" fill="#000"/><path d="M750.129 277.491c-5.467.361-11.811.412-18.774-.206a116.36 116.36 0 01-28.832-6.34c-.567-.876-1.547-2.732-1.599-5.155-.103-4.845 3.61-7.885 4.126-8.298-.155-2.783-.051-8.659 3.456-14.432 5.467-9.02 17.124-14.329 27.543-11.597 8.407 2.216 12.894 8.762 14.132 10.721 9.954 15.05.567 34.018-.052 35.307z" fill="#349948"/><path d="M742.084 278.522c-3.611 0-7.221-.155-10.78-.464-9.851-.877-19.651-3.041-29.038-6.34a.807.807 0 01-.413-.309 10.57 10.57 0 01-1.702-5.516c-.103-4.535 2.94-7.628 4.075-8.659-.155-3.763.361-9.226 3.558-14.484 5.777-9.535 18.001-14.638 28.42-11.906 4.023 1.082 9.851 3.814 14.597 11.03 10.264 15.515.361 35.204-.052 36.029a.67.67 0 01-.619.412c-2.63.103-5.364.207-8.046.207zm-39.045-8.196c9.181 3.247 18.775 5.309 28.42 6.185 6.034.567 12.121.619 18.207.258 1.392-2.886 9.077-20.308-.052-34.07-4.487-6.804-9.903-9.381-13.72-10.36-9.799-2.578-21.25 2.268-26.717 11.236-3.095 5.103-3.507 10.412-3.352 13.968 0 .258-.104.464-.31.67-.67.516-3.868 3.351-3.817 7.68.052 1.804.722 3.402 1.341 4.433z" fill="#000"/><path d="M764.725 234.658l34.041 6.185c5.261 6.701 14.958 21.288 12.946 38.091-.567 4.845-2.063 9.278-2.837 11.649-3.816 11.494-9.645 20.05-14.441 25.771 2.682.928 7.169 2.938 11.45 7.113 5.364 5.206 7.479 10.979 8.304 13.814a48.393 48.393 0 017.891 9.845c3.198 5.309 4.746 10.257 5.571 13.762H705.926c.567-3.041 1.857-7.68 4.745-12.577 3.043-5.206 6.602-8.659 9.078-10.669.877-2.732 2.785-7.319 6.705-11.855 4.384-5 9.232-7.526 11.966-8.711-1.083-.516-6.808-3.247-9.181-9.948-1.96-5.464-.516-10.154 0-11.597-3.92-4.33-5.828-8.505-6.808-11.288-5.364-15.154 1.341-32.936 12.636-41.493 3.043-2.319 5.932-3.505 8.408-4.535 8.562-3.557 16.453-3.815 21.25-3.557z" fill="#349948"/><path d="M827.65 361.713H705.926a.952.952 0 01-.619-.258c-.155-.154-.206-.412-.155-.618.877-4.536 2.476-8.866 4.797-12.835 2.373-4.072 5.467-7.68 9.078-10.721 1.444-4.432 3.765-8.401 6.808-11.906a35.138 35.138 0 0110.78-8.247c-2.373-1.392-6.293-4.381-8.201-9.69-1.754-4.897-.929-9.278-.155-11.649-2.991-3.402-5.209-7.165-6.653-11.185-5.674-16.082 2.114-34.173 12.894-42.369 3.146-2.371 6.138-3.659 8.562-4.639 6.757-2.834 14.029-4.072 21.611-3.659h.103l34.042 6.185a.755.755 0 01.464.309c7.015 8.969 14.958 22.937 13.101 38.658-.568 4.793-2.063 9.226-2.837 11.597l-.052.206c-2.991 9.072-7.685 17.577-13.874 25.205 3.971 1.598 7.685 3.969 10.728 6.907 4.952 4.793 7.324 10.205 8.459 13.968a48.602 48.602 0 017.891 9.896 47.414 47.414 0 015.674 14.02.818.818 0 01-.155.67c-.103 0-.309.155-.567.155zm-120.744-1.546h119.815a47.436 47.436 0 00-5.261-12.629c-2.166-3.556-4.745-6.803-7.788-9.69a.824.824 0 01-.206-.361 31.158 31.158 0 00-8.098-13.504 31.509 31.509 0 00-11.192-6.958c-.258-.103-.413-.258-.464-.516a.894.894 0 01.154-.721c6.448-7.68 11.244-16.288 14.287-25.514l.052-.206c.774-2.32 2.218-6.65 2.785-11.288 1.805-15.051-5.828-28.555-12.585-37.318l-33.68-6.134c-7.324-.36-14.391.825-20.889 3.557-2.476 1.031-5.21 2.165-8.201 4.433-10.367 7.834-17.795 25.204-12.379 40.616 1.393 3.969 3.662 7.68 6.654 11.03a.72.72 0 01.154.773c-.722 2.062-1.702 6.289 0 11.082 2.167 6.082 7.273 8.814 8.82 9.536.258.103.464.412.464.721 0 .31-.206.567-.464.722-4.436 1.907-8.51 4.897-11.708 8.505-2.94 3.401-5.158 7.267-6.55 11.597-.052.154-.155.258-.258.361-3.559 2.938-6.602 6.443-8.923 10.463a34.293 34.293 0 00-4.539 11.443z" fill="#000"/><path d="M765.191 322.541h-2.012c-8.51-.206-16.917-1.804-25.015-4.691-.413-.154-.619-.567-.464-.979.155-.412.567-.619.98-.464a78.074 78.074 0 0024.499 4.587c10.677.258 21.147-1.597 31.153-5.618a.763.763 0 01.98.413c.155.36-.051.824-.412.979-9.542 3.866-19.497 5.773-29.709 5.773z" fill="#000"/><path d="M893.309 318.881L812.95 238.01c-6.241-6.289-15.783-8.299-23.881-4.691a21.114 21.114 0 00-7.839 6.031c-.104.103-.155.206-.258.309l-.465.618c-7.943 10.464-7.117 25.154 1.754 34.844 22.024 24.174 44.048 48.399 66.072 72.573-39.303 40.204-70.301 67.264-79.792 72.006-.309.155-.619.31-.877.413-5.725 2.68-12.069 3.711-18.361 3.247-2.631-.206-5.261-.052-7.892.361l-71.384 9.072c-4.951.773-8.51 5.102-8.252 10.102.258 5.515 4.075 12.01 9.593 11.597l31.102-2.165-28.677 27.422c-2.889 2.731-4.127 6.855-2.992 10.617.361 1.186.877 2.268 1.651 3.248 1.598 2.113 3.971 3.453 6.55 3.969 3.765.721 7.582-.722 10.161-3.557 6.034-6.598 12.121-13.195 18.155-19.844.155 4.02 2.115 5.618 5.055 8.35 5.364 4.896 10.677 9.845 16.041 14.741 4.229 3.866 10.779 3.557 14.648-.67 3.868-4.226 3.559-10.772-.671-14.638l-10.728-8.917 46.214-2.783c-8.407 9.432-15.628 16.751-23.726 25.72-4.487 4.948-3.92 12.834 1.444 16.803.155.154.361.258.568.361 2.785 1.855 6.137 2.422 9.284 1.752 2.63-.515 4.951-2.062 6.55-4.226a663.52 663.52 0 0160.604-68.502 678.452 678.452 0 0159.109-51.801c10.934-8.505 17.485-21.545 17.381-35.359 0-.412 0-.825-.051-1.289-.722-19.638-12.946-32.163-15.731-34.843z" fill="#FF6EC1"/><path d="M762.867 516.035a12.86 12.86 0 01-7.169-2.165c-.207-.155-.413-.258-.568-.412-2.682-2.011-4.384-4.949-4.745-8.35a12.362 12.362 0 013.146-9.587c3.559-3.918 7.015-7.577 10.316-11.134a901.249 901.249 0 0012.172-13.195l-42.397 2.526 9.233 7.628a11.211 11.211 0 013.662 7.732c.154 2.989-.877 5.824-2.889 8.04-2.011 2.217-4.745 3.505-7.736 3.608-2.992.103-5.829-.876-8.046-2.886l-16.402-15.102c-2.321-2.165-4.127-3.814-4.745-6.804l-17.021 18.607c-2.785 3.093-6.963 4.536-10.883 3.763-2.889-.567-5.364-2.062-7.015-4.278a10.68 10.68 0 01-1.753-3.505c-1.187-3.969.103-8.453 3.197-11.391l27.13-25.927-28.986 2.062c-2.064.155-4.127-.567-5.829-2.165-2.579-2.319-4.384-6.34-4.539-10.205-.257-5.361 3.611-10.051 8.923-10.876l71.384-9.072c2.682-.412 5.416-.567 8.047-.36 6.395.464 12.636-.67 18-3.196.31-.155.568-.258.877-.412 9.026-4.536 39.045-30.463 79.069-71.337l-65.555-72.006c-9.181-10.103-9.903-25.153-1.754-35.823l.464-.618.258-.31c2.218-2.731 4.951-4.845 8.149-6.236 8.253-3.711 18.207-1.753 24.758 4.845l80.358 80.871c4.591 4.433 15.267 16.804 15.886 35.514 0 .412 0 .876.052 1.288.103 13.814-6.499 27.267-17.691 35.978-20.58 16.03-40.438 33.4-59.006 51.75-21.611 21.339-41.984 44.327-60.501 68.398-1.805 2.319-4.281 3.917-7.014 4.484-1.083.155-1.96.258-2.837.258zm14.958-46.492c.309 0 .567.154.67.412.155.258.103.619-.103.876-4.745 5.309-9.181 10.051-13.462 14.639-3.301 3.556-6.757 7.216-10.315 11.133a10.775 10.775 0 00-2.734 8.35c.309 2.938 1.754 5.515 4.126 7.268.155.103.361.257.516.36 2.579 1.701 5.673 2.268 8.717 1.65 2.372-.464 4.538-1.907 6.086-3.918a677.97 677.97 0 0160.656-68.604c18.619-18.349 38.528-35.822 59.159-51.853 10.78-8.402 17.176-21.39 17.073-34.74v-1.237c-.619-18.144-10.986-30.102-15.422-34.431l-80.359-80.872c-6.086-6.133-15.37-7.937-23.003-4.536a20.95 20.95 0 00-7.582 5.825l-.258.309c-.155.206-.31.361-.464.567-7.685 10.103-6.963 24.329 1.702 33.864l66.071 72.573a.854.854 0 010 1.083c-40.386 41.337-70.817 67.573-79.997 72.161l-.929.464c-5.622 2.628-12.121 3.762-18.774 3.298a35.774 35.774 0 00-7.737.361l-71.384 9.072a8.967 8.967 0 00-7.582 9.278c.155 3.505 1.754 7.061 4.023 9.123 1.444 1.288 3.043 1.855 4.694 1.752l31.101-2.164c.31-.052.619.154.774.463.155.31.052.671-.155.877l-28.677 27.421c-2.682 2.577-3.817 6.443-2.785 9.845a9.032 9.032 0 001.496 2.989c1.444 1.907 3.61 3.196 6.086 3.66 3.352.67 7.014-.619 9.438-3.299l18.156-19.844c.206-.207.567-.31.825-.206.31.103.516.36.516.67.155 3.504 1.754 4.999 4.436 7.473l16.402 15.103c1.908 1.752 4.332 2.628 6.911 2.525a9.528 9.528 0 006.653-3.092c1.754-1.908 2.631-4.33 2.528-6.907a9.516 9.516 0 00-3.095-6.649l-10.676-8.866c-.258-.206-.362-.515-.258-.825.103-.309.361-.515.67-.515l46.266-2.886s-.052 0 0 0z" fill="#000"/><path d="M771.793 265.945c3.043 4.794 7.53 7.113 9.955 8.144a104.77 104.77 0 0022.075-1.031c17.33-2.732 30.483-9.432 38.735-14.587-7.53-5.154-15.009-10.257-22.54-15.411-.567-2.732-2.217-8.35-7.117-13.041-7.737-7.37-20.477-9.226-29.606-3.969-6.396 3.66-8.975 9.639-10.831 14.02" fill="#349948"/><path d="M787.935 275.068c-2.115 0-4.178-.051-6.292-.206-.103 0-.155 0-.258-.051-4.436-1.907-7.995-4.794-10.264-8.453-.207-.361-.103-.825.258-1.083a.826.826 0 011.083.258c2.114 3.35 5.364 6.03 9.49 7.783 7.273.412 14.597.103 21.766-1.031 13.204-2.062 25.789-6.752 37.446-13.865l-21.56-14.742a.745.745 0 01-.309-.463c-.774-3.505-2.579-8.505-6.912-12.629-7.582-7.216-19.961-8.865-28.729-3.814-6.189 3.557-8.665 9.381-10.522 13.659-.154.413-.619.567-1.031.413-.413-.155-.568-.619-.413-1.031 1.909-4.485 4.539-10.567 11.193-14.381 9.335-5.36 22.488-3.659 30.534 4.072 4.487 4.278 6.447 9.432 7.272 13.144l22.282 15.205c.206.155.361.412.361.67 0 .258-.155.515-.361.619-12.121 7.576-25.222 12.525-38.993 14.741a111.471 111.471 0 01-16.041 1.185z" fill="#000"/><path d="M718.15 201.877l-4.385 8.711c-1.753 3.453.465 7.628 4.281 8.195l25.377 3.608-25.273-20.514z" fill="#F9D84E"/><path d="M743.475 223.165h-.103l-25.377-3.608a6.457 6.457 0 01-4.796-3.402 6.39 6.39 0 01-.052-5.876l4.384-8.711a.822.822 0 01.516-.412.821.821 0 01.67.155l25.274 20.514c.258.206.361.567.206.928-.155.206-.464.412-.722.412zm-25.067-20.102l-3.92 7.886c-.722 1.444-.722 3.041.052 4.485.722 1.443 2.063 2.371 3.662 2.577l22.591 3.247-22.385-18.195z" fill="#000"/><path d="M727.434 177.188l-7.736.309c-4.075.154-7.84 2.628-9.336 6.443-.825 2.113-1.031 4.587-.258 6.958l.825 2.68c1.548 4.948 6.499 8.041 11.606 7.216 1.547-.257 3.146-.515 4.693-.773" fill="#FF6EC1"/><path d="M720.937 201.67c-4.848 0-9.284-3.144-10.728-7.886l-.825-2.68c-.774-2.474-.671-5.051.258-7.474 1.598-4.02 5.518-6.752 10.006-6.907l7.736-.309c.413-.051.774.309.826.722 0 .412-.31.773-.722.824l-7.737.31c-3.868.154-7.273 2.474-8.665 5.927a9.527 9.527 0 00-.258 6.443l.825 2.68c1.444 4.536 6.035 7.423 10.78 6.649l4.693-.773c.413-.051.826.206.877.619.052.412-.206.824-.619.876l-4.693.773c-.568.155-1.187.206-1.754.206z" fill="#000"/><path d="M774.888 166.157c-3.713-4.175-7.84-7.01-11.502-8.917-10.315.825-20.631 1.701-30.895 2.526-1.857 1.34-5.312 4.278-7.737 9.175-.206 5.257-2.475 8.04-2.579 10.257-7.066 13.504-5.003 28.812 4.127 37.111 7.375 6.752 17.02 6.598 19.806 6.494.464 7.113.825 7.474 1.238 13.659-3.353 2.423-8.408 6.65-12.792 13.35a50.062 50.062 0 00-7.221 17.525l11.605.618c9.697.516 18.723-4.638 23.314-13.195l.154-.309c4.281-7.938 9.078-14.02 13.204-18.401.052-1.855.103-2.938.103-3.659 0-.207.052-1.238.104-2.629 0-.155 0-.103.103-2.629.103-1.804.206-5.464.361-8.762l8.046-10.618c.825-3.711 4.642-25.669-9.439-41.596z" fill="#FF6EC1"/><path d="M740.277 268.781c-.464 0-.876 0-1.341-.052l-11.605-.618c-.206 0-.412-.104-.567-.31-.155-.154-.206-.412-.155-.618a50.354 50.354 0 017.324-17.783c3.404-5.154 7.634-9.638 12.637-13.298-.206-2.629-.361-4.175-.568-5.67-.206-1.701-.412-3.505-.618-6.855-4.127.103-12.843-.567-19.6-6.701-9.594-8.762-11.399-24.276-4.384-37.884.051-.928.464-1.959.877-3.093.67-1.752 1.547-3.968 1.65-7.009 0-.104.052-.207.103-.31 1.806-3.711 4.591-7.01 7.943-9.484a.586.586 0 01.413-.154l30.895-2.526c.155 0 .31 0 .413.103a40.931 40.931 0 0111.708 9.123c13.565 15.309 10.883 36.235 9.748 42.266 0 .103-.051.206-.155.309l-7.943 10.463c-.103 1.753-.154 3.557-.206 5.103a141.98 141.98 0 01-.155 3.402c-.103 1.856-.103 2.32-.103 2.474v.155c-.051 1.031-.103 1.855-.103 2.319v.31a63.754 63.754 0 00-.103 3.608c0 .206-.103.36-.206.515-5.107 5.515-9.542 11.649-13.05 18.246l-.154.258c-4.488 8.453-13.256 13.711-22.695 13.711zm-11.966-2.165l10.728.567c9.336.515 18.156-4.536 22.592-12.783l.154-.309c3.559-6.649 7.995-12.783 13.101-18.35.052-1.391.052-2.525.103-3.402v-.309c0-.464.052-1.288.103-2.319v-.155c0-.206.052-.67.104-2.526.051-.824.103-2.01.154-3.401.052-1.65.155-3.557.207-5.361 0-.155.051-.309.154-.412l7.943-10.464c1.135-6.082 3.611-26.132-9.387-40.77a39.932 39.932 0 00-11.089-8.66l-30.483 2.526a24.24 24.24 0 00-7.22 8.608c-.155 3.247-1.032 5.515-1.754 7.37-.413 1.134-.774 2.011-.825 2.732 0 .103-.052.206-.104.309-6.808 12.989-5.157 27.885 3.972 36.184 6.808 6.185 15.731 6.443 19.238 6.288.413 0 .774.309.826.722.258 3.763.464 5.67.67 7.525.207 1.598.361 3.247.568 6.185 0 .258-.104.516-.31.67-5.003 3.557-9.232 7.99-12.585 13.144-3.249 5.051-5.57 10.566-6.86 16.391z" fill="#000"/><path d="M772.464 202.186c.052.154-.051.154-.051.309-.774 4.329-.413 7.834.515 10.669a8.35 8.35 0 008.717 5.773c6.344-.567 12.688-1.185 19.032-1.752 4.023-.361 6.293-4.845 4.178-8.299-4.384-7.113-8.562-15.721-11.45-25.72a89.19 89.19 0 01-2.012-8.144v-.825c0-1.546.207-3.092.568-4.587.773-3.041 1.599-9.175-2.115-14.587-3.714-5.463-8.459-8.247-14.854-7.164-2.631.412-5.313.361-7.84-.361-20.374-6.031-38.168-1.443-42.81 8.041-.722 1.495-3.817 5.412-2.527 12.061.464 2.319.464 4.02.722 6.391.154 1.34.515 3.402.258 4.742 5.003-4.278 8.407-8.607 13.41-12.886a27.528 27.528 0 005.673 5.155c11.967 8.041 26.976 9.535 30.174 8.504-1.032 16.185-.568 18.298.412 22.68z" fill="#F9D84E"/><path d="M780.82 219.762c-3.92 0-7.427-2.525-8.665-6.34-1.083-3.35-1.238-7.061-.568-11.081 0-.052 0-.103.052-.155-.928-4.175-1.393-6.494-.516-21.751-4.9.618-18.62-1.34-29.76-8.814-1.96-1.289-3.714-2.887-5.313-4.691-2.218 1.959-4.178 3.969-6.086 5.876-2.063 2.114-4.229 4.33-6.757 6.495-.258.206-.619.257-.877.103-.309-.155-.412-.516-.361-.825.207-.928 0-2.319-.154-3.505-.052-.361-.104-.721-.104-1.031-.051-.67-.103-1.288-.154-1.855-.103-1.495-.207-2.784-.568-4.433-1.134-5.979 1.135-9.896 2.218-11.803.155-.31.31-.516.413-.722 5.106-10.515 24.345-14.226 43.738-8.453 2.269.67 4.797.773 7.479.361 6.344-1.031 11.45 1.391 15.628 7.473 3.868 5.619 3.043 11.959 2.269 15.206-.361 1.495-.567 2.938-.567 4.381v.722c.567 2.68 1.238 5.412 1.96 8.04 2.579 8.866 6.396 17.474 11.347 25.514a6.23 6.23 0 01.258 6.082c-.98 1.959-2.837 3.248-5.003 3.402l-19.032 1.753c-.258.051-.568.051-.877.051zm-8.82-41.08c.155 0 .361.052.464.155.207.155.31.412.31.67-.98 16.133-.516 18.246.464 22.473.051.309 0 .515-.052.618-.67 3.763-.515 7.216.516 10.309 1.083 3.402 4.333 5.567 7.891 5.206l19.033-1.753a4.667 4.667 0 003.765-2.577c.722-1.443.67-3.195-.206-4.587-5.055-8.195-8.923-16.906-11.554-25.926a107.124 107.124 0 01-2.011-8.247v-.98c0-1.546.206-3.144.619-4.742.773-2.989 1.495-8.814-2.012-13.968-3.817-5.567-8.407-7.783-14.081-6.855-2.94.464-5.673.361-8.201-.413-20.889-6.185-37.703-.979-41.881 7.68a7.425 7.425 0 01-.464.825c-1.083 1.856-3.043 5.309-2.012 10.773.31 1.701.464 3.144.568 4.587.051.567.103 1.186.154 1.856.052.309.052.618.104.979.103.67.154 1.392.206 2.062 1.908-1.753 3.61-3.505 5.312-5.206 2.063-2.113 4.23-4.33 6.757-6.495.155-.154.361-.206.567-.206.207 0 .413.103.516.258 1.599 1.959 3.456 3.659 5.519 5 11.811 7.937 26.563 9.38 29.503 8.401.051.155.103.103.206.103z" fill="#000"/><path d="M769.418 179.816c2.579-.206 5.158-.361 7.737-.567 4.074-.309 8.046 1.701 10.006 5.309 1.083 2.01 1.547 4.433 1.083 6.855l-.516 2.732a10.33 10.33 0 01-3.765 6.237c-2.063 1.649-4.333 1.907-6.963 2.268a25.842 25.842 0 01-5.983.051" fill="#FF6EC1"/><path d="M773.854 203.681c-.98 0-1.96-.052-2.94-.155a.77.77 0 01-.67-.876c.051-.412.412-.722.877-.67 1.908.206 3.868.206 5.776-.052h.207c2.424-.309 4.538-.618 6.395-2.061 1.806-1.444 3.043-3.505 3.508-5.773l.515-2.732c.413-2.216.052-4.381-.98-6.391-1.753-3.248-5.415-5.206-9.284-4.897l-7.736.567c-.413.051-.774-.309-.826-.722-.051-.412.31-.773.722-.824l7.737-.567c4.487-.31 8.717 1.907 10.728 5.721 1.238 2.268 1.651 4.845 1.135 7.371l-.516 2.731c-.515 2.629-1.96 5.052-4.023 6.701-2.166 1.753-4.59 2.062-7.118 2.371h-.206c-1.135.155-2.218.258-3.301.258z" fill="#000"/><path d="M740.02 190.436l-4.435.154a3.318 3.318 0 00-2.94 3.917c.309 1.701 1.857 2.835 3.61 2.681l5.467-.258" fill="#FF6EC1"/><path d="M584.204 662.211c9.114 0 16.505-7.386 16.505-16.493 0-9.108-7.391-16.494-16.505-16.494-9.114 0-16.505 7.386-16.505 16.494 0 9.107 7.391 16.493 16.505 16.493z" fill="#3FD1FF"/><path d="M584.204 662.985c-9.541 0-17.278-7.731-17.278-17.267 0-9.535 7.737-17.267 17.278-17.267 9.542 0 17.279 7.732 17.279 17.267 0 9.536-7.737 17.267-17.279 17.267zm0-32.988c-8.665 0-15.731 7.062-15.731 15.721 0 8.659 7.066 15.721 15.731 15.721 8.666 0 15.732-7.062 15.732-15.721 0-8.659-7.066-15.721-15.732-15.721z" fill="#000"/><path d="M802.947 539.538H668.844v81.954h134.103v-81.954z" fill="#F9D84E"/><path d="M802.947 622.266H668.844a.793.793 0 01-.774-.773v-81.954c0-.413.361-.773.774-.773h134.103c.412 0 .773.36.773.773v81.954a.793.793 0 01-.773.773zm-133.329-1.546h132.555v-80.408H669.618v80.408z" fill="#000"/><path d="M668.844 539.538l67.051 40.719 67.052-40.719" fill="#fff"/><path d="M735.893 581.031c-.154 0-.257-.051-.412-.103l-67.052-40.719c-.361-.206-.464-.722-.257-1.083.206-.36.722-.463 1.083-.257l66.638 40.461 66.639-40.461a.826.826 0 011.083.257c.258.361.104.825-.257 1.083l-67.052 40.719c-.155.052-.309.103-.413.103z" fill="#000"/><path d="M668.844 621.493l67.051-41.235 67.052 41.235" fill="#F9D84E"/><path d="M802.945 622.266c-.155 0-.258-.052-.413-.104l-66.639-40.977-66.638 40.977a.824.824 0 01-1.083-.257.824.824 0 01.257-1.083l67.052-41.234a.79.79 0 01.825 0l67.051 41.234c.362.207.465.722.258 1.083-.154.206-.412.361-.67.361z" fill="#000"/><path d="M802.947 540.054l-67.052-40.719-67.051 40.719h134.103z" fill="#F9D84E"/><path d="M802.943 540.827H668.84c-.361 0-.67-.206-.722-.567-.051-.36.052-.67.361-.876l67.052-40.719a.79.79 0 01.825 0l67.051 40.719c.31.155.413.516.361.876-.051.361-.516.567-.825.567zm-131.369-1.546h128.584l-64.266-39.018-64.318 39.018zm47.66-249.781c6.138 3.917 8.665 9.535 9.491 11.597.103-2.062.258-4.072.361-6.134a59.24 59.24 0 01-2.734-3.608c-1.702-2.525-2.94-4.948-3.92-7.061-.619-2.887-1.238-5.825-1.908-8.711-3.869-.773-7.737-1.598-11.605-2.371-2.528 4.33-5.107 8.711-7.634 13.04 1.857-.412 10.006-1.804 17.949 3.248zm18.929-81.387c3.765.619 8.304-2.938 8.252-8.247h-13.926c-.258 4.227 2.528 7.68 5.674 8.247zm41.003-21.7a.793.793 0 00-.774.773l-.103 9.227c0 .412.361.773.774.773a.794.794 0 00.774-.773l.103-9.227a.793.793 0 00-.774-.773zm-33.268 35.669c.052 3.505.98 7.113 1.084 10.618 4.538-1.134 8.252-1.959 12.894-3.247 2.115-.567 4.229-1.186 6.293-1.753 2.733-.773 4.538-3.247 4.487-6.082a96.201 96.201 0 01-8.562 1.134c-6.086.464-11.554-.206-16.196-.67zm-13.253-30.618c-.67.928-.98 2.062-.773 3.196.361 1.959 2.063 3.35 3.971 3.35h.413l5.467-.257a.734.734 0 00.722-.825.735.735 0 00-.825-.722l-5.519.258c-1.289.155-2.527-.773-2.733-2.062-.155-.721.051-1.391.464-2.01a2.44 2.44 0 011.753-.979l4.436-.155a.733.733 0 00.722-.824.734.734 0 00-.825-.722l-4.436.155c-1.083.051-2.114.67-2.837 1.597zm15.266-1.701c1.135.052 2.115-.824 2.167-1.958.051-1.134-.826-2.114-1.96-2.165-1.135-.052-2.115.825-2.167 1.959-.051 1.133.826 2.061 1.96 2.164zm-13.462-2.834c.051-1.134-.826-2.114-1.96-2.165-1.135-.052-2.115.825-2.167 1.959-.051 1.134.826 2.113 1.96 2.164 1.135.103 2.115-.824 2.167-1.958zm20.012 264.47l-25.119 1.907c-6.034.464-11.45 3.557-14.957 8.453-1.187 1.701-2.579 3.866-3.92 6.031-1.341 2.113-2.682 4.33-3.869 5.979-.257.361-.154.825.207 1.082a.83.83 0 00.464.155.736.736 0 00.619-.309c1.186-1.701 2.579-3.918 3.92-6.031 1.341-2.113 2.682-4.329 3.868-5.979a18.831 18.831 0 0113.823-7.834l25.118-1.908a.833.833 0 00.723-.824c-.104-.464-.465-.773-.877-.722zm-12.998-12.215c.412-.103.67-.516.619-.928a.85.85 0 00-.929-.619l-27.8 5.67a17.09 17.09 0 00-9.336 5.309l-1.805 1.959c-.31.309-.258.825.051 1.082.155.155.31.206.516.206a.833.833 0 00.568-.257l1.805-1.959c2.269-2.474 5.209-4.123 8.51-4.794l27.801-5.669zm119.663-94.378l-12.482.98a.832.832 0 00-.722.824c.051.413.361.722.774.722h.051l12.482-.979a.834.834 0 00.722-.825c-.051-.464-.413-.773-.825-.722zm-24.191-82.675a98.045 98.045 0 01-23.983 9.484 97.343 97.343 0 01-31.257 2.525c2.786 0 7.067.052 12.327.104 20.58.309 31.05.515 40.025 2.113 5.777 1.031 14.184 3.041 24.242 7.371a8251.242 8251.242 0 00-21.354-21.597zm-23.006 74.428l-9.851 3.557c-.413.154-.619.567-.464.979a.776.776 0 00.722.515c.103 0 .155 0 .258-.051l9.851-3.557c.413-.154.619-.567.464-.979-.154-.412-.619-.618-.98-.464zm-82.73-7.061l-11.863 7.525c-.361.206-.465.722-.258 1.082.155.258.412.361.67.361.155 0 .31-.051.413-.103l11.863-7.525c.361-.206.464-.722.258-1.083-.258-.36-.722-.464-1.083-.257zm71.384-81.335s.052 0 0 0c9.955-.412 17.434-4.278 17.743-4.433.361-.206.516-.67.309-1.031-.206-.36-.67-.515-1.031-.309-.052.052-7.479 3.866-17.072 4.278a.734.734 0 00-.722.825c0 .361.361.67.773.67zm-96.501 10.153h6.551a.793.793 0 00.773-.773.792.792 0 00-.773-.773h-6.551a.792.792 0 00-.773.773c0 .412.361.773.773.773zm23.985 37.885h6.55a.793.793 0 00.774-.774.793.793 0 00-.774-.773h-6.55a.793.793 0 00-.774.773.76.76 0 00.774.774zm57.816-116.283c.103.052.206.052.309.052.31 0 .567-.155.722-.464l3.404-7.886c.155-.412 0-.825-.412-1.031-.413-.155-.826 0-1.032.412l-3.404 7.887c-.155.412.052.876.413 1.03zm-52.349-13.607c.155.206.361.258.619.258a.993.993 0 00.515-.154c.31-.258.362-.774.104-1.083l-10.264-12.422c-.258-.31-.774-.361-1.083-.103-.31.257-.362.773-.104 1.083l10.213 12.421z" fill="#000"/><path d="M414.872 434.854v228.698c0 10.927-8.872 19.793-19.806 19.793H21.435c-10.935 0-19.806-8.866-19.806-19.793 0-5.979 2.682-11.649 7.376-15.411l49.618-40.153c15.318-12.422 24.241-31.029 24.241-50.77V434.802c0-10.927 8.872-19.792 19.806-19.792h292.396c10.883.051 19.806 8.917 19.806 19.844z" fill="#fff"/><path d="M395.015 684.118H21.435c-11.347 0-20.58-9.227-20.58-20.566a20.458 20.458 0 017.634-15.979l49.618-40.152c15.216-12.319 23.932-30.565 23.932-50.152V434.854c0-11.34 9.233-20.566 20.58-20.566h292.396c11.347 0 20.579 9.226 20.579 20.566v228.698c.052 11.339-9.232 20.566-20.579 20.566zM102.619 415.834c-10.522 0-19.032 8.557-19.032 19.02v122.415c0 20.051-8.923 38.761-24.5 51.338L9.469 648.759c-4.487 3.608-7.066 9.02-7.066 14.793 0 10.515 8.562 19.019 19.032 19.019h373.58c10.521 0 19.032-8.556 19.032-19.019V434.854c0-10.515-8.562-19.02-19.032-19.02H102.619z" fill="#000"/><path d="M221.611 428.875l-29.039 9.175-24.912 21.338c10.677 16.082 21.302 32.112 31.979 48.193-.362 7.113-.671 14.278-1.032 21.391l32.494-1.546c.671-6.752 1.393-13.453 2.063-20.205l3.456-1.083c12.275-3.865 18.877-17.215 14.493-29.328l-7.324-20.36c-1.547-5.979-3.094-11.958-4.693-17.937-1.909-7.628-9.955-12.061-17.485-9.638z" fill="#F9D84E"/><path d="M198.608 529.746c-.207 0-.413-.104-.568-.207-.155-.154-.258-.36-.206-.567l1.031-21.132-31.823-47.987a.796.796 0 01.154-1.031l24.913-21.339c.103-.052.154-.103.258-.155l29.038-9.174c3.868-1.238 7.943-.825 11.502 1.133 3.559 1.959 6.035 5.206 7.066 9.124l4.642 17.885 7.273 20.308c2.166 6.082 1.805 12.577-1.032 18.35-2.837 5.773-7.84 9.999-13.978 11.958l-2.991.928-2.012 19.689c-.051.361-.361.67-.722.67l-32.545 1.547zm-29.916-70.254l31.566 47.626c.103.155.155.309.103.464l-.98 20.566 30.999-1.495 2.011-19.535a.879.879 0 01.516-.67l3.456-1.083c5.725-1.804 10.367-5.772 13.049-11.184 2.682-5.412 3.043-11.495.98-17.113l-7.324-20.359v-.052l-4.694-17.937c-.928-3.505-3.146-6.391-6.344-8.144-3.198-1.752-6.808-2.113-10.264-1.031l-28.884 9.123-24.19 20.824z" fill="#000"/><path d="M198.914 492.222c-1.651 1.958-6.911 7.68-13.771 7.37-2.992-.154-5.261-1.391-9.284-3.608a59.662 59.662 0 01-11.038-7.989c-1.908-1.392-6.396-5.103-8.975-11.752-2.424-6.34-1.753-11.855-1.289-14.174l.051-.258a35.834 35.834 0 0119.6-24.122c11.708-5.464 23.417-10.876 35.125-16.34 4.848-2.268 10.367-2.783 15.473-1.185 2.218.722 4.539 1.804 6.705 3.608 4.436 3.66 5.571 8.247 6.19 10.309l-35.073 13.916v6.701c-5.313 3.608-10.677 7.216-15.99 10.824 4.178 8.917 8.253 17.834 12.276 26.7z" fill="#3FD1FF"/><path d="M185.711 500.366h-.567c-3.25-.155-5.777-1.546-9.646-3.711a57.25 57.25 0 01-11.14-8.041c-2.889-2.165-6.86-5.979-9.181-12.061-2.27-5.876-1.96-11.185-1.341-14.638l.051-.258c2.631-10.876 9.903-19.844 20.064-24.638l35.125-16.339c5.158-2.371 10.831-2.835 16.04-1.237 2.579.825 4.952 2.062 7.015 3.762 4.384 3.608 5.725 8.196 6.344 10.361l.103.309c.103.361-.103.773-.464.928l-34.609 13.71v6.185c0 .258-.103.516-.361.619l-15.422 10.463 11.915 26.081c.103.258.103.567-.103.825-2.424 2.938-7.427 7.68-13.823 7.68zm33.061-80.356c-3.043 0-6.137.67-9.026 2.01l-35.124 16.339c-9.697 4.588-16.712 13.144-19.187 23.607l-.052.258c-.567 3.196-.877 8.195 1.289 13.762a25.416 25.416 0 008.666 11.391l.051.052c3.301 3.041 6.963 5.669 10.883 7.886 4.075 2.268 6.189 3.402 8.923 3.505 5.725.257 10.367-3.918 12.791-6.701l-12.017-26.236c-.155-.36-.052-.773.258-.979l15.628-10.618v-6.288c0-.309.206-.619.464-.722l34.403-13.659c-.671-2.268-1.909-6.082-5.726-9.278-1.908-1.546-4.074-2.731-6.447-3.453a19.6 19.6 0 00-5.777-.876z" fill="#000"/><path d="M195.256 459.44c-2.786 1.804-5.107 3.402-7.892 5.206-4.436 2.835-6.911 7.99-6.138 13.195.465 2.938 1.857 5.722 4.23 7.887l2.63 2.422c4.952 4.484 12.431 4.639 17.537.413a320.956 320.956 0 004.745-3.918" fill="#F9D84E"/><path d="M197.162 492.325c-3.456 0-6.86-1.237-9.542-3.66l-2.631-2.422a14.237 14.237 0 01-4.487-8.299c-.825-5.412 1.702-10.875 6.499-13.968 1.393-.876 2.682-1.752 3.92-2.577 1.289-.825 2.579-1.701 3.971-2.577.361-.258.826-.155 1.084.206a.867.867 0 01-.207 1.082c-1.392.877-2.682 1.753-3.92 2.578-1.289.824-2.579 1.701-3.971 2.577-4.281 2.732-6.551 7.628-5.777 12.422.464 2.886 1.805 5.463 3.972 7.422l2.63 2.422c4.642 4.175 11.708 4.382 16.557.413l4.745-3.918c.309-.257.825-.206 1.083.104.258.309.206.824-.103 1.082l-4.745 3.917c-2.683 2.114-5.88 3.196-9.078 3.196z" fill="#000"/><path d="M242.445 455.214c3.25-1.908 6.448-3.815 9.697-5.722 2.218-1.288 5.055-.361 6.086 1.959.825 1.959.155 4.226-1.65 5.309-3.766 2.422-7.582 4.897-11.347 7.319" fill="#F9D84E"/><path d="M245.182 464.904c-.258 0-.516-.103-.671-.361a.867.867 0 01.207-1.082l11.347-7.32a3.532 3.532 0 001.393-4.381c-.413-.927-1.187-1.649-2.115-1.958-.929-.31-2.012-.206-2.837.309l-9.697 5.721a.826.826 0 01-1.083-.257.826.826 0 01.258-1.083l9.697-5.721c1.238-.722 2.733-.876 4.126-.464 1.393.464 2.476 1.443 3.043 2.783.98 2.268.155 5-1.96 6.289l-11.347 7.319c-.052.154-.206.206-.361.206z" fill="#000"/><path d="M232.906 507.581l-27.801-.154 27.801.154z" fill="#fff"/><path d="M232.906 508.355l-27.8-.154a.793.793 0 01-.774-.774c0-.412.361-.773.774-.773l27.8.155c.413 0 .774.361.774.773a.793.793 0 01-.774.773z" fill="#000"/><path d="M139.499 557.167l-22.437 125.405h38.478c-4.384-41.75-8.769-83.552-13.153-125.302-.154-1.701-2.579-1.804-2.888-.103z" fill="#F15922"/><path d="M155.591 683.344h-38.478a.956.956 0 01-.619-.257.679.679 0 01-.154-.619l22.436-125.405c.206-1.134 1.135-1.907 2.27-1.855 1.134.051 2.011.876 2.166 2.01l13.152 125.302a.987.987 0 01-.206.618c-.155.103-.361.206-.567.206zm-37.549-1.546h36.723l-13.101-124.426c-.051-.567-.515-.618-.67-.618-.155 0-.619 0-.722.567l-22.23 124.477z" fill="#000"/><path d="M485.223 520.983l19.703-32.576 25.48-10.566a14.992 14.992 0 007.788-7.319l9.387-19.329c3.611-7.474.722-18.71-6.757-22.318l-12.43-5.979c-4.332-2.114-9.748 1.958-11.811 6.236-2.115 4.33-.258 9.536 4.023 11.598l7.84 3.762-2.889 5.979c-3.146 6.495-10.986 9.227-17.536 6.083l-35.847-17.319c-5.312-2.577-7.53-8.917-4.951-14.226l5.003-10.309 4.281 2.062c4.693 2.268 10.367.309 12.688-4.381 2.269-4.691.309-10.36-4.384-12.68l-7.118-3.453c-9.645-4.639-21.199-.619-25.841 8.968l-5.673 11.752-28.522-42.214c-3.198-4.278-11.09-4.226-15.628-1.391l2.011-1.134c-4.9 3.092-8.252 10.772-5.003 15.566l22.282 32.524-30.534-26.184c-3.869-2.887-9.336-2.114-12.224 1.752l-1.806 3.453c-2.733 3.66-2.114 8.814 1.341 11.804l54.982 45.049c3.095 2.628 4.23 6.958 2.837 10.772l-8.768 23.813" fill="#F9D84E"/><path d="M485.225 521.756c-.154 0-.257-.052-.412-.103-.361-.206-.464-.722-.258-1.083l19.703-32.575c.103-.155.206-.258.361-.309l25.479-10.567c3.25-1.34 5.829-3.814 7.376-6.958l9.336-19.329c3.61-7.422.412-17.988-6.396-21.287l-12.43-5.979c-3.972-1.907-8.975 2.113-10.78 5.876a7.901 7.901 0 00-.361 6.03c.67 2.011 2.114 3.608 4.023 4.536l7.84 3.763c.361.206.567.67.361 1.031l-2.889 5.979c-3.352 6.906-11.656 9.793-18.568 6.443l-35.846-17.319c-5.674-2.732-8.047-9.587-5.313-15.257l5.003-10.308c.103-.207.258-.31.464-.413.207-.051.413-.051.568.052l4.281 2.062c4.332 2.113 9.542.257 11.605-4.021 2.063-4.278.258-9.535-4.023-11.597l-7.118-3.454c-9.233-4.484-20.374-.567-24.809 8.608l-5.673 11.752a.67.67 0 01-.619.412c-.258 0-.567-.103-.722-.36l-28.522-42.214c-2.579-3.505-8.872-3.815-13.204-1.908-2.476 1.805-4.436 4.846-5.055 7.938-.361 1.65-.464 4.021.928 6.082l22.282 32.524a.854.854 0 01-.103 1.031.785.785 0 01-1.032 0l-30.534-26.184a7.91 7.91 0 00-5.88-1.495 8.131 8.131 0 00-5.209 3.041l-1.754 3.351c0 .051-.051.051-.051.103-2.476 3.35-1.96 8.04 1.238 10.721l54.93 44.997c3.353 2.835 4.591 7.525 3.043 11.649l-8.768 23.813c-.155.412-.567.618-.98.464-.413-.155-.619-.567-.464-.98l8.768-23.813a8.909 8.909 0 00-2.63-9.896l-54.931-44.997c-3.765-3.196-4.436-8.814-1.496-12.783l1.754-3.35c0-.052.051-.052.051-.103 1.496-2.062 3.714-3.351 6.241-3.712 2.528-.36 5.003.258 7.067 1.804l26.098 22.37-18.929-27.627c-1.341-1.959-1.754-4.484-1.186-7.268.567-2.731 2.063-5.463 4.074-7.473-.051-.31.103-.567.361-.773.207-.155.465-.258.722-.413l1.29-.773a.866.866 0 01.619-.052c4.848-1.7 11.141-1.03 14.029 2.835l27.801 41.132 5.105-10.515c4.848-9.999 16.917-14.174 26.872-9.329l7.118 3.453c5.106 2.474 7.221 8.608 4.745 13.711s-8.614 7.216-13.72 4.742l-3.559-1.701-4.642 9.587c-2.372 4.896-.309 10.824 4.591 13.195l35.846 17.318c2.992 1.444 6.344 1.65 9.439.567 3.095-1.082 5.622-3.298 7.066-6.288l2.528-5.257-7.118-3.454c-2.27-1.082-3.972-3.041-4.797-5.412a9.472 9.472 0 01.413-7.216c2.372-4.896 8.252-8.865 12.843-6.597l12.43 5.979c3.714 1.804 6.602 5.515 7.943 10.205 1.341 4.536 1.032 9.33-.825 13.144l-9.336 19.329a15.794 15.794 0 01-8.201 7.731l-25.221 10.463-19.6 32.37c-.155.206-.413.309-.671.309z" fill="#000"/><path d="M433.493 441.04c-.258 0-.516-.155-.671-.361l-12.275-19.948c-.207-.36-.104-.824.257-1.082a.827.827 0 011.084.258l12.275 19.947a.824.824 0 01-.258 1.082c-.154.052-.309.104-.412.104z" fill="#000"/><path d="M446.487 436.916c-.928-1.804-2.269-5-2.527-9.226a22.85 22.85 0 012.063-10.721" fill="#F9D84E"/><path d="M446.49 437.688c-.258 0-.568-.154-.671-.412a22.89 22.89 0 01-2.579-9.535c-.258-4.794 1.032-8.66 2.115-11.082.155-.413.619-.567 1.032-.361.412.155.567.618.361 1.031a22.557 22.557 0 00-2.012 10.36c.155 3.093.98 6.185 2.424 8.917.207.361.052.825-.309 1.031-.103.051-.258.051-.361.051z" fill="#000"/><path d="M194.48 526.395c-.206-2.217-.361-4.433-.567-6.649-.258-3.041 2.218-5.619 5.261-5.515l45.595 1.649c4.126.155 5.673 5.464 2.269 7.783-.877.619-1.753 1.185-2.579 1.804" fill="#F15922"/><path d="M194.482 527.168c-.413 0-.722-.309-.774-.721l-.567-6.649c-.155-1.65.464-3.35 1.599-4.536 1.134-1.237 2.785-1.855 4.435-1.804l45.595 1.649c2.218.103 4.075 1.495 4.694 3.608.619 2.114-.155 4.33-1.96 5.567l-2.579 1.804c-.361.258-.825.155-1.083-.206s-.155-.825.206-1.083l2.579-1.804c1.547-1.082 1.702-2.68 1.393-3.865-.361-1.186-1.393-2.474-3.25-2.526l-45.595-1.649c-1.238-.052-2.424.464-3.301 1.34-.877.876-1.289 2.113-1.186 3.35l.567 6.649a.73.73 0 01-.722.825c0 .051-.051.051-.051.051z" fill="#000"/><path d="M427.51 481.759c-5.209 3.814-11.501 9.329-17.484 16.958-10.316 13.195-14.649 26.493-16.609 34.74-5.261 4.484-12.017 11.185-18.155 20.514-7.376 11.236-11.038 21.854-12.895 29.225-3.507-7.68-9.645-18.659-20.27-29.225-16.453-16.391-34.609-22.834-43.996-25.411l-15.318-2.474a129.48 129.48 0 00-21.457-1.649c-25.892.206-51.733.412-77.625.567-2.94-.413-7.272-.774-12.378 0-9.852 1.443-16.402 5.979-18.156 7.267-1.857 1.34-6.086 4.691-10.419 11.288-8.974 13.711-9.954 28.607-10.418 37.524-.877 16.545 2.217 30.977 6.034 42.111-2.011 5.824-4.539 15.411-3.92 27.369.774 14.999 6.138 26.184 9.387 31.957 24.087.103 48.123.103 72.21.258 24.087.155 48.122.361 72.209.258 2.888-16.855 5.777-34.792 8.717-51.647 2.939 7.577 7.736 17.525 15.782 27.627 13.411 16.804 28.987 25.617 38.374 29.947.31-.103.516-.155.826-.309.103-.206.206-.361.309-.567 3.507 1.598 21.508 9.226 41.469 1.288 27.336-10.875 32.546-40.719 32.803-42.265a116.85 116.85 0 0022.127-29.225 118.142 118.142 0 0012.637-38.709c6.705-9.484 14.236-21.855 20.528-37.111 4.281-10.309 7.169-19.948 9.233-28.401-21.147-10.566-42.346-21.236-63.545-31.905z" fill="#F15922"/><path d="M375.055 693.808c-9.954 0-18.052-2.784-22.384-4.639-.104.154-.207.206-.361.257l-.826.31c-.206.051-.412.051-.567-.052-15.112-7.01-28.523-17.421-38.684-30.204-6.086-7.68-11.14-16.133-14.906-25.308-1.289 7.628-2.63 15.463-3.868 23.143-1.444 8.556-2.888 17.422-4.333 25.823-.051.361-.361.619-.773.619-24.036.103-48.432-.103-72.055-.258h-.154c-16.041-.103-32.34-.155-48.071-.206-8.046 0-16.092-.052-24.139-.052-.258 0-.515-.154-.67-.412-5.622-9.896-8.923-21.03-9.49-32.266a72.906 72.906 0 013.868-27.421c-4.694-13.865-6.705-28.04-5.983-42.163.412-8.298 1.238-23.761 10.522-37.936 3.146-4.793 6.705-8.659 10.625-11.494 2.991-2.165 9.439-6.082 18.516-7.371a42.6 42.6 0 0112.534 0l77.573-.566c7.221-.052 14.442.515 21.56 1.649l15.318 2.474h.103c11.76 3.247 28.987 10.36 44.306 25.617 7.995 7.989 14.597 17.216 19.548 27.524 2.734-9.742 6.912-18.968 12.482-27.369 5.055-7.68 11.141-14.536 18.104-20.515 3.094-12.834 8.665-24.586 16.66-34.791a90.982 90.982 0 0117.639-17.113c.258-.154.568-.206.825-.051l63.596 31.957c.31.154.464.515.413.876a190.041 190.041 0 01-9.233 28.555c-5.415 13.04-12.327 25.514-20.528 37.111a118.124 118.124 0 01-12.688 38.761 117.287 117.287 0 01-22.075 29.225c-.568 3.247-6.293 31.854-33.217 42.575-6.859 2.731-13.307 3.711-19.187 3.711zm-22.694-6.443c.103 0 .206 0 .31.051 4.848 2.165 22.127 8.711 40.849 1.289 27.13-10.824 32.133-40.41 32.288-41.647.052-.155.103-.309.206-.412 8.82-8.505 16.248-18.247 21.973-29.019a116.168 116.168 0 0012.533-38.452.56.56 0 01.155-.361 190.274 190.274 0 0020.476-36.956 187.106 187.106 0 009.026-27.73l-62.615-31.493c-6.396 4.742-12.121 10.308-16.969 16.545-7.892 10.102-13.411 21.7-16.454 34.431-.051.155-.103.309-.258.412-6.963 5.928-12.997 12.783-18.052 20.36a95.925 95.925 0 00-12.791 28.967c-.103.31-.361.567-.671.567-.309.052-.619-.154-.773-.464-4.952-10.875-11.709-20.668-20.116-28.967-15.061-14.999-32.03-22.009-43.583-25.205l-15.267-2.474a128.049 128.049 0 00-21.302-1.649l-77.625.567h-.103a39.79 39.79 0 00-12.121 0c-8.768 1.288-14.906 5-17.794 7.113-3.766 2.732-7.17 6.443-10.213 11.082-9.078 13.813-9.851 29.019-10.264 37.162-.722 14.02 1.29 28.092 5.983 41.802a.87.87 0 010 .515 71.224 71.224 0 00-3.868 27.061c.567 10.875 3.713 21.648 9.078 31.183 7.891.052 15.782.052 23.674.052 15.783.052 32.081.052 48.071.206h.154c23.417.155 47.607.361 71.436.258 1.392-8.247 2.837-16.855 4.229-25.205 1.444-8.556 2.889-17.37 4.333-25.823.051-.361.361-.619.67-.619.361-.051.671.155.774.516a103.964 103.964 0 0015.68 27.421c9.954 12.473 23.055 22.731 37.806 29.586l.258-.103.155-.258c.155-.155.464-.309.722-.309z" fill="#000"/><path d="M502.192 437.741c9.114 0 16.505-7.386 16.505-16.494s-7.391-16.494-16.505-16.494c-9.113 0-16.504 7.386-16.504 16.494s7.391 16.494 16.504 16.494z" fill="#FF6EC1"/><path d="M502.193 438.514c-9.542 0-17.279-7.732-17.279-17.267 0-9.536 7.737-17.268 17.279-17.268s17.278 7.732 17.278 17.268c0 9.535-7.736 17.267-17.278 17.267zm0-32.988c-8.665 0-15.732 7.061-15.732 15.721 0 8.659 7.067 15.72 15.732 15.72s15.731-7.061 15.731-15.72c0-8.66-7.066-15.721-15.731-15.721zm-264.26 52.924a2.269 2.269 0 10-4.514-.464 2.269 2.269 0 004.514.464zm11.374 12.999c-1.806.928-3.714 1.392-5.726 1.495-3.249.155-5.828-.928-7.427-1.804a.726.726 0 00-1.031.309.725.725 0 00.309 1.031 15.588 15.588 0 007.634 2.01h.619c2.217-.103 4.332-.67 6.344-1.649.361-.206.516-.67.361-1.031-.258-.412-.722-.567-1.083-.361zm-57.252 2.423a.76.76 0 00-1.083-.154.76.76 0 00-.155 1.082l7.273 9.381a.736.736 0 00.619.309.831.831 0 00.464-.154c.361-.258.413-.774.155-1.083l-7.273-9.381zm40.284 41.132c.206-2.783.361-5.566.567-8.35l-5.57.361c-7.428.103-14.803.258-22.231.361 6.86 1.598 13.669 3.196 20.528 4.742.568.876 1.135 1.804 1.703 2.68 1.702.052 3.352.206 5.003.206zm-29.864-67.728l-20.631 7.267c-.413.155-.619.567-.465.979.104.31.413.516.723.516.103 0 .154 0 .257-.052l20.632-7.267c.412-.155.619-.567.464-.98a.838.838 0 00-.98-.463zm160.098 135.198c-.362-.103-.723.052-.877.361l-11.554 20.514a.725.725 0 00.31 1.031c.412.206.825.103 1.031-.309l9.955-17.679-1.135 23.606c0 .413.31.774.722.825h.052c.412 0 .773-.309.773-.721l1.29-26.855c0-.36-.258-.67-.567-.773zm-85.413 13.762c-.206-.361-.67-.464-1.083-.258-.361.206-.464.67-.258 1.083l11.915 20.153c.464 7.422.206 18.762-4.127 31.545-5.983 17.627-16.556 28.812-22.127 33.967 8.975.103 17.898.206 26.873.36 2.836-16.957 5.725-33.967 8.562-50.924h.103c.154 0 .258-.052.412-.104.361-.206.465-.67.258-1.082l-20.528-34.74zm-138.026 26.7c-.155-.413-.619-.619-.98-.413-.413.155-.619.619-.413.98l6.602 16.854c.103.31.413.516.722.516.103 0 .206 0 .258-.052.413-.154.619-.618.413-.979l-6.602-16.906zm254.539-90.201c-.413-.155-.826.051-.98.464l-7.118 20.514c-.155.412.051.825.464.979.103.052.155.052.258.052a.775.775 0 00.722-.516l7.118-20.514c.154-.361-.052-.824-.464-.979zm70.148 19.741a.732.732 0 00-.826.722l-2.372 26.081a.73.73 0 00.722.825h.051c.413 0 .723-.31.774-.722l2.373-26.081c0-.412-.31-.825-.722-.825zm-35.591 69.48a.832.832 0 00-.825.722l-1.599 24.483c-.052.412.309.773.722.824h.051c.413 0 .722-.309.774-.721l1.599-24.483a.734.734 0 00-.722-.825zm15.781-141.383a73.12 73.12 0 01-8.2-13.711l-6.448 15.669c13.72 6.598 27.389 13.144 41.108 19.741-6.911-3.401-17.536-9.947-26.46-21.699z" fill="#000"/></svg>