<svg width="753" height="630" fill="none" xmlns="http://www.w3.org/2000/svg"><path d="M402.226 379.515H340.59v5.17h61.636v-5.17z" fill="#F15922"/><path d="M402.822 385.282h-62.83v-6.364h62.83v6.364zm-61.637-1.193h60.444v-3.978h-60.444v3.978z" fill="#000"/><path d="M295.577 581.987c-1.67-.397-2.743-2.028-2.346-3.739l56.945-253.032c.397-1.671 2.028-2.745 3.737-2.347 1.671.398 2.744 2.029 2.347 3.739L299.315 579.64c-.397 1.671-2.067 2.705-3.738 2.347z" fill="#F15922"/><path d="M296.252 582.664c-.278 0-.556-.04-.835-.08-1.988-.437-3.26-2.426-2.823-4.455l56.983-253.032a3.595 3.595 0 011.631-2.308c.835-.517 1.829-.716 2.783-.477 1.989.438 3.261 2.427 2.824 4.455L299.871 579.8c-.358 1.67-1.909 2.864-3.619 2.864zm-.556-1.273c1.352.318 2.704-.557 3.022-1.91l56.944-253.032c.318-1.352-.557-2.705-1.909-3.023-1.352-.318-2.704.557-3.022 1.909l-56.944 253.033c-.278 1.392.557 2.744 1.909 3.023z" fill="#000"/><path d="M445.769 581.987c1.67-.397 2.744-2.028 2.346-3.739l-56.944-253.032c-.398-1.671-2.028-2.745-3.738-2.347-1.67.398-2.744 2.029-2.346 3.739l56.944 253.032c.358 1.671 2.028 2.705 3.738 2.347z" fill="#F15922"/><path d="M445.053 582.664c-1.71 0-3.221-1.194-3.618-2.904L384.49 326.728a3.75 3.75 0 012.824-4.455 3.746 3.746 0 014.453 2.824l56.945 253.032a3.75 3.75 0 01-2.824 4.455c-.278.04-.556.08-.835.08zm-56.944-259.278c-.199 0-.358.04-.557.08-1.352.318-2.227 1.671-1.908 3.023l56.944 253.032c.318 1.352 1.67 2.228 3.022 1.909 1.352-.318 2.227-1.67 1.909-3.023l-56.945-253.032a2.54 2.54 0 00-2.465-1.989z" fill="#000"/><path d="M589.324 29.541H137.707v295.715h451.617V29.541z" fill="#fff"/><path d="M589.283 325.852H137.706a.612.612 0 01-.597-.596V29.541c0-.318.279-.597.597-.597h451.617c.318 0 .596.279.596.597v295.715c-.039.318-.318.596-.636.596zm-450.981-1.193h450.424V30.138H138.302v294.521z" fill="#000"/><path d="M561.368 267.06a.579.579 0 01-.516-.279L455.473 104.126l-73.845 33.852c-.278.119-.596.04-.755-.199L327.11 57.864l-59.847 56.803c-.239.199-.597.239-.835 0l-39.845-37.352a.615.615 0 01-.04-.835.615.615 0 01.835-.04l39.447 36.955 59.967-56.924c.119-.12.318-.199.477-.159.159 0 .318.12.438.279l53.881 80.114 73.845-33.852c.278-.119.597-.04.756.199l105.657 163.093c.199.278.119.636-.159.835-.12.08-.239.08-.319.08zm-335.9 34.17a.611.611 0 01-.597-.597V58.302c0-.319.278-.597.597-.597.318 0 .596.279.596.597v242.331a.611.611 0 01-.596.597z" fill="#000"/><path d="M543.158 279.908H225.312v1.194h317.846v-1.194z" fill="#000"/><path d="M225.945 227.678c103.271-.039 207.059-.039 310.489 0H225.945z" fill="#524FA0"/><path d="M225.472 227.082c-.04.398-.12.796-.16 1.193h311.125v-1.193H225.472zm276.923-52.27h-276.25v1.194h276.25v-1.194z" fill="#000"/><path d="M223.681 457.918c5.249 23.788 10.459 47.536 15.708 71.323-14.077 3.103-32.091 7.717-46.168 10.82-6.005-28.601-12.009-57.241-18.014-85.842l48.474 3.699z" fill="#3FD1FF"/><path d="M193.219 540.697a.744.744 0 01-.318-.08.73.73 0 01-.279-.397l-18.013-85.843a.603.603 0 01.119-.517c.119-.159.318-.199.477-.199l48.474 3.7a.632.632 0 01.557.477l15.708 71.323a.555.555 0 01-.08.438.809.809 0 01-.358.278c-7.038 1.551-15.19 3.501-23.064 5.41-7.913 1.909-16.065 3.859-23.104 5.41h-.119zm-17.258-85.803l17.735 84.49c6.919-1.511 14.833-3.421 22.507-5.29 7.675-1.83 15.589-3.779 22.508-5.291l-15.469-70.329-47.281-3.58z" fill="#000"/><path d="M111.66 459.111c-4.971 24.225-9.902 48.41-14.872 72.636l-43.663-8.712c6.72-35.124 13.44-70.249 20.161-105.334a36578.156 36578.156 0 0138.374 41.41z" fill="#3FD1FF"/><path d="M96.787 532.343h-.119l-43.662-8.711c-.319-.08-.517-.358-.477-.716l20.16-105.334c.04-.239.2-.398.438-.478.199-.079.438 0 .597.16l38.373 41.449c.12.159.199.318.159.517l-14.872 72.636a.634.634 0 01-.597.477zm-42.986-9.785l42.51 8.473 14.713-71.761-37.38-40.336-19.843 103.624z" fill="#000"/><path d="M106.969 159.02l56.308-2.745c29.784 109.511 42.111 161.422 47.559 188.114 1.909 9.348 5.766 29.476 13.6 56.326 5.965 20.486 9.106 27.368 14.833 46.86 4.096 13.882 9.543 34.368 14.276 60.145-9.743 3.063-21.076 5.927-33.761 8.075a265.518 265.518 0 01-32.29 3.421c-3.141-10.104-7.715-25.657-12.407-44.83-10.418-42.763-11.413-63.487-17.059-98.294-10.419-64.242-19.565-70.766-45.85-192.528a1921.28 1921.28 0 01-5.209-24.544z" fill="#349948"/><path d="M187.452 519.814c-.278 0-.477-.16-.556-.438a731.39 731.39 0 01-12.407-44.87c-7.317-30.033-10.021-49.445-12.884-70.011-1.233-8.831-2.505-17.98-4.176-28.362-5.209-32.062-10.14-49.922-16.94-74.585-6.999-25.379-15.747-56.963-28.909-117.904-1.75-8.195-3.5-16.429-5.21-24.544a.523.523 0 01.12-.477c.119-.119.278-.239.437-.239l56.308-2.744c.278 0 .517.159.597.437 24.455 89.98 40.441 153.267 47.559 188.153l.438 2.188c2.067 10.184 5.885 29.198 13.122 54.099 3.062 10.542 5.408 17.582 7.715 24.424 2.147 6.405 4.334 13.008 7.118 22.436 5.686 19.412 10.498 39.659 14.276 60.225.039.278-.12.596-.398.676-11.055 3.46-22.428 6.165-33.84 8.115a252.528 252.528 0 01-32.37 3.421zm-79.769-360.236a3206.22 3206.22 0 005.05 23.827c13.162 60.901 21.871 92.446 28.87 117.825 6.839 24.742 11.77 42.603 16.98 74.744a1111.522 1111.522 0 014.175 28.362c2.863 20.526 5.567 39.898 12.844 69.891a744.297 744.297 0 0012.248 44.353c10.617-.477 21.275-1.591 31.733-3.381a262.643 262.643 0 0033.164-7.916c-3.738-20.327-8.509-40.375-14.156-59.588-2.784-9.428-4.971-16.031-7.118-22.396-2.267-6.842-4.653-13.882-7.715-24.464-7.237-24.941-11.094-43.955-13.162-54.178l-.438-2.188c-7.078-34.806-23.024-97.935-47.4-187.636l-55.075 2.745z" fill="#000"/><path d="M148.285 189.014c3.34 23.628 4.095 47.376 5.646 74.943 1.511 26.731 1.79 51.871 1.193 75.142a339.043 339.043 0 01-8.51 41.887 334.974 334.974 0 01-17.894 50.042 460.08 460.08 0 00-12.168 54.775c-2.505 15.633-4.017 30.311-4.891 43.876l-64.54-3.7c2.227-27.606 7.396-48.728 11.73-62.929 4.296-14.122 7.437-20.407 12.527-39.302 4.653-17.343 5.528-25.18 9.424-43.558 2.744-13.008 7.118-31.823 13.918-54.735.2-40.455.478-80.87.796-121.286.08-11.416.199-25.06.318-36.477" fill="#349948"/><path d="M111.698 530.235s-.039 0 0 0l-64.579-3.7a.488.488 0 01-.397-.199.597.597 0 01-.16-.437c1.79-22.077 5.727-43.279 11.771-63.049 1.67-5.53 3.221-9.905 4.692-14.162 2.347-6.682 4.732-13.604 7.834-25.14 3.102-11.496 4.494-18.696 6.243-27.845.875-4.455 1.83-9.547 3.142-15.712a702.704 702.704 0 0113.918-54.696c.199-40.216.477-80.989.795-121.206.08-11.416.199-25.06.318-36.477 0-.318.279-.596.597-.596a.61.61 0 01.596.596c-.119 11.417-.199 25.061-.318 36.477a41192.67 41192.67 0 00-.795 121.286c0 .039 0 .119-.04.159-5.408 18.298-10.1 36.676-13.918 54.695-1.312 6.166-2.267 11.218-3.141 15.673-1.79 9.149-3.182 16.389-6.283 27.925-3.102 11.575-5.528 18.497-7.834 25.219-1.471 4.257-3.022 8.632-4.692 14.122-5.925 19.531-9.862 40.455-11.652 62.214l63.347 3.62a453.11 453.11 0 014.851-43.359 472.552 472.552 0 0112.168-54.855c0-.04 0-.04.04-.08a337.555 337.555 0 0017.855-49.922c3.698-13.684 6.561-27.725 8.47-41.767a907.682 907.682 0 00-1.193-75.023c-.318-5.41-.596-10.7-.835-15.792-1.074-20.605-2.108-40.097-4.812-59.071a.619.619 0 01.517-.677.618.618 0 01.676.517c2.704 19.015 3.738 38.546 4.812 59.191.278 5.092.557 10.382.835 15.792a911.531 911.531 0 011.193 75.182v.08a342.687 342.687 0 01-8.51 41.966c-4.613 17.065-10.617 33.931-17.894 50.081a460.935 460.935 0 00-12.129 54.656 461.631 461.631 0 00-4.851 43.836c-.08.239-.318.478-.637.478z" fill="#000"/><path d="M186.181 522.081l56.984 6.563 8.231-11.257c1.909-2.626 6.164-4.774 9.425-4.774 5.13 1.035 7.993 6.564 5.885 11.337l-7.158 14.997 56.865 30.868 14.196 4.893c14.793 5.091 24.655 19.094 24.416 34.727-.039 1.75-.039 3.46-.079 5.211v1.432l-166.339-2.228c-2.426-2.625-5.806-6.882-8.152-12.848-.915-2.308-3.937-10.542-.796-31.903 1.074-7.279 3.023-17.224 6.84-28.84-.119-6.046-.239-12.092-.318-18.178z" fill="#FF6EC1"/><path d="M355.543 616.714h-.597l-166.617-2.227-.159-.199c-3.619-3.898-6.403-8.314-8.272-13.048-3.34-8.472-2.306-22.196-.835-32.22 1.432-9.667 3.699-19.373 6.84-28.84l-.318-18.736 57.302 6.604 8.033-10.979c2.028-2.785 6.482-5.012 9.901-5.012h.12a8.723 8.723 0 016.084 4.574c1.233 2.387 1.312 5.132.238 7.598l-6.919 14.479 56.308 30.59 14.157 4.853a36.684 36.684 0 0124.813 35.324l-.079 7.239zm-166.697-3.46l165.504 2.227.08-6.046c.198-15.434-9.425-29.158-24.019-34.17l-14.276-4.933-57.342-31.146 7.397-15.474a7.606 7.606 0 00-.239-6.564c-1.074-2.028-2.943-3.46-5.169-3.938-3.023.04-7.079 2.109-8.868 4.535l-8.47 11.536-56.666-6.524.278 17.582-.04.08c-3.101 9.427-5.408 19.094-6.839 28.76-2.068 14.161-1.79 25.1.755 31.584a42.316 42.316 0 007.914 12.491z" fill="#000"/><path d="M351.725 610.509c4.295.079 8.112 2.983 8.987 7.2l.12.716a10.118 10.118 0 01-.279 3.938c-1.074 4.017-4.851 6.762-9.027 6.762l-158.545.239c-6.482 0-11.532-5.569-10.896-12.013.557-5.689 5.409-9.945 11.095-9.866l158.545 3.024z" fill="#fff"/><path d="M192.981 629.921a11.623 11.623 0 01-8.55-3.779 11.608 11.608 0 01-2.942-8.911c.596-5.927 5.726-10.501 11.691-10.382l158.545 3.063c4.652.079 8.669 3.302 9.544 7.677.039.239.079.517.119.796a11.172 11.172 0 01-.278 4.137c-1.114 4.216-5.051 7.2-9.584 7.2l-158.545.199zm0-21.879c-5.249 0-9.783 4.058-10.299 9.309a10.388 10.388 0 002.624 7.955 10.351 10.351 0 007.675 3.381h.238l158.307-.238c4.016 0 7.476-2.586 8.43-6.325a9.71 9.71 0 00.239-3.699c-.04-.239-.08-.478-.119-.677-.796-3.818-4.335-6.643-8.391-6.722l-158.545-3.063c-.04.079-.119.079-.159.079z" fill="#000"/><path d="M299.393 609.554c-.08-3.58.159-7.837 1.193-12.491 3.102-13.883 11.373-22.992 15.827-27.209 1.471.438 3.698 1.154 6.362 2.029 6.323 2.108 9.504 3.182 11.89 4.376 6.322 3.182 10.219 7.399 11.492 8.831a36.29 36.29 0 016.283 10.064 38.429 38.429 0 011.948 7.2c.517 3.262.557 6.086.398 8.313l-2.625-.596c-17.616-.159-35.192-.358-52.768-.517z" fill="#F9D84E"/><path d="M354.749 611.264h-.12l-2.584-.597-52.69-.517a.61.61 0 01-.596-.596 51.397 51.397 0 011.193-12.61c2.903-12.968 10.299-22.117 16.025-27.527a.555.555 0 01.597-.119c2.147.636 4.255 1.352 6.362 2.028 6.363 2.109 9.544 3.183 11.97 4.416 5.885 2.983 9.822 6.881 11.651 8.99 2.664 3.023 4.812 6.484 6.402 10.223.915 2.387 1.551 4.853 1.989 7.359.437 2.784.596 5.648.397 8.473a.548.548 0 01-.238.437c-.08 0-.239.04-.358.04zm-54.797-2.307l52.172.517h.12l1.948.438a36.257 36.257 0 00-2.346-14.559c-1.511-3.62-3.619-6.922-6.204-9.865-1.749-2.029-5.567-5.808-11.293-8.712-2.346-1.193-5.488-2.228-11.81-4.336-1.989-.676-4.017-1.313-6.005-1.949-5.527 5.33-12.606 14.201-15.429 26.691a55.532 55.532 0 00-1.153 11.775z" fill="#000"/><path d="M305.595 564.286c-1.392 1.313-2.784 2.665-4.176 3.978a3.471 3.471 0 01-4.652.119c-1.511-1.313-1.591-3.62-.239-5.052l3.977-4.137c1.272-1.313 3.3-1.432 4.692-.278.04.039.119.079.159.159 1.63 1.352 1.75 3.779.239 5.211z" fill="#fff"/><path d="M299.035 569.855c-.954 0-1.908-.318-2.664-.995-.835-.756-1.352-1.75-1.392-2.904a4.139 4.139 0 011.153-3.023l3.977-4.137c1.471-1.511 3.857-1.67 5.488-.318l.159.159a4.023 4.023 0 011.471 2.984c.04 1.153-.398 2.307-1.233 3.102l-4.175 3.978c-.756.796-1.789 1.154-2.784 1.154zm3.977-11.059c-.756 0-1.511.279-2.068.875l-3.976 4.137a2.755 2.755 0 00-.796 2.109c.04.795.398 1.511.994 2.028a2.826 2.826 0 003.858-.079l4.175-3.978a2.795 2.795 0 00.875-2.188c-.04-.835-.398-1.591-1.034-2.108l-.159-.159c-.597-.438-1.233-.637-1.869-.637z" fill="#000"/><path d="M290.563 555.614c-1.392 1.313-2.783 2.665-4.175 3.978a3.473 3.473 0 01-4.653.119c-1.511-1.313-1.59-3.62-.238-5.052l3.976-4.137c1.273-1.312 3.301-1.432 4.693-.278.039.04.119.079.159.159 1.67 1.352 1.749 3.779.238 5.211z" fill="#fff"/><path d="M284.004 561.183c-.954 0-1.909-.318-2.664-.995-.835-.755-1.352-1.75-1.392-2.903a4.135 4.135 0 011.153-3.024l3.977-4.137c1.471-1.511 3.857-1.67 5.487-.318l.16.159a4.023 4.023 0 011.471 2.984c.04 1.153-.398 2.307-1.233 3.102l-4.175 3.978a3.912 3.912 0 01-2.784 1.154zm4.016-11.059c-.755 0-1.511.279-2.067.876l-3.977 4.137a2.75 2.75 0 00-.795 2.108c.04.795.397 1.511.994 2.028a2.825 2.825 0 003.857-.079l4.176-3.978a2.796 2.796 0 00.874-2.188c-.039-.835-.397-1.591-1.034-2.108l-.159-.159c-.596-.438-1.232-.637-1.869-.637z" fill="#000"/><path d="M276.251 546.545c-1.392 1.312-2.784 2.665-4.176 3.977a3.471 3.471 0 01-4.652.12c-1.511-1.313-1.591-3.62-.239-5.052l3.977-4.137c1.272-1.313 3.3-1.432 4.692-.279.04.04.119.08.159.16 1.631 1.312 1.71 3.739.239 5.211z" fill="#fff"/><path d="M269.649 552.074a3.969 3.969 0 01-2.665-.995c-.835-.756-1.352-1.75-1.391-2.904a4.128 4.128 0 011.153-3.023l3.976-4.137c1.472-1.512 3.858-1.671 5.488-.318l.159.159a4.016 4.016 0 011.471 2.983c.04 1.154-.397 2.307-1.232 3.103l-4.176 3.978c-.755.796-1.749 1.154-2.783 1.154zm4.016-11.059c-.756 0-1.511.278-2.068.875l-3.976 4.137a2.758 2.758 0 00-.796 2.108c.04.796.398 1.512.994 2.029a2.826 2.826 0 003.858-.079l4.175-3.978a2.795 2.795 0 00.875-2.188c-.04-.836-.398-1.591-1.034-2.108l-.159-.16c-.597-.437-1.233-.636-1.869-.636z" fill="#000"/><path d="M230.282 608.162l48.475.954a63.094 63.094 0 012.664-9.069c4.056-10.701 10.22-18.378 15.071-23.271-11.492-7.16-23.024-14.36-34.516-21.52a86.984 86.984 0 01-17.139 7.995c-27.081 9.269-51.855 2.904-63.586-1.074l-1.63 6.962c2.943-.398 19.088-2.188 33.642 9.189 14.315 11.138 16.622 26.81 17.019 29.834z" fill="#524FA0"/><path d="M279.232 609.713l-49.469-.955-.079-.517c-.557-4.256-3.38-19.014-16.781-29.476-13.64-10.621-28.87-9.626-33.205-9.07l-.835.12 1.949-8.433.636.199c15.19 5.131 38.533 9.507 63.187 1.074a90.919 90.919 0 0017.06-7.956l.318-.199 35.471 22.117-.517.517c-6.681 6.762-11.731 14.519-14.952 23.072-1.113 2.904-1.988 5.927-2.664 8.99l-.119.517zm-48.435-2.108l47.48.914a73.06 73.06 0 012.585-8.711c3.221-8.473 8.152-16.19 14.713-22.952l-33.562-20.964c-5.408 3.222-11.095 5.888-16.94 7.876-24.655 8.434-47.957 4.257-63.347-.835l-1.272 5.49c5.368-.557 20.042-.915 33.244 9.387 13.202 10.383 16.383 24.822 17.099 29.795z" fill="#000"/><path d="M43.224 522.081l56.984 6.563 8.231-11.257c1.909-2.626 6.164-4.774 9.425-4.774 5.13 1.035 7.993 6.564 5.885 11.337l-7.158 14.997 56.865 30.868 14.196 4.893c14.793 5.091 24.655 19.094 24.416 34.727-.039 1.75-.039 3.46-.079 5.211v1.432l-166.34-2.228c-2.425-2.625-5.805-6.882-8.151-12.848-.915-2.308-3.937-10.542-.796-31.903 1.074-7.279 3.023-17.224 6.84-28.84-.12-6.046-.239-12.092-.318-18.178z" fill="#FF6EC1"/><path d="M212.586 616.714h-.597l-166.617-2.227-.16-.199c-3.618-3.898-6.402-8.314-8.27-13.048-3.34-8.472-2.307-22.196-.836-32.22 1.432-9.667 3.698-19.373 6.84-28.84l-.318-18.736 57.302 6.604 8.033-10.979c2.028-2.785 6.481-5.012 9.901-5.012h.12a8.723 8.723 0 016.084 4.574c1.232 2.387 1.312 5.132.238 7.598l-6.919 14.479 56.308 30.59 14.157 4.853a36.684 36.684 0 0124.813 35.324l-.079 7.239zm-166.697-3.46l165.504 2.227.079-6.046c.199-15.434-9.424-29.158-24.018-34.17l-14.276-4.933-57.342-31.146 7.397-15.474a7.606 7.606 0 00-.239-6.564c-1.074-2.028-2.943-3.46-5.169-3.938-3.023.04-7.079 2.109-8.868 4.535l-8.47 11.536-56.666-6.524.278 17.582-.04.08c-3.101 9.427-5.408 19.094-6.84 28.76-2.067 14.161-1.789 25.1.756 31.584a42.316 42.316 0 007.914 12.491z" fill="#000"/><path d="M208.768 610.509c4.295.079 8.112 2.983 8.987 7.2l.12.716a10.118 10.118 0 01-.279 3.938c-1.073 4.017-4.851 6.762-9.027 6.762l-158.545.239c-6.482 0-11.532-5.569-10.896-12.013.557-5.689 5.408-9.945 11.095-9.866l158.545 3.024z" fill="#fff"/><path d="M50.024 629.921a11.623 11.623 0 01-8.55-3.779 11.612 11.612 0 01-2.942-8.911c.596-5.927 5.726-10.501 11.69-10.382l158.546 3.063c4.652.079 8.669 3.302 9.544 7.677.039.239.079.517.119.756a11.17 11.17 0 01-.278 4.137c-1.114 4.217-5.051 7.2-9.584 7.2l-158.545.239zm0-21.879c-5.25 0-9.783 4.058-10.3 9.309a10.388 10.388 0 002.625 7.955 10.35 10.35 0 007.675 3.381l158.545-.238c4.016 0 7.476-2.586 8.43-6.325a9.71 9.71 0 00.239-3.699c-.04-.239-.08-.478-.119-.677-.796-3.818-4.335-6.643-8.391-6.722l-158.545-3.063c-.04.079-.08.079-.16.079z" fill="#000"/><path d="M156.436 609.554c-.08-3.58.159-7.837 1.193-12.491 3.102-13.883 11.373-22.992 15.827-27.209 1.471.438 3.698 1.154 6.362 2.029 6.323 2.108 9.504 3.182 11.89 4.376 6.323 3.182 10.22 7.399 11.492 8.831a36.242 36.242 0 016.283 10.064 38.5 38.5 0 011.949 7.2c.517 3.262.556 6.086.397 8.313l-2.624-.596c-17.616-.159-35.193-.358-52.769-.517z" fill="#F9D84E"/><path d="M211.788 611.264h-.119l-2.585-.597-52.69-.517a.61.61 0 01-.596-.596 51.397 51.397 0 011.193-12.61c2.903-12.968 10.299-22.117 16.025-27.527a.556.556 0 01.597-.119c2.147.636 4.255 1.352 6.362 2.028 6.363 2.109 9.544 3.183 11.97 4.416 5.885 2.983 9.822 6.881 11.651 8.99 2.665 3.023 4.812 6.484 6.402 10.223.915 2.387 1.551 4.853 1.989 7.359.437 2.784.596 5.648.397 8.473a.548.548 0 01-.238.437c-.08 0-.199.04-.358.04zm-54.797-2.307l52.172.517h.12l1.948.438c.12-2.506-.04-5.012-.437-7.479a35.802 35.802 0 00-1.909-7.08c-1.511-3.62-3.619-6.922-6.203-9.865-1.75-2.029-5.568-5.808-11.294-8.712-2.346-1.193-5.487-2.228-11.81-4.336-1.988-.676-4.017-1.313-6.005-1.949-5.527 5.33-12.605 14.201-15.429 26.691a55.532 55.532 0 00-1.153 11.775z" fill="#000"/><path d="M162.638 564.286c-1.392 1.313-2.784 2.665-4.176 3.978a3.471 3.471 0 01-4.652.119c-1.512-1.313-1.591-3.62-.239-5.052l3.977-4.137c1.272-1.313 3.3-1.432 4.692-.278.04.039.119.079.159.159 1.63 1.352 1.75 3.779.239 5.211z" fill="#fff"/><path d="M156.078 569.855c-.954 0-1.908-.318-2.664-.995-.835-.756-1.352-1.75-1.392-2.904a4.135 4.135 0 011.153-3.023l3.977-4.137c1.471-1.511 3.857-1.67 5.488-.318l.159.159c.914.716 1.431 1.83 1.471 2.984.04 1.153-.398 2.307-1.233 3.102l-4.175 3.978c-.756.796-1.79 1.154-2.784 1.154zm3.977-11.059c-.756 0-1.511.279-2.068.875l-3.976 4.137a2.755 2.755 0 00-.796 2.109c.04.795.398 1.511.994 2.028a2.826 2.826 0 003.858-.079l4.175-3.978a2.798 2.798 0 00.875-2.188c-.04-.835-.398-1.591-1.034-2.108l-.159-.159a3.034 3.034 0 00-1.869-.637z" fill="#000"/><path d="M147.606 555.614c-1.392 1.313-2.783 2.665-4.175 3.978a3.473 3.473 0 01-4.653.119c-1.511-1.313-1.59-3.62-.238-5.052l3.976-4.137c1.273-1.312 3.301-1.432 4.693-.278.039.04.119.079.159.159 1.67 1.352 1.749 3.779.238 5.211z" fill="#fff"/><path d="M141.047 561.183c-.954 0-1.909-.318-2.664-.995-.835-.755-1.352-1.75-1.392-2.903a4.135 4.135 0 011.153-3.024l3.977-4.137c1.471-1.511 3.857-1.67 5.487-.318l.159.159a4.02 4.02 0 011.472 2.984c.04 1.153-.398 2.307-1.233 3.102l-4.175 3.978a3.912 3.912 0 01-2.784 1.154zm4.016-11.059c-.755 0-1.511.279-2.067.876l-3.977 4.137a2.75 2.75 0 00-.795 2.108c.039.795.397 1.511.994 2.028a2.825 2.825 0 003.857-.079l4.176-3.978a2.796 2.796 0 00.874-2.188c-.039-.835-.397-1.591-1.034-2.108l-.159-.159c-.596-.438-1.232-.637-1.869-.637z" fill="#000"/><path d="M133.294 546.545c-1.392 1.312-2.784 2.665-4.176 3.977a3.471 3.471 0 01-4.652.12c-1.511-1.313-1.591-3.62-.239-5.052l3.977-4.137c1.272-1.313 3.3-1.432 4.692-.279.04.04.119.08.159.16a3.473 3.473 0 01.239 5.211z" fill="#fff"/><path d="M126.731 552.074a3.969 3.969 0 01-2.665-.995c-.835-.756-1.352-1.75-1.391-2.904a4.128 4.128 0 011.153-3.023l3.976-4.137c1.472-1.512 3.858-1.671 5.488-.318l.159.159a4.016 4.016 0 011.471 2.983c.04 1.154-.397 2.307-1.232 3.103l-4.176 3.978a3.877 3.877 0 01-2.783 1.154zm3.976-11.059c-.755 0-1.511.278-2.068.875l-3.976 4.137a2.753 2.753 0 00-.795 2.108c.039.796.397 1.512.994 2.029a2.825 2.825 0 003.857-.079l4.175-3.978a2.795 2.795 0 00.875-2.188c-.04-.836-.397-1.591-1.034-2.108l-.199-.16a2.927 2.927 0 00-1.829-.636z" fill="#000"/><path d="M87.325 608.162l48.475.954a63.094 63.094 0 012.664-9.069c4.056-10.701 10.22-18.378 15.071-23.271-11.492-7.16-23.024-14.36-34.516-21.52a86.984 86.984 0 01-17.139 7.995c-27.08 9.269-51.855 2.904-63.585-1.074l-1.63 6.962c2.942-.398 19.087-2.188 33.64 9.189 14.316 11.138 16.623 26.81 17.02 29.834z" fill="#524FA0"/><path d="M136.274 609.713l-49.468-.955-.08-.517c-.556-4.256-3.38-19.014-16.78-29.476-13.64-10.621-28.87-9.626-33.205-9.07l-.835.12 1.949-8.433.636.199c15.19 5.131 38.533 9.507 63.187 1.074a90.919 90.919 0 0017.06-7.956l.318-.199 35.471 22.117-.517.517c-6.681 6.762-11.731 14.519-14.952 23.072-1.113 2.904-1.988 5.927-2.664 8.99l-.12.517zm-48.434-2.108l47.48.914a73.06 73.06 0 012.585-8.711c3.221-8.473 8.152-16.19 14.713-22.952l-33.562-20.964c-5.408 3.222-11.095 5.888-16.94 7.876-24.655 8.434-47.957 4.257-63.347-.835l-1.272 5.49c5.368-.557 20.042-.915 33.244 9.387 13.202 10.383 16.383 24.822 17.1 29.795z" fill="#000"/><path d="M184.232 44.617l4.772 2.188c1.352.636 1.869 2.307 1.113 3.62a2.513 2.513 0 01-3.301.994l-5.527-2.545" fill="#FF6EC1"/><path d="M187.892 52.255c-.437 0-.915-.08-1.352-.318l-5.527-2.546c-.319-.12-.438-.477-.279-.796.12-.318.477-.437.796-.278l5.527 2.546c.915.437 2.028.08 2.545-.756a1.942 1.942 0 00.199-1.551 1.92 1.92 0 00-1.034-1.194l-4.772-2.188c-.318-.119-.437-.477-.278-.795.119-.318.477-.438.795-.279l4.772 2.188c.795.358 1.392 1.074 1.67 1.91.278.835.159 1.75-.278 2.506-.637.994-1.671 1.551-2.784 1.551z" fill="#000"/><path d="M184.075 19.198a5212.64 5212.64 0 00-21.99-9.387c-3.142.517-6.84 1.59-10.578 3.739-14.196 8.194-16.741 25.22-17.139 28.123 1.034 3.5 2.028 7.001 3.062 10.502-.676 2.466-1.233 4.375-1.591 5.728-.516 1.87-.516 1.83-.556 1.949-.358 1.233-.676 2.466-1.352 4.654a2.14 2.14 0 00.238 1.83c1.114 1.79 4.335 7.359 10.061 7.757 2.187.159 4.295-.438 7.158-1.233 1.272-.358 2.306-.716 2.982-.995.915-1.91 1.829-3.898 2.704-5.967a232.89 232.89 0 001.511-3.54c4.494 2.387 7.914 2.307 9.783 2.029 9.265-1.353 17.337-12.77 18.451-28.522a19.77 19.77 0 00.636-8.154 18.977 18.977 0 00-3.38-8.513z" fill="#FF6EC1"/><path d="M144.946 74.73c-.278 0-.517 0-.795-.04-5.846-.438-9.146-5.808-10.379-7.876l-.119-.2c-.438-.675-.517-1.51-.279-2.306.676-2.188.995-3.421 1.352-4.654l.04-.12c.04-.12.119-.477.517-1.87.358-1.312.915-3.221 1.551-5.568l-3.022-10.343a.252.252 0 010-.239c.636-4.693 3.738-20.645 17.417-28.56 3.261-1.91 6.88-3.183 10.777-3.82.119 0 .238 0 .318.04l21.99 9.388a.41.41 0 01.239.2 20.015 20.015 0 013.499 8.87c.358 2.744.159 5.648-.636 8.353-1.114 15.395-9.067 27.567-18.968 28.999-3.062.438-6.283-.16-9.584-1.79a66.45 66.45 0 01-1.272 2.944 162.574 162.574 0 01-2.744 5.966c-.08.16-.199.239-.318.319-.994.358-2.028.716-3.062.994-2.545.756-4.494 1.313-6.522 1.313zm-9.981-33.096l3.022 10.382c.04.12.04.239 0 .318-.676 2.467-1.233 4.376-1.59 5.728-.398 1.393-.478 1.711-.517 1.87l-.04.08a114.81 114.81 0 01-1.352 4.654c-.119.437-.08.915.159 1.312l.119.2c1.153 1.909 4.255 6.92 9.464 7.279 2.108.159 4.136-.398 6.959-1.194.915-.238 1.83-.556 2.744-.875.915-1.909 1.79-3.818 2.625-5.728.517-1.153.994-2.347 1.511-3.54.079-.16.199-.279.358-.318a.664.664 0 01.477.04c3.261 1.75 6.442 2.386 9.424 1.988 9.345-1.352 16.901-13.087 17.935-27.964 0-.04 0-.08.039-.12a18.88 18.88 0 00.597-7.876c-.517-3.66-1.988-6.483-3.221-8.194l-21.672-9.268c-3.659.636-7.118 1.87-10.22 3.66-13.083 7.557-16.145 22.832-16.821 27.566z" fill="#000"/><path d="M143.632 52.693c.119-2.347.239-4.654.318-7.001-2.068 2.187-4.096 4.335-6.163 6.523-.915-2.188-2.188-5.648-3.221-9.984-1.353-5.848-3.301-14.36-.199-23.669 1.034-3.102 2.982-5.052 4.931-9.865.954-2.347 2.545-4.972 5.129-6.603 3.062-1.95 6.522-1.472 9.465-.915 5.925 1.074 14.196 2.904 26.483 7.956.517.12 8.749 2.307 10.737 8.91.716 2.387.438 4.774.398 5.092-.239 1.91-1.829 4.177-3.818 6.603-5.09-1.352-9.384-2.705-14.474-4.097-2.585 1.95-5.13 3.938-7.715 5.887a56.121 56.121 0 01-5.965 8.354c-5.487 6.404-11.452 10.382-15.906 12.809z" fill="#3FD1FF"/><path d="M143.631 53.289a.743.743 0 01-.318-.08.58.58 0 01-.279-.517l.239-5.37-5.05 5.33c-.12.16-.358.2-.557.16a.575.575 0 01-.438-.358c-1.352-3.262-2.465-6.644-3.221-10.104-1.312-5.808-3.3-14.56-.198-23.987.517-1.551 1.232-2.824 2.107-4.256.875-1.512 1.869-3.183 2.824-5.61.874-2.147 2.505-5.051 5.328-6.88 3.142-1.99 6.601-1.592 9.862-1.035 5.925 1.074 14.316 2.944 26.563 7.996.756.198 9.067 2.506 11.095 9.308.676 2.307.517 4.495.398 5.33-.279 2.148-2.068 4.575-3.937 6.922a.566.566 0 01-.636.199c-2.545-.677-4.931-1.393-7.238-2.03-2.227-.635-4.493-1.312-6.919-1.948l-7.396 5.648a53.648 53.648 0 01-5.965 8.314c-4.494 5.211-9.902 9.547-16.065 12.928 0 .04-.08.04-.199.04zm.358-8.155a.5.5 0 01.238.04c.239.08.358.318.358.597l-.278 5.927c5.646-3.222 10.657-7.28 14.832-12.133a55.612 55.612 0 005.886-8.274.306.306 0 01.159-.159l7.714-5.887a.6.6 0 01.517-.12c2.545.677 4.931 1.393 7.237 2.03 2.188.636 4.454 1.272 6.84 1.948 1.631-1.988 3.221-4.216 3.46-6.006.079-.597.278-2.705-.358-4.853-1.909-6.365-9.981-8.433-10.299-8.513-.04 0-.04 0-.08-.04-12.168-5.012-20.479-6.881-26.365-7.916-3.022-.557-6.243-.915-9.026.836-2.585 1.67-4.096 4.375-4.891 6.325-1.034 2.506-2.028 4.256-2.903 5.767-.796 1.393-1.511 2.586-1.989 4.058-3.022 9.11-1.073 17.662.239 23.35a62.71 62.71 0 002.823 9.03l5.528-5.848c.039-.119.199-.159.358-.159z" fill="#000"/><path d="M175.205 33.001c-1.67-1.113-3.341-2.187-5.011-3.301-2.624-1.75-6.084-1.87-8.748-.16a7.972 7.972 0 00-3.301 4.217l-.676 2.029a7.982 7.982 0 00.199 5.609c.756 1.87 2.187 2.903 3.818 4.137a18.142 18.142 0 004.016 2.267" fill="#FF6EC1"/><path d="M165.504 48.435c-.08 0-.159 0-.239-.04a18.504 18.504 0 01-4.136-2.346l-.119-.08c-1.59-1.193-3.102-2.307-3.897-4.296a8.56 8.56 0 01-.199-6.046l.676-2.029a8.553 8.553 0 013.539-4.535c2.824-1.79 6.482-1.71 9.385.2l5.011 3.3c.278.2.357.558.159.836-.199.279-.557.358-.835.16l-5.011-3.302c-2.505-1.631-5.686-1.71-8.072-.16-1.472.915-2.506 2.268-3.062 3.939l-.676 2.028c-.557 1.71-.517 3.54.159 5.211.676 1.671 1.988 2.666 3.539 3.78l.119.079a18.514 18.514 0 003.857 2.188c.319.119.438.477.319.795-.04.16-.279.319-.517.319zm13.321-20.645c-.079 0-.159 0-.239-.04-.318-.119-.437-.477-.278-.795.08-.159.159-.358.278-.596.955-1.87 3.54-6.882 1.472-12.173a15.482 15.482 0 00-3.897-5.728.615.615 0 01-.04-.835.615.615 0 01.835-.04c1.909 1.75 3.301 3.858 4.215 6.166 2.267 5.807-.477 11.138-1.511 13.167l-.278.556a.635.635 0 01-.557.319z" fill="#000"/><path d="M143.711 45.97s1.551-3.978 2.585-7.638l-2.585 7.637z" fill="#3FD1FF"/><path d="M143.713 46.566c-.079 0-.159 0-.198-.04-.318-.119-.477-.477-.358-.755 0-.04 1.551-4.018 2.545-7.598.079-.318.437-.517.716-.398.318.08.517.398.397.716-.994 3.66-2.585 7.678-2.585 7.717-.039.239-.278.358-.517.358z" fill="#000"/><path d="M81.16 48.077L23.899 88.293l71.897 87.752 56.029-41.409-70.663-86.559z" fill="#fff"/><path d="M95.792 176.642a.73.73 0 01-.477-.199L23.458 88.691c-.119-.119-.159-.278-.119-.477.04-.159.12-.318.239-.398L80.84 47.6c.239-.199.597-.12.795.12l70.664 86.518a.449.449 0 01.119.438c-.04.159-.119.318-.238.397l-56.03 41.45a.645.645 0 01-.358.119zM24.771 88.413l71.1 86.797 55.076-40.733-69.908-85.564-56.268 39.5z" fill="#000"/><path d="M51.019 57.425L1.352 106.71l85.575 74.426 48.275-50.281-84.183-73.431z" fill="#fff"/><path d="M86.926 181.734a.57.57 0 01-.398-.159L.953 107.149a.64.64 0 01-.2-.438c0-.159.04-.318.16-.437L50.62 56.988a.566.566 0 01.795-.04L135.6 130.42c.119.12.199.279.199.438 0 .159-.04.318-.159.438l-48.276 50.24a.64.64 0 01-.437.199zm-84.7-75.062l84.7 73.63 47.44-49.405-83.309-72.636-48.832 48.411z" fill="#000"/><path d="M107.605 125.606c-8.232 11.496-16.503 22.992-24.734 34.488a18192.695 18192.695 0 0024.773-34.607c5.409-8.234 10.817-16.508 16.265-24.742a42.825 42.825 0 005.249-8.394c2.385-5.052 5.288-11.177 3.459-18.06-.119-.516-2.147-7.04-7.714-10.938-9.385-6.524-23.979-3.74-30.938 7.518l-57.58 85.524c-3.699 5.489-5.727 12.013-5.528 18.616.12 3.501.795 7.32 2.585 11.178 1.233 2.665 4.93 10.82 13.878 14.002.199.08.398.159.596.199 5.33 1.711 10.42.478 14.634-.954 5.886-2.029 9.981-4.376 13.043-6.087a279.254 279.254 0 0119.446-9.865c.04-1.989.04-3.938.08-5.927.198 0 .357-.04.556-.04h.12c0-.039 0-.119-.04-.159-.04-.238.318-.358.397-.119 0 .08.04.159.04.278 2.545 0 5.05.04 7.555-.238 1.074-.12 2.148-.199 3.221-.04 11.254-6.046 18.69-10.303 18.69-10.303 6.76-4.137 13.52-8.234 20.281-12.371l-38.334-28.959z" fill="#FF6EC1"/><path d="M95.951 182.41c-10.18 5.291-21.95 11.178-33.602 16.468-4.573 2.069-9.623 2.427-14.196.955-.199-.08-.398-.119-.596-.199-8.71-3.103-12.328-11.058-13.52-13.684-1.552-3.421-2.387-7.08-2.506-10.979-.199-6.404 1.67-12.729 5.408-18.258l57.58-85.524c3.301-5.33 8.51-8.99 14.595-10.263 5.527-1.154 11.174-.08 15.508 2.904 5.607 3.898 7.476 10.541 7.476 10.58 1.75 6.684-1.113 12.77-3.459 17.663a42.455 42.455 0 01-5.17 8.274l-.04.039-16.224 24.743-24.774 34.607a.617.617 0 00.12.835c.278.199.635.12.834-.119l24.734-34.488c.04-.08.08-.119.08-.199l16.224-24.702a43.042 43.042 0 005.329-8.513c2.386-5.052 5.368-11.377 3.499-18.497 0-.08-1.988-7.12-7.953-11.258-4.573-3.182-10.538-4.296-16.423-3.102-6.323 1.312-11.93 5.25-15.35 10.78l-57.58 85.524c-3.857 5.768-5.806 12.292-5.607 18.974.12 4.018.994 7.877 2.625 11.417 1.232 2.745 5.05 11.058 14.236 14.32.199.08.437.159.636.199a20.14 20.14 0 006.164.955 21.31 21.31 0 008.907-1.949c11.413-5.172 22.945-10.94 32.966-16.111 0-.477.04-.915.08-1.392zm50.583-28.163c-.159-.279-.556-.358-.835-.199l-20.28 12.371c-.159.08-7.953 4.535-19.485 10.74a9.7 9.7 0 011.073.08c.318.04.597.119.915.199 10.776-5.808 17.934-9.905 18.093-9.985l20.281-12.371c.318-.199.397-.557.238-.835z" fill="#000"/><path d="M75.512 92.153c13.997 7.518 27.995 15.076 42.032 22.594 4.334-7.12 8.629-14.28 12.963-21.4 3.778-6.246 4.653-13.923 1.989-20.725-1.631-4.217-4.454-7.837-8.232-10.263-7.754-5.012-18.451-4.336-27.24 1.511-2.465 1.631-4.532 3.74-6.203 6.166-5.09 7.36-10.22 14.758-15.31 22.117z" fill="#fff"/><path d="M117.507 115.383a.735.735 0 01-.279-.079L75.196 92.71c-.159-.08-.238-.24-.278-.398a.65.65 0 01.08-.478l15.31-22.117c1.789-2.545 3.936-4.693 6.362-6.324 9.026-6.007 20.002-6.604 27.875-1.512 3.818 2.466 6.721 6.086 8.47 10.541 2.665 6.842 1.909 14.798-2.028 21.282l-12.963 21.361a.62.62 0 01-.517.318zm-41.118-23.43l40.919 22.038 12.685-20.923c3.738-6.166 4.454-13.724 1.949-20.208-1.631-4.217-4.414-7.677-7.993-9.984-7.516-4.814-17.934-4.257-26.564 1.511-2.306 1.552-4.334 3.58-6.044 6.007L76.39 91.954z" fill="#000"/><path d="M104.186 79.9c-1.392 3.54-3.818 9.745-4.891 18.298-.637 5.29-.2 6.683-.398 15.235a227.07 227.07 0 01-1.113 17.304 97.242 97.242 0 00-2.108 14.797 91.98 91.98 0 00-.199 10.343 227.58 227.58 0 01-4.454 22.157c22.627-.677 45.254-1.393 67.84-2.069 6.88-15.275 17.696-50.399 23.542-75.778 1.471-6.405 3.579-16.15-1.83-23.748-5.05-7.12-14.116-8.831-18.53-9.308-5.727-.279-16.264-.796-31.057-1.432-3.977-.16-7.317-.319-10.22-.16" fill="#fff"/><path d="M90.983 178.631a.567.567 0 01-.478-.239c-.119-.159-.159-.358-.119-.517 1.83-7.24 3.34-14.678 4.454-22.037a99.57 99.57 0 01.199-10.343 103.402 103.402 0 012.147-14.837c.596-5.649.954-11.417 1.113-17.224.08-3.342.08-5.569.04-7.399-.04-2.785-.04-4.654.358-7.916 1.074-8.791 3.658-15.315 4.931-18.418a.568.568 0 01.755-.318.57.57 0 01.319.756c-1.313 3.302-3.778 9.507-4.852 18.14-.397 3.181-.397 4.892-.358 7.756 0 1.83.04 4.057-.04 7.439-.159 5.847-.516 11.694-1.113 17.343v.08c-1.074 4.813-1.75 9.785-2.108 14.718a98.969 98.969 0 00-.198 10.302v.12a222.234 222.234 0 01-4.295 21.44l66.687-2.028c6.68-14.957 17.338-49.286 23.382-75.301 1.352-5.888 3.619-15.713-1.75-23.27-4.453-6.286-12.287-8.394-18.093-9.07-9.464-.478-19.923-.955-31.017-1.432-4.176-.2-7.357-.279-10.18-.16a.642.642 0 01-.636-.556c0-.319.238-.597.556-.637 2.863-.12 6.045 0 10.3.16 11.134.477 21.592.954 31.056 1.431 6.085.676 14.237 2.904 18.969 9.547 5.686 7.996 3.34 18.179 1.908 24.265-6.084 26.294-16.9 61.021-23.581 75.858a.565.565 0 01-.517.358l-67.84 1.989z" fill="#000"/><path d="M400.437 121.946c-7.158.12-14.316.239-21.474.398l-87.443 33.175 6.004 19.134c29.586-11.735 59.131-23.469 88.716-35.204 5.011-5.171 10.061-10.343 15.071-15.554.676-.755.159-1.989-.874-1.949z" fill="#F15922"/><path d="M297.128 175.449l-6.362-20.287.517-.199 87.523-33.216 21.593-.397h.04c.715 0 1.312.397 1.59 1.074.279.676.159 1.392-.358 1.909l-15.15 15.633-.12.04-89.273 35.443zm-4.891-19.611l5.647 18.02 88-34.926 14.992-15.434a.526.526 0 00.119-.597c-.039-.08-.198-.358-.517-.318l-21.393.398-86.848 32.857z" fill="#000"/><path d="M378.925 122.305l-1.273 10.502c5.17 2.466 5.051 2.426 10.22 4.892l14.514-14.956c.319-.319.08-.836-.357-.836l-23.104.398z" fill="#fff"/><path d="M387.913 138.295c-.08 0-.159 0-.239-.039l-10.219-4.893a.563.563 0 01-.319-.597l1.273-10.501a.602.602 0 01.596-.518l23.144-.397c.437 0 .835.238.994.636.159.398.08.875-.199 1.193l-14.514 14.997c-.239.04-.358.119-.517.119zm-9.623-5.847l9.464 4.535 14.037-14.48-22.348.398-1.153 9.547z" fill="#000"/><path d="M393.438 122.225l2.346 6.842 6.203-6.006c.437-.438.119-1.154-.477-1.114l-8.072.278z" fill="#000"/><path d="M278.637 148.638a885.607 885.607 0 014.374-12.968c4.175-12.053 5.13-14.042 7.277-16.19.954-.955 7.237-7.2 15.548-5.49 7.993 1.631 11.453 9.229 11.811 10.064.835 2.069 1.63 4.137 2.465 6.206.875 2.148 1.71 4.296 2.585 6.444 1.591 3.938 0 8.433-3.738 10.462-4.016 2.227-9.902-2.745-11.969-4.456a19.016 19.016 0 01-2.704-2.665c-1.313-4.455-2.307-7.836-2.983-10.064a455.256 455.256 0 00-.994-3.341s.795 2.625 4.175 14.002" fill="#FF6EC1"/><path d="M278.636 149.234c-.079 0-.119 0-.199-.039a.63.63 0 01-.397-.756c1.431-4.296 2.903-8.672 4.374-12.968 4.096-11.854 5.13-14.161 7.396-16.429 2.227-2.227 8.272-7.279 16.105-5.648 8.232 1.67 11.851 9.507 12.248 10.422l5.05 12.689c1.671 4.217-.039 9.03-3.976 11.218-4.295 2.386-10.22-2.546-12.486-4.376l-.16-.119c-.715-.597-1.431-1.233-2.067-1.949a.599.599 0 01-.597-.438l-.119-.358c-.04-.08-.08-.119-.119-.199-1.313-4.455-2.307-7.836-2.983-10.064-.318-.994-.557-1.869-.716-2.426-.079-.279-.159-.518-.198-.716-.04-.12-.04-.16-.04-.199-.08-.478 0-.597.318-.756h.04c.397-.119.596.079.715.437 0 0 0 .04.04.12.04.119.08.278.12.437.119.438.318 1.114.636 2.148.596 1.989 1.59 5.331 3.181 10.661a20.788 20.788 0 002.505 2.427l.159.119c2.068 1.71 7.596 6.245 11.135 4.256 3.419-1.909 4.931-6.086 3.459-9.746l-4.97-12.768c-.358-.796-3.738-8.155-11.373-9.706-7.238-1.472-12.924 3.261-15.032 5.33-1.988 1.989-2.863 3.699-7.118 15.951-1.471 4.296-2.982 8.672-4.374 12.968-.08.318-.318.477-.557.477z" fill="#000"/><path d="M297.405 139.25c7.357-3.461 14.753-6.921 22.11-10.382 8.112-3.381 16.223-6.802 24.375-10.183 4.812-1.751 10.14.716 11.93 5.529 1.75 4.813-.716 10.143-5.528 11.933a1199.177 1199.177 0 00-10.697 3.978c3.619-1.153 7.238-2.267 10.896-3.421 4.812-1.75 10.14.716 11.93 5.53 1.75 4.813-.716 10.143-5.528 11.933-5.487 1.91-10.935 3.819-16.423 5.728-.119.08-.199.159-.318.239 5.647-1.79-1.988.716 3.659-1.074 4.811-1.75 10.14.716 11.929 5.529 1.75 4.813-.716 10.144-5.527 11.934-11.492 3.898-9.703 3.421-21.155 7.319l-25.807 7.717c0 .04 0 .12.039.159-35.59 12.292-71.18 24.584-106.81 36.875-21.275 7.359-43.941-6.722-46.804-29.078l-.437-3.501c-2.148-26.93-4.375-54.656-6.641-83.137h40.6c3.539 23.549 7.039 47.138 10.578 70.687 28.631-11.974 57.262-23.947 85.854-35.881" fill="#FF6EC1"/><path d="M184.87 231.06c-6.64 0-13.202-1.83-19.007-5.45-9.266-5.768-15.39-15.275-16.742-26.135l-.437-3.5-6.641-83.177c0-.16.04-.319.159-.438a.639.639 0 01.437-.199h40.601c.278 0 .557.199.597.517l10.458 69.931 85.178-35.602a.613.613 0 01.795.318.614.614 0 01-.318.796l-85.854 35.88a.489.489 0 01-.517-.039.49.49 0 01-.278-.438l-10.498-70.17h-39.448l6.601 82.501.438 3.461c1.312 10.462 7.237 19.691 16.184 25.26a34.735 34.735 0 0029.824 3.341l106.453-36.755a.632.632 0 01.358-.279l25.808-7.677c5.725-1.949 8.191-2.785 10.537-3.66 2.386-.835 4.851-1.71 10.578-3.659 4.493-1.631 6.8-6.643 5.169-11.138-1.67-4.495-6.641-6.803-11.174-5.172-.875.279-1.431.478-1.789.557-.239.08-.517.159-.716.159-.318.08-.676.239-1.193.398a.643.643 0 01-.716-.278c-.159-.239-.079-.557.159-.756l.318-.239c.04-.04.12-.079.199-.119l16.423-5.728c2.187-.796 3.897-2.387 4.891-4.495.995-2.109 1.074-4.455.279-6.643-1.67-4.495-6.641-6.802-11.174-5.172l-10.896 3.421a.646.646 0 01-.756-.358c-.119-.318.04-.636.358-.755l10.697-3.978c4.494-1.671 6.84-6.643 5.17-11.178-1.67-4.495-6.641-6.802-11.174-5.171l-24.336 10.183-22.07 10.343c-.318.159-.637 0-.796-.279-.159-.318 0-.636.279-.795l22.109-10.383 24.376-10.183c5.13-1.87 10.816.756 12.725 5.887 1.591 4.336-.04 9.07-3.658 11.576 4.374-.438 8.708 2.108 10.299 6.444a9.78 9.78 0 01-.318 7.558 9.934 9.934 0 01-5.567 5.131l-9.146 3.183c3.658.358 7.038 2.744 8.39 6.444 1.869 5.131-.755 10.82-5.885 12.689-5.766 1.949-8.192 2.824-10.578 3.66-2.386.835-4.851 1.71-10.577 3.659l-25.45 7.598a.492.492 0 01-.318.239l-106.81 36.875c-4.056 1.352-8.033 1.989-12.01 1.989z" fill="#000"/><path d="M139.855 93.743c.637 8.592 1.313 17.224 1.949 25.816l45.81-8.711-3.34-24.225c-.955-7.081-5.051-13.446-11.254-16.946-3.857-2.188-8.192-3.183-12.566-2.705-.159 0-.318.04-.477.04" fill="#fff"/><path d="M141.803 120.156a.643.643 0 01-.358-.119c-.119-.12-.239-.279-.239-.438l-1.948-25.816c-.04-.318.238-.597.556-.637.319 0 .597.239.637.557l1.908 25.18 44.617-8.512-3.26-23.669c-.955-6.961-5.051-13.166-10.976-16.508-3.817-2.188-8.032-3.103-12.208-2.625-.159 0-.318.04-.477.04a.618.618 0 01-.676-.518.618.618 0 01.517-.676c.159-.04.318-.04.517-.08 4.414-.477 8.868.478 12.924 2.785 6.243 3.54 10.538 10.064 11.572 17.383l3.34 24.226a.611.611 0 01-.477.676l-45.81 8.711c-.08.04-.12.04-.159.04zm218.989 19.055a.599.599 0 01-.557-.398c-.119-.318.04-.637.358-.756l16.9-5.847c.318-.12.636.039.756.358.119.318-.04.636-.358.755l-16.901 5.848c-.079.04-.159.04-.198.04zm-175.963-98.93c-.875 0-1.591.756-1.591 1.631s.756 1.591 1.631 1.591 1.59-.755 1.59-1.63c0-.876-.715-1.592-1.63-1.592zM128.998 430.43c-.278-.159-.636 0-.795.279l-15.429 32.022c-.159.278 0 .636.278.795.08.04.16.04.239.04a.635.635 0 00.557-.318l15.429-32.022c.159-.278.04-.636-.279-.796zM94.759 324.818a.612.612 0 00-.597.597l-.119 31.187a.61.61 0 00.596.596.611.611 0 00.597-.596l.12-31.187a.586.586 0 00-.597-.597zm129.002 70.965a.612.612 0 00-.597.597l.795 38.983c0 .318.279.597.597.597a.612.612 0 00.596-.597l-.795-38.983a.586.586 0 00-.596-.597zm-67.643-40.215c-.119-.319-.438-.478-.756-.358-.318.119-.477.437-.358.755l10.578 30.073c.08.238.318.397.557.397.079 0 .119 0 .199-.039.318-.12.477-.438.357-.756l-10.577-30.072zM95.873 222.071a.576.576 0 00-.835 0 .576.576 0 000 .835l7.317 7.319c.119.12.279.159.438.159a.576.576 0 00.437-.994l-7.357-7.319zm-.437-65.597c.279 0 .517-.159.557-.438l5.09-18.298c.08-.318-.079-.636-.398-.716-.318-.079-.636.08-.715.398l-5.09 18.298c-.08.318.08.637.397.716.08.04.12.04.16.04zM76.348 98.398c3.698 2.944 9.583 8.433 13.997 17.065 5.925 11.456 6.044 22.117 5.806 27.129 3.062-12.689 6.084-25.379 9.146-38.068l-26.802-10.66c-.716 1.471-1.432 3.022-2.147 4.534z" fill="#000"/><path d="M143.395 119.441a105.66 105.66 0 0116.144-.915c6.681.12 12.248.279 18.889 2.745 3.062 1.114 5.408 2.427 6.999 3.341-.796-4.256-1.631-8.512-2.426-12.808a35803.872 35803.872 0 00-39.606 7.637zM138.94 9.333a.634.634 0 00-.796.279c-.119.278-3.101 6.921-2.266 12.928.04.318.278.517.596.517h.08a.618.618 0 00.517-.676c-.12-.836-.159-1.71-.12-2.586l1.154-6.484c.556-1.91 1.153-3.182 1.153-3.182.119-.318 0-.676-.318-.796zm38.93-1.153c-.278-.16-.636-.04-.795.238-.159.279-.04.637.239.796 1.63.875 7.038 4.296 8.43 10.979.716 3.42.08 6.404-.596 8.313-.12.319.039.637.357.756.08.04.12.04.199.04.239 0 .478-.16.557-.398.716-2.029 1.392-5.25.636-8.95-1.471-7.16-7.277-10.82-9.027-11.774zm.555 40.893a.592.592 0 00-.715.438c-.12.517-.478 2.426.676 4.137.715 1.034 1.63 1.59 2.306 1.83.08.04.159.04.239.04.238 0 .477-.16.556-.359.12-.318-.039-.636-.318-.795a3.603 3.603 0 01-1.749-1.392c-.875-1.313-.637-2.785-.517-3.183a.655.655 0 00-.478-.716z" fill="#000"/><path d="M671.558 624.152c1.67-.397 2.744-2.028 2.346-3.739L616.96 367.381c-.398-1.671-2.028-2.745-3.738-2.347-1.67.398-2.744 2.029-2.346 3.739l56.944 253.032a3.16 3.16 0 003.738 2.347z" fill="#F15922"/><path d="M670.881 624.789c-1.71 0-3.221-1.193-3.618-2.904l-56.945-253.032a3.751 3.751 0 012.824-4.456 3.798 3.798 0 012.783.478 3.59 3.59 0 011.631 2.307L674.5 620.215a3.748 3.748 0 01-2.823 4.455c-.279.119-.517.119-.796.119zm-56.944-259.238c-.199 0-.358.04-.557.079-1.352.319-2.226 1.671-1.908 3.024l56.944 253.033c.318 1.352 1.67 2.187 3.022 1.909 1.352-.318 2.227-1.671 1.909-3.023L616.403 367.54a2.568 2.568 0 00-1.114-1.591 2.425 2.425 0 00-1.352-.398z" fill="#000"/><path d="M639.269 624.152c1.67-.397 2.744-2.028 2.346-3.739l-56.944-253.032c-.398-1.671-2.028-2.745-3.738-2.347-1.67.398-2.744 2.029-2.346 3.739l56.944 253.032a3.16 3.16 0 003.738 2.347z" fill="#F15922"/><path d="M638.592 624.79a3.95 3.95 0 01-1.988-.557 3.591 3.591 0 01-1.63-2.308l-56.945-253.032a3.75 3.75 0 012.824-4.455 3.748 3.748 0 014.454 2.824l56.944 253.033a3.75 3.75 0 01-2.824 4.455c-.278.04-.556.04-.835.04zm-56.944-259.239c-.199 0-.358.04-.557.08-1.352.318-2.227 1.671-1.908 3.023l56.944 253.033a2.57 2.57 0 001.113 1.591 2.457 2.457 0 001.909.318c1.352-.318 2.227-1.67 1.909-3.023L584.114 367.54c-.279-1.193-1.313-1.989-2.466-1.989z" fill="#000"/><path d="M536.355 377.882h129.516c3.818 0 6.919-3.182 6.8-7.001v-.477a6.738 6.738 0 00-1.988-4.614c-1.511-1.512-3.42-1.79-4.613-1.989a9.74 9.74 0 00-2.307-.12c5.886-42.006 11.731-83.972 17.617-125.979.874-2.585.039-5.37-1.989-6.881-2.584-1.91-5.686-.677-5.845-.637-3.818.637-7.635 1.233-11.413 1.87a244.288 244.288 0 01-76.31.398c-4.056-.637-10.578-5.291-15.827-2.427-4.095 2.228-5.328 7.359-5.845 9.547-5.806 25.578 20.559 93.4 6.839 117.148-1.431 2.466-2.743 7.28-6.72 7.319l-27.915.239a6.782 6.782 0 00-6.721 6.802c-.079 3.779 2.943 6.802 6.721 6.802z" fill="#3FD1FF"/><path d="M665.874 378.479H536.357a7.384 7.384 0 01-7.396-7.399c0-4.058 3.3-7.359 7.317-7.399l27.915-.239c2.824-.04 4.136-2.784 5.329-5.251.318-.636.596-1.233.875-1.75 7.674-13.286 2.664-40.494-2.227-66.828-3.698-20.048-7.198-38.983-4.653-50.201.477-2.068 1.71-7.558 6.124-9.944 3.897-2.109 8.391-.398 12.009 1.034 1.551.597 2.983 1.153 4.176 1.352a243 243 0 0076.111-.397l11.373-1.87c.517-.199 3.658-1.273 6.362.716 2.227 1.671 3.142 4.734 2.227 7.518l-17.497 125.223c.557 0 1.154.04 1.71.16h.08c1.233.198 3.261.556 4.891 2.148a7.512 7.512 0 012.187 5.012v.477c.04 2.029-.676 3.938-2.107 5.37a7.185 7.185 0 01-5.289 2.268zm-92.097-148.773c-1.233 0-2.386.239-3.539.836-3.937 2.148-5.13 7.239-5.568 9.149-2.505 10.939.995 29.794 4.693 49.683 4.891 26.533 9.981 53.98 2.068 67.624-.279.477-.557 1.074-.835 1.671-1.193 2.506-2.824 5.887-6.403 5.927l-27.915.239c-3.38.039-6.164 2.824-6.164 6.205a6.212 6.212 0 006.204 6.205h129.516c1.71 0 3.261-.676 4.454-1.869 1.193-1.193 1.789-2.824 1.749-4.495v-.477a6.037 6.037 0 00-1.829-4.217c-1.352-1.352-3.062-1.631-4.215-1.79h-.079c-.716-.119-1.432-.159-2.188-.119a.662.662 0 01-.477-.199c-.119-.12-.159-.318-.159-.478l17.616-125.979c0-.039 0-.079.04-.119.795-2.307.04-4.853-1.789-6.206-2.347-1.75-5.249-.556-5.249-.556-.04 0-.08.039-.12.039l-11.412 1.87a245.314 245.314 0 01-76.47.398c-1.312-.199-2.823-.796-4.414-1.393-2.425-.954-5.05-1.949-7.515-1.949z" fill="#000"/><path d="M446.645 530.395l-31.812 27.447-57.302 9.785c-3.778 1.273-12.487 4.814-19.446 13.684-4.652 5.927-6.601 11.894-7.476 15.554 59.132-.279 118.223-.517 177.355-.796.557-3.699.994-8.552.835-14.201 0-.557-.318-8.831-2.386-17.502-4.215-17.543-12.805-29.675-18.093-36.04-13.918.716-27.797 1.392-41.675 2.069z" fill="#F9D84E"/><path d="M330.568 597.462a.569.569 0 01-.477-.239.603.603 0 01-.119-.517c1.432-5.808 3.977-11.138 7.595-15.792 6.323-8.115 14.196-12.014 19.724-13.883.04 0 .079 0 .079-.04l57.144-9.746 31.693-27.328c.119-.079.238-.119.358-.159l41.674-2.029c.199 0 .358.08.477.199 8.749 10.582 15.031 23.112 18.213 36.279 2.147 8.91 2.386 17.264 2.386 17.622a85.592 85.592 0 01-.835 14.28.603.603 0 01-.597.517l-177.315.836zm27.081-29.238c-5.329 1.83-12.964 5.609-19.088 13.485a39.838 39.838 0 00-7.197 14.599l176.082-.796a81.4 81.4 0 00.755-13.564c0-.358-.278-8.592-2.386-17.383-3.101-12.889-9.225-25.18-17.775-35.563l-41.157 1.989-31.654 27.289a.431.431 0 01-.278.119l-57.302 9.825z" fill="#000"/><path d="M484.543 628.408l-129.357.557c-13.52.04-24.535-10.859-24.615-24.384l-.04-7.717 178.349-.796.04 7.717c.079 13.525-10.817 24.544-24.377 24.623z" fill="#fff"/><path d="M355.104 629.563c-6.64 0-12.923-2.586-17.655-7.279-4.772-4.734-7.397-11.019-7.437-17.702l-.039-7.717c0-.318.278-.597.596-.597l178.349-.795a.61.61 0 01.596.596l.04 7.717c.04 6.723-2.545 13.008-7.277 17.782-4.732 4.773-11.015 7.398-17.696 7.438l-129.357.557h-.12zm-23.938-32.101l.039 7.12c.04 6.404 2.545 12.371 7.079 16.866 4.493 4.455 10.458 6.922 16.82 6.922h.12l129.357-.557c6.402-.04 12.367-2.546 16.861-7.081 4.493-4.535 6.959-10.541 6.919-16.946l-.04-7.12-177.155.796z" fill="#000"/><path d="M331.286 610.668c59.409.159 118.859-1.233 178.269-1.074v-40.097c-8.033.318-16.304.835-24.774 1.591-26.484 2.307-50.861 6.524-72.811 11.615 1.193-1.432 2.346-2.864 3.539-4.296 4.533-5.529 3.897-17.144-3.38-22.515-5.05-3.699-9.782-2.068-18.531-.039-13.003 4.216-26.007 8.393-38.97 12.61-2.227.914-19.843 8.592-23.74 26.413-1.432 6.364-.557 12.013.398 15.792z" fill="#3FD1FF"/><path d="M341.227 611.265h-9.942c-.278 0-.517-.199-.556-.438-1.432-5.489-1.551-10.899-.398-16.11 3.857-17.582 20.758-25.419 24.098-26.811h.04l38.97-12.61h.04c.795-.199 1.55-.358 2.266-.517 7.436-1.79 11.93-2.824 16.742.676 3.419 2.506 5.726 6.643 6.322 11.377.597 4.574-.477 9.069-2.863 11.973l-2.425 2.944c23.421-5.37 47.36-9.149 71.18-11.218 8.231-.716 16.582-1.273 24.814-1.591.159 0 .318.04.437.159.119.12.199.279.199.438v40.097c0 .159-.08.318-.159.437a.598.598 0 01-.438.159c-29.705-.079-59.926.239-89.154.557-25.927.199-52.689.478-79.173.478zm-9.465-1.194c29.546.08 59.609-.238 88.678-.557 29.029-.318 59.052-.636 88.558-.556v-38.864c-8.033.318-16.145.835-24.138 1.551a530.481 530.481 0 00-72.692 11.576c-.238.04-.516-.04-.636-.279a.603.603 0 01.04-.676l3.539-4.296c2.147-2.665 3.142-6.762 2.585-11.059-.557-4.415-2.704-8.273-5.846-10.581-4.374-3.222-8.43-2.227-15.747-.477-.716.159-1.471.358-2.227.517l-38.93 12.57c-3.301 1.392-19.644 8.99-23.382 25.976-1.154 4.932-1.074 9.984.198 15.155z" fill="#000"/><path d="M589.723 530.395l-31.812 27.447-57.302 9.785c-3.778 1.273-12.487 4.814-19.446 13.684-4.652 5.927-6.601 11.894-7.475 15.554 59.131-.279 118.223-.517 177.354-.796.557-3.699.994-8.552.835-14.201 0-.557-.318-8.831-2.386-17.502-4.215-17.543-12.804-29.675-18.093-36.04-13.878.716-27.796 1.392-41.675 2.069z" fill="#F9D84E"/><path d="M473.686 597.462a.57.57 0 01-.478-.239.603.603 0 01-.119-.517c1.432-5.808 3.977-11.138 7.595-15.792 6.323-8.115 14.197-12.014 19.724-13.883.04 0 .04 0 .08-.04l57.143-9.746 31.693-27.328c.119-.079.238-.119.358-.159l41.674-2.029c.199 0 .358.08.477.199 8.749 10.582 15.032 23.112 18.213 36.279 2.147 8.91 2.386 17.264 2.386 17.622a85.592 85.592 0 01-.835 14.28.603.603 0 01-.597.517l-177.314.836zm27.04-29.238c-5.328 1.83-12.963 5.609-19.087 13.485a39.84 39.84 0 00-7.198 14.599l176.082-.796c.636-4.495.875-9.069.756-13.564 0-.358-.279-8.592-2.386-17.383-3.102-12.889-9.226-25.18-17.776-35.563l-41.157 1.989-31.653 27.289a.433.433 0 01-.279.119l-57.302 9.825z" fill="#000"/><path d="M627.657 628.408l-129.358.557c-13.52.04-24.535-10.859-24.615-24.384l-.039-7.717 178.348-.796.04 7.717c.079 13.525-10.856 24.544-24.376 24.623z" fill="#fff"/><path d="M498.183 629.563c-6.641 0-12.924-2.586-17.656-7.279-4.772-4.734-7.397-11.019-7.436-17.702l-.04-7.717c0-.159.079-.318.159-.438a.598.598 0 01.437-.159l178.349-.795a.61.61 0 01.596.596l.04 7.717c.04 6.723-2.545 13.008-7.277 17.782-4.732 4.773-11.015 7.398-17.696 7.438v-.597.597l-129.357.557h-.119zm-23.899-32.101l.039 7.12c.04 6.404 2.545 12.371 7.079 16.866 4.493 4.455 10.458 6.922 16.82 6.922h.12l129.357-.557c6.402-.04 12.367-2.546 16.861-7.081 4.493-4.535 6.959-10.541 6.919-16.946l-.04-7.12-177.155.796z" fill="#000"/><path d="M474.402 610.668c59.409.159 118.859-1.233 178.269-1.074v-40.097c-8.033.318-16.304.835-24.774 1.591-26.484 2.307-50.86 6.524-72.811 11.615 1.193-1.432 2.346-2.864 3.539-4.296 4.534-5.529 3.897-17.144-3.38-22.515-5.05-3.699-9.782-2.068-18.531-.039-13.003 4.216-26.006 8.393-38.97 12.61-2.227.914-19.843 8.592-23.74 26.413-1.431 6.364-.596 12.013.398 15.792z" fill="#3FD1FF"/><path d="M484.305 611.265h-9.942c-.278 0-.517-.199-.556-.438-1.432-5.489-1.551-10.899-.398-16.11 3.857-17.582 20.758-25.419 24.098-26.811h.04l38.97-12.61h.04c.795-.199 1.551-.358 2.266-.517 7.437-1.79 11.93-2.824 16.742.676 3.419 2.506 5.726 6.643 6.322 11.377.597 4.574-.477 9.069-2.863 11.973l-2.425 2.944c23.421-5.37 47.36-9.149 71.18-11.218 8.231-.716 16.582-1.273 24.814-1.591.159 0 .318.04.437.159.119.12.199.279.199.438v40.097c0 .159-.08.318-.159.437a.596.596 0 01-.438.159c-29.705-.079-59.926.239-89.154.557-25.927.199-52.65.478-79.173.478zm-9.464-1.194c29.545.08 59.608-.238 88.677-.557 29.029-.318 59.052-.636 88.558-.556v-38.864c-8.033.318-16.145.835-24.138 1.551a530.443 530.443 0 00-72.691 11.576c-.239.04-.517-.04-.637-.279a.603.603 0 01.04-.676l3.539-4.296c2.148-2.665 3.142-6.762 2.585-11.059-.557-4.415-2.704-8.273-5.846-10.581-4.374-3.222-8.43-2.227-15.747-.477-.716.159-1.471.358-2.266.517l-38.931 12.57c-3.3 1.392-19.644 8.99-23.382 25.976-1.113 4.932-.994 9.984.239 15.155z" fill="#000"/><path d="M432.965 297.649l10.657 11.099a50.473 50.473 0 0023.104 13.684l34.477 9.347 35.749-6.483-103.987-27.647z" fill="#F9D84E"/><path d="M501.204 332.336c-.039 0-.119 0-.159-.04l-34.476-9.348a51.098 51.098 0 01-23.383-13.842l-10.657-11.099a.548.548 0 01-.079-.716.568.568 0 01.676-.278l103.947 27.606c.278.08.437.318.437.597a.558.558 0 01-.477.557l-35.749 6.484c0 .079-.04.079-.08.079zm-66.329-33.573l9.186 9.547c6.243 6.484 14.117 11.178 22.826 13.525l34.357 9.308 32.966-6.007-99.335-26.373z" fill="#000"/><path d="M573.498 162.243c-1.392.796-3.221 2.148-4.176 4.376-1.352 3.142-.278 6.404 1.432 11.297 1.63 4.773 4.136 9.905 3.46 13.246-.597 3.023-1.83 3.501-2.625 5.848-2.863 8.632 6.959 24.782 20.479 26.572 2.227.278 6.641.477 12.169-2.148-6.522-13.644-10.3-24.623-12.646-32.619-2.227-7.558-4.533-17.224-13.162-23.628a31.112 31.112 0 00-4.931-2.944z" fill="#FF6EC1"/><path d="M594.492 224.338c-.875 0-1.71-.04-2.545-.159-6.8-.915-13.441-5.569-17.736-12.411-3.34-5.331-4.533-10.9-3.221-14.917.358-1.074.796-1.751 1.193-2.427.557-.875 1.074-1.71 1.392-3.341.517-2.427-.915-6.166-2.267-9.746a101.091 101.091 0 01-1.153-3.143c-1.67-4.813-2.863-8.313-1.392-11.734.796-1.87 2.307-3.461 4.414-4.654l.279-.16.278.12c1.79.835 3.46 1.869 5.011 3.023 8.191 6.086 10.816 15.116 12.923 22.356.159.517.318 1.034.438 1.551 3.101 10.502 7.356 21.441 12.605 32.499l.239.557-.557.239c-3.221 1.511-6.601 2.347-9.901 2.347zm-20.957-61.419c-1.749 1.074-2.982 2.387-3.658 3.938-1.233 2.865-.318 5.848 1.431 10.86.358 1.034.756 2.108 1.154 3.143 1.471 3.938 2.863 7.637 2.306 10.422-.358 1.829-.954 2.784-1.551 3.739-.398.636-.795 1.273-1.074 2.188-1.193 3.619 0 8.95 3.102 13.922 4.096 6.564 10.419 11.019 16.901 11.854 3.618.478 7.515-.159 11.293-1.869-5.17-10.94-9.345-21.759-12.447-32.142a22.487 22.487 0 01-.437-1.551c-2.068-7.081-4.613-15.872-12.487-21.759-1.431-1.034-2.942-1.989-4.533-2.745z" fill="#000"/><path d="M625.749 186.587c10.617 12.928 21.195 25.816 31.812 38.744-1.63 10.979-9.583 19.373-18.69 20.725-11.969 1.75-25.29-8.791-26.006-24.384-.557-6.484-1.074-13.008-1.631-19.492l14.515-15.593z" fill="#FF6EC1"/><path d="M636.246 246.812c-4.931 0-10.021-1.91-14.316-5.45-5.806-4.773-9.305-11.973-9.663-19.69l-1.63-19.731 15.111-16.269 32.409 39.46-.04.279c-1.63 11.098-9.504 19.81-19.167 21.242-.875.119-1.79.159-2.704.159zm-24.377-44.433l1.591 19.253c.318 7.399 3.698 14.28 9.226 18.855 4.772 3.938 10.657 5.768 16.065 4.972 8.908-1.312 16.503-9.666 18.133-19.969l-31.216-37.988-13.799 14.877zm-42.112 20.566h-.159c-4.096-.08-6.8-2.745-8.43-4.336-1.511-1.512-4.295-4.296-4.374-8.433-.04-3.302 1.63-5.609 2.545-6.842 3.539-4.893 7.476-5.967 10.18-5.967h.079c3.579.04 6.8 1.79 9.663 5.251.994 1.233 3.102 3.779 3.142 7.518.039 4.853-3.38 7.956-4.693 9.149-1.312 1.194-4.016 3.66-7.953 3.66zm-.199-24.384c-2.425 0-5.964.954-9.225 5.449-.835 1.114-2.346 3.222-2.307 6.126.04 3.66 2.506 6.126 4.017 7.598 1.471 1.472 3.976 3.938 7.595 4.017h.119c3.5 0 5.965-2.267 7.158-3.341 1.193-1.074 4.335-3.938 4.295-8.234-.04-3.341-1.949-5.649-2.863-6.802-2.625-3.183-5.528-4.774-8.749-4.813h-.04z" fill="#000"/><path d="M527.171 320.483c-23.859-24.265-47.679-48.53-71.538-72.755 27.518 15.314 55.075 30.589 82.593 45.904a41244.665 41244.665 0 0019.326-41.449c.04-1.194 1.233-21.958 18.292-30.869.716-.397 16.185-8.194 27.001-.954 10.577 7.12 15.548 25.856 8.828 37.312-6.482 10.979-3.579 67.306-37.3 76.614-20.798 5.768-41.237-9.109-47.202-13.803z" fill="#349948"/><path d="M564.668 336.155c-16.463 0-31.455-10.183-37.857-15.195-.04 0-.04-.04-.04-.04l-71.538-72.755a.605.605 0 01-.04-.796c.199-.239.517-.318.756-.159l82.036 45.586 19.008-40.733c.119-1.949 1.591-22.356 18.571-31.266.676-.358 16.383-8.433 27.597-.915 11.134 7.478 15.668 26.731 8.987 38.108-1.71 2.944-2.784 9.268-4.096 17.264-3.499 21.003-8.748 52.786-33.522 59.628-3.261.875-6.601 1.273-9.862 1.273zm-37.101-16.11c7.555 5.927 27.159 19.054 46.645 13.644 24.058-6.643 29.227-37.949 32.687-58.674 1.352-8.115 2.426-14.559 4.255-17.662 6.402-10.899 2.068-29.316-8.629-36.516-10.618-7.121-26.206.875-26.365.994-16.9 8.831-17.934 29.516-17.974 30.391 0 .08-.04.159-.04.239L538.82 293.87c-.079.159-.199.279-.358.319a.671.671 0 01-.477-.04l-79.014-43.876 68.596 69.772z" fill="#000"/><path d="M593.579 307.396c-71.379 26.691-104.186 35.721-118.143 36.835-.199 0-.279.039-.557.039-.04 0-19.366 2.666-37.579 40.614-6.641 13.843-15.826 37.909-17.099 71.562a226.367 226.367 0 00-15.469 33.733 224.21 224.21 0 00-10.935 43.836c32.886-.597 65.772-1.233 98.698-1.83 1.829-47.933 3.619-95.867 5.448-143.76l141.963-39.023c-15.469-14.002-30.898-28.004-46.327-42.006z" fill="#524FA0"/><path d="M393.082 534.691l.119-.677a222.976 222.976 0 0110.976-43.955 222.068 222.068 0 0115.429-33.693c1.034-25.935 6.8-50.081 17.178-71.681 9.465-19.731 19.247-29.795 25.768-34.767 7.317-5.569 12.248-6.206 12.288-6.206.239-.04.358-.04.477-.04h.08c16.542-1.312 56.228-13.683 117.984-36.795l.358-.119.278.238 47.083 42.763-1.034.278L498.5 388.941l-5.447 143.92-99.971 1.83zm200.379-226.62c-61.677 23.071-101.363 35.442-117.985 36.755h-.079c-.12 0-.239 0-.438.04-.159.04-19.206 3.023-37.101 40.296-10.339 21.481-16.065 45.507-17.059 71.324v.159l-.08.119a223.53 223.53 0 00-15.429 33.653c-5.01 13.883-8.629 28.362-10.816 43.04l97.425-1.79 5.448-143.641.438-.119 140.929-38.745-45.253-41.091z" fill="#000"/><path d="M603.719 303.377a2018.936 2018.936 0 00-13.321 6.245c-39.09 7.2-78.219 14.4-117.309 21.64-23.302 4.296-36.385 29.317-26.603 50.917 8.987 19.889 13.202 45.029 41.396 91.491 1.63 2.705 3.022 4.932 3.937 6.444 2.704 8.314 8.589 22.674 21.513 36.159 18.451 19.253 40.044 25.14 48.832 27.01 23.064-4.973 46.128-9.905 69.192-14.878-15.469-29.714-29.784-44.472-40.282-52.468-2.903-2.227-10.3-7.558-19.128-16.428-6.481-6.484-11.333-12.491-14.713-16.946-2.465-3.262-4.135-5.768-4.573-6.365-4.573-6.643-16.9-21.639-48.315-56.048 61.796-8.632 107.168-18.656 123.114-24.742 17.06-6.564 23.7-17.622 24.456-19.691a37.552 37.552 0 002.147-9.467c1.193-12.928-4.772-22.356-6.641-25.101l-43.702 2.228z" fill="#524FA0"/><path d="M562.163 543.84l-.12-.04c-13.242-2.824-32.528-9.826-49.15-27.169-9.742-10.183-17.218-22.714-21.632-36.318-1.313-2.108-2.625-4.256-3.937-6.404-20.042-33.096-27.876-55.014-34.159-72.676-2.505-7.081-4.692-13.167-7.277-18.895-4.732-10.462-4.414-22.276.915-32.459 5.328-10.184 14.832-17.185 26.126-19.293l117.229-21.6 13.361-6.245h.119l44.06-2.267.199.278c2.983 4.376 7.834 13.485 6.76 25.498-.318 3.302-1.034 6.524-2.187 9.627-.954 2.585-7.993 13.564-24.814 20.048-15.309 5.887-58.972 15.752-122.119 24.623 25.927 28.402 41.952 46.979 47.599 55.292l.079.08c.517.796 2.148 3.143 4.494 6.245a159.373 159.373 0 0014.634 16.866c7.953 7.996 14.792 13.127 18.093 15.633.358.279.676.518.954.717 14.356 10.939 27.955 28.68 40.442 52.666l.358.677-70.027 15.116zm41.714-239.866l-13.362 6.245-117.308 21.64c-10.935 2.029-20.161 8.831-25.291 18.656-5.13 9.865-5.487 21.282-.914 31.425 2.624 5.768 4.771 11.894 7.316 18.975 6.244 17.582 14.038 39.46 34.04 72.437 1.312 2.148 2.624 4.336 3.937 6.444l.079.119c4.374 13.445 11.771 25.856 21.394 35.92 16.344 17.065 35.312 23.987 48.395 26.811l68.317-14.678c-12.328-23.47-25.689-40.853-39.726-51.593a31.127 31.127 0 01-.954-.716c-3.301-2.506-10.22-7.717-18.213-15.752-5.289-5.331-10.259-11.019-14.753-16.986-2.346-3.142-3.977-5.489-4.533-6.285l-.08-.08c-5.686-8.353-21.95-27.168-48.275-56.008l-.756-.835 1.114-.159c63.625-8.911 107.605-18.816 122.955-24.743 16.423-6.285 23.183-16.866 24.137-19.332a35.502 35.502 0 002.108-9.308c1.034-11.377-3.46-20.089-6.362-24.424l-43.265 2.227z" fill="#000"/><path d="M607.179 216.66c1.034-.08 2.028-.199 3.062-.279 20.042-1.909 37.181 14.201 36.545 34.329a742.01 742.01 0 00-1.512 9.11c-.477 3.381-2.187 12.411-9.623 20.645-7.237 8.035-15.787 10.7-19.087 11.536-1.671-.398-4.414-1.154-7.715-2.347-7.078-2.626-20.758-8.513-27.12-21.52-1.79-3.66-2.664-6.325-3.221-8.195-6.442-20.247 7.516-41.25 28.671-43.279z" fill="#349948"/><path d="M616.522 292.636h-.159a67.747 67.747 0 01-7.794-2.386c-13.798-5.092-22.785-12.252-27.438-21.799-1.869-3.779-2.744-6.603-3.261-8.274-3.101-9.825-1.59-20.406 4.096-28.998 5.687-8.593 14.873-14.082 25.132-15.037l3.062-.278a34.052 34.052 0 0126.484 9.069 33.96 33.96 0 0110.697 25.856v.08l-1.511 9.109c-.637 4.455-2.704 13.167-9.783 20.963-6.879 7.638-15.111 10.621-19.405 11.735 0-.04-.08-.04-.12-.04zm-3.141-75.818c-1.034 0-2.068.04-3.102.159l-3.062.279c-9.901.955-18.729 6.245-24.257 14.519-5.487 8.314-6.959 18.497-3.976 28.004a51.779 51.779 0 003.221 8.115c4.533 9.268 13.321 16.23 26.802 21.202 2.465.915 5.01 1.711 7.515 2.307 4.176-1.114 12.049-4.017 18.651-11.337 6.839-7.558 8.867-15.991 9.464-20.327l1.511-9.109c.278-9.388-3.5-18.497-10.339-24.901a32.738 32.738 0 00-22.428-8.911z" fill="#000"/><path d="M573.855 179.864c-1.949.358-3.937.716-5.885 1.034-3.102.557-5.687 2.825-6.442 5.888-.438 1.71-.279 3.58.517 5.33l.914 1.949c1.71 3.62 5.806 5.45 9.624 4.296 1.192-.358 2.346-.716 3.539-1.074" fill="#F9D84E"/><path d="M570.275 199.355c-3.3 0-6.442-1.909-7.873-4.972l-.915-1.949c-.835-1.83-1.034-3.819-.557-5.728.795-3.222 3.539-5.728 6.919-6.325l5.886-1.034c.318-.04.636.159.676.477.039.318-.159.637-.477.676l-5.886 1.035c-2.942.517-5.289 2.665-6.004 5.449a7.518 7.518 0 00.477 4.933l.914 1.949c1.551 3.341 5.369 5.052 8.908 3.978l3.539-1.074a.63.63 0 01.756.398.63.63 0 01-.398.755l-3.539 1.074a8.129 8.129 0 01-2.426.358z" fill="#000"/><path d="M575.766 164.868c7.794-1.711 15.588-3.421 23.342-5.172 2.426.955 6.005 2.626 9.703 5.649 9.822 7.995 18.213 23.708 12.566 34.488-.915 1.79-2.824 4.575-7.039 7.041l2.267 11.814a7.193 7.193 0 01-.557 1.75c-2.505 5.331-10.577 5.728-11.293 5.768-3.778.159-6.88-1.631-8.629-2.665a2.175 2.175 0 01-.994-1.432c-.995-4.853-1.313-5.012-2.426-10.462-6.243.597-10.26-1.114-12.248-2.188-11.651-6.285-14.832-24.463-9.663-36.795a28.967 28.967 0 014.971-7.796z" fill="#F9D84E"/><path d="M604.315 226.843c-3.5 0-6.363-1.471-8.471-2.784-.676-.398-1.113-1.074-1.272-1.83a93.815 93.815 0 00-1.113-4.734c-.319-1.312-.676-2.665-1.193-5.211-4.534.319-8.59-.437-12.049-2.307-11.97-6.444-15.111-25.14-9.942-37.551 1.193-2.904 2.903-5.569 5.05-7.995.08-.08.199-.16.319-.199l23.342-5.172c.119-.039.239 0 .358.04 3.618 1.432 6.919 3.342 9.862 5.728 10.498 8.553 18.332 24.464 12.725 35.244-1.432 2.785-3.778 5.171-6.92 7.081l2.188 11.416v.239a7.94 7.94 0 01-.597 1.87c-2.624 5.608-10.896 6.086-11.85 6.126-.119.039-.278.039-.437.039zm-11.572-15.752c.278 0 .517.199.596.477.557 2.864.955 4.296 1.273 5.649a97.587 97.587 0 011.113 4.773c.08.438.358.836.756 1.035 1.352.835 4.453 2.744 8.271 2.585.875-.04 8.47-.477 10.776-5.41.239-.477.398-.954.478-1.472l-2.267-11.694c-.04-.239.079-.518.278-.637 3.102-1.83 5.408-4.097 6.8-6.802 5.329-10.223-2.306-25.498-12.407-33.772a35.042 35.042 0 00-9.384-5.49l-22.985 5.092a27.053 27.053 0 00-4.692 7.518c-4.971 11.934-2.028 29.874 9.385 36.04 3.38 1.83 7.356 2.546 11.889 2.108h.12z" fill="#000"/><path d="M613.937 192.355c-.716 3.66-1.67 11.417 2.426 18.617 6.362 11.138 22.388 16.508 38.97 11.655a89.747 89.747 0 00-10.856-12.888 97.446 97.446 0 00-5.885-5.291c-.835-2.188-2.028-4.694-3.659-7.319-3.221-5.171-6.998-8.752-9.901-11.059-3.659 2.069-7.397 4.177-11.095 6.285z" fill="#FF6EC1"/><path d="M583.041 186.984l-5.05 1.512a2.537 2.537 0 00-1.59 3.421 2.57 2.57 0 003.141 1.472l5.806-1.751" fill="#F9D84E"/><path d="M643.244 224.974c-11.81 0-22.388-5.012-27.359-13.724-3.857-6.762-3.499-14.082-2.505-19.054l.04-.278 11.691-6.604.318.239a44.238 44.238 0 0110.061 11.218 44.533 44.533 0 013.658 7.279 90.13 90.13 0 015.806 5.211 89.903 89.903 0 0110.936 12.968l.477.676-.796.239c-4.135 1.233-8.311 1.83-12.327 1.83zm-28.75-32.261c-.915 4.734-1.193 11.616 2.425 17.94 6.323 11.019 21.991 15.832 37.499 11.616-3.062-4.336-6.521-8.433-10.299-12.133a91.392 91.392 0 00-5.846-5.25l-.119-.12-.04-.159a40.7 40.7 0 00-3.618-7.2c-2.506-4.057-5.727-7.637-9.465-10.661l-10.537 5.967z" fill="#000"/><path d="M614.732 184.638a3102.49 3102.49 0 0010.936-4.892c-.597-4.257-1.193-8.473-1.79-12.73-.875-6.245-6.521-10.621-12.645-9.825-12.844 1.71-24.854 3.421-37.698 5.131 1.233 1.114 2.267 2.705 4.613 4.376 3.579 2.586 8.907 6.405 16.383 8.155 6.8 1.631 12.964.954 17.338-.08.994 3.302 1.909 6.564 2.863 9.865z" fill="#FF6EC1"/><path d="M614.734 185.234c-.079 0-.159 0-.238-.04-.159-.079-.279-.199-.318-.358l-2.665-9.268c-5.806 1.273-11.572 1.233-17.059-.04-7.635-1.83-13.043-5.688-16.622-8.274-1.631-1.154-2.664-2.307-3.5-3.222-.397-.438-.795-.875-1.193-1.233a.62.62 0 01-.159-.637c.08-.238.279-.397.478-.397 6.402-.836 12.725-1.711 18.848-2.546 6.124-.836 12.447-1.711 18.849-2.546 6.403-.835 12.367 3.779 13.322 10.342l1.789 12.73c.04.278-.119.517-.358.636l-10.935 4.893c-.08-.08-.159-.04-.239-.04zm-2.783-11.019c.278 0 .517.159.556.438l2.625 9.149 9.902-4.415-1.75-12.292c-.835-5.887-6.204-10.064-11.97-9.308-6.402.835-12.725 1.71-18.848 2.546-5.727.795-11.652 1.591-17.656 2.386.119.159.278.279.397.438.835.915 1.79 1.949 3.301 3.063 3.499 2.506 8.788 6.325 16.184 8.075 5.488 1.313 11.254 1.273 17.1-.08h.159z" fill="#000"/><path d="M610.32 175.012c1.949-.398 3.897-.836 5.846-1.234 3.102-.636 6.323.478 8.192 3.024 1.033 1.432 1.63 3.221 1.511 5.131l-.12 2.148c-.119 1.989-.914 3.818-2.227 5.171-1.391 1.472-3.101 1.909-5.05 2.426a17.15 17.15 0 01-4.573.637" fill="#F9D84E"/><path d="M613.94 192.952a.611.611 0 01-.597-.597c0-.318.239-.596.597-.596a18.201 18.201 0 004.414-.637l.119-.04c1.829-.517 3.38-.914 4.652-2.227 1.233-1.313 1.989-2.984 2.068-4.774l.119-2.148c.08-1.71-.397-3.381-1.431-4.773-1.67-2.307-4.653-3.421-7.595-2.785l-5.846 1.234c-.318.079-.636-.12-.716-.478-.079-.318.12-.636.478-.716l5.845-1.233c3.38-.716 6.84.557 8.788 3.262a8.401 8.401 0 011.631 5.529l-.12 2.148c-.119 2.069-.954 4.058-2.386 5.529-1.471 1.552-3.3 2.029-5.209 2.586l-.119.04a20.24 20.24 0 01-4.692.676s.039 0 0 0zm-23.385 125.382c17.775 9.229 35.55 18.457 53.286 27.646 1.988-1.591 4.692-4.296 6.76-8.314.875-1.67 1.431-3.261 1.829-4.654-20.638-4.892-41.237-9.785-61.875-14.678z" fill="#000"/><path d="M453.682 240.368l69.47 31.704 7.277 52.388-117.587-32.618-5.447-1.512 46.287-49.962z" fill="#fff"/><path d="M530.43 325.057c-.039 0-.119 0-.159-.04l-123.034-34.13a.51.51 0 01-.398-.397.69.69 0 01.119-.557l46.288-49.962c.159-.199.437-.239.676-.12l69.43 31.704c.199.079.318.239.358.477l7.317 52.389a.517.517 0 01-.199.517.674.674 0 01-.398.119zm-121.921-35.005l121.245 33.613-7.157-51.195-68.755-31.386-45.333 48.968z" fill="#000"/><path d="M455.712 246.891c-11.492 12.808-23.024 25.577-34.517 38.386l99.494 30.669-5.488-42.245c-19.803-8.95-39.646-17.9-59.489-26.81z" fill="#fff"/><path d="M520.69 316.544c-.04 0-.119 0-.159-.04l-99.493-30.669c-.199-.08-.358-.199-.398-.398a.69.69 0 01.119-.557l34.517-38.387c.159-.198.437-.238.676-.159l59.489 26.811c.199.08.318.279.358.477l5.488 42.245a.521.521 0 01-.199.518.513.513 0 01-.398.159zm-98.42-31.585l97.704 30.113-5.328-41.012-58.814-26.493-33.562 37.392z" fill="#000"/><path d="M620.061 230.104c.676-2.903 1.989-5.569 4.216-7.677.039-.04.278-.238.556-.517 7.277-6.245 17.974-7.001 26.206-1.79 7.794 5.012 16.105 10.899 24.734 17.781a290.26 290.26 0 0126.166 23.788c7.118 4.216 15.19 9.666 23.461 16.707 6.283 5.33 11.612 10.661 16.106 15.593 11.412 15.554 10.975 24.623 10.06 28.68-.079.358-.159.716-.199.876-.159.596-3.181 11.655-11.611 18.218-7.397 5.728-15.827 5.609-26.564 5.45-6.76-.119-11.85-1.114-18.212-2.427a157.033 157.033 0 01-23.462-6.722 205.298 205.298 0 01-33.522-6.723c-6.403-1.83-12.367-3.898-17.815-6.006-9.902-2.387-19.764-4.734-29.665-7.121 4.453-13.962 8.947-27.885 13.401-41.847 11.651 3.342 21.234 5.171 27.716 6.206 12.526 1.989 20.798 2.187 34.397 5.807a156.298 156.298 0 0113.441 4.217 354.31 354.31 0 01-9.186-6.961c-3.419-2.745-6.68-5.45-9.702-8.115a197.27 197.27 0 01-12.248-8.314c-8.192-6.086-15.111-12.331-20.877-18.139" fill="#349948"/><path d="M718.163 347.969c-1.59 0-3.261-.04-4.97-.04-6.92-.119-12.209-1.193-18.332-2.426a155.53 155.53 0 01-23.462-6.723 207.67 207.67 0 01-33.522-6.722 199.548 199.548 0 01-17.815-6.007l-29.626-7.12a.73.73 0 01-.397-.279.661.661 0 01-.04-.477l13.401-41.847c.079-.319.437-.478.716-.398 9.225 2.665 18.53 4.733 27.637 6.166 3.897.596 7.356 1.074 10.697 1.511 7.356.955 14.315 1.83 23.74 4.336 3.26.875 6.521 1.87 9.742 2.944-2.028-1.512-4.016-3.063-6.004-4.615a306.446 306.446 0 01-9.703-8.115c-4.176-2.585-8.271-5.409-12.208-8.313a178.353 178.353 0 01-20.917-18.219.576.576 0 010-.835.576.576 0 01.835 0 176.194 176.194 0 0020.798 18.099c3.936 2.904 8.032 5.728 12.168 8.314.04 0 .04.04.079.04 3.142 2.784 6.403 5.489 9.663 8.114a222.473 222.473 0 009.146 6.962c.239.159.319.517.16.755-.16.279-.438.398-.716.279a154.473 154.473 0 00-13.401-4.217c-9.345-2.466-16.264-3.381-23.581-4.296-3.38-.437-6.84-.875-10.737-1.511-8.987-1.432-18.133-3.461-27.239-6.047l-12.964 40.654 29.029 6.961c.04 0 .04 0 .079.04 5.806 2.268 11.771 4.256 17.776 6.007 10.895 3.142 22.109 5.37 33.403 6.683.04 0 .079 0 .119.039 7.675 2.825 15.509 5.092 23.382 6.683 6.045 1.233 11.294 2.307 18.094 2.387 10.577.159 18.968.278 26.165-5.33 8.351-6.484 11.294-17.424 11.413-17.901.04-.159.119-.477.199-.835 1.67-7.319-1.79-17.065-9.942-28.164a168.474 168.474 0 00-16.025-15.513 173.025 173.025 0 00-23.382-16.667c-.04-.04-.08-.04-.12-.08-8.191-8.433-16.979-16.389-26.126-23.748a290.384 290.384 0 00-24.654-17.741c-7.953-5.052-18.451-4.336-25.49 1.71-.278.239-.517.438-.557.478-1.948 1.869-3.34 4.335-4.056 7.359a.593.593 0 11-1.153-.279c.795-3.262 2.267-5.927 4.414-7.956.04-.039.278-.278.597-.517 7.436-6.404 18.491-7.16 26.921-1.829 8.549 5.489 16.86 11.496 24.774 17.82 9.146 7.359 17.974 15.355 26.165 23.788a171.294 171.294 0 0123.502 16.747c5.686 4.853 11.134 10.104 16.145 15.673l.04.039c8.39 11.417 11.889 21.481 10.14 29.158-.08.358-.159.716-.239.875-.119.478-3.181 11.815-11.81 18.537-6.363 4.893-13.401 5.609-21.951 5.609z" fill="#000"/><path d="M528.004 271.157c-.796.079-5.965-10.621-9.385-17.901-1.71-3.659-.318-8.035 3.221-9.984 3.619-1.989 8.152-.796 10.299 2.745l12.487 20.526" fill="#F9D84E"/><path d="M527.964 271.753c-.636 0-1.75-.995-9.862-18.259-1.829-3.938-.318-8.671 3.499-10.78 3.897-2.187 8.789-.875 11.135 2.944l12.446 20.566c.16.278.08.636-.198.835a.635.635 0 01-.835-.199l-12.487-20.526a7.064 7.064 0 00-9.504-2.506c-3.261 1.79-4.573 5.848-2.982 9.229 6.959 14.877 8.629 17.224 9.027 17.582.238.08.397.278.397.517.04.318-.199.637-.517.637-.039-.04-.079-.04-.119-.04z" fill="#000"/><path d="M539.618 290.449c1.631 2.069 3.301 4.137 4.931 6.166 19.128 6.006 38.255 12.053 57.382 18.059.278-11.376.557-22.753.795-34.13-20.797-5.927-41.634-11.814-62.432-17.741a17.778 17.778 0 00-8.708-.994 17.662 17.662 0 00-8.112 3.301l-25.689 18.975c-4.016 2.983-4.692 8.87-1.273 12.49 2.983 3.143 7.874 3.501 11.254.796 6.84-5.49 13.64-10.979 20.479-16.469 3.778 3.222 7.596 6.365 11.373 9.547z" fill="#F9D84E"/><path d="M601.931 315.31c-.08 0-.119 0-.199-.039l-57.381-18.06c-.12-.04-.199-.119-.279-.199l-4.891-6.126-10.975-9.149-20.082 16.15c-3.579 2.904-8.868 2.507-12.049-.835-1.749-1.83-2.545-4.256-2.346-6.802a9.187 9.187 0 013.698-6.564l25.689-18.974c2.465-1.83 5.368-2.983 8.39-3.421a18.286 18.286 0 018.948 1.034l62.431 17.702a.597.597 0 01.438.597l-.795 34.13c0 .198-.08.358-.239.477-.119.04-.239.079-.358.079zm-57.024-19.213l56.428 17.781.795-32.857-61.995-17.582h-.039a17.102 17.102 0 00-8.391-.994c-2.823.397-5.527 1.471-7.834 3.182l-25.688 18.974a8.053 8.053 0 00-3.221 5.729c-.199 2.227.517 4.296 2.028 5.887 2.744 2.904 7.317 3.222 10.418.716l20.48-16.469c.238-.159.556-.159.755 0l11.373 9.507.08.08 4.811 6.046z" fill="#000"/><path d="M541.842 274.578c-3.141.955-6.283 1.87-9.385 2.824a14.756 14.756 0 00-10.458 12.889c-.238 3.063-.517 6.086-.755 9.149-.358 4.137 2.664 7.796 6.799 8.234h.16c4.334.477 8.191-2.824 8.43-7.2.199-3.62.358-7.24.557-10.86 4.851-1.074 9.702-2.148 14.514-3.182" fill="#F9D84E"/><path d="M529.038 308.31c-.278 0-.596 0-.875-.039h-.159c-4.414-.478-7.714-4.455-7.356-8.871l.755-9.149c.517-6.325 4.812-11.576 10.856-13.405l9.385-2.825a.63.63 0 01.755.398.63.63 0 01-.397.756l-9.385 2.824c-5.607 1.671-9.544 6.524-10.021 12.371l-.755 9.149c-.318 3.779 2.505 7.161 6.283 7.598h.159a6.92 6.92 0 005.289-1.671c1.471-1.273 2.346-3.023 2.465-5.012l.557-10.859c0-.279.198-.478.477-.557l14.514-3.182a.592.592 0 11.279 1.153l-14.077 3.103v.04l-.517 10.382a8.205 8.205 0 01-2.863 5.847c-1.591 1.273-3.42 1.949-5.369 1.949z" fill="#000"/><path d="M548.285 281.658a920.674 920.674 0 01-8.51 4.853 14.727 14.727 0 00-7.277 14.917c.437 3.023.875 6.047 1.312 9.11.597 4.097 4.374 7.001 8.47 6.483h.159c4.335-.517 7.357-4.614 6.562-8.91-.637-3.58-1.273-7.16-1.909-10.7 4.494-2.148 8.947-4.257 13.441-6.405" fill="#F9D84E"/><path d="M541.366 317.658c-4.016 0-7.556-2.984-8.152-7.041l-1.312-9.109c-.915-6.285 2.067-12.371 7.555-15.514l8.51-4.853a.56.56 0 01.795.239.56.56 0 01-.238.795l-8.51 4.853c-5.09 2.904-7.834 8.513-6.959 14.281l1.312 9.109c.557 3.739 4.056 6.444 7.794 5.967h.159c1.949-.239 3.659-1.233 4.812-2.824a7.124 7.124 0 001.272-5.41l-1.908-10.701c-.04-.278.079-.517.318-.636l13.441-6.404c.278-.16.636 0 .795.278.159.278 0 .636-.279.796l-13.043 6.205 1.83 10.263c.397 2.267-.12 4.495-1.472 6.325-1.352 1.83-3.34 3.023-5.607 3.301h-.159c-.278.04-.636.08-.954.08z" fill="#000"/><path d="M679.473 292.756c9.901 1.75 19.763 3.54 29.665 5.29l-29.665-5.29z" fill="#3FD1FF"/><path d="M709.136 298.643h-.119l-29.665-5.29c-.318-.04-.557-.358-.477-.677.079-.318.358-.557.676-.477l29.665 5.291c.318.039.557.358.477.676a.558.558 0 01-.557.477zm-91.5-81.705h-.159c-4.096-.08-6.8-2.745-8.43-4.336-1.511-1.511-4.295-4.296-4.374-8.433-.04-3.302 1.63-5.609 2.545-6.842 3.539-4.893 7.476-5.967 10.18-5.967h.079c3.539.04 6.8 1.79 9.663 5.251.994 1.233 3.102 3.779 3.142 7.518.039 4.853-3.38 7.956-4.693 9.11-1.272 1.233-4.016 3.699-7.953 3.699zm-.199-24.345c-3.459 0-6.641 1.87-9.225 5.45-.835 1.114-2.346 3.222-2.307 6.126.04 3.66 2.506 6.126 4.017 7.598 1.471 1.472 3.976 3.938 7.595 4.017h.119c3.5 0 5.965-2.267 7.158-3.341 1.193-1.074 4.334-3.938 4.295-8.234-.04-3.342-1.949-5.649-2.863-6.802-2.625-3.183-5.528-4.774-8.749-4.814h-.04z" fill="#000"/><path d="M603.123 183.883s-6.482 2.029-8.271 10.422l8.271-10.422z" fill="#F9D84E"/><path d="M422.784 275.094c1.829.597 3.698 1.233 5.528 1.83 6.362-6.922 12.725-13.803 19.087-20.725-2.545-1.233-5.09-2.426-7.635-3.659-1.471-.716-3.261-.358-4.374.875l-14.196 15.633c-1.83 1.989-.995 5.211 1.59 6.046z" fill="#000"/><path d="M604.831 271.475c-4.772 15.633-9.504 31.266-14.276 46.899 4.612 1.79 9.981 3.54 16.105 4.892 4.891 1.114 9.464 1.79 13.56 2.228 2.505-12.928 5.01-25.856 7.515-38.824l3.977-3.978c-8.987-3.739-17.934-7.478-26.881-11.217z" fill="#fff"/><path d="M620.223 326.091h-.079a121.844 121.844 0 01-13.64-2.227 115.006 115.006 0 01-16.184-4.933c-.279-.119-.438-.437-.358-.716l14.276-46.899c.039-.159.159-.278.318-.358a.51.51 0 01.477 0l26.842 11.178a.573.573 0 01.358.437c.039.199-.04.398-.159.557l-3.818 3.819-7.476 38.625c-.04.318-.278.517-.557.517zm-28.949-8.114c5.05 1.909 10.26 3.5 15.509 4.693 4.255.955 8.589 1.671 12.924 2.148l7.396-38.267c.04-.119.079-.238.159-.318l3.34-3.341-25.41-10.661-13.918 45.746z" fill="#000"/><path d="M593.657 217.336c-1.073-.119-2.147-.278-3.26-.397-5.329 4.574-10.658 9.109-16.026 13.683 3.857.557 9.504.915 16.145-.318 5.05-.954 9.146-2.506 12.168-3.978a32.773 32.773 0 006.999 3.342c11.134 3.779 21.354.437 25.569-1.233-5.05-3.978-10.1-7.956-15.111-11.934-1.272.08-2.545.199-3.778.278-3.34 7.399-10.776 10.661-16.105 8.632-4.732-1.79-6.362-7.279-6.601-8.075z" fill="#fff"/><path d="M620.46 232.054c-3.46 0-7.158-.517-10.936-1.79-2.386-.795-4.692-1.909-6.84-3.222a48.967 48.967 0 01-12.049 3.859 50.059 50.059 0 01-16.343.318c-.239-.04-.438-.199-.477-.437-.04-.239 0-.478.198-.637l16.026-13.684c.119-.119.278-.159.477-.119l3.261.398a.648.648 0 01.517.437c.278.995 1.909 6.047 6.283 7.677 4.772 1.791 11.969-.875 15.349-8.313.08-.199.279-.318.517-.358l3.778-.279c.159 0 .278.04.398.12l15.111 11.933c.159.12.238.358.238.557-.04.199-.159.398-.358.477-4.016 1.592-9.265 3.063-15.15 3.063zm-16.185-5.489a29.986 29.986 0 005.647 2.546c9.345 3.182 18.173 1.392 24.217-.836l-14.117-11.138-3.221.239c-2.823 5.887-7.953 8.911-12.526 9.189zm-28.472 3.62c4.891.597 9.822.437 14.634-.477 3.738-.677 7.356-1.83 10.856-3.382a5.885 5.885 0 01-1.193-.358c-4.454-1.67-6.283-6.245-6.88-8.115l-2.585-.318-14.832 12.65z" fill="#000"/><path d="M612.586 288.341a3.978 3.978 0 000-7.955 3.978 3.978 0 000 7.955z" fill="#fff"/><path d="M612.585 288.898a4.575 4.575 0 010-9.149 4.575 4.575 0 010 9.149zm0-7.916a3.378 3.378 0 00-3.38 3.381 3.378 3.378 0 003.38 3.382 3.378 3.378 0 003.38-3.382 3.378 3.378 0 00-3.38-3.381zm6.243-94.235c.04.318.279.517.597.517h.079a.595.595 0 00.517-.677l-.874-7.08a.618.618 0 00-.676-.517.594.594 0 00-.517.676l.874 7.081zm83.432 74.465l-15.827-8.274c-.278-.159-.636-.039-.795.239-.159.279-.04.637.238.796l15.827 8.274c.08.039.199.079.278.079.199 0 .438-.119.517-.318.159-.278.04-.636-.238-.796zm-139.061-18.895a.56.56 0 00-.796.239l-5.288 9.348a.56.56 0 00.238.795c.08.04.199.08.279.08.198 0 .397-.12.517-.319l5.288-9.348c.12-.278.04-.636-.238-.795zm-76.585 215.12l-1.157.298 5.79 22.455 1.157-.298-5.79-22.455zm-58.128-24.723l-8.912 23.549 1.114.422 8.911-23.55-1.113-.421zm14.819-149.225a.642.642 0 00.357.119c.159 0 .358-.08.478-.239l15.826-19.491a.618.618 0 00-.079-.836.616.616 0 00-.835.08l-15.827 19.492c-.199.318-.159.676.08.875zm12.485 3.738c.08.039.199.079.279.079a.62.62 0 00.517-.318l13.003-22.753a.56.56 0 00-.239-.796.559.559 0 00-.795.239l-13.003 22.753c-.159.239-.04.636.238.796zm128.445-92.406c-.994.438-1.471 1.949-.994 2.665.716 1.074 3.818.438 4.056-.557.199-.875-1.63-2.744-3.062-2.108zm-5.49-.756c.318 0 .636-.04.915-.159l5.805-1.751c.319-.079.478-.437.398-.755-.079-.319-.437-.478-.756-.398l-5.845 1.79c-.954.318-2.028-.199-2.386-1.114a2.01 2.01 0 01.04-1.591 1.918 1.918 0 011.193-1.034l5.05-1.512c.318-.08.477-.438.398-.756-.08-.318-.438-.477-.756-.398l-5.05 1.512c-.835.278-1.551.875-1.909 1.671a3.317 3.317 0 00-.079 2.546 3.278 3.278 0 002.982 1.949zm11.095-11.615c-.875.12-1.471.955-1.352 1.83.119.875.954 1.472 1.829 1.353.875-.12 1.471-.955 1.352-1.83-.119-.875-.954-1.512-1.829-1.353zm-11.453 4.973c.875-.12 1.472-.956 1.352-1.831-.119-.875-.954-1.472-1.829-1.352-.875.119-1.471.954-1.352 1.83a1.56 1.56 0 001.829 1.353zm24.577-4.097c-.279.08-6.84 2.228-8.669 10.86-.08.318.119.636.477.716h.119c.279 0 .517-.199.597-.477 1.67-7.916 7.595-9.905 7.833-9.985.319-.079.478-.437.398-.756-.119-.278-.437-.477-.755-.358zm30.301 99.327a27.125 27.125 0 005.567-5.569c3.46-4.655 4.653-9.388 5.09-12.093-1.551-1.432-3.141-2.824-4.772-4.256a218.473 218.473 0 00-11.373-9.229 50.01 50.01 0 015.369 15.553 49.823 49.823 0 01.119 15.594zm-2.426 71.363c-5.09 2.506-10.657 3.978-21.513 6.762-3.619.955-13.401 3.461-15.986 4.097 23.74-.238 47.48-.437 71.22-.676.596-7.518 1.233-15.036 1.829-22.554-8.39 1.949-16.821 3.938-25.211 5.887-2.267 1.79-5.766 4.216-10.339 6.484zm-36.465-134.89c.915 0 5.806 0 9.504-3.819 2.306-2.347 3.022-5.012 3.301-6.245l-14.077 2.148c.437 2.665.874 5.25 1.272 7.916zM414.477 558.677c26.006-8.83 52.013-17.622 78.019-26.452l-48.951.835c-9.742 8.552-19.405 17.105-29.068 25.617zm165.861-19.292c-5.408 4.614-10.816 9.189-16.264 13.803 11.135-3.938 28.751-8.473 50.343-7.319 12.049.636 22.388 2.943 30.461 5.37a90.337 90.337 0 00-4.494-9.468 87.365 87.365 0 00-9.066-13.445c-16.94 3.7-33.96 7.399-50.98 11.059zm-81.878-167.27a.616.616 0 00-.835-.079.616.616 0 00-.08.835l6.403 7.598c.119.159.278.199.437.199a.57.57 0 00.398-.16.617.617 0 00.079-.835l-6.402-7.558zm75.594 95.191c-.915-6.166-12.407-20.963-12.924-21.6l-.954.716c.119.159 11.81 15.196 12.685 21.043l1.193-.159zM600.34 169.84c.875 0 1.789-.079 2.704-.199a.617.617 0 00.517-.676.618.618 0 00-.676-.517c-10.737 1.551-19.485-7.638-19.565-7.757a.614.614 0 00-.835-.04.616.616 0 00-.04.836c.318.437 7.874 8.353 17.895 8.353zm37.857 35.005c.12.119.279.159.438.159a.576.576 0 00.437-.994l-7.476-7.518a.576.576 0 00-.835 0 .576.576 0 000 .835l7.436 7.518zm55.59 133.975l-22.229-1.233a.643.643 0 00-.636.557c0 .318.238.596.557.636l22.229 1.233h.039c.318 0 .597-.238.597-.557a.566.566 0 00-.557-.636zm-33.603-60.781a.64.64 0 00.438.199.51.51 0 00.397-.159c.239-.239.279-.597.04-.836l-12.844-14.121c-.239-.239-.597-.278-.835-.04-.239.239-.279.597-.04.836l12.844 14.121z" fill="#000"/></svg>