<svg width="640" height="224" fill="none" xmlns="http://www.w3.org/2000/svg"><path d="M579.144 88.853H1.707v134.109h577.437V88.854z" fill="#3FD1FF"/><path d="M578.98 223.817H1.02c-.544 0-1.02-.474-1.02-1.016V89.016C0 88.474.476 88 1.02 88h577.96c.544 0 1.02.474 1.02 1.016v133.785c0 .542-.476 1.016-1.02 1.016zM2.04 221.785h575.92V90.032H2.039v131.753z" fill="#000"/><path d="M76.023 195.629c21.702 0 39.294-17.593 39.294-39.293s-17.592-39.293-39.293-39.293c-21.702 0-39.294 17.593-39.294 39.293s17.592 39.293 39.294 39.293z" fill="#fff"/><path d="M76.022 196.483c-22.145 0-40.147-18.002-40.147-40.147 0-22.146 18.002-40.148 40.147-40.148 22.146 0 40.148 18.002 40.148 40.148 0 22.145-18.002 40.147-40.148 40.147zm0-78.189c-20.99 0-38.11 17.119-38.11 38.11 0 20.99 17.12 38.109 38.11 38.109 20.991 0 38.11-17.119 38.11-38.109 0-20.991-17.119-38.11-38.11-38.11z" fill="#000"/><path d="M52.105 149.361l19.37 23.205 27.611-33.314" fill="#fff"/><path d="M71.534 173.42a1.27 1.27 0 01-.82-.338L51.47 150.013c-.342-.405-.273-1.079.136-1.416.41-.338 1.092-.27 1.433.134l18.428 22.125 26.685-32.108c.341-.404 1.024-.472 1.433-.135.41.338.478 1.012.137 1.417l-27.437 33.12c-.136.135-.409.27-.75.27z" fill="#000"/><path d="M427.64 146.085H183.109c-2.99 0-5.437-2.498-5.437-5.552 0-3.054 2.447-5.553 5.437-5.553H427.64c2.99 0 5.437 2.499 5.437 5.553s-2.447 5.552-5.437 5.552z" fill="#fff"/><path d="M427.486 146.94H183.269c-3.598 0-6.449-2.9-6.449-6.407 0-3.506 2.919-6.406 6.449-6.406h244.217c3.597 0 6.448 2.9 6.448 6.406 0 3.507-2.851 6.407-6.448 6.407zm-244.217-10.857c-2.444 0-4.412 1.955-4.412 4.383s1.968 4.383 4.412 4.383h244.217c2.443 0 4.411-1.955 4.411-4.383s-1.968-4.383-4.411-4.383H183.269z" fill="#000"/><path d="M299.511 175.128H183.108c-2.99 0-5.436-2.499-5.436-5.552 0-3.054 2.446-5.553 5.436-5.553h116.403c2.99 0 5.436 2.499 5.436 5.553 0 2.984-2.446 5.552-5.436 5.552z" fill="#fff"/><path d="M299.365 175.983H183.259c-3.592 0-6.439-2.9-6.439-6.407 0-3.506 2.915-6.406 6.439-6.406h116.106c3.592 0 6.439 2.9 6.439 6.406 0 3.507-2.914 6.407-6.439 6.407zm-116.106-10.857a4.385 4.385 0 00-4.405 4.383 4.385 4.385 0 004.405 4.383h116.106a4.386 4.386 0 004.406-4.383 4.386 4.386 0 00-4.406-4.383H183.259z" fill="#000"/><path d="M638.2 1.512H434.5v125.601h203.7V1.512z" fill="#F9D84E"/><path d="M638.3 128.613H434.5c-.8 0-1.5-.7-1.5-1.5V1.512c0-.8.7-1.5 1.5-1.5h203.7c.8 0 1.5.7 1.5 1.5v125.601c.1.8-.6 1.5-1.4 1.5zm-202.3-3h200.7V3.012H436v122.601z" fill="#000"/><path d="M536.298 80.213c-.3 0-.6-.1-.9-.3l-101.7-77.2c-.7-.5-.8-1.4-.3-2.1.5-.7 1.4-.8 2.1-.3l100.8 76.5 101.1-76.5c.7-.5 1.6-.4 2.1.3s.4 1.6-.3 2.1l-102 77.2c-.3.2-.6.3-.9.3z" fill="#000"/></svg>