<svg width="760" height="402" fill="none" xmlns="http://www.w3.org/2000/svg"><path d="M10.157 344.255l.003-.002 64.118-51.924v-.001c20.028-16.252 31.696-40.599 31.696-66.43V67.595C105.974 54.017 116.99 43 130.567 43h377.837C521.92 43.065 533 54.087 533 67.662v295.743C533 376.983 521.984 388 508.406 388H25.594C12.016 388 1 376.983 1 363.405c0-7.432 3.331-14.476 9.157-19.15z" stroke="#000" stroke-width="2"/><path d="M758.735 200.589c0 58.54-25.244 111.198-65.506 147.661-11.672 10.586-24.701 19.815-38.635 27.415a197.404 197.404 0 01-39.086 16.105 199.804 199.804 0 01-55.916 7.962c-10.314 0-20.448-.814-30.31-2.262-15.382-2.352-30.22-6.424-44.244-12.124-24.882-10.043-47.32-24.972-66.049-43.61-36.192-36.101-58.54-85.955-58.54-141.056 0-110.022 89.121-199.143 199.143-199.143S758.735 90.658 758.735 200.59z" fill="#fff"/><path d="M559.59 401.09c-10.224 0-20.448-.814-30.491-2.352-15.291-2.352-30.219-6.424-44.515-12.215h-.091c-24.972-10.043-47.32-24.881-66.501-43.972C379.991 304.641 359 254.244 359 200.5c0-53.563 20.81-103.87 58.72-141.78C455.631 20.81 505.937 0 559.5 0s103.869 20.81 141.78 58.72C739.19 96.63 760 146.937 760 200.5c0 56.458-24.067 110.655-65.959 148.656-11.852 10.676-24.972 19.996-38.905 27.596-12.486 6.786-25.787 12.305-39.359 16.286-18.095 5.338-37.005 8.052-56.187 8.052zm-74.101-17.009c.09 0 .09 0 0 0 14.114 5.7 28.862 9.771 43.972 12.033 9.862 1.538 19.996 2.262 30.129 2.262 18.91 0 37.549-2.624 55.554-7.871 13.481-3.891 26.51-9.32 38.815-16.015 13.753-7.51 26.692-16.648 38.363-27.234 41.349-37.458 65.054-90.931 65.054-146.666 0-109.026-88.759-197.785-197.786-197.785-109.026 0-197.785 88.76-197.785 197.785 0 52.93 20.629 102.693 58.177 140.061 18.91 18.91 40.987 33.477 65.507 43.43z" fill="#000"/><path d="M661.926 277.483c28.974-28.974 28.974-75.949 0-104.923-28.974-28.973-75.949-28.973-104.922 0-28.974 28.974-28.974 75.949 0 104.923 28.973 28.973 75.948 28.973 104.922 0z" fill="#F15922"/><path d="M609.445 300.57c-6.333 0-12.757-.815-19.181-2.443-40.263-10.586-64.511-51.935-53.925-92.288 5.157-19.544 17.552-35.92 34.924-46.054 17.463-10.224 37.82-12.938 57.273-7.871 40.263 10.586 64.511 51.934 53.925 92.288-8.776 33.838-39.539 56.368-73.016 56.368zm-.09-148.475c-12.758 0-25.334 3.347-36.644 9.952-16.829 9.862-28.772 25.606-33.748 44.425-4.977 18.82-2.262 38.453 7.6 55.282 9.862 16.829 25.605 28.772 44.425 33.749 38.815 10.224 78.716-13.12 88.94-52.025 10.224-38.906-13.12-78.716-52.025-88.941-6.153-1.628-12.396-2.442-18.548-2.442z" fill="#000"/><path d="M693.228 348.252c-35.377 32.029-82.245 51.482-133.636 51.482-10.315 0-20.448-.814-30.311-2.262-.633-.814-1.176-1.719-1.809-2.714-6.877-11.129-15.201-32.663-23.796-76.093-2.352-11.943-4.252-22.891-5.7-32.662-1.719-11.491-2.986-21.263-3.8-28.953 1.357-.272 2.805-.634 4.252-.905a1745.926 1745.926 0 0059.716-13.843c.543-.091 1.086-.272 1.629-.362 5.881-1.448 11.852-2.986 17.824-4.524 1.176-.272 2.262-.634 3.438-.905 7.238-1.9 14.477-3.8 21.624-5.791.815-.181 1.538-.452 2.353-.633l4.614-.814c14.658-2.081 25.334.543 31.939 2.986 21.172 8.052 37.458 28.772 45.873 56.729 5.247 17.463 7.419 37.639 5.79 59.264z" fill="#349948"/><path d="M559.592 401.091c-10.224 0-20.448-.814-30.491-2.353-.362-.09-.724-.271-.905-.542-.634-.815-1.176-1.72-1.81-2.805-8.505-13.753-16.557-39.539-23.886-76.545-2.172-10.857-4.072-21.896-5.7-32.753-1.448-9.591-2.715-19.091-3.8-29.044-.091-.724.362-1.357 1.085-1.447l.905-.181c1.086-.272 2.172-.453 3.348-.724 19.724-4.253 39.81-8.867 59.716-13.843a23.88 23.88 0 001.176-.272l.362-.09c5.7-1.448 11.491-2.896 17.824-4.524l3.438-.905c7.419-1.9 14.658-3.89 21.534-5.791.814-.18 1.538-.452 2.352-.633h.091c1.538-.271 2.986-.543 4.614-.814h.091c11.853-1.719 22.8-.634 32.572 3.076 21.353 8.143 38.001 28.591 46.687 57.635 5.429 17.914 7.419 38.634 5.79 59.715 0 .362-.18.634-.452.905-36.915 33.568-84.688 51.935-134.541 51.935zm-29.496-4.886c9.681 1.448 19.634 2.171 29.496 2.171 48.949 0 95.907-18.005 132.279-50.758 1.448-20.629-.543-40.715-5.79-58.177-8.324-27.868-24.792-48.225-45.059-55.826-9.409-3.528-19.905-4.523-31.215-2.985h-.09c-1.538.181-2.986.452-4.434.723-.814.181-1.538.453-2.352.634-6.876 1.9-14.115 3.8-21.624 5.79l-3.439.905c-6.333 1.629-12.124 3.076-17.824 4.524l-.362.091c-.452.09-.814.181-1.266.271-19.906 4.976-40.082 9.591-59.716 13.843-.995.181-1.991.453-2.986.634 1.086 9.5 2.262 18.548 3.71 27.686a684.125 684.125 0 005.7 32.663c7.238 36.734 15.2 62.158 23.615 75.64.362.814.904 1.538 1.357 2.171z" fill="#000"/><path d="M540.591 397.653c-24.158-1.538-43.068-7.419-55.464-12.305-4.524-1.809-18.729-7.6-35.377-18.638-13.029-8.596-23.162-17.553-30.672-25.063l5.7-50.215c2.715-16.105 12.396-28.049 24.791-34.834 3.8-2.081 7.781-3.62 12.034-4.705 13.572-3.439 26.51-.996 36.825 4.162 6.605 3.257 12.124 7.69 16.195 12.395 4.705 5.429 7.51 11.129 9.32 17.101 1.9 6.152 2.714 12.576 3.619 19.271 3.347 24.792 7.328 53.383 13.029 92.831z" fill="#349948"/><path d="M540.588 399.011c-.09 0-.09 0 0 0-19.452-1.267-38.272-5.429-56.006-12.396-11.671-4.614-24.248-11.219-35.648-18.729a201.085 201.085 0 01-30.853-25.243c-.272-.272-.453-.724-.362-1.086 1.809-15.562 3.528-31.215 5.338-46.777l.362-3.529c2.714-15.653 11.762-28.41 25.515-35.92a55.052 55.052 0 0112.305-4.795c16.015-4.072 29.405.09 37.82 4.343 6.424 3.257 12.214 7.6 16.648 12.757 4.343 5.067 7.51 10.767 9.591 17.643 1.9 6.243 2.714 12.577 3.619 19.363v.09c3.709 27.596 7.871 57.092 12.938 92.74.091.362-.09.815-.362 1.086-.181.272-.543.453-.905.453zm-120.155-57.816a200.251 200.251 0 0030.039 24.429c11.129 7.419 23.615 13.934 35.106 18.458 16.919 6.695 34.924 10.767 53.382 12.124-4.976-34.925-9.048-63.968-12.758-91.112v-.09c-.904-6.605-1.719-12.939-3.528-18.91-1.991-6.515-4.886-11.853-9.048-16.648-4.162-4.796-9.681-9.048-15.834-12.124-7.962-3.982-20.719-7.963-35.92-4.072-4.071.995-8.052 2.624-11.671 4.614-13.029 7.058-21.625 19.091-24.158 33.839l-.362 3.438c-1.719 15.291-3.438 30.673-5.248 46.054zm227.826-215.069c-.633 0-1.267-.09-1.9-.271-10.857-3.076-9.5-33.658-9.138-39.72 0-.633.543-1.176 1.176-1.267 8.414-1.085 16.558 2.172 21.172 8.505 6.152 8.324 5.338 20.81-1.81 27.777-1.99 1.991-5.7 4.976-9.5 4.976zm-8.414-38.724c-.634 12.124.09 33.748 7.238 35.829 3.257.905 7.238-2.533 8.867-4.071 6.062-5.972 6.786-17.101 1.447-24.249-3.89-5.157-10.495-7.962-17.552-7.51z" fill="#000"/><path d="M640.115 92.469l-53.383-1.629c-13.39-.452-24.61 10.134-25.062 23.525l-3.529 112.916c0 5.61 0 11.31-.09 16.92a43.386 43.386 0 006.876 5.338c1.357.905 5.248 3.257 10.405 4.976 5.519 1.81 10.767 2.353 15.02 2.262 3.709-.09 7.057-2.262 8.685-5.609 5.61-11.762 11.31-23.615 16.92-35.377 9.048-.272 28.772-2.443 42.796-17.101 23.163-24.157 16.377-66.773-1.99-90.749-5.701-7.51-12.124-12.487-16.648-15.472z" fill="#3FD1FF"/><path d="M589.629 258.225c-5.157 0-10.133-.815-14.748-2.353-4.976-1.628-8.776-3.89-10.676-5.157-2.443-1.629-4.886-3.438-7.057-5.519-.272-.272-.453-.633-.453-.995l.091-16.92 3.528-113.007c.181-6.877 3.077-13.21 8.053-17.915 4.976-4.705 11.491-7.148 18.367-6.967l53.382 1.629c.272 0 .543.09.724.271 6.605 4.434 12.305 9.772 17.01 15.834 19.453 25.424 24.882 68.673 1.9 92.469-13.481 14.024-32.391 17.01-42.887 17.462l-16.557 34.744c-1.81 3.89-5.61 6.333-9.862 6.333-.272.091-.543.091-.815.091zM559.5 243.658c1.991 1.809 4.072 3.438 6.243 4.795 1.81 1.176 5.429 3.257 10.043 4.795 4.524 1.539 9.41 2.262 14.567 2.172 3.257 0 6.062-1.9 7.51-4.795l16.919-35.377c.181-.453.634-.724 1.177-.815 12.214-.452 29.315-3.709 41.891-16.738 21.986-22.891 16.648-64.511-2.081-88.94-4.433-5.791-9.772-10.767-16.015-15.02l-53.02-1.629c-6.152-.18-11.943 1.991-16.376 6.244-4.434 4.252-7.058 9.862-7.239 16.014l-3.528 112.917-.091 16.377z" fill="#000"/><path d="M493.724 138.161a102.917 102.917 0 0053.925-31.667c.271-.272.452-.543.633-.724 3.167-3.438 5.339-5.248 6.424-6.062 6.243-4.705 15.02-8.143 29.406-9.772 12.938-1.447 35.377-3.8 60.62-5.338 5.158-.362 12.758-.724 19.453 4.072 7.691 5.519 9.953 14.747 10.677 19.271-7.782 1.539-15.653 3.077-23.434 4.615-24.791 8.505-49.673 17.1-74.464 25.605-.362.543-.995 1.448-1.629 2.624.453 6.334.905 12.757 1.448 19.272.633 8.414 1.357 16.648 2.172 24.881 2.352 5.067 5.7 13.663 6.243 24.701 0 0 .361 10.405-2.443 20.991-10.586 40.263-51.754 64.33-91.926 53.744-39.992-10.495-64.24-51.934-53.744-91.926 7.419-27.958 29.948-48.225 56.639-54.287z" fill="#F15922"/><path d="M509.918 288.265a76.085 76.085 0 01-19.453-2.534c-19.634-5.157-36.191-17.824-46.596-35.558-10.405-17.734-13.3-38.363-8.143-58.087 7.238-27.777 29.315-48.949 57.544-55.282l.271 1.357-.18-1.267c20.629-4.705 39.086-15.471 53.201-31.215.271-.271.452-.543.724-.724 2.443-2.623 4.705-4.704 6.605-6.152 7.147-5.338 16.738-8.505 30.129-10.043 20.991-2.353 41.439-4.162 60.711-5.338 4.886-.272 13.119-.815 20.357 4.343 7.42 5.247 10.224 13.843 11.22 20.176.09.724-.362 1.448-1.086 1.538l-23.343 4.615-73.921 25.424c-.362.543-.724 1.176-1.086 1.81.452 6.243.905 12.576 1.448 18.819.633 8.143 1.357 16.467 2.081 24.61a67.315 67.315 0 016.243 25.063c0 .452.271 10.767-2.534 21.443-9.048 34.201-40.172 57.002-74.192 57.002zm-15.924-148.747c-27.234 6.153-48.587 26.601-55.554 53.382-10.314 39.449 13.3 79.983 52.749 90.298 19.091 4.976 38.996 2.262 56.097-7.691 17.01-9.952 29.224-25.967 34.2-45.058 2.715-10.315 2.443-20.539 2.443-20.629-.362-8.324-2.443-16.467-6.062-24.158-.09-.181-.09-.271-.09-.452-.724-8.234-1.448-16.648-2.172-24.882-.543-6.424-.995-12.938-1.447-19.272 0-.271 0-.543.181-.724.543-.995 1.085-1.9 1.719-2.804.181-.272.362-.453.724-.543l74.463-25.606c.091 0 .091 0 .181-.09l22.077-4.343c-1.086-5.61-3.71-12.757-9.953-17.1-6.424-4.615-14.024-4.072-18.638-3.8-19.182 1.176-39.63 2.985-60.621 5.338-12.848 1.447-21.986 4.433-28.772 9.5-1.809 1.357-3.981 3.348-6.243 5.881-.181.271-.452.452-.633.724-14.477 16.105-33.387 27.234-54.649 32.029z" fill="#000"/><path d="M577.323 138.342c-4.886.633-9.772 1.176-14.658 1.809-7.691.996-14.386 6.243-16.648 13.663-1.267 4.162-1.176 8.776.543 13.209l1.991 4.886c3.709 9.139 13.571 14.205 23.071 11.853 2.896-.724 5.882-1.448 8.778-2.172" fill="#3FD1FF"/><path d="M567.101 185.662c-8.505 0-16.467-5.157-19.725-13.21l-1.99-4.886c-1.81-4.523-2.081-9.409-.634-14.114 2.353-7.781 9.41-13.572 17.825-14.567l14.657-1.81c.724-.09 1.448.453 1.538 1.177.091.723-.452 1.447-1.176 1.538l-14.657 1.809c-7.329.905-13.482 5.881-15.563 12.667-1.266 4.072-1.085 8.324.543 12.305l1.991 4.886c3.438 8.415 12.667 13.21 21.534 11.038l8.776-2.171a1.349 1.349 0 011.629.995 1.35 1.35 0 01-.996 1.629l-8.776 2.171c-1.719.362-3.348.543-4.976.543z" fill="#000"/><path d="M670.426 142.957l18.276-3.891a6.213 6.213 0 017.42 5.519c.362 3.257-1.9 6.243-5.067 6.786l-20.267 4.253" fill="#3FD1FF"/><path d="M670.787 157.071c-.634 0-1.177-.453-1.358-1.086-.18-.724.272-1.448 1.086-1.629l20.267-4.252c2.534-.452 4.253-2.805 3.981-5.338-.181-1.357-.814-2.624-1.99-3.439-1.086-.814-2.533-1.176-3.891-.904l-18.276 3.89c-.724.181-1.448-.271-1.629-1.085-.181-.724.272-1.448 1.086-1.629l18.276-3.891c2.081-.452 4.343.091 6.063 1.358 1.719 1.266 2.804 3.257 3.076 5.338.362 3.89-2.353 7.6-6.153 8.324l-20.176 4.252c-.181.091-.272.091-.362.091z" fill="#000"/><path d="M724.983 344.723c-8.595 5.701-20.267 3.348-25.967-5.247l-19.182-28.863c-5.7-8.595-3.347-20.267 5.248-25.967 8.596-5.7 20.267-3.348 25.967 5.248l19.182 28.862c5.7 8.596 3.347 20.177-5.248 25.967z" fill="#3FD1FF"/><path d="M714.669 349.156c-1.357 0-2.714-.09-3.981-.362-5.247-1.086-9.771-4.071-12.757-8.595l-19.181-28.863c-6.153-9.229-3.62-21.715 5.609-27.777 4.434-2.986 9.862-3.981 15.11-2.986 5.248 1.086 9.772 4.072 12.758 8.596l19.181 28.862c6.152 9.229 3.619 21.715-5.61 27.777-3.438 2.172-7.238 3.348-11.129 3.348zm-19.271-66.321c-3.348 0-6.696.996-9.591 2.896-3.891 2.533-6.515 6.514-7.419 11.038-.905 4.524 0 9.138 2.533 13.029l19.181 28.862c2.534 3.891 6.515 6.515 11.039 7.42 4.524.905 9.138 0 13.029-2.534 7.962-5.247 10.133-16.105 4.885-24.067l-19.181-28.863c-2.533-3.89-6.514-6.514-11.038-7.419-1.086-.181-2.262-.362-3.438-.362z" fill="#000"/><path d="M703.452 365.262c-8.596 5.7-20.267 3.347-25.968-5.248l-19.181-28.863c-5.7-8.595-3.348-20.267 5.248-25.967 8.595-5.7 20.267-3.348 25.967 5.248l19.181 28.862c5.701 8.686 3.348 20.267-5.247 25.968z" fill="#3FD1FF"/><path d="M693.138 369.786c-1.357 0-2.714-.091-3.981-.362-5.248-1.086-9.772-4.072-12.757-8.596l-19.182-28.862c-6.152-9.229-3.619-21.715 5.61-27.777 9.229-6.153 21.715-3.619 27.777 5.61l19.181 28.862c2.986 4.434 3.981 9.862 2.986 15.11-1.086 5.248-4.072 9.772-8.595 12.758-3.258 2.081-7.148 3.257-11.039 3.257zm-19.181-66.321a17.23 17.23 0 00-9.591 2.895c-7.962 5.248-10.133 16.106-4.886 24.068l19.182 28.862c2.533 3.891 6.514 6.515 11.038 7.42 4.524.904 9.138 0 13.029-2.534 3.891-2.533 6.514-6.514 7.419-11.038.905-4.524 0-9.139-2.533-13.029l-19.182-28.863c-3.347-5.066-8.867-7.781-14.476-7.781z" fill="#000"/><path d="M684.542 386.072c-8.596 5.7-20.268 3.348-25.968-5.248l-19.181-28.862c-5.7-8.596-3.348-20.267 5.248-25.968 8.595-5.7 20.267-3.347 25.967 5.248l19.181 28.863c5.7 8.686 3.348 20.267-5.247 25.967z" fill="#3FD1FF"/><path d="M674.228 390.596c-6.514 0-12.938-3.166-16.738-8.957l-19.182-28.863c-6.152-9.228-3.619-21.714 5.61-27.776 9.229-6.153 21.715-3.62 27.777 5.609l19.181 28.863c2.986 4.433 3.981 9.862 2.986 15.11-1.086 5.247-4.072 9.771-8.596 12.757a20.376 20.376 0 01-11.038 3.257zm-19.181-66.32a17.22 17.22 0 00-9.591 2.895c-7.962 5.248-10.134 16.105-4.886 24.067l19.182 28.863c5.247 7.962 16.105 10.133 24.067 4.886 3.89-2.534 6.514-6.515 7.419-11.039.905-4.524 0-9.138-2.533-13.029l-19.182-28.862c-3.348-5.067-8.867-7.781-14.476-7.781z" fill="#000"/><path d="M654.866 374.58l-.272 1.086a197.344 197.344 0 01-39.086 16.105c7.962-13.3 16.014-26.51 23.977-39.81 5.066 7.51 10.224 15.11 15.381 22.619z" fill="#3FD1FF"/><path d="M615.506 393.128c-.452 0-.814-.181-1.085-.543-.362-.452-.362-1.085-.091-1.538l6.424-10.676c5.881-9.681 11.672-19.453 17.553-29.134.271-.362.633-.633 1.086-.633.452 0 .904.18 1.176.633l15.381 22.619c.181.272.272.634.181.996-.09.362-.181.724-.271 1.176a1.66 1.66 0 01-.634.905c-12.486 6.786-25.786 12.305-39.358 16.286-.09-.091-.271-.091-.362-.091zm23.977-38.634c-5.519 9.138-10.948 18.277-16.467 27.325l-4.614 7.6c12.033-3.71 23.796-8.686 34.924-14.658l-13.843-20.267zm13.662-192.629c.542 5.429 5.428 11.31 10.043 12.848 3.619 1.177 6.876.091 8.052-.452.453-5.067.995-10.134 1.448-15.2l-19.543 2.804zm-89.935-6.424c-.181-.724-.905-1.176-1.628-1.086-.724.181-1.177.905-1.086 1.629l3.619 17.1c.09.634.724 1.086 1.357 1.086h.272c.723-.181 1.176-.905 1.085-1.629l-3.619-17.1zm36.915 63.877c.724 2.986 1.629 5.972 2.172 9.048.724 4.614 1.538 9.138 2.262 13.753 3.619-9.32 7.329-18.548 10.948-27.868l-9.681-1.266c-3.801-.453-6.515 3.076-5.701 6.333zm54.287-68.762c2.172-.181 3.71-2.171 3.529-4.343-.181-2.171-2.172-3.71-4.343-3.529-2.172.181-3.71 2.172-3.529 4.343a4.02 4.02 0 004.343 3.529z" fill="#000"/></svg>