<svg width="353" height="353" fill="none" xmlns="http://www.w3.org/2000/svg"><path d="M284.079 208.219l-44.092-7.161 10.447-27.983c2.31-6.193-.709-9.008-6.719-6.262l-52.214 23.871-21.797-30.069c-3.131-4.316-7.06-3.708-8.739 1.353l-11.681 35.26-56.989-6.962c-6.559-.8-8.585 2.797-4.51 8.001l18.426 23.505-39.868 20.163c-7.498 3.79-6.847 7.994 1.447 9.345l44.092 7.161-10.447 27.983c-2.31 6.193.709 9.008 6.719 6.262l52.214-23.871 21.799 30.076c3.13 4.315 7.06 3.707 8.738-1.354l11.682-35.26 56.988 6.962c6.559.8 8.585-2.796 4.511-8.001l-18.421-23.512 39.861-20.162c7.498-3.79 6.847-7.994-1.447-9.345z" fill="#171717"/><path d="M337.482 298.094c0 6.406-5.758 11.581-12.893 11.581H81.666c-7.098 0-12.893-5.175-12.893-11.581v-133.83c0-6.405 5.758-11.58 12.893-11.58h190.123c7.134 0 12.893 5.175 12.893 11.58v71.62c0 11.544 5.794 22.437 15.753 29.712l32.266 23.487c3.006 2.207 4.781 5.537 4.781 9.011z" fill="#fff"/><path d="M324.59 310.254H81.666c-7.424 0-13.435-5.429-13.435-12.124V164.264c0-6.695 6.011-12.123 13.435-12.123H271.79c7.423 0 13.435 5.428 13.435 12.123v71.62c0 11.399 5.649 22.075 15.536 29.277l32.266 23.487c3.187 2.316 4.998 5.754 4.998 9.446 0 6.695-6.048 12.16-13.435 12.16zM81.666 153.19c-6.808 0-12.35 4.958-12.35 11.038v133.83c0 6.079 5.542 11.037 12.35 11.037H324.59c6.808 0 12.349-4.958 12.349-11.037 0-3.33-1.666-6.478-4.563-8.577l-32.267-23.487c-10.14-7.383-15.97-18.385-15.97-30.147v-71.583c0-6.08-5.541-11.038-12.349-11.038H81.666v-.036z" fill="#000"/><path d="M108.102 309.711H81.666c-7.098 0-12.893-5.754-12.893-12.883v-36.805l.797-3.149 11.082 31.775 23.684-62.826 3.766 83.888z" fill="#F9D84E"/><path d="M108.102 310.253H81.666c-7.424 0-13.435-6.007-13.435-13.426v-36.95l.796-3.148c.073-.217.254-.398.507-.398.254 0 .47.144.543.362l10.611 30.363 23.141-61.414c.109-.254.326-.398.579-.362.254.036.435.253.471.507l3.766 83.887c0 .145-.036.29-.145.398a.516.516 0 01-.398.181zm-38.785-50.159v36.733c0 6.804 5.54 12.341 12.349 12.341h25.893l-3.621-80.631-22.743 60.328a.545.545 0 01-.507.362.545.545 0 01-.507-.362L69.68 258.792l-.362 1.302z" fill="#000"/><path d="M187.843 199.947c-13.762-1.809-32.629 3.366-57.508 5.935a32.097 32.097 0 00-28.464 27.287c0 .073-.036.181-.036.254-3.006 25.332-6.048 50.665-9.054 75.998h107.012c4.998-.036 9.995-.036 14.993-.072 1.63-2.316 7.243-10.893 5.649-22.185-.76-5.32-2.861-9.373-4.454-11.834 3.694-6.297 8.909-17.552 8.836-32.028-.036-6.369-.145-25.332-13.29-36.008-6.12-4.958-12.386-5.863-23.684-7.347z" fill="#F9D84E"/><path d="M92.817 310a.584.584 0 01-.399-.181c-.108-.109-.145-.253-.145-.434l9.054-75.999.036-.253c2.137-14.802 14.051-26.202 28.935-27.758 9.017-.941 17.383-2.243 24.77-3.365 13.436-2.063 24.01-3.728 32.846-2.57 10.973 1.448 17.6 2.28 24.046 7.528 13.363 10.82 13.436 30.073 13.472 36.407.072 10.965-2.969 22.003-8.728 31.991 2.282 3.655 3.767 7.6 4.346 11.762 1.521 10.821-3.513 19.398-5.758 22.546a.515.515 0 01-.434.217l-14.993.073H92.817V310zm.58-1.086h106.396l14.739-.072c2.245-3.257 6.844-11.364 5.396-21.569-.58-4.09-2.065-7.998-4.346-11.617a.553.553 0 010-.579c5.794-9.916 8.8-20.882 8.764-31.739-.037-6.188-.109-25.079-13.074-35.574-5.939-4.813-11.805-5.754-23.503-7.274-8.691-1.122-19.193.506-32.556 2.569-7.388 1.158-15.753 2.425-24.806 3.366-14.377 1.484-25.893 12.521-27.957 26.816l-.037.254-9.017 75.419z" fill="#000"/><path d="M154.02 309.24l9.126-33.439a18.273 18.273 0 019.923-11.798l11.19-5.247a840.807 840.807 0 01-1.811-9.265l-63.266 15.924c-3.875 14.729-7.713 29.494-11.588 44.224 15.463-.145 30.963-.254 46.426-.399z" fill="#FF6EC1"/><path d="M107.557 310.146a.52.52 0 01-.435-.217.55.55 0 01-.108-.471l11.588-44.224c.036-.181.217-.326.398-.398l63.266-15.923c.145-.037.29 0 .435.072a.658.658 0 01.253.362l1.811 9.264c.036.254-.072.507-.29.58l-11.19 5.247c-4.744 2.244-8.256 6.406-9.596 11.472l-9.126 33.439c-.073.218-.29.399-.507.399l-46.499.398zm12.023-44.297l-11.335 43.247 45.34-.362 9.017-33.041a18.851 18.851 0 0110.213-12.16l10.791-5.066-1.629-8.288-62.397 15.67z" fill="#000"/><path d="M199.215 284.233c.217 8.396.398 16.792.616 25.188 14.232-.072 28.464-.181 42.66-.253-6.121-24.573-12.205-49.146-18.325-73.719l-2.788 11.653" fill="#F9D84E"/><path d="M173.865 280.145a4.054 4.054 0 100-8.107 4.054 4.054 0 100 8.107z" fill="#fff"/><path d="M173.865 280.723a4.603 4.603 0 01-4.599-4.596 4.604 4.604 0 014.599-4.596 4.604 4.604 0 014.599 4.596 4.58 4.58 0 01-4.599 4.596zm0-8.142a3.514 3.514 0 00-3.513 3.51c0 1.918 1.593 3.511 3.513 3.511 1.919 0 3.513-1.593 3.513-3.511a3.515 3.515 0 00-3.513-3.51z" fill="#000"/><path d="M140.439 272.543c17.901 0 32.412-14.501 32.412-32.39 0-17.888-14.511-32.389-32.412-32.389s-32.412 14.501-32.412 32.389c0 17.889 14.511 32.39 32.412 32.39z" fill="#3FD1FF"/><path d="M140.439 273.086c-18.179 0-32.955-14.765-32.955-32.933 0-18.167 14.776-32.932 32.955-32.932 18.18 0 32.955 14.765 32.955 32.932 0 18.168-14.811 32.933-32.955 32.933zm0-64.78c-17.564 0-31.868 14.295-31.868 31.847S122.875 272 140.439 272s31.869-14.295 31.869-31.847-14.305-31.847-31.869-31.847z" fill="#000"/><path d="M127.8 269.72l-4.418 10.821c-1.232 3.004.543 6.37 3.73 7.057a5.165 5.165 0 005.794-2.895l9.126-19.76" fill="#3FD1FF"/><path d="M128.234 288.25c-.398 0-.796-.036-1.231-.145a5.706 5.706 0 01-3.875-2.931c-.796-1.52-.869-3.258-.253-4.85l4.418-10.784c.109-.29.434-.399.724-.29.29.109.399.434.29.724l-4.418 10.784a4.838 4.838 0 00.181 3.945c.615 1.231 1.774 2.099 3.15 2.389 2.137.47 4.274-.616 5.215-2.606l9.126-19.76c.109-.289.435-.398.725-.253.289.109.398.434.253.724l-9.126 19.759a5.7 5.7 0 01-5.179 3.294z" fill="#000"/><path d="M170.39 235.848c2.101.434 3.875.868 5.976 1.302 3.331.688 6.047 3.221 6.772 6.587a8.876 8.876 0 01-.725 5.754l-1.05 2.063c-1.955 3.872-6.446 5.718-10.538 4.343-1.268-.434-2.499-.833-3.766-1.267l2.064-9.771" fill="#3FD1FF"/><path d="M173.574 256.837a8.822 8.822 0 01-2.897-.47l-3.766-1.267c-.254-.072-.399-.362-.363-.615l2.065-9.771a.596.596 0 01.652-.435c.289.073.47.362.434.652l-1.955 9.301 3.295 1.122c3.802 1.266 8.076-.471 9.886-4.054l1.051-2.063c.869-1.7 1.086-3.546.688-5.392-.652-3.076-3.151-5.464-6.374-6.152-1.05-.217-2.028-.434-3.006-.651-.978-.218-1.919-.435-3.006-.652a.595.595 0 01-.434-.651.596.596 0 01.652-.435c1.05.218 2.028.435 3.006.652.977.217 1.919.434 3.005.651 3.622.76 6.446 3.511 7.207 6.985.434 2.099.181 4.198-.797 6.116l-1.05 2.063a9.326 9.326 0 01-8.293 5.066z" fill="#000"/><path d="M110.236 230.527c-2.137.037-3.984.073-6.12.109-3.404.036-6.591 1.99-7.931 5.103-.76 1.773-.978 3.763-.398 5.79l.615 2.244a8.696 8.696 0 009.488 6.297c1.304-.181 2.644-.326 3.948-.507l-.109-9.988" fill="#3FD1FF"/><path d="M104.803 250.685c-4.093 0-7.823-2.751-8.945-6.768l-.616-2.243a9.004 9.004 0 01.435-6.153c1.412-3.257 4.744-5.392 8.438-5.428 1.086 0 2.064-.036 3.042-.036 1.014-.037 1.991-.036 3.078-.036.29 0 .543.253.543.542 0 .29-.253.543-.543.543-1.087 0-2.064.036-3.078.036a81.44 81.44 0 01-3.042.037c-3.26.036-6.193 1.918-7.46 4.777-.761 1.737-.87 3.582-.363 5.428l.616 2.244c1.087 3.872 4.889 6.405 8.872 5.935l3.477-.434-.109-9.518c0-.29.254-.543.544-.543.289 0 .543.253.543.543l.108 9.988c0 .29-.217.507-.47.543l-3.948.507c-.362 0-.76.036-1.122.036z" fill="#000"/><path d="M10.612 191.044l19.374 48.458c1.992 4.995 2.934-4.632 7.786-6.948l1.594-.76c4.563-2.171 6.555-7.6 4.454-12.196L27.705 183.77c-2.716-6.007-10.647-7.383-15.21-2.569a9.302 9.302 0 00-1.883 9.843z" fill="#3FD1FF"/><path d="M31.11 241.457h-.073c-.797-.036-1.232-.977-1.558-1.773l-19.374-48.458a9.867 9.867 0 011.992-10.387 9.792 9.792 0 018.763-2.931 9.847 9.847 0 017.316 5.645l16.115 35.828c2.173 4.85.036 10.604-4.744 12.884l-1.593.76c-2.137 1.013-3.513 3.655-4.527 5.609-.833 1.701-1.413 2.823-2.318 2.823zm-19.991-50.629l19.374 48.458c.326.832.544 1.013.616 1.085.326-.145.942-1.339 1.412-2.244 1.087-2.062 2.572-4.921 5.034-6.079l1.594-.76c4.273-2.027 6.156-7.166 4.2-11.473l-16.115-35.827c-1.195-2.678-3.621-4.524-6.518-5.031-2.861-.506-5.795.471-7.823 2.606-2.354 2.497-3.042 6.116-1.774 9.265z" fill="#000"/><path d="M3.116 233.966l27.196 28.445c3.73 3.872 9.923 3.8 13.58-.145l1.196-1.303a9.297 9.297 0 00-.435-12.992l-28.392-27.178c-4.78-4.56-12.638-2.823-15.065 3.293-1.34 3.438-.58 7.274 1.92 9.88z" fill="#3FD1FF"/><path d="M37.012 265.849c-2.716 0-5.215-1.086-7.098-3.04L2.718 234.364A9.807 9.807 0 01.69 223.977c1.195-3.039 3.838-5.283 7.025-6.007 3.187-.724 6.519.217 8.909 2.497l28.392 27.179c3.838 3.655 4.02 9.843.434 13.752l-1.195 1.302c-1.847 2.027-4.382 3.149-7.134 3.185-.036-.036-.073-.036-.109-.036zM9.815 218.838c-.615 0-1.267.073-1.883.218-2.86.615-5.178 2.605-6.265 5.32-1.231 3.148-.543 6.803 1.811 9.228l27.197 28.445c1.702 1.773 3.983 2.75 6.41 2.714 2.462-.036 4.707-1.049 6.373-2.823l1.195-1.302c3.187-3.475 3.006-8.939-.398-12.232l-28.392-27.179c-1.63-1.556-3.802-2.389-6.048-2.389z" fill="#000"/><path d="M9.744 175.88l19.375 48.458c1.992 4.994 2.933-4.632 7.786-6.948l1.593-.76c4.563-2.172 6.555-7.6 4.455-12.196l-16.116-35.828c-2.715-6.007-10.646-7.383-15.21-2.569-2.462 2.641-3.222 6.478-1.883 9.843z" fill="#3FD1FF"/><path d="M30.238 226.293h-.072c-.797-.036-1.232-.977-1.558-1.773L9.234 176.062a9.865 9.865 0 011.992-10.387 9.792 9.792 0 018.763-2.931 9.847 9.847 0 017.316 5.645l16.115 35.828c2.173 4.85.036 10.604-4.744 12.884l-1.594.76c-2.136 1.013-3.512 3.655-4.526 5.609-.797 1.701-1.413 2.823-2.318 2.823zm-19.99-50.63l19.374 48.459c.326.832.544 1.013.616 1.085.326-.145.942-1.339 1.412-2.244 1.087-2.062 2.572-4.921 5.034-6.079l1.593-.76c4.274-2.027 6.157-7.166 4.201-11.473l-16.115-35.827c-1.195-2.678-3.621-4.524-6.518-5.031-2.861-.47-5.795.471-7.823 2.606-2.317 2.497-3.042 6.116-1.774 9.264z" fill="#000"/><path d="M36.29 273.882a74.678 74.678 0 01-7.098-21.714c-2.898-17.913 1.557-32.462 4.382-39.7L21.695 179.21c-1.23-3.402-.362-7.202 2.246-9.771 4.707-4.633 12.602-3.004 15.1 3.112l7.208 17.624c1.883 4.633 6.192 15.236 8.075 19.905 3.73 9.228 8.51 20.954 12.24 30.182l7.062 19.217c3.585 9.807-1.086 20.7-10.683 24.826-.108.036-.217.108-.326.145-8.945 3.872-19.374.579-24.517-7.709l-1.81-2.859z" fill="#3FD1FF"/><path d="M54.792 286.622c-2.028 0-4.092-.326-6.048-.941a20.072 20.072 0 01-11.117-8.65l-1.775-2.859s0-.036-.036-.036a75.12 75.12 0 01-7.134-21.858c-2.68-16.611.869-30.798 4.345-39.809l-11.842-33.041c-1.303-3.583-.362-7.636 2.354-10.314 2.354-2.317 5.65-3.294 8.873-2.606 3.223.651 5.866 2.859 7.134 5.899l7.206 17.624c1.883 4.669 6.193 15.236 8.076 19.905 3.73 9.228 8.51 20.953 12.24 30.182l7.062 19.217c3.694 10.06-1.122 21.279-10.973 25.513l-.325.145c-2.572 1.05-5.288 1.629-8.04 1.629zM36.757 273.63l1.775 2.859c4.961 7.997 15.21 11.218 23.829 7.491l.326-.145c9.307-4.017 13.87-14.621 10.393-24.138l-7.062-19.217c-3.73-9.192-8.51-20.954-12.24-30.182-1.883-4.633-6.193-15.236-8.076-19.905l-7.206-17.624c-1.123-2.714-3.477-4.669-6.338-5.248a8.823 8.823 0 00-7.895 2.316 8.744 8.744 0 00-2.1 9.193l11.915 33.222a.617.617 0 010 .362c-3.477 8.902-7.026 22.944-4.382 39.446a76.141 76.141 0 007.061 21.57z" fill="#000"/><path d="M278.242 140.544h-94.156v57.542h94.156v-57.542z" fill="#F15922"/><path d="M278.243 198.629h-94.157a.556.556 0 01-.543-.543v-57.541c0-.29.253-.543.543-.543h94.157c.289 0 .543.253.543.543v57.541c0 .29-.254.543-.543.543zm-93.614-1.085h93.07v-56.456h-93.07v56.456z" fill="#000"/><path d="M231.162 169.677c-.109 0-.181-.036-.29-.072l-47.078-28.59c-.254-.145-.326-.507-.181-.76.145-.254.507-.326.76-.181l46.789 28.409 46.788-28.409a.58.58 0 01.761.181.58.58 0 01-.181.76l-47.078 28.59c-.109.036-.218.072-.29.072z" fill="#000"/><path d="M278.24 198.629c-.109 0-.181-.037-.29-.073l-46.788-28.771-46.789 28.771a.578.578 0 01-.76-.181.578.578 0 01.181-.76l47.078-28.952a.56.56 0 01.58 0l47.078 28.952c.253.145.326.507.181.76a.62.62 0 01-.471.254zm-130.088 59.874c-.797 0-1.449.651-1.449 1.448 0 .796.652 1.447 1.449 1.447.796 0 1.448-.651 1.448-1.447 0-.797-.652-1.448-1.448-1.448zm-21.727-1.81c-.797 0-1.448.652-1.448 1.448 0 .796.651 1.448 1.448 1.448.797 0 1.449-.652 1.449-1.448 0-.796-.652-1.448-1.449-1.448zm116.611 52.367l-18.324-73.755a.545.545 0 00-.544-.398.577.577 0 00-.543.435l-2.788 11.653a.54.54 0 001.05.253l2.245-9.482 17.6 70.896-41.429.253-.579-24.681a.557.557 0 00-.543-.543.557.557 0 00-.544.543l.073 2.642c-1.304 4.198-3.513 9.626-7.46 15.199a54.451 54.451 0 01-6.41 7.528c4.816-.253 9.597-.471 14.413-.724v.543c0 .289.254.543.543.543l42.66-.254a.517.517 0 00.435-.217.415.415 0 00.145-.434zm-85.757-87.471a26.613 26.613 0 00-10.9 2.823 25.598 25.598 0 00-6.193 4.379c-.76-8.504 4.78-16.647 4.853-16.756.181-.253.108-.579-.145-.76-.254-.181-.58-.108-.761.145-.253.362-5.758 8.432-5.07 17.226-1.883-2.461-4.164-4.632-6.772-6.297a26.167 26.167 0 00-8.945-3.619c-.289-.072-.579.145-.651.435-.073.289.145.579.434.651 3.078.615 5.939 1.81 8.583 3.474 2.788 1.774 5.215 4.162 7.098 6.876l-.109.109c-.036.036-.036.036-.036.072-.109-.036-.217-.036-.326-.072a.35.35 0 00-.326.072c-3.259.036-6.555.652-9.56 1.882a25.773 25.773 0 00-8.148 5.175.559.559 0 00-.037.76.582.582 0 00.399.181.464.464 0 00.362-.145 25.24 25.24 0 017.786-4.958c3.042-1.23 6.41-1.845 9.705-1.809l.543.109-2.281 14.512c-.036.289.145.579.434.615h.073a.544.544 0 00.543-.471l2.282-14.439a25.02 25.02 0 016.699 2.714c3.115 1.809 5.831 4.343 7.931 7.31.109.145.29.217.435.217a.59.59 0 00.326-.108c.253-.181.289-.507.144-.76-2.172-3.112-5.033-5.718-8.256-7.636a25.077 25.077 0 00-7.026-2.823.31.31 0 000-.253c-.036-.109-.036-.217-.036-.326a25.522 25.522 0 016.518-4.741c3.223-1.628 6.809-2.569 10.43-2.678.29 0 .543-.253.507-.579.036-.289-.217-.507-.507-.507z" fill="#000"/></svg>