<svg width="433" height="353" fill="none" xmlns="http://www.w3.org/2000/svg"><g clip-path="url(#clip0)"><path d="M238.079 59.22l-44.092-7.162 10.447-27.983c2.31-6.193-.709-9.008-6.719-6.262l-52.214 23.871-21.797-30.07c-3.131-4.315-7.06-3.707-8.739 1.354l-11.681 35.26-56.989-6.962c-6.559-.8-8.585 2.797-4.51 8.001L60.21 72.772 20.343 92.935c-7.498 3.79-6.847 7.994 1.447 9.345l44.092 7.161-10.447 27.983c-2.31 6.193.71 9.008 6.72 6.262l52.213-23.871 21.799 30.076c3.13 4.315 7.06 3.707 8.738-1.354l11.682-35.26 56.988 6.962c6.559.8 8.585-2.796 4.511-8.001l-18.421-23.512 39.861-20.162c7.498-3.79 6.847-7.994-1.447-9.345z" fill="#171717"/><path d="M252.399 162.492v137.539c0 6.571-5.336 11.903-11.912 11.903h-224.7c-6.577 0-11.912-5.332-11.912-11.903a11.86 11.86 0 014.436-9.269l29.84-24.147c9.212-7.471 14.579-18.661 14.579-30.534v-73.62c0-6.572 5.335-11.903 11.911-11.903h175.846c6.545.031 11.912 5.362 11.912 11.934z" fill="#fff"/><path d="M240.457 312.399H15.787c-6.824 0-12.377-5.548-12.377-12.368a12.3 12.3 0 014.591-9.609l29.84-24.148c9.15-7.409 14.393-18.382 14.393-30.161v-73.621c0-6.819 5.552-12.368 12.377-12.368h175.846c6.824 0 12.376 5.549 12.376 12.368v137.539c.031 6.82-5.552 12.368-12.376 12.368zM64.611 151.054c-6.328 0-11.447 5.146-11.447 11.438v73.621c0 12.058-5.366 23.31-14.733 30.874L8.59 291.134a11.377 11.377 0 00-4.25 8.897c0 6.324 5.149 11.438 11.446 11.438h224.67c6.328 0 11.446-5.145 11.446-11.438V162.492c0-6.323-5.149-11.438-11.446-11.438H64.611z" fill="#000"/><path d="M136.172 158.896l-17.463 5.518-14.982 12.833c6.42 9.672 12.81 19.312 19.231 28.983-.217 4.278-.403 8.587-.62 12.865l19.542-.93c.403-4.061.837-8.091 1.241-12.152l2.078-.651c7.382-2.324 11.353-10.353 8.716-17.637l-4.404-12.245c-.931-3.596-1.862-7.191-2.823-10.787-1.148-4.588-5.987-7.254-10.516-5.797z" fill="#F9D84E"/><path d="M122.335 219.56a.65.65 0 01-.341-.124c-.093-.093-.155-.217-.124-.341l.62-12.709-19.138-28.859a.48.48 0 01.093-.62l14.982-12.834c.062-.031.093-.062.155-.093l17.464-5.517c2.326-.744 4.777-.496 6.917.682 2.14 1.178 3.629 3.131 4.25 5.486l2.791 10.757 4.374 12.213c1.303 3.658 1.086 7.564-.62 11.035-1.706 3.472-4.715 6.014-8.407 7.192l-1.799.558-1.209 11.841c-.031.217-.218.403-.435.403l-19.573.93zm-17.991-42.25l18.984 28.642c.062.093.093.186.062.279l-.589 12.368 18.642-.899 1.21-11.748a.528.528 0 01.31-.403l2.078-.651a13.079 13.079 0 007.848-6.727c1.613-3.254 1.83-6.912.589-10.291l-4.404-12.244v-.031l-2.823-10.788c-.558-2.107-1.892-3.843-3.815-4.897-1.924-1.054-4.095-1.271-6.173-.62l-17.371 5.486-14.548 12.524z" fill="#000"/><path d="M122.522 196.993c-.993 1.178-4.157 4.619-8.282 4.433-1.799-.093-3.164-.837-5.583-2.17a35.901 35.901 0 01-6.639-4.805 15.933 15.933 0 01-5.397-7.067c-1.458-3.813-1.054-7.13-.775-8.525l.03-.155a21.55 21.55 0 0111.788-14.507c7.041-3.286 14.083-6.54 21.124-9.826 2.916-1.364 6.235-1.674 9.305-.713 1.334.434 2.73 1.085 4.033 2.17 2.668 2.201 3.35 4.959 3.722 6.199l-21.093 8.37v4.03c-3.195 2.169-6.421 4.339-9.616 6.509a1445.27 1445.27 0 017.383 16.057z" fill="#3FD1FF"/><path d="M114.584 201.89h-.341c-1.954-.093-3.474-.93-5.801-2.232a34.468 34.468 0 01-6.7-4.835c-1.737-1.302-4.125-3.596-5.521-7.254-1.365-3.534-1.179-6.726-.806-8.803l.03-.155c1.583-6.541 5.956-11.935 12.067-14.817l21.124-9.827c3.102-1.426 6.514-1.705 9.647-.744 1.551.496 2.978 1.24 4.218 2.263 2.637 2.17 3.443 4.929 3.816 6.231l.062.186a.482.482 0 01-.28.558l-20.813 8.245v3.72c0 .155-.062.31-.217.372l-9.275 6.293 7.165 15.685a.485.485 0 01-.062.496c-1.458 1.766-4.466 4.618-8.313 4.618zm19.883-48.326c-1.83 0-3.691.403-5.428 1.209l-21.124 9.827c-5.831 2.758-10.05 7.904-11.539 14.197l-.03.155c-.342 1.922-.528 4.928.775 8.276a15.288 15.288 0 005.211 6.851l.031.031a35.163 35.163 0 006.545 4.742c2.45 1.364 3.722 2.046 5.366 2.108 3.443.155 6.235-2.356 7.693-4.029l-7.228-15.778a.476.476 0 01.155-.589l9.399-6.386v-3.782c0-.186.124-.372.279-.434l20.69-8.214c-.403-1.364-1.148-3.658-3.443-5.58a11.445 11.445 0 00-3.878-2.077 11.782 11.782 0 00-3.474-.527z" fill="#000"/><path d="M120.322 177.278c-1.675 1.085-3.071 2.046-4.746 3.131-2.667 1.705-4.156 4.805-3.691 7.936a8.067 8.067 0 002.544 4.742l1.582 1.457c2.978 2.697 7.475 2.79 10.546.248.962-.775 1.892-1.55 2.854-2.356" fill="#F9D84E"/><path d="M121.467 197.055a8.53 8.53 0 01-5.738-2.201l-1.582-1.457a8.564 8.564 0 01-2.699-4.99c-.496-3.255 1.024-6.541 3.909-8.401.837-.527 1.613-1.054 2.357-1.55.776-.496 1.551-1.023 2.389-1.55.217-.155.496-.093.651.124a.522.522 0 01-.124.651c-.838.527-1.613 1.054-2.357 1.55-.776.496-1.551 1.023-2.389 1.55-2.575 1.643-3.939 4.588-3.474 7.471.279 1.736 1.086 3.285 2.388 4.463l1.582 1.457c2.792 2.511 7.042 2.635 9.957.248l2.854-2.356a.482.482 0 01.652.062.48.48 0 01-.062.651l-2.854 2.356c-1.613 1.271-3.536 1.922-5.46 1.922z" fill="#000"/><path d="M148.703 174.736c1.954-1.147 3.877-2.294 5.832-3.44a2.586 2.586 0 013.66 1.177c.496 1.178.093 2.542-.993 3.193-2.264 1.457-4.559 2.945-6.824 4.402" fill="#F9D84E"/><path d="M150.349 180.564a.452.452 0 01-.404-.217.522.522 0 01.124-.651l6.825-4.402a2.125 2.125 0 00.837-2.635 2.16 2.16 0 00-1.272-1.178 2.058 2.058 0 00-1.706.186l-5.831 3.441a.497.497 0 01-.652-.155.496.496 0 01.155-.651l5.832-3.44a3.148 3.148 0 012.481-.279 2.97 2.97 0 011.831 1.673c.589 1.364.093 3.007-1.179 3.782l-6.824 4.402c-.031.093-.124.124-.217.124z" fill="#000"/><path d="M142.965 206.231l-16.719-.093 16.719.093z" fill="#fff"/><path d="M142.966 206.696l-16.719-.093a.477.477 0 01-.466-.465c0-.248.217-.465.466-.465l16.719.093c.248 0 .465.217.465.465a.477.477 0 01-.465.465z" fill="#000"/><path d="M86.79 236.05l-13.493 75.419h23.14c-2.637-25.109-5.273-50.248-7.91-75.357-.093-1.023-1.55-1.085-1.737-.062z" fill="#F15922"/><path d="M96.469 311.934h-23.14a.573.573 0 01-.373-.155.407.407 0 01-.093-.372l13.493-75.419c.125-.681.683-1.146 1.365-1.115.683.031 1.21.526 1.303 1.208l7.91 75.357a.595.595 0 01-.124.372.65.65 0 01-.341.124zm-22.582-.93h22.085l-7.878-74.83c-.031-.341-.31-.372-.404-.372-.093 0-.372 0-.434.341l-13.37 74.861z" fill="#000"/><path d="M294.709 214.29l11.849-19.591 15.324-6.354a9.02 9.02 0 004.684-4.402l5.645-11.624c2.171-4.495.434-11.253-4.063-13.422l-7.476-3.596c-2.606-1.271-5.863 1.178-7.103 3.75-1.272 2.604-.155 5.735 2.419 6.975l4.715 2.263-1.737 3.596c-1.892 3.905-6.607 5.548-10.546 3.658l-21.559-10.416a6.388 6.388 0 01-2.977-8.555l3.008-6.2 2.575 1.24c2.823 1.364 6.235.186 7.631-2.635 1.365-2.821.186-6.231-2.637-7.625l-4.281-2.077c-5.8-2.79-12.748-.372-15.54 5.393l-3.412 7.068-17.153-25.388c-1.923-2.572-6.669-2.541-9.399-.836l1.21-.682c-2.947 1.859-4.963 6.478-3.009 9.361l13.4 19.56-18.363-15.747c-2.327-1.736-5.615-1.271-7.352 1.054l-1.085 2.077c-1.644 2.2-1.272 5.3.806 7.098l33.066 27.093a5.881 5.881 0 011.706 6.478l-5.273 14.321" fill="#F9D84E"/><path d="M294.709 214.755c-.093 0-.155-.031-.248-.062-.217-.124-.279-.434-.155-.651l11.849-19.591a.417.417 0 01.217-.186l15.324-6.355c1.954-.805 3.505-2.293 4.436-4.184l5.614-11.625c2.171-4.463.248-10.818-3.846-12.802l-7.476-3.596c-2.388-1.146-5.397 1.271-6.483 3.534a4.759 4.759 0 00-.217 3.627c.403 1.209 1.272 2.17 2.419 2.728l4.715 2.263c.217.124.341.403.217.62l-1.737 3.595a8.356 8.356 0 01-11.166 3.875l-21.559-10.415c-3.412-1.643-4.839-5.766-3.195-9.176l3.009-6.199c.062-.124.155-.186.279-.248.125-.031.249-.031.342.031l2.574 1.24c2.606 1.271 5.739.155 6.979-2.418 1.241-2.573.156-5.735-2.419-6.975l-4.281-2.077c-5.552-2.696-12.252-.341-14.92 5.177l-3.411 7.068a.403.403 0 01-.372.248c-.155 0-.342-.062-.435-.217l-17.153-25.388c-1.551-2.108-5.335-2.294-7.941-1.147-1.489 1.085-2.668 2.914-3.04 4.774-.217.992-.279 2.418.559 3.658l13.4 19.56a.514.514 0 01-.062.62.473.473 0 01-.621 0l-18.363-15.747a4.756 4.756 0 00-3.536-.899 4.89 4.89 0 00-3.133 1.828l-1.055 2.015c0 .031-.031.031-.031.062-1.489 2.015-1.178 4.836.745 6.448l33.035 27.061a6.307 6.307 0 011.83 7.006l-5.273 14.321c-.093.248-.341.372-.59.279-.248-.093-.372-.341-.279-.589l5.274-14.321a5.359 5.359 0 00-1.582-5.952l-33.036-27.061c-2.264-1.922-2.667-5.301-.899-7.688l1.055-2.015c0-.031.031-.031.031-.062.899-1.239 2.233-2.014 3.753-2.231a5.651 5.651 0 014.249 1.085l15.696 13.453-11.384-16.615c-.806-1.178-1.055-2.697-.713-4.371.341-1.643 1.24-3.286 2.45-4.495-.031-.186.062-.341.217-.465.124-.093.279-.155.434-.248l.776-.465a.518.518 0 01.372-.031c2.916-1.023 6.7-.62 8.437 1.705l16.72 24.737 3.07-6.324c2.916-6.014 10.174-8.524 16.161-5.611l4.28 2.077a6.164 6.164 0 012.854 8.246c-1.489 3.069-5.18 4.34-8.251 2.852l-2.14-1.023-2.792 5.765c-1.427 2.945-.186 6.51 2.761 7.936l21.558 10.415c1.799.868 3.815.992 5.676.341a7.4 7.4 0 004.25-3.782l1.52-3.161-4.281-2.077c-1.365-.651-2.388-1.829-2.885-3.255a5.695 5.695 0 01.249-4.34c1.426-2.945 4.963-5.331 7.723-3.967l7.476 3.595c2.233 1.085 3.97 3.317 4.777 6.138.806 2.728.62 5.611-.497 7.904L327 184.16a9.5 9.5 0 01-4.932 4.649l-15.168 6.293-11.787 19.467a.502.502 0 01-.404.186z" fill="#000"/><path d="M263.595 166.212a.53.53 0 01-.403-.217l-7.383-11.997a.496.496 0 01.155-.651.497.497 0 01.652.155l7.382 11.997a.496.496 0 01-.155.651.958.958 0 01-.248.062z" fill="#000"/><path d="M119.856 217.545c-.124-1.333-.217-2.666-.341-3.999-.155-1.829 1.334-3.379 3.164-3.317l27.421.992c2.481.093 3.412 3.286 1.365 4.681-.528.372-1.055.713-1.551 1.085" fill="#F15922"/><path d="M119.856 218.01c-.248 0-.434-.186-.466-.434l-.341-3.999a3.537 3.537 0 01.962-2.728c.682-.744 1.675-1.116 2.667-1.085l27.421.992c1.334.062 2.451.899 2.823 2.17.372 1.271-.093 2.604-1.179 3.348l-1.551 1.085c-.217.155-.496.093-.651-.124-.155-.217-.093-.496.124-.651l1.551-1.085c.93-.651 1.024-1.612.837-2.325-.217-.713-.837-1.488-1.954-1.519l-27.421-.992c-.744-.031-1.457.279-1.985.806-.527.527-.775 1.271-.713 2.015l.341 3.999a.44.44 0 01-.434.496c0 .031-.031.031-.031.031z" fill="#000"/><path d="M259.998 190.7a53.793 53.793 0 00-10.515 10.199c-6.204 7.935-8.81 15.933-9.988 20.892a58.401 58.401 0 00-10.919 12.338c-4.436 6.757-6.638 13.143-7.755 17.575-2.109-4.618-5.8-11.221-12.19-17.575-9.895-9.858-20.814-13.733-26.459-15.283l-9.213-1.487a77.892 77.892 0 00-12.904-.992c-15.571.124-31.112.248-46.683.341-1.768-.248-4.374-.465-7.445 0-5.924.868-9.864 3.595-10.919 4.37-1.116.806-3.66 2.821-6.265 6.789-5.398 8.245-5.987 17.204-6.266 22.567-.528 9.95 1.334 18.629 3.63 25.325-1.21 3.503-2.73 9.268-2.358 16.46.465 9.02 3.69 15.747 5.645 19.219 14.486.062 28.941.062 43.427.155 14.485.093 28.94.217 43.426.155 1.737-10.137 3.474-20.924 5.242-31.06 1.768 4.556 4.653 10.539 9.492 16.615 8.065 10.105 17.433 15.406 23.078 18.01.186-.062.31-.093.496-.186.063-.124.125-.217.187-.341 2.109.961 12.934 5.548 24.939.775 16.44-6.541 19.573-24.489 19.728-25.419a70.296 70.296 0 0013.307-17.576 71.069 71.069 0 007.6-23.279c4.032-5.704 8.561-13.144 12.345-22.319 2.575-6.2 4.312-11.996 5.553-17.08a14688.584 14688.584 0 01-38.216-19.188z" fill="#F15922"/><path d="M228.453 318.226c-5.987 0-10.857-1.674-13.462-2.79a.364.364 0 01-.218.155l-.496.186c-.124.031-.248.031-.341-.031-9.089-4.215-17.154-10.477-23.264-18.164-3.661-4.619-6.7-9.703-8.965-15.221-.775 4.588-1.582 9.3-2.326 13.919-.869 5.145-1.737 10.477-2.606 15.53-.031.217-.217.372-.465.372-14.455.062-29.127-.062-43.334-.155h-.093c-9.646-.062-19.448-.093-28.909-.124-4.84 0-9.678-.031-14.517-.031a.484.484 0 01-.403-.248c-3.381-5.952-5.367-12.648-5.708-19.405a43.854 43.854 0 012.327-16.491c-2.823-8.339-4.033-16.863-3.599-25.357.249-4.99.745-14.29 6.328-22.814 1.892-2.883 4.033-5.208 6.39-6.913 1.8-1.302 5.677-3.658 11.136-4.432a25.597 25.597 0 017.538 0l46.652-.341c4.343-.031 8.685.31 12.966.991l9.213 1.488h.062c7.072 1.953 17.432 6.231 26.645 15.406a60.192 60.192 0 0111.756 16.553c1.644-5.858 4.157-11.407 7.507-16.46a59.03 59.03 0 0110.887-12.337c1.861-7.718 5.211-14.786 10.019-20.924a54.73 54.73 0 0110.609-10.291c.155-.093.341-.124.496-.031l38.247 19.219c.186.093.279.31.248.527a114.27 114.27 0 01-5.553 17.173 115.331 115.331 0 01-12.345 22.318 71.053 71.053 0 01-7.631 23.311 70.53 70.53 0 01-13.276 17.576c-.341 1.953-3.784 19.157-19.976 25.604-4.126 1.643-8.003 2.232-11.539 2.232zm-13.649-3.875a.4.4 0 01.187.032c2.915 1.301 13.307 5.238 24.567.774 16.316-6.509 19.324-24.302 19.417-25.046a.623.623 0 01.124-.248c5.305-5.115 9.771-10.973 13.215-17.452a69.869 69.869 0 007.537-23.124c0-.062.031-.156.093-.218a114.47 114.47 0 0012.315-22.225 112.626 112.626 0 005.428-16.677l-37.657-18.94a52.645 52.645 0 00-10.205 9.95c-4.746 6.076-8.065 13.051-9.895 20.707-.031.093-.062.186-.155.248-4.188 3.565-7.817 7.688-10.857 12.244a57.708 57.708 0 00-7.693 17.421c-.062.186-.217.341-.403.341-.186.031-.372-.093-.465-.279-2.978-6.54-7.041-12.43-12.098-17.421-9.057-9.02-19.262-13.236-26.211-15.158l-9.181-1.488a77.036 77.036 0 00-12.811-.992l-46.684.341h-.062a23.943 23.943 0 00-7.289 0c-5.273.775-8.965 3.007-10.701 4.278-2.265 1.643-4.312 3.875-6.142 6.665-5.46 8.307-5.925 17.452-6.173 22.349-.434 8.432.775 16.894 3.598 25.14a.528.528 0 010 .31 42.827 42.827 0 00-2.326 16.274c.34 6.54 2.233 13.019 5.46 18.754 4.745.031 9.49.031 14.237.031 9.492.031 19.294.031 28.909.124h.093c14.083.093 28.631.217 42.962.155a7802.01 7802.01 0 002.543-15.158c.869-5.146 1.737-10.447 2.606-15.53a.428.428 0 01.403-.372.41.41 0 01.465.31 62.574 62.574 0 009.43 16.491c5.987 7.501 13.866 13.67 22.737 17.792l.155-.061.093-.155a.697.697 0 01.434-.187z" fill="#000"/><path d="M304.914 164.227c5.481 0 9.926-4.442 9.926-9.919s-4.445-9.919-9.926-9.919-9.926 4.442-9.926 9.919 4.445 9.919 9.926 9.919z" fill="#FF6EC1"/><path d="M304.915 164.693c-5.739 0-10.392-4.65-10.392-10.385 0-5.734 4.653-10.384 10.392-10.384 5.738 0 10.391 4.65 10.391 10.384 0 5.735-4.653 10.385-10.391 10.385zm0-19.839c-5.211 0-9.461 4.247-9.461 9.454 0 5.208 4.25 9.455 9.461 9.455s9.461-4.247 9.461-9.455c0-5.207-4.25-9.454-9.461-9.454zm-158.927 31.829a1.367 1.367 0 00-1.219-1.498 1.366 1.366 0 101.219 1.498zm6.839 7.818c-1.086.558-2.234.837-3.443.899-1.955.093-3.506-.558-4.467-1.085a.437.437 0 00-.621.186.436.436 0 00.187.62 9.37 9.37 0 004.59 1.209h.373a9.675 9.675 0 003.815-.992.505.505 0 00.217-.62c-.155-.248-.434-.341-.651-.217zm-34.431 1.456a.457.457 0 00-.651-.093.457.457 0 00-.093.651l4.373 5.642a.442.442 0 00.373.186.5.5 0 00.279-.093.457.457 0 00.093-.651l-4.374-5.642zm24.228 24.738c.124-1.674.217-3.348.341-5.022l-3.35.217c-4.466.062-8.902.155-13.369.217 4.126.961 8.22 1.922 12.346 2.852.341.527.682 1.085 1.023 1.612 1.024.031 2.016.124 3.009.124zm-17.961-40.733l-12.408 4.371c-.248.093-.372.341-.279.589.062.186.248.31.434.31.063 0 .094 0 .156-.031l12.407-4.371c.248-.093.372-.341.279-.589a.504.504 0 00-.589-.279zm96.285 81.309a.444.444 0 00-.528.217l-6.948 12.337a.436.436 0 00.186.62c.248.124.497.062.621-.186l5.986-10.632-.682 14.197c0 .248.186.465.434.496h.031c.248 0 .466-.186.466-.434l.775-16.15a.504.504 0 00-.341-.465zm-51.37 8.276c-.124-.217-.403-.279-.651-.155-.217.124-.279.403-.155.651l7.165 12.121c.279 4.463.124 11.283-2.481 18.97-3.599 10.602-9.958 17.328-13.308 20.428 5.398.062 10.764.124 16.161.217 1.706-10.198 3.443-20.428 5.149-30.626h.063c.093 0 .155-.031.248-.062.217-.124.279-.403.155-.651l-12.346-20.893zM86.57 275.604c-.093-.248-.372-.372-.59-.248-.248.093-.372.372-.248.589l3.97 10.137c.063.186.249.31.435.31.062 0 .124 0 .155-.031.248-.093.372-.372.248-.589l-3.97-10.168zm153.081-54.247c-.248-.093-.496.031-.589.279l-4.281 12.337c-.093.248.031.496.279.589a.28.28 0 00.155.031.466.466 0 00.434-.31l4.281-12.337c.093-.217-.031-.496-.279-.589zm42.186 11.873a.44.44 0 00-.497.434l-1.426 15.685a.44.44 0 00.434.496h.031c.248 0 .434-.186.465-.434l1.427-15.685c0-.248-.186-.496-.434-.496zm-21.403 41.786a.501.501 0 00-.497.434l-.961 14.724c-.031.248.186.465.434.496h.031c.248 0 .434-.186.465-.434l.962-14.724a.441.441 0 00-.434-.496z" fill="#000"/></g><defs><clipPath id="clip0"><path fill="#fff" d="M0 0h433v353H0z"/></clipPath></defs></svg>