<svg width="597" height="811" fill="none" xmlns="http://www.w3.org/2000/svg"><path d="M296.438 301.967c-7.636-.458-20.516-3.054-34.363-3.36-22.094-.458-31.563.255-45.359 0-20.465-.407-22.145-2.342-41.847-3.36-17.36-.865-28.356-.254-47.956.56-18.123.764-44.748 1.68-78.806 2.291a353.728 353.728 0 0049.229 20.822 357.983 357.983 0 0063.126 14.967c15.425 7.28 32.989 14.56 52.537 21.178a485.38 485.38 0 0069.541 17.716 517.06 517.06 0 00-43.628 48.006 523.653 523.653 0 00-42.916 62.312c-25.709 22.909-43.221 44.087-54.268 58.952-18.073 24.233-19.6 32.327-41.643 62.007-17.666 23.774-24.233 28.712-45.36 54.624-13.287 16.291-31.92 40.269-52.64 71.527 23.826-12.015 49.739-26.676 76.669-44.647a753.781 753.781 0 0055.49-40.829c26.014-12.269 54.116-27.134 83.388-45.257 40.676-25.149 75.039-51.316 103.497-75.65-.713 36.349-4.175 65.366-7.229 85.119-3.615 23.52-6.618 33.701-9.214 55.286-3.971 32.734-3.259 59.665-2.037 77.178 26.727-38.538 41.032-71.832 49.229-95.657 5.396-15.68 8.807-29.222 18.123-53.454 10.793-28.153 21.687-50.45 29.374-65.061 14.458 24.334 37.621 61.09 70.05 103.7 16.647 21.891 25.251 31.614 38.894 49.076 21.891 28.101 52.029 70.304 83.643 128.035-36.349-106.755-72.748-213.51-109.097-320.265l282.745 50.043-237.284-103.802L887.23 211.248 517.839 324.774l13.694-232.346c-29.221 46.581-46.734 81.046-57.424 104.464-2.902 6.313-8.502 18.785-17.156 36.4a1154.172 1154.172 0 01-32.429 61.293c-27.491-42.814-57.73-86.951-91.126-131.903-16.698-22.502-33.447-44.189-50.043-65.061-5.447-10.538-11.862-21.636-19.345-33.09-14.56-22.197-29.833-40.473-43.934-55.236 6.821 33.345 14.61 67.86 23.57 103.344a2345.494 2345.494 0 0021.28 78.653 417.847 417.847 0 0010.182 50.909c5.752 21.992 14.305 43.323 21.33 59.766z" fill="#F15922"/><path d="M591.301 808.404C566 762.23 537.898 719.212 507.71 680.471c-5.6-7.178-10.233-12.931-15.171-18.989-6.822-8.451-13.898-17.156-23.723-30.087-25.2-33.141-48.567-67.708-69.389-102.631a609.628 609.628 0 00-28.712 63.788c-6.109 15.884-9.723 27.338-12.88 37.469-1.731 5.447-3.309 10.538-5.192 15.934-11.2 32.531-27.796 64.756-49.331 95.861l-1.222 1.782-.152-2.19c-1.782-25.606-1.069-51.621 2.036-77.329 1.527-12.422 3.156-21.28 4.938-30.647 1.375-7.229 2.749-14.662 4.327-24.691 4.175-26.93 6.568-54.981 7.229-83.337-32.072 27.338-66.486 52.436-102.275 74.632a828.384 828.384 0 01-83.388 45.257 746.34 746.34 0 01-55.439 40.829 739.092 739.092 0 01-76.77 44.697L0 732.092l1.578-2.392c16.596-24.997 34.312-49.076 52.69-71.578 8.706-10.64 14.967-17.767 20.466-24.079 8.094-9.215 14.508-16.546 24.894-30.495 11.505-15.527 17.36-25.046 23.061-34.21 5.142-8.349 9.978-16.189 18.633-27.796 15.578-20.923 33.854-40.778 54.319-59.003a521.774 521.774 0 0142.916-62.26 525.176 525.176 0 0142.661-47.04c-23.061-4.174-46.021-10.029-68.217-17.512-17.818-6.007-35.534-13.084-52.538-21.127a358.695 358.695 0 01-63.177-14.967c-16.902-5.702-33.447-12.676-49.33-20.873l-2.698-1.374 3.003-.051c27.236-.509 53.759-1.273 78.806-2.291 1.935-.102 3.768-.153 5.498-.255 16.138-.661 26.829-1.12 42.458-.356 8.909.458 14.051 1.069 19.091 1.731 5.956.713 11.556 1.425 22.756 1.629 6.007.102 11.098.051 17.003-.051 7.433-.102 15.935-.203 28.356.051 8.756.153 17.156 1.273 23.978 2.189 3.513.458 6.618.866 9.214 1.069-6.261-14.712-15.018-36.399-20.974-58.748-4.429-16.698-7.84-33.854-10.181-50.959-7.535-25.964-14.662-52.436-21.28-78.654A2317.468 2317.468 0 01219.415 9.295l-.509-2.596 1.833 1.934a386.295 386.295 0 0144.036 55.338 376.952 376.952 0 0119.345 33.09c17.003 21.28 33.803 43.171 50.043 65.01a2381.624 2381.624 0 0190.464 130.886c11.047-19.447 21.738-39.709 31.767-60.123 7.534-15.273 12.727-26.727 15.832-33.549.459-1.018.917-1.985 1.273-2.8 14.56-31.766 33.854-66.944 57.476-104.515l1.578-2.545-13.796 234.23 374.024-114.901-362.825 225.117 241.815 105.787-287.785-50.908 108.69 319.043-1.375.611zM399.326 525.659l.712 1.171c21.025 35.279 44.545 70.151 69.999 103.649 9.775 12.88 16.851 21.636 23.724 30.036 4.938 6.058 9.57 11.811 15.17 18.989 28.56 36.654 55.338 77.228 79.57 120.602L481.746 486.765l277.706 49.126-232.754-101.816 1.222-.764 353.915-219.67-364.86 112.101 13.592-230.463c-22.857 36.604-41.592 70.865-55.795 101.817-.357.815-.815 1.731-1.273 2.8a1070.661 1070.661 0 01-15.883 33.6c-10.284 20.872-21.178 41.49-32.48 61.293l-.611 1.12-.662-1.069c-28.763-44.799-59.41-89.14-91.075-131.852-16.24-21.84-33.039-43.731-50.043-65.01l-.102-.102c-5.854-11.302-12.37-22.4-19.294-32.989-12.32-18.836-26.472-36.705-41.999-53.2a2420.47 2420.47 0 0023.01 100.698c6.618 26.218 13.746 52.69 21.28 78.653v.102c2.342 17.054 5.753 34.16 10.182 50.807 6.058 22.857 15.12 45.003 21.381 59.715l.509 1.12-1.221-.051c-2.851-.153-6.415-.662-10.538-1.171-6.771-.865-15.171-1.985-23.826-2.189-12.421-.254-20.872-.152-28.305-.051-5.905.102-10.996.153-17.054.051-11.302-.203-16.953-.916-22.909-1.629-4.989-.611-10.131-1.273-18.938-1.68-15.629-.814-26.268-.356-42.356.357-1.781.05-3.614.152-5.498.254-24.13 1.018-49.584 1.731-75.802 2.24a358.228 358.228 0 0046.377 19.396 351.284 351.284 0 0063.025 14.916h.102l.102.051c17.003 8.044 34.668 15.12 52.486 21.127a486.964 486.964 0 0069.439 17.716l1.477.255-1.07 1.018c-15.476 15.018-30.137 31.105-43.577 47.905a514.585 514.585 0 00-42.814 62.209l-.051.102-.102.102c-20.414 18.174-38.639 37.978-54.166 58.85-8.604 11.505-13.44 19.396-18.531 27.694-5.702 9.215-11.556 18.786-23.112 34.313-10.437 13.999-16.851 21.33-24.946 30.596-5.498 6.312-11.76 13.439-20.414 24.028-17.767 21.738-34.872 44.952-50.96 69.032A731.89 731.89 0 0078.553 684.9c19.04-12.676 37.672-26.37 55.388-40.778l.153-.101c28.508-13.44 56.508-28.662 83.286-45.207a833.82 833.82 0 00103.395-75.599l1.273-1.12-.051 1.68c-.56 29.018-3.004 57.73-7.28 85.221-1.527 10.029-2.953 17.512-4.327 24.69-1.833 9.775-3.411 18.175-4.939 30.545-3.003 24.894-3.767 50.043-2.189 74.836 20.873-30.444 36.96-61.956 47.905-93.672 1.833-5.396 3.462-10.487 5.193-15.934 3.207-10.131 6.822-21.636 12.931-37.571 8.552-22.297 18.428-44.239 29.425-65.162l.611-1.069z" fill="#000"/><path d="M73.46 58.32l-.763 40.472-38.13 6.211c13.592 1.273 27.134 2.545 40.726 3.818l-23.978 59.257c13.695-18.988 27.44-37.926 41.134-56.915l21.535 16.8-12.829-26.066 13.643-41.235L88.733 96.45 73.46 58.32z" fill="#F9D84E"/><path d="M51.266 168.842a.943.943 0 01-.356-.102c-.356-.203-.458-.611-.356-.967l23.621-58.29-39.708-3.716a.812.812 0 01-.713-.713c0-.407.254-.713.662-.764l37.52-6.109.763-39.861c0-.356.254-.662.61-.713a.856.856 0 01.866.458l14.662 36.858 25.25-34.669c.204-.305.611-.407.968-.254a.69.69 0 01.356.916l-13.542 40.981 12.727 25.811a.778.778 0 01-.203.916c-.255.204-.662.204-.967 0l-20.873-16.29-40.625 56.203c-.152.203-.407.305-.662.305zM40.525 104.85l34.821 3.258c.255 0 .458.153.56.357.102.203.153.458.051.661l-21.636 53.403 37.469-51.773c.101-.153.305-.255.509-.306.203-.051.407.051.56.153l18.887 14.763-11.302-23.112a.736.736 0 01-.051-.56l12.116-36.603-23.214 31.868c-.153.204-.458.357-.713.306-.254-.051-.509-.204-.61-.458L74.174 62.189l-.712 36.705c0 .356-.255.662-.662.763l-32.276 5.193z" fill="#000"/><path d="M109.455 388.767c.56 9.01 1.12 17.97 1.68 26.981-8.553.611-17.157 1.222-25.71 1.833 9.47 2.647 18.939 5.243 28.408 7.891-4.277 11.199-8.604 22.348-12.88 33.548 6.872-9.621 13.796-19.243 20.669-28.865 8.349 1.884 16.749 3.818 25.097 5.702-6.007-5.804-12.065-11.607-18.072-17.411 4.429-9.112 8.858-18.174 13.236-27.287l-19.09 21.84c-4.379-8.044-8.859-16.138-13.338-24.232z" fill="#F9D84E"/><path d="M101 459.784a.946.946 0 01-.356-.102c-.356-.204-.509-.611-.356-.967l12.574-32.735-27.643-7.687c-.356-.102-.611-.458-.56-.814.05-.357.356-.662.713-.662l24.945-1.782-1.629-26.218c0-.356.203-.662.56-.763.356-.102.712.051.865.356l12.88 23.265 18.378-21.025c.254-.305.662-.356 1.018-.153.356.204.407.611.255.967l-13.033 26.778 17.665 17.055a.777.777 0 01.153.916c-.153.305-.509.458-.866.356l-24.588-5.6-20.364 28.458c-.101.255-.356.357-.611.357zm-11.098-41.745l24.182 6.72c.204.051.356.203.458.407a.85.85 0 01.051.611l-10.742 27.999 17.207-24.028a.844.844 0 01.815-.306l22.4 5.091-16.087-15.527c-.255-.255-.306-.611-.153-.865l10.792-22.197-15.374 17.564a.664.664 0 01-.662.254c-.254-.051-.458-.152-.611-.407l-11.76-21.28 1.477 23.571c.051.407-.306.764-.713.815l-21.28 1.578z" fill="#000"/><path d="M214.326 699.307l-.459 24.996-23.519 3.818 28.814.967-18.531 37.927 27.389-36.96 11.302 12.269-7.942-16.087 8.4-25.454-16.087 22.043-9.367-23.519z" fill="#F9D84E"/><path d="M200.629 767.778c-.152 0-.254-.051-.407-.101-.356-.204-.458-.611-.305-.968l17.97-36.857-27.643-.917a.696.696 0 01-.713-.712c0-.408.255-.764.662-.815l22.909-3.716.458-24.335c0-.356.255-.661.611-.712a.854.854 0 01.865.458l8.858 22.247 15.273-20.974c.204-.306.611-.408.967-.255.357.153.509.56.357.916l-8.298 25.149 7.788 15.782c.153.356.051.763-.254.967-.306.204-.713.153-1.018-.102l-10.64-11.556-26.829 36.247c-.102.153-.356.254-.611.254zm-2.494-40.166l21.025.712c.254 0 .509.153.611.357.102.203.153.509.051.712l-14.865 30.495 22.45-30.291c.153-.204.356-.305.56-.305.204 0 .458.101.611.254l7.687 8.349-5.6-11.352a.736.736 0 01-.051-.56l6.873-20.822-13.236 18.123c-.153.204-.458.357-.713.306-.254-.051-.509-.204-.611-.458l-7.942-20.007-.407 21.178c0 .356-.254.661-.662.763l-15.781 2.546z" fill="#000"/><path d="M526.494 176.173c-.662-2.648-1.324-5.346-1.986-7.993-6.771 4.633-17.207 12.982-26.269 26.421a99.416 99.416 0 00-14.814 35.076c-7.483 7.229-16.392 17.716-23.418 31.971a118.063 118.063 0 00-5.447 13.236 4832.056 4832.056 0 00-46.785-97.744c-11.149-22.603-19.141-32.683-30.392-37.978-15.833-7.432-37.316 28.713-52.385 36.909-16.24 8.858-23.519 22.858-25.861 28.05 12.88 133.431 39.912 217.634 60.326 267.219 15.018 36.449 23.367 46.733 29.12 45.766 14.407-2.444 12.778-80.028 10.385-116.478-1.934-29.476-4.48-41.796-7.534-57.985a283.435 283.435 0 0019.498 28.458c10.232 13.185 15.527 19.905 23.417 24.589 4.226 2.545 21.535 12.879 41.338 6.261 22.705-7.636 29.629-31.308 30.24-33.548l41.337-102.275 20.313-51.672c3.003-11.098-.102-22.96-8.146-30.953-8.603-8.349-21.381-11.25-32.937-7.33z" fill="#524FA0"/><path d="M387.719 518.073c-4.836 0-12.625-6.516-29.018-46.275-29.934-72.748-50.246-162.754-60.326-267.473v-.203l.102-.204c3.207-7.025 10.945-20.109 26.218-28.407 5.294-2.902 11.454-9.367 17.97-16.24 12.015-12.625 24.436-25.708 35.076-20.719 11.404 5.345 19.498 15.374 30.8 38.283a4746.56 4746.56 0 0146.021 96.064c1.425-3.92 3.055-7.84 4.887-11.556 5.804-11.811 13.644-22.604 23.367-32.022 2.647-12.625 7.687-24.436 14.865-35.127a98.345 98.345 0 0126.473-26.625l.916-.611 2.036 8.248c11.557-3.615 24.335-.56 32.836 7.89 8.248 8.197 11.455 20.364 8.349 31.716l-.051.102-20.312 51.672-41.338 102.275c-.814 2.851-7.941 26.32-30.748 34.007-9.164 3.105-23.927 4.48-41.949-6.313-8.145-4.887-13.643-11.912-23.621-24.792a287.4 287.4 0 01-17.36-24.945c2.698 14.152 4.989 26.981 6.771 53.963 1.222 18.836 2.138 47.395 1.069 71.068-1.375 29.934-5.346 45.053-12.116 46.224h-.917zm-87.817-313.697c10.08 104.464 30.342 194.267 60.225 266.811 12.982 31.512 22.247 46.326 28.305 45.308 3.309-.56 9.163-7.127 10.843-44.799 1.07-23.621.153-52.079-1.069-70.864-1.832-27.796-4.225-40.523-7.025-55.287l-1.273-6.822 2.189 3.666c5.855 9.723 12.371 19.294 19.447 28.356 10.589 13.643 15.629 19.854 23.164 24.385 17.563 10.487 31.817 9.163 40.676 6.16 22.145-7.433 29.017-30.392 29.73-32.989l.051-.102 41.338-102.275 20.261-51.621c2.902-10.792-.153-22.399-7.993-30.188-8.298-8.248-20.872-11.098-32.072-7.28l-.814.254-1.884-7.738c-9.927 6.924-18.378 15.578-25.2 25.607-7.127 10.589-12.065 22.298-14.712 34.821l-.051.255-.153.153c-9.672 9.316-17.512 20.007-23.265 31.767a99.417 99.417 0 00-5.396 13.185l-.611 1.833-.815-1.731c-15.119-32.582-30.901-65.469-46.784-97.744-11.098-22.553-18.989-32.378-30.036-37.622-9.622-4.531-22.196 8.706-33.295 20.364-6.618 6.974-12.828 13.541-18.377 16.545-14.662 8.145-22.197 20.72-25.404 27.592z" fill="#000"/><path d="M309.065 196.943c4.48 41.592 14.662 120.093 30.087 120.551 14.356.407 33.498-66.639 41.083-111.387.662-3.971 1.171-7.382 1.578-9.979 2.037-4.785-.254-12.218-2.087-18.53-4.531-15.731-23.978-21.789-41.338-17.411-24.334 6.109-32.937 33.905-33.497 35.687m-40.014-3.869a.771.771 0 01-.764-.662l-5.549-47.192c-.051-.407.255-.814.662-.865.407-.051.814.254.865.662l5.549 47.192c.051.407-.254.814-.661.865h-.102z" fill="#000"/><path d="M373.31 195.264l-10.385 13.491c-3.615 4.683-10.131 5.956-15.222 2.952-5.192-3.054-7.229-9.571-4.632-15.018l8.145-17.359-57.526 12.574 12.523 10.691c4.48 3.818 5.447 10.996 2.138 15.883-1.985 2.953-5.956 3.767-8.96 1.884l-25.708-15.782c-5.397-3.309-8.808-9.163-8.96-15.476l-.153-5.396-11.862-7.026a17.156 17.156 0 01-7.941-10.64l-.917-3.716a172.01 172.01 0 01-.152-.764c-1.528-7.585 3.359-14.967 10.843-16.901l80.232-20.516c7.483-1.426 23.978-3.462 42.916 3.462 5.04 1.832 9.519 4.021 13.388 6.363 9.622 5.702 12.372 18.378 5.957 27.592-7.891 11.2-15.782 22.451-23.724 33.702z" fill="#3FD1FF"/><path d="M302.905 222.092a7.402 7.402 0 01-3.92-1.12l-25.76-15.73c-5.651-3.462-9.164-9.469-9.316-16.138l-.102-4.939-11.505-6.77a18.101 18.101 0 01-8.298-11.098l-.917-3.768-.152-.763c-1.63-7.942 3.41-15.731 11.403-17.818l80.283-20.516c10.232-1.935 25.963-2.902 43.373 3.461a84.408 84.408 0 0113.542 6.415c4.786 2.851 8.196 7.585 9.367 12.982 1.171 5.498.051 11.047-3.156 15.679l-23.672 33.753v.051l-10.386 13.49c-3.818 4.989-10.792 6.313-16.189 3.106-5.549-3.309-7.687-10.182-4.938-16.036l7.484-15.986-54.472 11.913 11.352 9.723c4.786 4.073 5.804 11.658 2.291 16.851-1.629 2.138-3.92 3.258-6.312 3.258zm47.141-98.609c-5.804 0-10.946.611-15.12 1.425l-80.232 20.516c-7.229 1.833-11.76 8.909-10.283 16.036.051.255.102.458.153.713l.916 3.767c1.069 4.226 3.818 7.942 7.585 10.182l11.862 7.025c.204.153.356.357.356.662l.153 5.396c.153 6.109 3.36 11.658 8.604 14.866l25.759 15.73c2.698 1.629 6.16.917 7.942-1.68 3.054-4.531 2.138-11.301-2.036-14.865l-12.524-10.691c-.204-.203-.305-.509-.254-.763a.703.703 0 01.56-.56l57.526-12.575a.84.84 0 01.764.255c.203.203.203.56.101.814l-8.145 17.36c-2.393 5.142-.56 11.2 4.327 14.051a10.917 10.917 0 0014.204-2.749l10.385-13.491 23.673-33.752c3.003-4.276 4.021-9.418 2.952-14.458-1.069-5.091-4.174-9.367-8.654-12.015-4.226-2.494-8.655-4.632-13.287-6.312-9.826-3.666-19.193-4.887-27.287-4.887z" fill="#000"/><path d="M306.315 162.631c-9.621 2.393-19.243 4.785-28.916 7.178a17.198 17.198 0 00-12.829 13.796v.102" fill="#3FD1FF"/><path d="M264.569 184.471h-.153c-.407-.051-.713-.459-.611-.866v-.102a18.031 18.031 0 0113.389-14.407l28.916-7.178a.759.759 0 11.356 1.477l-28.916 7.178c-6.312 1.578-11.149 6.72-12.218 13.185v.102c-.051.356-.407.611-.763.611zm79.09 149.569l-33.127-3.332-2.915 28.974 33.128 3.332 2.914-28.974z" fill="#000"/><path d="M337.648 289.025l-12.207-1.228-1.687 16.766 12.208 1.228 1.686-16.766z" fill="#fff"/><path d="M335.946 306.549h-.102l-12.218-1.222a.63.63 0 01-.509-.254.574.574 0 01-.153-.56l1.68-16.749c0-.204.102-.408.255-.509a.574.574 0 01.56-.153l12.218 1.222c.407.051.713.407.662.814l-1.68 16.749c0 .356-.357.662-.713.662zm-11.403-2.647l10.69 1.069 1.528-15.222-10.691-1.069-1.527 15.222z" fill="#000"/><path d="M281.065 310.825l-8.96-3.665 41.847-99.984 8.909 3.716-41.796 99.933z" fill="#fff"/><path d="M281.065 311.589c-.101 0-.203 0-.305-.051l-8.96-3.716c-.204-.102-.356-.204-.407-.407a.648.648 0 010-.611l41.796-99.984c.152-.408.61-.56 1.018-.408l8.96 3.717c.203.101.356.203.407.407a.648.648 0 010 .611l-41.796 99.984c-.102.305-.407.458-.713.458zm-7.941-4.836l7.534 3.105 41.236-98.558-7.535-3.106-41.235 98.559z" fill="#000"/><path d="M377.077 322.89L327.34 213.692l8.807-4.022 49.738 109.148-8.808 4.072z" fill="#fff"/><path d="M377.079 323.654c-.101 0-.203 0-.254-.051a.55.55 0 01-.407-.407L326.68 213.997a.81.81 0 01.356-1.018l8.757-4.073a.654.654 0 01.611 0 .554.554 0 01.407.408l49.737 109.198a.81.81 0 01-.356 1.018l-8.756 4.073c-.102.051-.255.051-.357.051zM328.36 214.099l49.076 107.773 7.381-3.411-49.075-107.773-7.382 3.411zm5.445 217.973l-33.127-3.333-2.033 20.211 33.127 3.333 2.033-20.211z" fill="#000"/><path d="M350.758 296.724l-39.759-4.022c-4.735-.458-8.197-4.684-7.688-9.418l.051-.509 56.865 5.701-.051.509c-.509 4.735-4.734 8.197-9.418 7.739z" fill="#fff"/><path d="M351.624 297.538c-.305 0-.611 0-.967-.051l-39.76-4.022a9.325 9.325 0 01-6.312-3.41c-1.579-1.935-2.342-4.379-2.088-6.873l.051-.509c0-.204.102-.407.255-.509a.574.574 0 01.56-.153l56.864 5.702a.63.63 0 01.51.254.576.576 0 01.152.56l-.051.509a9.251 9.251 0 01-9.214 8.502zm-.815-1.578c4.226.407 7.993-2.596 8.553-6.771l-55.337-5.549c-.153 1.986.458 3.92 1.73 5.498a7.761 7.761 0 005.295 2.851l39.759 3.971z" fill="#000"/><path d="M353.813 366.061l-59.665-6.007.051-.459a7.982 7.982 0 018.706-7.127l43.832 4.429a7.98 7.98 0 017.127 8.706l-.051.458z" fill="#fff"/><path d="M353.815 366.825h-.102l-59.665-6.008a.625.625 0 01-.509-.254.574.574 0 01-.153-.56l.051-.458a8.848 8.848 0 013.157-5.855c1.781-1.476 4.072-2.138 6.363-1.934l43.832 4.429a8.843 8.843 0 015.855 3.156c1.476 1.782 2.138 4.073 1.934 6.364l-.051.458c0 .407-.305.662-.712.662zm-58.8-7.433l58.138 5.854a7.201 7.201 0 00-1.629-4.989 7.275 7.275 0 00-4.837-2.596l-43.832-4.429a7.017 7.017 0 00-5.243 1.578 7.252 7.252 0 00-2.597 4.582zm69.07-35.626l-71.523-7.195-1.402 13.93 71.523 7.195 1.402-13.93z" fill="#000"/><path d="M353.102 467.521l-78.501-7.891c-7.789-.764-14.916-4.836-19.65-11.098-4.684-6.262-6.568-14.254-5.091-21.942l15.374-81.758c2.342-12.575 9.316-23.724 19.549-31.36a50.944 50.944 0 0135.585-9.876l18.734 1.883a50.854 50.854 0 0132.887 16.749c8.502 9.52 13.084 21.789 12.931 34.567l-1.018 83.235c-.102 7.84-3.513 15.324-9.367 20.567-5.804 5.142-13.593 7.687-21.433 6.924zm-34.363-147.278c-17.767-1.782-33.651 10.08-36.909 27.643l-15.374 81.759c-.611 3.105.153 6.211 2.036 8.756 1.884 2.546 4.684 4.124 7.84 4.429l78.501 7.942c3.156.305 6.211-.662 8.553-2.8 2.392-2.138 3.716-5.04 3.716-8.196l1.018-83.235c.204-17.818-12.982-32.582-30.698-34.364l-18.683-1.934z" fill="#fff"/><path d="M355.902 468.387c-.967 0-1.884-.051-2.851-.153l-78.501-7.891a28.839 28.839 0 01-20.159-11.403c-4.837-6.415-6.72-14.662-5.244-22.553l15.374-81.759c2.393-12.778 9.419-24.08 19.855-31.818a51.342 51.342 0 0136.145-10.028l18.734 1.883c12.88 1.272 24.742 7.331 33.396 17.004 8.654 9.672 13.287 22.094 13.134 35.075l-1.018 83.236c-.102 8.043-3.614 15.73-9.622 21.127-5.345 4.683-12.218 7.28-19.243 7.28zm-40.625-164.333c-10.792 0-21.28 3.462-30.036 9.978-10.08 7.535-16.901 18.531-19.243 30.902l-15.374 81.759c-1.426 7.483.407 15.272 4.938 21.381a27.295 27.295 0 0019.09 10.793l78.552 7.891c7.585.763 15.222-1.731 20.872-6.771a27.345 27.345 0 009.113-20.007l1.018-83.236c.153-12.574-4.378-24.639-12.727-34.057-8.349-9.418-19.854-15.222-32.378-16.495l-18.734-1.883c-1.731-.204-3.411-.255-5.091-.255zm40.676 147.533c-.407 0-.815-.001-1.222-.052l-78.501-7.89c-3.36-.357-6.363-2.036-8.349-4.734-2.036-2.699-2.799-6.058-2.189-9.368l15.375-81.758c3.36-17.92 19.599-30.087 37.774-28.255l18.734 1.884c18.123 1.833 31.614 16.902 31.36 35.127l-1.019 83.235c-.05 3.411-1.476 6.516-3.97 8.756-2.291 1.986-5.04 3.055-7.993 3.055zm-40.727-130.733c-15.934 0-29.628 11.2-32.632 27.185l-15.374 81.759c-.56 2.902.152 5.804 1.883 8.196 1.782 2.342 4.378 3.818 7.28 4.123l78.501 7.891c2.953.306 5.803-.61 7.993-2.596 2.189-1.985 3.461-4.683 3.461-7.636l1.018-83.235c.204-17.411-12.676-31.818-29.985-33.6l-18.734-1.883c-1.12-.153-2.291-.204-3.411-.204z" fill="#000"/><path d="M319.095 430.256l-3.717-.356c-17.207-1.731-29.73-17.055-27.999-34.262l.509-5.091c1.731-17.207 17.054-29.73 34.261-27.999l3.716.356c17.207 1.731 29.731 17.054 28 34.262l-.509 5.09c-1.731 17.207-17.054 29.731-34.261 28z" fill="#F9D84E"/><path d="M322.301 431.172a34.86 34.86 0 01-3.259-.153l-3.716-.356c-17.563-1.782-30.443-17.513-28.661-35.076l.509-5.091c.865-8.501 4.989-16.189 11.607-21.585 6.618-5.396 14.967-7.942 23.469-7.076l3.716.356c17.563 1.782 30.443 17.513 28.661 35.076l-.509 5.091c-.865 8.502-4.989 16.189-11.607 21.585-5.803 4.735-12.88 7.229-20.21 7.229zm-3.309-68.014c-7.026 0-13.746 2.393-19.244 6.873-6.312 5.142-10.232 12.473-11.047 20.567l-.509 5.091c-1.68 16.749 10.538 31.716 27.287 33.396l3.716.356c8.095.815 16.036-1.578 22.349-6.72 6.313-5.142 10.233-12.472 11.047-20.567l.509-5.091c1.68-16.748-10.538-31.716-27.287-33.396l-3.716-.356a31.64 31.64 0 00-3.105-.153z" fill="#000"/><path d="M273.022 306.498c-4.836-.509-9.112 3.004-9.621 7.84-.509 4.836 3.003 9.113 7.84 9.622 4.836.509 9.112-3.004 9.621-7.84.509-4.837-3.003-9.113-7.84-9.622zm-1.323 13.287c-2.495-.254-4.328-2.494-4.073-4.989.255-2.494 2.495-4.327 4.989-4.073 2.495.255 4.327 2.495 4.073 4.989-.255 2.495-2.495 4.328-4.989 4.073z" fill="#524FA0"/><path d="M272.156 324.774c-.305 0-.662 0-.967-.051a9.468 9.468 0 01-8.502-10.436c.255-2.545 1.477-4.836 3.462-6.414 1.986-1.629 4.429-2.342 6.975-2.088 2.545.255 4.836 1.477 6.414 3.462 1.629 1.986 2.342 4.429 2.087 6.975-.254 2.545-1.476 4.836-3.462 6.414a9.516 9.516 0 01-6.007 2.138zm0-17.563a7.918 7.918 0 00-5.04 1.782c-1.68 1.374-2.698 3.258-2.901 5.396-.459 4.378 2.749 8.298 7.178 8.756 2.138.204 4.225-.407 5.854-1.782 1.68-1.374 2.698-3.258 2.902-5.396.204-2.138-.407-4.225-1.782-5.854-1.374-1.629-3.258-2.698-5.396-2.902-.306.051-.56 0-.815 0zm0 13.338c-.203 0-.356 0-.56-.051-2.901-.305-5.04-2.902-4.785-5.804.153-1.425.814-2.698 1.934-3.563a5.223 5.223 0 013.92-1.171c1.426.153 2.699.814 3.564 1.934.865 1.12 1.324 2.495 1.171 3.92-.153 1.426-.815 2.699-1.935 3.564-.916.764-2.087 1.171-3.309 1.171zm-.356-1.527c1.018.101 1.985-.204 2.8-.815.764-.662 1.273-1.527 1.374-2.545.102-1.018-.203-1.986-.814-2.8-.662-.764-1.527-1.273-2.546-1.375-1.018-.102-1.985.204-2.799.815-.815.611-1.273 1.527-1.375 2.545-.255 2.087 1.273 3.971 3.36 4.175z" fill="#000"/><path d="M385.378 317.8c-4.837-.509-9.113 3.003-9.622 7.84-.509 4.836 3.004 9.112 7.84 9.621 4.836.509 9.113-3.003 9.622-7.84.458-4.836-3.055-9.112-7.84-9.621zm-1.375 13.287c-2.494-.255-4.327-2.495-4.072-4.989.254-2.495 2.494-4.327 4.989-4.073 2.494.255 4.327 2.495 4.072 4.989a4.534 4.534 0 01-4.989 4.073z" fill="#524FA0"/><path d="M384.511 336.076c-.305 0-.661 0-.967-.051-2.545-.254-4.836-1.476-6.414-3.462-1.629-1.985-2.342-4.429-2.087-6.974.254-2.545 1.476-4.836 3.461-6.415 1.986-1.629 4.429-2.341 6.975-2.087 5.243.509 9.061 5.193 8.501 10.436-.509 4.888-4.683 8.553-9.469 8.553zm-.05-17.563a7.919 7.919 0 00-5.04 1.781c-1.68 1.375-2.698 3.259-2.902 5.397-.204 2.138.407 4.225 1.782 5.854 1.374 1.68 3.258 2.698 5.396 2.902 4.378.458 8.298-2.749 8.756-7.178.458-4.378-2.749-8.298-7.178-8.756-.254.051-.56 0-.814 0zm.05 13.338c-.203 0-.356 0-.559-.051-1.426-.153-2.699-.815-3.564-1.935-.866-1.12-1.324-2.494-1.171-3.92.153-1.425.815-2.698 1.935-3.563a5.222 5.222 0 013.92-1.171c1.425.153 2.698.814 3.563 1.934a5.228 5.228 0 011.171 3.92c-.153 1.426-.815 2.698-1.935 3.564a5.16 5.16 0 01-3.36 1.222zm-.05-9.113c-.866 0-1.731.306-2.393.866-.764.661-1.273 1.527-1.375 2.545-.101 1.018.204 1.985.815 2.8.662.764 1.527 1.273 2.545 1.374 1.019.102 1.986-.203 2.8-.814.764-.662 1.273-1.527 1.375-2.546.102-1.018-.204-1.985-.815-2.799-.662-.764-1.527-1.273-2.545-1.375-.153-.051-.255-.051-.407-.051z" fill="#000"/><path d="M323.016 190.376c-7.891 1.018-13.44 8.247-12.473 16.138 1.018 7.891 8.247 13.44 16.138 12.473 7.891-1.019 13.44-8.248 12.473-16.138-1.07-7.942-8.248-13.491-16.138-12.473zm2.8 21.687a7.541 7.541 0 01-8.4-6.465c-.56-4.073 2.392-7.84 6.465-8.4a7.54 7.54 0 018.4 6.465c.509 4.124-2.393 7.891-6.465 8.4z" fill="#524FA0"/><path d="M324.795 219.801c-3.309 0-6.567-1.069-9.214-3.156-3.207-2.495-5.244-6.058-5.753-10.08-1.069-8.298 4.837-15.934 13.084-16.953 4.021-.509 7.992.56 11.2 3.055 3.207 2.494 5.243 6.058 5.752 10.08 1.069 8.298-4.836 15.934-13.083 16.952-.662.102-1.324.102-1.986.102zm-1.68-28.661c-7.483.967-12.727 7.789-11.81 15.272a13.492 13.492 0 005.192 9.062 13.564 13.564 0 0010.08 2.749c7.484-.967 12.727-7.789 11.811-15.273-.967-7.483-7.84-12.778-15.273-11.81zm1.731 21.788c-4.072 0-7.636-3.054-8.196-7.178-.56-4.531 2.596-8.654 7.127-9.214 4.531-.56 8.655 2.596 9.215 7.127.56 4.531-2.597 8.654-7.128 9.214-.356 0-.661.051-1.018.051zm0-15.018c-.305 0-.56 0-.865.051-3.666.458-6.262 3.869-5.804 7.535.458 3.665 3.869 6.261 7.535 5.803 3.665-.458 6.261-3.869 5.803-7.534-.458-3.36-3.36-5.855-6.669-5.855zm16.751 202.412c-5.753 6.262-4.582 9.469-8.96 12.371-6.822 4.479-13.135-.866-21.84 3.156-4.887 2.24-7.789 6.16-9.418 8.807 13.694 8.4 30.698 7.178 41.643-2.545 12.931-11.506 10.793-29.069 10.589-30.495-3.156 1.528-7.789 4.124-12.014 8.706z" fill="#000"/><path d="M293.539 425.929l47.803 4.786-.051.458a7.98 7.98 0 01-8.705 7.127l-31.97-3.207a7.981 7.981 0 01-7.128-8.705l.051-.459z" fill="#fff"/><path d="M294.201 426.744c-.255 3.818 2.596 7.178 6.465 7.585l31.97 3.207c3.819.357 7.28-2.341 7.84-6.109l-46.275-4.683zm39.148 12.371c-.305 0-.56-.001-.865-.051l-31.971-3.208c-4.785-.458-8.247-4.734-7.789-9.52l.051-.457c.051-.407.407-.713.815-.662l47.803 4.785a.63.63 0 01.509.254.578.578 0 01.153.561l-.051.458c-.408 4.48-4.226 7.84-8.655 7.84zm20.09 29.099l-79.173-7.965-.805 8.003 79.172 7.964.806-8.002z" fill="#000"/><path d="M353.51 488.343l-83.388-8.4c-3.258-.305-5.651-3.258-5.346-6.516l.051-.713c.306-3.258 3.258-5.651 6.516-5.345l83.388 8.4c3.259.305 5.651 3.258 5.346 6.516l-.051.713c-.356 3.258-3.258 5.651-6.516 5.345z" fill="#fff"/><path d="M354.12 489.106c-.204 0-.458 0-.662-.051l-83.388-8.399c-3.665-.357-6.364-3.666-6.007-7.382l.051-.712c.203-1.782 1.069-3.411 2.443-4.531 1.375-1.12 3.157-1.68 4.939-1.477l83.387 8.4c3.666.356 6.364 3.665 6.008 7.381l-.051.713c-.408 3.462-3.36 6.058-6.72 6.058zm-83.337-21.024a5.113 5.113 0 00-3.258 1.171c-1.069.865-1.731 2.138-1.884 3.512l-.051.712c-.305 2.851 1.782 5.397 4.633 5.702l83.388 8.4c2.851.306 5.396-1.782 5.701-4.633l.051-.712c.306-2.851-1.781-5.397-4.632-5.702l-83.388-8.399c-.204 0-.408-.051-.56-.051z" fill="#000"/><path d="M455.275 584.05c22.145.764 40.116 7.28 76.006 21.076 18.989 7.28 35.789 14.967 64.145 21.738 1.985.458 7.127 1.68 12.778 2.8 56.304 11.098 144.783 10.131 154.659 12.625 6.313 1.629 12.575 3.564 12.575 3.564.102.051.356.102.611.203 0 0 4.887 1.528 9.825 3.31 12.982 4.632 30.087 12.727 30.087 12.727 13.338 6.261 20.007 9.418 29.069 14.712 10.283 5.956 19.243 12.167 27.032 18.124-17.411-59.054-37.367-103.65-52.487-133.788-14.101-28.05-22.196-39.759-41.49-79.468-17.309-35.635-26.218-58.035-41.949-95.198-13.185-31.105-32.479-75.752-57.526-130.478-6.822-48.465-13.643-96.981-20.465-145.445-46.378 14.967-92.755 29.883-139.184 44.85 9.316 35.738 18.582 71.424 27.898 107.162-15.222 49.228-33.141 85.068-47.141 109.199-10.182 17.512-21.331 34.159-33.447 63.075-10.589 25.251-13.236 39.097-20.363 61.599-7.484 23.621-19.906 56.712-41.236 95.555.865.203 1.68.356 2.545.56 1.833-2.698 10.284-9.775 48.058-8.502z" fill="#524FA0"/><path d="M818.912 561.549c20.669 41.083 38.181 85.628 52.079 132.413l-.254-.051c.356.56.712 1.171.967 1.782l.203.05 1.273.255-.356-1.222c-13.949-47.294-31.665-92.348-52.538-133.889-5.854-11.607-10.589-20.312-15.629-29.578-7.127-13.083-14.508-26.625-25.81-49.89-14.254-29.323-22.603-49.228-34.16-76.769-2.443-5.804-4.989-11.862-7.789-18.429a5013.054 5013.054 0 00-57.475-130.427l-20.567-146.26-140.711 45.308 28 107.621c-12.218 39.555-28.051 76.158-46.989 108.842-1.934 3.36-3.92 6.669-6.007 10.13-8.705 14.56-17.716 29.629-27.491 53.047-7.432 17.716-11.047 30.138-14.865 43.272-1.68 5.752-3.411 11.658-5.498 18.378-10.13 32.021-23.977 64.144-41.184 95.402l-.509.916 128.492 28.305v-1.578l-126.151-27.796c17.004-31.105 30.698-62.973 40.777-94.791 2.139-6.72 3.87-12.676 5.499-18.378 3.97-13.643 7.381-25.454 14.814-43.119 9.774-23.316 18.734-38.334 27.44-52.843 2.087-3.462 4.021-6.771 6.007-10.131 19.039-32.836 34.923-69.642 47.192-109.351l.051-.204-27.745-106.653 137.605-44.341 18.073 128.595 2.24 16.087.05.102c20.109 43.933 39.454 87.817 57.476 130.478 2.749 6.567 5.345 12.625 7.789 18.429 11.607 27.541 19.956 47.446 34.21 76.82 11.302 23.316 18.735 36.858 25.862 49.992 5.04 9.163 9.774 17.869 15.629 29.476z" fill="#000"/><path d="M650 92.734c-3.512 6.364-7.381 12.524-10.69 18.989-.153.306-.611.051-.459-.254 3.309-6.466 7.128-12.626 10.691-18.938-1.12-.51-2.342-.917-3.563-1.324-4.735-1.527-10.335-1.17-16.037.255.764 1.73 1.579 3.41 2.342 5.09 1.477 3.31 2.8 6.771 4.175 10.131.101.306-.357.458-.509.153-1.477-3.614-2.851-7.28-4.531-10.793-.662-1.476-1.426-2.952-2.037-4.429-16.443 4.226-33.803 16.902-35.381 17.92-4.174-6.567-6.313-12.269-7.483-16.29-1.63-5.448-1.833-9.266-5.091-13.033-3.004-3.462-6.771-5.193-9.418-6.058.763-2.24 3.97-12.473-1.069-23.825-4.939-11.098-14.357-15.578-16.597-16.596 2.393-8.96 4.735-17.92 7.128-26.88 0-.458.101-2.749-1.579-4.48-1.781-1.782-4.785-2.189-7.381-.865-5.855 4.938-11.658 9.825-17.513 14.763a55.679 55.679 0 00-14.763 2.902c-4.378 1.527-13.338 4.785-20.924 13.44-6.414 7.33-8.858 15.17-9.876 19.65-.458 3.666-1.578 9.011-4.887 14.458-3.309 5.397-4.989 4.633-7.127 8.655-4.735 8.807-.866 20.21 2.342 29.73a106.92 106.92 0 002.494 6.415 135.204 135.204 0 008.96 17.665c2.291 3.818 2.647 6.109 3.105 8.552 1.782 9.469-2.8 13.644-1.12 19.04 1.07 3.462 4.786 7.535 16.291 10.182 4.989.356 10.029.763 15.018 1.12-.204.509-1.629 4.633.764 8.4 2.036 3.207 6.007 4.836 10.029 4.072 8.145-4.785 16.29-9.57 24.385-14.356l81.097-47.65c9.52-2.902 18.989-5.753 28.509-8.654-1.528-2.546-7.484-11.913-19.295-17.157z" fill="#524FA0"/><path d="M629.125 90.9c-12.625 3.259-26.167 11.557-34.72 17.513l-.102.102c-3.105-4.989-5.447-10.182-7.025-15.476-.407-1.324-.713-2.546-1.018-3.767-.866-3.564-1.68-6.618-4.225-9.571-2.291-2.647-5.346-4.684-9.062-6.058 1.273-4.175 3.207-13.49-1.324-23.622-4.48-10.029-12.523-14.865-16.392-16.698l6.974-26.268v-.153c.051-.916 0-3.258-1.782-5.04-2.036-2.036-5.447-2.444-8.298-1.018-.051.05-.101.05-.152.102l-17.309 14.56c-5.04.305-9.978 1.272-14.713 2.952-4.022 1.375-13.338 4.633-21.229 13.695-4.887 5.6-8.349 12.523-10.029 20.007v.101c-.61 5.244-2.24 9.978-4.785 14.153-1.629 2.698-2.902 3.818-3.971 4.785-1.069.968-2.087 1.884-3.156 3.92-4.887 9.113-.917 20.873 2.291 30.342.305.967 1.222 3.36 2.494 6.465a135.362 135.362 0 009.011 17.767c2.087 3.462 2.495 5.651 2.953 7.942l.051.407c.916 4.938.101 8.349-.662 11.403-.662 2.699-1.273 5.04-.407 7.738 1.527 4.837 7.178 8.451 16.85 10.691h.102l14.051 1.069c-.407 1.68-.866 4.989 1.171 8.146 1.832 2.901 5.192 4.632 8.756 4.632.662 0 1.374-.051 2.036-.203.102 0 .153-.051.255-.102l24.385-14.356a.747.747 0 00.254-1.069.747.747 0 00-1.069-.255l-24.283 14.254c-3.614.611-7.229-.865-9.113-3.767-2.138-3.36-.967-7.025-.712-7.738.102-.203.051-.458-.051-.662-.153-.203-.357-.305-.611-.356l-14.967-1.12c-9.062-2.138-14.356-5.345-15.68-9.673-.713-2.29-.204-4.327.458-6.872.764-3.004 1.68-6.771.713-12.066l-.051-.407c-.458-2.342-.865-4.734-3.156-8.451a126.316 126.316 0 01-8.909-17.563c-1.273-3.054-2.138-5.447-2.444-6.364-3.105-9.214-6.974-20.617-2.393-29.12.968-1.832 1.833-2.596 2.851-3.512 1.171-1.069 2.495-2.24 4.277-5.142 2.647-4.327 4.327-9.265 4.989-14.712 1.629-7.23 4.989-13.898 9.723-19.294 7.586-8.706 16.698-11.913 20.567-13.237a54.37 54.37 0 0114.56-2.901.622.622 0 00.458-.204l17.462-14.662c2.24-1.12 4.887-.814 6.414.764 1.324 1.324 1.375 3.207 1.375 3.818l-7.127 26.778c-.102.356.101.764.407.916 3.36 1.477 11.709 6.058 16.189 16.19 4.581 10.283 2.24 19.7 1.018 23.264a.85.85 0 00.051.611c.102.204.254.306.458.407 3.767 1.273 6.822 3.208 9.113 5.855 2.341 2.698 3.003 5.447 3.869 8.909.305 1.222.61 2.444 1.018 3.818 1.68 5.65 4.225 11.2 7.585 16.494.102.153.306.306.458.357.153.051.408 0 .56-.102.153-.102.408-.255.815-.56 8.552-5.905 22.043-14.204 34.465-17.36-.204-.509-.357-.967-.56-1.425z" fill="#000"/><path d="M560.909 103.73c-1.018 2.087-4.429 5.192-8.349 8.807a144.358 144.358 0 00-4.175 3.869c-4.785 4.48-9.469 9.367-11.199 13.847-1.12 2.851-2.851 6.516-5.04 10.283-5.142 8.96-12.575 18.276-18.633 16.953-8.654-1.884-12.523 2.342-12.014-8.909.254-5.753-2.546-12.88-7.891-27.032-2.953-7.739-3.614-7.84-5.702-14.204-1.018-3.054-1.883-6.262-3.818-11.607a152.153 152.153 0 00-2.443-6.414c.101-2.597.56-6.619 2.087-11.2 1.374-4.022 4.48-12.83 13.134-18.378 3.309-2.087 7.127-3.411 11.76-3.971 10.64-1.324 16.902.56 23.163 4.938a122 122 0 013.411 2.596c7.535 6.262 18.073 20.313 20.974 22.35 1.782 1.272 4.175 5.853 5.142 10.435.204 1.07.357 2.087.407 3.106 0 1.731-.203 3.258-.814 4.531z" fill="#000"/><path d="M514.686 158.405a6.32 6.32 0 01-1.375-.153c-2.341-.509-4.327-.56-5.956-.611-2.291-.051-4.073-.102-5.243-1.375-1.171-1.272-1.579-3.461-1.375-7.687.255-5.447-2.291-12.116-7.382-25.403l-.509-1.324c-1.323-3.461-2.138-5.345-2.902-7.025-.916-2.036-1.629-3.665-2.8-7.229-.305-.916-.56-1.782-.865-2.8a210.186 210.186 0 00-2.902-8.807 234.674 234.674 0 00-2.392-6.364l-.051-.152v-.153a43 43 0 012.138-11.404c1.171-3.563 4.378-12.981 13.44-18.785 3.36-2.138 7.33-3.512 12.116-4.072 10.08-1.273 16.749.152 23.672 5.04a80.676 80.676 0 013.462 2.647c4.429 3.665 9.825 9.927 14.152 14.967 3.004 3.513 5.651 6.567 6.771 7.33 2.037 1.426 4.48 6.364 5.447 10.895.255 1.12.357 2.19.408 3.207.102 1.935-.204 3.615-.866 4.887-1.12 2.24-4.53 5.397-8.552 9.011l-.611.56c-1.171 1.069-2.342 2.138-3.564 3.258-4.225 3.971-9.265 9.062-10.996 13.593-1.222 3.105-3.054 6.873-5.091 10.385-3.156 5.498-10.894 17.564-18.174 17.564zM482.41 89.22c.814 2.087 1.629 4.175 2.393 6.262 1.374 3.818 2.189 6.516 2.952 8.858.306.967.56 1.884.866 2.749 1.12 3.462 1.832 5.091 2.749 7.076.763 1.68 1.629 3.615 2.953 7.077l.509 1.323c5.141 13.491 7.738 20.262 7.483 26.014-.153 3.666.153 5.702.967 6.567.764.815 2.139.866 4.175.917 1.68.051 3.767.102 6.262.662 4.632 1.018 11.301-5.193 17.818-16.596 1.985-3.462 3.818-7.179 4.989-10.182 1.832-4.735 6.77-9.825 11.403-14.102 1.222-1.12 2.393-2.24 3.564-3.309l.611-.56c3.716-3.411 7.229-6.567 8.196-8.552.509-1.07.763-2.444.713-4.175-.051-.916-.153-1.934-.408-2.953-.916-4.53-3.309-8.909-4.836-9.978-1.273-.916-3.818-3.869-7.076-7.585-4.327-4.989-9.673-11.2-13.949-14.764a55.622 55.622 0 00-3.36-2.596c-5.498-3.869-11.455-6.16-22.603-4.785-4.531.56-8.299 1.832-11.455 3.869-8.603 5.549-11.658 14.61-12.829 17.97a37.218 37.218 0 00-2.087 10.793z" fill="#000"/><path d="M497.476 100.93c-2.749.611-5.04 1.171-7.789 1.781-4.327.968-7.84 4.277-8.756 8.604a11.362 11.362 0 001.018 7.484l1.375 2.698c2.596 4.989 8.45 7.381 13.745 5.549l4.887-1.68" fill="#3FD1FF"/><path d="M493.457 128.421c-4.429 0-8.706-2.444-10.793-6.567l-1.374-2.698c-1.273-2.495-1.68-5.244-1.069-7.993.967-4.582 4.632-8.196 9.367-9.214 1.374-.306 2.647-.611 3.869-.866 1.272-.305 2.545-.56 3.92-.865a.758.758 0 11.356 1.476c-1.375.306-2.647.611-3.869.866-1.273.305-2.545.56-3.92.865-4.124.916-7.331 4.073-8.196 8.044-.509 2.392-.153 4.785.967 6.974l1.375 2.698c2.392 4.633 7.89 6.873 12.829 5.142l4.887-1.68c.407-.153.814.051.967.458.153.407-.051.815-.458.967l-4.887 1.68a11.315 11.315 0 01-3.971.713z" fill="#000"/><path d="M509.083 66.058c-3.004.661-15.018 3.207-18.022 3.92-10.029 2.24-15.273 11.963-10.385 19.294 4.429 6.618 9.978 12.981 14.356 19.6 6.211-8.858 11.251-17.411 17.461-26.27l-3.41-16.544z" fill="#F9D84E"/><path d="M495.032 109.584c-.254 0-.509-.152-.611-.356-2.189-3.258-4.734-6.567-7.178-9.774-2.443-3.207-4.989-6.517-7.229-9.826-2.189-3.309-2.596-7.178-1.069-10.945 1.884-4.684 6.364-8.247 11.913-9.52 1.476-.356 5.294-1.17 8.96-1.934 3.716-.815 7.534-1.63 9.061-1.935.204-.05.408 0 .56.102a.933.933 0 01.357.509l3.41 16.494c.051.204.001.408-.101.611-3.106 4.43-5.957 8.807-8.706 13.084-2.8 4.276-5.65 8.705-8.756 13.134-.153.255-.356.356-.611.356zm13.44-42.61c-1.833.407-5.091 1.12-8.298 1.782-3.665.763-7.484 1.629-8.96 1.934-5.091 1.171-9.163 4.379-10.843 8.604-1.324 3.258-.968 6.669.916 9.52 2.189 3.309 4.734 6.567 7.178 9.774 2.24 2.902 4.531 5.906 6.567 8.909 2.851-4.123 5.498-8.196 8.095-12.218a402.828 402.828 0 018.552-12.88l-3.207-15.425zm363.08 628.107c-3.717-.407-7.433-.763-11.149-1.17l-9.571-2.088-51.418-11.352-11.301-2.495-191.416-42.356-59.97-13.287-129.969-28.865s2.189-10.996 48.516-9.418c21.636.713 48.973 10.691 76.006 21.076 22.45 8.655 44.697 17.666 63.33 21.993 6.974 1.629 13.491 2.596 19.243 2.698 39.76.458 92.246-1.68 149.06 12.472 4.175 1.07 8.4 2.24 12.574 3.564a192.892 192.892 0 0110.437 3.513c21.33 7.687 41.846 17.97 58.137 27.083 2.902 1.629 6.975 3.665 12.116 6.974 6.873 4.531 12.116 8.757 15.375 11.658zM492.996 121.905a.75.75 0 01-.713-.56l-2.952-9.571a.805.805 0 01.509-.967.807.807 0 01.967.509l2.953 9.571a.807.807 0 01-.509.967c-.102.051-.204.051-.255.051z" fill="#000"/><path d="M501.141 134.071c1.374 5.295 2.749 10.589 4.174 15.833 1.222 1.375 6.669 7.382 12.218 6.262 2.851-.56 5.549-2.698 7.433-4.226.814-.661 2.392-1.934 3.92-3.92 2.647-3.36 3.207-6.261 4.581-10.232.917-2.647 2.393-6.313 4.837-10.64-1.578 1.731-9.164 9.978-21.484 10.589-7.381.356-13.032-2.24-15.679-3.666z" fill="#F9D84E"/><path d="M516.111 157.082c-4.989 0-9.52-4.531-11.353-6.618-.102-.102-.153-.204-.153-.305l-4.174-15.833c-.102-.305.051-.611.254-.814a.69.69 0 01.815-.051c3.309 1.781 8.654 3.869 15.272 3.563 11.149-.509 18.378-7.381 20.975-10.334a.725.725 0 011.018-.102c.305.204.407.662.203 1.018-1.934 3.411-3.563 6.975-4.785 10.538a53.311 53.311 0 01-.763 2.189c-.968 2.902-1.782 5.397-3.971 8.247-1.629 2.037-3.309 3.411-4.022 4.022-2.24 1.833-4.887 3.818-7.789 4.378-.509.051-1.018.102-1.527.102zm-10.131-7.534c1.578 1.782 6.567 6.821 11.352 5.854 2.8-.56 5.499-2.749 7.128-4.072.763-.611 2.29-1.833 3.767-3.768 2.036-2.596 2.8-4.887 3.716-7.789.255-.712.458-1.476.764-2.24a65.87 65.87 0 012.698-6.567c-3.869 3.258-10.182 7.127-18.582 7.484-6.007.305-11.047-1.324-14.559-2.953l3.716 14.051z" fill="#000"/><path d="M552.509 112.537a144.337 144.337 0 00-4.174 3.869c-4.786 4.48-9.469 9.367-11.2 13.847-1.12 2.851-2.851 6.516-5.04 10.284l-1.374 1.221c-5.906 5.244-14.56 6.364-21.433 2.546-.254-.153-.458-.255-.713-.407-6.618-4.022-8.501-10.589-8.909-12.066l-4.225-17.767c-1.68-4.938-3.309-9.876-4.989-14.865-2.138-6.364 1.476-13.185 7.942-15.018l24.792-6.924c3.207-4.072 16.036-4.734 19.396-1.934 2.698 2.189 2.597 6.364 1.069 10.029 5.04 9.062 3.92 18.174 8.858 27.185z" fill="#3FD1FF"/><path d="M518.147 147.358c-3.156 0-6.312-.763-9.214-2.393-.255-.152-.458-.254-.713-.407-6.363-3.92-8.603-10.08-9.265-12.523l-4.225-17.767-1.579-4.684c-1.12-3.36-2.24-6.72-3.41-10.13-1.12-3.259-.815-6.771.814-9.826 1.629-3.055 4.327-5.243 7.636-6.16l24.589-6.822c2.24-2.545 7.229-3.36 9.316-3.563 3.92-.407 8.858-.051 10.997 1.68 3.105 2.545 2.799 7.076 1.425 10.589 2.393 4.53 3.36 9.061 4.327 13.49.917 4.379 1.884 8.96 4.327 13.389.153.306.102.713-.152.917l-.611.56c-1.171 1.069-2.342 2.138-3.564 3.258-4.225 3.971-9.265 9.062-10.996 13.592-1.222 3.106-3.055 6.873-5.091 10.386-.051.051-.102.152-.153.203l-1.374 1.222c-3.716 3.258-8.4 4.989-13.084 4.989zm17.055-72.952c-.968 0-1.935.051-2.902.153-4.022.407-7.178 1.63-8.451 3.207a1.107 1.107 0 01-.407.255l-24.793 6.923a10.961 10.961 0 00-6.719 5.397c-1.426 2.698-1.68 5.752-.713 8.603 1.12 3.36 2.24 6.72 3.411 10.131l1.578 4.735v.05l4.225 17.767c.611 2.291 2.698 7.993 8.604 11.608.203.152.458.254.662.407 6.516 3.665 14.763 2.647 20.567-2.444l1.272-1.12c1.986-3.411 3.768-7.076 4.888-10.08 1.832-4.734 6.77-9.825 11.403-14.101 1.222-1.12 2.393-2.24 3.564-3.309l.203-.153c-2.342-4.429-3.258-8.909-4.174-13.236-.917-4.43-1.884-8.96-4.327-13.39-.102-.203-.102-.457-.051-.66 1.272-3.055 1.68-7.077-.866-9.164-1.171-1.019-3.869-1.579-6.974-1.579z" fill="#000"/><path d="M523.337 106.174a1.884 1.884 0 10-.002-3.766 1.884 1.884 0 00.002 3.766zm-13.641 2.85a1.885 1.885 0 000-3.767 1.885 1.885 0 00-1.884 1.883c0 1.041.846 1.884 1.884 1.884z" fill="#000"/><path d="M560.908 103.73c-1.375 2.8-7.026 7.483-12.575 12.676a844.375 844.375 0 00-1.883-9.825 1052.02 1052.02 0 00-3.004-14.51c-2.087 0-4.124 0-6.262-.05l-8.145-.153c-3.157-.102-6.313-.305-9.469-.712a95.091 95.091 0 01-11.149-2.037c-.051 0-.153-.05-.204-.05a10.848 10.848 0 01-4.276-1.732c-1.273-.865-2.393-1.985-3.207-3.309-4.531-7.33-.306-16.494 8.094-18.225l22.858-5.142c1.12.815 2.24 1.68 3.411 2.597 7.534 6.261 18.072 20.312 20.974 22.348 1.782 1.273 4.175 5.855 5.142 10.437.153 1.018.254 2.036.407 3.105.102 1.782-.102 3.309-.712 4.582z" fill="#F9D84E"/><path d="M548.333 117.17c-.102 0-.152 0-.254-.051a.787.787 0 01-.509-.611c-.611-3.207-1.222-6.516-1.884-9.825a512.393 512.393 0 00-2.902-13.898c-1.883 0-3.767 0-5.651-.051-2.596-.051-5.345-.102-8.145-.153-3.207-.102-6.414-.305-9.52-.713-3.716-.458-7.483-1.12-11.2-2.036h-.101c-1.68-.305-3.259-.916-4.633-1.833a11.405 11.405 0 01-3.411-3.563c-2.24-3.615-2.596-7.891-.916-11.71 1.68-3.92 5.243-6.77 9.52-7.686l22.857-5.142c.204-.051.408 0 .611.102a80.602 80.602 0 013.462 2.647c4.429 3.665 9.825 9.927 14.153 14.967 3.003 3.513 5.651 6.567 6.771 7.33 2.036 1.426 4.479 6.364 5.447 10.895v.051l.407 3.106v.05c.102 1.935-.204 3.615-.866 4.888-1.119 2.24-4.632 5.498-8.756 9.214-1.272 1.171-2.647 2.393-3.971 3.666a.53.53 0 01-.509.356zm-16.749-55.643l-22.552 5.09c-3.869.815-6.974 3.259-8.451 6.772-1.425 3.36-1.12 7.127.815 10.334a10.273 10.273 0 003.003 3.105 10.333 10.333 0 003.971 1.579c.051 0 .153.05.255.05 3.614.866 7.331 1.528 11.047 1.986 3.105.356 6.262.61 9.367.662 2.8.05 5.498.102 8.094.152 2.088 0 4.175.051 6.211.051.357 0 .662.255.764.611a905.015 905.015 0 013.003 14.509c.56 2.8 1.121 5.651 1.63 8.451 1.018-.916 1.985-1.833 2.952-2.749 3.818-3.462 7.433-6.771 8.4-8.756.509-1.069.764-2.444.713-4.124l-.407-3.004c-.968-4.53-3.309-8.858-4.837-9.977-1.272-.917-3.818-3.87-7.076-7.586-4.327-4.989-9.673-11.2-13.949-14.763-.967-.917-1.985-1.68-2.953-2.393zm-18.222 61.751a.946.946 0 01-.356-.102c-.356-.203-.509-.662-.305-1.018.203-.407 2.24-3.971 6.465-4.327 3.36-.255 5.651 1.68 6.313 2.291a.739.739 0 010 1.069.739.739 0 01-1.069 0c-.51-.509-2.393-2.087-5.091-1.884-3.513.306-5.193 3.411-5.244 3.513a.823.823 0 01-.713.458z" fill="#000"/><path d="M515.907 106.581c-2.698 2.341-8.552 7.738-11.301 10.13-1.884 1.629-2.088 4.328-.51 5.804 1.324 1.222 3.462 1.171 4.989-.153 3.36-2.698 9.877-8.451 13.237-11.2" fill="#3FD1FF"/><path d="M506.436 124.144c-1.018 0-2.036-.356-2.8-1.069-.865-.814-1.324-1.934-1.324-3.156 0-1.426.713-2.8 1.833-3.818 1.375-1.171 3.513-3.157 5.651-5.04 2.087-1.935 4.276-3.869 5.651-5.091.305-.255.814-.255 1.069.051.254.305.255.814-.051 1.069-1.374 1.171-3.513 3.156-5.651 5.04-2.087 1.934-4.276 3.869-5.651 5.091a3.824 3.824 0 00-1.323 2.698c0 .814.254 1.527.814 1.985 1.019.967 2.749.866 3.971-.153 1.68-1.374 4.175-3.512 6.618-5.599 2.444-2.088 4.938-4.226 6.618-5.6.306-.255.815-.204 1.069.101.255.306.204.815-.101 1.07-1.68 1.374-4.175 3.512-6.618 5.599-2.444 2.088-4.939 4.226-6.619 5.6-.916.866-2.087 1.222-3.156 1.222zm48.618-39.607c1.018-1.272-8.4-10.487-14.305-16.24-1.986-1.934-4.989-4.632-9.011-7.585-6.211 1.476-12.472 2.953-18.683 4.48a170.595 170.595 0 0123.672 9.876c11.047 5.651 17.513 10.487 18.327 9.47z" fill="#000"/><path d="M609.477 730.412c-18.022 8.858-36.044 17.666-54.065 26.524l-24.131-150.74c22.451 8.654 44.698 17.665 63.33 21.992 4.938 34.109 9.927 68.167 14.866 102.224z" fill="#3FD1FF"/><path d="M555.411 757.699a.94.94 0 01-.356-.102.79.79 0 01-.408-.56l-24.13-150.74c-.051-.255.051-.56.254-.713a.815.815 0 01.764-.102c2.596 1.019 5.193 1.986 7.738 3.004 20.058 7.789 39.047 15.12 55.439 18.989.306.051.56.305.56.611l14.917 102.224a.787.787 0 01-.408.814l-54.064 26.524c-.051 0-.204.051-.306.051zm-23.163-150.333l23.774 148.398 52.639-25.811-14.763-101.155c-16.393-3.919-35.229-11.199-55.134-18.937a347.542 347.542 0 01-6.516-2.495z" fill="#000"/><path d="M565.492 723.896s-.764 15.781 6.923 15.476c7.688-.305 14.815-.305 19.702-7.178 4.836-6.873 20.211-13.745 25.302-2.291 5.09 11.454 10.487 53.912 10.487 53.912l-224.965-2.596s.255-9.469 17.106-13.491c16.85-4.022 42.966-4.276 52.639-16.342 9.723-12.065 51.367-32.988 51.367-32.988 10.487-14.255 25.657-17.513 34.006-10.895 5.906 4.735 7.128 13.287 7.433 16.393z" fill="#FF6EC1"/><path d="M628.769 784.63h-.865l-225.728-2.597v-.763c0-.408.458-10.08 17.716-14.204 4.48-1.069 9.571-1.883 14.967-2.698 14.203-2.24 30.341-4.734 37.316-13.389 9.52-11.76 48.21-31.461 51.468-33.09 5.855-7.942 13.746-13.084 21.585-14.153 5.142-.712 9.877.458 13.389 3.258 5.702 4.531 7.28 12.524 7.687 16.851v.102c0 .102-.458 9.927 3.106 13.491.865.865 1.833 1.272 3.003 1.221l.866-.051c7.382-.254 13.796-.509 18.225-6.821 3.309-4.735 11.302-9.367 17.869-8.706 4.022.408 7.025 2.648 8.756 6.517 5.091 11.454 10.335 52.384 10.538 54.115l.102.917zm-224.964-4.124l223.233 2.546c-.814-6.109-5.702-42.509-10.334-52.843-1.527-3.411-4.022-5.295-7.535-5.651-6.058-.611-13.389 3.665-16.494 8.043-4.887 6.924-11.963 7.178-19.447 7.484l-.865.051c-1.629.051-3.004-.509-4.175-1.68-3.869-3.92-3.564-13.644-3.513-14.56-.407-4.124-1.883-11.607-7.127-15.782-3.207-2.545-7.534-3.563-12.269-2.952-7.483 1.018-15.018 6.007-20.669 13.694l-.101.153-.153.102c-.407.203-41.643 20.974-51.112 32.785-7.331 9.061-23.774 11.658-38.232 13.898-5.346.814-10.386 1.629-14.815 2.698-13.389 3.207-15.934 9.774-16.392 12.014z" fill="#000"/><path d="M402.891 781.27v10.13c0 10.386 7.483 18.786 16.748 18.786h192.485c10.691 0 18.684-11.098 16.393-22.807l-.713-3.564-224.913-2.545z" fill="#fff"/><path d="M612.173 811H419.688c-9.672 0-17.512-8.756-17.512-19.549v-10.945h.763l225.576 2.596.814 4.175c1.222 6.21-.407 12.727-4.225 17.41-3.36 4.073-7.942 6.313-12.931 6.313zm-208.521-28.967v9.367c0 9.927 7.178 18.022 15.985 18.022h192.485c4.48 0 8.654-2.037 11.709-5.753 3.564-4.327 5.04-10.385 3.92-16.138l-.56-2.952-223.539-2.546z" fill="#000"/><path d="M509.848 766.71c-4.225.153-7.025-.509-8.044-.764-4.887-1.12-8.552-3.309-10.843-4.887 2.698-1.323 5.447-2.647 8.145-3.971 1.12.204 2.698.459 4.633.713 0 0 3.971.611 7.585.458 12.727-.509 22.145-7.585 26.625-11.81 4.582-4.124 9.622-6.262 14.611-6.262h.102c3.716 0 6.567 1.222 11.556 3.869 6.058 3.207 9.571 5.549 12.371 7.382 2.902 1.934 5.243 3.156 5.498 3.309 5.345 3.003 17.003 2.443 21.178 2.138-1.171 2.749-2.291 5.447-3.462 8.196-4.174.204-15.018.509-20.669-2.596-.254-.153-3.003-1.528-6.363-3.768-2.648-1.781-6.007-3.97-11.76-7.025-4.531-2.393-6.262-3.004-8.4-3.054h-.051c-4.938 0-9.163 3.767-9.825 4.378-5.753 4.989-20.771 13.236-32.887 13.694z" fill="#fff"/><path d="M508.524 767.524c-3.513 0-5.854-.56-6.822-.763h-.051c-3.919-.917-7.636-2.597-11.098-4.989l-1.069-.764 9.52-4.684.255.051c1.527.255 3.054.509 4.582.662.05 0 3.97.611 7.432.458 12.473-.509 21.738-7.483 26.116-11.556 4.684-4.225 9.927-6.465 15.12-6.465h.102c3.92 0 6.822 1.221 11.912 3.92 6.109 3.258 9.622 5.549 12.422 7.432a60.806 60.806 0 005.294 3.157l.153.101c4.786 2.699 15.018 2.444 20.72 2.037l1.222-.102-4.124 9.774h-.458c-5.549.306-15.629.306-21.076-2.647l-.153-.051c-2.647-1.425-4.887-2.8-6.312-3.767-2.648-1.782-5.957-3.971-11.709-6.975-4.379-2.341-6.059-2.952-8.044-2.952h-.051c-3.971 0-7.534 2.596-9.316 4.174l-.051.051c-5.294 4.582-20.465 13.389-33.345 13.898h-1.171zm-16.036-6.312c3.004 1.934 6.16 3.258 9.469 4.021h.051c1.018.255 3.716.866 7.789.713 12.472-.509 27.236-9.062 32.378-13.542l.05-.051c1.935-1.679 5.855-4.53 10.284-4.53h.051c2.291 0 4.073.661 8.756 3.105 5.804 3.105 9.164 5.295 11.811 7.076 1.374.917 3.614 2.291 6.211 3.666l.152.102c4.939 2.698 14.306 2.749 19.753 2.494l2.8-6.618c-6.007.356-15.578.356-20.364-2.342l-.152-.102c-1.833-1.018-3.666-2.087-5.397-3.258-2.8-1.833-6.261-4.123-12.319-7.331-4.837-2.596-7.637-3.716-11.2-3.767h-.102c-4.785 0-9.673 2.087-14.102 6.109-4.531 4.226-14.101 11.455-27.083 11.964-3.665.152-7.534-.458-7.738-.509-1.476-.153-2.953-.408-4.429-.662l-6.669 3.462z" fill="#000"/><path d="M606.677 700.784c-20.007-1.019-40.014-2.088-60.072-3.106-3.768-11.352-7.382-24.385-10.131-38.996a298.756 298.756 0 01-5.193-52.486 397.26 397.26 0 0033.091 12.625 381.687 381.687 0 0052.435 13.338c-.661 9.571-1.629 19.753-3.105 30.392-1.935 13.746-4.327 26.524-7.025 38.233z" fill="#349948"/><path d="M607.285 701.597l-61.192-3.156-.152-.509c-4.226-12.727-7.687-25.912-10.182-39.098-3.258-17.308-5.04-34.974-5.193-52.639v-1.171l1.07.458a386.483 386.483 0 0033.039 12.575c17.054 5.6 34.669 10.131 52.334 13.338l.662.102-.051.661c-.662 10.131-1.731 20.415-3.106 30.444-1.781 12.828-4.123 25.708-7.025 38.283l-.204.712zm-60.122-4.683l58.901 3.054c2.8-12.37 5.141-24.996 6.872-37.519a415.467 415.467 0 003.055-29.68c-17.513-3.207-34.974-7.687-51.876-13.236-10.793-3.564-21.585-7.687-32.072-12.167.254 17.156 1.985 34.363 5.192 51.163 2.444 12.931 5.804 25.861 9.928 38.385z" fill="#000"/><path d="M866.36 156.419a50.137 50.137 0 00-4.683-13.236c-15.68-29.883-57.628-33.141-63.941-33.548l-63.941-5.448c-9.724-2.138-23.011-4.836-38.996-7.025-50.603-6.974-87.257-12.066-100.595 6.261-8.349 11.404-6.058 30.545 2.749 43.272 10.945 15.833 29.323 18.022 32.327 18.327 22.349 3.615 44.698 7.281 67.046 10.895a297.615 297.615 0 0026.524 7.789 302.478 302.478 0 0045.308 7.433c-23.418 35.534-46.836 71.119-70.254 106.653a1766.669 1766.669 0 0065.011 153.387c9.927 20.618 20.007 40.523 30.137 59.767a136.001 136.001 0 002.189-17.055c1.68-25.963 1.324-36.959-12.37-72.799-8.706-22.756-7.942-48.006 2.189-70.152.051-.101.152-.305.152-.407 7.891-17.105 15.629-28.763 17.157-31.207 5.039-7.84 13.847-25.352 30.392-66.282 9.367-20.873 18.785-41.745 28.152-62.618 1.884-11.25 3.666-22.604 5.447-34.007z" fill="#524FA0"/><path d="M793.408 513.288l-1.018-1.935c-10.385-19.65-20.516-39.811-30.189-59.818-23.977-49.839-45.817-101.46-65.01-153.438l-.152-.356 69.795-105.889c-14.865-1.375-29.73-3.818-44.138-7.382-8.909-2.189-17.817-4.785-26.523-7.789l-66.995-10.894c-4.989-.51-22.298-3.36-32.836-18.633-8.349-12.116-11.658-31.919-2.749-44.188 13.643-18.684 50.399-13.593 101.307-6.568 13.084 1.782 26.167 4.175 38.996 7.026l63.89 5.447c4.429.305 16.138 1.425 28.662 5.753 17.105 5.956 29.221 15.425 35.89 28.203 2.189 4.174 3.767 8.705 4.735 13.44l.051.152-5.448 34.364-.051.101-28.152 62.618c-13.694 33.905-23.927 56.254-30.494 66.384l-.305.458a246.435 246.435 0 00-16.8 30.647l-.153.408c-9.978 21.687-10.793 47.039-2.189 69.541 13.949 36.501 14.051 47.293 12.422 73.104-.357 5.753-1.12 11.506-2.189 17.157l-.357 2.087zm-94.639-215.343a1771.775 1771.775 0 0064.807 152.929 1805.72 1805.72 0 0029.12 57.832c.865-4.887 1.425-9.876 1.781-14.814 1.629-25.557 1.528-36.248-12.319-72.494-8.757-22.858-7.942-48.669 2.239-70.712l.204-.407c4.989-10.793 10.64-21.178 16.902-30.851l.305-.458c6.465-10.08 16.698-32.327 30.342-66.181l28.101-62.515 5.345-33.855c-.916-4.581-2.494-8.909-4.581-12.93-14.662-27.949-52.182-32.429-63.33-33.142l-63.992-5.447h-.051c-12.778-2.851-25.913-5.193-38.945-7.025-50.399-6.975-86.799-12.015-99.882 5.956-8.502 11.658-5.295 30.749 2.749 42.407 10.181 14.712 26.879 17.512 31.766 18.021l67.2 10.946h.05c8.655 3.003 17.564 5.6 26.473 7.789a300.06 300.06 0 0045.206 7.432l1.273.102-70.763 107.417zm-306.265.917c-.255 8.909-.509 17.359-1.578 18.378l1.069 1.069c1.425-1.426 1.629-7.28 1.985-19.447.458-15.018 1.069-35.585 5.193-53.403l-1.476-.357c-4.175 18.073-4.786 38.691-5.193 53.76zm112.263-89.964l-21.829 20.26 1.038 1.12 21.83-20.26-1.039-1.12zm-223.5-40.209l-11.505-7.025a.814.814 0 00-1.069.254c-.255.357-.102.815.254 1.069l11.557 6.975a.952.952 0 00.407.102c.254 0 .509-.153.662-.357a.717.717 0 00-.306-1.018zM534.183 17.338a25.29 25.29 0 015.549.916c1.324.357 2.698.866 3.971 1.426.102.05.204.05.306.05.305 0 .56-.152.712-.458a.81.81 0 00-.356-1.018 31.6 31.6 0 00-4.175-1.527c-1.934-.51-3.869-.865-5.854-.967-.407-.051-.764.305-.815.713-.101.458.255.814.662.865zm36.5 66.028c.102 0 .152 0 .254-.051.408-.153.611-.56.458-.968a8.757 8.757 0 01-.458-3.207c.102-2.189 1.018-3.869 1.782-4.887.255-.356.204-.814-.153-1.069-.356-.255-.814-.204-1.069.153-.865 1.17-1.985 3.156-2.087 5.752-.051 1.273.153 2.546.56 3.819a.744.744 0 00.713.458zm32.48 640.937c-2.851.916-12.066 3.512-22.095-.662-15.934-6.567-19.294-24.029-19.549-25.302-4.989-.254-9.927-.458-14.916-.712.153 1.782.357 3.563.509 5.396 1.68.458 3.513 1.069 5.397 1.731 2.291.865 4.429 1.731 6.312 2.647 3.818 3.767 5.295 7.229 5.957 9.724.661 2.545.61 4.48.56 6.516l-.255-.458-23.214 11.607c-.56-8.909-6.262-16.291-13.695-17.614-5.803-1.019-11.759 1.781-15.527 7.381l.153.102c-8.502-.509-14.102 7.127-14.356 7.484l1.222.865c.254-.305 5.752-7.993 14.05-6.72 6.873 1.018 12.32 7.535 13.288 15.884h.101l-13.694 6.821c-.967-8.043-6.313-14.509-13.236-15.781-5.804-1.069-11.913 1.832-15.578 7.381l1.273.815c3.309-5.04 8.807-7.687 13.999-6.72 6.364 1.171 11.353 7.331 12.066 14.916h.152l-12.167 6.058c-1.731-7.28-7.331-12.676-13.745-13.185-8.553-.713-13.593 7.28-13.796 7.636l1.273.815c.05-.051 4.785-7.535 12.37-6.924 5.855.509 10.996 5.549 12.473 12.371l-34.007 17.003c-.051-.05-.051-.152-.102-.203a27.036 27.036 0 00-9.876-11.709l-.865 1.273a25.53 25.53 0 019.316 11.047c.051.101.051.152.102.254l-.051.051.458.916a29.618 29.618 0 011.68 6.72l1.527-.203a32.817 32.817 0 00-1.629-6.771l100.239-50.145c0 1.375.102 2.851.458 4.684.916 4.429 2.902 7.789 4.429 9.876 3.36-.051 9.011-.407 14.407-2.087 2.087-.662 3.665-1.375 5.193-2.495 2.138-1.578 3.105-3.105 4.174-4.429 1.68-1.68 4.378-4.072 9.215-5.854zm-74.632 17.258c-1.171-8.604-6.924-15.375-14.153-16.647 3.462-4.684 8.604-7.026 13.593-6.16 6.771 1.171 11.963 8.043 12.421 16.341l1.12-.051-12.981 6.517zm91.838-3.767c-.661.102-16.494 2.851-27.49 45.869l1.476.356c10.691-41.796 26.065-44.697 26.218-44.748l-.102-.764-.102-.713zM449.062 489.972c-.153-.407-.56-.611-.967-.458-.407.152-.611.56-.458.967 4.734 13.745 6.21 27.643 4.378 41.338-.56 4.327-1.527 8.654-2.749 12.828a.807.807 0 00.509.968c.051 0 .153.051.203.051a.75.75 0 00.713-.56c1.273-4.277 2.189-8.655 2.8-13.084 1.884-13.949.407-28.05-4.429-42.05zM133.99 644.021l-38.18 16.29c-.408.153-.56.611-.408 1.019.102.305.407.458.713.458.101 0 .203 0 .305-.051l38.181-16.291c.408-.152.56-.611.408-1.018-.204-.407-.662-.611-1.019-.407zm-22.961-56.203c-.356-.203-.814-.051-1.018.306l-16.392 29.628c-.204.357-.051.815.305 1.019a.96.96 0 00.356.101c.255 0 .51-.152.662-.407l16.393-29.629c.203-.356.051-.814-.306-1.018zm85.374-105.38c-.356-.204-.814-.051-1.018.305l-19.091 34.924c-.203.356-.051.814.306 1.018a.939.939 0 00.356.101c.255 0 .509-.152.662-.407l19.091-34.923c.203-.356.051-.814-.306-1.018zm124.524 40.624c-.153.051-16.698 5.396-29.578 11.811-.356.204-.509.662-.356 1.018.152.255.407.407.661.407a.962.962 0 00.357-.101c12.778-6.364 29.17-11.658 29.323-11.76a.807.807 0 00.509-.968c-.102-.305-.509-.509-.916-.407zM160.769 333.276l-35.381-16.8c-.407-.204-.814 0-1.018.356-.204.357 0 .815.356 1.018l35.382 16.8a.64.64 0 00.305.051c.306 0 .56-.153.713-.458a.67.67 0 00-.357-.967zm43.883-35.382l-31.462 1.833c-.407 0-.763.407-.712.814 0 .407.356.713.763.713h.051l31.461-1.833c.408 0 .764-.407.713-.814-.051-.458-.407-.764-.814-.713zm107.365 322.098a.823.823 0 00-.712.815l2.8 34.261c.051.407.356.713.763.713h.051a.824.824 0 00.713-.815l-2.8-34.261c-.051-.458-.407-.764-.815-.713zm60.021-34.108c-.356-.255-.815-.153-1.069.203l-18.531 27.745c-.254.357-.152.815.204 1.069.153.102.254.153.407.153.255 0 .509-.102.611-.356l18.531-27.745c.305-.408.203-.866-.153-1.069zM262.585 78.682c-.306-.255-.815-.255-1.069.102-.255.305-.255.814.102 1.069l21.228 18.276c.153.102.306.204.509.204a.815.815 0 00.56-.255c.255-.305.255-.815-.101-1.069l-21.229-18.327zm243.853 281.066c2.189.763 11.913-19.346 15.629-27.491 3.513-7.738 5.651-13.694 6.618-16.036a1020.4 1020.4 0 0018.581-49.941c-.254-1.018-.509-2.036-.712-3.055l25.403 17.869a.822.822 0 00.458.153.725.725 0 00.611-.306c.255-.356.153-.814-.204-1.069l-25.454-17.868c-.356-.255-.814-.153-1.069.203v.051c-6.465-27.032-12.981-54.065-19.447-81.046 2.749 23.061 4.633 57.068-1.832 97.184-7.026 43.119-21.535 80.283-18.582 81.352zM360.33 163.038c-.356-.204-.815-.051-1.018.305l-8.553 15.375c-.203.356-.051.814.306 1.018a.936.936 0 00.356.102c.255 0 .509-.153.662-.408l8.501-15.425c.204-.305.102-.763-.254-.967z" fill="#000"/><path d="M483.426 229.728c7.28-6.771 14.56-13.542 21.839-20.262l-21.839 20.262z" fill="#524FA0"/><path d="M455.242 274.594l-1.359.695 17.161 33.536 1.359-.695-17.161-33.536z" fill="#000"/></svg>