<svg width="1248" height="429" fill="none" xmlns="http://www.w3.org/2000/svg"><path d="M1314.7 856.3c-.7-3.1-1.4-6.3-2-9.4H900.498V105.401c0-5-2.1-9-4.7-9s-4.7 4-4.7 9V856.2H1314.7v.1z" fill="#3FD1FF"/><path d="M1314.7 857.8H891.098c-.8 0-1.5-.7-1.5-1.5V105.401c0-6 2.7-10.5 6.2-10.5s6.2 4.5 6.2 10.5V845.3H1312.7c.7 0 1.3.5 1.5 1.2.6 2.9 1.2 6 2 9.4.1.4 0 .9-.3 1.3-.4.3-.8.6-1.2.6zm-422.202-3H1312.8c-.5-2.3-.9-4.4-1.4-6.4H900.398c-.8 0-1.5-.7-1.5-1.5V105.401c0-4.6-1.9-7.5-3.2-7.5-1.3 0-3.2 2.9-3.2 7.5V854.8z" fill="#000"/><path d="M893.7 243.201c5 0 9-2.1 9-4.7s-4-4.7-9-4.7H686c-.1-53.7-.1-107.4-.2-161.1h207.9c5 0 9-2.1 9-4.7s-4-4.7-9-4.7H676c.2 56.9.3 113.7.5 170.6h-122c-5 0-9 2.1-9 4.7s4 4.7 9 4.7h122v165.2c.1 3.1.3 6.3.4 9.4h216.8c5 0 9-2.1 9-4.7s-4-4.7-9-4.7H686v-165.3h207.7z" fill="#3FD1FF"/><path d="M893.7 419.401H676.9c-.8 0-1.5-.6-1.5-1.4l-.4-9.4v-163.8H554.5c-6 0-10.5-2.7-10.5-6.2s4.5-6.2 10.5-6.2H675l-.5-169c0-.4.2-.8.4-1.1.3-.3.7-.4 1.1-.4h217.7c6 0 10.5 2.7 10.5 6.2s-4.5 6.2-10.5 6.2H687.3l.2 158.1h206.2c6 0 10.5 2.7 10.5 6.2s-4.5 6.2-10.5 6.2H687.5v162.2h206.2c6 0 10.5 2.7 10.5 6.2s-4.5 6.2-10.5 6.2zm-215.3-3h215.4c4.6 0 7.5-1.9 7.5-3.2 0-1.3-2.9-3.2-7.5-3.2H686.1c-.8 0-1.5-.7-1.5-1.5v-165.3c0-.8.7-1.5 1.5-1.5h207.7c4.6 0 7.5-1.9 7.5-3.2 0-1.3-2.9-3.2-7.5-3.2H686.1c-.8 0-1.5-.7-1.5-1.5l-.2-161.1c0-.4.2-.8.4-1.1.3-.3.7-.4 1.1-.4h207.9c4.6 0 7.5-1.9 7.5-3.2 0-1.3-2.9-3.2-7.5-3.2H677.7l.5 169c0 .4-.2.8-.4 1.1-.3.3-.7.4-1.1.4h-122c-4.6 0-7.5 1.9-7.5 3.2 0 1.3 2.9 3.2 7.5 3.2h122c.8 0 1.5.7 1.5 1.5v165.2l.2 8z" fill="#000"/><path d="M552.999 114.401H1.5v248.2h551.499v-248.2z" fill="#3FD1FF"/><path d="M552.999 364.101H1.5c-.8 0-1.5-.7-1.5-1.5v-248.2c0-.8.7-1.5 1.5-1.5h551.499c.8 0 1.5.7 1.5 1.5v248.2c0 .8-.7 1.5-1.5 1.5zM3 361.101h548.499v-245.2H3v245.2z" fill="#000"/><path d="M1040.6 1.5H751.199v130.2H1040.6V1.5z" fill="#349948"/><path d="M1040.6 133.2H751.199c-.8 0-1.5-.7-1.5-1.5V1.5c0-.8.7-1.5 1.5-1.5H1040.6c.8 0 1.5.7 1.5 1.5v130.2c0 .8-.7 1.5-1.5 1.5zm-287.901-3H1039.1V3H752.699v127.2z" fill="#000"/><path d="M1040.5 173.401H751.098v130.2H1040.5v-130.2z" fill="#349948"/><path d="M1040.4 305.101H751c-.8 0-1.5-.7-1.5-1.5v-130.2c0-.8.7-1.5 1.5-1.5h289.4c.8 0 1.5.7 1.5 1.5v130.2c0 .8-.6 1.5-1.5 1.5zm-287.8-3h286.3v-127.2H752.5v127.2h.1z" fill="#000"/><path d="M1040.5 345H751.098v130.2H1040.5V345z" fill="#349948"/><path d="M1040.4 476.7H751c-.8 0-1.5-.7-1.5-1.5V345c0-.8.7-1.5 1.5-1.5h289.4c.8 0 1.5.7 1.5 1.5v130.2c0 .8-.6 1.5-1.5 1.5zm-287.8-3h286.3V346.5H752.5v127.2h.1z" fill="#000"/><path d="M468.4 230.1H66.5c-5 0-9-4-9-9s4-9 9-9h401.9c5 0 9 4 9 9s-4 9-9 9z" fill="#fff"/><path d="M468.4 231.6H66.5c-5.8 0-10.5-4.7-10.5-10.5s4.7-10.5 10.5-10.5h401.9c5.8 0 10.5 4.7 10.5 10.5s-4.7 10.5-10.5 10.5zm-401.9-18c-4.1 0-7.5 3.4-7.5 7.5s3.4 7.5 7.5 7.5h401.9c4.1 0 7.5-3.4 7.5-7.5s-3.4-7.5-7.5-7.5H66.5z" fill="#000"/><path d="M257.8 277.6H66.5c-5 0-9-4-9-9s4-9 9-9h191.3c5 0 9 4 9 9s-4 9-9 9z" fill="#fff"/><path d="M257.8 279.1H66.5c-5.8 0-10.5-4.7-10.5-10.5s4.7-10.5 10.5-10.5h191.3c5.8 0 10.5 4.7 10.5 10.5s-4.7 10.5-10.5 10.5zm-191.3-18c-4.1 0-7.5 3.4-7.5 7.5s3.4 7.5 7.5 7.5h191.3c4.1 0 7.5-3.4 7.5-7.5s-3.4-7.5-7.5-7.5H66.5z" fill="#000"/></svg>