<svg width="269" height="228" fill="none" xmlns="http://www.w3.org/2000/svg"><path d="M362.814 2.673H2.652v222.075h360.162V2.673z" fill="#F9D84E"/><path d="M362.99 227.4H2.652C1.238 227.4 0 226.162 0 224.747V2.673C0 1.258 1.238.02 2.652.02h360.162c1.414 0 2.652 1.237 2.652 2.652v222.074c.177 1.415-1.061 2.653-2.476 2.653zM5.304 222.095h354.857V5.325H5.304v216.77z" fill="#000"/><path d="M182.646 141.824c-.53 0-1.061-.177-1.591-.531L1.239 4.796C.002 3.912-.175 2.321.71 1.083 1.593-.155 3.184-.332 4.422.553l178.224 135.259L361.401.552c1.237-.884 2.829-.707 3.713.531.884 1.238.707 2.829-.531 3.713L184.237 141.293c-.53.354-1.061.531-1.591.531z" fill="#000"/></svg>