<svg width="597" height="811" viewBox="0 0 597 811" fill="none" xmlns="http://www.w3.org/2000/svg">
<path d="M296.438 301.967C288.802 301.509 275.922 298.913 262.075 298.607C239.981 298.149 230.512 298.862 216.716 298.607C196.251 298.2 194.571 296.265 174.869 295.247C157.509 294.382 146.513 294.993 126.913 295.807C108.79 296.571 82.1649 297.487 48.1071 298.098C61.9542 305.225 78.3976 312.556 97.3356 318.92C120.855 326.81 142.339 331.29 160.462 333.887C175.887 341.167 193.451 348.447 212.999 355.065C238.352 363.566 261.872 369.115 282.54 372.781C268.642 386.271 253.777 402.206 238.912 420.787C221.298 442.78 207.196 464.009 195.996 483.099C170.287 506.008 152.775 527.186 141.728 542.051C123.655 566.284 122.128 574.378 100.085 604.058C82.4194 627.832 75.8522 632.77 54.7252 658.682C41.4381 674.973 22.8057 698.951 2.08594 730.209C25.9111 718.194 51.8235 703.533 78.754 685.562C99.2701 671.868 117.75 658.071 134.244 644.733C160.258 632.464 188.36 617.599 217.632 599.476C258.308 574.327 292.671 548.16 321.129 523.826C320.416 560.175 316.954 589.192 313.9 608.945C310.285 632.465 307.282 642.646 304.686 664.231C300.715 696.965 301.427 723.896 302.649 741.409C329.376 702.871 343.681 669.577 351.878 645.752C357.274 630.072 360.685 616.53 370.001 592.298C380.794 564.145 391.688 541.848 399.375 527.237C413.833 551.571 436.996 588.327 469.425 630.937C486.072 652.828 494.676 662.551 508.319 680.013C530.21 708.114 560.348 750.317 591.962 808.048C555.613 701.293 519.214 594.538 482.865 487.783L765.61 537.826L528.326 434.024L887.23 211.248L517.839 324.774L531.533 92.4281C502.312 139.009 484.799 173.474 474.109 196.892C471.207 203.205 465.607 215.677 456.953 233.292C443.971 259.713 432.364 280.789 424.524 294.585C397.033 251.771 366.794 207.634 333.398 162.682C316.7 140.18 299.951 118.493 283.355 97.6208C277.908 87.0828 271.493 75.9847 264.01 64.5303C249.45 42.3343 234.177 24.0582 220.076 9.29492C226.897 42.6397 234.686 77.1556 243.646 112.639C250.468 139.722 257.595 165.94 264.926 191.292C267.013 206.667 270.221 223.772 275.108 242.201C280.86 264.193 289.413 285.524 296.438 301.967Z" fill="#F15922"/>
<path d="M591.301 808.404C566 762.23 537.898 719.212 507.71 680.471C502.11 673.293 497.477 667.54 492.539 661.482C485.717 653.031 478.641 644.326 468.816 631.395C443.616 598.254 420.249 563.687 399.427 528.764C388.737 549.28 379.064 570.713 370.715 592.552C364.606 608.436 360.992 619.89 357.835 630.021C356.104 635.468 354.526 640.559 352.643 645.955C341.443 678.486 324.847 710.711 303.312 741.816L302.09 743.598L301.938 741.408C300.156 715.802 300.869 689.787 303.974 664.079C305.501 651.657 307.13 642.799 308.912 633.432C310.287 626.203 311.661 618.77 313.239 608.741C317.414 581.811 319.807 553.76 320.468 525.404C288.396 552.742 253.982 577.84 218.193 600.036C191.416 616.632 163.365 631.854 134.805 645.293C117.038 659.7 98.355 673.446 79.3662 686.122C54.8284 702.464 28.9669 717.532 2.59633 730.819L0 732.092L1.57816 729.7C18.1743 704.703 35.8904 680.624 54.2684 658.122C62.9737 647.482 69.2354 640.355 74.7335 634.043C82.828 624.828 89.2424 617.497 99.6278 603.548C111.133 588.021 116.988 578.502 122.689 569.338C127.831 560.989 132.667 553.149 141.322 541.542C156.9 520.619 175.176 500.764 195.641 482.539C208.368 460.853 222.826 439.878 238.557 420.279C251.742 403.835 266.098 388.003 281.218 373.239C258.157 369.065 235.197 363.21 213.001 355.727C195.183 349.72 177.467 342.643 160.463 334.6C139.031 331.545 117.802 326.505 97.286 319.633C80.3844 313.931 63.8391 306.957 47.9557 298.76L45.2576 297.386L48.2612 297.335C75.4972 296.826 102.02 296.062 127.067 295.044C129.002 294.942 130.835 294.891 132.565 294.789C148.703 294.128 159.394 293.669 175.023 294.433C183.932 294.891 189.074 295.502 194.114 296.164C200.07 296.877 205.67 297.589 216.87 297.793C222.877 297.895 227.968 297.844 233.873 297.742C241.306 297.64 249.808 297.539 262.229 297.793C270.985 297.946 279.385 299.066 286.207 299.982C289.72 300.44 292.825 300.848 295.421 301.051C289.16 286.339 280.403 264.652 274.447 242.303C270.018 225.605 266.607 208.449 264.266 191.344C256.731 165.38 249.604 138.908 242.986 112.69C234.382 78.5815 226.441 43.7602 219.415 9.29506L218.906 6.69873L220.739 8.63325C237.08 25.6877 251.895 44.3201 264.775 63.9708C271.749 74.6106 278.265 85.7596 284.12 97.0612C301.123 118.341 317.923 140.232 334.163 162.071C365.624 204.478 396.067 248.514 424.627 292.957C435.674 273.51 446.365 253.248 456.394 232.834C463.928 217.561 469.121 206.107 472.226 199.285C472.685 198.267 473.143 197.3 473.499 196.485C488.059 164.719 507.353 129.541 530.975 91.9704L532.553 89.425L518.757 323.655L892.781 208.754L529.956 433.871L771.771 539.658L483.986 488.75L592.676 807.793L591.301 808.404ZM399.326 525.659L400.038 526.83C421.063 562.109 444.583 596.981 470.037 630.479C479.812 643.359 486.888 652.115 493.761 660.515C498.699 666.573 503.331 672.326 508.931 679.504C537.491 716.158 564.269 756.732 588.501 800.106L481.746 486.765L759.452 535.891L526.698 434.075L527.92 433.311L881.835 213.641L516.975 325.742L530.567 95.2795C507.71 131.883 488.975 166.144 474.772 197.096C474.415 197.911 473.957 198.827 473.499 199.896C470.394 206.769 465.15 218.223 457.616 233.496C447.332 254.368 436.438 274.986 425.136 294.789L424.525 295.909L423.863 294.84C395.1 250.041 364.453 205.7 332.788 162.988C316.548 141.148 299.749 119.257 282.745 97.9776L282.643 97.8758C276.789 86.5741 270.273 75.4761 263.349 64.8871C251.029 46.051 236.877 28.1822 221.35 11.6878C228.273 45.2874 236.011 79.1415 244.36 112.385C250.978 138.603 258.106 165.075 265.64 191.038V191.14C267.982 208.194 271.393 225.3 275.822 241.947C281.88 264.804 290.942 286.95 297.203 301.662L297.712 302.782L296.491 302.731C293.64 302.578 290.076 302.069 285.953 301.56C279.182 300.695 270.782 299.575 262.127 299.371C249.706 299.117 241.255 299.219 233.822 299.32C227.917 299.422 222.826 299.473 216.768 299.371C205.466 299.168 199.815 298.455 193.859 297.742C188.87 297.131 183.728 296.469 174.921 296.062C159.292 295.248 148.653 295.706 132.565 296.419C130.784 296.469 128.951 296.571 127.067 296.673C102.937 297.691 77.4826 298.404 51.2648 298.913C66.2318 306.448 81.8098 312.964 97.6423 318.309C118.057 325.182 139.285 330.222 160.667 333.225H160.769L160.871 333.276C177.874 341.32 195.539 348.396 213.357 354.403C235.96 361.989 259.327 367.945 282.796 372.119L284.273 372.374L283.203 373.392C267.727 388.41 253.066 404.497 239.626 421.297C223.895 440.897 209.488 461.82 196.812 483.506L196.761 483.608L196.659 483.71C176.245 501.884 158.02 521.688 142.493 542.56C133.889 554.065 129.053 561.956 123.962 570.254C118.26 579.469 112.406 589.04 100.85 604.567C90.4133 618.566 83.9989 625.897 75.9044 635.163C70.4063 641.475 64.1446 648.602 55.4902 659.191C37.7231 680.929 20.6179 704.143 4.53084 728.223C29.9341 715.292 54.8283 700.733 78.5517 684.9C97.5914 672.224 116.224 658.53 133.94 644.122L134.093 644.021C162.601 630.581 190.601 615.359 217.379 598.814C253.575 576.414 288.396 550.96 320.774 523.215L322.047 522.095L321.996 523.775C321.436 552.793 318.992 581.505 314.716 608.996C313.189 619.025 311.763 626.508 310.389 633.686C308.556 643.461 306.978 651.861 305.45 664.231C302.447 689.125 301.683 714.274 303.261 739.067C324.134 708.623 340.221 677.111 351.166 645.395C352.999 639.999 354.628 634.908 356.359 629.461C359.566 619.33 363.181 607.825 369.29 591.89C377.842 569.593 387.718 547.651 398.715 526.728L399.326 525.659Z" fill="black"/>
<path d="M73.4604 58.3198L72.6968 98.792L34.5664 105.003C48.159 106.276 61.7006 107.548 75.2931 108.821C67.3005 128.573 59.3079 148.326 51.3153 168.078C65.0096 149.09 78.7549 130.152 92.4493 111.163C99.6274 116.763 106.805 122.363 113.984 127.963L101.155 101.897L114.798 60.6616L88.7329 96.4502L73.4604 58.3198Z" fill="#F9D84E"/>
<path d="M51.2664 168.842C51.1646 168.842 51.0119 168.791 50.91 168.74C50.5537 168.537 50.4519 168.129 50.5537 167.773L74.1752 109.483L34.4666 105.767C34.0594 105.716 33.8048 105.41 33.7539 105.054C33.7539 104.647 34.0084 104.341 34.4157 104.29L71.9352 98.1812L72.6988 58.3199C72.6988 57.9635 72.9534 57.6581 73.3097 57.6072C73.6661 57.5563 74.0224 57.7599 74.1752 58.0653L88.8368 94.923L114.087 60.2544C114.291 59.9489 114.698 59.8471 115.055 59.9999C115.411 60.1526 115.564 60.5598 115.411 60.9162L101.869 101.897L114.596 127.708C114.749 128.013 114.647 128.421 114.393 128.624C114.138 128.828 113.731 128.828 113.426 128.624L92.5531 112.334L51.9282 168.537C51.7755 168.74 51.5209 168.842 51.2664 168.842ZM40.5247 104.85L75.3461 108.108C75.6006 108.108 75.8043 108.261 75.9061 108.465C76.0079 108.668 76.0588 108.923 75.957 109.126L54.3209 162.529L91.7895 110.756C91.8913 110.603 92.0949 110.501 92.2986 110.45C92.5022 110.399 92.7058 110.501 92.8586 110.603L111.746 125.366L100.444 102.254C100.342 102.05 100.342 101.847 100.393 101.694L112.509 65.0907L89.295 96.9594C89.1423 97.163 88.8368 97.3157 88.5823 97.2648C88.3277 97.2139 88.0732 97.0612 87.9714 96.8066L74.1752 62.1889L73.4625 98.8939C73.4625 99.2502 73.2079 99.5557 72.8007 99.6575L40.5247 104.85Z" fill="black"/>
<path d="M109.455 388.767C110.015 397.777 110.575 406.737 111.135 415.748C102.582 416.359 93.9784 416.97 85.4258 417.581C94.8947 420.228 104.364 422.824 113.833 425.472C109.556 436.671 105.229 447.82 100.953 459.02C107.825 449.399 114.749 439.777 121.622 430.155C129.971 432.039 138.371 433.973 146.719 435.857C140.712 430.053 134.654 424.25 128.647 418.446C133.076 409.334 137.505 400.272 141.883 391.159C135.52 398.439 129.156 405.719 122.793 412.999C118.414 404.955 113.934 396.861 109.455 388.767Z" fill="#F9D84E"/>
<path d="M101 459.784C100.899 459.784 100.746 459.733 100.644 459.682C100.288 459.478 100.135 459.071 100.288 458.715L112.862 425.98L85.2188 418.293C84.8625 418.191 84.6079 417.835 84.6588 417.479C84.7097 417.122 85.0152 416.817 85.3716 416.817L110.317 415.035L108.688 388.817C108.688 388.461 108.891 388.155 109.248 388.054C109.604 387.952 109.96 388.105 110.113 388.41L122.993 411.675L141.371 390.65C141.625 390.345 142.033 390.294 142.389 390.497C142.745 390.701 142.796 391.108 142.644 391.464L129.611 418.242L147.276 435.297C147.531 435.551 147.582 435.908 147.429 436.213C147.276 436.518 146.92 436.671 146.563 436.569L121.975 430.969L101.611 459.427C101.51 459.682 101.255 459.784 101 459.784ZM89.9024 418.039L114.084 424.759C114.288 424.81 114.44 424.962 114.542 425.166C114.644 425.37 114.644 425.573 114.593 425.777L103.851 453.776L121.058 429.748C121.262 429.493 121.567 429.391 121.873 429.442L144.273 434.533L128.186 419.006C127.931 418.751 127.88 418.395 128.033 418.141L138.825 395.944L123.451 413.508C123.298 413.711 123.044 413.813 122.789 413.762C122.535 413.711 122.331 413.61 122.178 413.355L110.418 392.075L111.895 415.646C111.946 416.053 111.589 416.41 111.182 416.461L89.9024 418.039Z" fill="black"/>
<path d="M214.326 699.307L213.867 724.303L190.348 728.121L219.162 729.088L200.631 767.015L228.02 730.055L239.322 742.324L231.38 726.237L239.78 700.783L223.693 722.826L214.326 699.307Z" fill="#F9D84E"/>
<path d="M200.629 767.778C200.477 767.778 200.375 767.727 200.222 767.677C199.866 767.473 199.764 767.066 199.917 766.709L217.887 729.852L190.244 728.935C189.837 728.935 189.531 728.63 189.531 728.223C189.531 727.815 189.786 727.459 190.193 727.408L213.102 723.692L213.56 699.357C213.56 699.001 213.815 698.696 214.171 698.645C214.527 698.594 214.884 698.797 215.036 699.103L223.894 721.35L239.167 700.376C239.371 700.07 239.778 699.968 240.134 700.121C240.491 700.274 240.643 700.681 240.491 701.037L232.193 726.186L239.981 741.968C240.134 742.324 240.032 742.731 239.727 742.935C239.421 743.139 239.014 743.088 238.709 742.833L228.069 731.277L201.24 767.524C201.138 767.677 200.884 767.778 200.629 767.778ZM198.135 727.612L219.16 728.324C219.414 728.324 219.669 728.477 219.771 728.681C219.873 728.884 219.924 729.19 219.822 729.393L204.957 759.888L227.407 729.597C227.56 729.393 227.763 729.292 227.967 729.292C228.171 729.292 228.425 729.393 228.578 729.546L236.265 737.895L230.665 726.543C230.563 726.339 230.563 726.135 230.614 725.983L237.487 705.161L224.251 723.284C224.098 723.488 223.793 723.641 223.538 723.59C223.284 723.539 223.029 723.386 222.927 723.132L214.985 703.125L214.578 724.303C214.578 724.659 214.324 724.964 213.916 725.066L198.135 727.612Z" fill="black"/>
<path d="M526.494 176.173C525.832 173.525 525.17 170.827 524.508 168.18C517.737 172.813 507.301 181.162 498.239 194.601C488.923 208.449 485.105 221.634 483.425 229.677C475.942 236.906 467.033 247.393 460.007 261.648C457.767 266.281 455.986 270.71 454.56 274.884C440.051 243.677 424.473 211.045 407.775 177.14C396.626 154.537 388.634 144.457 377.383 139.162C361.55 131.73 340.067 167.875 324.998 176.071C308.758 184.929 301.479 198.929 299.137 204.121C312.017 337.552 339.049 421.755 359.463 471.34C374.481 507.789 382.83 518.073 388.583 517.106C402.99 514.662 401.361 437.078 398.968 400.628C397.034 371.152 394.488 358.832 391.434 342.643C395.608 349.618 402.023 359.646 410.932 371.101C421.164 384.286 426.459 391.006 434.349 395.69C438.575 398.235 455.884 408.569 475.687 401.951C498.392 394.315 505.316 370.643 505.927 368.403L547.264 266.128L567.577 214.456C570.58 203.358 567.475 191.496 559.431 183.503C550.828 175.154 538.05 172.253 526.494 176.173Z" fill="#524FA0"/>
<path d="M387.719 518.073C382.883 518.073 375.094 511.557 358.701 471.798C328.767 399.05 308.455 309.044 298.375 204.325V204.122L298.477 203.918C301.684 196.893 309.422 183.809 324.695 175.511C329.989 172.609 336.149 166.144 342.665 159.271C354.68 146.646 367.101 133.563 377.741 138.552C389.145 143.897 397.239 153.926 408.541 176.835C424.17 208.551 439.646 240.827 454.562 272.899C455.987 268.979 457.617 265.059 459.449 261.343C465.253 249.532 473.093 238.739 482.816 229.321C485.463 216.696 490.503 204.885 497.681 194.194C504.758 183.656 513.667 174.697 524.154 167.569L525.07 166.958L527.106 175.206C538.663 171.591 551.441 174.646 559.942 183.096C568.19 191.293 571.397 203.46 568.291 214.812L568.24 214.914L547.928 266.586L506.59 368.861C505.776 371.712 498.649 395.181 475.842 402.868C466.678 405.973 451.915 407.348 433.893 396.555C425.748 391.668 420.25 384.643 410.272 371.763C404.061 363.77 398.206 355.37 392.912 346.818C395.61 360.97 397.901 373.799 399.683 400.781C400.905 419.617 401.821 448.176 400.752 471.849C399.377 501.783 395.406 516.902 388.636 518.073C388.381 518.073 388.076 518.073 387.719 518.073ZM299.902 204.376C309.982 308.84 330.244 398.643 360.127 471.187C373.109 502.699 382.374 517.513 388.432 516.495C391.741 515.935 397.595 509.368 399.275 471.696C400.345 448.075 399.428 419.617 398.206 400.832C396.374 373.036 393.981 360.309 391.181 345.545L389.908 338.723L392.097 342.389C397.952 352.112 404.468 361.683 411.544 370.745C422.133 384.388 427.173 390.599 434.708 395.13C452.271 405.617 466.525 404.293 475.384 401.29C497.529 393.857 504.401 370.898 505.114 368.301L505.165 368.199L546.503 265.924L566.764 214.303C569.666 203.511 566.611 191.904 558.771 184.115C550.473 175.867 537.899 173.017 526.699 176.835L525.885 177.089L524.001 169.351C514.074 176.275 505.623 184.929 498.801 194.958C491.674 205.547 486.736 217.256 484.089 229.779L484.038 230.034L483.885 230.187C474.213 239.503 466.373 250.194 460.62 261.954C458.533 266.179 456.7 270.608 455.224 275.139L454.613 276.972L453.798 275.241C438.679 242.659 422.897 209.772 407.014 177.497C395.916 154.944 388.025 145.119 376.978 139.875C367.356 135.344 354.782 148.581 343.683 160.239C337.065 167.213 330.855 173.78 325.306 176.784C310.644 184.929 303.109 197.504 299.902 204.376Z" fill="black"/>
<path d="M309.065 196.943C313.545 238.535 323.727 317.036 339.152 317.494C353.508 317.901 372.65 250.855 380.235 206.107C380.897 202.136 381.406 198.725 381.813 196.128C383.85 191.343 381.559 183.91 379.726 177.598C375.195 161.867 355.748 155.809 338.388 160.187C314.054 166.296 305.451 194.092 304.891 195.874" fill="black"/>
<path d="M264.877 192.005C264.47 192.005 264.164 191.7 264.113 191.343L258.564 144.151C258.513 143.744 258.819 143.337 259.226 143.286C259.633 143.235 260.04 143.54 260.091 143.948L265.64 191.14C265.691 191.547 265.386 191.954 264.979 192.005C264.928 192.005 264.877 192.005 264.877 192.005Z" fill="black"/>
<path d="M373.31 195.264L362.925 208.755C359.31 213.438 352.794 214.711 347.703 211.707C342.511 208.653 340.474 202.136 343.071 196.689L351.216 179.33L293.69 191.904L306.213 202.595C310.693 206.413 311.66 213.591 308.351 218.478C306.366 221.431 302.395 222.245 299.391 220.362L273.683 204.58C268.286 201.271 264.875 195.417 264.723 189.104L264.57 183.708L252.708 176.682C248.737 174.34 245.887 170.522 244.767 166.042L243.85 162.326C243.799 162.072 243.748 161.817 243.698 161.562C242.17 153.977 247.057 146.595 254.541 144.661L334.773 124.145C342.256 122.719 358.751 120.683 377.689 127.607C382.729 129.439 387.208 131.628 391.077 133.97C400.699 139.672 403.449 152.348 397.034 161.562C389.143 172.762 381.252 184.013 373.31 195.264Z" fill="#3FD1FF"/>
<path d="M302.905 222.092C301.581 222.092 300.206 221.736 298.985 220.972L273.225 205.242C267.574 201.78 264.061 195.773 263.909 189.104L263.807 184.165L252.302 177.395C248.178 174.951 245.174 170.929 244.004 166.297L243.087 162.529C243.036 162.275 242.985 162.02 242.935 161.766C241.305 153.824 246.345 146.035 254.338 143.948L334.621 123.432C344.853 121.497 360.584 120.53 377.994 126.893C382.678 128.624 387.209 130.763 391.536 133.308C396.322 136.159 399.732 140.893 400.903 146.29C402.074 151.788 400.954 157.337 397.747 161.969L374.075 195.722C374.075 195.722 374.075 195.722 374.075 195.773L363.689 209.263C359.871 214.252 352.897 215.576 347.5 212.369C341.951 209.06 339.813 202.187 342.562 196.333L350.046 180.347L295.574 192.26L306.926 201.983C311.712 206.056 312.73 213.641 309.217 218.834C307.588 220.972 305.297 222.092 302.905 222.092ZM350.046 123.483C344.242 123.483 339.1 124.094 334.926 124.908L254.694 145.424C247.465 147.257 242.934 154.333 244.411 161.46C244.462 161.715 244.513 161.918 244.564 162.173L245.48 165.94C246.549 170.166 249.298 173.882 253.065 176.122L264.927 183.147C265.131 183.3 265.283 183.504 265.283 183.809L265.436 189.205C265.589 195.314 268.796 200.863 274.04 204.071L299.799 219.801C302.497 221.43 305.959 220.718 307.741 218.121C310.795 213.59 309.879 206.82 305.705 203.256L293.181 192.565C292.977 192.362 292.876 192.056 292.927 191.802C292.977 191.496 293.232 191.293 293.487 191.242L351.013 178.667C351.318 178.616 351.573 178.718 351.777 178.922C351.98 179.125 351.98 179.482 351.878 179.736L343.733 197.096C341.34 202.238 343.173 208.296 348.06 211.147C352.795 213.947 358.904 212.776 362.264 208.398L372.649 194.907L396.322 161.155C399.325 156.879 400.343 151.737 399.274 146.697C398.205 141.606 395.1 137.33 390.62 134.682C386.394 132.188 381.965 130.05 377.333 128.37C367.507 124.704 358.14 123.483 350.046 123.483Z" fill="black"/>
<path d="M306.315 162.631C296.694 165.024 287.072 167.416 277.399 169.809C270.781 171.438 265.741 176.834 264.57 183.605C264.57 183.656 264.57 183.656 264.57 183.707" fill="#3FD1FF"/>
<path d="M264.569 184.471C264.518 184.471 264.467 184.471 264.416 184.471C264.009 184.42 263.703 184.012 263.805 183.605V183.503C265.027 176.478 270.27 170.827 277.194 169.096L306.11 161.918C306.517 161.816 306.924 162.071 307.026 162.478C307.128 162.885 306.873 163.293 306.466 163.395L277.55 170.573C271.238 172.151 266.401 177.293 265.332 183.758V183.86C265.281 184.216 264.925 184.471 264.569 184.471Z" fill="black"/>
<path d="M343.659 334.04L310.532 330.708L307.617 359.682L340.745 363.014L343.659 334.04Z" fill="black"/>
<path d="M337.648 289.025L325.441 287.797L323.754 304.563L335.962 305.791L337.648 289.025Z" fill="white"/>
<path d="M335.946 306.549C335.895 306.549 335.895 306.549 335.844 306.549L323.626 305.327C323.423 305.327 323.219 305.225 323.117 305.073C322.964 304.92 322.913 304.716 322.964 304.513L324.644 287.764C324.644 287.56 324.746 287.356 324.899 287.255C325.052 287.102 325.255 287.051 325.459 287.102L337.677 288.324C338.084 288.375 338.39 288.731 338.339 289.138L336.659 305.887C336.659 306.243 336.302 306.549 335.946 306.549ZM324.543 303.902L335.233 304.971L336.761 289.749L326.07 288.68L324.543 303.902Z" fill="black"/>
<path d="M281.065 310.825L272.105 307.16L313.952 207.176L322.861 210.892L281.065 310.825Z" fill="white"/>
<path d="M281.065 311.589C280.964 311.589 280.862 311.589 280.76 311.538L271.8 307.822C271.596 307.72 271.444 307.618 271.393 307.415C271.291 307.211 271.291 307.007 271.393 306.804L313.189 206.82C313.341 206.412 313.799 206.26 314.207 206.412L323.167 210.129C323.37 210.23 323.523 210.332 323.574 210.536C323.676 210.74 323.676 210.943 323.574 211.147L281.778 311.131C281.676 311.436 281.371 311.589 281.065 311.589ZM273.124 306.753L280.658 309.858L321.894 211.3L314.359 208.194L273.124 306.753Z" fill="black"/>
<path d="M377.077 322.89L327.34 213.692L336.147 209.67L385.885 318.818L377.077 322.89Z" fill="white"/>
<path d="M377.079 323.654C376.978 323.654 376.876 323.654 376.825 323.603C376.621 323.552 376.468 323.399 376.418 323.196L326.68 213.997C326.527 213.59 326.68 213.183 327.036 212.979L335.793 208.906C335.996 208.805 336.2 208.805 336.404 208.906C336.607 208.957 336.76 209.11 336.811 209.314L386.548 318.512C386.701 318.919 386.548 319.327 386.192 319.53L377.436 323.603C377.334 323.654 377.181 323.654 377.079 323.654ZM328.36 214.099L377.436 321.872L384.817 318.461L335.742 210.688L328.36 214.099Z" fill="black"/>
<path d="M333.805 432.072L300.678 428.739L298.645 448.95L331.772 452.283L333.805 432.072Z" fill="black"/>
<path d="M350.758 296.724L310.999 292.702C306.264 292.244 302.802 288.018 303.311 283.284L303.362 282.775L360.227 288.476L360.176 288.985C359.667 293.72 355.442 297.182 350.758 296.724Z" fill="white"/>
<path d="M351.624 297.538C351.319 297.538 351.013 297.538 350.657 297.487L310.897 293.465C308.403 293.211 306.163 291.989 304.585 290.055C303.006 288.12 302.243 285.676 302.497 283.182L302.548 282.673C302.548 282.469 302.65 282.266 302.803 282.164C302.956 282.011 303.159 281.96 303.363 282.011L360.227 287.713C360.431 287.713 360.635 287.815 360.737 287.967C360.889 288.12 360.94 288.324 360.889 288.527L360.838 289.036C360.431 293.924 356.358 297.538 351.624 297.538ZM350.809 295.96C355.035 296.367 358.802 293.364 359.362 289.189L304.025 283.64C303.872 285.626 304.483 287.56 305.755 289.138C307.079 290.767 308.963 291.785 311.05 291.989L350.809 295.96Z" fill="black"/>
<path d="M353.813 366.061L294.148 360.054L294.199 359.595C294.658 355.217 298.527 352.061 302.905 352.468L346.737 356.897C351.115 357.355 354.271 361.224 353.864 365.603L353.813 366.061Z" fill="white"/>
<path d="M353.815 366.825C353.764 366.825 353.764 366.825 353.713 366.825L294.048 360.817C293.844 360.817 293.641 360.716 293.539 360.563C293.386 360.41 293.335 360.207 293.386 360.003L293.437 359.545C293.692 357.254 294.812 355.167 296.594 353.69C298.375 352.214 300.666 351.552 302.957 351.756L346.789 356.185C349.08 356.439 351.167 357.559 352.644 359.341C354.12 361.123 354.782 363.414 354.578 365.705L354.527 366.163C354.527 366.57 354.222 366.825 353.815 366.825ZM295.015 359.392L353.153 365.246C353.255 363.465 352.695 361.683 351.524 360.257C350.302 358.781 348.571 357.865 346.687 357.661L302.855 353.232C300.972 353.028 299.088 353.588 297.612 354.81C296.186 355.981 295.27 357.61 295.015 359.392Z" fill="black"/>
<path d="M364.085 323.766L292.562 316.571L291.16 330.501L362.683 337.696L364.085 323.766Z" fill="black"/>
<path d="M353.102 467.521L274.601 459.63C266.812 458.866 259.685 454.794 254.951 448.532C250.267 442.27 248.383 434.278 249.86 426.59L265.234 344.832C267.576 332.257 274.55 321.108 284.783 313.472C295.016 305.836 307.692 302.323 320.368 303.596L339.102 305.479C351.778 306.752 363.487 312.708 371.989 322.228C380.491 331.748 385.073 344.017 384.92 356.795L383.902 440.03C383.8 447.87 380.389 455.354 374.535 460.597C368.731 465.739 360.942 468.284 353.102 467.521ZM318.739 320.243C300.972 318.461 285.088 330.323 281.83 347.886L266.456 429.645C265.845 432.75 266.609 435.856 268.492 438.401C270.376 440.947 273.176 442.525 276.332 442.83L354.833 450.772C357.989 451.077 361.044 450.11 363.386 447.972C365.778 445.834 367.102 442.932 367.102 439.776L368.12 356.541C368.324 338.723 355.138 323.959 337.422 322.177L318.739 320.243Z" fill="white"/>
<path d="M355.902 468.387C354.935 468.387 354.018 468.336 353.051 468.234L274.55 460.343C266.558 459.529 259.227 455.405 254.391 448.94C249.554 442.525 247.671 434.278 249.147 426.387L264.521 344.628C266.914 331.85 273.94 320.548 284.376 312.81C294.761 305.021 307.59 301.458 320.521 302.782L339.255 304.665C352.135 305.937 363.997 311.996 372.651 321.669C381.305 331.341 385.938 343.763 385.785 356.744L384.767 439.98C384.665 448.023 381.153 455.71 375.145 461.107C369.8 465.79 362.927 468.387 355.902 468.387ZM315.277 304.054C304.485 304.054 293.997 307.516 285.241 314.032C275.161 321.567 268.34 332.563 265.998 344.934L250.624 426.693C249.198 434.176 251.031 441.965 255.562 448.074C260.143 454.183 267.067 458.103 274.652 458.867L353.204 466.758C360.789 467.521 368.426 465.027 374.076 459.987C379.778 454.896 383.087 447.616 383.189 439.98L384.207 356.744C384.36 344.17 379.829 332.105 371.48 322.687C363.131 313.269 351.626 307.465 339.102 306.192L320.368 304.309C318.637 304.105 316.957 304.054 315.277 304.054ZM355.953 451.587C355.546 451.587 355.138 451.586 354.731 451.535L276.23 443.645C272.87 443.288 269.867 441.609 267.881 438.911C265.845 436.212 265.082 432.853 265.692 429.543L281.067 347.785C284.427 329.865 300.666 317.698 318.841 319.53L337.575 321.414C355.698 323.247 369.189 338.316 368.935 356.541L367.916 439.776C367.866 443.187 366.44 446.292 363.946 448.532C361.655 450.518 358.906 451.587 355.953 451.587ZM315.226 320.854C299.292 320.854 285.598 332.054 282.594 348.039L267.22 429.798C266.66 432.7 267.372 435.602 269.103 437.994C270.885 440.336 273.481 441.812 276.383 442.117L354.884 450.008C357.837 450.314 360.687 449.398 362.877 447.412C365.066 445.427 366.338 442.729 366.338 439.776L367.356 356.541C367.56 339.13 354.68 324.723 337.371 322.941L318.637 321.058C317.517 320.905 316.346 320.854 315.226 320.854Z" fill="black"/>
<path d="M319.095 430.256L315.378 429.9C298.171 428.169 285.648 412.845 287.379 395.638L287.888 390.547C289.619 373.34 304.942 360.817 322.149 362.548L325.865 362.904C343.072 364.635 355.596 379.958 353.865 397.166L353.356 402.256C351.625 419.463 336.302 431.987 319.095 430.256Z" fill="#F9D84E"/>
<path d="M322.301 431.172C321.232 431.172 320.112 431.121 319.042 431.019L315.326 430.663C297.763 428.881 284.883 413.15 286.665 395.587L287.174 390.496C288.039 381.995 292.163 374.307 298.781 368.911C305.399 363.515 313.748 360.969 322.25 361.835L325.966 362.191C343.529 363.973 356.409 379.704 354.627 397.267L354.118 402.358C353.253 410.86 349.129 418.547 342.511 423.943C336.708 428.678 329.631 431.172 322.301 431.172ZM318.992 363.158C311.966 363.158 305.246 365.551 299.748 370.031C293.436 375.173 289.516 382.504 288.701 390.598L288.192 395.689C286.512 412.438 298.73 427.405 315.479 429.085L319.195 429.441C327.29 430.256 335.231 427.863 341.544 422.721C347.857 417.579 351.777 410.249 352.591 402.154L353.1 397.063C354.78 380.315 342.562 365.347 325.813 363.667L322.097 363.311C321.079 363.209 320.01 363.158 318.992 363.158Z" fill="black"/>
<path d="M273.022 306.498C268.186 305.989 263.91 309.502 263.401 314.338C262.892 319.174 266.404 323.451 271.241 323.96C276.077 324.469 280.353 320.956 280.862 316.12C281.371 311.283 277.859 307.007 273.022 306.498ZM271.699 319.785C269.204 319.531 267.371 317.291 267.626 314.796C267.881 312.302 270.121 310.469 272.615 310.723C275.11 310.978 276.942 313.218 276.688 315.712C276.433 318.207 274.193 320.04 271.699 319.785Z" fill="#524FA0"/>
<path d="M272.156 324.774C271.851 324.774 271.494 324.774 271.189 324.723C265.945 324.214 262.127 319.531 262.687 314.287C262.942 311.742 264.164 309.451 266.149 307.873C268.135 306.244 270.578 305.531 273.124 305.785C275.669 306.04 277.96 307.262 279.538 309.247C281.167 311.233 281.88 313.676 281.625 316.222C281.371 318.767 280.149 321.058 278.163 322.636C276.484 324.011 274.345 324.774 272.156 324.774ZM272.156 307.211C270.324 307.211 268.542 307.822 267.116 308.993C265.436 310.367 264.418 312.251 264.215 314.389C263.756 318.767 266.964 322.687 271.393 323.145C273.531 323.349 275.618 322.738 277.247 321.363C278.927 319.989 279.945 318.105 280.149 315.967C280.353 313.829 279.742 311.742 278.367 310.113C276.993 308.484 275.109 307.415 272.971 307.211C272.665 307.262 272.411 307.211 272.156 307.211ZM272.156 320.549C271.953 320.549 271.8 320.549 271.596 320.498C268.695 320.193 266.556 317.596 266.811 314.694C266.964 313.269 267.625 311.996 268.745 311.131C269.865 310.214 271.24 309.807 272.665 309.96C274.091 310.113 275.364 310.774 276.229 311.894C277.094 313.014 277.553 314.389 277.4 315.814C277.247 317.24 276.585 318.513 275.465 319.378C274.549 320.142 273.378 320.549 272.156 320.549ZM271.8 319.022C272.818 319.123 273.785 318.818 274.6 318.207C275.364 317.545 275.873 316.68 275.974 315.662C276.076 314.644 275.771 313.676 275.16 312.862C274.498 312.098 273.633 311.589 272.614 311.487C271.596 311.385 270.629 311.691 269.815 312.302C269 312.913 268.542 313.829 268.44 314.847C268.185 316.934 269.713 318.818 271.8 319.022Z" fill="black"/>
<path d="M385.378 317.8C380.541 317.291 376.265 320.803 375.756 325.64C375.247 330.476 378.76 334.752 383.596 335.261C388.432 335.77 392.709 332.258 393.218 327.421C393.676 322.585 390.163 318.309 385.378 317.8ZM384.003 331.087C381.509 330.832 379.676 328.592 379.931 326.098C380.185 323.603 382.425 321.771 384.92 322.025C387.414 322.28 389.247 324.52 388.992 327.014C388.738 329.509 386.549 331.341 384.003 331.087Z" fill="#524FA0"/>
<path d="M384.511 336.076C384.206 336.076 383.85 336.076 383.544 336.025C380.999 335.771 378.708 334.549 377.13 332.563C375.501 330.578 374.788 328.134 375.043 325.589C375.297 323.044 376.519 320.753 378.504 319.174C380.49 317.545 382.933 316.833 385.479 317.087C390.722 317.596 394.54 322.28 393.98 327.523C393.471 332.411 389.297 336.076 384.511 336.076ZM384.461 318.513C382.628 318.513 380.846 319.124 379.421 320.294C377.741 321.669 376.723 323.553 376.519 325.691C376.315 327.829 376.926 329.916 378.301 331.545C379.675 333.225 381.559 334.243 383.697 334.447C388.075 334.905 391.995 331.698 392.453 327.269C392.911 322.891 389.704 318.971 385.275 318.513C385.021 318.564 384.715 318.513 384.461 318.513ZM384.511 331.851C384.308 331.851 384.155 331.851 383.952 331.8C382.526 331.647 381.253 330.985 380.388 329.865C379.522 328.745 379.064 327.371 379.217 325.945C379.37 324.52 380.032 323.247 381.152 322.382C382.272 321.465 383.646 321.058 385.072 321.211C386.497 321.364 387.77 322.025 388.635 323.145C389.551 324.265 389.959 325.64 389.806 327.065C389.653 328.491 388.991 329.763 387.871 330.629C386.904 331.443 385.733 331.851 384.511 331.851ZM384.461 322.738C383.595 322.738 382.73 323.044 382.068 323.604C381.304 324.265 380.795 325.131 380.693 326.149C380.592 327.167 380.897 328.134 381.508 328.949C382.17 329.713 383.035 330.222 384.053 330.323C385.072 330.425 386.039 330.12 386.853 329.509C387.617 328.847 388.126 327.982 388.228 326.963C388.33 325.945 388.024 324.978 387.413 324.164C386.751 323.4 385.886 322.891 384.868 322.789C384.715 322.738 384.613 322.738 384.461 322.738Z" fill="black"/>
<path d="M323.016 190.376C315.125 191.394 309.576 198.623 310.543 206.514C311.561 214.405 318.79 219.954 326.681 218.987C334.572 217.968 340.121 210.739 339.154 202.849C338.084 194.907 330.906 189.358 323.016 190.376ZM325.816 212.063C321.692 212.572 317.976 209.67 317.416 205.598C316.856 201.525 319.808 197.758 323.881 197.198C328.005 196.689 331.721 199.59 332.281 203.663C332.79 207.787 329.888 211.554 325.816 212.063Z" fill="#524FA0"/>
<path d="M324.795 219.801C321.486 219.801 318.228 218.732 315.581 216.645C312.374 214.15 310.337 210.587 309.828 206.565C308.759 198.267 314.665 190.631 322.912 189.612C326.933 189.103 330.904 190.172 334.112 192.667C337.319 195.161 339.355 198.725 339.864 202.747C340.933 211.045 335.028 218.681 326.781 219.699C326.119 219.801 325.457 219.801 324.795 219.801ZM323.115 191.14C315.632 192.107 310.388 198.929 311.305 206.412C311.763 210.027 313.595 213.234 316.497 215.474C319.399 217.714 322.963 218.681 326.577 218.223C334.061 217.256 339.304 210.434 338.388 202.95C337.421 195.467 330.548 190.172 323.115 191.14ZM324.846 212.928C320.774 212.928 317.21 209.874 316.65 205.75C316.09 201.219 319.246 197.096 323.777 196.536C328.308 195.976 332.432 199.132 332.992 203.663C333.552 208.194 330.395 212.317 325.864 212.877C325.508 212.877 325.203 212.928 324.846 212.928ZM324.846 197.91C324.541 197.91 324.286 197.91 323.981 197.961C320.315 198.419 317.719 201.83 318.177 205.496C318.635 209.161 322.046 211.757 325.712 211.299C329.377 210.841 331.973 207.43 331.515 203.765C331.057 200.405 328.155 197.91 324.846 197.91Z" fill="black"/>
<path d="M341.597 400.322C335.844 406.584 337.015 409.791 332.637 412.693C325.815 417.172 319.502 411.827 310.797 415.849C305.91 418.089 303.008 422.009 301.379 424.656C315.073 433.056 332.077 431.834 343.022 422.111C355.953 410.605 353.815 393.042 353.611 391.616C350.455 393.144 345.822 395.74 341.597 400.322Z" fill="black"/>
<path d="M293.539 425.929L341.342 430.715L341.291 431.173C340.833 435.551 336.964 438.707 332.586 438.3L300.616 435.093C296.238 434.635 293.081 430.766 293.488 426.388L293.539 425.929Z" fill="white"/>
<path d="M294.201 426.744C293.946 430.562 296.797 433.922 300.666 434.329L332.636 437.536C336.455 437.893 339.916 435.195 340.476 431.427L294.201 426.744ZM333.349 439.115C333.044 439.115 332.789 439.114 332.484 439.064L300.513 435.856C295.728 435.398 292.266 431.122 292.724 426.336L292.775 425.879C292.826 425.472 293.182 425.166 293.59 425.217L341.393 430.002C341.596 430.002 341.8 430.104 341.902 430.256C342.055 430.409 342.105 430.613 342.055 430.817L342.004 431.275C341.596 435.755 337.778 439.115 333.349 439.115Z" fill="black"/>
<path d="M353.439 468.214L274.266 460.249L273.461 468.252L352.633 476.216L353.439 468.214Z" fill="black"/>
<path d="M353.51 488.343L270.122 479.943C266.864 479.638 264.471 476.685 264.776 473.427L264.827 472.714C265.133 469.456 268.085 467.063 271.343 467.369L354.731 475.769C357.99 476.074 360.382 479.027 360.077 482.285L360.026 482.998C359.67 486.256 356.768 488.649 353.51 488.343Z" fill="white"/>
<path d="M354.12 489.106C353.916 489.106 353.662 489.106 353.458 489.055L270.07 480.656C266.405 480.299 263.706 476.99 264.063 473.274L264.114 472.562C264.317 470.78 265.183 469.151 266.557 468.031C267.932 466.911 269.714 466.351 271.496 466.554L354.883 474.954C358.549 475.31 361.247 478.619 360.891 482.335L360.84 483.048C360.432 486.51 357.48 489.106 354.12 489.106ZM270.783 468.082C269.612 468.082 268.441 468.489 267.525 469.253C266.456 470.118 265.794 471.391 265.641 472.765L265.59 473.477C265.285 476.328 267.372 478.874 270.223 479.179L353.611 487.579C356.462 487.885 359.007 485.797 359.312 482.946L359.363 482.234C359.669 479.383 357.582 476.837 354.731 476.532L271.343 468.133C271.139 468.133 270.935 468.082 270.783 468.082Z" fill="black"/>
<path d="M455.275 584.05C477.42 584.814 495.391 591.33 531.281 605.126C550.27 612.406 567.07 620.093 595.426 626.864C597.411 627.322 602.553 628.544 608.204 629.664C664.508 640.762 752.987 639.795 762.863 642.289C769.176 643.918 775.438 645.853 775.438 645.853C775.54 645.904 775.794 645.955 776.049 646.056C776.049 646.056 780.936 647.584 785.874 649.366C798.856 653.998 815.961 662.093 815.961 662.093C829.299 668.354 835.968 671.511 845.03 676.805C855.313 682.761 864.273 688.972 872.062 694.929C854.651 635.875 834.695 591.279 819.575 561.141C805.474 533.091 797.379 521.382 778.085 481.673C760.776 446.038 751.867 423.638 736.136 386.475C722.951 355.37 703.657 310.723 678.61 255.997C671.788 207.532 664.967 159.016 658.145 110.552C611.767 125.519 565.39 140.435 518.961 155.402C528.277 191.14 537.543 226.826 546.859 262.564C531.637 311.792 513.718 347.632 499.718 371.763C489.536 389.275 478.387 405.922 466.271 434.838C455.682 460.089 453.035 473.935 445.908 496.437C438.424 520.058 426.002 553.149 404.672 591.992C405.537 592.195 406.352 592.348 407.217 592.552C409.05 589.854 417.501 582.777 455.275 584.05Z" fill="#524FA0"/>
<path d="M818.912 561.549C839.581 602.632 857.093 647.177 870.991 693.962L870.737 693.911C871.093 694.471 871.449 695.082 871.704 695.693L871.907 695.743L873.18 695.998L872.824 694.776C858.875 647.482 841.159 602.428 820.286 560.887C814.432 549.28 809.697 540.575 804.657 531.309C797.53 518.226 790.149 504.684 778.847 481.419C764.593 452.096 756.244 432.191 744.687 404.65C742.244 398.846 739.698 392.788 736.898 386.221C718.826 343.56 699.532 299.728 679.423 255.794L658.856 109.534L518.145 154.842L546.145 262.463C533.927 302.018 518.094 338.621 499.156 371.305C497.222 374.665 495.236 377.974 493.149 381.435C484.444 395.995 475.433 411.064 465.658 434.482C458.226 452.198 454.611 464.62 450.793 477.754C449.113 483.506 447.382 489.412 445.295 496.132C435.165 528.153 421.318 560.276 404.111 591.534L403.602 592.45L532.094 620.755C532.094 620.246 532.094 619.737 532.094 619.177L405.943 591.381C422.947 560.276 436.641 528.408 446.72 496.59C448.859 489.87 450.59 483.914 452.219 478.212C456.189 464.569 459.6 452.758 467.033 435.093C476.807 411.777 485.767 396.759 494.473 382.25C496.56 378.788 498.494 375.479 500.48 372.119C519.519 339.283 535.403 302.477 547.672 262.768L547.723 262.564L519.978 155.911L657.583 111.57L675.656 240.165L677.896 256.252L677.946 256.354C698.055 300.287 717.4 344.171 735.422 386.832C738.171 393.399 740.767 399.457 743.211 405.261C754.818 432.802 763.167 452.707 777.421 482.081C788.723 505.397 796.156 518.939 803.283 532.073C808.323 541.236 813.057 549.942 818.912 561.549Z" fill="black"/>
<path d="M650 92.7344C646.488 99.098 642.619 105.258 639.31 111.723C639.157 112.029 638.699 111.774 638.851 111.469C642.16 105.003 645.979 98.8434 649.542 92.5308C648.422 92.0217 647.2 91.6144 645.979 91.2072C641.244 89.6799 635.644 90.0363 629.942 91.4617C630.706 93.1926 631.521 94.8726 632.284 96.5525C633.761 99.8616 635.084 103.323 636.459 106.683C636.56 106.989 636.102 107.141 635.95 106.836C634.473 103.222 633.099 99.5561 631.419 96.0434C630.757 94.5671 629.993 93.0908 629.382 91.6144C612.939 95.8398 595.579 108.516 594.001 109.534C589.827 102.967 587.688 97.2653 586.518 93.2435C584.888 87.7963 584.685 83.9782 581.427 80.2109C578.423 76.7492 574.656 75.0183 572.009 74.1528C572.772 71.9129 575.979 61.6803 570.94 50.3277C566.001 39.2297 556.583 34.7497 554.343 33.7316C556.736 24.7717 559.078 15.8118 561.471 6.85203C561.471 6.39386 561.572 4.10298 559.892 2.37209C558.111 0.5903 555.107 0.183031 552.511 1.50665C546.656 6.44476 540.853 11.332 534.998 16.27C531.435 16.4736 526.191 17.1354 520.235 19.1718C515.857 20.699 506.897 23.9572 499.311 32.6116C492.897 39.9424 490.453 47.7823 489.435 52.2622C488.977 55.9276 487.857 61.273 484.548 66.7202C481.239 72.1165 479.559 71.3529 477.421 75.3746C472.686 84.1818 476.555 95.5853 479.763 105.105C480.068 105.971 480.934 108.414 482.257 111.52C485.108 118.341 488.213 124.196 491.217 129.185C493.508 133.003 493.864 135.294 494.322 137.737C496.104 147.206 491.522 151.381 493.202 156.777C494.272 160.239 497.988 164.312 509.493 166.959C514.482 167.315 519.522 167.722 524.511 168.079C524.307 168.588 522.882 172.712 525.275 176.479C527.311 179.686 531.282 181.315 535.304 180.551C543.449 175.766 551.594 170.981 559.689 166.195L640.786 118.545C650.306 115.643 659.775 112.792 669.295 109.891C667.767 107.345 661.811 97.978 650 92.7344Z" fill="#524FA0"/>
<path d="M629.125 90.9007C616.5 94.1589 602.958 102.457 594.405 108.413C594.354 108.464 594.354 108.464 594.303 108.515C591.198 103.526 588.856 98.3334 587.278 93.0389C586.871 91.7153 586.565 90.4935 586.26 89.2717C585.394 85.7081 584.58 82.6536 582.035 79.7009C579.744 77.0537 576.689 75.0173 572.973 73.6428C574.246 69.4683 576.18 60.1521 571.649 50.0213C567.169 39.9923 559.126 35.1561 555.257 33.3233L562.231 7.05471C562.231 7.0038 562.231 6.9529 562.231 6.90199C562.282 5.98564 562.231 3.64385 560.449 1.86205C558.413 -0.174282 555.002 -0.581549 552.151 0.843886C552.1 0.894795 552.05 0.894793 551.999 0.945701L534.69 15.5054C529.65 15.8109 524.712 16.7781 519.977 18.4581C515.955 19.8326 506.639 23.0908 498.748 32.1525C493.861 37.7524 490.399 44.6759 488.719 52.1595C488.719 52.2104 488.719 52.2104 488.719 52.2613C488.109 57.5048 486.479 62.2393 483.934 66.4138C482.305 69.112 481.032 70.2319 479.963 71.1992C478.894 72.1665 477.876 73.0828 476.807 75.1191C471.92 84.2318 475.89 95.9916 479.098 105.461C479.403 106.428 480.32 108.821 481.592 111.926C484.138 118.035 487.192 124.042 490.603 129.693C492.69 133.155 493.098 135.344 493.556 137.635L493.607 138.042C494.523 142.98 493.708 146.391 492.945 149.445C492.283 152.144 491.672 154.485 492.538 157.183C494.065 162.02 499.716 165.634 509.388 167.874C509.439 167.874 509.49 167.874 509.49 167.874L523.541 168.943C523.134 170.623 522.675 173.932 524.712 177.089C526.544 179.99 529.904 181.721 533.468 181.721C534.13 181.721 534.842 181.67 535.504 181.518C535.606 181.518 535.657 181.467 535.759 181.416L560.144 167.06C560.5 166.856 560.653 166.398 560.398 165.991C560.195 165.634 559.737 165.482 559.329 165.736L535.046 179.99C531.432 180.601 527.817 179.125 525.933 176.223C523.795 172.863 524.966 169.198 525.221 168.485C525.323 168.282 525.272 168.027 525.17 167.823C525.017 167.62 524.813 167.518 524.559 167.467L509.592 166.347C500.53 164.209 495.236 161.002 493.912 156.674C493.199 154.384 493.708 152.347 494.37 149.802C495.134 146.798 496.05 143.031 495.083 137.736L495.032 137.329C494.574 134.987 494.167 132.595 491.876 128.878C488.465 123.278 485.461 117.373 482.967 111.315C481.694 108.261 480.829 105.868 480.523 104.951C477.418 95.737 473.549 84.3336 478.13 75.8319C479.098 73.9992 479.963 73.2355 480.981 72.3192C482.152 71.2501 483.476 70.0792 485.258 67.1774C487.905 62.8502 489.585 57.9121 490.247 52.4649C491.876 45.2359 495.236 38.5669 499.97 33.1706C507.556 24.4653 516.668 21.2581 520.537 19.9344C525.221 18.3054 530.108 17.3381 535.097 17.0327C535.25 17.0327 535.402 16.9817 535.555 16.829L553.017 2.1675C555.257 1.04752 557.904 1.35297 559.431 2.93113C560.755 4.25475 560.806 6.13836 560.806 6.74926L553.679 33.527C553.577 33.8833 553.78 34.2906 554.086 34.4433C557.446 35.9197 565.795 40.5014 570.275 50.6322C574.856 60.9157 572.515 70.3338 571.293 73.8973C571.242 74.101 571.242 74.3046 571.344 74.5082C571.446 74.7119 571.598 74.8137 571.802 74.9155C575.569 76.1882 578.624 78.1227 580.915 80.77C583.256 83.4681 583.918 86.2172 584.784 89.6789C585.089 90.9007 585.394 92.1226 585.802 93.4971C587.482 99.1479 590.027 104.697 593.387 109.991C593.489 110.144 593.693 110.297 593.845 110.348C593.998 110.399 594.253 110.348 594.405 110.246C594.558 110.144 594.813 109.991 595.22 109.686C603.772 103.781 617.263 95.4825 629.685 92.3262C629.481 91.8171 629.328 91.3589 629.125 90.9007Z" fill="black"/>
<path d="M560.909 103.73C559.891 105.817 556.48 108.922 552.56 112.537C551.185 113.759 549.76 115.082 548.385 116.406C543.6 120.886 538.916 125.773 537.186 130.253C536.066 133.104 534.335 136.769 532.146 140.536C527.004 149.496 519.571 158.812 513.513 157.489C504.859 155.605 500.99 159.831 501.499 148.58C501.753 142.827 498.953 135.7 493.608 121.548C490.655 113.809 489.994 113.708 487.906 107.344C486.888 104.29 486.023 101.082 484.088 95.7369C483.121 93.0388 482.255 90.7988 481.645 89.3225C481.746 86.7262 482.205 82.7044 483.732 78.1226C485.106 74.1009 488.212 65.2937 496.866 59.7447C500.175 57.6575 503.993 56.3338 508.626 55.7738C519.266 54.4502 525.528 56.3338 531.789 60.712C532.909 61.5265 534.029 62.3919 535.2 63.3083C542.735 69.57 553.273 83.6207 556.174 85.6571C557.956 86.9298 560.349 91.5115 561.316 96.0933C561.52 97.1624 561.673 98.1805 561.723 99.1987C561.723 100.93 561.52 102.457 560.909 103.73Z" fill="black"/>
<path d="M514.686 158.405C514.228 158.405 513.77 158.354 513.311 158.252C510.97 157.743 508.984 157.692 507.355 157.641C505.064 157.59 503.282 157.539 502.112 156.266C500.941 154.994 500.533 152.805 500.737 148.579C500.992 143.132 498.446 136.463 493.355 123.176L492.846 121.852C491.523 118.391 490.708 116.507 489.944 114.827C489.028 112.791 488.315 111.162 487.144 107.598C486.839 106.682 486.584 105.816 486.279 104.798C485.566 102.456 484.701 99.7582 483.377 95.9909C482.614 93.8528 481.799 91.7146 480.985 89.6274L480.934 89.4747V89.3219C481.137 85.402 481.85 81.5839 483.072 77.9185C484.243 74.3549 487.45 64.9368 496.512 59.1332C499.872 56.9951 503.842 55.6206 508.628 55.0606C518.708 53.7879 525.377 55.2133 532.3 60.1005C533.369 60.8641 534.489 61.7296 535.762 62.7477C540.191 66.4132 545.587 72.6749 549.914 77.7148C552.918 81.2275 555.565 84.282 556.685 85.0456C558.722 86.4711 561.165 91.4092 562.132 95.94C562.387 97.06 562.489 98.1291 562.54 99.1472C562.642 101.082 562.336 102.762 561.674 104.034C560.554 106.274 557.144 109.431 553.122 113.045L552.511 113.605C551.34 114.674 550.169 115.743 548.947 116.863C544.722 120.834 539.682 125.925 537.951 130.456C536.729 133.561 534.897 137.329 532.86 140.841C529.704 146.339 521.966 158.405 514.686 158.405ZM482.41 89.2201C483.224 91.3074 484.039 93.3946 484.803 95.4819C486.177 99.3 486.992 101.998 487.755 104.34C488.061 105.307 488.315 106.224 488.621 107.089C489.741 110.551 490.453 112.18 491.37 114.165C492.133 115.845 492.999 117.78 494.323 121.242L494.832 122.565C499.973 136.056 502.57 142.827 502.315 148.579C502.162 152.245 502.468 154.281 503.282 155.146C504.046 155.961 505.421 156.012 507.457 156.063C509.137 156.114 511.224 156.165 513.719 156.725C518.351 157.743 525.02 151.532 531.537 140.129C533.522 136.667 535.355 132.95 536.526 129.947C538.358 125.212 543.296 120.122 547.929 115.845C549.151 114.725 550.322 113.605 551.493 112.536L552.104 111.976C555.82 108.565 559.333 105.409 560.3 103.424C560.809 102.354 561.063 100.98 561.013 99.2491C560.962 98.3327 560.86 97.3146 560.605 96.2964C559.689 91.7655 557.296 87.3874 555.769 86.3183C554.496 85.402 551.951 82.4493 548.693 78.733C544.366 73.744 539.02 67.5331 534.744 63.9695C533.522 62.9514 532.453 62.1368 531.384 61.3732C525.886 57.5042 519.929 55.2133 508.781 56.5878C504.25 57.1478 500.482 58.4205 497.326 60.4569C488.723 66.0059 485.668 75.0676 484.497 78.4275C483.275 81.8893 482.563 85.5547 482.41 89.2201Z" fill="black"/>
<path d="M497.476 100.93C494.727 101.541 492.436 102.101 489.687 102.711C485.36 103.679 481.847 106.988 480.931 111.315C480.422 113.759 480.727 116.406 481.949 118.799L483.324 121.497C485.92 126.486 491.774 128.878 497.069 127.046C498.698 126.486 500.327 125.926 501.956 125.366" fill="#3FD1FF"/>
<path d="M493.457 128.421C489.028 128.421 484.751 125.977 482.664 121.854L481.29 119.156C480.017 116.661 479.61 113.912 480.221 111.163C481.188 106.581 484.853 102.967 489.588 101.949C490.962 101.643 492.235 101.338 493.457 101.083C494.729 100.778 496.002 100.523 497.377 100.218C497.784 100.116 498.191 100.37 498.293 100.778C498.395 101.185 498.14 101.592 497.733 101.694C496.358 102 495.086 102.305 493.864 102.56C492.591 102.865 491.319 103.12 489.944 103.425C485.82 104.341 482.613 107.498 481.748 111.469C481.239 113.861 481.595 116.254 482.715 118.443L484.09 121.141C486.482 125.774 491.98 128.014 496.919 126.283L501.806 124.603C502.213 124.45 502.62 124.654 502.773 125.061C502.926 125.468 502.722 125.876 502.315 126.028L497.428 127.708C496.053 128.217 494.729 128.421 493.457 128.421Z" fill="black"/>
<path d="M509.083 66.0576C506.079 66.7194 494.065 69.2649 491.061 69.9776C481.032 72.2175 475.788 81.941 480.676 89.2719C485.105 95.8899 490.654 102.253 495.032 108.872C501.243 100.014 506.283 91.4609 512.493 82.6028L509.083 66.0576Z" fill="#F9D84E"/>
<path d="M495.032 109.584C494.778 109.584 494.523 109.432 494.421 109.228C492.232 105.97 489.687 102.661 487.243 99.4537C484.8 96.2465 482.254 92.9374 480.014 89.6284C477.825 86.3193 477.418 82.4503 478.945 78.6831C480.829 73.9995 485.309 70.4359 490.858 69.1632C492.334 68.8068 496.152 67.9923 499.818 67.2287C503.534 66.4141 507.352 65.5996 508.879 65.2941C509.083 65.2432 509.287 65.2941 509.439 65.396C509.592 65.4978 509.745 65.7014 509.796 65.905L513.206 82.3994C513.257 82.603 513.207 82.8066 513.105 83.0103C509.999 87.4393 507.148 91.8174 504.399 96.0937C501.599 100.37 498.749 104.799 495.643 109.228C495.49 109.483 495.287 109.584 495.032 109.584ZM508.472 66.9741C506.639 67.3814 503.381 68.0941 500.174 68.7559C496.509 69.5195 492.69 70.385 491.214 70.6904C486.123 71.8613 482.051 75.0686 480.371 79.294C479.047 82.5521 479.403 85.963 481.287 88.8138C483.476 92.1229 486.021 95.381 488.465 98.5882C490.705 101.49 492.996 104.494 495.032 107.497C497.883 103.374 500.53 99.301 503.127 95.2792C505.825 91.0538 508.676 86.7266 511.679 82.3994L508.472 66.9741Z" fill="black"/>
<path d="M871.552 695.081C867.835 694.674 864.119 694.318 860.403 693.911L850.832 691.823L799.414 680.471L788.113 677.976L596.697 635.62L536.727 622.333L406.758 593.468C406.758 593.468 408.947 582.472 455.274 584.05C476.91 584.763 504.247 594.741 531.28 605.126C553.73 613.781 575.977 622.792 594.61 627.119C601.584 628.748 608.101 629.715 613.853 629.817C653.613 630.275 706.099 628.137 762.913 642.289C767.088 643.359 771.313 644.529 775.487 645.853C779 646.922 782.462 648.093 785.924 649.366C807.254 657.053 827.77 667.336 844.061 676.449C846.963 678.078 851.036 680.114 856.177 683.423C863.05 687.954 868.293 692.18 871.552 695.081Z" fill="black"/>
<path d="M492.996 121.905C492.691 121.905 492.385 121.701 492.283 121.345L489.331 111.774C489.229 111.367 489.432 110.959 489.84 110.807C490.247 110.705 490.654 110.909 490.807 111.316L493.76 120.887C493.862 121.294 493.658 121.701 493.251 121.854C493.149 121.905 493.047 121.905 492.996 121.905Z" fill="black"/>
<path d="M501.141 134.071C502.515 139.366 503.89 144.66 505.315 149.904C506.537 151.279 511.984 157.286 517.533 156.166C520.384 155.606 523.082 153.468 524.966 151.94C525.78 151.279 527.358 150.006 528.886 148.02C531.533 144.66 532.093 141.759 533.467 137.788C534.384 135.141 535.86 131.475 538.304 127.148C536.726 128.879 529.14 137.126 516.82 137.737C509.439 138.093 503.788 135.497 501.141 134.071Z" fill="#F9D84E"/>
<path d="M516.111 157.082C511.122 157.082 506.591 152.551 504.758 150.464C504.656 150.362 504.605 150.26 504.605 150.159L500.431 134.326C500.329 134.021 500.482 133.715 500.685 133.512C500.94 133.308 501.245 133.308 501.5 133.461C504.809 135.242 510.154 137.33 516.772 137.024C527.921 136.515 535.15 129.643 537.747 126.69C538.001 126.384 538.459 126.333 538.765 126.588C539.07 126.792 539.172 127.25 538.968 127.606C537.034 131.017 535.405 134.581 534.183 138.144C533.929 138.908 533.674 139.671 533.42 140.333C532.452 143.235 531.638 145.73 529.449 148.58C527.82 150.617 526.14 151.991 525.427 152.602C523.187 154.435 520.54 156.42 517.638 156.98C517.129 157.031 516.62 157.082 516.111 157.082ZM505.98 149.548C507.558 151.33 512.547 156.369 517.332 155.402C520.132 154.842 522.831 152.653 524.46 151.33C525.223 150.719 526.75 149.497 528.227 147.562C530.263 144.966 531.027 142.675 531.943 139.773C532.198 139.061 532.401 138.297 532.707 137.533C533.47 135.344 534.387 133.104 535.405 130.966C531.536 134.224 525.223 138.093 516.823 138.45C510.816 138.755 505.776 137.126 502.264 135.497L505.98 149.548Z" fill="black"/>
<path d="M552.509 112.537C551.135 113.759 549.709 115.082 548.335 116.406C543.549 120.886 538.866 125.773 537.135 130.253C536.015 133.104 534.284 136.769 532.095 140.537C531.637 140.944 531.179 141.351 530.721 141.758C524.815 147.002 516.161 148.122 509.288 144.304C509.034 144.151 508.83 144.049 508.575 143.897C501.957 139.875 500.074 133.308 499.666 131.831L495.441 114.064C493.761 109.126 492.132 104.188 490.452 99.199C488.314 92.8355 491.928 86.0138 498.394 84.181L523.186 77.2575C526.393 73.1848 539.222 72.523 542.582 75.323C545.28 77.512 545.179 81.6865 543.651 85.3519C548.691 94.4136 547.571 103.526 552.509 112.537Z" fill="#3FD1FF"/>
<path d="M518.147 147.358C514.991 147.358 511.835 146.595 508.933 144.965C508.678 144.813 508.475 144.711 508.22 144.558C501.857 140.638 499.617 134.478 498.955 132.035L494.73 114.268L493.151 109.584C492.031 106.224 490.911 102.864 489.741 99.4533C488.621 96.1952 488.926 92.6825 490.555 89.628C492.184 86.5735 494.882 84.3845 498.191 83.4681L522.78 76.6464C525.02 74.101 530.009 73.2864 532.096 73.0828C536.016 72.6755 540.954 73.0319 543.093 74.7628C546.198 77.3082 545.892 81.839 544.518 85.3517C546.911 89.8826 547.878 94.4134 548.845 98.8424C549.762 103.221 550.729 107.802 553.172 112.231C553.325 112.537 553.274 112.944 553.02 113.148L552.409 113.708C551.238 114.777 550.067 115.846 548.845 116.966C544.62 120.937 539.58 126.028 537.849 130.558C536.627 133.664 534.794 137.431 532.758 140.944C532.707 140.995 532.656 141.096 532.605 141.147L531.231 142.369C527.515 145.627 522.831 147.358 518.147 147.358ZM535.202 74.4064C534.234 74.4064 533.267 74.4573 532.3 74.5591C528.278 74.9664 525.122 76.1882 523.849 77.7664C523.747 77.8682 523.595 77.97 523.442 78.0209L498.649 84.9444C495.748 85.759 493.355 87.6935 491.93 90.3407C490.504 93.0389 490.25 96.0934 491.217 98.9443C492.337 102.304 493.457 105.664 494.628 109.075L496.206 113.81V113.86L500.431 131.627C501.042 133.918 503.129 139.62 509.035 143.235C509.238 143.387 509.493 143.489 509.697 143.642C516.213 147.307 524.46 146.289 530.264 141.198L531.536 140.078C533.522 136.667 535.304 133.002 536.424 129.998C538.256 125.264 543.194 120.173 547.827 115.897C549.049 114.777 550.22 113.657 551.391 112.588L551.594 112.435C549.252 108.006 548.336 103.526 547.42 99.1988C546.503 94.7698 545.536 90.2389 543.093 85.8099C542.991 85.6063 542.991 85.3517 543.042 85.1481C544.314 82.0936 544.722 78.0718 542.176 75.9846C541.005 74.9664 538.307 74.4064 535.202 74.4064Z" fill="black"/>
<path d="M523.337 106.174C524.375 106.174 525.22 105.33 525.22 104.29C525.22 103.25 524.375 102.407 523.337 102.407C522.298 102.407 521.453 103.25 521.453 104.29C521.453 105.33 522.298 106.174 523.337 106.174Z" fill="black"/>
<path d="M509.696 109.024C510.735 109.024 511.58 108.181 511.58 107.14C511.58 106.1 510.735 105.257 509.696 105.257C508.658 105.257 507.812 106.1 507.812 107.14C507.812 108.181 508.658 109.024 509.696 109.024Z" fill="black"/>
<path d="M560.908 103.73C559.533 106.53 553.882 111.213 548.333 116.406C547.722 113.148 547.111 109.89 546.45 106.581C545.482 101.694 544.464 96.8573 543.446 92.0719C541.359 92.0719 539.322 92.0719 537.184 92.021C534.435 91.97 531.737 91.9191 529.039 91.8682C525.882 91.7664 522.726 91.5628 519.57 91.1555C515.854 90.6973 512.137 90.0355 508.421 89.1192C508.37 89.1192 508.268 89.0683 508.217 89.0683C506.69 88.8137 505.214 88.2028 503.941 87.3374C502.668 86.4719 501.548 85.352 500.734 84.0283C496.203 76.6975 500.428 67.534 508.828 65.8031L531.686 60.6614C532.806 61.4759 533.926 62.3414 535.097 63.2577C542.631 69.5194 553.169 83.5702 556.071 85.6065C557.853 86.8792 560.246 91.461 561.213 96.0427C561.366 97.0609 561.467 98.0791 561.62 99.1481C561.722 100.93 561.518 102.457 560.908 103.73Z" fill="#F9D84E"/>
<path d="M548.333 117.17C548.231 117.17 548.181 117.17 548.079 117.119C547.824 117.017 547.621 116.814 547.57 116.508C546.959 113.301 546.348 109.992 545.686 106.683C544.77 101.999 543.802 97.3156 542.784 92.7847C540.901 92.7847 539.017 92.7847 537.133 92.7338C534.537 92.6829 531.788 92.632 528.988 92.5811C525.781 92.4793 522.574 92.2756 519.468 91.8684C515.752 91.4102 511.985 90.7484 508.268 89.832C508.218 89.832 508.167 89.832 508.167 89.832C506.487 89.5266 504.908 88.9157 503.534 87.9993C502.159 87.083 500.989 85.8612 500.123 84.4358C497.883 80.8213 497.527 76.545 499.207 72.7268C500.887 68.8069 504.45 65.956 508.727 65.0397L531.584 59.8979C531.788 59.847 531.992 59.8979 532.195 59.9997C533.264 60.7633 534.384 61.6288 535.657 62.647C540.086 66.3124 545.482 72.5741 549.81 77.614C552.813 81.1267 555.461 84.1812 556.581 84.9448C558.617 86.3703 561.06 91.3084 562.028 95.8392V95.8901L562.435 98.9956V99.0465C562.537 100.981 562.231 102.661 561.569 103.934C560.45 106.174 556.937 109.432 552.813 113.148C551.541 114.319 550.166 115.541 548.842 116.814C548.741 117.068 548.537 117.17 548.333 117.17ZM531.584 61.527L509.032 66.6178C505.163 67.4324 502.058 69.8759 500.581 73.3886C499.156 76.7486 499.461 80.5158 501.396 83.723C502.159 84.9448 503.178 86.0139 504.399 86.8284C505.621 87.643 506.945 88.1521 508.37 88.4066C508.421 88.4066 508.523 88.4575 508.625 88.4575C512.239 89.323 515.956 89.9848 519.672 90.4429C522.777 90.7993 525.934 91.0538 529.039 91.1048C531.839 91.1557 534.537 91.2066 537.133 91.2575C539.221 91.2575 541.308 91.3084 543.344 91.3084C543.701 91.3084 544.006 91.5629 544.108 91.9193C545.126 96.6538 546.144 101.541 547.111 106.428C547.671 109.228 548.232 112.079 548.741 114.879C549.759 113.963 550.726 113.046 551.693 112.13C555.511 108.668 559.126 105.359 560.093 103.374C560.602 102.305 560.857 100.93 560.806 99.2501L560.399 96.2465C559.431 91.7157 557.09 87.3884 555.562 86.2685C554.29 85.3521 551.744 82.3994 548.486 78.6831C544.159 73.6941 538.813 67.4833 534.537 63.9197C533.57 63.0033 532.552 62.2397 531.584 61.527Z" fill="black"/>
<path d="M513.362 123.278C513.261 123.278 513.108 123.227 513.006 123.176C512.65 122.973 512.497 122.514 512.701 122.158C512.904 121.751 514.941 118.187 519.166 117.831C522.526 117.576 524.817 119.511 525.479 120.122C525.784 120.427 525.784 120.885 525.479 121.191C525.173 121.496 524.715 121.496 524.41 121.191C523.9 120.682 522.017 119.104 519.319 119.307C515.806 119.613 514.126 122.718 514.075 122.82C513.922 123.125 513.617 123.278 513.362 123.278Z" fill="black"/>
<path d="M515.907 106.581C513.209 108.922 507.355 114.319 504.606 116.711C502.722 118.34 502.518 121.039 504.096 122.515C505.42 123.737 507.558 123.686 509.085 122.362C512.445 119.664 518.962 113.911 522.322 111.162" fill="#3FD1FF"/>
<path d="M506.436 124.144C505.418 124.144 504.4 123.788 503.636 123.075C502.771 122.261 502.312 121.141 502.312 119.919C502.312 118.493 503.025 117.119 504.145 116.101C505.52 114.93 507.658 112.944 509.796 111.061C511.883 109.126 514.072 107.192 515.447 105.97C515.752 105.715 516.261 105.715 516.516 106.021C516.77 106.326 516.771 106.835 516.465 107.09C515.091 108.261 512.952 110.246 510.814 112.13C508.727 114.064 506.538 115.999 505.163 117.221C504.349 117.933 503.891 118.901 503.84 119.919C503.84 120.733 504.094 121.446 504.654 121.904C505.673 122.871 507.403 122.77 508.625 121.751C510.305 120.377 512.8 118.239 515.243 116.152C517.687 114.064 520.181 111.926 521.861 110.552C522.167 110.297 522.676 110.348 522.93 110.653C523.185 110.959 523.134 111.468 522.829 111.723C521.149 113.097 518.654 115.235 516.211 117.322C513.767 119.41 511.272 121.548 509.592 122.922C508.676 123.788 507.505 124.144 506.436 124.144Z" fill="black"/>
<path d="M555.054 84.5373C556.072 83.2646 546.654 74.0502 540.749 68.2975C538.763 66.363 535.76 63.6648 531.738 60.7122C525.527 62.1885 519.266 63.6648 513.055 65.1921C518.756 67.0757 527.105 70.1811 536.727 75.0683C547.774 80.7192 554.24 85.5555 555.054 84.5373Z" fill="black"/>
<path d="M609.477 730.412C591.455 739.27 573.433 748.078 555.412 756.936C547.368 706.689 539.325 656.442 531.281 606.196C553.732 614.85 575.979 623.861 594.611 628.188C599.549 662.297 604.538 696.355 609.477 730.412Z" fill="#3FD1FF"/>
<path d="M555.411 757.699C555.309 757.699 555.157 757.648 555.055 757.597C554.851 757.495 554.698 757.291 554.647 757.037L530.517 606.297C530.466 606.042 530.568 605.737 530.771 605.584C530.975 605.431 531.281 605.381 531.535 605.482C534.131 606.501 536.728 607.468 539.273 608.486C559.331 616.275 578.32 623.606 594.712 627.475C595.018 627.526 595.272 627.78 595.272 628.086L610.189 730.31C610.239 730.615 610.087 730.972 609.781 731.124L555.717 757.648C555.666 757.648 555.513 757.699 555.411 757.699ZM532.248 607.366L556.022 755.764L608.661 729.953L593.898 628.798C577.505 624.879 558.669 617.599 538.764 609.861C536.575 609.046 534.437 608.231 532.248 607.366Z" fill="black"/>
<path d="M565.492 723.896C565.492 723.896 564.728 739.677 572.415 739.372C580.103 739.067 587.23 739.067 592.117 732.194C596.953 725.321 612.328 718.449 617.419 729.903C622.509 741.357 627.906 783.815 627.906 783.815L402.941 781.219C402.941 781.219 403.196 771.75 420.047 767.728C436.897 763.706 463.013 763.452 472.686 751.386C482.409 739.321 524.053 718.398 524.053 718.398C534.54 704.143 549.71 700.885 558.059 707.503C563.965 712.238 565.187 720.79 565.492 723.896Z" fill="#FF6EC1"/>
<path d="M628.769 784.63H627.904L402.176 782.033V781.27C402.176 780.862 402.634 771.19 419.892 767.066C424.372 765.997 429.463 765.183 434.859 764.368C449.062 762.128 465.2 759.634 472.175 750.979C481.695 739.219 520.385 719.518 523.643 717.889C529.498 709.947 537.389 704.805 545.228 703.736C550.37 703.024 555.105 704.194 558.617 706.994C564.319 711.525 565.897 719.518 566.304 723.845V723.896V723.947C566.304 724.049 565.846 733.874 569.41 737.438C570.275 738.303 571.243 738.71 572.413 738.659L573.279 738.608C580.661 738.354 587.075 738.099 591.504 731.787C594.813 727.052 602.806 722.42 609.373 723.081C613.395 723.489 616.398 725.729 618.129 729.598C623.22 741.052 628.464 781.982 628.667 783.713L628.769 784.63ZM403.805 780.506L627.038 783.052C626.224 776.943 621.336 740.543 616.704 730.209C615.177 726.798 612.682 724.914 609.169 724.558C603.111 723.947 595.78 728.223 592.675 732.601C587.788 739.525 580.712 739.779 573.228 740.085L572.363 740.136C570.734 740.187 569.359 739.627 568.188 738.456C564.319 734.536 564.624 724.812 564.675 723.896C564.268 719.772 562.792 712.289 557.548 708.114C554.341 705.569 550.014 704.551 545.279 705.162C537.796 706.18 530.261 711.169 524.61 718.856L524.509 719.009L524.356 719.111C523.949 719.314 482.713 740.085 473.244 751.896C465.913 760.957 449.47 763.554 435.012 765.794C429.666 766.608 424.626 767.423 420.197 768.492C406.808 771.699 404.263 778.266 403.805 780.506Z" fill="black"/>
<path d="M402.891 781.27V791.4C402.891 801.786 410.374 810.186 419.639 810.186H612.124C622.815 810.186 630.808 799.088 628.517 787.379L627.804 783.815L402.891 781.27Z" fill="white"/>
<path d="M612.173 811H419.688C410.016 811 402.176 802.244 402.176 791.451V780.506H402.939L628.515 783.102L629.329 787.277C630.551 793.487 628.922 800.004 625.104 804.687C621.744 808.76 617.162 811 612.173 811ZM403.652 782.033V791.4C403.652 801.327 410.83 809.422 419.637 809.422H612.122C616.602 809.422 620.776 807.385 623.831 803.669C627.395 799.342 628.871 793.284 627.751 787.531L627.191 784.579L403.652 782.033Z" fill="black"/>
<path d="M509.848 766.71C505.623 766.863 502.823 766.201 501.804 765.946C496.917 764.826 493.252 762.637 490.961 761.059C493.659 759.736 496.408 758.412 499.106 757.088C500.226 757.292 501.804 757.547 503.739 757.801C503.739 757.801 507.71 758.412 511.324 758.259C524.051 757.75 533.469 750.674 537.949 746.449C542.531 742.325 547.571 740.187 552.56 740.187C552.611 740.187 552.611 740.187 552.662 740.187C556.378 740.187 559.229 741.409 564.218 744.056C570.276 747.263 573.789 749.605 576.589 751.438C579.491 753.372 581.832 754.594 582.087 754.747C587.432 757.75 599.09 757.19 603.265 756.885C602.094 759.634 600.974 762.332 599.803 765.081C595.629 765.285 584.785 765.59 579.134 762.485C578.88 762.332 576.131 760.957 572.771 758.717C570.123 756.936 566.764 754.747 561.011 751.692C556.48 749.299 554.749 748.688 552.611 748.638H552.56C547.622 748.638 543.397 752.405 542.735 753.016C536.982 758.005 521.964 766.252 509.848 766.71Z" fill="white"/>
<path d="M508.524 767.524C505.011 767.524 502.67 766.964 501.702 766.761H501.651C497.732 765.844 494.015 764.164 490.553 761.772L489.484 761.008L499.004 756.324L499.259 756.375C500.786 756.63 502.313 756.884 503.841 757.037C503.891 757.037 507.811 757.648 511.273 757.495C523.746 756.986 533.011 750.012 537.389 745.939C542.073 741.714 547.316 739.474 552.509 739.474H552.611C556.531 739.474 559.433 740.695 564.523 743.394C570.632 746.652 574.145 748.943 576.945 750.826C578.625 751.946 580.407 753.015 582.239 753.983L582.392 754.084C587.178 756.783 597.41 756.528 603.112 756.121L604.334 756.019L600.21 765.793H599.752C594.203 766.099 584.123 766.099 578.676 763.146L578.523 763.095C575.876 761.67 573.636 760.295 572.211 759.328C569.563 757.546 566.254 755.357 560.502 752.353C556.123 750.012 554.443 749.401 552.458 749.401H552.407C548.436 749.401 544.873 751.997 543.091 753.575L543.04 753.626C537.746 758.208 522.575 767.015 509.695 767.524C509.39 767.524 508.931 767.524 508.524 767.524ZM492.488 761.212C495.492 763.146 498.648 764.47 501.957 765.233H502.008C503.026 765.488 505.724 766.099 509.797 765.946C522.269 765.437 537.033 756.884 542.175 752.404L542.225 752.353C544.16 750.674 548.08 747.823 552.509 747.823H552.56C554.851 747.823 556.633 748.484 561.316 750.928C567.12 754.033 570.48 756.223 573.127 758.004C574.501 758.921 576.741 760.295 579.338 761.67L579.49 761.772C584.429 764.47 593.796 764.521 599.243 764.266L602.043 757.648C596.036 758.004 586.465 758.004 581.679 755.306L581.527 755.204C579.694 754.186 577.861 753.117 576.13 751.946C573.33 750.113 569.869 747.823 563.811 744.615C558.974 742.019 556.174 740.899 552.611 740.848H552.509C547.724 740.848 542.836 742.935 538.407 746.957C533.876 751.183 524.306 758.412 511.324 758.921C507.659 759.073 503.79 758.463 503.586 758.412C502.11 758.259 500.633 758.004 499.157 757.75L492.488 761.212Z" fill="black"/>
<path d="M606.677 700.784C586.67 699.765 566.663 698.696 546.605 697.678C542.837 686.326 539.223 673.293 536.474 658.682C532.758 639.032 531.434 621.265 531.281 606.196C541.361 610.574 552.408 614.85 564.372 618.821C583.259 625.083 600.975 629.308 616.807 632.159C616.146 641.73 615.178 651.912 613.702 662.551C611.767 676.297 609.375 689.075 606.677 700.784Z" fill="#349948"/>
<path d="M607.285 701.597L546.093 698.441L545.941 697.932C541.715 685.205 538.254 672.02 535.759 658.834C532.501 641.526 530.719 623.86 530.566 606.195V605.024L531.636 605.482C542.428 610.166 553.526 614.391 564.675 618.057C581.729 623.657 599.344 628.188 617.009 631.395L617.671 631.497L617.62 632.158C616.958 642.289 615.889 652.573 614.514 662.602C612.733 675.43 610.391 688.31 607.489 700.885L607.285 701.597ZM547.163 696.914L606.064 699.968C608.864 687.598 611.205 674.972 612.936 662.449C614.311 652.624 615.329 642.645 615.991 632.769C598.478 629.562 581.017 625.082 564.115 619.533C553.322 615.969 542.53 611.846 532.043 607.366C532.297 624.522 534.028 641.729 537.235 658.529C539.679 671.46 543.039 684.39 547.163 696.914Z" fill="black"/>
<path d="M866.36 156.419C865.291 151.175 863.56 146.797 861.677 143.183C845.997 113.3 804.049 110.042 797.736 109.635L733.795 104.187C724.071 102.049 710.784 99.3512 694.799 97.1621C644.196 90.1877 607.542 85.0963 594.204 103.423C585.855 114.827 588.146 133.968 596.953 146.695C607.898 162.528 626.276 164.717 629.28 165.022C651.629 168.637 673.978 172.303 696.326 175.917C704.421 178.717 713.279 181.364 722.85 183.706C739.395 187.728 754.667 189.968 768.158 191.139C744.74 226.673 721.322 262.258 697.904 297.792C715.977 346.715 737.409 398.133 762.915 451.179C772.842 471.797 782.922 491.702 793.052 510.946C793.816 506.975 794.783 501.069 795.241 493.891C796.921 467.928 796.565 456.932 782.871 421.092C774.165 398.336 774.929 373.086 785.06 350.94C785.111 350.839 785.212 350.635 785.212 350.533C793.103 333.428 800.841 321.77 802.369 319.326C807.408 311.486 816.216 293.974 832.761 253.044C842.128 232.171 851.546 211.299 860.913 190.426C862.797 179.176 864.579 167.822 866.36 156.419Z" fill="#524FA0"/>
<path d="M793.408 513.288L792.39 511.353C782.005 491.703 771.874 471.542 762.201 451.535C738.224 401.696 716.384 350.075 697.191 298.097L697.039 297.741L766.834 191.852C751.969 190.477 737.104 188.034 722.696 184.47C713.787 182.281 704.879 179.685 696.173 176.681L629.178 165.787C624.189 165.277 606.88 162.427 596.342 147.154C587.993 135.038 584.684 115.235 593.593 102.966C607.236 84.2822 643.992 89.373 694.9 96.3984C707.984 98.1802 721.067 100.573 733.896 103.424L797.786 108.871C802.215 109.176 813.924 110.296 826.448 114.624C843.553 120.58 855.669 130.049 862.338 142.827C864.527 147.001 866.105 151.532 867.073 156.267L867.124 156.419L861.676 190.783L861.625 190.884L833.473 253.502C819.779 287.407 809.546 309.756 802.979 319.886L802.674 320.344C796.463 329.966 790.812 340.25 785.874 350.991L785.721 351.399C775.743 373.086 774.928 398.438 783.532 420.94C797.481 457.441 797.583 468.233 795.954 494.044C795.597 499.797 794.834 505.55 793.765 511.201L793.408 513.288ZM698.769 297.945C717.911 349.77 739.7 401.187 763.576 450.874C772.892 470.219 782.667 489.666 792.696 508.706C793.561 503.819 794.121 498.83 794.477 493.892C796.106 468.335 796.005 457.644 782.158 421.398C773.401 398.54 774.216 372.729 784.397 350.686L784.601 350.279C789.59 339.486 795.241 329.101 801.503 319.428L801.808 318.97C808.273 308.89 818.506 286.643 832.15 252.789L860.251 190.274L865.596 156.419C864.68 151.838 863.102 147.51 861.015 143.489C846.353 115.54 808.833 111.06 797.685 110.347L733.693 104.9H733.642C720.864 102.049 707.729 99.7074 694.697 97.8747C644.298 90.9003 607.898 85.8604 594.815 103.831C586.313 115.489 589.52 134.58 597.564 146.238C607.745 160.95 624.443 163.75 629.33 164.259L696.53 175.205H696.58C705.235 178.208 714.144 180.805 723.053 182.994C737.816 186.608 753.038 189.103 768.259 190.426L769.532 190.528L698.769 297.945Z" fill="black"/>
<path d="M392.504 298.862C392.249 307.771 391.995 316.221 390.926 317.24L391.995 318.309C393.42 316.883 393.624 311.029 393.98 298.862C394.438 283.844 395.049 263.277 399.173 245.459L397.697 245.102C393.522 263.175 392.911 283.793 392.504 298.862Z" fill="black"/>
<path d="M504.767 208.898L482.938 229.158L483.976 230.278L505.806 210.018L504.767 208.898Z" fill="black"/>
<path d="M281.267 168.689L269.762 161.664C269.406 161.46 268.947 161.562 268.693 161.918C268.438 162.275 268.591 162.733 268.947 162.987L280.504 169.962C280.605 170.013 280.758 170.064 280.911 170.064C281.165 170.064 281.42 169.911 281.573 169.707C281.776 169.351 281.674 168.893 281.267 168.689Z" fill="black"/>
<path d="M534.183 17.3379C536.067 17.4397 537.95 17.7452 539.732 18.2543C541.056 18.6106 542.43 19.1197 543.703 19.6797C543.805 19.7306 543.907 19.7306 544.009 19.7306C544.314 19.7306 544.569 19.5779 544.721 19.2724C544.874 18.8652 544.721 18.4579 544.365 18.2543C542.99 17.6434 541.616 17.1343 540.19 16.727C538.256 16.2179 536.321 15.8616 534.336 15.7597C533.929 15.7088 533.572 16.0652 533.521 16.4725C533.42 16.9306 533.776 17.287 534.183 17.3379Z" fill="black"/>
<path d="M570.683 83.3657C570.785 83.3657 570.835 83.3657 570.937 83.3148C571.345 83.162 571.548 82.7548 571.395 82.3475C571.039 81.2784 570.886 80.2094 570.937 79.1403C571.039 76.9512 571.955 75.2712 572.719 74.2531C572.974 73.8967 572.923 73.4385 572.566 73.184C572.21 72.9294 571.752 72.9804 571.497 73.3367C570.632 74.5076 569.512 76.493 569.41 79.0894C569.359 80.3621 569.563 81.6348 569.97 82.9075C570.072 83.162 570.326 83.3657 570.683 83.3657Z" fill="black"/>
<path d="M603.163 724.303C600.312 725.219 591.097 727.815 581.068 723.641C565.134 717.074 561.774 699.612 561.519 698.339C556.53 698.085 551.592 697.881 546.603 697.627C546.756 699.409 546.96 701.19 547.112 703.023C548.792 703.481 550.625 704.092 552.509 704.754C554.8 705.619 556.938 706.485 558.821 707.401C562.639 711.168 564.116 714.63 564.778 717.125C565.439 719.67 565.388 721.605 565.338 723.641L565.083 723.183L541.869 734.79C541.309 725.881 535.607 718.499 528.174 717.176C522.371 716.157 516.415 718.957 512.647 724.557L512.8 724.659C504.298 724.15 498.698 731.786 498.444 732.143L499.666 733.008C499.92 732.703 505.418 725.015 513.716 726.288C520.589 727.306 526.036 733.823 527.004 742.172H527.105L513.411 748.993C512.444 740.95 507.098 734.484 500.175 733.212C494.371 732.143 488.262 735.044 484.597 740.593L485.87 741.408C489.179 736.368 494.677 733.721 499.869 734.688C506.233 735.859 511.222 742.019 511.935 749.604H512.087L499.92 755.662C498.189 748.382 492.589 742.986 486.175 742.477C477.622 741.764 472.582 749.757 472.379 750.113L473.652 750.928C473.702 750.877 478.437 743.393 486.022 744.004C491.877 744.513 497.018 749.553 498.495 756.375L464.488 773.378C464.437 773.328 464.437 773.226 464.386 773.175C461.688 767.066 457.514 763.451 454.51 761.466L453.645 762.739C456.495 764.622 460.415 768.033 462.961 773.786C463.012 773.887 463.012 773.938 463.063 774.04L463.012 774.091L463.47 775.007C464.284 777.146 464.844 779.386 465.15 781.727L466.677 781.524C466.372 779.182 465.812 776.891 465.048 774.753L565.287 724.608C565.287 725.983 565.389 727.459 565.745 729.292C566.661 733.721 568.647 737.081 570.174 739.168C573.534 739.117 579.185 738.761 584.581 737.081C586.668 736.419 588.246 735.706 589.774 734.586C591.912 733.008 592.879 731.481 593.948 730.157C595.628 728.477 598.326 726.085 603.163 724.303ZM528.531 741.561C527.36 732.957 521.607 726.186 514.378 724.914C517.84 720.23 522.982 717.888 527.971 718.754C534.742 719.925 539.934 726.797 540.392 735.095L541.512 735.044L528.531 741.561Z" fill="black"/>
<path d="M620.369 737.794C619.708 737.896 603.875 740.645 592.879 783.663L594.355 784.019C605.046 742.223 620.42 739.322 620.573 739.271L620.471 738.507L620.369 737.794Z" fill="black"/>
<path d="M449.062 489.972C448.909 489.565 448.502 489.361 448.095 489.514C447.688 489.666 447.484 490.074 447.637 490.481C452.371 504.226 453.847 518.124 452.015 531.819C451.455 536.146 450.488 540.473 449.266 544.647C449.164 545.055 449.368 545.462 449.775 545.615C449.826 545.615 449.928 545.666 449.978 545.666C450.284 545.666 450.589 545.462 450.691 545.106C451.964 540.829 452.88 536.451 453.491 532.022C455.375 518.073 453.898 503.972 449.062 489.972Z" fill="black"/>
<path d="M133.99 644.021L95.8091 660.311C95.4019 660.464 95.2491 660.922 95.4018 661.33C95.5037 661.635 95.8091 661.788 96.1146 661.788C96.2164 661.788 96.3182 661.788 96.42 661.737L134.601 645.446C135.009 645.294 135.161 644.835 135.009 644.428C134.805 644.021 134.347 643.817 133.99 644.021Z" fill="black"/>
<path d="M111.029 587.818C110.673 587.615 110.215 587.767 110.011 588.124L93.6186 617.752C93.4149 618.109 93.5676 618.567 93.924 618.771C94.0258 618.821 94.1786 618.872 94.2804 618.872C94.5349 618.872 94.7894 618.72 94.9422 618.465L111.335 588.836C111.538 588.48 111.386 588.022 111.029 587.818Z" fill="black"/>
<path d="M196.403 482.438C196.047 482.234 195.589 482.387 195.385 482.743L176.294 517.667C176.091 518.023 176.243 518.481 176.6 518.685C176.702 518.736 176.854 518.786 176.956 518.786C177.211 518.786 177.465 518.634 177.618 518.379L196.709 483.456C196.912 483.1 196.76 482.642 196.403 482.438Z" fill="black"/>
<path d="M320.927 523.062C320.774 523.113 304.229 528.458 291.349 534.873C290.993 535.077 290.84 535.535 290.993 535.891C291.145 536.146 291.4 536.298 291.654 536.298C291.756 536.298 291.909 536.247 292.011 536.197C304.789 529.833 321.181 524.539 321.334 524.437C321.741 524.284 321.945 523.877 321.843 523.469C321.741 523.164 321.334 522.96 320.927 523.062Z" fill="black"/>
<path d="M160.769 333.276L125.388 316.476C124.981 316.272 124.574 316.476 124.37 316.832C124.166 317.189 124.37 317.647 124.726 317.85L160.108 334.65C160.209 334.701 160.311 334.701 160.413 334.701C160.719 334.701 160.973 334.548 161.126 334.243C161.329 333.887 161.177 333.428 160.769 333.276Z" fill="black"/>
<path d="M204.652 297.894L173.19 299.727C172.783 299.727 172.427 300.134 172.478 300.541C172.478 300.948 172.834 301.254 173.241 301.254H173.292L204.753 299.421C205.161 299.421 205.517 299.014 205.466 298.607C205.415 298.149 205.059 297.843 204.652 297.894Z" fill="black"/>
<path d="M312.017 619.992C311.61 620.043 311.305 620.399 311.305 620.807L314.105 655.068C314.156 655.475 314.461 655.781 314.868 655.781H314.919C315.326 655.73 315.632 655.373 315.632 654.966L312.832 620.705C312.781 620.247 312.425 619.941 312.017 619.992Z" fill="black"/>
<path d="M372.038 585.884C371.682 585.629 371.223 585.731 370.969 586.087L352.438 613.832C352.184 614.189 352.286 614.647 352.642 614.901C352.795 615.003 352.896 615.054 353.049 615.054C353.304 615.054 353.558 614.952 353.66 614.698L372.191 586.953C372.496 586.545 372.394 586.087 372.038 585.884Z" fill="black"/>
<path d="M262.585 78.682C262.279 78.4274 261.77 78.4274 261.516 78.7838C261.261 79.0892 261.261 79.5983 261.618 79.8529L282.846 98.129C282.999 98.2308 283.152 98.3326 283.355 98.3326C283.559 98.3326 283.763 98.2308 283.915 98.0781C284.17 97.7726 284.17 97.2635 283.814 97.009L262.585 78.682Z" fill="black"/>
<path d="M506.438 359.748C508.627 360.511 518.351 340.402 522.067 332.257C525.58 324.519 527.718 318.563 528.685 316.221C535.608 299.014 541.768 282.316 547.266 266.28C547.012 265.262 546.757 264.244 546.554 263.225L571.957 281.094C572.11 281.196 572.263 281.247 572.415 281.247C572.67 281.247 572.873 281.145 573.026 280.941C573.281 280.585 573.179 280.127 572.822 279.872L547.368 262.004C547.012 261.749 546.554 261.851 546.299 262.207C546.299 262.207 546.299 262.207 546.299 262.258C539.834 235.226 533.318 208.193 526.852 181.212C529.601 204.273 531.485 238.28 525.02 278.396C517.994 321.515 503.485 358.679 506.438 359.748Z" fill="black"/>
<path d="M360.33 163.038C359.974 162.834 359.515 162.987 359.312 163.343L350.759 178.718C350.556 179.074 350.708 179.532 351.065 179.736C351.166 179.787 351.319 179.838 351.421 179.838C351.676 179.838 351.93 179.685 352.083 179.43L360.584 164.005C360.788 163.7 360.686 163.242 360.33 163.038Z" fill="black"/>
<path d="M483.426 229.728C490.706 222.957 497.986 216.186 505.265 209.466L483.426 229.728Z" fill="#524FA0"/>
<path d="M455.242 274.594L453.883 275.289L471.044 308.825L472.403 308.13L455.242 274.594Z" fill="black"/>
</svg>
