<svg width="16" height="18" fill="none" xmlns="http://www.w3.org/2000/svg"><path fill-rule="evenodd" clip-rule="evenodd" d="M4.508.667h6.984C14.067.667 15.5 2.15 15.5 4.69v8.61c0 2.583-1.433 4.033-4.008 4.033H4.508C1.975 17.333.5 15.883.5 13.3V4.69C.5 2.15 1.975.667 4.508.667zm.225 3.883v-.01h2.491a.65.65 0 01.651.65.653.653 0 01-.65.659H4.732a.65.65 0 010-1.3zm0 5.066h6.534a.65.65 0 000-1.3H4.733a.651.651 0 000 1.3zm0 3.809h6.534a.652.652 0 00.583-.65.654.654 0 00-.583-.659H4.733a.662.662 0 00-.625 1.008.647.647 0 00.625.3z" fill="#fff"/></svg>