<svg width="20" height="20" fill="none" xmlns="http://www.w3.org/2000/svg"><path d="M10 .002a10 10 0 00-10 10C0 15.524 4.476 20 10 20c5.523 0 10-4.475 10-9.997 0-5.524-4.477-10-10-10zm0 18.329a8.33 8.33 0 01-8.33-8.329A8.332 8.332 0 0110 1.672a8.331 8.331 0 010 16.659z" fill="#858585"/><path d="M12.908 6L13 7.876h-.234c-.045-.33-.106-.566-.184-.708a1.186 1.186 0 00-.51-.501c-.21-.11-.487-.166-.831-.166h-1.175v6.113c0 .491.055.798.166.92.156.165.396.248.72.248h.289V14H7.704v-.218h.295c.353 0 .603-.103.75-.307.09-.126.136-.413.136-.861V6.5H7.882c-.39 0-.666.028-.83.083a1.132 1.132 0 00-.548.43c-.151.213-.242.5-.27.862H6L6.098 6h6.81z" fill="#858585"/></svg>