<svg xmlns="http://www.w3.org/2000/svg" viewBox="0 0 33.86 51.52"><defs><style>.cls-1{fill:#ff4e00;}</style></defs><g id="Слой_2" data-name="Слой 2"><g id="Слой_1-2" data-name="Слой 1"><g id="_1" data-name="1"><path class="cls-1" d="M13.62,0H33.86V1.32H25.39V50.19h8.47v1.33h-28V50.19h9.2V1.33h-.3A25,25,0,0,1,7,11.92c-2.35,2-4.32,2.95-5.89,2.95-.73,0-1.1-.3-1.1-.88a1.06,1.06,0,0,1,.29-.7,2.32,2.32,0,0,1,.56-.48,9.12,9.12,0,0,1,.88-.41l.85-.33A18.65,18.65,0,0,0,9.27,7.21,21.67,21.67,0,0,0,13.62,0Z"/></g></g></g></svg>