<svg width="196" height="292" viewBox="0 0 196 292" fill="none" xmlns="http://www.w3.org/2000/svg">
<path fill-rule="evenodd" clip-rule="evenodd" d="M-12.4761 55.0911C-13.0365 55.1889 -13.6779 55.7439 -14.1545 56.3767C-14.6115 57.0182 -14.8942 57.7379 -14.8056 58.146C-14.2353 58.1657 -13.5301 57.5849 -12.9915 56.925C-12.4575 56.2639 -12.1428 55.4944 -12.4761 55.0911ZM120.594 56.0201C122.621 57.8386 121.164 59.3286 120.094 59.502C119.454 58.926 119.828 58.6843 119.025 58.0533C120.127 57.6043 119.743 55.9832 120.594 56.0201ZM39.7894 30.5145C38.3337 30.9093 37.7548 30.674 36.827 30.6945C36.5918 29.6424 38.2594 28.5563 40.3173 28.6193C40.9523 29.0953 40.5022 29.8984 39.7894 30.5145ZM32.3669 31.7968C32.1148 31.704 31.8657 31.6072 31.8096 31.3428C32.2312 31.051 32.8224 30.7853 33.7766 30.5921C33.8499 31.0906 33.3807 31.4869 32.3669 31.7968ZM138.545 86.1352C139.298 86.0205 140.121 86.7291 140.328 88.0299C139.815 87.9392 139.324 87.4845 138.778 87.9688C138.216 87.0175 138.374 86.5771 138.545 86.1352ZM-14.4107 67.1118C-15.6424 66.4946 -16.9787 66.4573 -18.309 66.3427C-18.008 65.9603 -17.7089 65.5808 -17.4078 65.1984C-16.4663 66.8634 -14.9113 64.9578 -13.6231 64.5576C-13.2825 65.1676 -13.2136 65.8769 -14.4107 67.1118ZM149.031 130.173C149.044 130.788 149.058 131.401 149.071 132.017C148.379 132.511 148.076 129.557 149.031 130.173ZM68.933 30.9809C69.5927 30.7557 71.0153 31.2375 72.1728 31.4678C71.6482 32.3327 70.6651 32.8176 70.0692 33.6108C69.1095 33.3842 68.5542 32.911 68.3751 32.3863C68.1973 31.8618 68.3975 31.2971 68.933 30.9809ZM101.35 45.1149C101.813 44.8733 102.672 45.3662 103.139 45.1295C103.796 45.6138 104.25 46.0682 104.677 46.535C105.093 47.0088 105.504 47.4818 106.108 47.986C106.019 48.6145 105.396 48.0837 105.235 48.5532C104.788 48.2371 104.355 47.9245 103.951 47.6174C103.543 47.3134 103.139 47.0311 102.793 46.7448C102.096 46.1772 101.575 45.6321 101.35 45.1149ZM137.667 92.2579C137.782 91.3404 138.769 90.1928 139.738 90.6122C140.459 91.9668 140.169 92.5399 139.965 93.1711C139.114 93.5375 138.439 92.4902 137.667 92.2579ZM121.709 64.2313C121.127 63.5895 121.223 63.2142 120.843 62.6573C121.258 62.69 121.826 63.31 122.306 63.7205C122.109 63.8894 121.909 64.0609 121.709 64.2313ZM144.518 153.068C144.775 153.411 144.106 156.107 143.717 156.294C142.901 155.902 144.298 153.822 144.518 153.068ZM45.842 31.8454C47.3345 31.7334 49.0834 32.2116 47.9984 33.0102C46.2134 33.2751 45.9269 32.6281 45.842 31.8454ZM66.1597 32.7302C66.2934 34.0008 67.6738 35.5816 65.6597 36.0299C63.6636 35.7135 62.4422 34.4714 62.3601 33.5188C62.2821 32.5487 63.4305 31.8546 66.1597 32.7302ZM96.7634 44.0757C98.0164 45.0986 98.3358 46.1264 98.317 47.1096C98.2993 48.0923 97.9365 49.0432 97.7151 50.0005C97.1955 48.8867 96.8262 47.7218 94.8519 46.5958C95.5206 45.8093 95.7397 44.2959 96.7634 44.0757ZM30.1028 38.1916C29.8334 38.1231 29.5542 38.0522 29.2815 37.9824C29.0204 37.9141 28.763 37.8407 28.5209 37.7489C28.0373 37.5654 27.616 37.3081 27.357 36.8661C27.9952 36.5362 28.5569 36.2786 29.0952 36.0838C29.6844 35.8936 30.2134 35.7641 30.6941 35.6811C31.6554 35.5152 32.4202 35.536 33.0911 35.6398C34.4399 35.8612 35.3903 36.3557 36.8847 36.5009C36.2206 37.4066 36.9072 37.7723 37.5863 38.1217C38.2707 38.4708 38.951 38.8035 38.3749 39.6031C37.1462 39.8718 36.3493 39.8947 35.7291 39.7257C35.1088 39.5567 34.6751 39.2102 34.2415 38.861C33.3769 38.1653 32.4982 37.4462 30.1028 38.1916ZM-19.8497 81.0501C-20.9294 81.2912 -21.6719 81.3991 -22.3955 80.3434C-21.4546 79.8357 -19.1124 78.0207 -19.6312 76.5128C-18.7365 76.4051 -18.6186 77.1062 -18.8188 78.0416C-18.9953 78.9831 -19.4713 80.1687 -19.8497 81.0501ZM51.3009 34.9926C50.5399 33.5996 52.722 33.0263 54.7122 33.1644C55.207 33.201 55.6878 33.2677 56.1002 33.3976C56.5121 33.5339 56.8581 33.7049 57.0917 33.9037C57.5592 34.3019 57.5681 34.8062 56.7746 35.3684C56.1521 35.3794 55.6571 35.3571 55.2233 35.3237C54.79 35.2827 54.42 35.21 54.0486 35.1386C53.3075 34.9951 52.5566 34.854 51.3009 34.9926ZM78.8346 37.1722C78.8467 37.9393 77.0609 39.0151 75.1948 38.7078C74.3212 38.1891 73.9447 37.8523 73.9524 37.575C73.9557 37.3044 74.3347 37.11 74.8894 37.0027C75.981 36.8096 77.8055 36.9476 78.8346 37.1722ZM-24.0937 91.4975C-24.8662 91.5635 -25.6735 91.4245 -26.5026 91.1138C-26.4874 90.4244 -26.1678 89.7529 -25.7817 89.0788C-25.3781 88.4048 -24.8992 87.7296 -24.5919 87.0163C-25.0511 86.4693 -24.967 85.7442 -24.6106 85.1176C-24.2446 84.4914 -23.5881 83.9694 -22.9573 83.8171C-21.4392 85.1654 -24.6188 89.451 -24.0937 91.4975ZM-4.0745 57.8335C-3.28955 57.0928 -2.34411 57.0385 -2.6166 57.8308C-3.37281 58.6416 -3.74031 58.2906 -4.0745 57.8335ZM88.3906 44.2325C89.1309 43.5346 90.5857 43.4201 91.8541 43.8369C93.0804 44.2885 94.1073 45.2562 94.0328 46.5774C92.9178 45.8044 91.8341 45.6658 90.8878 45.4907C89.9076 45.3434 89.0675 45.155 88.3906 44.2325ZM-10.8446 66.4306C-11.3114 66.1758 -10.7546 65.5558 -10.3737 64.9959C-9.99132 65.3618 -10.1842 66.2112 -10.8446 66.4306ZM14.9344 47.2181C14.0319 46.3019 15.9268 45.41 15.0446 44.4851C15.7876 44.0843 16.1347 44.2888 17.0386 43.6543C18.7232 44.5699 17.7283 46.5514 14.9344 47.2181ZM142.639 136.864C143.089 136.139 143.741 136.741 143.996 137.295C144.06 138.567 143.359 138.327 142.77 138.269C142.834 137.645 142.567 137.519 142.639 136.864ZM-34.5232 120.681C-34.2092 119.115 -34.1309 116.846 -33.0704 117.135C-32.7331 118.169 -33.1354 121.437 -34.5232 120.681ZM45.0946 35.8785C46.4914 35.0267 49.4644 35.7433 50.145 35.4191C50.4786 36.5813 52.1415 37.006 52.9225 37.9033C52.9056 38.805 50.5676 38.5393 49.5954 38.98C48.3787 37.7792 45.1651 37.8714 45.0946 35.8785ZM142.047 122.054C142.573 122.163 143.221 124.409 142.503 124.765C141.498 124.923 141.84 122.677 142.047 122.054ZM141.099 141.268C141.897 140.296 142.946 142.363 142.008 143.827C141.117 143.782 140.855 142.879 141.099 141.268ZM124.122 81.8367C124.418 81.4262 124.636 80.9758 125.281 80.7385C126.868 81.3353 128.479 82.5157 129.463 83.9492C129.956 84.6631 130.291 85.4372 130.373 86.2252C130.441 87.0208 130.239 87.8393 129.712 88.6183C130.103 89.263 130.234 89.746 130.25 90.1554C129.446 90.3674 129.882 91.3729 128.94 91.4935C128.178 90.3959 128.364 89.3801 127.684 88.9335C126.817 88.0944 126.648 89.1431 126.289 89.6489C125.707 88.7257 125.265 87.9466 125.127 87.2398C124.982 86.5372 125.107 85.9258 125.549 85.4116C125.869 85.6488 126.19 86.0269 126.492 86.6951C127.586 86.1879 127.215 85.2845 126.464 84.3506C126.089 83.8843 125.62 83.4122 125.194 82.9761C124.756 82.5464 124.344 82.1607 124.122 81.8367ZM24.6336 42.5127C24.9528 42.368 25.2741 42.2617 25.5941 42.135C25.7162 42.4404 25.8373 42.7449 25.9586 43.0486C25.2589 43.1775 24.6452 43.2475 24.6336 42.5127ZM123.211 75.4736C123.802 75.7998 123.95 76.2398 124.115 76.7568C124.264 77.2834 124.424 77.8909 125.062 78.5667C124.371 78.7113 123.841 78.0775 123.522 77.3328C123.184 76.601 123.041 75.7609 123.211 75.4736ZM6.40559 55.6303C5.60848 56.2661 4.81224 56.9007 4.01234 57.5378C3.7655 56.4971 3.919 55.3472 6.01126 53.9584C6.63488 54.4613 6.44442 55.0412 6.40559 55.6303ZM-10.7255 85.6796C-12.3291 85.2278 -13.9184 85.9277 -15.4252 86.8095C-16.3253 86.3598 -16.611 85.5667 -16.4107 84.5045C-14.8745 83.6987 -14.0688 81.5639 -13.9956 80.0922C-12.703 80.8869 -12.8526 82.3631 -12.137 83.438C-12.1625 82.8532 -9.80145 79.6958 -11.6475 79.3644C-11.2433 78.7552 -10.8642 78.1412 -10.4249 77.5451C-10.9412 76.118 -12.8535 75.7851 -13.9988 75.4544C-12.9327 74.131 -11.839 73.5168 -10.8139 72.8859C-9.76501 72.261 -8.75452 71.632 -7.85126 70.2306L-7.093 70.855C-10.6378 74.3025 -8.15032 75.5645 -7.75732 77.5292C-8.2036 78.2755 -8.61486 78.995 -8.94356 79.7073C-9.26573 80.4219 -9.54267 81.1173 -9.78071 81.7941C-10.2737 83.142 -10.5466 84.4374 -10.7255 85.6796ZM28.7268 43.6915C27.1556 43.5678 28.1398 41.9132 29.9043 42.0027C30.2956 42.7163 29.9842 43.2905 28.7268 43.6915ZM-25.7942 115.931C-28.2344 116.592 -29.0659 115.184 -30.3125 113.668C-30.1233 112.749 -29.7365 112.322 -29.4281 111.708C-29.8585 113.078 -27.3158 113.632 -26.5993 113.338C-25.5779 112.916 -25.1601 111.2 -24.6025 109.772C-24.0705 108.337 -23.3919 107.206 -22.0788 107.957C-21.8745 109.237 -22.006 110.839 -21.3248 111.731C-20.6325 112.133 -19.0038 111.758 -19.459 113.103C-21.3372 112.475 -22.0101 112.618 -24.0323 112.784C-24.8165 113.333 -25.1155 115.164 -25.7942 115.931ZM-21.2851 88.2973C-20.8364 87.1777 -19.654 88.4573 -19.5653 88.8064C-19.9653 89.2165 -20.3808 89.473 -20.8152 89.5741C-21.4349 89.4374 -20.9121 88.5909 -21.2851 88.2973ZM101.398 55.9846C102.172 56.096 103.064 56.4938 103.571 55.923C104.778 57.2015 102.863 57.4614 101.398 55.9846ZM-23.3582 97.8425C-23.9971 99.6326 -24.507 99.1535 -23.5403 97.7712C-23.9446 96.6671 -23.8567 95.3323 -23.3536 94.3925C-22.8215 93.4538 -21.8862 92.9222 -20.641 93.3915C-20.7259 95.5383 -22.1413 97.2139 -23.3582 97.8425ZM88.3756 49.6967C87.4376 48.3779 88.3118 47.8722 89.7442 48.056C91.1353 48.2709 93.0632 49.1952 94.1468 50.501C92.9698 51.5362 89.4121 48.4194 88.3756 49.6967ZM129.178 92.4318C129.848 93.0624 130.523 93.3177 131.183 93.8164C131.839 94.3153 132.467 95.0715 132.949 96.7239C132.096 97.0809 131.474 95.9873 130.7 95.9173C130.098 96.2385 129.982 96.9004 129.612 97.3835C129.06 97.3189 128.63 96.5408 128.107 96.3301C127.959 94.6934 128.907 93.7506 129.178 92.4318ZM138.459 142.002C138.592 142.788 138.823 143.815 138.745 144.718C138.69 145.62 138.441 146.398 137.786 146.667C137.165 146.613 136.883 146.159 136.803 145.469C136.712 144.778 136.875 143.85 136.99 142.827C137.677 143.001 137.809 141.925 138.459 142.002ZM135.408 140.991C135.52 139.725 135.797 138.817 136.121 137.999C136.435 137.182 136.745 136.458 136.998 135.571C137.785 135.785 138.624 136.39 139.064 137.286C139.521 138.178 139.461 139.374 138.599 140.665C137.589 139.78 136.858 140.596 136.315 141.75C135.827 141.743 135.767 141.169 135.408 140.991ZM-29.0314 117.951C-28.3747 118.062 -28.6804 119.144 -28.8476 120.121C-30.1243 120.654 -30.1664 117.774 -29.0314 117.951ZM-28.9605 123.157C-28.6516 123.742 -28.6539 124.628 -28.7234 125.688C-29.3518 125.318 -29.8307 124.752 -30.5419 124.487C-30.3513 123.282 -29.3804 123.837 -28.9605 123.157ZM112.068 66.1302C112.611 66.8688 112.643 67.4604 113.153 68.1876C112.224 68.2478 112.24 66.6235 110.926 66.3336C111.188 65.6997 111.704 66.286 112.068 66.1302ZM28.7555 44.7282C30.471 44.4742 30.6109 45.8694 29.5103 46.7538C27.5692 47.4621 27.4727 45.3415 28.7555 44.7282ZM134.901 130.081C134.73 128.718 135.18 128.295 135.402 127.522C136.604 128.336 138.394 129.938 138.079 132.315C136.648 132.222 136.135 130.508 134.901 130.081ZM116.651 73.5474C117.559 74.3736 118.402 75.3971 119.27 76.7058C118.812 77.4583 117.866 76.8074 117.189 75.9051C116.529 74.9925 116.023 73.8732 116.651 73.5474ZM46.6466 45.7877C46.9001 46.5488 46.6955 47.1066 46.1603 47.508C45.6243 47.9118 44.7507 48.1366 43.6618 48.3799C43.6886 46.8067 42.4671 46.1259 41.0324 45.5216C39.6069 44.9198 37.9678 44.3711 37.3141 43.0679C39.1613 42.6878 40.4419 42.9553 41.7012 43.1511C41.9243 44.0807 42.2802 44.8986 43.0125 45.3864C43.3789 45.6302 43.8392 45.7924 44.4276 45.8458C45.0237 45.931 45.7494 45.9209 46.6466 45.7877ZM129.04 99.6102C129.779 99.0245 130.252 99.698 130.9 99.5672C130.934 100.448 130.968 101.312 131.003 102.191C130.152 101.998 129.151 100.857 129.04 99.6102ZM131.496 109.806C131.68 113.826 135.076 111.249 134.713 115.155C133.761 115.182 133.215 114.051 132.271 114.053C131.776 114.375 131.717 115.114 131.508 115.734C131.29 116.359 130.954 116.848 129.996 116.666C129.793 115.66 129.233 115.355 129.071 114.115C131.07 114.739 129.468 109.95 131.496 109.806ZM-25.7105 123.966C-27.4439 123.845 -27.6267 122.424 -27.0582 120.975C-26.492 119.528 -25.1619 118.096 -23.9947 117.8C-23.4706 116.674 -22.8853 115.649 -22.0376 115.333C-21.8386 116.536 -21.1444 117.281 -20.4277 117.993C-20.7891 119.284 -21.6546 119.482 -21.8485 121.12C-21.8971 121.698 -21.4349 121.764 -21.2286 122.086C-19.4434 122.009 -19.3546 118.243 -17.7548 117.746C-17.1209 117.961 -17.4813 119.049 -17.1392 119.535C-16.5647 119.656 -15.9866 119.777 -15.4104 119.899C-16.3821 122.042 -17.9897 122.793 -19.3767 124.093C-20.2573 124.077 -20.2782 123.185 -20.7449 122.737C-21.5457 122.299 -21.5343 123.57 -22.2355 123.346C-22.1592 121.48 -23.2365 120.847 -24.008 119.84C-24.7306 119.798 -25.0703 120.643 -25.4766 121.329C-25.9301 122.6 -25.0479 123.172 -25.7105 123.966ZM75.3844 45.5519C76.4975 45.9231 77.1884 46.3885 77.7132 46.8838C78.2249 47.3993 78.5668 47.9546 79.0106 48.4828C80.2332 48.9605 80.559 48.2774 81.0692 47.8258C81.8213 48.3228 82.523 48.8016 83.169 49.3356C83.8138 49.8716 84.4475 50.4086 85.1321 50.9412C83.6363 51.4066 82.1482 50.9901 80.4257 50.4069C78.7277 49.7963 76.9162 48.8398 74.8768 48.2735C74.0709 47.3497 74.8971 46.395 75.3844 45.5519ZM126.857 92.1425C127.4 93.0012 127.373 93.4946 127.618 94.1798C126.714 94.3081 125.888 93.7326 125.174 92.274C125.754 92.0752 126.309 92.0695 126.857 92.1425ZM45.2478 42.9798C46.3073 42.7846 46.0569 43.5321 46.4189 43.8356C45.0886 44.2326 45.3235 43.4928 45.2478 42.9798ZM134.602 119.339C135.251 120.392 135.252 121.347 134.954 121.96C134.66 122.575 134.063 122.852 133.435 122.635C133.237 120.729 133.383 119.455 134.602 119.339ZM-21.5556 106.919C-22.3166 106.345 -22.9673 105.673 -22.2383 103.953C-21.6953 104.636 -20.3122 105.513 -21.5556 106.919ZM105.686 68.8563C104.893 67.8089 103.544 66.6199 102.897 65.637C103.722 65.3449 104.856 65.5451 106.007 66.0236C107.151 66.5048 108.32 67.2562 109.086 68.1008C108.083 68.8823 106.517 67.3018 105.686 68.8563ZM126.489 96.028C126.925 96.0656 127.286 96.5683 127.624 97.2036C127.546 97.6155 127.118 97.7863 126.657 97.9328C126.145 96.9906 127.008 96.9794 126.489 96.028ZM29.232 50.4258C29.1974 48.6977 30.1856 48.6482 30.6635 49.0661C31.1416 49.4845 31.1458 50.3466 29.232 50.4258ZM-0.804907 71.6674C-1.26095 71.281 -0.941444 70.6699 -1.06213 70.1829C-0.383128 69.793 0.253611 69.6772 0.776592 70.2011C0.630087 71.0042 -0.257681 71.3324 -0.804907 71.6674ZM125.661 101.224C126.624 100.951 126.489 99.1029 127.537 99.538C127.959 101 127.314 101.71 127.853 103.284C126.951 103.273 126.222 102.599 125.661 101.224ZM-1.51958 80.6305C-1.7754 81.3527 -1.91687 82.0308 -1.71786 82.587C-3.17077 82.9155 -3.68043 84.5876 -4.87494 85.8829C-5.45395 84.9055 -6.25906 84.0131 -6.81343 83.0068C-7.35255 82.0056 -7.69996 80.8619 -7.1869 79.4323C-6.58733 78.319 -6.06184 78.8424 -5.49545 78.4207C-5.12073 77.9273 -4.92087 77.4936 -4.67739 77.0562C-4.42607 76.6227 -4.14714 76.1786 -3.64415 75.6611C-4.33737 77.798 -3.74478 79.525 -1.51958 80.6305ZM124.217 96.6981C124.649 96.9787 125.239 98.3762 125.139 98.8848C124.164 98.6878 123.094 98.6056 122.447 99.0529C122.885 98.1797 122.789 96.9487 124.217 96.6981ZM125.638 104.67C126.395 104.533 127.074 105.322 127.446 106.426C127.838 107.522 128.031 108.879 128.025 109.789C127.647 109.891 127.267 109.993 126.891 110.095C125.989 107.735 125.268 106.499 125.638 104.67ZM116.736 87.7624C115.596 87.6576 114.54 85.5828 113.438 84.7761C113.89 83.9312 113.364 82.9904 114.087 82.5979C116.174 81.4608 117.801 86.1263 116.736 87.7624ZM86.5132 57.1914C85.8505 56.7891 85.6221 56.3595 85.8251 55.8986C86.4742 55.8585 87.1561 56.6737 86.5132 57.1914ZM81.8521 54.1517C82.1885 54.5028 82.8637 54.8127 82.3542 55.264L81.5245 54.8635L81.8521 54.1517ZM127.044 119.258C127.977 119.305 128.423 120.421 129.555 120.064C129.729 121.034 129.828 122.022 129.923 123.013C129.047 123.163 128.627 122.448 128.291 121.584C127.922 120.725 127.605 119.716 127.044 119.258ZM26.9232 54.3936C27.5227 55.1144 24.4526 56.8753 24.0119 55.9742C24.6735 55.7 25.1165 55.4357 25.5374 55.1733C25.9563 54.9065 26.3508 54.6352 26.9232 54.3936ZM122.459 100.604C123.079 100.297 123.431 101.261 123.998 101.236C123.793 101.758 123.431 102.175 123.009 102.54C122.69 102.298 122.463 101.668 122.205 101.014C122.434 100.971 122.505 100.825 122.459 100.604ZM126.429 116.734C125.696 116.368 125.689 114.897 126.641 114.932C127.049 115.991 126.405 116.026 126.429 116.734ZM125.108 110.279C125.127 111.389 125.033 112.483 124.67 113.325C124.187 113.163 124.005 112.543 123.93 111.863C123.828 111.191 123.842 110.452 123.816 110.048C124.348 109.822 124.573 110.501 125.108 110.279ZM125.455 134.494C125.484 135.236 125.339 135.704 124.827 135.591C124.799 134.858 124.94 134.391 125.455 134.494ZM5.38867 76.8243C5.94709 77.3015 5.17188 78.0797 4.70033 78.7915C4.6951 78.1948 4.7161 77.5874 5.38867 76.8243ZM-14.9728 119.72C-14.666 118.685 -13.0656 119.758 -13.5926 120.81C-14.2654 120.637 -14.3025 119.901 -14.9728 119.72ZM9.16473 77.3572C8.5541 77.8094 8.01045 78.1774 7.43333 78.6643C6.26806 78.1021 7.70833 76.9715 6.55676 76.395C7.01962 75.6715 7.36525 76.0427 7.8468 75.3365C8.60343 76.1154 8.56169 76.9627 9.16473 77.3572ZM56.8482 57.6041C57.6766 58.0316 56.3789 58.426 56.5132 58.959C55.4764 58.9954 55.4279 58.3778 54.644 58.3094C55.2305 57.9022 56.4519 58.0992 56.8482 57.6041ZM103.909 146.459C103.708 146.013 103.375 145.656 103.684 144.905C105.261 145.166 107.358 145.731 106.121 147.317C108.39 148.159 109.409 147.805 111.02 148.737C111.242 148.063 110.839 147.2 111.612 147.18C112.568 148.051 113.53 147.135 114.271 147.872C114.393 148.859 112.995 149.283 113.849 149.558C115.652 149.896 117.782 151.066 119.384 150.879C118.943 148.871 117.734 147.284 116.763 145.654C116.244 144.832 115.763 143.994 115.47 143.079C115.322 142.622 115.218 142.145 115.175 141.637C115.133 141.129 115.159 140.593 115.196 140.007C115.58 139.95 115.74 139.541 116.221 139.637C116.856 139.874 116.747 140.918 116.499 141.952C116.954 142.031 117.145 141.61 117.705 141.882C118.264 141.14 116.786 140.245 117.663 139.042C118.43 139.14 119.49 139.369 120.346 139.927C121.191 140.483 121.894 141.387 121.731 142.775C121.577 144.279 120.342 143.554 120.3 145.271C120.507 146.534 121.059 147.364 121.66 148.225C122.251 149.084 122.839 149.964 122.92 151.296C124.229 150.041 126.585 151.662 127.858 150.153C128.009 149.277 128.134 148.354 128.31 147.643C128.488 146.934 128.802 146.446 129.456 146.459C130.479 146.74 129.737 148.927 130.973 148.974C131.368 146.833 132.36 146.781 132.197 144.421C130.892 144.911 129.581 145.354 128.351 145.946C128.082 144.456 126.62 144.289 127.004 142.123C128.094 141.81 129.106 142.761 129.689 140.971C129.811 139.772 128.782 140.001 129.154 138.502C129.282 137.221 130.251 137.48 130.3 136.178C129.676 134.697 129.831 131.342 131.8 132.275C131.716 130.136 132.632 130.901 133.341 130.421C133.134 128.936 132.782 127.329 132.174 126.284C131.526 125.244 130.674 124.768 129.569 125.433C129.436 126.515 129.627 127.104 129.894 127.685C130.165 128.264 130.506 128.833 130.577 129.864C130.393 130.267 130.425 130.985 130.024 131.07C128.995 131.256 128.362 130.82 128.215 129.625C128.336 128.835 128.586 127.867 128.61 127.033C128.631 126.201 128.365 125.517 127.587 125.298C127.569 126.596 127.433 127.912 126.392 127.964C126.027 127.627 125.816 127.099 125.589 126.513C125.364 125.926 125.179 125.272 124.965 124.67C124.537 123.465 123.994 122.482 122.796 122.684C121.912 122.983 122.063 124.417 120.785 124.261C120.842 125.106 121.175 126.266 120.378 126.153C119.297 125.399 120.047 123.122 118.317 123.23C118.079 123.662 117.915 124.171 117.446 124.353C115.878 123.746 116.068 119.89 116.314 118.152C118.122 118.318 117.408 121.263 119.035 121.313C120.957 121.412 119.672 116.042 122.429 117.775C122.884 118.291 122.887 119.729 123.109 120.713C123.851 120.421 124.003 121.321 124.748 121.035C124.625 119.59 124.427 118.366 124.307 117.201C124.153 116.045 124.038 114.958 124.162 113.734C123.398 112.772 122.176 112.978 121.125 112.773C121.2 114.139 120.047 116.491 118.757 114.731C118.398 113.82 118.859 113.544 118.445 112.646C117.408 111.707 116.016 111.061 116.331 108.923C115.652 108.119 114.654 108.328 114.276 106.646C114.234 106.126 114.54 105.823 114.939 105.58C115.557 106.38 116.607 107.535 117.613 108.096C118.614 108.652 119.579 108.619 119.977 106.883C120.345 106.311 119.04 106.726 119.062 105.474C118.686 104.701 119.944 105.049 119.432 104.178C118.973 103.476 117.448 101.527 118.007 100.633C119.646 101.187 120.244 99.2408 121.281 98.3076C120.704 97.0879 120.562 96.2354 120.527 95.4044C120.488 94.5765 120.526 93.7878 120.185 92.7802C120.485 92.3865 121.78 92.5566 121.145 91.6281C120.407 91.4814 119.638 91.3066 118.954 90.4842C118.756 89.9616 118.967 89.6443 118.584 89.0272C117.979 89.1554 117.427 88.6272 116.831 88.7113C118.353 91.0695 116.578 92.4349 115.499 93.9503C115.126 92.4536 114.145 91.7604 113.349 90.1213C112.525 89.7648 111.659 89.7654 110.788 90.0953C110.904 90.4862 111.01 90.9189 111.067 91.3557C111.111 91.7997 111.114 92.2423 111.053 92.6368C110.931 93.4273 110.549 94.0212 109.733 94.084C109.461 93.4566 109.358 92.8993 109.352 92.3814C109.332 91.8723 109.405 91.4049 109.514 90.9437C109.73 90.0227 110.072 89.1405 109.966 88.0759C110.566 87.66 111.15 87.626 111.737 87.5702C111.338 87.1345 110.868 86.5469 110.441 85.9401C109.993 85.3458 109.604 84.7194 109.42 84.1651C109.944 82.9941 110.805 81.9249 111.606 80.8272C111.345 80.5232 110.863 80.2141 110.485 79.8872C110.097 79.5655 109.831 79.2109 110.035 78.7718C111.648 78.6853 113.901 79.6438 114.022 77.1614C112.7 75.3771 110.981 73.1833 110.305 71.1766C108.331 69.4223 106.29 71.2756 105.325 72.1215C106.672 73.4411 107.63 72.1492 109.007 73.5435C109.219 74.7196 107.544 74.04 107.682 74.7088C108.286 75.3111 108.652 75.841 108.868 76.2694C109.086 76.697 109.149 77.0262 109.091 77.2706C108.978 77.7603 108.388 77.9116 107.606 77.8499C106.069 77.6937 103.649 76.8391 102.621 75.8473C101.917 74.6068 103.204 73.7544 103.114 72.6515C101.109 71.877 99.1158 70.1102 98.6482 68.1776C99.317 67.9502 99.9809 67.6899 100.515 66.9433C100.063 66.0589 99.8385 65.1999 98.8931 64.2463C97.652 64.219 96.5355 64.8098 94.8616 63.5822C94.8162 62.7571 95.83 61.9978 95.9059 61.1721C96.4915 60.5498 97.6975 61.5868 98.3214 61.0411C97.5416 60.3608 97.568 59.749 96.3274 59.0294C95.2976 58.8492 94.3251 59.023 93.3127 58.9561C92.2819 58.9051 91.2049 58.6217 89.7557 57.7048C88.9469 57.7298 89.602 58.541 88.9396 59.044C87.7542 59.1444 86.2422 58.5693 84.751 58.0424C83.2371 57.5474 81.697 57.1635 80.6434 57.4883C79.2032 56.6533 78.5241 55.8369 78.5016 54.9762C78.4725 54.1308 79.0694 53.3115 80.0931 52.7232C77.8988 51.607 76.6936 51.8296 75.6434 52.2802C74.5777 52.7501 73.6779 53.3948 72.0409 53.142C70.7901 52.1757 72.81 50.9107 72.5277 50.4149C72.0225 50.5092 71.4086 50.5657 70.7352 50.5538C70.0615 50.5415 69.3548 50.4052 68.6895 50.0121C68.2115 49.4669 68.8013 48.5614 68.862 47.8321C72.2265 48.2416 73.8163 43.6598 70.9099 42.0615C67.9214 41.5356 69.254 44.8699 67.6513 45.5434C68.8205 45.8009 69.918 47.2643 68.3062 47.3016C66.6865 47.1885 67.3886 46.2655 66.1861 46.049C65.2648 47.1374 64.7343 48.5377 63.3417 49.1843C61.7517 49.0285 61.373 48.6175 61.1678 48.1394C60.9638 47.6579 60.9403 47.1306 60.0299 46.796C60.5702 46.2033 61.3959 45.8059 61.2499 44.7211C59.4073 43.8594 58.163 43.5855 56.9922 43.6217C55.8212 43.6307 54.6971 44.0677 53.042 44.5822C53.8406 46.1255 53.7969 46.5711 53.4222 47.7192C54.4913 47.6883 55.3267 47.7778 55.9106 48.0712C56.4955 48.3669 56.8341 48.7921 56.9361 49.3433C56.5007 49.5695 56.0515 49.6503 55.6126 49.6281C55.1718 49.6312 54.7421 49.5343 54.3515 49.3707C53.5727 49.0444 52.9472 48.4604 52.776 47.928C51.8868 47.9959 51.1449 48.1523 50.4836 48.3518C49.8225 48.5695 49.2433 48.867 48.6669 49.1429C47.517 49.7198 46.3811 50.2374 44.6753 50.5908C43.6979 52.0416 45.2121 52.0525 45.4297 53.446C45.1453 54.4132 43.9563 54.9727 43.1362 55.684C43.6719 56.642 43.4026 57.5507 42.8226 58.2044C42.5314 58.5315 42.1583 58.795 41.7538 58.9719C41.3562 59.1728 40.9299 59.3007 40.5131 59.309C39.1716 59.3385 38.7224 58.2887 39.0255 57.1375C39.1772 56.5618 39.5206 55.9615 40.0249 55.4644C40.5223 54.9495 41.2036 54.6046 41.9925 54.5081C42.0883 52.9691 42.6727 51.6051 43.6799 50.3764C42.9205 50.1708 43.3221 48.904 42.1402 49.0726C41.511 48.8765 41.0519 49.1265 40.5604 49.4354C40.0679 49.7454 39.5378 50.0957 38.7633 50.2087C38.7676 49.3846 38.5346 48.4156 37.9177 47.8933C37.3052 47.3703 36.2858 47.2985 34.826 48.2652C35.2381 50.7505 37.4415 51.2526 38.7518 52.658C38.1569 53.3307 37.4307 52.8814 36.3856 53.3358C36.3036 53.9975 36.4886 54.733 35.349 55.0768C34.4195 55.1807 33.892 54.7178 33.4836 54.0853C32.5131 54.5075 31.7013 54.7122 30.9614 54.8121C31.1291 55.6253 31.0178 56.2184 30.7251 56.6369C30.4368 57.0725 29.9708 57.3514 29.4096 57.5038C28.2919 57.8097 26.7875 57.6412 25.6741 57.3271C25.2647 58.2856 24.3822 58.7022 23.3593 58.9743C22.3401 59.2488 21.1686 59.3618 20.3046 59.7862C19.5784 58.79 18.5664 58.3752 17.1785 58.7038C16.7189 59.1092 16.4467 59.5164 16.1242 59.9215C15.8095 60.3392 15.4564 60.7705 14.8142 61.2053C13.8789 60.3623 14.2332 59.0677 15.26 57.7413C15.7778 57.0876 16.4509 56.4143 17.1784 55.7609C17.9049 55.1053 18.6829 54.4647 19.4435 53.9426C19.581 54.0423 19.7884 54.0166 20.0963 53.8148C20.991 53.8284 20.7333 55.8501 21.9425 55.2861C22.3445 54.1621 23.6302 53.063 24.1244 51.9883C23.7739 51.4661 23.0443 51.4631 22.3536 51.4903C21.6609 51.5103 20.9844 51.4993 20.706 50.8316C19.2498 51.716 18.2727 51.8254 17.3197 51.8764C16.3748 51.9393 15.4749 51.9809 14.1973 52.6941C14.5834 53.606 13.8663 54.5481 12.8176 55.3037C11.7939 56.0987 10.419 56.7101 9.39881 56.8494C9.6431 58.9058 10.864 60.8564 10.7887 62.937C10.3144 64.0744 9.34075 63.3974 8.38559 64.3616C8.76198 65.446 8.04911 66.8586 6.99195 67.7536C6.46343 68.2035 5.84714 68.5295 5.23964 68.6352C4.64986 68.7546 4.05994 68.649 3.57264 68.2016C4.12124 67.5887 4.71651 66.9877 5.16393 66.3546C5.61162 65.7222 5.92085 65.0649 5.95505 64.3844C5.43118 64.2546 3.83032 64.0395 4.65932 62.9059C5.59966 61.8752 6.24082 61.9879 6.99304 61.696C7.108 60.8978 7.50545 60.0565 7.14448 59.3074C5.59835 59.6331 3.96306 60.0477 2.69882 59.6535C1.78311 60.3537 1.35149 60.9666 0.839383 61.5912C1.36162 62.7831 2.61508 61.5766 3.15732 62.6733C3.09405 63.7677 1.31833 65.1893 1.65035 66.2343C3.34592 67.4547 4.13726 69.9088 2.49383 71.8162C1.85615 72.5979 0.844137 73.0108 -0.141713 73.5783C-0.628112 73.8645 -1.12103 74.1808 -1.51002 74.615C-1.89573 75.0503 -2.20836 75.5878 -2.38089 76.2808C-0.568356 76.431 0.205137 77.9681 0.313219 79.5243C1.09156 78.8165 1.72414 78.1211 2.25819 77.4335C2.82268 76.7652 3.28299 76.1013 3.68095 75.4414C4.45447 74.1082 5.06274 72.8512 5.70391 71.6307C6.25518 71.8706 6.77831 73.3629 7.39298 74.1153C7.9542 73.4872 7.95461 71.8888 9.04616 72.1879C9.04165 73.5482 9.37 74.3591 10.7654 75.1759C9.85825 76.9857 10.6346 78.0708 11.5674 79.0931C12.507 80.1124 13.5903 81.0747 13.4892 82.4914C12.4088 82.9883 11.1695 82.3617 10.9797 81.1784C9.30771 81.09 6.66851 82.4539 6.01677 80.268C5.28967 80.8765 4.6076 81.1858 3.88289 81.9769C4.97984 81.8295 5.13224 82.6416 6.04912 83.354C5.35712 84.8004 5.39301 87.0131 3.75506 87.4249C3.40108 87.3266 2.51636 86.714 2.30511 86.4148C2.27958 85.9304 2.94836 85.2225 3.37253 84.5933C2.97081 83.9753 2.77856 83.2757 2.66844 82.565C2.5626 81.8577 2.51726 81.1274 2.35844 80.4241C1.7729 80.5645 1.16611 80.9763 0.598638 81.5612C0.0411583 82.1517 -0.506441 82.8984 -1.0401 83.6725C-1.58976 84.4397 -2.05533 85.2681 -2.54151 85.9894C-3.01739 86.7154 -3.51149 87.3366 -3.97065 87.7621C-5.92152 88.4669 -7.24451 86.5312 -7.96212 85.6394C-9.00221 86.0441 -10.067 87.1426 -11.016 88.5594C-12.0711 88.8218 -13.1274 89.2 -14.2673 88.8024C-15.2652 89.4636 -16.177 90.4487 -17.0946 91.4744C-18.0289 92.4975 -18.8903 93.5734 -19.8084 94.4238C-19.754 95.1072 -19.8913 95.9067 -19.3276 96.2581C-18.382 96.2973 -17.7998 94.1807 -16.8175 94.4612C-16.2458 95.2083 -16.3128 96.3064 -17.0161 97.867C-15.6989 97.7267 -15.2554 95.1666 -14.6648 93.5355C-13.8861 93.2023 -13.1555 92.5956 -12.2652 93.0992C-12.0007 91.849 -10.7916 89.1623 -9.7755 89.5698C-9.66716 91.2004 -10.4697 92.5293 -11.3101 93.9365C-12.1902 95.328 -13.0817 96.8039 -13.2565 98.5383C-12.5879 98.8174 -12.066 99.1839 -12.4096 100.093C-13.0524 100.814 -13.7604 101.346 -14.3412 102.285C-14.2841 103.347 -14.1478 105.144 -14.9052 106.162C-16.2954 104.487 -18.251 105.13 -19.2042 107.955C-18.7163 109.343 -17.2386 109.52 -15.8641 109.802C-14.4861 110.08 -13.2148 110.454 -13.0691 112.079C-13.623 112.955 -14.4958 113.041 -14.9068 114.31C-14.1918 115.026 -14.1262 116.257 -13.3238 116.88C-12.267 114.711 -10.766 113.73 -8.88154 114.607C-8.74521 113.452 -8.19256 113.324 -7.88098 112.548C-8.38306 111.893 -9.09671 111.383 -9.05142 110.332C-7.33589 110.535 -6.59715 109.245 -6.65147 107.997C-6.67791 106.763 -7.49296 105.528 -9.01668 105.997C-9.03494 107.186 -8.07793 108.734 -9.42558 110.212C-10.634 109.338 -11.8602 108.393 -11.8488 106.934C-11.7554 103.252 -9.39134 103.774 -7.17775 103.385C-6.48129 104.12 -6.33299 105.168 -5.90583 106.069C-5.49706 105.325 -4.9483 104.977 -4.18008 105.396C-4.3449 105.958 -4.21776 106.376 -4.6073 107.088C-4.30171 107.684 -3.12978 107.754 -3.55432 108.778C-4.08655 109.355 -4.759 109.476 -5.37706 109.806C-5.98279 110.137 -6.55295 110.679 -6.72474 112.119C-6.62009 113.115 -5.7682 113.558 -5.8508 114.687C-6.40498 115.474 -6.64713 116.959 -6.97248 118.177C-7.44088 118.256 -7.8417 118.494 -8.42688 118.329C-8.59221 119.413 -9.00122 119.977 -9.49641 120.377C-10.8475 120.028 -10.879 118.583 -11.9747 118C-12.0963 119.142 -11.3774 120.069 -10.8547 121.011C-10.3453 121.953 -10.0462 122.897 -11.0327 124.162C-12.1923 124.029 -12.307 122.947 -12.8793 122.268C-13.7843 122.775 -14.4708 123.747 -15.715 123.608C-16.1645 124.694 -16.3244 125.7 -15.7377 126.301C-16.1021 126.683 -16.4663 127.068 -16.7418 127.621C-17.0175 128.183 -17.1966 128.892 -17.166 130.077C-16.7605 130.09 -16.3852 130.146 -16.0613 130.271C-15.8991 130.333 -15.7503 130.411 -15.6165 130.51C-15.5493 130.558 -15.4872 130.617 -15.427 130.67C-15.366 130.706 -15.309 130.745 -15.2556 130.787C-12.8429 130.981 -10.4328 131.175 -8.02087 131.369C-7.77705 130.758 -6.4383 130.853 -6.04791 131.292L-6.06571 131.527L-0.590076 131.967C-0.469179 131.672 -0.460347 131.54 -0.4891 131.282C-0.520921 131.05 -0.606422 130.81 -0.687391 130.541C-0.856479 130.012 -1.02682 129.397 -0.816876 128.672C-0.590897 128.656 -0.477577 128.471 -0.364396 128.29C1.19215 128.325 0.902406 129.891 2.37769 129.969C2.53122 130.445 2.51714 130.945 2.36654 131.339C2.29371 131.531 2.18293 131.715 2.05084 131.828C1.98385 131.889 1.90883 131.942 1.82757 131.985C1.7448 132.047 1.65524 132.107 1.5597 132.141C12.3828 133.012 23.2017 133.882 34.0215 134.754C34.0331 134.466 34.1985 133.15 34.4124 131.981C34.6227 130.771 34.8993 129.49 35.2188 128.234C35.8391 125.704 36.6608 123.257 37.5688 121.029C38.4793 118.798 39.497 116.787 40.5605 115.066C41.6291 113.349 42.7326 111.918 43.8335 110.738C46.0612 108.384 48.1968 107.01 51.1256 105.808C51.4971 105.689 51.9113 105.512 52.2292 105.391C52.4127 105.377 52.5843 105.332 52.7487 105.256C52.8319 105.197 52.9106 105.213 52.9868 105.21C53.0631 105.205 53.1371 105.193 53.2102 105.171C53.2829 105.162 53.3547 105.089 53.4261 105.11C53.4971 105.121 53.5658 105.122 53.6341 105.114C54.1832 105.067 54.6994 105.031 55.4259 105.169C56.1478 105.328 57.0704 105.616 58.174 106.137C59.2709 106.663 60.5548 107.388 61.8522 108.467C63.1541 109.517 64.4867 110.798 65.755 112.256C67.0191 113.728 68.1516 115.418 69.1738 117.162C69.4045 117.613 69.7009 118.031 69.9108 118.491C70.1216 118.95 70.3451 119.403 70.5808 119.851C70.9477 120.781 71.3976 121.686 71.6796 122.624C72.3217 124.474 72.842 126.328 73.0563 128.097C73.2876 129.863 73.4167 131.563 73.3072 133.137C73.1803 134.707 72.928 136.175 72.5688 137.591C77.7581 139.064 83.0644 140.625 88.3292 142.178C93.594 143.72 98.8201 145.253 103.909 146.459ZM124.985 140.702C124.987 142.271 123.968 141.956 123.814 143.387C123.619 144.74 124.572 145.398 125.292 146.13C125.652 146.494 125.954 146.876 126.023 147.367C126.086 147.855 125.872 148.449 125.257 149.222C124.741 148.942 124.387 148.518 124.127 148.014C123.87 147.511 123.706 146.926 123.523 146.312C123.18 145.088 122.939 143.775 122.312 142.866C122.369 142.391 122.51 141.952 122.67 141.57C122.823 141.189 123.027 140.869 123.267 140.643C123.746 140.192 124.366 140.113 124.985 140.702ZM4.48856 129.001C4.42843 129.168 4.53703 129.204 4.65335 129.233L4.59504 129.64C4.43386 129.579 4.40059 129.693 4.37503 129.814L3.98591 129.762C4.04303 129.594 3.93408 129.56 3.81715 129.533L3.87617 129.121C4.03653 129.182 4.07011 129.068 4.10014 128.944L4.48856 129.001ZM-10.4694 128.33L-9.68908 128.429C-9.46942 128.781 -9.56326 129.638 -9.8631 129.935C-10.4847 129.837 -10.6645 129.26 -10.4694 128.33ZM-2.40257 128.676C-2.49534 129.977 -2.86176 130.796 -3.6637 131.035C-3.98553 131.069 -3.97913 130.789 -4.22723 130.751C-4.35639 130.009 -3.92891 128.872 -4.05258 127.746C-3.06301 127.673 -2.77775 128.218 -2.40257 128.676ZM-2.54463 122.603C-1.79886 122.593 -1.79784 123.159 -1.05344 123.149C-0.293611 122.803 -0.146073 121.298 0.910741 121.501C1.14652 123.139 0.436395 125.721 -1.33122 125.635C-2.33221 125.598 -4.28205 123.811 -2.54463 122.603ZM0.279703 127.939C-0.366827 127.879 -0.508546 126.897 -0.0916905 126.534C0.569403 126.594 0.773158 127.508 0.279703 127.939ZM12.0511 125.67C12.0501 126.411 11.2329 125.933 11.0873 126.466C10.7721 127.406 11.6194 127.553 11.546 128.319C11.0828 128.529 10.9426 129.186 10.2307 129.074C10.0015 127.998 9.17238 127.337 8.92945 126.246C9.03445 125.547 9.71096 125.729 9.93823 125.226C9.51695 124.714 8.71682 123.543 9.94226 123.381C10.3265 124.364 11.8596 124.58 12.0511 125.67ZM5.83184 121.987C5.65688 123.406 4.77763 123.62 4.28425 124.473C3.42313 124.026 2.5053 123.612 1.76973 123.058L1.91254 122.414C2.90299 122.069 4.13417 122.211 4.64917 121.042C5.19887 121.255 5.53018 121.61 5.83184 121.987ZM2.71129 114.812C2.19899 115.917 1.03392 114.817 0.83938 114.226C0.267077 114.26 -0.0414797 114.889 -0.241487 115.646C-0.423252 116.409 -0.490316 117.297 -0.616408 117.854C-1.26586 118.11 -1.63821 118.925 -2.61253 118.529C-2.81906 119.717 -3.22495 120.44 -3.9202 120.626C-5.6204 119.331 -5.90715 115.903 -4.3826 113.855C-2.94555 114.227 -2.50468 115.26 -3.01937 116.967C-1.68809 115.574 -1.05284 112.454 0.614749 111.741C2.05587 112.344 2.18079 113.678 2.71129 114.812ZM11.7041 115.094C11.2638 115.32 10.4334 114.942 10.4709 114.45C10.7346 114.138 10.9898 113.761 11.3674 113.692C11.9545 113.936 12.0075 114.405 11.7041 115.094ZM6.69735 113.36C6.42434 113.456 6.10799 113.458 5.69849 113.242C5.52173 112.81 5.95009 111.632 6.35111 111.404C7.14619 111.711 6.98226 112.476 6.69735 113.36ZM15.1096 83.3611C15.5456 82.9515 15.9524 82.9125 16.3289 83.2419C16.2469 83.6657 16.1477 84.315 15.4995 84.3702C15.1123 84.0573 15.3064 83.6879 15.1096 83.3611ZM8.01286 109.28C6.61877 109.153 6.25422 107.815 7.22331 107.075C7.99236 107.575 8.72331 108.086 8.01286 109.28ZM10.3367 105.427C10.2947 106.094 10.0227 106.719 9.45741 106.886C7.75169 106.49 9.16266 104.488 10.3367 105.427ZM-5.27572 99.4298C-6.39304 99.8636 -7.30468 101.522 -7.91623 100.538C-7.38903 98.0752 -6.25651 95.9393 -5.7225 93.642C-5.48827 92.6701 -5.64493 91.5753 -5.5773 90.5969C-5.48612 89.63 -5.17769 88.7759 -4.08436 88.3354C-2.662 89.2984 -2.3051 90.692 -2.86552 92.4733C-3.24333 92.388 -3.5649 92.733 -3.97337 92.4623C-4.04035 93.25 -4.87125 94.3987 -4.70368 95.071C-3.69888 95.3386 -2.68031 95.7368 -1.61812 96.3766C-1.71954 97.9907 -2.12678 98.5667 -2.78709 98.8349C-3.44246 99.1035 -4.32756 99.0577 -5.27572 99.4298ZM0.510916 92.9146C0.796832 93.1952 0.728081 93.7736 0.516367 94.3632C0.311135 94.9566 -0.0610196 95.5531 -0.44541 95.851C-1.45203 95.6784 -1.61882 94.7212 -1.32788 93.9042C-1.05162 93.0818 -0.257238 92.4534 0.510916 92.9146ZM5.79219 95.1711C7.17936 96.2228 5.43698 97.2591 4.57647 98.5352C3.52533 98.0171 3.65264 97.3509 4.12442 96.7223C4.58921 96.0888 5.45462 95.5417 5.79219 95.1711ZM9.72955 98.5412C8.40818 98.9607 7.7179 97.2493 9.17107 96.3981C9.92439 96.515 10.6625 97.4428 9.72955 98.5412ZM5.07061 94.4629C4.60932 94.0442 4.12467 93.3218 3.99437 92.5891C3.8656 91.8598 4.12997 91.137 5.07959 90.746C5.89076 91.0662 6.26814 91.835 6.2543 92.5896C6.22792 93.3404 5.84272 94.1035 5.07061 94.4629ZM13.6789 95.8968C12.9944 94.8409 14.285 93.7747 15.2925 93.9211C15.7531 94.3088 15.5719 94.9813 15.1619 95.4611C14.7475 95.9373 14.1458 96.2729 13.6789 95.8968ZM17.5526 94.8133C17.1496 94.5456 16.7731 94.274 16.7287 93.9418C17.4532 93.2362 18.2672 93.0733 19.1275 93.7391C18.6373 94.4412 18.081 94.5953 17.5526 94.8133ZM11.4955 89.4463C11.5404 88.6518 12.5719 88.3555 13.0842 87.7666C12.888 87.4443 12.9257 86.9323 13.1484 86.5058C13.3818 86.0893 13.7879 85.7517 14.2764 85.7552C15.0068 86.3571 14.3687 87.1411 15.4543 87.6828C14.6192 87.9767 14.0801 88.6001 13.5011 89.0284C12.9277 89.4628 12.3443 89.7365 11.4955 89.4463ZM17.0766 88.2196C16.1551 88.1579 15.9376 87.4739 16.1445 86.8282C16.3543 86.19 16.9555 85.5782 17.6744 85.7928C18.2148 86.1597 18.2753 86.6275 18.1225 87.0932C17.9644 87.5545 17.5563 87.9825 17.0766 88.2196ZM26.3821 91.7955C26.048 92.2697 25.6839 92.1034 25.3335 92.2969C24.7499 91.84 25.2056 90.987 25.8206 90.9612C26.1804 91.2467 26.3274 91.5237 26.3821 91.7955ZM19.0916 87.432C19.3796 86.5066 20.7606 85.4533 21.4468 85.8848C22.6521 87.1967 20.1949 89.0412 19.0916 87.432ZM10.5864 70.5249C9.9825 71.2268 9.5192 71.3093 8.9831 71.7145C8.68307 70.259 7.62572 69.8515 7.57384 68.4817C9.09559 67.6947 11.0572 69.1892 10.5864 70.5249ZM22.239 77.6794C21.2237 78.2062 20.4671 77.3669 19.5363 77.3305C19.1824 76.675 19.2296 76.0156 19.4951 75.3485C20.4608 75.634 21.9212 76.7911 22.239 77.6794ZM14.1653 69.5465C12.9272 69.6039 12.8051 68.7414 13.2431 67.9236C13.6816 67.113 14.6541 66.3434 15.5231 66.7219C16.0541 67.6034 15.4691 68.5638 14.1653 69.5465ZM27.8392 62.3999C27.9641 62.7318 28.3171 62.6198 28.426 62.9848C28.0196 63.74 26.999 63.7765 26.5748 63.507C26.3695 63.0478 27.2025 62.7359 27.8392 62.3999ZM20.6663 62.0993C21.2614 61.7301 21.7913 61.5107 22.2626 61.4117C22.7388 61.3206 23.1675 61.3678 23.5438 61.4884C24.2999 61.7356 24.8741 62.3256 25.3929 63.0222C25.1156 63.6872 23.9713 64.2025 23.6285 64.8941C24.351 65.8188 24.2911 66.6677 22.9413 67.3916C22.0525 67.1455 22.0042 66.2478 21.9436 65.2698C21.8781 64.2946 21.8053 63.2367 20.728 62.7515C19.4541 62.5549 17.6779 63.4819 16.7651 62.4783C17.2523 61.44 18.0545 61.1672 18.7856 61.2089C19.5271 61.2601 20.2312 61.6714 20.6663 62.0993ZM26.7716 72.6474L26.1598 73.0229C25.8545 72.7281 26.0242 72.4959 25.9497 72.2297C26.336 72.0469 26.5957 72.2318 26.7716 72.6474ZM25.2767 75.9509C24.6583 76.3537 24.1871 76.1721 23.8405 75.5193C24.2508 75.1554 24.5976 75.0253 24.9126 75.0059C25.2282 75.338 25.3041 75.6516 25.2767 75.9509ZM19.3064 69.581C18.4128 68.9535 18.7297 68.1755 19.4238 67.6058C19.7698 67.3215 20.2058 67.0922 20.6225 66.9653C21.0506 66.8562 21.4585 66.8493 21.7338 66.9781C22.2221 67.3302 21.6907 67.6038 22.0398 67.947C21.4753 68.4912 20.2552 69.1423 19.3064 69.581ZM31.4043 82.4845C30.8401 81.3133 31.0939 79.5814 32.7657 79.3472C33.3026 80.6524 32.8474 81.7044 31.4043 82.4845ZM32.0362 70.4065C32.2819 70.9644 32.9534 70.6084 33.0592 71.456C32.3385 72.2764 32.7141 73.4316 31.3388 74.1041C30.2375 73.2782 29.4139 72.1266 29.5081 70.9964C29.5546 70.4315 29.8319 69.8716 30.4072 69.3671C30.9707 68.8416 31.8726 68.4527 33.1176 68.2004C34.0876 69.3053 32.5697 69.7266 32.0362 70.4065ZM30.3203 60.6251C29.8022 60.248 29.9309 59.8835 30.0191 59.2528C30.7021 58.9485 31.2628 58.835 31.7036 58.9384C32.1473 59.0512 32.4625 59.3543 32.6535 59.8444C31.903 60.4961 31.2856 60.3245 30.3203 60.6251ZM39.2008 73.9716C37.8163 71.9725 41.1102 71.5623 41.5399 72.911C41.4683 73.7212 39.9507 74.2704 39.2008 73.9716ZM37.9215 63.5513C37.5218 63.0367 37.8787 62.7542 38.0965 62.4573C38.7555 62.5469 39.7264 62.2098 39.8855 62.9639C39.6118 63.3501 38.3519 63.6865 37.9215 63.5513ZM40.27 62.4417C39.4225 60.7473 42.6295 59.6977 43.1931 61.28C43.0928 61.6743 42.5964 61.9061 42.0295 62.139C41.4575 62.3533 40.7815 62.4646 40.27 62.4417ZM45.7415 71.7935C45.0387 71.7883 44.5185 71.5159 44.402 70.6596C45.2768 70.3977 46.1154 71.087 45.7415 71.7935ZM93.3428 63.6602C92.5033 63.6254 91.4525 63.1139 90.6865 62.4178C89.9201 61.724 89.4151 60.855 89.6405 60.1846C90.1849 59.6556 91.6234 60.1986 92.6751 61.0432C93.7472 61.8703 94.311 63.0628 93.3428 63.6602ZM87.1053 60.9303C87.3221 61.6776 87.1597 61.9288 86.4 62.1082C85.6364 61.6259 84.9897 61.1376 85.2999 60.5681C85.5752 60.0259 86.3515 60.499 87.1053 60.9303ZM82.1389 59.7449C82.09 60.4112 81.7446 60.942 81.2508 61.4959L79.9929 60.8819C79.7135 59.8927 80.711 58.7905 82.1389 59.7449ZM77.1862 59.593C78.1409 59.6375 78.7732 60.1446 79.1823 60.7328C79.5921 61.3227 79.7715 62.012 79.8057 62.5345C78.9744 62.5088 78.6531 62.0946 78.3326 61.6068C78.0157 61.1167 77.7005 60.5533 76.8811 60.3155L77.1862 59.593ZM66.023 55.0397C66.7433 55.2293 67.0626 55.5726 66.9848 56.0677C66.7001 56.1593 66.3078 56.128 65.8232 56.0013C65.5201 55.6669 65.6086 55.2069 66.023 55.0397ZM50.1681 52.5383C51.1233 52.285 50.6205 53.1576 51.4006 53.0657C52.0054 52.543 50.691 52.354 51.3337 51.694C52.2502 51.4184 52.7421 50.8721 54.3953 51.0464C54.5747 52.2101 53.3971 52.5123 52.5973 53.0388C52.6572 53.1977 52.9008 53.2307 52.9035 53.4273C53.7518 53.5788 54.825 53.4565 55.7775 53.5271C56.7272 53.6254 57.5536 53.8444 57.8731 54.519C57.709 54.6673 57.5511 54.8188 57.5475 55.0889C56.7309 55.1425 56.1569 55.1293 55.606 55.1549C55.0545 55.1998 54.5233 55.3141 53.8118 55.5724C53.1169 55.3068 52.5446 54.9484 51.8788 54.6518C51.5458 54.5033 51.1902 54.3704 50.7844 54.2727C50.3797 54.1861 49.9272 54.1667 49.4003 54.1929C48.8735 53.2275 50.0228 53.1518 50.1681 52.5383ZM45.2061 62.0888C46.2795 61.6696 46.6576 62.7017 46.4006 63.0592C45.3642 63.4676 44.9522 62.4456 45.2061 62.0888ZM47.2612 70.8956C47.1313 70.3322 47.5167 69.6834 48.0541 69.3298C48.595 69.0194 49.2742 68.9933 49.6394 69.5745C49.6391 70.0511 49.3022 70.4662 48.8418 70.7073C48.3775 70.9265 47.7962 71.0541 47.2612 70.8956ZM50.1097 67.747C49.0371 67.7524 48.8788 66.7485 48.1162 66.3749C47.7772 64.784 50.2855 64.4716 51.0699 65.4737C50.9347 66.3739 50.5494 67.091 50.1097 67.747ZM52.6282 69.3472C51.2349 69.3184 51.6329 67.547 53.2389 67.9611C53.3043 68.6584 53.1179 69.1422 52.6282 69.3472ZM57.1136 69.6289C56.4753 69.3407 56.3948 68.5751 56.9877 68.2422C57.758 68.451 57.6815 69.2992 57.1136 69.6289ZM58.6448 64.8069C58.3268 64.7857 58.0101 64.7645 57.6907 64.7432C57.6218 64.3294 57.8929 64.2379 57.9928 63.9774C58.3345 64.1715 58.9147 64.1968 58.6448 64.8069ZM59.7407 70.8887C59.0937 69.7404 59.9969 68.8222 60.1649 67.7735C61.3388 67.9068 61.7733 68.5003 62.2104 69.0716C61.8854 70.3387 61.2727 71.2194 59.7407 70.8887ZM60.4741 76.3555C60.595 75.8041 60.5938 75.074 60.9368 74.8351C61.9065 74.8781 62.0128 75.5642 61.9957 76.2749C61.795 76.488 61.549 76.6182 61.2872 76.6342C61.1564 76.6425 61.0212 76.6217 60.8856 76.5692C60.749 76.5307 60.6106 76.4618 60.4741 76.3555ZM64.2403 61.0739C64.137 60.1682 65.2328 60.6436 65.2885 59.9065C64.7859 59.4376 64.3764 58.8808 63.6258 58.5674C62.5238 58.9062 61.143 58.9563 59.9847 59.2104C58.8184 59.5121 57.885 60.0584 57.7006 61.2027C57.0751 61.1968 56.5326 61.0647 56.0303 60.8845C55.7789 60.7962 55.5383 60.6886 55.303 60.5909C55.0659 60.5028 54.8359 60.4169 54.6089 60.333C53.6984 60.004 52.8039 59.7883 51.757 60.3289C51.9861 61.0042 52.5884 61.3556 52.0971 62.0893C51.6764 62.1083 51.2554 62.082 50.8385 62.1419C50.321 61.318 49.5239 60.0309 50.0713 58.8641C49.4991 58.0435 48.1252 57.9061 47.9233 56.7168C48.5596 55.9778 49.473 56.3664 50.4422 56.4571C50.545 57.1075 51.4507 57.8014 50.8495 58.3909C51.9318 58.482 51.9153 57.8444 53.0087 57.948C53.4781 57.4961 53.6431 56.8296 54.099 56.354C54.5259 56.2583 54.9268 56.2125 55.3051 56.2028C55.6829 56.1994 56.0369 56.2652 56.3743 56.3332C57.0493 56.4785 57.6545 56.7092 58.2452 56.9229C58.8358 57.1394 59.4136 57.3265 60.0406 57.4185C60.6635 57.5416 61.3374 57.5498 62.1476 57.3507C63.0267 57.3863 63.2334 57.7614 63.4222 58.1386C64.5789 58.042 65.3861 57.7432 65.9024 57.0271C67.3357 57.7866 68.8816 58.4817 67.9904 60.1371C67.333 60.1898 66.9836 60.5937 66.026 60.2801C66.1789 61.4064 65.0874 61.8983 64.2403 61.0739ZM67.9093 70.7792C66.9422 70.2023 66.3898 69.3997 66.005 68.5394C66.8185 67.5316 67.7634 66.734 68.5559 65.63C69.8337 66.7263 69.7867 68.2924 69.63 69.8816C69.2182 70.4699 68.4325 70.4138 67.9093 70.7792ZM70.3296 62.485C70.5485 60.8572 72.8286 61.9823 72.3097 63.136C71.8624 63.2579 70.6028 62.8826 70.3296 62.485ZM72.653 58.8995C71.7529 58.4512 71.1835 57.8997 70.8013 57.2816C69.9933 57.4295 69.5294 57.3422 69.0403 57.1613C68.5502 56.9857 68.0542 56.673 67.2184 56.3241C68.0785 55.1593 69.0206 55.318 70.1191 55.9087C71.2155 56.5228 72.4948 57.4496 74.2442 57.7825C74.5823 58.7862 73.4748 58.733 72.653 58.8995ZM73.0239 75.3879L72.2629 75.0163C72.1042 74.6206 72.5109 73.7079 72.9193 73.5882C73.9983 73.8686 73.7021 75.0702 73.0239 75.3879ZM76.4844 67.0293C75.9569 67.0544 75.2128 67.1053 74.4678 67.0538C73.725 66.9923 73.0233 66.7399 72.5922 65.9957C72.7892 65.114 73.4875 65.0853 73.9442 64.6337C74.898 64.9185 74.9791 65.3972 75.9863 65.6996C76.651 64.7361 77.694 64.7619 78.7327 65.241C79.2475 65.4853 79.7727 65.8191 80.2178 66.2377C80.6587 66.6636 81.046 67.1303 81.3401 67.5692C80.6435 67.7197 79.9328 67.8171 79.1571 67.743C78.3564 67.7087 77.4889 67.5105 76.4844 67.0293ZM82.704 64.0546L83.175 64.3244C84.7233 65.829 83.7298 67.5252 83.6664 69.1692C82.4852 68.4673 81.9525 67.554 81.8709 66.5937C81.7856 65.6445 82.1331 64.6926 82.704 64.0546ZM81.3836 72.36C81.5913 71.552 82.1551 71.8295 82.6147 71.767C83.2846 72.3993 82.0999 73.1026 81.3836 72.36ZM77.2234 82.7928C77.7269 82.2114 79.0225 82.4998 79.3025 83.2935C79.0355 83.6915 78.7094 83.6895 78.3601 83.5172C78.007 83.3514 77.6052 83.054 77.2234 82.7928ZM89.9355 69.6949C89.2745 69.0613 90.1708 68.6852 90.541 68.4304C91.6329 69.1455 90.4704 69.8101 89.9355 69.6949ZM95.248 67.3385C94.8438 68.4621 94.0469 69.0896 92.9694 69.2972C92.1471 68.2386 91.0932 67.9257 90.1189 67.5696C89.1389 67.2114 88.1795 66.8776 87.5174 65.6047C88.2942 64.3777 89.5645 64.3876 90.5398 63.6107C91.918 64.857 93.0182 65.1751 94.1653 65.3796C95.2812 65.6079 96.4359 65.7317 97.4636 66.8963C97.023 68.162 95.953 67.0187 95.248 67.3385ZM94.4456 70.5095C95.4291 69.2347 97.0431 70.386 98.5791 71.2429C98.1191 72.6184 96.2146 72.6146 94.6041 71.1663C94.6253 70.9525 94.65 70.742 94.4456 70.5095ZM85.1016 84.9898C84.9338 84.7101 84.893 84.4244 84.7201 84.1409C85.1929 83.0964 86.4439 83.6804 86.6634 84.5431C86.4311 84.9604 86.1744 85.0541 85.9133 85.0495C85.6463 85.0511 85.3657 84.9625 85.1016 84.9898ZM87.5104 84.2749C87.1134 83.4737 87.4802 82.7827 88.084 82.5492C88.6757 82.3246 89.4737 82.6264 89.8234 83.7928C89.1038 84.7103 88.3339 84.9799 87.5104 84.2749ZM95.3358 79.5842C95.2358 78.9264 95.635 78.4008 96.2149 78.2731C96.7818 78.1541 97.5865 78.3952 98.1213 79.3543C97.936 79.8288 97.4967 80.1219 96.9826 80.1761C96.4749 80.222 95.8726 80.0496 95.3358 79.5842ZM99.7913 78.856C100.707 77.5215 102.303 79.6944 101.203 80.4087C100.731 80.3172 99.8377 79.3343 99.7913 78.856ZM106.877 85.3328C106.313 86.3716 106.554 87.6489 105.546 88.5194C104.863 87.7944 103.956 85.9564 103.597 84.8443C104.696 84.3116 105.787 84.0568 106.877 85.3328ZM98.9284 91.4058C99.5735 91.1947 100.185 91.5702 100.366 92.3992C99.9832 92.6977 99.6082 92.96 99.2617 92.8766C98.5532 92.2383 98.9098 91.8664 98.9284 91.4058ZM85.4833 103.283C85.1851 102.927 85.3749 102.659 85.8316 102.405C85.9759 102.592 86.1071 102.79 86.2294 102.994C85.9289 103.286 85.7339 103.18 85.4833 103.283ZM99.5919 95.1472C99.9891 95.2515 100.524 96.0904 100.452 96.4944C99.5152 97.3755 98.4903 95.6362 99.5919 95.1472ZM100.366 99.4329C100.254 98.5522 100.899 98.168 101.508 98.258C102.116 98.345 102.694 98.913 102.399 99.8484C101.632 100.116 100.928 100.09 100.366 99.4329ZM113.224 100.418C113.702 100.319 113.405 99.8128 114.001 99.7764C114.58 100.372 114.779 101.426 114.014 101.769C113.687 101.576 113.465 101.012 113.224 100.418ZM114.874 112.297C115.618 112.014 116.116 113.991 115.917 114.625C115.263 114.862 114.9 114.572 114.687 114.099C114.467 113.627 114.427 112.959 114.496 112.405L114.874 112.297ZM111.984 107.22C112.955 106.825 113.43 108.547 112.293 108.68C111.714 108.335 111.891 107.665 111.984 107.22ZM104.62 112.267C104.04 111.432 105.009 111.005 105.513 111.267C105.888 111.982 105.19 112.088 104.62 112.267ZM107.329 112.323C107.12 111.666 107.433 111.359 107.445 110.845C108.673 110.013 109.084 111.373 109.945 111.492C110.617 111.186 109.991 110.111 111.133 110.104C111.793 110.578 111.82 111.921 111.656 112.463C110.21 113.719 108.383 113.063 107.329 112.323ZM109.97 113.692C110.71 113.509 111.086 114.038 111.22 114.71C111.369 115.378 111.174 116.205 110.936 116.586C110.158 116.575 109.215 116.891 108.968 115.88C108.988 114.943 109.881 114.599 109.97 113.692ZM93.4246 120.03C93.4284 119.876 93.3157 119.89 93.1988 119.909C93.1773 119.797 93.1348 119.687 93.1044 119.574C93.2752 119.563 93.2626 119.462 93.2433 119.358C93.3686 119.324 93.4952 119.291 93.6236 119.256C93.6302 119.41 93.746 119.395 93.8626 119.375C93.8935 119.489 93.9362 119.601 93.9585 119.715C93.7906 119.725 93.7937 119.828 93.8061 119.935C93.6775 119.967 93.5504 119.999 93.4246 120.03ZM100.866 119.179C100.836 118.634 100.996 118.205 101.214 117.808C101.413 117.415 101.666 117.055 101.844 116.644C102.437 116.592 102.879 116.832 103.32 117.086C103.756 117.341 104.158 117.619 104.736 117.62C104.84 119.868 102.155 120.476 100.866 119.179ZM111.592 120.754C111.798 121.46 111.298 121.558 110.736 121.603L110.588 120.694C111.025 120.541 111.336 120.598 111.592 120.754ZM101.832 123.042C101.619 122.139 102.183 121.792 102.544 121.288C103.603 121.267 103.853 122.017 103.624 122.608C103.395 123.202 102.682 123.617 101.832 123.042ZM92.0482 123.958C92.2787 123.945 92.3864 123.862 92.4086 123.727C93.4953 123.67 93.5375 125.065 92.231 125.094C91.9184 124.918 91.8066 124.224 92.0482 123.958ZM125.247 128.863C124.491 132.697 126.944 132.104 128.275 131.666C128.227 133.08 127.601 133.654 127.217 134.558C127.212 135.302 127.969 135.004 127.962 135.754C128.007 137.243 127.376 137.755 126.974 138.606C126.023 137.388 123.911 136.678 122.562 137.383C122.278 136.935 122.088 136.369 121.971 135.745C121.86 135.122 121.837 134.443 121.868 133.769C121.898 133.095 121.987 132.427 122.088 131.83C122.16 131.234 122.257 130.709 122.35 130.324C121.802 129.68 121.263 130.645 120.763 129.825C120.722 128.605 120.593 127.22 121.015 126.634C122.046 126.872 123.696 128.442 125.247 128.863ZM118.599 137.588C118.252 137.155 118.009 136.66 117.785 136.064C117.568 135.468 117.438 134.775 117.424 133.944C118.523 132.722 119.442 133.476 119.781 134.666C119.95 135.257 119.974 135.946 119.804 136.508C119.604 137.07 119.209 137.501 118.599 137.588ZM117.668 131.173C117.859 131.165 117.81 130.861 117.849 130.665C118.853 130.603 119.662 130.863 119.641 132.196C119.268 132.406 118.796 132.439 118.411 132.276C118.032 132.111 117.732 131.754 117.668 131.173ZM118.668 126.801C117.828 126.947 117.574 126.179 117.349 125.378C118.046 124.356 119.089 126.033 118.668 126.801ZM116.859 126.428C116.54 126.837 115.297 126.921 114.906 126.581C114.866 126.178 114.826 125.776 114.787 125.371C114.923 125.15 115.307 125.176 115.324 124.828C116.283 124.65 116.797 125.187 116.859 126.428ZM100.761 124.983C101.158 124.847 101.292 125.048 101.558 125.077C101.622 125.82 100.61 125.899 100.761 124.983ZM109.866 123.576C110.193 123.828 110.162 124.531 110.229 125.128C109.659 125.41 109.532 126.099 108.538 125.974C108.428 125.463 107.823 125.637 107.848 124.945C108.551 124.528 109.067 123.906 109.866 123.576ZM95.4106 126.72C96.3923 126.668 96.2484 127.86 97.2888 127.781C97.1259 128.353 96.4544 127.89 95.761 128.256C95.2398 127.943 94.772 127.225 95.4106 126.72ZM114.929 126.825C114.953 127.45 114.851 128.007 114.625 128.409C114.399 128.81 114.04 129.056 113.479 129.073C113.177 128.427 113.264 127.873 113.544 127.472C113.818 127.073 114.327 126.826 114.929 126.825ZM110.772 130.322C109.326 130.529 107.616 131.595 106.268 130.637C106.466 130.027 107.587 129.254 108.661 128.953C109.734 128.654 110.76 128.867 110.772 130.322ZM93.542 131.374L93.5101 130.556C94.0318 130.545 94.663 130.432 94.6997 130.861C94.8353 131.462 94.1396 131.375 93.542 131.374ZM99.6111 132.618C99.5356 132.038 99.9345 131.9 100.023 131.506C100.384 131.466 100.66 131.681 100.759 131.964C100.855 132.246 100.805 132.597 100.584 132.824C100.127 132.875 99.8337 132.775 99.6111 132.618ZM101.995 131.887C101.924 131.436 102 131.142 102.16 130.911C102.797 131.026 103.789 131.382 104.377 131.871C104.932 132.354 105.083 132.973 104.095 133.504C103.092 133.231 103.324 131.804 101.995 131.887ZM105.548 136.044C105.676 134.83 106.26 134.267 106.841 133.595C107.358 133.685 107.562 134.097 107.672 134.611C107.778 135.124 107.814 135.739 107.896 136.228C107.091 136.603 106.168 136.616 105.548 136.044ZM111.376 130.766C113.817 130.209 114.096 132.37 116.29 132.669C115.836 133.839 116.154 135.257 116.219 136.364C116.22 137.466 116.005 138.226 114.616 137.975C115.293 136.007 113.947 135.16 112.77 134.361C112.178 133.959 111.611 133.56 111.311 133.017C111.013 132.471 110.994 131.786 111.376 130.766ZM110.69 137.817C111.754 138.263 112.171 137.929 112.908 137.334C113.945 137.662 113.468 139.113 112.861 139.704C111.892 139.51 110.536 139.664 110.182 138.902C110.21 138.341 110.561 138.242 110.69 137.817ZM102.16 138.32C103.27 139.315 104.894 139.256 106.246 138.848C106.28 139.396 106.268 139.962 106.259 140.512C106.247 141.062 106.215 141.592 106.107 142.044C105.999 142.496 105.815 142.868 105.503 143.101C105.177 143.331 104.712 143.418 104.083 143.317C103.926 143.042 104.038 142.561 104.131 142.074C104.233 141.589 104.336 141.102 104.146 140.833C103.317 140.711 102.661 140.974 102.02 140.464C101.878 140.226 101.907 139.871 101.98 139.485C102.061 139.102 102.17 138.682 102.16 138.32ZM99.0879 140.143C99.4691 139.141 100.469 139.332 101.059 139.88C101.651 140.423 101.838 141.343 100.635 141.578C100.172 141.052 99.2917 140.813 99.0879 140.143ZM97.395 140.742L97.277 141.442C96.5819 141.5 96.5411 140.292 97.395 140.742ZM102.909 142.24C103.365 142.268 103.641 142.423 103.835 142.638C103.73 143.357 103.307 143.608 102.644 143.406C102.361 142.98 102.954 142.958 102.909 142.24ZM100.157 142.833C100.413 142.892 100.666 142.951 100.923 143.01L100.783 143.567C100.268 143.498 99.9792 143.301 100.157 142.833ZM109.979 147.233C109.456 146.984 109.232 146.533 109.308 145.876C110.31 144.831 111.223 146.667 109.979 147.233ZM-19.4557 129.242C-19.6899 129.512 -20.0126 129.596 -20.3252 129.731C-20.4817 129.8 -20.635 129.876 -20.7742 129.985C-20.9132 130.092 -21.0405 130.277 -21.1224 130.313L-22.2977 130.219C-22.5454 127.807 -23.1528 126.168 -23.8112 124.548C-23.0772 125.861 -21.1426 126.082 -20.2771 124.796C-20.4567 125.632 -21.0307 125.691 -20.978 126.99C-20.9305 128.266 -19.6079 128.047 -19.4557 129.242Z" fill="white"/>
<path d="M134.945 129.736C115.991 88.3036 67.1171 70.0447 25.7826 88.9538C-15.552 107.863 -33.695 156.78 -14.7411 198.212C4.21291 239.645 53.0864 257.904 94.4209 238.994C135.755 220.085 153.899 171.169 134.945 129.736Z" fill="#FFCE46"/>
<path d="M112.213 100.937L89.5766 129.312C89.301 129.657 89.0559 129.965 88.8196 130.269C85.6754 135.883 81.2677 141.405 75.3485 147.147L46.9776 182.711C45.9389 184.105 44.8565 185.406 43.8094 186.663C42.6324 188.076 41.5208 189.412 40.4508 190.893L36.6445 195.665C36.3979 195.974 36.1522 196.281 35.9107 196.58L35.827 196.684L35.7206 196.763C32.4003 199.233 30.2117 202.819 28.0949 206.287C26.0068 209.709 23.848 213.246 20.581 215.827C20.2407 216.236 19.921 216.633 19.6087 217.02L13.7585 224.354C13.5409 224.627 13.3337 224.887 13.1384 225.136C12.9255 225.949 12.2856 226.493 11.8031 226.903C11.5999 227.075 11.2641 227.361 11.2081 227.494C11.2097 227.497 11.2165 227.515 11.2317 227.547C11.235 227.554 11.2386 227.562 11.2432 227.571L9.3413 228.523C8.52745 226.884 9.76108 225.841 10.425 225.277C10.6654 225.072 11.0686 224.729 11.0836 224.578L11.1129 224.271L11.3012 224.027C11.5458 223.712 11.8128 223.376 12.095 223.022L17.9487 215.684C18.294 215.256 18.6431 214.822 19.0194 214.372L19.1818 214.216C22.1944 211.866 24.179 208.615 26.2796 205.173C28.4792 201.569 30.7537 197.842 34.3411 195.132C34.5522 194.871 34.7663 194.603 34.9816 194.333L38.759 189.6C39.8395 188.102 41.0269 186.676 42.1755 185.296C43.2039 184.061 44.2682 182.782 45.2939 181.406L73.8193 145.661C79.6369 140.025 83.9491 134.626 87.0015 129.157L87.09 129.023C87.3467 128.692 87.6128 128.357 87.8786 128.025L110.55 99.6046L112.213 100.937Z" fill="white"/>
<path d="M142.008 154.648L142.245 156.767L112.552 160.032L112.374 159.989C105.427 158.333 98.7652 159.071 90.7742 162.38L90.6372 162.436L88.8612 162.641L41.7472 167.827C41.0007 167.909 40.2555 167.991 39.5207 168.059L39.2813 168.081L39.0559 167.998C32.6074 165.623 27.3133 167.417 21.1836 169.495C20.3525 169.777 19.5113 170.062 18.6544 170.341L18.4513 170.386C17.9953 170.44 17.553 170.489 17.1143 170.537L16.82 170.569L16.5512 170.444C16.3276 170.339 16.0651 170.441 15.5203 170.697C14.8574 171.008 13.746 171.529 12.6872 170.675C8.04649 166.929 3.80481 168.747 -1.10634 170.851C-3.39239 171.831 -5.75664 172.844 -8.21088 173.244C-8.87618 173.374 -9.50107 173.457 -10.0808 173.53L-21.4176 174.778L-21.6537 172.66L-10.3335 171.414C-9.78367 171.344 -9.22265 171.27 -8.58839 171.146C-6.35721 170.782 -4.11472 169.821 -1.94599 168.892C3.13134 166.716 8.38243 164.465 14.0203 169.016C14.0917 169.012 14.4066 168.864 14.6147 168.766C15.2242 168.48 16.1169 168.062 17.1364 168.39C17.4511 168.355 17.7683 168.32 18.0922 168.282C18.9069 168.015 19.708 167.744 20.4988 167.476C26.6722 165.383 32.5078 163.405 39.558 165.914C40.2037 165.852 40.8571 165.78 41.5116 165.708L90.097 160.354C98.3985 156.939 105.379 156.172 112.684 157.874L113.832 157.749L142.008 154.648Z" fill="white"/>
<path d="M124.713 215.207L123.386 216.87L37.3969 148.005C29.8141 142.759 22.2993 136.74 15.0631 130.118L8.35142 124.759C5.31629 122.691 2.73729 120.468 0.24065 118.317C-1.88494 116.485 -3.89228 114.754 -6.13341 113.141L-4.89345 111.411C-2.57709 113.08 -0.439463 114.922 1.627 116.703C4.08535 118.823 6.62825 121.014 9.57657 123.019L9.63944 123.065L16.47 128.523C23.6533 135.099 31.1104 141.071 38.6339 146.273L38.6944 146.318L39.981 147.348L124.713 215.207Z" fill="white"/>
<path d="M51.8735 81.6572L52.1217 83.842C52.1624 84.2029 52.2065 84.6023 52.2471 85.0236L52.2516 85.094C52.4371 91.3808 53.2948 97.2523 54.1246 102.93C54.3887 104.735 54.6506 106.53 54.8899 108.326L56.0514 118.533C56.0972 118.923 56.1427 119.311 56.1894 119.698C58.3917 125.303 58.4063 130.69 58.4216 136.39C58.4243 137.472 58.4277 138.566 58.4456 139.675L64.808 195.832C65.0868 199.201 65.67 202.399 66.2337 205.492C67.1645 210.598 68.0442 215.424 67.626 220.707L70.5293 246.335L68.415 246.572L65.4886 220.737L65.4974 220.633C65.9122 215.589 65.0518 210.869 64.1407 205.871C63.5677 202.728 62.9753 199.478 62.6908 196.037L56.3189 139.759C56.2999 138.622 56.2966 137.501 56.2935 136.393C56.2786 130.857 56.2647 125.63 54.1617 120.356L54.111 120.227L54.0935 120.09C54.0403 119.653 53.9894 119.218 53.9377 118.784L52.778 108.589C52.5422 106.818 52.2809 105.032 52.0182 103.235C51.1812 97.5083 50.3162 91.5866 50.1247 85.1907C50.0862 84.7948 50.0446 84.4201 50.006 84.0799L49.758 81.8957L51.8735 81.6572Z" fill="white"/>
<path d="M42.7491 174.319C42.1932 173.179 37.9444 174.106 33.2591 176.39C28.5739 178.674 25.2265 181.45 25.7824 182.591C26.3384 183.732 30.5872 182.805 35.2724 180.521C39.9576 178.236 43.3051 175.46 42.7491 174.319Z" fill="white"/>
<path d="M44.0368 173.752C45.4473 176.834 38.1678 180.677 35.8932 181.785C33.6078 182.9 26.0321 186.295 24.5272 183.206C24.5194 183.191 24.5122 183.175 24.5053 183.16C23.0951 180.077 30.3745 176.235 32.6492 175.127C34.9346 174.013 42.5092 170.617 44.015 173.706C44.0227 173.721 44.0296 173.736 44.0368 173.752ZM27.7391 181.64C29.0689 181.471 31.4976 180.8 34.6617 179.257C37.8261 177.714 39.8507 176.216 40.803 175.272C39.473 175.44 37.0443 176.112 33.8805 177.654C30.7161 179.198 28.6908 180.696 27.7391 181.64Z" fill="white"/>
<path d="M53.9251 182.942C53.1187 182.72 51.4399 186.293 50.1755 190.922C48.9111 195.551 48.5399 199.485 49.3464 199.707C50.1529 199.929 51.8316 196.356 53.096 191.727C54.3604 187.097 54.7316 183.164 53.9251 182.942Z" fill="white"/>
<path d="M55.4304 182.612C55.8788 183.592 55.746 185.002 55.6693 185.818C55.5054 187.555 55.0675 189.786 54.4352 192.1C51.7793 201.823 49.6722 201.241 48.9797 201.051C47.2489 200.574 47.4864 198.049 47.601 196.837C47.7649 195.101 48.2031 192.87 48.8348 190.556C49.4663 188.243 50.2222 186.099 50.9637 184.522C51.482 183.42 52.5587 181.127 54.2903 181.604C54.8568 181.76 55.2125 182.136 55.4304 182.612ZM50.7398 194.606C51.0719 193.68 51.4178 192.596 51.7555 191.361C52.0925 190.126 52.346 189.016 52.5308 188.048C52.1981 188.975 51.8517 190.059 51.5142 191.294C51.1764 192.529 50.9243 193.64 50.7398 194.606Z" fill="white"/>
<path d="M43.0906 132.117C42.3744 132.411 43.2422 136.175 45.0288 140.523C46.8154 144.872 48.8444 148.159 49.5606 147.865C50.2768 147.57 49.4091 143.807 47.6224 139.458C45.8358 135.11 43.8068 131.823 43.0906 132.117Z" fill="white"/>
<path d="M47.6787 137.239C47.9518 137.836 48.2221 138.458 48.4841 139.096C49.3672 141.245 50.0612 143.329 50.4383 144.965C50.8257 146.646 51.0302 148.263 49.9154 148.72C48.4827 149.309 46.5462 146.668 44.1663 140.868C43.283 138.718 42.5898 136.634 42.2128 134.998C41.825 133.319 41.6205 131.701 42.7356 131.243C43.8499 130.785 44.8416 132.079 45.7479 133.547C46.3672 134.552 47.0318 135.825 47.6787 137.239ZM48.7071 145.782C48.4391 144.481 47.8417 142.439 46.7591 139.803C45.6785 137.169 44.6664 135.297 43.9425 134.183C44.2111 135.484 44.8082 137.525 45.8899 140.16C46.9714 142.793 47.9835 144.669 48.7071 145.782Z" fill="white"/>
<path d="M71.2449 127.225C70.5046 126.995 68.7845 130.448 67.4029 134.937C66.0213 139.425 65.5014 143.251 66.2417 143.48C66.9819 143.71 68.702 140.257 70.0837 135.769C71.4653 131.28 71.9852 127.454 71.2449 127.225Z" fill="white"/>
<path d="M72.2501 127.028C72.8482 128.336 72.4236 131.358 70.9795 136.052C69.138 142.035 67.4529 144.838 65.9723 144.378C64.4898 143.917 64.675 140.65 66.5165 134.666C67.1995 132.447 67.9875 130.399 68.7344 128.899C69.5026 127.357 70.372 125.981 71.524 126.338C71.8438 126.439 72.0857 126.669 72.2501 127.028ZM66.9057 141.345C67.5249 140.172 68.3601 138.218 69.1971 135.499C70.0346 132.778 70.4426 130.692 70.5903 129.373C69.9711 130.545 69.1354 132.499 68.2986 135.22C67.4616 137.939 67.0534 140.025 66.9057 141.345Z" fill="white"/>
<path d="M87.3327 170.722C82.9088 169.148 79.1132 168.464 78.8551 169.195C78.5969 169.926 81.974 171.795 86.3979 173.369C90.8219 174.943 94.6175 175.626 94.8756 174.895C95.1337 174.164 91.7567 172.296 87.3327 170.722Z" fill="white"/>
<path d="M95.7116 174.27C95.8467 174.565 95.8759 174.876 95.7594 175.203C95.3581 176.341 93.7346 176.215 92.0399 175.91C90.3901 175.613 88.2772 175.02 86.0917 174.243C80.1942 172.144 77.4623 170.342 77.9799 168.876C78.4968 167.414 81.7495 167.737 87.6475 169.835C89.8341 170.614 91.8466 171.489 93.3142 172.301C94.3887 172.896 95.3773 173.539 95.7116 174.27ZM80.9709 169.94C82.1172 170.609 84.0335 171.529 86.7133 172.483C89.3942 173.437 91.4601 173.934 92.7706 174.139C91.6244 173.469 89.7081 172.549 87.0275 171.595C84.3466 170.642 82.2812 170.145 80.9709 169.94Z" fill="white"/>
<path d="M35.3619 155.578C31.4327 154.06 28.0341 153.386 27.771 154.072C27.5079 154.758 30.4798 156.544 34.409 158.062C38.3382 159.58 41.7367 160.254 41.9999 159.569C42.263 158.883 39.291 157.096 35.3619 155.578Z" fill="white"/>
<path d="M43.1138 158.877C43.3617 159.419 43.2178 159.792 43.1366 160.006C42.9106 160.595 42.2218 162.387 33.9701 159.199C25.7156 156.011 26.405 154.219 26.6299 153.63C27.1948 152.157 29.3757 152.59 30.4244 152.798C31.9245 153.096 33.8325 153.678 35.7961 154.436C41.0484 156.466 42.6802 157.929 43.1138 158.877ZM32.1004 155.743C32.8798 156.117 33.7959 156.516 34.8437 156.92C35.8912 157.326 36.8373 157.645 37.6647 157.893C36.8861 157.52 35.9705 157.121 34.9227 156.716C33.8741 156.311 32.9283 155.991 32.1004 155.743Z" fill="white"/>
<path d="M75.5008 192.438C73.1855 188.184 70.7251 185.054 70.0051 185.446C69.2852 185.838 70.5785 189.604 72.8938 193.858C75.209 198.112 77.6695 201.243 78.3895 200.851C79.1094 200.458 77.8161 196.692 75.5008 192.438Z" fill="white"/>
<path d="M77.959 195.24C79.3138 198.201 80.1219 200.977 78.839 201.676C77.7572 202.266 76.6002 201.064 75.5108 199.679C74.4421 198.318 73.2227 196.411 72.0793 194.309C69.961 190.422 67.8088 185.586 69.5625 184.63C70.6443 184.041 71.801 185.242 72.8907 186.627C73.9594 187.988 75.1785 189.895 76.3222 191.997C76.891 193.041 77.4619 194.153 77.959 195.24ZM77.4179 199.065C77.0376 197.777 76.1866 195.649 74.6863 192.889C73.1838 190.128 71.859 188.261 70.9836 187.242C71.3636 188.53 72.2146 190.658 73.7155 193.418C75.218 196.179 76.5427 198.046 77.4179 199.065Z" fill="white"/>
<path d="M90.4048 144.859C89.9411 144.233 86.6681 145.88 83.0943 148.536C79.5205 151.192 76.9994 153.852 77.4631 154.477C77.9268 155.103 81.1998 153.456 84.7736 150.8C88.3474 148.144 90.8685 145.484 90.4048 144.859Z" fill="white"/>
<path d="M91.2881 144.529C91.7175 145.468 90.7799 146.655 89.7799 147.711C88.6802 148.871 87.1002 150.234 85.3295 151.549C83.5589 152.866 81.7981 153.986 80.3711 154.704C78.9663 155.411 77.4332 156.003 76.7147 155.034C75.5532 153.482 79.2438 150.234 82.5373 147.786C84.3078 146.469 86.0684 145.35 87.4956 144.631C88.9007 143.925 90.4337 143.333 91.1523 144.302C91.2079 144.376 91.2527 144.452 91.2881 144.529ZM79.1628 153.214C80.2941 152.682 82.0416 151.665 84.217 150.049C86.3926 148.431 87.8694 147.051 88.7054 146.12C87.5743 146.653 85.8265 147.668 83.6506 149.285C81.4755 150.902 79.999 152.283 79.1628 153.214Z" fill="white"/>
<path d="M68.9517 160.791C66.7237 155.92 60.9787 153.774 56.12 155.997C51.2612 158.219 49.1285 163.969 51.3565 168.84C53.5845 173.71 59.3295 175.856 64.1882 173.634C69.047 171.411 71.1797 165.661 68.9517 160.791Z" fill="#FFCE46"/>
<path d="M145.462 120.733C146.523 123.051 147.367 125.45 148.242 127.934C149.246 130.787 150.284 133.73 151.713 136.627L151.742 136.685L151.764 136.747C152.034 137.519 152.255 138.277 152.436 138.917C154.531 146.644 155.659 154.613 155.792 162.612C155.805 163.381 155.807 164.148 155.798 164.905C155.772 165.646 155.823 166.459 155.877 167.317C155.969 168.773 156.064 170.277 155.831 171.737L155.811 171.869L155.758 171.992C152.55 179.42 151.75 186.556 150.902 194.111L150.869 194.336C150.793 194.647 150.71 194.944 150.626 195.243L150.514 195.635C148.041 202.749 144.714 209.576 140.625 215.927C140.401 216.276 140.173 216.625 139.933 216.964L139.824 217.094C137.211 219.761 134.82 222.658 132.29 225.725C130.764 227.573 129.187 229.484 127.57 231.323C127.098 231.859 126.623 232.39 126.141 232.914L126.08 232.976L124.555 234.391C118.593 239.928 112.429 245.654 105.281 249.001C104.68 249.332 104.096 249.645 103.506 249.949C100.317 251.594 97.2816 252.788 94.2288 253.598C93.5421 253.859 92.8529 254.111 92.1696 254.348L91.9801 254.395C89.1012 254.831 86.2318 255.356 83.1942 255.913C76.6938 257.104 69.9731 258.334 63.2597 258.608L61.0389 258.598C60.0352 258.593 59.0323 258.595 58.0284 258.595C51.115 258.599 43.9651 258.603 37.0477 256.72C36.3858 256.528 35.7911 256.344 35.1932 256.156C30.8201 254.788 25.0711 252.927 19.3895 250.656C18.6658 250.322 17.9925 249.995 17.2788 249.632C14.2764 248.05 11.5614 246.088 8.93673 244.19C5.76305 241.897 2.76593 239.731 -0.710429 238.153L-0.919006 238.028C-1.36283 237.688 -1.79096 237.306 -2.22856 236.863C-2.60718 236.474 -2.95433 236.074 -3.26549 235.669L-4.08652 234.955C-4.67602 234.42 -5.2406 233.897 -5.78786 233.374L-5.86362 233.295C-11.5452 226.626 -18.0678 218.806 -23.5783 210.374L-23.6192 210.307C-23.976 209.662 -24.3249 209.013 -24.6644 208.361C-28.3802 201.255 -31.1965 193.678 -33.0375 185.845C-33.2138 185.072 -33.3809 184.305 -33.5375 183.518C-35.1174 173.443 -35.6911 164.509 -35.3017 156.162C-35.2392 155.36 -35.1693 154.593 -35.0887 153.828C-34.5561 148.677 -33.5974 143.536 -32.2396 138.55C-32.0309 137.815 -31.8185 137.091 -31.5783 136.332C-29.5632 129.944 -26.928 124.504 -24.1388 118.744C-23.6521 117.738 -23.1608 116.725 -22.6698 115.698L-22.6284 115.62C-22.2426 114.96 -21.8471 114.3 -21.4421 113.643C-19.4076 110.34 -17.1412 107.116 -14.7058 104.063C-11.8106 100.434 -8.63627 96.9944 -5.27092 93.8404C-4.7226 93.3259 -4.16877 92.8191 -3.61027 92.3209C2.27092 86.382 7.49185 82.6313 12.8104 80.5263C13.4756 80.1549 14.1147 79.8035 14.7552 79.461C17.9852 77.7286 21.35 76.1683 24.7558 74.8231C25.4371 74.5535 26.1203 74.2924 26.7986 74.0431L27.0197 73.9616L27.2546 73.9815C33.0943 74.4746 38.0335 72.8054 43.2633 71.0385C46.1552 70.0613 49.1444 69.0516 52.283 68.4482L52.4564 68.4298L54.3645 68.3824C63.0634 68.1829 71.5234 68.1665 79.4118 70.1196C80.1153 70.2607 80.8597 70.4217 81.6021 70.5917C83.8219 71.1073 86.0462 71.7083 88.2177 72.3802C88.9709 72.6137 89.7222 72.8563 90.4851 73.1139C96.128 74.6621 101.454 77.0283 106.71 80.33C107.013 80.4988 107.362 80.6965 107.709 80.8982C111.908 83.3238 115.972 86.1033 119.788 89.1584C128.761 96.3452 136.282 104.946 142.143 114.72C142.523 115.356 142.897 115.995 143.261 116.638C144.108 117.974 144.824 119.339 145.462 120.733ZM149.212 136.317C148.028 133.729 147.119 131.148 146.236 128.639C144.876 124.778 143.591 121.132 141.438 117.731C141.055 117.059 140.69 116.434 140.318 115.813C134.589 106.256 127.235 97.8471 118.46 90.8198C114.728 87.8313 110.754 85.1132 106.647 82.7411C106.307 82.5443 105.967 82.3508 105.626 82.1592C100.504 78.943 95.3641 76.6592 89.8672 75.1493C89.0617 74.88 88.3271 74.6427 87.5915 74.4139C85.4698 73.7579 83.2944 73.1705 81.1276 72.6672C80.4059 72.5026 79.6793 72.345 78.9488 72.1966C71.2708 70.2971 62.9662 70.3162 54.4175 70.5115L52.602 70.5571C49.6352 71.1356 46.7432 72.1123 43.9463 73.0576C38.8075 74.7944 33.4949 76.5889 27.3171 76.1239C26.7267 76.3424 26.1325 76.5702 25.5399 76.8047C22.2098 78.1201 18.9199 79.6461 15.7614 81.3397C15.1119 81.6877 14.4641 82.0437 13.7885 82.4219L13.7256 82.4574L13.659 82.4831C8.59471 84.4745 3.5814 88.0849 -2.11982 93.8452L-2.16813 93.8904C-2.72181 94.3843 -3.27113 94.8877 -3.81569 95.3971C-7.10603 98.4815 -10.2106 101.845 -13.042 105.394C-15.424 108.38 -17.6409 111.532 -19.6306 114.764C-20.0195 115.395 -20.399 116.028 -20.7702 116.661C-21.2567 117.677 -21.7424 118.68 -22.2243 119.675C-24.9794 125.364 -27.5813 130.736 -29.5498 136.976C-29.7827 137.714 -29.99 138.419 -30.1897 139.123C-31.5139 143.987 -32.4509 149.013 -32.9726 154.051C-33.0504 154.8 -33.1191 155.548 -33.1784 156.298C-33.5594 164.465 -32.9922 173.258 -31.4429 183.147C-31.2979 183.87 -31.136 184.619 -30.9648 185.365C-29.1665 193.018 -26.4124 200.423 -22.7792 207.375C-22.4524 208.001 -22.1179 208.623 -21.776 209.241C-16.3523 217.538 -9.90577 225.27 -4.28269 231.87C-3.7602 232.368 -3.22177 232.866 -2.67715 233.36L-1.63649 234.296C-1.36302 234.66 -1.05175 235.022 -0.711694 235.37C-0.37845 235.709 -0.0522705 236.003 0.279961 236.265C3.90214 237.927 7.09277 240.232 10.1788 242.463C12.7438 244.317 15.397 246.234 18.2526 247.739C18.9292 248.083 19.5789 248.399 20.2267 248.699C25.7888 250.92 31.4872 252.766 35.8246 254.122C36.4108 254.307 36.9919 254.486 37.6196 254.669C44.2449 256.471 51.2498 256.468 58.025 256.464C59.0331 256.463 60.0395 256.462 61.044 256.468L63.2194 256.477C69.7346 256.21 76.3815 254.993 82.8089 253.816C85.6964 253.288 88.6811 252.741 91.5622 252.302C92.2134 252.074 92.8701 251.834 93.5245 251.585L93.6311 251.551C96.5512 250.78 99.4627 249.636 102.532 248.053C103.114 247.754 103.69 247.445 104.283 247.117L104.348 247.084C111.207 243.88 117.257 238.261 123.108 232.827L124.604 231.439C125.066 230.936 125.523 230.426 125.975 229.912C127.57 228.099 129.136 226.201 130.651 224.366C133.08 221.422 135.592 218.378 138.246 215.661C138.45 215.369 138.644 215.07 138.838 214.77C142.83 208.569 146.079 201.906 148.495 194.961L148.58 194.661C148.651 194.407 148.723 194.154 148.788 193.892L148.79 193.87C149.651 186.194 150.464 178.942 153.752 171.271C153.923 170.077 153.838 168.741 153.756 167.448C153.698 166.535 153.644 165.672 153.673 164.849C153.681 164.138 153.679 163.392 153.667 162.644C153.538 154.821 152.434 147.029 150.387 139.483C150.215 138.872 150.02 138.203 149.779 137.509C149.582 137.112 149.394 136.715 149.212 136.317Z" fill="white"/>
<path d="M135.915 129.201C139.572 137.194 141.971 145.803 142.979 154.789C145.469 176.965 139.189 198.77 125.295 216.185C122.804 219.309 120.075 222.271 117.184 224.991C116.609 225.532 116.029 226.062 115.445 226.58L115.309 226.683C112.744 228.304 110.26 230.037 107.859 231.713C107.094 232.247 106.332 232.779 105.57 233.306C105.077 233.646 104.504 234.039 103.937 234.392L103.695 234.542L103.409 234.551C97.9357 234.717 94.0912 237.557 90.0204 240.563C88.9031 241.388 87.7477 242.242 86.5577 243.035L86.4701 243.094L86.3727 243.133C85.7798 243.378 85.2082 243.596 84.6262 243.818L84.019 244.047C76.646 246.237 69.0048 247.399 61.3072 247.501C60.576 247.51 59.8463 247.51 59.1439 247.497L59.0486 247.491C58.3498 247.415 57.655 247.349 56.9752 247.291L56.9042 247.282C50.2826 246.262 44.0332 244.798 37.4167 243.249C36.0422 242.927 34.6616 242.604 33.2732 242.284L33.1731 242.256C32.5593 242.049 31.9584 241.844 31.3562 241.638C27.7377 240.398 24.9514 239.395 22.3214 238.385L22.2186 238.339C21.5185 237.981 20.8268 237.612 20.1381 237.235C19.4535 236.859 18.7734 236.472 18.0973 236.074C17.7515 235.871 17.4077 235.666 17.0657 235.458C14.3954 233.795 12.0024 231.755 9.68804 229.782C7.34422 227.785 5.13049 225.898 2.77163 224.494L2.5896 224.358C2.28667 224.075 1.99118 223.793 1.69746 223.507C-11.5446 210.503 -20.1675 193.175 -22.5864 174.709C-25 156.29 -21.1664 137.389 -11.7905 121.489C-11.3961 120.82 -10.9903 120.153 -10.5749 119.492C-10.0075 118.672 -9.50027 117.906 -8.99629 117.147C-8.23651 116.001 -7.45008 114.816 -6.58482 113.636C-6.10431 113.001 -5.60705 112.368 -5.09677 111.74L-5.09621 111.74C-4.57966 111.106 -4.05651 110.48 -3.52942 109.86C-3.00177 109.24 -2.46691 108.627 -1.92551 108.023C6.83544 98.2604 17.4545 90.901 29.6379 86.1483C30.3299 85.8785 31.0254 85.6179 31.7234 85.367L31.9009 85.3204C33.4254 85.0554 34.8516 84.5162 36.3619 83.9452C38.2679 83.2251 40.2377 82.4805 42.4616 82.3016C43.1606 82.152 43.8615 82.0109 44.5643 81.8785C50.3694 80.7898 56.3039 80.3164 62.202 80.4716C62.9748 80.4936 63.7436 80.5261 64.5175 80.5713L64.6354 80.5851C74.6102 82.288 84.3328 84.6131 93.5337 87.4962L93.6457 87.5385C94.3658 87.8563 95.0817 88.1855 95.7939 88.526C101.576 91.2833 107.067 94.7316 112.115 98.7744C122.473 107.068 130.548 117.469 135.915 129.201ZM114.097 224.927C114.644 224.441 115.187 223.943 115.726 223.437C118.544 220.786 121.204 217.899 123.632 214.854C151.581 179.819 145.818 128.493 110.788 100.437C105.868 96.4965 100.516 93.1365 94.8816 90.4486C94.2057 90.1255 93.5267 89.8132 92.8448 89.5111C83.7689 86.6706 74.1798 84.3772 64.3395 82.6948C63.6054 82.6525 62.8767 82.6219 62.1471 82.6012C56.4008 82.4497 50.6173 82.9117 44.9592 83.9731C44.2514 84.1064 43.5456 84.2484 42.8413 84.3998L42.6969 84.4211C40.7486 84.5654 38.9835 85.2327 37.1157 85.9387C35.607 86.5089 34.0476 87.0982 32.3607 87.4029C31.7084 87.6383 31.0585 87.8821 30.4119 88.1345C18.5415 92.7643 8.19362 99.9361 -0.34254 109.448C-0.871108 110.038 -1.39389 110.637 -1.90982 111.244C-2.42799 111.853 -2.9411 112.466 -3.44736 113.089C-3.94293 113.697 -4.42413 114.31 -4.87986 114.912C-5.70558 116.038 -6.44333 117.151 -7.22454 118.328C-7.7355 119.099 -8.25138 119.876 -8.80051 120.668C-9.17955 121.274 -9.57439 121.923 -9.95944 122.575C-19.0944 138.068 -22.8303 156.486 -20.4788 174.435C-18.1198 192.432 -9.71851 209.317 3.18016 221.983C3.43338 222.229 3.69098 222.476 3.95438 222.722C6.42958 224.21 8.68242 226.13 11.0645 228.16C13.3192 230.083 15.6517 232.07 18.1764 233.643C18.5001 233.839 18.8352 234.039 19.1713 234.237C19.8302 234.624 20.4927 235.001 21.1595 235.367C21.8133 235.726 22.4701 236.076 23.1342 236.416C25.7229 237.41 28.4739 238.4 32.042 239.622C32.6249 239.822 33.206 240.02 33.798 240.219C35.1719 240.537 36.5369 240.856 37.897 241.174C44.4607 242.712 50.6612 244.164 57.1894 245.171C57.8575 245.229 58.539 245.294 59.2261 245.368C59.8921 245.38 60.5825 245.38 61.2745 245.37C68.7632 245.272 76.1973 244.143 83.3708 242.017L83.8647 241.828C84.3978 241.625 84.9215 241.425 85.4624 241.204C86.5802 240.454 87.6851 239.638 88.7541 238.848C92.8416 235.83 97.0657 232.711 103.047 232.433C103.499 232.145 103.956 231.831 104.358 231.552C105.118 231.027 105.877 230.498 106.639 229.966C109.038 228.291 111.517 226.56 114.097 224.927Z" fill="white"/>
<path d="M69.8227 160.262C71.4606 163.842 71.0762 168.195 68.4635 171.47C64.7687 176.1 57.9961 176.851 53.366 173.143C48.7367 169.435 47.9739 162.651 51.6687 158.019C53.4586 155.776 56.0143 154.366 58.8659 154.051C61.7173 153.735 64.5226 154.55 66.7656 156.346C68.12 157.431 69.1451 158.781 69.8227 160.262ZM52.2343 168.337C52.7889 169.549 53.6232 170.623 54.6932 171.48C58.4061 174.454 63.8381 173.852 66.8 170.138C68.2353 168.339 68.8839 166.087 68.6266 163.796C68.3693 161.506 67.2367 159.45 65.4381 158.01C61.7252 155.036 56.2943 155.638 53.3318 159.352C51.8966 161.151 51.2479 163.403 51.5047 165.694C51.6089 166.622 51.8567 167.511 52.2343 168.337Z" fill="white"/>
</svg>
