<svg width="354" height="607" viewBox="0 0 354 607" fill="none" xmlns="http://www.w3.org/2000/svg">
<path fill-rule="evenodd" clip-rule="evenodd" d="M-77.6083 115.413C-78.7722 115.616 -80.1042 116.768 -81.094 118.083C-82.0432 119.415 -82.6303 120.91 -82.4462 121.757C-81.2619 121.798 -79.7973 120.592 -78.6787 119.221C-77.5697 117.848 -76.9162 116.25 -77.6083 115.413ZM198.754 117.342C202.963 121.119 199.937 124.213 197.716 124.573C196.387 123.377 197.164 122.875 195.496 121.565C197.784 120.632 196.986 117.265 198.754 117.342ZM30.9376 64.3717C27.9145 65.1917 26.7121 64.7029 24.7852 64.7454C24.2968 62.5604 27.76 60.3048 32.034 60.4356C33.3528 61.4243 32.4179 63.092 30.9376 64.3717ZM15.5224 67.0347C14.9989 66.8421 14.4815 66.641 14.3651 66.0918C15.2407 65.4857 16.4684 64.934 18.4502 64.5327C18.6023 65.5681 17.6278 66.3911 15.5224 67.0347ZM236.034 179.886C237.598 179.648 239.307 181.119 239.737 183.821C238.672 183.632 237.653 182.688 236.52 183.694C235.352 181.718 235.68 180.803 236.034 179.886ZM-81.6262 140.378C-84.1842 139.096 -86.9594 139.018 -89.7223 138.78C-89.097 137.986 -88.4759 137.198 -87.8506 136.404C-85.8953 139.862 -82.6658 135.904 -79.9904 135.073C-79.283 136.34 -79.14 137.813 -81.6262 140.378ZM257.812 271.344C257.84 272.621 257.868 273.893 257.896 275.174C256.458 276.199 255.829 270.066 257.812 271.344ZM91.4636 65.3403C92.8337 64.8726 95.7882 65.8731 98.192 66.3514C97.1025 68.1476 95.0608 69.1548 93.8231 70.802C91.8301 70.3315 90.6769 69.3487 90.3049 68.2591C89.9357 67.1696 90.3513 65.997 91.4636 65.3403ZM158.788 94.694C159.749 94.1923 161.533 95.2159 162.503 94.7243C163.867 95.7301 164.81 96.6739 165.698 97.6433C166.562 98.6273 167.414 99.6097 168.67 100.657C168.485 101.962 167.19 100.86 166.855 101.835C165.927 101.178 165.029 100.529 164.19 99.8912C163.342 99.2599 162.504 98.6736 161.785 98.0789C160.337 96.9001 159.255 95.7681 158.788 94.694ZM234.211 192.601C234.45 190.696 236.5 188.313 238.513 189.184C240.009 191.997 239.408 193.187 238.985 194.498C237.217 195.259 235.815 193.084 234.211 192.601ZM201.071 134.395C199.861 133.062 200.061 132.283 199.272 131.126C200.133 131.194 201.312 132.482 202.31 133.334C201.9 133.685 201.484 134.041 201.071 134.395ZM248.44 318.893C248.973 319.605 247.583 325.204 246.775 325.593C245.081 324.779 247.984 320.458 248.44 318.893ZM43.5078 67.1357C46.6073 66.903 50.2395 67.8962 47.9861 69.5548C44.2791 70.1048 43.6841 68.7611 43.5078 67.1357ZM85.704 68.9731C85.9815 71.6121 88.8483 74.895 84.6654 75.826C80.52 75.1691 77.9834 72.5895 77.8128 70.611C77.6508 68.5963 80.0358 67.1547 85.704 68.9731ZM149.262 92.5358C151.864 94.6602 152.528 96.7947 152.489 98.8367C152.452 100.878 151.698 102.852 151.239 104.84C150.16 102.527 149.393 100.108 145.292 97.7695C146.681 96.1362 147.136 92.9932 149.262 92.5358ZM10.8202 80.3156C10.2608 80.1732 9.68091 80.0261 9.11468 79.8811C8.57236 79.7393 8.03783 79.5869 7.53489 79.3961C6.5307 79.0151 5.65572 78.4808 5.11781 77.5628C6.44317 76.8776 7.60969 76.3426 8.72778 75.9381C9.95134 75.543 11.05 75.2741 12.0483 75.1018C14.0447 74.7571 15.6331 74.8004 17.0265 75.016C19.8276 75.4758 21.8014 76.5027 24.9052 76.8043C23.5258 78.6852 24.9518 79.4447 26.3622 80.1705C27.7836 80.8955 29.1964 81.5864 28 83.2471C25.4481 83.805 23.7932 83.8527 22.505 83.5017C21.2168 83.1507 20.3161 82.4311 19.4155 81.7057C17.6199 80.2609 15.7951 78.7675 10.8202 80.3156ZM-92.9219 169.325C-95.1644 169.826 -96.7063 170.05 -98.2092 167.857C-96.2551 166.803 -91.3907 163.033 -92.4681 159.902C-90.61 159.678 -90.3652 161.134 -90.781 163.077C-91.1476 165.032 -92.136 167.494 -92.9219 169.325ZM54.8448 73.6719C53.2644 70.7788 57.7962 69.5882 61.9295 69.8749C62.9571 69.951 63.9557 70.0896 64.8121 70.3594C65.6676 70.6422 66.3862 70.9976 66.8714 71.4105C67.8423 72.2374 67.8607 73.2846 66.2127 74.4524C64.92 74.4751 63.8919 74.4288 62.991 74.3595C62.0912 74.2743 61.3228 74.1233 60.5514 73.975C59.0122 73.677 57.4528 73.3839 54.8448 73.6719ZM112.027 78.1985C112.053 79.7915 108.344 82.0259 104.468 81.3877C102.654 80.3104 101.872 79.6109 101.888 79.035C101.895 78.473 102.682 78.0693 103.834 77.8464C106.101 77.4455 109.89 77.732 112.027 78.1985ZM-101.736 191.022C-103.34 191.159 -105.017 190.871 -106.739 190.225C-106.707 188.793 -106.043 187.399 -105.242 185.999C-104.403 184.599 -103.409 183.197 -102.771 181.716C-103.724 180.58 -103.55 179.074 -102.809 177.772C-102.049 176.472 -100.686 175.388 -99.3759 175.071C-96.223 177.872 -102.827 186.772 -101.736 191.022ZM-60.1597 121.108C-58.5295 119.57 -56.566 119.457 -57.1319 121.103C-58.7024 122.787 -59.4657 122.058 -60.1597 121.108ZM131.873 92.8614C133.411 91.4121 136.432 91.1743 139.067 92.0398C141.613 92.9777 143.746 94.9875 143.591 97.7313C141.276 96.126 139.025 95.8381 137.06 95.4746C135.024 95.1686 133.279 94.7773 131.873 92.8614ZM-74.2199 138.963C-75.1894 138.434 -74.033 137.146 -73.2421 135.983C-72.4479 136.743 -72.8486 138.507 -74.2199 138.963ZM-20.6816 99.062C-22.5561 97.1593 -18.6206 95.3068 -20.4528 93.3861C-18.9098 92.5535 -18.1889 92.9783 -16.3118 91.6606C-12.8131 93.5622 -14.8793 97.6773 -20.6816 99.062ZM244.538 285.24C245.472 283.734 246.826 284.985 247.356 286.136C247.489 288.776 246.034 288.278 244.81 288.159C244.943 286.862 244.389 286.601 244.538 285.24ZM-123.396 251.631C-122.744 248.378 -122.581 243.666 -120.379 244.266C-119.678 246.414 -120.514 253.201 -123.396 251.631ZM41.9556 75.5116C44.8564 73.7426 51.0307 75.2309 52.4443 74.5575C53.1371 76.9713 56.5906 77.8533 58.2126 79.7168C58.1776 81.5894 53.322 81.0377 51.3029 81.953C48.776 79.459 42.1021 79.6505 41.9556 75.5116ZM243.309 254.482C244.401 254.709 245.745 259.372 244.256 260.113C242.168 260.442 242.879 255.777 243.309 254.482ZM241.339 294.386C242.997 292.368 245.175 296.662 243.227 299.702C241.376 299.607 240.833 297.733 241.339 294.386ZM206.081 170.958C206.695 170.106 207.149 169.171 208.488 168.678C211.785 169.917 215.131 172.369 217.174 175.346C218.197 176.828 218.892 178.436 219.062 180.073C219.205 181.725 218.784 183.425 217.69 185.043C218.502 186.382 218.774 187.385 218.808 188.235C217.138 188.675 218.044 190.763 216.087 191.014C214.504 188.734 214.891 186.625 213.478 185.697C211.678 183.955 211.326 186.133 210.581 187.183C209.372 185.266 208.454 183.648 208.167 182.18C207.868 180.721 208.126 179.451 209.045 178.383C209.71 178.876 210.375 179.661 211.003 181.049C213.275 179.995 212.505 178.119 210.945 176.179C210.167 175.211 209.193 174.231 208.308 173.325C207.397 172.432 206.542 171.631 206.081 170.958ZM-0.538191 89.2897C0.124778 88.9892 0.791938 88.7685 1.45651 88.5053C1.71014 89.1395 1.96154 89.7719 2.21357 90.4027C0.760485 90.6705 -0.514108 90.8158 -0.538191 89.2897ZM204.19 157.744C205.416 158.421 205.724 159.335 206.066 160.408C206.377 161.502 206.708 162.764 208.034 164.167C206.599 164.468 205.498 163.151 204.835 161.605C204.133 160.085 203.836 158.34 204.19 157.744ZM-38.3945 116.533C-40.0499 117.853 -41.7036 119.171 -43.3648 120.494C-43.8775 118.333 -43.5587 115.945 -39.2134 113.06C-37.9183 114.105 -38.3139 115.309 -38.3945 116.533ZM-73.9726 178.939C-77.3031 178.001 -80.6037 179.455 -83.733 181.286C-85.6024 180.352 -86.1958 178.705 -85.7797 176.499C-82.5894 174.826 -80.916 170.392 -80.7639 167.335C-78.0795 168.986 -78.3902 172.052 -76.9041 174.284C-76.957 173.07 -72.0536 166.512 -75.8875 165.824C-75.048 164.559 -74.2607 163.284 -73.3484 162.046C-74.4205 159.082 -78.3921 158.39 -80.7706 157.704C-78.5566 154.955 -76.2853 153.68 -74.1562 152.369C-71.9779 151.071 -69.8793 149.765 -68.0034 146.855L-66.4286 148.151C-73.7905 155.311 -68.6245 157.932 -67.8083 162.013C-68.7351 163.563 -69.5892 165.057 -70.2719 166.536C-70.941 168.02 -71.5161 169.464 -72.0105 170.87C-73.0343 173.669 -73.6011 176.36 -73.9726 178.939ZM7.96259 91.7379C4.69951 91.481 6.74348 88.0446 10.408 88.2305C11.2207 89.7125 10.574 90.905 7.96259 91.7379ZM-105.268 241.767C-110.335 243.14 -112.062 240.215 -114.651 237.067C-114.258 235.157 -113.455 234.27 -112.815 232.996C-113.708 235.84 -108.428 236.993 -106.94 236.381C-104.818 235.505 -103.951 231.941 -102.793 228.974C-101.688 225.996 -100.278 223.646 -97.5515 225.206C-97.1271 227.865 -97.4003 231.191 -95.9854 233.043C-94.5477 233.878 -91.1652 233.1 -92.1105 235.893C-96.0112 234.589 -97.4086 234.887 -101.608 235.231C-103.237 236.37 -103.858 240.173 -105.268 241.767ZM-95.9029 184.376C-94.9711 182.051 -92.5155 184.708 -92.3312 185.433C-93.162 186.285 -94.0249 186.818 -94.9272 187.028C-96.2142 186.744 -95.1283 184.986 -95.9029 184.376ZM158.887 117.268C160.496 117.5 162.348 118.326 163.401 117.14C165.908 119.796 161.931 120.336 158.887 117.268ZM-100.209 204.2C-101.535 207.917 -102.594 206.922 -100.587 204.052C-101.426 201.758 -101.244 198.986 -100.199 197.035C-99.0939 195.085 -97.1513 193.981 -94.5652 194.956C-94.7417 199.414 -97.6812 202.894 -100.209 204.2ZM131.842 104.21C129.894 101.471 131.71 100.42 134.685 100.802C137.574 101.248 141.578 103.168 143.828 105.88C141.384 108.03 133.995 101.557 131.842 104.21ZM216.581 192.963C217.974 194.272 219.375 194.802 220.745 195.838C222.107 196.874 223.413 198.445 224.413 201.877C222.641 202.618 221.351 200.347 219.742 200.201C218.493 200.868 218.251 202.243 217.483 203.246C216.336 203.112 215.444 201.496 214.357 201.059C214.049 197.659 216.018 195.702 216.581 192.963ZM235.857 295.912C236.132 297.542 236.613 299.676 236.451 301.55C236.337 303.425 235.82 305.04 234.458 305.599C233.168 305.487 232.583 304.545 232.417 303.111C232.228 301.676 232.566 299.75 232.805 297.624C234.232 297.987 234.506 295.751 235.857 295.912ZM229.519 293.811C229.753 291.182 230.328 289.296 231.001 287.597C231.652 285.9 232.297 284.397 232.822 282.554C234.457 283 236.199 284.255 237.113 286.117C238.061 287.969 237.938 290.454 236.147 293.134C234.049 291.297 232.532 292.99 231.404 295.387C230.39 295.372 230.266 294.182 229.519 293.811ZM-111.991 245.962C-110.627 246.192 -111.262 248.439 -111.609 250.467C-114.261 251.575 -114.348 245.594 -111.991 245.962ZM-111.844 256.772C-111.202 257.988 -111.207 259.828 -111.351 262.03C-112.656 261.261 -113.651 260.085 -115.128 259.536C-114.732 257.034 -112.715 258.185 -111.844 256.772ZM181.047 138.339C182.174 139.873 182.242 141.102 183.301 142.612C181.372 142.737 181.404 139.363 178.674 138.761C179.219 137.445 180.29 138.662 181.047 138.339ZM8.02213 93.891C11.5849 93.3633 11.8755 96.2609 9.58984 98.0976C5.55856 99.5688 5.35811 95.1646 8.02213 93.891ZM228.468 271.153C228.111 268.322 229.047 267.445 229.509 265.839C232.003 267.528 235.721 270.857 235.068 275.794C232.095 275.6 231.029 272.039 228.468 271.153ZM190.565 153.743C192.451 155.459 194.201 157.585 196.005 160.302C195.053 161.865 193.088 160.514 191.683 158.64C190.312 156.744 189.261 154.42 190.565 153.743ZM45.1787 96.0913C45.7051 97.6719 45.2802 98.8305 44.1689 99.6641C43.0556 100.503 41.2413 100.97 38.9799 101.475C39.0356 98.2076 36.4987 96.7937 33.519 95.5387C30.5586 94.2889 27.1543 93.1493 25.7968 90.4427C29.6331 89.6534 32.2927 90.2089 34.9082 90.6156C35.3714 92.5461 36.1106 94.2447 37.6314 95.2578C38.3924 95.7641 39.3484 96.101 40.5703 96.212C41.8083 96.3888 43.3154 96.368 45.1787 96.0913ZM216.294 207.871C217.83 206.654 218.813 208.053 220.157 207.781C220.229 209.611 220.3 211.405 220.371 213.231C218.604 212.83 216.525 210.459 216.294 207.871ZM221.396 229.045C221.777 237.394 228.83 232.043 228.077 240.155C226.1 240.21 224.965 237.863 223.006 237.866C221.977 238.535 221.855 240.069 221.421 241.357C220.967 242.654 220.271 243.671 218.28 243.292C217.858 241.202 216.696 240.57 216.359 237.994C220.511 239.291 217.184 229.345 221.396 229.045ZM-105.094 258.453C-108.694 258.203 -109.073 255.252 -107.893 252.243C-106.717 249.236 -103.954 246.262 -101.53 245.648C-100.442 243.309 -99.2264 241.181 -97.4658 240.523C-97.0526 243.023 -95.6108 244.569 -94.1223 246.049C-94.8728 248.73 -96.6703 249.141 -97.073 252.543C-97.174 253.744 -96.2142 253.88 -95.7857 254.55C-92.078 254.388 -91.8936 246.568 -88.5712 245.536C-87.2547 245.983 -88.0031 248.242 -87.2928 249.252C-86.0996 249.502 -84.8989 249.754 -83.7023 250.006C-85.7204 254.457 -89.059 256.018 -91.9397 258.718C-93.7685 258.683 -93.8119 256.832 -94.781 255.902C-96.4443 254.992 -96.4205 257.632 -97.8769 257.165C-97.7184 253.29 -99.9557 251.976 -101.558 249.885C-103.059 249.798 -103.764 251.552 -104.608 252.977C-105.55 255.617 -103.718 256.805 -105.094 258.453ZM104.862 95.6016C107.174 96.3725 108.609 97.339 109.698 98.3677C110.761 99.4384 111.471 100.591 112.393 101.689C114.932 102.681 115.609 101.262 116.668 100.324C118.23 101.356 119.688 102.351 121.029 103.46C122.368 104.573 123.684 105.688 125.106 106.794C122 107.761 118.909 106.896 115.332 105.685C111.805 104.416 108.043 102.43 103.808 101.254C102.134 99.3353 103.85 97.3524 104.862 95.6016ZM211.762 192.362C212.888 194.145 212.833 195.17 213.341 196.593C211.463 196.859 209.75 195.664 208.267 192.635C209.471 192.222 210.623 192.21 211.762 192.362ZM42.2737 90.2598C44.474 89.8543 43.9541 91.4069 44.7058 92.037C41.9431 92.8617 42.431 91.3252 42.2737 90.2598ZM227.847 248.844C229.194 251.03 229.197 253.013 228.577 254.287C227.966 255.565 226.726 256.141 225.421 255.689C225.012 251.73 225.315 249.084 227.847 248.844ZM-96.4647 223.05C-98.0453 221.858 -99.3967 220.463 -97.8826 216.891C-96.755 218.309 -93.8825 220.131 -96.4647 223.05ZM167.794 144.001C166.146 141.825 163.344 139.356 162 137.315C163.713 136.708 166.069 137.124 168.46 138.117C170.835 139.117 173.264 140.678 174.854 142.432C172.771 144.055 169.519 140.772 167.794 144.001ZM210.997 200.431C211.903 200.509 212.651 201.553 213.355 202.873C213.193 203.728 212.303 204.083 211.346 204.387C210.282 202.43 212.074 202.407 210.997 200.431ZM9.01179 105.724C8.93997 102.135 10.9923 102.032 11.9847 102.9C12.9776 103.769 12.9865 105.559 9.01179 105.724ZM-53.3694 149.839C-54.3165 149.036 -53.6529 147.767 -53.9036 146.756C-52.4934 145.946 -51.171 145.705 -50.0849 146.794C-50.3892 148.461 -52.2329 149.143 -53.3694 149.839ZM209.278 211.222C211.277 210.655 210.997 206.817 213.173 207.721C214.049 210.757 212.71 212.233 213.829 215.5C211.956 215.477 210.442 214.078 209.278 211.222ZM-54.8536 168.453C-55.3849 169.953 -55.6787 171.362 -55.2654 172.517C-58.2829 173.199 -59.3413 176.672 -61.8221 179.362C-63.0246 177.332 -64.6967 175.479 -65.848 173.389C-66.9676 171.309 -67.6892 168.934 -66.6236 165.965C-65.3784 163.653 -64.2871 164.74 -63.1108 163.864C-62.3325 162.839 -61.9175 161.939 -61.4118 161.03C-60.8899 160.13 -60.3106 159.208 -59.266 158.133C-60.7057 162.571 -59.475 166.157 -54.8536 168.453ZM206.277 201.823C207.176 202.406 208.401 205.308 208.193 206.364C206.168 205.955 203.947 205.784 202.603 206.713C203.511 204.9 203.312 202.343 206.277 201.823ZM209.229 218.378C210.803 218.094 212.211 219.733 212.985 222.026C213.799 224.303 214.199 227.121 214.187 229.01C213.402 229.222 212.612 229.435 211.832 229.645C209.96 224.745 208.461 222.179 209.229 218.378ZM190.742 183.265C188.375 183.047 186.182 178.738 183.893 177.063C184.831 175.308 183.739 173.354 185.24 172.539C189.575 170.178 192.954 179.867 190.742 183.265ZM127.975 119.775C126.598 118.939 126.124 118.047 126.545 117.09C127.893 117.007 129.31 118.7 127.975 119.775ZM118.294 113.462C118.993 114.191 120.395 114.835 119.337 115.772L117.614 114.94L118.294 113.462ZM212.15 248.676C214.088 248.773 215.013 251.09 217.364 250.349C217.725 252.363 217.931 254.416 218.128 256.473C216.31 256.786 215.438 255.301 214.739 253.506C213.973 251.722 213.314 249.626 212.15 248.676ZM4.21693 113.964C5.46197 115.461 -0.914191 119.118 -1.82934 117.247C-0.455271 116.677 0.464732 116.128 1.33889 115.583C2.20877 115.029 3.02811 114.466 4.21693 113.964ZM202.627 209.934C203.915 209.297 204.647 211.299 205.824 211.247C205.397 212.331 204.646 213.198 203.77 213.955C203.107 213.453 202.635 212.144 202.101 210.786C202.575 210.697 202.722 210.394 202.627 209.934ZM210.873 243.435C209.35 242.675 209.336 239.62 211.312 239.692C212.161 241.89 210.823 241.964 210.873 243.435ZM208.128 230.028C208.167 232.332 207.973 234.606 207.22 236.355C206.216 236.017 205.838 234.731 205.682 233.317C205.471 231.921 205.499 230.387 205.446 229.549C206.55 229.079 207.018 230.489 208.128 230.028ZM208.849 280.318C208.911 281.859 208.609 282.83 207.545 282.596C207.487 281.073 207.779 280.103 208.849 280.318ZM-40.5064 160.549C-39.3467 161.54 -40.9567 163.156 -41.936 164.634C-41.9469 163.395 -41.9033 162.133 -40.5064 160.549ZM-82.7934 249.635C-82.1562 247.486 -78.8326 249.714 -79.9272 251.898C-81.3243 251.539 -81.4015 250.011 -82.7934 249.635ZM-32.6643 161.655C-33.9324 162.594 -35.0615 163.359 -36.2601 164.37C-38.6801 163.203 -35.6889 160.854 -38.0805 159.657C-37.1193 158.154 -36.4015 158.925 -35.4014 157.459C-33.83 159.076 -33.9167 160.836 -32.6643 161.655ZM66.3655 120.632C68.0861 121.52 65.3911 122.339 65.6699 123.446C63.5167 123.521 63.4158 122.239 61.7879 122.097C63.0061 121.251 65.5426 121.66 66.3655 120.632ZM164.103 305.166C163.686 304.241 162.992 303.5 163.636 301.94C166.91 302.482 171.266 303.656 168.696 306.949C173.41 308.697 175.524 307.962 178.871 309.899C179.333 308.497 178.495 306.707 180.101 306.665C182.085 308.474 184.084 306.57 185.622 308.102C185.876 310.151 182.972 311.031 184.745 311.602C188.491 312.306 192.914 314.734 196.24 314.346C195.326 310.177 192.814 306.88 190.798 303.496C189.719 301.788 188.72 300.048 188.112 298.149C187.805 297.198 187.59 296.207 187.501 295.153C187.412 294.098 187.466 292.985 187.544 291.767C188.342 291.65 188.673 290.799 189.672 290.999C190.991 291.491 190.766 293.66 190.249 295.807C191.194 295.971 191.591 295.097 192.755 295.661C193.915 294.12 190.845 292.263 192.666 289.763C194.259 289.968 196.461 290.443 198.24 291.602C199.993 292.755 201.453 294.634 201.116 297.516C200.796 300.641 198.231 299.134 198.143 302.7C198.572 305.323 199.719 307.047 200.968 308.835C202.195 310.618 203.416 312.446 203.585 315.213C206.303 312.606 211.196 315.973 213.84 312.84C214.154 311.02 214.414 309.102 214.78 307.627C215.149 306.153 215.8 305.14 217.16 305.167C219.284 305.751 217.743 310.293 220.31 310.39C221.131 305.944 223.189 305.837 222.851 300.935C220.14 301.953 217.417 302.873 214.863 304.101C214.306 301.007 211.268 300.66 212.067 296.162C214.331 295.513 216.433 297.488 217.643 293.77C217.895 291.28 215.759 291.756 216.533 288.642C216.797 285.982 218.81 286.519 218.911 283.815C217.616 280.74 217.937 273.773 222.028 275.711C221.853 271.267 223.756 272.857 225.227 271.859C224.797 268.775 224.066 265.439 222.804 263.268C221.457 261.107 219.688 260.118 217.394 261.499C217.117 263.747 217.514 264.971 218.069 266.176C218.631 267.379 219.339 268.561 219.487 270.703C219.104 271.539 219.171 273.03 218.338 273.207C216.202 273.594 214.886 272.687 214.581 270.207C214.833 268.565 215.352 266.555 215.402 264.823C215.446 263.094 214.894 261.675 213.277 261.219C213.24 263.916 212.957 266.648 210.796 266.757C210.037 266.057 209.6 264.961 209.127 263.743C208.661 262.523 208.277 261.165 207.833 259.915C206.944 257.414 205.816 255.372 203.327 255.79C201.491 256.412 201.804 259.39 199.151 259.067C199.269 260.822 199.962 263.23 198.305 262.995C196.059 261.429 197.618 256.701 194.026 256.924C193.53 257.821 193.191 258.878 192.217 259.258C188.959 257.996 189.355 249.989 189.864 246.379C193.62 246.723 192.138 252.84 195.516 252.943C199.508 253.148 196.84 241.997 202.566 245.597C203.509 246.667 203.517 249.655 203.977 251.698C205.518 251.091 205.834 252.961 207.382 252.367C207.125 249.365 206.715 246.822 206.465 244.404C206.146 242.002 205.906 239.744 206.164 237.202C204.577 235.206 202.04 235.634 199.858 235.207C200.013 238.045 197.617 242.928 194.939 239.273C194.192 237.382 195.15 236.809 194.291 234.943C192.138 232.993 189.245 231.652 189.901 227.212C188.491 225.542 186.419 225.976 185.632 222.483C185.546 221.404 186.18 220.774 187.01 220.269C188.293 221.93 190.474 224.329 192.562 225.494C194.642 226.649 196.647 226.58 197.472 222.975C198.238 221.788 195.527 222.648 195.572 220.049C194.791 218.443 197.403 219.166 196.342 217.357C195.389 215.9 192.221 211.852 193.381 209.995C196.786 211.145 198.026 207.104 200.18 205.166C198.982 202.632 198.689 200.862 198.615 199.136C198.534 197.417 198.613 195.779 197.904 193.686C198.528 192.868 201.218 193.222 199.897 191.293C198.366 190.989 196.769 190.626 195.349 188.918C194.937 187.832 195.374 187.173 194.579 185.892C193.323 186.158 192.176 185.061 190.939 185.236C194.101 190.133 190.413 192.969 188.173 196.116C187.399 193.008 185.361 191.568 183.707 188.164C181.996 187.424 180.197 187.425 178.388 188.11C178.629 188.922 178.849 189.821 178.968 190.728C179.06 191.65 179.066 192.569 178.939 193.388C178.686 195.03 177.891 196.264 176.197 196.394C175.633 195.091 175.418 193.934 175.407 192.858C175.364 191.801 175.517 190.83 175.743 189.872C176.192 187.959 176.901 186.127 176.682 183.916C177.927 183.053 179.14 182.982 180.359 182.866C179.531 181.961 178.556 180.741 177.668 179.48C176.738 178.246 175.929 176.945 175.547 175.794C176.635 173.362 178.425 171.142 180.088 168.862C179.545 168.231 178.545 167.589 177.759 166.91C176.954 166.242 176.401 165.505 176.825 164.593C180.175 164.414 184.855 166.404 185.106 161.249C182.36 157.543 178.79 152.987 177.386 148.819C173.286 145.176 169.048 149.025 167.044 150.782C169.841 153.522 171.829 150.839 174.69 153.735C175.13 156.178 171.651 154.766 171.939 156.155C173.192 157.406 173.952 158.507 174.401 159.396C174.854 160.284 174.984 160.968 174.865 161.475C174.63 162.493 173.405 162.807 171.78 162.679C168.587 162.354 163.563 160.579 161.428 158.52C159.964 155.943 162.637 154.173 162.45 151.883C158.287 150.274 154.148 146.605 153.177 142.591C154.566 142.119 155.944 141.578 157.054 140.028C156.115 138.191 155.649 136.407 153.685 134.426C151.108 134.37 148.789 135.597 145.313 133.047C145.218 131.334 147.324 129.757 147.481 128.042C148.697 126.749 151.202 128.903 152.498 127.77C150.878 126.357 150.933 125.086 148.357 123.592C146.218 123.218 144.198 123.579 142.096 123.44C139.955 123.334 137.718 122.745 134.708 120.841C133.029 120.893 134.389 122.578 133.014 123.622C130.552 123.831 127.412 122.636 124.315 121.542C121.171 120.514 117.972 119.717 115.784 120.391C112.793 118.657 111.383 116.962 111.336 115.174C111.275 113.418 112.515 111.717 114.641 110.495C110.084 108.177 107.581 108.639 105.4 109.575C103.187 110.551 101.318 111.89 97.9181 111.365C95.3205 109.358 99.5153 106.731 98.9291 105.701C97.8798 105.897 96.605 106.014 95.2064 105.99C93.8072 105.964 92.3395 105.681 90.9578 104.865C89.9652 103.732 91.1901 101.852 91.316 100.337C98.3036 101.187 101.605 91.6721 95.5692 88.3526C89.3627 87.2605 92.1303 94.1852 88.8017 95.584C91.23 96.1186 93.5093 99.158 90.1617 99.2353C86.7979 99.0006 88.2562 97.0835 85.7588 96.634C83.8453 98.8944 82.7435 101.803 79.8513 103.145C76.5494 102.822 75.7629 101.968 75.3367 100.975C74.913 99.9754 74.8641 98.8802 72.9735 98.1854C74.0955 96.9543 75.8103 96.129 75.5071 93.8762C71.6805 92.0866 69.0962 91.5178 66.6646 91.5928C64.2326 91.6116 61.8982 92.5191 58.4608 93.5877C60.1193 96.7927 60.0287 97.7182 59.2504 100.103C61.4707 100.038 63.2058 100.224 64.4184 100.834C65.6331 101.448 66.3362 102.331 66.5481 103.476C65.6439 103.945 64.711 104.113 63.7996 104.067C62.8841 104.073 61.9916 103.872 61.1804 103.533C59.5631 102.855 58.2639 101.642 57.9084 100.536C56.0617 100.677 54.5209 101.002 53.1475 101.416C51.7746 101.869 50.5715 102.486 49.3746 103.059C46.9864 104.257 44.6274 105.332 41.0846 106.066C39.0549 109.08 42.1995 109.102 42.6514 111.996C42.0607 114.005 39.5914 115.167 37.8884 116.644C39.0007 118.634 38.4416 120.521 37.2371 121.878C36.6322 122.558 35.8575 123.105 35.0173 123.472C34.1915 123.89 33.3061 124.155 32.4406 124.173C29.6545 124.234 28.7217 122.054 29.351 119.663C29.6662 118.467 30.3794 117.22 31.4266 116.188C32.4596 115.119 33.8746 114.402 35.513 114.202C35.712 111.006 36.9256 108.173 39.0176 105.621C37.4404 105.194 38.2744 102.563 35.8198 102.913C34.513 102.506 33.5596 103.025 32.5387 103.667C31.5161 104.311 30.4151 105.038 28.8065 105.273C28.8155 103.561 28.3316 101.549 27.0504 100.464C25.7784 99.3781 23.6614 99.229 20.6296 101.237C21.4854 106.398 26.0615 107.441 28.7827 110.36C27.5472 111.757 26.039 110.824 23.8686 111.767C23.6983 113.142 24.0825 114.669 21.7157 115.383C19.7853 115.599 18.6898 114.638 17.8416 113.324C15.8261 114.201 14.1402 114.626 12.6034 114.833C12.9518 116.522 12.7205 117.754 12.1127 118.623C11.514 119.528 10.5461 120.107 9.38068 120.423C7.05943 121.059 3.93496 120.709 1.62276 120.056C0.772529 122.047 -1.06024 122.912 -3.18477 123.478C-5.30144 124.047 -7.73442 124.282 -9.52888 125.164C-11.037 123.095 -13.1387 122.233 -16.0212 122.916C-16.9757 123.758 -17.5409 124.603 -18.2107 125.444C-18.8642 126.312 -19.5975 127.208 -20.9314 128.111C-22.8739 126.36 -22.1379 123.671 -20.0054 120.917C-18.9301 119.559 -17.5321 118.161 -16.0212 116.804C-14.5124 115.442 -12.8967 114.112 -11.3172 113.028C-11.0315 113.235 -10.6009 113.181 -9.9614 112.762C-8.10326 112.79 -8.63851 116.989 -6.12713 115.818C-5.29221 113.483 -2.62222 111.201 -1.59579 108.969C-2.32363 107.884 -3.83892 107.878 -5.27345 107.935C-6.71206 107.976 -8.11703 107.953 -8.6952 106.567C-11.7195 108.403 -13.7486 108.631 -15.7279 108.736C-17.6903 108.867 -19.5592 108.953 -22.2125 110.435C-21.4107 112.329 -22.9 114.285 -25.0778 115.854C-27.204 117.505 -30.0595 118.775 -32.1781 119.064C-31.6708 123.335 -29.1351 127.386 -29.2915 131.707C-30.2765 134.069 -32.2987 132.663 -34.2824 134.666C-33.5007 136.918 -34.9812 139.852 -37.1767 141.711C-38.2744 142.645 -39.5543 143.322 -40.816 143.541C-42.0408 143.789 -43.266 143.57 -44.278 142.641C-43.1387 141.368 -41.9024 140.12 -40.9732 138.805C-40.0434 137.492 -39.4012 136.127 -39.3302 134.713C-40.4182 134.444 -43.7429 133.997 -42.0212 131.643C-40.0683 129.502 -38.7367 129.736 -37.1745 129.13C-36.9357 127.472 -36.1103 125.725 -36.86 124.169C-40.071 124.846 -43.4672 125.707 -46.0928 124.888C-47.9945 126.342 -48.8909 127.615 -49.9545 128.912C-48.8699 131.388 -46.2667 128.882 -45.1406 131.16C-45.272 133.432 -48.9598 136.385 -48.2703 138.555C-44.7489 141.09 -43.1054 146.186 -46.5185 150.148C-47.8429 151.771 -49.9446 152.629 -51.992 153.807C-53.0022 154.402 -54.0259 155.059 -54.8338 155.96C-55.6348 156.864 -56.2841 157.981 -56.6424 159.42C-52.8781 159.732 -51.2717 162.924 -51.0472 166.156C-49.4308 164.686 -48.117 163.242 -47.0079 161.814C-45.8355 160.426 -44.8795 159.047 -44.0531 157.677C-42.4466 154.908 -41.1833 152.297 -39.8517 149.762C-38.7069 150.261 -37.6204 153.36 -36.3439 154.923C-35.1783 153.618 -35.1775 150.299 -32.9105 150.92C-32.9199 153.745 -32.238 155.429 -29.3401 157.125C-31.2239 160.884 -29.6117 163.137 -27.6742 165.261C-25.7229 167.377 -23.4732 169.376 -23.6832 172.318C-25.9269 173.35 -28.5008 172.049 -28.8948 169.591C-32.3673 169.408 -37.8485 172.24 -39.202 167.701C-40.712 168.964 -42.1286 169.607 -43.6337 171.25C-41.3555 170.944 -41.039 172.63 -39.1348 174.11C-40.572 177.114 -40.4975 181.709 -43.8991 182.564C-44.6343 182.36 -46.4717 181.088 -46.9104 180.466C-46.9635 179.46 -45.5745 177.99 -44.6936 176.684C-45.5279 175.4 -45.9272 173.947 -46.1559 172.471C-46.3757 171.002 -46.4698 169.485 -46.7997 168.025C-48.0157 168.316 -49.2759 169.172 -50.4545 170.386C-51.6123 171.613 -52.7495 173.163 -53.8578 174.771C-54.9994 176.365 -55.9663 178.085 -56.976 179.583C-57.9643 181.091 -58.9905 182.381 -59.9441 183.265C-63.9957 184.728 -66.7433 180.708 -68.2336 178.856C-70.3937 179.696 -72.6051 181.978 -74.5759 184.92C-76.7672 185.465 -78.9609 186.251 -81.3284 185.425C-83.4007 186.798 -85.2943 188.844 -87.2 190.974C-89.1404 193.099 -90.9295 195.334 -92.8361 197.1C-92.7232 198.519 -93.0084 200.179 -91.8376 200.909C-89.8737 200.991 -88.6647 196.595 -86.6245 197.177C-85.4374 198.729 -85.5765 201.009 -87.0371 204.251C-84.3015 203.959 -83.3804 198.642 -82.1539 195.255C-80.5367 194.563 -79.0194 193.303 -77.1703 194.349C-76.621 191.752 -74.1098 186.172 -71.9997 187.019C-71.7747 190.405 -73.4414 193.165 -75.1868 196.088C-77.0146 198.977 -78.866 202.043 -79.2291 205.645C-77.8406 206.224 -76.7566 206.985 -77.4701 208.873C-78.8052 210.372 -80.2756 211.477 -81.4817 213.426C-81.3633 215.631 -81.0802 219.363 -82.6532 221.477C-85.5403 217.999 -89.6018 219.334 -91.5813 225.201C-90.5681 228.085 -87.4992 228.452 -84.6445 229.037C-81.7826 229.614 -79.1425 230.391 -78.8399 233.766C-79.9903 235.586 -81.8028 235.765 -82.6564 238.399C-81.1715 239.886 -81.0352 242.443 -79.3689 243.738C-77.174 239.231 -74.0567 237.196 -70.1431 239.016C-69.86 236.617 -68.7122 236.351 -68.0651 234.739C-69.1078 233.381 -70.5899 232.32 -70.4959 230.138C-66.933 230.559 -65.3988 227.881 -65.5116 225.289C-65.5665 222.725 -67.2593 220.161 -70.4237 221.136C-70.4617 223.604 -68.4741 226.819 -71.2729 229.888C-73.7827 228.073 -76.3292 226.11 -76.3055 223.08C-76.1115 215.434 -71.2018 216.519 -66.6046 215.711C-65.1582 217.236 -64.8502 219.414 -63.9631 221.285C-63.1141 219.74 -61.9744 219.017 -60.379 219.886C-60.7213 221.054 -60.4573 221.922 -61.2663 223.402C-60.6316 224.639 -58.1977 224.784 -59.0794 226.911C-60.1848 228.108 -61.5813 228.361 -62.8649 229.046C-64.1229 229.734 -65.307 230.859 -65.6638 233.849C-65.4465 235.917 -63.6772 236.838 -63.8488 239.183C-64.9997 240.817 -65.5026 243.902 -66.1783 246.43C-67.1511 246.594 -67.9835 247.089 -69.1988 246.747C-69.5422 248.998 -70.3916 250.168 -71.42 250.999C-74.226 250.274 -74.2914 247.273 -76.567 246.062C-76.8196 248.435 -75.3266 250.361 -74.2411 252.316C-73.183 254.273 -72.5618 256.232 -74.6106 258.86C-77.0189 258.584 -77.2572 256.338 -78.4457 254.928C-80.3253 255.979 -81.751 257.998 -84.335 257.709C-85.2685 259.966 -85.6006 262.055 -84.3821 263.304C-85.1388 264.096 -85.8952 264.895 -86.4673 266.045C-87.04 267.212 -87.4119 268.683 -87.3485 271.145C-86.5062 271.172 -85.7269 271.289 -85.0541 271.547C-84.7172 271.676 -84.4082 271.838 -84.1304 272.044C-83.9909 272.143 -83.8618 272.266 -83.7369 272.376C-83.6102 272.45 -83.4917 272.531 -83.3809 272.62C-78.37 273.023 -73.3648 273.426 -68.3556 273.829C-67.8493 272.56 -65.0689 272.756 -64.2581 273.669L-64.2951 274.156L-52.9232 275.071C-52.6721 274.456 -52.6538 274.183 -52.7135 273.648C-52.7796 273.165 -52.9572 272.667 -53.1253 272.109C-53.4765 271.01 -53.8302 269.733 -53.3942 268.227C-52.9249 268.194 -52.6896 267.809 -52.4545 267.433C-49.2219 267.507 -49.8236 270.759 -46.7597 270.921C-46.4408 271.91 -46.4701 272.948 -46.7829 273.765C-46.9341 274.165 -47.1642 274.546 -47.4385 274.782C-47.5776 274.907 -47.7334 275.018 -47.9022 275.106C-48.0741 275.237 -48.2601 275.362 -48.4585 275.431C-25.981 277.241 -3.51195 279.048 18.9587 280.858C18.9828 280.26 19.3264 277.527 19.7706 275.1C20.2073 272.586 20.7817 269.925 21.4452 267.317C22.7335 262.063 24.4401 256.981 26.3258 252.354C28.2168 247.721 30.3303 243.543 32.539 239.97C34.7583 236.404 37.0501 233.433 39.3365 230.981C43.9631 226.093 48.3982 223.239 54.4809 220.742C55.2524 220.494 56.1125 220.128 56.7727 219.876C57.1539 219.847 57.5103 219.754 57.8518 219.595C58.0246 219.473 58.1881 219.508 58.3461 219.5C58.5048 219.491 58.6583 219.464 58.8102 219.419C58.9611 219.402 59.1103 219.249 59.2586 219.294C59.4059 219.315 59.5488 219.317 59.6905 219.302C60.8309 219.204 61.903 219.129 63.4117 219.415C64.911 219.746 66.8272 220.343 69.1191 221.427C71.3971 222.517 74.0636 224.024 76.758 226.264C79.4618 228.445 82.2294 231.106 84.8635 234.135C87.4887 237.19 89.8407 240.702 91.9637 244.323C92.4427 245.26 93.0583 246.127 93.4944 247.083C93.9322 248.037 94.3961 248.978 94.8857 249.907C95.6478 251.84 96.5821 253.719 97.1677 255.665C98.5013 259.508 99.5819 263.359 100.027 267.033C100.507 270.701 100.775 274.231 100.548 277.501C100.284 280.761 99.7605 283.809 99.0144 286.749C109.792 289.808 120.812 293.052 131.746 296.276C142.68 299.479 153.534 302.662 164.103 305.166ZM207.873 293.211C207.878 296.469 205.761 295.815 205.442 298.787C205.037 301.598 207.015 302.964 208.511 304.483C209.259 305.24 209.886 306.033 210.029 307.053C210.159 308.067 209.716 309.3 208.439 310.905C207.366 310.325 206.63 309.444 206.091 308.397C205.558 307.351 205.218 306.137 204.836 304.862C204.124 302.319 203.624 299.593 202.322 297.706C202.441 296.72 202.734 295.806 203.065 295.014C203.382 294.221 203.807 293.557 204.305 293.089C205.299 292.152 206.587 291.987 207.873 293.211ZM-42.3758 268.91C-42.5007 269.257 -42.2751 269.333 -42.0336 269.391L-42.1547 270.238C-42.4894 270.111 -42.5585 270.346 -42.6116 270.599L-43.4197 270.49C-43.3011 270.141 -43.5274 270.07 -43.7702 270.015L-43.6476 269.16C-43.3146 269.286 -43.2449 269.049 -43.1825 268.792L-42.3758 268.91ZM-73.4408 267.517L-71.8202 267.723C-71.364 268.453 -71.5589 270.234 -72.1816 270.849C-73.4725 270.646 -73.846 269.449 -73.4408 267.517ZM-56.6874 268.236C-56.8801 270.937 -57.6411 272.638 -59.3066 273.135C-59.9749 273.206 -59.9617 272.624 -60.4769 272.544C-60.7452 271.003 -59.8574 268.643 -60.1142 266.305C-58.0591 266.153 -57.4666 267.285 -56.6874 268.236ZM-56.9825 255.623C-55.4336 255.601 -55.4315 256.778 -53.8855 256.756C-52.3075 256.037 -52.0011 252.913 -49.8063 253.333C-49.3166 256.737 -50.7914 262.099 -54.4624 261.92C-56.5413 261.842 -60.5908 258.132 -56.9825 255.623ZM-51.1168 266.704C-52.4596 266.581 -52.7539 264.541 -51.8882 263.787C-50.5152 263.912 -50.092 265.81 -51.1168 266.704ZM-26.6698 261.993C-26.6719 263.532 -28.369 262.539 -28.6715 263.646C-29.326 265.598 -27.5664 265.902 -27.7188 267.493C-28.6808 267.929 -28.972 269.294 -30.4505 269.061C-30.9264 266.827 -32.6484 265.454 -33.1529 263.188C-32.9348 261.737 -31.5298 262.116 -31.0578 261.069C-31.9328 260.007 -33.5945 257.575 -31.0495 257.238C-30.2516 259.28 -27.0676 259.73 -26.6698 261.993ZM-39.5861 254.343C-39.9494 257.291 -41.7755 257.735 -42.8001 259.507C-44.5885 258.578 -46.4947 257.718 -48.0223 256.567L-47.7257 255.229C-45.6688 254.513 -43.1118 254.808 -42.0423 252.382C-40.9006 252.823 -40.2126 253.56 -39.5861 254.343ZM-46.0669 239.443C-47.1308 241.737 -49.5505 239.453 -49.9545 238.226C-51.1431 238.295 -51.7839 239.602 -52.1993 241.174C-52.5768 242.759 -52.716 244.603 -52.9779 245.759C-54.3267 246.291 -55.1 247.984 -57.1235 247.161C-57.5524 249.628 -58.3954 251.131 -59.8393 251.517C-63.3703 248.827 -63.9658 241.708 -60.7996 237.456C-57.8151 238.227 -56.8995 240.373 -57.9684 243.918C-55.2036 241.026 -53.8843 234.544 -50.421 233.065C-47.4281 234.316 -47.1686 237.087 -46.0669 239.443ZM-27.3904 240.029C-28.3049 240.498 -30.0295 239.712 -29.9516 238.691C-29.4039 238.043 -28.8738 237.259 -28.0898 237.115C-26.8704 237.623 -26.7602 238.597 -27.3904 240.029ZM-37.7886 236.426C-38.3556 236.626 -39.0125 236.63 -39.863 236.183C-40.2301 235.285 -39.3405 232.837 -38.5076 232.364C-36.8564 233.003 -37.1969 234.591 -37.7886 236.426ZM-20.3179 174.124C-19.4123 173.274 -18.5675 173.193 -17.7856 173.877C-17.9559 174.757 -18.1619 176.105 -19.5081 176.22C-20.3123 175.57 -19.9091 174.803 -20.3179 174.124ZM-35.0565 227.952C-37.9518 227.689 -38.7089 224.91 -36.6962 223.373C-35.0991 224.412 -33.581 225.474 -35.0565 227.952ZM-30.2303 219.952C-30.3175 221.336 -30.8825 222.634 -32.0564 222.981C-35.5989 222.159 -32.6686 218.002 -30.2303 219.952ZM-62.6544 207.496C-64.9749 208.397 -66.8682 211.841 -68.1383 209.798C-67.0434 204.683 -64.6914 200.247 -63.5823 195.476C-63.0959 193.457 -63.4212 191.184 -63.2808 189.152C-63.0914 187.144 -62.4508 185.37 -60.1802 184.455C-57.2262 186.455 -56.485 189.349 -57.6489 193.049C-58.4335 192.872 -59.1014 193.588 -59.9497 193.026C-60.0888 194.662 -61.8144 197.048 -61.4664 198.444C-59.3796 198.999 -57.2642 199.826 -55.0583 201.155C-55.2689 204.507 -56.1147 205.704 -57.486 206.261C-58.8471 206.819 -60.6853 206.723 -62.6544 207.496ZM-50.6367 193.965C-50.0429 194.548 -50.1856 195.749 -50.6253 196.974C-51.0516 198.206 -51.8245 199.445 -52.6228 200.064C-54.7133 199.705 -55.0597 197.717 -54.4555 196.02C-53.8818 194.312 -52.232 193.007 -50.6367 193.965ZM-39.6684 198.652C-36.7875 200.836 -40.4061 202.988 -42.1932 205.638C-44.3763 204.562 -44.1119 203.179 -43.1321 201.873C-42.1668 200.557 -40.3695 199.421 -39.6684 198.652ZM-31.4912 205.651C-34.2355 206.522 -35.6691 202.968 -32.6511 201.2C-31.0866 201.443 -29.5536 203.369 -31.4912 205.651ZM-41.167 197.181C-42.125 196.311 -43.1315 194.811 -43.4022 193.289C-43.6696 191.775 -43.1205 190.274 -41.1483 189.461C-39.4637 190.126 -38.6799 191.723 -38.7087 193.29C-38.7635 194.85 -39.5635 196.434 -41.167 197.181ZM-23.2891 200.159C-24.7108 197.966 -22.0305 195.752 -19.9381 196.056C-18.9813 196.861 -19.3577 198.258 -20.2093 199.254C-21.0698 200.243 -22.3195 200.94 -23.2891 200.159ZM-15.2441 197.909C-16.0812 197.353 -16.8631 196.788 -16.9554 196.099C-15.4505 194.633 -13.7601 194.295 -11.9733 195.678C-12.9914 197.136 -14.1467 197.456 -15.2441 197.909ZM-27.8237 186.762C-27.7304 185.112 -25.5882 184.497 -24.5242 183.274C-24.9316 182.604 -24.8535 181.541 -24.3909 180.655C-23.9062 179.79 -23.0628 179.089 -22.0483 179.097C-20.5314 180.347 -21.8565 181.975 -19.6019 183.1C-21.3364 183.71 -22.4559 185.005 -23.6583 185.894C-24.8492 186.797 -26.0609 187.365 -27.8237 186.762ZM-16.2328 184.215C-18.1465 184.086 -18.5983 182.666 -18.1684 181.325C-17.7328 180 -16.4843 178.729 -14.9913 179.175C-13.869 179.937 -13.7433 180.908 -14.0606 181.875C-14.389 182.833 -15.2364 183.722 -16.2328 184.215ZM3.09314 191.641C2.39911 192.626 1.64296 192.281 0.915409 192.682C-0.296616 191.734 0.649716 189.962 1.92693 189.908C2.67417 190.501 2.9795 191.077 3.09314 191.641ZM-12.048 182.579C-11.4499 180.657 -8.58185 178.469 -7.15653 179.366C-4.65341 182.09 -9.75657 185.921 -12.048 182.579ZM-29.7117 147.466C-30.9659 148.924 -31.9281 149.095 -33.0415 149.937C-33.6646 146.914 -35.8605 146.067 -35.9682 143.223C-32.8079 141.588 -28.7339 144.692 -29.7117 147.466ZM-5.51144 162.324C-7.62006 163.419 -9.19121 161.675 -11.1244 161.6C-11.8595 160.239 -11.7613 158.869 -11.2099 157.484C-9.20439 158.077 -6.17137 160.48 -5.51144 162.324ZM-22.2789 145.434C-24.8504 145.553 -25.1039 143.762 -24.1943 142.063C-23.2836 140.38 -21.2638 138.782 -19.4591 139.568C-18.3562 141.399 -19.5713 143.393 -22.2789 145.434ZM6.11932 130.592C6.37851 131.281 7.11182 131.048 7.33783 131.807C6.49382 133.375 4.37436 133.451 3.49336 132.891C3.067 131.937 4.79697 131.29 6.11932 130.592ZM-8.77764 129.967C-7.54158 129.201 -6.44119 128.745 -5.46242 128.54C-4.47333 128.35 -3.5831 128.448 -2.80147 128.699C-1.2312 129.212 -0.0387683 130.437 1.03873 131.884C0.462857 133.265 -1.91364 134.336 -2.62572 135.772C-1.12511 137.692 -1.24964 139.455 -4.0529 140.959C-5.89879 140.448 -5.99895 138.583 -6.12493 136.552C-6.26082 134.527 -6.41208 132.33 -8.64945 131.322C-11.2952 130.914 -14.9838 132.839 -16.8797 130.755C-15.8678 128.598 -14.2017 128.032 -12.6834 128.118C-11.1435 128.225 -9.68128 129.079 -8.77764 129.967ZM3.9021 151.874L2.6313 152.654C1.99735 152.042 2.34973 151.559 2.19513 151.007C2.99739 150.627 3.53671 151.011 3.9021 151.874ZM0.797281 158.735C-0.486875 159.571 -1.46546 159.194 -2.18529 157.839C-1.3332 157.083 -0.612933 156.812 0.0412884 156.772C0.696651 157.462 0.854218 158.113 0.797281 158.735ZM-11.6018 145.506C-13.4576 144.202 -12.7995 142.587 -11.358 141.404C-10.6395 140.813 -9.73388 140.337 -8.86864 140.073C-7.97947 139.847 -7.13233 139.832 -6.56052 140.1C-5.54639 140.831 -6.65001 141.399 -5.92511 142.112C-7.09738 143.242 -9.6314 144.594 -11.6018 145.506ZM13.5233 172.304C12.3515 169.871 12.8785 166.275 16.3507 165.788C17.4657 168.499 16.5203 170.684 13.5233 172.304ZM14.8355 147.22C15.3459 148.379 16.7405 147.639 16.9602 149.4C15.4634 151.103 16.2436 153.503 13.3873 154.899C11.1 153.184 9.38948 150.792 9.58515 148.445C9.6818 147.272 10.2578 146.109 11.4524 145.061C12.6228 143.97 14.4959 143.162 17.0816 142.638C19.0961 144.933 15.9435 145.808 14.8355 147.22ZM11.2719 126.906C10.1961 126.123 10.4634 125.366 10.6464 124.056C12.0649 123.424 13.2293 123.188 14.1448 123.403C15.0664 123.637 15.721 124.267 16.1177 125.284C14.5589 126.638 13.2767 126.282 11.2719 126.906ZM29.7152 154.624C26.8399 150.472 33.6807 149.62 34.5731 152.421C34.4244 154.104 31.2727 155.245 29.7152 154.624ZM27.0583 132.983C26.2282 131.914 26.9694 131.328 27.4218 130.711C28.7904 130.897 30.8069 130.197 31.1371 131.763C30.5688 132.565 27.9521 133.264 27.0583 132.983ZM31.9357 130.679C30.1757 127.16 36.836 124.98 38.0064 128.266C37.7982 129.085 36.7673 129.566 35.5899 130.05C34.4018 130.495 32.998 130.726 31.9357 130.679ZM43.2991 150.1C41.8394 150.09 40.7591 149.524 40.5171 147.746C42.3339 147.202 44.0756 148.633 43.2991 150.1ZM142.158 133.209C140.415 133.137 138.233 132.075 136.642 130.629C135.05 129.188 134.001 127.383 134.469 125.991C135.6 124.892 138.587 126.02 140.771 127.774C142.998 129.492 144.169 131.969 142.158 133.209ZM129.204 127.54C129.654 129.092 129.317 129.613 127.739 129.986C126.153 128.984 124.81 127.97 125.455 126.787C126.026 125.662 127.639 126.644 129.204 127.54ZM118.89 125.078C118.788 126.462 118.071 127.564 117.045 128.714L114.433 127.439C113.853 125.385 115.924 123.096 118.89 125.078ZM108.604 124.762C110.587 124.855 111.9 125.908 112.749 127.13C113.601 128.355 113.973 129.786 114.044 130.871C112.318 130.818 111.65 129.958 110.985 128.945C110.327 127.927 109.672 126.757 107.97 126.263L108.604 124.762ZM85.42 115.306C86.9159 115.7 87.5791 116.413 87.4176 117.441C86.8263 117.631 86.0116 117.566 85.0051 117.303C84.3757 116.608 84.5593 115.653 85.42 115.306ZM52.4924 110.111C54.4761 109.585 53.4318 111.397 55.052 111.206C56.308 110.121 53.5783 109.728 54.913 108.358C56.8165 107.785 57.838 106.651 61.2713 107.013C61.6439 109.429 59.1983 110.057 57.5373 111.15C57.6617 111.481 58.1676 111.549 58.1733 111.957C59.9349 112.272 62.1639 112.018 64.1421 112.165C66.1143 112.369 67.8306 112.824 68.494 114.225C68.1533 114.533 67.8254 114.847 67.8179 115.408C66.122 115.52 64.9299 115.492 63.7859 115.545C62.6405 115.639 61.5372 115.876 60.0596 116.412C58.6164 115.861 57.4278 115.116 56.045 114.5C55.3534 114.192 54.6149 113.916 53.7722 113.713C52.9317 113.533 51.992 113.493 50.8977 113.547C49.8036 111.542 52.1905 111.385 52.4924 110.111ZM42.1872 129.946C44.4163 129.075 45.2017 131.219 44.6678 131.961C42.5155 132.809 41.6597 130.687 42.1872 129.946ZM46.4552 148.236C46.1853 147.066 46.9859 145.718 48.1019 144.984C49.2253 144.339 50.6357 144.285 51.3943 145.492C51.3935 146.482 50.6939 147.344 49.7378 147.845C48.7735 148.3 47.5663 148.565 46.4552 148.236ZM52.371 141.697C50.1434 141.708 49.8146 139.623 48.2308 138.847C47.5268 135.543 52.7361 134.894 54.3651 136.975C54.0843 138.845 53.2841 140.334 52.371 141.697ZM57.6015 145.02C54.7079 144.96 55.5344 141.281 58.8698 142.141C59.0057 143.59 58.6185 144.594 57.6015 145.02ZM66.9167 145.605C65.5911 145.007 65.424 143.416 66.6553 142.725C68.2551 143.159 68.0963 144.92 66.9167 145.605ZM70.0969 135.591C69.4363 135.547 68.7787 135.503 68.1153 135.458C67.9722 134.599 68.5354 134.409 68.7428 133.868C69.4524 134.271 70.6575 134.324 70.0969 135.591ZM72.3728 148.221C71.029 145.837 72.9049 143.93 73.2538 141.752C75.6918 142.029 76.5941 143.261 77.502 144.448C76.8269 147.079 75.5545 148.908 72.3728 148.221ZM73.8959 159.575C74.1471 158.43 74.1445 156.914 74.8569 156.417C76.8708 156.507 77.0915 157.932 77.0561 159.408C76.6393 159.85 76.1283 160.121 75.5846 160.154C75.3131 160.171 75.0321 160.128 74.7505 160.019C74.4668 159.939 74.1795 159.796 73.8959 159.575ZM81.7177 127.838C81.5032 125.957 83.779 126.944 83.8946 125.413C82.8509 124.44 82.0003 123.283 80.4415 122.632C78.1528 123.336 75.2852 123.44 72.8795 123.968C70.4574 124.594 68.5189 125.729 68.1359 128.106C66.8369 128.093 65.7102 127.819 64.6669 127.445C64.1449 127.261 63.6453 127.038 63.1565 126.835C62.6641 126.652 62.1865 126.473 61.715 126.299C59.824 125.616 57.9663 125.168 55.7921 126.291C56.268 127.693 57.5188 128.423 56.4985 129.947C55.6248 129.986 54.7503 129.932 53.8846 130.056C52.8097 128.345 51.1544 125.672 52.2913 123.249C51.103 121.544 48.2496 121.259 47.8303 118.789C49.1516 117.254 51.0487 118.061 53.0615 118.25C53.275 119.601 55.156 121.041 53.9073 122.266C56.1551 122.455 56.1208 121.131 58.3917 121.346C59.3666 120.407 59.7093 119.023 60.6561 118.035C61.5426 117.837 62.3753 117.742 63.1609 117.722C63.9455 117.715 64.6806 117.851 65.3813 117.992C66.7832 118.294 68.0402 118.773 69.267 119.217C70.4935 119.667 71.6935 120.055 72.9957 120.246C74.2893 120.502 75.6888 120.519 77.3715 120.105C79.1972 120.18 79.6266 120.959 80.0187 121.742C82.4208 121.541 84.0973 120.921 85.1695 119.434C88.1463 121.011 91.3568 122.454 89.506 125.892C88.1406 126.002 87.4149 126.841 85.4263 126.189C85.7437 128.529 83.4769 129.55 81.7177 127.838ZM89.3376 147.994C87.329 146.796 86.1818 145.129 85.3827 143.343C87.0722 141.249 89.0345 139.593 90.6803 137.3C93.334 139.577 93.2365 142.829 92.911 146.13C92.0558 147.352 90.4242 147.235 89.3376 147.994ZM94.3641 130.769C94.8186 127.388 99.5541 129.724 98.4764 132.121C97.5475 132.374 94.9314 131.594 94.3641 130.769ZM99.1894 123.322C97.3199 122.391 96.1373 121.246 95.3436 119.962C93.6657 120.269 92.7022 120.088 91.6864 119.712C90.6685 119.347 89.6385 118.698 87.9027 117.973C89.6889 115.554 91.6455 115.884 93.927 117.111C96.2039 118.386 98.8608 120.311 102.494 121.002C103.196 123.087 100.896 122.976 99.1894 123.322ZM99.9596 157.566L98.3791 156.794C98.0495 155.972 98.8942 154.076 99.7424 153.828C101.983 154.41 101.368 156.906 99.9596 157.566ZM107.146 140.206C106.051 140.258 104.506 140.364 102.958 140.257C101.416 140.129 99.9583 139.605 99.063 138.06C99.4723 136.228 100.922 136.169 101.871 135.231C103.852 135.822 104.02 136.817 106.112 137.445C107.493 135.444 109.658 135.497 111.816 136.492C112.885 137 113.976 137.693 114.9 138.562C115.816 139.447 116.62 140.416 117.231 141.327C115.784 141.64 114.308 141.842 112.697 141.688C111.034 141.617 109.232 141.206 107.146 140.206ZM120.063 134.028L121.042 134.589C124.257 137.713 122.194 141.236 122.062 144.65C119.609 143.193 118.503 141.296 118.333 139.302C118.156 137.33 118.878 135.353 120.063 134.028ZM117.321 151.277C117.753 149.599 118.923 150.175 119.878 150.046C121.269 151.359 118.809 152.819 117.321 151.277ZM108.681 172.944C109.727 171.737 112.418 172.336 112.999 173.984C112.445 174.81 111.767 174.806 111.042 174.449C110.309 174.104 109.474 173.487 108.681 172.944ZM135.082 145.742C133.709 144.426 135.571 143.645 136.34 143.116C138.607 144.601 136.193 145.981 135.082 145.742ZM146.115 140.848C145.275 143.182 143.621 144.485 141.383 144.916C139.675 142.718 137.486 142.068 135.463 141.328C133.427 140.584 131.435 139.891 130.06 137.248C131.673 134.699 134.311 134.72 136.337 133.106C139.199 135.695 141.484 136.355 143.866 136.78C146.184 137.254 148.582 137.511 150.716 139.93C149.801 142.559 147.579 140.184 146.115 140.848ZM144.449 147.434C146.491 144.786 149.843 147.178 153.033 148.957C152.078 151.814 148.123 151.806 144.778 148.798C144.822 148.354 144.873 147.917 144.449 147.434ZM125.043 177.507C124.694 176.926 124.61 176.333 124.25 175.744C125.232 173.575 127.83 174.787 128.286 176.579C127.804 177.446 127.271 177.641 126.729 177.631C126.174 177.634 125.591 177.45 125.043 177.507ZM130.045 176.022C129.221 174.358 129.983 172.923 131.237 172.438C132.466 171.972 134.123 172.599 134.849 175.021C133.355 176.927 131.756 177.486 130.045 176.022ZM146.297 166.28C146.09 164.914 146.919 163.823 148.123 163.558C149.3 163.31 150.972 163.811 152.082 165.803C151.698 166.788 150.785 167.397 149.718 167.51C148.663 167.605 147.412 167.247 146.297 166.28ZM155.551 164.768C157.452 161.997 160.766 166.509 158.483 167.993C157.502 167.803 155.647 165.762 155.551 164.768ZM170.267 178.219C169.096 180.377 169.596 183.029 167.502 184.837C166.083 183.331 164.199 179.514 163.454 177.205C165.737 176.098 168.002 175.569 170.267 178.219ZM153.758 190.832C155.098 190.393 156.369 191.173 156.744 192.895C155.949 193.515 155.17 194.06 154.451 193.886C152.979 192.561 153.72 191.788 153.758 190.832ZM125.836 215.498C125.216 214.758 125.61 214.202 126.559 213.675C126.859 214.063 127.131 214.475 127.385 214.898C126.761 215.504 126.356 215.286 125.836 215.498ZM155.136 198.602C155.961 198.819 157.073 200.561 156.922 201.4C154.977 203.23 152.849 199.618 155.136 198.602ZM156.745 207.502C156.512 205.674 157.85 204.876 159.116 205.063C160.379 205.243 161.579 206.423 160.966 208.365C159.374 208.921 157.911 208.866 156.745 207.502ZM183.448 209.549C184.441 209.343 183.823 208.292 185.063 208.216C186.265 209.454 186.677 211.641 185.089 212.353C184.409 211.954 183.948 210.782 183.448 209.549ZM186.874 234.22C188.42 233.631 189.455 237.737 189.041 239.055C187.682 239.546 186.928 238.945 186.486 237.962C186.03 236.982 185.946 235.594 186.09 234.442L186.874 234.22ZM180.872 223.674C182.889 222.855 183.875 226.43 181.514 226.708C180.311 225.99 180.68 224.599 180.872 223.674ZM165.578 234.157C164.374 232.422 166.386 231.537 167.435 232.079C168.212 233.564 166.763 233.784 165.578 234.157ZM171.206 234.272C170.77 232.909 171.421 232.271 171.446 231.204C173.997 229.475 174.849 232.3 176.639 232.547C178.035 231.911 176.733 229.679 179.105 229.665C180.476 230.649 180.532 233.438 180.191 234.563C177.189 237.173 173.393 235.81 171.206 234.272ZM176.69 237.117C178.228 236.736 179.008 237.834 179.286 239.23C179.596 240.617 179.189 242.334 178.696 243.127C177.081 243.103 175.122 243.76 174.609 241.659C174.651 239.713 176.505 238.999 176.69 237.117ZM142.328 250.28C142.336 249.96 142.102 249.988 141.859 250.028C141.815 249.796 141.726 249.566 141.663 249.333C142.018 249.31 141.992 249.099 141.952 248.883C142.212 248.813 142.475 248.743 142.741 248.672C142.755 248.991 142.996 248.961 143.238 248.919C143.302 249.155 143.391 249.388 143.437 249.625C143.088 249.645 143.095 249.859 143.12 250.081C142.853 250.148 142.589 250.215 142.328 250.28ZM157.784 248.512C157.721 247.38 158.053 246.49 158.505 245.665C158.919 244.848 159.443 244.1 159.814 243.246C161.045 243.138 161.964 243.637 162.88 244.165C163.785 244.695 164.619 245.271 165.819 245.274C166.036 249.942 160.459 251.205 157.784 248.512ZM180.058 251.783C180.486 253.25 179.448 253.453 178.28 253.545L177.973 251.657C178.88 251.339 179.526 251.459 180.058 251.783ZM159.788 256.535C159.345 254.658 160.517 253.938 161.267 252.892C163.467 252.847 163.985 254.406 163.51 255.634C163.036 256.868 161.555 257.728 159.788 256.535ZM139.47 258.437C139.948 258.409 140.172 258.238 140.218 257.958C142.475 257.839 142.563 260.735 139.849 260.796C139.2 260.43 138.968 258.989 139.47 258.437ZM208.416 268.623C206.848 276.585 211.941 275.355 214.706 274.445C214.607 277.382 213.306 278.574 212.509 280.452C212.498 281.996 214.071 281.377 214.056 282.934C214.149 286.028 212.839 287.091 212.004 288.857C210.028 286.328 205.643 284.854 202.842 286.317C202.252 285.388 201.858 284.211 201.614 282.917C201.384 281.623 201.335 280.212 201.4 278.813C201.462 277.413 201.646 276.026 201.858 274.785C202.006 273.547 202.207 272.457 202.402 271.659C201.263 270.32 200.143 272.325 199.105 270.622C199.02 268.088 198.752 265.212 199.629 263.995C201.769 264.488 205.197 267.749 208.416 268.623ZM194.61 286.744C193.891 285.844 193.386 284.817 192.921 283.579C192.469 282.341 192.2 280.902 192.171 279.177C194.454 276.637 196.362 278.204 197.066 280.676C197.417 281.903 197.467 283.334 197.113 284.501C196.699 285.668 195.878 286.563 194.61 286.744ZM192.677 273.42C193.074 273.403 192.972 272.773 193.054 272.365C195.139 272.236 196.818 272.777 196.775 275.545C196 275.982 195.019 276.05 194.221 275.711C193.433 275.369 192.811 274.627 192.677 273.42ZM194.753 264.342C193.009 264.644 192.483 263.049 192.014 261.386C193.461 259.264 195.629 262.746 194.753 264.342ZM190.998 263.567C190.334 264.415 187.753 264.591 186.94 263.884C186.859 263.046 186.776 262.211 186.695 261.372C186.977 260.912 187.774 260.967 187.809 260.243C189.802 259.874 190.867 260.989 190.998 263.567ZM157.565 260.565C158.39 260.284 158.668 260.7 159.221 260.761C159.353 262.303 157.25 262.467 157.565 260.565ZM176.474 257.644C177.153 258.167 177.089 259.627 177.227 260.868C176.044 261.452 175.78 262.882 173.717 262.624C173.488 261.562 172.231 261.924 172.284 260.486C173.743 259.621 174.816 258.328 176.474 257.644ZM146.453 264.174C148.492 264.066 148.193 266.54 150.353 266.377C150.015 267.565 148.62 266.604 147.181 267.364C146.098 266.713 145.127 265.222 146.453 264.174ZM186.989 264.39C187.04 265.689 186.827 266.846 186.357 267.68C185.887 268.514 185.142 269.024 183.977 269.06C183.35 267.719 183.532 266.567 184.113 265.735C184.682 264.906 185.739 264.393 186.989 264.39ZM178.356 271.654C175.352 272.083 171.801 274.298 169.003 272.309C169.412 271.04 171.741 269.436 173.97 268.811C176.199 268.189 178.33 268.633 178.356 271.654ZM142.572 273.838L142.506 272.14C143.589 272.117 144.9 271.882 144.976 272.774C145.258 274.022 143.813 273.841 142.572 273.838ZM155.176 276.422C155.02 275.217 155.848 274.931 156.033 274.113C156.781 274.03 157.355 274.475 157.56 275.063C157.759 275.65 157.655 276.379 157.197 276.849C156.249 276.955 155.639 276.748 155.176 276.422ZM160.127 274.905C159.98 273.967 160.138 273.356 160.469 272.878C161.793 273.115 163.853 273.855 165.074 274.87C166.227 275.874 166.541 277.159 164.489 278.263C162.405 277.694 162.887 274.732 160.127 274.905ZM167.507 283.537C167.773 281.015 168.984 279.848 170.191 278.451C171.265 278.638 171.69 279.494 171.918 280.56C172.137 281.627 172.213 282.903 172.382 283.919C170.711 284.698 168.795 284.726 167.507 283.537ZM179.611 272.576C184.679 271.419 185.258 275.906 189.815 276.529C188.873 278.957 189.534 281.903 189.667 284.203C189.67 286.49 189.223 288.069 186.339 287.548C187.745 283.46 184.949 281.701 182.505 280.043C181.275 279.207 180.099 278.379 179.475 277.25C178.856 276.117 178.817 274.695 179.611 272.576ZM178.185 287.22C180.394 288.145 181.261 287.453 182.791 286.217C184.944 286.897 183.954 289.911 182.694 291.138C180.682 290.736 177.865 291.056 177.13 289.473C177.188 288.308 177.917 288.102 178.185 287.22ZM160.471 288.263C162.774 290.33 166.147 290.207 168.957 289.361C169.026 290.498 169.002 291.673 168.984 292.816C168.959 293.958 168.891 295.059 168.667 295.997C168.442 296.936 168.062 297.71 167.412 298.193C166.735 298.671 165.77 298.852 164.465 298.642C164.137 298.071 164.37 297.072 164.564 296.06C164.775 295.052 164.988 294.043 164.594 293.482C162.872 293.23 161.511 293.775 160.18 292.716C159.884 292.223 159.944 291.486 160.097 290.684C160.264 289.888 160.491 289.017 160.471 288.263ZM154.09 292.051C154.881 289.969 156.958 290.366 158.183 291.504C159.413 292.632 159.801 294.542 157.302 295.031C156.34 293.938 154.513 293.442 154.09 292.051ZM150.574 293.295L150.329 294.748C148.885 294.868 148.801 292.359 150.574 293.295ZM162.026 296.404C162.972 296.463 163.546 296.786 163.949 297.232C163.73 298.724 162.853 299.247 161.474 298.827C160.887 297.942 162.118 297.896 162.026 296.404ZM156.31 297.637C156.842 297.76 157.368 297.881 157.901 298.004L157.61 299.162C156.542 299.019 155.941 298.608 156.31 297.637ZM176.709 306.775C175.622 306.258 175.158 305.321 175.316 303.956C177.397 301.786 179.291 305.598 176.709 306.775ZM-92.1036 269.41C-92.5901 269.971 -93.2603 270.145 -93.9095 270.427C-94.2344 270.57 -94.553 270.727 -94.8419 270.954C-95.1307 271.177 -95.3951 271.559 -95.5652 271.636L-98.0059 271.439C-98.5204 266.431 -99.7818 263.026 -101.149 259.663C-99.6249 262.39 -95.6071 262.848 -93.8096 260.177C-94.1825 261.913 -95.3746 262.036 -95.2653 264.734C-95.1665 267.384 -92.4197 266.93 -92.1036 269.41Z" fill="white"/>
<path d="M228.556 270.439C189.192 184.392 87.6908 146.471 1.84648 185.742C-83.9979 225.013 -121.678 326.604 -82.3137 412.652C-42.9498 498.699 58.5515 536.62 144.396 497.349C230.24 458.078 267.92 356.487 228.556 270.439Z" fill="#FFCE46"/>
<path d="M181.347 210.628L134.336 269.558C133.764 270.275 133.255 270.915 132.764 271.546C126.234 283.204 117.08 294.673 104.787 306.598L45.8659 380.458C43.7087 383.352 41.4608 386.054 39.2862 388.665C36.8418 391.6 34.5331 394.375 32.311 397.45L24.406 407.361C23.8938 408.003 23.3836 408.641 22.8819 409.26L22.7083 409.476L22.4872 409.64C15.5915 414.771 11.0463 422.219 6.65002 429.421C2.31354 436.527 -2.16995 443.874 -8.95504 449.234C-9.66166 450.084 -10.3257 450.907 -10.9742 451.712L-23.1241 466.943C-23.5759 467.509 -24.0063 468.05 -24.4119 468.567C-24.854 470.255 -26.1829 471.384 -27.1851 472.235C-27.6071 472.593 -28.3045 473.186 -28.4207 473.463C-28.4175 473.47 -28.4033 473.508 -28.3718 473.573C-28.3649 473.588 -28.3574 473.605 -28.3478 473.623L-32.2978 475.6C-33.988 472.197 -31.426 470.031 -30.047 468.859C-29.5479 468.433 -28.7105 467.722 -28.6793 467.407L-28.6184 466.769L-28.2275 466.264C-27.7195 465.609 -27.165 464.912 -26.5788 464.177L-14.4217 448.937C-13.7046 448.048 -12.9797 447.147 -12.1982 446.212L-11.8608 445.887C-5.60416 441.008 -1.48251 434.255 2.87994 427.108C7.44819 419.621 12.1719 411.882 19.6222 406.254C20.0607 405.711 20.5053 405.155 20.9524 404.594L28.7975 394.764C31.0415 391.654 33.5074 388.692 35.8928 385.827C38.0287 383.261 40.239 380.605 42.3693 377.748L101.611 303.512C113.693 291.807 122.649 280.594 128.988 269.235L129.172 268.958C129.705 268.269 130.258 267.574 130.81 266.884L177.894 207.861L181.347 210.628Z" fill="white"/>
<path d="M243.225 322.18L243.716 326.579L182.049 333.36L181.68 333.272C167.252 329.832 153.417 331.364 136.821 338.236L136.536 338.354L132.848 338.779L35.0009 349.548C33.4505 349.72 31.903 349.889 30.377 350.031L29.8798 350.077L29.4117 349.904C16.0192 344.971 5.02438 348.699 -7.70584 353.013C-9.43202 353.599 -11.179 354.191 -12.9587 354.77L-13.3803 354.865C-14.3274 354.977 -15.246 355.078 -16.1572 355.176L-16.7683 355.243L-17.3266 354.984C-17.791 354.767 -18.3361 354.978 -19.4676 355.51C-20.8442 356.156 -23.1525 357.238 -25.3515 355.464C-34.9893 347.684 -43.7985 351.459 -53.9981 355.83C-58.7458 357.865 -63.6559 359.969 -68.7529 360.799C-70.1346 361.069 -71.4324 361.241 -72.6363 361.393L-96.1808 363.986L-96.6712 359.586L-73.1612 356.998C-72.0193 356.854 -70.8542 356.7 -69.5369 356.442C-64.9032 355.686 -60.2459 353.69 -55.7419 351.76C-45.1972 347.242 -34.2916 342.567 -22.5829 352.018C-22.4346 352.011 -21.7805 351.703 -21.3483 351.5C-20.0826 350.905 -18.2286 350.037 -16.1112 350.719C-15.4576 350.646 -14.7988 350.573 -14.1261 350.493C-12.4342 349.94 -10.7705 349.378 -9.12821 348.82C3.69283 344.474 15.8124 340.366 30.4543 345.577C31.7952 345.448 33.1523 345.299 34.5117 345.148L135.415 334.029C152.655 326.936 167.153 325.344 182.323 328.879L184.708 328.619L243.225 322.18Z" fill="white"/>
<path d="M207.308 447.947L204.552 451.403L25.968 308.382C10.2198 297.486 -5.38697 284.987 -20.4153 271.235L-34.3542 260.104C-40.6576 255.81 -46.0138 251.193 -51.1988 246.725C-55.6133 242.92 -59.7822 239.326 -64.4366 235.976L-61.8614 232.384C-57.0508 235.849 -52.6113 239.675 -48.3196 243.374C-43.2141 247.775 -37.933 252.327 -31.8098 256.491L-31.6793 256.586L-17.4934 267.922C-2.575 281.578 12.9121 293.981 28.537 304.786L28.6625 304.879L31.3346 307.018L207.308 447.947Z" fill="white"/>
<path d="M56.0312 170.588L56.5467 175.125C56.6313 175.875 56.7228 176.704 56.8071 177.579L56.8165 177.726C57.2018 190.782 58.9831 202.976 60.7064 214.767C61.2548 218.517 61.7987 222.245 62.2957 225.974L64.7079 247.172C64.803 247.982 64.8977 248.787 64.9946 249.592C69.5683 261.232 69.5987 272.42 69.6305 284.258C69.6361 286.505 69.6431 288.777 69.6804 291.081L82.8938 407.708C83.4728 414.705 84.6841 421.346 85.8548 427.77C87.7879 438.374 89.6148 448.397 88.7463 459.369L94.776 512.594L90.385 513.085L84.3074 459.431L84.3255 459.215C85.187 448.74 83.4001 438.937 81.5081 428.558C80.3181 422.03 79.0876 415.279 78.4969 408.134L65.2635 291.255C65.2241 288.894 65.2173 286.565 65.2107 284.263C65.1799 272.768 65.1509 261.911 60.7834 250.958L60.678 250.691L60.6419 250.406C60.5312 249.498 60.4256 248.595 60.3181 247.694L57.9097 226.519C57.4201 222.843 56.8773 219.133 56.3317 215.402C54.5936 203.508 52.7969 191.209 52.3992 177.926C52.3194 177.104 52.233 176.326 52.1528 175.619L51.6378 171.083L56.0312 170.588Z" fill="white"/>
<path d="M37.0836 363.032C35.929 360.663 27.105 362.588 17.3747 367.332C7.64433 372.075 0.692317 377.841 1.84692 380.21C3.00151 382.58 11.8255 380.655 21.5559 375.911C31.2862 371.167 38.2382 365.401 37.0836 363.032Z" fill="white"/>
<path d="M39.7571 361.853C42.6864 368.253 27.5683 376.235 22.8442 378.537C18.0979 380.851 2.36459 387.903 -0.760902 381.488C-0.776973 381.456 -0.791878 381.423 -0.806255 381.392C-3.73494 374.99 11.3831 367.011 16.1072 364.709C20.8534 362.394 36.5846 355.341 39.7117 361.757C39.7278 361.789 39.7422 361.82 39.7571 361.853ZM5.90978 378.235C8.67139 377.884 13.7154 376.49 20.2866 373.287C26.8585 370.082 31.0634 366.97 33.0411 365.01C30.2789 365.36 25.2349 366.754 18.6642 369.958C12.0923 373.163 7.88633 376.275 5.90978 378.235Z" fill="white"/>
<path d="M60.2969 380.938C58.6219 380.477 55.1354 387.897 52.5095 397.511C49.8836 407.126 49.1127 415.294 50.7876 415.756C52.4625 416.218 55.949 408.798 58.5749 399.183C61.2009 389.568 61.9718 381.4 60.2969 380.938Z" fill="white"/>
<path d="M63.4217 380.254C64.353 382.29 64.0772 385.217 63.9178 386.913C63.5775 390.519 62.668 395.152 61.3548 399.959C55.8391 420.151 51.463 418.944 50.0248 418.548C46.4303 417.557 46.9235 412.315 47.1615 409.796C47.5019 406.19 48.4119 401.558 49.7239 396.752C51.0353 391.948 52.6052 387.497 54.1453 384.22C55.2217 381.932 57.4578 377.169 61.054 378.16C62.2304 378.485 62.9691 379.265 63.4217 380.254ZM53.6802 405.164C54.3699 403.24 55.0883 400.988 55.7897 398.424C56.4895 395.859 57.0159 393.553 57.3997 391.543C56.7089 393.468 55.9894 395.72 55.2884 398.286C54.587 400.85 54.0634 403.156 53.6802 405.164Z" fill="white"/>
<path d="M37.7936 275.385C36.3061 275.996 38.1083 283.812 41.8189 292.844C45.5294 301.875 49.7432 308.701 51.2306 308.09C52.718 307.48 50.9158 299.663 47.2053 290.632C43.4948 281.6 39.281 274.774 37.7936 275.385Z" fill="white"/>
<path d="M47.3203 286.024C47.8874 287.263 48.4487 288.555 48.993 289.88C50.827 294.343 52.2682 298.672 53.0514 302.069C53.856 305.56 54.2808 308.919 51.9656 309.869C48.99 311.091 44.9683 305.605 40.0257 293.561C38.1912 289.096 36.7516 284.768 35.9685 281.371C35.1632 277.882 34.7384 274.522 37.0543 273.571C39.3685 272.62 41.428 275.308 43.3103 278.357C44.5966 280.444 45.9768 283.087 47.3203 286.024ZM49.4561 303.766C48.8994 301.064 47.6587 296.823 45.4105 291.35C43.1662 285.879 41.0642 281.99 39.5608 279.677C40.1187 282.379 41.3588 286.618 43.6053 292.091C45.8514 297.559 47.9533 301.454 49.4561 303.766Z" fill="white"/>
<path d="M96.2653 265.223C94.7279 264.746 91.1555 271.917 88.2862 281.24C85.4169 290.562 84.3371 298.507 85.8745 298.984C87.4119 299.461 90.9843 292.29 93.8536 282.967C96.723 273.645 97.8027 265.7 96.2653 265.223Z" fill="white"/>
<path d="M98.3512 264.811C99.5935 267.527 98.7115 273.804 95.7125 283.551C91.888 295.979 88.3883 301.798 85.3133 300.844C82.2346 299.885 82.6191 293.101 86.4436 280.673C87.8621 276.066 89.4985 271.813 91.0498 268.696C92.6451 265.494 94.4507 262.636 96.8433 263.378C97.5074 263.587 98.0099 264.065 98.3512 264.811ZM87.2519 294.544C88.5379 292.109 90.2724 288.051 92.0107 282.403C93.7501 276.754 94.5974 272.42 94.9041 269.68C93.6181 272.115 91.8825 276.174 90.1448 281.823C88.4065 287.472 87.5586 291.804 87.2519 294.544Z" fill="white"/>
<path d="M129.679 355.554C120.491 352.285 112.608 350.866 112.072 352.384C111.536 353.902 118.549 357.783 127.737 361.052C136.925 364.321 144.808 365.74 145.344 364.222C145.88 362.704 138.866 358.823 129.679 355.554Z" fill="white"/>
<path d="M147.078 362.925C147.359 363.538 147.419 364.183 147.177 364.864C146.344 367.226 142.972 366.965 139.453 366.331C136.026 365.714 131.638 364.484 127.099 362.868C114.851 358.51 109.178 354.767 110.253 351.723C111.326 348.686 118.081 349.357 130.33 353.715C134.872 355.332 139.051 357.15 142.099 358.837C144.331 360.071 146.384 361.407 147.078 362.925ZM116.464 353.932C118.845 355.323 122.825 357.233 128.39 359.214C133.958 361.196 138.248 362.229 140.97 362.653C138.59 361.262 134.61 359.352 129.043 357.371C123.475 355.391 119.186 354.358 116.464 353.932Z" fill="white"/>
<path d="M21.7426 324.104C13.5824 320.952 6.52424 319.551 5.97779 320.976C5.43134 322.4 11.6035 326.111 19.7637 329.263C27.9239 332.415 34.982 333.816 35.5285 332.391C36.0749 330.967 29.9028 327.256 21.7426 324.104Z" fill="white"/>
<path d="M37.8411 330.957C38.356 332.082 38.0573 332.857 37.8885 333.301C37.4191 334.525 35.9887 338.247 18.8514 331.626C1.7084 325.005 3.14002 321.283 3.60709 320.061C4.78027 317.001 9.30975 317.899 11.4876 318.332C14.603 318.95 18.5657 320.16 22.6437 321.734C33.5518 325.948 36.9407 328.988 37.8411 330.957ZM14.9684 324.449C16.587 325.224 18.4897 326.053 20.6658 326.893C22.8413 327.735 24.8061 328.398 26.5244 328.913C24.9075 328.138 23.006 327.309 20.8298 326.469C18.652 325.628 16.6878 324.963 14.9684 324.449Z" fill="white"/>
<path d="M105.104 400.66C100.296 391.825 95.1861 385.324 93.691 386.138C92.1958 386.953 94.8817 394.775 99.6901 403.609C104.499 412.444 109.609 418.945 111.104 418.131C112.599 417.316 109.913 409.494 105.104 400.66Z" fill="white"/>
<path d="M110.208 406.478C113.022 412.628 114.7 418.393 112.036 419.844C109.789 421.069 107.386 418.573 105.124 415.697C102.904 412.871 100.372 408.91 97.9971 404.545C93.5977 396.472 89.1281 386.428 92.7702 384.444C95.0169 383.219 97.4192 385.714 99.6822 388.591C101.902 391.417 104.434 395.377 106.809 399.744C107.99 401.911 109.176 404.221 110.208 406.478ZM109.084 414.421C108.295 411.746 106.527 407.327 103.411 401.596C100.291 395.862 97.5396 391.984 95.7215 389.867C96.5107 392.544 98.2781 396.963 101.395 402.693C104.516 408.427 107.267 412.305 109.084 414.421Z" fill="white"/>
<path d="M136.056 301.848C135.093 300.55 128.295 303.969 120.873 309.486C113.451 315.002 108.215 320.526 109.178 321.825C110.141 323.123 116.939 319.704 124.361 314.188C131.783 308.671 137.019 303.147 136.056 301.848Z" fill="white"/>
<path d="M137.89 301.163C138.782 303.112 136.835 305.578 134.758 307.77C132.474 310.179 129.193 313.01 125.515 315.742C121.838 318.476 118.181 320.802 115.218 322.293C112.3 323.761 109.116 324.991 107.624 322.978C105.212 319.756 112.877 313.01 119.717 307.925C123.394 305.192 127.05 302.867 130.014 301.375C132.932 299.908 136.116 298.678 137.608 300.691C137.724 300.845 137.817 301.002 137.89 301.163ZM112.708 319.198C115.058 318.094 118.687 315.983 123.205 312.626C127.723 309.267 130.79 306.4 132.527 304.467C130.177 305.572 126.548 307.682 122.029 311.04C117.511 314.398 114.445 317.267 112.708 319.198Z" fill="white"/>
<path d="M91.4998 334.934C86.8727 324.819 74.9414 320.362 64.8506 324.978C54.7598 329.594 50.3306 341.536 54.9578 351.651C59.5849 361.765 71.5162 366.223 81.607 361.606C91.6978 356.99 96.127 345.049 91.4998 334.934Z" fill="#FFCE46"/>
<path d="M250.398 251.743C252.601 256.557 254.354 261.538 256.171 266.697C258.257 272.622 260.412 278.735 263.381 284.752L263.441 284.873L263.485 285.001C264.047 286.604 264.505 288.179 264.881 289.508C269.233 305.555 271.576 322.105 271.852 338.718C271.88 340.315 271.883 341.907 271.863 343.479C271.81 345.019 271.916 346.706 272.028 348.489C272.219 351.512 272.417 354.637 271.933 357.669L271.89 357.943L271.781 358.199C265.118 373.624 263.457 388.444 261.697 404.136L261.628 404.603C261.47 405.249 261.297 405.866 261.122 406.487L260.89 407.299C255.754 422.074 248.845 436.253 240.353 449.443C239.887 450.168 239.415 450.892 238.915 451.596L238.69 451.867C233.263 457.406 228.297 463.422 223.041 469.792C219.874 473.63 216.599 477.598 213.239 481.417C212.26 482.53 211.273 483.634 210.271 484.723L210.144 484.851L206.978 487.789C194.597 499.289 181.794 511.181 166.95 518.131C165.702 518.82 164.488 519.47 163.263 520.1C156.64 523.516 150.336 525.996 143.996 527.679C142.57 528.22 141.139 528.744 139.72 529.237L139.326 529.334C133.347 530.24 127.388 531.331 121.079 532.487C107.579 534.959 93.6214 537.514 79.679 538.083L75.0667 538.064C72.9822 538.053 70.8995 538.056 68.8145 538.057C54.4566 538.064 39.6075 538.072 25.2413 534.164C23.8667 533.765 22.6316 533.383 21.3899 532.992C12.3078 530.151 0.368111 526.285 -11.4315 521.568C-12.9345 520.876 -14.3328 520.195 -15.815 519.442C-22.0506 516.156 -27.6891 512.082 -33.14 508.141C-39.7311 503.378 -45.9556 498.879 -53.1754 495.603L-53.6085 495.344C-54.5303 494.636 -55.4194 493.844 -56.3283 492.922C-57.1146 492.115 -57.8355 491.285 -58.4818 490.444L-60.1869 488.96C-61.4112 487.849 -62.5837 486.763 -63.7203 485.678L-63.8776 485.512C-75.6773 471.663 -89.2235 455.423 -100.668 437.911L-100.753 437.771C-101.494 436.431 -102.218 435.083 -102.923 433.729C-110.64 418.972 -116.489 403.237 -120.313 386.968C-120.679 385.364 -121.026 383.77 -121.351 382.135C-124.632 361.211 -125.824 342.656 -125.015 325.322C-124.885 323.656 -124.74 322.064 -124.573 320.475C-123.467 309.776 -121.476 299.099 -118.656 288.746C-118.222 287.219 -117.781 285.715 -117.282 284.138C-113.097 270.872 -107.624 259.573 -101.832 247.611C-100.821 245.523 -99.8007 243.419 -98.7811 241.286L-98.695 241.124C-97.8937 239.754 -97.0723 238.381 -96.2312 237.018C-92.0059 230.157 -87.2991 223.462 -82.2412 217.122C-76.2284 209.586 -69.6359 202.442 -62.6467 195.891C-61.5079 194.823 -60.3577 193.77 -59.1978 192.736C-46.9837 180.402 -36.1408 172.612 -25.0951 168.24C-23.7136 167.469 -22.3862 166.739 -21.056 166.028C-14.3479 162.43 -7.35984 159.19 -0.286718 156.396C1.12819 155.836 2.54706 155.294 3.95596 154.776L4.41498 154.607L4.90295 154.648C17.031 155.672 27.2887 152.206 38.1501 148.536C44.1559 146.507 50.364 144.41 56.8822 143.156L57.2425 143.118L61.2053 143.02C79.2711 142.606 96.8412 142.571 113.224 146.628C114.685 146.921 116.231 147.255 117.773 147.608C122.383 148.679 127.002 149.927 131.512 151.322C133.076 151.807 134.637 152.311 136.221 152.846C147.94 156.062 159.002 160.976 169.917 167.833C170.548 168.183 171.272 168.594 171.993 169.013C180.713 174.05 189.154 179.823 197.078 186.168C215.713 201.093 231.333 218.955 243.505 239.256C244.295 240.575 245.071 241.903 245.828 243.238C247.585 246.012 249.074 248.847 250.398 251.743ZM258.186 284.108C255.727 278.733 253.839 273.372 252.005 268.163C249.181 260.143 246.513 252.57 242.041 245.508C241.245 244.112 240.488 242.815 239.715 241.525C227.817 221.677 212.544 204.213 194.32 189.618C186.57 183.412 178.316 177.767 169.786 172.84C169.08 172.431 168.374 172.03 167.665 171.632C157.029 164.952 146.354 160.209 134.938 157.073C133.265 156.514 131.739 156.021 130.212 155.546C125.805 154.184 121.287 152.964 116.787 151.919C115.288 151.577 113.779 151.249 112.262 150.941C96.3166 146.996 79.0694 147.036 61.3154 147.441L57.5448 147.536C51.3834 148.738 45.3771 150.766 39.5684 152.729C28.8961 156.336 17.863 160.063 5.0327 159.097C3.80661 159.551 2.57242 160.024 1.34179 160.511C-5.57431 163.243 -12.4068 166.412 -18.9664 169.93C-20.3153 170.652 -21.6607 171.392 -23.0638 172.177L-23.1943 172.251L-23.3328 172.304C-33.8503 176.44 -44.262 183.938 -56.1024 195.901L-56.2028 195.995C-57.3527 197.021 -58.4935 198.066 -59.6244 199.124C-66.4579 205.53 -72.9055 212.515 -78.7859 219.887C-83.7327 226.088 -88.3368 232.634 -92.469 239.345C-93.2769 240.655 -94.065 241.972 -94.8358 243.286C-95.8461 245.396 -96.855 247.479 -97.8558 249.546C-103.578 261.359 -108.981 272.517 -113.069 285.477C-113.553 287.01 -113.984 288.472 -114.398 289.936C-117.149 300.036 -119.094 310.474 -120.178 320.937C-120.34 322.493 -120.482 324.048 -120.605 325.605C-121.397 342.566 -120.219 360.827 -117.001 381.364C-116.7 382.867 -116.364 384.422 -116.008 385.972C-112.273 401.865 -106.554 417.245 -99.0083 431.682C-98.3294 432.982 -97.6349 434.273 -96.9247 435.558C-85.6608 452.789 -72.2724 468.847 -60.5943 482.553C-59.5092 483.587 -58.391 484.622 -57.2599 485.649L-55.0986 487.592C-54.5307 488.349 -53.8842 489.099 -53.178 489.823C-52.4859 490.526 -51.8085 491.138 -51.1185 491.682C-43.5959 495.132 -36.9696 499.92 -30.5604 504.553C-25.2333 508.403 -19.7232 512.384 -13.7926 515.51C-12.3875 516.224 -11.0381 516.881 -9.69278 517.504C1.85872 522.118 13.6932 525.95 22.7012 528.768C23.9186 529.151 25.1254 529.524 26.4292 529.903C40.1887 533.646 54.7365 533.639 68.8075 533.63C70.901 533.63 72.9911 533.628 75.0774 533.639L79.5953 533.658C93.1261 533.104 106.93 530.576 120.279 528.132C126.276 527.034 132.474 525.899 138.458 524.987C139.811 524.515 141.174 524.015 142.533 523.499L142.755 523.427C148.819 521.827 154.866 519.45 161.24 516.163C162.448 515.541 163.646 514.9 164.878 514.218L165.011 514.151C179.257 507.497 191.822 495.826 203.974 484.541L207.079 481.659C208.039 480.613 208.988 479.554 209.926 478.487C213.24 474.722 216.492 470.781 219.638 466.969C224.684 460.855 229.899 454.534 235.412 448.891C235.836 448.285 236.239 447.664 236.642 447.04C244.932 434.162 251.679 420.323 256.698 405.901L256.873 405.277C257.021 404.751 257.17 404.225 257.305 403.679L257.311 403.634C259.098 387.693 260.785 372.632 267.616 356.701C267.97 354.221 267.793 351.447 267.624 348.761C267.503 346.864 267.39 345.073 267.45 343.364C267.468 341.886 267.464 340.336 267.438 338.783C267.17 322.537 264.878 306.354 260.627 290.682C260.269 289.413 259.863 288.024 259.365 286.584C258.955 285.758 258.563 284.933 258.186 284.108Z" fill="white"/>
<path d="M230.572 269.326C238.166 285.925 243.148 303.806 245.242 322.468C250.413 368.522 237.37 413.808 208.516 449.976C203.341 456.464 197.674 462.616 191.669 468.264C190.477 469.387 189.272 470.488 188.059 471.564L187.775 471.778C182.448 475.144 177.291 478.743 172.303 482.224C170.715 483.332 169.132 484.438 167.55 485.532C166.526 486.24 165.336 487.056 164.159 487.787L163.656 488.1L163.063 488.118C151.695 488.464 143.711 494.361 135.256 500.604C132.936 502.318 130.536 504.09 128.065 505.739L127.883 505.86L127.681 505.943C126.449 506.45 125.262 506.903 124.054 507.364L122.793 507.84C107.48 512.388 91.6108 514.802 75.6241 515.012C74.1056 515.033 72.5901 515.032 71.1315 515.005L70.9336 514.993C69.4823 514.835 68.0394 514.698 66.6274 514.577L66.48 514.559C52.7281 512.441 39.7493 509.4 26.0081 506.183C23.1534 505.514 20.2861 504.842 17.4026 504.178L17.1948 504.119C15.9201 503.69 14.6722 503.265 13.4215 502.836C5.90653 500.262 0.119831 498.178 -5.34223 496.08L-5.55569 495.985C-7.00958 495.241 -8.44619 494.476 -9.87642 493.692C-11.2982 492.911 -12.7106 492.107 -14.1149 491.282C-14.833 490.86 -15.547 490.435 -16.2573 490.003C-21.803 486.549 -26.7729 482.312 -31.5794 478.215C-36.447 474.067 -41.0446 470.147 -45.9435 467.232L-46.3215 466.949C-46.9506 466.362 -47.5643 465.776 -48.1743 465.182C-75.6758 438.175 -93.5839 402.187 -98.6074 363.837C-103.62 325.584 -95.6583 286.331 -76.1865 253.309C-75.3673 251.919 -74.5244 250.535 -73.6618 249.161C-72.4834 247.458 -71.43 245.868 -70.3833 244.291C-68.8054 241.911 -67.1721 239.45 -65.3751 236.999C-64.3772 235.681 -63.3444 234.366 -62.2847 233.063L-62.2835 233.063C-61.2108 231.745 -60.1243 230.446 -59.0296 229.159C-57.9338 227.87 -56.823 226.596 -55.6986 225.343C-37.5037 205.068 -15.4499 189.783 9.8528 179.913C11.29 179.353 12.7346 178.811 14.1842 178.29L14.5527 178.194C17.7189 177.643 20.6808 176.523 23.8175 175.338C27.7758 173.842 31.8668 172.296 36.4854 171.924C37.937 171.613 39.3926 171.32 40.8523 171.045C52.9085 168.784 65.2333 167.801 77.4827 168.124C79.0875 168.169 80.6842 168.237 82.2915 168.331L82.5363 168.359C103.252 171.896 123.444 176.725 142.553 182.712L142.785 182.8C144.281 183.46 145.768 184.144 147.247 184.851C159.255 190.577 170.659 197.739 181.143 206.135C202.653 223.36 219.424 244.96 230.572 269.326ZM185.259 468.132C186.395 467.121 187.523 466.088 188.641 465.036C194.494 459.531 200.019 453.534 205.062 447.211C263.107 374.451 251.138 267.855 178.387 209.589C168.17 201.404 157.055 194.426 145.352 188.844C143.948 188.173 142.538 187.524 141.122 186.897C122.273 180.998 102.358 176.235 81.9218 172.741C80.3972 172.653 78.8838 172.589 77.3686 172.546C65.4345 172.232 53.4233 173.191 41.6725 175.395C40.2025 175.672 38.7365 175.967 37.2739 176.282L36.974 176.326C32.9278 176.626 29.2619 178.011 25.3828 179.478C22.2496 180.662 19.011 181.886 15.5076 182.519C14.1528 183.008 12.8032 183.514 11.4604 184.038C-13.1923 193.653 -34.683 208.548 -52.411 228.303C-53.5088 229.528 -54.5945 230.771 -55.666 232.033C-56.7421 233.296 -57.8078 234.571 -58.8592 235.864C-59.8884 237.126 -60.8877 238.401 -61.8342 239.65C-63.5491 241.988 -65.0812 244.3 -66.7037 246.745C-67.7649 248.345 -68.8362 249.96 -69.9767 251.605C-70.7639 252.862 -71.5839 254.21 -72.3836 255.565C-91.3553 287.741 -99.114 325.992 -94.2304 363.269C-89.3312 400.644 -71.8832 435.712 -45.095 462.017C-44.5691 462.528 -44.0341 463.041 -43.4871 463.552C-38.3466 466.642 -33.6678 470.629 -28.7207 474.846C-24.0382 478.839 -19.1938 482.966 -13.9506 486.232C-13.2783 486.64 -12.5823 487.056 -11.8844 487.467C-10.5159 488.27 -9.13995 489.052 -7.75526 489.814C-6.39747 490.559 -5.0333 491.285 -3.65418 491.991C1.72213 494.056 7.43546 496.111 14.8458 498.65C16.0564 499.065 17.2631 499.477 18.4926 499.89C21.3459 500.55 24.1809 501.212 27.0055 501.874C40.6372 505.067 53.5145 508.082 67.0723 510.175C68.4598 510.295 69.8753 510.43 71.3021 510.583C72.6854 510.608 74.1191 510.608 75.5564 510.588C91.109 510.383 106.548 508.04 121.446 503.623L122.472 503.231C123.579 502.809 124.667 502.393 125.79 501.936C128.112 500.377 130.406 498.683 132.626 497.043C141.115 490.775 149.888 484.296 162.311 483.72C163.248 483.121 164.199 482.469 165.033 481.89C166.611 480.8 168.189 479.701 169.77 478.596C174.752 475.118 179.901 471.523 185.259 468.132Z" fill="white"/>
<path d="M93.3108 333.837C96.7123 341.273 95.9141 350.311 90.4879 357.114C82.8146 366.73 68.7491 368.289 59.1332 360.588C49.519 352.888 47.9348 338.798 55.6082 329.178C59.3255 324.519 64.6331 321.593 70.5555 320.937C76.4774 320.28 82.3035 321.974 86.9617 325.705C89.7745 327.958 91.9034 330.761 93.3108 333.837ZM56.783 350.606C57.9347 353.124 59.6673 355.355 61.8895 357.134C69.6005 363.31 80.8818 362.06 87.0332 354.347C90.014 350.611 91.3611 345.933 90.8267 341.177C90.2922 336.42 87.9401 332.15 84.2048 329.16C76.4938 322.984 65.2148 324.233 59.0623 331.946C56.0815 335.683 54.7343 340.36 55.2676 345.117C55.484 347.045 55.9986 348.892 56.783 350.606Z" fill="white"/>
</svg>
