<svg xmlns="http://www.w3.org/2000/svg" viewBox="0 0 38.27 53.95"><defs><style>.cls-1{fill:#ff4e00;}</style></defs><g id="Слой_2" data-name="Слой 2"><g id="Слой_1-2" data-name="Слой 1"><g id="_2" data-name="2"><path class="cls-1" d="M2.06,46.81a12.58,12.58,0,0,1,4.56-4.63A13.74,13.74,0,0,1,14,40q3.16,0,8.61,2.21A22.24,22.24,0,0,0,30,44.16a6.56,6.56,0,0,0,4.86-1.91,4.72,4.72,0,0,0,1.55-3.39A5.84,5.84,0,0,0,36,36.8a8.94,8.94,0,0,1-.22-1.47c0-1,.41-1.55,1.25-1.55s1.25.52,1.25,1.55A25.16,25.16,0,0,1,35.69,46Q32.39,54,24.88,54a12.51,12.51,0,0,1-5.41-1.07,29.75,29.75,0,0,1-5.41-3.57c-2.7-2.1-5-3.16-7-3.16a5.91,5.91,0,0,0-3.23,1,3.52,3.52,0,0,0-1.55,3,4.44,4.44,0,0,0,.22,1.36,3.79,3.79,0,0,1,.22,1.07c0,.73-.34,1.1-1,1.1q-1.69,0-1.69-5,0-7.06,3.46-11.26a19.26,19.26,0,0,1,2.06-2.17,18,18,0,0,1,2.69-1.95c1-.64,1.86-1.11,2.43-1.43s1.53-.81,2.9-1.48,2.24-1.09,2.58-1.28q5.8-2.88,7.73-6.22a16.26,16.26,0,0,0,1.91-8.14q0-6.1-2.5-9.49a9.74,9.74,0,0,0-8.17-3.83A12.16,12.16,0,0,0,8,3.64Q4.86,5.82,4.86,8.76A1.88,1.88,0,0,0,5.23,10a1.34,1.34,0,0,0,.66.51c.2.05.59.13,1.18.22q1.17.3,1.62.45a11.73,11.73,0,0,1,1.47.7,3.13,3.13,0,0,1,1.47,1.54,6,6,0,0,1,.44,2.47,5.44,5.44,0,0,1-1.69,4.34,5.86,5.86,0,0,1-4,1.47A6.23,6.23,0,0,1,2,19.83C.65,18.58,0,16.71,0,14.2A12.91,12.91,0,0,1,4.71,4Q9.2,0,16.86,0A19.64,19.64,0,0,1,29.51,4.12a14.12,14.12,0,0,1,5.82,11.71,13,13,0,0,1-1.14,5.59,10.43,10.43,0,0,1-3.28,4,26.92,26.92,0,0,1-3.82,2.43A41.13,41.13,0,0,1,23,29.59L18.51,31Q15,32,13,32.83q-6,2.13-8.69,5.59A11.14,11.14,0,0,0,2.06,46.81Z"/></g></g></g></svg>