<svg xmlns="http://www.w3.org/2000/svg" viewBox="0 0 38.27 54.46"><defs><style>.cls-1{fill:#ff4e00;}</style></defs><g id="Слой_2" data-name="Слой 2"><g id="Слой_1-2" data-name="Слой 1"><g id="_3" data-name="3"><path class="cls-1" d="M10.23,25.1l3.09-2.58c1.33,1.13,3.36,1.69,6.11,1.69a6.38,6.38,0,0,0,5.22-2.13q1.84-2.5,1.84-8.91,0-7.35-2.87-10.08a7.32,7.32,0,0,0-5.07-1.77A11.36,11.36,0,0,0,12.81,2.8q-3.11,1.76-3.1,4a1.51,1.51,0,0,0,.11.56,1.89,1.89,0,0,1,.15.4c0,.1.15.21.37.33a1.67,1.67,0,0,0,.37.19,3.77,3.77,0,0,1,.48.22,12.09,12.09,0,0,1,1.62.81,4.64,4.64,0,0,1,1.28,1.43,4.5,4.5,0,0,1,.7,2.54,4.65,4.65,0,0,1-1.54,3.79A5.56,5.56,0,0,1,9.57,18.4,5.63,5.63,0,0,1,5.3,16.71a6.23,6.23,0,0,1-1.62-4.49q0-5.67,5.81-9.5A18.35,18.35,0,0,1,19.28,0,18.38,18.38,0,0,1,30.69,3.61q5.37,4.19,5.37,10.23a9.15,9.15,0,0,1-4.12,7.8,18.8,18.8,0,0,1-7.8,3.16v.3a19.52,19.52,0,0,1,9.79,4,11.59,11.59,0,0,1,4.34,9.06,14.14,14.14,0,0,1-6.62,12.21,24.09,24.09,0,0,1-14,4.05q-8,0-12.88-4.12Q0,46.52,0,41.36a6.67,6.67,0,0,1,1.84-4.89A6.15,6.15,0,0,1,6.4,34.59a5.64,5.64,0,0,1,4,1.55A5.16,5.16,0,0,1,12.07,40,5.32,5.32,0,0,1,10,44.45a4.42,4.42,0,0,1-.55.44,5.78,5.78,0,0,0-.56.45,5.26,5.26,0,0,0-.4.47,1.81,1.81,0,0,0-.33.67,3.55,3.55,0,0,0-.07.77c0,1.23.76,2.45,2.28,3.68a10.55,10.55,0,0,0,7,2.21q5.6,0,8-3.83,1.84-2.87,1.84-10.6c0-5.39-.69-9-2.06-10.74a7,7,0,0,0-5.81-2.43c-2.7,0-4.72.66-6,2Z"/></g></g></g></svg>