<svg xmlns="http://www.w3.org/2000/svg" viewBox="0 0 42.69 52.99"><defs><style>.cls-1{fill:#ff4e00;}</style></defs><g id="Слой_2" data-name="Слой 2"><g id="Слой_1-2" data-name="Слой 1"><g id="_4" data-name="4"><path class="cls-1" d="M13.61,51.66h8.47V39a44,44,0,0,0-6-.45A34.1,34.1,0,0,0,.59,41.88,1.28,1.28,0,0,1,0,40.7c0-1.67,1-4,3-7.07A71,71,0,0,1,8.1,26.86q3.83-4.56,4.63-5.66A46.19,46.19,0,0,0,22.23,0a17.39,17.39,0,0,0,6.33,1.1,20.8,20.8,0,0,0,6-.88,44,44,0,0,1-3.16,7.51,34.13,34.13,0,0,1-4.09,6A49.81,49.81,0,0,1,23.29,18q-1.8,1.65-4.23,3.57l-3.6,2.64q-1.41,1-3.9,2.87a35.29,35.29,0,0,0-6.7,6.41A13.33,13.33,0,0,0,2.58,38a36.53,36.53,0,0,1,9.86-1.33,44,44,0,0,1,9.64,1V25.32a18.4,18.4,0,0,0,10.31-6.7v19.8a6,6,0,0,0,4-.3A1.23,1.23,0,0,0,37.32,37c0-.2-.32-.62-1-1.25a2.7,2.7,0,0,1-.74-2,4,4,0,0,1,1-2.69,3.22,3.22,0,0,1,2.54-1.14,3.54,3.54,0,0,1,2.5,1,3.62,3.62,0,0,1,1,2.79,5.24,5.24,0,0,1-2.43,4.64,10.55,10.55,0,0,1-7.87,1.47V51.67H39V53H13.61Z"/></g></g></g></svg>