<svg xmlns="http://www.w3.org/2000/svg" viewBox="0 0 38.27 54.46"><defs><style>.cls-1{fill:#ff4e00;}</style></defs><g id="Слой_2" data-name="Слой 2"><g id="Слой_1-2" data-name="Слой 1"><g id="_5" data-name="5"><path class="cls-1" d="M5.81,25.39l2-18.84a14,14,0,0,1-2-6,21.52,21.52,0,0,0,6.26.88A22.48,22.48,0,0,0,19.8,0q-.89,6,2.06,9.35a8.07,8.07,0,0,0,6.4,2.5,8.17,8.17,0,0,0,4.2-1c1.12-.59,1.69-1.32,1.69-2.21,0-.49-.4-.78-1.18-.88a3.71,3.71,0,0,1-2.35-1,3.28,3.28,0,0,1-1.18-2.72,3.88,3.88,0,0,1,1.18-2.87A4.14,4.14,0,0,1,33.71,0a4.29,4.29,0,0,1,3.35,1.36,5,5,0,0,1,1.21,3.42,7.79,7.79,0,0,1-3.46,6.48q-4.05,3-11.26,3-9.19,0-14.13-5.74L7.8,23.92a14.22,14.22,0,0,1,11.26-4.78,19.55,19.55,0,0,1,11.92,4A15.25,15.25,0,0,1,37.53,36q0,8.38-7.21,13.91a23.27,23.27,0,0,1-14.06,4.56q-7.35,0-12.07-3.82A10.41,10.41,0,0,1,0,42.25a6.06,6.06,0,0,1,1.69-4.49,5.61,5.61,0,0,1,4.12-1.7,5.61,5.61,0,0,1,3.9,1.48,5.28,5.28,0,0,1,1.62,4.12,5.13,5.13,0,0,1-1.69,3.83c-1.23,1-1.84,1.93-1.84,2.87,0,1.12.69,2.15,2.06,3.09a9.63,9.63,0,0,0,5.89,1.69,9.26,9.26,0,0,0,7.88-3.9q2.86-3.9,2.87-12.37,0-9-2.51-12.36a8.37,8.37,0,0,0-7.14-3.24,10.72,10.72,0,0,0-6.25,1.84,9.62,9.62,0,0,0-3,3.75c-.29,1.77-1,2.65-2.13,2.65a1,1,0,0,1-1.18-1.17A4,4,0,0,1,5.81,25.39Z"/></g></g></g></svg>