<svg width="354" height="607" fill="none" xmlns="http://www.w3.org/2000/svg"><path fill-rule="evenodd" clip-rule="evenodd" d="M-77.608 115.413c-1.164.203-2.496 1.355-3.486 2.67-.95 1.332-1.536 2.827-1.352 3.674 1.184.041 2.649-1.165 3.767-2.536 1.11-1.373 1.763-2.971 1.07-3.808zm276.362 1.929c4.209 3.777 1.183 6.871-1.038 7.231-1.329-1.196-.552-1.698-2.22-3.008 2.288-.933 1.49-4.3 3.258-4.223zM30.938 64.372c-3.023.82-4.226.33-6.153.373-.488-2.185 2.975-4.44 7.249-4.31 1.319.99.384 2.657-1.096 3.937zm-15.416 2.663c-.523-.193-1.04-.394-1.157-.943.876-.606 2.103-1.158 4.085-1.56.152 1.036-.822 1.86-2.928 2.503zm220.512 112.851c1.564-.238 3.273 1.233 3.703 3.935-1.065-.189-2.084-1.133-3.217-.127-1.168-1.976-.84-2.891-.486-3.808zm-317.66-39.508c-2.558-1.282-5.333-1.36-8.096-1.598l1.871-2.376c1.956 3.458 5.185-.5 7.86-1.331.708 1.267.851 2.74-1.635 5.305zm339.438 130.966l.084 3.83c-1.438 1.025-2.067-5.108-.084-3.83zM91.464 65.34c1.37-.467 4.324.533 6.728 1.011-1.09 1.797-3.131 2.804-4.369 4.451-1.993-.47-3.146-1.453-3.518-2.543-.37-1.09.046-2.262 1.159-2.919zm67.324 29.354c.961-.502 2.745.522 3.715.03 1.364 1.006 2.307 1.95 3.195 2.92.864.983 1.716 1.966 2.972 3.013-.185 1.305-1.48.203-1.815 1.178a98.17 98.17 0 01-2.665-1.944c-.848-.631-1.686-1.217-2.405-1.812-1.448-1.179-2.53-2.31-2.997-3.385zm75.423 97.907c.239-1.905 2.289-4.288 4.302-3.417 1.496 2.813.895 4.003.472 5.314-1.768.761-3.17-1.414-4.774-1.897zm-33.14-58.206c-1.21-1.333-1.01-2.112-1.799-3.269.861.068 2.04 1.356 3.038 2.208l-1.239 1.061zm47.369 184.498c.533.712-.857 6.311-1.665 6.7-1.694-.814 1.209-5.135 1.665-6.7zM43.508 67.136c3.1-.233 6.731.76 4.478 2.419-3.707.55-4.302-.794-4.478-2.42zm42.196 1.837c.278 2.64 3.144 5.922-1.039 6.853-4.145-.657-6.682-3.236-6.852-5.215-.162-2.015 2.223-3.456 7.891-1.638zm63.558 23.563c2.602 2.124 3.266 4.259 3.227 6.3-.037 2.042-.791 4.016-1.25 6.004-1.079-2.313-1.846-4.732-5.947-7.07 1.389-1.634 1.844-4.777 3.97-5.234zM10.82 80.316l-1.705-.435a15.597 15.597 0 01-1.58-.485c-1.004-.38-1.88-.915-2.417-1.833 1.325-.685 2.492-1.22 3.61-1.625a24.214 24.214 0 013.32-.836c1.997-.345 3.585-.302 4.978-.086 2.802.46 4.775 1.487 7.88 1.788-1.38 1.881.046 2.64 1.456 3.367 1.422.724 2.834 1.415 1.638 3.076-2.552.558-4.207.606-5.495.255-1.288-.351-2.189-1.07-3.09-1.796-1.795-1.445-3.62-2.939-8.595-1.39zm-103.742 89.009c-2.242.501-3.784.725-5.287-1.468 1.954-1.054 6.818-4.824 5.74-7.955 1.859-.224 2.104 1.232 1.688 3.175-.367 1.955-1.355 4.417-2.14 6.248zM54.845 73.672c-1.58-2.893 2.951-4.084 7.084-3.797 1.028.076 2.027.215 2.883.484.856.283 1.574.639 2.06 1.052.97.826.989 1.874-.66 3.041a33.28 33.28 0 01-3.221-.093c-.9-.085-1.668-.236-2.44-.384-1.539-.298-3.098-.591-5.706-.303zm57.182 4.526c.026 1.594-3.683 3.828-7.559 3.19-1.814-1.078-2.596-1.777-2.58-2.353.007-.562.794-.966 1.946-1.189 2.267-.4 6.056-.114 8.193.352zm-213.763 112.824c-1.604.137-3.281-.151-5.003-.797.032-1.432.696-2.826 1.497-4.226.839-1.4 1.833-2.802 2.471-4.283-.953-1.136-.779-2.642-.038-3.944.76-1.3 2.123-2.384 3.433-2.701 3.153 2.801-3.451 11.701-2.36 15.951zm41.576-69.914c1.63-1.538 3.594-1.651 3.028-.005-1.57 1.684-2.334.955-3.028.005zm192.033-28.247c1.538-1.449 4.559-1.687 7.194-.821 2.546.938 4.679 2.947 4.524 5.691-2.315-1.605-4.566-1.893-6.531-2.256-2.036-.306-3.781-.698-5.187-2.614zM-74.22 138.963c-.97-.529.187-1.817.978-2.98.794.76.393 2.524-.978 2.98zm53.538-39.901c-1.874-1.903 2.061-3.755.23-5.676 1.542-.832 2.263-.408 4.14-1.725 3.499 1.901 1.433 6.016-4.37 7.401zm265.22 186.178c.934-1.506 2.288-.255 2.818.896.133 2.64-1.322 2.142-2.546 2.023.133-1.297-.421-1.558-.272-2.919zm-367.934-33.609c.652-3.253.815-7.965 3.017-7.365.701 2.148-.135 8.935-3.017 7.365zM41.956 75.511c2.9-1.768 9.075-.28 10.488-.953.693 2.413 4.147 3.295 5.769 5.159-.035 1.872-4.891 1.32-6.91 2.236-2.527-2.494-9.2-2.303-9.347-6.441zm201.353 178.971c1.092.227 2.436 4.89.947 5.631-2.088.329-1.377-4.336-.947-5.631zm-1.97 39.904c1.658-2.018 3.836 2.276 1.888 5.316-1.851-.095-2.394-1.969-1.888-5.316zm-35.258-123.428c.614-.852 1.068-1.787 2.407-2.28 3.297 1.239 6.643 3.691 8.686 6.668 1.023 1.482 1.718 3.09 1.888 4.727.143 1.652-.278 3.352-1.372 4.97.812 1.339 1.084 2.342 1.118 3.192-1.67.44-.764 2.528-2.721 2.779-1.583-2.28-1.196-4.389-2.609-5.317-1.8-1.742-2.152.436-2.897 1.486-1.209-1.917-2.127-3.535-2.414-5.003-.299-1.459-.041-2.729.878-3.797.665.493 1.33 1.278 1.958 2.666 2.272-1.054 1.502-2.93-.058-4.87-.778-.968-1.752-1.948-2.637-2.854-.911-.893-1.766-1.694-2.227-2.367zM-.539 89.29c.664-.3 1.33-.522 1.996-.785l.757 1.898c-1.454.267-2.728.413-2.752-1.113zm204.729 68.454c1.226.677 1.534 1.591 1.876 2.664.311 1.094.642 2.356 1.968 3.759-1.435.301-2.536-1.016-3.199-2.562-.702-1.52-.999-3.265-.645-3.861zm-242.584-41.211l-4.97 3.961c-.514-2.161-.195-4.549 4.15-7.434 1.296 1.045.9 2.249.82 3.473zm-35.579 62.406c-3.33-.938-6.63.516-9.76 2.347-1.87-.934-2.463-2.581-2.047-4.787 3.19-1.673 4.864-6.107 5.016-9.164 2.684 1.651 2.374 4.717 3.86 6.949-.053-1.214 4.85-7.772 1.016-8.46.84-1.265 1.627-2.54 2.54-3.778-1.073-2.964-5.044-3.656-7.423-4.342 2.214-2.749 4.486-4.024 6.615-5.335 2.178-1.298 4.277-2.604 6.153-5.514l1.574 1.296c-7.361 7.16-2.195 9.781-1.38 13.862-.926 1.55-1.78 3.044-2.463 4.523a54.61 54.61 0 00-1.738 4.334c-1.024 2.799-1.591 5.49-1.963 8.069zM7.963 91.738c-3.263-.257-1.22-3.693 2.445-3.507.813 1.482.166 2.674-2.445 3.507zm-113.231 150.029c-5.067 1.373-6.794-1.552-9.383-4.7.393-1.91 1.196-2.797 1.836-4.071-.893 2.844 4.387 3.997 5.875 3.385 2.122-.876 2.989-4.44 4.147-7.407 1.105-2.978 2.515-5.328 5.242-3.768.424 2.659.15 5.985 1.566 7.837 1.437.835 4.82.057 3.874 2.85-3.9-1.304-5.298-1.006-9.497-.662-1.629 1.139-2.25 4.942-3.66 6.536zm9.365-57.391c.932-2.325 3.388.332 3.572 1.057-.831.852-1.694 1.385-2.596 1.595-1.287-.284-.201-2.042-.976-2.652zm254.79-67.108c1.609.232 3.461 1.058 4.514-.128 2.507 2.656-1.47 3.196-4.514.128zM-100.209 204.2c-1.326 3.717-2.385 2.722-.378-.148-.839-2.294-.657-5.066.388-7.017 1.105-1.95 3.048-3.054 5.634-2.079-.177 4.458-3.116 7.938-5.644 9.244zm232.051-99.99c-1.948-2.739-.132-3.79 2.843-3.408 2.889.446 6.893 2.366 9.143 5.078-2.444 2.15-9.833-4.323-11.986-1.67zm84.739 88.753c1.393 1.309 2.794 1.839 4.164 2.875 1.362 1.036 2.668 2.607 3.668 6.039-1.772.741-3.062-1.53-4.671-1.676-1.249.667-1.491 2.042-2.259 3.045-1.147-.134-2.039-1.75-3.126-2.187-.308-3.4 1.661-5.357 2.224-8.096zm19.276 102.949c.275 1.63.756 3.764.594 5.638-.114 1.875-.631 3.49-1.993 4.049-1.29-.112-1.875-1.054-2.041-2.488-.189-1.435.149-3.361.388-5.487 1.427.363 1.701-1.873 3.052-1.712zm-6.338-2.101c.234-2.629.809-4.515 1.482-6.214.651-1.697 1.296-3.2 1.821-5.043 1.635.446 3.377 1.701 4.291 3.563.948 1.852.825 4.337-.966 7.017-2.098-1.837-3.615-.144-4.743 2.253-1.014-.015-1.138-1.205-1.885-1.576zm-341.51-47.849c1.364.23.729 2.477.382 4.505-2.652 1.108-2.739-4.873-.382-4.505zm.147 10.81c.642 1.216.637 3.056.493 5.258-1.305-.769-2.3-1.945-3.777-2.494.396-2.502 2.413-1.351 3.284-2.764zm292.891-118.433c1.127 1.534 1.195 2.763 2.254 4.273-1.929.125-1.897-3.249-4.627-3.851.545-1.316 1.616-.099 2.373-.422zM8.022 93.891c3.563-.528 3.854 2.37 1.568 4.207-4.031 1.47-4.232-2.933-1.568-4.207zm220.446 177.262c-.357-2.831.579-3.708 1.041-5.314 2.494 1.689 6.212 5.018 5.559 9.955-2.973-.194-4.039-3.755-6.6-4.641zm-37.903-117.41c1.886 1.716 3.636 3.842 5.44 6.559-.952 1.563-2.917.212-4.322-1.662-1.371-1.896-2.422-4.22-1.118-4.897zM45.179 96.091c.526 1.58.101 2.74-1.01 3.573-1.113.839-2.928 1.306-5.19 1.811.057-3.267-2.48-4.681-5.46-5.936-2.96-1.25-6.365-2.39-7.722-5.096 3.836-.79 6.496-.234 9.111.173.463 1.93 1.203 3.629 2.723 4.642.761.506 1.717.843 2.94.954 1.237.177 2.744.156 4.608-.12zm171.115 111.78c1.536-1.217 2.519.182 3.863-.09l.214 5.45c-1.767-.401-3.846-2.772-4.077-5.36zm5.102 21.174c.381 8.349 7.434 2.998 6.681 11.11-1.977.055-3.112-2.292-5.071-2.289-1.029.669-1.151 2.203-1.585 3.491-.454 1.297-1.15 2.314-3.141 1.935-.422-2.09-1.584-2.722-1.921-5.298 4.152 1.297.825-8.649 5.037-8.949zm-326.49 29.408c-3.6-.25-3.979-3.201-2.799-6.21 1.176-3.007 3.939-5.981 6.363-6.595 1.088-2.339 2.304-4.467 4.064-5.125.413 2.5 1.855 4.046 3.344 5.526-.75 2.681-2.548 3.092-2.951 6.494-.101 1.201.859 1.337 1.287 2.007 3.708-.162 3.892-7.982 7.215-9.014 1.316.447.568 2.706 1.278 3.716l3.59.754c-2.017 4.451-5.356 6.012-8.237 8.712-1.829-.035-1.872-1.886-2.841-2.816-1.663-.91-1.64 1.73-3.096 1.263.159-3.875-2.079-5.189-3.681-7.28-1.501-.087-2.206 1.667-3.05 3.092-.942 2.64.89 3.828-.486 5.476zM104.862 95.602c2.312.77 3.747 1.737 4.836 2.766 1.063 1.07 1.773 2.223 2.695 3.321 2.539.992 3.216-.427 4.275-1.365 1.562 1.032 3.02 2.027 4.361 3.136 1.339 1.113 2.655 2.228 4.077 3.334-3.106.967-6.197.102-9.774-1.109-3.527-1.269-7.289-3.255-11.524-4.431-1.674-1.919.042-3.902 1.054-5.652zm106.9 96.76c1.126 1.783 1.071 2.808 1.579 4.231-1.878.266-3.591-.929-5.074-3.958 1.204-.413 2.356-.425 3.495-.273zM42.274 90.26c2.2-.406 1.68 1.147 2.432 1.777-2.763.825-2.275-.712-2.432-1.777zm185.573 158.584c1.347 2.186 1.35 4.169.73 5.443-.611 1.278-1.851 1.854-3.156 1.402-.409-3.959-.106-6.605 2.426-6.845zM-96.465 223.05c-1.58-1.192-2.932-2.587-1.418-6.159 1.128 1.418 4 3.24 1.418 6.159zm264.259-79.049c-1.648-2.176-4.45-4.645-5.794-6.686 1.713-.607 4.069-.191 6.46.802 2.375 1 4.804 2.561 6.394 4.315-2.083 1.623-5.335-1.66-7.06 1.569zm43.203 56.43c.906.078 1.654 1.122 2.358 2.442-.162.855-1.052 1.21-2.009 1.514-1.064-1.957.728-1.98-.349-3.956zM9.012 105.724c-.072-3.589 1.98-3.692 2.973-2.824.993.869 1.002 2.659-2.973 2.824zm-62.381 44.115c-.947-.803-.284-2.072-.535-3.083 1.41-.81 2.733-1.051 3.82.038-.305 1.667-2.149 2.349-3.285 3.045zm262.647 61.383c1.999-.567 1.719-4.405 3.895-3.501.876 3.036-.463 4.512.656 7.779-1.873-.023-3.387-1.422-4.551-4.278zm-264.132-42.769c-.53 1.5-.825 2.909-.411 4.064-3.018.682-4.076 4.155-6.557 6.845-1.203-2.03-2.875-3.883-4.026-5.973-1.12-2.08-1.841-4.455-.776-7.424 1.246-2.312 2.337-1.225 3.513-2.101.778-1.025 1.194-1.925 1.7-2.834.521-.9 1.1-1.822 2.145-2.897-1.44 4.438-.209 8.024 4.412 10.32zm261.131 33.37c.899.583 2.124 3.485 1.916 4.541-2.025-.409-4.246-.58-5.59.349.908-1.813.709-4.37 3.674-4.89zm2.952 16.555c1.574-.284 2.982 1.355 3.756 3.648.814 2.277 1.214 5.095 1.202 6.984l-2.355.635c-1.872-4.9-3.371-7.466-2.603-11.267zm-18.487-35.113c-2.367-.218-4.56-4.527-6.849-6.202.938-1.755-.154-3.709 1.347-4.524 4.335-2.361 7.714 7.328 5.502 10.726zm-62.767-63.49c-1.377-.836-1.851-1.728-1.43-2.685 1.348-.083 2.765 1.61 1.43 2.685zm-9.681-6.313c.699.729 2.101 1.373 1.043 2.31l-1.723-.832.68-1.478zm93.856 135.214c1.938.097 2.863 2.414 5.214 1.673.361 2.014.567 4.067.764 6.124-1.818.313-2.69-1.172-3.389-2.967-.766-1.784-1.425-3.88-2.589-4.83zM4.217 113.964c1.245 1.497-5.131 5.154-6.046 3.283 1.374-.57 2.294-1.119 3.168-1.664.87-.554 1.69-1.117 2.878-1.619zm198.41 95.97c1.288-.637 2.02 1.365 3.197 1.313-.427 1.084-1.178 1.951-2.054 2.708-.663-.502-1.135-1.811-1.669-3.169.474-.089.621-.392.526-.852zm8.246 33.501c-1.523-.76-1.537-3.815.439-3.743.849 2.198-.489 2.272-.439 3.743zm-2.745-13.407c.039 2.304-.155 4.578-.908 6.327-1.004-.338-1.382-1.624-1.538-3.038-.211-1.396-.183-2.93-.236-3.768 1.104-.47 1.572.94 2.682.479zm.721 50.29c.062 1.541-.24 2.512-1.304 2.278-.058-1.523.234-2.493 1.304-2.278zM-40.506 160.549c1.16.991-.45 2.607-1.43 4.085-.01-1.239.033-2.501 1.43-4.085zm-42.287 89.086c.637-2.149 3.96.079 2.866 2.263-1.397-.359-1.474-1.887-2.866-2.263zm50.129-87.98c-1.268.939-2.398 1.704-3.596 2.715-2.42-1.167.571-3.516-1.82-4.713.96-1.503 1.678-.732 2.679-2.198 1.571 1.617 1.484 3.377 2.737 4.196zm99.03-41.023c1.72.888-.975 1.707-.696 2.814-2.153.075-2.254-1.207-3.882-1.349 1.218-.846 3.755-.437 4.578-1.465zm97.737 184.534c-.417-.925-1.111-1.666-.467-3.226 3.274.542 7.63 1.716 5.06 5.009 4.714 1.748 6.828 1.013 10.175 2.95.462-1.402-.376-3.192 1.23-3.234 1.984 1.809 3.983-.095 5.521 1.437.254 2.049-2.65 2.929-.877 3.5 3.746.704 8.169 3.132 11.495 2.744-.914-4.169-3.426-7.466-5.442-10.85-1.079-1.708-2.078-3.448-2.686-5.347a13.349 13.349 0 01-.611-2.996c-.089-1.055-.035-2.168.043-3.386.798-.117 1.129-.968 2.128-.768 1.319.492 1.094 2.661.577 4.808.945.164 1.342-.71 2.506-.146 1.16-1.541-1.91-3.398-.089-5.898 1.593.205 3.795.68 5.574 1.839 1.753 1.153 3.213 3.032 2.876 5.914-.32 3.125-2.885 1.618-2.973 5.184.429 2.623 1.576 4.347 2.825 6.135 1.227 1.783 2.448 3.611 2.617 6.378 2.718-2.607 7.611.76 10.255-2.373.314-1.82.574-3.738.94-5.213.369-1.474 1.02-2.487 2.38-2.46 2.124.584.583 5.126 3.15 5.223.821-4.446 2.879-4.553 2.541-9.455-2.711 1.018-5.434 1.938-7.988 3.166-.557-3.094-3.595-3.441-2.796-7.939 2.264-.649 4.366 1.326 5.576-2.392.252-2.49-1.884-2.014-1.11-5.128.264-2.66 2.277-2.123 2.378-4.827-1.295-3.075-.974-10.042 3.117-8.104-.175-4.444 1.728-2.854 3.199-3.852-.43-3.084-1.161-6.42-2.423-8.591-1.347-2.161-3.116-3.15-5.41-1.769-.277 2.248.12 3.472.675 4.677.562 1.203 1.27 2.385 1.418 4.527-.383.836-.316 2.327-1.149 2.504-2.136.387-3.452-.52-3.757-3 .252-1.642.771-3.652.821-5.384.044-1.729-.508-3.148-2.125-3.604-.037 2.697-.32 5.429-2.481 5.538-.759-.7-1.196-1.796-1.669-3.014-.466-1.22-.85-2.578-1.294-3.828-.889-2.501-2.017-4.543-4.506-4.125-1.836.622-1.523 3.6-4.176 3.277.118 1.755.811 4.163-.846 3.928-2.246-1.566-.687-6.294-4.279-6.071-.496.897-.835 1.954-1.809 2.334-3.258-1.262-2.862-9.269-2.353-12.879 3.756.344 2.274 6.461 5.652 6.564 3.992.205 1.324-10.946 7.05-7.346.943 1.07.951 4.058 1.411 6.101 1.541-.607 1.857 1.263 3.405.669-.257-3.002-.667-5.545-.917-7.963-.319-2.402-.559-4.66-.301-7.202-1.587-1.996-4.124-1.568-6.306-1.995.155 2.838-2.241 7.721-4.919 4.066-.747-1.891.211-2.464-.648-4.33-2.153-1.95-5.046-3.291-4.39-7.731-1.41-1.67-3.482-1.236-4.269-4.729-.086-1.079.548-1.709 1.378-2.214 1.283 1.661 3.464 4.06 5.552 5.225 2.08 1.155 4.085 1.086 4.91-2.519.766-1.187-1.945-.327-1.9-2.926-.781-1.606 1.831-.883.77-2.692-.953-1.457-4.121-5.505-2.961-7.362 3.405 1.15 4.645-2.891 6.799-4.829-1.198-2.534-1.491-4.304-1.565-6.03-.081-1.719-.002-3.357-.711-5.45.624-.818 3.314-.464 1.993-2.393-1.531-.304-3.128-.667-4.548-2.375-.412-1.086.025-1.745-.77-3.026-1.256.266-2.403-.831-3.64-.656 3.162 4.897-.526 7.733-2.766 10.88-.774-3.108-2.812-4.548-4.466-7.952-1.711-.74-3.51-.739-5.319-.054.241.812.461 1.711.58 2.618.092.922.098 1.841-.029 2.66-.253 1.642-1.048 2.876-2.742 3.006-.564-1.303-.779-2.46-.79-3.536-.043-1.057.11-2.028.336-2.986.449-1.913 1.158-3.745.939-5.956 1.245-.863 2.458-.934 3.677-1.05-.828-.905-1.803-2.125-2.691-3.386-.93-1.234-1.739-2.535-2.121-3.686 1.088-2.432 2.878-4.652 4.541-6.932-.543-.631-1.543-1.273-2.329-1.952-.805-.668-1.358-1.405-.934-2.317 3.35-.179 8.03 1.811 8.281-3.344-2.746-3.706-6.316-8.262-7.72-12.43-4.1-3.643-8.338.206-10.342 1.963 2.797 2.74 4.785.057 7.646 2.953.44 2.443-3.039 1.031-2.751 2.42 1.253 1.251 2.013 2.352 2.462 3.241.453.888.583 1.572.464 2.079-.235 1.018-1.46 1.332-3.085 1.204-3.193-.325-8.217-2.1-10.352-4.159-1.464-2.577 1.209-4.347 1.022-6.637-4.163-1.609-8.302-5.278-9.273-9.292 1.389-.472 2.767-1.013 3.877-2.563-.939-1.837-1.405-3.621-3.369-5.602-2.577-.056-4.896 1.171-8.372-1.379-.095-1.713 2.011-3.29 2.168-5.005 1.216-1.293 3.721.861 5.017-.272-1.62-1.413-1.565-2.684-4.141-4.178-2.139-.374-4.159-.013-6.261-.152-2.141-.106-4.378-.695-7.388-2.599-1.679.052-.319 1.737-1.694 2.781-2.462.209-5.602-.986-8.699-2.08-3.144-1.028-6.343-1.825-8.531-1.151-2.991-1.734-4.401-3.429-4.448-5.217-.061-1.756 1.179-3.457 3.305-4.679-4.557-2.318-7.06-1.856-9.241-.92-2.213.976-4.082 2.315-7.482 1.79-2.598-2.007 1.597-4.634 1.011-5.664-1.05.196-2.324.313-3.723.289-1.399-.026-2.867-.309-4.248-1.125-.993-1.133.232-3.013.358-4.528 6.988.85 10.289-8.665 4.253-11.984-6.206-1.093-3.439 5.832-6.767 7.231 2.428.535 4.707 3.574 1.36 3.651-3.364-.234-1.906-2.151-4.403-2.601-1.914 2.26-3.016 5.169-5.908 6.511-3.302-.323-4.088-1.177-4.514-2.17-.424-1-.473-2.095-2.364-2.79 1.123-1.23 2.837-2.056 2.534-4.309-3.827-1.79-6.41-2.358-8.842-2.283-2.432.019-4.767.926-8.204 1.995 1.658 3.205 1.568 4.13.79 6.515 2.22-.065 3.955.121 5.167.731 1.215.614 1.918 1.497 2.13 2.642a5.308 5.308 0 01-2.748.591 6.703 6.703 0 01-2.62-.534c-1.617-.678-2.916-1.891-3.272-2.997a22.018 22.018 0 00-4.76.88c-1.373.453-2.577 1.07-3.773 1.643-2.389 1.198-4.748 2.273-8.29 3.007-2.03 3.014 1.114 3.036 1.566 5.93-.59 2.009-3.06 3.171-4.763 4.648 1.113 1.99.554 3.877-.65 5.234a6.432 6.432 0 01-2.22 1.594c-.827.418-1.712.683-2.577.701-2.787.061-3.72-2.119-3.09-4.51.315-1.196 1.028-2.443 2.076-3.475 1.033-1.069 2.448-1.786 4.086-1.986.199-3.196 1.413-6.029 3.505-8.581-1.578-.427-.744-3.058-3.198-2.708-1.307-.407-2.26.112-3.281.754-1.023.644-2.124 1.371-3.733 1.606.01-1.712-.474-3.724-1.756-4.809-1.272-1.086-3.389-1.235-6.42.773.855 5.161 5.431 6.204 8.153 9.123-1.236 1.397-2.744.464-4.914 1.407-.17 1.375.213 2.902-2.153 3.616-1.93.216-3.026-.745-3.874-2.059-2.016.877-3.702 1.302-5.239 1.509.349 1.689.117 2.921-.49 3.79-.599.905-1.567 1.484-2.732 1.8-2.322.636-5.446.286-7.758-.367-.85 1.991-2.683 2.856-4.808 3.422-2.116.569-4.55.804-6.344 1.686-1.508-2.069-3.61-2.931-6.492-2.248-.955.842-1.52 1.687-2.19 2.528-.653.868-1.387 1.764-2.72 2.667-1.943-1.751-1.207-4.44.926-7.194 1.075-1.358 2.473-2.756 3.984-4.113 1.509-1.362 3.124-2.692 4.704-3.776.286.207.716.153 1.356-.266 1.858.028 1.322 4.227 3.834 3.056.835-2.335 3.505-4.617 4.531-6.849-.728-1.085-2.243-1.091-3.677-1.034-1.44.041-2.844.018-3.422-1.368-3.024 1.836-5.054 2.064-7.033 2.169-1.962.131-3.831.217-6.484 1.699.801 1.894-.688 3.85-2.866 5.419-2.126 1.651-4.982 2.921-7.1 3.21.507 4.271 3.043 8.322 2.886 12.643-.984 2.362-3.007.956-4.99 2.959.781 2.252-.7 5.186-2.895 7.045-1.097.934-2.377 1.611-3.639 1.83-1.225.248-2.45.029-3.462-.9 1.14-1.273 2.376-2.521 3.305-3.836.93-1.313 1.572-2.678 1.643-4.092-1.088-.269-4.413-.716-2.691-3.07 1.953-2.141 3.284-1.907 4.846-2.513.24-1.658 1.065-3.405.315-4.961-3.211.677-6.607 1.538-9.233.719-1.901 1.454-2.798 2.727-3.861 4.024 1.084 2.476 3.687-.03 4.813 2.248-.131 2.272-3.819 5.225-3.13 7.395 3.522 2.535 5.166 7.631 1.752 11.593-1.324 1.623-3.426 2.481-5.473 3.659-1.01.595-2.034 1.252-2.842 2.153a8.036 8.036 0 00-1.808 3.46c3.764.312 5.37 3.504 5.595 6.736a34.183 34.183 0 004.04-4.342 31.798 31.798 0 002.954-4.137c1.606-2.769 2.87-5.38 4.201-7.915 1.145.499 2.232 3.598 3.508 5.161 1.166-1.305 1.166-4.624 3.434-4.003-.01 2.825.672 4.509 3.57 6.205-1.884 3.759-.272 6.012 1.666 8.136 1.951 2.116 4.2 4.115 3.99 7.057-2.243 1.032-4.817-.269-5.21-2.727-3.473-.183-8.955 2.649-10.308-1.89-1.51 1.263-2.927 1.906-4.432 3.549 2.279-.306 2.595 1.38 4.5 2.86-1.438 3.004-1.364 7.599-4.765 8.454-.735-.204-2.573-1.476-3.011-2.098-.054-1.006 1.335-2.476 2.216-3.782-.834-1.284-1.233-2.737-1.462-4.213-.22-1.469-.314-2.986-.644-4.446-1.216.291-2.476 1.147-3.655 2.361-1.157 1.227-2.294 2.777-3.403 4.385-1.141 1.594-2.108 3.314-3.118 4.812-.988 1.508-2.014 2.798-2.968 3.682-4.052 1.463-6.8-2.557-8.29-4.409-2.16.84-4.371 3.122-6.342 6.064-2.191.545-4.385 1.331-6.752.505-2.073 1.373-3.966 3.419-5.872 5.549-1.94 2.125-3.73 4.36-5.636 6.126.113 1.419-.172 3.079.998 3.809 1.964.082 3.173-4.314 5.213-3.732 1.188 1.552 1.049 3.832-.412 7.074 2.736-.292 3.657-5.609 4.883-8.996 1.617-.692 3.135-1.952 4.984-.906.549-2.597 3.06-8.177 5.17-7.33.225 3.386-1.441 6.146-3.187 9.069-1.828 2.889-3.679 5.955-4.042 9.557 1.388.579 2.472 1.34 1.759 3.228-1.335 1.499-2.806 2.604-4.012 4.553.119 2.205.402 5.937-1.171 8.051-2.887-3.478-6.949-2.143-8.928 3.724 1.013 2.884 4.082 3.251 6.937 3.836 2.861.577 5.502 1.354 5.804 4.729-1.15 1.82-2.963 1.999-3.816 4.633 1.485 1.487 1.62 4.044 3.287 5.339 2.195-4.507 5.312-6.542 9.226-4.722.283-2.399 1.43-2.665 2.078-4.277-1.043-1.358-2.525-2.419-2.43-4.601 3.562.421 5.096-2.257 4.983-4.849-.055-2.564-1.747-5.128-4.912-4.153-.038 2.468 1.95 5.683-.849 8.752-2.51-1.815-5.056-3.778-5.032-6.808.194-7.646 5.103-6.561 9.7-7.369 1.447 1.525 1.755 3.703 2.642 5.574.849-1.545 1.989-2.268 3.584-1.399-.342 1.168-.078 2.036-.887 3.516.634 1.237 3.068 1.382 2.187 3.509-1.106 1.197-2.502 1.45-3.786 2.135-1.258.688-2.442 1.813-2.799 4.803.218 2.068 1.987 2.989 1.815 5.334-1.15 1.634-1.654 4.719-2.33 7.247-.972.164-1.805.659-3.02.317-.343 2.251-1.193 3.421-2.221 4.252-2.806-.725-2.871-3.726-5.147-4.937-.253 2.373 1.24 4.299 2.326 6.254 1.058 1.957 1.68 3.916-.37 6.544-2.408-.276-2.646-2.522-3.835-3.932-1.88 1.051-3.305 3.07-5.889 2.781-.934 2.257-1.266 4.346-.047 5.595-.757.792-1.513 1.591-2.085 2.741-.573 1.167-.945 2.638-.882 5.1.843.027 1.622.144 2.295.402.337.129.646.291.924.497.14.099.268.222.393.332.127.074.245.155.356.244l15.025 1.209c.507-1.269 3.287-1.073 4.098-.16l-.037.487 11.372.915c.25-.615.27-.888.21-1.423-.067-.483-.244-.981-.412-1.539-.352-1.099-.705-2.376-.27-3.882.47-.033.705-.418.94-.794 3.233.074 2.631 3.326 5.695 3.488.32.989.29 2.027-.023 2.844-.151.4-.381.781-.655 1.017-.14.125-.295.236-.464.324a2.08 2.08 0 01-.556.325c22.477 1.81 44.946 3.617 67.417 5.427.024-.598.367-3.331.812-5.758a104.63 104.63 0 011.674-7.783c1.288-5.254 2.995-10.336 4.88-14.963 1.892-4.633 4.005-8.811 6.214-12.384 2.22-3.566 4.511-6.537 6.797-8.989 4.627-4.888 9.062-7.742 15.145-10.239.771-.248 1.631-.614 2.292-.866a3.077 3.077 0 001.079-.281c.173-.122.336-.087.494-.095.159-.009.312-.036.464-.081.151-.017.3-.17.449-.125.147.021.29.023.431.008 1.14-.098 2.213-.173 3.722.113 1.499.331 3.415.928 5.707 2.012 2.278 1.09 4.945 2.597 7.639 4.837 2.704 2.181 5.471 4.842 8.106 7.871 2.625 3.055 4.977 6.567 7.1 10.188.479.937 1.094 1.804 1.53 2.76.438.954.902 1.895 1.392 2.824.762 1.933 1.696 3.812 2.282 5.758 1.333 3.843 2.414 7.694 2.859 11.368.48 3.668.748 7.198.521 10.468a55.562 55.562 0 01-1.534 9.248c10.778 3.059 21.798 6.303 32.732 9.527 10.934 3.203 21.788 6.386 32.357 8.89zm43.77-11.955c.005 3.258-2.112 2.604-2.431 5.576-.405 2.811 1.573 4.177 3.069 5.696.748.757 1.375 1.55 1.518 2.57.13 1.014-.313 2.247-1.59 3.852-1.073-.58-1.809-1.461-2.348-2.508-.533-1.046-.873-2.26-1.255-3.535-.712-2.543-1.212-5.269-2.514-7.156.119-.986.412-1.9.743-2.692.317-.793.742-1.457 1.24-1.925.994-.937 2.282-1.102 3.568.122zM-42.376 268.91c-.125.347.1.423.342.481l-.12.847c-.335-.127-.404.108-.458.361l-.808-.109c.119-.349-.107-.42-.35-.475l.122-.855c.333.126.403-.111.466-.368l.806.118zm-31.065-1.393l1.62.206c.457.73.262 2.511-.36 3.126-1.291-.203-1.665-1.4-1.26-3.332zm16.754.719c-.193 2.701-.954 4.402-2.62 4.899-.668.071-.655-.511-1.17-.591-.268-1.541.62-3.901.363-6.239 2.055-.152 2.647.98 3.427 1.931zm-.296-12.613c1.55-.022 1.551 1.155 3.097 1.133 1.579-.719 1.885-3.843 4.08-3.423.49 3.404-.985 8.766-4.656 8.587-2.08-.078-6.129-3.788-2.52-6.297zm5.866 11.081c-1.343-.123-1.637-2.163-.771-2.917 1.373.125 1.796 2.023.771 2.917zm24.447-4.711c-.002 1.539-1.699.546-2.002 1.653-.654 1.952 1.106 2.256.953 3.847-.962.436-1.253 1.801-2.732 1.568-.475-2.234-2.197-3.607-2.702-5.873.218-1.451 1.623-1.072 2.095-2.119-.875-1.062-2.536-3.494.009-3.831.797 2.042 3.981 2.492 4.38 4.755zm-12.916-7.65c-.363 2.948-2.19 3.392-3.214 5.164-1.789-.929-3.695-1.789-5.222-2.94l.296-1.338c2.057-.716 4.614-.421 5.684-2.847 1.141.441 1.83 1.178 2.456 1.961zm-6.48-14.9c-1.065 2.294-3.484.01-3.889-1.217-1.188.069-1.829 1.376-2.244 2.948-.378 1.585-.517 3.429-.779 4.585-1.349.532-2.122 2.225-4.145 1.402-.43 2.467-1.272 3.97-2.716 4.356-3.531-2.69-4.127-9.809-.96-14.061 2.984.771 3.9 2.917 2.83 6.462 2.765-2.892 4.085-9.374 7.548-10.853 2.993 1.251 3.252 4.022 4.354 6.378zm18.676.586c-.915.469-2.64-.317-2.562-1.338.548-.648 1.078-1.432 1.862-1.576 1.22.508 1.33 1.482.7 2.914zm-10.399-3.603c-.567.2-1.224.204-2.074-.243-.367-.898.523-3.346 1.355-3.819 1.652.639 1.311 2.227.72 4.062zm17.471-62.302c.906-.85 1.75-.931 2.532-.247-.17.88-.376 2.228-1.722 2.343-.804-.65-.401-1.417-.81-2.096zm-14.738 53.828c-2.896-.263-3.653-3.042-1.64-4.579 1.597 1.039 3.115 2.101 1.64 4.579zm4.826-8c-.087 1.384-.652 2.682-1.826 3.029-3.543-.822-.613-4.979 1.826-3.029zm-32.424-12.456c-2.32.901-4.214 4.345-5.484 2.302 1.095-5.115 3.447-9.551 4.556-14.322.486-2.019.16-4.292.301-6.324.19-2.008.83-3.782 3.1-4.697 2.955 2 3.696 4.894 2.532 8.594-.785-.177-1.452.539-2.3-.023-.14 1.636-1.865 4.022-1.517 5.418a24.293 24.293 0 016.408 2.711c-.21 3.352-1.057 4.549-2.428 5.106-1.361.558-3.2.462-5.168 1.235zm12.017-13.531c.594.583.451 1.784.012 3.009-.427 1.232-1.2 2.471-1.998 3.09-2.09-.359-2.437-2.347-1.833-4.044.574-1.708 2.224-3.013 3.82-2.055zm10.969 4.687c2.88 2.184-.738 4.336-2.525 6.986-2.183-1.076-1.919-2.459-.94-3.765.966-1.316 2.764-2.452 3.465-3.221zm8.177 6.999c-2.745.871-4.178-2.683-1.16-4.451 1.564.243 3.097 2.169 1.16 4.451zm-9.676-8.47c-.958-.87-1.965-2.37-2.235-3.892-.268-1.514.282-3.015 2.254-3.828 1.684.665 2.468 2.262 2.44 3.829-.056 1.56-.855 3.144-2.459 3.891zm17.878 2.978c-1.422-2.193 1.259-4.407 3.35-4.103.958.805.581 2.202-.27 3.198-.86.989-2.11 1.686-3.08.905zm8.045-2.25c-.837-.556-1.62-1.121-1.711-1.81 1.504-1.466 3.195-1.804 4.982-.421-1.018 1.458-2.174 1.778-3.271 2.231zm-12.58-11.147c.094-1.65 2.236-2.265 3.3-3.488-.408-.67-.33-1.733.133-2.619.485-.865 1.328-1.566 2.343-1.558 1.517 1.25.191 2.878 2.446 4.003-1.734.61-2.854 1.905-4.056 2.794-1.191.903-2.403 1.471-4.166.868zm11.591-2.547c-1.913-.129-2.365-1.549-1.935-2.89.435-1.325 1.684-2.596 3.177-2.15 1.122.762 1.248 1.733.93 2.7-.328.958-1.175 1.847-2.172 2.34zm19.326 7.426c-.694.985-1.45.64-2.178 1.041-1.212-.948-.265-2.72 1.012-2.774.747.593 1.052 1.169 1.166 1.733zm-15.141-9.062c.598-1.922 3.466-4.11 4.891-3.213 2.504 2.724-2.6 6.555-4.891 3.213zm-17.664-35.113c-1.254 1.458-2.216 1.629-3.33 2.471-.623-3.023-2.819-3.87-2.926-6.714 3.16-1.635 7.234 1.469 6.256 4.243zm24.2 14.858c-2.108 1.095-3.68-.649-5.612-.724-.736-1.361-.637-2.731-.086-4.116 2.006.593 5.039 2.996 5.699 4.84zm-16.767-16.89c-2.571.119-2.825-1.672-1.915-3.371.91-1.683 2.93-3.281 4.735-2.495 1.103 1.831-.112 3.825-2.82 5.866zM6.12 130.592c.26.689.993.456 1.219 1.215-.844 1.568-2.964 1.644-3.845 1.084-.426-.954 1.304-1.601 2.626-2.299zm-14.897-.625c1.236-.766 2.337-1.222 3.316-1.427a5.301 5.301 0 012.66.159c1.57.513 2.763 1.738 3.84 3.185-.575 1.381-2.952 2.452-3.664 3.888 1.5 1.92 1.376 3.683-1.427 5.187-1.846-.511-1.946-2.376-2.072-4.407-.136-2.025-.287-4.222-2.524-5.23-2.646-.408-6.335 1.517-8.23-.567 1.011-2.157 2.677-2.723 4.196-2.637 1.54.107 3.002.961 3.905 1.849zm12.68 21.907l-1.27.78c-.635-.612-.282-1.095-.437-1.647.802-.38 1.342.004 1.707.867zm-3.105 6.861c-1.284.836-2.262.459-2.982-.896.852-.756 1.572-1.027 2.226-1.067.656.69.813 1.341.756 1.963zm-12.399-13.229c-1.856-1.304-1.197-2.919.244-4.102a7.495 7.495 0 012.49-1.331c.889-.226 1.736-.241 2.307.027 1.015.731-.089 1.299.636 2.012-1.172 1.13-3.706 2.482-5.677 3.394zm25.125 26.798c-1.171-2.433-.644-6.029 2.828-6.516 1.115 2.711.17 4.896-2.828 6.516zm1.313-25.084c.51 1.159 1.905.419 2.124 2.18-1.497 1.703-.716 4.103-3.573 5.499-2.287-1.715-3.998-4.107-3.802-6.454.097-1.173.673-2.336 1.867-3.384 1.17-1.091 3.044-1.899 5.63-2.423 2.014 2.295-1.139 3.17-2.247 4.582zm-3.564-20.314c-1.076-.783-.809-1.54-.626-2.85 1.419-.632 2.583-.868 3.499-.653.921.234 1.576.864 1.973 1.881-1.56 1.354-2.841.998-4.846 1.622zm18.443 27.718c-2.875-4.152 3.966-5.004 4.858-2.203-.149 1.683-3.3 2.824-4.858 2.203zm-2.657-21.641c-.83-1.069-.089-1.655.364-2.272 1.368.186 3.385-.514 3.715 1.052-.568.802-3.185 1.501-4.079 1.22zm4.878-2.304c-1.76-3.519 4.9-5.699 6.07-2.413-.208.819-1.239 1.3-2.416 1.784-1.188.445-2.592.676-3.654.629zM43.299 150.1c-1.46-.01-2.54-.576-2.782-2.354 1.817-.544 3.559.887 2.782 2.354zm98.859-16.891c-1.743-.072-3.925-1.134-5.516-2.58-1.592-1.441-2.641-3.246-2.173-4.638 1.131-1.099 4.118.029 6.302 1.783 2.227 1.718 3.398 4.195 1.387 5.435zm-12.954-5.669c.45 1.552.113 2.073-1.465 2.446-1.586-1.002-2.929-2.016-2.284-3.199.571-1.125 2.184-.143 3.749.753zm-10.314-2.462c-.102 1.384-.819 2.486-1.845 3.636l-2.612-1.275c-.58-2.054 1.491-4.343 4.457-2.361zm-10.286-.316c1.983.093 3.296 1.146 4.145 2.368.852 1.225 1.224 2.656 1.295 3.741-1.726-.053-2.394-.913-3.059-1.926-.658-1.018-1.313-2.188-3.015-2.682l.634-1.501zm-23.184-9.456c1.496.394 2.16 1.107 1.998 2.135-.592.19-1.406.125-2.413-.138-.63-.695-.446-1.65.415-1.997zm-32.928-5.195c1.984-.526.94 1.286 2.56 1.095 1.256-1.085-1.474-1.478-.139-2.848 1.904-.573 2.925-1.707 6.358-1.345.373 2.416-2.073 3.044-3.734 4.137.125.331.63.399.636.807 1.762.315 3.99.061 5.97.208 1.971.204 3.688.659 4.351 2.06-.34.308-.669.622-.676 1.183-1.696.112-2.888.084-4.032.137-1.145.094-2.249.331-3.726.867-1.444-.551-2.632-1.296-4.015-1.912a12.984 12.984 0 00-2.273-.787c-.84-.18-1.78-.22-2.874-.166-1.094-2.005 1.292-2.162 1.594-3.436zm-10.305 19.835c2.23-.871 3.015 1.273 2.48 2.015-2.151.848-3.007-1.274-2.48-2.015zm4.268 18.29c-.27-1.17.53-2.518 1.647-3.252 1.123-.645 2.534-.699 3.292.508 0 .99-.7 1.852-1.656 2.353-.965.455-2.172.72-3.283.391zm5.916-6.539c-2.228.011-2.556-2.074-4.14-2.85-.704-3.304 4.505-3.953 6.134-1.872-.28 1.87-1.08 3.359-1.994 4.722zm5.23 3.323c-2.893-.06-2.067-3.739 1.269-2.879.136 1.449-.252 2.453-1.268 2.879zm9.316.585c-1.326-.598-1.493-2.189-.262-2.88 1.6.434 1.441 2.195.262 2.88zm3.18-10.014l-1.982-.133c-.143-.859.42-1.049.628-1.59.71.403 1.915.456 1.354 1.723zm2.276 12.63c-1.344-2.384.532-4.291.88-6.469 2.439.277 3.341 1.509 4.249 2.696-.675 2.631-1.947 4.46-5.13 3.773zm1.523 11.354c.251-1.145.248-2.661.96-3.158 2.015.09 2.236 1.515 2.2 2.991-.417.442-.928.713-1.471.746a1.96 1.96 0 01-.834-.135 2.487 2.487 0 01-.855-.444zm7.822-31.737c-.215-1.881 2.061-.894 2.177-2.425-1.044-.973-1.895-2.13-3.453-2.781-2.29.704-5.157.808-7.563 1.336-2.422.626-4.36 1.761-4.743 4.138-1.3-.013-2.426-.287-3.47-.661-.521-.184-1.02-.407-1.51-.61-.492-.183-.97-.362-1.441-.536-1.891-.683-3.749-1.131-5.923-.008.476 1.402 1.727 2.132.706 3.656-.873.039-1.748-.015-2.613.109-1.075-1.711-2.73-4.384-1.594-6.807-1.188-1.705-4.041-1.99-4.46-4.46 1.32-1.535 3.218-.728 5.23-.539.214 1.351 2.095 2.791.846 4.016 2.248.189 2.214-1.135 4.485-.92.975-.939 1.317-2.323 2.264-3.311.887-.198 1.72-.293 2.505-.313.785-.007 1.52.129 2.22.27 1.402.302 2.66.781 3.886 1.225 1.227.45 2.427.838 3.729 1.029 1.293.256 2.693.273 4.376-.141 1.825.075 2.255.854 2.647 1.637 2.402-.201 4.078-.821 5.15-2.308 2.977 1.577 6.188 3.02 4.337 6.458-1.365.11-2.091.949-4.08.297.318 2.34-1.95 3.361-3.708 1.649zm7.62 20.156c-2.009-1.198-3.156-2.865-3.955-4.651 1.69-2.094 3.651-3.75 5.297-6.043 2.654 2.277 2.556 5.529 2.231 8.83-.855 1.222-2.487 1.105-3.573 1.864zm5.026-17.225c.455-3.381 5.19-1.045 4.112 1.352-.928.253-3.545-.527-4.112-1.352zm4.825-7.447c-1.87-.931-3.052-2.076-3.845-3.36-1.678.307-2.642.126-3.658-.25-1.018-.365-2.048-1.014-3.783-1.739 1.786-2.419 3.742-2.089 6.024-.862 2.277 1.275 4.934 3.2 8.567 3.891.702 2.085-1.598 1.974-3.305 2.32zm.77 34.244l-1.58-.772c-.33-.822.515-2.718 1.363-2.966 2.241.582 1.626 3.078.218 3.738zm7.187-17.36c-1.095.052-2.64.158-4.188.051-1.542-.128-3-.652-3.895-2.197.41-1.832 1.859-1.891 2.808-2.829 1.981.591 2.149 1.586 4.241 2.214 1.381-2.001 3.546-1.948 5.704-.953 1.069.508 2.16 1.201 3.084 2.07.916.885 1.72 1.854 2.331 2.765-1.447.313-2.923.515-4.534.361-1.663-.071-3.465-.482-5.551-1.482zm12.917-6.178l.979.561c3.215 3.124 1.152 6.647 1.02 10.061-2.453-1.457-3.559-3.354-3.729-5.348-.177-1.972.545-3.949 1.73-5.274zm-2.742 17.249c.432-1.678 1.602-1.102 2.557-1.231 1.391 1.313-1.069 2.773-2.557 1.231zm-8.64 21.667c1.046-1.207 3.737-.608 4.318 1.04-.554.826-1.232.822-1.957.465-.733-.345-1.568-.962-2.361-1.505zm26.401-27.202c-1.373-1.316.489-2.097 1.258-2.626 2.267 1.485-.147 2.865-1.258 2.626zm11.033-4.894c-.84 2.334-2.494 3.637-4.732 4.068-1.708-2.198-3.897-2.848-5.92-3.588-2.036-.744-4.028-1.437-5.403-4.08 1.613-2.549 4.251-2.528 6.277-4.142 2.862 2.589 5.147 3.249 7.529 3.674 2.318.474 4.716.731 6.85 3.15-.915 2.629-3.137.254-4.601.918zm-1.666 6.586c2.042-2.648 5.394-.256 8.584 1.523-.955 2.857-4.91 2.849-8.255-.159.044-.444.095-.881-.329-1.364zm-19.406 30.073c-.349-.581-.433-1.174-.793-1.763.982-2.169 3.58-.957 4.036.835-.482.867-1.015 1.062-1.557 1.052-.555.003-1.138-.181-1.686-.124zm5.002-1.485c-.824-1.664-.062-3.099 1.192-3.584 1.229-.466 2.886.161 3.612 2.583-1.494 1.906-3.093 2.465-4.804 1.001zm16.252-9.742c-.207-1.366.622-2.457 1.826-2.722 1.177-.248 2.849.253 3.959 2.245-.384.985-1.297 1.594-2.364 1.707-1.055.095-2.306-.263-3.421-1.23zm9.254-1.512c1.901-2.771 5.215 1.741 2.932 3.225-.981-.19-2.836-2.231-2.932-3.225zm14.716 13.451c-1.171 2.158-.671 4.81-2.765 6.618-1.419-1.506-3.303-5.323-4.048-7.632 2.283-1.107 4.548-1.636 6.813 1.014zm-16.509 12.613c1.34-.439 2.611.341 2.986 2.063-.795.62-1.574 1.165-2.293.991-1.472-1.325-.731-2.098-.693-3.054zm-27.922 24.666c-.62-.74-.226-1.296.723-1.823.3.388.572.8.826 1.223-.624.606-1.029.388-1.549.6zm29.3-16.896c.825.217 1.937 1.959 1.786 2.798-1.945 1.83-4.073-1.782-1.786-2.798zm1.609 8.9c-.233-1.828 1.105-2.626 2.371-2.439 1.263.18 2.463 1.36 1.85 3.302-1.592.556-3.055.501-4.221-.863zm26.703 2.047c.993-.206.375-1.257 1.615-1.333 1.202 1.238 1.614 3.425.026 4.137-.68-.399-1.141-1.571-1.641-2.804zm3.426 24.671c1.546-.589 2.581 3.517 2.167 4.835-1.359.491-2.113-.11-2.555-1.093-.456-.98-.54-2.368-.396-3.52l.784-.222zm-6.002-10.546c2.017-.819 3.003 2.756.642 3.034-1.203-.718-.834-2.109-.642-3.034zm-15.294 10.483c-1.204-1.735.808-2.62 1.857-2.078.777 1.485-.672 1.705-1.857 2.078zm5.628.115c-.436-1.363.215-2.001.24-3.068 2.551-1.729 3.403 1.096 5.193 1.343 1.396-.636.094-2.868 2.466-2.882 1.371.984 1.427 3.773 1.086 4.898-3.002 2.61-6.798 1.247-8.985-.291zm5.484 2.845c1.538-.381 2.318.717 2.596 2.113.31 1.387-.097 3.104-.59 3.897-1.615-.024-3.574.633-4.087-1.468.042-1.946 1.896-2.66 2.081-4.542zm-34.362 13.163c.008-.32-.226-.292-.469-.252-.044-.232-.133-.462-.196-.695.355-.023.329-.234.289-.45l.789-.211c.014.319.255.289.497.247.064.236.153.469.199.706-.349.02-.342.234-.317.456l-.792.199zm15.456-1.768c-.063-1.132.269-2.022.721-2.847.414-.817.938-1.565 1.309-2.419 1.231-.108 2.15.391 3.066.919.905.53 1.739 1.106 2.939 1.109.217 4.668-5.36 5.931-8.035 3.238zm22.274 3.271c.428 1.467-.61 1.67-1.778 1.762l-.307-1.888c.907-.318 1.553-.198 2.085.126zm-20.27 4.752c-.443-1.877.729-2.597 1.479-3.643 2.2-.045 2.718 1.514 2.243 2.742-.474 1.234-1.955 2.094-3.722.901zm-20.318 1.902c.478-.028.702-.199.748-.479 2.257-.119 2.345 2.777-.369 2.838-.649-.366-.881-1.807-.379-2.359zm68.946 10.186c-1.568 7.962 3.525 6.732 6.29 5.822-.099 2.937-1.4 4.129-2.197 6.007-.011 1.544 1.562.925 1.547 2.482.093 3.094-1.217 4.157-2.052 5.923-1.976-2.529-6.361-4.003-9.162-2.54-.59-.929-.984-2.106-1.228-3.4-.23-1.294-.279-2.705-.214-4.104.062-1.4.246-2.787.458-4.028a27.31 27.31 0 01.544-3.126c-1.139-1.339-2.259.666-3.297-1.037-.085-2.534-.353-5.41.524-6.627 2.14.493 5.568 3.754 8.787 4.628zm-13.806 18.121c-.719-.9-1.224-1.927-1.689-3.165-.452-1.238-.721-2.677-.75-4.402 2.283-2.54 4.191-.973 4.895 1.499.351 1.227.401 2.658.047 3.825-.414 1.167-1.235 2.062-2.503 2.243zm-1.933-13.324c.397-.017.295-.647.377-1.055 2.085-.129 3.764.412 3.721 3.18-.775.437-1.756.505-2.554.166-.788-.342-1.41-1.084-1.544-2.291zm2.076-9.078c-1.744.302-2.27-1.293-2.739-2.956 1.447-2.122 3.615 1.36 2.739 2.956zm-3.755-.775c-.664.848-3.245 1.024-4.058.317l-.245-2.512c.282-.46 1.079-.405 1.114-1.129 1.993-.369 3.058.746 3.189 3.324zm-33.433-3.002c.825-.281 1.103.135 1.656.196.132 1.542-1.971 1.706-1.656-.196zm18.909-2.921c.679.523.615 1.983.753 3.224-1.183.584-1.447 2.014-3.51 1.756-.229-1.062-1.486-.7-1.433-2.138 1.459-.865 2.532-2.158 4.19-2.842zm-30.021 6.53c2.039-.108 1.74 2.366 3.9 2.203-.338 1.188-1.733.227-3.172.987-1.083-.651-2.054-2.142-.728-3.19zm40.536.216c.051 1.299-.162 2.456-.632 3.29-.47.834-1.215 1.344-2.38 1.38-.627-1.341-.445-2.493.136-3.325.569-.829 1.626-1.342 2.876-1.345zm-8.633 7.264c-3.004.429-6.555 2.644-9.353.655.409-1.269 2.738-2.873 4.967-3.498 2.229-.622 4.36-.178 4.386 2.843zm-35.784 2.184l-.066-1.698c1.083-.023 2.394-.258 2.47.634.282 1.248-1.163 1.067-2.404 1.064zm12.604 2.584c-.156-1.205.672-1.491.857-2.309a1.417 1.417 0 011.527.95c.199.587.095 1.316-.363 1.786-.948.106-1.558-.101-2.021-.427zm4.951-1.517c-.147-.938.011-1.549.342-2.027 1.324.237 3.384.977 4.605 1.992 1.153 1.004 1.467 2.289-.585 3.393-2.084-.569-1.602-3.531-4.362-3.358zm7.38 8.632c.266-2.522 1.477-3.689 2.684-5.086 1.074.187 1.499 1.043 1.727 2.109.219 1.067.295 2.343.464 3.359-1.671.779-3.587.807-4.875-.382zm12.104-10.961c5.068-1.157 5.647 3.33 10.204 3.953-.942 2.428-.281 5.374-.148 7.674.003 2.287-.444 3.866-3.328 3.345 1.406-4.088-1.39-5.847-3.834-7.505-1.23-.836-2.406-1.664-3.03-2.793-.619-1.133-.658-2.555.136-4.674zm-1.426 14.644c2.209.925 3.076.233 4.606-1.003 2.153.68 1.163 3.694-.097 4.921-2.012-.402-4.829-.082-5.564-1.665.058-1.165.787-1.371 1.055-2.253zm-17.714 1.043c2.303 2.067 5.676 1.944 8.486 1.098.069 1.137.045 2.312.027 3.455-.025 1.142-.093 2.243-.317 3.181-.225.939-.605 1.713-1.255 2.196-.677.478-1.642.659-2.947.449-.328-.571-.095-1.57.099-2.582.211-1.008.424-2.017.03-2.578-1.722-.252-3.083.293-4.414-.766-.296-.493-.236-1.23-.083-2.032.167-.796.394-1.667.374-2.421zm-6.381 3.788c.791-2.082 2.868-1.685 4.093-.547 1.23 1.128 1.618 3.038-.881 3.527-.962-1.093-2.789-1.589-3.212-2.98zm-3.516 1.244l-.245 1.453c-1.444.12-1.528-2.389.245-1.453zm11.452 3.109c.946.059 1.52.382 1.923.828-.219 1.492-1.096 2.015-2.475 1.595-.587-.885.644-.931.552-2.423zm-5.716 1.233l1.591.367-.291 1.158c-1.068-.143-1.669-.554-1.3-1.525zm20.399 9.138c-1.087-.517-1.551-1.454-1.393-2.819 2.081-2.17 3.975 1.642 1.393 2.819zM-92.104 269.41c-.486.561-1.156.735-1.805 1.017-.325.143-.644.3-.933.527-.289.223-.553.605-.723.682l-2.44-.197c-.515-5.008-1.777-8.413-3.144-11.776 1.524 2.727 5.542 3.185 7.34.514-.374 1.736-1.566 1.859-1.456 4.557.099 2.65 2.845 2.196 3.161 4.676z" fill="#fff"/><path d="M228.556 270.439c-39.364-86.047-140.865-123.968-226.71-84.697-85.844 39.271-123.524 140.862-84.16 226.91 39.364 86.047 140.865 123.968 226.71 84.697 85.844-39.271 123.524-140.862 84.16-226.91z" fill="#FFCE46"/><path d="M181.347 210.628l-47.011 58.93c-.572.717-1.081 1.357-1.572 1.988-6.53 11.658-15.684 23.127-27.977 35.052l-58.921 73.86c-2.157 2.894-4.405 5.596-6.58 8.207-2.444 2.935-4.753 5.71-6.975 8.785l-7.905 9.911c-.512.642-1.022 1.28-1.524 1.899l-.174.216-.22.164c-6.896 5.131-11.442 12.579-15.838 19.781-4.336 7.106-8.82 14.453-15.605 19.813-.707.85-1.37 1.673-2.02 2.478l-12.15 15.231a248.7 248.7 0 00-1.287 1.624c-.442 1.688-1.77 2.817-2.773 3.668-.422.358-1.12.951-1.236 1.228.003.007.018.045.05.11l.023.05-3.95 1.977c-1.69-3.403.872-5.569 2.251-6.741.5-.426 1.337-1.137 1.368-1.452l.06-.638.392-.505c.508-.655 1.062-1.352 1.648-2.087l12.157-15.24c.717-.889 1.442-1.79 2.224-2.725l.337-.325c6.257-4.879 10.378-11.632 14.74-18.779 4.57-7.487 9.293-15.226 16.743-20.854.439-.543.883-1.099 1.33-1.66l7.845-9.83c2.244-3.11 4.71-6.072 7.096-8.937 2.136-2.566 4.346-5.222 6.476-8.079l59.242-74.236c12.082-11.705 21.038-22.918 27.377-34.277l.184-.277c.533-.689 1.086-1.384 1.638-2.074l47.084-59.023 3.453 2.767z" fill="#fff"/><path d="M243.225 322.18l.491 4.399-61.667 6.781-.369-.088c-14.428-3.44-28.263-1.908-44.859 4.964l-.285.118-3.688.425-97.847 10.769c-1.55.172-3.098.341-4.624.483l-.497.046-.468-.173c-13.393-4.933-24.388-1.205-37.118 3.109a433.028 433.028 0 01-5.253 1.757l-.421.095c-.947.112-1.866.213-2.777.311l-.611.067-.559-.259c-.464-.217-1.01-.006-2.14.526-1.377.646-3.686 1.728-5.885-.046-9.637-7.78-18.446-4.005-28.646.366-4.748 2.035-9.658 4.139-14.755 4.969-1.382.27-2.68.442-3.883.594l-23.545 2.593-.49-4.4 23.51-2.588c1.142-.144 2.307-.298 3.624-.556 4.634-.756 9.291-2.752 13.795-4.682 10.545-4.518 21.45-9.193 33.16.258.147-.007.802-.315 1.234-.518 1.265-.595 3.12-1.463 5.237-.781.653-.073 1.312-.146 1.985-.226a451.898 451.898 0 004.998-1.673c12.82-4.346 24.94-8.454 39.582-3.243a279.19 279.19 0 004.058-.429l100.903-11.119c17.24-7.093 31.738-8.685 46.908-5.15l2.385-.26 58.517-6.439z" fill="#fff"/><path d="M207.308 447.947l-2.756 3.456L25.968 308.382c-15.748-10.896-31.355-23.395-46.383-37.147l-13.94-11.131c-6.303-4.294-11.659-8.911-16.844-13.379-4.414-3.805-8.583-7.399-13.238-10.749l2.576-3.592c4.81 3.465 9.25 7.291 13.541 10.99 5.106 4.401 10.387 8.953 16.51 13.117l.13.095 14.187 11.336c14.918 13.656 30.405 26.059 46.03 36.864l.126.093 2.672 2.139 175.973 140.929z" fill="#fff"/><path d="M56.031 170.588l.516 4.537c.084.75.176 1.579.26 2.454l.01.147c.385 13.056 2.166 25.25 3.89 37.041.548 3.75 1.092 7.478 1.589 11.207l2.412 21.198c.095.81.19 1.615.287 2.42 4.573 11.64 4.604 22.828 4.635 34.666.006 2.247.013 4.519.05 6.823l13.214 116.627c.579 6.997 1.79 13.638 2.96 20.062 1.934 10.604 3.76 20.627 2.892 31.599l6.03 53.225-4.391.491-6.078-53.654.019-.216c.861-10.475-.926-20.278-2.818-30.657-1.19-6.528-2.42-13.279-3.011-20.424L65.263 291.255a503.7 503.7 0 01-.052-6.992c-.031-11.495-.06-22.352-4.428-33.305l-.105-.267-.036-.285c-.11-.908-.216-1.811-.324-2.712l-2.408-21.175c-.49-3.676-1.033-7.386-1.578-11.117-1.738-11.894-3.535-24.193-3.933-37.476-.08-.822-.166-1.6-.246-2.307l-.515-4.536 4.393-.495zM37.084 363.032c-1.155-2.369-9.979-.444-19.71 4.3-9.73 4.743-16.682 10.509-15.527 12.878 1.155 2.37 9.979.445 19.709-4.299 9.73-4.744 16.682-10.51 15.528-12.879z" fill="#fff"/><path d="M39.757 361.853c2.93 6.4-12.189 14.382-16.913 16.684-4.746 2.314-20.48 9.366-23.605 2.951l-.045-.096c-2.929-6.402 12.19-14.381 16.913-16.683 4.746-2.315 20.478-9.368 23.605-2.952l.045.096zM5.91 378.235c2.761-.351 7.805-1.745 14.377-4.948 6.572-3.205 10.776-6.317 12.754-8.277-2.762.35-7.806 1.744-14.377 4.948-6.572 3.205-10.778 6.317-12.754 8.277zm54.387 2.703c-1.675-.461-5.162 6.959-7.787 16.573-2.626 9.615-3.397 17.783-1.722 18.245 1.675.462 5.161-6.958 7.787-16.573 2.626-9.615 3.397-17.783 1.722-18.245z" fill="#fff"/><path d="M63.422 380.254c.931 2.036.655 4.963.496 6.659-.34 3.606-1.25 8.239-2.563 13.046-5.516 20.192-9.892 18.985-11.33 18.589-3.595-.991-3.102-6.233-2.864-8.752.34-3.606 1.25-8.238 2.563-13.044 1.311-4.804 2.881-9.255 4.421-12.532 1.077-2.288 3.313-7.051 6.909-6.06 1.176.325 1.915 1.105 2.368 2.094zm-9.742 24.91a92.008 92.008 0 002.11-6.74 91.492 91.492 0 001.61-6.881 91.184 91.184 0 00-2.112 6.743 90.403 90.403 0 00-1.608 6.878zM37.794 275.385c-1.488.611.314 8.427 4.025 17.459 3.71 9.031 7.924 15.857 9.412 15.246 1.487-.61-.315-8.427-4.026-17.458-3.71-9.032-7.924-15.858-9.411-15.247z" fill="#fff"/><path d="M47.32 286.024a106.79 106.79 0 011.673 3.856c1.834 4.463 3.275 8.792 4.058 12.189.805 3.491 1.23 6.85-1.085 7.8-2.976 1.222-6.998-4.264-11.94-16.308-1.835-4.465-3.274-8.793-4.058-12.19-.805-3.489-1.23-6.849 1.086-7.8 2.314-.951 4.374 1.737 6.256 4.786 1.287 2.087 2.667 4.73 4.01 7.667zm2.136 17.742c-.557-2.702-1.797-6.943-4.046-12.416-2.244-5.471-4.346-9.36-5.85-11.673.559 2.702 1.799 6.941 4.045 12.414 2.246 5.468 4.348 9.363 5.851 11.675zm46.809-38.543c-1.537-.477-5.11 6.694-7.979 16.017-2.87 9.322-3.949 17.267-2.412 17.744 1.538.477 5.11-6.694 7.98-16.017 2.869-9.322 3.949-17.267 2.411-17.744z" fill="#fff"/><path d="M98.351 264.811c1.243 2.716.36 8.993-2.638 18.74-3.825 12.428-7.325 18.247-10.4 17.293-3.078-.959-2.694-7.743 1.13-20.171 1.42-4.607 3.056-8.86 4.607-11.977 1.595-3.202 3.4-6.06 5.793-5.318.664.209 1.167.687 1.508 1.433zm-11.1 29.733c1.287-2.435 3.021-6.493 4.76-12.141 1.74-5.649 2.586-9.983 2.893-12.723-1.286 2.435-3.022 6.494-4.76 12.143-1.738 5.649-2.585 9.981-2.892 12.721zm42.428 61.01c-9.188-3.269-17.071-4.688-17.607-3.17-.536 1.518 6.477 5.399 15.665 8.668 9.188 3.269 17.071 4.688 17.607 3.17.536-1.518-6.478-5.399-15.665-8.668z" fill="#fff"/><path d="M147.078 362.925c.281.613.341 1.258.099 1.939-.833 2.362-4.205 2.101-7.724 1.467-3.427-.617-7.815-1.847-12.354-3.463-12.248-4.358-17.921-8.101-16.846-11.145 1.073-3.037 7.828-2.366 20.077 1.992 4.542 1.617 8.721 3.435 11.769 5.122 2.232 1.234 4.285 2.57 4.979 4.088zm-30.614-8.993c2.381 1.391 6.361 3.301 11.926 5.282 5.568 1.982 9.858 3.015 12.58 3.439-2.38-1.391-6.36-3.301-11.927-5.282-5.568-1.98-9.857-3.013-12.579-3.439zm-94.721-29.828c-8.16-3.152-15.219-4.553-15.765-3.128-.547 1.424 5.626 5.135 13.786 8.287 8.16 3.152 15.218 4.553 15.765 3.128.546-1.424-5.626-5.135-13.786-8.287z" fill="#fff"/><path d="M37.841 330.957c.515 1.125.216 1.9.047 2.344-.469 1.224-1.9 4.946-19.037-1.675-17.143-6.621-15.711-10.343-15.244-11.565 1.173-3.06 5.703-2.162 7.88-1.729 3.116.618 7.079 1.828 11.157 3.402 10.908 4.214 14.297 7.254 15.197 9.223zm-22.873-6.508a79.738 79.738 0 005.698 2.444 79.642 79.642 0 005.858 2.02 79.27 79.27 0 00-5.694-2.444 79.865 79.865 0 00-5.862-2.02zm90.136 76.211c-4.808-8.835-9.918-15.336-11.413-14.522-1.495.815 1.19 8.637 6 17.471 4.808 8.835 9.918 15.336 11.413 14.522 1.495-.815-1.191-8.637-6-17.471z" fill="#fff"/><path d="M110.208 406.478c2.814 6.15 4.492 11.915 1.828 13.366-2.247 1.225-4.65-1.271-6.912-4.147-2.22-2.826-4.752-6.787-7.127-11.152-4.4-8.073-8.869-18.117-5.227-20.101 2.247-1.225 4.65 1.27 6.912 4.147 2.22 2.826 4.752 6.786 7.127 11.153 1.181 2.167 2.367 4.477 3.399 6.734zm-1.124 7.943c-.789-2.675-2.557-7.094-5.673-12.825-3.12-5.734-5.871-9.612-7.69-11.729.79 2.677 2.557 7.096 5.674 12.826 3.121 5.734 5.872 9.612 7.689 11.728zm26.972-112.573c-.963-1.298-7.761 2.121-15.183 7.638-7.422 5.516-12.658 11.04-11.695 12.339.963 1.298 7.761-2.121 15.183-7.637 7.422-5.517 12.658-11.041 11.695-12.34z" fill="#fff"/><path d="M137.89 301.163c.892 1.949-1.055 4.415-3.132 6.607-2.284 2.409-5.565 5.24-9.243 7.972-3.677 2.734-7.334 5.06-10.297 6.551-2.918 1.468-6.102 2.698-7.594.685-2.412-3.222 5.253-9.968 12.093-15.053 3.677-2.733 7.333-5.058 10.297-6.55 2.918-1.467 6.102-2.697 7.594-.684.116.154.209.311.282.472zm-25.182 18.035c2.35-1.104 5.979-3.215 10.497-6.572 4.518-3.359 7.585-6.226 9.322-8.159-2.35 1.105-5.979 3.215-10.498 6.573-4.518 3.358-7.584 6.227-9.321 8.158z" fill="#fff"/><path d="M91.5 334.934c-4.627-10.115-16.559-14.572-26.65-9.956-10.09 4.616-14.52 16.558-9.892 26.673 4.627 10.114 16.558 14.572 26.649 9.955 10.09-4.616 14.52-16.557 9.893-26.672z" fill="#FFCE46"/><path d="M250.398 251.743c2.203 4.814 3.956 9.795 5.773 14.954 2.086 5.925 4.241 12.038 7.21 18.055l.06.121.044.128c.562 1.603 1.02 3.178 1.396 4.507a200.866 200.866 0 016.971 49.21c.028 1.597.031 3.189.011 4.761-.053 1.54.053 3.227.165 5.01.191 3.023.389 6.148-.095 9.18l-.043.274-.109.256c-6.663 15.425-8.324 30.245-10.084 45.937l-.069.467a55.387 55.387 0 01-.506 1.884l-.232.812a198.107 198.107 0 01-20.537 42.144 55.956 55.956 0 01-1.438 2.153l-.225.271c-5.427 5.539-10.393 11.555-15.649 17.925-3.167 3.838-6.442 7.806-9.802 11.625a198.497 198.497 0 01-2.968 3.306l-.127.128-3.166 2.938c-12.381 11.5-25.184 23.392-40.028 30.342a141.317 141.317 0 01-3.687 1.969c-6.623 3.416-12.927 5.896-19.267 7.579a161.676 161.676 0 01-4.276 1.558l-.394.097c-5.979.906-11.938 1.997-18.247 3.153-13.5 2.472-27.458 5.027-41.4 5.596l-4.612-.019c-2.085-.011-4.167-.008-6.252-.007-14.358.007-29.207.015-43.574-3.893-1.374-.399-2.61-.781-3.851-1.172-9.082-2.841-21.022-6.707-32.822-11.424a123.704 123.704 0 01-4.383-2.126c-6.236-3.286-11.874-7.36-17.325-11.301-6.591-4.763-12.816-9.262-20.035-12.538l-.434-.259c-.921-.708-1.81-1.5-2.72-2.422a28.091 28.091 0 01-2.153-2.478l-1.705-1.484a190.75 190.75 0 01-3.533-3.282l-.158-.166c-11.8-13.849-25.346-30.089-36.79-47.601l-.085-.14a199.464 199.464 0 01-19.56-50.803 174.812 174.812 0 01-1.038-4.833c-3.281-20.924-4.473-39.479-3.664-56.813a198.938 198.938 0 016.359-36.576 160.55 160.55 0 011.374-4.608c4.185-13.266 9.658-24.565 15.45-36.527 1.011-2.088 2.031-4.192 3.05-6.325l.087-.162a201.243 201.243 0 0116.454-24.002 201.068 201.068 0 0119.594-21.231 185.19 185.19 0 013.45-3.155c12.213-12.334 23.056-20.124 34.102-24.496a252.58 252.58 0 014.039-2.212 198.039 198.039 0 0125.012-11.252l.459-.169.488.041c12.128 1.024 22.386-2.442 33.247-6.112 6.006-2.029 12.214-4.126 18.732-5.38l.36-.038 3.963-.098c18.066-.414 35.636-.449 52.019 3.608 1.461.293 3.007.627 4.549.98a199.308 199.308 0 0113.739 3.714c1.564.485 3.125.989 4.709 1.524 11.719 3.216 22.781 8.13 33.696 14.987.631.35 1.355.761 2.076 1.18a201.626 201.626 0 0125.085 17.155c18.635 14.925 34.255 32.787 46.427 53.088.79 1.319 1.566 2.647 2.323 3.982 1.757 2.774 3.246 5.609 4.57 8.505zm7.788 32.365c-2.459-5.375-4.347-10.736-6.181-15.945-2.824-8.02-5.492-15.593-9.964-22.655a211.046 211.046 0 00-2.326-3.983c-11.898-19.848-27.171-37.312-45.395-51.907a197.115 197.115 0 00-26.655-17.986c-10.636-6.68-21.311-11.423-32.727-14.559a234.497 234.497 0 00-4.726-1.527 195.233 195.233 0 00-13.425-3.627c-1.499-.342-3.008-.67-4.525-.978-15.945-3.945-33.193-3.905-50.947-3.5l-3.77.095c-6.162 1.202-12.168 3.23-17.977 5.193-10.672 3.607-21.705 7.334-34.535 6.368a193.718 193.718 0 00-24 10.833 249.448 249.448 0 00-4.097 2.247l-.13.074-.139.053c-10.517 4.136-20.929 11.634-32.77 23.597l-.1.094a196.676 196.676 0 00-3.421 3.129 196.549 196.549 0 00-32.845 40.221 208.022 208.022 0 00-2.367 3.941c-1.01 2.11-2.019 4.193-3.02 6.26-5.722 11.813-11.125 22.971-15.213 35.931a152.302 152.302 0 00-1.329 4.459 194.708 194.708 0 00-6.207 35.669c-.792 16.961.386 35.222 3.604 55.759.301 1.503.637 3.058.993 4.608a195.115 195.115 0 0017 45.71 186.18 186.18 0 002.083 3.876c11.264 17.231 24.653 33.289 36.33 46.995a189.442 189.442 0 003.335 3.096l2.161 1.943a22.881 22.881 0 003.98 4.09c7.523 3.45 14.15 8.238 20.559 12.871 5.327 3.85 10.837 7.831 16.767 10.957 1.405.714 2.755 1.371 4.1 1.994 11.552 4.614 23.386 8.446 32.394 11.264 1.218.383 2.424.756 3.728 1.135 13.76 3.743 28.308 3.736 42.379 3.727 2.093 0 4.183-.002 6.27.009l4.517.019c13.531-.554 27.335-3.082 40.684-5.526 5.997-1.098 12.195-2.233 18.179-3.145 1.353-.472 2.716-.972 4.075-1.488l.222-.072c6.064-1.6 12.111-3.977 18.485-7.264a136.37 136.37 0 003.638-1.945l.133-.067c14.246-6.654 26.811-18.325 38.963-29.61l3.105-2.882c.96-1.046 1.909-2.105 2.847-3.172 3.314-3.765 6.566-7.706 9.712-11.518 5.046-6.114 10.261-12.435 15.774-18.078.424-.606.827-1.227 1.23-1.851a193.727 193.727 0 0020.056-41.139l.175-.624c.148-.526.297-1.052.432-1.598l.006-.045c1.787-15.941 3.474-31.002 10.305-46.933.354-2.48.177-5.254.008-7.94-.121-1.897-.234-3.688-.174-5.397a159.68 159.68 0 00-.012-4.581 196.25 196.25 0 00-6.811-48.101 73.345 73.345 0 00-1.262-4.098 85.374 85.374 0 01-1.179-2.476z" fill="#fff"/><path d="M230.572 269.326c7.594 16.599 12.576 34.48 14.67 53.142 5.171 46.054-7.872 91.34-36.726 127.508a174.935 174.935 0 01-16.847 18.288 163.213 163.213 0 01-3.61 3.3l-.284.214c-5.327 3.366-10.484 6.965-15.472 10.446-1.588 1.108-3.171 2.214-4.753 3.308-1.024.708-2.214 1.524-3.391 2.255l-.503.313-.593.018c-11.368.346-19.352 6.243-27.807 12.486-2.32 1.714-4.72 3.486-7.191 5.135l-.182.121-.202.083c-1.232.507-2.419.96-3.627 1.421l-1.261.476a173.667 173.667 0 01-47.169 7.172c-1.518.021-3.034.02-4.492-.007l-.198-.012a188.767 188.767 0 00-4.307-.416l-.147-.018c-13.752-2.118-26.73-5.159-40.472-8.376-2.855-.669-5.722-1.341-8.605-2.005l-.208-.059a685.281 685.281 0 01-3.774-1.283C5.907 500.262.12 498.178-5.342 496.08l-.214-.095a169.008 169.008 0 01-10.702-5.982c-5.545-3.454-10.515-7.691-15.321-11.788-4.868-4.148-9.466-8.068-14.364-10.983l-.379-.283a120.135 120.135 0 01-1.852-1.767c-27.502-27.007-45.41-62.995-50.433-101.345-5.013-38.253 2.949-77.506 22.42-110.528.82-1.39 1.663-2.774 2.525-4.148 1.179-1.703 2.232-3.293 3.279-4.87 1.578-2.38 3.21-4.841 5.008-7.292.998-1.318 2.03-2.633 3.09-3.936h.002a234.3 234.3 0 013.253-3.904 189.138 189.138 0 013.331-3.816c18.195-20.275 40.25-35.56 65.552-45.43a174.5 174.5 0 014.331-1.623l.369-.096c3.166-.551 6.128-1.671 9.264-2.856 3.959-1.496 8.05-3.042 12.668-3.414 1.452-.311 2.908-.604 4.367-.879a174.193 174.193 0 0136.63-2.921c1.606.045 3.202.113 4.81.207l.244.028c20.716 3.537 40.908 8.366 60.017 14.353l.232.088c1.496.66 2.983 1.344 4.462 2.051 12.008 5.726 23.412 12.888 33.896 21.284 21.51 17.225 38.281 38.825 49.429 63.191zm-45.313 198.806a170.474 170.474 0 0019.803-20.921c58.045-72.76 46.076-179.356-26.675-237.622a169.936 169.936 0 00-33.035-20.745 160.676 160.676 0 00-4.23-1.947c-18.849-5.899-38.764-10.662-59.2-14.156a155.388 155.388 0 00-4.553-.195 169.784 169.784 0 00-40.095 3.736l-.3.044c-4.046.3-7.712 1.685-11.591 3.152-3.133 1.184-6.372 2.408-9.875 3.041a168.43 168.43 0 00-4.048 1.519c-24.652 9.615-46.143 24.51-63.871 44.265a185.07 185.07 0 00-3.255 3.73 217.155 217.155 0 00-3.193 3.831 135.594 135.594 0 00-2.975 3.786c-1.715 2.338-3.247 4.65-4.87 7.095a281.586 281.586 0 01-3.273 4.86 177.954 177.954 0 00-2.407 3.96c-18.971 32.176-26.73 70.427-21.846 107.704 4.899 37.375 22.347 72.443 49.135 98.748.526.511 1.06 1.024 1.608 1.535 5.14 3.09 9.82 7.077 14.766 11.294 4.683 3.993 9.527 8.12 14.77 11.386a172.295 172.295 0 006.195 3.582 161.68 161.68 0 004.102 2.177c5.376 2.065 11.09 4.12 18.5 6.659 1.21.415 2.417.827 3.647 1.24 2.853.66 5.688 1.322 8.513 1.984 13.631 3.193 26.508 6.208 40.066 8.301 1.388.12 2.803.255 4.23.408 1.383.025 2.817.025 4.254.005a169.272 169.272 0 0045.89-6.965l1.026-.392c1.107-.422 2.195-.838 3.318-1.295 2.322-1.559 4.616-3.253 6.836-4.893 8.489-6.268 17.262-12.747 29.685-13.323a87.71 87.71 0 002.722-1.83c1.578-1.09 3.156-2.189 4.737-3.294 4.982-3.478 10.131-7.073 15.489-10.464z" fill="#fff"/><path d="M93.31 333.837c3.402 7.436 2.604 16.474-2.822 23.277-7.673 9.616-21.739 11.175-31.355 3.474-9.614-7.7-11.198-21.79-3.525-31.41a22.106 22.106 0 0114.947-8.241c5.922-.657 11.748 1.037 16.407 4.768a22.277 22.277 0 016.349 8.132zm-36.527 16.769a17.876 17.876 0 005.106 6.528c7.711 6.176 18.993 4.926 25.144-2.787a17.793 17.793 0 003.794-13.17 17.85 17.85 0 00-6.622-12.017c-7.711-6.176-18.99-4.927-25.143 2.786a17.8 17.8 0 00-3.794 13.171 17.993 17.993 0 001.515 5.489z" fill="#fff"/></svg>