<svg width="476" height="559" fill="none" xmlns="http://www.w3.org/2000/svg"><path d="M328.828 112.996a4.614 4.614 0 01-1.556-1.873 4.575 4.575 0 01-.381-2.397 4.531 4.531 0 012.827-3.714l123.241-49.375a4.595 4.595 0 013.509.041 4.617 4.617 0 012.466 2.505 4.563 4.563 0 01-.02 3.501 4.542 4.542 0 01-2.496 2.446L333.173 113.5a4.59 4.59 0 01-4.345-.504z" fill="#22183B"/><path d="M415.513 146.667a4.573 4.573 0 01-1.456-1.669L356.622 33.387a4.569 4.569 0 01-.291-3.49 4.54 4.54 0 012.267-2.66 4.588 4.588 0 013.497-.269 4.62 4.62 0 012.678 2.278l57.434 111.613a4.58 4.58 0 01.427 2.951 4.54 4.54 0 01-1.484 2.577 4.559 4.559 0 01-2.764 1.109 4.61 4.61 0 01-2.873-.829zM285.71 290.751a446.319 446.319 0 008.48-8.66c2.795-2.908 5.504-5.894 8.19-8.892 2.686-2.998 5.281-6.077 7.856-9.16 2.574-3.083 5.056-6.245 7.498-9.43a2.27 2.27 0 01.132-.159l.072-.078a139.632 139.632 0 0010.588-13.1 157.502 157.502 0 009.144-14.174 209.904 209.904 0 007.837-15.008c.615-1.275 1.192-2.568 1.776-3.856.595-1.275 1.191-2.661 1.787-3.985.646-1.336 1.386-2.664 2.076-3.995l2.131-3.864-.124.246c1.858-4.001 3.718-8.009 5.445-12.076a378.375 378.375 0 004.976-12.29c3.156-8.262 6.008-16.649 8.641-25.128a2.197 2.197 0 011.031-1.273 2.249 2.249 0 011.635-.219 2.215 2.215 0 011.338.954c.306.476.414 1.049.303 1.601a235.353 235.353 0 01-6.866 26.153 255.792 255.792 0 01-9.674 25.334l-.045.098-.08.151-1.956 3.747c-.605 1.239-1.247 2.44-1.824 3.708-.556 1.313-1.059 2.579-1.656 3.93-.596 1.334-1.179 2.674-1.804 3.998-2.463 5.309-5.111 10.556-8.058 15.654a165.572 165.572 0 01-9.712 14.8 145.013 145.013 0 01-11.484 13.563l.199-.236a319.354 319.354 0 01-8.052 9.376c-2.743 3.073-5.606 6.04-8.5 8.969-2.894 2.929-5.9 5.752-8.938 8.528a228.255 228.255 0 01-9.388 8.02 2.242 2.242 0 01-3.053-.227 2.179 2.179 0 01-.575-1.525 2.179 2.179 0 01.649-1.496l.005.001zm-213.819 78.08c4.282.213 8.56.366 12.834.462 4.273.114 8.544.105 12.81.069 4.265-.036 8.529-.2 12.781-.384 4.251-.184 8.5-.496 12.738-.857a2.69 2.69 0 01.218-.01l.114.001a147.87 147.87 0 0017.817-1.056 167.115 167.115 0 0017.631-2.952 222.472 222.472 0 0017.354-4.573c1.437-.427 2.863-.899 4.289-1.36 1.424-.443 2.936-.965 4.399-1.444 1.507-.447 3.076-.816 4.612-1.225l4.548-1.088-.281.078c4.462-1.399 8.93-2.803 13.35-4.352a402.168 402.168 0 0013.184-4.873c8.728-3.424 17.337-7.175 25.862-11.163a2.326 2.326 0 011.733-.101 2.38 2.38 0 011.338 1.124c.287.531.361 1.15.205 1.729a2.302 2.302 0 01-1.04 1.38 250.217 250.217 0 01-25.401 13.284 271.507 271.507 0 01-26.761 10.502l-.109.034-.175.045-4.332 1.141c-1.403.411-2.803.765-4.208 1.218-1.425.502-2.777 1.011-4.262 1.508-1.471.485-2.937.985-4.421 1.439-5.918 1.86-11.919 3.53-18.017 4.86-6.115 1.314-12.3 2.3-18.528 2.955-6.248.612-12.533.841-18.818.685l.326-.013c-4.361.212-8.725.341-13.09.384-4.365.045-8.732-.08-13.09-.257-4.36-.176-8.715-.516-13.057-.915a240.89 240.89 0 01-12.98-1.628 2.37 2.37 0 01-1.998-2.554 2.31 2.31 0 01.787-1.538 2.314 2.314 0 011.635-.559l.003.004zm-200.793 19.292a382.095 382.095 0 019.536-4.181c3.186-1.362 6.407-2.63 9.631-3.876s6.485-2.395 9.742-3.525c3.257-1.13 6.55-2.162 9.847-3.154.057-.017.114-.036.168-.057l.085-.035a119.536 119.536 0 0113.733-4.519 134.393 134.393 0 0114.144-3.029 179.32 179.32 0 0114.408-1.719c1.208-.105 2.42-.174 3.628-.25 1.202-.09 2.493-.146 3.735-.221 1.266-.111 2.556-.3 3.832-.449l3.744-.534-.235.025c3.77-.272 7.546-.544 11.327-.691a323.02 323.02 0 0111.354-.246c7.574-.013 15.154.256 22.74.731.48.031.959-.126 1.334-.441.375-.315.619-.763.68-1.251a1.916 1.916 0 00-.349-1.37 1.844 1.844 0 00-1.186-.734 200.27 200.27 0 00-23.009-2.474 217.543 217.543 0 00-23.223.038l-.093.007-.145.018-3.596.429c-1.177.108-2.335.258-3.525.335-1.22.045-2.388.063-3.651.13-1.25.072-2.5.132-3.75.23-5.002.359-10.01.886-14.992 1.7-4.99.831-9.938 1.93-14.82 3.294a124.562 124.562 0 00-14.38 5.099l.25-.087a273.699 273.699 0 00-9.975 3.616c-3.302 1.27-6.555 2.668-9.788 4.103-3.233 1.435-6.416 2.992-9.571 4.59a195.717 195.717 0 00-9.305 5.108 1.948 1.948 0 00-.762 2.529c.215.436.588.769 1.041.93.454.161.953.138 1.395-.065l.001-.004z" fill="#22183B"/></svg>