<svg width="196" height="292" fill="none" xmlns="http://www.w3.org/2000/svg"><path fill-rule="evenodd" clip-rule="evenodd" d="M-12.476 55.091c-.56.098-1.202.653-1.678 1.286-.457.641-.74 1.36-.652 1.769.57.02 1.276-.561 1.814-1.221.535-.661.85-1.43.516-1.834zm133.07.93c2.027 1.818.57 3.308-.5 3.481-.64-.576-.266-.818-1.069-1.449 1.102-.449.718-2.07 1.569-2.033zM39.789 30.514c-1.455.394-2.034.159-2.962.18-.235-1.053 1.432-2.139 3.49-2.076.635.476.185 1.28-.528 1.896zm-7.422 1.282c-.252-.093-.501-.19-.557-.454.421-.292 1.012-.558 1.967-.75.073.498-.396.894-1.41 1.204zm106.178 54.338c.753-.115 1.576.594 1.783 1.895-.513-.09-1.004-.546-1.55-.061-.562-.951-.404-1.392-.233-1.834zM-14.411 67.112c-1.231-.617-2.568-.655-3.898-.77l.901-1.144c.942 1.665 2.497-.24 3.785-.64.34.61.41 1.319-.788 2.554zm163.442 63.061l.04 1.844c-.692.494-.995-2.46-.04-1.844zM68.933 30.981c.66-.225 2.082.256 3.24.487-.525.865-1.508 1.35-2.104 2.143-.96-.227-1.515-.7-1.694-1.225-.178-.524.022-1.089.558-1.405zm32.417 14.134c.463-.242 1.322.251 1.789.014.657.485 1.111.94 1.538 1.406.416.474.827.947 1.431 1.451-.089.629-.712.098-.873.567-.447-.316-.88-.628-1.284-.936-.408-.304-.812-.586-1.158-.872-.697-.568-1.218-1.113-1.443-1.63zm36.317 47.143c.115-.918 1.102-2.065 2.071-1.646.721 1.355.431 1.928.227 2.56-.851.365-1.526-.682-2.298-.914zM121.709 64.23c-.582-.641-.486-1.017-.866-1.574.415.033.983.653 1.463 1.064l-.597.51zm22.809 88.837c.257.343-.412 3.039-.801 3.226-.816-.392.581-2.472.801-3.226zM45.842 31.845c1.492-.112 3.241.367 2.156 1.165-1.785.265-2.071-.382-2.156-1.165zm20.318.885c.133 1.27 1.514 2.852-.5 3.3-1.996-.316-3.218-1.559-3.3-2.511-.078-.97 1.07-1.664 3.8-.789zm30.603 11.346c1.253 1.023 1.573 2.05 1.554 3.034-.018.982-.38 1.933-.602 2.89-.52-1.113-.889-2.278-2.863-3.404.669-.787.888-2.3 1.911-2.52zm-66.66-5.884l-.822-.21a7.53 7.53 0 01-.76-.233c-.484-.184-.905-.44-1.164-.883a14.7 14.7 0 011.738-.782 11.7 11.7 0 011.6-.403c.96-.166 1.725-.145 2.396-.041 1.349.221 2.3.716 3.794.86-.664.907.022 1.272.701 1.622.685.349 1.365.681.789 1.481-1.229.269-2.026.292-2.646.123-.62-.17-1.054-.516-1.487-.865-.865-.696-1.744-1.415-4.14-.67zM-19.85 81.05c-1.08.241-1.822.35-2.545-.707.94-.507 3.283-2.322 2.764-3.83.895-.108 1.012.593.812 1.529-.176.941-.652 2.127-1.03 3.008zM51.3 34.993c-.76-1.393 1.422-1.967 3.412-1.829.495.037.976.104 1.388.234.412.136.758.307.992.506.467.398.476.902-.317 1.464a15.993 15.993 0 01-1.552-.044c-.433-.041-.803-.114-1.174-.185-.742-.144-1.492-.285-2.748-.146zm27.535 2.18c.012.766-1.774 1.842-3.64 1.535-.874-.519-1.25-.856-1.243-1.133.004-.27.383-.465.937-.572 1.092-.193 2.916-.055 3.946.17zM-24.094 91.497c-.772.066-1.58-.074-2.409-.384.016-.69.335-1.361.721-2.035.404-.674.883-1.35 1.19-2.063-.46-.547-.375-1.272-.019-1.898.366-.627 1.023-1.149 1.654-1.3 1.518 1.347-1.662 5.633-1.137 7.68zm20.02-33.665c.784-.74 1.73-.794 1.457-.002-.756.81-1.123.46-1.457.002zm92.465-13.6c.74-.698 2.195-.813 3.463-.396 1.226.451 2.253 1.42 2.179 2.74-1.115-.773-2.199-.911-3.145-1.086-.98-.148-1.82-.336-2.497-1.258zM-10.845 66.43c-.466-.255.09-.875.471-1.435.383.366.19 1.215-.47 1.435zm25.78-19.213c-.903-.916.992-1.808.11-2.733.743-.4 1.09-.196 1.994-.83 1.684.915.69 2.896-2.105 3.563zm127.704 89.646c.45-.725 1.102-.123 1.357.431.064 1.272-.637 1.032-1.226.974.064-.624-.203-.75-.131-1.405zM-34.523 120.68c.314-1.566.392-3.835 1.453-3.546.337 1.034-.065 4.302-1.453 3.546zm79.618-84.802c1.396-.852 4.37-.136 5.05-.46.334 1.162 1.996 1.587 2.777 2.484-.016.902-2.354.636-3.327 1.077-1.216-1.2-4.43-1.109-4.5-3.101zm96.952 86.175c.526.109 1.174 2.355.456 2.711-1.005.158-.663-2.088-.456-2.711zm-.948 19.214c.798-.972 1.847 1.095.909 2.559-.891-.045-1.153-.948-.909-2.559zm-16.977-59.431c.296-.41.514-.861 1.159-1.099 1.587.597 3.198 1.778 4.182 3.211.493.714.828 1.488.91 2.276.068.796-.134 1.614-.661 2.393.391.645.522 1.128.538 1.537-.804.212-.368 1.218-1.31 1.338-.762-1.097-.576-2.113-1.256-2.56-.867-.839-1.036.21-1.395.716-.582-.923-1.024-1.702-1.162-2.41-.145-.702-.02-1.313.422-1.827.32.237.641.615.943 1.283 1.094-.507.723-1.41-.028-2.344-.375-.467-.844-.939-1.27-1.375-.438-.43-.85-.815-1.072-1.14zM24.634 42.513c.319-.145.64-.251.96-.378l.365.914c-.7.129-1.314.199-1.325-.536zm98.577 32.96c.591.327.739.767.904 1.284.149.526.309 1.134.947 1.81-.691.144-1.221-.49-1.54-1.234-.338-.732-.481-1.572-.311-1.86zM6.406 55.63l-2.394 1.908c-.246-1.04-.093-2.19 2-3.58.623.503.432 1.083.394 1.672zm-17.131 30.05c-1.604-.452-3.193.248-4.7 1.13-.9-.45-1.186-1.243-.986-2.306 1.537-.805 2.342-2.94 2.415-4.412 1.293.795 1.143 2.271 1.859 3.346-.025-.585 2.336-3.742.49-4.074.404-.609.783-1.223 1.222-1.819-.516-1.427-2.428-1.76-3.574-2.09 1.066-1.324 2.16-1.938 3.185-2.57 1.049-.624 2.06-1.253 2.963-2.654l.758.624c-3.545 3.447-1.057 4.71-.664 6.674-.447.746-.858 1.466-1.187 2.178-.322.715-.599 1.41-.837 2.087-.493 1.348-.766 2.643-.944 3.886zm39.451-41.99c-1.571-.123-.587-1.778 1.177-1.688.392.713.08 1.288-1.177 1.688zm-54.521 72.24c-2.44.661-3.272-.747-4.518-2.263.189-.919.576-1.346.884-1.96-.43 1.37 2.112 1.924 2.829 1.63 1.021-.422 1.439-2.138 1.997-3.566.532-1.435 1.21-2.566 2.523-1.815.204 1.28.073 2.882.754 3.774.692.402 2.321.027 1.866 1.372-1.878-.628-2.551-.485-4.573-.319-.785.549-1.084 2.38-1.762 3.147zm4.509-27.634c.449-1.12 1.631.16 1.72.51-.4.41-.816.666-1.25.767-.62-.137-.097-.983-.47-1.277zm122.683-32.312c.774.111 1.666.509 2.173-.062 1.207 1.279-.708 1.538-2.173.062zM-23.358 97.843c-.64 1.79-1.149 1.31-.182-.072-.405-1.104-.317-2.439.186-3.379.532-.938 1.468-1.47 2.713-1-.085 2.146-1.5 3.822-2.717 4.45zM88.376 49.697c-.938-1.32-.064-1.825 1.368-1.641 1.391.215 3.32 1.14 4.403 2.445-1.177 1.035-4.735-2.082-5.771-.804zm40.802 42.735c.67.63 1.345.886 2.005 1.384.656.5 1.284 1.255 1.766 2.908-.853.357-1.475-.737-2.249-.807-.602.322-.718.983-1.088 1.466-.552-.064-.982-.842-1.505-1.053-.148-1.637.8-2.58 1.071-3.898zm9.281 49.57c.133.786.364 1.813.286 2.716-.055.902-.304 1.68-.959 1.949-.621-.054-.903-.508-.983-1.198-.091-.691.072-1.619.187-2.642.687.174.819-.902 1.469-.825zm-3.051-1.011c.112-1.266.389-2.174.713-2.992.314-.817.624-1.541.877-2.428a3.353 3.353 0 012.066 1.715c.457.892.397 2.088-.465 3.379-1.01-.885-1.741-.069-2.284 1.085-.488-.007-.548-.581-.907-.759zm-164.44-23.04c.657.111.352 1.193.184 2.17-1.276.533-1.318-2.347-.183-2.17zm.072 5.206c.308.585.306 1.471.237 2.531-.629-.37-1.108-.936-1.819-1.201.19-1.205 1.162-.65 1.582-1.33zM112.067 66.13c.543.739.575 1.33 1.085 2.058-.929.06-.913-1.564-2.227-1.854.262-.634.778-.048 1.142-.204zM28.755 44.728c1.716-.254 1.856 1.141.755 2.026-1.94.708-2.037-1.412-.755-2.026zm106.146 85.353c-.171-1.363.279-1.786.501-2.559 1.202.814 2.992 2.416 2.677 4.793-1.431-.093-1.944-1.807-3.178-2.234zm-18.25-56.534c.908.827 1.751 1.85 2.619 3.159-.458.752-1.404.101-2.081-.8-.66-.913-1.166-2.033-.538-2.359zm-70.004-27.76c.253.762.049 1.32-.487 1.721-.536.404-1.41.629-2.498.872.027-1.573-1.195-2.254-2.63-2.858-1.425-.602-3.064-1.15-3.718-2.454 1.847-.38 3.128-.113 4.387.083.223.93.58 1.748 1.312 2.235.366.244.826.406 1.415.46.596.085 1.321.075 2.219-.058zM129.04 99.61c.739-.585 1.212.088 1.86-.043l.103 2.624c-.851-.193-1.852-1.334-1.963-2.58zm2.456 10.196c.184 4.02 3.58 1.443 3.217 5.349-.952.027-1.498-1.104-2.442-1.102-.495.322-.554 1.061-.763 1.681-.218.625-.554 1.114-1.512.932-.203-1.006-.763-1.311-.925-2.551 1.999.624.397-4.165 2.425-4.309zm-157.207 14.16c-1.733-.121-1.916-1.542-1.347-2.991.566-1.447 1.896-2.879 3.063-3.175.524-1.126 1.11-2.151 1.957-2.467.2 1.203.894 1.948 1.61 2.66-.361 1.291-1.227 1.489-1.42 3.127-.05.578.413.644.62.966 1.785-.077 1.873-3.843 3.473-4.34.634.215.274 1.303.616 1.789l1.729.364c-.972 2.143-2.58 2.894-3.967 4.194-.88-.016-.901-.908-1.368-1.356-.8-.438-.79.833-1.49.609.076-1.866-1.002-2.499-1.773-3.506-.723-.042-1.062.803-1.469 1.489-.453 1.271.43 1.843-.233 2.637zM75.385 45.552c1.114.371 1.804.837 2.33 1.332.51.515.853 1.07 1.297 1.599 1.222.478 1.548-.206 2.058-.657.752.497 1.454.976 2.1 1.51.645.536 1.279 1.073 1.963 1.605-1.496.466-2.984.05-4.706-.534-1.698-.61-3.51-1.567-5.55-2.133-.805-.924.021-1.879.508-2.722zm51.473 46.59c.543.86.516 1.353.761 2.038-.904.128-1.73-.447-2.444-1.906.58-.199 1.135-.204 1.683-.132zM45.247 42.98c1.06-.195.81.552 1.172.856-1.33.397-1.095-.343-1.171-.856zm89.355 76.359c.649 1.053.65 2.008.352 2.621-.294.615-.891.892-1.519.675-.198-1.906-.052-3.18 1.167-3.296zm-156.158-12.42c-.76-.574-1.411-1.246-.682-2.966.543.683 1.926 1.56.682 2.966zm127.242-38.063c-.793-1.047-2.142-2.236-2.789-3.219.825-.292 1.959-.092 3.11.387 1.144.48 2.313 1.232 3.079 2.077-1.003.781-2.569-.8-3.4.755zm20.803 27.172c.436.038.797.54 1.135 1.176-.078.412-.506.582-.967.729-.512-.942.351-.954-.168-1.905zM29.232 50.426c-.035-1.728.954-1.778 1.431-1.36.479.418.483 1.28-1.431 1.36zM-.805 71.667c-.456-.386-.136-.997-.257-1.484.679-.39 1.316-.506 1.839.018-.147.803-1.035 1.131-1.582 1.466zm126.466 29.557c.963-.273.828-2.121 1.876-1.686.422 1.462-.223 2.172.316 3.746-.902-.011-1.631-.685-2.192-2.06zM-1.519 80.63c-.256.723-.398 1.4-.199 1.957-1.453.328-1.962 2-3.157 3.296-.579-.977-1.384-1.87-1.938-2.876-.54-1.001-.887-2.145-.374-3.575.6-1.113 1.125-.59 1.692-1.011.374-.494.574-.927.818-1.365a6.57 6.57 0 011.033-1.395c-.693 2.137-.1 3.864 2.124 4.97zm125.736 16.068c.432.28 1.022 1.678.922 2.187-.975-.197-2.045-.28-2.692.168.438-.873.342-2.104 1.77-2.355zm1.421 7.972c.757-.137 1.436.652 1.808 1.756.392 1.096.585 2.453.579 3.363l-1.134.306c-.902-2.36-1.623-3.596-1.253-5.425zm-8.902-16.908c-1.14-.104-2.196-2.18-3.298-2.986.452-.845-.074-1.786.649-2.178 2.087-1.137 3.714 3.528 2.649 5.164zm-30.223-30.57c-.663-.403-.89-.833-.688-1.293.65-.04 1.331.775.688 1.292zm-4.66-3.04c.336.35 1.01.66.501 1.112l-.83-.4.328-.712zm45.191 65.106c.933.047 1.379 1.163 2.511.806.174.97.273 1.958.368 2.949-.876.15-1.296-.565-1.632-1.429-.369-.859-.686-1.868-1.247-2.326zM26.924 54.394c.599.72-2.471 2.481-2.912 1.58a9.686 9.686 0 001.525-.8c.42-.267.814-.539 1.386-.78zm95.535 46.21c.62-.307.972.657 1.539.632-.205.522-.567.939-.989 1.304-.319-.242-.546-.872-.804-1.526.229-.043.3-.189.254-.41zm3.97 16.13c-.733-.366-.74-1.837.212-1.802.408 1.059-.236 1.094-.212 1.802zm-1.321-6.455c.019 1.11-.075 2.204-.438 3.046-.483-.162-.665-.782-.74-1.462-.102-.672-.088-1.411-.114-1.815.532-.226.757.453 1.292.231zm.347 24.215c.029.742-.116 1.21-.628 1.097-.028-.733.113-1.2.628-1.097zM5.389 76.824c.558.478-.217 1.256-.689 1.968-.005-.597.016-1.205.689-1.968zm-20.362 42.896c.307-1.035 1.907.038 1.38 1.09-.672-.173-.71-.909-1.38-1.09zM9.165 77.357c-.61.452-1.155.82-1.732 1.307-1.165-.562.275-1.692-.876-2.269.463-.724.808-.352 1.29-1.058.756.778.715 1.626 1.318 2.02zm47.683-19.753c.829.428-.47.822-.335 1.355-1.037.036-1.085-.581-1.869-.65.587-.407 1.808-.21 2.204-.705zm47.061 88.855c-.201-.446-.534-.803-.225-1.554 1.577.261 3.674.826 2.437 2.412 2.269.842 3.288.488 4.899 1.42.222-.674-.181-1.537.592-1.557.956.871 1.918-.045 2.659.692.122.987-1.276 1.411-.422 1.686 1.803.338 3.933 1.508 5.535 1.321-.441-2.008-1.65-3.595-2.621-5.225-.519-.822-1-1.66-1.293-2.575a6.405 6.405 0 01-.295-1.442c-.042-.508-.016-1.044.021-1.63.384-.057.544-.466 1.025-.37.635.237.526 1.281.278 2.315.455.079.646-.342 1.206-.07.559-.742-.919-1.637-.042-2.84.767.098 1.827.327 2.683.885.845.556 1.548 1.46 1.385 2.848-.154 1.504-1.389.779-1.431 2.496.207 1.263.759 2.093 1.36 2.954.591.859 1.179 1.739 1.26 3.071 1.309-1.255 3.665.366 4.938-1.143.151-.876.276-1.799.452-2.51.178-.709.492-1.197 1.146-1.184 1.023.281.281 2.468 1.517 2.515.395-2.141 1.387-2.193 1.224-4.553-1.305.49-2.616.933-3.846 1.525-.269-1.49-1.731-1.657-1.347-3.823 1.09-.313 2.102.638 2.685-1.152.122-1.199-.907-.97-.535-2.469.128-1.281 1.097-1.022 1.146-2.324-.624-1.481-.469-4.836 1.5-3.903-.084-2.139.832-1.374 1.541-1.854-.207-1.485-.559-3.092-1.167-4.137-.648-1.04-1.5-1.516-2.605-.851-.133 1.082.058 1.671.325 2.252.271.579.612 1.148.683 2.179-.184.403-.152 1.121-.553 1.206-1.029.186-1.662-.25-1.809-1.445.121-.79.371-1.758.395-2.592.021-.832-.245-1.516-1.023-1.735-.018 1.298-.154 2.614-1.195 2.666-.365-.337-.576-.865-.803-1.451-.225-.587-.41-1.241-.624-1.843-.428-1.205-.971-2.188-2.169-1.986-.884.299-.733 1.733-2.011 1.577.057.845.39 2.005-.407 1.892-1.081-.754-.331-3.031-2.061-2.923-.238.432-.402.941-.871 1.123-1.568-.607-1.378-4.463-1.132-6.201 1.808.166 1.094 3.111 2.721 3.161 1.922.099.637-5.271 3.394-3.538.455.516.458 1.954.68 2.938.742-.292.894.608 1.639.322-.123-1.445-.321-2.669-.441-3.834-.154-1.156-.269-2.243-.145-3.467-.764-.962-1.986-.756-3.037-.961.075 1.366-1.078 3.718-2.368 1.958-.359-.911.102-1.187-.312-2.085-1.037-.939-2.429-1.585-2.114-3.723-.679-.804-1.677-.595-2.055-2.277-.042-.52.264-.823.663-1.066.618.8 1.668 1.955 2.674 2.516 1.001.556 1.966.523 2.364-1.213.368-.572-.937-.157-.915-1.409-.376-.773.882-.425.37-1.296-.459-.702-1.984-2.651-1.425-3.545 1.639.554 2.237-1.392 3.274-2.325-.577-1.22-.719-2.073-.754-2.904-.039-.828-.001-1.616-.342-2.624.3-.394 1.595-.223.96-1.152-.738-.147-1.507-.321-2.191-1.144-.198-.522.013-.84-.37-1.457-.605.128-1.157-.4-1.753-.316 1.522 2.359-.253 3.724-1.332 5.24-.373-1.497-1.354-2.19-2.15-3.83-.824-.356-1.69-.356-2.561-.026.116.391.222.824.279 1.26a5.2 5.2 0 01-.014 1.282c-.122.79-.504 1.384-1.32 1.447a4.328 4.328 0 01-.381-1.703c-.02-.509.053-.976.162-1.437.216-.921.558-1.803.452-2.868.6-.416 1.184-.45 1.771-.506a17.06 17.06 0 01-1.296-1.63c-.448-.594-.837-1.22-1.021-1.775.524-1.17 1.385-2.24 2.186-3.338-.261-.304-.743-.613-1.121-.94-.388-.322-.654-.676-.45-1.115 1.613-.087 3.866.872 3.987-1.61-1.322-1.785-3.041-3.979-3.717-5.985-1.974-1.755-4.015.099-4.98.944 1.347 1.32 2.305.028 3.682 1.422.212 1.177-1.463.497-1.325 1.166.604.602.97 1.132 1.186 1.56.218.428.281.757.223 1.002-.113.49-.703.64-1.485.579-1.537-.156-3.957-1.01-4.985-2.003-.704-1.24.583-2.093.493-3.195-2.005-.775-3.998-2.542-4.466-4.474.669-.228 1.333-.488 1.867-1.235-.452-.884-.677-1.743-1.622-2.697-1.241-.027-2.358.564-4.031-.664-.046-.825.968-1.584 1.044-2.41.585-.622 1.791.415 2.415-.13-.78-.681-.753-1.293-1.994-2.013-1.03-.18-2.002-.006-3.014-.073-1.031-.05-2.108-.334-3.557-1.251-.81.025-.154.836-.816 1.339-1.186.1-2.698-.475-4.189-1.002-1.514-.495-3.054-.879-4.108-.554-1.44-.835-2.119-1.651-2.141-2.512-.03-.845.567-1.664 1.591-2.253-2.194-1.116-3.4-.893-4.45-.443-1.065.47-1.965 1.115-3.602.862-1.25-.966.769-2.231.487-2.727a9.15 9.15 0 01-1.793.139c-.674-.013-1.38-.149-2.046-.542-.477-.545.112-1.45.173-2.18 3.365.41 4.954-4.172 2.048-5.77-2.989-.526-1.656 2.808-3.259 3.481 1.17.258 2.267 1.721.655 1.759-1.62-.114-.917-1.036-2.12-1.253-.921 1.088-1.452 2.489-2.844 3.135-1.59-.155-1.969-.566-2.174-1.045-.204-.481-.228-1.008-1.138-1.343.54-.593 1.366-.99 1.22-2.075-1.843-.862-3.087-1.135-4.258-1.1-1.17.01-2.295.447-3.95.961.799 1.544.755 1.99.38 3.137 1.07-.03 1.905.059 2.489.352.584.296.923.721 1.025 1.272a2.552 2.552 0 01-1.323.285 3.23 3.23 0 01-1.261-.257c-.78-.327-1.405-.91-1.576-1.443a10.55 10.55 0 00-2.292.424c-.662.218-1.24.515-1.817.79-1.15.578-2.286 1.095-3.992 1.449-.977 1.45.537 1.462.755 2.855-.285.967-1.474 1.527-2.294 2.238.536.958.267 1.867-.313 2.52a3.102 3.102 0 01-1.07.768c-.397.2-.823.329-1.24.337-1.341.03-1.79-1.02-1.487-2.171.151-.576.495-1.176.999-1.674a3.26 3.26 0 011.968-.956c.095-1.539.68-2.903 1.687-4.132-.76-.205-.358-1.472-1.54-1.303-.629-.197-1.088.053-1.58.362-.492.31-1.022.66-1.797.774.005-.824-.228-1.793-.845-2.316-.613-.523-1.632-.595-3.092.372.412 2.486 2.615 2.988 3.926 4.393-.595.673-1.321.223-2.366.678-.082.662.103 1.397-1.037 1.74-.93.105-1.457-.358-1.865-.99-.97.422-1.783.626-2.523.726.168.813.057 1.406-.236 1.825-.288.435-.754.714-1.315.867-1.118.306-2.622.137-3.736-.177-.41.959-1.292 1.375-2.315 1.647-1.019.275-2.19.388-3.054.812-.727-.996-1.739-1.41-3.127-1.082-.46.405-.731.812-1.054 1.218-.314.417-.668.849-1.31 1.283-.935-.843-.58-2.137.446-3.464.518-.653 1.19-1.327 1.918-1.98a22.436 22.436 0 012.265-1.818c.138.1.345.074.653-.128.895.013.637 2.035 1.846 1.471.402-1.124 1.688-2.223 2.182-3.298-.35-.522-1.08-.525-1.77-.498-.693.02-1.37.01-1.648-.658-1.456.884-2.433.993-3.386 1.044-.945.063-1.845.105-3.123.818.386.912-.33 1.854-1.38 2.61-1.023.795-2.398 1.406-3.418 1.545.244 2.057 1.465 4.007 1.39 6.088-.475 1.137-1.448.46-2.403 1.425.376 1.084-.337 2.497-1.394 3.392-.529.45-1.145.775-1.752.881-.59.12-1.18.014-1.667-.433.548-.613 1.144-1.214 1.59-1.847.449-.633.758-1.29.792-1.97-.524-.13-2.125-.346-1.296-1.48.94-1.03 1.582-.917 2.334-1.209.115-.798.512-1.64.151-2.389-1.546.326-3.18.74-4.445.346-.916.7-1.348 1.314-1.86 1.938.523 1.192 1.776-.014 2.318 1.082-.063 1.095-1.839 2.516-1.507 3.561 1.696 1.22 2.487 3.675.844 5.582-.638.782-1.65 1.195-2.636 1.762-.486.287-.979.603-1.368 1.037a3.868 3.868 0 00-.87 1.666c1.812.15 2.585 1.687 2.693 3.243a16.457 16.457 0 001.945-2.09 15.3 15.3 0 001.423-1.993c.773-1.333 1.382-2.59 2.023-3.81.551.24 1.074 1.732 1.689 2.484.561-.628.562-2.226 1.653-1.927-.004 1.36.324 2.171 1.72 2.988-.908 1.81-.131 2.895.801 3.917.94 1.02 2.023 1.982 1.922 3.398-1.08.497-2.32-.13-2.51-1.313-1.671-.088-4.31 1.276-4.962-.91-.727.608-1.41.918-2.134 1.709 1.097-.148 1.25.665 2.166 1.377-.692 1.446-.656 3.66-2.294 4.07-.354-.097-1.239-.71-1.45-1.01-.025-.484.643-1.192 1.068-1.82-.402-.619-.594-1.318-.705-2.029-.105-.707-.15-1.438-.31-2.14-.585.14-1.192.551-1.76 1.136-.557.59-1.104 1.337-1.638 2.111-.55.768-1.015 1.596-1.502 2.317-.475.726-.97 1.348-1.429 1.773-1.95.705-3.274-1.23-3.991-2.123-1.04.405-2.105 1.504-3.054 2.92-1.055.263-2.111.641-3.251.243-.998.662-1.91 1.647-2.828 2.672-.934 1.023-1.795 2.1-2.713 2.95.054.683-.083 1.483.48 1.834.946.04 1.528-2.077 2.51-1.797.572.747.505 1.845-.198 3.406 1.317-.14 1.76-2.7 2.351-4.332.779-.333 1.51-.94 2.4-.436.264-1.25 1.473-3.937 2.49-3.53.108 1.631-.695 2.96-1.535 4.367-.88 1.392-1.772 2.868-1.947 4.602.67.28 1.191.646.847 1.555-.642.721-1.35 1.253-1.931 2.192.057 1.062.193 2.859-.564 3.877-1.39-1.675-3.346-1.032-4.3 1.793.489 1.388 1.966 1.565 3.34 1.847 1.379.278 2.65.652 2.796 2.277-.554.876-1.427.962-1.838 2.231.715.716.78 1.947 1.583 2.57 1.057-2.169 2.558-3.15 4.442-2.273.137-1.155.69-1.283 1.001-2.059-.502-.655-1.216-1.165-1.17-2.216 1.715.203 2.454-1.087 2.4-2.335-.027-1.234-.842-2.469-2.366-2-.018 1.189.94 2.737-.409 4.215-1.208-.874-2.434-1.819-2.423-3.278.094-3.682 2.458-3.16 4.671-3.549.697.735.845 1.783 1.272 2.684.409-.744.958-1.092 1.726-.673-.165.562-.038.98-.427 1.692.305.596 1.477.666 1.053 1.69-.533.577-1.205.698-1.823 1.028-.606.331-1.176.873-1.348 2.313.105.996.957 1.439.874 2.568-.554.787-.796 2.272-1.121 3.49-.469.079-.87.317-1.455.152-.165 1.084-.574 1.648-1.07 2.048-1.35-.349-1.382-1.794-2.478-2.377-.121 1.142.598 2.069 1.12 3.011.51.942.809 1.886-.178 3.151-1.16-.133-1.274-1.215-1.846-1.894-.905.507-1.592 1.479-2.836 1.34-.45 1.086-.61 2.092-.023 2.693-.364.382-.728.767-1.004 1.32-.275.562-.455 1.271-.424 2.456.405.013.78.069 1.105.194.162.062.31.14.444.239.068.048.13.107.19.16.061.036.118.075.171.117l7.235.582c.244-.611 1.583-.516 1.973-.077l-.018.235 5.476.44c.12-.295.13-.427.1-.685-.03-.232-.116-.472-.197-.741-.17-.529-.34-1.144-.13-1.869.226-.016.34-.201.453-.382 1.556.035 1.266 1.601 2.742 1.679.153.476.14.976-.011 1.37a1.234 1.234 0 01-.316.489 1.087 1.087 0 01-.223.157 1.052 1.052 0 01-.268.156c10.823.871 21.642 1.741 32.462 2.613.011-.288.177-1.604.39-2.773.21-1.21.487-2.491.807-3.747a52.191 52.191 0 012.35-7.205c.91-2.231 1.928-4.242 2.991-5.963 1.07-1.717 2.173-3.148 3.273-4.328 2.228-2.354 4.364-3.728 7.293-4.93.371-.119.785-.296 1.103-.417.184-.014.355-.059.52-.135.083-.059.162-.043.238-.046a.994.994 0 00.223-.039c.073-.009.145-.082.216-.061.071.011.14.012.208.004.55-.047 1.065-.083 1.792.055.722.159 1.644.447 2.748.968a17.516 17.516 0 013.678 2.33 31.217 31.217 0 013.903 3.789c1.264 1.472 2.397 3.162 3.419 4.906.23.451.527.869.737 1.329.21.459.434.912.67 1.36.367.93.817 1.835 1.099 2.773.642 1.85 1.162 3.704 1.376 5.473.232 1.766.36 3.466.251 5.04a26.75 26.75 0 01-.738 4.454 1611.96 1611.96 0 0115.76 4.587c5.265 1.542 10.491 3.075 15.58 4.281zm21.076-5.757c.002 1.569-1.017 1.254-1.171 2.685-.195 1.353.758 2.011 1.478 2.743.36.364.662.746.731 1.237.063.488-.151 1.082-.766 1.855-.516-.28-.87-.704-1.13-1.208-.257-.503-.421-1.088-.604-1.702-.343-1.224-.584-2.537-1.211-3.446.057-.475.198-.914.358-1.296.153-.381.357-.701.597-.927.479-.451 1.099-.53 1.718.059zM4.489 129.001c-.06.167.048.203.164.232l-.058.407c-.161-.061-.194.053-.22.174l-.39-.052c.058-.168-.05-.202-.168-.229l.06-.412c.16.061.193-.053.223-.177l.389.057zm-14.958-.671l.78.099c.22.352.126 1.209-.174 1.506-.622-.098-.802-.675-.606-1.605zm8.066.346c-.092 1.301-.459 2.12-1.26 2.359-.323.034-.316-.246-.564-.284-.13-.742.298-1.879.174-3.005.99-.073 1.275.472 1.65.93zm-.142-6.073c.746-.01.747.556 1.492.546.76-.346.907-1.851 1.964-1.648.236 1.638-.475 4.22-2.242 4.134-1.001-.037-2.951-1.824-1.214-3.032zm2.825 5.336c-.647-.06-.789-1.042-.372-1.405.661.06.865.974.372 1.405zm11.771-2.269c0 .741-.818.263-.964.796-.315.94.532 1.087.459 1.853-.463.21-.603.867-1.315.755-.23-1.076-1.059-1.737-1.302-2.828.105-.699.782-.517 1.01-1.02-.422-.512-1.222-1.683.003-1.845.384.983 1.918 1.199 2.11 2.289zm-6.22-3.683c-.174 1.419-1.053 1.633-1.547 2.486-.86-.447-1.779-.861-2.514-1.415l.143-.644c.99-.345 2.221-.203 2.736-1.372.55.213.881.568 1.183.945zm-3.12-7.175c-.512 1.105-1.677.005-1.872-.586-.572.034-.88.663-1.08 1.42-.182.763-.25 1.651-.375 2.208-.65.256-1.022 1.071-1.997.675-.206 1.188-.612 1.911-1.307 2.097-1.7-1.295-1.987-4.723-.463-6.771 1.437.372 1.878 1.405 1.364 3.112 1.33-1.393 1.966-4.513 3.634-5.226 1.44.603 1.566 1.937 2.096 3.071zm8.993.282c-.44.226-1.27-.152-1.233-.644.264-.312.519-.689.896-.758.587.244.64.713.337 1.402zm-5.007-1.734c-.273.096-.589.098-.999-.118-.176-.432.252-1.61.653-1.838.795.307.631 1.072.346 1.956zm8.413-29.999c.436-.41.842-.449 1.219-.12-.082.425-.181 1.074-.83 1.13-.387-.314-.193-.683-.39-1.01zM8.013 109.28c-1.394-.127-1.759-1.465-.79-2.205.77.5 1.5 1.011.79 2.205zm2.324-3.853c-.042.667-.314 1.292-.88 1.459-1.705-.396-.294-2.398.88-1.459zM-5.276 99.43c-1.117.434-2.029 2.092-2.64 1.108.527-2.463 1.66-4.599 2.194-6.896.234-.972.077-2.067.145-3.045.09-.967.4-1.821 1.493-2.262 1.422.963 1.779 2.357 1.218 4.138-.377-.085-.699.26-1.107-.01-.067.787-.898 1.936-.73 2.608a11.73 11.73 0 013.085 1.306c-.102 1.614-.509 2.19-1.17 2.458-.654.269-1.54.223-2.488.595zm5.787-6.515c.286.28.217.859.005 1.448-.205.594-.577 1.19-.961 1.488-1.007-.173-1.174-1.13-.883-1.947.276-.822 1.07-1.45 1.839-.99zm5.281 2.256c1.387 1.052-.355 2.088-1.216 3.364-1.05-.518-.923-1.184-.452-1.813.465-.633 1.33-1.18 1.668-1.55zm3.938 3.37c-1.322.42-2.012-1.292-.559-2.143.753.117 1.492 1.045.559 2.143zm-4.66-4.078c-.46-.419-.945-1.141-1.076-1.874-.128-.73.136-1.452 1.086-1.843.81.32 1.188 1.089 1.174 1.844-.026.75-.411 1.513-1.183 1.873zm8.609 1.434c-.685-1.056.606-2.122 1.614-1.976.46.388.279 1.06-.131 1.54-.415.476-1.016.812-1.483.436zm3.874-1.084c-.403-.267-.78-.539-.824-.871.724-.706 1.538-.869 2.399-.203-.49.702-1.047.856-1.575 1.074zm-6.058-5.367c.045-.794 1.077-1.09 1.59-1.68-.197-.322-.16-.834.063-1.26.234-.417.64-.754 1.128-.75.73.601.093 1.385 1.178 1.927-.835.294-1.374.917-1.953 1.345-.573.435-1.157.709-2.005.418zm5.582-1.226c-.922-.062-1.14-.746-.933-1.392.21-.638.812-1.25 1.53-1.035.54.367.601.834.448 1.3-.158.462-.566.89-1.045 1.127zm9.305 3.576c-.334.474-.698.307-1.049.5-.583-.456-.127-1.309.488-1.335.36.286.506.563.561.835zm-7.29-4.364c.288-.925 1.669-1.979 2.355-1.547 1.205 1.312-1.252 3.156-2.355 1.547zm-8.506-16.907c-.604.702-1.067.784-1.603 1.19-.3-1.456-1.357-1.864-1.41-3.233 1.523-.787 3.484.707 3.013 2.043zm11.653 7.154c-1.015.527-1.772-.312-2.703-.349-.354-.655-.306-1.314-.04-1.981.965.285 2.425 1.442 2.743 2.33zm-8.074-8.133c-1.238.058-1.36-.805-.922-1.622.439-.811 1.411-1.58 2.28-1.202.531.881-.054 1.842-1.358 2.825zM27.84 62.4c.125.332.478.22.587.585-.406.755-1.427.791-1.851.522-.206-.46.628-.771 1.264-1.107zm-7.173-.3c.595-.37 1.125-.59 1.597-.688a2.562 2.562 0 011.28.076c.757.248 1.331.838 1.85 1.534-.277.665-1.422 1.18-1.765 1.872.723.925.663 1.774-.687 2.498-.889-.246-.937-1.144-.997-2.122-.066-.975-.139-2.033-1.216-2.518-1.274-.197-3.05.73-3.963-.274.487-1.038 1.29-1.31 2.02-1.27.742.052 1.446.463 1.881.891zm6.106 10.547l-.612.376c-.305-.295-.136-.527-.21-.793.386-.183.646.002.822.417zm-1.495 3.304c-.619.403-1.09.221-1.437-.432.41-.364.758-.494 1.073-.513.315.332.391.646.364.945zm-5.97-6.37c-.894-.627-.577-1.406.117-1.975a3.609 3.609 0 011.198-.64c.429-.11.837-.117 1.112.012.488.352-.043.626.306.969-.565.544-1.785 1.195-2.734 1.634zm12.097 12.903c-.564-1.17-.31-2.903 1.362-3.137.537 1.305.081 2.357-1.362 3.138zm.632-12.078c.246.558.917.202 1.023 1.05-.72.82-.345 1.976-1.72 2.648-1.101-.826-1.925-1.977-1.83-3.108.046-.564.323-1.124.898-1.629.564-.525 1.466-.914 2.71-1.167.97 1.105-.547 1.527-1.08 2.206zm-1.716-9.78c-.518-.378-.39-.742-.3-1.373.682-.304 1.243-.418 1.684-.315.443.113.758.416.95.906-.751.652-1.368.48-2.334.781zm8.88 13.346c-1.384-2 1.91-2.41 2.34-1.061-.072.81-1.59 1.36-2.34 1.06zm-1.279-10.42c-.4-.515-.042-.798.175-1.095.66.09 1.63-.247 1.79.507-.274.386-1.534.723-1.965.587zm2.349-1.11c-.848-1.695 2.36-2.744 2.923-1.162-.1.394-.597.626-1.163.859-.572.214-1.248.326-1.76.303zm5.471 9.351c-.702-.005-1.222-.277-1.339-1.133.875-.262 1.713.427 1.34 1.133zm47.602-8.133c-.84-.035-1.89-.546-2.657-1.242-.766-.694-1.27-1.563-1.046-2.233.545-.53 1.983.014 3.035.858 1.072.827 1.636 2.02.668 2.617zm-6.238-2.73c.217.748.055.999-.705 1.178-.764-.482-1.41-.97-1.1-1.54.275-.542 1.052-.069 1.805.362zm-4.966-1.185c-.049.666-.394 1.197-.888 1.75l-1.258-.613c-.28-.99.718-2.091 2.146-1.137zm-4.953-.152c.955.044 1.587.552 1.996 1.14.41.59.59 1.279.624 1.802-.832-.026-1.153-.44-1.473-.928-.317-.49-.632-1.054-1.452-1.291l.305-.723zM66.023 55.04c.72.19 1.04.533.962 1.028-.285.091-.677.06-1.162-.067-.303-.334-.214-.794.2-.961zm-15.855-2.502c.955-.253.453.62 1.233.528.604-.523-.71-.712-.067-1.372.916-.276 1.408-.822 3.061-.648.18 1.164-.998 1.466-1.798 1.993.06.159.304.192.306.388.849.152 1.922.03 2.875.1.95.098 1.776.317 2.095.992-.164.148-.322.3-.325.57-.817.053-1.391.04-1.942.066-.552.045-1.083.16-1.794.417-.695-.265-1.267-.624-1.933-.92a6.231 6.231 0 00-1.095-.38c-.404-.086-.857-.105-1.384-.08-.526-.965.623-1.04.768-1.654zm-4.962 9.55c1.073-.418 1.452.614 1.195.971-1.037.409-1.449-.613-1.195-.97zm2.055 8.808c-.13-.564.256-1.213.793-1.566.541-.31 1.22-.337 1.585.245 0 .476-.337.891-.797 1.132-.465.22-1.046.347-1.58.189zm2.849-3.149c-1.073.005-1.231-.998-1.994-1.372-.339-1.591 2.17-1.903 2.954-.901-.135.9-.52 1.617-.96 2.273zm2.518 1.6c-1.393-.029-.995-1.8.61-1.386.066.697-.12 1.181-.61 1.386zm4.486.282c-.639-.288-.72-1.054-.126-1.387.77.209.694 1.057.126 1.387zm1.53-4.822l-.953-.064c-.07-.414.202-.505.302-.766.341.194.922.22.652.83zm1.097 6.082c-.647-1.149.256-2.067.424-3.115 1.174.133 1.608.726 2.045 1.298-.325 1.267-.937 2.147-2.47 1.817zm.733 5.467c.121-.552.12-1.282.463-1.52.97.042 1.076.728 1.059 1.439-.201.213-.447.343-.709.36a.942.942 0 01-.401-.066 1.198 1.198 0 01-.412-.213zm3.766-15.282c-.103-.906.993-.43 1.049-1.167-.503-.47-.913-1.026-1.663-1.34-1.102.34-2.483.39-3.641.643-1.167.302-2.1.848-2.284 1.993a4.99 4.99 0 01-1.67-.319c-.252-.088-.493-.195-.728-.293l-.694-.258c-.91-.329-1.805-.545-2.852-.004.23.675.831 1.027.34 1.76-.42.02-.842-.007-1.258.053-.518-.824-1.315-2.111-.768-3.278-.572-.82-1.946-.958-2.148-2.147.637-.74 1.55-.35 2.52-.26.102.65 1.008 1.344.407 1.934 1.082.091 1.065-.547 2.159-.443.47-.452.634-1.118 1.09-1.594a6.218 6.218 0 011.206-.151c.378-.004.732.062 1.07.13.674.145 1.28.376 1.87.59.59.216 1.169.404 1.796.495.623.124 1.296.132 2.107-.067.879.035 1.085.41 1.274.788 1.157-.097 1.964-.396 2.48-1.112 1.434.76 2.98 1.455 2.088 3.11-.657.053-1.006.457-1.964.143.153 1.126-.939 1.618-1.786.794zm3.67 9.705c-.968-.577-1.52-1.38-1.905-2.24.814-1.007 1.758-1.805 2.55-2.909 1.279 1.096 1.232 2.662 1.075 4.252-.412.588-1.197.532-1.72.897zm2.42-8.294c.219-1.628 2.499-.503 1.98.651-.448.122-1.707-.253-1.98-.651zm2.323-3.585c-.9-.449-1.47-1-1.852-1.618-.808.148-1.272.06-1.76-.12-.49-.176-.987-.489-1.823-.838.86-1.165 1.803-1.006 2.901-.415 1.097.614 2.376 1.54 4.125 1.873.338 1.004-.77.951-1.591 1.118zm.37 16.488l-.76-.372c-.159-.395.248-1.308.656-1.428 1.08.28.783 1.482.105 1.8zm3.461-8.359c-.527.025-1.271.076-2.016.025-.743-.062-1.445-.314-1.876-1.058.197-.882.895-.91 1.352-1.362.954.284 1.035.763 2.042 1.066.665-.964 1.708-.938 2.747-.459.514.244 1.04.578 1.485.997.44.426.828.892 1.122 1.331-.697.15-1.407.248-2.183.174-.8-.034-1.668-.233-2.673-.714zm6.22-2.974l.471.27c1.548 1.504.555 3.2.491 4.844-1.18-.702-1.713-1.615-1.795-2.575a3.437 3.437 0 01.833-2.54zm-1.32 8.305c.207-.808.771-.53 1.23-.593.67.632-.514 1.336-1.23.593zm-4.16 10.433c.503-.582 1.798-.293 2.078.5-.267.398-.593.396-.942.224-.353-.166-.755-.463-1.137-.724zm12.712-13.098c-.662-.634.235-1.01.605-1.265 1.092.715-.07 1.38-.605 1.265zm5.312-2.356c-.404 1.123-1.201 1.75-2.279 1.958-.822-1.058-1.876-1.371-2.85-1.727-.98-.359-1.94-.692-2.602-1.965.777-1.227 2.047-1.217 3.023-1.994 1.378 1.246 2.478 1.564 3.625 1.769 1.116.228 2.27.352 3.299 1.516-.441 1.266-1.511.123-2.216.442zm-.802 3.17c.983-1.274 2.597-.123 4.133.734-.46 1.375-2.364 1.372-3.975-.077.021-.213.046-.424-.158-.656zm-9.344 14.48c-.168-.279-.209-.565-.382-.848.473-1.045 1.724-.46 1.943.402-.232.417-.489.511-.75.506-.267.002-.547-.087-.811-.06zm2.408-.714c-.397-.801-.03-1.492.574-1.726.592-.224 1.39.077 1.74 1.244-.72.917-1.49 1.187-2.314.482zm7.826-4.69c-.1-.659.299-1.184.879-1.312.567-.119 1.371.122 1.906 1.081-.185.475-.624.768-1.138.822-.508.046-1.11-.126-1.647-.592zm4.455-.729c.916-1.334 2.512.838 1.412 1.553-.472-.092-1.365-1.075-1.412-1.553zm7.086 6.477c-.564 1.039-.323 2.316-1.331 3.186-.683-.725-1.59-2.563-1.949-3.675 1.099-.532 2.19-.787 3.28.489zm-7.949 6.073c.645-.211 1.257.164 1.438.993-.383.299-.758.561-1.104.478-.709-.639-.352-1.01-.334-1.471zm-13.445 11.877c-.298-.356-.108-.624.349-.878.144.187.275.385.397.589-.3.292-.495.186-.746.289zm14.109-8.136c.397.104.932.943.86 1.347-.937.882-1.962-.858-.86-1.347zm.774 4.286c-.112-.88.533-1.265 1.142-1.175.608.087 1.186.655.891 1.59-.767.268-1.471.242-2.033-.415zm12.858.985c.478-.099.181-.605.777-.642.579.596.778 1.65.013 1.993-.327-.193-.549-.757-.79-1.351zm1.65 11.879c.744-.283 1.242 1.694 1.043 2.328-.654.237-1.017-.053-1.23-.526-.22-.472-.26-1.14-.191-1.694l.378-.108zm-2.89-5.077c.971-.395 1.446 1.327.309 1.46-.579-.345-.402-1.015-.309-1.46zm-7.364 5.047c-.58-.835.389-1.262.893-1 .375.715-.323.821-.893 1zm2.709.056c-.209-.657.104-.964.116-1.478 1.228-.832 1.639.528 2.5.647.672-.306.046-1.381 1.188-1.388.66.474.687 1.817.523 2.359-1.446 1.256-3.273.6-4.327-.14zm2.641 1.369c.74-.183 1.116.346 1.25 1.018.149.668-.046 1.495-.284 1.876-.778-.011-1.721.305-1.968-.706.02-.937.913-1.281 1.002-2.188zm-16.545 6.338c.003-.154-.11-.14-.226-.121-.022-.112-.064-.222-.095-.335.171-.011.159-.112.14-.216l.38-.102c.006.154.122.139.239.119.03.114.073.226.096.34-.168.01-.165.113-.153.22l-.381.095zm7.441-.851c-.03-.545.13-.974.348-1.371.199-.393.452-.753.63-1.164.593-.052 1.035.188 1.476.442.436.255.838.533 1.416.534.104 2.248-2.581 2.856-3.87 1.559zm10.726 1.575c.206.706-.294.804-.856.849l-.148-.909c.437-.153.748-.096 1.004.06zm-9.76 2.288c-.213-.903.351-1.25.712-1.754 1.059-.021 1.309.729 1.08 1.32-.229.594-.942 1.009-1.792.434zm-9.784.916c.23-.013.338-.096.36-.231 1.087-.057 1.13 1.338-.177 1.367-.313-.176-.424-.87-.183-1.136zm33.199 4.905c-.756 3.834 1.697 3.241 3.028 2.803-.048 1.414-.674 1.988-1.058 2.892-.005.744.752.446.745 1.196.045 1.489-.586 2.001-.988 2.852-.951-1.218-3.063-1.928-4.412-1.223-.284-.448-.474-1.014-.591-1.638-.111-.623-.134-1.302-.103-1.976.03-.674.119-1.342.22-1.939.072-.596.169-1.121.262-1.506-.548-.644-1.087.321-1.587-.499-.041-1.22-.17-2.605.252-3.191 1.031.238 2.681 1.808 4.232 2.229zm-6.648 8.725c-.347-.433-.59-.928-.814-1.524-.217-.596-.347-1.289-.361-2.12 1.099-1.222 2.018-.468 2.357.722.169.591.193 1.28.023 1.842-.2.562-.595.993-1.205 1.08zm-.931-6.415c.191-.008.142-.312.181-.508 1.004-.062 1.813.198 1.792 1.531-.373.21-.845.243-1.23.08-.379-.165-.679-.522-.743-1.103zm1-4.372c-.84.146-1.094-.622-1.319-1.423.697-1.022 1.74.655 1.319 1.423zm-1.809-.373c-.319.409-1.562.493-1.953.153l-.119-1.21c.136-.221.52-.195.537-.543.959-.178 1.473.359 1.535 1.6zm-16.098-1.445c.397-.136.531.065.797.094.064.743-.948.822-.797-.094zm9.105-1.407c.327.252.296.955.363 1.552-.57.282-.697.971-1.691.846-.11-.511-.715-.337-.69-1.029.703-.417 1.219-1.039 2.018-1.369zm-14.455 3.144c.981-.052.837 1.14 1.878 1.061-.163.572-.835.109-1.528.475-.521-.313-.989-1.031-.35-1.536zm19.518.105c.024.625-.078 1.182-.304 1.584-.226.401-.585.647-1.146.664-.302-.646-.215-1.2.065-1.601.274-.399.783-.646 1.385-.647zm-4.157 3.497c-1.446.207-3.156 1.273-4.504.315.198-.61 1.319-1.383 2.393-1.684 1.073-.299 2.099-.086 2.111 1.369zm-17.23 1.052l-.032-.818c.522-.011 1.153-.124 1.19.305.135.601-.56.514-1.158.513zm6.07 1.244c-.076-.58.323-.718.411-1.112a.683.683 0 01.736.458c.096.282.046.633-.175.86-.457.051-.75-.049-.973-.206zm2.383-.731c-.071-.451.005-.745.165-.976.637.115 1.629.471 2.217.96.555.483.706 1.102-.282 1.633-1.003-.273-.771-1.7-2.1-1.617zm3.553 4.157c.128-1.214.712-1.777 1.293-2.449.517.09.721.502.831 1.016.106.513.142 1.128.224 1.617-.805.375-1.728.388-2.348-.184zm5.828-5.278c2.441-.557 2.72 1.604 4.914 1.903-.454 1.17-.136 2.588-.071 3.695.001 1.102-.214 1.862-1.603 1.611.677-1.968-.669-2.815-1.846-3.614-.592-.402-1.159-.801-1.459-1.344-.298-.546-.317-1.231.065-2.251zm-.686 7.051c1.064.446 1.481.112 2.218-.483 1.037.328.56 1.779-.047 2.37-.969-.194-2.325-.04-2.679-.802.028-.561.379-.66.508-1.085zm-8.53.503c1.11.995 2.734.936 4.086.528.034.548.022 1.114.013 1.664-.012.55-.044 1.08-.152 1.532-.108.452-.292.824-.604 1.057-.326.23-.791.317-1.42.216-.157-.275-.045-.756.048-1.243.102-.485.205-.972.015-1.241-.829-.122-1.485.141-2.126-.369-.142-.238-.113-.593-.04-.979.081-.383.19-.803.18-1.165zm-3.072 1.823c.381-1.002 1.381-.811 1.971-.263.592.543.779 1.463-.424 1.698-.463-.526-1.343-.765-1.547-1.435zm-1.693.599l-.118.7c-.695.058-.736-1.15.118-.7zm5.514 1.498c.456.028.732.183.926.398-.105.719-.528.97-1.191.768-.283-.426.31-.448.265-1.166zm-2.752.593l.766.177-.14.557c-.515-.069-.804-.266-.626-.734zm9.822 4.4c-.523-.249-.747-.7-.671-1.357 1.002-1.045 1.915.791.671 1.357zm-129.435-17.991c-.234.27-.557.354-.87.489a2.055 2.055 0 00-.448.254c-.14.107-.267.292-.348.328l-1.176-.094c-.247-2.412-.855-4.051-1.513-5.671.734 1.313 2.668 1.534 3.534.248-.18.836-.754.895-.701 2.194.048 1.276 1.37 1.057 1.522 2.252z" fill="#fff"/><path d="M134.945 129.736C115.991 88.304 67.117 70.045 25.783 88.954c-41.335 18.909-59.478 67.826-40.524 109.258 18.954 41.433 67.827 59.692 109.162 40.782 41.334-18.909 59.478-67.825 40.524-109.258z" fill="#FFCE46"/><path d="M112.213 100.937l-22.636 28.375c-.276.345-.521.653-.757.957-3.145 5.614-7.552 11.136-13.471 16.878l-28.371 35.564c-1.04 1.394-2.122 2.695-3.169 3.952-1.177 1.413-2.288 2.749-3.358 4.23l-3.806 4.772-.734.915-.084.104-.106.079c-3.32 2.47-5.51 6.056-7.626 9.524-2.088 3.422-4.247 6.959-7.514 9.54-.34.409-.66.806-.972 1.193l-5.85 7.334c-.218.273-.425.533-.62.782-.213.813-.853 1.357-1.336 1.767-.203.172-.539.458-.595.591.002.003.008.021.024.053l.011.024-1.902.952c-.814-1.639.42-2.682 1.084-3.246.24-.205.644-.548.659-.699l.029-.307.188-.244c.245-.315.512-.651.794-1.005l5.854-7.338c.345-.428.694-.862 1.07-1.312l.163-.156c3.012-2.35 4.997-5.601 7.098-9.043 2.2-3.604 4.474-7.331 8.061-10.041.211-.261.425-.529.64-.799l3.778-4.733c1.08-1.498 2.268-2.924 3.416-4.304 1.029-1.235 2.093-2.514 3.119-3.89l28.525-35.745c5.818-5.636 10.13-11.035 13.182-16.504l.089-.134c.257-.331.523-.666.789-.998l22.671-28.42 1.663 1.332z" fill="#fff"/><path d="M142.008 154.648l.237 2.119-29.693 3.265-.178-.043c-6.947-1.656-13.609-.918-21.6 2.391l-.137.056-1.776.205-47.114 5.186c-.746.082-1.492.164-2.226.232l-.24.022-.225-.083c-6.449-2.375-11.743-.581-17.872 1.497-.832.282-1.673.567-2.53.846l-.203.045c-.456.054-.898.103-1.337.151l-.294.032-.269-.125c-.223-.105-.486-.003-1.03.253-.664.311-1.775.832-2.834-.022-4.64-3.746-8.882-1.928-13.793.176-2.286.98-4.65 1.993-7.105 2.393-.665.13-1.29.213-1.87.286l-11.337 1.248-.236-2.118 11.32-1.246c.55-.07 1.111-.144 1.746-.268 2.23-.364 4.473-1.325 6.642-2.254 5.077-2.176 10.328-4.427 15.966.124.072-.004.387-.152.595-.25.61-.286 1.502-.704 2.521-.376.315-.035.632-.07.956-.108a251.46 251.46 0 002.407-.806c6.173-2.093 12.009-4.071 19.059-1.562.646-.062 1.3-.134 1.954-.206l48.585-5.354c8.302-3.415 15.282-4.182 22.587-2.48l1.148-.125 28.176-3.101z" fill="#fff"/><path d="M124.713 215.207l-1.327 1.663-85.99-68.865c-7.582-5.246-15.097-11.265-22.333-17.887l-6.712-5.359c-3.035-2.068-5.614-4.291-8.11-6.442-2.126-1.832-4.133-3.563-6.374-5.176l1.24-1.73c2.316 1.669 4.454 3.511 6.52 5.292 2.458 2.12 5.001 4.311 7.95 6.316l.062.046 6.831 5.458c7.183 6.576 14.64 12.548 22.164 17.75l.06.045 1.287 1.03 84.732 67.859z" fill="#fff"/><path d="M51.873 81.657l.249 2.185c.04.36.084.76.125 1.182l.005.07c.185 6.287 1.043 12.158 1.873 17.836.264 1.805.526 3.6.765 5.396l1.161 10.207.138 1.165c2.203 5.605 2.217 10.992 2.233 16.692.002 1.082.006 2.176.024 3.285l6.362 56.157c.279 3.369.862 6.567 1.426 9.66.93 5.106 1.81 9.932 1.392 15.215l2.903 25.628-2.114.237-2.926-25.835.008-.104c.415-5.044-.445-9.764-1.356-14.762-.573-3.143-1.166-6.393-1.45-9.834l-6.372-56.278a240.853 240.853 0 01-.026-3.366c-.014-5.536-.028-10.763-2.131-16.037l-.051-.129-.017-.137c-.054-.437-.105-.872-.156-1.306l-1.16-10.195a422.376 422.376 0 00-.76-5.354c-.837-5.727-1.702-11.648-1.893-18.044-.039-.396-.08-.77-.119-1.111l-.248-2.184 2.115-.239zm-9.123 92.662c-.557-1.14-4.806-.213-9.49 2.071-4.686 2.284-8.033 5.06-7.478 6.201.556 1.141 4.805.214 9.49-2.07 4.686-2.285 8.033-5.061 7.477-6.202z" fill="#fff"/><path d="M44.037 173.752c1.41 3.082-5.87 6.925-8.144 8.033-2.285 1.115-9.86 4.51-11.366 1.421l-.022-.046c-1.41-3.083 5.87-6.925 8.144-8.033 2.286-1.114 9.86-4.51 11.366-1.421l.022.046zm-16.298 7.888c1.33-.169 3.759-.84 6.923-2.383 3.164-1.543 5.189-3.041 6.141-3.985-1.33.168-3.759.84-6.922 2.382-3.165 1.544-5.19 3.042-6.142 3.986zm26.186 1.302c-.806-.222-2.485 3.351-3.75 7.98-1.264 4.629-1.635 8.563-.829 8.785.807.222 2.486-3.351 3.75-7.98 1.264-4.63 1.636-8.563.83-8.785z" fill="#fff"/><path d="M55.43 182.612c.449.98.316 2.39.24 3.206-.165 1.737-.602 3.968-1.235 6.282-2.656 9.723-4.763 9.141-5.455 8.951-1.731-.477-1.494-3.002-1.379-4.214.164-1.736.602-3.967 1.234-6.281.631-2.313 1.387-4.457 2.129-6.034.518-1.102 1.595-3.395 3.326-2.918.567.156.922.532 1.14 1.008zm-4.69 11.994c.332-.926.678-2.01 1.015-3.245.337-1.235.591-2.345.776-3.313a43.92 43.92 0 00-1.017 3.246 43.637 43.637 0 00-.774 3.312zm-7.65-62.489c-.716.294.152 4.058 1.939 8.406 1.786 4.349 3.815 7.636 4.532 7.342.716-.295-.152-4.058-1.939-8.407-1.786-4.348-3.815-7.635-4.531-7.341z" fill="#fff"/><path d="M47.679 137.239c.273.597.543 1.219.805 1.857.883 2.149 1.577 4.233 1.954 5.869.388 1.681.592 3.298-.523 3.755-1.432.589-3.369-2.052-5.749-7.852-.883-2.15-1.576-4.234-1.953-5.87-.388-1.679-.593-3.297.523-3.755 1.114-.458 2.106.836 3.012 2.304.62 1.005 1.284 2.278 1.93 3.692zm1.028 8.543c-.268-1.301-.865-3.343-1.948-5.979-1.08-2.634-2.093-4.506-2.816-5.62.268 1.301.865 3.342 1.947 5.977 1.081 2.633 2.093 4.509 2.817 5.622zm22.538-18.557c-.74-.23-2.46 3.223-3.842 7.712-1.382 4.488-1.902 8.314-1.161 8.543.74.23 2.46-3.223 3.842-7.711 1.381-4.489 1.901-8.315 1.16-8.544z" fill="#fff"/><path d="M72.25 127.028c.598 1.308.174 4.33-1.27 9.024-1.842 5.983-3.527 8.786-5.008 8.326-1.482-.461-1.297-3.728.544-9.712.683-2.219 1.471-4.267 2.218-5.767.769-1.542 1.638-2.918 2.79-2.561.32.101.562.331.726.69zm-5.344 14.317c.619-1.173 1.454-3.127 2.291-5.846.838-2.721 1.246-4.807 1.393-6.126-.619 1.172-1.455 3.126-2.291 5.847-.837 2.719-1.246 4.805-1.393 6.125zm20.427 29.377c-4.424-1.574-8.22-2.258-8.478-1.527-.258.731 3.119 2.6 7.543 4.174 4.424 1.574 8.22 2.257 8.478 1.526.258-.731-3.12-2.599-7.543-4.173z" fill="#fff"/><path d="M95.712 174.27c.135.295.164.606.047.933-.4 1.138-2.024 1.012-3.72.707-1.649-.297-3.762-.89-5.947-1.667-5.898-2.099-8.63-3.901-8.112-5.367.517-1.462 3.77-1.139 9.667.959 2.187.779 4.2 1.654 5.667 2.466 1.075.595 2.063 1.238 2.398 1.969zm-14.741-4.33c1.146.669 3.063 1.589 5.742 2.543 2.681.954 4.747 1.451 6.058 1.656-1.147-.67-3.063-1.59-5.743-2.544-2.681-.953-4.747-1.45-6.057-1.655zm-45.609-14.362c-3.93-1.518-7.328-2.192-7.591-1.506-.263.686 2.709 2.472 6.638 3.99 3.93 1.518 7.328 2.192 7.59 1.507.264-.686-2.708-2.473-6.637-3.991z" fill="#fff"/><path d="M43.114 158.877c.248.542.104.915.023 1.129-.226.589-.915 2.381-9.167-.807-8.254-3.188-7.565-4.98-7.34-5.569.565-1.473 2.746-1.04 3.794-.832 1.5.298 3.409.88 5.372 1.638 5.252 2.03 6.884 3.493 7.318 4.441zM32.1 155.743c.78.374 1.696.773 2.744 1.177 1.047.406 1.993.725 2.82.973a38.505 38.505 0 00-2.741-1.177 38.685 38.685 0 00-2.823-.973zm43.4 36.695c-2.314-4.254-4.775-7.384-5.495-6.992-.72.392.574 4.158 2.889 8.412 2.315 4.254 4.775 7.385 5.495 6.993.72-.393-.573-4.159-2.888-8.413z" fill="#fff"/><path d="M77.959 195.24c1.355 2.961 2.163 5.737.88 6.436-1.082.59-2.239-.612-3.328-1.997-1.069-1.361-2.288-3.268-3.432-5.37-2.118-3.887-4.27-8.723-2.516-9.679 1.081-.589 2.238.612 3.328 1.997 1.068 1.361 2.287 3.268 3.431 5.37a52.768 52.768 0 011.637 3.243zm-.541 3.825c-.38-1.288-1.231-3.416-2.732-6.176-1.502-2.761-2.827-4.628-3.702-5.647.38 1.288 1.23 3.416 2.732 6.176 1.502 2.761 2.827 4.628 3.702 5.647zm12.987-54.206c-.464-.626-3.737 1.021-7.31 3.677-3.575 2.656-6.096 5.316-5.632 5.941.464.626 3.737-1.021 7.31-3.677 3.574-2.656 6.096-5.316 5.632-5.941z" fill="#fff"/><path d="M91.288 144.529c.43.939-.508 2.126-1.508 3.182-1.1 1.16-2.68 2.523-4.45 3.838-1.771 1.317-3.532 2.437-4.959 3.155-1.405.707-2.938 1.299-3.656.33-1.162-1.552 2.529-4.8 5.822-7.248 1.77-1.317 3.531-2.436 4.959-3.155 1.405-.706 2.938-1.298 3.656-.329.056.074.1.15.136.227zm-12.125 8.685c1.131-.532 2.879-1.549 5.054-3.165 2.176-1.618 3.652-2.998 4.488-3.929-1.13.533-2.879 1.548-5.054 3.165-2.175 1.617-3.652 2.998-4.488 3.929z" fill="#fff"/><path d="M68.952 160.791c-2.228-4.871-7.973-7.017-12.832-4.794-4.859 2.222-6.991 7.972-4.764 12.843 2.228 4.87 7.974 7.016 12.832 4.794 4.859-2.223 6.992-7.973 4.764-12.843z" fill="#FFCE46"/><path d="M145.462 120.733c1.061 2.318 1.905 4.717 2.78 7.201 1.004 2.853 2.042 5.796 3.471 8.693l.029.058.022.062c.27.772.491 1.53.672 2.17a96.751 96.751 0 013.356 23.695c.013.769.015 1.536.006 2.293-.026.741.025 1.554.079 2.412.092 1.456.187 2.96-.046 4.42l-.02.132-.053.123c-3.208 7.428-4.008 14.564-4.856 22.119l-.033.225a27.13 27.13 0 01-.243.907l-.112.392a95.387 95.387 0 01-9.889 20.292c-.224.349-.452.698-.692 1.037l-.109.13c-2.613 2.667-5.004 5.564-7.534 8.631-1.526 1.848-3.103 3.759-4.72 5.598a98.62 98.62 0 01-1.429 1.591l-.061.062-1.525 1.415c-5.962 5.537-12.126 11.263-19.274 14.61-.601.331-1.185.644-1.775.948-3.189 1.645-6.224 2.839-9.277 3.649-.687.261-1.376.513-2.06.75l-.189.047c-2.879.436-5.748.961-8.786 1.518-6.5 1.191-13.22 2.421-19.934 2.695l-2.221-.01c-1.004-.005-2.007-.003-3.01-.003-6.914.004-14.064.008-20.981-1.875a84.606 84.606 0 01-1.855-.564c-4.373-1.368-10.122-3.229-15.803-5.5a60.24 60.24 0 01-2.111-1.024c-3.003-1.582-5.718-3.544-8.342-5.442-3.174-2.293-6.171-4.459-9.647-6.037l-.209-.125a12.66 12.66 0 01-1.31-1.165 13.58 13.58 0 01-1.036-1.194l-.822-.714a90.056 90.056 0 01-1.7-1.581l-.077-.079c-5.681-6.669-12.204-14.489-17.714-22.921l-.041-.067a96.048 96.048 0 01-9.418-24.462 85.057 85.057 0 01-.5-2.327c-1.58-10.075-2.154-19.009-1.765-27.356a95.838 95.838 0 013.062-17.612c.21-.735.422-1.459.662-2.218 2.015-6.388 4.65-11.828 7.44-17.588.486-1.006.977-2.019 1.468-3.046l.042-.078a97.002 97.002 0 017.923-11.557A96.742 96.742 0 01-3.61 92.321c5.88-5.939 11.102-9.69 16.42-11.795.666-.371 1.305-.722 1.945-1.065A95.34 95.34 0 0126.8 74.043l.22-.081.236.02c5.84.493 10.778-1.177 16.008-2.944 2.892-.977 5.881-1.986 9.02-2.59l.173-.018 1.908-.048c8.7-.2 17.16-.216 25.048 1.738.703.14 1.448.302 2.19.472a95.786 95.786 0 018.883 2.522c5.643 1.548 10.969 3.914 16.225 7.216a97.143 97.143 0 0113.078 8.828c8.973 7.187 16.494 15.788 22.355 25.562.38.636.754 1.275 1.118 1.918a34.093 34.093 0 012.201 4.095zm3.75 15.584c-1.184-2.588-2.093-5.169-2.976-7.678-1.36-3.861-2.645-7.507-4.798-10.908-.383-.672-.748-1.297-1.12-1.918-5.729-9.557-13.083-17.966-21.858-24.993a94.891 94.891 0 00-12.834-8.66c-5.122-3.217-10.262-5.5-15.759-7.01a93.914 93.914 0 00-8.74-2.482 93.613 93.613 0 00-2.178-.471c-7.678-1.9-15.983-1.88-24.532-1.686l-1.815.046c-2.967.579-5.859 1.555-8.656 2.5-5.139 1.737-10.451 3.532-16.629 3.067a93.333 93.333 0 00-11.556 5.216c-.65.348-1.297.704-1.972 1.082l-.063.035-.067.026C8.595 84.475 3.581 88.085-2.12 93.845l-.048.045a94.683 94.683 0 00-18.602 22.77 749.265 749.265 0 01-1.454 3.015c-2.755 5.689-5.357 11.061-7.326 17.301-.233.738-.44 1.443-.64 2.147a93.798 93.798 0 00-2.988 17.175c-.381 8.167.186 16.96 1.735 26.849.145.723.307 1.472.478 2.218a93.952 93.952 0 009.189 23.876c5.424 8.297 11.87 16.029 17.493 22.629.523.498 1.061.996 1.606 1.49l1.04.936a11.003 11.003 0 001.917 1.969c3.622 1.662 6.813 3.967 9.899 6.198 2.565 1.854 5.218 3.771 8.074 5.276.676.344 1.326.66 1.974.96 5.562 2.221 11.26 4.067 15.598 5.423.586.185 1.167.364 1.795.547 6.625 1.802 13.63 1.799 20.405 1.795 1.008-.001 2.014-.002 3.019.004l2.175.009c6.516-.267 13.163-1.484 19.59-2.661 2.887-.528 5.872-1.075 8.753-1.514a78.113 78.113 0 001.963-.717l.106-.034c2.92-.771 5.832-1.915 8.901-3.498a64.445 64.445 0 001.751-.936l.065-.033c6.859-3.204 12.909-8.823 18.76-14.257l1.496-1.388a94.92 94.92 0 001.371-1.527c1.595-1.813 3.161-3.711 4.676-5.546 2.429-2.944 4.941-5.988 7.595-8.705.204-.292.398-.591.592-.891a93.222 93.222 0 009.657-19.809l.085-.3c.071-.254.143-.507.208-.769l.002-.022c.861-7.676 1.674-14.928 4.962-22.599.171-1.194.086-2.53.004-3.823-.058-.913-.112-1.776-.083-2.599.008-.711.006-1.457-.006-2.205a94.485 94.485 0 00-3.28-23.161 34.221 34.221 0 00-.608-1.974 41.56 41.56 0 01-.567-1.192z" fill="#fff"/><path d="M135.915 129.201c3.657 7.993 6.056 16.602 7.064 25.588 2.49 22.176-3.79 43.981-17.684 61.396a84.234 84.234 0 01-9.85 10.395l-.136.103c-2.565 1.621-5.049 3.354-7.45 5.03-.765.534-1.527 1.066-2.289 1.593-.493.34-1.066.733-1.633 1.086l-.242.15-.286.009c-5.473.166-9.318 3.006-13.389 6.012-1.117.825-2.272 1.679-3.462 2.472l-.088.059-.097.039c-.593.245-1.165.463-1.747.685l-.607.229a83.649 83.649 0 01-22.712 3.454c-.731.009-1.46.009-2.163-.004l-.095-.006a89.874 89.874 0 00-2.074-.2l-.07-.009c-6.622-1.02-12.872-2.484-19.488-4.033a1182.82 1182.82 0 00-4.144-.965l-.1-.028c-.614-.207-1.215-.412-1.817-.618-3.618-1.24-6.405-2.243-9.035-3.253l-.102-.046a78.786 78.786 0 01-5.153-2.881c-2.67-1.663-5.064-3.703-7.378-5.676-2.344-1.997-4.558-3.884-6.916-5.288l-.182-.136a59.42 59.42 0 01-.893-.851c-13.242-13.004-21.864-30.332-24.283-48.798-2.414-18.419 1.42-37.32 10.795-53.22.395-.669.8-1.336 1.216-1.997.567-.82 1.075-1.586 1.579-2.345.76-1.146 1.546-2.331 2.411-3.511.48-.635.978-1.268 1.488-1.896.517-.634 1.04-1.26 1.568-1.88a94.941 94.941 0 011.603-1.837c8.761-9.763 19.38-17.122 31.564-21.875a83.05 83.05 0 012.085-.781l.178-.047c1.524-.265 2.95-.804 4.46-1.375 1.907-.72 3.877-1.464 6.1-1.643a83.896 83.896 0 0119.74-1.83 77.41 77.41 0 012.317.1l.117.013c9.975 1.703 19.698 4.028 28.899 6.911l.112.043a83.981 83.981 0 0118.47 11.236c10.357 8.293 18.432 18.694 23.799 30.426zm-21.818 95.726a82.068 82.068 0 009.535-10.073c27.949-35.035 22.186-86.361-12.844-114.417a81.892 81.892 0 00-17.943-10.926c-9.076-2.84-18.665-5.134-28.505-6.816a75.05 75.05 0 00-2.193-.094A81.722 81.722 0 0042.841 84.4l-.144.021c-1.948.144-3.714.812-5.581 1.518-1.509.57-3.068 1.16-4.755 1.464-.653.235-1.302.48-1.95.731-11.87 4.63-22.217 11.802-30.754 21.314a106.158 106.158 0 00-3.105 3.641 64.876 64.876 0 00-1.432 1.823c-.826 1.126-1.563 2.239-2.345 3.416a133.12 133.12 0 01-1.576 2.34 88.497 88.497 0 00-1.158 1.907c-9.135 15.493-12.871 33.911-10.52 51.86 2.36 17.997 10.76 34.882 23.66 47.548.252.246.51.493.773.739 2.476 1.488 4.728 3.408 7.11 5.438 2.255 1.923 4.588 3.91 7.112 5.483a78.669 78.669 0 004.958 2.773c2.589.994 5.34 1.984 8.908 3.206.583.2 1.164.398 1.756.597 1.374.318 2.739.637 4.099.955 6.564 1.538 12.764 2.99 19.292 3.997.669.058 1.35.123 2.037.197a63.5 63.5 0 002.049.002 81.51 81.51 0 0022.096-3.353l.494-.189a70.405 70.405 0 001.597-.624c1.118-.75 2.223-1.566 3.292-2.356 4.088-3.018 8.312-6.137 14.293-6.415.452-.288.909-.602 1.311-.881.76-.525 1.519-1.054 2.281-1.586 2.399-1.675 4.878-3.406 7.458-5.039z" fill="#fff"/><path d="M69.823 160.262c1.638 3.58 1.253 7.933-1.36 11.208-3.694 4.63-10.467 5.381-15.097 1.673-4.63-3.708-5.392-10.492-1.697-15.124a10.642 10.642 0 017.197-3.968 10.675 10.675 0 017.9 2.295 10.729 10.729 0 013.057 3.916zm-17.589 8.075a8.614 8.614 0 002.46 3.143c3.712 2.974 9.144 2.372 12.106-1.342a8.568 8.568 0 001.827-6.342 8.595 8.595 0 00-3.189-5.786c-3.713-2.974-9.144-2.372-12.106 1.342a8.57 8.57 0 00-1.827 6.342c.104.928.352 1.817.73 2.643z" fill="#fff"/></svg>