<svg width="175" height="71" viewBox="0 0 175 71" fill="none" xmlns="http://www.w3.org/2000/svg">
<g clip-path="url(#clip0)">
<path d="M0.736328 70.151C27.8512 70.151 75.9131 38.7105 93.473 39.219C110.159 39.7023 106.629 56.2959 106.629 56.2959C106.629 56.2959 151.233 24.0753 191.344 16.6642C231.454 9.25307 227.283 42.1189 227.283 42.1189C227.283 42.1189 293.277 -4.02065 327.079 1.52054C358.526 6.67604 331.571 53.396 311.998 69.8287L0.736328 70.151Z" fill="#F5EAF9"/>
<path d="M117.736 55.5876C117.83 55.7239 118.558 55.6267 118.612 55.4702C118.405 55.4793 117.728 55.1806 117.736 55.5876Z" fill="#E27BF5"/>
<path d="M124.385 55.6865L124.872 55.6209C124.984 55.1746 124.21 55.3823 124.385 55.6865Z" fill="#E27BF5"/>
<path d="M48.823 65.6329C48.9226 65.941 48.7663 66.0743 48.7109 66.2757C48.7819 66.3068 48.8595 66.3191 48.9365 66.3114C49.0135 66.3038 49.0872 66.2765 49.1507 66.2322C49.2143 66.1878 49.2654 66.1279 49.2993 66.058C49.3332 65.9882 49.3487 65.9109 49.3444 65.8333C49.2972 65.7415 49.2179 65.6703 49.1218 65.6333C49.0256 65.5963 48.9193 65.5962 48.823 65.6329Z" fill="#E27BF5"/>
<path d="M47.0626 59.8438C46.9605 60.0405 46.6891 60.1207 46.6347 60.3503C46.7627 60.575 46.9596 60.7152 47.0197 61.0187C46.949 61.343 46.5788 61.4628 46.6395 61.879C47.6946 61.9109 47.6984 61.2193 48.1884 60.864C47.8048 60.532 47.5863 60.0066 47.0626 59.8438Z" fill="#E27BF5"/>
<path d="M47.7695 59.929C47.9983 59.9754 48.2339 59.9754 48.4626 59.929C48.5392 59.6923 48.5734 59.4439 48.5637 59.1953C48.0444 59.2644 47.7965 59.5211 47.7695 59.929Z" fill="#E27BF5"/>
<path d="M52.6602 61.7029C53.1858 61.4748 53.4183 61.9571 53.7432 61.6468C53.6257 61.3839 52.7333 61.0881 52.6602 61.7029Z" fill="#E27BF5"/>
<path d="M53.8957 59.8289C54.3232 59.7976 54.7448 59.7107 55.15 59.5703C55.1519 58.9483 53.5876 59.1261 53.8957 59.8289Z" fill="#E27BF5"/>
<path d="M56.9043 63.8291C56.9197 63.947 56.936 64.0658 56.9524 64.1827C57.1188 64.1107 57.3502 64.0861 57.4156 63.9412C57.2247 63.9281 57.1443 63.7837 56.9043 63.8291Z" fill="#E27BF5"/>
<path d="M47.6851 64.5254C47.5753 64.8246 47.2432 64.9696 47.3043 65.3867C47.3779 65.507 47.4902 65.5984 47.6227 65.6459C47.7551 65.6934 47.8997 65.694 48.0326 65.6476C48.0885 65.4468 48.0855 65.2341 48.0239 65.035C47.9622 64.8359 47.8445 64.6589 47.6851 64.5254Z" fill="#E27BF5"/>
<path d="M50.1482 60.6904C50.3196 60.6995 50.4882 60.6451 50.6224 60.5377C50.4053 59.9814 49.9374 59.8799 49.2746 60.0887C49.3978 60.3226 49.6963 60.5662 49.3685 60.7948C49.176 61.0099 48.8872 60.7653 48.4929 60.9123C48.4568 61.3299 48.7933 61.3071 48.7928 61.6812C48.9504 61.7511 49.1284 61.7591 49.2915 61.7035C50.0409 63.108 51.3232 62.3414 52.0163 61.3381C52.0085 61.095 51.9424 60.8575 51.8238 60.6455C51.3487 60.7397 50.246 61.7808 50.1482 60.6904Z" fill="#E27BF5"/>
<path d="M52.8547 56.4627C52.8364 56.0915 52.4663 56.0809 52.2627 55.7324C51.8535 56.0118 51.0487 56.0176 50.873 56.4574C51.2774 57.2215 52.9052 57.5042 52.8547 56.4627Z" fill="#E27BF5"/>
<path d="M64.9141 59.251C65.8931 59.6478 67.2596 58.6508 66.3417 58.0703C66.3431 58.7953 64.9588 58.558 64.9141 59.251Z" fill="#E27BF5"/>
<path d="M65.6973 60.6732C66.1651 61.693 67.2332 61.0715 67.3165 60.1875C66.7047 59.782 66.4477 60.6766 65.6973 60.6732Z" fill="#E27BF5"/>
<path d="M65.7483 55.093C65.7426 55.043 65.7263 54.9948 65.7005 54.9516C65.6746 54.9085 65.6398 54.8714 65.5985 54.8429C65.5571 54.8144 65.5101 54.7952 65.4607 54.7865C65.4113 54.7778 65.3606 54.7799 65.3121 54.7926C65.2601 55.151 65.5949 55.2756 65.7483 55.093Z" fill="#E27BF5"/>
<path d="M69.9054 55.7949C68.6708 55.9911 67.4222 55.7843 66.873 56.8302C67.3982 56.9239 67.8709 57.0796 68.4027 57.1646C68.4509 56.8785 68.422 56.5363 68.8075 56.4807C69.2013 56.7301 69.5002 57.0921 70.1673 57.0182C70.1673 56.5832 70.2496 56.0404 69.9054 55.7949Z" fill="#E27BF5"/>
<path d="M67.0508 54.4688L66.7583 54.5079C66.7102 54.802 66.9454 54.7634 67.0974 54.8213C67.0821 54.7035 67.0662 54.5861 67.0508 54.4688Z" fill="#E27BF5"/>
<path d="M57.1426 59.663C57.4174 59.677 57.5782 59.8278 57.8588 59.836C57.8776 59.662 58.1158 59.6383 57.995 59.3691C57.7019 59.7611 57.2769 59.3111 57.1426 59.663Z" fill="#E27BF5"/>
<path d="M58.2518 56.8182C58.5141 57.5606 57.807 57.6336 57.8431 58.2198C58.2409 58.1692 58.6176 58.0116 58.9334 57.7636C59.2492 57.5156 59.4923 57.1864 59.6371 56.811C59.1756 56.7847 58.713 56.7872 58.2518 56.8182Z" fill="#E27BF5"/>
<path d="M58.2878 64.5456C58.1781 64.9805 58.333 65.8988 59.0358 65.7055C59.1658 65.4242 58.734 65.0825 58.7855 64.5712C58.5208 64.678 58.5169 64.4779 58.2878 64.5456Z" fill="#E27BF5"/>
<path d="M61.8574 60.1091C61.8238 59.7648 62.0849 59.6262 62.2624 59.4262C61.6386 59.3789 61.3375 60.0551 61.8574 60.1091Z" fill="#E27BF5"/>
<path d="M63.1456 63.0851C63.214 63.2919 62.9935 63.3002 63.1076 63.5394C63.5288 63.5167 63.7858 63.6902 64.2147 63.6622C64.2527 63.4471 64.5063 63.3823 64.5453 63.1673C64.2599 62.9251 63.7276 62.9759 63.1456 63.0851Z" fill="#E27BF5"/>
<path d="M29.838 67.3669C29.9342 67.5032 30.6596 67.4056 30.7135 67.2495C30.5065 67.2586 29.8293 66.9599 29.838 67.3669Z" fill="#E27BF5"/>
<path d="M34.7487 64.8203C34.5625 64.8261 34.5471 64.9488 34.3711 64.9613C34.4028 65.2304 34.3918 65.5496 34.7333 65.4516C34.8637 65.3067 34.9829 64.9816 34.7487 64.8203Z" fill="#E27BF5"/>
<path d="M32.8033 65.0825C33.2846 65.37 33.7472 64.7355 33.4136 64.4609C32.9501 64.488 32.7287 64.6842 32.8033 65.0825Z" fill="#E27BF5"/>
<path d="M32.9754 61.9106C32.9562 62.0861 32.7954 62.1624 32.8397 62.3794C33.2248 62.5191 33.5198 62.7762 33.3581 63.2977C34.2418 63.8579 34.688 62.9483 34.7005 62.219C34.1422 62.0996 33.7379 61.7946 32.9754 61.9106Z" fill="#E27BF5"/>
<path d="M71.1371 59.8555C70.917 59.9742 70.7387 60.1584 70.6267 60.3827C70.5147 60.607 70.4744 60.8605 70.5114 61.1087C71.0269 60.9453 72.221 60.1295 71.1371 59.8555Z" fill="#E27BF5"/>
<path d="M36.487 67.4654L36.9738 67.4002C37.0854 66.9553 36.3114 67.1596 36.487 67.4654Z" fill="#E27BF5"/>
<path d="M38.154 64.3651C38.2844 64.6884 38.9043 64.4086 38.9217 64.1717C38.7364 64.0731 38.0688 63.9098 38.154 64.3651Z" fill="#E27BF5"/>
<path d="M32.595 62.7734C31.9841 62.8319 31.5009 62.9798 31.6063 63.5351C31.8951 64.046 32.5531 63.6163 32.969 63.3524C32.9304 63.0571 32.6123 63.0924 32.595 62.7734Z" fill="#E27BF5"/>
<path d="M36.2254 61.0276C36.159 61.597 35.6671 61.8715 35.7325 62.5327C36.4545 62.5863 36.8396 61.755 37.0394 61.1876C36.792 61.1059 36.6389 60.9131 36.2254 61.0276Z" fill="#E27BF5"/>
<path d="M42.6934 58.2611C42.6982 58.2944 42.702 58.3268 42.7068 58.3578C43.3143 58.5105 44.5263 58.4665 44.5094 57.7565C44.4603 57.727 44.4093 57.7007 44.3568 57.6777C43.8049 57.8772 43.2504 58.0716 42.6934 58.2611Z" fill="#E27BF5"/>
<path d="M41.2315 58.75C40.9514 58.8418 40.6711 58.9327 40.3906 59.0226C40.4012 59.6697 41.0549 59.5542 41.2402 59.995C41.2349 60.4203 40.871 60.5958 40.883 61.0332C42.1071 61.4102 41.3162 59.7379 42.6134 59.9013C42.6139 59.0501 41.2931 59.3454 41.2315 58.75Z" fill="#E27BF5"/>
<path d="M45.0547 60.3832C45.331 60.4635 45.6034 60.5509 45.8802 60.6326C45.8734 60.3334 46.1102 60.2029 45.9687 59.811C45.7733 59.7798 45.5732 59.8206 45.4053 59.9257C45.2374 60.0308 45.1129 60.1933 45.0547 60.3832Z" fill="#E27BF5"/>
<path d="M44.8555 58.8821C45.3965 58.8212 45.5881 59.1721 46.0819 59.1677C46.2884 58.7685 45.6814 58.5906 45.6487 58.1465C45.4519 58.1571 45.2649 58.2364 45.1201 58.3707C44.9752 58.505 44.8816 58.6859 44.8555 58.8821Z" fill="#E27BF5"/>
<path d="M47.2304 58.1139C47.2617 57.4619 46.8507 57.3367 46.5917 57.0312C46.657 57.4322 46.6083 57.8434 46.4512 58.2178C46.5797 58.2656 46.7178 58.2811 46.8537 58.263C46.9895 58.2449 47.1189 58.1937 47.2304 58.1139Z" fill="#E27BF5"/>
<path d="M38.5037 60.2736C38.3987 60.841 38.9224 61.3562 39.5703 60.8492C39.5174 60.2978 39.1005 60.1789 38.5037 60.2736Z" fill="#E27BF5"/>
<path d="M46.6562 59.0016C46.6716 59.2204 46.6976 59.4281 46.8227 59.5175C47.0463 59.4571 47.2306 59.3726 47.2743 59.1871C46.9343 59.2827 46.993 58.9074 46.6562 59.0016Z" fill="#E27BF5"/>
<path d="M64.2773 60.416C64.5767 61.2193 64.7505 62.1738 65.6174 62.3043C65.7777 61.9597 65.5408 61.3416 65.5269 60.8776C65.2973 60.9022 65.0651 60.8733 64.8484 60.7933C64.6318 60.7132 64.4363 60.5841 64.2773 60.416Z" fill="#E27BF5"/>
<path d="M100.364 56.9274C100.572 56.3121 101.459 56.7104 101.75 56.922C101.793 56.7207 101.784 56.5115 101.723 56.3147C101.662 56.118 101.552 55.9403 101.403 55.7988C100.854 55.9825 99.9529 56.3474 100.364 56.9274Z" fill="#E27BF5"/>
<path d="M102.652 56.2604C102.968 56.664 103.629 56.7273 103.723 56.1154C104.184 56.0188 104.734 56.2237 105.086 55.9327C105.03 55.5719 104.916 55.2226 104.749 54.8984C104.316 55.5359 102.67 55.3368 102.652 56.2604Z" fill="#E27BF5"/>
<path d="M96.7949 58.3949C97.1501 58.6892 97.8168 58.6158 97.7263 59.4393L98.1152 59.3871C97.8202 58.9099 97.5859 58.3975 97.4178 57.8618C96.934 57.8492 96.8243 58.0947 96.7949 58.3949Z" fill="#E27BF5"/>
<path d="M87.4389 57.3115C86.6178 57.0843 86.198 57.7407 86.5942 58.4134C86.883 58.3095 86.9614 58.456 87.1901 58.4231C87.0235 57.8813 87.605 57.8538 87.4389 57.3115Z" fill="#E27BF5"/>
<path d="M80.2815 61.5976C80.1903 61.7118 80.1336 61.8498 80.1178 61.9954C80.102 62.1409 80.1279 62.2879 80.1924 62.4192C80.2969 62.4512 80.4078 62.4551 80.5142 62.4307C80.6206 62.4063 80.7189 62.3543 80.7991 62.28C80.8793 62.2057 80.9388 62.1116 80.9716 62.0071C81.0045 61.9025 81.0095 61.7912 80.9862 61.6841C80.7662 61.6372 80.6237 61.498 80.2815 61.5976Z" fill="#E27BF5"/>
<path d="M78.6212 55.7945C78.588 55.5617 78.6375 55.2299 78.2695 55.3931C78.3802 55.5347 78.3292 55.8679 78.6212 55.7945Z" fill="#E27BF5"/>
<path d="M82.7017 58.9351C81.4502 59.1241 81.8382 57.3668 80.5439 57.6065C80.2435 58.259 81.2736 58.3513 80.9381 59.0821C81.702 59.4044 81.9244 60.3667 83.415 59.8288C83.2848 59.4584 83.0333 59.1434 82.7017 58.9351Z" fill="#E27BF5"/>
<path d="M96.1448 57.2225C96.3266 57.1602 96.5589 57.1351 96.4988 56.9057C96.3112 56.7695 96.1198 56.9844 96.1448 57.2225Z" fill="#E27BF5"/>
<path d="M75.9278 59.3923C75.2977 60.5841 77.8252 60.6122 77.314 59.3865C76.7022 59.5658 76.539 59.213 75.9278 59.3923Z" fill="#E27BF5"/>
<path d="M83.2949 56.6973C82.9063 56.7224 82.7918 56.9388 82.8793 57.2923C83.3878 57.5386 83.749 56.9397 83.2949 56.6973Z" fill="#E27BF5"/>
<path d="M73.7015 59.7812C73.2635 60.1828 73.753 60.7357 73.9008 61.2823C75.3164 61.5163 74.7272 59.6589 73.7015 59.7812Z" fill="#E27BF5"/>
<path d="M78.2204 60.2561C77.9881 60.6053 78.435 60.8356 78.7899 60.8071C78.7428 60.4541 78.6504 60.1556 78.2204 60.2561Z" fill="#E27BF5"/>
<path d="M77.5646 57.5547C77.3269 57.7649 76.7021 57.7074 76.7464 58.1144C76.9986 58.4962 77.4433 58.6508 77.58 59.1704C77.7374 58.993 78.5196 59.3637 78.8455 59.0008C78.7742 58.0975 77.942 58.097 77.5646 57.5547Z" fill="#E27BF5"/>
<path d="M81.7148 61.9438C81.8864 61.954 82.0557 61.8992 82.1891 61.7902C82.1776 61.693 82.1306 61.6036 82.0573 61.5391C81.8107 61.5816 81.6965 61.7165 81.7148 61.9438Z" fill="#E27BF5"/>
<path d="M93.1898 57.3488C93.0128 57.557 93.2495 57.7965 93.5405 57.7507C93.5261 57.4937 93.4905 57.2677 93.1898 57.3488Z" fill="#E27BF5"/>
<path d="M90.5053 56.5396C90.626 56.5533 90.7483 56.5417 90.8644 56.5056C90.9804 56.4694 91.0878 56.4095 91.1796 56.3296C91.2715 56.2498 91.3458 56.1516 91.398 56.0414C91.4502 55.9313 91.4791 55.8114 91.4829 55.6895L90.6068 55.8074C90.5403 55.9157 90.4969 56.0367 90.4794 56.1628C90.462 56.2888 90.4708 56.4171 90.5053 56.5396Z" fill="#E27BF5"/>
<path d="M83.2061 55.2702C83.1112 55.3195 83.0338 55.397 82.9845 55.4921C82.9351 55.5872 82.9162 55.6953 82.9303 55.8017C82.9444 55.908 82.9909 56.0073 83.0633 56.0862C83.1358 56.165 83.2307 56.2194 83.3351 56.2421C83.7423 56.1295 83.8333 55.1928 83.2061 55.2702Z" fill="#E27BF5"/>
<path d="M95.0792 61.1414C95.3526 61.4081 95.9456 61.1549 96.0288 60.8335C95.7915 60.4705 95.0464 60.6696 95.0792 61.1414Z" fill="#E27BF5"/>
<path d="M84.0723 57.3125C84.0918 57.4593 84.1115 57.6066 84.1314 57.7544L84.4234 57.7153C84.4585 57.3975 84.2805 57.3386 84.0723 57.3125Z" fill="#E27BF5"/>
<path d="M72.9165 61.3247C72.8655 61.7447 72.6989 62.083 72.6797 62.5257C72.9589 62.4774 73.3232 62.4875 73.446 62.3324C73.6202 61.9438 73.4031 61.2594 72.9165 61.3247Z" fill="#E27BF5"/>
<path opacity="0.3" d="M171.105 43.4909C171.01 43.5401 170.932 43.6175 170.883 43.7126C170.834 43.8077 170.815 43.9159 170.829 44.0222C170.843 44.1285 170.889 44.2279 170.962 44.3067C171.034 44.3854 171.129 44.4398 171.234 44.4623C171.641 44.3483 171.732 43.4135 171.105 43.4909Z" fill="#E27BF5"/>
<path d="M140.559 49.9216C141.084 49.694 141.317 50.1759 141.642 49.8656C141.524 49.6026 140.632 49.3069 140.559 49.9216Z" fill="#E27BF5"/>
<path d="M138.049 48.9095C138.22 48.9184 138.389 48.8639 138.523 48.7562C138.306 48.2 137.838 48.0989 137.175 48.3072C137.298 48.5412 137.597 48.7848 137.269 49.0134C137.076 49.2284 136.788 48.9839 136.393 49.1313C136.357 49.5484 136.693 49.5257 136.693 49.8998C136.851 49.9697 137.029 49.9776 137.192 49.922C137.941 51.327 139.224 50.5604 139.917 49.5566C139.909 49.3136 139.843 49.076 139.724 48.864C139.249 48.9583 138.146 49.9993 138.049 48.9095Z" fill="#E27BF5"/>
<path d="M134.963 48.0645C134.861 48.2612 134.589 48.3414 134.535 48.571C134.663 48.7962 134.86 48.9364 134.92 49.2399C134.849 49.5637 134.479 49.6836 134.54 50.0997C135.595 50.1321 135.599 49.4404 136.089 49.0847C135.703 48.7527 135.487 48.2288 134.963 48.0645Z" fill="#E27BF5"/>
<path d="M135.666 48.1497C135.895 48.1958 136.13 48.1958 136.359 48.1497C136.436 47.913 136.47 47.6646 136.46 47.416C135.942 47.4846 135.693 47.7413 135.666 48.1497Z" fill="#E27BF5"/>
<path d="M136.723 53.8536C136.823 54.1617 136.667 54.295 136.611 54.4969C136.682 54.5278 136.76 54.54 136.837 54.5323C136.914 54.5246 136.988 54.4973 137.051 54.4529C137.115 54.4085 137.166 54.3485 137.2 54.2787C137.234 54.2089 137.249 54.1316 137.245 54.054C137.198 53.9622 137.118 53.891 137.022 53.854C136.926 53.817 136.82 53.8169 136.723 53.8536Z" fill="#E27BF5"/>
<path d="M140.753 44.6815C140.734 44.3103 140.365 44.2996 140.161 43.9512C139.752 44.2305 138.947 44.2363 138.771 44.6761C139.177 45.4403 140.805 45.723 140.753 44.6815Z" fill="#E27BF5"/>
<path d="M145.041 47.8837C145.316 47.8982 145.477 48.0485 145.757 48.0567C145.776 47.8827 146.014 47.8591 145.893 47.5898C145.602 47.9818 145.177 47.5318 145.041 47.8837Z" fill="#E27BF5"/>
<path d="M146.15 45.0373C146.413 45.7796 145.705 45.8531 145.742 46.4389C146.139 46.3882 146.516 46.2304 146.832 45.9823C147.148 45.7342 147.391 45.405 147.536 45.0295C147.074 45.0034 146.611 45.006 146.15 45.0373Z" fill="#E27BF5"/>
<path d="M144.805 52.0498C144.82 52.1677 144.836 52.2865 144.853 52.4034C145.019 52.3319 145.251 52.3068 145.316 52.1619C145.125 52.1488 145.044 52.0044 144.805 52.0498Z" fill="#E27BF5"/>
<path d="M141.795 48.0477C142.222 48.0163 142.644 47.9295 143.049 47.7896C143.051 47.1671 141.484 47.3444 141.795 48.0477Z" fill="#E27BF5"/>
<path d="M146.186 52.7643C146.076 53.1993 146.231 54.1176 146.934 53.9242C147.065 53.6425 146.632 53.3008 146.684 52.7894C146.419 52.8972 146.415 52.6966 146.186 52.7643Z" fill="#E27BF5"/>
<path d="M135.585 52.7461C135.476 53.0448 135.144 53.1898 135.205 53.6069C135.278 53.7271 135.391 53.8186 135.523 53.8661C135.655 53.9137 135.8 53.9145 135.933 53.8683C135.989 53.6675 135.986 53.4548 135.924 53.2557C135.862 53.0566 135.745 52.8797 135.585 52.7461Z" fill="#E27BF5"/>
<path d="M130.535 46.0506C130.559 46.226 130.583 46.4034 130.606 46.5798C131.213 46.732 132.425 46.6881 132.409 45.9781C131.809 45.604 131.36 45.8481 130.535 46.0506Z" fill="#E27BF5"/>
<path d="M128.894 45.6405C128.907 45.562 128.892 45.4813 128.85 45.4138C128.808 45.3462 128.743 45.2963 128.667 45.2735C128.591 45.2507 128.509 45.2565 128.437 45.2898C128.365 45.3231 128.307 45.3817 128.275 45.4546C128.52 45.4715 128.527 45.7685 128.894 45.6405Z" fill="#E27BF5"/>
<path d="M129.146 46.7754C128.731 46.7836 128.623 47.003 128.293 47.0692C128.176 47.9247 128.938 47.7367 129.139 48.2147C129.134 48.6395 128.77 48.8155 128.782 49.2524C130.007 49.6294 129.215 47.9571 130.515 48.1209C130.513 47.1886 128.923 47.6338 129.146 46.7754Z" fill="#E27BF5"/>
<path d="M132.955 48.6004C133.231 48.6806 133.503 48.7681 133.781 48.8493C133.774 48.5506 134.011 48.4201 133.869 48.0277C133.674 47.9967 133.474 48.0375 133.306 48.1427C133.138 48.248 133.013 48.4105 132.955 48.6004Z" fill="#E27BF5"/>
<path d="M130.65 44.686C130.367 44.6435 129.616 44.427 129.482 44.8426C129.801 45.0429 130.156 45.1788 130.526 45.2428C130.467 44.9866 130.71 44.9407 130.65 44.686Z" fill="#E27BF5"/>
<path d="M135.129 46.3326C135.16 45.6806 134.749 45.5555 134.49 45.25C134.555 45.6511 134.507 46.0625 134.35 46.437C134.478 46.4849 134.616 46.5003 134.752 46.4821C134.888 46.464 135.017 46.4126 135.129 46.3326Z" fill="#E27BF5"/>
<path d="M134.553 47.2204C134.568 47.4392 134.594 47.6469 134.719 47.7363C134.943 47.6759 135.127 47.5914 135.171 47.4059C134.833 47.5006 134.89 47.1262 134.553 47.2204Z" fill="#E27BF5"/>
<path d="M133.967 45.0512C133.889 45.0425 133.844 44.9927 133.846 44.8878C133.642 44.8777 133.44 44.9364 133.273 45.0546C133.357 45.2715 133.485 45.4689 133.647 45.6346C133.677 45.3861 134.026 45.36 133.967 45.0512Z" fill="#E27BF5"/>
<path d="M132.754 47.1023C133.295 47.0414 133.486 47.3923 133.98 47.3879C134.187 46.9892 133.58 46.8109 133.547 46.3672C133.35 46.3774 133.163 46.4566 133.018 46.5908C132.873 46.7251 132.78 46.906 132.754 47.1023Z" fill="#E27BF5"/>
<path opacity="0.3" d="M159.036 48.0762C158.815 48.1949 158.637 48.379 158.525 48.6033C158.413 48.8276 158.373 49.0812 158.41 49.3294C158.925 49.1656 160.12 48.3502 159.036 48.0762Z" fill="#E27BF5"/>
<path opacity="0.3" d="M165.465 45.7754C165.228 45.9856 164.602 45.9281 164.647 46.3351C164.899 46.7169 165.344 46.872 165.481 47.3911C165.638 47.2137 166.42 47.5844 166.746 47.2215C166.675 46.3186 165.841 46.3177 165.465 45.7754Z" fill="#E27BF5"/>
<path opacity="0.3" d="M166.52 44.0133C166.486 43.7805 166.536 43.4486 166.168 43.6119C166.279 43.7534 166.228 44.0867 166.52 44.0133Z" fill="#E27BF5"/>
<path opacity="0.3" d="M163.826 47.613C163.196 48.8048 165.724 48.8329 165.212 47.6072C164.6 47.7865 164.438 47.4337 163.826 47.613Z" fill="#E27BF5"/>
<path opacity="0.3" d="M161.598 48.0019C161.16 48.4035 161.649 48.9569 161.797 49.5031C163.214 49.737 162.625 47.8796 161.598 48.0019Z" fill="#E27BF5"/>
<path opacity="0.3" d="M166.894 41.627C166.229 41.7294 165.861 42.0363 166.049 42.7289C167.084 42.5254 167.372 43.2069 167.514 44.0614C167.891 44.2632 168.314 44.3612 168.741 44.3456C168.392 43.0556 166.911 43.0363 166.894 41.627Z" fill="#E27BF5"/>
<path opacity="0.3" d="M166.121 48.4748C165.888 48.824 166.335 49.0544 166.69 49.0259C166.643 48.6728 166.551 48.3743 166.121 48.4748Z" fill="#E27BF5"/>
<path d="M149.758 48.3302C149.725 47.9853 149.986 47.8472 150.163 47.6468C149.538 47.6009 149.238 48.2766 149.758 48.3302Z" fill="#E27BF5"/>
<path opacity="0.3" d="M168.181 49.8161C168.09 49.9305 168.034 50.0685 168.018 50.214C168.002 50.3595 168.028 50.5065 168.093 50.6378C168.197 50.6698 168.308 50.6737 168.415 50.6493C168.521 50.6249 168.62 50.5729 168.7 50.4985C168.78 50.4241 168.84 50.3299 168.872 50.2253C168.905 50.1207 168.91 50.0093 168.887 49.9022C168.667 49.8572 168.524 49.7166 168.181 49.8161Z" fill="#E27BF5"/>
<path opacity="0.3" d="M170.6 47.1544C169.349 47.3429 169.737 45.5855 168.442 45.8253C168.142 46.4777 169.172 46.5705 168.837 47.3008C169.6 47.6232 169.823 48.5855 171.313 48.0475C171.183 47.6773 170.932 47.3624 170.6 47.1544Z" fill="#E27BF5"/>
<path opacity="0.3" d="M169.613 50.1626C169.785 50.1729 169.954 50.1181 170.087 50.009C170.076 49.9117 170.029 49.8222 169.955 49.7578C169.71 49.8019 169.596 49.9368 169.613 50.1626Z" fill="#E27BF5"/>
<path d="M152.812 47.4698C153.791 47.8666 155.158 46.87 154.24 46.2891C154.243 47.0145 152.857 46.7787 152.812 47.4698Z" fill="#E27BF5"/>
<path d="M153.647 43.3118C153.641 43.2618 153.625 43.2135 153.599 43.1704C153.573 43.1272 153.538 43.0901 153.497 43.0616C153.456 43.0332 153.409 43.0139 153.359 43.0052C153.31 42.9966 153.259 42.9987 153.21 43.0114C153.159 43.3702 153.493 43.4944 153.647 43.3118Z" fill="#E27BF5"/>
<path d="M152.176 48.6348C152.475 49.4376 152.648 50.3921 153.516 50.5226C153.677 50.1785 153.439 49.5598 153.425 49.0963C153.196 49.1207 152.964 49.0918 152.747 49.0117C152.53 48.9317 152.335 48.8027 152.176 48.6348Z" fill="#E27BF5"/>
<path d="M151.044 51.3038C151.112 51.5107 150.892 51.5194 151.006 51.7582C151.427 51.7354 151.684 51.9089 152.113 51.8809C152.151 51.6658 152.404 51.6006 152.444 51.386C152.158 51.1439 151.626 51.1946 151.044 51.3038Z" fill="#E27BF5"/>
<path opacity="0.3" d="M160.815 49.5454C160.764 49.9654 160.597 50.3037 160.578 50.7464C160.857 50.6981 161.222 50.7082 161.344 50.5531C161.519 50.1645 161.302 49.4801 160.815 49.5454Z" fill="#E27BF5"/>
<path d="M153.596 48.8918C154.064 49.9115 155.132 49.29 155.215 48.4084C154.603 48.0025 154.346 48.8971 153.596 48.8918Z" fill="#E27BF5"/>
<path d="M157.802 44.0156C156.567 44.209 155.319 44.005 154.77 45.0509C155.295 45.1442 155.767 45.2998 156.299 45.3849C156.35 45.0987 156.318 44.7565 156.704 44.701C157.098 44.9508 157.397 45.3124 158.064 45.2384C158.066 44.8034 158.148 44.2611 157.802 44.0156Z" fill="#E27BF5"/>
<path d="M126.402 48.4922C126.297 49.0597 126.821 49.5754 127.469 49.0679C127.416 48.5174 127 48.3975 126.402 48.4922Z" fill="#E27BF5"/>
<path d="M154.951 42.6875L154.659 42.7266C154.611 43.0208 154.846 42.9821 154.995 43.0401C154.982 42.9227 154.967 42.8049 154.951 42.6875Z" fill="#E27BF5"/>
<path opacity="0.3" d="M171.193 44.916C170.805 44.9411 170.69 45.1575 170.778 45.5111C171.286 45.7574 171.647 45.1585 171.193 44.916Z" fill="#E27BF5"/>
<path d="M126.191 46.9023L127.163 46.7718C127.029 46.2517 127.404 46.0806 127.412 45.6602C127.107 46.1444 126.047 46.1087 126.191 46.9023Z" fill="#E27BF5"/>
<path opacity="0.3" d="M175.339 45.5302C174.518 45.3031 174.098 45.9594 174.495 46.6322C174.783 46.5283 174.862 46.6752 175.09 46.6418C174.924 46.1005 175.505 46.0725 175.339 45.5302Z" fill="#E27BF5"/>
<path opacity="0.3" d="M172.395 40.5292C172.798 40.4877 172.984 40.2944 173.454 40.2987C173.396 39.8207 172.255 40.1324 172.395 40.5292Z" fill="#E27BF5"/>
<path d="M203.254 29.7419C202.988 29.6873 202.902 29.0856 203.039 28.872L203.135 28.8584C203.026 28.0339 202.917 27.2095 202.806 26.3853C202.355 26.265 202.052 26.858 201.382 26.8459C201.349 26.7493 201.256 26.7227 201.164 26.6951C200.983 26.0088 201.705 25.946 201.571 25.2935C201.736 25.1671 201.943 25.1093 202.149 25.132C202.355 25.1548 202.545 25.2564 202.678 25.4158C202.233 22.0668 201.788 18.7185 201.343 15.3711C197.91 15.685 194.497 16.1895 191.12 16.8824C176.7 19.6721 163.106 25.3858 149.598 30.9903C145.891 32.5278 142.269 34.2479 138.714 36.1023C138.73 36.1439 138.738 36.1879 138.739 36.2323C138.664 36.292 138.578 36.3354 138.486 36.3597C138.393 36.384 138.297 36.3887 138.203 36.3735C136.205 37.4245 134.229 38.5162 132.275 39.6484L132.365 39.6943C132.381 39.7635 132.372 39.8364 132.339 39.8994C132.307 39.9625 132.252 40.0116 132.186 40.0375C132.12 40.0635 132.047 40.0646 131.98 40.0407C131.914 40.0168 131.858 39.9695 131.823 39.9075C130.313 40.7868 128.813 41.6867 127.326 42.6073C127.813 42.7716 128.314 42.9171 127.933 43.6145C127.745 43.8078 127.228 43.7701 126.874 43.8469C126.984 44.1891 126.663 44.236 126.773 44.5792C127.795 44.5386 128.499 44.353 129.352 44.5932C129.704 44.3032 129.665 43.7406 129.77 43.2781C129.283 43.236 128.431 42.5971 129.119 42.1065C129.472 41.9959 129.557 42.2032 129.91 42.0911C130.299 41.7044 130.619 41.1211 131.408 41.4405C131.752 41.2235 131.741 40.7615 132.408 40.7668C132.609 40.8016 132.697 40.9683 132.759 41.1704C132.066 41.5502 130.743 42.5478 131.946 43.2563C132.129 43.4787 132.057 42.8605 132.507 43.0016C132.808 42.9171 132.603 43.4366 132.944 43.3023C133.217 43.1573 134.038 42.7648 134.306 43.12C133.978 43.758 134.608 44.2723 134.832 44.8469C135.743 44.6565 136.041 45.1852 136.764 45.2191C136.861 45.4095 136.681 45.9315 137.041 45.8107C137.084 45.6563 137.16 45.5131 137.264 45.3908C137.367 45.2684 137.495 45.1698 137.64 45.1016C137.833 45.1137 137.91 45.2582 138.15 45.2113C138.178 44.9378 138.412 44.8049 138.457 44.542C137.518 44.744 137.269 43.7638 136.871 43.0461C137.425 43.1563 137.776 42.8726 138.429 42.8373C138.665 42.5438 138.791 42.177 138.786 41.8001C138.187 41.6774 137.365 41.3226 137.54 40.6189C138.582 40.6097 138.843 41.528 139.588 41.8731C139.62 42.1502 139.59 42.431 139.499 42.6947C139.961 42.5077 140.463 42.4404 140.959 42.499C141.246 43.0131 141.484 43.5534 141.669 44.1128C141.936 44.0485 142.345 43.6232 142.545 43.9948C142.302 44.6159 141.688 45.2761 142.401 45.9025C143.123 45.8541 144.027 45.7212 144.698 46.0446C145.512 45.8068 145.374 44.5642 145.315 43.9832C144.69 44.1133 144.887 44.8107 144.253 44.9344C143.878 44.6927 144.364 44.2694 144.147 44.1398C141.894 44.5565 143.753 42.21 144.754 41.9905C145.261 42.0703 145.254 42.7605 145.588 43.048C146.2 42.5754 147.124 42.3796 147.74 42.8489C147.63 43.1696 147.607 43.5139 147.674 43.8465C147.99 44.0269 148.343 44.1332 148.706 44.1577C148.976 43.7556 149.073 43.2341 149.757 43.1181C149.968 43.3781 149.924 43.9422 150.105 44.2404C150.123 44.627 149.615 44.6522 149.615 45.0248C149.942 45.0113 150.08 45.2229 150.514 45.0857C151.043 44.5671 151.217 43.8054 152.308 43.6749C152.497 43.4531 152.163 43.3274 152.211 42.9688C152.748 42.2699 154.233 42.2254 154.686 41.4705C155.799 41.4101 156.04 42.324 155.712 43.2211C157.247 43.2119 156.839 41.8601 157.859 41.4951C158.36 41.6798 157.966 42.5613 158.121 42.7184C158.254 42.5515 158.429 42.424 158.629 42.3497C158.828 42.2753 159.044 42.2569 159.254 42.2965C159.459 42.4627 159.405 42.9349 159.48 43.2563C158.487 43.5618 158.733 45.7444 159.649 46.0199C160.468 45.8358 159.739 44.584 160.083 44.0736C159.741 44.122 159.26 43.6483 159.697 43.4067C160.158 43.2365 160.071 43.7136 160.426 43.6686C160.56 43.092 160.556 42.4207 160.896 41.9876C161.859 41.7847 161.502 42.5628 162.084 42.7261C161.898 43.0285 161.839 43.3924 161.92 43.7382C163.099 44.2341 163.358 43.9025 164.245 43.3361C163.991 42.9164 163.89 42.4207 163.961 41.9345C163.325 42.0394 162.938 41.8499 162.795 41.3709C163.256 40.847 163.985 41.3506 164.143 41.8195C165.197 41.5855 165.485 40.8209 166.555 40.5972C166.856 39.9858 166.372 39.9205 166.283 39.2859C166.368 38.8625 166.768 38.6576 167.053 38.3729C166.973 38.2106 166.937 38.0299 166.949 37.8491C166.961 37.6684 167.02 37.494 167.12 37.3436C167.221 37.1932 167.359 37.0722 167.522 36.9927C167.684 36.9133 167.864 36.8782 168.044 36.8911C169.016 37.0704 168.477 38.9089 167.427 38.9524C167.389 39.5833 167.198 40.1954 166.871 40.7354C167.112 40.861 166.992 41.412 167.353 41.3893C167.738 41.6237 167.909 41.0287 168.4 41.0693C168.368 41.7992 168.635 42.861 169.549 42.2641C169.504 41.1249 168.847 40.7112 168.453 39.9843C168.663 39.7335 168.884 39.9925 169.232 39.8794C169.28 39.5933 169.25 39.2511 169.636 39.1955C169.963 39.2526 170.118 39.5145 170.217 39.8369C170.509 39.7699 170.81 39.7602 171.105 39.8084C171.098 38.3077 172.378 38.8635 173.039 39.459C173.483 38.7896 174.367 39.3623 175.01 39.3744C175.035 39.6117 175.127 39.8371 175.274 40.0243C175.422 40.2114 175.619 40.3528 175.844 40.4319C176.216 40.2869 176.368 39.992 176.867 39.9345C177.199 41.0254 175.756 41.5705 174.657 41.9388C174.626 41.8731 174.561 41.848 174.451 41.8779C174.183 41.7165 174.454 40.9181 174.03 40.9442C173.8 41.3473 173.308 41.5725 173.076 41.9717C173.209 42.529 173.955 42.3617 174.007 43.0147C175.011 42.7817 175.188 43.5265 176.048 43.4613C176.017 42.572 177.259 42.5019 177.85 42.86C178.043 42.0026 177.96 40.9572 178.288 40.1936C178.596 39.8809 178.77 40.3772 179.188 40.253C179.307 39.226 180.955 38.9858 181.157 40.1685C180.901 40.1777 180.651 40.247 180.427 40.3709C180.203 40.4948 180.01 40.6698 179.866 40.8818C179.99 41.0694 180.383 41.5797 179.983 41.7653C179.57 41.8789 179.417 41.6851 179.169 41.6044C178.966 41.8506 178.834 42.1483 178.788 42.4647C179.282 42.6775 179.706 43.0256 180.012 43.469C180.277 43.4561 180.538 43.3904 180.778 43.2757C180.829 42.7039 180.32 42.7957 180.345 42.2544C180.532 41.876 181.225 41.846 181.321 41.4038C181.081 40.4923 181.307 39.4096 182.122 39.2289C182.773 39.0839 183.535 39.9437 184.31 39.2961C184.13 39.0111 184.039 38.679 184.047 38.3416C184.055 38.0043 184.162 37.677 184.356 37.401C182.892 37.286 182.045 37.8843 181.214 38.3618C181.106 38.1202 181.252 37.4493 181.233 37.0086C180.941 37.069 180.625 37.6175 180.367 37.214C180.511 36.9862 180.596 36.7253 180.612 36.4557C180.628 36.1861 180.576 35.9168 180.46 35.6732C181.77 34.9221 180.523 33.2634 181.303 32.3233C181.417 32.3648 181.521 32.4303 181.608 32.5155C181.695 32.6006 181.762 32.7034 181.806 32.817C181.85 32.9306 181.869 33.0523 181.863 33.174C181.856 33.2957 181.823 33.4145 181.767 33.5224C182.265 34.0541 183.348 34.4045 182.999 35.3358C183.332 35.4072 183.67 35.4524 184.01 35.4711C183.673 35.1647 183.832 34.8578 183.76 34.3358C184.316 34.0821 184.923 33.4137 185.476 33.8361C185.557 34.0927 185.593 34.3616 185.582 34.6306C185.458 34.7858 185.094 34.7756 184.815 34.824C184.706 35.4711 184.293 35.908 184.042 36.4561C184.801 37.0419 186.606 36.2299 187.507 36.4416C188.158 36.9583 187.936 37.9612 187.875 38.4599C188.301 38.7323 188.805 38.8547 189.308 38.8079C189.657 39.1196 189.916 39.5205 190.056 39.9679C190.805 40.3739 191.837 40.4454 192.642 40.7895C192.817 40.617 193.062 40.4923 193.057 40.195C192.894 39.8084 192.198 40.0539 192.087 39.6054C192.186 39.2187 192.506 38.9853 193.088 38.9321C192.799 38.4295 191.978 38.8292 191.41 38.9776C191.165 38.7562 190.848 38.6199 190.805 38.1584C190.396 38.3396 189.423 38.573 189.31 38.0897C190.146 37.1787 191.482 37.9384 192.573 37.2927C192.527 36.9665 192.535 36.678 192.88 36.6224C193.212 36.7606 193.558 36.8648 193.911 36.9332C194.229 36.7021 194.767 36.2705 195.226 36.3981C194.938 37.2898 195.478 37.9558 196.509 37.8442C197.224 36.9496 195.812 35.2546 196.865 34.5577C197.25 34.6432 197.418 34.9926 197.909 34.9579C198.044 34.5417 198.458 34.3199 198.558 33.881C197.648 33.7675 197.066 33.3136 197.07 32.3721C196.637 32.5108 196.499 32.2996 196.17 32.3127C196.024 32.6394 195.967 33.028 195.593 33.1986C195.14 31.7061 193.234 32.9835 194.117 34.0265C194.511 33.7877 194.872 33.1043 195.616 33.376C195.525 34.0381 195.421 34.723 194.94 34.9951C193.729 35.6804 193.469 34.6277 192.903 33.8298C193.055 33.4355 193.275 33.0713 193.553 32.7539C193.22 32.7375 192.994 32.5978 192.983 32.201C193.192 32.0967 193.42 32.0354 193.653 32.0208C193.802 31.7752 193.599 31.2876 194.046 31.2475C194.659 31.4408 194.728 32.2798 195.818 31.9096C196.154 31.6887 196.17 31.2441 196.6 31.088C197.093 31.1212 197.588 31.0847 198.072 30.9797C198.21 31.1519 198.305 31.3552 198.348 31.5722C198.502 31.5267 198.663 31.5164 198.821 31.542C198.978 31.5676 199.128 31.6285 199.26 31.7201C199.321 32.3509 198.801 32.5804 198.754 33.1358C199.602 32.9004 199.676 31.3378 200.863 31.8646C200.96 32.3857 200.578 32.5771 200.408 32.9139C200.709 33.2402 201.141 33.4098 201.242 33.9719C201.679 34.0333 202.046 33.9874 202.192 33.6645C202.385 33.8312 202.618 33.9431 202.868 33.9885C203.118 34.034 203.375 34.0114 203.614 33.9231C203.531 33.6205 203.558 33.2981 203.691 33.014C203.544 31.9217 203.399 30.831 203.254 29.7419ZM134.982 41.4971C134.706 41.6522 134.308 41.615 134.254 41.2342C134.421 41.1164 134.622 41.0578 134.826 41.0679C134.814 41.2888 135.03 41.239 134.982 41.4971ZM139.646 37.0951C139.615 37.0073 139.601 36.9141 139.605 36.8209C139.61 36.7277 139.633 36.6364 139.674 36.5523C140.053 36.4073 140.125 36.6321 140.293 36.7398C140.284 36.8119 140.259 36.881 140.219 36.9412C140.179 37.0015 140.125 37.0513 140.061 37.0864C139.998 37.1215 139.928 37.141 139.855 37.1432C139.783 37.1454 139.711 37.1302 139.646 37.0989V37.0951ZM140.989 41.2317C140.74 40.7765 140.267 40.588 140.132 39.9978C140.66 39.9015 141.204 39.9208 141.724 40.0544C141.7 40.6005 141.592 41.0892 140.989 41.2337V41.2317ZM153.235 32.7564L153.625 32.7042C153.708 32.7995 153.762 32.9176 153.779 33.0436C153.795 33.1696 153.774 33.2977 153.718 33.4117C153.246 33.578 153.053 33.0492 153.235 32.7583V32.7564ZM151.106 36.1019C151.253 36.4436 151.007 36.5136 150.884 36.6707C150.512 36.6494 150.681 36.0574 151.106 36.1019ZM149.566 40.1738C149.105 40.2782 149.217 39.6977 149.387 39.5682C149.725 39.5706 149.591 39.9746 149.566 40.1738ZM149.474 31.2847C149.474 31.6375 148.906 31.9164 148.548 31.768C148.47 31.3407 149.016 31.3441 149.473 31.2847H149.474ZM143.632 40.2501C143.743 40.17 143.872 40.1186 144.008 40.1004C144.143 40.0822 144.282 40.0978 144.41 40.1457C144.632 40.8378 143.643 40.8412 143.632 40.2501ZM144.608 39.3995C144.556 39.2949 144.529 39.1792 144.53 39.0622C144.531 38.9451 144.56 38.8299 144.613 38.7261C144.667 38.6223 144.745 38.5328 144.84 38.465C144.935 38.3972 145.045 38.3531 145.16 38.3362C145.626 38.6412 145.44 39.4995 144.608 39.3995ZM145.138 35.1947C145.013 34.6804 145.127 34.33 145.604 34.2329C146.383 34.388 146.122 35.6036 145.138 35.1927V35.1947ZM145.753 33.8535C145.596 33.4518 145.917 33.3794 146.059 33.1826C146.209 33.2092 146.321 33.2793 146.472 33.3078C146.686 33.7844 146.116 34.0231 145.754 33.8515L145.753 33.8535ZM146.919 41.8774C146.63 41.3076 147.05 40.6692 147.833 40.5851C147.854 40.6264 147.885 40.6617 147.924 40.6881C147.962 40.7145 148.006 40.7311 148.052 40.7363C148.17 41.4579 147.491 41.631 146.919 41.8774ZM148.336 42.8566C148.1 42.3187 148.638 42.3153 148.717 41.9959C148.618 41.7834 148.569 41.5514 148.572 41.3171C148.575 41.0828 148.631 40.8522 148.735 40.6426C149.698 40.8243 150.089 39.7465 151.06 40.2405C151.152 40.8934 150.825 41.2554 150.771 41.8078C149.493 41.7073 149.392 42.8852 148.337 42.8566H148.336ZM150.088 42.6218C150.496 42.1065 151.599 42.152 151.789 42.7532C151.759 43.4366 149.932 43.6237 150.089 42.6218H150.088ZM151.24 37.8814C152.287 37.7089 152.776 38.7064 152.741 39.4788L152.548 39.5053C151.768 39.3705 151.636 38.4725 151.241 37.8814H151.24ZM152.257 41.7909C152.207 41.7589 152.165 41.7164 152.133 41.6663C152.101 41.6162 152.081 41.5598 152.073 41.501C152.065 41.4422 152.07 41.3824 152.088 41.3257C152.105 41.269 152.135 41.2168 152.174 41.1728C152.483 41.1472 152.763 41.1568 152.805 41.4483C152.85 41.7204 152.546 41.7499 152.257 41.7909H152.257ZM153.829 40.9514C153.714 40.672 153.673 40.3673 153.711 40.0674L154.197 40.0022C154.478 40.3168 154.413 40.978 153.829 40.9514H153.829ZM153.909 39.3227C154.409 38.9428 154.641 39.6508 155.222 39.5058C155.237 39.6233 155.253 39.7407 155.27 39.8591C154.689 40.209 154.15 39.7088 153.909 39.3222L153.909 39.3227ZM155.305 37.1569C154.935 37.2536 154.809 37.0632 154.417 37.1854C154.391 38.2487 153.095 38.1521 152.323 37.8268C152.504 37.5426 152.745 37.3026 153.03 37.1243C153.315 36.9461 153.636 36.8342 153.97 36.7969C154.303 36.532 154.901 35.9153 155.492 36.3222C155.597 36.7171 155.366 36.879 155.305 37.1569H155.305ZM164.334 32.7999C164.807 32.7854 164.884 33.2397 165.207 33.403C165.344 34.1246 164.338 34.2817 163.977 33.838C164.01 33.4678 164.133 33.1114 164.335 32.7999H164.334ZM163.158 32.1484C163.793 32.087 163.666 32.913 162.948 32.8061C162.885 32.4944 162.944 32.2658 163.159 32.1484H163.158ZM161.102 32.3335C161.169 32.3406 161.232 32.3674 161.284 32.4106C161.336 32.4537 161.374 32.5113 161.393 32.576C161.412 32.6407 161.412 32.7097 161.392 32.7743C161.373 32.8389 161.334 32.8962 161.282 32.9391C161.213 32.9366 161.146 32.9123 161.091 32.8696C161.036 32.827 160.996 32.768 160.976 32.7012C160.956 32.6343 160.958 32.5628 160.98 32.4969C161.003 32.4309 161.046 32.3737 161.102 32.3335H161.102ZM160.909 34.6084L161.299 34.5562C161.364 34.7346 161.263 34.7979 161.248 34.9221C161.096 34.8641 160.863 34.9018 160.91 34.6084H160.909ZM159.779 32.0614C160.206 32.4794 159.909 32.997 159.967 33.4755C159.783 33.5079 159.593 33.4967 159.414 33.4427C159.235 33.3888 159.071 33.2936 158.935 33.1648C158.893 32.5732 159.042 32.115 159.78 32.0614H159.779ZM158.682 29.7811C158.704 30.0363 158.813 30.3528 158.679 30.5012C158.198 30.6269 158.041 30.3702 157.928 30.0619C157.996 29.9291 158.112 29.8268 158.251 29.7749C158.391 29.723 158.545 29.7252 158.683 29.7811H158.682ZM155.794 34.1241C155.835 33.8047 156.156 33.6785 156.296 33.4277C156.738 33.472 157.151 33.6715 157.461 33.9912C157.272 34.5421 157.116 35.1033 156.991 35.6722C156.337 35.4581 156.053 34.8061 155.794 34.1241H155.794ZM156.131 37.4058C156.243 37.3256 156.372 37.2741 156.508 37.2559C156.644 37.2377 156.782 37.2533 156.911 37.3014C157.11 38.0172 156.174 37.9597 156.13 37.4058H156.131ZM156.472 39.9674C156.196 39.6339 156.538 39.4159 156.768 39.2081C157.077 39.2205 157.373 39.34 157.605 39.5464C158.061 39.14 158.245 39.3236 158.871 39.3768C158.639 40.6377 157.641 39.573 156.471 39.9679L156.472 39.9674ZM159.416 39.7523C159.368 39.7647 159.317 39.7665 159.268 39.7577C159.218 39.7489 159.171 39.7295 159.13 39.701C159.089 39.6726 159.054 39.6355 159.028 39.5925C159.002 39.5494 158.985 39.5012 158.979 39.4512C159.085 39.3615 159.219 39.3117 159.358 39.3106C159.391 39.3354 159.419 39.3666 159.44 39.4025C159.461 39.4384 159.475 39.4781 159.48 39.5194C159.485 39.5607 159.482 39.6026 159.471 39.6427C159.46 39.6828 159.441 39.7202 159.415 39.7528L159.416 39.7523ZM164.753 39.6658C164.451 39.7866 164.581 39.3927 164.329 39.4541C164.156 39.7098 164.59 39.7533 164.411 40.0718C164.13 40.2255 164.004 40.4865 163.473 40.4671C163.344 39.9505 163.704 39.7712 163.939 39.5068C163.912 39.4367 163.83 39.4304 163.819 39.342C163.244 39.2724 162.427 39.6764 162.106 39.1226C162.16 39.0408 162.182 38.9415 162.168 38.8442C162.598 38.7669 163.013 38.62 163.397 38.4092C163.903 38.5948 164.247 38.9713 164.952 38.9201C165.156 39.3575 164.776 39.3898 164.752 39.6663L164.753 39.6658ZM164.518 37.9003C164.461 37.6011 164.109 37.3101 164.304 37.0303C163.909 37.0245 163.943 37.3155 163.549 37.3101C163.404 37.532 163.384 37.8384 163.253 38.0704C162.114 38.5479 161.414 37.5552 160.407 38.271C160.311 38.3077 160.205 38.3077 160.109 38.271C160.013 38.2343 159.933 38.1634 159.886 38.0718C159.711 38.1361 159.557 38.2446 159.437 38.3867C159.316 38.5288 159.235 38.6998 159.2 38.8828C158.637 38.7659 158.03 38.703 158.075 37.865C158.287 37.7437 158.348 37.5184 158.721 37.5083C158.506 37.0506 158.823 36.6746 159.234 36.9008C159.388 37.2734 158.946 37.2338 159.025 37.5576C159.25 37.7145 159.5 37.8327 159.764 37.9075C160.438 37.3565 161.665 37.1879 161.608 36.1323C162.547 35.9419 163.159 36.7606 163.895 36.1855C163.782 35.8892 163.534 35.7563 163.691 35.4039L164.178 35.3387C164.342 35.5434 164.462 35.7804 164.53 36.0346C164.598 36.2887 164.612 36.5543 164.572 36.8143C164.808 37.1825 165.302 37.2444 165.395 37.7809C165.186 38.1163 164.863 37.9399 164.518 37.9007L164.518 37.9003ZM164.522 31.9657C164.513 31.5331 165.136 31.1924 165.632 31.3673C165.727 31.8864 164.866 32.4833 164.521 31.9661L164.522 31.9657ZM166.364 35.4073C166.298 35.4339 166.226 35.4402 166.157 35.4253C166.087 35.4104 166.024 35.375 165.974 35.3237C165.925 35.2723 165.892 35.2074 165.88 35.1372C165.867 35.0669 165.876 34.9946 165.905 34.9293C165.971 34.9027 166.043 34.8965 166.112 34.9114C166.182 34.9263 166.245 34.9617 166.295 35.013C166.344 35.0643 166.377 35.1293 166.389 35.1995C166.402 35.2697 166.393 35.3421 166.364 35.4073ZM166.373 31C166.705 31.0155 166.933 31.1576 166.942 31.5534C166.536 31.6375 166.172 31.3117 166.374 30.9976L166.373 31ZM167.117 35.8423C167.211 35.5069 167.877 35.4117 168.261 35.5098C168.305 35.6621 168.287 35.8258 168.211 35.9647C168.135 36.1036 168.007 36.2064 167.855 36.2505C167.703 36.2946 167.54 36.2763 167.402 36.1998C167.263 36.1232 167.161 35.9947 167.117 35.8423ZM169.075 35.6698C168.834 35.5779 168.455 35.6538 168.432 35.3058C168.544 35.2259 168.673 35.1745 168.809 35.1563C168.944 35.1381 169.083 35.1536 169.211 35.2014C169.331 35.474 169.171 35.5523 169.075 35.6712V35.6698ZM168.417 30.7221C168.523 30.3577 169.271 30.2755 169.572 30.4804C169.97 31.508 168.509 31.3446 168.417 30.7235V30.7221ZM175.695 31.8149C176.008 31.7854 176.15 31.9599 176.154 32.2933C175.991 32.3473 175.814 32.3389 175.656 32.2697C175.63 32.1959 175.619 32.1171 175.626 32.0388C175.632 31.9605 175.656 31.8846 175.695 31.8163V31.8149ZM174.839 32.8298C174.905 33.0086 174.804 33.0715 174.788 33.1957C174.615 33.1957 174.548 33.0729 174.548 32.869C174.643 32.8569 174.74 32.8434 174.839 32.8308V32.8298ZM172.176 32.9163C172.15 32.6408 171.836 32.7066 171.899 32.3243C172.295 32.0628 172.306 31.536 172.974 31.4616C173.626 32.5133 173.546 33.9526 171.492 33.7278C171.23 33.1208 171.88 33.1416 172.176 32.9173V32.9163ZM171.763 38.0071C171.242 38.0792 170.951 37.8785 170.89 37.4049C171.207 37.1951 171.415 37.3773 171.777 37.3754C171.925 37.6108 171.847 37.7495 171.763 38.008V38.0071ZM172.814 36.9684C172.806 36.8085 172.67 36.7973 172.67 36.6301C172.719 36.5832 172.778 36.5478 172.842 36.5264C172.907 36.505 172.975 36.4981 173.043 36.5064C173.11 36.5146 173.175 36.5376 173.232 36.5739C173.29 36.6102 173.338 36.6587 173.375 36.7161C173.392 36.9409 173.071 36.9327 172.814 36.9684ZM173.241 28.9991C173.238 28.3548 173.662 28.0064 174.486 27.9324C174.498 28.0921 174.472 28.2522 174.41 28.3999C174.349 28.5477 174.253 28.6788 174.132 28.7826C174.011 28.8865 173.867 28.9602 173.712 28.9978C173.557 29.0354 173.395 29.0359 173.24 28.9991H173.241ZM175.178 38.3594C174.231 38.4933 173.919 37.8761 173.725 37.1154C173.897 36.8868 174.347 36.8491 174.554 36.6456C174.426 36.1289 174.56 35.793 175.131 35.7577C175.67 36.3039 174.668 37.2652 175.242 38.082C175.627 38.4087 176.307 38.3874 176.454 39.0003C175.868 39.5812 175.351 38.8785 175.178 38.3594H175.178ZM175.481 36.1618C175.367 35.9201 175.587 35.9138 175.519 35.7055C175.904 35.6035 176.305 35.5805 176.699 35.6379C177.083 36.5272 175.777 36.5885 175.48 36.1618H175.481ZM177.179 31.7984C177.664 31.8356 177.757 32.3393 178.074 32.5766C178.068 32.7263 178.03 32.873 177.962 33.0065C177.894 33.14 177.799 33.2571 177.681 33.3499C177.351 32.9009 177.175 32.3566 177.178 31.7984H177.179ZM177.455 37.605C177.425 37.1299 177.771 36.9129 178.346 36.8563C179.131 37.4198 177.875 38.2893 177.454 37.605H177.455ZM183.669 26.9721C183.711 27.1881 183.741 27.3964 183.642 27.5148C183.164 27.5032 182.832 27.3162 182.758 26.8242C183.069 26.7647 183.392 26.8169 183.669 26.9716L183.669 26.9721ZM179.3 25.3998C179.601 25.3167 179.697 25.4757 179.907 25.4965C179.99 25.8227 179.525 26.0108 179.261 25.8527C179.234 25.7789 179.224 25.7001 179.23 25.6218C179.237 25.5435 179.26 25.4676 179.299 25.3994L179.3 25.3998ZM180.111 38.9582C179.547 38.8335 179.222 37.7698 179.608 37.4073C179.837 37.3605 180.072 37.3595 180.301 37.4044C180.114 38.0138 180.341 38.4469 180.111 38.9578L180.111 38.9582ZM179.465 28.8826C179.375 28.0818 180.857 28.0895 180.765 28.9793C180.396 29.2345 179.606 29.2282 179.465 28.8826ZM181.008 31.5524C180.96 31.5644 180.91 31.566 180.861 31.557C180.812 31.5479 180.765 31.5286 180.724 31.5002C180.683 31.4717 180.649 31.4349 180.623 31.3921C180.597 31.3493 180.581 31.3014 180.575 31.2518C180.711 31.1247 180.917 30.9178 181.148 31.0846C181.189 31.3045 181.028 31.3818 181.008 31.5539V31.5524ZM180.797 29.9628C180.627 29.4051 181.233 29.1798 181.701 29.3026C182.288 29.8942 181.174 30.5027 180.797 29.9643V29.9628ZM182.874 30.6733C182.843 30.7659 182.791 30.8499 182.722 30.9185C182.653 30.9871 182.568 31.0385 182.476 31.0684C182.383 31.0983 182.285 31.1058 182.189 31.0905C182.093 31.0752 182.002 31.0374 181.923 30.9802C181.853 30.5568 182.283 30.48 182.086 29.9701C182.803 30.2489 183.519 29.9034 183.858 30.6312C183.609 30.8768 183.208 30.6457 182.874 30.6747L182.874 30.6733ZM184.101 27.9914C184.067 27.4462 185.261 27.3867 185.281 27.9227C185.122 28.4597 184.377 28.3693 184.101 27.9928V27.9914ZM191.829 26.5066C192.09 27.0866 191.651 27.5216 191.144 27.3172C191.158 26.901 191.19 26.495 191.829 26.5081V26.5066ZM190.54 26.4989C190.794 27.2495 189.684 27.1842 189.75 26.5149C189.864 26.4315 190.001 26.3853 190.143 26.3827C190.284 26.3802 190.423 26.4212 190.54 26.5003V26.4989ZM187.893 33.417C187.922 33.0604 188.658 32.8637 189.025 32.9956C189.388 33.8356 187.996 34.2324 187.893 33.4185L187.893 33.417ZM187.345 28.5457C187.846 28.9015 187.439 29.6279 186.757 29.3437C186.588 29.0435 186.7 28.522 187.345 28.5472L187.345 28.5457ZM186.074 32.4026C186.014 32.2453 186.003 32.0735 186.041 31.9095C186.08 31.7456 186.167 31.5972 186.29 31.4835C186.414 31.3698 186.569 31.2962 186.735 31.2722C186.901 31.2482 187.071 31.2749 187.221 31.3489C187.195 31.9125 186.816 32.8424 186.074 32.404L186.074 32.4026ZM187.26 30.8941C187.237 30.1039 188.043 30.4369 188.685 30.4345C188.856 31.4857 187.68 30.941 187.261 30.8956L187.26 30.8941ZM192.13 34.7375C191.249 35.083 190.355 35.1512 189.561 35.5315C188.887 35.8534 188.441 36.8776 187.684 36.3232C187.622 36.0005 187.677 35.6662 187.839 35.3806C188.001 35.0949 188.259 34.8768 188.567 34.7655C188.63 34.9279 188.807 34.9588 188.82 35.1807C189.067 35.0033 189.593 35.0197 189.758 34.7853C189.601 34.3028 189.501 33.8032 189.461 33.2972C190.523 32.5674 190.592 33.3842 191.232 33.9584C191.61 34.2957 192.319 34.2749 192.13 34.7389L192.13 34.7375ZM192.909 24.2036C192.884 23.919 193.078 23.7856 193.446 23.7716C193.638 23.9045 193.649 24.3192 193.431 24.4033C193.241 24.3578 193.023 24.3428 192.91 24.2051L192.909 24.2036ZM193.043 26.7077C192.997 26.3273 193.343 26.2186 193.765 26.1601C193.821 26.2159 193.864 26.2833 193.891 26.3577C193.918 26.4321 193.928 26.5115 193.921 26.5902C193.792 26.6741 193.647 26.7281 193.495 26.7484C193.343 26.7688 193.189 26.7548 193.043 26.7077ZM198.222 21.6972C198.578 21.5822 198.479 22.006 198.755 21.9872C199.254 21.9833 199.196 21.5967 199.584 21.5164C199.756 21.688 200.099 21.6566 200.142 21.9809C199.647 22.2279 199.454 22.6831 198.982 22.9475C198.642 23.0089 198.623 22.6918 198.351 22.672C198.176 22.9277 197.778 23.4608 197.499 22.9659C197.886 22.6401 197.731 21.9451 198.222 21.6948V21.6972ZM197.562 24.932C198.209 24.7798 198.441 25.1181 198.887 25.2046C198.842 25.639 198.767 26.0696 198.661 26.4931L198.372 26.5322C198.075 26.1669 197.939 25.614 197.354 25.5898C197.358 25.3541 197.431 25.1247 197.562 24.9296V24.932ZM196.04 30.6211C195.927 29.9548 196.24 29.5831 196.981 29.5061C196.223 29.1794 194.922 29.4911 194.334 28.9619C194.286 28.2586 194.777 27.9305 195.131 27.5066C195.667 27.5119 195.44 28.1992 195.248 28.3891C195.486 28.8502 196.445 28.4331 196.926 28.3442C197.136 28.5723 197.517 28.5984 197.519 29.075C198.014 28.9643 198.362 29.029 198.539 29.2973C198.347 29.7804 197.991 30.179 197.533 30.4212C197.074 30.6635 196.545 30.7335 196.04 30.6187V30.6211ZM199.115 28.4109C199.002 28.0924 199.23 28.0093 199.118 27.6908C198.865 27.4104 198.23 27.5835 198.148 27.1021C198.783 26.7328 199.98 26.6811 200.176 27.4597C200.288 27.8995 199.84 28.9754 199.115 28.4085V28.4109ZM200.386 26.8019C200.378 26.7342 200.389 26.6655 200.418 26.6039C200.448 26.5423 200.494 26.4904 200.552 26.4543C200.609 26.4183 200.676 26.3995 200.744 26.4003C200.812 26.4011 200.878 26.4214 200.935 26.4588C200.989 26.7435 200.594 26.9329 200.386 26.7995V26.8019ZM201.388 28.3751C201.335 28.2331 201.325 28.0785 201.358 27.9305C201.391 27.7824 201.466 27.6472 201.574 27.5414C202.129 27.4302 202.522 27.5085 202.703 27.8401C202.752 27.9793 202.632 28.0044 202.641 28.118C202.346 28.247 201.832 28.1808 201.388 28.3727V28.3751ZM202.347 31.1247C202.331 31.0068 202.316 30.8888 202.299 30.7709C202.377 30.7005 202.475 30.6553 202.579 30.6413C202.683 30.6273 202.789 30.645 202.883 30.6921C202.909 30.9753 202.716 31.1083 202.347 31.1223V31.1247Z" fill="#E27BF5"/>
<path d="M118.605 48.2379C118.499 48.5675 117.931 48.5791 118.06 49.0697C118.738 48.9634 118.866 49.4017 119.542 49.0513C119.347 48.6985 119.148 48.35 118.94 48.0117C118.829 48.0866 118.717 48.1654 118.605 48.2379Z" fill="#E27BF5"/>
<path d="M125.994 43.4316C125.352 43.8341 124.71 44.2389 124.068 44.6462C124.054 44.7158 124.041 44.7854 124.034 44.8535C123.952 44.8406 123.87 44.8318 123.788 44.8274C123.534 44.9903 123.281 45.1551 123.028 45.319C123.023 45.6603 123.094 45.9984 123.237 46.3083C122.765 46.3567 122.535 46.115 122.204 45.9966C121.956 46.0391 122.111 46.3605 121.863 46.403C121.701 46.4408 121.533 46.4378 121.374 46.3944C120.892 46.7114 120.411 47.0296 119.93 47.3489C119.972 47.4199 120.032 47.4795 120.102 47.5224C120.173 47.5653 120.253 47.5904 120.335 47.5954C120.723 47.5422 120.555 47.1063 121.067 47.1391C121.488 47.084 121.484 47.5301 121.905 47.4775C122.332 47.1068 123.434 46.9869 123.252 47.9269C123.931 47.8042 123.74 48.2546 123.93 48.5552C124.845 48.2846 125.89 47.7404 125.374 46.7438C124.64 46.6138 124.625 47.1681 123.961 47.2923C123.82 47.2208 123.587 47.2571 123.536 47.0792C123.415 46.6215 123.524 46.3219 123.918 46.2189C124.461 46.2803 125.255 46.5601 125.354 45.8468C124.908 45.8298 124.46 45.8153 124.395 45.346C124.798 44.6602 126.336 44.7598 126.154 43.6718C126.125 43.5775 126.07 43.4938 125.994 43.4316Z" fill="#E27BF5"/>
<path d="M128.044 30.2898L128.239 30.2637C128.231 30.3414 128.287 30.3414 128.348 30.3385C128.356 30.397 128.364 30.4559 128.372 30.5158C128.287 30.51 128.285 30.5641 128.286 30.6167L128.094 30.6428C128.102 30.5655 128.046 30.5646 127.985 30.568L127.961 30.3907C128.044 30.396 128.046 30.3438 128.044 30.2898Z" fill="#E27BF5"/>
<path opacity="0.3" d="M162.223 37.0389C162.309 37.2666 161.883 37.5425 162.208 37.6672C162.309 37.4169 162.753 37.4028 162.94 37.21C162.653 37.2105 162.593 36.9413 162.223 37.0389Z" fill="#E27BF5"/>
<path d="M120.493 50.9922C119.883 51.0512 119.399 51.199 119.505 51.7539C119.794 52.2647 120.452 51.8351 120.867 51.5712C120.83 51.2759 120.511 51.3117 120.493 50.9922Z" fill="#E27BF5"/>
<path opacity="0.3" d="M171.969 45.5332C171.988 45.6781 172.008 45.8269 172.027 45.9747C172.124 45.9621 172.22 45.9491 172.32 45.9355C172.355 45.6197 172.177 45.5593 171.969 45.5332Z" fill="#E27BF5"/>
<path d="M120.874 50.1323C120.855 50.3073 120.694 50.3836 120.738 50.6006C121.123 50.7408 121.419 50.9979 121.257 51.5189C122.141 52.0791 122.587 51.17 122.599 50.4402C122.039 50.3213 121.637 50.0134 120.874 50.1323Z" fill="#E27BF5"/>
<path d="M124.124 49.2485C124.057 49.8174 123.566 50.0924 123.631 50.7531C124.353 50.8067 124.738 49.9754 124.938 49.4085C124.69 49.3268 124.536 49.1335 124.124 49.2485Z" fill="#E27BF5"/>
<path d="M122.647 53.041C122.46 53.0468 122.446 53.1695 122.27 53.1816C122.301 53.4511 122.29 53.7703 122.631 53.6723C122.763 53.5279 122.881 53.2023 122.647 53.041Z" fill="#E27BF5"/>
<path d="M120.702 53.3027C121.183 53.5903 121.646 52.9557 121.312 52.6816C120.848 52.7102 120.627 52.9035 120.702 53.3027Z" fill="#E27BF5"/>
<path d="M126.052 52.5856C126.182 52.9094 126.803 52.6291 126.823 52.3923C126.635 52.2941 125.967 52.1303 126.052 52.5856Z" fill="#E27BF5"/>
<path opacity="0.3" d="M171.39 41.9222C170.174 41.5358 171.208 43.4364 171.39 41.9222V41.9222Z" fill="#E27BF5"/>
<path d="M106.102 53.0937C105.881 52.944 105.62 52.8663 105.354 52.8713C105.088 52.8763 104.83 52.9638 104.615 53.1217C104.82 54.2686 105.785 54.1343 106.274 53.4204C106.211 53.3147 106.153 53.2056 106.102 53.0937Z" fill="#E27BF5"/>
<path d="M74.325 48.818C74.4107 49.0461 73.9847 49.3216 74.3096 49.4492C74.4107 49.1989 74.8549 49.1844 75.0412 48.9925C74.7553 48.9901 74.6956 48.7209 74.325 48.818Z" fill="#E27BF5"/>
<path d="M104.976 48.398C105.309 48.5363 105.655 48.6402 106.008 48.7083C106.094 48.6459 106.197 48.5691 106.309 48.4922C106.255 47.9598 106.157 47.433 106.015 46.9171C105.591 46.7078 105.357 46.1075 105.004 45.6073C105.057 45.4092 105.147 45.2231 105.27 45.0592C104.082 42.8722 102.025 41.329 99.5575 40.4373C99.8651 40.8114 99.4795 41.3832 98.8615 41.1256C98.8156 41.0491 98.7902 40.962 98.7876 40.8727C98.7851 40.7835 98.8055 40.695 98.8469 40.616C98.8884 40.537 98.9494 40.4701 99.0241 40.4217C99.0988 40.3733 99.1847 40.345 99.2735 40.3397C98.6357 40.1256 97.9842 39.9548 97.3236 39.8283C97.2528 39.9101 97.1645 39.9746 97.0653 40.017C96.9661 40.0595 96.8586 40.0787 96.7509 40.0734C96.6432 40.068 96.5381 40.0382 96.4435 39.9861C96.3489 39.934 96.2674 39.8611 96.205 39.7728C96.2028 39.7325 96.2082 39.6921 96.2209 39.6539C95.9119 39.6162 95.6009 39.5843 95.2871 39.563C92.3389 39.3893 89.3807 39.5989 86.486 40.1865C86.4076 40.4135 86.2454 40.6016 86.0328 40.712C85.8202 40.8224 85.5736 40.8465 85.3438 40.7795C85.3423 40.6519 85.3633 40.5251 85.4059 40.4049C81.3213 41.3725 77.3183 42.6588 73.4332 44.2521C73.4613 44.2857 73.4824 44.3245 73.4952 44.3664C73.5081 44.4084 73.5124 44.4524 73.5079 44.496C73.5034 44.5396 73.4902 44.5819 73.4691 44.6203C73.448 44.6587 73.4194 44.6924 73.3851 44.7195C73.3426 44.7203 73.3004 44.7124 73.2612 44.6962C73.2219 44.6799 73.1864 44.6558 73.1568 44.6252C73.1272 44.5946 73.1042 44.5582 73.0893 44.5183C73.0743 44.4784 73.0677 44.4358 73.0698 44.3932C72.7435 44.5221 72.4168 44.6497 72.0898 44.776C72.0641 44.9348 72.0575 45.0961 72.0701 45.2564C71.9317 45.2856 71.789 45.2867 71.6502 45.2598C71.5114 45.2328 71.3794 45.1783 71.2619 45.0994C70.6946 45.3207 70.1269 45.544 69.559 45.7692L69.5623 45.7721C69.3742 46.3231 69.2173 46.8843 69.0926 47.4531C68.8558 47.3552 68.6429 47.2071 68.4684 47.0189C68.294 46.8307 68.1621 46.6069 68.0818 46.3627C66.2527 47.1075 64.4439 47.8919 62.6856 48.7672C60.6019 49.8049 58.5759 50.9528 56.5404 52.0818C56.5635 52.4351 56.2035 52.5366 55.958 52.4046C54.7951 53.0455 53.6259 53.6738 52.4395 54.2702C52.645 54.2354 52.8551 54.2377 53.0599 54.277C53.3473 54.7909 53.5851 55.3311 53.7703 55.8903C54.0375 55.8265 54.4471 55.4012 54.6464 55.7729C54.4028 56.3939 53.7891 57.0541 54.502 57.68C55.224 57.6317 56.1279 57.4988 56.7989 57.8221C57.6128 57.5848 57.4756 56.3422 57.4164 55.7608C56.7907 55.8913 56.988 56.5882 56.3541 56.7124C55.9792 56.4708 56.4653 56.0469 56.2482 55.9174C53.9956 56.3345 55.8545 53.988 56.8547 53.7681C57.362 53.8483 57.3553 54.5385 57.6889 54.826C58.3011 54.3534 59.2248 54.1571 59.8414 54.6269C59.7311 54.9476 59.7083 55.292 59.7754 55.6245C60.0918 55.805 60.4448 55.9114 60.8079 55.9357C61.0769 55.5331 61.1742 55.0116 61.8577 54.8956C62.0695 55.1561 62.0252 55.7202 62.2057 56.0184C62.224 56.405 61.7162 56.4302 61.7157 56.8028C62.0435 56.7893 62.1811 57.0009 62.6148 56.8632C63.1443 56.3451 63.318 55.5834 64.4087 55.4529C64.5984 55.2311 64.2643 55.1059 64.3125 54.7468C64.8491 54.0474 66.3341 54.003 66.7875 53.2456C67.8998 53.1857 68.1415 54.0991 67.8127 54.9962C69.3486 54.987 68.94 53.6361 69.9604 53.2707C70.461 53.4554 70.0677 54.3369 70.2218 54.494C70.3547 54.327 70.5304 54.1996 70.73 54.1253C70.9296 54.0509 71.1456 54.0325 71.3548 54.0721C71.5599 54.2383 71.5064 54.7105 71.581 55.0319C70.5885 55.3374 70.8345 57.52 71.7505 57.7955C72.5687 57.6114 71.84 56.3596 72.1837 55.8492C71.8424 55.8975 71.3611 55.4239 71.7986 55.1822C72.2592 55.0116 72.1731 55.4891 72.5269 55.4442C72.6602 54.8676 72.6573 54.1963 72.9976 53.7627C73.9603 53.5602 73.6026 54.3379 74.1851 54.5017C73.9993 54.8041 73.9406 55.1681 74.0219 55.5138C75.1997 56.0097 75.4587 55.6776 76.3462 55.1117C76.0921 54.6918 75.9914 54.1963 76.0613 53.7101C75.4259 53.8145 75.0389 53.6255 74.8965 53.1465C75.3576 52.6226 76.0858 53.1262 76.2442 53.595C77.2978 53.3611 77.5866 52.5965 78.6561 52.3727C78.9565 51.7618 78.4728 51.6961 78.3832 51.061C78.4689 50.6376 78.8689 50.4327 79.1534 50.1485C79.0733 49.9861 79.0375 49.8054 79.0494 49.6246C79.0613 49.4438 79.1206 49.2693 79.2213 49.1189C79.3219 48.9685 79.4603 48.8475 79.6225 48.7681C79.7847 48.6887 79.9649 48.6537 80.1449 48.6667C81.1172 48.846 80.5781 50.6845 79.5274 50.7275C79.4896 51.3583 79.2991 51.9704 78.9724 52.5105C79.213 52.6361 79.0922 53.1871 79.4537 53.1644C79.8388 53.3993 80.0106 52.8043 80.5011 52.8449C80.4693 53.5747 80.7369 54.6366 81.6505 54.0397C81.6053 52.9005 80.9478 52.4868 80.555 51.7594C80.7639 51.5091 80.9858 51.7681 81.3333 51.655C81.3814 51.3689 81.3516 51.0267 81.7381 50.9711C82.064 51.0282 82.217 51.2901 82.3191 51.6125C82.6102 51.5457 82.9114 51.5358 83.2062 51.5835C83.1989 50.0852 84.4788 50.6386 85.1411 51.2345C85.5839 50.5651 86.4686 51.1379 87.1112 51.15C87.1364 51.3874 87.2282 51.6128 87.3758 51.8C87.5235 51.9871 87.721 52.1284 87.9454 52.2074C88.3169 52.0625 88.469 51.7676 88.9682 51.7101C89.2998 52.8005 87.8573 53.3456 86.7584 53.7149C86.7271 53.6487 86.6621 53.6231 86.5519 53.6535C86.2843 53.4921 86.5553 52.6932 86.1307 52.7198C85.9011 53.1228 85.4111 53.3481 85.1772 53.7468C85.311 54.3045 86.0561 54.1373 86.1081 54.7903C87.1117 54.5573 87.2888 55.3021 88.149 55.2369C88.1177 54.3471 89.3605 54.2775 89.9515 54.6356C90.1441 53.7782 90.0618 52.7328 90.3896 51.9692C90.6967 51.6565 90.8709 52.1528 91.2887 52.0286C91.4085 51.0016 93.0557 50.7614 93.2583 51.944C93.0025 51.9532 92.7524 52.0226 92.5281 52.1465C92.3038 52.2704 92.1116 52.4454 91.9669 52.6574C92.0911 52.8445 92.4838 53.3553 92.0843 53.5409C91.6713 53.6545 91.5188 53.4607 91.2699 53.38C91.0671 53.6262 90.9354 53.9236 90.8892 54.2398C91.3829 54.4528 91.8069 54.801 92.1127 55.2446C92.3786 55.2319 92.6392 55.1662 92.8795 55.0513C92.9305 54.4795 92.4208 54.5718 92.4463 54.03C92.6335 53.6521 93.3257 53.6221 93.4224 53.1794C93.1818 52.2683 93.4085 51.1857 94.2234 51.0045C94.8736 50.8595 95.6361 51.7198 96.4115 51.0717C96.2316 50.7867 96.1399 50.4545 96.148 50.1172C96.156 49.7799 96.2635 49.4526 96.4567 49.1766C94.9935 49.062 94.1464 49.6599 93.3151 50.1379C93.2068 49.8962 93.3536 49.2254 93.3339 48.7846C93.0422 48.8455 92.7264 49.3941 92.4675 48.9905C92.6116 48.7626 92.6957 48.5016 92.7119 48.2321C92.7282 47.9627 92.676 47.6934 92.5604 47.4497C93.8705 46.6986 92.6234 45.0399 93.4032 44.0999C93.5164 44.1422 93.6193 44.2082 93.705 44.2936C93.7908 44.379 93.8575 44.4817 93.9006 44.595C93.9438 44.7082 93.9624 44.8294 93.9552 44.9505C93.948 45.0716 93.9152 45.1897 93.859 45.297C94.3567 45.8287 95.4397 46.1791 95.0912 47.1104C95.4234 47.1815 95.7605 47.2266 96.0996 47.2453C95.7627 46.9393 95.922 46.6324 95.8493 46.1104C96.4057 45.8562 97.0122 45.1883 97.5657 45.6102C97.647 45.867 97.6828 46.1361 97.6716 46.4053C97.5474 46.5604 97.1836 46.5503 96.9044 46.5986C96.7956 47.2453 96.3826 47.6827 96.1314 48.2307C96.8909 48.8165 98.6959 48.0046 99.597 48.2162C100.248 48.7329 100.025 49.7353 99.9642 50.2346C100.39 50.5069 100.895 50.6293 101.398 50.5825C101.747 50.8943 102.005 51.2951 102.146 51.7425C102.895 52.1485 103.927 52.22 104.731 52.5641C104.907 52.3916 105.152 52.2669 105.147 51.9697C104.984 51.583 104.288 51.8285 104.177 51.38C104.275 50.9934 104.595 50.7594 105.178 50.7068C104.889 50.2041 104.068 50.6038 103.5 50.7522C103.254 50.5308 102.937 50.3945 102.896 49.9306C102.485 50.1123 101.512 50.3457 101.4 49.8619C102.236 48.9509 103.571 49.7111 104.662 49.0654C104.624 48.7421 104.632 48.4531 104.976 48.398ZM61.4875 51.3486C61.8245 51.3486 61.6921 51.7546 61.6666 51.9542C61.205 52.0581 61.3181 51.4781 61.4875 51.3486ZM59.0202 53.6579C58.7314 53.088 59.1521 52.4496 59.9372 52.3655C59.9584 52.4068 59.9895 52.4422 60.0276 52.4686C60.0657 52.4949 60.1097 52.5115 60.1557 52.5168C60.2717 53.2384 59.592 53.4114 59.0202 53.6579ZM60.4377 54.6366C60.2019 54.0991 60.7395 54.0957 60.8185 53.7763C60.7201 53.5638 60.6706 53.3318 60.6738 53.0975C60.6769 52.8633 60.7326 52.6327 60.8368 52.423C61.7994 52.6047 62.1903 51.5269 63.1611 52.0209C63.254 52.6738 62.9262 53.0358 62.8747 53.5883C61.5944 53.4873 61.4928 54.6651 60.4377 54.6366ZM62.1898 54.4017C62.598 53.887 63.7002 53.9324 63.8908 54.5336C63.86 55.217 62.0334 55.405 62.1898 54.4017ZM63.3421 49.6613C64.3885 49.4893 64.8785 50.4868 64.8424 51.2592L64.6499 51.2853C63.8692 51.1514 63.7368 50.2529 63.3421 49.6613ZM64.3582 53.5714C64.3084 53.5393 64.2662 53.4968 64.2345 53.4467C64.2028 53.3966 64.1823 53.3402 64.1745 53.2814C64.1667 53.2226 64.1717 53.1628 64.1892 53.1061C64.2067 53.0494 64.2363 52.9972 64.2759 52.9532C64.5854 52.9276 64.8645 52.9368 64.9064 53.2282C64.9512 53.5003 64.6475 53.5317 64.3582 53.5714ZM65.9302 52.7314C65.815 52.4522 65.7747 52.1476 65.8132 51.8479L66.2989 51.7826C66.5795 52.0968 66.515 52.7584 65.9302 52.7314ZM66.0111 51.1026C66.5102 50.7232 66.7422 51.4312 67.3232 51.2862C67.3386 51.4037 67.3545 51.5211 67.3713 51.6391C66.7904 51.9895 66.2513 51.4873 66.0111 51.1026ZM67.4069 48.9373C67.0373 49.034 66.9107 48.8431 66.5194 48.9659C66.4934 50.0292 65.1967 49.9325 64.4256 49.6072C64.606 49.323 64.8474 49.083 65.1323 48.9048C65.4172 48.7265 65.7382 48.6146 66.0717 48.5773C66.4053 48.3124 67.0036 47.6957 67.5942 48.1027C67.6986 48.497 67.4676 48.6594 67.4065 48.9373H67.4069ZM76.4362 44.5803C76.9089 44.5658 76.9859 45.0196 77.3094 45.183C77.4466 45.905 76.443 46.0621 76.0791 45.6179C76.1117 45.248 76.2342 44.8917 76.4358 44.5803H76.4362ZM75.2603 43.9288C75.8952 43.8669 75.7682 44.6934 75.0505 44.5861C74.9865 44.2748 75.0452 44.0477 75.2599 43.9288H75.2603ZM73.012 46.3884C73.142 46.3714 73.271 46.354 73.4019 46.3362C73.4664 46.515 73.3658 46.5778 73.3504 46.702C73.1974 46.6445 72.9639 46.6822 73.0116 46.3884H73.012ZM68.2319 49.1863C68.3434 49.106 68.4729 49.0545 68.6088 49.0363C68.7448 49.0181 68.8832 49.0338 69.0117 49.0819C69.2115 49.7986 68.2748 49.7396 68.2315 49.1863H68.2319ZM68.5727 51.7478C68.2969 51.4138 68.6391 51.1964 68.8683 50.9885C69.1779 51.0009 69.4738 51.1204 69.7058 51.3268C70.1616 50.9204 70.3464 51.1036 70.9712 51.1572C70.7402 52.4201 69.7424 51.3534 68.5722 51.7483L68.5727 51.7478ZM71.517 51.5323C71.4684 51.5447 71.4178 51.5466 71.3684 51.5379C71.319 51.5291 71.2721 51.5098 71.2307 51.4814C71.1893 51.4529 71.1545 51.4159 71.1285 51.3728C71.1025 51.3298 71.086 51.2816 71.08 51.2316C71.1858 51.1417 71.3197 51.0919 71.4583 51.091C71.4916 51.1157 71.5196 51.1469 71.5407 51.1827C71.5617 51.2185 71.5753 51.2582 71.5808 51.2995C71.5862 51.3407 71.5833 51.3826 71.5723 51.4227C71.5613 51.4627 71.5423 51.5002 71.5165 51.5327L71.517 51.5323ZM76.854 51.4462C76.5518 51.5666 76.6817 51.1732 76.43 51.2345C76.2572 51.4902 76.6904 51.5332 76.5118 51.8522C76.2307 52.0059 76.1046 52.2664 75.5732 52.2471C75.4442 51.7309 75.8047 51.5516 76.0401 51.2867C76.0122 51.2171 75.9308 51.2109 75.9198 51.1224C75.3455 51.0528 74.5273 51.4569 74.2067 50.903C74.2608 50.821 74.2828 50.7218 74.2683 50.6246C74.6988 50.5473 75.114 50.4004 75.4976 50.1896C76.0035 50.3752 76.3472 50.7517 77.0523 50.7C77.2574 51.1374 76.8776 51.1703 76.8535 51.4467L76.854 51.4462ZM76.6191 49.6807C76.5619 49.3815 76.2105 49.0901 76.4045 48.8107C76.0098 48.8049 76.044 49.0959 75.6493 49.0901C75.5049 49.3124 75.4842 49.6188 75.3537 49.8508C74.2144 50.3283 73.515 49.3356 72.5086 50.0509C72.4124 50.0878 72.3061 50.0879 72.2099 50.0512C72.1137 50.0145 72.0343 49.9435 71.9868 49.8518C71.8125 49.9161 71.6578 50.0245 71.5376 50.1666C71.4174 50.3088 71.3359 50.4797 71.3009 50.6628C70.7378 50.5463 70.1308 50.4839 70.1756 49.6478C70.3878 49.5265 70.449 49.3008 70.8215 49.2911C70.6068 48.8334 70.9245 48.4574 71.3351 48.6831C71.4886 49.0562 71.0463 49.0161 71.1252 49.3404C71.351 49.4971 71.6009 49.6153 71.865 49.6904C72.5389 49.1394 73.7658 48.9707 73.709 47.9151C74.6476 47.7247 75.2599 48.5434 75.9953 47.9683C75.8827 47.672 75.6343 47.5386 75.7913 47.1863L76.2788 47.1211C76.4432 47.326 76.5632 47.5631 76.631 47.8173C76.6988 48.0715 76.713 48.3371 76.6726 48.5971C76.9084 48.9654 77.4028 49.0272 77.4952 49.5661C77.2872 49.8967 76.9638 49.7198 76.6187 49.6812L76.6191 49.6807ZM76.6225 43.7456C76.6134 43.313 77.2362 42.9723 77.7325 43.1473C77.8278 43.6668 76.9676 44.2637 76.622 43.7461L76.6225 43.7456ZM78.4665 47.1844C78.4006 47.211 78.3284 47.2173 78.2589 47.2024C78.1895 47.1875 78.126 47.1522 78.0767 47.1009C78.0274 47.0496 77.9945 46.9847 77.9821 46.9145C77.9697 46.8443 77.9785 46.772 78.0073 46.7069C78.0732 46.6803 78.1455 46.6741 78.2149 46.689C78.2843 46.704 78.3477 46.7394 78.397 46.7907C78.4463 46.842 78.4792 46.907 78.4914 46.9772C78.5037 47.0474 78.4949 47.1197 78.466 47.1849L78.4665 47.1844ZM78.4732 42.778C78.8054 42.7935 79.033 42.9351 79.0426 43.3309C78.6374 43.4189 78.273 43.0922 78.4732 42.778ZM79.2169 47.6242C79.3107 47.2888 79.9769 47.1936 80.3615 47.2917C80.3963 47.4409 80.3727 47.5979 80.2956 47.7302C80.2185 47.8625 80.0937 47.9601 79.9471 48.0027C79.8004 48.0454 79.6431 48.0299 79.5075 47.9595C79.3719 47.889 79.2684 47.769 79.2183 47.6242H79.2169ZM81.1745 47.4516C80.9338 47.3598 80.555 47.4357 80.5319 47.0877C80.6433 47.0077 80.7726 46.9564 80.9083 46.9382C81.0441 46.92 81.1823 46.9355 81.3107 46.9833C81.4325 47.254 81.2717 47.3303 81.1759 47.4516H81.1745ZM80.517 42.504C80.6224 42.1395 81.3708 42.0574 81.6746 42.2599C82.0707 43.2884 80.6099 43.125 80.5184 42.504H80.517ZM84.2757 44.6977C84.2497 44.4222 83.9354 44.4875 83.9994 44.1052C84.3946 43.8442 84.4056 43.3174 85.0733 43.2429C85.7259 44.2942 85.6456 45.7335 83.5912 45.5092C83.3318 44.9012 83.9811 44.922 84.2771 44.6977H84.2757ZM83.8632 49.788C83.3421 49.8602 83.051 49.6596 82.9901 49.1863C83.3063 48.9765 83.5142 49.1587 83.8776 49.1568C84.0264 49.3912 83.9484 49.5299 83.8641 49.788H83.8632ZM84.9135 48.7489C84.9048 48.5889 84.7691 48.5778 84.7691 48.4076C84.8183 48.3608 84.8773 48.3255 84.9418 48.3042C85.0062 48.2829 85.0745 48.2761 85.1419 48.2844C85.2092 48.2926 85.2739 48.3157 85.3314 48.352C85.3888 48.3882 85.4376 48.4368 85.4742 48.4942C85.4944 48.7213 85.1724 48.7126 84.9149 48.7469L84.9135 48.7489ZM87.7942 43.5967C88.1076 43.5668 88.2496 43.7417 88.2539 44.0752C88.0907 44.1293 87.9134 44.1207 87.7562 44.051C87.7293 43.977 87.7189 43.898 87.7257 43.8195C87.7325 43.741 87.7564 43.665 87.7957 43.5967H87.7942ZM86.9394 44.6117C87.0048 44.791 86.9033 44.8533 86.8884 44.978C86.7146 44.9805 86.6477 44.8553 86.6477 44.6513L86.9394 44.6117ZM87.2763 50.1408C86.329 50.2747 86.0171 49.6575 85.8236 48.8968C85.9955 48.6681 86.445 48.63 86.652 48.4265C86.524 47.9103 86.6578 47.5744 87.2296 47.5391C87.7682 48.0848 86.7661 49.0461 87.3403 49.8634C87.7254 50.1901 88.4055 50.1683 88.5523 50.7817C87.9694 51.3616 87.4525 50.6584 87.2787 50.1398L87.2763 50.1408ZM87.5795 47.9427C87.465 47.7039 87.685 47.6957 87.6171 47.4869C88.0018 47.3846 88.4031 47.3616 88.7968 47.4193C89.1843 48.3076 87.8785 48.369 87.582 47.9417L87.5795 47.9427ZM89.2772 43.5798C89.7619 43.617 89.8548 44.1211 90.1725 44.358C90.1666 44.5077 90.1285 44.6544 90.0607 44.7879C89.9929 44.9214 89.897 45.0386 89.7797 45.1313C89.4505 44.6816 89.2751 44.137 89.2796 43.5788L89.2772 43.5798ZM89.5535 49.3863C89.5236 48.9112 89.8688 48.6938 90.4444 48.6372C91.2319 49.2003 89.9771 50.0693 89.5559 49.3854L89.5535 49.3863ZM92.2095 50.7396C91.6454 50.6154 91.3205 49.5512 91.706 49.1892C91.9347 49.142 92.1705 49.1409 92.3996 49.1858C92.2148 49.7943 92.442 50.2268 92.2119 50.7377L92.2095 50.7396ZM91.5655 40.6645C91.475 39.8636 92.9575 39.8714 92.865 40.7611C92.4968 41.0139 91.707 41.0086 91.5655 40.6645ZM93.1086 43.3343C93.0601 43.3467 93.0095 43.3485 92.9602 43.3397C92.9109 43.3308 92.864 43.3115 92.8228 43.283C92.7815 43.2545 92.7468 43.2174 92.721 43.1743C92.6952 43.1313 92.6788 43.0831 92.673 43.0332C92.8092 42.9066 93.0157 42.6997 93.2453 42.8664C93.2905 43.0849 93.1293 43.1618 93.1096 43.3338L93.1086 43.3343ZM92.8973 41.7447C92.7269 41.1869 93.3329 40.9617 93.8008 41.0845C94.3894 41.6746 93.2747 42.2831 92.8983 41.7447H92.8973ZM94.9738 42.4551C94.943 42.5477 94.891 42.6317 94.8219 42.7004C94.7528 42.769 94.6686 42.8204 94.5761 42.8502C94.4836 42.8801 94.3854 42.8877 94.2894 42.8724C94.1934 42.8571 94.1023 42.8193 94.0236 42.7621C93.9524 42.3387 94.3837 42.2618 94.1863 41.7514C94.9035 42.0308 95.6197 41.6852 95.9586 42.4131C95.7102 42.6572 95.3088 42.4261 94.9747 42.4551H94.9738ZM99.994 45.1989C100.023 44.8422 100.759 44.645 101.126 44.7775C101.489 45.616 100.098 46.0128 99.995 45.1989H99.994ZM98.1746 44.184C98.1147 44.0266 98.1034 43.8548 98.1421 43.6909C98.1807 43.527 98.2677 43.3785 98.3915 43.2649C98.5154 43.1513 98.6704 43.0778 98.8365 43.0538C99.0025 43.0299 99.1719 43.0567 99.3226 43.1308C99.2966 43.6929 98.9168 44.6223 98.1756 44.184H98.1746ZM99.3611 42.676C99.3375 41.8858 100.143 42.2188 100.786 42.2164C100.957 43.2661 99.7813 42.7215 99.363 42.676H99.3611ZM104.23 46.5188C103.349 46.8649 102.456 46.933 101.662 47.3129C100.988 47.6353 100.541 48.659 99.7847 48.1046C99.7228 47.782 99.7777 47.4478 99.9396 47.1622C100.101 46.8767 100.36 46.6586 100.667 46.5474C100.731 46.7098 100.908 46.7407 100.922 46.9625C101.168 46.7852 101.694 46.8016 101.858 46.5672C101.701 46.0846 101.602 45.5851 101.562 45.0791C102.624 44.3493 102.693 45.1661 103.333 45.7402C103.711 46.0761 104.42 46.0553 104.231 46.5188H104.23Z" fill="#E27BF5"/>
<path d="M49.4156 55.6895C48.7004 56.0017 47.9813 56.2979 47.2598 56.585C47.9274 56.5652 48.2359 56.9688 48.865 56.9958C48.9613 57.1868 48.7813 57.7087 49.1413 57.5879C49.1848 57.4335 49.2608 57.2902 49.3642 57.1678C49.4676 57.0454 49.5959 56.9467 49.7405 56.8784C49.9331 56.8905 50.0101 57.0355 50.2508 56.9886C50.2787 56.7146 50.5126 56.5821 50.5574 56.3192C50.3235 56.3682 50.08 56.3316 49.8706 56.2161C49.6613 56.1007 49.4999 55.9139 49.4156 55.6895Z" fill="#E27BF5"/>
<path d="M113.057 36.1652L113.252 36.1387C113.244 36.2164 113.3 36.2174 113.361 36.2145C113.369 36.2734 113.377 36.3319 113.384 36.3908C113.299 36.3864 113.297 36.4391 113.299 36.4922L113.104 36.5183C113.112 36.4405 113.056 36.4405 112.996 36.443L112.973 36.2662C113.056 36.2715 113.059 36.2193 113.057 36.1652Z" fill="#E27BF5"/>
<path d="M40.1442 42.071L40.339 42.0449C40.3313 42.1227 40.3871 42.1227 40.4482 42.1198C40.4559 42.1777 40.4636 42.2372 40.4718 42.297C40.3866 42.2912 40.3847 42.3453 40.3862 42.398L40.1914 42.4241C40.1995 42.3468 40.1432 42.3458 40.0822 42.3492C40.0745 42.2893 40.0663 42.2304 40.0586 42.1719C40.1442 42.1768 40.1457 42.1251 40.1442 42.071Z" fill="#E27BF5"/>
<path d="M103.647 54.0594C103.537 53.9149 103.384 53.8092 103.21 53.7578C103.138 53.8748 103.047 54.6312 103.414 54.5408C103.417 54.3276 103.731 54.331 103.647 54.0594Z" fill="#E27BF5"/>
<path d="M100.598 51.2305C99.8227 51.8205 98.9358 52.2454 97.9914 52.4794C97.6516 53.2077 97.9544 54.3797 96.4512 54.3039C96.4704 54.4513 96.4902 54.5982 96.5094 54.7451C97.4779 54.4619 97.938 55.269 98.9507 55.2284C98.7736 54.7374 98.414 53.9844 98.6071 53.3865L99.2886 53.2952C98.9517 52.5528 100.207 52.4881 100.351 52.344C100.242 52.8853 99.8667 53.2406 99.9659 53.9245C100.149 53.7024 100.403 53.5512 100.685 53.4969C100.967 53.4426 101.259 53.4885 101.511 53.6267C101.665 53.5286 101.784 53.3837 101.85 53.2131C101.917 53.0425 101.927 52.855 101.88 52.678C101.295 52.3633 100.841 51.8503 100.598 51.2305Z" fill="#E27BF5"/>
<path d="M96.5957 51.6791C97.065 51.682 97.2503 51.4892 97.6546 51.4467C97.8862 51.5134 97.8919 51.8473 98.2852 51.7212C99.1737 51.2113 99.0856 50.0296 99.3196 49.063C98.7001 49.0083 98.1538 49.3017 97.7158 48.918C97.6093 49.1495 97.4224 49.3342 97.1901 49.4375C97.4842 50.5274 97.2185 51.2268 96.5957 51.6791Z" fill="#E27BF5"/>
<path d="M115.28 52.1409C115.316 51.8297 115.374 51.5215 115.455 51.2188C115.171 51.2512 114.908 51.3818 114.711 51.588C114.963 51.6992 114.898 52.1844 115.28 52.1409Z" fill="#E27BF5"/>
<path d="M94.483 48.4561C94.6165 48.4386 94.7437 48.389 94.8541 48.3117C94.9645 48.2344 95.0546 48.1315 95.117 48.0117C94.8241 48.102 94.432 48.1247 94.483 48.4561Z" fill="#E27BF5"/>
<path d="M113.361 54.1057C113.405 54.5991 114.083 54.344 114.576 54.3029C114.649 53.605 113.628 53.8162 113.361 54.1057Z" fill="#E27BF5"/>
<path d="M111.88 45.9431C111.852 45.6294 112.107 45.511 112.079 45.1968C111.63 45.1166 111.476 45.9556 111.88 45.9431Z" fill="#E27BF5"/>
<path d="M113.761 51.8965C113.441 51.9419 113.069 51.952 113.115 52.252C113.202 52.7581 114.072 52.3848 113.761 51.8965Z" fill="#E27BF5"/>
<path d="M94.3186 47.218C94.0404 47.2074 93.7949 47.1566 93.5162 47.1465C93.6053 47.4577 93.4084 47.7424 93.4628 48.232C93.7516 48.1276 93.7689 48.3456 94.0587 48.2426C93.8546 47.7004 94.5222 47.7603 94.3186 47.218Z" fill="#E27BF5"/>
<path d="M78.9951 53.4082C78.3304 53.5107 77.9622 53.8176 78.1509 54.5102C79.1862 54.3067 79.4736 54.9877 79.6156 55.8426C79.9925 56.0442 80.4157 56.1422 80.8425 56.1268C80.4935 54.8364 79.011 54.8175 78.9951 53.4082Z" fill="#E27BF5"/>
<path d="M94.3691 52.0665C94.3771 52.199 94.4271 52.3255 94.5119 52.4273C94.5966 52.5292 94.7116 52.6011 94.8401 52.6326C94.9021 52.4346 95.1022 52.3317 95.0618 52.0641C94.8574 52.0071 94.5601 51.84 94.3691 52.0665Z" fill="#E27BF5"/>
<path d="M83.4915 53.7028C82.2755 53.3193 83.3092 55.2175 83.4915 53.7028V53.7028Z" fill="#E27BF5"/>
<path d="M84.4963 52.3107C84.8996 52.2692 85.0859 52.0754 85.5552 52.0797C85.5003 51.6022 84.3562 51.9135 84.4963 52.3107Z" fill="#E27BF5"/>
<path d="M0.737622 70.8754C0.546137 70.8754 0.362494 70.799 0.227093 70.663C0.0916924 70.5271 0.015625 70.3427 0.015625 70.1504C0.015625 69.9581 0.0916924 69.7737 0.227093 69.6378C0.362494 69.5018 0.546137 69.4254 0.737622 69.4254H0.807415C12.3753 69.4013 27.9911 63.4236 40.3108 58.2126L41.2311 57.822C41.2585 57.8103 41.2867 57.8003 41.3153 57.7921C46.6441 56.2706 51.018 54.8719 54.7676 51.9164C54.8121 51.8816 54.8606 51.8521 54.912 51.8285C55.2118 51.6893 55.5132 51.5544 55.8145 51.4201C55.8352 51.4109 55.8563 51.4027 55.8775 51.3954C56.5836 51.1576 57.2917 50.9257 57.9983 50.6937C60.7715 49.8483 63.4896 48.8301 66.1366 47.6449C66.4418 47.4999 66.7445 47.3501 67.0449 47.1954C69.4901 43.9572 72.9653 43.3227 76.3317 42.7084C77.9053 42.4764 79.4528 42.0918 80.9525 41.56C81.3289 41.3005 81.6899 41.0284 82.0263 40.7442C82.0985 40.6833 82.1819 40.6373 82.2718 40.6088C82.8196 40.4349 83.3577 40.2705 83.8862 40.1159C87.8639 38.9506 91.007 38.4194 93.4965 38.4919C98.6068 38.6398 102.417 40.2739 104.823 43.3492C107.807 47.165 107.823 52.1576 107.58 54.7404C110.115 52.9768 116.017 48.9702 123.982 44.1829L125.077 43.5266C128.934 40.8835 133.081 38.6942 137.436 37.0019L138.569 36.1701C138.978 35.8698 139.393 35.5695 139.814 35.2692C139.84 35.25 139.868 35.2329 139.897 35.218C140.344 34.9831 140.793 34.7482 141.245 34.5133C144.671 32.7362 148.097 31.046 151.43 29.4902C151.911 29.2647 152.394 29.0409 152.879 28.8189C156.768 26.0222 161.116 23.9333 165.725 22.6475C166.229 22.5107 166.741 22.3826 167.248 22.2676C169.213 21.6737 171.123 20.9064 172.954 19.9747C175.534 18.7544 178.2 17.4924 181.255 17.2682C181.808 17.2258 182.363 17.2237 182.917 17.2619C182.94 17.2619 182.965 17.2663 182.987 17.2701C185.312 17.6018 187.678 17.486 189.96 16.9289C190.389 16.8371 190.817 16.7388 191.243 16.6341C196.356 13.8309 201.102 13.0938 205.354 14.4476C205.806 14.478 206.245 14.5085 206.682 14.5544C207.003 14.5882 207.322 14.6301 207.639 14.68C207.846 14.7124 208.055 14.7482 208.261 14.784L208.502 14.825C214.711 14.8323 218.716 18.4368 221.512 21.5808C221.738 21.8051 221.984 22.0641 222.22 22.3275C227.943 28.7034 228.258 37.2136 228.117 40.6712C230.138 39.2952 234.515 36.3697 240.382 32.7299C240.842 32.4447 241.311 32.1547 241.789 31.8599C241.831 31.8347 241.875 31.8137 241.92 31.7971C246.992 29.9605 251.533 26.8388 255.392 24.0558L256.556 23.21C256.585 23.1882 256.617 23.169 256.649 23.1525C259.607 21.6185 262.425 19.866 265.154 18.1676C272.143 13.8178 278.745 9.71255 287.481 9.01078C287.5 9.01078 287.52 9.01078 287.539 9.01078C288.916 9.01078 290.223 7.98567 291.608 6.90063C292.339 6.30286 293.107 5.75084 293.906 5.2477C293.952 5.22033 294 5.19812 294.05 5.18149C294.96 4.90378 295.896 4.71728 296.842 4.62471C297.392 4.55318 297.912 4.486 298.433 4.37725L300.042 3.89394C307.052 1.81183 313.387 0.631092 318.871 0.384119C319.358 0.361887 319.841 0.346904 320.347 0.339171C326.57 -0.180391 333.072 -0.213256 337.585 5.44828C337.919 5.77306 338.227 6.09833 338.503 6.4149C338.794 6.74902 339.068 7.09778 339.324 7.45983C339.365 7.51768 339.397 7.58137 339.42 7.6488C341.503 13.8922 341.833 21.1458 340.374 28.6246C340.369 28.6478 340.363 28.6729 340.356 28.6947C340.192 29.2424 340.015 29.7933 339.827 30.3471C338.217 34.3311 336.257 38.1522 334.221 42.0433C334.002 42.458 333.785 42.8688 333.558 43.2946C332.52 48.9098 329.322 53.9314 324.302 57.8288C323.994 58.2213 323.686 58.6097 323.376 58.9941C320.104 63.1266 316.451 66.939 312.464 70.3805C312.335 70.4893 312.171 70.549 312.002 70.5491L0.810785 70.8715H0.737622V70.8754ZM41.7514 59.1792L40.8696 59.5528C32.1575 63.2366 21.806 67.3008 12.3223 69.4158L311.734 69.106C315.569 65.7653 319.089 62.0765 322.25 58.0864C322.574 57.6843 322.897 57.2777 323.219 56.8665C323.256 56.8189 323.298 56.7762 323.346 56.7394C328.153 53.031 331.199 48.2553 332.155 42.9283C332.168 42.8536 332.193 42.7815 332.229 42.7146C332.475 42.254 332.71 41.8133 332.942 41.371C334.959 37.5142 336.901 33.7284 338.472 29.844C338.636 29.3563 338.805 28.8339 338.962 28.3134C340.358 21.1328 340.054 14.1861 338.084 8.2138C337.876 7.92381 337.65 7.64107 337.415 7.36945C337.157 7.07221 336.865 6.76627 336.548 6.45937C336.525 6.43725 336.504 6.41368 336.484 6.3888C332.413 1.24877 326.313 1.29661 320.414 1.78621C319.875 1.79636 319.404 1.81038 318.932 1.83454C313.565 2.0762 307.346 3.23615 300.449 5.28637L298.812 5.77645C298.794 5.78224 298.775 5.78708 298.755 5.79095C298.168 5.91516 297.586 5.99055 297.023 6.06353C296.195 6.14458 295.377 6.30184 294.578 6.53332C293.856 6.99726 293.16 7.50184 292.494 8.04464C290.986 9.22634 289.427 10.4482 287.567 10.4612C279.192 11.1417 272.742 15.1547 265.912 19.4025C263.176 21.1047 260.348 22.8645 257.358 24.4178L256.233 25.2351C252.311 28.0635 247.694 31.2364 242.477 33.1383C242.023 33.4167 241.577 33.6918 241.139 33.9638C232.997 39.0163 227.748 42.6789 227.696 42.7151C227.581 42.7952 227.446 42.8403 227.306 42.8447C227.166 42.8492 227.029 42.8129 226.909 42.7402C226.79 42.6676 226.694 42.5617 226.633 42.4355C226.572 42.3092 226.549 42.1679 226.567 42.0288C226.581 41.9177 227.887 30.8097 221.145 23.2985C220.925 23.0546 220.698 22.8144 220.462 22.5779C216.567 18.1957 212.86 16.2677 208.442 16.274C208.401 16.2745 208.361 16.2711 208.321 16.2639L208.016 16.2117C207.818 16.1774 207.617 16.1426 207.416 16.1111C207.121 16.0641 206.827 16.0254 206.532 15.9951C206.084 15.9468 205.634 15.9183 205.18 15.8878C205.117 15.8833 205.055 15.8716 204.995 15.853C201.093 14.5824 196.671 15.2876 191.855 17.9492C191.799 17.9802 191.74 18.0034 191.678 18.0183C191.207 18.1343 190.735 18.2445 190.261 18.3455C187.813 18.9394 185.276 19.0613 182.783 18.7046C182.309 18.6738 181.834 18.6766 181.361 18.7128C178.575 18.9177 176.143 20.0661 173.569 21.2855C171.653 22.2595 169.653 23.0588 167.595 23.6735C167.079 23.7915 166.587 23.9152 166.102 24.0462C161.635 25.2943 157.422 27.3241 153.657 30.0422C153.62 30.0686 153.581 30.0914 153.54 30.1103C153.037 30.3407 152.536 30.5724 152.037 30.8053C148.723 32.3519 145.315 34.0338 141.907 35.8018C141.471 36.0274 141.038 36.2529 140.607 36.4785C140.205 36.7659 139.808 37.0533 139.417 37.3407L138.206 38.2343C138.152 38.2748 138.092 38.3074 138.029 38.331C133.736 39.9924 129.649 42.148 125.851 44.7547L124.725 45.4313C114.061 51.8401 107.123 56.8375 107.055 56.8859C106.936 56.9713 106.795 57.0188 106.649 57.0221C106.504 57.0254 106.36 56.9844 106.238 56.9043C106.116 56.8243 106.021 56.7091 105.966 56.5738C105.91 56.4385 105.897 56.2895 105.927 56.1464C105.942 56.0754 107.386 48.9687 103.683 44.2419C101.554 41.5257 98.1134 40.0801 93.456 39.9448C91.1187 39.8776 88.1224 40.3899 84.2915 41.5117C83.8162 41.6509 83.333 41.798 82.8417 41.9529C82.4817 42.2492 82.0981 42.5368 81.7 42.8079C81.6571 42.8371 81.6113 42.8615 81.5633 42.8809C79.9519 43.4656 78.2862 43.8865 76.5911 44.1375C73.3133 44.7359 70.2178 45.3013 68.1077 48.1935C68.042 48.2831 67.9569 48.3564 67.8588 48.4081C67.4949 48.5985 67.127 48.7818 66.7551 48.9581C64.0536 50.1702 61.2791 51.211 58.4478 52.0745C57.7554 52.3 57.0627 52.5291 56.3699 52.7618C56.111 52.8773 55.852 52.9933 55.5935 53.1122C51.6625 56.186 47.1861 57.6244 41.7524 59.1768L41.7514 59.1792Z" fill="#22183B"/>
</g>
<defs>
<clipPath id="clip0">
<rect width="342" height="71" fill="white" transform="translate(0.015625)"/>
</clipPath>
</defs>
</svg>
