<svg width="175" height="71" fill="none" xmlns="http://www.w3.org/2000/svg"><g clip-path="url(#clip0)"><path d="M.736 70.151c27.115 0 75.177-31.44 92.737-30.932 16.686.483 13.156 17.077 13.156 17.077s44.604-32.22 84.715-39.632c40.11-7.41 35.939 25.455 35.939 25.455s65.994-46.14 99.796-40.598c31.447 5.155 4.492 51.875-15.081 68.308L.736 70.15z" fill="#F5EAF9"/><path d="M117.736 55.588c.094.136.822.039.876-.118-.207.01-.884-.29-.876.118zm6.649.099l.487-.066c.112-.446-.662-.239-.487.066zm-75.562 9.946c.1.308-.057.441-.112.643a.45.45 0 00.588-.218.456.456 0 00.045-.225.42.42 0 00-.521-.2zm-1.76-5.789c-.102.197-.374.277-.428.506.128.225.325.365.385.669-.071.324-.441.444-.38.86 1.055.032 1.058-.66 1.548-1.015-.383-.332-.602-.857-1.125-1.02zm.707.085c.228.046.464.046.693 0 .076-.237.11-.485.1-.734-.519.07-.767.326-.794.734zm4.89 1.774c.526-.228.758.254 1.083-.056-.117-.263-1.01-.559-1.083.056zm1.236-1.874a4.93 4.93 0 001.254-.259c.002-.622-1.562-.444-1.254.259zm3.008 4.001l.048.353c.167-.072.398-.097.464-.242-.191-.013-.272-.157-.512-.112zm-9.219.695c-.11.3-.442.445-.38.862a.618.618 0 00.728.26 1.087 1.087 0 00-.348-1.122zm2.463-3.835a.7.7 0 00.474-.152c-.217-.557-.685-.658-1.347-.45.123.235.421.478.093.707-.192.215-.48-.03-.875.117-.036.418.3.395.3.77a.68.68 0 00.498.021c.75 1.405 2.032.638 2.725-.365a1.518 1.518 0 00-.192-.693c-.475.095-1.578 1.136-1.676.045zm2.707-4.227c-.019-.371-.389-.382-.592-.73-.41.279-1.214.285-1.39.724.404.764 2.032 1.047 1.982.006zm12.059 2.788c.98.397 2.346-.6 1.428-1.18.001.724-1.383.487-1.428 1.18zm.783 1.422c.468 1.02 1.536.398 1.62-.486-.612-.405-.87.49-1.62.486zm.051-5.58a.354.354 0 00-.287-.307.348.348 0 00-.149.007c-.052.358.283.483.436.3zm4.157.702c-1.234.196-2.483-.01-3.032 1.035.525.094.998.25 1.53.335.048-.286.019-.629.404-.684.394.25.693.611 1.36.537 0-.435.083-.978-.262-1.223zm-2.855-1.326l-.292.039c-.048.294.187.255.34.313l-.047-.352zm-9.907 5.194c.274.014.435.165.716.173.019-.174.257-.198.136-.467-.293.392-.718-.058-.852.294zm1.109-2.845c.262.743-.445.816-.409 1.402a2.218 2.218 0 001.794-1.409 11.175 11.175 0 00-1.385.007zm.036 7.728c-.11.434.045 1.353.748 1.16.13-.282-.302-.624-.25-1.135-.265.107-.27-.093-.498-.025zm3.569-4.436c-.033-.345.228-.484.405-.684-.623-.047-.925.63-.405.683zm1.289 2.975c.068.207-.153.215-.038.454.42-.022.678.151 1.107.123.038-.215.291-.28.33-.495-.285-.242-.817-.191-1.4-.082zm-33.308 4.282c.096.136.822.039.875-.118-.207.01-.884-.29-.875.118zm4.911-2.547c-.187.006-.202.129-.378.141.032.27.02.589.362.49.13-.144.25-.47.016-.63zm-1.946.262c.482.288.944-.346.61-.621-.463.027-.684.223-.61.621zm.172-3.172c-.019.176-.18.252-.135.47.385.14.68.396.518.918.884.56 1.33-.35 1.343-1.079-.559-.12-.963-.424-1.726-.308zm38.162-2.055a1.216 1.216 0 00-.626 1.254c.516-.164 1.71-.98.626-1.254zm-34.65 7.61l.487-.065c.111-.445-.663-.24-.487.065zm1.667-3.1c.13.323.75.044.768-.193-.186-.099-.853-.262-.768.193zm-5.559-1.592c-.61.059-1.094.207-.989.762.29.511.947.081 1.363-.183-.039-.295-.357-.26-.374-.579zm3.63-1.745c-.066.569-.558.843-.492 1.505.722.053 1.107-.778 1.306-1.345-.247-.082-.4-.275-.814-.16zm6.468-2.767l.014.097c.607.153 1.82.109 1.802-.601-.049-.03-.1-.056-.152-.08-.552.2-1.107.395-1.664.584zm-1.462.489l-.84.273c.01.647.664.531.85.972-.006.425-.37.6-.358 1.038 1.224.377.433-1.295 1.73-1.132 0-.85-1.32-.556-1.382-1.151zm3.824 1.633c.276.08.548.168.825.25-.007-.3.23-.43.089-.822a.819.819 0 00-.914.572zm-.2-1.501c.542-.06.733.29 1.227.286.206-.4-.4-.577-.433-1.021a.844.844 0 00-.794.735zm2.375-.768c.032-.652-.38-.777-.638-1.083.065.401.016.812-.14 1.187a.837.837 0 00.778-.104zm-8.726 2.16c-.105.567.418 1.082 1.066.575-.053-.551-.47-.67-1.066-.575zm8.152-1.272c.016.218.042.426.167.515.223-.06.408-.144.451-.33-.34.096-.281-.28-.618-.185zm17.621 1.414c.3.803.474 1.758 1.34 1.888.16-.344-.076-.962-.09-1.426a1.498 1.498 0 01-1.25-.462zm36.087-3.489c.208-.615 1.095-.217 1.386-.005a1.203 1.203 0 00-.347-1.123c-.549.184-1.45.548-1.039 1.128zm2.288-.667c.316.404.977.467 1.071-.145.461-.096 1.011.109 1.363-.182a3.406 3.406 0 00-.337-1.035c-.433.638-2.079.439-2.097 1.362zm-5.857 2.135c.355.294 1.022.22.931 1.044l.39-.052a6.736 6.736 0 01-.698-1.525c-.484-.013-.594.233-.623.533zm-9.356-1.083c-.821-.228-1.241.429-.845 1.101.289-.103.367.043.596.01-.166-.542.415-.57.249-1.111zm-7.158 4.286a.77.77 0 00-.089.821.623.623 0 00.78-.412.63.63 0 00.014-.323c-.22-.047-.362-.186-.705-.086zm-1.66-5.804c-.033-.232.017-.564-.352-.4.111.14.06.474.352.4zm4.081 3.141c-1.252.19-.864-1.568-2.158-1.329-.3.653.73.745.394 1.476.764.322.986 1.285 2.477.747a1.734 1.734 0 00-.713-.894zm13.443-1.713c.182-.062.414-.087.354-.316-.188-.136-.38.078-.354.316zm-20.217 2.17c-.63 1.192 1.897 1.22 1.386-.006-.612.18-.775-.173-1.386.006zm7.367-2.695c-.389.025-.503.242-.416.595.509.247.87-.352.416-.595zm-9.594 3.084c-.438.402.052.955.2 1.501 1.415.234.826-1.623-.2-1.5zm4.519.475c-.232.35.215.58.57.551-.047-.353-.14-.651-.57-.55zm-.655-2.701c-.238.21-.863.152-.819.56.253.381.697.536.834 1.055.157-.177.94.194 1.266-.17-.072-.903-.904-.903-1.281-1.445zm4.15 4.389c.171.01.34-.045.474-.154a.397.397 0 00-.132-.25c-.246.042-.36.177-.342.404zm11.475-4.595c-.177.208.06.448.35.402-.014-.257-.05-.483-.35-.402zm-2.685-.809a.877.877 0 00.893-.499.886.886 0 00.085-.351l-.876.117a.921.921 0 00-.102.733zm-7.299-1.27a.52.52 0 00-.276.532.522.522 0 00.405.44c.407-.112.498-1.05-.129-.972zm11.874 5.871c.273.267.866.014.949-.307-.237-.364-.983-.164-.95.307zm-11.008-3.828l.06.441.291-.039c.035-.318-.142-.376-.35-.403zm-11.156 4.012c-.05.42-.217.758-.236 1.2.279-.048.643-.038.766-.193.174-.388-.043-1.073-.53-1.007z" fill="#E27BF5"/><path opacity=".3" d="M171.105 43.49a.517.517 0 00-.276.532.517.517 0 00.405.44c.407-.114.498-1.049-.129-.971z" fill="#E27BF5"/><path d="M140.559 49.922c.525-.228.758.254 1.083-.056-.118-.263-1.01-.56-1.083.056zm-2.51-1.012a.7.7 0 00.474-.154c-.217-.556-.685-.657-1.348-.449.123.234.422.478.094.706-.193.215-.481-.03-.876.118-.036.417.3.395.3.769.158.07.336.078.499.022.749 1.405 2.032.638 2.725-.365a1.517 1.517 0 00-.193-.693c-.475.094-1.578 1.135-1.675.046zm-3.086-.845c-.102.196-.374.276-.428.506.128.225.325.365.385.669-.071.324-.441.444-.38.86 1.055.032 1.059-.66 1.549-1.015-.386-.332-.602-.856-1.126-1.02zm.703.085c.229.046.464.046.693 0a2.1 2.1 0 00.101-.734c-.518.069-.767.325-.794.734zm1.057 5.704c.1.308-.056.441-.112.643a.454.454 0 00.634-.443.42.42 0 00-.522-.2zm4.03-9.173c-.019-.37-.388-.381-.592-.73-.409.28-1.214.285-1.39.725.406.764 2.034 1.047 1.982.005zm4.288 3.203c.275.014.436.164.716.173.019-.174.257-.198.136-.467-.291.392-.716-.058-.852.294zm1.109-2.847c.263.743-.445.816-.408 1.402a2.222 2.222 0 001.794-1.41 11.166 11.166 0 00-1.386.008zm-1.345 7.013c.015.118.031.236.048.353.166-.071.398-.096.463-.241-.191-.013-.272-.158-.511-.112zm-3.01-4.002a4.956 4.956 0 001.254-.258c.002-.623-1.565-.446-1.254.258zm4.391 4.716c-.11.435.045 1.354.748 1.16.131-.282-.302-.623-.25-1.135-.265.108-.269-.092-.498-.025zm-10.601-.018c-.109.299-.441.444-.38.86a.617.617 0 00.728.262 1.082 1.082 0 00-.348-1.122zm-5.05-6.696l.071.53c.607.152 1.819.108 1.803-.602-.6-.374-1.049-.13-1.874.073zm-1.641-.41a.327.327 0 00-.227-.367.326.326 0 00-.392.182c.245.017.252.314.619.186zm.252 1.135c-.415.009-.523.228-.853.294-.117.856.645.668.846 1.146-.005.424-.369.6-.357 1.037 1.225.377.433-1.295 1.733-1.131-.002-.932-1.592-.487-1.369-1.346zm3.809 1.825c.276.08.548.168.826.25-.007-.3.23-.43.088-.822a.819.819 0 00-.914.572zm-2.305-3.914c-.283-.042-1.034-.259-1.168.157.319.2.674.336 1.044.4-.059-.256.184-.302.124-.557zm4.479 1.647c.031-.652-.38-.777-.639-1.083.065.401.017.813-.14 1.187a.832.832 0 00.779-.104zm-.576.887c.015.22.041.427.166.516.224-.06.408-.145.452-.33-.338.095-.281-.28-.618-.186zm-.586-2.169c-.078-.009-.123-.058-.121-.163a.914.914 0 00-.573.167c.084.217.212.414.374.58.03-.249.379-.275.32-.584zm-1.213 2.051c.541-.06.732.29 1.226.286.207-.399-.4-.577-.433-1.02a.843.843 0 00-.793.734z" fill="#E27BF5"/><path opacity=".3" d="M159.036 48.076a1.212 1.212 0 00-.626 1.253c.515-.163 1.71-.979.626-1.253zm6.429-2.301c-.237.21-.863.153-.818.56.252.382.697.537.834 1.056.157-.177.939.193 1.265-.17-.071-.902-.905-.903-1.281-1.446zm1.055-1.762c-.034-.232.016-.564-.352-.401.111.141.06.475.352.401zm-2.694 3.6c-.63 1.192 1.898 1.22 1.386-.006-.612.18-.774-.173-1.386.006zm-2.228.389c-.438.401.051.955.199 1.501 1.417.234.828-1.623-.199-1.501zm5.296-6.375c-.665.102-1.033.41-.845 1.102 1.035-.204 1.323.478 1.465 1.332.377.202.8.3 1.227.285-.349-1.29-1.83-1.31-1.847-2.719zm-.773 6.848c-.233.349.214.58.569.55-.047-.352-.139-.65-.569-.55z" fill="#E27BF5"/><path d="M149.758 48.33c-.033-.345.228-.483.405-.683-.625-.046-.925.63-.405.683z" fill="#E27BF5"/><path opacity=".3" d="M168.181 49.816a.774.774 0 00-.088.822.623.623 0 00.779-.413.633.633 0 00.015-.323c-.22-.045-.363-.185-.706-.086zm2.419-2.662c-1.251.189-.863-1.569-2.158-1.329-.3.653.73.745.395 1.476.763.322.986 1.285 2.476.746a1.729 1.729 0 00-.713-.893zm-.987 3.009a.682.682 0 00.474-.154.391.391 0 00-.132-.251c-.245.044-.359.179-.342.405z" fill="#E27BF5"/><path d="M152.812 47.47c.979.397 2.346-.6 1.428-1.18.003.724-1.383.489-1.428 1.18zm.835-4.158a.355.355 0 00-.288-.307.352.352 0 00-.149.006c-.051.36.283.483.437.3zm-1.471 5.323c.299.803.472 1.757 1.34 1.888.161-.345-.077-.963-.091-1.427a1.5 1.5 0 01-1.249-.461zm-1.132 2.669c.068.207-.152.215-.038.454.421-.023.678.15 1.107.123.038-.215.291-.28.331-.495-.286-.242-.818-.191-1.4-.082z" fill="#E27BF5"/><path opacity=".3" d="M160.815 49.545c-.051.42-.218.759-.237 1.201.279-.048.644-.038.766-.193.175-.389-.042-1.073-.529-1.008z" fill="#E27BF5"/><path d="M153.596 48.892c.468 1.02 1.536.398 1.619-.484-.612-.406-.869.49-1.619.484zm4.206-4.876c-1.235.193-2.483-.011-3.032 1.035.525.093.997.249 1.529.334.051-.286.019-.628.405-.684.394.25.693.611 1.36.537.002-.435.084-.977-.262-1.222zm-31.4 4.476c-.105.568.419 1.083 1.067.576-.053-.55-.469-.67-1.067-.576zm28.549-5.804l-.292.039c-.048.294.187.255.336.313a14.139 14.139 0 00-.044-.352z" fill="#E27BF5"/><path opacity=".3" d="M171.193 44.916c-.388.025-.503.242-.415.595.508.246.869-.353.415-.595z" fill="#E27BF5"/><path d="M126.191 46.902l.972-.13c-.134-.52.241-.691.249-1.112-.305.484-1.365.449-1.221 1.242z" fill="#E27BF5"/><path opacity=".3" d="M175.339 45.53c-.821-.227-1.241.43-.844 1.102.288-.104.367.043.595.01-.166-.542.415-.57.249-1.112zm-2.944-5c.403-.042.589-.236 1.059-.231-.058-.478-1.199-.167-1.059.23z" fill="#E27BF5"/><path d="M203.254 29.742c-.266-.055-.352-.656-.215-.87l.096-.014c-.109-.824-.218-1.649-.329-2.473-.451-.12-.754.473-1.424.46-.033-.096-.126-.122-.218-.15-.181-.686.541-.749.407-1.401a.805.805 0 011.107.122l-1.335-10.045a92.989 92.989 0 00-10.223 1.511c-14.42 2.79-28.014 8.504-41.522 14.108a137.204 137.204 0 00-10.884 5.112.386.386 0 01.025.13.689.689 0 01-.536.142 165.566 165.566 0 00-5.928 3.274l.09.046a.298.298 0 01-.179.343.293.293 0 01-.363-.13c-1.51.88-3.01 1.78-4.497 2.7.487.165.988.31.607 1.008-.188.193-.705.155-1.059.232.11.342-.211.389-.101.732 1.022-.04 1.726-.226 2.579.014.352-.29.313-.852.418-1.315-.487-.042-1.339-.68-.651-1.172.353-.11.438.097.791-.015.389-.387.709-.97 1.498-.65.344-.218.333-.68 1-.674.201.035.289.201.351.403-.693.38-2.016 1.378-.813 2.086.183.223.111-.395.561-.254.301-.085.096.435.437.3.273-.145 1.094-.537 1.362-.182-.328.638.302 1.152.526 1.727.911-.19 1.209.338 1.932.372.097.19-.083.712.277.592a1.111 1.111 0 01.599-.71c.193.013.27.157.51.11.028-.273.262-.406.307-.669-.939.202-1.188-.778-1.586-1.496.554.11.905-.173 1.558-.209a1.62 1.62 0 00.357-1.037c-.599-.123-1.421-.477-1.246-1.181 1.042-.01 1.303.909 2.048 1.254.032.277.002.558-.089.822a2.964 2.964 0 011.46-.196c.287.514.525 1.054.71 1.614.267-.065.676-.49.876-.118-.243.62-.857 1.281-.144 1.908.722-.049 1.626-.182 2.297.142.814-.238.676-1.48.617-2.062-.625.13-.428.828-1.062.951-.375-.241.111-.665-.106-.794-2.253.416-.394-1.93.607-2.15.507.08.5.77.834 1.058.612-.473 1.536-.668 2.152-.2-.11.322-.133.666-.066.998.316.18.669.287 1.032.312.27-.402.367-.924 1.051-1.04.211.26.167.824.348 1.122.018.387-.49.412-.49.785.327-.014.465.198.899.06.529-.518.703-1.28 1.794-1.41.189-.222-.145-.348-.097-.706.537-.7 2.022-.744 2.475-1.498 1.113-.06 1.354.853 1.026 1.75 1.535-.01 1.127-1.36 2.147-1.726.501.185.107 1.066.262 1.223a1.17 1.17 0 011.133-.422c.205.167.151.639.226.96-.993.306-.747 2.488.169 2.764.819-.184.09-1.436.434-1.946-.342.048-.823-.426-.386-.667.461-.17.374.307.729.262.134-.577.13-1.248.47-1.681.963-.203.606.575 1.188.738a1.346 1.346 0 00-.164 1.012c1.179.496 1.438.165 2.325-.402a2.117 2.117 0 01-.284-1.401c-.636.104-1.023-.085-1.166-.564.461-.524 1.19-.02 1.348.448 1.054-.233 1.342-.998 2.412-1.222.301-.611-.183-.677-.272-1.311.085-.424.485-.628.77-.913a1.03 1.03 0 01.991-1.482c.972.18.433 2.018-.617 2.061a3.895 3.895 0 01-.556 1.783c.241.126.121.677.482.654.385.235.556-.36 1.047-.32-.032.73.235 1.792 1.149 1.195-.045-1.14-.702-1.553-1.096-2.28.21-.25.431.008.779-.105.048-.286.018-.628.404-.683.327.057.482.319.581.64.292-.066.593-.076.888-.028-.007-1.5 1.273-.944 1.934-.349.444-.67 1.328-.097 1.971-.085a1.259 1.259 0 00.834 1.057c.372-.144.524-.439 1.023-.496.332 1.09-1.111 1.636-2.21 2.004-.031-.066-.096-.091-.206-.061-.268-.161.003-.96-.421-.934-.23.403-.722.628-.954 1.028.133.557.879.39.931 1.043 1.004-.233 1.181.511 2.041.446-.031-.889 1.211-.96 1.802-.601.193-.857.11-1.903.438-2.666.308-.313.482.183.9.059.119-1.027 1.767-1.267 1.969-.084a1.629 1.629 0 00-1.291.713c.124.187.517.698.117.883-.413.114-.566-.08-.814-.16a1.748 1.748 0 00-.381.86c.494.212.918.56 1.224 1.004.265-.013.526-.079.766-.193.051-.572-.458-.48-.433-1.022.187-.378.88-.408.976-.85-.24-.912-.014-1.994.801-2.175.651-.145 1.413.715 2.188.067a1.71 1.71 0 01.046-1.895c-1.464-.115-2.311.483-3.142.96-.108-.24.038-.912.019-1.352-.292.06-.608.608-.866.205a1.597 1.597 0 00.093-1.54c1.31-.752.063-2.41.843-3.35a.853.853 0 01.464 1.198c.498.532 1.581.883 1.232 1.814a6.62 6.62 0 001.011.135c-.337-.306-.178-.613-.25-1.135.556-.254 1.163-.922 1.716-.5.081.257.117.526.106.795-.124.155-.488.145-.767.193-.109.647-.522 1.084-.773 1.632.759.586 2.564-.226 3.465-.014.651.516.429 1.52.368 2.018.426.272.93.395 1.433.348.349.312.608.712.748 1.16.749.406 1.781.477 2.586.821.175-.172.42-.297.415-.594-.163-.387-.859-.141-.97-.59.099-.386.419-.62 1.001-.673-.289-.503-1.11-.103-1.678.046-.245-.222-.562-.358-.605-.82-.409.182-1.382.415-1.495-.068.836-.911 2.172-.152 3.263-.797-.046-.326-.038-.615.307-.67a5.3 5.3 0 001.031.31c.318-.23.856-.663 1.315-.535-.288.892.252 1.558 1.283 1.446.715-.894-.697-2.59.356-3.286.385.085.553.435 1.044.4.135-.416.549-.638.649-1.077-.91-.114-1.492-.567-1.488-1.509-.433.139-.571-.072-.9-.06-.146.327-.203.716-.577.887-.453-1.493-2.359-.215-1.476.828.394-.24.755-.923 1.499-.651-.091.662-.195 1.347-.676 1.62-1.211.684-1.471-.368-2.037-1.166.152-.395.372-.759.65-1.076-.333-.017-.559-.156-.57-.553a1.74 1.74 0 01.67-.18c.149-.246-.054-.733.393-.774.613.194.682 1.033 1.772.663.336-.221.352-.666.782-.822a5.27 5.27 0 001.472-.108c.138.172.233.375.276.592a1.065 1.065 0 01.912.148c.061.63-.459.86-.506 1.416.848-.236.922-1.798 2.109-1.271.097.52-.285.712-.455 1.049.301.326.733.496.834 1.058.437.061.804.015.95-.308a1.423 1.423 0 001.422.26 1.32 1.32 0 01.077-.91c-.147-1.092-.292-2.183-.437-3.272zm-68.272 11.755c-.276.155-.674.118-.728-.263a.913.913 0 01.572-.166c-.012.22.204.171.156.43zm4.664-4.402a.697.697 0 01.028-.543c.379-.145.451.08.619.188a.448.448 0 01-.438.403.451.451 0 01-.209-.044v-.004zm1.343 4.137c-.249-.456-.722-.644-.857-1.234a3.72 3.72 0 011.592.056c-.024.546-.132 1.035-.735 1.18v-.002zm12.246-8.476l.39-.052a.65.65 0 01.154.34.65.65 0 01-.061.368c-.472.166-.665-.363-.483-.654v-.002zm-2.129 3.346c.147.342-.099.412-.222.569-.372-.022-.203-.614.222-.57zm-1.54 4.072c-.461.104-.349-.476-.179-.606.338.003.204.407.179.606zm-.092-8.89c0 .354-.568.632-.926.484-.078-.427.468-.424.925-.483h.001zm-5.842 8.966a.83.83 0 01.778-.104c.222.692-.767.695-.778.104zm.976-.85a.744.744 0 01.232-.935.736.736 0 01.32-.129c.466.305.28 1.163-.552 1.064zm.53-4.205c-.125-.515-.011-.865.466-.962.779.155.518 1.37-.466.96v.002zm.615-1.342c-.157-.401.164-.474.306-.67.15.026.262.096.413.125.214.476-.356.715-.718.544l-.001.002zm1.166 8.024c-.289-.57.131-1.208.914-1.292a.28.28 0 00.219.151c.118.722-.561.895-1.133 1.141zm1.417.98c-.236-.538.302-.542.381-.861a1.56 1.56 0 01.018-1.353c.963.181 1.354-.897 2.325-.403.092.653-.235 1.015-.289 1.568-1.278-.1-1.379 1.077-2.434 1.049h-.001zm1.752-.235c.408-.516 1.511-.47 1.701.131-.03.684-1.857.87-1.7-.131h-.001zm1.152-4.74c1.047-.173 1.536.824 1.501 1.597l-.193.026c-.78-.135-.912-1.033-1.307-1.624h-.001zm1.017 3.909a.408.408 0 01-.083-.618c.309-.026.589-.016.631.275.045.272-.259.302-.548.343zm1.572-.84a1.746 1.746 0 01-.118-.884l.486-.065c.281.315.216.976-.368.95zm.08-1.628c.5-.38.732.328 1.313.183l.048.353c-.581.35-1.12-.15-1.361-.537zm1.396-2.166c-.37.097-.496-.094-.888.028-.026 1.064-1.322.967-2.094.642a2.259 2.259 0 011.647-1.03c.333-.265.931-.882 1.522-.475.105.395-.126.557-.187.835zm9.029-4.357c.473-.015.55.44.873.603.137.722-.869.879-1.23.435a2.28 2.28 0 01.358-1.038h-.001zm-1.176-.652c.635-.061.508.765-.21.658-.063-.312-.004-.54.211-.658h-.001zm-2.056.185a.34.34 0 01.29.441.339.339 0 01-.11.165.332.332 0 01-.306-.238.34.34 0 01.004-.204.339.339 0 01.122-.163zm-.193 2.275l.39-.052c.065.179-.036.242-.051.366-.152-.058-.385-.02-.338-.314h-.001zm-1.13-2.547c.427.418.13.936.188 1.414a1.198 1.198 0 01-1.032-.31c-.042-.592.107-1.05.845-1.104h-.001zm-1.097-2.28c.022.255.131.572-.003.72-.481.126-.638-.13-.751-.44a.598.598 0 01.755-.28h-.001zm-2.888 4.343c.041-.32.362-.446.502-.696.442.044.855.244 1.165.563a15.288 15.288 0 00-.47 1.681c-.654-.214-.938-.866-1.197-1.548zm.337 3.282a.838.838 0 01.78-.105c.199.716-.737.659-.781.105h.001zm.341 2.561c-.276-.333.066-.551.296-.759.309.013.605.132.837.338.456-.406.64-.222 1.266-.17-.232 1.262-1.23.197-2.4.592h.001zm2.944-.215a.348.348 0 01-.388-.16.356.356 0 01-.049-.14c.106-.09.24-.14.379-.141a.312.312 0 01.057.442h.001zm5.337-.086c-.302.12-.172-.273-.424-.212-.173.256.261.3.082.618-.281.153-.407.414-.938.395-.129-.517.231-.696.466-.96-.027-.07-.109-.077-.12-.165-.575-.07-1.392.334-1.713-.22a.402.402 0 00.062-.278c.43-.077.845-.224 1.229-.435.506.186.85.562 1.555.511.204.438-.176.47-.2.746h.001zm-.235-1.766c-.057-.299-.409-.59-.214-.87-.395-.005-.361.285-.755.28-.145.222-.165.528-.296.76-1.139.478-1.839-.515-2.846.201a.417.417 0 01-.521-.2 1.076 1.076 0 00-.686.811c-.563-.116-1.17-.179-1.125-1.017.212-.121.273-.347.646-.357-.215-.457.102-.833.513-.607.154.372-.288.333-.209.657.225.157.475.275.739.35.674-.552 1.901-.72 1.844-1.776.939-.19 1.551.629 2.287.053-.113-.296-.361-.429-.204-.781l.487-.065a1.897 1.897 0 01.394 1.475c.236.368.73.43.823.967-.209.335-.532.159-.877.12zm.004-5.934c-.009-.433.614-.774 1.11-.599.095.52-.766 1.116-1.111.6l.001-.001zm1.842 3.441a.354.354 0 01-.39-.083.358.358 0 01-.069-.395.354.354 0 01.39.084.358.358 0 01.069.394zm.009-4.407c.332.015.56.158.569.553-.406.084-.77-.241-.568-.555l-.001.002zm.744 4.842c.094-.335.76-.43 1.144-.332a.6.6 0 01-.406.74.593.593 0 01-.738-.408zm1.958-.172c-.241-.092-.62-.016-.643-.364a.84.84 0 01.779-.105c.12.273-.04.351-.136.47v-.001zm-.658-4.948c.106-.364.854-.447 1.155-.242.398 1.028-1.063.865-1.155.244v-.002zm7.278 1.093c.313-.03.455.145.459.478a.695.695 0 01-.498-.023.549.549 0 01.039-.454v-.001zm-.856 1.015c.066.179-.035.242-.051.366-.173 0-.24-.123-.24-.327l.291-.038v-.001zm-2.663.086c-.026-.275-.34-.21-.277-.592.396-.261.407-.788 1.075-.862.652 1.051.572 2.49-1.482 2.266-.262-.607.388-.586.684-.81v-.002zm-.413 5.091c-.521.072-.812-.128-.873-.602.317-.21.525-.028.887-.03.148.236.07.374-.014.633zm1.051-1.039c-.008-.16-.144-.17-.144-.338a.46.46 0 01.705.086c.017.225-.304.217-.561.252zm.427-7.969c-.003-.644.421-.993 1.245-1.067a1.012 1.012 0 01-.354.85 1.01 1.01 0 01-.892.217h.001zm1.937 9.36c-.947.134-1.259-.483-1.453-1.244.172-.228.622-.266.829-.47-.128-.516.006-.852.577-.887.539.546-.463 1.507.111 2.324.385.327 1.065.305 1.212.918-.586.581-1.103-.121-1.276-.64zm.303-2.197c-.114-.242.106-.248.038-.456a2.947 2.947 0 011.18-.068c.384.89-.922.95-1.219.524h.001zm1.698-4.364c.485.038.578.541.895.779a1.039 1.039 0 01-.393.773 2.596 2.596 0 01-.503-1.552h.001zm.276 5.807c-.03-.475.316-.692.891-.749.785.564-.471 1.433-.892.749h.001zm6.214-10.633c.042.216.072.424-.027.543-.478-.012-.81-.199-.884-.69a1.35 1.35 0 01.911.147zM179.3 25.4c.301-.083.397.076.607.097.083.326-.382.514-.646.356a.55.55 0 01.038-.454h.001zm.811 13.558c-.564-.124-.889-1.188-.503-1.55.229-.047.464-.049.693-.004-.187.61.04 1.043-.19 1.554zm-.646-10.075c-.09-.801 1.392-.793 1.3.096-.369.256-1.159.25-1.3-.096zm1.543 2.67a.347.347 0 01-.284-.053.356.356 0 01-.149-.248c.136-.127.342-.334.573-.167.041.22-.12.297-.14.469v-.002zm-.211-1.59c-.17-.558.436-.783.904-.66.587.591-.527 1.2-.904.661v-.001zm2.077.71a.626.626 0 01-.398.395.618.618 0 01-.553-.088c-.07-.423.36-.5.163-1.01.717.279 1.433-.067 1.772.661-.249.246-.65.015-.984.044v-.002zm1.227-2.682c-.034-.545 1.16-.604 1.18-.068-.159.537-.904.446-1.18.07v-.002zm7.728-1.484c.261.58-.178 1.015-.685.81.014-.416.046-.822.685-.809v-.001zm-1.289-.008c.254.75-.856.685-.79.016a.686.686 0 01.79-.015zm-2.647 6.918c.029-.357.765-.553 1.132-.421.363.84-1.029 1.236-1.132.422v-.001zm-.548-4.871c.501.355.094 1.082-.588.798-.169-.3-.057-.822.588-.797v-.001zm-1.271 3.857a.847.847 0 01.216-.92.835.835 0 01.931-.134c-.026.564-.405 1.493-1.147 1.055v-.001zm1.186-1.509c-.023-.79.783-.457 1.425-.46.171 1.052-1.005.507-1.424.462l-.001-.002zm4.87 3.843c-.881.346-1.775.414-2.569.794-.674.322-1.12 1.347-1.877.792a1.382 1.382 0 01.883-1.557c.063.162.24.193.253.415.247-.178.773-.161.938-.396a6.454 6.454 0 01-.297-1.488c1.062-.73 1.131.087 1.771.661.378.338 1.087.317.898.78zm.779-10.533c-.025-.285.169-.418.537-.432.192.133.203.547-.015.631-.19-.045-.408-.06-.521-.198l-.001-.001zm.134 2.504c-.046-.38.3-.49.722-.548a.538.538 0 01.156.43 1.03 1.03 0 01-.878.118zm5.179-5.01c.356-.116.257.308.533.29.499-.005.441-.391.829-.472.172.172.515.14.558.465-.495.247-.688.702-1.16.966-.34.062-.359-.255-.631-.275-.175.256-.573.789-.852.294.387-.326.232-1.02.723-1.271v.002zm-.66 3.234c.647-.152.879.186 1.325.273-.045.434-.12.865-.226 1.288l-.289.04c-.297-.366-.433-.919-1.018-.943.004-.236.077-.465.208-.66v.002zm-1.522 5.69c-.113-.667.2-1.039.941-1.116-.758-.327-2.059-.015-2.647-.544-.048-.703.443-1.032.797-1.455.536.005.309.692.117.882.238.461 1.197.044 1.678-.045.21.228.591.254.593.731.495-.11.843-.046 1.02.222a2.167 2.167 0 01-2.499 1.321v.003zm3.075-2.211c-.113-.319.115-.402.003-.72-.253-.28-.888-.107-.97-.589.635-.37 1.832-.42 2.028.358.112.44-.336 1.515-1.061.948v.003zm1.271-1.61a.362.362 0 01.358-.402.362.362 0 01.191.06c.054.285-.341.474-.549.34v.003zm1.002 1.574a.784.784 0 01.186-.834c.555-.11.948-.032 1.129.3.049.138-.071.163-.062.277-.295.129-.809.063-1.253.255v.002zm.959 2.75l-.048-.354a.523.523 0 01.584-.079c.026.283-.167.416-.536.43v.003zm-83.742 17.113c-.106.33-.674.341-.545.832.678-.107.806.332 1.482-.019a25.984 25.984 0 00-.602-1.04c-.111.076-.223.154-.335.227zm7.389-4.806c-.642.402-1.284.807-1.926 1.214-.014.07-.027.14-.034.207a2.415 2.415 0 00-.246-.026c-.254.163-.507.328-.76.492-.005.341.066.68.209.99-.472.048-.702-.194-1.033-.312-.248.042-.093.364-.341.406a.997.997 0 01-.489-.009c-.482.317-.963.636-1.444.955a.509.509 0 00.405.246c.388-.053.22-.489.732-.456.421-.055.417.391.838.338.427-.37 1.529-.49 1.347.45.679-.123.488.328.678.628.915-.27 1.96-.815 1.444-1.811-.734-.13-.749.424-1.413.548-.141-.071-.374-.035-.425-.213-.121-.458-.012-.757.382-.86.543.061 1.337.341 1.436-.372-.446-.017-.894-.032-.959-.501.403-.686 1.941-.586 1.759-1.674a.499.499 0 00-.16-.24zm2.05-13.142l.195-.026c-.008.077.048.077.109.075l.024.177c-.085-.006-.087.048-.086.1l-.192.027c.008-.078-.048-.078-.109-.075l-.024-.177c.083.005.085-.047.083-.101z" fill="#E27BF5"/><path opacity=".3" d="M162.223 37.039c.086.228-.34.503-.015.628.101-.25.545-.264.732-.457-.287 0-.347-.269-.717-.171z" fill="#E27BF5"/><path d="M120.493 50.992c-.61.06-1.094.207-.988.762.289.51.947.081 1.362-.183-.037-.295-.356-.26-.374-.579z" fill="#E27BF5"/><path opacity=".3" d="M171.969 45.533l.058.442.293-.04c.035-.315-.143-.376-.351-.402z" fill="#E27BF5"/><path d="M120.874 50.132c-.019.175-.18.252-.136.469.385.14.681.397.519.918.884.56 1.33-.349 1.342-1.079-.56-.119-.962-.427-1.725-.308zm3.25-.884c-.067.57-.558.844-.493 1.505.722.054 1.107-.778 1.307-1.345-.248-.081-.402-.275-.814-.16zm-1.477 3.793c-.187.006-.201.129-.377.14.031.27.02.59.361.491.132-.144.25-.47.016-.631zm-1.945.262c.481.287.944-.347.61-.621-.464.028-.685.221-.61.62zm5.35-.717c.13.323.751.043.771-.194-.188-.098-.856-.262-.771.194z" fill="#E27BF5"/><path opacity=".3" d="M171.39 41.922c-1.216-.386-.182 1.514 0 0z" fill="#E27BF5"/><path d="M106.102 53.094a1.29 1.29 0 00-1.487.028c.205 1.147 1.17 1.012 1.659.298a3.367 3.367 0 01-.172-.326zm-31.777-4.276c.086.228-.34.504-.015.631.1-.25.545-.265.731-.456-.286-.003-.345-.272-.716-.175z" fill="#E27BF5"/><path d="M104.976 48.398a5.33 5.33 0 001.032.31c.086-.062.189-.139.301-.216a9.575 9.575 0 00-.294-1.575c-.424-.21-.658-.81-1.011-1.31.053-.198.143-.384.266-.548-1.188-2.187-3.245-3.73-5.712-4.622.307.374-.079.946-.697.689a.521.521 0 01.412-.786 14.981 14.981 0 00-1.95-.512.711.711 0 01-1.118-.055.322.322 0 01.016-.12 17.48 17.48 0 00-.934-.09 34.145 34.145 0 00-8.801.623.936.936 0 01-1.142.593c-.002-.127.02-.254.062-.374a80.392 80.392 0 00-11.973 3.847.327.327 0 01-.048.467.31.31 0 01-.315-.326c-.326.13-.653.257-.98.383-.026.159-.032.32-.02.48a1.058 1.058 0 01-.808-.157c-.567.222-1.135.445-1.703.67l.003.003a15.433 15.433 0 00-.47 1.681 1.777 1.777 0 01-1.01-1.09c-1.83.745-3.638 1.529-5.396 2.404-2.084 1.038-4.11 2.186-6.146 3.315.023.353-.337.455-.582.323-1.163.64-2.332 1.269-3.518 1.865.205-.035.415-.032.62.007.287.514.525 1.054.71 1.613.267-.063.677-.489.876-.117-.243.62-.857 1.281-.144 1.907.722-.048 1.626-.181 2.297.142.814-.237.677-1.48.617-2.061-.625.13-.428.827-1.062.951-.375-.241.111-.665-.106-.795-2.252.417-.393-1.929.607-2.149.507.08.5.77.834 1.058.612-.473 1.536-.669 2.152-.2-.11.322-.133.666-.066.998.317.181.67.287 1.033.312.269-.403.366-.924 1.05-1.04.212.26.167.824.348 1.122.018.387-.49.412-.49.785.328-.014.465.198.899.06.53-.518.703-1.28 1.794-1.41.19-.222-.145-.347-.097-.706.537-.7 2.022-.744 2.475-1.501 1.113-.06 1.354.853 1.026 1.75 1.536-.009 1.127-1.36 2.147-1.725.501.184.108 1.066.262 1.223a1.172 1.172 0 011.133-.422c.205.166.151.639.226.96-.993.305-.746 2.488.17 2.764.818-.185.089-1.436.433-1.947-.342.049-.823-.425-.385-.667.46-.17.374.307.728.262.133-.576.13-1.248.47-1.681.963-.203.606.575 1.188.739a1.345 1.345 0 00-.163 1.012c1.178.496 1.437.164 2.324-.402a2.124 2.124 0 01-.285-1.402c-.635.105-1.022-.084-1.165-.563.462-.524 1.19-.02 1.348.448 1.054-.234 1.343-.998 2.412-1.222.3-.611-.183-.677-.273-1.312.086-.423.486-.628.77-.913a1.031 1.031 0 01.47-1.38 1.02 1.02 0 01.522-.101c.972.179.433 2.017-.618 2.06a3.895 3.895 0 01-.555 1.784c.241.125.12.676.482.653.385.235.557-.36 1.047-.32-.032.73.236 1.793 1.15 1.196-.046-1.14-.703-1.553-1.096-2.28.209-.25.43.008.778-.105.048-.286.019-.628.405-.684.326.057.479.32.581.642.291-.067.592-.077.887-.03-.007-1.498 1.273-.944 1.935-.349.443-.669 1.328-.096 1.97-.084a1.266 1.266 0 00.834 1.057c.372-.145.524-.44 1.023-.497.332 1.09-1.11 1.636-2.21 2.005-.03-.066-.096-.092-.206-.062-.268-.16.003-.96-.421-.933-.23.403-.72.628-.954 1.027.134.557.88.39.931 1.043 1.004-.233 1.18.512 2.041.447-.031-.89 1.212-.96 1.802-.601.193-.858.11-1.903.439-2.667.307-.313.48.184.899.06.12-1.027 1.767-1.268 1.97-.085a1.631 1.631 0 00-1.292.713c.124.188.517.698.117.884-.413.114-.565-.08-.814-.161a1.75 1.75 0 00-.38.86c.493.213.917.561 1.223 1.005.266-.013.526-.079.766-.194.051-.572-.458-.48-.433-1.021.188-.378.88-.408.976-.85-.24-.912-.013-1.994.801-2.175.65-.146 1.413.715 2.189.067a1.711 1.711 0 01.045-1.895c-1.463-.115-2.31.483-3.142.96-.108-.24.039-.912.019-1.352-.292.06-.608.61-.867.206a1.599 1.599 0 00.093-1.541c1.31-.751.063-2.41.843-3.35a.848.848 0 01.498.495.855.855 0 01-.042.702c.498.532 1.58.882 1.232 1.813.332.072.67.117 1.009.135-.337-.306-.178-.613-.25-1.135.556-.254 1.162-.922 1.716-.5.081.257.117.526.106.795-.125.155-.488.145-.768.194-.108.646-.521 1.084-.773 1.632.76.585 2.565-.226 3.466-.015.651.517.428 1.52.367 2.019a2.28 2.28 0 001.434.348c.349.311.607.712.748 1.16.749.405 1.781.477 2.585.821.176-.172.421-.297.416-.594-.163-.387-.859-.142-.97-.59.098-.387.418-.62 1.001-.673-.289-.503-1.11-.103-1.678.045-.246-.221-.563-.358-.604-.821-.411.181-1.384.415-1.496-.07.836-.91 2.171-.15 3.262-.796-.038-.323-.03-.612.314-.667zm-43.489 2.95c.337 0 .205.407.18.606-.462.104-.349-.476-.18-.605zm-2.467 2.31c-.289-.57.132-1.208.917-1.293a.282.282 0 00.219.152c.116.721-.564.894-1.136 1.14zm1.418.979c-.236-.538.301-.541.38-.86a1.565 1.565 0 01.019-1.354c.962.182 1.353-.896 2.324-.402.093.653-.235 1.015-.286 1.567-1.28-.1-1.382 1.077-2.437 1.049zm1.752-.235c.408-.515 1.51-.47 1.7.132-.03.683-1.857.871-1.7-.132zm1.152-4.74c1.046-.173 1.537.825 1.5 1.597l-.192.026c-.78-.134-.913-1.032-1.308-1.624zm1.016 3.91a.408.408 0 01-.082-.619c.31-.025.589-.016.63.275.045.272-.259.304-.548.343zm1.572-.84a1.736 1.736 0 01-.117-.884l.486-.065c.28.314.216.975-.369.948zm.081-1.63c.5-.379.731.33 1.312.184l.048.353c-.58.35-1.12-.152-1.36-.536zm1.396-2.165c-.37.097-.496-.094-.888.029-.026 1.063-1.322.966-2.093.641a2.251 2.251 0 011.646-1.03c.333-.265.932-.881 1.522-.474.105.394-.126.556-.188.834zm9.03-4.357c.472-.014.549.44.872.603.138.722-.866.88-1.23.435.033-.37.155-.726.357-1.038zm-1.177-.651c.635-.062.508.764-.21.657-.063-.311-.005-.538.21-.657zm-2.248 2.46l.39-.053c.064.179-.036.242-.052.366-.153-.057-.386-.02-.338-.314zm-4.78 2.797a.835.835 0 01.78-.104c.2.717-.737.658-.78.104zm.34 2.562c-.275-.334.067-.552.296-.76.31.013.606.132.838.339.456-.407.64-.223 1.265-.17-.23 1.263-1.229.196-2.399.591zm2.945-.216a.353.353 0 01-.437-.3.59.59 0 01.378-.141.31.31 0 01.058.442h.001zm5.337-.086c-.302.12-.172-.273-.424-.212-.173.256.26.3.082.618-.281.154-.407.414-.939.395-.129-.516.232-.695.467-.96-.028-.07-.11-.076-.12-.165-.575-.07-1.393.335-1.713-.219a.399.399 0 00.061-.278c.43-.078.846-.225 1.23-.435.505.185.85.562 1.554.51.205.437-.174.47-.199.747h.001zm-.235-1.765c-.057-.3-.409-.59-.215-.87-.394-.006-.36.285-.755.28-.144.221-.165.528-.295.76-1.14.477-1.839-.515-2.845.2a.418.418 0 01-.522-.2 1.076 1.076 0 00-.686.812c-.563-.117-1.17-.18-1.125-1.015.212-.122.273-.347.645-.357-.214-.458.103-.834.514-.608.154.373-.289.333-.21.657.226.157.476.275.74.35.674-.55 1.9-.72 1.844-1.775.939-.19 1.55.628 2.286.053-.112-.296-.36-.43-.204-.782l.488-.065a1.891 1.891 0 01.394 1.476c.235.368.73.43.822.97-.208.33-.531.153-.876.114zm.004-5.935c-.01-.433.613-.774 1.11-.599.095.52-.765 1.117-1.111.6v-.001zm1.843 3.438a.355.355 0 01-.484-.27.359.359 0 01.025-.207.355.355 0 01.484.27.36.36 0 01-.025.208zm.007-4.406c.332.016.56.157.57.553-.406.088-.77-.239-.57-.553zm.744 4.846c.094-.335.76-.43 1.145-.332a.6.6 0 01-.415.71.594.594 0 01-.729-.378h-.001zm1.957-.172c-.24-.092-.619-.016-.642-.364a.836.836 0 01.779-.105c.121.271-.04.347-.135.469h-.002zm-.657-4.948c.105-.364.854-.447 1.158-.244.396 1.028-1.065.865-1.157.244h-.001zm3.759 2.194c-.026-.276-.34-.21-.277-.593.396-.26.407-.788 1.074-.862.653 1.051.573 2.49-1.482 2.266-.26-.608.39-.587.686-.811h-.001zm-.413 5.09c-.52.072-.812-.128-.873-.602.316-.21.524-.027.888-.03.148.235.07.374-.014.632zm1.05-1.04c-.008-.16-.144-.17-.144-.34a.46.46 0 01.705.086c.02.227-.302.219-.56.253v.002zm2.881-5.151c.314-.03.456.145.46.478a.691.691 0 01-.498-.024.54.54 0 01.04-.454h-.002zm-.855 1.015c.066.179-.036.241-.05.366-.174.002-.241-.123-.241-.327l.291-.04zm.337 5.529c-.947.134-1.259-.483-1.452-1.244.172-.229.621-.267.828-.47-.128-.517.006-.853.578-.888.538.546-.464 1.507.11 2.324.385.327 1.066.305 1.212.919-.583.58-1.1-.124-1.273-.642h-.003zm.303-2.198c-.114-.24.106-.247.038-.456a2.934 2.934 0 011.18-.068c.387.889-.918.95-1.215.523h-.002zm1.698-4.363c.485.037.578.541.895.778a1.04 1.04 0 01-.392.773 2.593 2.593 0 01-.5-1.552h-.003zm.276 5.806c-.03-.475.316-.692.891-.749.788.563-.467 1.432-.888.748l-.002.001zm2.657 1.354c-.565-.125-.89-1.189-.504-1.55.229-.048.465-.05.694-.004-.185.608.042 1.04-.188 1.552l-.002.002zm-.644-10.076c-.091-.8 1.391-.793 1.299.097-.368.253-1.158.248-1.3-.097zm1.543 2.67a.35.35 0 01-.436-.3c.136-.127.343-.334.572-.168.045.219-.116.296-.135.468h-.001zm-.212-1.59c-.17-.557.436-.782.904-.66.588.59-.526 1.2-.903.66zm2.077.711a.623.623 0 01-.685.417.617.617 0 01-.265-.11c-.072-.423.36-.5.162-1.01.717.279 1.434-.067 1.773.661-.249.244-.65.013-.984.042h-.001zm5.02 2.744c.029-.357.765-.554 1.132-.421.363.838-1.028 1.235-1.131.42h-.001zm-1.82-1.015a.842.842 0 01.662-1.13.833.833 0 01.487.077c-.026.562-.406 1.491-1.147 1.053h-.001zm1.187-1.508c-.023-.79.782-.457 1.425-.46.171 1.05-1.005.505-1.423.46h-.002zm4.869 3.843c-.881.346-1.774.414-2.568.794-.674.322-1.121 1.346-1.877.792a1.383 1.383 0 01.882-1.558c.064.163.241.194.255.416.246-.178.772-.161.936-.396a6.454 6.454 0 01-.296-1.488c1.062-.73 1.131.087 1.771.661.378.336 1.087.315.898.779h-.001zM49.416 55.69a70.97 70.97 0 01-2.156.895c.667-.02.976.384 1.605.41.096.192-.084.714.276.593a1.123 1.123 0 01.6-.71c.192.013.27.157.51.11.028-.273.262-.406.306-.669a.998.998 0 01-1.141-.63zm63.641-19.525l.195-.026c-.008.077.048.078.109.075l.023.177c-.085-.005-.087.048-.085.101l-.195.026c.008-.078-.048-.078-.108-.075l-.023-.177c.083.006.086-.047.084-.1zm-72.913 5.906l.195-.026c-.008.078.048.078.11.075l.023.177c-.085-.006-.087.048-.086.101l-.195.026c.008-.077-.048-.078-.109-.075l-.023-.177c.085.005.087-.047.085-.101zm63.503 11.989a.853.853 0 00-.437-.302c-.072.117-.163.873.204.783.003-.213.317-.21.233-.482z" fill="#E27BF5"/><path d="M100.598 51.23a7.14 7.14 0 01-2.607 1.25c-.34.728-.037 1.9-1.54 1.824.02.147.04.294.058.441.969-.283 1.429.524 2.442.483-.177-.49-.537-1.244-.344-1.842l.682-.09c-.337-.743.918-.808 1.062-.952-.109.541-.484.897-.385 1.58a1.234 1.234 0 011.545-.297.857.857 0 00.369-.949 2.805 2.805 0 01-1.282-1.447zm-4.002.45c.469.002.654-.19 1.059-.233.231.066.237.4.63.274.889-.51.8-1.691 1.035-2.658-.62-.055-1.166.239-1.604-.145a1.047 1.047 0 01-.526.52c.294 1.09.029 1.789-.594 2.241zm18.684.46a6.42 6.42 0 01.175-.921 1.22 1.22 0 00-.744.369c.252.111.187.596.569.553zm-20.797-3.684a.837.837 0 00.634-.444c-.293.09-.685.113-.634.444zm18.878 5.65c.044.493.722.238 1.215.197.073-.698-.948-.487-1.215-.197zm-1.481-8.163c-.028-.314.227-.432.199-.746-.449-.08-.603.759-.199.746zm1.881 5.954c-.32.045-.692.055-.646.355.087.506.957.133.646-.355zm-19.442-4.679c-.279-.01-.524-.061-.803-.072.09.312-.108.596-.053 1.086.289-.104.306.114.596.01-.204-.542.463-.482.26-1.024zm-15.324 6.19c-.665.103-1.033.41-.844 1.102 1.035-.203 1.323.478 1.465 1.333.377.201.8.3 1.227.284-.35-1.29-1.832-1.31-1.848-2.719zm15.375-1.342a.622.622 0 00.47.567c.062-.198.262-.301.222-.569-.205-.057-.502-.224-.693.002zm-10.878 1.637c-1.217-.384-.183 1.514 0 0zm1.004-1.393c.404-.04.59-.235 1.06-.23-.056-.478-1.2-.166-1.06.23z" fill="#E27BF5"/><path d="M.738 70.875a.72.72 0 01-.722-.725.726.726 0 01.722-.725h.07c11.567-.024 27.183-6.001 39.503-11.212l.92-.391a.72.72 0 01.084-.03c5.33-1.521 9.703-2.92 13.453-5.876a.727.727 0 01.144-.087c.3-.14.601-.275.903-.409a.783.783 0 01.063-.025c.706-.237 1.414-.47 2.12-.701a69.523 69.523 0 008.139-3.05c.305-.144.608-.294.908-.449 2.445-3.238 5.92-3.872 9.287-4.487a24.532 24.532 0 004.62-1.148c.377-.26.738-.532 1.074-.816a.717.717 0 01.246-.135 74.06 74.06 0 011.614-.493c3.978-1.165 7.121-1.697 9.61-1.624 5.11.148 8.921 1.782 11.327 4.857 2.984 3.816 3 8.809 2.757 11.391 2.535-1.763 8.437-5.77 16.402-10.557l1.095-.656a60.86 60.86 0 0112.359-6.525l1.133-.832c.409-.3.824-.6 1.245-.9a.607.607 0 01.083-.052 273.213 273.213 0 0112.982-6.4 40.765 40.765 0 0112.846-6.17 37.543 37.543 0 011.523-.38 34.755 34.755 0 005.706-2.293c2.58-1.22 5.246-2.483 8.301-2.707a11.438 11.438 0 011.662-.006 18.425 18.425 0 007.043-.333c.429-.092.857-.19 1.283-.295 5.113-2.803 9.859-3.54 14.111-2.186.452.03.891.06 1.328.106.321.034.64.076.957.126.207.032.416.068.622.104l.241.041c6.209.007 10.214 3.612 13.01 6.756.226.224.472.483.708.747 5.723 6.375 6.038 14.886 5.897 18.343a354.901 354.901 0 0112.265-7.941l1.407-.87a.779.779 0 01.131-.063c5.072-1.837 9.613-4.958 13.472-7.741l1.164-.846a.656.656 0 01.093-.058c2.958-1.534 5.776-3.286 8.505-4.984 6.989-4.35 13.591-8.455 22.327-9.157h.058c1.377 0 2.684-1.025 4.069-2.11a22.943 22.943 0 012.298-1.653.735.735 0 01.144-.067 14.36 14.36 0 012.792-.556c.55-.072 1.07-.139 1.591-.248l1.609-.483c7.01-2.082 13.345-3.263 18.829-3.51.487-.022.97-.037 1.476-.045 6.223-.52 12.725-.552 17.238 5.11.334.324.642.65.918.966.291.334.565.683.821 1.045a.738.738 0 01.096.189c2.083 6.243 2.413 13.497.954 20.976a.764.764 0 01-.018.07 47.79 47.79 0 01-.529 1.652c-1.61 3.984-3.57 7.805-5.606 11.696-.219.415-.436.826-.663 1.252-1.038 5.615-4.236 10.636-9.256 14.534-.308.392-.616.78-.926 1.165a83.567 83.567 0 01-10.912 11.386.718.718 0 01-.462.17L.811 70.871H.738v.003zM41.75 59.18l-.881.374c-8.712 3.684-19.064 7.748-28.548 9.863l299.412-.31a82.809 82.809 0 0010.516-11.02c.324-.402.647-.808.969-1.22a.701.701 0 01.127-.127c4.807-3.708 7.853-8.484 8.809-13.81a.707.707 0 01.074-.214c.246-.461.481-.902.713-1.344 2.017-3.857 3.959-7.643 5.53-11.527.164-.488.333-1.01.49-1.53 1.396-7.181 1.092-14.128-.878-20.1-.208-.29-.434-.573-.669-.845-.258-.297-.55-.603-.867-.91a.743.743 0 01-.064-.07c-4.071-5.14-10.171-5.092-16.07-4.603-.539.01-1.01.024-1.482.049-5.367.241-11.586 1.401-18.483 3.451l-1.637.49a.49.49 0 01-.057.015c-.587.124-1.169.2-1.732.273-.828.08-1.646.238-2.445.47-.722.463-1.418.968-2.084 1.51-1.508 1.182-3.067 2.404-4.927 2.417-8.375.68-14.825 4.694-21.655 8.941-2.736 1.703-5.564 3.462-8.554 5.016l-1.125.817c-3.922 2.829-8.539 6.001-13.756 7.903-.454.279-.9.554-1.338.826-8.142 5.052-13.391 8.715-13.443 8.751a.721.721 0 01-1.129-.686c.014-.111 1.32-11.22-5.422-18.73a19.21 19.21 0 00-.683-.721c-3.895-4.382-7.602-6.31-12.02-6.304a.635.635 0 01-.121-.01l-.305-.052c-.198-.035-.399-.07-.6-.1a16.006 16.006 0 00-.884-.117c-.448-.048-.898-.077-1.352-.107a.822.822 0 01-.185-.035c-3.902-1.27-8.324-.565-13.14 2.096a.704.704 0 01-.177.07 46.11 46.11 0 01-1.417.327 19.81 19.81 0 01-7.478.359 10.072 10.072 0 00-1.422.008c-2.786.205-5.218 1.353-7.792 2.572a35.785 35.785 0 01-5.974 2.389c-.516.117-1.008.241-1.493.372a39.354 39.354 0 00-12.445 5.996.72.72 0 01-.117.068 270.9 270.9 0 00-11.633 5.692c-.436.225-.869.45-1.3.676-.402.288-.799.575-1.19.863l-1.211.893a.712.712 0 01-.177.097 59.418 59.418 0 00-12.178 6.424l-1.126.676c-10.664 6.41-17.602 11.407-17.67 11.455a.724.724 0 01-.817.018.727.727 0 01-.311-.758c.015-.07 1.459-7.177-2.244-11.904-2.129-2.716-5.57-4.162-10.227-4.297-2.337-.067-5.334.445-9.165 1.567-.475.139-.958.286-1.45.44-.36.297-.743.585-1.141.856a.727.727 0 01-.137.073 25.548 25.548 0 01-4.972 1.257c-3.278.598-6.373 1.163-8.483 4.056a.731.731 0 01-.25.214c-.363.19-.731.374-1.103.55a70.614 70.614 0 01-8.307 3.117c-.693.225-1.385.454-2.078.687a74.11 74.11 0 00-.776.35c-3.931 3.074-8.408 4.512-13.842 6.065v.002z" fill="#22183B"/></g><defs><clipPath id="clip0"><path fill="#fff" transform="translate(.016)" d="M0 0h342v71H0z"/></clipPath></defs></svg>