<svg width="711" height="147" fill="none" xmlns="http://www.w3.org/2000/svg"><g clip-path="url(#clip0)"><path d="M1.502 145.24c56.37 0 156.288-65.095 192.795-64.042 34.689 1 27.351 35.356 27.351 35.356s92.728-66.71 176.116-82.054c83.389-15.345 74.717 52.702 74.717 52.702S609.679-8.327 679.951 3.146c65.377 10.674 9.34 107.404-31.353 141.427l-647.096.667z" fill="#F5EAF9"/><path d="M244.735 115.089c.195.282 1.708.081 1.82-.243-.431.019-1.838-.6-1.82.243zm13.823.205l1.012-.136c.232-.924-1.377-.494-1.012.136zm-157.091 20.595c.207.638-.118.914-.233 1.331a.955.955 0 00.469.074.947.947 0 00.848-.99.87.87 0 00-1.084-.415zm-3.656-11.985c-.212.408-.776.574-.89 1.049.267.465.676.755.801 1.384-.147.671-.916.92-.79 1.781 2.193.066 2.201-1.366 3.22-2.101-.797-.688-1.252-1.775-2.34-2.113zm1.464.174c.476.096.966.096 1.441 0a4.35 4.35 0 00.21-1.519c-1.08.143-1.595.674-1.65 1.519zm10.168 3.672c1.093-.473 1.576.526 2.252-.116-.244-.545-2.1-1.157-2.252.116zm2.57-3.881a10.28 10.28 0 002.608-.536c.004-1.287-3.248-.919-2.608.536zm6.257 8.286c.032.244.066.49.1.732.346-.149.827-.2.963-.5-.397-.027-.564-.326-1.063-.232zm-19.166 1.441c-.228.619-.919.919-.792 1.783a1.284 1.284 0 001.514.54 2.238 2.238 0 00-.722-2.323zm5.12-7.943a1.46 1.46 0 00.986-.316c-.451-1.152-1.424-1.362-2.802-.93.256.484.877.989.195 1.462-.4.445-1-.061-1.82.243-.075.865.624.818.623 1.592.328.145.698.161 1.037.046 1.558 2.908 4.224 1.321 5.665-.756a3.14 3.14 0 00-.4-1.434c-.988.195-3.281 2.35-3.484.093zm5.626-8.752c-.038-.769-.807-.791-1.231-1.512-.85.578-2.523.59-2.889 1.501.841 1.582 4.225 2.167 4.12.011zm25.07 5.772c2.035.822 4.876-1.243 2.968-2.444.003 1.501-2.875 1.009-2.968 2.444zm1.629 2.946c.972 2.111 3.193.824 3.366-1.006-1.272-.84-1.806 1.013-3.366 1.006zm.106-11.554a.726.726 0 00-.312-.517.732.732 0 00-.595-.105c-.108.742.588 1 .907.622zm8.641 1.455c-2.566.406-5.162-.022-6.304 2.143 1.092.194 2.075.516 3.18.692.1-.592.04-1.3.842-1.416.818.517 1.44 1.266 2.827 1.113 0-.9.171-2.024-.545-2.532zm-5.931-2.747l-.608.081c-.1.609.389.529.705.649l-.097-.73zm-20.599 10.755c.571.029.905.342 1.489.359.039-.361.534-.41.283-.967-.61.811-1.493-.12-1.772.608zm2.303-5.892c.546 1.537-.924 1.688-.849 2.902a4.627 4.627 0 003.729-2.917 23.454 23.454 0 00-2.88.015zm.076 15.999c-.229.901.094 2.802 1.555 2.402.27-.583-.628-1.29-.521-2.349-.55.221-.558-.193-1.034-.053zm7.421-9.183c-.07-.713.473-1 .842-1.414-1.297-.098-1.923 1.302-.842 1.414zm2.676 6.158c.142.428-.316.445-.079.941.876-.047 1.41.312 2.302.254.079-.445.606-.579.687-1.025-.593-.501-1.7-.396-2.91-.17zm-69.246 8.869c.2.283 1.708.08 1.82-.243-.43.019-1.838-.599-1.82.243zm10.213-5.272c-.387.012-.42.266-.785.292.066.557.043 1.218.753 1.015.27-.3.519-.973.032-1.307zm-4.047.541c1.001.595 1.963-.719 1.27-1.287-.964.056-1.425.462-1.27 1.287zm.358-6.566c-.04.364-.373.522-.281.971.8.289 1.414.822 1.077 1.901 1.838 1.16 2.765-.723 2.791-2.233-1.16-.247-2.001-.879-3.586-.639zm79.336-4.256a2.523 2.523 0 00-1.301 2.595c1.072-.339 3.554-2.028 1.301-2.595zm-72.034 15.758l1.012-.135c.232-.921-1.377-.498-1.012.135zm3.467-6.421c.271.67 1.56.09 1.596-.4-.385-.204-1.773-.542-1.596.4zm-11.559-3.296c-1.27.121-2.275.427-2.055 1.577.6 1.058 1.968.168 2.833-.378-.08-.612-.742-.539-.778-1.199zm7.547-3.614c-.138 1.178-1.16 1.747-1.024 3.116 1.5.111 2.301-1.61 2.716-2.785-.514-.169-.832-.569-1.692-.331zm13.446-5.727c.01.069.018.136.028.2 1.262.316 3.782.225 3.747-1.245a2.885 2.885 0 00-.317-.163 190.7 190.7 0 01-3.458 1.208zm-3.037 1.013c-.583.19-1.165.378-1.749.564.023 1.34 1.381 1.101 1.767 2.013-.011.881-.768 1.244-.743 2.15 2.545.78.9-2.682 3.598-2.344 0-1.762-2.745-1.151-2.873-2.383zm7.949 3.379c.574.166 1.14.348 1.716.517-.014-.62.478-.89.184-1.701a1.703 1.703 0 00-1.9 1.184zm-.415-3.108c1.125-.126 1.524.6 2.55.591.43-.826-.832-1.195-.9-2.114a1.759 1.759 0 00-1.65 1.523zm4.935-1.59c.065-1.35-.79-1.609-1.328-2.242a4.47 4.47 0 01-.292 2.457 1.742 1.742 0 001.62-.215zm-18.143 4.471c-.218 1.175.87 2.242 2.218 1.192-.11-1.142-.977-1.388-2.218-1.192zm16.953-2.634c.032.453.086.883.346 1.068.465-.125.848-.3.939-.684-.707.198-.585-.579-1.285-.384zm36.629 2.929c.622 1.663.983 3.639 2.786 3.91.333-.714-.16-1.994-.189-2.954a3.134 3.134 0 01-2.597-.956zm75.027-7.222c.432-1.274 2.277-.449 2.881-.011a2.474 2.474 0 00-.722-2.326c-1.14.381-3.014 1.136-2.159 2.337zm4.756-1.38c.655.835 2.03.967 2.226-.3.959-.2 2.102.224 2.833-.379a6.974 6.974 0 00-.7-2.141c-.9 1.32-4.322.908-4.359 2.82zm-12.176 4.416c.739.609 2.125.457 1.936 2.162l.809-.108a13.958 13.958 0 01-1.45-3.158c-1.006-.026-1.234.482-1.295 1.104zm-19.452-2.243c-1.707-.47-2.579.889-1.756 2.282.601-.215.764.088 1.239.02-.346-1.122.863-1.179.517-2.302zm-14.878 8.875a1.596 1.596 0 00-.185 1.701 1.309 1.309 0 001.261-.288 1.298 1.298 0 00.389-1.234c-.457-.097-.753-.386-1.465-.179zm-3.456-12.013c-.069-.482.034-1.169-.731-.831.23.293.124.983.731.831zm8.485 6.501c-2.601.391-1.795-3.247-4.486-2.751-.624 1.351 1.517 1.542.82 3.055 1.588.668 2.05 2.66 5.149 1.546a3.589 3.589 0 00-1.483-1.85zm27.946-3.546c.378-.129.861-.181.736-.656-.39-.282-.788.163-.736.656zm-42.029 4.494c-1.31 2.468 3.944 2.526 2.882-.012-1.272.371-1.612-.359-2.882.012zm15.318-5.581c-.808.052-1.046.5-.864 1.232 1.057.51 1.808-.73.864-1.232zm-19.946 6.387c-.911.831.107 1.976.414 3.108 2.943.484 1.718-3.361-.414-3.108zm9.398.98c-.483.723.446 1.2 1.184 1.141-.098-.731-.29-1.349-1.184-1.141zm-1.364-5.59c-.494.435-1.793.316-1.701 1.159.525.79 1.449 1.111 1.733 2.186.328-.367 1.954.401 2.631-.351-.148-1.87-1.878-1.871-2.663-2.994zm8.627 9.084c.357.021.708-.092.986-.318a.824.824 0 00-.274-.52c-.513.088-.75.367-.712.838zm23.853-9.51c-.368.431.124.927.729.832-.03-.532-.104-1-.729-.832zm-5.578-1.677a1.828 1.828 0 002.032-1.76l-1.821.244a1.903 1.903 0 00-.211 1.516zm-15.177-2.628a1.083 1.083 0 00-.573 1.101 1.083 1.083 0 00.841.912c.847-.234 1.036-2.173-.268-2.013zm24.683 12.158c.568.552 1.801.028 1.974-.637-.493-.752-2.042-.34-1.974.637zm-22.885-7.931l.123.915.607-.081c.073-.658-.297-.78-.73-.834zm-23.189 8.31c-.106.87-.453 1.57-.493 2.487.581-.1 1.338-.079 1.594-.401.362-.804-.09-2.221-1.101-2.086zm544.51-76.214a2.521 2.521 0 00-1.301 2.595c1.073-.339 3.555-2.028 1.301-2.595zm3.697 3.042c-.106.87-.452 1.571-.493 2.487.58-.1 1.337-.078 1.594-.4.365-.804-.086-2.222-1.101-2.087zm6.264-4.001c-1.31 2.47 3.945 2.526 2.881-.01-1.271.37-1.61-.36-2.881.01zm-4.629.807c-.91.832.107 1.977.415 3.108 2.943.483 1.717-3.361-.415-3.108zm8.033-4.61c-.493.435-1.793.316-1.701 1.158.525.79 1.45 1.112 1.734 2.187a.412.412 0 01.277-.095c.177-.838.345-1.677.5-2.518a2.854 2.854 0 01-.81-.732zm-3.118-7.961c-1.321.217-2.127-.174-2.422-1.166.959-1.085 2.472-.042 2.802.928 1.937-.428 2.636-1.712 4.303-2.325-.011-.145-.011-.289-.023-.435a32.924 32.924 0 00-4.223-13.442 1.29 1.29 0 01-.414-.318c.009-.114.032-.217.048-.325a40.201 40.201 0 00-1.234-2.001 1.242 1.242 0 01-.952.2 1.227 1.227 0 01.259-1.216 97.257 97.257 0 00-7.837-9.595 6.42 6.42 0 01-1.076-1.625c-5.591-1.156-11.326-1.312-15.935-5.38-.058-.052-.105-.105-.16-.157a268.234 268.234 0 00-77.151 13.861c.587 4.48 1.215 8.912 1.994 13.166.326-.33.531-.745 1.343-.74.327 1.467.571 3.496-1.254 2.96.145 2.265.801 3.033.635 4.754.61-.032 1.163-.674 1.441 0-.363 1.128.668 1.666.341 2.561-.701.432-1.501-.65-1.416.19.362 1.688.253 3.935.912 5.277 2.473-2.076 3.049-6.305 6.904-6.88.134.338.5.4.526.86-.047.633-.891.716-1.747.792.052.43.421.492.35 1.07.685.292 1.044-1.22 2.176-.663.171 1.444.173 4.068-1.866 4.53-1.101.247-.901-1.053-2.146-.645-1.707.988-1.663 3.177-3.355 4.173 1.217.75.881 3.336 2.179 3.99 1.173-.26 2.424-.801 2.728.382.073.99-1.471.87-1.171 2.016 1.409-.221 1.676.688 3.083-.039a33.99 33.99 0 00-1.857-3.102c.89-.608.656-1.987 2.186-2.151.442.938.038 2.043 1.327 2.24.807-.111.458-1.014 1.522-.946.873-.114.866.81 1.741.7.888-.768 3.178-1.015 2.802.93 1.411-.253 1.012.679 1.409 1.301 1.901-.56 4.073-1.687 3.002-3.75-1.526-.27-1.557.878-2.938 1.136-.293-.148-.777-.072-.882-.442-.251-.947-.027-1.568.793-1.78 1.13.127 2.78.7 2.986-.77-.928-.036-1.86-.065-1.993-1.038.837-1.42 4.034-1.214 3.656-3.466-.253-.831-1.339-.678-1.279-1.878-.652.061-1.526.388-1.49-.36.527-1.025 2.344-.345 2.207-1.97-.35-.22-.764-.366-.93-.8.422-1.547 3.647-1.202 5.033-.86-.192 1.658-2.532.877-2.565 2.391-.037 1.786 4.087.86 2.715 3.36-.39.4-1.465.323-2.201.48.228.71-.439.801-.209 1.518 2.124-.085 3.586-.47 5.359.029.734-.6.652-1.765.871-2.724-1.013-.087-2.784-1.409-1.353-2.425.732-.229.909.2 1.643-.033.807-.8 1.475-2.008 3.115-1.346.715-.45.691-1.406 2.079-1.395.417.073.601.417.729.835-1.441.787-4.19 2.853-1.69 4.32.38.46.232-.82 1.166-.528.627-.174.201.9.908.623.568-.3 2.276-1.114 2.832-.378-.684 1.322.628 2.385 1.095 3.576 1.892-.394 2.512.7 4.015.77.2.4-.174 1.475.576 1.226a2.313 2.313 0 011.245-1.47c.401.026.561.326 1.061.229.057-.568.545-.843.638-1.386-1.953.418-2.47-1.611-3.297-3.102 1.151.229 1.881-.36 3.239-.432.49-.608.752-1.368.741-2.148-1.244-.254-2.953-.989-2.59-2.446 2.168-.019 2.709 1.883 4.257 2.597a3.824 3.824 0 01-.184 1.701 6.187 6.187 0 013.035-.4 19.215 19.215 0 011.476 3.34c.556-.132 1.407-1.013 1.821-.243-.5 1.285-1.782 2.653-.3 3.949 1.501-.1 3.381-.376 4.776.294 1.691-.492 1.407-3.064 1.284-4.268-1.301.27-.891 1.713-2.208 1.97-.78-.5.23-1.378-.221-1.646-4.683.863-.818-3.994 1.26-4.45 1.056.166 1.041 1.595 1.734 2.19 1.274-.978 3.195-1.384 4.476-.411a3.931 3.931 0 00-.133 2.043 5.019 5.019 0 002.147.643c.559-.832.762-1.912 2.182-2.152.441.538.349 1.701.724 2.323.039.8-1.017.853-1.019 1.625.682-.028.968.41 1.87.126 1.101-1.073 1.462-2.65 3.73-2.92.393-.46-.301-.72-.2-1.462 1.115-1.448 4.202-1.54 5.145-3.108 2.312-.124 2.815 1.767 2.131 3.624 3.193-.02 2.343-2.817 4.465-3.573 1.04.382.222 2.207.543 2.533a2.436 2.436 0 012.356-.873c.427.343.315 1.322.471 1.987-2.064.631-1.552 5.151.352 5.722 1.701-.382.185-2.974.9-4.03-.709.1-1.709-.88-.8-1.382.957-.352.777.636 1.513.544.278-1.194.271-2.584.978-3.482 2.002-.419 1.258 1.191 2.47 1.53a2.779 2.779 0 00-.34 2.095c2.45 1.027 2.988.34 4.833-.832a4.377 4.377 0 01-.583-2.9zm-68.038-11.395c-.711.2-.689-.46-.755-1.017.876-.37 1.081.604.755 1.017zm-12.915-5.722c.138.37-.074.5-.105.757-.769.1-.864-.854.105-.757zm-1.301 13.39c-1.053.045-1.886-.172-2.015-1.22 1.052-.666 1.937.095 2.013 1.22h.002zm-.593-18.35c.058.926-1.322.862-1.201 1.835-.658-.122-.151-.779-.6-1.41.347-.505 1.203-.993 1.799-.424h.002zm-3.542 10.52c1.23.25 3.352 3.903.764 4.181-.319-1.333-1.531-2.829-.764-4.18zm.245 12.627c-.423-.639-.36-1.742.565-1.936.029.178.267.108.429.13.162.944.042 1.688-.994 1.809v-.003zm-1.425-24.568c.062.486.255 1.063-.26 1.152-.71.2-.686-.459-.753-1.017l1.013-.135zm-1.671 5.994c.623-.172.825.155 1.262.2.174.673-.794 1.064-1.343.736a1.1 1.1 0 01.081-.933v-.003zm1.1 2.087a1.44 1.44 0 011.037.049c-.1 1.217-1.017 3.837-2.385 2.18.115-.97 1.601-1.001 1.348-2.226v-.003zm-3.581 4.016a3.694 3.694 0 012.575.773c-.011.989-1.416 1.02-2.282 1.421a1.937 1.937 0 01-.293-2.191v-.003zm-5.789-4.81c2.382.067.283 3.816-.995 1.81.382-.569.344-1.424.995-1.81zm-1.206-1.326l-.809.108c-.324-.605 1.015-1.004.806-.108h.003zm.301 5.356a1.117 1.117 0 01-.082.94c-.714.14-1.093-.12-1.134-.778.314-.388.534.08 1.221-.162h-.005zm-2.041-1.4c-.122-.474-.031-.801.508-.815.033.245.065.487.1.733l-.608.081zm0 9.305a1.062 1.062 0 01.891-1.047c1.195.521-.008 1.942-.886 1.045l-.005.002zm1.401-6.515c.4-.5 1.973-.194 2.378-.69-.122-.779-.583-1.287-.268-2.012.39-.4 1.466-.319 2.201-.48-.723 1.237-.2 2.703.512 3.841-2.029.53-4.354 1.695-4.822-.661l-.001.002zm5.655 6.878c-.061-.926-.523-2.13.062-2.616.5-.094.663.2 1.062.233-.159 1.069.225 1.379.873 1.93-.068 1.015-1.358.88-1.996.45l-.001.003zm1.917 11.286c-1.089.3-1.095-.684-2.121-.463-1.964.332-.841 4.111-3.527 2.89.137-2.175 2.549-2.785 3.535-4.38 1.399-.265 2.677.59 2.114 1.951l-.001.002zm-.1-10.039c3.462.379 1.831-5.254 5.631-4.102.744 2.228-1.082 2.666-1.009 4.787-2.034-.514-4.456 1.96-4.625-.687l.003.002zm1.096 3.576a3.907 3.907 0 012.659-1.66c2.269 1.702-1.923 3.836-2.662 1.658l.003.002zm7.482 5.146c-2.878-.455-2.127 1.812-1.657 3.013-.981.1-1.458-.4-2.147-.645-.517.088-.193.753-.709.84-1.018.214-1.467-.247-2.124-.462a4.628 4.628 0 00.047-4.288c1.087-1.427 4.012-1.309 5.211-1.066.429-.559-.364-.994.211-1.52.936-.114 1.988-.368 2.476.043-.129.935-1.164 2.615-1.311 4.084l.003.001zm1.014-6.28c-.175-.784.43-1.035 1.068-1.259.851.634-.435 1.64-1.071 1.257l.003.002zm.187-1.701a1.93 1.93 0 01-.248-1.826l1.013-.135c.192.123.185.483.476.493.183.898-.236 1.388-1.244 1.467h.003zm.813-6.252c-.268-.529-.901-.628-.826-1.565.469-.12.29-.684.938-.682.487.582.916 1.21 1.28 1.876-.231.286-.859.299-1.395.37h.003zm.205-16.968a1.401 1.401 0 011.417-.189c0 .22.087.32.25.34a.842.842 0 01-.298.568.834.834 0 01-.926.099.84.84 0 01-.446-.819l.003.002zm1.828 9.065c.937-.188 1.261.349 1.742.701-.1 2.004-2.982.883-1.745-.701h.003zm1.852 9.247c-.62.168-.701-.3-.729-.834l.81-.108a1.103 1.103 0 01-.084.94l.003.002zm2.172-9.97c1.118.022 1.658.724 2.419 1.166-.064 1.117-1.178 1.515-1.301 2.594a2.072 2.072 0 01-1.121-3.76h.003zm1.495 9.668c.071-.728-.13-1.64.792-1.78.832.144 1.039 1.029 1.814 1.244.141 1.427-1.977 1.075-2.609.535h.003zm1.265 4.856c-.287-1.263 1.039-1.301 1.926-1.001l.049.366c.15.745-1.486.85-1.978.634h.003zm4.239-3.73a2.084 2.084 0 01-2.048.087 3.37 3.37 0 01.701-4.002c.615-.09.839.279 1.289.386.521 1.3-.729 1.38-.948 2.173.164.65 1.169.312 1.003 1.354l.003.001zm1 1.354c.372-.458.894-.156 1.239.023.156.972-1.294 1.044-1.237-.02l-.002-.003zm6.68 3.763c-.573.32-1.401.244-1.514-.545a1.912 1.912 0 011.191-.343c-.024.452.424.35.325.887h-.002zm2.959-10.264a1.551 1.551 0 011.017-1.626c1.572.425.362 2.803-1.017 1.626zm3.839-15.965c.527-.125.701.167.701.653l-.808.108c-.133-.368.076-.5.107-.758v-.003zm-.4 15.51c-.39-1.146 1.444-1.323 1.417-.189a1.401 1.401 0 01-1.419.188l.002.002zm3.302 1.607a1.443 1.443 0 01-.084-.568c.009-.193.057-.382.141-.556.789-.3.938.165 1.287.388a.939.939 0 01-.912.826.947.947 0 01-.433-.092l.001.002zm2.791 8.563c-.517-.942-1.501-1.332-1.781-2.554a7.78 7.78 0 013.31.117c-.052 1.127-.276 2.136-1.53 2.435l.001.002zm25.459-17.546l.811-.108a1.328 1.328 0 01.195 1.463c-.983.34-1.384-.755-1.007-1.357l.001.002zm-4.43 6.922c.307.708-.206.853-.46 1.177-.769-.046-.421-1.269.459-1.179l.001.002zm-3.202 8.43c-.959.216-.725-.985-.372-1.254.706.003.428.837.374 1.252l-.002.002zm-.191-18.404c0 .731-1.181 1.308-1.925 1-.16-.886.977-.878 1.927-1.002l-.002.002zm-12.145 18.56a1.737 1.737 0 011.618-.216c.464 1.433-1.593 1.445-1.618.216zm2.03-1.76a1.538 1.538 0 01.012-1.394 1.527 1.527 0 011.136-.808c.971.632.585 2.408-1.145 2.202h-.003zm1.101-8.706c-.26-1.066-.023-1.79.969-1.991 1.624.32 1.08 2.836-.964 1.987l-.005.004zm1.278-2.778c-.326-.831.342-.98.637-1.389.311.056.545.2.859.26.448.986-.738 1.48-1.491 1.125l-.005.004zm2.423 16.617c-.6-1.179.273-2.502 1.902-2.676a.575.575 0 00.454.314c.251 1.49-1.162 1.848-2.351 2.358l-.005.004zm2.946 2.028c-.489-1.113.629-1.12.793-1.783a3.217 3.217 0 01.038-2.796c2.001.376 2.813-1.856 4.832-.833.192 1.352-.488 2.101-.6 3.246-2.653-.218-2.863 2.22-5.058 2.161l-.005.005zm3.643-.487c.849-1.067 3.141-.972 3.537.272-.059 1.412-3.858 1.8-3.532-.276l-.005.004zm2.395-9.814c2.176-.357 3.194 1.709 3.12 3.308l-.4.054c-1.619-.282-1.894-2.142-2.715-3.366l-.005.004zm2.113 8.095a.841.841 0 01-.382-.6.858.858 0 01.211-.68c.643-.053 1.223-.034 1.31.57.099.559-.532.621-1.134.706l-.005.004zm3.269-1.74a3.577 3.577 0 01-.244-1.828l1.01-.135c.589.646.451 2.015-.761 1.96l-.005.004zm.167-3.371c1.038-.786 1.521.68 2.728.379.033.244.065.487.1.731-1.203.72-2.323-.318-2.823-1.114l-.005.004zm2.902-4.483c-.77.2-1.032-.2-1.845.058-.054 2.201-2.75 2.001-4.354 1.328a4.664 4.664 0 013.423-2.132c.693-.548 1.937-1.826 3.164-.982.223.812-.256 1.15-.383 1.724l-.005.004zm12.052-9.987a.71.71 0 01.374 1.253.691.691 0 01-.628-.92.69.69 0 01.259-.337l-.005.004zm-.4 4.71l.81-.109c.134.37-.074.5-.106.758-.312-.123-.8-.046-.699-.653l-.005.003zm-2.35-5.274c.887.865.27 1.938.391 2.929a2.503 2.503 0 01-2.147-.645c-.083-1.228.228-2.177 1.761-2.288l-.005.004zm-2.28-4.721c.047.528.272 1.183-.007 1.49-1 .26-1.325-.27-1.563-.908a1.248 1.248 0 011.576-.586l-.006.004zm-6.003 8.992c.084-.66.751-.923 1.041-1.442a3.93 3.93 0 012.423 1.166 31.81 31.81 0 00-.978 3.48c-1.355-.447-1.946-1.797-2.485-3.206l-.001.002zm.7 6.795a1.742 1.742 0 011.62-.216c.417 1.48-1.529 1.358-1.619.212l-.001.004zm.708 5.303c-.573-.69.138-1.14.615-1.572a2.804 2.804 0 011.741.7c.948-.84 1.331-.46 2.631-.35-.479 2.605-2.554.401-4.986 1.218l-.001.005zm6.121-.445a.73.73 0 01-.908-.623c.22-.186.498-.29.786-.291a.646.646 0 01.256.428.64.64 0 01-.127.482l-.007.004zm2.061-3.068a.873.873 0 01-1.085-.412 2.232 2.232 0 00-1.425 1.679c-1.171-.241-2.433-.371-2.339-2.106.441-.252.568-.719 1.342-.739-.446-.949.214-1.726 1.068-1.259.319.773-.605.69-.437 1.361a5.2 5.2 0 001.539.724c1.401-1.141 3.952-1.49 3.833-3.675 1.952-.395 3.224 1.296 4.753.11-.233-.614-.75-.89-.424-1.619l1.013-.135a3.906 3.906 0 01.82 3.055c.489.763 1.518.89 1.709 2.008-.431.689-1.101.323-1.82.243-.121-.62-.851-1.223-.448-1.802-.82-.012-.748.592-1.569.58-.3.46-.344 1.095-.614 1.574-2.367.983-3.822-1.069-5.915.41l-.001.003zm3.53 1.765a.821.821 0 00.129-.576 8.402 8.402 0 002.556-.9c1.051.384 1.766 1.164 3.232 1.057.426.9-.363.97-.413 1.544-.629.25-.357-.565-.882-.438-.359.528.542.618.171 1.278-.585.319-.846.858-1.951.818-.268-1.07.48-1.44.971-1.988-.058-.145-.228-.157-.251-.34-1.193-.148-2.894.687-3.561-.459l-.001.004z" fill="#E27BF5"/><path d="M631.636 13.934l.405-.055c-.017.16.1.16.226.155l.049.367c-.177-.012-.181.1-.178.209l-.4.054c.017-.16-.1-.162-.226-.155l-.049-.366c.173.01.176-.098.173-.21zM618.4 44.368c0 .489.359.563.881.44-.003-.49-.359-.561-.881-.44zm84.295-16.463c.179.472-.706 1.043-.031 1.307.209-.518 1.134-.548 1.521-.947-.594-.004-.718-.561-1.49-.36zM669.28 44.466c.546 1.538-.925 1.69-.849 2.902a4.62 4.62 0 003.728-2.917 23.28 23.28 0 00-2.879.015zm-32.224-.727c-.589-.089-2.15-.538-2.427.324a6.01 6.01 0 002.169.828c-.124-.53.382-.624.258-1.152zm-8.833 7.882c-.219 1.176.871 2.243 2.217 1.193-.109-1.14-.974-1.389-2.217-1.193zm5.703-3.555c-.862.017-1.087.472-1.772.609-.244 1.771 1.341 1.382 1.758 2.371-.011.88-.766 1.244-.742 2.149 2.546.781.901-2.681 3.602-2.343-.004-1.93-3.31-1.003-2.846-2.786zm59.577-5.716c-2.566.405-5.161-.022-6.304 2.143 1.091.194 2.075.515 3.18.691.105-.59.04-1.3.842-1.414.818.516 1.439 1.265 2.827 1.112.005-.901.176-2.024-.545-2.532zm-60.096 3.365a.68.68 0 00-.95-.724.677.677 0 00-.336.339c.507.035.524.65 1.286.385zm12.96 1.434c.065-1.35-.788-1.61-1.327-2.24.136.83.035 1.68-.292 2.456a1.74 1.74 0 001.619-.216zm-4.521 4.701c.573.166 1.139.346 1.715.515-.014-.619.479-.89.185-1.701a1.708 1.708 0 00-1.9 1.185zm2.107-7.357c-.162-.02-.255-.121-.251-.338-.424-.022-.843.1-1.19.344.174.45.439.858.777 1.2.06-.512.786-.567.664-1.206zm-2.521 4.247c1.124-.127 1.523.6 2.548.591.431-.826-.832-1.2-.9-2.114-1.007.193-1.549.705-1.648 1.523zm-4.618-2.174c.049.363.101.73.147 1.096 1.263.315 3.783.224 3.748-1.246-1.246-.772-2.18-.268-3.895.15zm-20.081 8.448c-.04.362-.376.52-.283.97.8.29 1.413.822 1.078 1.901 1.836 1.16 2.765-.722 2.791-2.233-1.166-.247-2.002-.883-3.586-.638zm-.36 6.563c1.001.6 1.962-.718 1.27-1.286-.965.055-1.424.462-1.27 1.286zm-.431-4.78c-1.27.121-2.275.427-2.057 1.576.601 1.059 1.97.168 2.834-.378-.081-.609-.741-.536-.777-1.198zm-5.739 9.512c.2.283 1.709.08 1.82-.242-.427.019-1.834-.6-1.82.242zm13.83.204l1.012-.135c.232-.922-1.377-.494-1.012.135zm-.545-13.33c-.139 1.178-1.16 1.747-1.024 3.115 1.495.112 2.301-1.609 2.716-2.784-.514-.169-.833-.569-1.692-.33zM627.5 60.1c.27.669 1.559.09 1.595-.401-.384-.21-1.772-.547-1.595.4zm.284-11.773l2.022-.27c-.28-1.077.5-1.432.517-2.301-.636 1.002-2.839.934-2.539 2.57zm-7.364 12.71c-.388.011-.419.266-.785.291.065.558.043 1.22.752 1.016.273-.3.524-.973.033-1.307zm24.75-12.047c.032.453.087.883.347 1.068.465-.125.847-.3.939-.684-.704.192-.585-.584-1.286-.384zm34.28 8.451c.141.428-.317.445-.079.94.875-.047 1.409.313 2.301.255.079-.447.607-.58.688-1.025-.591-.502-1.696-.397-2.91-.17zm2.355-5.525c.622 1.663.982 3.638 2.786 3.909.333-.713-.16-1.993-.189-2.953a3.13 3.13 0 01-2.597-.956zm-12.449 8.549c-.229.901.093 2.802 1.554 2.402.271-.583-.627-1.29-.52-2.35-.546.223-.558-.193-1.034-.052zm-22.041-.039c-.228.62-.919.92-.792 1.782a1.281 1.281 0 001.514.541 2.235 2.235 0 00-.722-2.323zm40.26-20.823l-.609.081c-.1.608.389.53.706.649l-.097-.73zM684.76 52.45c.971 2.112 3.193.824 3.366-1-1.272-.846-1.807 1.007-3.366 1zm-1.629-2.947c2.034.822 4.876-1.243 2.967-2.444.008 1.5-2.875 1.013-2.967 2.444zm1.734-8.608a.727.727 0 00-.907-.622c-.104.743.589 1 .907.622zm-8.089 10.388c-.07-.714.473-1 .841-1.415-1.297-.094-1.92 1.304-.841 1.415zm-27.097 11.436c.207.638-.118.914-.234 1.33a.944.944 0 001.318-.916.87.87 0 00-1.084-.414zm-2.193-11.81c.476.096.966.096 1.441 0 .159-.49.229-1.004.209-1.518-1.078.14-1.594.673-1.65 1.518zm4.945 1.574c.357.02.708-.093.987-.317-.452-1.15-1.424-1.36-2.802-.93.255.485.876.99.2 1.464-.4.444-1-.063-1.82.243-.076.864.623.816.623 1.59a1.43 1.43 0 001.037.048c1.557 2.908 4.224 1.32 5.665-.757a3.155 3.155 0 00-.4-1.435c-.988.197-3.285 2.35-3.49.094zm-6.41-1.749c-.211.408-.775.574-.889 1.05.266.464.676.755.8 1.383-.147.671-.916.919-.791 1.78 2.193.067 2.201-1.365 3.22-2.101-.796-.687-1.25-1.771-2.34-2.112zm12.04-7.004c-.039-.769-.807-.79-1.232-1.511-.849.577-2.523.59-2.888 1.5.843 1.582 4.224 2.17 4.12.012zm2.164 6.97a10.306 10.306 0 002.607-.535c.007-1.287-3.252-.92-2.607.536zm6.255 8.285c.032.244.065.49.1.732.347-.149.827-.2.964-.5-.398-.027-.566-.326-1.064-.232zm.497-8.627c.57.03.9.342 1.488.359.04-.36.534-.409.283-.967-.606.813-1.492-.12-1.771.608zm-9.323 4.222c1.092-.472 1.575.526 2.252-.116-.244-.544-2.1-1.158-2.252.116zM463.283 75.123c-.211.408-.775.574-.888 1.05.265.465.675.755.8 1.384-.147.671-.917.918-.79 1.78 2.193.067 2.201-1.365 3.219-2.102-.797-.686-1.251-1.772-2.341-2.112zm20.461 8.253c.032.244.065.489.1.732.346-.149.826-.2.963-.5-.397-.028-.565-.327-1.063-.232zM605.886 48.09c-.757.362-.349 1.529-1.2 1.834-.869.32-1.047-.177-1.666-.151a2.33 2.33 0 01.639 3.266 10.08 10.08 0 013.375-2.502l-.147-1.1c-.515-.231-.569-1.014-1.001-1.347zM466.944 87.107c.207.64-.118.914-.233 1.332a.94.94 0 001.223-.451.947.947 0 00.094-.466.874.874 0 00-1.084-.415zm19.679-2.253c-.228.9.093 2.802 1.555 2.401.27-.583-.627-1.29-.52-2.348-.556.222-.563-.193-1.035-.053zm-21.873-9.556c.476.096.965.096 1.441 0 .159-.49.23-1.004.209-1.519-1.079.142-1.592.674-1.65 1.52zm7.163 2.078c-1 .537-2.08 1.018-2.217-.5.357.02.708-.094.987-.317-.452-1.152-1.424-1.36-2.802-.93.256.485.875.99.195 1.463-.4.445-1.001-.062-1.82.243-.075.865.623.817.623 1.592.328.145.698.161 1.037.046 1.273 2.376 3.285 1.75 4.765.309a6.14 6.14 0 01-.768-1.906zm30.11-.536c.972 2.112 3.194.824 3.367-1.007-1.272-.839-1.808 1.014-3.367 1.007zm8.742-10.1c-2.567.406-5.161-.022-6.304 2.144 1.092.193 2.074.515 3.18.691.105-.591.04-1.3.842-1.416.818.517 1.44 1.266 2.826 1.114.005-.902.177-2.025-.544-2.533zm2.565 8.407a2.527 2.527 0 00-1.3 2.594c1.071-.339 3.554-2.027 1.3-2.594zm3.701 3.042c-.106.87-.452 1.57-.492 2.486.579-.1 1.337-.079 1.593-.4.362-.803-.088-2.221-1.101-2.086zm-22.992-2.516c-.07-.714.473-1 .841-1.415-1.296-.094-1.919 1.304-.841 1.415zm6.356-1.779c2.034.821 4.876-1.243 2.968-2.445.007 1.501-2.875 1.013-2.968 2.445zm-1.327 2.415c.623 1.663.983 3.638 2.786 3.908.333-.712-.159-1.992-.188-2.953a3.128 3.128 0 01-2.598-.955zm-2.351 5.521c.142.43-.316.447-.079.941.875-.047 1.409.314 2.301.255.079-.446.607-.58.689-1.024-.598-.502-1.698-.397-2.911-.171zm-51.23-5.821c-.218 1.175.871 2.242 2.216 1.192-.107-1.138-.973-1.386-2.216-1.192zm-4.195 14.895l1.012-.136c.235-.92-1.374-.494-1.012.136zm3.47-6.42c.27.67 1.56.09 1.596-.4-.386-.204-1.773-.543-1.596.4zm.285-11.768l2.023-.27c-.281-1.077.495-1.43.517-2.302-.636 1.003-2.839.93-2.54 2.572zm-4.295 4.858c-.138 1.177-1.161 1.747-1.025 3.115 1.501.112 2.302-1.61 2.717-2.784-.514-.17-.833-.57-1.692-.331zm23.826 7.24c-.228.619-.918.92-.791 1.783a1.282 1.282 0 001.514.541 2.244 2.244 0 00-.723-2.324zm-26.897.614c-.388.012-.419.267-.785.292.066.558.043 1.219.752 1.016.273-.3.52-.974.033-1.308z" fill="#E27BF5"/><path opacity=".3" d="M433.205 81.188c-1.27.12-2.275.427-2.056 1.575.601 1.06 1.969.169 2.833-.378-.081-.61-.741-.537-.777-1.198zm.433 4.78c1 .595 1.961-.719 1.268-1.286-.964.056-1.419.462-1.268 1.285zm-6.167 4.732c.2.283 1.709.081 1.821-.243-.431.019-1.838-.6-1.821.243z" fill="#E27BF5"/><path d="M463.63 71.54c.064-1.35-.79-1.61-1.328-2.241a4.47 4.47 0 01-.292 2.456 1.742 1.742 0 001.62-.216zm-12.44.917c-.862.017-1.088.471-1.772.608-.244 1.772 1.341 1.382 1.758 2.372-.011.88-.766 1.244-.742 2.148 2.545.782.9-2.68 3.602-2.342-.004-1.93-3.31-1.004-2.846-2.786zm7.503.673c1.125-.127 1.523.6 2.549.592.43-.827-.832-1.201-.901-2.115a1.756 1.756 0 00-1.648 1.522zm3.741.247c.033.453.087.883.347 1.068.465-.125.848-.3.939-.683-.704.195-.584-.579-1.286-.385zm-1.218-4.493c-.162-.02-.255-.123-.251-.339-.424-.02-.843.1-1.19.345.175.449.439.857.778 1.2.06-.514.786-.568.663-1.206zm-2.107 7.356c.574.165 1.14.346 1.716.515-.014-.618.479-.89.185-1.701a1.711 1.711 0 00-1.901 1.186zm-8.44-6.135a.68.68 0 00-.95-.723.673.673 0 00-.336.338c.508.036.524.651 1.286.385zm3.648-1.975c-.588-.089-2.149-.538-2.426.323a5.991 5.991 0 002.169.828c-.124-.53.381-.625.257-1.152zm-.239 2.826c.049.363.1.73.146 1.095 1.264.315 3.784.224 3.749-1.246-1.246-.773-2.181-.269-3.895.15zm-20.082 8.447c-.04.362-.374.52-.283.97.8.29 1.415.822 1.079 1.901 1.836 1.16 2.764-.722 2.79-2.233-1.165-.246-2.001-.884-3.586-.638zm1.668-10.646c0 .49.359.563.881.441-.003-.495-.356-.562-.881-.44zm145.257-5.611a1.76 1.76 0 00-.907-.624c-.151.242-.339 1.807.422 1.62.004-.442.657-.435.485-.996zm8.796-5.083c1.301-.042 1.51-.844 1.625-1.701-1.311-.56-1.391.983-1.625 1.701zm15.541-20.88c-.552-.112-.732-1.359-.447-1.801l.201-.027c-.227-1.709-.455-3.416-.684-5.122-.938-.249-1.569.979-2.961.955-.07-.2-.263-.256-.453-.313-.377-1.421 1.124-1.55.846-2.902a1.68 1.68 0 012.302.253l-1.761-13.195a289.258 289.258 0 00-27.672 10.831 184.798 184.798 0 00-10.777 5.329c.236.072.466.159.69.261.086.446.148.878-.056 1.123a1.727 1.727 0 01-1.653-.84c-1.636.882-3.26 1.782-4.873 2.701a1.16 1.16 0 01.547 1.17 2.402 2.402 0 01-2.569-.01c-4.348 2.52-8.632 5.148-12.898 7.814-.129 1.22-1.072 2.16-3.289 2.061l-5.203 3.278c.05.35-.186.506-.348.711a3.114 3.114 0 00-.584-.124l-1.186.745a1.234 1.234 0 01-.951.6c-1.342.84-2.686 1.678-4.033 2.514-.307.19-.616.373-.923.56.006.029.018.052.023.083a.816.816 0 01-.83.406c-.768.467-1.535.927-2.301 1.38a3.773 3.773 0 002.215.569c.426.9-.362.97-.413 1.544-.629.249-.357-.566-.882-.439-.359.529.543.619.171 1.278-.584.32-.846.859-1.951.819-.268-1.07.481-1.44.971-1.989-.058-.144-.228-.157-.252-.34-.787-.1-1.79.226-2.576.134a269.61 269.61 0 01-9.284 5.054c.1.681-.193 1.572.023 1.79a2.43 2.43 0 012.356-.873c.426.343.315 1.321.47 1.986-2.063.633-1.552 5.152.353 5.723 1.701-.381.186-2.974.9-4.03-.71.1-1.71-.88-.8-1.381.957-.353.777.635 1.513.542.278-1.194.271-2.584.978-3.48 2.002-.42 1.259 1.19 2.47 1.529a2.782 2.782 0 00-.34 2.095c2.449 1.028 2.988.34 4.833-.831a4.38 4.38 0 01-.592-2.902c-1.321.217-2.127-.175-2.422-1.166.959-1.086 2.473-.042 2.802.928 2.191-.485 2.791-2.068 5.015-2.531.625-1.265-.381-1.401-.567-2.715.177-.877 1.01-1.3 1.601-1.89a2.13 2.13 0 012.06-3.068c2.022.371.901 4.178-1.283 4.268a8.036 8.036 0 01-1.154 3.691c.5.26.25 1.4 1 1.354.801.485 1.158-.747 2.178-.663-.066 1.511.489 3.71 2.389 2.474-.094-2.358-1.461-3.215-2.278-4.72.434-.52.895.017 1.619-.216.1-.594.038-1.301.84-1.417.679.118 1.001.66 1.208 1.328a4.832 4.832 0 011.845-.06c-.014-3.101 2.646-1.956 4.022-.723.922-1.386 2.761-.2 4.096-.175a2.617 2.617 0 001.734 2.19c.773-.3 1.09-.911 2.127-1.03.69 2.258-2.309 3.387-4.594 4.15-.065-.135-.2-.188-.429-.126-.557-.334.006-1.988-.875-1.934-.478.835-1.501 1.301-1.983 2.128.277 1.154 1.827.807 1.936 2.16 2.086-.483 2.454 1.06 4.242.924-.065-1.841 2.518-1.987 3.747-1.244.4-1.776.229-3.94.911-5.522.639-.647 1.001.38 1.87.123.249-2.126 3.673-2.623 4.094-.175a3.406 3.406 0 00-2.685 1.477c.259.389 1.075 1.445.245 1.83-.859.236-1.177-.167-1.693-.333a3.592 3.592 0 00-.792 1.78 5.965 5.965 0 012.546 2.083 4.197 4.197 0 001.594-.4c.106-1.184-.955-.993-.901-2.115.39-.783 1.828-.846 2.03-1.762-.501-1.886-.029-4.128 1.665-4.503 1.352-.3 2.937 1.48 4.549.14a3.535 3.535 0 01.093-3.924c-3.042-.238-4.803 1.001-6.531 1.99-.225-.5.08-1.889.039-2.802-.606.125-1.263 1.26-1.801.426a3.302 3.302 0 00.194-3.19c2.724-1.556.131-4.99 1.752-6.937a1.765 1.765 0 011.034 1.026 1.778 1.778 0 01-.086 1.454c1.035 1.1 3.286 1.826 2.561 3.755.692.147 1.395.24 2.101.279-.7-.634-.369-1.27-.52-2.35 1.157-.526 2.418-1.909 3.568-1.035.169.53.243 1.088.219 1.645-.257.322-1.013.3-1.595.4-.226 1.34-1.083 2.244-1.607 3.38 1.58 1.213 5.332-.47 7.205-.03 1.353 1.069.891 3.144.764 4.178a4.728 4.728 0 002.98.72 5.38 5.38 0 011.554 2.402c1.559.84 3.702.988 5.376 1.701.365-.357.874-.616.864-1.232-.34-.8-1.786-.292-2.017-1.22.201-.801.87-1.284 2.081-1.395-.601-1.04-2.308-.213-3.489.096-.511-.459-1.168-.74-1.256-1.702-.852.377-2.875.86-3.108-.142 1.737-1.886 4.514-.312 6.782-1.65-.1-.675-.078-1.273.637-1.388.692.287 1.411.503 2.146.644.659-.478 1.779-1.372 2.734-1.108-.601 1.846.523 3.225 2.665 2.994 1.487-1.852-1.449-5.361.741-6.805.805.178 1.149.901 2.17.83.281-.863 1.142-1.322 1.35-2.23-1.893-.235-3.102-1.175-3.094-3.124-.9.287-1.188-.15-1.87-.124-.3.678-.423 1.481-1.201 1.836-.94-3.09-4.903-.447-3.067 1.713.818-.495 1.568-1.91 3.116-1.347-.19 1.37-.406 2.789-1.407 3.352-2.518 1.42-3.058-.76-4.233-2.412a7.413 7.413 0 011.35-2.228c-.693-.034-1.162-.323-1.183-1.145a3.637 3.637 0 011.392-.373c.309-.508-.113-1.518.816-1.601 1.276.4 1.418 2.136 3.684 1.37.7-.457.732-1.378 1.625-1.701a10.988 10.988 0 003.06-.224c.288.356.486.777.576 1.226a2.215 2.215 0 011.893.307c.128 1.3-.951 1.78-1.05 2.93 1.763-.487 1.918-3.722 4.385-2.631.201 1.078-.593 1.475-.945 2.173.624.676 1.523 1.026 1.733 2.19.908.127 1.672.032 1.975-.637a2.956 2.956 0 002.955.536 2.733 2.733 0 01.16-1.882c-.298-2.252-.598-4.506-.899-6.763zm-65.467 17.111c-1.083.15-1.688-.265-1.815-1.246.658-.433 1.09-.057 1.844-.06.308.49.146.778-.029 1.312v-.006zm2.184-2.15c-.019-.332-.3-.354-.3-.707a.956.956 0 011.169-.116.98.98 0 01.297.294c.039.478-.631.46-1.166.535v-.006zm5.989-10.658c.651-.061.946.3.955.99a1.434 1.434 0 01-1.034-.049 1.125 1.125 0 01.079-.942zm-1.778 2.101c.137.371-.074.5-.106.758-.361.005-.501-.255-.501-.677l.607-.08zm.7 11.447c-1.969.277-2.618-1-3.02-2.576.356-.473 1.292-.551 1.722-.973-.266-1.068.012-1.765 1.201-1.838 1.12 1.13-.964 3.121.23 4.812.801.678 2.215.633 2.519 1.902-1.213 1.197-2.289-.258-2.649-1.332l-.003.005zm.63-4.55c-.238-.495.22-.513.079-.945a6.141 6.141 0 012.452-.14c.803 1.837-1.911 1.963-2.528 1.08l-.003.005zm3.53-9.034c1.008.077 1.201 1.12 1.861 1.61a2.156 2.156 0 01-.816 1.602 5.348 5.348 0 01-1.042-3.217l-.003.005zm.573 12.022c-.061-.983.657-1.433 1.853-1.55 1.636 1.163-.974 2.962-1.85 1.545l-.003.005zm5.523 2.802c-1.173-.258-1.849-2.461-1.047-3.21.476-.098.966-.1 1.442-.009-.386 1.258.086 2.155-.392 3.213l-.003.006zm1.866-15.33a.729.729 0 01-.9-.622c.283-.263.711-.692 1.189-.346.09.447-.245.61-.286.962l-.003.006zm-.439-3.29c-.354-1.156.9-1.622 1.878-1.368 1.226 1.216-1.093 2.476-1.876 1.361l-.002.006zm4.317 1.47a1.284 1.284 0 01-1.423.864c-.2-.032-.389-.11-.553-.228-.148-.877.749-1.036.339-2.092 1.491.578 2.979-.138 3.684 1.37-.515.498-1.35.02-2.044.08l-.003.006zm2.552-5.553c-.072-1.127 2.41-1.251 2.453-.142-.328 1.103-1.877.916-2.45.136l-.003.007zm16.066-3.073c.542 1.2-.37 2.1-1.425 1.679.032-.873.099-1.712 1.428-1.686l-.003.006zm-2.68-.017c.529 1.554-1.779 1.42-1.643.034a1.438 1.438 0 011.646-.037l-.003.003zm-5.503 14.324c.061-.739 1.591-1.146 2.354-.872.757 1.73-2.137 2.556-2.35.866l-.004.006zm-1.141-10.09c1.043.736.2 2.239-1.222 1.65-.348-.623-.115-1.704 1.222-1.65zm-2.642 7.984a1.737 1.737 0 012.386-2.182c-.05 1.169-.84 3.09-2.381 2.182h-.005zm2.467-3.122c-.049-1.637 1.626-.947 2.961-.953.358 2.173-2.086 1.046-2.956.953h-.005zm10.122 7.956c-1.831.715-3.688.856-5.339 1.644-1.401.666-2.33 2.787-3.903 1.639a2.85 2.85 0 011.836-3.225c.132.337.5.4.527.86.512-.367 1.607-.333 1.948-.818a13.34 13.34 0 01-.616-3.082c2.208-1.511 2.351.18 3.682 1.369.788.695 2.263.652 1.87 1.613h-.005zm1.621-21.81c-.052-.59.352-.865 1.115-.893.401.274.423 1.133-.032 1.307-.39-.098-.843-.128-1.078-.414h-.005zm.278 5.177c-.1-.788.622-1.013 1.501-1.134a1.116 1.116 0 01.323.892 2.142 2.142 0 01-1.819.242h-.005zm10.769-10.374c.74-.238.533.64 1.108.6 1.037-.007.917-.808 1.723-.973.357.354 1.07.289 1.159.96-1.029.513-1.43 1.454-2.411 2.002-.707.126-.747-.53-1.311-.57-.364.528-1.192 1.631-1.773.607.809-.669.486-2.107 1.505-2.626zm-1.373 6.697c1.346-.315 1.828.386 2.753.565a18.57 18.57 0 01-.469 2.668l-.605.08c-.616-.755-.901-1.9-2.114-1.95.011-.488.163-.96.438-1.363h-.003zm-3.16 11.78c-.236-1.381.416-2.15 1.956-2.31-1.577-.676-4.281-.03-5.503-1.126-.101-1.456.92-2.135 1.656-3.013 1.113.01.643 1.434.244 1.827.494.955 2.487.092 3.488-.094.437.473 1.228.527 1.232 1.514 1.029-.23 1.753-.095 2.12.46a4.51 4.51 0 01-5.193 2.741zm6.391-4.576c-.235-.66.24-.831.007-1.49-.525-.581-1.846-.224-2.017-1.22 1.32-.765 3.808-.872 4.218.74.237.915-.7 3.143-2.208 1.97zm2.644-3.331a.742.742 0 011.141-.712c.112.595-.709.988-1.14.712h-.001zm2.083 3.257a1.622 1.622 0 01.386-1.727c1.153-.23 1.971-.068 2.348.618.1.288-.149.34-.13.576-.612.272-1.684.135-2.604.533zm1.994 5.692l-.101-.734a1.1 1.1 0 011.215-.162c.054.592-.349.867-1.114.896z" fill="#E27BF5"/><path d="M470.488 64.302a3.34 3.34 0 00.742-2.148c-1.244-.254-2.953-.989-2.59-2.445a3.41 3.41 0 012.591 1.248c-3.844-11.45-17.019-19.613-26.076-26.179a6.41 6.41 0 01-1.235-1.195 76.052 76.052 0 00-25.328-1.76c.894 7.034 1.75 14.114 2.969 20.768.326-.33.53-.745 1.343-.74.327 1.467.571 3.497-1.254 2.96.145 2.265.8 3.033.634 4.755.611-.033 1.164-.675 1.441-.006-.362 1.128.669 1.667.342 2.561-.7.432-1.501-.65-1.417.19.364 1.688.255 3.935.912 5.277 2.474-2.076 3.049-6.304 6.905-6.88.134.339.5.4.526.86-.047.633-.892.716-1.747.791.052.432.42.494.349 1.071.686.292 1.045-1.22 2.177-.662.171 1.443.173 4.067-1.867 4.53-1.1.246-.9-1.054-2.145-.646-1.707.988-1.663 3.177-3.355 4.173 1.216.75.88 3.336 2.179 3.99 1.173-.26 2.424-.801 2.729.382.073.99-1.472.87-1.172 2.015 1.409-.22 1.675.688 3.082-.038a33.992 33.992 0 00-1.856-3.102c.89-.607.655-1.987 2.185-2.151.443.938.038 2.042 1.328 2.24.807-.11.458-1.014 1.521-.945.875-.115.867.81 1.741.7.889-.769 3.18-1.016 2.802.93 1.411-.255 1.013.678 1.409 1.3 1.901-.56 4.075-1.687 3.002-3.75-1.527-.27-1.558.879-2.939 1.136-.292-.148-.776-.073-.881-.442-.252-.947-.026-1.568.792-1.78 1.131.126 2.781.706 2.986-.77-.927-.036-1.859-.066-1.992-1.038.836-1.42 4.034-1.214 3.655-3.466-.253-.83-1.338-.678-1.279-1.879-.651.062-1.526.389-1.49-.36.528-1.023 2.345-.344 2.208-1.969-.35-.22-.765-.366-.93-.8.422-1.548 3.647-1.201 5.033-.86-.192 1.658-2.532.877-2.564 2.392-.038 1.786 4.087.859 2.714 3.359-.391.4-1.465.322-2.202.481.228.709-.438.8-.209 1.516 2.125-.084 3.586-.468 5.36.03.733-.6.651-1.765.87-2.724-1.012-.087-2.784-1.41-1.353-2.425.733-.23.91.2 1.643-.032.809-.8 1.475-2.009 3.116-1.346.715-.45.691-1.407 2.079-1.401.416.072.6.417.728.835-1.441.787-4.189 2.852-1.69 4.32.381.46.232-.82 1.167-.528.626-.175.2.9.908.623.568-.3 2.275-1.114 2.831-.378-.682 1.322.629 2.386 1.095 3.576 1.892-.394 2.513.7 4.016.77.2.395-.173 1.475.575 1.226a2.314 2.314 0 011.246-1.47c.4.026.56.325 1.061.229.057-.569.544-.843.637-1.386-1.952.417-2.469-1.611-3.296-3.102 1.151.225 1.88-.363 3.238-.431zm-14.951-13.27c-.71.201-.688-.458-.754-1.017.875-.373 1.08.6.754 1.013v.005zm-12.914-5.727c.138.371-.074.5-.1.758-.775.099-.869-.854.1-.758zm-1.301 13.392c-1.054.044-1.886-.173-2.015-1.22 1.051-.666 1.937.092 2.013 1.22h.002zm-.594-18.351c.059.925-1.321.863-1.2 1.835-.66-.122-.152-.779-.601-1.41.345-.506 1.204-.994 1.799-.425h.002zm-3.539 10.524c1.23.249 3.351 3.902.764 4.18-.321-1.335-1.533-2.831-.764-4.18zm.244 12.626c-.422-.638-.359-1.742.566-1.936.029.178.267.108.429.13.162.942.04 1.688-.997 1.811l.002-.005zm-1.425-24.568c.062.486.256 1.064-.259 1.153-.71.2-.686-.46-.753-1.02l1.012-.133zm-1.671 5.994c.624-.172.826.155 1.263.2.173.672-.794 1.065-1.343.736a1.113 1.113 0 01.078-.937h.002zm1.101 2.086c.34-.113.71-.095 1.038.05-.1 1.217-1.018 3.837-2.386 2.18.112-.975 1.598-1.004 1.346-2.23h.002zm-3.581 4.017a3.693 3.693 0 012.574.773c-.011.989-1.416 1.02-2.281 1.421a1.943 1.943 0 01-.295-2.194h.002zm-5.792-4.812c2.381.066.283 3.815-.995 1.808.382-.568.344-1.423.993-1.808h.002zm-1.201-1.327l-.81.108c-.328-.606 1.009-1.006.803-.105l.007-.003zm.3 5.355a1.103 1.103 0 01-.081.94c-.714.142-1.094-.12-1.135-.778.312-.387.533.081 1.212-.162h.004zm-2.04-1.4c-.122-.473-.031-.801.507-.814.033.245.065.487.1.733l-.607.08zm.005 9.306a1.061 1.061 0 01.89-1.048c1.186.521-.017 1.943-.894 1.046l.004.002zm1.401-6.515c.405-.5 1.973-.194 2.377-.69-.122-.779-.582-1.288-.268-2.012.39-.4 1.467-.32 2.202-.479-.723 1.235-.201 2.702.512 3.84-2.038.531-4.363 1.695-4.831-.66l.008.001zm5.654 6.878c-.061-.927-.522-2.13.063-2.616.5-.094.663.205 1.061.233-.159 1.069.225 1.38.874 1.93-.077 1.018-1.367.88-2.006.45l.008.003zm1.918 11.285c-1.088.3-1.095-.683-2.122-.462-1.963.332-.84 4.112-3.526 2.89.138-2.175 2.549-2.785 3.534-4.38 1.39-.263 2.668.59 2.106 1.95l.008.002zm-.1-10.038c3.463.379 1.831-5.254 5.63-4.103.745 2.228-1.081 2.667-1.008 4.787-2.044-.513-4.465 1.96-4.638-.686l.016.002zm1.084 3.574a3.905 3.905 0 012.662-1.658c2.269 1.706-1.923 3.836-2.662 1.658zm7.482 5.146c-2.878-.456-2.126 1.813-1.656 3.012-.981.1-1.459-.4-2.146-.644-.518.087-.194.753-.711.84-1.017.213-1.467-.247-2.123-.462a4.64 4.64 0 00.047-4.288c1.087-1.427 4.012-1.309 5.21-1.066.431-.559-.364-.994.212-1.52.935-.113 1.988-.368 2.475.043-.126.937-1.162 2.616-1.309 4.085h.001zm1.014-6.277c-.175-.784.429-1.035 1.069-1.259.852.637-.434 1.639-1.069 1.26zm.186-1.7a1.932 1.932 0 01-.244-1.828l1.013-.136c.192.124.185.484.476.494.18.898-.235 1.388-1.245 1.47zm.814-6.253c-.268-.528-.901-.629-.827-1.565.469-.12.29-.684.939-.683.487.583.915 1.212 1.28 1.878-.229.283-.856.296-1.392.368v.002zm.205-16.967a1.399 1.399 0 011.417-.19c-.005.22.087.32.25.339a.835.835 0 01-1.476.46.833.833 0 01-.191-.611v.002zm1.828 9.065c.938-.188 1.261.348 1.741.7-.097 2.003-2.981.882-1.741-.702v.002zm1.851 9.246c-.619.168-.7-.3-.728-.834l.809-.108a1.1 1.1 0 01-.081.94v.002zm2.173-9.97c1.117.022 1.658.725 2.418 1.166-.064 1.117-1.176 1.515-1.301 2.594a2.072 2.072 0 01-1.117-3.762v.002zm1.495 9.668c.071-.728-.13-1.64.791-1.782.833.147 1.04 1.031 1.814 1.246.142 1.426-1.974 1.074-2.605.534v.002zm1.265 4.856c-.288-1.263 1.038-1.301 1.927-1l.048.365c.153.744-1.483.85-1.975.633v.002zm4.238-3.73a2.076 2.076 0 01-2.047.087 3.376 3.376 0 01.7-4.003c.616-.09.84.28 1.289.387.522 1.3-.727 1.381-.946 2.173.168.65 1.168.31 1.004 1.353v.002zm1.001 1.354c.371-.458.894-.156 1.239.022a.626.626 0 01-.132.535.624.624 0 01-.5.23.63.63 0 01-.608-.506.626.626 0 01.006-.283l-.005.002zm6.679 3.763c-.572.321-1.401.244-1.513-.545a1.903 1.903 0 011.19-.343c-.021.456.427.347.328.886l-.005.002zm137.166-35.437l.405-.054c-.018.161.1.163.226.156l.048.366c-.176-.01-.18.1-.176.21l-.4.054c.016-.161-.1-.161-.226-.156a45.858 45.858 0 00-.049-.366c.17.01.176-.097.172-.21zm-26.389 42.988c.432-1.274 2.278-.449 2.881-.011a2.483 2.483 0 00-.721-2.326c-1.145.381-3.015 1.137-2.16 2.337zm.487-11.792a14.836 14.836 0 01-5.42 2.586c-.705 1.508-.077 3.934-3.202 3.777l.122.915c2.012-.588 2.97 1.085 5.075 1-.368-1.017-1.116-2.575-.714-3.813l1.417-.19c-.701-1.537 1.91-1.671 2.208-1.969-.226 1.12-1.006 1.856-.8 3.273a2.567 2.567 0 013.213-.617 1.787 1.787 0 00.767-1.965 5.814 5.814 0 01-2.666-2.997zm4.271 10.412c.654.834 2.03.965 2.226-.3.959-.2 2.101.223 2.832-.379a6.98 6.98 0 00-.701-2.141c-.898 1.319-4.32.907-4.357 2.82zm-12.592-9.486c.975 0 1.362-.395 2.201-.482.482.139.494.83 1.311.568 1.846-1.055 1.664-3.503 2.15-5.499-1.288-.113-2.423.494-3.334-.3-.222.48-.61.862-1.092 1.077.611 2.25.06 3.698-1.236 4.636zm-4.388-6.677a1.736 1.736 0 001.318-.92c-.618.19-1.429.238-1.318.92zm-43.209 23.453c-.91.832.106 1.977.415 3.108 2.943.485 1.717-3.362-.415-3.108zm83.248-19.675c-.556-.19-1.201-.276-1.36-.935.472-.949.639-2.11 1.933-2.493-.012-.69-.885-.367-.78-1.2.196-.533.814-.771.616-1.572-1.248-.93-2.207-2.201-4.033-2.442l.22 1.647c-.251.437-1.122.446-1.091 1.075.8 1.242 3.459.3 3.958 1.895-.171.27-.1.7-.509.81-1.169.253-1.537-.444-2.526-.406a4.182 4.182 0 01-1.351 2.227 3.134 3.134 0 002.195 1.011c1.027 1.917 5.146 3.154 4.525-.046-.675-.413-.85.523-1.797.428zm-.794 7.924c.09 1.023 1.501.493 2.525.408.152-1.445-1.969-1.006-2.525-.408zm3.984-4.069c.074-.644.195-1.282.362-1.91a2.542 2.542 0 00-1.545.764c.525.231.39 1.235 1.183 1.146zM566.676 72.12c.738.61 2.124.459 1.936 2.163l.808-.108c-.613-.989-1.1-2.05-1.45-3.159-1.007-.025-1.234.483-1.294 1.104zm31.359-25.778c-.058-.65.47-.896.412-1.545-.932-.168-1.252 1.57-.412 1.545zm-36.509 2.639c-.579-.022-1.088-.128-1.667-.149.185.645-.225 1.234-.112 2.248.6-.217.637.236 1.239.022-.424-1.122.964-.998.54-2.12zm40.419 9.685c-.667.094-1.44.116-1.343.736.18 1.05 1.989.276 1.343-.736zm-6.051-2.17a10.92 10.92 0 01-1.168-4.125c-1.047.057-.286 1.354-.34 2.096-.377.9-1.461 1.316-2.208 1.969-.095 2.826 3.695.608 4.818 2.147.393.54.751 2.96-.217 3.008.471.16.97.22 1.466.177.6-1.552 1.292-2.702.2-4.68-.694-.392-1.97-.086-2.551-.592zm-9.431 4.979a2.77 2.77 0 00-3.535-.27c.441 2.46 2.584 2.074 3.56.453 1.143.23 1.242-.394-.025-.183zm-56.792.324c-1.382.212-2.148.847-1.756 2.281 2.152-.42 2.75.99 3.046 2.76a5.016 5.016 0 002.549.588c-.727-2.674-3.806-2.714-3.839-5.63zm5.653 17.67c.357.021.709-.092.986-.318a.818.818 0 00-.274-.52c-.513.091-.75.37-.712.838zm-2.981-.716a1.599 1.599 0 00-.184 1.7 1.305 1.305 0 001.621-.853c.068-.217.078-.447.029-.67-.456-.095-.756-.384-1.466-.177zm5.031-5.513c-2.602.39-1.794-3.247-4.485-2.752-.624 1.352 1.517 1.543.819 3.055 1.589.667 2.051 2.66 5.15 1.546a3.589 3.589 0 00-1.484-1.85zm1.235-4.637c-.808.053-1.046.5-.864 1.234 1.056.511 1.812-.728.864-1.234zm-9.721-1.864c-.068-.481.035-1.17-.73-.83.23.294.125.982.73.83zm9.533-1.085a1.082 1.082 0 00-.574 1.1 1.081 1.081 0 00.843.911c.847-.232 1.036-2.17-.269-2.011zm-10.362 10.32c-.483.723.445 1.2 1.184 1.141-.094-.73-.294-1.349-1.184-1.14zm37.26-6.278c.379-.13.862-.181.737-.656-.39-.284-.788.165-.737.656zm-38.623.687c-.493.436-1.792.316-1.701 1.159.524.79 1.45 1.111 1.734 2.187.327-.368 1.953.4 2.631-.352-.149-1.871-1.882-1.871-2.664-2.994zm-3.404 3.806c-1.311 2.467 3.944 2.524 2.881-.013-1.272.372-1.611-.359-2.881.013zm35.886-4.233c-.369.432.124.928.729.832-.03-.528-.108-.999-.729-.832zm2.453-10.937a1.284 1.284 0 00.979 1.172c.128-.41.545-.622.461-1.177-.426-.116-1.044-.467-1.44.005zm-8.032 9.263a1.826 1.826 0 002.031-1.76l-1.82.243a1.903 1.903 0 00-.211 1.517zm9.511 9.528c.567.552 1.801.028 1.974-.638-.497-.751-2.046-.339-1.974.638zm-24.095-15.401c-2.528-.8-.379 3.135 0 0zm2.09-2.886c.838-.086 1.226-.486 2.201-.477-.119-.989-2.492-.345-2.201.477zm-.884 10.357l.122.915.608-.081c.073-.654-.298-.78-.73-.833zm7.003-.001c-1.707-.472-2.579.887-1.757 2.281.601-.216.765.088 1.24.02-.344-1.122.863-1.18.517-2.302z" fill="#E27BF5"/><path opacity=".3" d="M422.366 83.563c.075-.644.196-1.282.363-1.909a2.54 2.54 0 00-1.545.764c.523.23.389 1.236 1.182 1.145zm-3.189-3.852c-.555-.19-1.201-.274-1.36-.934.474-.95.64-2.109 1.933-2.492-.012-.69-.884-.367-.779-1.201.195-.532.814-.77.615-1.571-1.247-.93-2.201-2.202-4.032-2.443l.22 1.647c-.251.438-1.123.447-1.092 1.076.801 1.24 3.459.294 3.959 1.893-.171.27-.1.7-.51.812-1.168.253-1.537-.444-2.525-.406a4.19 4.19 0 01-1.35 2.226 3.116 3.116 0 002.193 1.01c1.028 1.918 5.147 3.155 4.525-.044-.678-.418-.853.517-1.797.427zm-.8 7.921c.09 1.023 1.501.494 2.526.409.153-1.445-1.969-1.007-2.526-.409zm.832-4.577c-.667.094-1.44.116-1.343.736.18 1.05 1.989.276 1.343-.736zm-63.524 6.99a1.08 1.08 0 00-.297 1.689c.15.163.348.275.565.322.847-.236 1.036-2.172-.268-2.011zm67.465-17.568c-.757.362-.349 1.529-1.201 1.835-.868.318-1.046-.177-1.666-.151a2.332 2.332 0 01.641 3.266 10.059 10.059 0 013.374-2.502c-.05-.366-.098-.733-.146-1.1-.517-.229-.572-1.011-1.002-1.348zm-31.308 9.203a14.836 14.836 0 01-5.419 2.585c-.701 1.508-.076 3.935-3.202 3.778l.121.914c2.012-.587 2.97 1.084 5.075 1.001-.368-1.017-1.116-2.576-.714-3.813l1.417-.19c-.701-1.537 1.91-1.672 2.208-1.97-.226 1.121-1.007 1.856-.8 3.273a2.567 2.567 0 013.212-.616 1.785 1.785 0 00.767-1.965 5.82 5.82 0 01-2.665-2.997z" fill="#E27BF5"/><path d="M292.18 103.359c1.092-.471 1.576.526 2.251-.116-.244-.544-2.099-1.157-2.251.116zm-5.219-2.094c.356.018.707-.094.985-.317-.451-1.152-1.424-1.361-2.802-.93.257.484.877.989.196 1.462-.401.445-1.001-.061-1.821.244-.075.864.624.817.624 1.591.327.145.697.161 1.036.046 1.558 2.909 4.224 1.322 5.665-.756a3.14 3.14 0 00-.4-1.434c-.988.195-3.281 2.35-3.483.094zm-6.413-1.751c-.212.407-.777.573-.89 1.048.266.467.676.757.801 1.385-.147.671-.917.919-.791 1.78 2.194.068 2.202-1.364 3.22-2.101-.801-.687-1.252-1.772-2.34-2.112zm1.466.175a3.66 3.66 0 001.441 0c.159-.49.23-1.004.21-1.52-1.077.143-1.595.674-1.651 1.52zm2.192 11.809c.207.638-.118.914-.233 1.332a.942.942 0 001.317-.917.877.877 0 00-1.084-.415zm8.381-18.988c-.039-.769-.807-.79-1.232-1.512-.85.578-2.523.59-2.888 1.501.842 1.582 4.227 2.168 4.12.011zm8.913 6.628c.571.03.906.34 1.489.358.039-.36.534-.41.283-.967-.606.812-1.49-.12-1.772.609zm2.306-5.892c.545 1.537-.926 1.69-.85 2.902a4.625 4.625 0 003.729-2.918 23.318 23.318 0 00-2.879.016zm-2.8 14.518c.032.244.065.49.1.732.346-.148.827-.2.963-.5-.397-.027-.565-.326-1.063-.232zm-6.255-8.284a10.327 10.327 0 002.607-.534c.004-1.289-3.253-.922-2.607.534zm9.13 9.764c-.228.901.094 2.802 1.555 2.402.271-.583-.628-1.291-.52-2.35-.552.224-.559-.192-1.035-.052zm-22.041-.037c-.228.618-.918.919-.791 1.782a1.28 1.28 0 001.514.542 2.237 2.237 0 00-.723-2.324zm-10.5-13.862c.049.363.1.73.147 1.095 1.263.316 3.782.225 3.747-1.245-1.245-.775-2.179-.27-3.894.15zm-3.407-.85a.673.673 0 00-.473-.76.679.679 0 00-.814.375c.508.035.524.65 1.287.385zm.519 2.351c-.863.017-1.088.471-1.772.608-.244 1.771 1.341 1.382 1.758 2.372-.011.879-.767 1.244-.743 2.148 2.546.781.901-2.682 3.603-2.343-.004-1.93-3.31-1.008-2.846-2.785zm7.919 3.779c.573.166 1.14.347 1.716.515-.014-.618.479-.889.184-1.701a1.708 1.708 0 00-1.9 1.186zm-4.792-8.105c-.588-.089-2.149-.537-2.427.324.663.414 1.4.696 2.17.828-.123-.53.382-.625.257-1.153zm9.314 3.409c.065-1.35-.789-1.61-1.327-2.242.135.83.034 1.683-.293 2.458a1.745 1.745 0 001.62-.216zm-1.196 1.837c.032.453.086.883.346 1.068.465-.125.848-.3.939-.684-.703.196-.584-.579-1.285-.384zm-1.219-4.494c-.162-.018-.255-.12-.251-.338a1.9 1.9 0 00-1.19.345c.175.45.439.858.778 1.201.061-.514.786-.568.663-1.208zm-2.521 4.25c1.125-.126 1.523.6 2.55.591.429-.825-.833-1.194-.901-2.113a1.754 1.754 0 00-1.649 1.522z" fill="#E27BF5"/><path opacity=".3" d="M330.592 99.537a2.524 2.524 0 00-1.301 2.595c1.072-.339 3.555-2.028 1.301-2.595zm13.368-4.764c-.494.436-1.794.317-1.701 1.16.524.79 1.45 1.11 1.734 2.186.327-.368 1.953.4 2.63-.352-.149-1.869-1.881-1.87-2.663-2.994zm2.191-3.645c-.069-.482.034-1.169-.731-.83.23.292.125.982.731.83zm-5.596 7.449c-1.31 2.468 3.945 2.526 2.882-.012-1.273.372-1.61-.359-2.882.012zm-4.632.806c-.91.832.106 1.977.414 3.108 2.946.484 1.721-3.361-.414-3.108zm11.007-13.197c-1.381.212-2.147.847-1.756 2.281 2.153-.421 2.751.99 3.046 2.759.784.418 1.664.62 2.551.588-.725-2.67-3.805-2.71-3.841-5.628zm-1.607 14.177c-.483.723.446 1.2 1.184 1.141-.098-.731-.29-1.349-1.184-1.141z" fill="#E27BF5"/><path d="M311.305 100.062c-.07-.714.473-1 .841-1.415-1.299-.095-1.922 1.304-.841 1.415z" fill="#E27BF5"/><path opacity=".3" d="M349.607 103.143a1.587 1.587 0 00-.184 1.701c.217.066.448.074.669.024a1.307 1.307 0 00.951-.878 1.31 1.31 0 00.03-.669c-.458-.093-.754-.385-1.466-.178zm5.028-5.513c-2.602.39-1.795-3.248-4.486-2.751-.625 1.35 1.517 1.543.819 3.055 1.588.667 2.051 2.659 5.15 1.546a3.594 3.594 0 00-1.483-1.85zm-2.048 6.229c.357.022.709-.092.986-.318a.815.815 0 00-.274-.52c-.51.092-.747.371-.712.838zm60.567-22.977a10.883 10.883 0 01-1.168-4.124c-1.047.058-.286 1.355-.34 2.095-.378.9-1.461 1.318-2.209 1.97-.094 2.826 3.696.608 4.818 2.148.395.54.752 2.959-.217 3.008.472.16.971.22 1.466.177.601-1.552 1.293-2.702.2-4.681-.689-.386-1.964-.082-2.55-.593z" fill="#E27BF5"/><path d="M317.658 98.282c2.035.822 4.876-1.241 2.968-2.444.007 1.502-2.875 1.014-2.968 2.445zm1.733-8.607a.728.728 0 00-.907-.622c-.108.743.588 1 .907.622zm-3.059 11.02c.622 1.662.983 3.639 2.786 3.909.334-.713-.159-1.993-.188-2.953a3.132 3.132 0 01-2.598-.956zm-2.351 5.527c.142.428-.317.446-.08.94.876-.047 1.409.312 2.302.254.079-.445.605-.58.687-1.024-.593-.502-1.7-.397-2.909-.17z" fill="#E27BF5"/><path opacity=".3" d="M334.293 102.579c-.106.87-.452 1.57-.492 2.487.58-.1 1.338-.079 1.593-.4.362-.805-.089-2.222-1.101-2.087z" fill="#E27BF5"/><path d="M319.287 101.225c.973 2.112 3.193.825 3.366-1-1.272-.84-1.806 1.011-3.366 1zm8.742-10.096c-2.567.4-5.163-.022-6.304 2.143 1.091.194 2.074.516 3.18.692.105-.593.04-1.301.841-1.416.819.517 1.44 1.266 2.827 1.113.004-.901.175-2.024-.544-2.532zm-65.278 9.272c-.219 1.174.87 2.242 2.217 1.191-.11-1.139-.974-1.388-2.217-1.191zm59.351-12.018l-.608.08c-.1.61.389.53.7.65-.027-.243-.06-.487-.092-.73z" fill="#E27BF5"/><path opacity=".3" d="M355.871 92.996c-.808.052-1.046.5-.864 1.232 1.056.51 1.808-.73.864-1.232zm26.712 1.088c.379-.129.862-.18.737-.655-.39-.285-.788.162-.737.655z" fill="#E27BF5"/><path d="M262.311 97.107l2.022-.27c-.281-1.077.5-1.431.517-2.302-.636 1.003-2.839.929-2.539 2.572z" fill="#E27BF5"/><path opacity=".3" d="M383.523 82.606c.976.006 1.362-.393 2.202-.48.481.137.493.829 1.311.569 1.846-1.057 1.664-3.503 2.15-5.504-1.288-.113-2.423.494-3.334-.3a2.18 2.18 0 01-1.093 1.076c.612 2.255.06 3.703-1.236 4.64zm-3.151 19.594c.567.552 1.801.028 1.974-.638-.493-.751-2.046-.337-1.974.638zm10.986-8.728c.433-1.273 2.278-.449 2.881-.01a2.481 2.481 0 00-.721-2.325c-1.147.381-3.016 1.135-2.16 2.335zm-26.872.795c-1.707-.47-2.58.888-1.756 2.281.6-.215.763.09 1.238.02-.346-1.12.863-1.178.518-2.301zm6.377-1.595a1.826 1.826 0 002.031-1.76l-1.82.243a1.906 1.906 0 00-.211 1.517zm25.252-.577c.655.835 2.031.966 2.227-.3.958-.2 2.101.224 2.833-.377a7.042 7.042 0 00-.701-2.143c-.899 1.32-4.322.907-4.359 2.82zm-19.674 2.252c-.368.432.124.927.729.832-.03-.528-.108-1-.729-.832zm2.454-10.933a1.283 1.283 0 00.979 1.172c.128-.409.545-.623.461-1.177-.426-.123-1.043-.473-1.44.005zm-.105-10.042c-.58-.023-1.089-.128-1.668-.15.185.645-.225 1.235-.111 2.248.6-.216.636.235 1.238.022-.424-1.123.964-.999.541-2.12zm-20.423 10.542c.838-.086 1.225-.486 2.201-.477-.119-.99-2.493-.344-2.201.477z" fill="#E27BF5"/><path d="M422.52 61.578c-.552-.113-.731-1.359-.447-1.801l.201-.028c-.227-1.707-.455-3.414-.684-5.12-.939-.25-1.569.978-2.961.953-.07-.2-.263-.255-.453-.312-.377-1.421 1.124-1.551.846-2.902a1.679 1.679 0 012.302.253l-2.776-20.797a194.128 194.128 0 00-21.254 3.13c-29.978 5.775-58.239 17.605-86.322 29.209-7.705 3.183-15.236 6.744-22.626 10.584a.824.824 0 01.051.269 1.425 1.425 0 01-1.115.292 347.7 347.7 0 00-12.324 6.78l.187.096a.613.613 0 01-.371.71.611.611 0 01-.755-.27 408.214 408.214 0 00-9.35 5.59c1.014.34 2.056.642 1.263 2.086-.391.4-1.466.322-2.201.481.228.709-.439.806-.21 1.516 2.125-.084 3.588-.468 5.361.03.732-.601.65-1.766.87-2.724-1.013-.087-2.784-1.41-1.353-2.425.732-.23.909.2 1.643-.032.808-.8 1.475-2.008 3.115-1.347.715-.45.691-1.406 2.079-1.395.416.072.601.417.729.836-1.441.786-4.19 2.852-1.69 4.319.38.46.232-.82 1.166-.528.627-.175.2.9.908.622.568-.3 2.275-1.112 2.832-.377-.683 1.321.628 2.386 1.094 3.576 1.893-.395 2.513.7 4.017.77.2.394-.174 1.475.575 1.225a2.312 2.312 0 011.245-1.468c.401.025.561.324 1.061.227.058-.566.544-.841.637-1.386-1.952.418-2.469-1.61-3.296-3.097 1.151.228 1.881-.36 3.239-.432.49-.608.752-1.367.742-2.148-1.245-.254-2.954-.988-2.591-2.445 2.168-.02 2.71 1.882 4.258 2.597a3.853 3.853 0 01-.185 1.7 6.188 6.188 0 013.035-.405 19.235 19.235 0 011.476 3.342c.556-.133 1.407-1.014 1.822-.244-.506 1.285-1.782 2.652-.3 3.95 1.501-.101 3.38-.376 4.775.293 1.692-.492 1.407-3.065 1.284-4.267-1.301.269-.891 1.713-2.209 1.969-.779-.5.231-1.377-.22-1.645-4.683.862-.818-3.996 1.261-4.45 1.055.165 1.04 1.594 1.734 2.19 1.273-.98 3.193-1.385 4.475-.413a3.963 3.963 0 00-.138 2.065 5.033 5.033 0 002.147.645c.56-.833.762-1.913 2.183-2.153.44.539.348 1.706.724 2.324.038.8-1.018.852-1.019 1.624.681-.028.967.41 1.869.126 1.101-1.074 1.462-2.65 3.73-2.921.393-.46-.301-.72-.201-1.462 1.116-1.447 4.203-1.539 5.146-3.102 2.312-.125 2.815 1.767 2.131 3.624 3.193-.019 2.344-2.817 4.465-3.573 1.041.382.222 2.207.544 2.533a2.435 2.435 0 012.355-.874c.426.344.315 1.322.47 1.987-2.063.633-1.552 5.152.353 5.722 1.701-.381.186-2.973.9-4.03-.71.1-1.71-.88-.8-1.38.957-.353.777.635 1.514.542.278-1.194.271-2.584.977-3.48 2.002-.42 1.259 1.19 2.47 1.529a2.782 2.782 0 00-.34 2.095c2.449 1.027 2.988.34 4.833-.832a4.367 4.367 0 01-.591-2.902c-1.322.217-2.127-.175-2.423-1.167.959-1.085 2.473-.042 2.802.928 2.191-.484 2.791-2.067 5.015-2.53.625-1.266-.381-1.401-.567-2.715.178-.877 1.009-1.3 1.601-1.89a2.13 2.13 0 012.06-3.068c2.022.371.901 4.178-1.283 4.268a8.023 8.023 0 01-1.154 3.691c.5.26.25 1.4 1 1.354.801.485 1.158-.747 2.178-.662-.066 1.51.489 3.709 2.389 2.473-.094-2.359-1.461-3.215-2.278-4.72.435-.52.895.017 1.619-.217.1-.593.038-1.301.84-1.416.679.118 1.001.66 1.208 1.328a4.802 4.802 0 011.844-.06c-.014-3.106 2.647-1.956 4.023-.723.922-1.386 2.761-.2 4.097-.175a2.61 2.61 0 001.733 2.19c.773-.3 1.09-.911 2.127-1.03.69 2.258-2.309 3.387-4.594 4.15-.065-.136-.2-.189-.429-.126-.557-.335.006-1.988-.876-1.934-.477.835-1.501 1.301-1.982 2.128.277 1.153 1.827.807 1.935 2.16 2.087-.483 2.455 1.059 4.243.924-.065-1.842 2.518-1.987 3.748-1.245.4-1.775.228-3.94.91-5.52.639-.648 1.001.38 1.87.122.249-2.126 3.673-2.623 4.094-.175a3.4 3.4 0 00-2.685 1.477c.259.389 1.075 1.445.245 1.83-.859.235-1.177-.167-1.693-.334a3.598 3.598 0 00-.792 1.781 5.952 5.952 0 012.544 2.08 4.191 4.191 0 001.594-.4c.106-1.184-.954-.994-.901-2.115.389-.783 1.828-.846 2.03-1.761-.501-1.887-.029-4.129 1.665-4.503 1.352-.3 2.937 1.48 4.549.139a3.531 3.531 0 01.094-3.924c-3.042-.238-4.804 1.001-6.532 1.99-.225-.5.08-1.89.04-2.802-.607.125-1.263 1.26-1.801.425a3.289 3.289 0 00.194-3.19c2.724-1.555.131-4.99 1.752-6.936a1.759 1.759 0 011.047 1.023 1.775 1.775 0 01-.082 1.46c1.035 1.1 3.286 1.826 2.562 3.755.692.147 1.395.241 2.101.28-.7-.635-.369-1.27-.52-2.35 1.157-.526 2.417-1.91 3.568-1.035.169.53.244 1.088.219 1.645-.257.32-1.013.3-1.594.4-.226 1.34-1.084 2.244-1.607 3.38 1.579 1.212 5.332-.47 7.205-.03 1.353 1.069.891 3.145.764 4.178a4.736 4.736 0 002.98.72 5.383 5.383 0 011.555 2.402c1.558.84 3.702.989 5.375 1.701.365-.357.874-.615.864-1.23-.34-.801-1.787-.293-2.017-1.222.205-.8.87-1.283 2.081-1.393-.601-1.041-2.308-.214-3.489.094-.51-.459-1.168-.74-1.256-1.697-.852.376-2.875.859-3.108-.142 1.737-1.886 4.513-.313 6.782-1.65-.095-.675-.078-1.273.637-1.388.692.287 1.411.502 2.146.644.659-.478 1.779-1.372 2.734-1.108-.601 1.846.523 3.225 2.665 2.994 1.487-1.852-1.449-5.361.741-6.804.8.177 1.15.9 2.17.828.281-.861 1.142-1.32 1.35-2.23-1.893-.235-3.102-1.174-3.093-3.124-.9.288-1.189-.15-1.871-.123-.305.677-.423 1.481-1.201 1.835-.94-3.09-4.903-.446-3.067 1.714.818-.495 1.568-1.91 3.116-1.347-.19 1.37-.406 2.789-1.407 3.352-2.517 1.42-3.058-.76-4.234-2.412a7.435 7.435 0 011.351-2.228c-.692-.034-1.162-.323-1.183-1.145a3.628 3.628 0 011.392-.373c.309-.508-.113-1.518.816-1.601 1.276.4 1.418 2.137 3.683 1.37.701-.456.733-1.377 1.627-1.7a10.991 10.991 0 003.06-.224c.288.356.485.777.575 1.226a2.215 2.215 0 011.894.307c.127 1.305-.952 1.78-1.051 2.93 1.763-.487 1.918-3.722 4.385-2.631.201 1.079-.592 1.475-.945 2.172.624.676 1.523 1.027 1.733 2.19.908.128 1.672.033 1.975-.636a2.958 2.958 0 002.955.536 2.736 2.736 0 01.16-1.883c-.304-2.261-.607-4.52-.908-6.774zM280.586 85.916c-.573.321-1.401.244-1.513-.544a1.906 1.906 0 011.189-.344c-.026.457.424.354.324.888zm9.697-9.114a1.462 1.462 0 01.057-1.124c.789-.3.938.165 1.287.389a.947.947 0 01-.481.717.94.94 0 01-.863.026v-.008zm2.791 8.565c-.517-.943-1.501-1.333-1.781-2.555a7.763 7.763 0 013.31.117c-.05 1.13-.275 2.142-1.529 2.442v-.004zm25.46-17.548l.809-.108a1.329 1.329 0 01.195 1.465c-.981.344-1.382-.75-1.004-1.353v-.004zm-4.426 6.927c.306.707-.207.852-.461 1.177-.775-.044-.423-1.27.461-1.177zm-3.202 8.43c-.959.216-.725-.985-.372-1.254.702.005.424.842.372 1.254zm-.191-18.404c0 .73-1.181 1.308-1.926 1-.162-.884.974-.877 1.924-1h.002zm-12.146 18.562a1.736 1.736 0 011.618-.216c.461 1.433-1.595 1.44-1.618.216zm2.03-1.76a1.534 1.534 0 011.148-2.201c.968.63.582 2.407-1.148 2.2zm1.101-8.707c-.261-1.064-.023-1.79.969-1.99 1.62.32 1.077 2.837-.969 1.986v.004zm1.279-2.776c-.327-.832.342-.982.636-1.39.312.056.545.2.859.26.445.987-.741 1.48-1.493 1.126l-.002.004zm2.423 16.613c-.6-1.18.274-2.502 1.901-2.676a.596.596 0 00.455.313c.246 1.494-1.166 1.852-2.356 2.363zm2.947 2.027c-.49-1.114.627-1.12.792-1.782a3.227 3.227 0 01.038-2.802c2.001.376 2.814-1.855 4.832-.833.193 1.352-.488 2.102-.601 3.246-2.655-.209-2.866 2.23-5.06 2.17h-.001zm3.642-.486c.849-1.067 3.141-.973 3.537.272-.063 1.415-3.861 1.802-3.535-.272h-.002zm2.396-9.815c2.176-.357 3.193 1.708 3.119 3.307l-.4.055c-1.622-.279-1.897-2.138-2.718-3.362h-.001zm2.112 8.094a.853.853 0 01-.381-.6.841.841 0 01.21-.68c.643-.052 1.224-.032 1.311.571.094.563-.537.624-1.139.71h-.001zm3.269-1.738a3.592 3.592 0 01-.245-1.83l1.011-.135c.585.651.449 2.02-.765 1.965h-.001zm.167-3.372c1.038-.787 1.521.68 2.729.38.032.243.065.486.1.73-1.207.725-2.328-.31-2.828-1.11h-.001zm2.902-4.484c-.77.2-1.032-.194-1.846.06-.054 2.2-2.749 2-4.352 1.327a4.674 4.674 0 013.422-2.132c.693-.549 1.937-1.826 3.164-.983.219.817-.26 1.153-.387 1.728h-.001zm18.771-9.02c.983-.03 1.143.91 1.815 1.248.286 1.494-1.806 1.82-2.557.9a4.7 4.7 0 01.743-2.149h-.001zm-2.445-1.35c1.32-.127 1.055 1.583-.436 1.362-.131-.645-.009-1.119.437-1.362h-.001zm-4.274.383a.71.71 0 01.375 1.254.688.688 0 01-.628-.915.689.689 0 01.254-.338h-.001zm-.401 4.71l.81-.108c.135.37-.074.5-.106.758-.315-.12-.801-.042-.702-.65h-.002zm-2.349-5.273c.886.866.269 1.937.39 2.928a2.5 2.5 0 01-2.146-.643c-.087-1.225.224-2.174 1.758-2.285h-.002zm-2.281-4.721c.046.528.272 1.184-.007 1.491-1 .26-1.326-.271-1.562-.91a1.246 1.246 0 011.571-.581h-.002zm-6.004 8.992c.084-.661.752-.923 1.043-1.442a3.926 3.926 0 012.422 1.167 31.559 31.559 0 00-.977 3.48c-1.36-.443-1.95-1.793-2.489-3.205h.001zm.701 6.794a1.742 1.742 0 011.621-.216c.413 1.482-1.533 1.363-1.623.216h.002zm.708 5.304c-.573-.69.138-1.142.615-1.572a2.794 2.794 0 011.741.7c.947-.841 1.331-.46 2.631-.35-.482 2.61-2.557.405-4.989 1.223l.002-.001zm6.121-.445a.733.733 0 01-.908-.624c.22-.186.498-.289.786-.29a.635.635 0 01.254.431.63.63 0 01-.134.484l.002-.001zm11.096-.18c-.63.25-.359-.565-.883-.438-.359.53.542.62.171 1.28-.584.317-.846.858-1.951.818-.268-1.07.481-1.441.971-1.989-.058-.145-.228-.158-.251-.34-1.194-.145-2.895.692-3.562-.455a.821.821 0 00.129-.577 8.41 8.41 0 002.556-.9c1.052.384 1.766 1.164 3.232 1.058.425.905-.365.972-.414 1.544h.002zm-.489-3.655c-.12-.62-.85-1.222-.446-1.801-.82-.012-.749.59-1.57.58-.3.459-.343 1.093-.614 1.573-2.369.989-3.823-1.066-5.916.416a.874.874 0 01-1.085-.413 2.239 2.239 0 00-1.425 1.68c-1.171-.243-2.434-.373-2.34-2.108.442-.251.569-.717 1.343-.738-.446-.948.214-1.727 1.068-1.258.319.771-.6.69-.436 1.36.469.324.989.57 1.538.724 1.401-1.14 3.951-1.49 3.833-3.675 1.952-.395 3.224 1.3 4.753.11-.234-.614-.75-.889-.423-1.618l1.012-.135a3.904 3.904 0 01.819 3.055c.491.762 1.518.89 1.711 2.001-.434.694-1.106.33-1.824.248h.002zm.007-12.287c-.019-.896 1.276-1.601 2.308-1.239.197 1.075-1.591 2.31-2.31 1.24l.002-.001zm3.831 7.126a.742.742 0 01-.956-.99.744.744 0 01.956.99zm.018-9.125c.69.032 1.164.326 1.184 1.145-.846.174-1.602-.5-1.183-1.15l-.001.005zm1.547 10.025c.195-.694 1.579-.891 2.379-.688a1.242 1.242 0 01-.846 1.533 1.236 1.236 0 01-1.533-.845zm4.07-.357c-.501-.19-1.288-.033-1.336-.753a1.738 1.738 0 011.619-.217c.25.565-.084.727-.283.973v-.003zm-1.367-10.244c.219-.754 1.775-.924 2.401-.5.826 2.127-2.211 1.79-2.401.503v-.003zm15.129 2.263c.651-.061.946.3.955.99a1.446 1.446 0 01-1.034-.049 1.111 1.111 0 01.079-.938v-.003zm-1.778 2.101c.137.37-.074.5-.106.758-.361 0-.501-.254-.501-.677.199-.025.399-.053.607-.079v-.002zm-5.537.18c-.054-.571-.708-.435-.575-1.227.822-.54.845-1.632 2.233-1.786 1.356 2.178 1.19 5.158-3.081 4.692-.543-1.256.808-1.213 1.423-1.678v-.002zm-.858 10.54c-1.084.149-1.689-.267-1.815-1.248.658-.434 1.09-.057 1.844-.06.308.487.145.774-.029 1.31v-.003zm2.185-2.151c-.018-.331-.3-.354-.3-.7a.951.951 0 01.775-.257.961.961 0 01.691.434c.035.466-.632.449-1.166.523zm.886-16.5c-.006-1.334.876-2.056 2.589-2.209a2.115 2.115 0 01-1.609 2.206 2.11 2.11 0 01-.981.003h.001zm4.028 19.38c-1.969.277-2.618-1-3.02-2.576.357-.473 1.292-.551 1.722-.973-.266-1.07.012-1.765 1.201-1.838 1.12 1.13-.964 3.121.23 4.812.801.677 2.215.633 2.519 1.902-1.217 1.202-2.293-.252-2.653-1.327h.001zm.629-4.55c-.237-.5.221-.514.08-.945a6.141 6.141 0 012.452-.14c.8 1.841-1.915 1.968-2.533 1.085h.001zm3.531-9.034c1.007.077 1.201 1.12 1.861 1.61a2.142 2.142 0 01-.817 1.602 5.348 5.348 0 01-1.045-3.212h.001zm.573 12.022c-.061-.984.657-1.433 1.853-1.55 1.631 1.166-.978 2.967-1.854 1.55h.001zm12.92-22.015c.086.447.149.879-.056 1.124-.995-.024-1.685-.411-1.839-1.43a2.816 2.816 0 011.894.305l.001.001zm-9.084-3.255c.625-.172.826.157 1.263.2.172.676-.794 1.065-1.343.738a1.111 1.111 0 01.079-.939l.001.001zm1.687 28.072c-1.173-.259-1.848-2.461-1.047-3.212a3.691 3.691 0 011.442-.006c-.39 1.262.082 2.159-.396 3.217h.001zm-1.343-20.861c-.188-1.658 2.894-1.642 2.702.2-.768.528-2.41.515-2.702-.2zm3.208 5.527a.73.73 0 01-.901-.622c.284-.263.712-.691 1.19-.346.087.455-.248.615-.289.971v-.003zm-.439-3.29c-.354-1.156.905-1.622 1.878-1.368 1.222 1.225-1.096 2.485-1.878 1.37v-.003zm4.317 1.47a1.284 1.284 0 01-1.423.864c-.2-.032-.389-.11-.553-.228-.147-.877.749-1.036.339-2.092 1.491.578 2.979-.138 3.684 1.37-.518.508-1.353.03-2.046.09l-.001-.004zm2.552-5.553c-.072-1.128 2.41-1.251 2.453-.142-.331 1.112-1.88.925-2.453.145v-.003zm16.066-3.074c.542 1.201-.37 2.102-1.425 1.679.029-.862.096-1.703 1.425-1.675v-.004zm-2.68-.015c.529 1.553-1.779 1.418-1.643.033a1.436 1.436 0 011.643-.03v-.003zm-5.503 14.323c.061-.739 1.591-1.146 2.354-.873.754 1.74-2.14 2.561-2.353.876l-.001-.003zm-1.14-10.086c1.042.737.195 2.24-1.221 1.652-.353-.621-.12-1.7 1.222-1.649l-.001-.003zm-2.642 7.986a1.737 1.737 0 012.386-2.182c-.054 1.167-.844 3.092-2.385 2.185l-.001-.003zm2.467-3.123c-.049-1.637 1.626-.947 2.961-.952.355 2.176-2.089 1.049-2.96.955l-.001-.003zm10.122 7.957c-1.831.715-3.688.856-5.339 1.644-1.401.666-2.33 2.787-3.903 1.639a2.85 2.85 0 011.835-3.225c.133.336.501.4.528.86.512-.368 1.607-.334 1.948-.82a13.323 13.323 0 01-.616-3.08c2.208-1.511 2.351.18 3.682 1.369.785.698 2.259.655 1.866 1.616l-.001-.003zm1.621-21.81c-.052-.59.352-.865 1.115-.894.4.275.423 1.133-.031 1.308-.395-.094-.847-.125-1.083-.41l-.001-.004zm.279 5.185c-.095-.788.622-1.013 1.501-1.134a1.114 1.114 0 01.323.89 2.14 2.14 0 01-1.824.244zm10.767-10.374c.74-.238.533.64 1.108.6 1.037-.008.917-.808 1.723-.974.357.355 1.07.29 1.159.961-1.029.512-1.431 1.454-2.411 2.002-.707.127-.747-.53-1.311-.57-.364.529-1.192 1.632-1.772.608.805-.675.482-2.114 1.504-2.632v.005zm-1.372 6.697c1.345-.315 1.827.386 2.753.565-.092.9-.249 1.79-.47 2.668l-.6.08c-.617-.756-.901-1.9-2.115-1.95.008-.489.158-.964.432-1.368v.005zm-3.164 11.78c-.236-1.38.416-2.15 1.956-2.31-1.577-.676-4.281-.03-5.504-1.126-.1-1.456.921-2.136 1.657-3.013 1.114.01.643 1.434.244 1.827.494.955 2.487.091 3.488-.093.437.472 1.229.526 1.232 1.513 1.03-.23 1.753-.095 2.12.46a4.513 4.513 0 01-5.193 2.736v.005zm6.391-4.577c-.235-.66.24-.831.007-1.49-.525-.581-1.846-.223-2.017-1.22 1.32-.764 3.808-.871 4.217.74.233.911-.699 3.139-2.207 1.965v.005zm2.644-3.331a.733.733 0 01.343-.72.742.742 0 01.798.01c.113.589-.709.981-1.141.705v.005zm2.083 3.257a1.616 1.616 0 01.386-1.726c1.153-.23 1.971-.068 2.348.618.1.288-.149.34-.13.576-.613.267-1.682.13-2.604.527v.005zm1.993 5.693c-.033-.244-.065-.489-.1-.733a1.093 1.093 0 011.215-.163c.054.587-.349.862-1.115.89v.006zM246.54 99.875c-.221.682-1.401.706-1.134 1.722 1.409-.22 1.675.687 3.082-.038a54.889 54.889 0 00-1.251-2.153c-.233.155-.465.319-.697.469zm15.361-9.951a879.465 879.465 0 00-4.002 2.514 4.747 4.747 0 00-.072.43 4.917 4.917 0 00-.511-.054c-.527.337-1.053.678-1.58 1.017a4.73 4.73 0 00.434 2.049c-.981.1-1.458-.4-2.146-.646-.517.088-.194.754-.71.842a2.083 2.083 0 01-1.017-.018 1096.86 1096.86 0 00-3.002 1.976 1.062 1.062 0 00.843.51c.807-.11.458-1.012 1.521-.944.875-.114.867.81 1.742.7.888-.767 3.179-1.015 2.801.931 1.411-.254 1.014.678 1.409 1.301 1.902-.56 4.075-1.687 3.002-3.75-1.527-.27-1.558.878-2.938 1.135-.293-.148-.777-.073-.882-.441-.251-.948-.026-1.568.792-1.781 1.131.127 2.781.706 2.986-.77-.927-.036-1.859-.066-1.992-1.037.837-1.42 4.034-1.214 3.655-3.467a1.01 1.01 0 00-.333-.497z" fill="#E27BF5"/><path opacity=".3" d="M417.744 50.486l.401-.054c-.018.16.099.162.225.156l.049.366c-.177-.01-.181.1-.177.209l-.405.054c.016-.16-.1-.16-.226-.156-.016-.121-.031-.243-.049-.366.181.01.186-.097.182-.21z" fill="#E27BF5"/><path d="M266.161 62.714l.405-.054c-.017.161.1.161.227.155l.049.367c-.177-.012-.181.1-.178.21l-.4.053c.017-.16-.1-.162-.227-.155l-.049-.367c.173.011.176-.097.173-.209z" fill="#E27BF5"/><path opacity=".3" d="M379.13 75.93a1.74 1.74 0 001.318-.92c-.609.19-1.424.239-1.318.92zm19.054 11.605a1.768 1.768 0 00-.906-.623c-.151.242-.34 1.807.422 1.62.004-.441.656-.434.484-.996zm17.114-16.804c-.058-.65.471-.894.412-1.544-.936-.168-1.252 1.571-.412 1.544zm-8.318 11.723c1.306-.042 1.51-.845 1.626-1.701-1.311-.56-1.391.982-1.626 1.7zm-3.253 3.412a2.77 2.77 0 00-3.536-.271c.442 2.46 2.585 2.075 3.561.453 1.143.231 1.242-.393-.025-.182zm-66.503-9.181c.178.471-.708 1.043-.033 1.3.211-.518 1.134-.547 1.523-.946-.598.001-.723-.556-1.49-.354zm46.714 19.825c.738.61 2.124.458 1.936 2.163l.808-.108a13.906 13.906 0 01-1.45-3.158c-1.006-.025-1.233.483-1.294 1.104z" fill="#E27BF5"/><path d="M250.466 105.578c-1.269.122-2.274.428-2.055 1.577.6 1.058 1.968.168 2.833-.378-.077-.611-.741-.537-.778-1.199z" fill="#E27BF5"/><path opacity=".3" d="M357.484 94.272l.122.913.608-.08c.073-.654-.298-.78-.73-.834z" fill="#E27BF5"/><path d="M251.258 103.794c-.04.362-.374.52-.283.969.8.291 1.415.823 1.078 1.902 1.838 1.159 2.765-.723 2.791-2.234-1.166-.246-2.001-.883-3.586-.637zm6.758-1.83c-.138 1.178-1.161 1.748-1.025 3.115 1.501.112 2.301-1.61 2.717-2.783-.515-.17-.836-.57-1.692-.332zm-3.071 7.852c-.388.012-.419.266-.785.291.066.558.043 1.219.752 1.016.273-.299.52-.973.033-1.307zm-4.044.542c1 .596 1.962-.718 1.269-1.286-.965.059-1.424.46-1.269 1.286zm11.124-1.486c.27.671 1.56.09 1.601-.4-.39-.203-1.778-.542-1.601.4z" fill="#E27BF5"/><path opacity=".3" d="M356.279 86.8c-2.528-.8-.379 3.134 0 0z" fill="#E27BF5"/><path d="M220.545 109.926a2.686 2.686 0 00-3.09.058c.426 2.374 2.433 2.096 3.449.618a7.533 7.533 0 01-.359-.676zm-66.06-8.851c.178.472-.707 1.043-.032 1.307.21-.518 1.134-.548 1.521-.946-.594-.005-.718-.562-1.489-.361z" fill="#E27BF5"/><path d="M218.206 100.204c.691.286 1.41.501 2.145.642.179-.129.392-.288.626-.447a19.85 19.85 0 00-.612-3.261c-.881-.434-1.369-1.677-2.101-2.712.109-.41.297-.796.552-1.135-2.47-4.528-6.746-7.723-11.876-9.57.64.775-.162 1.959-1.447 1.426a1.075 1.075 0 01.857-1.628 31.19 31.19 0 00-4.054-1.058 1.482 1.482 0 01-2.325-.115.644.644 0 01.033-.246 36.463 36.463 0 00-1.942-.189 71.272 71.272 0 00-18.297 1.291 1.94 1.94 0 01-2.374 1.228c-.003-.264.04-.527.129-.775a167.604 167.604 0 00-24.891 7.965.66.66 0 01.129.237c.027.086.036.178.027.268a.686.686 0 01-.256.463.64.64 0 01-.615-.417.635.635 0 01-.04-.259c-.679.267-1.358.531-2.038.793a4.192 4.192 0 00-.041.994 2.201 2.201 0 01-1.68-.325c-1.179.458-2.359.92-3.54 1.387l.007.006a32.03 32.03 0 00-.977 3.48 3.689 3.689 0 01-2.101-2.257c-3.803 1.542-7.563 3.166-11.219 4.978-4.331 2.148-8.543 4.525-12.775 6.863.048.731-.7.941-1.211.668a217.883 217.883 0 01-7.315 3.863 3.608 3.608 0 011.29.014 19.106 19.106 0 011.477 3.34c.556-.132 1.407-1.013 1.821-.243-.506 1.285-1.782 2.652-.3 3.948 1.501-.1 3.38-.375 4.775.294 1.692-.491 1.407-3.064 1.284-4.267-1.301.27-.89 1.713-2.208 1.97-.78-.5.231-1.378-.22-1.646-4.683.863-.819-3.995 1.26-4.45 1.055.166 1.041 1.595 1.735 2.19 1.272-.978 3.193-1.385 4.475-.412a3.93 3.93 0 00-.138 2.065 5.03 5.03 0 002.147.645c.559-.834.761-1.913 2.182-2.154.441.54.349 1.708.724 2.325.038.801-1.018.853-1.019 1.624.682-.028.968.41 1.869.125 1.101-1.073 1.462-2.65 3.73-2.92.394-.459-.3-.718-.2-1.462 1.115-1.448 4.203-1.54 5.145-3.108 2.313-.124 2.815 1.767 2.132 3.625 3.193-.019 2.343-2.816 4.465-3.573 1.04.382.223 2.208.543 2.533a2.44 2.44 0 012.355-.874c.427.345.316 1.322.471 1.988-2.064.632-1.552 5.151.352 5.721 1.701-.381.186-2.973.901-4.029-.71.1-1.711-.881-.801-1.381.958-.353.779.635 1.514.542.277-1.194.271-2.584.979-3.481 2.001-.419 1.258 1.191 2.468 1.53a2.776 2.776 0 00-.339 2.095c2.449 1.027 2.987.34 4.832-.832a4.386 4.386 0 01-.592-2.902c-1.321.216-2.126-.175-2.422-1.167.959-1.085 2.473-.042 2.802.929 2.191-.485 2.791-2.068 5.014-2.531.625-1.265-.381-1.401-.567-2.716.178-.876 1.01-1.301 1.601-1.889a2.131 2.131 0 012.062-3.068c2.021.371.9 4.178-1.284 4.267a8.046 8.046 0 01-1.154 3.691c.5.26.249 1.401 1.001 1.354.8.486 1.157-.745 2.177-.661-.066 1.511.49 3.709 2.39 2.473-.094-2.358-1.461-3.215-2.278-4.721.434-.518.896.018 1.618-.216.1-.592.038-1.301.842-1.416.677.118.995.66 1.208 1.328a4.83 4.83 0 011.844-.06c-.015-3.102 2.645-1.956 4.022-.723.921-1.385 2.76-.2 4.096-.175a2.616 2.616 0 001.734 2.19c.773-.3 1.089-.911 2.127-1.03.689 2.258-2.31 3.386-4.594 4.151-.065-.137-.2-.19-.43-.127-.556-.334.007-1.989-.875-1.934-.478.835-1.496 1.301-1.983 2.127.279 1.155 1.828.808 1.936 2.16 2.086-.482 2.454 1.06 4.243.925-.065-1.842 2.518-1.986 3.747-1.245.4-1.775.229-3.94.911-5.521.638-.647 1 .381 1.869.124.249-2.127 3.673-2.624 4.095-.176a3.394 3.394 0 00-1.518.42 3.391 3.391 0 00-1.167 1.057c.258.388 1.075 1.445.244 1.83-.859.235-1.176-.167-1.693-.334a3.616 3.616 0 00-.792 1.781 5.944 5.944 0 012.544 2.08 4.156 4.156 0 001.594-.4c.106-1.184-.954-.993-.901-2.115.39-.782 1.829-.844 2.03-1.761-.501-1.886-.029-4.128 1.665-4.503 1.352-.3 2.937 1.481 4.549.139a3.531 3.531 0 01.094-3.923c-3.042-.238-4.803 1-6.531 1.99-.225-.5.08-1.889.039-2.802-.607.126-1.263 1.262-1.801.426a3.31 3.31 0 00.193-3.19c2.723-1.555.131-4.99 1.752-6.935a1.766 1.766 0 01.947 2.478c1.035 1.101 3.287 1.826 2.562 3.755.691.147 1.392.24 2.097.279-.701-.633-.37-1.269-.521-2.35 1.157-.526 2.418-1.909 3.569-1.035.168.531.243 1.088.22 1.646-.259.321-1.015.3-1.595.4-.227 1.339-1.085 2.245-1.607 3.38 1.579 1.212 5.331-.469 7.204-.03 1.353 1.069.891 3.144.764 4.178a4.741 4.741 0 002.98.721 5.373 5.373 0 011.555 2.401c1.558.841 3.702.989 5.375 1.701.366-.357.874-.615.865-1.231-.34-.8-1.786-.292-2.017-1.22.205-.801.869-1.285 2.08-1.394-.6-1.041-2.308-.213-3.488.094-.511-.459-1.169-.741-1.256-1.701-.853.376-2.876.859-3.109-.142 1.738-1.887 4.514-.313 6.782-1.65-.08-.669-.063-1.267.653-1.381zm-90.411 6.109c.7 0 .425.84.372 1.253-.96.216-.724-.985-.372-1.253zm-5.13 4.781c-.6-1.18.275-2.502 1.907-2.676a.58.58 0 00.454.313c.241 1.494-1.172 1.852-2.361 2.363zm2.947 2.026c-.49-1.113.628-1.12.792-1.781a3.216 3.216 0 01.038-2.802c2.001.376 2.814-1.855 4.832-.833.193 1.352-.488 2.102-.595 3.246-2.662-.209-2.873 2.229-5.067 2.17zm3.643-.486c.848-1.066 3.14-.972 3.536.273-.064 1.415-3.861 1.804-3.536-.273zm2.395-9.815c2.176-.356 3.195 1.709 3.119 3.308l-.4.054c-1.623-.277-1.898-2.137-2.719-3.362zm2.113 8.096a.855.855 0 01-.382-.601.847.847 0 01.211-.679c.643-.053 1.223-.034 1.311.569.093.564-.539.629-1.14.711zm3.268-1.74a3.586 3.586 0 01-.243-1.829l1.009-.135c.584.651.45 2.021-.766 1.964zm.168-3.372c1.038-.785 1.52.681 2.728.38.032.244.065.487.1.731-1.208.725-2.329-.314-2.828-1.111zm2.902-4.483c-.769.2-1.032-.195-1.845.059-.054 2.202-2.75 2.002-4.353 1.328a4.677 4.677 0 013.422-2.132c.694-.549 1.937-1.825 3.165-.983.217.817-.263 1.153-.39 1.728h.001zm18.771-9.02c.983-.03 1.143.909 1.816 1.247.285 1.495-1.802 1.82-2.558.9a4.705 4.705 0 01.741-2.148h.001zm-2.444-1.35c1.32-.128 1.056 1.583-.436 1.361-.134-.644-.011-1.114.435-1.36h.001zm-4.674 5.093l.81-.108c.134.37-.075.5-.107.757-.318-.119-.803-.04-.704-.65h.001zm-9.938 5.793a1.747 1.747 0 011.621-.217c.415 1.484-1.532 1.362-1.622.217h.001zm.709 5.303c-.574-.691.138-1.142.614-1.572a2.79 2.79 0 011.741.701c.948-.842 1.332-.463 2.631-.352-.48 2.615-2.555.407-4.987 1.224l.001-.001zm6.121-.446a.73.73 0 01-.909-.623c.22-.186.498-.289.787-.291a.648.648 0 01.237.687.657.657 0 01-.116.228l.001-.001zm11.095-.178c-.628.249-.358-.566-.882-.439-.359.53.542.619.171 1.279-.585.318-.847.858-1.952.818-.268-1.069.482-1.44.971-1.989-.058-.144-.227-.157-.25-.34-1.194-.144-2.895.693-3.562-.454a.82.82 0 00.128-.576 8.414 8.414 0 002.556-.901c1.052.384 1.766 1.164 3.232 1.057.427.905-.363.973-.413 1.546l.001-.001zm-.488-3.656c-.119-.619-.85-1.223-.447-1.801-.82-.012-.749.59-1.57.578-.3.461-.343 1.095-.614 1.576-2.369.988-3.823-1.067-5.915.414a.874.874 0 01-1.085-.412 2.24 2.24 0 00-1.426 1.679c-1.17-.242-2.432-.371-2.339-2.102.441-.251.568-.718 1.343-.738-.447-.948.214-1.726 1.067-1.259.32.772-.6.689-.436 1.361.469.324.989.569 1.538.724 1.401-1.14 3.952-1.49 3.834-3.675 1.951-.394 3.224 1.301 4.753.11-.234-.613-.751-.89-.424-1.62l1.013-.134a3.907 3.907 0 01.819 3.056c.49.762 1.518.89 1.71 2.006-.432.685-1.105.318-1.822.238l.001-.001zm.007-12.288c-.019-.895 1.276-1.6 2.307-1.239.198 1.076-1.59 2.312-2.308 1.24h.001zm3.833 7.12a.74.74 0 01-.954-.989.74.74 0 01.953.99l.001-.001zm.014-9.123c.691.032 1.164.325 1.184 1.145-.843.182-1.6-.495-1.184-1.145zm1.546 10.034c.195-.695 1.58-.892 2.38-.689a1.242 1.242 0 01-.862 1.472 1.239 1.239 0 01-1.515-.784h-.003zm4.07-.358c-.5-.19-1.288-.033-1.336-.753a1.742 1.742 0 011.619-.216c.253.56-.081.718-.28.97h-.003zM167.356 88c.219-.754 1.775-.924 2.407-.505.823 2.13-2.214 1.791-2.404.505h-.003zm7.814 4.543c-.054-.57-.707-.436-.574-1.227.821-.54.844-1.631 2.232-1.785 1.357 2.176 1.19 5.156-3.081 4.692-.539-1.26.811-1.216 1.426-1.68h-.003zm-.857 10.538c-1.084.15-1.689-.265-1.816-1.245.658-.435 1.09-.057 1.846-.061.309.485.147.772-.028 1.306h-.002zm2.183-2.151c-.018-.331-.3-.354-.3-.706a.954.954 0 011.466.179c.042.47-.628.452-1.163.523l-.003.004zm5.989-10.667c.652-.062.947.3.956.99a1.443 1.443 0 01-1.035-.05 1.107 1.107 0 01.082-.94h-.003zm-1.777 2.101c.136.372-.075.5-.106.759-.361.005-.501-.254-.501-.677l.607-.082zm.7 11.448c-1.969.277-2.617-1.001-3.02-2.576.358-.473 1.292-.552 1.722-.973-.266-1.07.013-1.765 1.201-1.838 1.12 1.13-.963 3.12.23 4.813.801.676 2.215.631 2.52 1.901-1.212 1.201-2.286-.255-2.648-1.329l-.005.002zm.631-4.551c-.238-.494.219-.511.078-.944.8-.211 1.634-.26 2.452-.14.806 1.839-1.909 1.966-2.525 1.082l-.005.002zm3.529-9.033c1.008.077 1.201 1.12 1.861 1.611a2.141 2.141 0 01-.816 1.601 5.352 5.352 0 01-1.04-3.214l-.005.002zm.574 12.022c-.062-.984.656-1.434 1.853-1.551 1.637 1.166-.972 2.965-1.848 1.549l-.005.002zm5.522 2.802c-1.173-.257-1.848-2.461-1.047-3.21.476-.098.966-.1 1.442-.007-.384 1.259.088 2.155-.39 3.213l-.005.004zm-1.339-20.86c-.188-1.658 2.894-1.642 2.702.2-.765.523-2.408.512-2.702-.2zm3.208 5.528a.73.73 0 01-.905-.624c.283-.262.712-.69 1.19-.345.094.452-.242.611-.283.968h-.002zm-.439-3.292c-.354-1.154.906-1.62 1.878-1.367 1.224 1.222-1.093 2.482-1.876 1.367h-.002zm4.317 1.471a1.284 1.284 0 01-1.423.864 1.284 1.284 0 01-.552-.228c-.148-.877.748-1.036.338-2.093 1.491.579 2.98-.137 3.684 1.37-.516.506-1.351.027-2.045.087h-.002zm10.437 5.681c.06-.738 1.59-1.147 2.353-.872.755 1.736-2.138 2.557-2.351.872h-.002zm-3.783-2.101a1.736 1.736 0 012.387-2.18c-.054 1.163-.844 3.087-2.385 2.18h-.002zm2.467-3.122c-.049-1.636 1.626-.947 2.962-.952.355 2.174-2.088 1.046-2.958.952h-.004zm10.123 7.956c-1.832.716-3.689.858-5.34 1.644-1.401.668-2.329 2.787-3.902 1.64a2.849 2.849 0 011.835-3.225c.132.336.5.4.528.86.511-.368 1.606-.334 1.947-.819-.326-1-.533-2.033-.616-3.081 2.208-1.511 2.352.18 3.682 1.369.786.695 2.26.652 1.868 1.612h-.002zm-113.956 18.988c-1.487.646-2.982 1.26-4.482 1.854 1.388-.041 2.029.795 3.337.851.2.395-.174 1.476.574 1.225a2.33 2.33 0 011.246-1.469c.4.025.561.326 1.061.229.058-.568.544-.842.637-1.386a2.083 2.083 0 01-2.373-1.304zm132.309-40.426l.405-.055c-.017.161.1.163.226.157l.049.365c-.177-.009-.181.1-.177.21l-.405.054c.016-.16-.1-.16-.226-.156l-.048-.366c.174.011.18-.097.176-.209zM83.426 87.105l.405-.054c-.016.16.1.16.227.155l.049.367c-.177-.012-.181.1-.178.209l-.405.054c.017-.16-.1-.162-.227-.155l-.049-.367c.178.01.181-.097.178-.21zm132.016 24.82a1.768 1.768 0 00-.907-.624c-.151.242-.339 1.808.423 1.621.008-.441.66-.434.484-.997z" fill="#E27BF5"/><path d="M209.105 106.07a14.843 14.843 0 01-5.419 2.586c-.706 1.508-.077 3.935-3.202 3.778l.121.913c2.014-.586 2.97 1.085 5.076 1.001-.368-1.017-1.116-2.576-.715-3.814l1.417-.189c-.7-1.537 1.911-1.671 2.209-1.969-.226 1.121-1.007 1.856-.801 3.272a2.566 2.566 0 013.212-.616 1.786 1.786 0 00.768-1.965 5.812 5.812 0 01-2.666-2.997zm-8.318.926c.976.006 1.361-.393 2.202-.481.481.138.493.829 1.31.568 1.848-1.056 1.665-3.502 2.151-5.504-1.288-.113-2.424.495-3.334-.3-.222.48-.61.862-1.093 1.076.611 2.257.059 3.704-1.236 4.641zm38.841.956c.075-.644.196-1.282.363-1.909a2.552 2.552 0 00-1.546.764c.524.231.39 1.235 1.183 1.145zm-43.236-7.628a1.731 1.731 0 001.318-.92c-.609.187-1.424.234-1.318.92zm39.251 11.699c.09 1.022 1.501.494 2.525.409.152-1.445-1.97-1.008-2.525-.409zM232.56 95.12c-.058-.649.471-.894.412-1.544-.931-.166-1.251 1.57-.412 1.545zm3.912 12.325c-.666.094-1.44.115-1.343.736.18 1.048 1.989.275 1.343-.736zm-40.421-9.685c-.578-.023-1.088-.128-1.668-.149.185.645-.224 1.234-.111 2.248.6-.216.636.235 1.239.022-.424-1.123.964-.999.54-2.122zm-31.855 12.816c-1.382.212-2.148.848-1.756 2.282 2.153-.422 2.75.988 3.045 2.759.784.417 1.664.62 2.551.588-.725-2.672-3.807-2.711-3.84-5.629zm31.96-2.777a1.286 1.286 0 00.979 1.172c.129-.41.545-.623.461-1.177-.425-.118-1.043-.464-1.44.005zm-22.613 3.39c-2.528-.794-.379 3.136 0 0zm2.087-2.886c.839-.086 1.226-.487 2.202-.478-.114-.989-2.493-.344-2.202.478z" fill="#E27BF5"/><path d="M1.501 146.741A1.502 1.502 0 010 145.24a1.5 1.5 0 011.501-1.501h.145c24.049-.05 56.514-12.426 82.126-23.215l1.913-.809c.057-.024.115-.045.175-.062 11.078-3.15 20.171-6.046 27.966-12.165.093-.072.194-.133.301-.182.623-.288 1.249-.567 1.876-.845.043-.019.087-.036.131-.051 1.468-.493 2.94-.973 4.409-1.453a145.102 145.102 0 0016.919-6.313c.634-.3 1.264-.61 1.888-.93 5.084-6.705 12.308-8.019 19.307-9.29a51.15 51.15 0 009.606-2.378c.783-.537 1.533-1.1 2.233-1.69.15-.125.323-.22.51-.28 1.139-.36 2.258-.7 3.357-1.02 8.269-2.412 14.803-3.512 19.979-3.362 10.624.306 18.546 3.69 23.546 10.056 6.204 7.9 6.238 18.238 5.732 23.585 5.272-3.651 17.541-11.947 34.1-21.858l2.276-1.36a126.735 126.735 0 0125.693-13.508l2.356-1.722c.851-.622 1.714-1.244 2.589-1.866.054-.04.112-.075.173-.106a568.486 568.486 0 0126.988-13.249 84.896 84.896 0 0126.706-12.777 78.416 78.416 0 013.165-.786 72.336 72.336 0 0011.863-4.748c5.364-2.526 10.907-5.139 17.258-5.603a23.872 23.872 0 013.455-.013c.049 0 .1.009.145.017 4.834.687 9.754.447 14.498-.707a91.51 91.51 0 002.667-.61c10.629-5.804 20.497-7.33 29.336-4.527.938.063 1.851.126 2.761.221.667.07 1.33.157 1.99.26.43.067.864.141 1.293.215l.5.085c12.909.015 21.234 7.478 27.048 13.988.469.464.98 1 1.471 1.546 11.899 13.2 12.552 30.82 12.259 37.979 4.203-2.85 13.302-8.906 25.499-16.442l2.926-1.801a1.51 1.51 0 01.272-.13c10.543-3.803 19.985-10.266 28.008-16.028l2.419-1.751c.061-.045.126-.085.193-.12 6.15-3.175 12.008-6.804 17.682-10.32 14.53-9.006 28.254-17.506 46.417-18.959h.12c2.862 0 5.581-2.122 8.459-4.369a47.764 47.764 0 014.778-3.422c.094-.056.195-.102.3-.137a29.939 29.939 0 015.804-1.153c1.144-.148 2.224-.287 3.308-.512l3.344-1c14.574-4.311 27.744-6.756 39.144-7.267 1.013-.046 2.017-.077 3.069-.093 12.937-1.076 26.454-1.144 35.837 10.578a33.948 33.948 0 011.908 2 26.966 26.966 0 011.706 2.164c.086.12.154.252.2.391 4.332 12.927 5.018 27.945 1.984 43.43-.01.047-.022.1-.036.144a100.717 100.717 0 01-1.101 3.422c-3.347 8.248-7.421 16.16-11.654 24.216-.455.858-.906 1.709-1.379 2.59-2.158 11.626-8.805 22.023-19.243 30.092-.639.813-1.281 1.617-1.926 2.413a173.328 173.328 0 01-22.684 23.575 1.5 1.5 0 01-.961.349l-646.95.667h-.152v.008zm85.265-24.216l-1.833.774c-18.112 7.627-39.632 16.041-59.348 20.42l622.461-.641a171.606 171.606 0 0021.862-22.815c.674-.833 1.345-1.675 2.014-2.526.077-.099.166-.187.265-.263 9.993-7.678 16.325-17.566 18.312-28.595.028-.155.08-.304.155-.442.511-.954 1-1.867 1.482-2.782 4.193-7.986 8.231-15.824 11.496-23.866.342-1.01.694-2.091 1.02-3.17 2.902-14.866 2.269-29.248-1.826-41.614a24.36 24.36 0 00-1.391-1.748 30.438 30.438 0 00-1.802-1.884 1.728 1.728 0 01-.133-.146c-8.464-10.642-21.145-10.543-33.408-9.53-1.121.022-2.101.05-3.082.1-11.157.5-24.086 2.902-38.425 7.147l-3.403 1.015a1.132 1.132 0 01-.118.03c-1.22.257-2.431.413-3.602.564a28.19 28.19 0 00-5.081.973 47.197 47.197 0 00-4.334 3.13c-3.135 2.446-6.375 4.975-10.242 5.002-17.412 1.41-30.82 9.718-45.021 18.513-5.687 3.524-11.567 7.167-17.784 10.383l-2.337 1.693c-8.154 5.855-17.752 12.425-28.598 16.362a605.68 605.68 0 00-2.783 1.71c-16.926 10.46-27.839 18.044-27.947 18.119a1.504 1.504 0 01-2.209-.58 1.491 1.491 0 01-.138-.841c.029-.23 2.745-23.229-11.272-38.78a40.176 40.176 0 00-1.419-1.492c-8.099-9.073-15.804-13.065-24.989-13.052a1.345 1.345 0 01-.253-.02l-.633-.109c-.413-.07-.829-.143-1.247-.208a33.418 33.418 0 00-1.838-.24c-.932-.1-1.867-.16-2.81-.222a1.752 1.752 0 01-.386-.072c-8.112-2.631-17.304-1.171-27.318 4.34a1.454 1.454 0 01-.367.143c-.98.24-1.961.468-2.946.677a41.347 41.347 0 01-15.546.744 21.04 21.04 0 00-2.957.017c-5.792.424-10.846 2.802-16.198 5.326a74.562 74.562 0 01-12.421 4.944c-1.072.245-2.096.5-3.102.772a81.952 81.952 0 00-25.874 12.414 1.487 1.487 0 01-.244.141 563.855 563.855 0 00-24.184 11.784c-.905.467-1.805.934-2.701 1.401-.837.595-1.662 1.19-2.475 1.785l-2.518 1.85a1.462 1.462 0 01-.368.2 123.726 123.726 0 00-25.317 13.3l-2.341 1.401c-22.169 13.269-36.592 23.616-36.736 23.716a1.5 1.5 0 01-2.344-1.531c.031-.147 3.034-14.861-4.665-24.647-4.425-5.624-11.579-8.617-21.261-8.897-4.86-.14-11.089.921-19.053 3.244-.988.288-1.993.593-3.014.914a32.872 32.872 0 01-2.373 1.77c-.09.06-.185.11-.285.15a53.292 53.292 0 01-10.337 2.603c-6.814 1.238-13.249 2.41-17.636 8.397a1.512 1.512 0 01-.518.444c-.756.395-1.521.774-2.294 1.139a146.957 146.957 0 01-17.271 6.452 530.88 530.88 0 00-4.319 1.423c-.539.24-1.077.48-1.614.726-8.173 6.364-17.479 9.342-28.775 12.556l-.003.005z" fill="#22183B"/></g><defs><clipPath id="clip0"><path fill="#fff" d="M0 0h711v147H0z"/></clipPath></defs></svg>