<svg width="368" height="179" fill="none" xmlns="http://www.w3.org/2000/svg"><g clip-path="url(#clip0)" fill="#22183B"><path d="M297.226 54.408a2.204 2.204 0 01-.499-3.139 2.18 2.18 0 01.928-.706l59.341-23.774a2.214 2.214 0 011.69.02c.539.23.966.663 1.187 1.206a2.194 2.194 0 01-1.211 2.863L299.318 54.65c-.34.137-.71.186-1.075.144a2.225 2.225 0 01-1.017-.386z"/><path d="M338.966 70.62a2.203 2.203 0 01-.701-.803l-27.656-53.742a2.204 2.204 0 01-.14-1.68 2.186 2.186 0 011.092-1.28 2.207 2.207 0 011.683-.13 2.224 2.224 0 011.29 1.097l27.655 53.742c.225.438.297.939.205 1.42a2.182 2.182 0 01-.714 1.242c-.371.321-.839.51-1.331.534a2.219 2.219 0 01-1.383-.4zm-62.5 69.378a213.78 213.78 0 004.083-4.169 167.672 167.672 0 003.944-4.282 166.283 166.283 0 003.782-4.411 136.786 136.786 0 003.61-4.54c.021-.027.042-.053.064-.077l.035-.037c1.826-2 3.529-4.107 5.098-6.308a75.904 75.904 0 004.403-6.825c1.352-2.351 2.61-4.76 3.773-7.227.296-.613.574-1.236.855-1.856.287-.614.574-1.281.861-1.919.311-.643.667-1.282 1-1.923l1.026-1.86-.06.118c.895-1.927 1.79-3.857 2.622-5.815.832-1.958 1.633-3.93 2.396-5.918a200.497 200.497 0 004.16-12.1c.08-.259.258-.478.497-.612a1.082 1.082 0 011.432.354c.147.229.199.505.145.77a113.421 113.421 0 01-3.305 12.593 123.381 123.381 0 01-4.658 12.2l-.022.046-.039.073-.942 1.804c-.291.597-.6 1.175-.878 1.785-.267.633-.51 1.242-.797 1.893-.287.642-.568 1.287-.869 1.925-1.186 2.556-2.461 5.083-3.88 7.537a79.944 79.944 0 01-4.676 7.127 69.921 69.921 0 01-5.53 6.53l.096-.113a152.84 152.84 0 01-3.877 4.514c-1.321 1.48-2.7 2.909-4.093 4.319a116.637 116.637 0 01-4.304 4.106 110.075 110.075 0 01-4.52 3.862 1.084 1.084 0 01-1.47-.109 1.054 1.054 0 01-.277-.735c.007-.27.119-.528.312-.72h.003zM173.51 177.593c2.062.102 4.122.177 6.18.222 2.057.055 4.114.051 6.168.034 2.053-.017 4.106-.097 6.154-.185 2.047-.089 4.093-.239 6.133-.413a1.25 1.25 0 01.105-.005l.055.001a71.257 71.257 0 008.579-.509 80.315 80.315 0 008.49-1.421c2.807-.62 5.592-1.353 8.356-2.202.692-.206 1.378-.433 2.065-.655.685-.213 1.413-.465 2.118-.695.726-.216 1.481-.393 2.22-.59l2.191-.524-.136.038c2.149-.674 4.3-1.35 6.428-2.096a194.685 194.685 0 006.348-2.346 213.24 213.24 0 0012.453-5.375 1.12 1.12 0 01.834-.049 1.14 1.14 0 01.744 1.374 1.114 1.114 0 01-.501.664 120.512 120.512 0 01-12.231 6.397 130.66 130.66 0 01-12.885 5.056l-.053.017-.084.022-2.086.549c-.676.198-1.35.368-2.026.586-.687.242-1.338.487-2.052.726-.709.234-1.415.475-2.129.694-2.85.895-5.739 1.699-8.675 2.34a84.676 84.676 0 01-8.922 1.422 74.051 74.051 0 01-9.061.33l.157-.006c-2.1.102-4.201.164-6.303.185-2.101.021-4.204-.039-6.303-.124a124.573 124.573 0 01-6.287-.44c-2.09-.205-4.173-.467-6.25-.785a1.144 1.144 0 01-.962-1.229 1.113 1.113 0 011.167-1.01l.001.002zm-96.681 9.289a183.256 183.256 0 014.59-2.013 141.619 141.619 0 014.638-1.866c1.553-.6 3.123-1.153 4.691-1.697a116.73 116.73 0 014.742-1.519c.027-.009.055-.018.08-.028l.042-.016a57.487 57.487 0 016.612-2.177 64.833 64.833 0 016.811-1.458 86.244 86.244 0 016.937-.828c.581-.05 1.165-.083 1.747-.12.579-.043 1.2-.07 1.798-.106.61-.054 1.231-.145 1.845-.217l1.803-.257-.113.012c1.815-.131 3.633-.262 5.454-.332 1.821-.071 3.644-.112 5.467-.119 3.647-.006 7.297.123 10.949.352a.913.913 0 00.643-.212.948.948 0 00.328-.603.923.923 0 00-.169-.659.888.888 0 00-.571-.354 96.306 96.306 0 00-11.079-1.191 104.798 104.798 0 00-11.182.018l-.044.004-.07.008-1.732.207c-.567.052-1.124.124-1.697.161-.588.022-1.15.031-1.758.063-.602.035-1.204.063-1.806.111-2.408.173-4.82.426-7.218.818-2.403.4-4.786.93-7.137 1.586a59.805 59.805 0 00-6.923 2.456l.12-.043c-1.612.55-3.213 1.13-4.803 1.742a100.6 100.6 0 00-4.713 1.975c-1.557.691-3.09 1.441-4.609 2.21a94.693 94.693 0 00-4.48 2.46.936.936 0 00-.367 1.218.889.889 0 001.173.416v-.002z"/></g><defs><clipPath id="clip0"><path fill="#fff" transform="translate(-7)" d="M0 0h375v179H0z"/></clipPath></defs></svg>