<svg width="337" height="530" viewBox="0 0 337 530" fill="none" xmlns="http://www.w3.org/2000/svg">
<path d="M228.556 193.439C189.192 107.392 87.6908 69.4713 1.84648 108.742C-83.9979 148.013 -121.678 249.604 -82.3137 335.652C-42.9498 421.699 58.5515 459.62 144.396 420.349C230.24 381.078 267.92 279.487 228.556 193.439Z" fill="#FFCE46"/>
<path d="M181.347 133.628L134.336 192.558C133.764 193.275 133.255 193.915 132.764 194.546C126.234 206.204 117.08 217.673 104.787 229.598L45.8659 303.458C43.7087 306.352 41.4608 309.054 39.2862 311.665C36.8418 314.6 34.5331 317.375 32.311 320.45L24.406 330.361C23.8938 331.003 23.3836 331.641 22.8819 332.26L22.7083 332.476L22.4872 332.64C15.5915 337.771 11.0463 345.219 6.65002 352.421C2.31354 359.527 -2.16995 366.874 -8.95504 372.234C-9.66166 373.084 -10.3257 373.907 -10.9742 374.712L-23.1241 389.943C-23.5759 390.509 -24.0063 391.05 -24.4119 391.567C-24.854 393.255 -26.1829 394.384 -27.1851 395.235C-27.6071 395.593 -28.3045 396.186 -28.4207 396.463C-28.4175 396.47 -28.4033 396.508 -28.3718 396.573C-28.3649 396.588 -28.3574 396.605 -28.3478 396.623L-32.2978 398.6C-33.988 395.197 -31.426 393.031 -30.047 391.859C-29.5479 391.433 -28.7105 390.722 -28.6793 390.407L-28.6184 389.769L-28.2275 389.264C-27.7195 388.609 -27.165 387.912 -26.5788 387.177L-14.4217 371.937C-13.7046 371.048 -12.9797 370.147 -12.1982 369.212L-11.8608 368.887C-5.60416 364.008 -1.48251 357.255 2.87994 350.108C7.44819 342.621 12.1719 334.882 19.6222 329.254C20.0607 328.711 20.5053 328.155 20.9524 327.594L28.7975 317.764C31.0415 314.654 33.5074 311.692 35.8928 308.827C38.0287 306.261 40.239 303.605 42.3693 300.748L101.611 226.512C113.693 214.807 122.649 203.594 128.988 192.235L129.172 191.958C129.705 191.269 130.258 190.574 130.81 189.884L177.894 130.861L181.347 133.628Z" fill="white"/>
<path d="M243.225 245.18L243.716 249.579L182.049 256.36L181.68 256.272C167.252 252.832 153.417 254.364 136.821 261.236L136.536 261.354L132.848 261.779L35.0009 272.548C33.4505 272.72 31.903 272.889 30.377 273.031L29.8798 273.077L29.4117 272.904C16.0192 267.971 5.02438 271.699 -7.70584 276.013C-9.43202 276.599 -11.179 277.191 -12.9587 277.77L-13.3803 277.865C-14.3274 277.977 -15.246 278.078 -16.1572 278.176L-16.7683 278.243L-17.3266 277.984C-17.791 277.767 -18.3361 277.978 -19.4676 278.51C-20.8442 279.156 -23.1525 280.238 -25.3515 278.464C-34.9893 270.684 -43.7985 274.459 -53.9981 278.83C-58.7458 280.865 -63.6559 282.969 -68.7529 283.799C-70.1346 284.069 -71.4324 284.241 -72.6363 284.393L-96.1808 286.986L-96.6712 282.586L-73.1612 279.998C-72.0193 279.854 -70.8542 279.7 -69.5369 279.442C-64.9032 278.686 -60.2459 276.69 -55.7419 274.76C-45.1972 270.242 -34.2916 265.567 -22.5829 275.018C-22.4346 275.011 -21.7805 274.703 -21.3483 274.5C-20.0826 273.905 -18.2286 273.037 -16.1112 273.719C-15.4576 273.646 -14.7988 273.573 -14.1261 273.493C-12.4342 272.94 -10.7705 272.378 -9.12821 271.82C3.69283 267.474 15.8124 263.366 30.4543 268.577C31.7952 268.448 33.1523 268.299 34.5117 268.148L135.415 257.029C152.655 249.936 167.153 248.344 182.323 251.879L184.708 251.619L243.225 245.18Z" fill="white"/>
<path d="M207.308 370.947L204.552 374.403L25.968 231.382C10.2198 220.486 -5.38697 207.987 -20.4153 194.235L-34.3542 183.104C-40.6576 178.81 -46.0138 174.193 -51.1988 169.725C-55.6133 165.92 -59.7822 162.326 -64.4366 158.976L-61.8614 155.384C-57.0508 158.849 -52.6113 162.675 -48.3196 166.374C-43.2141 170.775 -37.933 175.327 -31.8098 179.491L-31.6793 179.586L-17.4934 190.922C-2.575 204.578 12.9121 216.981 28.537 227.786L28.6625 227.879L31.3346 230.018L207.308 370.947Z" fill="white"/>
<path d="M56.0312 93.5879L56.5467 98.1253C56.6313 98.8749 56.7228 99.7043 56.8071 100.579L56.8165 100.726C57.2018 113.782 58.9831 125.976 60.7064 137.767C61.2548 141.517 61.7987 145.245 62.2957 148.974L64.7079 170.172C64.803 170.982 64.8977 171.787 64.9946 172.592C69.5683 184.232 69.5987 195.42 69.6305 207.258C69.6361 209.505 69.6431 211.777 69.6804 214.081L82.8938 330.708C83.4728 337.705 84.6841 344.346 85.8548 350.77C87.7879 361.374 89.6148 371.397 88.7463 382.369L94.776 435.594L90.385 436.085L84.3074 382.431L84.3255 382.215C85.187 371.74 83.4001 361.937 81.5081 351.558C80.3181 345.03 79.0876 338.279 78.4969 331.134L65.2635 214.255C65.2241 211.894 65.2173 209.565 65.2107 207.263C65.1799 195.768 65.1509 184.911 60.7834 173.958L60.678 173.691L60.6419 173.406C60.5312 172.498 60.4256 171.595 60.3181 170.694L57.9097 149.519C57.4201 145.843 56.8773 142.133 56.3317 138.402C54.5936 126.508 52.7969 114.209 52.3992 100.926C52.3194 100.104 52.233 99.3259 52.1528 98.6194L51.6378 94.0832L56.0312 93.5879Z" fill="white"/>
<path d="M37.0836 286.032C35.929 283.663 27.105 285.588 17.3747 290.332C7.64433 295.075 0.692317 300.841 1.84692 303.21C3.00151 305.58 11.8255 303.655 21.5559 298.911C31.2862 294.167 38.2382 288.401 37.0836 286.032Z" fill="white"/>
<path d="M39.7571 284.853C42.6864 291.253 27.5683 299.235 22.8442 301.537C18.0979 303.851 2.36459 310.903 -0.760902 304.488C-0.776973 304.456 -0.791878 304.423 -0.806255 304.392C-3.73494 297.99 11.3831 290.011 16.1072 287.709C20.8534 285.394 36.5846 278.341 39.7117 284.757C39.7278 284.789 39.7422 284.82 39.7571 284.853ZM5.90978 301.235C8.67139 300.884 13.7154 299.49 20.2866 296.287C26.8585 293.082 31.0634 289.97 33.0411 288.01C30.2789 288.36 25.2349 289.754 18.6642 292.958C12.0923 296.163 7.88633 299.275 5.90978 301.235Z" fill="white"/>
<path d="M60.2969 303.938C58.6219 303.477 55.1354 310.897 52.5095 320.511C49.8836 330.126 49.1127 338.294 50.7876 338.756C52.4625 339.218 55.949 331.798 58.5749 322.183C61.2009 312.568 61.9718 304.4 60.2969 303.938Z" fill="white"/>
<path d="M63.4217 303.254C64.353 305.29 64.0772 308.217 63.9178 309.913C63.5775 313.519 62.668 318.152 61.3548 322.959C55.8391 343.151 51.463 341.944 50.0248 341.548C46.4303 340.557 46.9235 335.315 47.1615 332.796C47.5019 329.19 48.4119 324.558 49.7239 319.752C51.0353 314.948 52.6052 310.497 54.1453 307.22C55.2217 304.932 57.4578 300.169 61.054 301.16C62.2304 301.485 62.9691 302.265 63.4217 303.254ZM53.6802 328.164C54.3699 326.24 55.0883 323.988 55.7897 321.424C56.4895 318.859 57.0159 316.553 57.3997 314.543C56.7089 316.468 55.9894 318.72 55.2884 321.286C54.587 323.85 54.0634 326.156 53.6802 328.164Z" fill="white"/>
<path d="M37.7936 198.385C36.3061 198.996 38.1083 206.812 41.8189 215.844C45.5294 224.875 49.7432 231.701 51.2306 231.09C52.718 230.48 50.9158 222.663 47.2053 213.632C43.4948 204.6 39.281 197.774 37.7936 198.385Z" fill="white"/>
<path d="M47.3203 209.024C47.8874 210.263 48.4487 211.555 48.993 212.88C50.827 217.343 52.2682 221.672 53.0514 225.069C53.856 228.56 54.2808 231.919 51.9656 232.869C48.99 234.091 44.9683 228.605 40.0257 216.561C38.1912 212.096 36.7516 207.768 35.9685 204.371C35.1632 200.882 34.7384 197.522 37.0543 196.571C39.3685 195.62 41.428 198.308 43.3103 201.357C44.5966 203.444 45.9768 206.087 47.3203 209.024ZM49.4561 226.766C48.8994 224.064 47.6587 219.823 45.4105 214.35C43.1662 208.879 41.0642 204.99 39.5608 202.677C40.1187 205.379 41.3588 209.618 43.6053 215.091C45.8514 220.559 47.9533 224.454 49.4561 226.766Z" fill="white"/>
<path d="M96.2653 188.223C94.7279 187.746 91.1555 194.917 88.2862 204.24C85.4169 213.562 84.3371 221.507 85.8745 221.984C87.4119 222.461 90.9843 215.29 93.8536 205.967C96.723 196.645 97.8027 188.7 96.2653 188.223Z" fill="white"/>
<path d="M98.3512 187.811C99.5935 190.527 98.7115 196.804 95.7125 206.551C91.888 218.979 88.3883 224.798 85.3133 223.844C82.2346 222.885 82.6191 216.101 86.4436 203.673C87.8621 199.066 89.4985 194.813 91.0498 191.696C92.6451 188.494 94.4507 185.636 96.8433 186.378C97.5074 186.587 98.0099 187.065 98.3512 187.811ZM87.2519 217.544C88.5379 215.109 90.2724 211.051 92.0107 205.403C93.7501 199.754 94.5974 195.42 94.9041 192.68C93.6181 195.115 91.8825 199.174 90.1448 204.823C88.4065 210.472 87.5586 214.804 87.2519 217.544Z" fill="white"/>
<path d="M129.679 278.554C120.491 275.285 112.608 273.866 112.072 275.384C111.536 276.902 118.549 280.783 127.737 284.052C136.925 287.321 144.808 288.74 145.344 287.222C145.88 285.704 138.866 281.823 129.679 278.554Z" fill="white"/>
<path d="M147.078 285.925C147.359 286.538 147.419 287.183 147.177 287.864C146.344 290.226 142.972 289.965 139.453 289.331C136.026 288.714 131.638 287.484 127.099 285.868C114.851 281.51 109.178 277.767 110.253 274.723C111.326 271.686 118.081 272.357 130.33 276.715C134.872 278.332 139.051 280.15 142.099 281.837C144.331 283.071 146.384 284.407 147.078 285.925ZM116.464 276.932C118.845 278.323 122.825 280.233 128.39 282.214C133.958 284.196 138.248 285.229 140.97 285.653C138.59 284.262 134.61 282.352 129.043 280.371C123.475 278.391 119.186 277.358 116.464 276.932Z" fill="white"/>
<path d="M21.7426 247.104C13.5824 243.952 6.52424 242.551 5.97779 243.976C5.43134 245.4 11.6035 249.111 19.7637 252.263C27.9239 255.415 34.982 256.816 35.5285 255.391C36.0749 253.967 29.9028 250.256 21.7426 247.104Z" fill="white"/>
<path d="M37.8411 253.957C38.356 255.082 38.0573 255.857 37.8885 256.301C37.4191 257.525 35.9887 261.247 18.8514 254.626C1.7084 248.005 3.14002 244.283 3.60709 243.061C4.78027 240.001 9.30975 240.899 11.4876 241.332C14.603 241.95 18.5657 243.16 22.6437 244.734C33.5518 248.948 36.9407 251.988 37.8411 253.957ZM14.9684 247.449C16.587 248.224 18.4897 249.053 20.6658 249.893C22.8413 250.735 24.8061 251.398 26.5244 251.913C24.9075 251.138 23.006 250.309 20.8298 249.469C18.652 248.628 16.6878 247.963 14.9684 247.449Z" fill="white"/>
<path d="M105.104 323.66C100.296 314.825 95.1861 308.324 93.691 309.138C92.1958 309.953 94.8817 317.775 99.6901 326.609C104.499 335.444 109.609 341.945 111.104 341.131C112.599 340.316 109.913 332.494 105.104 323.66Z" fill="white"/>
<path d="M110.208 329.478C113.022 335.628 114.7 341.393 112.036 342.844C109.789 344.069 107.386 341.573 105.124 338.697C102.904 335.871 100.372 331.91 97.9971 327.545C93.5977 319.472 89.1281 309.428 92.7702 307.444C95.0169 306.219 97.4192 308.714 99.6822 311.591C101.902 314.417 104.434 318.377 106.809 322.744C107.99 324.911 109.176 327.221 110.208 329.478ZM109.084 337.421C108.295 334.746 106.527 330.327 103.411 324.596C100.291 318.862 97.5396 314.984 95.7215 312.867C96.5107 315.544 98.2781 319.963 101.395 325.693C104.516 331.427 107.267 335.305 109.084 337.421Z" fill="white"/>
<path d="M136.056 224.848C135.093 223.55 128.295 226.969 120.873 232.486C113.451 238.002 108.215 243.526 109.178 244.825C110.141 246.123 116.939 242.704 124.361 237.188C131.783 231.671 137.019 226.147 136.056 224.848Z" fill="white"/>
<path d="M137.89 224.163C138.782 226.112 136.835 228.578 134.758 230.77C132.474 233.179 129.193 236.01 125.515 238.742C121.838 241.476 118.181 243.802 115.218 245.293C112.3 246.761 109.116 247.991 107.624 245.978C105.212 242.756 112.877 236.01 119.717 230.925C123.394 228.192 127.05 225.867 130.014 224.375C132.932 222.908 136.116 221.678 137.608 223.691C137.724 223.845 137.817 224.002 137.89 224.163ZM112.708 242.198C115.058 241.094 118.687 238.983 123.205 235.626C127.723 232.267 130.79 229.4 132.527 227.467C130.177 228.572 126.548 230.682 122.029 234.04C117.511 237.398 114.445 240.267 112.708 242.198Z" fill="white"/>
<path d="M91.4998 257.934C86.8727 247.819 74.9414 243.362 64.8506 247.978C54.7598 252.594 50.3306 264.536 54.9578 274.651C59.5849 284.765 71.5162 289.223 81.607 284.606C91.6978 279.99 96.127 268.049 91.4998 257.934Z" fill="#FFCE46"/>
<path d="M250.398 174.743C252.601 179.557 254.354 184.538 256.171 189.697C258.257 195.622 260.412 201.735 263.381 207.752L263.441 207.873L263.485 208.001C264.047 209.604 264.505 211.179 264.881 212.508C269.233 228.555 271.576 245.105 271.852 261.718C271.88 263.315 271.883 264.907 271.863 266.479C271.81 268.019 271.916 269.706 272.028 271.489C272.219 274.512 272.417 277.637 271.933 280.669L271.89 280.943L271.781 281.199C265.118 296.624 263.457 311.444 261.697 327.136L261.628 327.603C261.47 328.249 261.297 328.866 261.122 329.487L260.89 330.299C255.754 345.074 248.845 359.253 240.353 372.443C239.887 373.168 239.415 373.892 238.915 374.596L238.69 374.867C233.263 380.406 228.297 386.422 223.041 392.792C219.874 396.63 216.599 400.598 213.239 404.417C212.26 405.53 211.273 406.634 210.271 407.723L210.144 407.851L206.978 410.789C194.597 422.289 181.794 434.181 166.95 441.131C165.702 441.82 164.488 442.47 163.263 443.1C156.64 446.516 150.336 448.996 143.996 450.679C142.57 451.22 141.139 451.744 139.72 452.237L139.326 452.334C133.347 453.24 127.388 454.331 121.079 455.487C107.579 457.959 93.6214 460.514 79.679 461.083L75.0667 461.064C72.9822 461.053 70.8995 461.056 68.8145 461.057C54.4566 461.064 39.6075 461.072 25.2413 457.164C23.8667 456.765 22.6316 456.383 21.3899 455.992C12.3078 453.151 0.368111 449.285 -11.4315 444.568C-12.9345 443.876 -14.3328 443.195 -15.815 442.442C-22.0506 439.156 -27.6891 435.082 -33.14 431.141C-39.7311 426.378 -45.9556 421.879 -53.1754 418.603L-53.6085 418.344C-54.5303 417.636 -55.4194 416.844 -56.3283 415.922C-57.1146 415.115 -57.8355 414.285 -58.4818 413.444L-60.1869 411.96C-61.4112 410.849 -62.5837 409.763 -63.7203 408.678L-63.8776 408.512C-75.6773 394.663 -89.2235 378.423 -100.668 360.911L-100.753 360.771C-101.494 359.431 -102.218 358.083 -102.923 356.729C-110.64 341.972 -116.489 326.237 -120.313 309.968C-120.679 308.364 -121.026 306.77 -121.351 305.135C-124.632 284.211 -125.824 265.656 -125.015 248.322C-124.885 246.656 -124.74 245.064 -124.573 243.475C-123.467 232.776 -121.476 222.099 -118.656 211.746C-118.222 210.219 -117.781 208.715 -117.282 207.138C-113.097 193.872 -107.624 182.573 -101.832 170.611C-100.821 168.523 -99.8007 166.419 -98.7811 164.286L-98.695 164.124C-97.8937 162.754 -97.0723 161.381 -96.2312 160.018C-92.0059 153.157 -87.2991 146.462 -82.2412 140.122C-76.2284 132.586 -69.6359 125.442 -62.6467 118.891C-61.5079 117.823 -60.3577 116.77 -59.1978 115.736C-46.9837 103.402 -36.1408 95.6121 -25.0951 91.2404C-23.7136 90.4691 -22.3862 89.7393 -21.056 89.0281C-14.3479 85.4301 -7.35984 82.1897 -0.286718 79.3959C1.12819 78.836 2.54706 78.2938 3.95596 77.776L4.41498 77.6068L4.90295 77.6482C17.031 78.6721 27.2887 75.2056 38.1501 71.5361C44.1559 69.5065 50.364 67.4097 56.8822 66.1564L57.2425 66.1182L61.2053 66.0199C79.2711 65.6055 96.8412 65.5714 113.224 69.6276C114.685 69.9206 116.231 70.255 117.773 70.6081C122.383 71.6789 127.002 72.9271 131.512 74.3224C133.076 74.8075 134.637 75.3112 136.221 75.8462C147.94 79.0615 159.002 83.9756 169.917 90.8329C170.548 91.1834 171.272 91.5939 171.993 92.0128C180.713 97.0504 189.154 102.823 197.078 109.168C215.713 124.093 231.333 141.955 243.505 162.256C244.295 163.575 245.071 164.903 245.828 166.238C247.585 169.012 249.074 171.847 250.398 174.743ZM258.186 207.108C255.727 201.733 253.839 196.372 252.005 191.163C249.181 183.143 246.513 175.57 242.041 168.508C241.245 167.112 240.488 165.815 239.715 164.525C227.817 144.677 212.544 127.213 194.32 112.618C186.57 106.412 178.316 100.767 169.786 95.8402C169.08 95.4314 168.374 95.0296 167.665 94.6317C157.029 87.9521 146.354 83.2092 134.938 80.0734C133.265 79.5141 131.739 79.0212 130.212 78.5461C125.805 77.1836 121.287 75.9637 116.787 74.9186C115.288 74.5767 113.779 74.2494 112.262 73.9412C96.3166 69.9962 79.0694 70.036 61.3154 70.4414L57.5448 70.5363C51.3834 71.7376 45.3771 73.766 39.5684 75.7293C28.8961 79.3363 17.863 83.0632 5.0327 82.0974C3.80661 82.5513 2.57242 83.0244 1.34179 83.5114C-5.57431 86.2431 -12.4068 89.4124 -18.9664 92.9298C-20.3153 93.6524 -21.6607 94.3918 -23.0638 95.1772L-23.1943 95.251L-23.3328 95.3044C-33.8503 99.4402 -44.262 106.938 -56.1024 118.901L-56.2028 118.995C-57.3527 120.021 -58.4935 121.066 -59.6244 122.124C-66.4579 128.53 -72.9055 135.515 -78.7859 142.887C-83.7327 149.088 -88.3368 155.634 -92.469 162.345C-93.2769 163.655 -94.065 164.972 -94.8358 166.286C-95.8461 168.396 -96.855 170.479 -97.8558 172.546C-103.578 184.359 -108.981 195.517 -113.069 208.477C-113.553 210.01 -113.984 211.472 -114.398 212.936C-117.149 223.036 -119.094 233.474 -120.178 243.937C-120.34 245.493 -120.482 247.048 -120.605 248.605C-121.397 265.566 -120.219 283.827 -117.001 304.364C-116.7 305.867 -116.364 307.422 -116.008 308.972C-112.273 324.865 -106.554 340.245 -99.0083 354.682C-98.3294 355.982 -97.6349 357.273 -96.9247 358.558C-85.6608 375.789 -72.2724 391.847 -60.5943 405.553C-59.5092 406.587 -58.391 407.622 -57.2599 408.649L-55.0986 410.592C-54.5307 411.349 -53.8842 412.099 -53.178 412.823C-52.4859 413.526 -51.8085 414.138 -51.1185 414.682C-43.5959 418.132 -36.9696 422.92 -30.5604 427.553C-25.2333 431.403 -19.7232 435.384 -13.7926 438.51C-12.3875 439.224 -11.0381 439.881 -9.69278 440.504C1.85872 445.118 13.6932 448.95 22.7012 451.768C23.9186 452.151 25.1254 452.524 26.4292 452.903C40.1887 456.646 54.7365 456.639 68.8075 456.63C70.901 456.63 72.9911 456.628 75.0774 456.639L79.5953 456.658C93.1261 456.104 106.93 453.576 120.279 451.132C126.276 450.034 132.474 448.899 138.458 447.987C139.811 447.515 141.174 447.015 142.533 446.499L142.755 446.427C148.819 444.827 154.866 442.45 161.24 439.163C162.448 438.541 163.646 437.9 164.878 437.218L165.011 437.151C179.257 430.497 191.822 418.826 203.974 407.541L207.079 404.659C208.039 403.613 208.988 402.554 209.926 401.487C213.24 397.722 216.492 393.781 219.638 389.969C224.684 383.855 229.899 377.534 235.412 371.891C235.836 371.285 236.239 370.664 236.642 370.04C244.932 357.162 251.679 343.323 256.698 328.901L256.873 328.277C257.021 327.751 257.17 327.225 257.305 326.679L257.311 326.634C259.098 310.693 260.785 295.632 267.616 279.701C267.97 277.221 267.793 274.447 267.624 271.761C267.503 269.864 267.39 268.073 267.45 266.364C267.468 264.886 267.464 263.336 267.438 261.783C267.17 245.537 264.878 229.354 260.627 213.682C260.269 212.413 259.863 211.024 259.365 209.584C258.955 208.758 258.563 207.933 258.186 207.108Z" fill="white"/>
<path d="M230.572 192.326C238.166 208.925 243.148 226.806 245.242 245.468C250.413 291.522 237.37 336.808 208.516 372.976C203.341 379.464 197.674 385.616 191.669 391.264C190.477 392.387 189.272 393.488 188.059 394.564L187.775 394.778C182.448 398.144 177.291 401.743 172.303 405.224C170.715 406.332 169.132 407.438 167.55 408.532C166.526 409.24 165.336 410.056 164.159 410.787L163.656 411.1L163.063 411.118C151.695 411.464 143.711 417.361 135.256 423.604C132.936 425.318 130.536 427.09 128.065 428.739L127.883 428.86L127.681 428.943C126.449 429.45 125.262 429.903 124.054 430.364L122.793 430.84C107.48 435.388 91.6108 437.802 75.6241 438.012C74.1056 438.033 72.5901 438.032 71.1315 438.005L70.9336 437.993C69.4823 437.835 68.0394 437.698 66.6274 437.577L66.48 437.559C52.7281 435.441 39.7493 432.4 26.0081 429.183C23.1534 428.514 20.2861 427.842 17.4026 427.178L17.1948 427.119C15.9201 426.69 14.6722 426.265 13.4215 425.836C5.90653 423.262 0.119831 421.178 -5.34223 419.08L-5.55569 418.985C-7.00958 418.241 -8.44619 417.476 -9.87642 416.692C-11.2982 415.911 -12.7106 415.107 -14.1149 414.282C-14.833 413.86 -15.547 413.435 -16.2573 413.003C-21.803 409.549 -26.7729 405.312 -31.5794 401.215C-36.447 397.067 -41.0446 393.147 -45.9435 390.232L-46.3215 389.949C-46.9506 389.362 -47.5643 388.776 -48.1743 388.182C-75.6758 361.175 -93.5839 325.187 -98.6074 286.837C-103.62 248.584 -95.6583 209.331 -76.1865 176.309C-75.3673 174.919 -74.5244 173.535 -73.6618 172.161C-72.4834 170.458 -71.43 168.868 -70.3833 167.291C-68.8054 164.911 -67.1721 162.45 -65.3751 159.999C-64.3772 158.681 -63.3444 157.366 -62.2847 156.063L-62.2835 156.063C-61.2108 154.745 -60.1243 153.446 -59.0296 152.159C-57.9338 150.87 -56.823 149.596 -55.6986 148.343C-37.5037 128.068 -15.4499 112.783 9.8528 102.913C11.29 102.353 12.7346 101.811 14.1842 101.29L14.5527 101.194C17.7189 100.643 20.6808 99.5234 23.8175 98.3376C27.7758 96.8421 31.8668 95.2958 36.4854 94.9241C37.937 94.6133 39.3926 94.3204 40.8523 94.0454C52.9085 91.7845 65.2333 90.8012 77.4827 91.1235C79.0875 91.1692 80.6842 91.2368 82.2915 91.3306L82.5363 91.3594C103.252 94.8958 123.444 99.7247 142.553 105.712L142.785 105.8C144.281 106.46 145.768 107.144 147.247 107.851C159.255 113.577 170.659 120.739 181.143 129.135C202.653 146.36 219.424 167.96 230.572 192.326ZM185.259 391.132C186.395 390.121 187.523 389.088 188.641 388.036C194.494 382.531 200.019 376.534 205.062 370.211C263.107 297.451 251.138 190.855 178.387 132.589C168.17 124.404 157.055 117.426 145.352 111.844C143.948 111.173 142.538 110.524 141.122 109.897C122.273 103.998 102.358 99.2347 81.9218 95.7408C80.3972 95.6528 78.8838 95.5893 77.3686 95.5463C65.4345 95.2318 53.4233 96.1912 41.6725 98.3955C40.2025 98.6724 38.7365 98.9672 37.2739 99.2816L36.974 99.3259C32.9278 99.6257 29.2619 101.011 25.3828 102.478C22.2496 103.662 19.011 104.886 15.5076 105.519C14.1528 106.008 12.8032 106.514 11.4604 107.038C-13.1923 116.653 -34.683 131.548 -52.411 151.303C-53.5088 152.528 -54.5945 153.771 -55.666 155.033C-56.7421 156.296 -57.8078 157.571 -58.8592 158.864C-59.8884 160.126 -60.8877 161.401 -61.8342 162.65C-63.5491 164.988 -65.0812 167.3 -66.7037 169.745C-67.7649 171.345 -68.8362 172.96 -69.9767 174.605C-70.7639 175.862 -71.5839 177.21 -72.3836 178.565C-91.3553 210.741 -99.114 248.992 -94.2304 286.269C-89.3312 323.644 -71.8832 358.712 -45.095 385.017C-44.5691 385.528 -44.0341 386.041 -43.4871 386.552C-38.3466 389.642 -33.6678 393.629 -28.7207 397.846C-24.0382 401.839 -19.1938 405.966 -13.9506 409.232C-13.2783 409.64 -12.5823 410.056 -11.8844 410.467C-10.5159 411.27 -9.13995 412.052 -7.75526 412.814C-6.39747 413.559 -5.0333 414.285 -3.65418 414.991C1.72213 417.056 7.43546 419.111 14.8458 421.65C16.0564 422.065 17.2631 422.477 18.4926 422.89C21.3459 423.55 24.1809 424.212 27.0055 424.874C40.6372 428.067 53.5145 431.082 67.0723 433.175C68.4598 433.295 69.8753 433.43 71.3021 433.583C72.6854 433.608 74.1191 433.608 75.5564 433.588C91.109 433.383 106.548 431.04 121.446 426.623L122.472 426.231C123.579 425.809 124.667 425.393 125.79 424.936C128.112 423.377 130.406 421.683 132.626 420.043C141.115 413.775 149.888 407.296 162.311 406.72C163.248 406.121 164.199 405.469 165.033 404.89C166.611 403.8 168.189 402.701 169.77 401.596C174.752 398.118 179.901 394.523 185.259 391.132Z" fill="white"/>
<path d="M93.3108 256.837C96.7123 264.273 95.9141 273.311 90.4879 280.114C82.8146 289.73 68.7491 291.289 59.1332 283.588C49.519 275.888 47.9348 261.798 55.6082 252.178C59.3255 247.519 64.6331 244.593 70.5555 243.937C76.4774 243.28 82.3035 244.974 86.9617 248.705C89.7745 250.958 91.9034 253.761 93.3108 256.837ZM56.783 273.606C57.9347 276.124 59.6673 278.355 61.8895 280.134C69.6005 286.31 80.8818 285.06 87.0332 277.347C90.014 273.611 91.3611 268.933 90.8267 264.177C90.2922 259.42 87.9401 255.15 84.2048 252.16C76.4938 245.984 65.2148 247.233 59.0623 254.946C56.0815 258.683 54.7343 263.36 55.2676 268.117C55.484 270.045 55.9986 271.892 56.783 273.606Z" fill="white"/>
</svg>
