<svg width="337" height="530" fill="none" xmlns="http://www.w3.org/2000/svg"><path d="M228.556 193.439C189.192 107.392 87.691 69.471 1.846 108.742c-85.844 39.271-123.524 140.862-84.16 226.91 39.364 86.047 140.865 123.968 226.71 84.697 85.844-39.271 123.524-140.862 84.16-226.91z" fill="#FFCE46"/><path d="M181.347 133.628l-47.011 58.93c-.572.717-1.081 1.357-1.572 1.988-6.53 11.658-15.684 23.127-27.977 35.052l-58.921 73.86c-2.157 2.894-4.405 5.596-6.58 8.207-2.444 2.935-4.753 5.71-6.975 8.785l-7.905 9.911c-.512.642-1.022 1.28-1.524 1.899l-.174.216-.22.164c-6.896 5.131-11.442 12.579-15.838 19.781-4.336 7.106-8.82 14.453-15.605 19.813-.707.85-1.37 1.673-2.02 2.478l-12.15 15.231a248.7 248.7 0 00-1.287 1.624c-.442 1.688-1.77 2.817-2.773 3.668-.422.358-1.12.951-1.236 1.228.003.007.018.045.05.11l.023.05-3.95 1.977c-1.69-3.403.872-5.569 2.251-6.741.5-.426 1.337-1.137 1.368-1.452l.06-.638.392-.505c.508-.655 1.062-1.352 1.648-2.087l12.157-15.24c.717-.889 1.442-1.79 2.224-2.725l.337-.325c6.257-4.879 10.378-11.632 14.74-18.779 4.57-7.487 9.293-15.226 16.743-20.854.439-.543.883-1.099 1.33-1.66l7.845-9.83c2.244-3.11 4.71-6.072 7.096-8.937 2.136-2.566 4.346-5.222 6.476-8.079l59.242-74.236c12.082-11.705 21.038-22.918 27.377-34.277l.184-.277c.533-.689 1.086-1.384 1.638-2.074l47.084-59.023 3.453 2.767z" fill="#fff"/><path d="M243.225 245.18l.491 4.399-61.667 6.781-.369-.088c-14.428-3.44-28.263-1.908-44.859 4.964l-.285.118-3.688.425-97.847 10.769c-1.55.172-3.098.341-4.624.483l-.497.046-.468-.173c-13.393-4.933-24.388-1.205-37.118 3.109a433.028 433.028 0 01-5.253 1.757l-.421.095c-.947.112-1.866.213-2.777.311l-.611.067-.559-.259c-.464-.217-1.01-.006-2.14.526-1.377.646-3.686 1.728-5.885-.046-9.637-7.78-18.446-4.005-28.646.366-4.748 2.035-9.658 4.139-14.755 4.969-1.382.27-2.68.442-3.883.594l-23.545 2.593-.49-4.4 23.51-2.588c1.142-.144 2.307-.298 3.624-.556 4.634-.756 9.291-2.752 13.795-4.682 10.545-4.518 21.45-9.193 33.16.258.147-.007.802-.315 1.234-.518 1.265-.595 3.12-1.463 5.237-.781.653-.073 1.312-.146 1.985-.226a451.898 451.898 0 004.998-1.673c12.82-4.346 24.94-8.454 39.582-3.243a279.19 279.19 0 004.058-.429l100.903-11.119c17.24-7.093 31.738-8.685 46.908-5.15l2.385-.26 58.517-6.439z" fill="#fff"/><path d="M207.308 370.947l-2.756 3.456L25.968 231.382c-15.748-10.896-31.355-23.395-46.383-37.147l-13.94-11.131c-6.303-4.294-11.659-8.911-16.844-13.379-4.414-3.805-8.583-7.399-13.238-10.749l2.576-3.592c4.81 3.465 9.25 7.291 13.541 10.99 5.106 4.401 10.387 8.953 16.51 13.117l.13.095 14.187 11.336c14.918 13.656 30.405 26.059 46.03 36.864l.126.093 2.672 2.139 175.973 140.929z" fill="#fff"/><path d="M56.031 93.588l.516 4.537c.084.75.176 1.58.26 2.454l.01.147c.385 13.056 2.166 25.25 3.89 37.041.548 3.75 1.092 7.478 1.589 11.207l2.412 21.198c.095.81.19 1.615.287 2.42 4.573 11.64 4.604 22.828 4.635 34.666.006 2.247.013 4.519.05 6.823l13.214 116.627c.579 6.997 1.79 13.638 2.96 20.062 1.934 10.604 3.76 20.627 2.892 31.599l6.03 53.225-4.391.491-6.078-53.654.019-.216c.861-10.475-.926-20.278-2.818-30.657-1.19-6.528-2.42-13.279-3.011-20.424L65.263 214.255a503.7 503.7 0 01-.052-6.992c-.031-11.495-.06-22.352-4.428-33.305l-.105-.267-.036-.285c-.11-.908-.216-1.811-.324-2.712l-2.408-21.175c-.49-3.676-1.033-7.386-1.578-11.117-1.738-11.894-3.535-24.193-3.933-37.476-.08-.822-.166-1.6-.246-2.307l-.515-4.536 4.393-.495zM37.084 286.032c-1.155-2.369-9.979-.444-19.71 4.3-9.73 4.743-16.682 10.509-15.527 12.878 1.155 2.37 9.979.445 19.709-4.299 9.73-4.744 16.682-10.51 15.528-12.879z" fill="#fff"/><path d="M39.757 284.853c2.93 6.4-12.189 14.382-16.913 16.684-4.746 2.314-20.48 9.366-23.605 2.951l-.045-.096c-2.929-6.402 12.19-14.381 16.913-16.683 4.746-2.315 20.478-9.368 23.605-2.952l.045.096zM5.91 301.235c2.761-.351 7.805-1.745 14.377-4.948 6.572-3.205 10.776-6.317 12.754-8.277-2.762.35-7.806 1.744-14.377 4.948-6.572 3.205-10.778 6.317-12.754 8.277zm54.387 2.703c-1.675-.461-5.162 6.959-7.787 16.573-2.626 9.615-3.397 17.783-1.722 18.245 1.675.462 5.161-6.958 7.787-16.573 2.626-9.615 3.397-17.783 1.722-18.245z" fill="#fff"/><path d="M63.422 303.254c.931 2.036.655 4.963.496 6.659-.34 3.606-1.25 8.239-2.563 13.046-5.516 20.192-9.892 18.985-11.33 18.589-3.595-.991-3.102-6.233-2.864-8.752.34-3.606 1.25-8.238 2.563-13.044 1.311-4.804 2.881-9.255 4.421-12.532 1.077-2.288 3.313-7.051 6.909-6.06 1.176.325 1.915 1.105 2.368 2.094zm-9.742 24.91a92.008 92.008 0 002.11-6.74 91.492 91.492 0 001.61-6.881 91.184 91.184 0 00-2.112 6.743 90.403 90.403 0 00-1.608 6.878zM37.794 198.385c-1.488.611.314 8.427 4.025 17.459 3.71 9.031 7.924 15.857 9.412 15.246 1.487-.61-.315-8.427-4.026-17.458-3.71-9.032-7.924-15.858-9.411-15.247z" fill="#fff"/><path d="M47.32 209.024a106.79 106.79 0 011.673 3.856c1.834 4.463 3.275 8.792 4.058 12.189.805 3.491 1.23 6.85-1.085 7.8-2.976 1.222-6.998-4.264-11.94-16.308-1.835-4.465-3.274-8.793-4.058-12.19-.805-3.489-1.23-6.849 1.086-7.8 2.314-.951 4.374 1.737 6.256 4.786 1.287 2.087 2.667 4.73 4.01 7.667zm2.136 17.742c-.557-2.702-1.797-6.943-4.046-12.416-2.244-5.471-4.346-9.36-5.85-11.673.559 2.702 1.799 6.941 4.045 12.414 2.246 5.468 4.348 9.363 5.851 11.675zm46.809-38.543c-1.537-.477-5.11 6.694-7.979 16.017-2.87 9.322-3.949 17.267-2.412 17.744 1.538.477 5.11-6.694 7.98-16.017 2.869-9.322 3.949-17.267 2.411-17.744z" fill="#fff"/><path d="M98.351 187.811c1.243 2.716.36 8.993-2.638 18.74-3.825 12.428-7.325 18.247-10.4 17.293-3.078-.959-2.694-7.743 1.13-20.171 1.42-4.607 3.056-8.86 4.607-11.977 1.595-3.202 3.4-6.06 5.793-5.318.664.209 1.167.687 1.508 1.433zm-11.1 29.733c1.287-2.435 3.021-6.493 4.76-12.141 1.74-5.649 2.586-9.983 2.893-12.723-1.286 2.435-3.022 6.494-4.76 12.143-1.738 5.649-2.585 9.981-2.892 12.721zm42.428 61.01c-9.188-3.269-17.071-4.688-17.607-3.17-.536 1.518 6.477 5.399 15.665 8.668 9.188 3.269 17.071 4.688 17.607 3.17.536-1.518-6.478-5.399-15.665-8.668z" fill="#fff"/><path d="M147.078 285.925c.281.613.341 1.258.099 1.939-.833 2.362-4.205 2.101-7.724 1.467-3.427-.617-7.815-1.847-12.354-3.463-12.248-4.358-17.921-8.101-16.846-11.145 1.073-3.037 7.828-2.366 20.077 1.992 4.542 1.617 8.721 3.435 11.769 5.122 2.232 1.234 4.285 2.57 4.979 4.088zm-30.614-8.993c2.381 1.391 6.361 3.301 11.926 5.282 5.568 1.982 9.858 3.015 12.58 3.439-2.38-1.391-6.36-3.301-11.927-5.282-5.568-1.98-9.857-3.013-12.579-3.439zm-94.721-29.828c-8.16-3.152-15.219-4.553-15.765-3.128-.547 1.424 5.626 5.135 13.786 8.287 8.16 3.152 15.218 4.553 15.765 3.128.546-1.424-5.626-5.135-13.786-8.287z" fill="#fff"/><path d="M37.841 253.957c.515 1.125.216 1.9.047 2.344-.469 1.224-1.9 4.946-19.037-1.675-17.143-6.621-15.711-10.343-15.244-11.565 1.173-3.06 5.703-2.162 7.88-1.729 3.116.618 7.079 1.828 11.157 3.402 10.908 4.214 14.297 7.254 15.197 9.223zm-22.873-6.508a79.738 79.738 0 005.698 2.444 79.642 79.642 0 005.858 2.02 79.27 79.27 0 00-5.694-2.444 79.865 79.865 0 00-5.862-2.02zm90.136 76.211c-4.808-8.835-9.918-15.336-11.413-14.522-1.495.815 1.19 8.637 6 17.471 4.808 8.835 9.918 15.336 11.413 14.522 1.495-.815-1.191-8.637-6-17.471z" fill="#fff"/><path d="M110.208 329.478c2.814 6.15 4.492 11.915 1.828 13.366-2.247 1.225-4.65-1.271-6.912-4.147-2.22-2.826-4.752-6.787-7.127-11.152-4.4-8.073-8.869-18.117-5.227-20.101 2.247-1.225 4.65 1.27 6.912 4.147 2.22 2.826 4.752 6.786 7.127 11.153 1.181 2.167 2.367 4.477 3.399 6.734zm-1.124 7.943c-.789-2.675-2.557-7.094-5.673-12.825-3.12-5.734-5.871-9.612-7.69-11.729.79 2.677 2.557 7.096 5.674 12.826 3.121 5.734 5.872 9.612 7.689 11.728zm26.972-112.573c-.963-1.298-7.761 2.121-15.183 7.638-7.422 5.516-12.658 11.04-11.695 12.339.963 1.298 7.761-2.121 15.183-7.637 7.422-5.517 12.658-11.041 11.695-12.34z" fill="#fff"/><path d="M137.89 224.163c.892 1.949-1.055 4.415-3.132 6.607-2.284 2.409-5.565 5.24-9.243 7.972-3.677 2.734-7.334 5.06-10.297 6.551-2.918 1.468-6.102 2.698-7.594.685-2.412-3.222 5.253-9.968 12.093-15.053 3.677-2.733 7.333-5.058 10.297-6.55 2.918-1.467 6.102-2.697 7.594-.684.116.154.209.311.282.472zm-25.182 18.035c2.35-1.104 5.979-3.215 10.497-6.572 4.518-3.359 7.585-6.226 9.322-8.159-2.35 1.105-5.979 3.215-10.498 6.573-4.518 3.358-7.584 6.227-9.321 8.158z" fill="#fff"/><path d="M91.5 257.934c-4.627-10.115-16.559-14.572-26.65-9.956-10.09 4.616-14.52 16.558-9.892 26.673 4.627 10.114 16.558 14.572 26.649 9.955 10.09-4.616 14.52-16.557 9.893-26.672z" fill="#FFCE46"/><path d="M250.398 174.743c2.203 4.814 3.956 9.795 5.773 14.954 2.086 5.925 4.241 12.038 7.21 18.055l.06.121.044.128c.562 1.603 1.02 3.178 1.396 4.507a200.866 200.866 0 016.971 49.21c.028 1.597.031 3.189.011 4.761-.053 1.54.053 3.227.165 5.01.191 3.023.389 6.148-.095 9.18l-.043.274-.109.256c-6.663 15.425-8.324 30.245-10.084 45.937l-.069.467a55.387 55.387 0 01-.506 1.884l-.232.812a198.107 198.107 0 01-20.537 42.144 55.956 55.956 0 01-1.438 2.153l-.225.271c-5.427 5.539-10.393 11.555-15.649 17.925-3.167 3.838-6.442 7.806-9.802 11.625a198.497 198.497 0 01-2.968 3.306l-.127.128-3.166 2.938c-12.381 11.5-25.184 23.392-40.028 30.342a141.317 141.317 0 01-3.687 1.969c-6.623 3.416-12.927 5.896-19.267 7.579a161.676 161.676 0 01-4.276 1.558l-.394.097c-5.979.906-11.938 1.997-18.247 3.153-13.5 2.472-27.458 5.027-41.4 5.596l-4.612-.019c-2.085-.011-4.167-.008-6.252-.007-14.358.007-29.207.015-43.574-3.893-1.374-.399-2.61-.781-3.851-1.172-9.082-2.841-21.022-6.707-32.822-11.424a123.704 123.704 0 01-4.383-2.126c-6.236-3.286-11.874-7.36-17.325-11.301-6.591-4.763-12.816-9.262-20.035-12.538l-.434-.259c-.921-.708-1.81-1.5-2.72-2.422a28.091 28.091 0 01-2.153-2.478l-1.705-1.484a190.75 190.75 0 01-3.533-3.282l-.158-.166c-11.8-13.849-25.346-30.089-36.79-47.601l-.085-.14a199.464 199.464 0 01-19.56-50.803 174.812 174.812 0 01-1.038-4.833c-3.281-20.924-4.473-39.479-3.664-56.813a198.938 198.938 0 016.359-36.576 160.55 160.55 0 011.374-4.608c4.185-13.266 9.658-24.565 15.45-36.527 1.011-2.088 2.031-4.192 3.05-6.325l.087-.162a201.243 201.243 0 0116.454-24.002 201.068 201.068 0 0119.594-21.231 185.19 185.19 0 013.45-3.155c12.213-12.334 23.056-20.124 34.102-24.496a251.844 251.844 0 014.039-2.212A198 198 0 013.956 77.776l.459-.17.488.042c12.128 1.024 22.386-2.442 33.247-6.112 6.006-2.03 12.214-4.126 18.732-5.38l.36-.038 3.963-.098c18.066-.414 35.636-.449 52.019 3.608 1.461.293 3.007.627 4.549.98 4.61 1.07 9.229 2.32 13.739 3.714 1.564.486 3.125.99 4.709 1.524 11.719 3.215 22.781 8.13 33.696 14.987.631.35 1.355.76 2.076 1.18a201.692 201.692 0 0125.085 17.155c18.635 14.925 34.255 32.787 46.427 53.088.79 1.319 1.566 2.647 2.323 3.982 1.757 2.774 3.246 5.609 4.57 8.505zm7.788 32.365c-2.459-5.375-4.347-10.736-6.181-15.945-2.824-8.02-5.492-15.593-9.964-22.655a211.046 211.046 0 00-2.326-3.983c-11.898-19.848-27.171-37.312-45.395-51.907a197.091 197.091 0 00-26.655-17.986c-10.636-6.68-21.311-11.423-32.727-14.559a233.302 233.302 0 00-4.726-1.527 195.009 195.009 0 00-13.425-3.627 194.44 194.44 0 00-4.525-.978c-15.945-3.945-33.193-3.905-50.947-3.5l-3.77.095c-6.162 1.202-12.168 3.23-17.977 5.193-10.672 3.607-21.705 7.334-34.535 6.368a193.775 193.775 0 00-24 10.832 251.027 251.027 0 00-4.097 2.248l-.13.074-.139.053c-10.517 4.136-20.929 11.634-32.77 23.597l-.1.094a196.676 196.676 0 00-3.421 3.129 196.549 196.549 0 00-32.845 40.221 208.022 208.022 0 00-2.367 3.941c-1.01 2.11-2.019 4.193-3.02 6.26-5.722 11.813-11.125 22.971-15.213 35.931a152.302 152.302 0 00-1.329 4.459 194.708 194.708 0 00-6.207 35.669c-.792 16.961.386 35.222 3.604 55.759.301 1.503.637 3.058.993 4.608a195.115 195.115 0 0017 45.71 186.18 186.18 0 002.083 3.876c11.264 17.231 24.653 33.289 36.33 46.995a189.442 189.442 0 003.335 3.096l2.161 1.943a22.881 22.881 0 003.98 4.09c7.523 3.45 14.15 8.238 20.559 12.871 5.327 3.85 10.837 7.831 16.767 10.957 1.405.714 2.755 1.371 4.1 1.994 11.552 4.614 23.386 8.446 32.394 11.264 1.218.383 2.424.756 3.728 1.135 13.76 3.743 28.308 3.736 42.379 3.727 2.093 0 4.183-.002 6.27.009l4.517.019c13.531-.554 27.335-3.082 40.684-5.526 5.997-1.098 12.195-2.233 18.179-3.145 1.353-.472 2.716-.972 4.075-1.488l.222-.072c6.064-1.6 12.111-3.977 18.485-7.264a136.37 136.37 0 003.638-1.945l.133-.067c14.246-6.654 26.811-18.325 38.963-29.61l3.105-2.882c.96-1.046 1.909-2.105 2.847-3.172 3.314-3.765 6.566-7.706 9.712-11.518 5.046-6.114 10.261-12.435 15.774-18.078.424-.606.827-1.227 1.23-1.851a193.727 193.727 0 0020.056-41.139l.175-.624c.148-.526.297-1.052.432-1.598l.006-.045c1.787-15.941 3.474-31.002 10.305-46.933.354-2.48.177-5.254.008-7.94-.121-1.897-.234-3.688-.174-5.397a159.68 159.68 0 00-.012-4.581 196.25 196.25 0 00-6.811-48.101 73.345 73.345 0 00-1.262-4.098 85.374 85.374 0 01-1.179-2.476z" fill="#fff"/><path d="M230.572 192.326c7.594 16.599 12.576 34.48 14.67 53.142 5.171 46.054-7.872 91.34-36.726 127.508a174.935 174.935 0 01-16.847 18.288 163.213 163.213 0 01-3.61 3.3l-.284.214c-5.327 3.366-10.484 6.965-15.472 10.446-1.588 1.108-3.171 2.214-4.753 3.308-1.024.708-2.214 1.524-3.391 2.255l-.503.313-.593.018c-11.368.346-19.352 6.243-27.807 12.486-2.32 1.714-4.72 3.486-7.191 5.135l-.182.121-.202.083c-1.232.507-2.419.96-3.627 1.421l-1.261.476a173.667 173.667 0 01-47.169 7.172c-1.518.021-3.034.02-4.492-.007l-.198-.012a188.767 188.767 0 00-4.307-.416l-.147-.018c-13.752-2.118-26.73-5.159-40.472-8.376-2.855-.669-5.722-1.341-8.605-2.005l-.208-.059a685.281 685.281 0 01-3.774-1.283C5.907 423.262.12 421.178-5.342 419.08l-.214-.095a169.008 169.008 0 01-10.702-5.982c-5.545-3.454-10.515-7.691-15.321-11.788-4.868-4.148-9.466-8.068-14.364-10.983l-.379-.283a120.135 120.135 0 01-1.852-1.767c-27.502-27.007-45.41-62.995-50.433-101.345-5.013-38.253 2.949-77.506 22.42-110.528.82-1.39 1.663-2.774 2.525-4.148 1.179-1.703 2.232-3.293 3.279-4.87 1.578-2.38 3.21-4.841 5.008-7.292.998-1.318 2.03-2.633 3.09-3.936h.002a234.3 234.3 0 013.253-3.904 189.138 189.138 0 013.331-3.816c18.195-20.275 40.25-35.56 65.552-45.43a174.5 174.5 0 014.331-1.623l.369-.096c3.166-.551 6.128-1.67 9.264-2.856 3.959-1.496 8.05-3.042 12.668-3.414 1.452-.31 2.908-.604 4.367-.879a174.247 174.247 0 0136.63-2.921c1.606.045 3.202.113 4.81.207l.244.028c20.716 3.537 40.908 8.366 60.017 14.353l.232.088c1.496.66 2.983 1.344 4.462 2.051 12.008 5.726 23.412 12.888 33.896 21.284 21.51 17.225 38.281 38.825 49.429 63.191zm-45.313 198.806a170.474 170.474 0 0019.803-20.921c58.045-72.76 46.076-179.356-26.675-237.622a169.936 169.936 0 00-33.035-20.745 160.676 160.676 0 00-4.23-1.947c-18.849-5.899-38.764-10.662-59.2-14.156a155.382 155.382 0 00-4.553-.195 169.731 169.731 0 00-40.095 3.736l-.3.044c-4.046.3-7.712 1.685-11.591 3.152-3.133 1.184-6.372 2.408-9.875 3.041a168.43 168.43 0 00-4.048 1.519c-24.652 9.615-46.143 24.51-63.871 44.265a185.07 185.07 0 00-3.255 3.73 217.155 217.155 0 00-3.193 3.831 135.594 135.594 0 00-2.975 3.786c-1.715 2.338-3.247 4.65-4.87 7.095a281.586 281.586 0 01-3.273 4.86 177.954 177.954 0 00-2.407 3.96c-18.971 32.176-26.73 70.427-21.846 107.704 4.899 37.375 22.347 72.443 49.135 98.748.526.511 1.06 1.024 1.608 1.535 5.14 3.09 9.82 7.077 14.766 11.294 4.683 3.993 9.527 8.12 14.77 11.386a172.295 172.295 0 006.195 3.582 161.68 161.68 0 004.102 2.177c5.376 2.065 11.09 4.12 18.5 6.659 1.21.415 2.417.827 3.647 1.24 2.853.66 5.688 1.322 8.513 1.984 13.631 3.193 26.508 6.208 40.066 8.301 1.388.12 2.803.255 4.23.408 1.383.025 2.817.025 4.254.005a169.272 169.272 0 0045.89-6.965l1.026-.392c1.107-.422 2.195-.838 3.318-1.295 2.322-1.559 4.616-3.253 6.836-4.893 8.489-6.268 17.262-12.747 29.685-13.323a87.71 87.71 0 002.722-1.83c1.578-1.09 3.156-2.189 4.737-3.294 4.982-3.478 10.131-7.073 15.489-10.464z" fill="#fff"/><path d="M93.31 256.837c3.402 7.436 2.604 16.474-2.822 23.277-7.673 9.616-21.739 11.175-31.355 3.474-9.614-7.7-11.198-21.79-3.525-31.41a22.106 22.106 0 0114.947-8.241c5.922-.657 11.748 1.037 16.407 4.768a22.277 22.277 0 016.349 8.132zm-36.527 16.769a17.876 17.876 0 005.106 6.528c7.711 6.176 18.993 4.926 25.144-2.787a17.793 17.793 0 003.794-13.17 17.85 17.85 0 00-6.622-12.017c-7.711-6.176-18.99-4.927-25.143 2.786a17.8 17.8 0 00-3.794 13.171 17.993 17.993 0 001.515 5.489z" fill="#fff"/></svg>