<svg width="433" height="353" viewBox="0 0 433 353" fill="none" xmlns="http://www.w3.org/2000/svg">
<g clip-path="url(#clip0)">
<path d="M238.079 59.2182L193.987 52.0568L204.434 24.0743C206.744 17.8812 203.725 15.0657 197.715 17.8124L145.501 41.6834L123.704 11.6137C120.573 7.29791 116.644 7.90635 114.965 12.9668L103.284 48.2269L46.2951 41.2654C39.736 40.465 37.71 44.0616 41.7843 49.2663L60.2107 72.7715L20.3432 92.9336C12.8449 96.7235 13.496 100.928 21.7903 102.279L65.8823 109.44L55.4349 137.423C53.1256 143.616 56.1444 146.431 62.1542 143.685L114.368 119.814L136.167 149.89C139.297 154.205 143.227 153.597 144.905 148.536L156.587 113.276L213.575 120.238C220.134 121.038 222.16 117.442 218.086 112.237L199.665 88.7246L239.526 68.5634C247.024 64.7735 246.373 60.5691 238.079 59.2182Z" fill="#171717"/>
<path d="M252.399 162.493V300.032C252.399 306.603 247.063 311.935 240.487 311.935H15.7863C9.21025 311.935 3.875 306.603 3.875 300.032C3.875 296.436 5.48799 293.026 8.31071 290.763L38.1509 266.616C47.3635 259.145 52.7298 247.955 52.7298 236.082V162.462C52.7298 155.89 58.0651 150.559 64.6411 150.559H240.487C247.032 150.59 252.399 155.921 252.399 162.493Z" fill="white"/>
<path d="M240.457 312.4H15.7867C8.96254 312.4 3.41016 306.852 3.41016 300.032C3.41016 296.281 5.08518 292.778 8.00096 290.423L37.8412 266.275C46.9918 258.866 52.234 247.893 52.234 236.114V162.493C52.234 155.674 57.7863 150.125 64.6105 150.125H240.457C247.281 150.125 252.833 155.674 252.833 162.493V300.032C252.864 306.852 247.281 312.4 240.457 312.4ZM64.6105 151.055C58.2826 151.055 53.1645 156.201 53.1645 162.493V236.114C53.1645 248.172 47.7982 259.424 38.4305 266.988L8.59032 291.135C5.89167 293.305 4.34072 296.56 4.34072 300.032C4.34072 306.356 9.48987 311.47 15.7867 311.47H240.457C246.785 311.47 251.903 306.325 251.903 300.032V162.493C251.903 156.17 246.754 151.055 240.457 151.055H64.6105Z" fill="black"/>
<path d="M136.17 158.897L118.707 164.415C113.713 168.693 108.719 172.97 103.725 177.248C110.146 186.92 116.535 196.56 122.956 206.231C122.739 210.509 122.553 214.818 122.336 219.096C128.85 218.786 135.364 218.476 141.878 218.166C142.281 214.105 142.715 210.075 143.119 206.014L145.197 205.363C152.579 203.039 156.55 195.01 153.913 187.726L149.509 175.481C148.578 171.885 147.647 168.29 146.686 164.694C145.538 160.106 140.699 157.44 136.17 158.897Z" fill="#F9D84E"/>
<path d="M122.337 219.56C122.213 219.56 122.089 219.498 121.996 219.436C121.903 219.343 121.841 219.219 121.872 219.095L122.492 206.386L103.354 177.527C103.23 177.341 103.261 177.062 103.447 176.907L118.429 164.073C118.491 164.042 118.522 164.011 118.584 163.98L136.048 158.463C138.374 157.719 140.825 157.967 142.965 159.145C145.105 160.323 146.594 162.276 147.215 164.631L150.006 175.388L154.38 187.601C155.683 191.259 155.466 195.165 153.76 198.636C152.053 202.108 149.045 204.65 145.353 205.828L143.554 206.386L142.345 218.227C142.314 218.444 142.127 218.63 141.91 218.63L122.337 219.56ZM104.346 177.31L123.33 205.952C123.392 206.045 123.423 206.138 123.392 206.231L122.803 218.599L141.445 217.7L142.655 205.952C142.686 205.766 142.81 205.611 142.965 205.549L145.043 204.898C148.486 203.813 151.278 201.426 152.891 198.171C154.504 194.917 154.721 191.259 153.48 187.88L149.076 175.636V175.605L146.253 164.817C145.695 162.71 144.361 160.974 142.438 159.92C140.514 158.866 138.343 158.649 136.265 159.3L118.894 164.786L104.346 177.31Z" fill="black"/>
<path d="M122.522 196.994C121.529 198.172 118.365 201.613 114.24 201.427C112.441 201.334 111.076 200.59 108.657 199.257C105.679 197.583 103.476 195.785 102.018 194.452C100.871 193.615 98.1721 191.384 96.6212 187.385C95.1633 183.572 95.5665 180.255 95.8457 178.86L95.8767 178.705C97.3966 172.32 101.739 166.988 107.664 164.198C114.705 160.912 121.747 157.658 128.788 154.372C131.704 153.008 135.023 152.698 138.093 153.659C139.427 154.093 140.823 154.744 142.126 155.829C144.794 158.03 145.476 160.788 145.848 162.028L124.755 170.398V174.428C121.56 176.597 118.334 178.767 115.139 180.937C117.652 186.3 120.103 191.663 122.522 196.994Z" fill="#3FD1FF"/>
<path d="M114.582 201.891C114.458 201.891 114.334 201.891 114.241 201.891C112.287 201.798 110.767 200.961 108.441 199.659C106.021 198.326 103.757 196.684 101.74 194.824C100.003 193.522 97.6149 191.228 96.2191 187.57C94.8542 184.036 95.0404 180.844 95.4126 178.767L95.4436 178.612C97.0256 172.071 101.399 166.677 107.51 163.795L128.634 153.968C131.736 152.542 135.148 152.263 138.281 153.224C139.832 153.72 141.259 154.464 142.499 155.487C145.136 157.657 145.942 160.416 146.315 161.718L146.377 161.904C146.439 162.121 146.315 162.369 146.098 162.462L125.284 170.707V174.427C125.284 174.582 125.222 174.737 125.067 174.799L115.792 181.092L122.957 196.777C123.019 196.932 123.019 197.118 122.895 197.273C121.437 199.039 118.429 201.891 114.582 201.891ZM134.465 153.565C132.635 153.565 130.774 153.968 129.037 154.774L107.913 164.601C102.082 167.359 97.8631 172.505 96.3742 178.798L96.3432 178.953C96.002 180.875 95.8158 183.881 97.1186 187.229C98.4524 190.701 100.686 192.871 102.33 194.08L102.361 194.111C104.346 195.94 106.548 197.521 108.906 198.853C111.356 200.217 112.628 200.899 114.272 200.961C117.715 201.116 120.507 198.605 121.965 196.932L114.737 181.154C114.644 180.937 114.706 180.689 114.892 180.565L124.291 174.179V170.397C124.291 170.211 124.415 170.025 124.57 169.963L145.26 161.749C144.857 160.385 144.112 158.091 141.817 156.169C140.669 155.239 139.366 154.526 137.94 154.092C136.854 153.751 135.644 153.565 134.465 153.565Z" fill="black"/>
<path d="M120.32 177.279C118.645 178.364 117.25 179.325 115.575 180.41C112.907 182.115 111.418 185.215 111.883 188.346C112.162 190.113 113 191.786 114.427 193.088L116.009 194.545C118.987 197.242 123.484 197.335 126.555 194.793C127.517 194.018 128.447 193.243 129.409 192.437" fill="#F9D84E"/>
<path d="M121.469 197.055C119.391 197.055 117.344 196.311 115.731 194.854L114.149 193.397C112.691 192.064 111.76 190.329 111.45 188.407C110.954 185.152 112.474 181.866 115.359 180.006C116.196 179.479 116.972 178.952 117.716 178.456C118.492 177.96 119.267 177.433 120.105 176.906C120.322 176.751 120.601 176.813 120.756 177.03C120.88 177.247 120.818 177.526 120.632 177.681C119.794 178.208 119.019 178.735 118.274 179.231C117.499 179.727 116.724 180.254 115.886 180.781C113.311 182.424 111.947 185.369 112.412 188.252C112.691 189.988 113.498 191.537 114.8 192.715L116.382 194.172C119.174 196.683 123.424 196.807 126.339 194.42L129.193 192.064C129.379 191.909 129.689 191.94 129.845 192.126C130 192.312 129.969 192.622 129.783 192.777L126.929 195.133C125.316 196.404 123.393 197.055 121.469 197.055Z" fill="black"/>
<path d="M148.703 174.737C150.657 173.59 152.58 172.443 154.535 171.297C155.868 170.522 157.575 171.08 158.195 172.474C158.691 173.652 158.288 175.016 157.202 175.667C154.938 177.124 152.643 178.612 150.378 180.069" fill="#F9D84E"/>
<path d="M150.347 180.566C150.191 180.566 150.036 180.504 149.943 180.349C149.819 180.132 149.881 179.853 150.067 179.698L156.892 175.296C157.791 174.738 158.132 173.622 157.729 172.661C157.481 172.103 157.016 171.669 156.457 171.483C155.899 171.297 155.248 171.359 154.751 171.669L148.92 175.11C148.703 175.234 148.423 175.172 148.268 174.955C148.144 174.738 148.206 174.459 148.423 174.304L154.255 170.863C154.999 170.429 155.899 170.336 156.736 170.584C157.574 170.863 158.225 171.452 158.567 172.258C159.156 173.622 158.66 175.265 157.388 176.04L150.564 180.442C150.533 180.535 150.44 180.566 150.347 180.566Z" fill="black"/>
<path d="M142.965 206.232C137.382 206.201 131.829 206.17 126.246 206.139L142.965 206.232Z" fill="white"/>
<path d="M142.964 206.697L126.245 206.604C125.996 206.604 125.779 206.387 125.779 206.139C125.779 205.891 125.996 205.674 126.245 205.674L142.964 205.767C143.212 205.767 143.429 205.984 143.429 206.232C143.429 206.48 143.212 206.697 142.964 206.697Z" fill="black"/>
<path d="M86.7901 236.051C82.2924 261.191 77.7946 286.33 73.2969 311.47H96.437C93.8004 286.361 91.1638 261.222 88.5272 236.113C88.4341 235.09 86.9762 235.028 86.7901 236.051Z" fill="#F15922"/>
<path d="M96.4667 311.936H73.3265C73.2025 311.936 73.0474 311.874 72.9543 311.781C72.8612 311.688 72.8302 311.533 72.8612 311.409L86.3545 235.99C86.4786 235.308 87.0369 234.844 87.7193 234.875C88.4017 234.906 88.9291 235.401 89.0221 236.083L96.932 311.44C96.932 311.564 96.9009 311.688 96.8079 311.812C96.7148 311.874 96.5907 311.936 96.4667 311.936ZM73.8849 311.006H95.9704L88.0916 236.176C88.0605 235.835 87.7814 235.804 87.6883 235.804C87.5952 235.804 87.3161 235.804 87.254 236.145L73.8849 311.006Z" fill="black"/>
<path d="M294.709 214.291L306.558 194.7L321.882 188.346C323.929 187.509 325.604 185.928 326.566 183.944L332.211 172.32C334.382 167.825 332.645 161.067 328.148 158.897L320.672 155.302C318.066 154.031 314.809 156.48 313.569 159.052C312.297 161.656 313.414 164.787 315.988 166.027L320.703 168.29L318.966 171.886C317.074 175.791 312.359 177.434 308.42 175.544L286.861 165.128C283.666 163.578 282.333 159.765 283.884 156.573L286.892 150.373L289.467 151.613C292.29 152.977 295.702 151.799 297.098 148.978C298.463 146.157 297.284 142.747 294.461 141.353L290.18 139.276C284.38 136.486 277.432 138.904 274.64 144.669L271.228 151.737L254.075 126.349C252.152 123.777 247.406 123.808 244.676 125.513L245.886 124.831C242.939 126.69 240.923 131.309 242.877 134.192L256.277 153.752L237.914 138.005C235.587 136.269 232.299 136.734 230.562 139.059L229.477 141.136C227.833 143.336 228.205 146.436 230.283 148.234L263.349 175.326C265.21 176.907 265.893 179.511 265.055 181.805L259.782 196.126" fill="#F9D84E"/>
<path d="M294.709 214.756C294.616 214.756 294.554 214.725 294.461 214.694C294.244 214.57 294.182 214.26 294.306 214.043L306.155 194.452C306.217 194.359 306.279 194.297 306.372 194.266L321.696 187.911C323.65 187.106 325.201 185.618 326.132 183.727L331.746 172.102C333.917 167.639 331.994 161.284 327.9 159.3L320.424 155.704C318.036 154.557 315.027 156.975 313.941 159.238C313.383 160.385 313.321 161.687 313.724 162.865C314.127 164.074 314.996 165.035 316.143 165.593L320.858 167.856C321.075 167.98 321.199 168.259 321.075 168.476L319.338 172.071C317.322 176.225 312.328 177.961 308.172 175.946L286.613 165.531C283.201 163.888 281.774 159.765 283.418 156.355L286.427 150.156C286.489 150.032 286.582 149.97 286.706 149.908C286.831 149.877 286.955 149.877 287.048 149.939L289.622 151.179C292.228 152.45 295.361 151.334 296.601 148.761C297.842 146.188 296.757 143.026 294.182 141.786L289.901 139.709C284.349 137.013 277.649 139.368 274.981 144.886L271.57 151.954C271.508 152.109 271.353 152.202 271.198 152.202C271.043 152.202 270.856 152.14 270.763 151.985L253.61 126.597C252.059 124.489 248.275 124.303 245.669 125.45C244.18 126.535 243.001 128.364 242.629 130.224C242.412 131.216 242.35 132.642 243.188 133.882L256.588 153.442C256.712 153.628 256.681 153.907 256.526 154.062C256.34 154.217 256.091 154.217 255.905 154.062L237.542 138.314C236.549 137.571 235.278 137.23 234.006 137.416C232.765 137.602 231.648 138.252 230.873 139.244L229.818 141.259C229.818 141.29 229.787 141.29 229.787 141.321C228.298 143.336 228.609 146.157 230.532 147.769L263.567 174.83C265.583 176.535 266.328 179.356 265.397 181.836L260.124 196.157C260.031 196.405 259.783 196.529 259.534 196.436C259.286 196.343 259.162 196.095 259.255 195.847L264.529 181.526C265.304 179.418 264.684 177.031 262.947 175.574L229.911 148.513C227.647 146.591 227.244 143.212 229.012 140.825L230.067 138.81C230.067 138.779 230.098 138.779 230.098 138.748C230.997 137.509 232.331 136.734 233.851 136.517C235.371 136.3 236.86 136.672 238.1 137.602L253.796 151.055L242.412 134.44C241.606 133.262 241.357 131.743 241.699 130.069C242.04 128.426 242.939 126.783 244.149 125.574C244.118 125.388 244.211 125.233 244.366 125.109C244.49 125.016 244.645 124.954 244.8 124.861L245.576 124.396C245.7 124.334 245.824 124.334 245.948 124.365C248.864 123.342 252.648 123.745 254.385 126.07L271.105 150.807L274.175 144.483C277.091 138.469 284.349 135.959 290.336 138.872L294.616 140.949C297.687 142.437 298.959 146.126 297.47 149.195C295.981 152.264 292.29 153.535 289.219 152.047L287.079 151.024L284.287 156.789C282.86 159.734 284.101 163.299 287.048 164.725L308.606 175.14C310.405 176.008 312.421 176.132 314.282 175.481C316.143 174.83 317.663 173.497 318.532 171.699L320.052 168.538L315.771 166.461C314.406 165.81 313.383 164.632 312.886 163.206C312.39 161.78 312.483 160.23 313.135 158.866C314.561 155.921 318.098 153.535 320.858 154.898L328.334 158.494C330.567 159.579 332.304 161.811 333.111 164.632C333.917 167.36 333.731 170.243 332.614 172.536L327 184.161C325.976 186.269 324.239 187.911 322.068 188.81L306.9 195.103L295.113 214.57C295.02 214.694 294.864 214.756 294.709 214.756Z" fill="black"/>
<path d="M263.597 166.213C263.442 166.213 263.287 166.12 263.194 165.996L255.811 153.999C255.687 153.782 255.749 153.503 255.966 153.348C256.184 153.224 256.463 153.286 256.618 153.503L264 165.5C264.124 165.717 264.062 165.996 263.845 166.151C263.752 166.182 263.659 166.213 263.597 166.213Z" fill="black"/>
<path d="M119.856 217.546C119.732 216.213 119.639 214.88 119.515 213.547C119.36 211.718 120.849 210.168 122.679 210.23L150.1 211.222C152.581 211.315 153.512 214.508 151.465 215.903C150.937 216.275 150.41 216.616 149.914 216.988" fill="#F15922"/>
<path d="M119.856 218.011C119.608 218.011 119.422 217.825 119.39 217.577L119.049 213.578C118.956 212.586 119.328 211.563 120.011 210.85C120.693 210.106 121.686 209.734 122.678 209.765L150.099 210.757C151.433 210.819 152.55 211.656 152.922 212.927C153.294 214.198 152.829 215.531 151.743 216.275L150.192 217.36C149.975 217.515 149.696 217.453 149.541 217.236C149.386 217.019 149.448 216.74 149.665 216.585L151.216 215.5C152.146 214.849 152.24 213.888 152.053 213.175C151.836 212.462 151.216 211.687 150.099 211.656L122.678 210.664C121.934 210.633 121.221 210.943 120.693 211.47C120.166 211.997 119.918 212.741 119.98 213.485L120.321 217.484C120.352 217.732 120.166 217.98 119.887 217.98C119.887 218.011 119.856 218.011 119.856 218.011Z" fill="black"/>
<path d="M259.998 190.701C256.865 192.995 253.081 196.312 249.483 200.9C243.279 208.835 240.673 216.833 239.495 221.792C236.331 224.489 232.267 228.519 228.576 234.13C224.14 240.887 221.938 247.273 220.821 251.705C218.712 247.087 215.021 240.484 208.631 234.13C198.736 224.272 187.817 220.397 182.172 218.847C179.101 218.351 176.03 217.856 172.959 217.36C168.709 216.678 164.398 216.337 160.055 216.368C144.484 216.492 128.943 216.616 113.372 216.709C111.604 216.461 108.998 216.244 105.927 216.709C100.003 217.577 96.0632 220.304 95.0085 221.079C93.8918 221.885 91.3483 223.9 88.7427 227.868C83.3454 236.113 82.756 245.072 82.4769 250.435C81.9495 260.385 83.8107 269.064 86.1061 275.76C84.8963 279.263 83.3764 285.028 83.7486 292.22C84.2139 301.24 87.4399 307.967 89.3941 311.439C103.88 311.501 118.335 311.501 132.821 311.594C147.306 311.687 161.761 311.811 176.247 311.749C177.984 301.612 179.721 290.825 181.489 280.689C183.257 285.245 186.142 291.228 190.981 297.304C199.046 307.409 208.414 312.71 214.059 315.314C214.245 315.252 214.369 315.221 214.555 315.128C214.618 315.004 214.68 314.911 214.742 314.787C216.851 315.748 227.676 320.335 239.681 315.562C256.121 309.021 259.254 291.073 259.409 290.143C263.255 286.454 268.373 280.689 272.716 272.567C277.617 263.361 279.509 254.898 280.316 249.288C284.348 243.584 288.877 236.144 292.661 226.969C295.236 220.769 296.973 214.973 298.214 209.889C285.496 203.534 272.747 197.118 259.998 190.701Z" fill="#F15922"/>
<path d="M228.453 318.227C222.466 318.227 217.596 316.553 214.991 315.437C214.928 315.53 214.866 315.561 214.773 315.592L214.277 315.778C214.153 315.809 214.029 315.809 213.936 315.747C204.847 311.532 196.782 305.27 190.672 297.583C187.011 292.964 183.972 287.88 181.707 282.362C180.932 286.95 180.125 291.662 179.381 296.281C178.512 301.426 177.644 306.758 176.775 311.811C176.744 312.028 176.558 312.183 176.31 312.183C161.855 312.245 147.183 312.121 132.976 312.028H132.883C123.237 311.966 113.435 311.935 103.974 311.904C99.1348 311.904 94.2958 311.873 89.4569 311.873C89.3018 311.873 89.1467 311.78 89.0536 311.625C85.6726 305.673 83.6874 298.977 83.3462 292.22C83.067 286.609 83.8425 281.061 85.6726 275.729C82.8499 267.39 81.6401 258.866 82.0744 250.372C82.3225 245.382 82.8188 236.082 88.4022 227.558C90.2944 224.675 92.4347 222.35 94.7922 220.645C96.5912 219.343 100.469 216.987 105.928 216.212C108.409 215.841 110.953 215.841 113.466 216.212L160.118 215.872C164.461 215.841 168.803 216.181 173.084 216.863L182.297 218.351C182.328 218.351 182.328 218.351 182.359 218.351C189.431 220.304 199.791 224.582 209.004 233.757C213.812 238.562 217.782 244.111 220.76 250.31C222.404 244.452 224.917 238.903 228.267 233.85C231.307 229.232 234.967 225.109 239.154 221.513C241.015 213.795 244.365 206.727 249.173 200.589C252.213 196.715 255.78 193.243 259.782 190.298C259.937 190.205 260.123 190.174 260.278 190.267L298.525 209.486C298.711 209.579 298.804 209.796 298.773 210.013C297.377 215.872 295.516 221.637 293.22 227.186C289.963 235.028 285.807 242.53 280.875 249.504C279.696 257.688 277.121 265.53 273.244 272.815C269.77 279.325 265.303 285.245 259.968 290.391C259.627 292.344 256.184 309.548 239.992 315.995C235.866 317.638 231.989 318.227 228.453 318.227ZM214.804 314.352C214.866 314.352 214.928 314.353 214.991 314.383C217.906 315.685 228.298 319.622 239.558 315.158C255.874 308.649 258.882 290.856 258.975 290.112C259.006 290.019 259.037 289.926 259.099 289.864C264.404 284.749 268.87 278.891 272.314 272.412C276.16 265.19 278.703 257.409 279.851 249.287C279.851 249.225 279.882 249.132 279.944 249.07C284.876 242.127 289.002 234.656 292.259 226.845C294.492 221.451 296.322 215.841 297.687 210.168L260.03 191.228C256.184 194.08 252.741 197.428 249.825 201.178C245.079 207.254 241.76 214.229 239.93 221.885C239.899 221.978 239.868 222.071 239.775 222.133C235.587 225.698 231.958 229.821 228.918 234.377C225.413 239.709 222.807 245.599 221.225 251.798C221.163 251.984 221.008 252.139 220.822 252.139C220.636 252.17 220.45 252.046 220.357 251.86C217.379 245.32 213.316 239.43 208.259 234.439C199.202 225.419 188.997 221.203 182.048 219.281L172.867 217.793C168.648 217.111 164.337 216.77 160.056 216.801L113.372 217.142C113.341 217.142 113.31 217.142 113.31 217.142C110.891 216.77 108.44 216.77 106.021 217.142C100.748 217.917 97.0565 220.149 95.3195 221.42C93.0551 223.063 91.0078 225.295 89.1777 228.085C83.7184 236.392 83.2531 245.537 83.005 250.434C82.5707 258.866 83.7804 267.328 86.6032 275.574C86.6342 275.667 86.6342 275.791 86.6032 275.884C84.773 281.154 83.9976 286.64 84.2767 292.158C84.6179 298.698 86.5101 305.177 89.7361 310.912C94.482 310.943 99.2279 310.943 103.974 310.943C113.466 310.974 123.268 310.974 132.883 311.067H132.976C147.059 311.16 161.607 311.284 175.938 311.222C176.775 306.262 177.644 301.085 178.481 296.064C179.35 290.918 180.218 285.617 181.087 280.534C181.118 280.317 181.304 280.162 181.49 280.162C181.707 280.131 181.893 280.255 181.955 280.472C184.251 286.454 187.446 292.003 191.385 296.963C197.372 304.464 205.251 310.633 214.122 314.755L214.277 314.693L214.37 314.538C214.463 314.445 214.649 314.352 214.804 314.352Z" fill="black"/>
<path d="M304.914 164.229C310.395 164.229 314.84 159.787 314.84 154.31C314.84 148.833 310.395 144.391 304.914 144.391C299.433 144.391 294.988 148.833 294.988 154.31C294.988 159.787 299.433 164.229 304.914 164.229Z" fill="#FF6EC1"/>
<path d="M304.915 164.695C299.176 164.695 294.523 160.045 294.523 154.31C294.523 148.575 299.176 143.926 304.915 143.926C310.653 143.926 315.306 148.575 315.306 154.31C315.306 160.045 310.653 164.695 304.915 164.695ZM304.915 144.856C299.704 144.856 295.454 149.102 295.454 154.31C295.454 159.518 299.704 163.765 304.915 163.765C310.126 163.765 314.376 159.518 314.376 154.31C314.376 149.102 310.126 144.856 304.915 144.856Z" fill="black"/>
<path d="M145.988 176.684C146.065 175.934 145.519 175.264 144.769 175.186C144.02 175.112 143.35 175.658 143.273 176.405C143.196 177.155 143.742 177.824 144.492 177.902C145.242 177.979 145.912 177.434 145.988 176.684Z" fill="black"/>
<path d="M152.829 184.502C151.743 185.06 150.595 185.339 149.385 185.401C147.431 185.494 145.88 184.843 144.919 184.316C144.702 184.192 144.422 184.254 144.298 184.502C144.174 184.719 144.236 184.998 144.484 185.122C145.477 185.68 147.059 186.331 149.075 186.331C149.199 186.331 149.323 186.331 149.448 186.331C150.781 186.269 152.053 185.928 153.263 185.339C153.48 185.215 153.573 184.936 153.48 184.719C153.325 184.471 153.046 184.378 152.829 184.502Z" fill="black"/>
<path d="M118.396 185.959C118.241 185.742 117.931 185.711 117.745 185.866C117.528 186.021 117.497 186.331 117.652 186.517L122.025 192.159C122.118 192.283 122.242 192.345 122.398 192.345C122.491 192.345 122.584 192.314 122.677 192.252C122.894 192.097 122.925 191.787 122.77 191.601L118.396 185.959Z" fill="black"/>
<path d="M142.624 210.695C142.748 209.022 142.841 207.348 142.965 205.674L139.615 205.891C135.149 205.953 130.713 206.046 126.246 206.108C130.372 207.069 134.466 208.03 138.592 208.96C138.933 209.487 139.274 210.045 139.615 210.571C140.639 210.602 141.631 210.695 142.624 210.695Z" fill="black"/>
<path d="M124.663 169.963L112.255 174.334C112.007 174.427 111.883 174.675 111.976 174.923C112.038 175.109 112.224 175.233 112.41 175.233C112.473 175.233 112.504 175.233 112.566 175.202L124.973 170.831C125.221 170.738 125.345 170.49 125.252 170.242C125.159 170.025 124.911 169.901 124.663 169.963Z" fill="black"/>
<path d="M220.946 251.271C220.729 251.209 220.512 251.302 220.418 251.488L213.47 263.825C213.346 264.042 213.408 264.321 213.656 264.445C213.905 264.569 214.153 264.507 214.277 264.259L220.263 253.627L219.581 267.824C219.581 268.072 219.767 268.289 220.015 268.32C220.015 268.32 220.015 268.32 220.046 268.32C220.294 268.32 220.512 268.134 220.512 267.886L221.287 251.736C221.287 251.519 221.132 251.333 220.946 251.271Z" fill="black"/>
<path d="M169.578 259.548C169.454 259.331 169.175 259.269 168.927 259.393C168.71 259.517 168.648 259.796 168.772 260.044L175.937 272.164C176.216 276.628 176.061 283.448 173.456 291.135C169.857 301.737 163.498 308.463 160.148 311.563C165.546 311.625 170.912 311.687 176.309 311.78C178.015 301.582 179.752 291.352 181.458 281.154C181.489 281.154 181.521 281.154 181.521 281.154C181.614 281.154 181.676 281.123 181.769 281.092C181.986 280.968 182.048 280.689 181.924 280.441L169.578 259.548Z" fill="black"/>
<path d="M86.5717 275.605C86.4787 275.357 86.1995 275.233 85.9824 275.357C85.7342 275.45 85.6101 275.729 85.7342 275.946L89.7047 286.083C89.7667 286.269 89.9528 286.393 90.1389 286.393C90.201 286.393 90.263 286.393 90.294 286.362C90.5422 286.269 90.6662 285.99 90.5422 285.773L86.5717 275.605Z" fill="black"/>
<path d="M239.649 221.359C239.401 221.266 239.153 221.39 239.06 221.638L234.779 233.975C234.686 234.223 234.81 234.471 235.058 234.564C235.12 234.595 235.151 234.595 235.213 234.595C235.399 234.595 235.585 234.471 235.647 234.285L239.928 221.948C240.021 221.731 239.897 221.452 239.649 221.359Z" fill="black"/>
<path d="M281.837 233.23C281.589 233.199 281.34 233.385 281.34 233.664L279.914 249.349C279.883 249.597 280.069 249.845 280.348 249.845H280.379C280.627 249.845 280.813 249.659 280.844 249.411L282.271 233.726C282.271 233.478 282.085 233.23 281.837 233.23Z" fill="black"/>
<path d="M260.432 275.016C260.183 275.016 259.966 275.202 259.935 275.45L258.974 290.174C258.943 290.422 259.16 290.639 259.408 290.67H259.439C259.687 290.67 259.873 290.484 259.904 290.236L260.866 275.512C260.897 275.233 260.68 275.016 260.432 275.016Z" fill="black"/>
</g>
<defs>
<clipPath id="clip0">
<rect width="433" height="353" fill="white"/>
</clipPath>
</defs>
</svg>
