<svg width="438" height="390" fill="none" xmlns="http://www.w3.org/2000/svg"><path d="M326.104 86.993L312.28 129.47l-26.055-14.606c-5.766-3.23-9.011-.677-7.216 5.682l15.6 55.252-33.051 16.939c-4.744 2.434-4.744 6.41 0 8.843l33.057 16.939-15.6 55.252c-1.794 6.36 1.45 8.912 7.217 5.682l26.048-14.612 13.824 42.483c2.598 7.99 6.852 7.99 9.456 0l13.824-42.477 26.055 14.606c5.767 3.23 9.011.678 7.216-5.682l-15.6-55.252 33.057-16.939c4.744-2.433 4.744-6.409 0-8.843l-33.057-16.939 15.6-55.252c1.795-6.359-1.449-8.912-7.216-5.682l-26.055 14.606-13.824-42.477c-2.598-7.99-6.852-7.99-9.456 0z" fill="#171717"/><path d="M.477 151.693v150.743c0 7.203 5.847 13.047 13.054 13.047h246.241c7.207 0 13.055-5.844 13.055-13.047 0-3.941-1.768-7.678-4.862-10.158l-32.705-26.466c-10.097-8.188-15.978-20.452-15.978-33.464v-80.655c0-7.203-5.848-13.046-13.055-13.046H13.497c-7.173-.034-13.02 5.843-13.02 13.046z" fill="#fff"/><path d="M259.805 315.992H13.565C6.085 315.992 0 309.91 0 302.436V151.692c0-7.474 6.085-13.555 13.565-13.555h192.729c7.479 0 13.565 6.081 13.565 13.555v80.689c0 12.91 5.745 24.937 15.775 33.057l32.705 26.466a13.485 13.485 0 015.031 10.532c0 7.474-6.085 13.556-13.565 13.556zm-246.24-176.87c-6.936 0-12.545 5.64-12.545 12.536v150.778c0 6.931 5.643 12.537 12.545 12.537h246.24c6.936 0 12.545-5.64 12.545-12.537 0-3.805-1.699-7.372-4.657-9.751l-32.705-26.465c-10.268-8.324-16.149-20.657-16.149-33.839v-80.689c0-6.93-5.644-12.536-12.545-12.536H13.564v-.034z" fill="#000"/><path d="M38.791 315.415c12.715-.238 25.464-.476 38.179-.679 13.802-16.92 27.571-33.839 41.374-50.724a76.38 76.38 0 00-8.669-15.119c-4.42-5.945-9.723-9.852-13.463-12.944-6.29 7.407-12.579 14.813-18.902 22.219-12.851 19.094-25.668 38.187-38.519 57.247z" fill="#FF6EC1"/><path d="M38.79 315.926c-.17 0-.373-.102-.441-.272-.102-.17-.068-.374.034-.544l38.552-57.247.034-.033 18.903-22.22a.527.527 0 01.714-.068c.51.442 1.088.884 1.665 1.326 3.604 2.888 8.092 6.489 11.899 11.687 3.468 4.722 6.426 9.818 8.738 15.22a.542.542 0 01-.068.51l-41.443 50.757a.81.81 0 01-.374.204l-38.212.68zm38.927-57.451l-37.974 56.432 36.988-.68 41.035-50.316a74.184 74.184 0 00-8.499-14.745c-3.74-5.062-8.194-8.629-11.73-11.483-.441-.34-.85-.679-1.257-1.019l-18.563 21.811z" fill="#000"/><path d="M104.983 259.629a80.205 80.205 0 01-12.374-.136 76.644 76.644 0 01-19.005-4.179c-.374-.577-1.02-1.8-1.054-3.397-.068-3.194 2.38-5.198 2.72-5.47-.102-1.834-.034-5.707 2.278-9.513 3.603-5.945 11.287-9.444 18.154-7.644 5.542 1.461 8.499 5.776 9.315 7.067 6.562 9.92.374 22.423-.034 23.272z" fill="#349948"/><path d="M99.68 260.308c-2.38 0-4.76-.102-7.105-.306-6.493-.577-12.953-2.004-19.14-4.178a.529.529 0 01-.272-.204 6.969 6.969 0 01-1.122-3.636c-.068-2.989 1.938-5.028 2.686-5.707-.103-2.48.237-6.082 2.345-9.547 3.808-6.285 11.865-9.649 18.733-7.848 2.651.713 6.493 2.514 9.621 7.27 6.765 10.227.238 23.205-.034 23.748a.442.442 0 01-.408.272c-1.734.068-3.536.136-5.304.136zm-25.735-5.402a77.187 77.187 0 0018.732 4.077c3.978.374 7.989.408 12.001.17.918-1.903 5.983-13.386-.034-22.457-2.958-4.485-6.528-6.183-9.043-6.829-6.46-1.699-14.007 1.495-17.61 7.407-2.04 3.363-2.313 6.862-2.21 9.207 0 .169-.069.305-.205.441-.442.34-2.55 2.209-2.515 5.062.034 1.19.476 2.243.884 2.922z" fill="#000"/><path d="M114.604 231.398l22.438 4.077c3.468 4.416 9.86 14.031 8.534 25.107-.374 3.193-1.36 6.115-1.87 7.678-2.516 7.576-6.358 13.216-9.519 16.987a20.49 20.49 0 017.547 4.688 20.868 20.868 0 015.474 9.105 31.964 31.964 0 015.201 6.49 31.459 31.459 0 013.672 9.071H75.848a25.838 25.838 0 013.127-8.29c2.006-3.431 4.352-5.708 5.984-7.033.578-1.8 1.836-4.824 4.42-7.814a22.314 22.314 0 017.887-5.741c-.714-.34-4.488-2.141-6.052-6.557-1.292-3.602-.34-6.693 0-7.645-2.584-2.853-3.841-5.605-4.487-7.44-3.536-9.988.884-21.71 8.329-27.349 2.006-1.529 3.91-2.311 5.542-2.99 5.643-2.344 10.845-2.514 14.006-2.344z" fill="#349948"/><path d="M156.08 315.144H75.847a.627.627 0 01-.408-.17.444.444 0 01-.102-.407 26.778 26.778 0 013.162-8.46c1.564-2.684 3.603-5.062 5.983-7.067.952-2.921 2.482-5.537 4.488-7.848a23.171 23.171 0 017.105-5.435c-1.564-.918-4.148-2.888-5.405-6.388-1.156-3.227-.612-6.115-.102-7.678-1.972-2.242-3.434-4.722-4.386-7.372-3.74-10.6 1.394-22.525 8.5-27.927 2.073-1.563 4.045-2.412 5.643-3.058 4.453-1.868 9.247-2.684 14.245-2.412h.068l22.438 4.077a.495.495 0 01.306.204c4.623 5.911 9.859 15.118 8.635 25.481-.374 3.159-1.36 6.081-1.87 7.644l-.034.136c-1.972 5.979-5.066 11.585-9.145 16.613 2.618 1.053 5.065 2.616 7.071 4.553 3.264 3.159 4.828 6.727 5.576 9.207a32.061 32.061 0 015.201 6.523 31.246 31.246 0 013.74 9.241.54.54 0 01-.102.441c-.068 0-.204.102-.374.102zm-79.587-1.019h78.975a31.286 31.286 0 00-3.468-8.324 30.93 30.93 0 00-5.133-6.387.548.548 0 01-.136-.238 20.535 20.535 0 00-5.338-8.901 20.77 20.77 0 00-7.377-4.586c-.17-.068-.272-.17-.306-.34a.59.59 0 01.102-.476c4.25-5.062 7.411-10.736 9.417-16.817l.034-.136c.51-1.529 1.462-4.383 1.836-7.44 1.19-9.921-3.842-18.822-8.295-24.598l-22.2-4.043c-4.828-.237-9.486.544-13.769 2.345-1.632.679-3.434 1.427-5.406 2.921-6.833 5.165-11.729 16.614-8.16 26.772.919 2.616 2.415 5.062 4.386 7.271.136.136.17.339.103.509-.476 1.359-1.122 4.145 0 7.305 1.427 4.009 4.793 5.809 5.813 6.285.17.068.306.272.306.476 0 .203-.136.373-.306.475-2.924 1.257-5.61 3.228-7.717 5.606-1.938 2.242-3.4 4.79-4.318 7.644a.61.61 0 01-.17.238c-2.346 1.937-4.352 4.247-5.881 6.897a22.605 22.605 0 00-2.992 7.542z" fill="#000"/><path d="M114.91 289.323h-1.326c-5.609-.136-11.151-1.189-16.488-3.092-.272-.102-.408-.373-.306-.645.102-.272.374-.408.646-.306a51.46 51.46 0 0016.148 3.024 51.385 51.385 0 0020.534-3.703.503.503 0 01.646.271c.102.238-.034.544-.272.646a51.783 51.783 0 01-19.582 3.805z" fill="#000"/><mask id="a" maskUnits="userSpaceOnUse" x="0" y="138" width="273" height="177"><path d="M.477 151.046V301.79c0 7.203 5.847 13.046 13.054 13.046h246.241c7.207 0 13.055-5.843 13.055-13.046 0-3.941-1.768-7.678-4.862-10.158l-32.705-26.466c-10.097-8.188-15.978-20.453-15.978-33.465v-80.655c0-7.202-5.848-13.046-13.055-13.046H13.497c-7.173-.034-13.02 5.844-13.02 13.046z" fill="#fff"/></mask><g mask="url(#a)"><path d="M199.36 286.912l-52.968-53.306c-4.113-4.145-10.403-5.47-15.74-3.092a13.938 13.938 0 00-5.168 3.975c-.068.068-.102.136-.17.204l-.306.408c-5.235 6.897-4.691 16.579 1.156 22.967 14.517 15.933 29.034 31.901 43.55 47.835-25.905 26.5-46.338 44.337-52.593 47.463a8.288 8.288 0 01-.578.271c-3.774 1.767-7.955 2.447-12.103 2.141-1.734-.136-3.468-.034-5.202.238l-47.051 5.979c-3.264.51-5.61 3.364-5.44 6.659.17 3.635 2.686 7.916 6.323 7.644l20.5-1.427-18.902 18.075c-1.904 1.8-2.72 4.518-1.972 6.998.238.782.578 1.495 1.088 2.141 1.054 1.393 2.618 2.276 4.318 2.616 2.482.475 4.998-.476 6.697-2.345 3.978-4.348 7.99-8.697 11.967-13.08.102 2.65 1.394 3.704 3.332 5.504 3.536 3.228 7.037 6.489 10.573 9.717 2.788 2.548 7.105 2.344 9.655-.442 2.55-2.786 2.346-7.1-.442-9.649l-7.071-5.877 30.461-1.835c-5.541 6.218-10.301 11.042-15.638 16.953-2.958 3.262-2.584 8.46.952 11.076.102.102.238.17.374.238a8.006 8.006 0 006.119 1.155c1.734-.34 3.264-1.359 4.318-2.786a437.416 437.416 0 0139.946-45.152 447.231 447.231 0 0138.961-34.144c7.207-5.606 11.525-14.201 11.457-23.306 0-.272 0-.544-.034-.85-.476-12.944-8.533-21.2-10.369-22.966z" fill="#FF6EC1"/><path d="M113.381 416.862a8.472 8.472 0 01-4.726-1.427c-.136-.102-.272-.17-.374-.272a7.824 7.824 0 01-3.128-5.503 8.148 8.148 0 012.074-6.32c2.346-2.582 4.624-4.994 6.8-7.338a603.718 603.718 0 008.023-8.697l-27.946 1.664 6.086 5.029a7.388 7.388 0 012.414 5.096 7.258 7.258 0 01-1.904 5.3 7.162 7.162 0 01-5.1 2.378c-1.972.068-3.841-.578-5.303-1.903l-10.811-9.954c-1.53-1.427-2.72-2.514-3.128-4.485l-11.22 12.265c-1.835 2.038-4.589 2.99-7.173 2.48-1.903-.374-3.535-1.359-4.623-2.82a7.026 7.026 0 01-1.156-2.31c-.782-2.616.068-5.572 2.108-7.508l17.882-17.089-19.106 1.359c-1.36.101-2.72-.374-3.842-1.427-1.7-1.529-2.89-4.179-2.992-6.727-.17-3.534 2.38-6.625 5.882-7.169l47.052-5.979c1.768-.272 3.57-.374 5.303-.238 4.216.306 8.33-.442 11.865-2.106.204-.102.374-.17.578-.272 5.95-2.99 25.736-20.079 52.118-47.021l-43.21-47.462c-6.052-6.659-6.528-16.579-1.156-23.612l.306-.408.17-.204c1.462-1.8 3.263-3.193 5.371-4.111 5.44-2.446 12.001-1.155 16.319 3.194l52.967 53.306c3.026 2.921 10.063 11.075 10.471 23.408 0 .272 0 .577.034.849.068 9.105-4.283 17.973-11.661 23.714-13.565 10.567-26.653 22.016-38.892 34.111-14.245 14.065-27.674 29.218-39.879 45.084-1.19 1.528-2.822 2.582-4.623 2.955-.714.102-1.292.17-1.87.17zm9.859-30.645c.204 0 .374.102.442.272.102.17.068.408-.068.578-3.128 3.499-6.052 6.625-8.873 9.648-2.176 2.345-4.454 4.757-6.8 7.339a7.105 7.105 0 00-1.802 5.504c.204 1.936 1.156 3.635 2.72 4.79.102.068.238.17.34.238 1.7 1.121 3.74 1.495 5.746 1.087 1.563-.306 2.991-1.257 4.011-2.582a446.9 446.9 0 0139.981-45.22 443.517 443.517 0 0138.994-34.178c7.106-5.538 11.321-14.099 11.253-22.899v-.815c-.408-11.959-7.241-19.841-10.165-22.695l-52.967-53.305c-4.012-4.043-10.131-5.233-15.163-2.99a13.788 13.788 0 00-4.997 3.839l-.17.204c-.102.136-.204.238-.306.373-5.066 6.659-4.59 16.036 1.122 22.322l43.55 47.835c.17.204.17.51 0 .714-26.62 27.247-46.678 44.54-52.73 47.564l-.612.306c-3.705 1.732-7.989 2.48-12.374 2.174a23.524 23.524 0 00-5.1.238l-47.052 5.979a5.91 5.91 0 00-4.998 6.116c.102 2.31 1.156 4.654 2.652 6.013.952.85 2.006 1.223 3.094 1.155l20.5-1.427c.204-.034.408.102.51.306a.512.512 0 01-.102.578l-18.902 18.074c-1.768 1.699-2.516 4.247-1.836 6.489.204.714.544 1.393.986 1.971.952 1.257 2.38 2.106 4.011 2.412 2.21.441 4.624-.408 6.222-2.175l11.967-13.08c.136-.136.374-.203.544-.136a.47.47 0 01.34.442c.102 2.31 1.156 3.296 2.924 4.926l10.81 9.955a6.274 6.274 0 004.556 1.665 6.281 6.281 0 004.386-2.039 6.264 6.264 0 001.666-4.552 6.272 6.272 0 00-2.04-4.383l-7.038-5.844c-.17-.136-.237-.339-.17-.543a.47.47 0 01.442-.34l30.496-1.903s-.034 0 0 0z" fill="#000"/></g><path d="M119.262 252.02c2.006 3.16 4.963 4.688 6.561 5.368 4.114.238 9.043.17 14.551-.68 11.423-1.8 20.092-6.217 25.532-9.614-4.964-3.398-9.893-6.761-14.857-10.159-.374-1.8-1.462-5.503-4.692-8.595-5.099-4.858-13.496-6.081-19.514-2.616-4.216 2.412-5.915 6.353-7.139 9.241" fill="#349948"/><path d="M129.902 258.033c-1.394 0-2.753-.034-4.147-.136-.068 0-.102 0-.17-.034-2.924-1.257-5.27-3.159-6.766-5.571a.544.544 0 01.17-.714.544.544 0 01.714.17c1.394 2.208 3.536 3.975 6.256 5.13 4.793.272 9.621.068 14.346-.679 8.704-1.359 16.999-4.451 24.682-9.139l-14.21-9.717a.495.495 0 01-.204-.306c-.51-2.31-1.7-5.606-4.556-8.323-4.998-4.757-13.157-5.844-18.936-2.515-4.08 2.345-5.712 6.184-6.936 9.004-.102.271-.408.373-.68.271-.272-.102-.374-.407-.272-.679 1.258-2.956 2.992-6.965 7.378-9.479 6.153-3.533 14.822-2.412 20.126 2.684 2.958 2.82 4.25 6.217 4.793 8.663l14.687 10.023a.581.581 0 01.238.442.471.471 0 01-.238.407c-7.989 4.994-16.624 8.256-25.702 9.717a73.53 73.53 0 01-10.573.781z" fill="#000"/><path d="M83.905 209.789l-2.89 5.742c-1.156 2.276.306 5.028 2.822 5.402l16.726 2.378-16.658-13.522z" fill="#F9D84E"/><path d="M100.597 223.821h-.068l-16.726-2.379a4.256 4.256 0 01-3.162-2.242 4.212 4.212 0 01-.034-3.873l2.89-5.742a.535.535 0 01.34-.271.544.544 0 01.442.101l16.658 13.522c.17.136.238.374.136.612-.102.136-.306.272-.476.272zm-16.522-13.25l-2.584 5.198c-.476.951-.476 2.004.034 2.955.476.952 1.36 1.563 2.414 1.699l14.89 2.141-14.754-11.993z" fill="#000"/><path d="M90.025 193.516l-5.1.203c-2.686.102-5.167 1.733-6.153 4.247-.544 1.393-.68 3.024-.17 4.587l.544 1.766c1.02 3.262 4.283 5.3 7.649 4.757 1.02-.17 2.074-.34 3.094-.51" fill="#FF6EC1"/><path d="M85.74 209.653c-3.195 0-6.118-2.073-7.07-5.198l-.544-1.767a7.425 7.425 0 01.17-4.926c1.053-2.65 3.637-4.451 6.595-4.553l5.1-.204c.272-.034.51.204.543.476a.549.549 0 01-.475.543l-5.1.204c-2.55.102-4.794 1.631-5.712 3.907a6.282 6.282 0 00-.17 4.247l.544 1.767c.952 2.989 3.978 4.892 7.106 4.382l3.094-.509c.272-.034.544.136.578.408.034.271-.136.543-.409.577l-3.093.51a4.476 4.476 0 01-1.156.136z" fill="#000"/><path d="M121.301 186.245c-2.448-2.752-5.168-4.621-7.582-5.878-6.799.544-13.598 1.121-20.364 1.665a16.638 16.638 0 00-5.1 6.047c-.135 3.466-1.631 5.3-1.7 6.761-4.657 8.901-3.297 18.992 2.72 24.462 4.862 4.45 11.22 4.348 13.055 4.28.306 4.689.544 4.927.816 9.004a33.381 33.381 0 00-8.43 8.799 32.983 32.983 0 00-4.76 11.551l7.649.408c6.391.34 12.341-3.058 15.367-8.698l.102-.203c2.821-5.232 5.983-9.241 8.703-12.129.034-1.223.068-1.937.068-2.412 0-.136.034-.816.068-1.733 0-.102 0-.068.068-1.733.068-1.189.136-3.601.238-5.775l5.303-6.999c.544-2.446 3.06-16.919-6.221-27.417z" fill="#FF6EC1"/><path d="M98.49 253.888c-.307 0-.579 0-.885-.034l-7.649-.408a.471.471 0 01-.374-.203.447.447 0 01-.102-.408 33.182 33.182 0 014.828-11.721 34.06 34.06 0 018.329-8.766c-.136-1.732-.238-2.752-.374-3.737a67.936 67.936 0 01-.408-4.518c-2.72.068-8.465-.374-12.919-4.417-6.323-5.776-7.513-16.002-2.89-24.971.034-.612.306-1.291.578-2.039.442-1.155 1.02-2.616 1.088-4.62 0-.068.034-.136.068-.204 1.19-2.446 3.026-4.62 5.236-6.251a.386.386 0 01.272-.102l20.364-1.665c.102 0 .204 0 .272.068a26.967 26.967 0 017.717 6.014c8.942 10.09 7.174 23.884 6.426 27.858 0 .068-.034.136-.102.204l-5.236 6.897c-.068 1.155-.102 2.344-.136 3.364a97.51 97.51 0 01-.102 2.242c-.068 1.223-.068 1.529-.068 1.631v.102c-.034.679-.068 1.223-.068 1.528v.204a41.68 41.68 0 00-.068 2.378c0 .136-.068.238-.136.34-3.365 3.635-6.289 7.678-8.601 12.027l-.102.17c-2.958 5.572-8.737 9.037-14.959 9.037zm-7.888-1.427l7.071.374c6.154.34 11.967-2.99 14.891-8.426l.102-.204c2.346-4.382 5.27-8.425 8.635-12.094.034-.918.034-1.665.068-2.243v-.204c0-.305.034-.849.068-1.528v-.102c0-.136.034-.442.068-1.665a97.51 97.51 0 00.102-2.242c.034-1.088.102-2.345.136-3.534 0-.102.034-.204.102-.271l5.236-6.897c.748-4.009 2.38-17.225-6.188-26.874a26.324 26.324 0 00-7.309-5.708l-20.092 1.665a15.98 15.98 0 00-4.76 5.674c-.102 2.14-.68 3.635-1.156 4.858-.272.748-.51 1.325-.544 1.801a.483.483 0 01-.068.204c-4.487 8.561-3.4 18.38 2.618 23.85 4.488 4.077 10.37 4.246 12.681 4.144a.55.55 0 01.544.476c.17 2.48.306 3.737.442 4.96.136 1.054.238 2.141.374 4.077 0 .17-.068.34-.204.442a31.952 31.952 0 00-8.295 8.663 33.196 33.196 0 00-4.522 10.804z" fill="#000"/><path d="M119.703 209.992c.034.102-.034.102-.034.204-.51 2.854-.272 5.164.34 7.033a5.503 5.503 0 005.746 3.805c4.181-.374 8.363-.781 12.545-1.155 2.651-.238 4.147-3.194 2.753-5.47-2.889-4.688-5.643-10.362-7.547-16.953a58.719 58.719 0 01-1.326-5.368v-.544c0-1.019.136-2.038.374-3.023.51-2.005 1.054-6.048-1.394-9.615-2.448-3.601-5.575-5.436-9.791-4.723-1.734.272-3.502.238-5.168-.237-13.428-3.975-25.157-.952-28.217 5.3-.476.985-2.516 3.567-1.666 7.95.306 1.528.306 2.65.476 4.212.102.884.34 2.243.17 3.126 3.298-2.82 5.541-5.674 8.84-8.494a18.108 18.108 0 003.739 3.398c7.887 5.3 17.78 6.285 19.888 5.606-.68 10.668-.374 12.06.272 14.948z" fill="#F9D84E"/><path d="M125.211 221.578a6.007 6.007 0 01-5.711-4.179c-.714-2.209-.816-4.655-.374-7.305 0-.034 0-.068.034-.102-.612-2.751-.918-4.28-.34-14.337-3.23.408-12.273-.883-19.617-5.809-1.292-.85-2.448-1.903-3.501-3.092-1.462 1.291-2.754 2.616-4.012 3.873-1.36 1.393-2.788 2.854-4.454 4.281-.17.136-.408.17-.578.068-.204-.102-.272-.34-.238-.544.136-.611 0-1.529-.102-2.31-.034-.238-.068-.476-.068-.679-.034-.442-.068-.85-.102-1.224-.068-.985-.136-1.834-.374-2.921-.748-3.941.748-6.523 1.462-7.78.102-.204.204-.34.272-.476 3.366-6.931 16.047-9.377 28.83-5.572 1.496.442 3.161.51 4.929.238 4.182-.68 7.548.917 10.301 4.926 2.55 3.703 2.006 7.882 1.496 10.023-.238.985-.374 1.936-.374 2.887v.476a92.598 92.598 0 001.292 5.3 68.74 68.74 0 007.48 16.817 4.107 4.107 0 01.17 4.009c-.646 1.291-1.87 2.141-3.298 2.243l-12.545 1.155c-.17.034-.374.034-.578.034zm-5.814-27.078c.102 0 .238.034.306.102a.548.548 0 01.204.442c-.645 10.634-.34 12.027.306 14.813.034.203 0 .339-.034.407-.442 2.48-.34 4.757.34 6.795.714 2.242 2.856 3.669 5.202 3.431l12.545-1.155a3.077 3.077 0 002.482-1.698 3.094 3.094 0 00-.136-3.024 69.738 69.738 0 01-7.616-17.089 70.426 70.426 0 01-1.326-5.436v-.645c0-1.02.136-2.073.408-3.126.51-1.971.986-5.81-1.325-9.207-2.516-3.669-5.542-5.13-9.282-4.519-1.938.306-3.739.238-5.405-.272-13.769-4.076-24.852-.645-27.606 5.063-.068.136-.17.339-.306.543-.714 1.223-2.006 3.5-1.326 7.101.204 1.121.306 2.072.374 3.024.034.373.068.781.102 1.223.034.203.034.407.068.645.068.442.102.917.136 1.359 1.258-1.155 2.38-2.31 3.502-3.431 1.36-1.393 2.788-2.854 4.454-4.281a.511.511 0 01.374-.136c.136 0 .272.068.34.17a15.907 15.907 0 003.637 3.295c7.786 5.232 17.509 6.184 19.447 5.538.033.102.068.068.135.068z" fill="#000"/><path d="M117.697 195.248c1.7-.136 3.4-.238 5.1-.374 2.686-.204 5.303 1.121 6.595 3.499.714 1.325 1.02 2.922.714 4.519l-.34 1.801a6.808 6.808 0 01-2.482 4.11c-1.359 1.088-2.855 1.258-4.589 1.495a17.032 17.032 0 01-3.944.034" fill="#FF6EC1"/><path d="M120.622 210.979a18.5 18.5 0 01-1.938-.102.508.508 0 01-.442-.577.509.509 0 01.578-.442c1.258.136 2.55.136 3.808-.034h.136c1.597-.204 2.991-.408 4.215-1.359a6.56 6.56 0 002.312-3.805l.34-1.801c.272-1.461.034-2.888-.646-4.213-1.156-2.14-3.57-3.431-6.119-3.227l-5.1.374c-.272.034-.51-.204-.544-.476-.034-.272.204-.51.476-.544l5.1-.373c2.957-.204 5.745 1.257 7.071 3.771a7.112 7.112 0 01.748 4.858l-.34 1.801c-.34 1.732-1.292 3.329-2.652 4.416-1.428 1.156-3.026 1.359-4.691 1.563h-.136c-.748.102-1.462.17-2.176.17z" fill="#000"/><path d="M98.32 202.248l-2.923.102a2.187 2.187 0 00-1.938 2.582c.204 1.121 1.224 1.869 2.38 1.767l3.603-.17" fill="#FF6EC1"/><path d="M247.756 148.018h-88.393v54.019h88.393v-54.019z" fill="#F9D84E"/><path d="M247.756 202.546h-88.393a.522.522 0 01-.509-.51v-54.019c0-.271.237-.509.509-.509h88.393c.272 0 .51.238.51.509v54.019c0 .272-.238.51-.51.51zm-87.883-1.019h87.373v-53h-87.373v53z" fill="#000"/><path d="M159.363 148.018l44.196 26.839 44.197-26.839" fill="#fff"/><path d="M203.559 175.368c-.102 0-.17-.034-.272-.068l-44.196-26.84c-.238-.135-.306-.475-.17-.713.136-.238.476-.306.714-.17l43.924 26.67 43.924-26.67a.544.544 0 01.714.17c.17.238.068.544-.17.713l-44.196 26.84a1.051 1.051 0 01-.272.068z" fill="#000"/><path d="M159.363 202.037l44.196-27.18 44.197 27.18" fill="#F9D84E"/><path d="M247.755 202.547c-.102 0-.17-.034-.272-.068l-43.924-27.01-43.924 27.01a.544.544 0 01-.714-.17.543.543 0 01.17-.713l44.196-27.18a.522.522 0 01.544 0l44.196 27.18c.238.136.306.475.17.713a.581.581 0 01-.442.238z" fill="#000"/><path d="M247.756 148.357l-44.197-26.839-44.196 26.839h88.393z" fill="#F9D84E"/><path d="M247.756 148.867h-88.393c-.238 0-.442-.136-.476-.373-.034-.238.034-.442.238-.578l44.196-26.84a.526.526 0 01.544 0l44.197 26.84c.203.102.271.34.237.578-.034.237-.339.373-.543.373zm-86.591-1.019h84.755l-42.361-25.718-42.394 25.718zM84.618 267.544c4.046 2.582 5.712 6.286 6.256 7.645.068-1.359.17-2.684.238-4.043a39.214 39.214 0 01-1.802-2.379c-1.122-1.664-1.938-3.261-2.584-4.654-.408-1.903-.816-3.839-1.258-5.742-2.55-.509-5.1-1.053-7.65-1.562-1.665 2.853-3.365 5.741-5.03 8.595 1.223-.272 6.595-1.189 11.83 2.14zm12.478-53.643c2.482.407 5.474-1.937 5.44-5.436h-9.18c-.17 2.786 1.666 5.062 3.74 5.436zm27.027-14.305a.523.523 0 00-.51.509l-.068 6.082c0 .272.238.509.51.509s.51-.237.51-.509l.068-6.082a.523.523 0 00-.51-.509zm-21.928 23.511c.034 2.31.646 4.688.714 6.998 2.992-.747 5.44-1.291 8.499-2.14 1.394-.374 2.788-.782 4.148-1.155 1.802-.51 2.992-2.141 2.958-4.009a63.326 63.326 0 01-5.644.747c-4.011.306-7.615-.136-10.675-.441zm-8.737-20.181c-.442.611-.646 1.359-.51 2.106.238 1.291 1.36 2.209 2.618 2.209h.272l3.603-.17c.272 0 .51-.238.476-.544a.483.483 0 00-.544-.475l-3.637.169a1.65 1.65 0 01-1.802-1.359c-.102-.475.034-.917.306-1.325a1.612 1.612 0 011.156-.645l2.923-.102c.272 0 .51-.238.476-.544a.484.484 0 00-.544-.475l-2.923.102c-.714.034-1.394.441-1.87 1.053zm10.064-1.121a1.365 1.365 0 001.428-1.291 1.366 1.366 0 00-1.292-1.427 1.366 1.366 0 00-1.428 1.291c-.034.748.544 1.359 1.292 1.427zm-8.875-1.869a1.366 1.366 0 00-1.292-1.427 1.366 1.366 0 00-1.428 1.291 1.365 1.365 0 001.292 1.427c.748.068 1.394-.543 1.428-1.291zm13.192 174.324l-16.557 1.257c-3.977.305-7.547 2.344-9.859 5.571a92.627 92.627 0 00-2.584 3.975c-.883 1.393-1.767 2.854-2.55 3.941-.17.238-.101.544.137.714a.548.548 0 00.306.102c.17 0 .306-.068.408-.204.782-1.121 1.7-2.582 2.583-3.975.884-1.393 1.768-2.854 2.55-3.941a12.413 12.413 0 019.111-5.164l16.557-1.257a.55.55 0 00.476-.544c-.068-.306-.306-.509-.578-.475zm-8.569-8.053a.559.559 0 00.409-.611.56.56 0 00-.612-.408l-18.325 3.737a11.269 11.269 0 00-6.153 3.499l-1.19 1.291a.493.493 0 00.034.714.436.436 0 00.34.136.546.546 0 00.374-.17l1.19-1.291a10.345 10.345 0 015.61-3.16l18.323-3.737zM178.145 304l-8.228.645a.55.55 0 00-.476.544c.034.272.238.476.51.476h.034l8.228-.646a.55.55 0 00.476-.544c-.034-.305-.272-.509-.544-.475zM162.2 249.504a64.64 64.64 0 01-15.809 6.251 64.142 64.142 0 01-20.602 1.665c1.836 0 4.658.034 8.125.068 13.565.204 20.467.34 26.382 1.393 3.808.679 9.349 2.004 15.979 4.858-4.692-4.756-9.384-9.513-14.075-14.235zm-15.164 49.059l-6.493 2.344c-.272.102-.408.374-.306.646.068.204.272.34.476.34.068 0 .102 0 .17-.034l6.493-2.345c.272-.102.408-.373.306-.645-.102-.272-.408-.408-.646-.306zm-54.53-4.654l-7.82 4.96c-.237.136-.305.476-.17.714.103.17.273.238.443.238a.64.64 0 00.272-.068l7.819-4.961c.238-.135.306-.475.17-.713a.544.544 0 00-.714-.17zm47.052-53.611s.034 0 0 0c6.562-.272 11.491-2.82 11.695-2.922.238-.136.34-.442.204-.68-.136-.237-.442-.339-.68-.203-.034.033-4.929 2.548-11.253 2.819a.484.484 0 00-.476.544c0 .238.238.442.51.442zM75.95 246.99h4.317c.272 0 .51-.238.51-.51a.523.523 0 00-.51-.509h-4.318a.523.523 0 00-.51.509c0 .272.238.51.51.51zm15.808 24.973h4.318c.272 0 .51-.238.51-.51a.523.523 0 00-.51-.51h-4.318a.523.523 0 00-.51.51.5.5 0 00.51.51zm38.111-76.648a.431.431 0 00.204.034.513.513 0 00.476-.306l2.243-5.198a.523.523 0 00-.272-.679.523.523 0 00-.679.272l-2.244 5.198a.542.542 0 00.272.679zm-34.507-8.969c.102.136.238.17.408.17a.656.656 0 00.34-.102.526.526 0 00.068-.713l-6.766-8.188a.527.527 0 00-.714-.068.527.527 0 00-.068.714l6.732 8.187z" fill="#000"/></svg>