<svg width="353" height="353" viewBox="0 0 353 353" fill="none" xmlns="http://www.w3.org/2000/svg">
<path d="M284.079 208.218L239.987 201.057L250.434 173.074C252.744 166.881 249.725 164.066 243.715 166.812L191.501 190.683L169.704 160.614C166.573 156.298 162.644 156.906 160.965 161.967L149.284 197.227L92.2951 190.265C85.736 189.465 83.71 193.062 87.7843 198.266L106.211 221.771L66.3432 241.934C58.8449 245.724 59.496 249.928 67.7903 251.279L111.882 258.44L101.435 286.423C99.1256 292.616 102.144 295.431 108.154 292.685L160.368 268.814L182.167 298.89C185.297 303.205 189.227 302.597 190.905 297.536L202.587 262.276L259.575 269.238C266.134 270.038 268.16 266.442 264.086 261.237L245.665 237.725L285.526 217.563C293.024 213.773 292.373 209.569 284.079 208.218Z" fill="#171717"/>
<path d="M337.48 298.094C337.48 304.5 331.722 309.675 324.587 309.675H81.6637C74.5657 309.675 68.7715 304.5 68.7715 298.094V164.264C68.7715 157.859 74.5295 152.684 81.6637 152.684H271.787C278.922 152.684 284.68 157.859 284.68 164.264V235.884C284.68 247.428 290.474 258.321 300.433 265.596L332.699 289.083C335.705 291.29 337.48 294.62 337.48 298.094Z" fill="white"/>
<path d="M324.588 310.254H81.6639C74.24 310.254 68.2285 304.825 68.2285 298.13V164.264C68.2285 157.569 74.24 152.141 81.6639 152.141H271.788C279.211 152.141 285.223 157.569 285.223 164.264V235.884C285.223 247.283 290.872 257.959 300.759 265.161L333.026 288.648C336.212 290.964 338.023 294.402 338.023 298.094C338.023 304.789 331.975 310.254 324.588 310.254ZM81.6639 153.19C74.8557 153.19 69.3149 158.148 69.3149 164.228V298.058C69.3149 304.137 74.8557 309.095 81.6639 309.095H324.588C331.396 309.095 336.937 304.137 336.937 298.058C336.937 294.728 335.271 291.58 332.374 289.481L300.107 265.994C289.967 258.611 284.137 247.609 284.137 235.847V164.264C284.137 158.184 278.596 153.226 271.788 153.226H81.6639V153.19Z" fill="black"/>
<path d="M108.1 309.71H81.6637C74.5657 309.71 68.7715 303.956 68.7715 296.827V260.022L69.5682 256.873L80.6497 288.648L104.334 225.822L108.1 309.71Z" fill="#F9D84E"/>
<path d="M108.1 310.254H81.6639C74.24 310.254 68.2285 304.247 68.2285 296.828V260.023C68.2285 259.987 68.2285 259.951 68.2285 259.878L69.0252 256.73C69.0976 256.513 69.2787 256.332 69.5322 256.332C69.7857 256.332 70.003 256.476 70.0754 256.694L80.6861 287.057L103.827 225.643C103.936 225.389 104.153 225.245 104.406 225.281C104.66 225.317 104.841 225.534 104.877 225.788L108.643 309.675C108.643 309.82 108.607 309.965 108.499 310.073C108.39 310.182 108.281 310.254 108.1 310.254ZM69.3149 260.095V296.828C69.3149 303.632 74.8557 309.169 81.6639 309.169H107.557L103.936 228.538L81.1931 288.866C81.1207 289.083 80.9034 289.228 80.6861 289.228C80.4688 289.228 80.2516 289.083 80.1791 288.866L69.6771 258.793L69.3149 260.095Z" fill="black"/>
<path d="M187.843 199.948C174.081 198.139 155.214 203.314 130.335 205.883C115.705 207.403 104.008 218.622 101.871 233.17C101.871 233.243 101.835 233.351 101.835 233.424C98.829 258.756 95.787 284.089 92.7812 309.422H199.793C204.791 309.386 209.788 309.386 214.786 309.35C216.416 307.034 222.029 298.457 220.435 287.165C219.675 281.845 217.574 277.792 215.981 275.331C219.675 269.034 224.89 257.779 224.817 243.303C224.781 236.934 224.672 217.971 211.527 207.295C205.407 202.337 199.141 201.432 187.843 199.948Z" fill="#F9D84E"/>
<path d="M92.8186 310.001C92.6737 310.001 92.5289 309.928 92.4202 309.82C92.3116 309.711 92.2754 309.567 92.2754 309.386L101.329 233.387L101.365 233.134C103.502 218.332 115.416 206.932 130.3 205.376C139.317 204.435 147.682 203.133 155.07 202.011C168.506 199.948 179.08 198.283 187.916 199.441C198.889 200.889 205.516 201.721 211.962 206.969C225.325 217.789 225.398 237.042 225.434 243.376C225.506 254.341 222.464 265.379 216.706 275.367C218.988 279.022 220.473 282.967 221.052 287.129C222.573 297.95 217.539 306.527 215.294 309.675C215.185 309.82 215.041 309.892 214.86 309.892L199.867 309.965H92.8186V310.001ZM93.398 308.915H199.794L214.534 308.843C216.779 305.586 221.378 297.479 219.93 287.274C219.35 283.184 217.865 279.276 215.584 275.657C215.475 275.476 215.475 275.259 215.584 275.078C221.378 265.162 224.384 254.196 224.348 243.339C224.311 237.151 224.239 218.26 211.274 207.765C205.335 202.952 199.469 202.011 187.771 200.491C179.08 199.369 168.578 200.997 155.215 203.06C147.827 204.218 139.462 205.485 130.409 206.426C116.032 207.91 104.516 218.947 102.452 233.242L102.415 233.496L93.398 308.915Z" fill="black"/>
<path d="M154.02 309.24C157.062 298.093 160.104 286.947 163.146 275.8C164.558 270.589 168.18 266.282 173.069 264.002L184.259 258.755C183.643 255.679 183.028 252.566 182.448 249.49L119.182 265.414C115.307 280.143 111.469 294.908 107.594 309.638C123.057 309.493 138.557 309.384 154.02 309.24Z" fill="#FF6EC1"/>
<path d="M107.557 310.146C107.376 310.146 107.231 310.073 107.122 309.929C107.014 309.784 106.977 309.639 107.014 309.458L118.602 265.234C118.638 265.053 118.819 264.908 119 264.836L182.266 248.913C182.411 248.876 182.556 248.913 182.701 248.985C182.81 249.057 182.918 249.202 182.954 249.347L184.765 258.611C184.801 258.865 184.693 259.118 184.475 259.191L173.285 264.438C168.541 266.682 165.029 270.844 163.689 275.91L154.563 309.349C154.49 309.567 154.273 309.748 154.056 309.748L107.557 310.146ZM119.58 265.849L108.245 309.096L153.585 308.734L162.602 275.693C164.051 270.337 167.781 265.886 172.815 263.533L183.606 258.467L181.977 250.179L119.58 265.849Z" fill="black"/>
<path d="M199.215 284.233C199.432 292.629 199.613 301.025 199.831 309.421C214.063 309.349 228.295 309.24 242.491 309.168C236.37 284.595 230.286 260.022 224.166 235.449L221.378 247.102" fill="#F9D84E"/>
<path d="M173.865 280.144C176.106 280.144 177.921 278.329 177.921 276.09C177.921 273.852 176.106 272.037 173.865 272.037C171.623 272.037 169.809 273.852 169.809 276.09C169.809 278.329 171.623 280.144 173.865 280.144Z" fill="white"/>
<path d="M173.865 280.723C171.33 280.723 169.266 278.661 169.266 276.127C169.266 273.594 171.33 271.531 173.865 271.531C176.4 271.531 178.464 273.594 178.464 276.127C178.464 278.661 176.436 280.723 173.865 280.723ZM173.865 272.581C171.909 272.581 170.352 274.173 170.352 276.091C170.352 278.009 171.945 279.602 173.865 279.602C175.784 279.602 177.378 278.009 177.378 276.091C177.378 274.173 175.82 272.581 173.865 272.581Z" fill="black"/>
<path d="M140.439 272.543C158.34 272.543 172.851 258.042 172.851 240.153C172.851 222.265 158.34 207.764 140.439 207.764C122.538 207.764 108.027 222.265 108.027 240.153C108.027 258.042 122.538 272.543 140.439 272.543Z" fill="#3FD1FF"/>
<path d="M140.439 273.086C122.26 273.086 107.484 258.321 107.484 240.153C107.484 221.986 122.26 207.221 140.439 207.221C158.619 207.221 173.394 221.986 173.394 240.153C173.394 258.321 158.583 273.086 140.439 273.086ZM140.439 208.306C122.875 208.306 108.571 222.601 108.571 240.153C108.571 257.705 122.875 272 140.439 272C158.003 272 172.308 257.705 172.308 240.153C172.308 222.601 158.003 208.306 140.439 208.306Z" fill="black"/>
<path d="M127.8 269.72L123.382 280.541C122.15 283.545 123.925 286.911 127.112 287.598C129.502 288.105 131.892 286.911 132.906 284.703L142.032 264.943" fill="#3FD1FF"/>
<path d="M128.236 288.251C127.838 288.251 127.44 288.214 127.005 288.106C125.339 287.744 123.927 286.695 123.13 285.175C122.334 283.655 122.261 281.917 122.877 280.325L127.295 269.541C127.403 269.251 127.729 269.142 128.019 269.251C128.309 269.36 128.417 269.685 128.309 269.975L123.891 280.759C123.384 282.026 123.456 283.474 124.072 284.704C124.687 285.935 125.846 286.803 127.222 287.093C129.359 287.563 131.496 286.477 132.437 284.487L141.563 264.727C141.672 264.438 141.998 264.329 142.287 264.474C142.577 264.583 142.686 264.908 142.541 265.198L133.415 284.957C132.473 286.984 130.445 288.251 128.236 288.251Z" fill="black"/>
<path d="M170.388 235.848C172.489 236.282 174.263 236.716 176.364 237.15C179.695 237.838 182.411 240.371 183.136 243.737C183.534 245.619 183.317 247.646 182.411 249.491L181.361 251.554C179.406 255.426 174.915 257.272 170.823 255.897C169.555 255.463 168.324 255.064 167.057 254.63L169.121 244.859" fill="#3FD1FF"/>
<path d="M173.576 256.838C172.598 256.838 171.62 256.693 170.679 256.368L166.913 255.101C166.659 255.029 166.514 254.739 166.55 254.486L168.615 244.715C168.687 244.425 168.977 244.244 169.266 244.28C169.556 244.353 169.737 244.642 169.701 244.932L167.745 254.233L171.041 255.354C174.843 256.621 179.117 254.884 180.927 251.301L181.978 249.238C182.847 247.538 183.064 245.692 182.666 243.846C182.014 240.77 179.515 238.381 176.292 237.694C175.242 237.477 174.264 237.26 173.286 237.042C172.308 236.825 171.367 236.608 170.28 236.391C169.991 236.319 169.81 236.029 169.846 235.74C169.918 235.45 170.208 235.269 170.498 235.305C171.548 235.523 172.526 235.74 173.504 235.957C174.481 236.174 175.423 236.391 176.509 236.608C180.131 237.368 182.955 240.119 183.716 243.593C184.15 245.692 183.897 247.791 182.919 249.709L181.869 251.772C180.239 254.956 176.98 256.838 173.576 256.838Z" fill="black"/>
<path d="M110.238 230.527C108.101 230.564 106.254 230.6 104.118 230.636C100.714 230.672 97.5267 232.626 96.1868 235.739C95.4263 237.512 95.209 239.502 95.7884 241.529L96.4041 243.773C97.5629 247.935 101.583 250.613 105.892 250.07C107.196 249.889 108.536 249.744 109.84 249.563L109.731 239.575" fill="#3FD1FF"/>
<path d="M104.805 250.686C100.712 250.686 96.9824 247.935 95.8598 243.918L95.2441 241.675C94.6647 239.612 94.8096 237.477 95.6787 235.522C97.091 232.265 100.423 230.13 104.117 230.094C105.203 230.094 106.181 230.058 107.159 230.058C108.173 230.021 109.15 230.021 110.237 230.021C110.526 230.021 110.78 230.275 110.78 230.564C110.78 230.854 110.526 231.107 110.237 231.107C109.15 231.107 108.173 231.143 107.159 231.143C106.181 231.18 105.167 231.18 104.117 231.18C100.857 231.216 97.924 233.098 96.6565 235.957C95.896 237.694 95.7873 239.539 96.2943 241.385L96.91 243.629C97.9964 247.501 101.799 250.034 105.782 249.564L109.259 249.13L109.15 239.612C109.15 239.322 109.404 239.069 109.694 239.069C109.983 239.069 110.237 239.322 110.237 239.612L110.345 249.6C110.345 249.89 110.128 250.107 109.875 250.143L105.927 250.65C105.565 250.65 105.167 250.686 104.805 250.686Z" fill="black"/>
<path d="M10.6118 191.045L29.9864 239.503C31.9781 244.497 32.9197 234.871 37.7724 232.555L39.3658 231.795C43.9288 229.624 45.9206 224.195 43.8201 219.599L27.7049 183.771C24.9888 177.764 17.0579 176.388 12.4949 181.202C9.99617 183.843 9.27189 187.68 10.6118 191.045Z" fill="#3FD1FF"/>
<path d="M31.1091 241.456C31.0729 241.456 31.0729 241.456 31.0366 241.456C30.2399 241.42 29.8054 240.479 29.4794 239.683L10.1049 191.225C8.69256 187.678 9.48927 183.589 12.0967 180.838C14.342 178.45 17.6374 177.364 20.8605 177.907C24.0835 178.45 26.8358 180.585 28.1757 183.552L44.291 219.38C46.4638 224.23 44.3272 229.984 39.547 232.264L37.9535 233.024C35.8169 234.037 34.4408 236.679 33.4268 238.633C32.5938 240.334 32.0144 241.456 31.1091 241.456ZM11.1189 190.827L30.4934 239.285C30.8194 240.117 31.0366 240.298 31.1091 240.37C31.435 240.226 32.0506 239.031 32.5214 238.127C33.6078 236.064 35.0926 233.205 37.5552 232.047L39.1486 231.287C43.4219 229.26 45.305 224.121 43.3494 219.815L27.2342 183.987C26.0391 181.309 23.6128 179.463 20.7156 178.956C17.8547 178.45 14.9214 179.427 12.8934 181.562C10.5395 184.059 9.8514 187.678 11.1189 190.827Z" fill="black"/>
<path d="M3.11566 233.966L30.3124 262.411C34.0425 266.283 40.2351 266.211 43.8927 262.266L45.0877 260.963C48.4919 257.236 48.3108 251.482 44.6532 247.971L16.2614 220.793C11.4811 216.233 3.62266 217.97 1.19632 224.086C-0.143602 227.524 0.616888 231.36 3.11566 233.966Z" fill="#3FD1FF"/>
<path d="M37.0122 265.849C34.2962 265.849 31.7974 264.763 29.9143 262.809L2.71753 234.364C0.0739081 231.613 -0.722792 227.524 0.689556 223.977C1.88462 220.938 4.52823 218.694 7.71507 217.97C10.9019 217.246 14.2336 218.187 16.6237 220.467L45.0155 247.646C48.8542 251.301 49.0353 257.489 45.4501 261.398L44.255 262.7C42.4081 264.727 39.8731 265.849 37.1209 265.885C37.0847 265.849 37.0484 265.849 37.0122 265.849ZM9.81548 218.838C9.19984 218.838 8.548 218.911 7.93236 219.056C5.07145 219.671 2.75374 221.661 1.66732 224.376C0.43604 227.524 1.12411 231.179 3.47802 233.604L30.6748 262.049C32.3768 263.822 34.6583 264.799 37.0847 264.763C39.5472 264.727 41.7925 263.714 43.4583 261.94L44.6534 260.638C47.8402 257.163 47.6592 251.699 44.255 248.406L15.8632 221.227C14.2336 219.671 12.0607 218.838 9.81548 218.838Z" fill="black"/>
<path d="M9.74252 175.881L29.117 224.339C31.1088 229.333 32.0504 219.707 36.9031 217.391L38.4965 216.631C43.0595 214.459 45.0512 209.031 42.9508 204.435L26.8356 168.607C24.1195 162.6 16.1886 161.224 11.6257 166.038C9.1631 168.679 8.4026 172.516 9.74252 175.881Z" fill="#3FD1FF"/>
<path d="M30.2399 226.292C30.2037 226.292 30.2037 226.292 30.1675 226.292C29.3708 226.256 28.9362 225.315 28.6103 224.519L9.23576 176.061C7.82342 172.514 8.62013 168.425 11.2275 165.674C13.4728 163.286 16.7683 162.2 19.9913 162.743C23.2144 163.286 25.9666 165.421 27.3066 168.388L43.4218 204.216C45.5946 209.066 43.458 214.82 38.6778 217.1L37.0843 217.86C34.9477 218.873 33.5716 221.515 32.5576 223.469C31.7609 225.17 31.1453 226.292 30.2399 226.292ZM10.2498 175.662L29.6243 224.121C29.9502 224.953 30.1675 225.134 30.2399 225.206C30.5658 225.061 31.1815 223.867 31.6522 222.962C32.7387 220.9 34.2234 218.041 36.686 216.883L38.2794 216.123C42.5527 214.096 44.4358 208.957 42.4802 204.65L26.365 168.823C25.1699 166.145 22.7436 164.299 19.8465 163.792C16.9856 163.322 14.0522 164.263 12.0242 166.398C9.70653 168.895 8.98226 172.514 10.2498 175.662Z" fill="black"/>
<path d="M36.2877 273.883C33.6078 268.6 30.6745 261.253 29.1897 252.169C26.2926 234.256 30.7469 219.707 33.5716 212.469L21.6934 179.211C20.4621 175.809 21.3312 172.009 23.9387 169.44C28.6465 164.807 36.5411 166.436 39.0399 172.552L46.2465 190.176C48.1296 194.809 52.4391 205.412 54.3222 210.081C58.0523 219.309 62.8325 231.035 66.5626 240.263L73.6243 259.48C77.2095 269.287 72.5379 280.18 62.9412 284.306C62.8325 284.342 62.7239 284.414 62.6153 284.451C53.6704 288.323 43.2407 285.03 38.0984 276.742L36.2877 273.883Z" fill="#3FD1FF"/>
<path d="M54.7939 286.621C52.7659 286.621 50.7017 286.295 48.7461 285.68C44.1107 284.232 40.1634 281.156 37.6284 277.03L35.8539 274.171C35.8539 274.171 35.8539 274.135 35.8177 274.135C32.305 267.187 29.9148 259.84 28.6836 252.277C26.0037 235.666 29.5527 221.479 33.0292 212.468L21.1872 179.427C19.8835 175.844 20.8251 171.791 23.5412 169.113C25.8951 166.796 29.1906 165.819 32.4136 166.507C35.6367 167.158 38.2803 169.366 39.5478 172.406L46.7544 190.03C48.6375 194.699 52.947 205.266 54.8301 209.935C58.5602 219.163 63.3404 230.889 67.0705 240.117L74.1322 259.334C77.826 269.394 73.0096 280.613 63.1593 284.847L62.8334 284.992C60.2622 286.042 57.5462 286.621 54.7939 286.621ZM36.7593 273.629L38.5338 276.488C43.4951 284.486 53.7437 287.706 62.3626 283.979L62.6885 283.834C71.9956 279.817 76.5585 269.213 73.082 259.696L66.0202 240.479C62.2902 231.287 57.5099 219.525 53.7799 210.297C51.8968 205.664 47.5873 195.061 45.7042 190.392L38.4976 172.768C37.3749 170.054 35.021 168.099 32.1601 167.52C29.2992 166.941 26.3659 167.81 24.2654 169.836C21.8391 172.225 21.0062 175.808 22.165 179.029L34.0794 212.251C34.1157 212.359 34.1157 212.504 34.0794 212.613C30.6029 221.515 27.0539 235.557 29.6975 252.06C30.965 259.551 33.319 266.789 36.7593 273.629Z" fill="black"/>
<path d="M278.24 140.545H184.084V198.087H278.24V140.545Z" fill="#F15922"/>
<path d="M278.241 198.629H184.084C183.795 198.629 183.541 198.376 183.541 198.086V140.545C183.541 140.255 183.795 140.002 184.084 140.002H278.241C278.53 140.002 278.784 140.255 278.784 140.545V198.086C278.784 198.376 278.53 198.629 278.241 198.629ZM184.627 197.544H277.698V141.088H184.627V197.544Z" fill="black"/>
<path d="M231.164 169.677C231.055 169.677 230.983 169.641 230.874 169.605L183.796 141.015C183.542 140.87 183.47 140.508 183.615 140.255C183.76 140.001 184.122 139.929 184.375 140.074L231.164 168.483L277.952 140.074C278.206 139.929 278.532 140.001 278.713 140.255C278.858 140.508 278.785 140.834 278.532 141.015L231.454 169.605C231.345 169.641 231.236 169.677 231.164 169.677Z" fill="black"/>
<path d="M278.242 198.629C278.133 198.629 278.061 198.592 277.952 198.556L231.164 169.785L184.375 198.556C184.122 198.701 183.796 198.629 183.615 198.375C183.47 198.122 183.542 197.796 183.796 197.615L230.874 168.663C231.055 168.555 231.272 168.555 231.454 168.663L278.532 197.615C278.785 197.76 278.858 198.122 278.713 198.375C278.604 198.52 278.423 198.629 278.242 198.629Z" fill="black"/>
<path d="M148.154 258.502C147.357 258.502 146.705 259.153 146.705 259.95C146.705 260.746 147.357 261.397 148.154 261.397C148.95 261.397 149.602 260.746 149.602 259.95C149.602 259.153 148.95 258.502 148.154 258.502Z" fill="black"/>
<path d="M126.425 256.693C125.628 256.693 124.977 257.345 124.977 258.141C124.977 258.937 125.628 259.589 126.425 259.589C127.222 259.589 127.874 258.937 127.874 258.141C127.874 257.345 127.222 256.693 126.425 256.693Z" fill="black"/>
<path d="M243.034 309.059L224.71 235.304C224.637 235.051 224.42 234.906 224.166 234.906C223.913 234.906 223.696 235.087 223.623 235.341L220.835 246.994C220.762 247.283 220.943 247.573 221.233 247.645C221.523 247.717 221.812 247.536 221.885 247.247L224.13 237.765L241.73 308.661L200.301 308.914L199.722 284.233C199.722 283.943 199.468 283.69 199.179 283.69C198.889 283.69 198.635 283.943 198.635 284.233L198.708 286.875C197.404 291.073 195.195 296.501 191.248 302.074C189.111 305.114 186.866 307.611 184.838 309.602C189.654 309.349 194.435 309.131 199.251 308.878V309.421C199.251 309.71 199.505 309.964 199.794 309.964L242.454 309.71C242.636 309.71 242.78 309.638 242.889 309.493C243.034 309.385 243.07 309.204 243.034 309.059Z" fill="black"/>
<path d="M157.279 221.588C153.513 221.733 149.747 222.71 146.379 224.411C144.097 225.569 142.033 227.017 140.186 228.79C139.426 220.286 144.966 212.143 145.039 212.034C145.22 211.781 145.147 211.455 144.894 211.274C144.64 211.093 144.314 211.166 144.133 211.419C143.88 211.781 138.375 219.851 139.063 228.645C137.18 226.185 134.899 224.013 132.291 222.348C129.575 220.611 126.57 219.381 123.346 218.729C123.057 218.657 122.767 218.874 122.695 219.164C122.622 219.453 122.84 219.743 123.129 219.815C126.207 220.43 129.068 221.625 131.712 223.289C134.5 225.063 136.927 227.451 138.81 230.165C138.774 230.202 138.737 230.238 138.701 230.274C138.665 230.31 138.665 230.31 138.665 230.346C138.556 230.31 138.448 230.31 138.339 230.274C138.23 230.238 138.086 230.274 138.013 230.346C134.754 230.383 131.458 230.998 128.453 232.228C125.447 233.422 122.695 235.16 120.305 237.403C120.087 237.62 120.087 237.946 120.268 238.163C120.377 238.272 120.522 238.344 120.667 238.344C120.812 238.344 120.92 238.308 121.029 238.2C123.31 236.064 125.954 234.4 128.815 233.242C131.857 232.011 135.225 231.396 138.52 231.432C138.701 231.468 138.882 231.504 139.063 231.541L136.782 246.053C136.746 246.342 136.927 246.632 137.216 246.668C137.253 246.668 137.289 246.668 137.289 246.668C137.542 246.668 137.796 246.487 137.832 246.197L140.114 231.758C142.468 232.337 144.713 233.242 146.813 234.472C149.928 236.281 152.644 238.815 154.744 241.782C154.853 241.927 155.034 241.999 155.179 241.999C155.287 241.999 155.396 241.963 155.505 241.891C155.758 241.71 155.794 241.384 155.649 241.131C153.477 238.019 150.616 235.413 147.393 233.495C145.184 232.192 142.83 231.251 140.367 230.672C140.403 230.6 140.403 230.491 140.367 230.419C140.331 230.31 140.331 230.202 140.331 230.093C142.25 228.175 144.423 226.583 146.849 225.352C150.072 223.724 153.658 222.783 157.279 222.674C157.569 222.674 157.822 222.421 157.786 222.095C157.822 221.806 157.569 221.588 157.279 221.588Z" fill="black"/>
</svg>
