<svg width="438" height="390" viewBox="0 0 438 390" fill="none" xmlns="http://www.w3.org/2000/svg">
<path d="M326.104 86.9933L312.28 129.47L286.225 114.864C280.459 111.634 277.214 114.187 279.009 120.546L294.609 175.798L261.558 192.737C256.814 195.171 256.814 199.147 261.558 201.58L294.615 218.519L279.015 273.771C277.221 280.131 280.465 282.683 286.232 279.453L312.28 264.841L326.104 307.324C328.702 315.314 332.956 315.314 335.56 307.324L349.384 264.847L375.439 279.453C381.206 282.683 384.45 280.131 382.655 273.771L367.055 218.519L400.112 201.58C404.856 199.147 404.856 195.171 400.112 192.737L367.055 175.798L382.655 120.546C384.45 114.187 381.206 111.634 375.439 114.864L349.384 129.47L335.56 86.9933C332.962 79.0034 328.708 79.0034 326.104 86.9933Z" fill="#171717"/>
<path d="M0.476562 151.693V302.436C0.476562 309.639 6.32402 315.483 13.5314 315.483H259.772C266.979 315.483 272.827 309.639 272.827 302.436C272.827 298.495 271.059 294.758 267.965 292.278L235.26 265.812C225.163 257.624 219.282 245.36 219.282 232.348V151.693C219.282 144.49 213.434 138.647 206.227 138.647H13.4974C6.32403 138.613 0.476562 144.49 0.476562 151.693Z" fill="white"/>
<path d="M259.805 315.992H13.5648C6.08548 315.992 0 309.91 0 302.436V151.692C0 144.218 6.08548 138.137 13.5648 138.137H206.294C213.773 138.137 219.859 144.218 219.859 151.692V232.381C219.859 245.291 225.604 257.318 235.634 265.438L268.339 291.904C271.534 294.486 273.37 298.325 273.37 302.436C273.37 309.91 267.285 315.992 259.805 315.992ZM13.5648 139.122C6.62943 139.122 1.01991 144.762 1.01991 151.658V302.436C1.01991 309.367 6.66343 314.973 13.5648 314.973H259.805C266.741 314.973 272.35 309.333 272.35 302.436C272.35 298.631 270.651 295.064 267.693 292.685L234.988 266.22C224.72 257.896 218.839 245.563 218.839 232.381V151.692C218.839 144.762 213.195 139.156 206.294 139.156H13.5648V139.122Z" fill="black"/>
<path d="M38.791 315.415C51.5059 315.177 64.2548 314.939 76.9697 314.736C90.7725 297.816 104.541 280.897 118.344 264.012C116.508 259.765 113.789 254.465 109.675 248.893C105.255 242.948 99.9517 239.041 96.2121 235.949C89.9226 243.356 83.6332 250.762 77.3097 258.168C64.4588 277.262 51.6419 296.355 38.791 315.415Z" fill="#FF6EC1"/>
<path d="M38.7907 315.926C38.6207 315.926 38.4167 315.824 38.3487 315.654C38.2467 315.484 38.2807 315.28 38.3827 315.11L76.9353 257.863L76.9693 257.83L95.8717 235.61C96.0417 235.406 96.3816 235.372 96.5856 235.542C97.0956 235.984 97.6735 236.426 98.2515 236.868C101.855 239.756 106.343 243.357 110.15 248.555C113.618 253.277 116.576 258.373 118.888 263.775C118.956 263.945 118.922 264.149 118.82 264.285L77.3773 315.042C77.2753 315.144 77.1393 315.212 77.0033 315.246L38.7907 315.926ZM77.7173 258.475L39.7426 314.907L76.7313 314.227L117.766 263.911C115.522 258.713 112.666 253.753 109.267 249.166C105.527 244.104 101.073 240.537 97.5375 237.683C97.0956 237.343 96.6876 237.004 96.2796 236.664L77.7173 258.475Z" fill="black"/>
<path d="M104.983 259.629C101.38 259.867 97.1981 259.901 92.6085 259.493C84.9931 258.814 78.5337 257.081 73.6041 255.314C73.2302 254.737 72.5842 253.514 72.5502 251.917C72.4822 248.723 74.93 246.719 75.27 246.447C75.168 244.613 75.236 240.74 77.5478 236.934C81.1514 230.989 88.8348 227.49 95.7022 229.29C101.244 230.751 104.201 235.066 105.017 236.357C111.579 246.277 105.391 258.78 104.983 259.629Z" fill="#349948"/>
<path d="M99.6803 260.308C97.3005 260.308 94.9207 260.206 92.5749 260.002C86.0815 259.425 79.6221 257.998 73.4346 255.824C73.3326 255.79 73.2306 255.722 73.1626 255.62C72.6527 254.838 72.0747 253.581 72.0407 251.984C71.9728 248.995 73.9785 246.956 74.7265 246.277C74.6245 243.797 74.9645 240.195 77.0723 236.73C80.8799 230.445 88.9372 227.081 95.8046 228.882C98.4564 229.595 102.298 231.396 105.426 236.152C112.191 246.379 105.664 259.357 105.392 259.9C105.324 260.07 105.154 260.172 104.984 260.172C103.25 260.24 101.448 260.308 99.6803 260.308ZM73.9446 254.906C79.996 257.047 86.3195 258.406 92.6769 258.983C96.6546 259.357 100.666 259.391 104.678 259.153C105.596 257.25 110.661 245.767 104.644 236.696C101.686 232.211 98.1164 230.513 95.6007 229.867C89.1412 228.168 81.5939 231.362 77.9902 237.274C75.9504 240.637 75.6784 244.136 75.7804 246.481C75.7804 246.65 75.7124 246.786 75.5764 246.922C75.1344 247.262 73.0267 249.131 73.0607 251.984C73.0947 253.174 73.5366 254.227 73.9446 254.906Z" fill="black"/>
<path d="M114.604 231.398L137.042 235.475C140.51 239.891 146.902 249.506 145.576 260.582C145.202 263.775 144.216 266.697 143.706 268.26C141.19 275.836 137.348 281.476 134.187 285.247C135.954 285.858 138.912 287.183 141.734 289.935C145.27 293.367 146.664 297.172 147.208 299.04C148.771 300.535 150.675 302.676 152.409 305.53C154.517 309.029 155.537 312.29 156.081 314.601C129.325 314.601 102.603 314.601 75.8477 314.601C76.2216 312.596 77.0715 309.539 78.9754 306.311C80.9812 302.88 83.327 300.603 84.9589 299.278C85.5368 297.478 86.7947 294.454 89.3785 291.464C92.2683 288.169 95.464 286.504 97.2658 285.723C96.5519 285.383 92.7782 283.582 91.2143 279.166C89.9224 275.564 90.8743 272.473 91.2143 271.521C88.6305 268.668 87.3727 265.916 86.7267 264.081C83.191 254.093 87.6106 242.371 95.056 236.732C97.0618 235.203 98.9657 234.421 100.598 233.742C106.241 231.398 111.443 231.228 114.604 231.398Z" fill="#349948"/>
<path d="M156.08 315.144H75.8469C75.7109 315.144 75.541 315.076 75.439 314.974C75.337 314.873 75.303 314.703 75.337 314.567C75.9149 311.577 76.9688 308.723 78.4987 306.107C80.0626 303.423 82.1024 301.045 84.4822 299.04C85.4341 296.119 86.9639 293.503 88.9698 291.192C90.9416 288.95 93.3894 287.082 96.0752 285.757C94.5113 284.839 91.9275 282.869 90.6696 279.369C89.5137 276.142 90.0577 273.254 90.5677 271.691C88.5958 269.449 87.1339 266.969 86.182 264.319C82.4424 253.719 87.5759 241.794 94.6813 236.392C96.7551 234.829 98.7269 233.98 100.325 233.334C104.778 231.466 109.572 230.65 114.57 230.922C114.604 230.922 114.604 230.922 114.638 230.922L137.076 234.999C137.212 235.033 137.314 235.101 137.382 235.203C142.005 241.114 147.241 250.321 146.017 260.684C145.643 263.843 144.657 266.765 144.147 268.328L144.113 268.464C142.141 274.443 139.047 280.049 134.968 285.077C137.586 286.13 140.033 287.693 142.039 289.63C145.303 292.789 146.867 296.357 147.615 298.837C149.62 300.773 151.388 302.982 152.816 305.36C154.55 308.214 155.808 311.339 156.556 314.601C156.59 314.737 156.556 314.906 156.454 315.042C156.386 315.042 156.25 315.144 156.08 315.144ZM76.4929 314.125H155.468C154.72 311.203 153.564 308.417 152 305.801C150.572 303.457 148.873 301.317 146.867 299.414C146.799 299.346 146.765 299.278 146.731 299.176C146.051 296.832 144.555 293.367 141.393 290.275C139.319 288.271 136.77 286.674 134.016 285.689C133.846 285.621 133.744 285.519 133.71 285.349C133.676 285.179 133.71 285.009 133.812 284.873C138.062 279.811 141.223 274.137 143.229 268.056L143.263 267.92C143.773 266.391 144.725 263.537 145.099 260.48C146.289 250.559 141.257 241.658 136.804 235.882L114.604 231.839C109.776 231.602 105.118 232.383 100.835 234.184C99.2029 234.863 97.401 235.611 95.4292 237.105C88.5958 242.27 83.7002 253.719 87.2699 263.877C88.1878 266.493 89.6837 268.939 91.6555 271.148C91.7915 271.284 91.8255 271.487 91.7576 271.657C91.2816 273.016 90.6357 275.802 91.7576 278.962C93.1854 282.971 96.5511 284.771 97.571 285.247C97.741 285.315 97.877 285.519 97.877 285.723C97.877 285.926 97.741 286.096 97.571 286.198C94.6473 287.455 91.9615 289.426 89.8537 291.804C87.9159 294.046 86.454 296.594 85.5361 299.448C85.5021 299.55 85.4341 299.618 85.3661 299.686C83.0203 301.623 81.0145 303.933 79.4846 306.583C78.0227 308.927 77.0368 311.441 76.4929 314.125Z" fill="black"/>
<path d="M114.91 289.323C114.468 289.323 114.026 289.323 113.584 289.323C107.975 289.187 102.433 288.134 97.0957 286.231C96.8237 286.129 96.6877 285.858 96.7897 285.586C96.8917 285.314 97.1637 285.178 97.4357 285.28C102.637 287.149 108.077 288.168 113.584 288.304C120.622 288.474 127.523 287.251 134.118 284.601C134.39 284.499 134.662 284.635 134.764 284.872C134.866 285.11 134.73 285.416 134.492 285.518C128.203 288.066 121.642 289.323 114.91 289.323Z" fill="black"/>
<mask id="mask0" mask-type="alpha" maskUnits="userSpaceOnUse" x="0" y="138" width="273" height="177">
<path d="M0.476562 151.046V301.79C0.476562 308.993 6.32402 314.836 13.5314 314.836H259.772C266.979 314.836 272.827 308.993 272.827 301.79C272.827 297.849 271.059 294.112 267.965 291.632L235.26 265.166C225.163 256.978 219.282 244.713 219.282 231.701V151.046C219.282 143.844 213.434 138 206.227 138H13.4974C6.32403 137.966 0.476562 143.844 0.476562 151.046Z" fill="white"/>
</mask>
<g mask="url(#mask0)">
<path d="M199.36 286.912L146.392 233.606C142.279 229.461 135.989 228.136 130.652 230.514C128.68 231.398 126.912 232.723 125.484 234.489C125.416 234.557 125.382 234.625 125.314 234.693C125.212 234.829 125.11 234.965 125.008 235.101C119.773 241.998 120.317 251.68 126.164 258.068C140.681 274.001 155.198 289.969 169.714 305.903C143.809 332.403 123.376 350.24 117.121 353.366C116.917 353.468 116.713 353.569 116.543 353.637C112.769 355.404 108.588 356.084 104.44 355.778C102.706 355.642 100.972 355.744 99.2384 356.016L52.1865 361.995C48.9228 362.505 46.577 365.359 46.747 368.654C46.9169 372.289 49.4327 376.57 53.0704 376.298L73.5706 374.871L54.6682 392.946C52.7644 394.746 51.9485 397.464 52.6964 399.944C52.9344 400.726 53.2744 401.439 53.7843 402.085C54.8382 403.478 56.4021 404.361 58.102 404.701C60.5838 405.176 63.0995 404.225 64.7994 402.356C68.777 398.008 72.7887 393.659 76.7663 389.276C76.8683 391.926 78.1602 392.98 80.0981 394.78C83.6338 398.008 87.1355 401.269 90.6711 404.497C93.4589 407.045 97.7765 406.841 100.326 404.055C102.876 401.269 102.672 396.955 99.8843 394.406L92.813 388.529L123.274 386.694C117.733 392.912 112.973 397.736 107.636 403.647C104.678 406.909 105.052 412.107 108.588 414.723C108.69 414.825 108.826 414.893 108.962 414.961C110.797 416.184 113.007 416.558 115.081 416.116C116.815 415.776 118.345 414.757 119.399 413.33C130.21 399.265 143.401 383.874 159.345 368.178C172.808 354.928 185.999 343.615 198.306 334.034C205.513 328.428 209.831 319.833 209.763 310.728C209.763 310.456 209.763 310.184 209.729 309.878C209.253 296.934 201.196 288.678 199.36 286.912Z" fill="#FF6EC1"/>
<path d="M113.381 416.862C111.715 416.862 110.083 416.387 108.655 415.435C108.519 415.333 108.383 415.265 108.281 415.163C106.513 413.838 105.391 411.902 105.153 409.66C104.915 407.349 105.663 405.073 107.227 403.34C109.573 400.758 111.851 398.346 114.027 396.002C116.61 393.25 119.228 390.43 122.05 387.305L94.1044 388.969L100.19 393.998C101.652 395.323 102.502 397.157 102.604 399.094C102.706 401.064 102.026 402.933 100.7 404.394C99.3739 405.855 97.5721 406.704 95.6002 406.772C93.6284 406.84 91.7586 406.194 90.2967 404.869L79.4856 394.915C77.9558 393.488 76.7659 392.401 76.3579 390.43L65.1389 402.695C63.3031 404.733 60.5493 405.685 57.9655 405.175C56.0617 404.801 54.4298 403.816 53.3419 402.355C52.832 401.676 52.424 400.894 52.186 400.045C51.4041 397.429 52.254 394.473 54.2938 392.537L72.1763 375.448L53.0699 376.807C51.7101 376.908 50.3502 376.433 49.2283 375.38C47.5284 373.851 46.3385 371.201 46.2365 368.653C46.0666 365.119 48.6163 362.028 52.118 361.484L99.1699 355.505C100.938 355.233 102.74 355.131 104.473 355.267C108.689 355.573 112.803 354.825 116.338 353.161C116.542 353.059 116.712 352.991 116.916 352.889C122.866 349.899 142.652 332.81 169.034 305.868L125.824 258.406C119.772 251.747 119.296 241.827 124.668 234.794C124.77 234.658 124.872 234.522 124.974 234.386L125.144 234.182C126.606 232.382 128.407 230.989 130.515 230.071C135.955 227.625 142.516 228.916 146.834 233.265L199.801 286.571C202.827 289.492 209.864 297.646 210.272 309.979C210.272 310.251 210.272 310.556 210.306 310.828C210.374 319.933 206.023 328.801 198.645 334.542C185.08 345.109 171.992 356.558 159.753 368.653C145.508 382.718 132.079 397.871 119.874 413.737C118.684 415.265 117.052 416.319 115.251 416.692C114.537 416.794 113.959 416.862 113.381 416.862ZM123.24 386.217C123.444 386.217 123.614 386.319 123.682 386.489C123.784 386.659 123.75 386.897 123.614 387.067C120.486 390.566 117.562 393.692 114.741 396.715C112.565 399.06 110.287 401.472 107.941 404.054C106.581 405.549 105.935 407.553 106.139 409.558C106.343 411.494 107.295 413.193 108.859 414.348C108.961 414.416 109.097 414.518 109.199 414.586C110.899 415.707 112.939 416.081 114.945 415.673C116.508 415.367 117.936 414.416 118.956 413.091C131.195 397.191 144.658 381.971 158.937 367.871C171.21 355.777 184.333 344.259 197.931 333.693C205.037 328.155 209.252 319.594 209.184 310.794C209.184 310.522 209.184 310.251 209.184 309.979C208.776 298.02 201.943 290.138 199.019 287.284L146.052 233.979C142.04 229.936 135.921 228.746 130.889 230.989C128.951 231.872 127.251 233.163 125.892 234.828L125.722 235.032C125.62 235.168 125.518 235.27 125.416 235.405C120.35 242.064 120.826 251.441 126.538 257.727L170.088 305.562C170.258 305.766 170.258 306.072 170.088 306.276C143.468 333.523 123.41 350.816 117.358 353.84C117.154 353.942 116.95 354.044 116.746 354.146C113.041 355.878 108.757 356.626 104.372 356.32C102.706 356.218 101.006 356.286 99.2719 356.558L52.22 362.537C49.2283 363.013 47.0865 365.629 47.2225 368.653C47.3245 370.963 48.3783 373.307 49.8742 374.666C50.8261 375.516 51.88 375.889 52.9679 375.821L73.4682 374.394C73.6722 374.36 73.8761 374.496 73.9781 374.7C74.0801 374.904 74.0121 375.142 73.8761 375.278L54.9738 393.352C53.2059 395.051 52.458 397.599 53.1379 399.841C53.3419 400.555 53.6819 401.234 54.1238 401.812C55.0758 403.069 56.5036 403.918 58.1355 404.224C60.3453 404.665 62.7591 403.816 64.3569 402.049L76.3239 388.969C76.4599 388.833 76.6979 388.766 76.8679 388.833C77.0719 388.901 77.2078 389.071 77.2078 389.275C77.3098 391.585 78.3637 392.571 80.1316 394.201L90.9427 404.156C92.2006 405.311 93.7984 405.889 95.4983 405.821C97.1981 405.753 98.762 405.005 99.8839 403.782C101.04 402.525 101.618 400.928 101.55 399.23C101.482 397.531 100.734 395.968 99.5099 394.847L92.4725 389.003C92.3025 388.867 92.2346 388.664 92.3025 388.46C92.3705 388.256 92.5405 388.12 92.7445 388.12L123.24 386.217C123.24 386.217 123.206 386.217 123.24 386.217Z" fill="black"/>
</g>
<path d="M119.262 252.02C121.268 255.18 124.225 256.708 125.823 257.388C129.937 257.626 134.866 257.558 140.374 256.708C151.797 254.908 160.466 250.491 165.906 247.094C160.942 243.696 156.013 240.333 151.049 236.935C150.675 235.135 149.587 231.432 146.357 228.34C141.258 223.482 132.861 222.259 126.843 225.724C122.627 228.136 120.928 232.077 119.704 234.965" fill="#349948"/>
<path d="M129.902 258.033C128.508 258.033 127.149 257.999 125.755 257.897C125.687 257.897 125.653 257.897 125.585 257.863C122.661 256.606 120.315 254.704 118.819 252.292C118.683 252.054 118.751 251.748 118.989 251.578C119.227 251.442 119.533 251.51 119.703 251.748C121.097 253.956 123.239 255.723 125.959 256.878C130.752 257.15 135.58 256.946 140.305 256.199C149.009 254.84 157.304 251.748 164.987 247.06L150.777 237.343C150.675 237.275 150.607 237.173 150.573 237.037C150.063 234.727 148.873 231.431 146.017 228.714C141.019 223.957 132.86 222.87 127.081 226.199C123.001 228.544 121.369 232.383 120.145 235.203C120.043 235.474 119.737 235.576 119.465 235.474C119.193 235.372 119.091 235.067 119.193 234.795C120.451 231.839 122.185 227.83 126.571 225.316C132.724 221.783 141.393 222.904 146.697 228C149.655 230.82 150.947 234.217 151.49 236.663L166.177 246.686C166.313 246.788 166.415 246.958 166.415 247.128C166.415 247.297 166.313 247.467 166.177 247.535C158.188 252.529 149.553 255.791 140.475 257.252C136.974 257.761 133.438 258.033 129.902 258.033Z" fill="black"/>
<path d="M83.9046 209.789L81.0148 215.531C79.8589 217.807 81.3208 220.559 83.8366 220.933L100.563 223.311L83.9046 209.789Z" fill="#F9D84E"/>
<path d="M100.597 223.821C100.563 223.821 100.563 223.821 100.529 223.821L83.8029 221.442C82.443 221.239 81.2871 220.423 80.6411 219.2C79.9952 217.977 79.9952 216.55 80.6071 215.327L83.4969 209.585C83.5649 209.449 83.7009 209.347 83.8369 209.314C83.9729 209.28 84.1429 209.314 84.2788 209.415L100.937 222.937C101.107 223.073 101.175 223.311 101.073 223.549C100.971 223.685 100.767 223.821 100.597 223.821ZM84.0748 210.571L81.4911 215.769C81.0151 216.72 81.0151 217.773 81.525 218.724C82.001 219.676 82.885 220.287 83.9389 220.423L98.8295 222.564L84.0748 210.571Z" fill="black"/>
<path d="M90.0247 193.516C88.3248 193.584 86.625 193.652 84.9251 193.719C82.2393 193.821 79.7576 195.452 78.7717 197.966C78.2277 199.359 78.0917 200.99 78.6017 202.553L79.1456 204.319C80.1655 207.581 83.4292 209.619 86.795 209.076C87.8149 208.906 88.8688 208.736 89.8887 208.566" fill="#FF6EC1"/>
<path d="M85.7409 209.653C82.5452 209.653 79.6215 207.58 78.6696 204.455L78.1256 202.688C77.6156 201.057 77.6836 199.358 78.2956 197.762C79.3495 195.112 81.9333 193.311 84.891 193.209L89.9905 193.005C90.2625 192.971 90.5005 193.209 90.5345 193.481C90.5345 193.753 90.3305 193.99 90.0586 194.024L84.959 194.228C82.4093 194.33 80.1654 195.859 79.2475 198.135C78.7036 199.494 78.6356 200.955 79.0775 202.382L79.6215 204.149C80.5734 207.138 83.5991 209.041 86.7268 208.531L89.8206 208.022C90.0925 207.988 90.3645 208.158 90.3985 208.43C90.4325 208.701 90.2625 208.973 89.9905 209.007L86.8968 209.517C86.5229 209.619 86.1149 209.653 85.7409 209.653Z" fill="black"/>
<path d="M121.301 186.245C118.853 183.493 116.133 181.624 113.719 180.367C106.92 180.911 100.121 181.488 93.3553 182.032C92.1314 182.915 89.8536 184.852 88.2557 188.079C88.1197 191.545 86.6238 193.379 86.5558 194.84C81.8983 203.741 83.2581 213.832 89.2756 219.302C94.1372 223.752 100.495 223.65 102.33 223.582C102.636 228.271 102.874 228.509 103.146 232.586C100.937 234.182 97.6049 236.968 94.7151 241.385C91.7234 245.937 90.4995 250.252 89.9556 252.936C92.5053 253.072 95.0551 253.208 97.6049 253.344C103.996 253.684 109.946 250.286 112.972 244.646C113.006 244.579 113.04 244.511 113.074 244.443C115.895 239.211 119.057 235.202 121.777 232.314C121.811 231.091 121.845 230.377 121.845 229.902C121.845 229.766 121.879 229.086 121.913 228.169C121.913 228.067 121.913 228.101 121.981 226.436C122.049 225.247 122.117 222.835 122.219 220.661L127.522 213.662C128.066 211.216 130.582 196.743 121.301 186.245Z" fill="#FF6EC1"/>
<path d="M98.4893 253.888C98.1833 253.888 97.9114 253.888 97.6054 253.854L89.9561 253.446C89.8201 253.446 89.6841 253.378 89.5821 253.243C89.4801 253.141 89.4461 252.971 89.4801 252.835C90.33 248.622 91.9619 244.681 94.3077 241.114C96.5515 237.716 99.3393 234.761 102.637 232.348C102.501 230.616 102.399 229.596 102.263 228.611C102.127 227.49 101.991 226.301 101.855 224.093C99.1353 224.161 93.3898 223.719 88.9361 219.676C82.6127 213.9 81.4228 203.674 86.0464 194.705C86.0804 194.093 86.3524 193.414 86.6243 192.666C87.0663 191.511 87.6443 190.05 87.7123 188.046C87.7123 187.978 87.7462 187.91 87.7802 187.842C88.9701 185.396 90.806 183.222 93.0158 181.591C93.0838 181.523 93.1858 181.489 93.2878 181.489L113.652 179.824C113.754 179.824 113.856 179.824 113.924 179.892C116.916 181.455 119.499 183.493 121.641 185.906C130.583 195.996 128.815 209.79 128.067 213.764C128.067 213.832 128.033 213.9 127.965 213.968L122.729 220.865C122.661 222.02 122.627 223.209 122.593 224.229C122.559 225.146 122.525 225.927 122.491 226.471C122.423 227.694 122.423 228 122.423 228.102V228.204C122.389 228.883 122.355 229.427 122.355 229.732V229.936C122.321 230.548 122.287 231.329 122.287 232.314C122.287 232.45 122.219 232.552 122.151 232.654C118.786 236.289 115.862 240.332 113.55 244.681L113.448 244.851C110.49 250.423 104.711 253.888 98.4893 253.888ZM90.602 252.461L97.6734 252.835C103.827 253.175 109.64 249.845 112.564 244.409L112.666 244.205C115.012 239.823 117.936 235.78 121.301 232.111C121.335 231.193 121.335 230.446 121.369 229.868V229.664C121.369 229.359 121.403 228.815 121.437 228.136V228.034C121.437 227.898 121.471 227.592 121.505 226.369C121.539 225.825 121.573 225.044 121.607 224.127C121.641 223.039 121.709 221.782 121.743 220.593C121.743 220.491 121.777 220.389 121.845 220.322L127.081 213.425C127.829 209.416 129.461 196.2 120.893 186.551C118.854 184.275 116.406 182.338 113.584 180.843L93.4918 182.508C92.0639 183.561 90.1261 185.396 88.7322 188.182C88.6302 190.322 88.0522 191.817 87.5763 193.04C87.3043 193.788 87.0663 194.365 87.0323 194.841C87.0323 194.909 86.9983 194.977 86.9643 195.045C82.4767 203.606 83.5646 213.425 89.5821 218.895C94.0697 222.972 99.9512 223.141 102.263 223.039C102.535 223.039 102.773 223.243 102.807 223.515C102.977 225.995 103.113 227.252 103.249 228.475C103.385 229.529 103.487 230.616 103.623 232.552C103.623 232.722 103.555 232.892 103.419 232.994C100.121 235.338 97.3334 238.26 95.1236 241.657C92.9818 244.987 91.4519 248.622 90.602 252.461Z" fill="black"/>
<path d="M119.703 209.992C119.737 210.094 119.669 210.094 119.669 210.196C119.159 213.05 119.397 215.36 120.009 217.229C120.791 219.675 123.171 221.272 125.755 221.034C129.936 220.66 134.118 220.253 138.3 219.879C140.951 219.641 142.447 216.685 141.053 214.409C138.164 209.721 135.41 204.047 133.506 197.456C132.962 195.621 132.52 193.821 132.18 192.088V191.544C132.18 190.525 132.316 189.506 132.554 188.521C133.064 186.516 133.608 182.473 131.16 178.906C128.712 175.305 125.585 173.47 121.369 174.183C119.635 174.455 117.867 174.421 116.201 173.946C102.773 169.971 91.0436 172.994 87.9839 179.246C87.508 180.231 85.4682 182.813 86.3181 187.196C86.6241 188.724 86.624 189.846 86.794 191.408C86.896 192.292 87.134 193.651 86.964 194.534C90.2617 191.714 92.5055 188.86 95.8032 186.04C96.8231 187.264 98.047 188.419 99.5429 189.438C107.43 194.738 117.323 195.723 119.431 195.044C118.751 205.712 119.057 207.104 119.703 209.992Z" fill="#F9D84E"/>
<path d="M125.211 221.578C122.627 221.578 120.315 219.913 119.5 217.399C118.786 215.19 118.684 212.744 119.126 210.094C119.126 210.06 119.126 210.026 119.16 209.992C118.548 207.241 118.242 205.712 118.82 195.655C115.59 196.063 106.547 194.772 99.2032 189.846C97.9113 188.996 96.7555 187.943 95.7016 186.754C94.2397 188.045 92.9478 189.37 91.6899 190.627C90.33 192.02 88.9021 193.481 87.2363 194.908C87.0663 195.044 86.8283 195.078 86.6583 194.976C86.4544 194.874 86.3863 194.636 86.4203 194.432C86.5563 193.821 86.4204 192.903 86.3184 192.122C86.2844 191.884 86.2504 191.646 86.2504 191.443C86.2164 191.001 86.1824 190.593 86.1484 190.219C86.0804 189.234 86.0124 188.385 85.7744 187.298C85.0265 183.357 86.5223 180.775 87.2363 179.518C87.3383 179.314 87.4403 179.178 87.5083 179.042C90.874 172.111 103.555 169.665 116.338 173.47C117.834 173.912 119.499 173.98 121.267 173.708C125.449 173.028 128.815 174.625 131.568 178.634C134.118 182.337 133.574 186.516 133.064 188.657C132.826 189.642 132.69 190.593 132.69 191.544V192.02C133.064 193.787 133.506 195.587 133.982 197.32C135.682 203.164 138.198 208.837 141.462 214.137C142.21 215.36 142.278 216.855 141.632 218.146C140.986 219.437 139.762 220.287 138.334 220.389L125.789 221.544C125.619 221.578 125.415 221.578 125.211 221.578ZM119.397 194.5C119.499 194.5 119.635 194.534 119.703 194.602C119.839 194.704 119.907 194.874 119.907 195.044C119.262 205.678 119.567 207.071 120.213 209.857C120.247 210.06 120.213 210.196 120.179 210.264C119.737 212.744 119.839 215.021 120.519 217.059C121.233 219.301 123.375 220.728 125.721 220.49L138.266 219.335C139.354 219.233 140.272 218.588 140.748 217.637C141.224 216.685 141.19 215.53 140.612 214.613C137.28 209.211 134.73 203.469 132.996 197.524C132.486 195.757 132.044 193.923 131.67 192.088C131.67 192.054 131.67 192.02 131.67 191.986V191.443C131.67 190.423 131.806 189.37 132.078 188.317C132.588 186.346 133.064 182.507 130.753 179.11C128.237 175.441 125.211 173.98 121.471 174.591C119.533 174.897 117.732 174.829 116.066 174.319C102.297 170.243 91.2139 173.674 88.4602 179.382C88.3922 179.518 88.2902 179.721 88.1542 179.925C87.4402 181.148 86.1484 183.425 86.8283 187.026C87.0323 188.147 87.1343 189.098 87.2023 190.05C87.2363 190.423 87.2703 190.831 87.3043 191.273C87.3383 191.476 87.3383 191.68 87.3723 191.918C87.4403 192.36 87.4743 192.835 87.5083 193.277C88.7662 192.122 89.888 190.967 91.0099 189.846C92.3698 188.453 93.7977 186.992 95.4636 185.565C95.5655 185.463 95.7016 185.429 95.8376 185.429C95.9735 185.429 96.1095 185.497 96.1775 185.599C97.2314 186.89 98.4553 188.011 99.8152 188.894C107.601 194.126 117.324 195.078 119.262 194.432C119.295 194.534 119.33 194.5 119.397 194.5Z" fill="black"/>
<path d="M117.697 195.248C119.397 195.112 121.097 195.01 122.797 194.874C125.483 194.67 128.1 195.995 129.392 198.373C130.106 199.698 130.412 201.295 130.106 202.892L129.766 204.693C129.46 206.357 128.542 207.818 127.284 208.803C125.925 209.891 124.429 210.061 122.695 210.298C121.063 210.502 119.669 210.434 118.751 210.332" fill="#FF6EC1"/>
<path d="M120.622 210.979C119.976 210.979 119.33 210.945 118.684 210.877C118.412 210.843 118.208 210.605 118.242 210.3C118.276 210.028 118.514 209.824 118.82 209.858C120.078 209.994 121.37 209.994 122.628 209.824H122.764C124.361 209.62 125.755 209.416 126.979 208.465C128.169 207.514 128.985 206.155 129.291 204.66L129.631 202.859C129.903 201.398 129.665 199.971 128.985 198.646C127.829 196.506 125.415 195.215 122.866 195.419L117.766 195.793C117.494 195.827 117.256 195.589 117.222 195.317C117.188 195.045 117.426 194.807 117.698 194.773L122.798 194.4C125.755 194.196 128.543 195.657 129.869 198.171C130.685 199.666 130.957 201.364 130.617 203.029L130.277 204.83C129.937 206.562 128.985 208.159 127.625 209.246C126.197 210.402 124.599 210.605 122.934 210.809H122.798C122.05 210.911 121.336 210.979 120.622 210.979Z" fill="black"/>
<path d="M98.3202 202.248L95.3965 202.35C94.1046 202.486 93.2207 203.675 93.4587 204.932C93.6627 206.053 94.6826 206.801 95.8385 206.699L99.4422 206.529" fill="#FF6EC1"/>
<path d="M247.756 148.018H159.363V202.037H247.756V148.018Z" fill="#F9D84E"/>
<path d="M247.756 202.546H159.363C159.091 202.546 158.854 202.308 158.854 202.036V148.017C158.854 147.746 159.091 147.508 159.363 147.508H247.756C248.028 147.508 248.266 147.746 248.266 148.017V202.036C248.266 202.308 248.028 202.546 247.756 202.546ZM159.873 201.527H247.246V148.527H159.873V201.527Z" fill="black"/>
<path d="M159.363 148.018L203.559 174.857L247.756 148.018" fill="white"/>
<path d="M203.559 175.368C203.457 175.368 203.389 175.334 203.287 175.3L159.091 148.46C158.853 148.325 158.785 147.985 158.921 147.747C159.057 147.509 159.397 147.441 159.635 147.577L203.559 174.247L247.483 147.577C247.721 147.441 248.027 147.509 248.197 147.747C248.367 147.985 248.265 148.291 248.027 148.46L203.831 175.3C203.729 175.334 203.627 175.368 203.559 175.368Z" fill="black"/>
<path d="M159.363 202.037L203.559 174.857L247.756 202.037" fill="#F9D84E"/>
<path d="M247.755 202.547C247.653 202.547 247.585 202.513 247.483 202.479L203.559 175.469L159.635 202.479C159.397 202.615 159.091 202.547 158.921 202.309C158.785 202.071 158.853 201.766 159.091 201.596L203.287 174.416C203.457 174.314 203.661 174.314 203.831 174.416L248.027 201.596C248.265 201.732 248.333 202.071 248.197 202.309C248.095 202.445 247.925 202.547 247.755 202.547Z" fill="black"/>
<path d="M247.756 148.357L203.559 121.518L159.363 148.357H247.756Z" fill="#F9D84E"/>
<path d="M247.756 148.867H159.363C159.125 148.867 158.921 148.731 158.887 148.494C158.853 148.256 158.921 148.052 159.125 147.916L203.321 121.076C203.491 120.975 203.695 120.975 203.865 121.076L248.062 147.916C248.265 148.018 248.333 148.256 248.299 148.494C248.265 148.731 247.96 148.867 247.756 148.867ZM161.165 147.848H245.92L203.559 122.13L161.165 147.848Z" fill="black"/>
<path d="M84.6181 267.544C88.6638 270.126 90.3296 273.83 90.8736 275.189C90.9415 273.83 91.0436 272.505 91.1116 271.146C90.5336 270.432 89.9216 269.651 89.3097 268.767C88.1878 267.103 87.3719 265.506 86.7259 264.113C86.318 262.21 85.91 260.274 85.468 258.371C82.9183 257.862 80.3685 257.318 77.8187 256.809C76.1528 259.662 74.453 262.55 72.7871 265.404C74.011 265.132 79.3826 264.215 84.6181 267.544Z" fill="black"/>
<path d="M97.0963 213.901C99.5781 214.308 102.57 211.964 102.536 208.465C99.4761 208.465 96.4164 208.465 93.3566 208.465C93.1867 211.251 95.0225 213.527 97.0963 213.901Z" fill="black"/>
<path d="M124.123 199.596C123.851 199.596 123.613 199.834 123.613 200.105L123.545 206.187C123.545 206.459 123.783 206.696 124.055 206.696C124.327 206.696 124.565 206.459 124.565 206.187L124.633 200.105C124.633 199.834 124.395 199.596 124.123 199.596Z" fill="black"/>
<path d="M102.195 223.107C102.229 225.417 102.841 227.795 102.909 230.105C105.901 229.358 108.349 228.814 111.408 227.965C112.802 227.591 114.196 227.183 115.556 226.81C117.358 226.3 118.548 224.669 118.514 222.801C116.78 223.107 114.876 223.378 112.87 223.548C108.859 223.854 105.255 223.412 102.195 223.107Z" fill="black"/>
<path d="M93.4579 202.926C93.0159 203.537 92.8119 204.285 92.9479 205.032C93.1859 206.323 94.3078 207.241 95.5657 207.241C95.6677 207.241 95.7357 207.241 95.8377 207.241L99.4414 207.071C99.7133 207.071 99.9513 206.833 99.9173 206.527C99.9173 206.255 99.6793 206.018 99.3733 206.052L95.7357 206.221C94.8857 206.323 94.0698 205.712 93.9338 204.862C93.8318 204.387 93.9678 203.945 94.2398 203.537C94.5117 203.164 94.9537 202.926 95.3957 202.892L98.3194 202.79C98.5914 202.79 98.8294 202.552 98.7954 202.246C98.7954 201.975 98.5574 201.737 98.2515 201.771L95.3277 201.873C94.6138 201.907 93.9338 202.314 93.4579 202.926Z" fill="black"/>
<path d="M103.522 201.805C104.27 201.839 104.916 201.262 104.95 200.514C104.984 199.767 104.406 199.121 103.658 199.087C102.91 199.053 102.264 199.631 102.23 200.378C102.196 201.126 102.774 201.737 103.522 201.805Z" fill="black"/>
<path d="M94.6469 199.936C94.6809 199.189 94.103 198.543 93.355 198.509C92.6071 198.475 91.9612 199.053 91.9272 199.8C91.8932 200.548 92.4711 201.193 93.219 201.227C93.967 201.295 94.6129 200.684 94.6469 199.936Z" fill="black"/>
<path d="M107.839 374.26L91.2824 375.517C87.3048 375.822 83.7351 377.861 81.4233 381.088C80.6414 382.21 79.7234 383.636 78.8395 385.063C77.9556 386.456 77.0717 387.917 76.2897 389.004C76.1198 389.242 76.1877 389.548 76.4257 389.718C76.5277 389.786 76.6297 389.82 76.7317 389.82C76.9017 389.82 77.0377 389.752 77.1397 389.616C77.9216 388.495 78.8395 387.034 79.7234 385.641C80.6074 384.248 81.4913 382.787 82.2732 381.7C84.415 378.71 87.7127 376.842 91.3844 376.536L107.941 375.279C108.213 375.245 108.417 375.007 108.417 374.735C108.349 374.429 108.111 374.226 107.839 374.26Z" fill="black"/>
<path d="M99.2705 366.207C99.5425 366.139 99.7125 365.867 99.6785 365.596C99.6105 365.324 99.3385 365.154 99.0666 365.188L80.7421 368.925C78.3623 369.401 76.2205 370.624 74.5887 372.424L73.3988 373.715C73.1948 373.919 73.2288 374.259 73.4328 374.429C73.5347 374.531 73.6367 374.565 73.7727 374.565C73.9087 374.565 74.0447 374.497 74.1467 374.395L75.3366 373.104C76.8325 371.473 78.7703 370.386 80.9461 369.944L99.2705 366.207Z" fill="black"/>
<path d="M178.145 304L169.917 304.645C169.645 304.679 169.441 304.917 169.441 305.189C169.475 305.461 169.679 305.665 169.951 305.665H169.985L178.213 305.019C178.485 304.985 178.689 304.747 178.689 304.475C178.655 304.17 178.417 303.966 178.145 304Z" fill="black"/>
<path d="M162.2 249.504C158.358 251.644 153.055 254.09 146.391 255.755C137.994 257.828 130.753 257.828 125.789 257.42C127.625 257.42 130.447 257.454 133.914 257.488C147.479 257.692 154.381 257.828 160.296 258.881C164.104 259.56 169.645 260.885 176.275 263.739C171.583 258.983 166.891 254.226 162.2 249.504Z" fill="black"/>
<path d="M147.036 298.563L140.543 300.907C140.271 301.009 140.135 301.281 140.237 301.553C140.305 301.757 140.509 301.893 140.713 301.893C140.781 301.893 140.815 301.893 140.883 301.859L147.376 299.514C147.648 299.412 147.784 299.141 147.682 298.869C147.58 298.597 147.274 298.461 147.036 298.563Z" fill="black"/>
<path d="M92.5058 293.909L84.6866 298.869C84.4486 299.005 84.3806 299.345 84.5166 299.583C84.6186 299.753 84.7886 299.821 84.9586 299.821C85.0605 299.821 85.1625 299.787 85.2305 299.753L93.0498 294.792C93.2878 294.657 93.3558 294.317 93.2198 294.079C93.0498 293.841 92.7438 293.773 92.5058 293.909Z" fill="black"/>
<path d="M139.558 240.298C139.558 240.298 139.592 240.298 139.558 240.298C146.12 240.026 151.049 237.478 151.253 237.376C151.491 237.24 151.593 236.934 151.457 236.696C151.321 236.459 151.015 236.357 150.777 236.493C150.743 236.526 145.848 239.041 139.524 239.312C139.252 239.312 139.014 239.55 139.048 239.856C139.048 240.094 139.286 240.298 139.558 240.298Z" fill="black"/>
<path d="M75.9494 246.99H80.267C80.539 246.99 80.777 246.752 80.777 246.48C80.777 246.209 80.539 245.971 80.267 245.971H75.9494C75.6774 245.971 75.4395 246.209 75.4395 246.48C75.4395 246.752 75.6774 246.99 75.9494 246.99Z" fill="black"/>
<path d="M91.758 271.963H96.0756C96.3476 271.963 96.5856 271.725 96.5856 271.453C96.5856 271.181 96.3476 270.943 96.0756 270.943H91.758C91.486 270.943 91.248 271.181 91.248 271.453C91.248 271.725 91.452 271.963 91.758 271.963Z" fill="black"/>
<path d="M129.869 195.315C129.937 195.349 130.005 195.349 130.073 195.349C130.277 195.349 130.447 195.247 130.549 195.043L132.792 189.845C132.894 189.573 132.792 189.302 132.52 189.166C132.249 189.064 131.977 189.166 131.841 189.438L129.597 194.636C129.495 194.907 129.631 195.213 129.869 195.315Z" fill="black"/>
<path d="M95.3617 186.346C95.4637 186.482 95.5997 186.516 95.7697 186.516C95.8717 186.516 96.0076 186.482 96.1096 186.414C96.3136 186.244 96.3476 185.905 96.1777 185.701L89.4123 177.513C89.2423 177.309 88.9023 177.275 88.6983 177.445C88.4943 177.615 88.4603 177.955 88.6303 178.159L95.3617 186.346Z" fill="black"/>
</svg>
