<svg width="1320" height="619" viewBox="0 0 1320 619" fill="none" xmlns="http://www.w3.org/2000/svg">
<path d="M774.408 183.914L839.882 214.784C839.882 214.784 780.826 288.101 744.881 363.99L708.934 351.129C708.934 351.129 720.488 277.812 774.408 183.914Z" fill="#FFCE46"/>
<path d="M744.878 367.85C744.436 367.85 743.998 367.774 743.582 367.626L707.637 354.762C706.793 354.459 706.081 353.87 705.624 353.097C705.167 352.324 704.993 351.415 705.133 350.527C705.245 349.787 717.415 275.424 771.07 181.986C771.552 181.147 772.332 180.521 773.254 180.231C774.176 179.942 775.173 180.01 776.048 180.423L841.522 211.293C842.049 211.543 842.513 211.909 842.878 212.365C843.243 212.82 843.5 213.353 843.63 213.923C843.76 214.492 843.759 215.084 843.627 215.653C843.496 216.222 843.236 216.754 842.87 217.209C842.28 217.938 783.679 291.06 748.348 365.646C748.036 366.304 747.545 366.86 746.931 367.25C746.317 367.64 745.605 367.848 744.878 367.85ZM713.312 348.598L742.904 359.188C774.022 294.677 821.485 232.086 833.854 216.209L775.986 188.931C730.659 268.86 716.179 333.856 713.312 348.598Z" fill="#22183B"/>
<path d="M719.062 478.204C725.727 458.852 715.444 437.761 696.092 431.095C676.741 424.429 655.649 434.713 648.984 454.065C642.318 473.416 652.602 494.507 671.953 501.173C691.305 507.839 712.396 497.555 719.062 478.204Z" fill="#FFCE46"/>
<path d="M720.499 478.765C717.754 486.691 712.502 493.507 705.538 498.183C698.574 502.858 690.277 505.138 681.902 504.677C673.526 504.217 665.529 501.041 659.119 495.631C652.71 490.22 648.237 482.869 646.378 474.69C644.518 466.511 645.373 457.948 648.814 450.298C652.254 442.649 658.092 436.327 665.445 432.291C672.798 428.255 681.266 426.724 689.567 427.929C697.868 429.134 705.55 433.01 711.452 438.97C716.551 444.08 720.105 450.526 721.705 457.565C723.306 464.604 722.887 471.952 720.499 478.765ZM650.466 454.515C647.616 462.752 647.895 471.751 651.251 479.796C654.606 487.841 660.804 494.371 668.663 498.142C676.522 501.913 685.494 502.661 693.869 500.244C702.244 497.828 709.438 492.415 714.08 485.037C718.722 477.659 720.488 468.831 719.042 460.235C717.596 451.639 713.038 443.875 706.237 438.422C699.437 432.969 690.868 430.208 682.163 430.665C673.458 431.122 665.225 434.765 659.032 440.9C655.175 444.724 652.244 449.382 650.466 454.515Z" fill="#22183B"/>
<path d="M695.606 430.937C686.322 427.884 676.207 428.622 667.465 432.991C658.722 437.36 652.059 445.005 648.926 454.263C645.794 463.52 646.444 473.64 650.737 482.42C655.03 491.2 662.617 497.929 671.848 501.142L672.117 500.928L695.517 431.843L695.606 430.937Z" fill="#22183B"/>
<path d="M427.179 35.4663L532.486 50.6687C532.486 50.6687 481.558 179.69 464.175 302.332L408.138 299.752C408.138 299.752 392.42 191.302 427.179 35.4663Z" fill="#FFCE46"/>
<path d="M465.853 307.777C465.233 307.968 464.585 308.051 463.937 308.022L407.902 305.439C406.586 305.377 405.33 304.854 404.352 303.961C403.374 303.068 402.735 301.861 402.545 300.548C402.38 299.454 387.07 189.261 421.657 34.1888C421.969 32.7964 422.791 31.5751 423.958 30.7674C425.126 29.9596 426.555 29.6243 427.961 29.828L533.268 45.0305C534.116 45.1545 534.926 45.4708 535.637 45.9553C536.348 46.4398 536.941 47.08 537.371 47.8276C537.801 48.5751 538.058 49.4105 538.121 50.2707C538.184 51.1309 538.052 51.9934 537.735 52.7932C537.226 54.0774 486.85 182.627 469.762 303.165C469.611 304.229 469.164 305.226 468.472 306.042C467.78 306.858 466.872 307.46 465.853 307.777ZM413.18 294.284L459.312 296.411C474.876 191.913 514.21 83.0457 524.65 55.2876L431.58 41.86C402.792 174.265 410.783 272.241 413.18 294.284Z" fill="#22183B"/>
<path d="M502.606 432.787C502.606 401.155 476.964 375.513 445.332 375.513C413.701 375.513 388.059 401.155 388.059 432.787C388.059 464.418 413.701 490.061 445.332 490.061C476.964 490.061 502.606 464.418 502.606 432.787Z" fill="#FFCE46"/>
<path d="M504.986 432.884C504.965 445.847 500.722 458.45 492.899 468.787C485.077 479.124 474.1 486.631 461.631 490.174C449.161 493.717 435.877 493.102 423.788 488.422C411.699 483.742 401.463 475.252 394.63 464.236C387.796 453.221 384.736 440.279 385.912 427.37C387.089 414.46 392.438 402.285 401.151 392.687C409.864 383.088 421.466 376.589 434.202 374.171C446.937 371.754 460.114 373.551 471.738 379.29C481.76 384.19 490.197 391.819 496.079 401.299C501.96 410.78 505.048 421.727 504.986 432.884ZM390.45 432.699C390.431 446.17 395.368 459.178 404.32 469.245C413.273 479.311 425.615 485.733 438.997 487.288C452.379 488.842 465.864 485.42 476.886 477.673C487.907 469.926 495.694 458.396 498.764 445.279C501.833 432.162 499.971 418.374 493.531 406.541C487.091 394.709 476.524 385.658 463.842 381.113C451.16 376.569 437.25 376.847 424.76 381.896C412.27 386.946 402.074 396.412 396.114 408.493C392.401 416.023 390.464 424.303 390.45 432.699Z" fill="#22183B"/>
<path d="M444.54 375.527C429.438 375.739 415.03 381.909 404.455 392.693C393.879 403.477 387.991 418.001 388.073 433.105C388.155 448.209 394.2 462.669 404.892 473.338C415.583 484.006 430.057 490.02 445.161 490.068L445.447 489.621L444.867 376.896L444.54 375.527Z" fill="#22183B"/>
<path d="M-36.6785 91.3016L67.7981 59.7404C67.7981 59.7404 76.3743 201.732 113.368 323.241L60.1608 345.156C60.1608 345.156 -1.45146 251.196 -36.6785 91.3016Z" fill="#FFCE46"/>
<path d="M117.287 327.573C116.794 328.019 116.227 328.378 115.612 328.632L62.4056 350.543C61.1547 351.056 59.761 351.115 58.465 350.709C57.169 350.304 56.0519 349.459 55.3064 348.321C54.6781 347.377 -7.30892 251.62 -42.366 92.51C-42.6793 91.0807 -42.4451 89.5894 -41.7097 88.3322C-40.9744 87.0749 -39.7917 86.1435 -38.3963 85.7227L66.0802 54.1615C66.9227 53.9087 67.813 53.851 68.6837 53.9929C69.5545 54.1347 70.3831 54.4724 71.107 54.9804C71.8309 55.4885 72.4312 56.1535 72.8625 56.9255C73.2939 57.6975 73.5452 58.5563 73.5973 59.437C73.6806 60.8512 82.5662 202.164 118.922 321.591C119.242 322.645 119.259 323.766 118.969 324.824C118.68 325.883 118.097 326.836 117.287 327.573ZM62.4769 337.887L106.28 319.849C75.4602 215.989 64.8409 97.7562 62.5149 67.4321L-29.8177 95.3335C0.80633 230.864 50.6955 318.443 62.4769 337.887Z" fill="#22183B"/>
<path d="M235.445 473.547C226.938 440.193 193.003 420.049 159.648 428.555C126.293 437.062 106.15 470.997 114.656 504.352C123.163 537.707 157.098 557.85 190.453 549.344C223.808 540.837 243.951 506.902 235.445 473.547Z" fill="#FFCE46"/>
<path d="M237.979 473.009C241.443 486.684 240.358 501.116 234.889 514.119C229.42 527.123 219.865 537.992 207.668 545.081C195.472 552.17 181.299 555.094 167.293 553.41C153.287 551.726 140.21 545.526 130.042 535.748C119.873 525.97 113.166 513.146 110.935 499.217C108.704 485.287 111.071 471.01 117.677 458.546C124.283 446.081 134.77 436.108 147.549 430.134C160.329 424.16 174.706 422.511 188.507 425.437C200.393 427.909 211.342 433.684 220.093 442.1C228.844 450.515 235.044 461.228 237.979 473.009ZM117.153 503.616C120.756 517.827 129.46 530.216 141.607 538.423C153.755 546.631 168.497 550.083 183.025 548.124C197.554 546.164 210.854 538.929 220.393 527.796C229.932 516.663 235.042 502.411 234.752 487.754C234.461 473.096 228.789 459.058 218.816 448.312C208.843 437.567 195.266 430.865 180.671 429.483C166.076 428.101 151.483 432.136 139.671 440.819C127.858 449.502 119.652 462.226 116.616 476.569C114.726 485.507 114.91 494.76 117.153 503.616Z" fill="#22183B"/>
<path d="M158.816 428.782C142.948 433.068 129.414 443.448 121.163 457.663C112.911 471.879 110.608 488.778 114.756 504.683C118.904 520.588 129.167 534.21 143.311 542.585C157.454 550.959 174.333 553.408 190.273 549.398L190.455 548.849L159.529 430.138L158.816 428.782Z" fill="#22183B"/>
<path d="M1365.53 634.779L807.17 635.891L802.308 635.899C792.66 636.498 783.146 637.08 773.741 637.493C771.39 637.595 769.046 637.685 766.709 637.764C744.141 634.297 719.322 632.516 697.11 634.429C694.826 634.275 692.558 634.16 690.306 634.083C674.528 633.528 659.33 634.637 643.439 635.433C641.434 635.711 639.44 635.949 637.459 636.124C633.575 636.501 629.666 636.543 625.775 636.25H621.077L600.547 636.309L612.366 581.107H1377.91L1365.53 634.779Z" fill="#E27BF5"/>
<path d="M859.371 581.107C858.25 594.984 853.166 608.874 850.422 622.514C849.511 627.013 848.345 631.455 846.928 635.819L1365.53 634.788L1377.91 581.107H859.371Z" fill="#22183B"/>
<path d="M1378.14 580.877H860.496L910.752 378.443C911.245 376.461 911.733 374.488 912.204 372.54C914.32 353.081 918.029 333.831 923.293 314.984C923.926 312.632 924.575 310.283 925.243 307.954C933.827 287.063 940.918 265.694 944.371 243.069C944.844 241.16 945.301 239.306 945.742 237.508L955.1 199.808H989.064C1012.82 199.808 1035.95 197.602 1058.78 197.44C1061.32 197.422 1063.85 197.432 1066.38 197.469C1088.06 196.247 1109.33 208.712 1132.38 201.589C1134.37 201.144 1136.37 200.783 1138.36 200.49C1140.36 200.198 1142.35 199.976 1144.35 199.808C1184.44 202.314 1224.05 201.687 1263.63 200.676C1266.27 200.608 1268.91 200.539 1271.54 200.469C1307.88 196.247 1341.56 192.686 1374.82 199.071C1377.41 199.114 1380.08 199.169 1382.74 199.233C1388.07 199.362 1393.41 199.534 1398.76 199.751C1401.5 199.807 1404.23 199.808 1406.9 199.808H1472.75L1465.74 228.036C1465.19 230.242 1464.62 232.566 1464.02 235.009C1458.77 251.871 1452.96 267.984 1448.72 284.395C1448.12 286.74 1447.55 289.091 1447.01 291.45C1447.54 307.589 1444.76 322.79 1440.57 338.096C1439.97 340.281 1439.34 342.47 1438.69 344.661C1432.02 369.361 1426.21 394.442 1419.26 419.213C1418.61 421.489 1417.96 423.761 1417.28 426.055C1410.7 450.887 1403.61 475.816 1397.54 502.748C1397.11 504.507 1396.67 506.248 1396.24 507.97L1378.14 580.877Z" fill="#E27BF5"/>
<path d="M1260.7 425.288C1277.19 354.931 1247.98 287.83 1195.47 275.414C1142.95 262.998 1087.02 309.969 1070.53 380.326C1054.04 450.683 1083.25 517.784 1135.76 530.2C1188.28 542.615 1244.21 495.645 1260.7 425.288Z" fill="white"/>
<path d="M1378.14 584.438H860.496C859.957 584.438 859.426 584.315 858.942 584.077C858.458 583.84 858.034 583.495 857.702 583.069C857.371 582.643 857.14 582.146 857.029 581.617C856.917 581.088 856.926 580.54 857.057 580.015L907.313 377.575C907.781 375.68 908.249 373.794 908.701 371.932C910.82 352.36 914.556 332.999 919.869 314.048C920.508 311.674 921.158 309.314 921.819 306.968C921.857 306.839 921.901 306.712 921.951 306.587C931.855 282.498 937.863 262.141 940.857 242.523C940.873 242.416 940.894 242.313 940.919 242.208L951.65 198.937C951.843 198.166 952.288 197.482 952.913 196.995C953.538 196.507 954.308 196.244 955.1 196.246H989.064C1001.43 196.246 1013.8 195.636 1025.78 195.044C1036.61 194.51 1047.82 193.955 1058.75 193.878C1061.26 193.86 1063.78 193.869 1066.3 193.905C1075.55 193.401 1084.72 195.264 1093.58 197.062C1106.42 199.669 1118.55 202.135 1131.33 198.186C1131.42 198.157 1131.51 198.132 1131.6 198.113C1133.61 197.664 1135.71 197.277 1137.84 196.966C1139.83 196.676 1141.92 196.432 1144.05 196.254C1144.22 196.241 1144.39 196.241 1144.56 196.254C1185.46 198.807 1225.76 198.079 1263.53 197.115L1271.28 196.912C1311.73 192.217 1342.89 189.373 1375.18 195.515C1377.68 195.557 1380.25 195.611 1382.82 195.671C1388.28 195.803 1393.69 195.979 1398.89 196.191C1401.53 196.245 1404.24 196.246 1406.89 196.246H1472.75C1473.29 196.247 1473.82 196.37 1474.3 196.607C1474.79 196.845 1475.21 197.189 1475.54 197.616C1475.87 198.042 1476.1 198.539 1476.22 199.068C1476.33 199.597 1476.32 200.145 1476.19 200.67L1469.18 228.897C1468.63 231.102 1468.06 233.423 1467.46 235.862C1467.44 235.933 1467.42 236.002 1467.4 236.072C1465.69 241.581 1463.89 247.069 1462.16 252.376C1458.47 263.665 1454.99 274.326 1452.16 285.288C1451.6 287.451 1451.07 289.621 1450.56 291.797C1450.99 306.269 1448.95 320.865 1443.98 339.039C1443.37 341.249 1442.74 343.462 1442.08 345.677C1439.19 356.392 1436.39 367.468 1433.68 378.178C1430.19 391.965 1426.59 406.221 1422.66 420.18C1422.01 422.475 1421.36 424.76 1420.68 427.066C1419.15 432.833 1417.57 438.704 1415.97 444.604C1410.88 463.495 1405.61 483.029 1400.99 503.534L1381.58 581.739C1381.39 582.509 1380.95 583.192 1380.32 583.681C1379.7 584.17 1378.93 584.437 1378.14 584.438ZM865.034 577.315H1375.38L1394.1 501.883C1398.74 481.311 1404.03 461.704 1409.14 442.741C1410.72 436.851 1412.3 430.983 1413.86 425.137C1414.56 422.762 1415.21 420.507 1415.85 418.239C1419.74 404.378 1423.34 390.166 1426.81 376.424C1429.53 365.687 1432.34 354.582 1435.27 343.727C1435.94 341.475 1436.56 339.313 1437.15 337.151C1441.98 319.503 1443.93 305.444 1443.47 291.565C1443.46 291.259 1443.48 290.953 1443.55 290.654C1444.1 288.26 1444.68 285.875 1445.29 283.497C1448.18 272.318 1451.7 261.552 1455.42 250.153C1457.14 244.904 1458.91 239.469 1460.6 234.047C1461.19 231.637 1461.76 229.345 1462.3 227.17L1468.21 203.369H1406.9C1404.21 203.369 1401.45 203.369 1398.69 203.31C1393.45 203.097 1388.08 202.924 1382.65 202.792C1380 202.728 1377.34 202.675 1374.76 202.63C1374.56 202.626 1374.36 202.606 1374.16 202.568C1342.72 196.533 1311.97 199.363 1271.95 204.007C1271.85 204.019 1271.74 204.026 1271.64 204.03L1263.72 204.236C1225.87 205.203 1185.48 205.932 1144.39 203.378C1142.49 203.542 1140.64 203.756 1138.87 204.014C1136.96 204.293 1135.08 204.637 1133.28 205.036C1118.83 209.457 1105.28 206.704 1092.18 204.044C1083.33 202.247 1074.98 200.554 1066.58 201.017C1066.49 201.017 1066.41 201.017 1066.32 201.017C1063.82 200.981 1061.32 200.972 1058.8 200.99C1048.02 201.067 1036.89 201.615 1026.12 202.148C1014.07 202.742 1001.6 203.359 989.073 203.359H957.872L947.854 243.757C944.77 263.852 938.647 284.631 928.593 309.109C927.955 311.364 927.33 313.627 926.719 315.897C921.484 334.55 917.811 353.611 915.737 372.879C915.719 373.044 915.691 373.207 915.654 373.369C915.179 375.328 914.689 377.302 914.195 379.29L865.034 577.315Z" fill="#22183B"/>
<path d="M766.708 641.326C766.53 641.326 766.353 641.312 766.177 641.285C748.615 638.587 722.433 635.824 697.418 637.978C697.241 637.992 697.063 637.992 696.886 637.978C694.641 637.829 692.409 637.715 690.192 637.638C677.297 637.184 664.916 637.85 651.815 638.555C649.154 638.698 646.476 638.838 643.781 638.977C641.625 639.275 639.661 639.501 637.782 639.666C633.748 640.058 629.688 640.105 625.645 639.807L600.547 639.871C600.018 639.871 599.495 639.753 599.018 639.524C598.541 639.295 598.121 638.962 597.788 638.549C597.456 638.135 597.219 637.653 597.097 637.136C596.974 636.619 596.968 636.081 597.079 635.562L608.898 580.36C609.068 579.564 609.506 578.85 610.137 578.338C610.768 577.826 611.554 577.547 612.366 577.547H1377.91C1378.44 577.547 1378.97 577.668 1379.45 577.901C1379.93 578.134 1380.35 578.473 1380.68 578.892C1381.01 579.312 1381.25 579.801 1381.36 580.324C1381.48 580.847 1381.48 581.389 1381.36 581.911L1368.99 635.592C1368.81 636.375 1368.37 637.074 1367.74 637.574C1367.12 638.075 1366.34 638.349 1365.54 638.351L802.423 639.471C792.208 640.104 783.004 640.662 773.897 641.061C771.533 641.164 769.175 641.255 766.822 641.333L766.708 641.326ZM716.296 630.077C733.248 630.195 750.169 631.568 766.919 634.187C769.135 634.114 771.358 634.028 773.588 633.929C782.669 633.53 791.868 632.973 802.089 632.339C802.158 632.339 802.229 632.339 802.3 632.339L1362.71 631.224L1373.45 584.661H615.229L604.936 632.74L625.768 632.699C625.869 632.695 625.97 632.699 626.071 632.711C629.76 632.988 633.467 632.945 637.149 632.585C638.954 632.426 640.852 632.207 642.951 631.915C643.054 631.901 643.159 631.89 643.261 631.885C646.001 631.748 648.719 631.605 651.416 631.456C664.677 630.743 677.199 630.069 690.417 630.533C692.621 630.612 694.837 630.723 697.065 630.868C703.47 630.318 709.927 630.077 716.296 630.077Z" fill="#22183B"/>
<path d="M848.681 639.047C848.427 639.047 848.174 639.02 847.926 638.965C847.471 638.865 847.04 638.677 846.657 638.411C846.275 638.144 845.948 637.804 845.696 637.411C845.444 637.017 845.272 636.578 845.189 636.118C845.107 635.658 845.115 635.185 845.214 634.728L857.033 580.12C857.246 579.211 857.807 578.423 858.593 577.925C859.379 577.428 860.329 577.26 861.237 577.458C862.145 577.657 862.939 578.205 863.449 578.986C863.958 579.767 864.142 580.718 863.961 581.633L852.142 636.242C851.97 637.036 851.533 637.747 850.903 638.257C850.274 638.767 849.49 639.046 848.681 639.047Z" fill="#22183B"/>
</svg>
