<svg width="433" height="353" fill="none" xmlns="http://www.w3.org/2000/svg"><g clip-path="url(#clip0)"><path d="M238.079 59.218l-44.092-7.161 10.447-27.983c2.31-6.193-.709-9.008-6.719-6.262l-52.214 23.871-21.797-30.07c-3.131-4.315-7.06-3.707-8.739 1.354l-11.681 35.26-56.989-6.962c-6.559-.8-8.585 2.797-4.51 8.001L60.21 72.772 20.343 92.934c-7.498 3.79-6.847 7.994 1.447 9.345l44.092 7.161-10.447 27.983c-2.31 6.193.71 9.008 6.72 6.262l52.213-23.871 21.799 30.076c3.13 4.315 7.06 3.707 8.738-1.354l11.682-35.26 56.988 6.962c6.559.8 8.585-2.796 4.511-8.001l-18.421-23.512 39.861-20.162c7.498-3.79 6.847-7.994-1.447-9.345z" fill="#171717"/><path d="M289.754 53.102H1.468v289.703h288.286V53.103z" fill="#F76567"/><path d="M148.526 107.044L63.8 244.458l-7.028 39.557c1.253-1.09 5.503.926 22.12.926 31.984 0 105.431-26.371 109.191-57.428 3.76-31.057-38.576-51.762-39.557-120.469z" fill="#201000"/><path d="M159.804 53.102a711.528 711.528 0 00-6.865 27.19c-19.724 83.635-22.775 153.105-43.262 169.887-17.599 14.439-46.531 9.644-46.531 9.644l-14.384 59.008 10.842 23.756H1.468V53.103h158.336z" fill="#fff"/><path d="M42.387 343.786c-.218 0-.49-.055-.709-.109-1.525-.381-2.397-1.907-2.015-3.433l20.704-81.184c.382-1.417 1.744-2.343 3.215-2.07.272.054 27.842 4.413 44.243-9.045 12.586-10.298 18.688-44.624 26.371-88.104 4.25-24.029 9.099-51.217 15.91-80.204 1.253-5.285 2.67-9.862 4.195-14.656 1.09-3.379 2.18-6.866 3.215-10.68.436-1.525 1.961-2.397 3.487-1.961 1.526.436 2.397 1.961 1.962 3.487-1.09 3.923-2.18 7.464-3.27 10.897-1.471 4.74-2.887 9.208-4.086 14.275-6.811 28.824-11.606 55.958-15.855 79.932-8.228 46.367-14.167 79.876-28.388 91.536-15.474 12.695-38.467 11.442-46.204 10.57l-20.05 78.624a2.785 2.785 0 01-2.725 2.125z" fill="#201000"/><path d="M159.804 53.102a707.802 707.802 0 00-6.865 27.19c-8.882-16.456-25.609-24.683-44.352-27.19h51.217z" fill="#201000"/><path d="M96.655 174.498c16.292-16.618 9.481-39.993 3.106-59.499l-3.106 59.499z" fill="#fff"/><path d="M96.655 177.276a2.764 2.764 0 01-1.962-.817 2.78 2.78 0 01-.054-3.977c14.548-14.821 9.426-35.253 2.452-56.666-.49-1.471.327-3.051 1.798-3.542 1.525-.49 3.105.327 3.541 1.798 5.721 17.49 14.385 43.862-3.76 62.387-.544.545-1.307.817-2.015.817zm38.631-63.203c-.545 0-1.09-.164-1.58-.491l-6.429-4.304c-1.308-.872-1.635-2.615-.763-3.923.872-1.308 2.615-1.635 3.923-.763l6.429 4.304c1.308.872 1.635 2.616.763 3.923-.49.763-1.417 1.254-2.343 1.254zm-74.428 1.144c-4.413-.6-5.34 6.211-.926 6.81 4.359.6 5.34-6.211.926-6.81zm67.89 8.554c-4.414-.599-5.34 6.212-.926 6.811 4.413.599 5.339-6.211.926-6.811zm-80.531 84.126c-3.105 0-6.157-1.416-8.609-4.032-4.195-4.468-5.72-11.387-3.923-18.035.382-1.525 1.962-2.397 3.433-2.016 1.526.382 2.397 1.962 2.016 3.433-1.526 5.721.327 10.298 2.615 12.695 1.635 1.744 3.596 2.507 5.395 2.125 1.525-.327 2.996.709 3.323 2.234.327 1.526-.708 2.997-2.234 3.324-.654.218-1.307.272-2.016.272zM51.596 97.4a2.847 2.847 0 01-2.78-2.29c-.272-1.525.71-2.996 2.235-3.268l11.278-2.125c1.526-.273 2.997.708 3.27 2.234.272 1.525-.709 2.996-2.234 3.269l-11.279 2.125c-.163 0-.327.054-.49.054zM25.224 343.35c-.872 0-1.69-.381-2.288-1.144L.324 312.075a2.857 2.857 0 01.545-3.977 2.857 2.857 0 013.977.545l22.612 30.13a2.859 2.859 0 01-.545 3.978 2.78 2.78 0 01-1.69.599zm34.816 1.853c-1.035 0-2.07-.6-2.56-1.58L46.2 320.085c-.654-1.417-.109-3.106 1.308-3.76a2.763 2.763 0 013.76 1.308l11.278 23.538c.654 1.416.11 3.106-1.308 3.759-.381.164-.762.273-1.198.273zM1.686 99.525s64.947-34.817 72.466-46.15l-72.739-.218.273 46.368z" fill="#201000"/></g><defs><clipPath id="clip0"><path fill="#fff" d="M0 0h433v353H0z"/></clipPath></defs></svg>