<svg width="353" height="356" fill="none" xmlns="http://www.w3.org/2000/svg"><path d="M277.079 211.218l-44.092-7.161 10.447-27.983c2.31-6.193-.709-9.008-6.719-6.262l-52.214 23.871-21.797-30.069c-3.131-4.316-7.06-3.708-8.739 1.353l-11.681 35.26-56.989-6.962c-6.559-.8-8.585 2.797-4.51 8.001l18.426 23.505-39.868 20.163c-7.498 3.79-6.847 7.994 1.447 9.345l44.092 7.161-10.447 27.983c-2.31 6.193.71 9.008 6.719 6.262l52.214-23.871 21.799 30.076c3.13 4.315 7.06 3.707 8.738-1.354l11.682-35.26 56.988 6.962c6.559.8 8.585-2.796 4.511-8.001l-18.421-23.512 39.861-20.162c7.498-3.79 6.847-7.994-1.447-9.345z" fill="#171717"/><path d="M261.789 59.514v-.22c0-32.4-26.273-58.673-58.672-58.673-32.4 0-58.672 26.273-58.672 58.672v.22h-86.27v85.608C25.997 145.397 0 171.559 0 203.738c0 32.233 25.997 58.396 58.175 58.616v89.195h293.747V59.514h-90.133z" fill="#853EF3"/><path d="M324.268 128.618c-11.48-1.104-22.243 3.919-27.873 13.688-1.601.055-3.091 1.49-2.208 3.367 9.107 18.766 15.013 38.747 16.835 59.555 1.655 18.877-1.601 37.753.11 56.575 2.153 23.237 17.331 47.688 40.679 51V147.715c-6.182-9.935-15.621-17.938-27.543-19.097z" fill="#201000"/><path d="M313.892 205.725c6.9-47.909-25.389-82.902-67.944-98.743-16.669-6.182-39.906-15.069-56.133-3.367-11.702 8.389-12.254 25.169.441 32.565.828.496 1.601.386 2.153 0 32.068 33.779 71.532 59.113 115.853 73.85 1.877.607 3.312-.828 3.478-2.318 1.048 0 1.987-.662 2.152-1.987z" fill="#201000"/><path d="M351.921 178.68v45.259c-10.929 10.377-30.302 14.627-47.909 16.007 0 0-10.708 31.902-28.48 40.954 1.876 31.406 3.698 55.968 4.857 70.705.055.386.055.828.11 1.159h-72.195l-.11-1.159-4.912-54.919c-19.65-3.257-37.698-11.26-43.825-30.357-6.182-19.318 6.955-58.286 17.607-96.37 3.533-12.585 8.059-22.685 13.799-30.247 15.565-20.864 39.63-23.237 73.574-8.721 39.409 16.835 36.318 51.166 36.318 51.166 22.41-11.425 40.955-10.542 51.166-3.477z" fill="#fff"/><path d="M280.445 355.635c-1.491 0-2.705-1.159-2.87-2.65-.994-12.253-2.871-37.863-4.968-71.974-.055-1.159.552-2.207 1.545-2.704 16.559-8.39 26.991-38.968 27.101-39.299.386-1.104 1.325-1.876 2.484-1.932 15.013-1.159 33.669-3.974 44.321-15.454a2.868 2.868 0 014.029-.166 2.867 2.867 0 01.166 4.029c-11.591 12.419-30.523 15.786-46.198 17.111-2.539 6.789-12.253 30.743-27.597 39.85 2.042 33.172 3.918 58.065 4.857 70.042.11 1.601-1.049 2.981-2.65 3.091-.055.056-.11.056-.22.056z" fill="#201000"/><path d="M208.25 355.634c-1.491 0-2.705-1.104-2.87-2.594l-4.802-53.87c-24.12-4.471-38.471-14.958-43.88-31.903-5.575-17.386 3.422-48.682 12.971-81.798l4.636-16.228c3.698-13.191 8.39-23.347 14.24-31.185 16.227-21.691 41.396-24.837 76.942-9.659 31.957 13.633 37.201 38.747 37.974 49.234 25.555-11.812 40.347-6.899 48.295-.386 1.214.993 1.435 2.814.442 4.029-.994 1.214-2.815 1.435-4.03.441-10.155-8.224-26.107-7.175-46.198 3.036-.938.497-2.042.386-2.925-.166-.883-.607-1.325-1.6-1.269-2.649.11-1.325 2.318-32.51-34.608-48.24-33.227-14.24-55.525-11.757-70.152 7.838-5.354 7.12-9.88 17-13.357 29.308-1.49 5.409-3.091 10.873-4.637 16.282-9.272 32.234-18.048 62.702-13.025 78.432 4.857 15.234 18.49 24.562 41.561 28.425a2.876 2.876 0 012.374 2.595l5.022 56.077c.166 1.546-1.048 2.981-2.594 3.091.055-.11 0-.11-.11-.11z" fill="#201000"/><path d="M215.867 168.524c-18.159 17.607-38.912 42.003-23.182 67.889 1.656 2.76 5.63-.276 3.974-3.035-14.13-23.182 6.348-45.536 22.188-60.88 2.319-2.208-.662-6.237-2.98-3.974zm30.136 70.042c-2.981 6.734-11.205 9.604-17.828 6.458-2.926-1.38-4.857 3.201-1.987 4.581 9.052 4.361 20.367.111 24.396-9.052 1.324-2.98-3.312-4.967-4.581-1.987zm88.918-43.217c-11.646.11-22.409 5.961-28.977 15.509-1.821 2.65 2.097 5.741 3.919 3.091 5.961-8.665 15.234-13.522 25.721-13.633 3.201 0 2.539-4.967-.663-4.967zm-79.315-18.546c-3.974-.552-4.857 5.63-.827 6.182 3.918.607 4.801-5.63.827-6.182zm-61.1-15.344c-3.974-.552-4.857 5.63-.828 6.182 3.974.552 4.857-5.63.828-6.182zm9.769-16.393c-.165-1.435-1.435-2.208-2.815-2.153-1.269.056-2.539.056-3.808.111-1.38.055-2.318 1.545-2.153 2.815.166 1.435 1.435 2.208 2.815 2.152 1.27-.055 2.539-.055 3.809-.11 1.324-.055 2.318-1.546 2.152-2.815zm61.378 17.441c-1.104-1.214-2.208-2.428-3.312-3.587-.883-.994-2.373-1.325-3.533-.497-.993.773-1.379 2.484-.496 3.532 1.104 1.215 2.207 2.429 3.311 3.588.883.993 2.374 1.325 3.533.497 1.049-.773 1.435-2.539.497-3.533zm25.333-22.078c-9.714-11.59-22.63-19.097-37.367-22.298-.662-.166-1.214 0-1.655.276l-1.159-.331c-.773-.221-1.546-.166-2.208.165l-3.478-4.802c-1.876-2.594-5.85.387-3.974 3.036 14.572 20.146 28.426 41.12 43.77 60.659 4.857 6.127 17.276 14.351 20.477 1.601 3.146-12.309-6.899-29.419-14.406-38.306zm-175.85 213.549c-.11 0-.276 0-.386-.055a2.875 2.875 0 01-2.429-3.257c1.049-7.175 5.244-13.191 12.143-17.386 16.338-9.88 45.646-8.114 82.571 4.967a2.9 2.9 0 011.767 3.643 2.9 2.9 0 01-3.643 1.767c-47.578-16.835-69.104-10.653-77.659-5.465-5.409 3.257-8.666 7.838-9.439 13.302-.276 1.49-1.49 2.484-2.925 2.484z" fill="#201000"/></svg>