<svg width="433" height="353" fill="none" xmlns="http://www.w3.org/2000/svg"><path d="M321.104 86.992l-13.824 42.477-26.055-14.607c-5.766-3.229-9.011-.677-7.216 5.682l15.6 55.252-33.051 16.94c-4.744 2.433-4.744 6.409 0 8.843l33.057 16.939-15.6 55.252c-1.794 6.359 1.45 8.912 7.217 5.682l26.048-14.613 13.824 42.484c2.598 7.989 6.852 7.989 9.456 0l13.824-42.477 26.055 14.606c5.767 3.23 9.011.677 7.216-5.682l-15.6-55.252 33.057-16.939c4.744-2.434 4.744-6.41 0-8.843l-33.057-16.94 15.6-55.252c1.795-6.359-1.449-8.911-7.216-5.682l-26.055 14.607-13.824-42.477c-2.598-7.99-6.852-7.99-9.456 0z" fill="#171717"/><path d="M57.785 60v92.159C25.822 152.433 0 178.42 0 210.383c0 32.017 25.822 58.003 57.785 58.223v83.826h291.773V60H57.785z" fill="#FFDF57"/><path d="M176.479 117.401c-4.002 12.171 11.349 17.105 19.901 18.585.494.055.877.055 1.261-.11.11.055.274.055.384.11 8.552-17.489 26.261-22.916 53.837-17.653 32.017 6.085 33.717 26.041 33.717 26.041 1.919-2.741 5.976-5.866 11.02-8.278.328-.494.657-1.042.986-1.59 0-.055.055-.11.055-.11 1.645-.274 3.07-1.864 1.974-3.673-10.088-17.105-26.371-39.528-45.723-47.04-6.031-2.302-12.171-1.37-15.187 4.88-1.535 3.125-1.48 6.25-.658 9.32-8.991-6.469-18.64-11.897-28.947-16.118-9.704-3.947-23.903-10.307-34.374-5.757-7.676 3.345-10.362 11.788-8.553 19.627 1.7 7.621 7.346 12.884 13.706 17.051-1.48 1.096-2.686 2.631-3.399 4.715z" fill="#201000"/><path d="M193.31 232.586c7.401 12.884 22.149 15.844 37.335 15.241l6.141 36.952s7.511 19.133 32.181 14.199c9.485-1.919 19.408-13.377 19.408-13.377s-2.741-14.364-5.921-60.416c12.007-9.265 15.296-34.046 15.296-34.046 25.11-4.112 47.478-20.997 36.842-45.394-7.566-17.27-25.713-15.515-37.993-9.594-5.044 2.412-9.101 5.537-11.02 8.278 0 0-1.645-19.901-33.717-26.041-27.576-5.263-45.23.164-53.837 17.653-3.125 6.36-5.044 14.364-5.866 24.013-2.303 29.221-6.36 59.484 1.151 72.532z" fill="#fff"/><path d="M261.237 302.652c-20.231 0-27.029-16.612-27.084-16.831-.054-.165-.109-.384-.164-.549l-5.756-34.484c-18.586.329-30.757-5.208-37.445-16.721-6.908-11.952-4.77-36.129-2.522-61.678.383-4.166.712-8.333 1.041-12.499.823-10.198 2.851-18.366 6.141-25.055 9.046-18.476 27.686-24.78 56.907-19.188 23.684 4.495 31.798 16.282 34.594 23.245 2.248-1.919 5.154-3.728 8.388-5.263 4.66-2.248 16.667-6.963 27.906-2.796 6.25 2.357 10.964 6.963 13.925 13.816 4.057 9.32 3.893 18.42-.439 26.425-5.975 10.965-19.517 19.298-36.512 22.532-1.042 6.141-4.935 24.068-14.858 32.84 3.125 44.079 5.757 58.443 5.812 58.607.164.822-.055 1.754-.658 2.357-.439.494-10.691 12.281-20.998 14.31-2.96.657-5.702.932-8.278.932zm-21.656-18.695c.932 2.138 8.169 16.337 28.892 12.225 6.908-1.37 14.364-8.826 16.886-11.513-.767-4.605-3.07-20.943-5.756-59.319a2.911 2.911 0 011.096-2.467c10.965-8.498 14.2-31.908 14.2-32.182.164-1.261 1.096-2.248 2.357-2.413 16.009-2.631 29.221-10.306 34.484-20.01 3.509-6.47 3.619-13.706.22-21.437-2.358-5.372-5.976-8.991-10.746-10.745-6.359-2.357-15.131-1.425-23.465 2.577-4.44 2.138-8.223 4.934-9.923 7.346-.712.987-1.919 1.426-3.07 1.097a2.874 2.874 0 01-2.083-2.522c-.055-.713-2.138-17.873-31.414-23.465-26.755-5.099-42.873.055-50.713 16.118-2.96 5.976-4.824 13.706-5.592 23.026-.329 4.167-.712 8.388-1.041 12.555-2.084 23.574-4.222 47.916 1.809 58.333 5.756 10.033 17.105 14.583 34.758 13.816 1.371-.11 2.687.932 2.906 2.357l6.195 36.623z" fill="#201000"/><path d="M219.954 198.595c-.877 0-1.7-.383-2.248-1.096-10.197-13.213-4.934-28.399 7.566-50.219.767-1.37 2.522-1.809 3.892-1.042 1.371.768 1.81 2.522 1.042 3.893-13.322 23.3-15.351 34.375-8.004 43.914a2.919 2.919 0 01-.494 4.002c-.548.329-1.151.548-1.754.548zm38.635-39.993a3.235 3.235 0 10-1.377-6.321 3.235 3.235 0 001.377 6.321zm-47.486-.38a3.236 3.236 0 00-1.377-6.321 3.234 3.234 0 101.377 6.321zm83.851 13.674c-.219 0-.493-.055-.712-.11-1.535-.383-2.467-1.918-2.029-3.453 1.7-6.744 12.226-19.847 23.52-20.011h.054c1.536 0 2.797 1.261 2.851 2.796 0 1.59-1.206 2.851-2.796 2.905-8.497.165-16.94 11.294-18.092 15.735-.383 1.316-1.535 2.138-2.796 2.138zm-30.647-31.085c-.329 0-.658-.055-.987-.165l-7.565-2.85c-1.481-.549-2.193-2.193-1.645-3.674.548-1.48 2.193-2.193 3.673-1.644l7.566 2.851c1.48.548 2.193 2.192 1.645 3.673-.494 1.096-1.535 1.809-2.687 1.809zm-60.635 1.863a2.888 2.888 0 01-2.687-1.864c-.548-1.48.22-3.125 1.645-3.673l7.566-2.851c1.48-.548 3.125.165 3.673 1.645s-.219 3.125-1.645 3.673l-7.565 2.851a2.144 2.144 0 01-.987.219zm54.001 61.568c-.329-3.618-6.03-3.673-5.701 0 .274 3.125-2.577 6.415-5.866 5.702-3.564-.768-5.099 4.715-1.536 5.482 6.689 1.426 13.761-4.166 13.103-11.184zM112.718 352.98h-.383c-1.535-.219-2.632-1.645-2.413-3.18 11.13-81.688 79.495-73.519 120.394-68.585 2.358.275 4.66.549 6.853.823 1.535.164 2.687 1.59 2.522 3.125a2.84 2.84 0 01-3.125 2.522 806.919 806.919 0 00-6.853-.823c-41.282-4.934-103.672-12.445-114.089 63.706-.274 1.371-1.48 2.412-2.906 2.412zm233.989-58.004c-.164 0-.274 0-.439-.055-.219-.055-23.081-3.564-58.113-6.524a2.764 2.764 0 01-2.577-3.07 2.794 2.794 0 013.07-2.577c35.252 2.961 58.278 6.524 58.498 6.524 1.535.219 2.631 1.7 2.357 3.235-.219 1.425-1.425 2.467-2.796 2.467z" fill="#201000"/></svg>