<svg width="353" height="354" fill="none" xmlns="http://www.w3.org/2000/svg"><path d="M284.079 208.218l-44.092-7.161 10.447-27.983c2.31-6.193-.709-9.008-6.719-6.262l-52.214 23.871-21.797-30.069c-3.131-4.316-7.06-3.708-8.739 1.353l-11.681 35.26-56.989-6.962c-6.559-.8-8.585 2.797-4.51 8.001l18.426 23.505-39.868 20.163c-7.498 3.79-6.847 7.994 1.447 9.345l44.092 7.161-10.447 27.983c-2.31 6.193.709 9.008 6.719 6.262l52.214-23.871 21.799 30.076c3.13 4.315 7.06 3.707 8.738-1.354l11.682-35.26 56.988 6.962c6.559.8 8.585-2.796 4.511-8.001l-18.421-23.512 39.861-20.162c7.498-3.79 6.847-7.994-1.447-9.345z" fill="#171717"/><path d="M205.813 62.103v-.217C205.813 29.92 179.892 4 147.927 4c-31.965 0-57.886 25.92-57.886 57.886v.217H1.824V350.28H290V62.103h-84.187z" fill="#FF98E1"/><path d="M257.164 350.279H1.879v-26.03c17.317-8.876 56.742-16.608 101.613-18.895 0 0 125.628 2.123 141.855 22.598 5.936 7.461 9.584 15.357 11.817 22.327z" fill="#fff"/><path d="M257.218 353.111a2.867 2.867 0 01-2.668-1.852c-11.109-30.549-34.96-45.306-134.722-40.95-5.99.272-11.98.49-17.916.708-37.301 1.307-72.48 2.559-97.8 15.193-1.417.708-3.105.109-3.813-1.252-.707-1.416-.108-3.104 1.253-3.812 26.41-13.178 62.187-14.431 100.088-15.792 5.936-.218 11.871-.436 17.861-.708 92.465-4.03 126.554 6.861 140.276 44.653.545 1.47-.217 3.104-1.688 3.594-.272.163-.599.218-.871.218z" fill="#201000"/><path d="M169.981 215.013c-5.935-25.322-30.005-62.405-42.693-100.687-19.93-41.767-75.8-14.267-93.934 15.247-11.055 17.97-13.396 41.713-6.59 63.005 16.01 49.989 48.792 57.068 48.792 57.068l6.045 67.688 56.47-1.416 1.851-61.153s19.223.055 29.024-15.901c3.213-5.336 3.05-15.356 1.035-23.851z" fill="#fff"/><path d="M81.6 320.166c-1.47 0-2.667-1.089-2.83-2.56l-5.828-65.781c-7.678-2.451-34.633-14.05-48.846-58.431-7.133-22.272-4.574-46.722 6.862-65.346 11.816-19.222 40.405-39.098 65.945-37.846 14.811.763 26.193 8.713 32.945 22.871.054.109.109.218.109.327 6.153 18.569 15.247 37.302 23.252 53.856 8.441 17.426 16.391 33.871 19.495 47.104 1.906 8.277 2.559 19.386-1.47 25.975-8.332 13.559-22.654 16.445-28.698 17.099l-1.743 58.593c-.054 1.579-1.361 2.723-2.886 2.723-1.579-.055-2.777-1.362-2.722-2.886l1.851-61.153a2.825 2.825 0 012.832-2.723c.163 0 17.806-.163 26.574-14.539 2.505-4.139 2.831-12.906.762-21.728-2.941-12.634-10.782-28.807-19.114-45.906-8.059-16.608-17.207-35.45-23.47-54.346-5.935-12.252-15.356-18.841-28.099-19.494-22.816-1.253-49.826 17.207-60.826 35.123-10.618 17.262-12.96 39.915-6.317 60.663 15.357 47.866 46.396 55.108 46.668 55.163 1.198.272 2.124 1.252 2.233 2.505l6.045 67.687c.163 1.525-1.035 2.941-2.56 3.05h-.163z" fill="#201000"/><path d="M75.284 252.587c3.812-1.906 4.683-5.391 7.188-9.257 9.857-15.302.164-39.589-.163-56.143a75.619 75.619 0 01.544-10.456c-.544-1.906-.054-1.797-.544-3.757 2.233.871 4.52.599 6.916-1.362 5.772-4.846 1.034-17.153.054-23.088-1.906-11.327-3.812-22.654-5.718-34.035 5.174-8.767 13.07-15.247 22.218-19.876-24.886-7.624-58.975 13.069-72.37 34.906-11.055 17.97-13.397 41.712-6.59 63.004 13.287 41.713 40.515 57.287 48.465 60.064z" fill="#201000"/><path d="M138.288 141.499l26.138 47.049c9.585-17.044-4.737-24.396-26.138-47.049z" fill="#fff"/><path d="M164.426 191.434c-.49 0-.926-.109-1.361-.381a2.85 2.85 0 01-1.089-3.867c6.262-11.163 1.361-16.826-13.723-31.638-3.594-3.54-7.678-7.515-12.035-12.143-1.089-1.144-1.034-2.941.109-3.976 1.144-1.089 2.941-1.034 3.976.109 4.302 4.52 8.331 8.495 11.871 11.98 14.594 14.268 23.415 22.926 14.703 38.446a2.8 2.8 0 01-2.451 1.47z" fill="#201000"/><path d="M84.487 170.959c-28.861-9.203-44.38 7.624-43.618 21.782 1.306 23.416 23.143 32.564 54.945 20.257" fill="#fff"/><path d="M70.002 221.275c-7.569 0-14.212-1.688-19.44-5.119-7.57-4.9-11.871-12.96-12.47-23.306-.436-7.842 3.322-15.629 10.074-20.857 5.337-4.138 17.262-10.128 37.193-3.757a2.884 2.884 0 011.851 3.54c-.49 1.47-2.07 2.341-3.54 1.851-12.96-4.138-24.286-3.104-32.019 2.886-5.228 4.03-8.223 10.183-7.896 16.064.49 8.441 3.92 14.976 9.91 18.842 9.258 5.99 23.907 5.609 41.223-1.089 1.47-.545 3.104.163 3.649 1.633.544 1.471-.164 3.104-1.634 3.649-9.802 3.812-18.896 5.663-26.9 5.663z" fill="#201000"/><path d="M57.804 189.092c8.386-3.866 18.515-2.178 25.158 4.248 2.396 2.341-.871 6.48-3.267 4.084-5.446-5.282-13.124-6.644-19.985-3.485-3.104 1.47-5.01-3.431-1.906-4.847zm76.013-37.209a3.268 3.268 0 10-2.357-6.096 3.268 3.268 0 002.357 6.096zm-13.826-19.642c1.198-1.143 2.396-2.341 3.594-3.485 1.035-.98 2.505-1.361 3.703-.436.98.817 1.416 2.669.436 3.703l-3.594 3.485c-1.035.981-2.505 1.362-3.703.436-1.035-.817-1.471-2.723-.436-3.703zm17.916 74.06c2.396 3.321 6.643 4.9 10.618 3.648 3.213-1.035 5.119 3.866 1.906 4.901-6.153 1.96-12.906-.109-16.717-5.391-1.961-2.777 2.232-5.936 4.193-3.158zm-30.06 86.419c-9.638 0-19.985-2.178-29.242-8.331-1.307-.872-1.634-2.614-.762-3.921.871-1.307 2.614-1.634 3.92-.762 19.713 13.123 45.416 5.336 53.639 1.252 1.415-.708 3.104-.109 3.811 1.252.708 1.416.109 3.104-1.252 3.812-6.371 3.159-17.643 6.698-30.114 6.698z" fill="#201000"/></svg>