<svg width="616" height="439" viewBox="0 0 616 439" fill="none" xmlns="http://www.w3.org/2000/svg">
<path d="M572.35 166.802L464.54 149.292L490.085 80.8714C495.732 65.7285 488.35 58.8444 473.656 65.5603L345.986 123.928L292.689 50.4037C285.034 39.8512 275.427 41.3389 271.322 53.7123L242.76 139.927L103.416 122.906C87.3787 120.949 82.4249 129.743 92.3869 142.469L137.442 199.942L39.961 249.24C21.6269 258.507 23.2188 268.787 43.4993 272.09L151.309 289.601L125.764 358.021C120.118 373.164 127.499 380.048 142.194 373.332L269.863 314.965L323.163 388.504C330.818 399.057 340.425 397.569 344.53 385.195L373.092 298.981L512.435 316.002C528.473 317.959 533.427 309.165 523.465 296.439L478.423 238.949L575.888 189.652C594.222 180.386 592.631 170.105 572.35 166.802Z" fill="#5B6CFF"/>
</svg>
