<svg width="679" height="354" viewBox="0 0 679 354" fill="none" xmlns="http://www.w3.org/2000/svg">
<mask id="mask0" mask-type="alpha" maskUnits="userSpaceOnUse" x="-120" y="-104" width="1320" height="956">
<path d="M974.966 27.6145L1098.14 147.023L1200 160.821L1147.29 851.797H954.24V666.581L909.825 606.081L844.684 394.861L697.82 252.102L588.264 111.466L525.491 92.891L457.389 252.102L360.5 310.5L242 242L90.5 193.5L-120 -12.1883L253.674 -104L679.462 -84.8947L974.966 27.6145Z" fill="#C4C4C4"/>
</mask>
<g mask="url(#mask0)">
<path fill-rule="evenodd" clip-rule="evenodd" d="M546.29 537.767L505.653 701.048L498.903 741.04L810.72 743.358C811.246 743.362 811.771 743.31 812.283 743.203L972.256 745.164C974.453 745.191 975.149 742.521 973.166 741.674L869.123 697.221L841.896 642.341H861.912C863.043 642.341 863.96 641.519 863.96 640.506V458.419C863.96 457.406 863.043 456.584 861.912 456.584H747.736V353.845C747.736 352.832 746.819 352.01 745.688 352.01H542.424C541.292 352.01 540.375 352.832 540.375 353.845V405.537L415.832 376.438C415.446 376.348 415.058 376.27 414.666 376.205C405.493 374.672 396.669 380.091 394.958 388.308L332.784 686.883C332.709 687.243 332.672 687.609 332.672 687.976C332.672 691.269 335.652 693.939 339.328 693.939H344.877L340.829 704.392L264.238 720.125C261.933 720.599 259.698 721.313 257.579 722.254L218.956 739.396C217.016 740.257 217.701 742.875 219.866 742.875H318.073C318.096 742.875 318.119 742.875 318.141 742.875H406.928C406.96 742.876 406.991 742.876 407.023 742.875H492.093C493.316 742.875 494.266 741.922 494.128 740.833L488.188 693.939H503.226L542.099 537.744C542.205 537.759 542.313 537.767 542.424 537.767H546.29ZM837.413 642.341L850.83 669.382C850.328 669.056 849.668 668.936 849.029 669.11C835.5 672.789 817.598 668.812 795.356 657C795.165 656.899 794.963 656.828 794.757 656.787L790.656 642.341H837.413ZM471.536 693.939C437.847 699.185 415.757 714.292 405.534 739.206H321.776L343.633 707.413C343.949 707.198 344.193 706.901 344.327 706.554L349.213 693.939H471.536ZM796.138 661.651V661.651C817.976 672.779 835.994 676.489 850.219 672.621C851.03 672.401 851.577 671.769 851.661 671.059L865.658 699.271L883.005 740.4L816.964 739.591C817.463 738.464 817.585 737.191 817.226 735.926L796.138 661.651ZM337.897 708.759L316.965 739.206H228.612L259.397 725.542C261.229 724.729 263.161 724.111 265.154 723.702L337.897 708.759ZM484.301 695.79L489.8 739.206H409.912C420.914 713.833 445.207 699.536 483.135 696.246C483.585 696.207 483.987 696.04 484.301 695.79ZM887.405 740.454C887.397 740.433 887.389 740.413 887.38 740.392L871.274 702.205L962.965 741.38L887.405 740.454ZM743.64 456.584H659.16H658.648C657.517 456.584 656.6 457.406 656.6 458.419V534.097H544.471V355.68H743.64V456.584ZM747.736 460.254H859.864V638.671H660.696V537.767H745.688C746.819 537.767 747.736 536.945 747.736 535.932V460.254ZM593.727 228.138C591.201 228.152 588.741 228.386 586.348 228.84C583.568 229.369 581.341 231.229 580.558 233.676C579.391 237.329 581.75 241.138 585.827 242.185C588.683 242.917 591.663 243.332 594.764 243.429C597.865 243.526 600.87 243.299 603.775 242.747C606.555 242.219 608.783 240.359 609.565 237.911C610.692 234.385 608.533 230.712 604.713 229.521L617.027 231.072L603.657 277.005L645.493 283.48C639.851 250.329 636.16 230.779 634.42 224.829C632.916 219.691 625.365 215.433 618.065 212.61L611.786 185.373C611.443 183.884 609.818 182.927 608.156 183.234C607.253 183.401 606.481 183.924 606.054 184.656L591.904 208.951C591.593 208.991 591.286 209.034 590.981 209.079C578.671 210.061 568.267 218.278 565.953 229.513L565.132 233.498C562.061 236.923 559.11 240.507 556.28 244.25C555.413 245.397 556.223 246.958 557.761 247.103L562.243 247.527L557.64 269.876L561.679 270.488L566.329 247.913L583.729 249.557C584.854 249.664 585.862 248.933 585.98 247.925C586.099 246.918 585.283 246.015 584.159 245.908L561.622 243.778C566.639 237.4 572.026 231.517 577.782 226.13L593.727 228.138ZM571.646 225.357L572.816 225.504C572.105 226.195 571.399 226.892 570.698 227.598C570.969 226.829 571.286 226.082 571.646 225.357ZM591.599 231.88C592.785 231.805 593.991 231.787 595.216 231.826C597.988 231.913 600.638 232.281 603.168 232.93C605.071 233.419 606.172 235.196 605.627 236.901C605.262 238.043 604.223 238.911 602.925 239.158C600.351 239.647 597.679 239.849 594.907 239.762C592.135 239.675 589.486 239.306 586.955 238.657C585.052 238.169 583.951 236.391 584.496 234.687C584.6 234.361 584.76 234.057 584.964 233.783C584.96 233.803 584.957 233.822 584.953 233.842C584.601 235.835 586.014 237.693 588.109 237.99C590.204 238.287 592.189 236.912 592.541 234.918C592.744 233.769 592.361 232.666 591.599 231.88ZM575.45 255.972C578.663 257.698 582.605 257.896 587.157 256.658C588.239 256.363 588.85 255.339 588.522 254.369C588.193 253.4 587.049 252.852 585.967 253.147C582.444 254.105 579.681 253.966 577.557 252.825C576.587 252.304 575.329 252.586 574.748 253.455C574.166 254.324 574.48 255.451 575.45 255.972ZM446.325 166.323H461.527C464.638 166.323 467.159 164.064 467.159 161.278V152.563C467.159 149.777 464.638 147.518 461.527 147.518H434.019L460.332 115.983C460.763 115.466 460.86 114.785 460.587 114.188L411.245 6.45753L587.038 50.1125C586.991 50.4756 586.968 50.8448 586.968 51.2191C586.968 56.5386 591.781 60.8509 597.72 60.8509C599.464 60.8509 601.111 60.4788 602.568 59.8184L706.739 214.264C705.165 215.939 704.216 218.102 704.216 220.464C704.216 225.783 709.03 230.096 714.968 230.096C720.885 230.096 725.685 225.814 725.72 220.521L832.298 165.677C834.166 167.919 837.099 169.408 840.425 169.543L879.821 288.401C876.755 290.097 874.712 293.135 874.712 296.601C874.712 301.92 879.526 306.233 885.464 306.233C887.158 306.233 888.76 305.882 890.186 305.257L910.668 326.977L885.395 343.745L928.066 382.27C940.23 393.252 957.755 398 974.674 394.899C1001.35 390.01 1014.29 397.657 1013.51 417.841C1013.21 425.407 1011.61 432.033 1009.39 438.141C988.111 433.784 977.322 432.698 977.023 434.884C976.717 437.113 984.69 444.336 1000.94 456.554C997.638 463.12 994.506 469.591 992.729 476.693C972.437 478.707 962.539 480.755 963.034 482.839C963.539 484.968 973.104 489.267 991.728 495.736C992.592 501.83 994.618 508.535 998.222 516.108C1011.58 544.172 1014.9 570.693 1008.18 595.672C1008.05 596.164 1008.39 596.66 1008.94 596.778C1009.37 596.872 1009.82 596.704 1010.05 596.362C1022.35 578.159 1029.6 564.216 1031.8 554.534C1036.02 535.929 1024.61 516.204 1021.61 497.885C1039.35 497.384 1048.08 496.147 1047.81 494.175C1047.53 492.081 1038.96 487.293 1022.11 479.81C1023.25 474.007 1024.81 468.73 1026.65 463.869C1046.87 465.658 1056.98 465.488 1056.98 463.358C1056.98 461.301 1049.54 455.85 1034.65 447.005C1049.08 421.364 1065.58 407.239 1038.79 375.296C1015.75 347.818 986.406 364.262 972.837 346.477C963.791 334.62 954.182 320.747 944.009 304.857L913.967 324.788L893.459 303.042C895.173 301.335 896.216 299.077 896.216 296.601C896.216 291.281 891.402 286.969 885.464 286.969C884.851 286.969 884.249 287.015 883.664 287.104L844.518 169C848.687 167.675 851.672 164.11 851.672 159.921C851.672 154.601 846.858 150.289 840.92 150.289C834.982 150.289 830.168 154.601 830.168 159.921C830.168 160.764 830.289 161.583 830.516 162.362L724.878 216.722C723.248 213.261 719.425 210.832 714.968 210.832C713.159 210.832 711.454 211.232 709.958 211.939L605.823 57.5497C607.473 55.8568 608.472 53.6425 608.472 51.2191C608.472 45.8996 603.658 41.5873 597.72 41.5873C593.644 41.5873 590.099 43.6183 588.275 46.6121L409.298 2.16658C409.153 1.60768 408.717 1.11826 408.079 0.88429C407.817 0.788227 407.546 0.744328 407.28 0.747203C407.013 0.744329 406.741 0.788411 406.478 0.884866C406.019 1.05378 405.665 1.35523 405.448 1.71962C405.016 1.62253 404.546 1.65049 404.108 1.82757L278.594 52.6237C276.624 50.6366 273.751 49.3845 270.551 49.3845C264.613 49.3845 259.799 53.6968 259.799 59.0163C259.799 62.3485 261.688 65.2856 264.559 67.015L218.651 190.267C218.21 190.218 217.76 190.192 217.303 190.192C212.424 190.192 208.304 193.103 206.99 197.092L107.509 199.825C106.378 199.856 105.49 200.702 105.524 201.715C105.536 202.055 105.65 202.371 105.84 202.639L107.997 233.549L14.0386 159.921V203.373L49.5562 237.927H19.6769L62.8627 288.804L32.3741 297.29L115.331 360.346V474.499L270.465 507.719C271.01 507.836 271.57 507.895 272.131 507.895C276.09 507.895 279.299 505.02 279.299 501.474V499.01C279.03 499.018 278.755 498.978 278.488 498.886L151.275 454.624C150.514 454.359 150.001 453.713 149.97 452.982L146.5 369.434C146.45 368.221 147.704 367.299 149.022 367.581L323.141 404.786C323.589 404.881 323.966 405.102 324.24 405.396L338.777 382.608C341.879 368.966 342.892 361.675 341.815 360.736C339.547 358.758 329.109 356.653 310.501 354.42C274.429 340.961 254.092 330.838 249.49 324.049C246.419 319.52 267.103 292.36 249.49 278.498C231.925 264.673 224.045 263.386 191.765 245.477C175.786 236.611 148.332 222.6 109.404 203.445L206.602 200.774C207.135 205.647 211.722 209.456 217.303 209.456C223.241 209.456 228.055 205.144 228.055 199.824C228.055 196.209 225.832 193.059 222.543 191.412L268.344 68.4451C269.057 68.5781 269.795 68.6481 270.551 68.6481C276.489 68.6481 281.303 64.3358 281.303 59.0163C281.303 57.8891 281.087 56.8071 280.69 55.8018L403.479 6.10848L354.093 114.189C353.821 114.785 353.917 115.464 354.346 115.98L380.559 147.518H353.495C350.385 147.518 347.863 149.777 347.863 152.563V161.278C347.863 164.064 350.385 166.323 353.495 166.323H372.128C361.882 170.517 354.848 179.859 355.068 190.593C355.069 190.671 355.07 190.671 355.072 190.749L355.968 223.757C356.219 233.026 364.151 240.669 374.451 241.57L388.462 242.796C388.554 242.804 388.647 242.806 388.739 242.803L392.663 242.668V250.876C392.663 258.349 399.426 264.407 407.767 264.407C416.109 264.407 422.871 258.349 422.871 250.876V241.63L439.345 241.063C443.819 240.91 447.907 238.751 450.225 235.319C451.9 232.837 452.691 229.873 452.62 226.465C452.509 221.103 450.026 216.749 445.291 213.511C450.489 210.995 453.102 206.877 452.908 201.35C452.727 196.171 450.007 192.195 444.935 189.549C449.942 186.247 452.555 181.991 452.62 176.867C452.677 172.43 450.522 168.899 446.325 166.323ZM405.404 101.198C397.67 101.913 391.639 107.768 391.639 114.884C391.639 122.484 398.516 128.644 406.999 128.644C415.482 128.644 422.359 122.484 422.359 114.884C422.359 108.048 416.794 102.376 409.5 101.306L409.084 11.4068L456.357 114.619L428.906 147.518H385.666L358.322 114.62L404.993 12.4815L405.404 101.198ZM322.336 408.381C322.287 408.374 322.239 408.365 322.191 408.355L150.693 371.71L154.013 451.64L279.299 495.231V491.504L279.125 491.429L278.287 467.694C278.233 466.175 276.815 464.983 275.119 465.031C274.222 465.056 273.383 465.432 272.821 466.058L258.286 482.276L258.234 482.463L243.51 476.144L242.692 452.975C242.638 451.456 241.22 450.263 239.524 450.311C238.627 450.337 237.787 450.712 237.226 451.339L222.915 467.306L207.915 460.868L207.105 437.949C207.052 436.43 205.634 435.237 203.938 435.285C203.041 435.311 202.201 435.686 201.639 436.313L187.488 452.102L165.974 442.869L161.346 383.525L205.899 391.855C206.42 393.864 206.818 396.623 207.091 400.13C207.418 404.319 207.534 409.132 207.439 414.568C207.429 415.122 207.606 415.666 207.947 416.128C208.883 417.397 210.788 417.745 212.204 416.908L242.86 398.765L243.443 398.874C243.636 400.649 243.732 402.814 243.732 405.371C243.732 409.546 243.475 414.324 242.963 419.703C242.909 420.269 243.052 420.835 243.371 421.325C244.226 422.637 246.108 423.08 247.573 422.314L279.5 405.615L279.951 405.699C280.361 407.765 280.566 410.664 280.566 414.397C280.566 418.572 280.31 423.35 279.797 428.729C279.743 429.295 279.886 429.861 280.205 430.351C281.06 431.664 282.942 432.106 284.407 431.34L319.348 413.065L322.336 408.381ZM208.599 303.073L204.896 269.747L242.578 292.624L236.188 322.906L208.599 303.073ZM312.344 364.088C311.23 363.914 310.485 362.963 310.681 361.965C310.876 360.967 311.937 360.299 313.051 360.474L332.987 363.603C334.208 363.795 334.961 364.907 334.586 365.965L329.543 380.202C329.201 381.168 328.05 381.703 326.971 381.396C325.893 381.09 325.297 380.059 325.639 379.093L329.973 366.855L312.344 364.088ZM234.436 330.396C235.327 331.02 235.485 332.173 234.789 332.971C234.093 333.77 232.806 333.912 231.914 333.288L198.666 310.023C198.249 309.731 197.974 309.305 197.899 308.835L190.334 261.055C190.176 260.051 190.955 259.123 192.075 258.98C193.194 258.838 194.231 259.536 194.39 260.539L201.839 307.587L234.436 330.396ZM237.833 293.943C237.95 292.936 237.133 292.033 236.008 291.928C234.883 291.823 233.876 292.555 233.759 293.563L231.325 314.493C231.208 315.501 232.024 316.403 233.149 316.508C234.274 316.613 235.281 315.881 235.399 314.873L237.833 293.943ZM885.464 302.564C881.788 302.564 878.808 299.894 878.808 296.601C878.808 293.308 881.788 290.638 885.464 290.638C889.14 290.638 892.12 293.308 892.12 296.601C892.12 299.894 889.14 302.564 885.464 302.564ZM840.92 165.884C837.244 165.884 834.264 163.214 834.264 159.921C834.264 156.628 837.244 153.958 840.92 153.958C844.596 153.958 847.576 156.628 847.576 159.921C847.576 163.214 844.596 165.884 840.92 165.884ZM714.968 226.426C711.292 226.426 708.312 223.757 708.312 220.464C708.312 217.171 711.292 214.501 714.968 214.501C718.644 214.501 721.624 217.171 721.624 220.464C721.624 223.757 718.644 226.426 714.968 226.426ZM597.72 57.1816C594.044 57.1816 591.064 54.5121 591.064 51.2191C591.064 47.9261 594.044 45.2565 597.72 45.2565C601.396 45.2565 604.376 47.9261 604.376 51.2191C604.376 54.5121 601.396 57.1816 597.72 57.1816ZM270.551 64.9788C266.875 64.9788 263.895 62.3093 263.895 59.0163C263.895 55.7232 266.875 53.0537 270.551 53.0537C274.227 53.0537 277.207 55.7232 277.207 59.0163C277.207 62.3093 274.227 64.9788 270.551 64.9788ZM217.303 205.787C213.627 205.787 210.647 203.117 210.647 199.824C210.647 196.531 213.627 193.862 217.303 193.862C220.979 193.862 223.959 196.531 223.959 199.824C223.959 203.117 220.979 205.787 217.303 205.787ZM406.936 167.262L437.504 166.76C437.557 166.759 437.609 166.766 437.66 166.779C445.15 168.786 448.585 172.081 448.525 176.825C448.465 181.473 445.704 185.163 439.991 188.04H406.999V167.718C406.999 167.561 406.977 167.408 406.936 167.262ZM402.95 167.328C402.919 167.454 402.903 167.584 402.903 167.718V238.644L388.721 239.132L374.849 237.918C366.609 237.198 360.264 231.083 360.062 223.668L359.166 190.66C359.164 190.593 359.165 190.593 359.163 190.525C358.909 178.115 369.933 167.87 383.787 167.643L402.95 167.328ZM406.999 238.503V215.101H440.279C440.367 215.101 440.454 215.096 440.539 215.086C445.823 217.799 448.421 221.556 448.525 226.533C448.582 229.281 447.973 231.564 446.72 233.42C445.116 235.796 442.285 237.29 439.188 237.397L406.999 238.503ZM406.999 211.432V191.71H440.279C440.371 191.71 440.461 191.704 440.549 191.694C445.999 193.718 448.654 196.907 448.814 201.465C448.991 206.504 446.282 209.709 440.289 211.428C440.284 211.429 440.28 211.43 440.275 211.432H406.999Z" fill="#212121"/>
</g>
<path d="M128.724 353.019C117.528 353.019 106.332 351.52 95.2237 348.522C62.3403 339.618 34.9228 318.46 17.9962 288.927C1.06957 259.393 -3.42657 225.099 5.47753 192.216C14.3816 159.333 35.5398 131.915 65.0732 114.988C94.6066 98.0618 128.901 93.5656 161.784 102.47C194.668 111.374 222.085 132.532 239.012 162.065C255.938 191.599 260.434 225.893 251.53 258.776L250.296 258.424L251.53 258.776C242.626 291.66 221.468 319.077 191.935 336.004C172.451 347.288 150.764 353.019 128.724 353.019ZM128.372 100.707C106.861 100.707 85.6144 106.349 66.4838 117.281C37.5675 133.854 16.8501 160.743 8.12231 192.921C-0.605469 225.099 3.80252 258.688 20.3765 287.604C36.9504 316.521 63.839 337.238 96.0172 345.966C128.195 354.694 161.784 350.374 190.7 333.712C219.617 317.138 240.334 290.249 249.062 258.071C257.79 225.893 253.382 192.304 236.808 163.388C220.234 134.472 193.345 113.754 161.167 105.026C150.323 102.205 139.303 100.707 128.372 100.707Z" fill="black"/>
<ellipse cx="129.504" cy="225.506" rx="127.5" ry="127.51" fill="black"/>
<path d="M166.632 267.593L161.783 267.152C161.078 267.064 160.373 267.593 160.373 268.386C160.285 269.092 160.814 269.797 161.607 269.797L166.456 270.238C166.632 270.238 166.897 270.238 167.073 270.238C170.599 270.238 173.685 267.681 174.302 264.155C174.655 262.127 174.126 260.011 172.891 258.424C171.657 256.837 169.718 255.779 167.69 255.603L164.693 255.339C163.987 255.251 163.282 255.779 163.282 256.573C163.194 257.278 163.723 257.895 164.516 257.983L167.514 258.248C168.836 258.336 169.982 259.041 170.864 260.011C171.657 261.069 172.01 262.391 171.745 263.714C171.216 266.094 169.012 267.769 166.632 267.593Z" fill="black"/>
<path d="M175.447 253.751C177.563 253.663 179.062 251.812 178.974 249.784C178.885 247.668 177.034 246.169 175.006 246.258C172.979 246.346 171.392 248.197 171.48 250.225C171.568 252.341 173.331 253.839 175.447 253.751Z" fill="black"/>
<path d="M166.105 333.272C174.48 329.128 176.067 316.61 176.332 314.582C171.835 316.257 164.077 318.461 154.292 317.932C142.655 317.315 134.103 313.259 129.695 310.791C138.599 330.627 156.319 338.12 166.105 333.272Z" fill="black"/>
<mask id="mask1" mask-type="alpha" maskUnits="userSpaceOnUse" x="2" y="98" width="255" height="256">
<ellipse cx="129.5" cy="225.51" rx="127.5" ry="127.51" fill="black"/>
</mask>
<g mask="url(#mask1)">
<path fill-rule="evenodd" clip-rule="evenodd" d="M486.374 223.897H572.374C573.639 223.897 574.665 222.871 574.665 221.606C574.665 220.341 573.639 219.315 572.374 219.315H470.873H427.332L255.15 693.296C254.718 694.485 253.404 695.099 252.215 694.667C251.026 694.235 250.412 692.921 250.844 691.732L422.457 219.315H343.823C339.836 219.315 336.603 216.083 336.603 212.095C336.603 208.107 339.836 204.874 343.823 204.874H494.472C494.225 204.313 494.199 203.648 494.483 203.017L519.123 148.308C520.305 145.684 522.127 143.398 524.423 141.662L529.059 138.155C534.384 134.127 541.214 132.665 547.712 134.152V134.152L581.468 51.9936C585.826 47.0054 590.351 45.4868 595.04 47.4379C595.114 47.4687 595.188 47.5003 595.261 47.5327C600.725 49.9493 603.194 56.3372 600.778 61.8004C586.11 94.9585 574.706 120.74 566.565 139.143L611.844 151.152C613.067 151.476 613.795 152.73 613.471 153.953C613.146 155.176 611.892 155.904 610.67 155.58L564.689 143.385C562.662 147.968 560.865 152.029 559.299 155.569C562.865 156.926 564.489 162.305 565.114 171.793C565.199 173.084 564.198 174.19 562.904 174.233C550.073 174.659 539.256 176.731 530.454 180.427C526.163 182.229 522.647 185.213 519.91 189.42C522.709 189.501 525.263 189.845 527.921 190.65C533.784 192.424 538.025 196.088 539.782 201.987L581.931 202.339H860.686L913.699 369.974C915.964 377.136 914.703 384.57 910.889 390.402H992.622C994.312 385.128 998.2 381.834 1003.52 380.226C1005.87 379.516 1008.12 379.194 1010.57 379.102C1008.11 375.432 1004.98 372.818 1001.18 371.224C993.141 367.852 983.258 365.959 971.531 365.567L943.82 365.567C942.555 365.567 941.529 364.541 941.529 363.276C941.529 362.011 942.555 360.986 943.82 360.986L971.569 360.986L971.645 360.987C983.912 361.394 994.348 363.391 1002.95 366.999C1011.63 370.638 1017.31 378.522 1020.01 390.402H1043.44C1040.95 378.314 1036.11 370.628 1029.03 367.14C1020.8 363.082 1004.01 356.467 978.734 347.33C977.875 347.02 977.315 346.249 977.232 345.397L962.718 332.88C961.76 332.053 961.653 330.607 962.479 329.649C963.306 328.691 964.752 328.584 965.71 329.41L979.865 341.618C1023.89 352.047 1048.17 359.273 1053.8 363.791C1062.29 370.602 1067.8 380.111 1070.34 392.223C1070.39 392.468 1070.4 392.711 1070.37 392.945H1110.45C1114.43 392.945 1117.67 396.178 1117.67 400.165C1117.67 404.153 1114.43 407.386 1110.45 407.386H919.574L1054.61 691.531C1055.15 692.674 1054.67 694.04 1053.52 694.583C1052.38 695.126 1051.02 694.64 1050.47 693.497L914.502 407.386H849.822L954.21 610.269H922.78L948.777 691.819C949.248 693.296 948.145 694.805 946.594 694.805H931.793C931.757 694.806 931.722 694.806 931.686 694.805H719.404C717.798 694.805 716.69 693.194 717.266 691.694L720.867 682.302C724.754 672.164 733.276 664.512 743.773 661.736L782.898 651.385L770.076 610.269H719.404L648.266 428.039C649.042 427.505 649.438 426.522 649.181 425.559L611.923 286.173C609.503 277.12 614.536 267.746 623.418 264.761L714.992 233.986C716.191 233.583 716.837 232.285 716.434 231.085C716.031 229.886 714.732 229.241 713.533 229.644L621.958 260.419C610.784 264.174 604.453 275.967 607.497 287.356L644.165 424.535L625.539 609.598H569.374V692.514C569.374 693.779 568.348 694.805 567.083 694.805H544.43C543.165 694.805 542.14 693.779 542.14 692.514V642.003L501.862 693.918C501.429 694.478 500.761 694.805 500.053 694.805H340.317C338.71 694.805 337.603 693.194 338.178 691.694L341.78 682.302C345.667 672.164 354.189 664.512 364.685 661.736L404.76 651.134L413.54 609.598H348.904L424.164 393.427L424.413 393.431L486.374 223.897ZM1033.43 99.8684L963.302 98.1932L873.767 -101.018C870.267 -108.807 873.743 -117.958 881.531 -121.459C883.508 -122.347 885.649 -122.81 887.817 -122.818L1190.15 -123.852C1197.71 -123.878 1204.18 -118.438 1205.45 -110.989L1240.32 93.5237C1282.71 104.166 1314.1 142.53 1314.1 188.225C1314.1 242.148 1270.39 285.861 1216.47 285.861C1162.54 285.861 1118.83 242.148 1118.83 188.225C1118.83 168.309 1124.8 149.785 1135.03 134.342L1130.34 138.893C1128.68 140.505 1126.78 141.862 1124.72 142.921C1114.97 147.931 1106.45 149.248 1099.23 146.705C1093.15 144.562 1089.34 140.947 1088 136.031C1083.62 139.778 1078.22 140.987 1071.99 139.576C1065.23 138.043 1060.98 134.148 1059.47 128.155C1054.43 131.408 1049.25 132.15 1044.08 130.256C1034.5 126.742 1029.14 116.537 1031.68 106.652L1033.43 99.8684ZM160.867 115.28L170.21 -123.144C170.535 -131.441 177.356 -138 185.659 -138H531.131C532.636 -138 534.134 -137.78 535.576 -137.347C543.755 -134.892 548.394 -126.272 545.939 -118.093L482.336 93.7934C478.992 104.933 468.737 112.562 457.106 112.562H310.574C310.51 112.562 310.446 112.562 310.382 112.563C310.783 112.814 311.18 113.083 311.573 113.368C312.682 114.171 313.672 115.025 314.544 115.93C319.467 121.045 320.094 128.924 316.043 134.753L288.034 175.052C287.975 175.137 287.911 175.219 287.84 175.295L280.154 183.658C275.084 189.176 267.732 191.794 260.462 190.892L246.814 202.766C247.116 205.895 247.271 209.068 247.271 212.276C247.271 266.199 203.558 309.912 149.635 309.912C95.7129 309.912 52 266.199 52 212.276C52 158.354 95.7129 114.641 149.635 114.641C153.434 114.641 157.181 114.858 160.867 115.28ZM917.972 610.269H774.875L787.792 651.691H859.962C861.228 651.691 862.253 652.717 862.253 653.982C862.253 655.247 861.228 656.272 859.962 656.272H782.967C782.81 656.272 782.658 656.257 782.51 656.227L744.944 666.165C735.871 668.565 728.505 675.179 725.145 683.942L722.736 690.224H928.524L909.788 636.063C909.374 634.867 910.008 633.563 911.203 633.149C912.399 632.735 913.703 633.37 914.117 634.565L933.371 690.224H943.46L917.972 610.269ZM564.793 609.598H418.223L408.951 653.461C408.772 654.308 408.132 654.981 407.296 655.202L365.857 666.165C356.784 668.565 349.417 675.179 346.057 683.942L343.648 690.224H498.931L542.62 633.91C543.958 632.185 546.721 633.131 546.721 635.314V690.224H564.793V609.598ZM239.741 168.8L239.429 169.069C239.159 168.612 238.885 168.157 238.609 167.706L239.741 168.8ZM1013.05 383.663C1009.99 383.609 1007.43 383.829 1004.85 384.611C1001.41 385.65 998.922 387.491 997.538 390.402H1015.3C1014.69 387.933 1013.94 385.688 1013.05 383.663ZM1048.11 390.402H1065.21C1062.67 380.622 1057.91 372.967 1050.93 367.363C1047.33 364.468 1032.71 359.663 1007.54 353.156C1018.29 357.309 1026.12 360.598 1031.06 363.031C1039.77 367.324 1045.42 376.52 1048.11 390.402ZM545.942 138.46C541.018 137.543 535.874 138.744 531.823 141.808L527.187 145.315C525.503 146.589 524.167 148.265 523.3 150.189L500.12 201.656L510.17 201.74C513.091 188.757 519.254 180.161 528.681 176.203C529.37 175.914 530.069 175.634 530.78 175.364L545.942 138.46ZM552.761 170.35C555.214 170.082 557.746 169.883 560.357 169.753C560.058 166.588 559.613 164.113 559.036 162.35C558.719 161.38 558.376 160.67 558.037 160.226C557.827 159.95 557.69 159.852 557.612 159.833C557.551 159.819 557.489 159.808 557.427 159.802C555.331 164.54 553.776 168.056 552.761 170.35ZM534.907 201.946C533.423 198.434 530.581 196.241 526.594 195.035C523.714 194.163 520.863 193.926 517.452 193.994C516.422 196.322 515.559 198.915 514.865 201.779L534.907 201.946ZM200.378 77.824C209.748 87.0764 210.116 96.1451 201.081 103.812C200.56 104.255 199.898 104.423 199.271 104.333L201.154 129.324C224.811 144.048 241.71 168.61 246.128 197.29L257.406 187.478C257.83 186.539 258.855 185.975 259.913 186.173C266.086 187.325 272.465 185.255 276.781 180.558L284.362 172.31L312.281 132.139C315.086 128.103 314.652 122.648 311.243 119.107C310.565 118.402 309.779 117.726 308.885 117.078C304.408 113.833 299.527 113.449 293.916 115.964L273.444 143.13C272.683 144.141 271.247 144.342 270.237 143.581C269.226 142.82 269.024 141.384 269.786 140.373L290.804 112.481C292.378 107.272 291.101 103.319 286.878 100.137C282.674 96.9696 278.602 96.6281 274.228 99.0437C274.201 99.059 274.173 99.0737 274.145 99.0877C274.07 99.2919 273.963 99.4887 273.826 99.6715L252.8 127.574C252.039 128.584 250.602 128.786 249.592 128.024C248.582 127.263 248.38 125.827 249.141 124.817L270.167 96.9145C270.385 96.6253 270.658 96.4024 270.961 96.2493C271.037 96.0515 271.145 95.8556 271.288 95.6654L301.197 55.7385C303.576 48.8335 302.752 44.1812 298.952 41.2486C294.842 38.0772 289.668 38.2677 283.017 42.1001C282.958 42.1344 282.905 42.1791 282.861 42.2321L228.793 107.861C227.659 109.236 225.458 108.847 224.865 107.166C222.692 101.009 221.097 96.4364 220.078 93.4464C219.898 92.9197 219.717 92.364 219.515 91.7271C219.38 91.3 219.261 90.9188 219.043 90.2147C217.231 84.3649 216.277 82.148 214.663 80.7129C212.509 78.7992 210.178 77.4017 207.658 76.5076C205.08 75.593 202.333 76.1843 200.378 77.824ZM197.916 81.8442C197.749 82.569 197.69 83.3163 197.744 84.0614L198.915 99.6112C204.69 94.2427 204.462 88.638 197.916 81.8442ZM284.273 172.438L284.467 172.195L284.362 172.31L284.273 172.438ZM293.393 53.5466C294.281 52.6449 295.731 52.6332 296.633 53.5205C297.534 54.4078 297.546 55.8581 296.659 56.7598C293.458 60.012 289.442 59.9799 285.481 56.8955C281.486 53.7841 280.512 49.962 283.153 46.3408C283.899 45.3187 285.332 45.0945 286.354 45.84C287.376 46.5855 287.6 48.0184 286.854 49.0404C285.818 50.4617 286.1 51.5714 288.296 53.281C290.526 55.0176 291.935 55.0288 293.393 53.5466ZM149.635 305.331C201.028 305.331 242.69 263.669 242.69 212.276C242.69 160.884 201.028 119.222 149.635 119.222C98.243 119.222 56.5811 160.884 56.5811 212.276C56.5811 263.669 98.243 305.331 149.635 305.331ZM181.357 205.863C178.693 206.671 175.559 206.052 172.105 204.151C170.997 203.541 170.593 202.148 171.203 201.039C171.813 199.931 173.206 199.527 174.315 200.138C177.141 201.694 179.151 201.978 180.595 201.234L180.177 198.697C180.027 197.786 180.437 196.875 181.219 196.384L202.393 183.089L186.085 178.694C187.104 182.531 185.344 186.689 181.661 188.555C178.26 190.277 174.603 191.378 170.7 191.858C166.797 192.337 162.982 192.153 159.266 191.304C156.776 190.736 154.669 189.089 153.515 186.812C151.372 182.58 153.065 177.411 157.297 175.268C160.697 173.545 164.355 172.444 168.257 171.965C170.569 171.681 172.849 171.63 175.096 171.811C173.315 167.399 170.412 163.655 166.799 160.852L135.853 175.049L109.176 179.78C109.031 180.725 108.955 181.689 108.955 182.666V248.129C124.045 251.608 138.336 252.753 151.833 251.572C165.18 250.404 176.994 247.164 187.289 241.859L181.357 205.863ZM172.313 176.286C171.159 176.292 169.993 176.367 168.816 176.512C165.435 176.927 162.289 177.874 159.367 179.354C157.392 180.355 156.602 182.767 157.602 184.742C158.141 185.805 159.124 186.573 160.286 186.838C163.48 187.568 166.761 187.726 170.142 187.311C173.522 186.896 176.668 185.948 179.591 184.468C181.566 183.467 182.356 181.055 181.355 179.081C181.16 178.694 180.905 178.346 180.604 178.048C180.643 178.238 180.671 178.433 180.688 178.631C180.923 181.309 179.069 183.659 176.549 183.879C174.028 184.1 171.795 182.108 171.561 179.43C171.46 178.272 171.748 177.176 172.313 176.286ZM180.155 172.352L208.647 180.029C210.576 180.549 210.961 183.118 209.269 184.181L184.944 199.454L192.077 242.742C192.236 243.705 191.766 244.663 190.908 245.128C179.706 251.194 166.808 254.861 152.232 256.136C137.701 257.407 122.331 256.082 106.127 252.168C105.099 251.92 104.374 251 104.374 249.942V182.666C104.374 173.06 110.226 164.423 119.147 160.861L139.043 152.918C141.126 152.086 143.294 151.482 145.508 151.117C160.831 148.592 175.545 157.774 180.155 172.352ZM151.911 215.159C143.254 219.762 132.506 216.475 127.903 207.819C123.3 199.162 126.586 188.414 135.243 183.811C136.36 183.217 137.747 183.641 138.341 184.758C138.934 185.875 138.51 187.262 137.393 187.856C130.971 191.271 128.533 199.246 131.948 205.668C135.363 212.091 143.337 214.529 149.76 211.114C150.877 210.52 152.264 210.944 152.858 212.061C153.452 213.178 153.028 214.565 151.911 215.159ZM1216.47 281.28C1267.86 281.28 1309.52 239.618 1309.52 188.225C1309.52 136.833 1267.86 95.1712 1216.47 95.1712C1165.07 95.1712 1123.41 136.833 1123.41 188.225C1123.41 239.618 1165.07 281.28 1216.47 281.28ZM1201 154.639C1202.09 155.72 1202.62 157.337 1202.27 158.977C1201.73 161.514 1199.29 163.144 1196.81 162.618C1194.78 162.186 1193.36 160.437 1193.22 158.421C1192.38 159.078 1191.58 159.812 1190.8 160.623C1195.32 163.715 1199.98 165.002 1204.84 164.542C1207.99 164.244 1210.89 163.242 1213.55 161.517C1212.33 159.489 1211.22 157.227 1210.2 154.729C1208.02 154.182 1205.8 154.018 1203.55 154.232C1202.68 154.314 1201.83 154.45 1201 154.639ZM1251 197.036L1248.79 221.714C1248.7 222.776 1247.88 223.632 1246.82 223.778C1234.55 225.48 1221.28 224.809 1207.01 221.777C1192.69 218.731 1181.93 214.427 1174.75 208.797C1174.09 208.283 1173.76 207.452 1173.9 206.628L1177.44 184.695C1177.43 184.376 1177.48 184.069 1177.59 183.786L1178.76 176.574L1161.69 172.946C1160.05 172.599 1159.33 170.671 1160.33 169.333L1177.32 146.655C1188.56 131.641 1207.99 125.25 1225.96 130.654L1240.03 134.889C1249.4 137.707 1255.5 146.722 1254.63 156.466L1253.42 169.907L1296 183.022C1296.24 183.095 1296.48 183.184 1296.7 183.288C1299.58 184.605 1300.84 188.003 1299.53 190.879L1289.43 212.922C1289.34 213.125 1289.23 213.322 1289.12 213.513C1287.48 216.215 1283.95 217.074 1281.25 215.431L1251 197.036ZM1204.76 134.213C1195.46 136.188 1186.94 141.446 1180.98 149.402L1166.15 169.211L1181.84 172.547C1183.04 172.801 1183.82 173.947 1183.63 175.153L1183.13 178.21C1186.29 178.706 1188.75 179.142 1190.52 179.518C1191.65 179.757 1192.51 179.975 1193.14 180.184C1193.53 180.314 1193.86 180.446 1194.14 180.605C1194.85 180.997 1195.36 181.484 1195.51 182.456C1195.7 183.599 1195.16 184.383 1194.42 184.877C1194.15 185.062 1193.86 185.187 1193.53 185.296C1193.12 185.433 1192.6 185.549 1191.95 185.663C1190.91 185.844 1189.5 186.019 1187.74 186.197C1187.32 186.24 1186.88 186.282 1186.42 186.325C1185.43 186.417 1183.3 186.595 1181.76 186.725L1178.64 205.996C1185.21 210.751 1194.99 214.537 1207.97 217.296C1221.03 220.072 1233.17 220.794 1244.39 219.472L1248.44 174.146C1246.34 170.392 1242.62 167.5 1237.99 166.516C1232.23 165.292 1226.57 167.333 1223.04 171.359C1220.2 169.353 1217.91 167.324 1216.17 165.273C1212.87 167.444 1209.23 168.728 1205.27 169.103C1198.48 169.745 1192.02 167.602 1185.99 162.758C1185 161.962 1184.85 160.511 1185.65 159.526C1190.46 153.635 1196.31 150.315 1203.11 149.671C1204.89 149.503 1206.65 149.526 1208.39 149.739C1206.92 145.188 1205.71 140.013 1204.76 134.213ZM1087.81 129.484C1087.82 129.319 1087.85 129.153 1087.89 128.987L1102.3 75.9638C1102.18 75.7193 1102.1 75.4445 1102.07 75.1434C1101.47 68.3528 1098.52 64.2974 1093.06 62.5433C1087.22 60.6686 1082.66 62.4287 1078.85 68.1308C1078.6 68.5002 1078.29 68.7646 1077.94 68.9313L1063.85 122.788C1063.76 123.1 1063.62 123.38 1063.43 123.619C1063.45 123.706 1063.46 123.795 1063.46 123.886C1063.78 130.122 1066.82 133.706 1073.01 135.108C1079.22 136.517 1084.02 134.701 1087.81 129.484ZM1092.08 130.74C1092.08 130.763 1092.08 130.786 1092.08 130.808C1091.7 136.438 1094.43 140.158 1100.75 142.384C1106.63 144.454 1113.9 143.329 1122.63 138.846C1124.29 137.994 1125.81 136.901 1127.15 135.604L1138.84 124.275L1127.89 120.539C1126.86 120.189 1126.22 119.163 1126.36 118.085L1130.38 86.1725C1130.34 77.473 1127.52 72.6843 1121.9 71.1421C1116.8 69.7423 1111.96 71.098 1107.2 75.3886L1092.31 130.188C1092.26 130.386 1092.18 130.571 1092.08 130.74ZM1059.36 122.539C1059.32 122.244 1059.33 121.935 1059.41 121.629L1074 65.8887C1074.04 65.7056 1074.11 65.5334 1074.2 65.3742C1072.47 59.6537 1068.96 56.0708 1063.54 54.4094C1061.35 53.7352 1059.31 53.4639 1057.43 53.5821C1052.98 53.8623 1049.21 56.9763 1048.1 61.2975L1036.12 107.796C1034.16 115.4 1038.28 123.251 1045.66 125.954C1050.15 127.6 1054.63 126.532 1059.36 122.539ZM1053.12 70.4768C1052.69 73.2131 1053.97 74.8088 1057.73 75.7838C1061.47 76.7543 1063.19 76.0703 1063.93 73.7343C1064.31 72.528 1065.59 71.8592 1066.8 72.2404C1068.01 72.6217 1068.67 73.9086 1068.29 75.1148C1066.73 80.0471 1062.48 81.7474 1056.58 80.2183C1050.7 78.6937 1047.78 75.0406 1048.59 69.7791C1048.78 68.5288 1049.95 67.6714 1051.2 67.8641C1052.45 68.0568 1053.31 69.2265 1053.12 70.4768ZM1082.32 79.6704C1081.9 82.4067 1083.17 84.0024 1086.93 84.9774C1090.68 85.9479 1092.39 85.2638 1093.13 82.9278C1093.51 81.7216 1094.79 81.0527 1096 81.434C1097.21 81.8152 1097.88 83.1021 1097.49 84.3083C1095.94 89.2406 1091.68 90.9409 1085.78 89.4118C1079.9 87.8872 1076.98 84.2342 1077.79 78.9726C1077.98 77.7223 1079.15 76.865 1080.4 77.0577C1081.65 77.2503 1082.51 78.4201 1082.32 79.6704ZM1110.96 87.3419C1110.54 90.0782 1111.82 91.6739 1115.58 92.6489C1119.32 93.6195 1121.03 92.9354 1121.77 90.5993C1122.15 89.3931 1123.44 88.7243 1124.65 89.1055C1125.85 89.4868 1126.52 90.7737 1126.14 91.9799C1124.58 96.9122 1120.33 98.6125 1114.43 97.0834C1108.55 95.5588 1105.62 91.9057 1106.44 86.6442C1106.63 85.3939 1107.8 84.5365 1109.05 84.7292C1110.3 84.9219 1111.16 86.0916 1110.96 87.3419ZM761.677 -60.2807C751.554 -65.7785 744.008 -69.896 739.037 -72.6332C734.33 -75.2254 728.655 -78.3857 722.012 -82.1139C710.927 -72.1295 706.662 -57.6335 709.246 -38.362L722.004 -39.9285C723.26 -40.0826 724.403 -39.1898 724.557 -37.9341C724.711 -36.6785 723.818 -35.5357 722.563 -35.3815L707.582 -33.5422C706.357 -33.3917 705.233 -34.2393 705.041 -35.4586C702.502 -51.5421 704.346 -64.8889 710.584 -75.3807L703.482 -68.9883C701.768 -65.2775 700.845 -61.1388 700.917 -56.7992L701.783 -4.75029C712.651 -0.847534 724.707 0.296295 737.98 -1.33336C751.231 -2.96036 762.677 -6.26376 772.329 -11.2313L768.149 -30.4808C767.836 -31.9209 768.945 -33.2774 770.419 -33.2572C771.018 -33.249 771.62 -33.2816 772.224 -33.3557C779.443 -34.2422 784.578 -40.8136 783.691 -48.0334C782.805 -55.2532 776.233 -60.3874 769.013 -59.5009C767.595 -59.3267 766.238 -58.9316 764.976 -58.3337C763.643 -57.7023 762.07 -58.4765 761.757 -59.9177L761.72 -60.0849C761.706 -60.1502 761.692 -60.2155 761.677 -60.2807ZM735.949 -89.5451C749.829 -87.3994 761.583 -77.3736 765.592 -63.4562C766.522 -63.7296 767.479 -63.928 768.455 -64.0479C778.186 -65.2427 787.043 -58.3227 788.238 -48.5917C789.416 -38.9966 782.705 -30.2511 773.188 -28.8633L777.174 -10.5053C777.391 -9.51068 776.924 -8.49281 776.03 -8.00676C765.533 -2.30141 753.033 1.43393 738.538 3.21362C723.956 5.00417 710.664 3.6012 698.695 -1.01181C697.825 -1.34744 697.245 -2.17787 697.229 -3.11102L696.337 -56.723C696.128 -69.2673 703.063 -80.3692 713.507 -85.9775C706.675 -88.2851 702.426 -95.3416 703.827 -102.621C704.582 -106.546 706.874 -109.884 710.042 -112.014C705.732 -114.547 703.22 -119.563 704.116 -124.782C705.025 -130.078 709.248 -134.182 714.567 -134.941L723.536 -136.22C729.973 -137.138 735.935 -132.664 736.853 -126.227C736.855 -126.213 736.857 -126.2 736.859 -126.187C737.455 -121.899 735.793 -117.799 732.76 -115.117C737.748 -113.502 741.61 -109.126 742.302 -103.58C742.304 -103.565 742.305 -103.55 742.307 -103.536C742.994 -97.8809 740.382 -92.559 735.949 -89.5451ZM724.482 -58.7027C724.887 -58.8538 725.32 -58.9462 725.771 -58.9699C728.298 -59.1023 730.46 -57.0334 730.601 -54.3489C730.666 -53.0991 730.282 -51.9363 729.598 -51.0369C731.171 -51.1114 732.727 -51.3851 734.268 -51.8563C738.959 -53.2906 742.739 -56.3171 745.652 -61.0254C740.604 -63.2999 735.778 -63.6953 731.087 -62.2611C728.639 -61.5127 726.439 -60.3308 724.482 -58.7027ZM721.795 -56.0078C721.053 -55.1198 720.356 -54.1482 719.703 -53.0919C720.407 -52.7749 721.106 -52.4943 721.801 -52.2501C721.603 -52.7516 721.481 -53.2964 721.451 -53.8694C721.411 -54.6273 721.537 -55.3532 721.795 -56.0078ZM735.607 -47.4753C729.044 -45.4687 722.274 -46.3708 715.425 -50.1091C714.332 -50.7058 713.916 -52.0668 714.489 -53.1728C718.076 -60.1019 723.184 -64.6354 729.748 -66.642C736.311 -68.6487 743.081 -67.7466 749.93 -64.0083C751.023 -63.4115 751.439 -62.0506 750.866 -60.9445C747.279 -54.0155 742.171 -49.482 735.607 -47.4753ZM714.509 -27.4405C713.313 -27.8516 712.676 -29.1547 713.087 -30.3511C713.498 -31.5474 714.801 -32.1841 715.998 -31.773C718.836 -30.7978 722.141 -31.3094 726.02 -33.4502C727.127 -34.0614 728.521 -33.659 729.132 -32.5515C729.743 -31.4439 729.341 -30.0505 728.233 -29.4393C723.301 -26.7174 718.691 -26.0037 714.509 -27.4405ZM924.924 -85.9819L981.49 34.3531C981.866 35.1516 982.666 35.6635 983.548 35.6691L1192.32 37.0041C1193.76 37.0133 1194.86 35.6983 1194.58 34.2793L1171.03 -87.6935C1170.82 -88.7722 1169.88 -89.5512 1168.78 -89.5498L926.994 -89.2469C925.316 -89.2448 924.21 -87.4999 924.924 -85.9819ZM1166.89 -84.9663L1189.55 32.4051L985.022 31.0973L930.602 -84.6703L1166.89 -84.9663ZM1067.24 10.1853C1073.64 10.1853 1081.86 7.6523 1086.94 4.54517C1096.57 -1.34003 1100.74 -11.2057 1100.74 -23.3142C1100.74 -30.8388 1098.92 -38.721 1094.73 -44.3134C1088.62 -52.4714 1078.22 -56.8138 1067.24 -56.8138C1056.34 -56.8138 1046.94 -51.0024 1040.82 -42.9376C1036.56 -37.3172 1033.75 -30.9125 1033.75 -23.3142C1033.75 -13.2287 1039.05 -4.46986 1046.1 1.6716C1051.98 6.79625 1058.83 10.1853 1067.24 10.1853ZM222.075 -69.7497C218.596 -69.7497 215.776 -66.9295 215.776 -63.4506C215.776 -59.9717 218.596 -57.1516 222.075 -57.1516H458.576C462.055 -57.1516 464.875 -59.9717 464.875 -63.4506C464.875 -66.9295 462.055 -69.7497 458.576 -69.7497H222.075ZM223.22 -26.2289C219.741 -26.2289 216.921 -23.4087 216.921 -19.9298C216.921 -16.451 219.741 -13.6308 223.22 -13.6308H314.546C318.025 -13.6308 320.845 -16.451 320.845 -19.9298C320.845 -23.4087 318.025 -26.2289 314.546 -26.2289H223.22ZM345.193 -26.2289C341.714 -26.2289 338.894 -23.4087 338.894 -19.9298C338.894 -16.451 341.714 -13.6308 345.193 -13.6308H390.296C393.775 -13.6308 396.595 -16.451 396.595 -19.9298C396.595 -23.4087 393.775 -26.2289 390.296 -26.2289H345.193ZM418.491 -26.2289C415.012 -26.2289 412.192 -23.4087 412.192 -19.9298C412.192 -16.451 415.012 -13.6308 418.491 -13.6308H452.201C455.679 -13.6308 458.5 -16.451 458.5 -19.9298C458.5 -23.4087 455.679 -26.2289 452.201 -26.2289H418.491Z" fill="white"/>
<path fill-rule="evenodd" clip-rule="evenodd" d="M650.38 202.736L641.766 182.046C636.001 168.199 625.093 157.287 611.533 151.453L628.036 24.7386C629.779 11.3605 641.962 1.87546 655.359 3.46718L694.502 8.11787L696.782 -4.47971L775.716 -16.0153L798.293 20.4496L846.522 26.1798C855.538 27.251 863.406 32.7956 867.447 40.9258L1011.71 331.144H900.952L859.961 202.583L650.38 202.736ZM364.375 28.7437H427.365C436.062 28.7437 443.113 35.7942 443.113 44.4913C443.113 53.1885 436.062 60.239 427.365 60.239H364.375C355.677 60.239 348.627 53.1885 348.627 44.4913C348.627 35.7942 355.677 28.7437 364.375 28.7437ZM1058.7 -35.9482C1058.7 -36.2379 1067.67 -32.7531 1085.62 -25.4939L1063.51 -6.76011C1060.3 -25.9291 1058.7 -35.6585 1058.7 -35.9482ZM861.029 199.459L836.459 107.034C836.134 105.812 834.88 105.084 833.657 105.409C832.435 105.734 831.707 106.989 832.032 108.211L856.602 200.636C856.927 201.859 858.182 202.586 859.404 202.261C860.627 201.936 861.354 200.682 861.029 199.459ZM141.747 242.96C142.651 242.973 143.556 242.964 144.46 242.934L202.464 240.999C203.256 240.972 204.041 241.151 204.742 241.519C206.984 242.692 207.849 245.461 206.676 247.702L198.557 263.209L217.053 276.397C211.817 281.882 206.996 286.08 202.589 288.992C199.779 290.848 197.113 292.336 195.268 293.426C186.499 298.603 177.601 301.263 171.252 302.83C163.824 304.663 156.205 305.395 147.694 305.395C146.133 305.395 141.406 305.099 139.888 304.939C128.014 303.693 114.399 300.347 99.2604 290.671C96.4787 288.893 91.292 285.023 86.5655 280.719C85.7023 279.933 84.3849 278.634 82.6133 276.82L101.073 263.209L95.1522 248.676C94.9204 248.107 94.8054 247.498 94.8141 246.883C94.8496 244.354 96.9292 242.331 99.459 242.367L141.747 242.96ZM1208.81 209.424L1263.69 211.876C1266.21 211.989 1268.17 214.13 1268.06 216.658C1268.03 217.204 1267.91 217.742 1267.7 218.246L1264 226.927C1260.2 235.868 1262.13 246.217 1268.9 253.188L1275.62 260.107C1258.79 274.349 1239.08 281.47 1216.47 281.47C1208.47 281.47 1198.87 280.051 1190.3 277.591C1185.64 276.255 1181.06 274.361 1177.33 272.651C1173.11 270.719 1168.31 268.088 1163.1 264.488C1161.98 263.713 1160.28 262.418 1158 260.603C1164.15 251.473 1166.25 240.205 1163.8 229.472L1159.09 208.841C1158.53 206.374 1160.08 203.918 1162.54 203.356C1163.09 203.231 1163.66 203.208 1164.21 203.288L1203.21 208.897C1205.07 209.164 1206.94 209.34 1208.81 209.424Z" fill="#7B61FF"/>
</g>
</svg>
