<svg width="710" height="459" viewBox="0 0 710 459" fill="none" xmlns="http://www.w3.org/2000/svg">
<mask id="mask0" mask-type="alpha" maskUnits="userSpaceOnUse" x="-148" y="0" width="858" height="459">
<path d="M-64 459H279.5H547.5C590.333 439.833 681.8 364.7 705 217.5C728.2 70.3 660 11.1667 623 0L80 38H-97C-114 63 -148 138.3 -148 239.5C-148 340.7 -92 428 -64 459Z" fill="#C4C4C4"/>
</mask>
<g mask="url(#mask0)">
<path fill-rule="evenodd" clip-rule="evenodd" d="M340.266 85.1882V105.235V145.892C340.266 151.225 332.266 151.225 332.266 145.892V105.235C332.266 99.9014 340.266 99.9014 340.266 105.235C340.266 110.568 332.266 110.568 332.266 105.235V85.1882H-28.0018L-28.7609 163.883H7.99817V167.467C8.58655 167.127 9.26965 166.932 9.99817 166.932H562.838L573.895 156.81V85.1882H340.266ZM554.099 174.932H9.99817C9.26965 174.932 8.58655 174.738 7.99817 174.397V236.432H546.743L546.998 212.932V181.432L554.099 174.932ZM7.99817 244.432V259.032H-28.7609L-27.5018 346.196C-21.5385 339.42 -14.8784 339.42 -7.52185 346.196C-6.44324 347.19 -5.41516 348.268 -4.43762 349.432H546.998L569.541 339.432V259.032H546.498L546.656 244.432H7.99817ZM415.592 458.487L543.801 458.432L546.764 357.432H0.817261C3.78235 363.186 6.00928 370.185 7.49817 378.432V443.952L7.99817 458.659L147.998 458.599V509.253L-88.502 497.681C-115.685 496.351 -138.568 476.891 -144.248 450.275C-209.591 144.081 -204.233 -30.7222 -128.175 -74.1347C9.91211 -152.952 22.0602 25.5771 89.2186 10.6321C156.377 -4.31287 97.9877 -179.301 239.434 -193.584C380.881 -207.866 344.937 -111.085 393.344 -40.8191C441.751 29.4469 474.413 -138.089 612.115 -137.592C765.171 -137.04 760.443 -28.7889 760.443 74.0323L717.743 509.515C716.234 524.907 702.912 536.406 687.464 535.65L414.886 522.312L415.592 458.487ZM286.731 458.541L288.586 458.54C290.345 458.957 291.656 460.536 291.66 462.422L292.739 891.636L326.87 841.208C328.108 839.378 330.595 838.899 332.425 840.137C334.254 841.376 334.734 843.862 333.495 845.692L293.185 905.25L357.739 905.214C359.948 905.213 361.741 907.003 361.741 909.212C361.741 911.421 359.952 913.213 357.743 913.214L217.581 913.291C215.372 913.292 213.579 911.502 213.579 909.293C213.579 907.084 215.368 905.292 217.577 905.291L284.137 905.254L236.748 846.334C235.364 844.613 235.637 842.095 237.358 840.71C239.08 839.326 241.598 839.599 242.982 841.32L284.743 893.243L283.66 462.443C283.656 460.55 284.966 458.961 286.731 458.541ZM-731.594 -144.867L-666.623 -296.07L-641.671 -305.668L-695.679 -172.091L-607.559 -298.36C-606.295 -300.171 -603.802 -300.615 -601.99 -299.351C-600.178 -298.086 -599.735 -295.593 -600.999 -293.781L-683.02 -176.251L-552.066 -290.989C-550.405 -292.445 -547.877 -292.278 -546.422 -290.617C-544.966 -288.955 -545.132 -286.428 -546.794 -284.972L-684.223 -164.561L-477.501 -313L-354.938 -53.4584L-633.784 18.0677C-647.766 40.4517 -656.388 52.9061 -660.162 56.0731C-664.861 60.0162 -670.313 62.8108 -676.26 63.5996C-684.101 64.6395 -691.925 62.0327 -699.236 55.2719C-708.2 46.9819 -712.473 37.2396 -711.898 26.3382C-723.386 27.1443 -733.7 23.3996 -742.587 15.1807C-752.287 6.21027 -756.457 -3.99756 -754.789 -15.0849L-771.596 -33.6085C-782.804 -45.963 -785.169 -63.9764 -777.529 -78.8056C-765.429 -102.293 -753.028 -120.975 -740.295 -134.856C-737.211 -138.218 -734.311 -141.555 -731.594 -144.867ZM-52.1801 829.273L-329.556 831.963L-323.058 898.933H-246.141C-243.932 898.933 -242.141 900.724 -242.141 902.933C-242.141 905.142 -243.932 906.933 -246.141 906.933H-305.791C-293.672 910.26 -284.91 913.802 -279.432 917.621C-268.733 925.079 -269.549 934.615 -280.993 942.75C-291.642 950.32 -302.273 950.845 -311.986 944.074C-320.685 938.01 -328.53 926.164 -335.76 908.529L-453.221 928.455C-470.966 931.465 -485.81 943.605 -492.281 960.4L-494.439 966H-110.131L-16.8804 884.051L-52.1801 829.273ZM-337.586 832.04L-430.266 832.939L-487.099 773.269L-384.485 589.363C-383.409 587.434 -384.1 584.997 -386.029 583.921C-387.959 582.845 -390.395 583.536 -391.471 585.465L-492.876 767.203L-492.921 767.156L-493.246 767.867L-523.717 822.476L-574.522 971.292C-575.075 972.912 -576.596 974 -578.308 974H-1044.27C-1047.08 974 -1049.01 971.182 -1048 968.562L-1043.75 957.524C-1036.26 938.094 -1019.09 924.05 -998.562 920.568L-892.692 902.608C-909.992 897.631 -921.901 892.621 -928.556 887.443C-938.851 879.435 -937.536 869.955 -925.682 862.43C-914.652 855.427 -904.008 855.46 -894.662 862.73C-886.334 869.209 -879.149 881.362 -872.873 899.208L-821.898 832.939H-897.002L-727.096 523.298C-726.769 523.665 -726.369 523.979 -725.904 524.213C-723.931 525.207 -721.526 524.413 -720.532 522.44L-521.402 127.124C-520.408 125.151 -521.202 122.746 -523.175 121.752C-525.148 120.759 -527.553 121.552 -528.546 123.525L-727.677 518.841C-727.906 519.296 -728.04 519.773 -728.086 520.251L-830.417 412.812L-632.529 20.0909L-443.158 22.1917L-245.352 20.0909V225.75L-335.409 422.694L-60.151 804.122C-59.1802 804.367 -58.3232 804.971 -57.7678 805.833L-48.1897 820.697L-42.071 829.175L-42.7219 829.182L-8.28906 882.615C-7.21631 884.279 -7.52332 886.479 -9.01099 887.786L-105.983 973.005C-106.713 973.646 -107.651 974 -108.623 974H-500.267C-503.075 974 -505.009 971.182 -503.999 968.562L-499.746 957.524C-492.26 938.094 -475.087 924.05 -454.559 920.568L-348.691 902.608C-365.992 897.632 -377.9 892.621 -384.556 887.443C-394.851 879.435 -393.536 869.955 -381.682 862.43C-370.652 855.427 -360.008 855.46 -350.662 862.73C-343.612 868.215 -337.38 877.766 -331.827 891.396L-337.586 832.04ZM-535.742 832.939H-811.805L-862.568 898.933H-790.141C-787.932 898.933 -786.141 900.724 -786.141 902.933C-786.141 905.142 -787.932 906.933 -790.141 906.933H-849.791C-837.672 910.26 -828.91 913.802 -823.432 917.621C-812.733 925.079 -813.549 934.615 -824.993 942.75C-835.642 950.32 -846.273 950.845 -855.986 944.074C-864.685 938.01 -872.53 926.164 -879.76 908.528L-997.224 928.455C-1014.97 931.465 -1029.81 943.605 -1036.28 960.4L-1038.44 966H-581.169L-535.742 832.939ZM-899.575 869.044C-906.134 863.942 -913.103 863.92 -921.394 869.184C-928.861 873.924 -929.255 876.764 -923.644 881.128C-917.01 886.29 -903.1 891.717 -882.132 897.206C-887.49 883.27 -893.361 873.878 -899.575 869.044ZM-851.411 937.511C-844.594 942.263 -837.633 941.92 -829.629 936.23C-822.42 931.105 -822.175 928.249 -828.007 924.184C-834.903 919.376 -849.077 914.685 -870.304 910.3C-864.224 923.937 -857.869 933.009 -851.411 937.511ZM-355.575 869.044C-362.134 863.942 -369.103 863.92 -377.394 869.184C-384.861 873.924 -385.255 876.764 -379.644 881.128C-373.01 886.29 -359.1 891.717 -338.131 897.206C-343.49 883.27 -349.361 873.878 -355.575 869.044ZM-307.411 937.511C-300.594 942.263 -293.633 941.92 -285.629 936.23C-278.42 931.105 -278.175 928.249 -284.007 924.184C-290.903 919.376 -305.077 914.685 -326.304 910.3C-320.224 923.937 -313.869 933.009 -307.411 937.511ZM147.998 763H-13.6157C-37.5692 763 -57.6905 744.986 -60.3296 721.178C-63.7711 690.132 -53.9979 665.885 -31.0096 648.437C17.675 611.487 42.8829 662.736 62.6493 657.633C82.4156 652.53 54.6599 587.632 89.4071 565.89C124.154 544.149 133.344 587.958 146.615 610.304C147.086 611.096 147.546 611.788 147.998 612.385V763ZM413.119 682.056C414.76 681.784 416.46 680.461 418.322 677.759C431.409 658.765 440.472 621.526 474.74 640.007C509.007 658.488 514.33 717.352 533.823 721.69C553.317 726.027 586.663 662.788 634.676 694.197C660.518 711.102 665.767 739.085 650.425 778.144C643.351 796.153 625.964 807.987 606.616 807.961L411.729 807.701L413.119 682.056ZM-498.454 -448.045C-495.659 -448.525 -493.155 -451.033 -490.848 -456.175C-489.944 -458.19 -487.577 -459.091 -485.561 -458.187C-483.546 -457.282 -482.645 -454.915 -483.549 -452.9C-486.368 -446.618 -490.088 -442.461 -494.654 -440.788L-464.109 -382.469C-441.478 -362.913 -420.892 -359.494 -401.466 -371.633C-381.262 -384.258 -358.18 -392.876 -332.246 -397.494L-419.067 -545.243C-420.469 -547.63 -422.137 -549.788 -424.015 -551.693L-463.575 -531.586L-521.651 -518.864C-523.745 -511.141 -523.85 -502.864 -521.706 -494.86C-518.764 -497.475 -515.53 -499.799 -512.009 -501.832C-506.062 -505.265 -499.804 -507.573 -493.251 -508.744C-485.096 -510.202 -477.303 -504.773 -475.845 -496.618C-475.061 -492.229 -476.269 -487.718 -479.144 -484.309C-483.435 -479.22 -488.562 -474.954 -494.509 -471.521C-500.456 -468.088 -506.714 -465.78 -513.267 -464.608C-517.436 -463.863 -521.509 -464.917 -524.691 -467.215C-528.625 -460.95 -533.815 -452.683 -540.263 -442.415L-505.257 -453.845C-503.401 -454.451 -501.378 -453.628 -500.472 -451.898L-498.454 -448.045ZM-520.594 -474.175C-521.803 -477.763 -520.584 -481.739 -517.413 -483.721C-513.666 -486.062 -508.612 -484.733 -506.125 -480.752C-505.067 -479.06 -504.644 -477.162 -504.794 -475.358C-502.661 -476.231 -500.567 -477.261 -498.509 -478.449C-493.358 -481.423 -488.948 -485.092 -485.26 -489.466C-483.919 -491.057 -483.354 -493.162 -483.721 -495.21C-484.401 -499.016 -488.038 -501.55 -491.843 -500.869C-497.475 -499.862 -502.858 -497.877 -508.009 -494.904C-513.16 -491.93 -517.571 -488.26 -521.259 -483.886C-522.6 -482.296 -523.164 -480.191 -522.798 -478.142C-522.513 -476.549 -521.71 -475.179 -520.594 -474.175ZM-529.9 -473.963C-530.24 -474.844 -530.501 -475.77 -530.673 -476.734C-531.398 -480.79 -530.421 -484.949 -528.001 -488.247C-537.177 -513.389 -526.549 -542.057 -502.191 -554.815C-498.72 -556.633 -495.062 -558.069 -491.282 -559.099L-458.292 -568.084C-440.44 -572.946 -421.543 -565.249 -412.169 -549.296L-322.398 -396.525C-320.965 -394.087 -322.446 -390.972 -325.242 -390.545C-352.499 -386.379 -376.482 -377.811 -397.227 -364.849C-420.082 -350.567 -444.62 -354.794 -469.936 -376.935C-470.308 -377.26 -470.617 -377.652 -470.846 -378.09L-505.99 -445.19L-548.286 -431.38C-551.843 -430.218 -554.905 -434.141 -552.916 -437.309L-529.9 -473.963ZM-446.486 -454.77C-448.668 -454.424 -450.717 -455.913 -451.063 -458.095C-451.408 -460.277 -449.92 -462.326 -447.738 -462.671C-435.191 -464.658 -426.632 -476.44 -428.619 -488.986C-430.606 -501.532 -442.387 -510.092 -454.934 -508.105C-457.116 -507.759 -459.165 -509.248 -459.51 -511.43C-459.856 -513.612 -458.367 -515.661 -456.185 -516.007C-439.275 -518.685 -423.396 -507.148 -420.717 -490.238C-418.039 -473.328 -429.576 -457.448 -446.486 -454.77ZM-364.681 -148.646C-364.298 -146.471 -365.75 -144.396 -367.926 -144.012C-370.102 -143.629 -372.176 -145.082 -372.56 -147.257L-378.699 -182.075C-379.083 -184.251 -377.63 -186.326 -375.455 -186.709C-373.279 -187.093 -371.204 -185.64 -370.821 -183.465L-364.681 -148.646ZM-331.954 -36.2414C-331.056 -34.2231 -331.964 -31.8588 -333.982 -30.9604C-336 -30.0621 -338.364 -30.97 -339.263 -32.9882C-353.101 -64.0769 -344.214 -93.8211 -313.233 -121.397C-311.583 -122.866 -309.055 -122.719 -307.586 -121.069C-306.117 -119.419 -306.264 -116.891 -307.914 -115.422C-336.46 -90.0136 -344.263 -63.8946 -331.954 -36.2414ZM-326.131 -170.196C-325.924 -167.997 -327.538 -166.045 -329.737 -165.838C-331.937 -165.63 -333.888 -167.244 -334.096 -169.443L-339.904 -230.887C-340.112 -233.086 -338.497 -235.037 -336.298 -235.245C-334.099 -235.453 -332.147 -233.839 -331.939 -231.639L-326.131 -170.196ZM-672.238 -109.245L-746.49 -15.8392C-746.506 -15.8192 -746.522 -15.7995 -746.538 -15.7799C-746.551 -15.679 -746.569 -15.5782 -746.59 -15.4777C-748.504 -6.51123 -745.481 1.60773 -737.155 9.30737C-728.768 17.064 -719.19 19.8521 -708.038 17.7892C-707.169 17.6284 -706.334 17.7581 -705.614 18.0974L-651.03 -57.8895C-650.174 -71.6724 -651.596 -82.422 -655.183 -90.1181C-658.284 -96.7724 -663.95 -103.162 -672.238 -109.245ZM-678.176 -114.632L-692.605 -148.316C-693.617 -150.679 -695.261 -152.717 -697.355 -154.208C-703.654 -158.692 -712.395 -157.221 -716.879 -150.922C-721.913 -143.85 -727.754 -136.693 -734.399 -129.448C-746.603 -116.144 -758.621 -98.0399 -770.418 -75.1417C-776.53 -63.2783 -774.638 -48.8676 -765.671 -38.9839L-751.088 -22.9109L-678.176 -114.632ZM-646.385 -50.6434L-701.597 26.2184C-702.187 27.0397 -703.031 27.5709 -703.944 27.7818C-704.082 35.8568 -700.748 42.9769 -693.804 49.3986C-688.211 54.5709 -682.75 56.3902 -677.312 55.669C-673.06 55.1051 -668.932 52.989 -665.304 49.9448C-661.494 46.7476 -648.517 27.1548 -627.456 -7.47919C-628.184 -18.4434 -629.764 -26.4772 -632.095 -31.4785C-634.218 -36.0327 -638.994 -42.4658 -646.385 -50.6434ZM-712.157 -133.413C-714.2 -132.572 -716.538 -133.547 -717.378 -135.59C-718.219 -137.633 -717.244 -139.97 -715.201 -140.811C-705.444 -144.826 -697.075 -141.258 -691.344 -131.031C-685.569 -120.725 -686.947 -112.004 -695.775 -106.763C-697.675 -105.635 -700.129 -106.261 -701.257 -108.16C-702.385 -110.06 -701.759 -112.514 -699.859 -113.642C-695.121 -116.455 -694.51 -120.317 -698.323 -127.12C-702.18 -134.003 -706.375 -135.792 -712.157 -133.413ZM-683.8 -76.8135C-685.843 -75.9729 -688.18 -76.9475 -689.021 -78.9905C-689.862 -81.0334 -688.887 -83.371 -686.844 -84.2117C-677.087 -88.2269 -668.718 -84.6583 -662.987 -74.4318C-657.212 -64.1259 -658.59 -55.4052 -667.418 -50.1638C-669.318 -49.0359 -671.772 -49.6615 -672.9 -51.561C-674.027 -53.4606 -673.402 -55.9148 -671.502 -57.0426C-666.764 -59.8561 -666.153 -63.7174 -669.966 -70.5209C-673.823 -77.4038 -678.018 -79.1927 -683.8 -76.8135ZM-655.354 -23.1794C-657.397 -22.3388 -659.734 -23.3134 -660.575 -25.3563C-661.416 -27.3992 -660.441 -29.7369 -658.398 -30.5775C-648.641 -34.5928 -640.272 -31.0242 -634.541 -20.7977C-628.766 -10.4918 -630.144 -1.771 -638.972 3.4704C-640.872 4.59821 -643.326 3.9726 -644.454 2.07306C-645.581 0.173523 -644.956 -2.2807 -643.056 -3.40851C-638.318 -6.22198 -637.707 -10.0833 -641.52 -16.8867C-645.377 -23.7696 -649.572 -25.5586 -655.354 -23.1794ZM201.498 299.216C201.498 293.883 209.498 293.883 209.498 299.216V329.888C209.498 335.221 201.498 335.221 201.498 329.888V299.216V268.544C201.498 263.211 209.498 263.211 209.498 268.544V299.216C209.498 304.549 201.498 304.549 201.498 299.216Z" fill="#212121"/>
<path fill-rule="evenodd" clip-rule="evenodd" d="M-520.794 -281.61L-545.945 -286.035C-545.595 -286.809 -545.452 -287.461 -545.515 -287.992C-545.634 -288.987 -545.869 -290.464 -547.294 -291.349C-549.224 -292.548 -551.023 -291.881 -553.235 -289.918C-553.719 -289.489 -554.552 -288.769 -555.732 -287.759L-600.308 -295.626C-600.241 -296.383 -600.357 -297.088 -600.653 -297.742C-600.79 -298.044 -600.959 -298.321 -601.159 -298.572L-578.814 -344.919C-573.92 -355.071 -565.235 -362.896 -554.629 -366.709L-347.716 -441.103L-225.709 -387.146C-214.273 -382.088 -205.324 -372.682 -200.842 -361.008L-61.3947 2.18402L-236.797 36.9281L-258.929 22.2879H-636.473L-633.78 18.0457L-421.911 -36.079C-412.725 -28.9831 -403.591 -22.6353 -396.002 -18.3279C-366.033 -1.31866 -323.48 13.5155 -303.579 -5.19104C-294.791 -13.4521 -286.988 -25.1404 -280.171 -40.2557C-273.532 -54.9767 -271.387 -71.3302 -274.006 -87.2653L-300.176 -246.505C-301.554 -254.891 -309.469 -260.572 -317.855 -259.194C-321.256 -258.635 -324.371 -256.951 -326.7 -254.411C-330.33 -250.453 -333.529 -244.065 -336.298 -235.245C-340.317 -244.149 -350.793 -248.109 -359.697 -244.09C-361.552 -243.253 -363.248 -242.102 -364.711 -240.688C-367.781 -237.722 -370.118 -234.514 -371.723 -231.064C-375.898 -222.09 -377.537 -207.11 -376.641 -186.126L-430.825 -218.616C-431.663 -219.118 -432.553 -219.456 -433.459 -219.637L-477.502 -313L-520.794 -281.61ZM-28.0022 244.433H588.998V265.433H-28.0022V328.433H588.998V349.433H-28.0022H-47.0022V244.433H-28.0022ZM569.541 167.189H-47.0022V146.433H569.541V85.1886H-47.0022V64.4328H569.541H588.998V167.433H569.541V167.189ZM7.9978 187.933V174.933H588.998V187.933H281.998V223.433H588.998V236.433H7.9978V223.433V187.933ZM546.998 378.433V462.433H172.998H-15.0022V441.433H137.998V378.433H-15.0022V357.433H546.998V378.433Z" fill="#7B61FF"/>
</g>
</svg>
