<svg width="799" height="956" viewBox="0 0 799 956" fill="none" xmlns="http://www.w3.org/2000/svg">
<mask id="mask0" mask-type="alpha" maskUnits="userSpaceOnUse" x="0" y="0" width="1320" height="956">
<path d="M1094.97 131.614L1218.14 251.023L1320 264.821L1267.29 955.797H1074.24V770.581L1029.83 710.081L964.684 498.861L817.82 356.102L708.264 215.466L645.491 196.891L577.389 356.102L480.5 414.5L362 346L210.5 297.5L0 91.8117L373.674 0L799.462 19.1053L1094.97 131.614Z" fill="#C4C4C4"/>
</mask>
<g mask="url(#mask0)">
<path fill-rule="evenodd" clip-rule="evenodd" d="M666.29 641.767L625.653 805.048L618.903 845.04L930.72 847.358C931.246 847.362 931.771 847.31 932.283 847.203L1092.26 849.164C1094.45 849.191 1095.15 846.521 1093.17 845.674L989.123 801.221L961.896 746.341H981.912C983.043 746.341 983.96 745.519 983.96 744.506V562.419C983.96 561.406 983.043 560.584 981.912 560.584H867.736V457.845C867.736 456.832 866.819 456.01 865.688 456.01H662.424C661.292 456.01 660.375 456.832 660.375 457.845V509.537L535.832 480.438C535.446 480.348 535.058 480.27 534.666 480.205C525.493 478.672 516.669 484.091 514.958 492.308L452.784 790.883C452.709 791.243 452.672 791.609 452.672 791.976C452.672 795.269 455.652 797.939 459.328 797.939H464.877L460.829 808.392L384.238 824.125C381.933 824.599 379.698 825.313 377.579 826.254L338.956 843.396C337.016 844.257 337.701 846.875 339.866 846.875H438.073C438.096 846.875 438.119 846.875 438.141 846.875H526.928C526.96 846.876 526.991 846.876 527.023 846.875H612.093C613.316 846.875 614.266 845.922 614.128 844.833L608.188 797.939H623.226L662.099 641.744C662.205 641.759 662.313 641.767 662.424 641.767H666.29ZM957.413 746.341L970.83 773.382C970.328 773.056 969.668 772.936 969.029 773.11C955.5 776.789 937.598 772.812 915.356 761C915.165 760.899 914.963 760.828 914.757 760.787L910.656 746.341H957.413ZM591.536 797.939C557.847 803.185 535.757 818.292 525.534 843.206H441.776L463.633 811.413C463.949 811.198 464.193 810.901 464.327 810.554L469.213 797.939H591.536ZM916.138 765.651V765.651C937.976 776.779 955.994 780.489 970.219 776.621C971.03 776.401 971.577 775.769 971.661 775.059L985.658 803.271L1003 844.4L936.964 843.591C937.463 842.464 937.585 841.191 937.226 839.926L916.138 765.651ZM457.897 812.759L436.965 843.206H348.612L379.397 829.542C381.229 828.729 383.161 828.111 385.154 827.702L457.897 812.759ZM604.301 799.79L609.8 843.206H529.912C540.914 817.833 565.207 803.536 603.135 800.246C603.585 800.207 603.987 800.04 604.301 799.79ZM1007.4 844.454C1007.4 844.433 1007.39 844.413 1007.38 844.392L991.274 806.205L1082.96 845.38L1007.4 844.454ZM863.64 560.584H779.16H778.648C777.517 560.584 776.6 561.406 776.6 562.419V638.097H664.471V459.68H863.64V560.584ZM867.736 564.254H979.864V742.671H780.696V641.767H865.688C866.819 641.767 867.736 640.945 867.736 639.932V564.254ZM713.727 332.138C711.201 332.152 708.741 332.386 706.348 332.84C703.568 333.369 701.341 335.229 700.558 337.676C699.391 341.329 701.75 345.138 705.827 346.185C708.683 346.917 711.663 347.332 714.764 347.429C717.865 347.526 720.87 347.299 723.775 346.747C726.555 346.219 728.783 344.359 729.565 341.911C730.692 338.385 728.533 334.712 724.713 333.521L737.027 335.072L723.657 381.005L765.493 387.48C759.851 354.329 756.16 334.779 754.42 328.829C752.916 323.691 745.365 319.433 738.065 316.61L731.786 289.373C731.443 287.884 729.818 286.927 728.156 287.234C727.253 287.401 726.481 287.924 726.054 288.656L711.904 312.951C711.593 312.991 711.286 313.034 710.981 313.079C698.671 314.061 688.267 322.278 685.953 333.513L685.132 337.498C682.061 340.923 679.11 344.507 676.28 348.25C675.413 349.397 676.223 350.958 677.761 351.103L682.243 351.527L677.64 373.876L681.679 374.488L686.329 351.913L703.729 353.557C704.854 353.664 705.862 352.933 705.98 351.925C706.099 350.918 705.283 350.015 704.159 349.908L681.622 347.778C686.639 341.4 692.026 335.517 697.782 330.13L713.727 332.138ZM691.646 329.357L692.816 329.504C692.105 330.195 691.399 330.892 690.698 331.598C690.969 330.829 691.286 330.082 691.646 329.357ZM711.599 335.88C712.785 335.805 713.991 335.787 715.216 335.826C717.988 335.913 720.638 336.281 723.168 336.93C725.071 337.419 726.172 339.196 725.627 340.901C725.262 342.043 724.223 342.911 722.925 343.158C720.351 343.647 717.679 343.849 714.907 343.762C712.135 343.675 709.486 343.306 706.955 342.657C705.052 342.169 703.951 340.391 704.496 338.687C704.6 338.361 704.76 338.057 704.964 337.783C704.96 337.803 704.957 337.822 704.953 337.842C704.601 339.835 706.014 341.693 708.109 341.99C710.204 342.287 712.189 340.912 712.541 338.918C712.744 337.769 712.361 336.666 711.599 335.88ZM695.45 359.972C698.663 361.698 702.605 361.896 707.157 360.658C708.239 360.363 708.85 359.339 708.522 358.369C708.193 357.4 707.049 356.852 705.967 357.147C702.444 358.105 699.681 357.966 697.557 356.825C696.587 356.304 695.329 356.586 694.748 357.455C694.166 358.324 694.48 359.451 695.45 359.972ZM566.325 270.323H581.527C584.638 270.323 587.159 268.064 587.159 265.278V256.563C587.159 253.777 584.638 251.518 581.527 251.518H554.019L580.332 219.983C580.763 219.466 580.86 218.785 580.587 218.188L531.245 110.458L707.038 154.112C706.991 154.476 706.968 154.845 706.968 155.219C706.968 160.539 711.781 164.851 717.72 164.851C719.464 164.851 721.111 164.479 722.568 163.818L826.739 318.264C825.165 319.939 824.216 322.102 824.216 324.464C824.216 329.783 829.03 334.096 834.968 334.096C840.885 334.096 845.685 329.814 845.72 324.521L952.298 269.677C954.166 271.919 957.099 273.408 960.425 273.543L999.821 392.401C996.755 394.097 994.712 397.135 994.712 400.601C994.712 405.92 999.526 410.233 1005.46 410.233C1007.16 410.233 1008.76 409.882 1010.19 409.257L1030.67 430.977L1005.39 447.745L1048.07 486.27C1060.23 497.252 1077.75 502 1094.67 498.899C1121.35 494.01 1134.29 501.657 1133.51 521.841C1133.21 529.407 1131.61 536.033 1129.39 542.141C1108.11 537.784 1097.32 536.698 1097.02 538.884C1096.72 541.113 1104.69 548.336 1120.94 560.554C1117.64 567.12 1114.51 573.591 1112.73 580.693C1092.44 582.707 1082.54 584.755 1083.03 586.839C1083.54 588.968 1093.1 593.267 1111.73 599.736C1112.59 605.83 1114.62 612.535 1118.22 620.108C1131.58 648.172 1134.9 674.693 1128.18 699.672C1128.05 700.164 1128.39 700.66 1128.94 700.778C1129.37 700.872 1129.82 700.704 1130.05 700.362C1142.35 682.159 1149.6 668.216 1151.8 658.534C1156.02 639.929 1144.61 620.204 1141.61 601.885C1159.35 601.384 1168.08 600.147 1167.81 598.175C1167.53 596.081 1158.96 591.293 1142.11 583.81C1143.25 578.007 1144.81 572.73 1146.65 567.869C1166.87 569.658 1176.98 569.488 1176.98 567.358C1176.98 565.301 1169.54 559.85 1154.65 551.005C1169.08 525.364 1185.58 511.239 1158.79 479.296C1135.75 451.818 1106.41 468.262 1092.84 450.477C1083.79 438.62 1074.18 424.747 1064.01 408.857L1033.97 428.788L1013.46 407.042C1015.17 405.335 1016.22 403.077 1016.22 400.601C1016.22 395.281 1011.4 390.969 1005.46 390.969C1004.85 390.969 1004.25 391.015 1003.66 391.104L964.518 273C968.687 271.675 971.672 268.11 971.672 263.921C971.672 258.601 966.858 254.289 960.92 254.289C954.982 254.289 950.168 258.601 950.168 263.921C950.168 264.764 950.289 265.583 950.516 266.362L844.878 320.722C843.248 317.261 839.425 314.832 834.968 314.832C833.159 314.832 831.454 315.232 829.958 315.939L725.823 161.55C727.473 159.857 728.472 157.642 728.472 155.219C728.472 149.9 723.658 145.587 717.72 145.587C713.644 145.587 710.099 147.618 708.275 150.612L529.298 106.167C529.153 105.608 528.717 105.118 528.079 104.884C527.817 104.788 527.546 104.744 527.28 104.747C527.013 104.744 526.741 104.788 526.478 104.885C526.019 105.054 525.665 105.355 525.448 105.72C525.016 105.623 524.546 105.65 524.108 105.828L398.594 156.624C396.624 154.637 393.751 153.384 390.551 153.384C384.613 153.384 379.799 157.697 379.799 163.016C379.799 166.349 381.688 169.286 384.559 171.015L338.651 294.267C338.21 294.218 337.76 294.192 337.303 294.192C332.424 294.192 328.304 297.103 326.99 301.092L227.509 303.825C226.378 303.856 225.49 304.702 225.524 305.715C225.536 306.055 225.65 306.371 225.84 306.639L227.997 337.549L134.039 263.921V307.373L169.556 341.927H139.677L182.863 392.804L152.374 401.29L235.331 464.346V578.499L390.465 611.719C391.01 611.836 391.57 611.895 392.131 611.895C396.09 611.895 399.299 609.02 399.299 605.474V603.01C399.03 603.018 398.755 602.978 398.488 602.886L271.275 558.624C270.514 558.359 270.001 557.713 269.97 556.982L266.5 473.434C266.45 472.221 267.704 471.299 269.022 471.581L443.141 508.786C443.589 508.881 443.966 509.102 444.24 509.396L458.777 486.608C461.879 472.966 462.892 465.675 461.815 464.736C459.547 462.758 449.109 460.653 430.501 458.42C394.429 444.961 374.092 434.838 369.49 428.049C366.419 423.52 387.103 396.36 369.49 382.498C351.925 368.673 344.045 367.386 311.765 349.477C295.786 340.611 268.332 326.6 229.404 307.445L326.602 304.774C327.135 309.647 331.722 313.456 337.303 313.456C343.241 313.456 348.055 309.144 348.055 303.824C348.055 300.209 345.832 297.059 342.543 295.412L388.344 172.445C389.057 172.578 389.795 172.648 390.551 172.648C396.489 172.648 401.303 168.336 401.303 163.016C401.303 161.889 401.087 160.807 400.69 159.802L523.479 110.108L474.093 218.189C473.821 218.785 473.917 219.464 474.346 219.98L500.559 251.518H473.495C470.385 251.518 467.863 253.777 467.863 256.563V265.278C467.863 268.064 470.385 270.323 473.495 270.323H492.128C481.882 274.517 474.848 283.859 475.068 294.593C475.069 294.671 475.07 294.671 475.072 294.749L475.968 327.757C476.219 337.026 484.151 344.669 494.451 345.57L508.462 346.796C508.554 346.804 508.647 346.806 508.739 346.803L512.663 346.668V354.876C512.663 362.349 519.426 368.407 527.767 368.407C536.109 368.407 542.871 362.349 542.871 354.876V345.63L559.345 345.063C563.819 344.91 567.907 342.751 570.225 339.319C571.9 336.837 572.691 333.873 572.62 330.465C572.509 325.103 570.026 320.749 565.291 317.511C570.489 314.995 573.102 310.877 572.908 305.35C572.727 300.171 570.007 296.195 564.935 293.549C569.942 290.247 572.555 285.991 572.62 280.867C572.677 276.43 570.522 272.899 566.325 270.323ZM525.404 205.198C517.67 205.913 511.639 211.768 511.639 218.884C511.639 226.484 518.516 232.644 526.999 232.644C535.482 232.644 542.359 226.484 542.359 218.884C542.359 212.048 536.794 206.376 529.5 205.306L529.084 115.407L576.357 218.619L548.906 251.518H505.666L478.322 218.62L524.993 116.482L525.404 205.198ZM442.336 512.381C442.287 512.374 442.239 512.365 442.191 512.355L270.693 475.71L274.013 555.64L399.299 599.231V595.504L399.125 595.429L398.287 571.694C398.233 570.175 396.815 568.983 395.119 569.031C394.222 569.056 393.383 569.432 392.821 570.058L378.286 586.276L378.234 586.463L363.51 580.144L362.692 556.975C362.638 555.456 361.22 554.263 359.524 554.311C358.627 554.337 357.787 554.712 357.226 555.339L342.915 571.306L327.915 564.868L327.105 541.949C327.052 540.43 325.634 539.237 323.938 539.285C323.041 539.311 322.201 539.686 321.639 540.313L307.488 556.102L285.974 546.869L281.346 487.525L325.899 495.855C326.42 497.864 326.818 500.623 327.091 504.13C327.418 508.319 327.534 513.132 327.439 518.568C327.429 519.122 327.606 519.666 327.947 520.128C328.883 521.397 330.788 521.745 332.204 520.908L362.86 502.765L363.443 502.874C363.636 504.649 363.732 506.814 363.732 509.371C363.732 513.546 363.475 518.324 362.963 523.703C362.909 524.269 363.052 524.835 363.371 525.325C364.226 526.637 366.108 527.08 367.573 526.314L399.5 509.615L399.951 509.699C400.361 511.765 400.566 514.664 400.566 518.397C400.566 522.572 400.31 527.35 399.797 532.729C399.743 533.295 399.886 533.861 400.205 534.351C401.06 535.664 402.942 536.106 404.407 535.34L439.348 517.065L442.336 512.381ZM328.599 407.073L324.896 373.747L362.578 396.624L356.188 426.906L328.599 407.073ZM432.344 468.088C431.23 467.914 430.485 466.963 430.681 465.965C430.876 464.967 431.937 464.299 433.051 464.474L452.987 467.603C454.208 467.795 454.961 468.907 454.586 469.965L449.543 484.202C449.201 485.168 448.05 485.703 446.971 485.396C445.893 485.09 445.297 484.059 445.639 483.093L449.973 470.855L432.344 468.088ZM354.436 434.396C355.327 435.02 355.485 436.173 354.789 436.971C354.093 437.77 352.806 437.912 351.914 437.288L318.666 414.023C318.249 413.731 317.974 413.305 317.899 412.835L310.334 365.055C310.176 364.051 310.955 363.123 312.075 362.98C313.194 362.838 314.231 363.536 314.39 364.539L321.839 411.587L354.436 434.396ZM357.833 397.943C357.95 396.936 357.133 396.033 356.008 395.928C354.883 395.823 353.876 396.555 353.759 397.563L351.325 418.493C351.208 419.501 352.024 420.403 353.149 420.508C354.274 420.613 355.281 419.881 355.399 418.873L357.833 397.943ZM1005.46 406.564C1001.79 406.564 998.808 403.894 998.808 400.601C998.808 397.308 1001.79 394.638 1005.46 394.638C1009.14 394.638 1012.12 397.308 1012.12 400.601C1012.12 403.894 1009.14 406.564 1005.46 406.564ZM960.92 269.884C957.244 269.884 954.264 267.214 954.264 263.921C954.264 260.628 957.244 257.958 960.92 257.958C964.596 257.958 967.576 260.628 967.576 263.921C967.576 267.214 964.596 269.884 960.92 269.884ZM834.968 330.426C831.292 330.426 828.312 327.757 828.312 324.464C828.312 321.171 831.292 318.501 834.968 318.501C838.644 318.501 841.624 321.171 841.624 324.464C841.624 327.757 838.644 330.426 834.968 330.426ZM717.72 161.182C714.044 161.182 711.064 158.512 711.064 155.219C711.064 151.926 714.044 149.257 717.72 149.257C721.396 149.257 724.376 151.926 724.376 155.219C724.376 158.512 721.396 161.182 717.72 161.182ZM390.551 168.979C386.875 168.979 383.895 166.309 383.895 163.016C383.895 159.723 386.875 157.054 390.551 157.054C394.227 157.054 397.207 159.723 397.207 163.016C397.207 166.309 394.227 168.979 390.551 168.979ZM337.303 309.787C333.627 309.787 330.647 307.117 330.647 303.824C330.647 300.531 333.627 297.862 337.303 297.862C340.979 297.862 343.959 300.531 343.959 303.824C343.959 307.117 340.979 309.787 337.303 309.787ZM526.936 271.262L557.504 270.76C557.557 270.759 557.609 270.766 557.66 270.779C565.15 272.786 568.585 276.081 568.525 280.825C568.465 285.473 565.704 289.163 559.991 292.04H526.999V271.718C526.999 271.561 526.977 271.408 526.936 271.262ZM522.95 271.328C522.919 271.454 522.903 271.584 522.903 271.718V342.644L508.721 343.132L494.849 341.918C486.609 341.198 480.264 335.083 480.062 327.668L479.166 294.66C479.164 294.593 479.165 294.593 479.163 294.525C478.909 282.115 489.933 271.87 503.787 271.643L522.95 271.328ZM526.999 342.503V319.101H560.279C560.367 319.101 560.454 319.096 560.539 319.086C565.823 321.799 568.421 325.556 568.525 330.533C568.582 333.281 567.973 335.564 566.72 337.42C565.116 339.796 562.285 341.29 559.188 341.397L526.999 342.503ZM526.999 315.432V295.71H560.279C560.371 295.71 560.461 295.704 560.549 295.694C565.999 297.718 568.654 300.907 568.814 305.465C568.991 310.504 566.282 313.709 560.289 315.428C560.284 315.429 560.28 315.43 560.275 315.432H526.999Z" fill="#212121"/>
</g>
<path d="M248.724 457.019C237.528 457.019 226.332 455.52 215.224 452.522C182.34 443.618 154.923 422.46 137.996 392.927C121.07 363.393 116.573 329.099 125.478 296.216C134.382 263.333 155.54 235.915 185.073 218.988C214.607 202.062 248.901 197.566 281.784 206.47C314.668 215.374 342.085 236.532 359.012 266.065C375.938 295.599 380.434 329.893 371.53 362.776L370.296 362.424L371.53 362.776C362.626 395.66 341.468 423.077 311.935 440.004C292.451 451.288 270.764 457.019 248.724 457.019ZM248.372 204.707C226.861 204.707 205.614 210.349 186.484 221.281C157.568 237.854 136.85 264.743 128.122 296.921C119.395 329.099 123.803 362.688 140.376 391.604C156.95 420.521 183.839 441.238 216.017 449.966C248.195 458.694 281.784 454.374 310.7 437.712C339.617 421.138 360.334 394.249 369.062 362.071C377.79 329.893 373.382 296.304 356.808 267.388C340.234 238.472 313.345 217.754 281.167 209.026C270.323 206.205 259.303 204.707 248.372 204.707Z" fill="black"/>
<ellipse cx="249.504" cy="329.506" rx="127.5" ry="127.51" fill="black"/>
<path d="M286.632 371.593L281.783 371.152C281.078 371.064 280.373 371.593 280.373 372.386C280.285 373.092 280.814 373.797 281.607 373.797L286.456 374.238C286.632 374.238 286.897 374.238 287.073 374.238C290.599 374.238 293.685 371.681 294.302 368.155C294.655 366.127 294.126 364.011 292.891 362.424C291.657 360.837 289.718 359.779 287.69 359.603L284.693 359.339C283.987 359.251 283.282 359.779 283.282 360.573C283.194 361.278 283.723 361.895 284.516 361.983L287.514 362.248C288.836 362.336 289.982 363.041 290.864 364.011C291.657 365.069 292.01 366.391 291.745 367.714C291.216 370.094 289.012 371.769 286.632 371.593Z" fill="black"/>
<path d="M295.447 357.751C297.563 357.663 299.062 355.812 298.974 353.784C298.885 351.668 297.034 350.169 295.006 350.258C292.979 350.346 291.392 352.197 291.48 354.225C291.568 356.341 293.331 357.839 295.447 357.751Z" fill="black"/>
<path d="M286.105 437.272C294.48 433.128 296.067 420.61 296.332 418.582C291.835 420.257 284.077 422.461 274.292 421.932C262.655 421.315 254.103 417.259 249.695 414.791C258.599 434.627 276.319 442.12 286.105 437.272Z" fill="black"/>
<mask id="mask1" mask-type="alpha" maskUnits="userSpaceOnUse" x="122" y="202" width="255" height="256">
<ellipse cx="249.5" cy="329.51" rx="127.5" ry="127.51" fill="black"/>
</mask>
<g mask="url(#mask1)">
<path fill-rule="evenodd" clip-rule="evenodd" d="M606.374 327.897H692.374C693.639 327.897 694.665 326.871 694.665 325.606C694.665 324.341 693.639 323.315 692.374 323.315H590.873H547.332L375.15 797.296C374.718 798.485 373.404 799.099 372.215 798.667C371.026 798.235 370.412 796.921 370.844 795.732L542.457 323.315H463.823C459.836 323.315 456.603 320.083 456.603 316.095C456.603 312.107 459.836 308.874 463.823 308.874H614.472C614.225 308.313 614.199 307.648 614.483 307.017L639.123 252.308C640.305 249.684 642.127 247.398 644.423 245.662L649.059 242.155C654.384 238.127 661.214 236.665 667.712 238.152V238.152L701.468 155.994C705.826 151.005 710.351 149.487 715.04 151.438C715.114 151.469 715.188 151.5 715.261 151.533C720.725 153.949 723.194 160.337 720.778 165.8C706.11 198.959 694.706 224.74 686.565 243.143L731.844 255.152C733.067 255.476 733.795 256.73 733.471 257.953C733.146 259.176 731.892 259.904 730.67 259.58L684.689 247.385C682.662 251.968 680.865 256.029 679.299 259.569C682.865 260.926 684.489 266.305 685.114 275.793C685.199 277.084 684.198 278.19 682.904 278.233C670.073 278.659 659.256 280.731 650.454 284.427C646.163 286.229 642.647 289.213 639.91 293.42C642.709 293.501 645.263 293.845 647.921 294.65C653.784 296.424 658.025 300.088 659.782 305.987L701.931 306.339H980.686L1033.7 473.974C1035.96 481.136 1034.7 488.57 1030.89 494.402H1112.62C1114.31 489.128 1118.2 485.834 1123.52 484.226C1125.87 483.516 1128.12 483.194 1130.57 483.102C1128.11 479.432 1124.98 476.818 1121.18 475.224C1113.14 471.852 1103.26 469.959 1091.53 469.567L1063.82 469.567C1062.55 469.567 1061.53 468.541 1061.53 467.276C1061.53 466.011 1062.55 464.986 1063.82 464.986L1091.57 464.986L1091.65 464.987C1103.91 465.394 1114.35 467.391 1122.95 470.999C1131.63 474.638 1137.31 482.522 1140.01 494.402H1163.44C1160.95 482.314 1156.11 474.628 1149.03 471.14C1140.8 467.082 1124.01 460.467 1098.73 451.33C1097.87 451.02 1097.32 450.249 1097.23 449.397L1082.72 436.88C1081.76 436.053 1081.65 434.607 1082.48 433.649C1083.31 432.691 1084.75 432.584 1085.71 433.41L1099.86 445.618C1143.89 456.047 1168.17 463.273 1173.8 467.791C1182.29 474.602 1187.8 484.111 1190.34 496.223C1190.39 496.468 1190.4 496.711 1190.37 496.945H1230.45C1234.43 496.945 1237.67 500.178 1237.67 504.165C1237.67 508.153 1234.43 511.386 1230.45 511.386H1039.57L1174.61 795.531C1175.15 796.674 1174.67 798.04 1173.52 798.583C1172.38 799.126 1171.02 798.64 1170.47 797.497L1034.5 511.386H969.822L1074.21 714.269H1042.78L1068.78 795.819C1069.25 797.296 1068.15 798.805 1066.59 798.805H1051.79C1051.76 798.806 1051.72 798.806 1051.69 798.805H839.404C837.798 798.805 836.69 797.194 837.266 795.694L840.867 786.302C844.754 776.164 853.276 768.512 863.773 765.736L902.898 755.385L890.076 714.269H839.404L768.266 532.039C769.042 531.505 769.438 530.522 769.181 529.559L731.923 390.173C729.503 381.12 734.536 371.746 743.418 368.761L834.992 337.986C836.191 337.583 836.837 336.285 836.434 335.085C836.031 333.886 834.732 333.241 833.533 333.644L741.958 364.419C730.784 368.174 724.453 379.967 727.497 391.356L764.165 528.535L745.539 713.598H689.374V796.514C689.374 797.779 688.348 798.805 687.083 798.805H664.43C663.165 798.805 662.14 797.779 662.14 796.514V746.003L621.862 797.918C621.429 798.478 620.761 798.805 620.053 798.805H460.317C458.71 798.805 457.603 797.194 458.178 795.694L461.78 786.302C465.667 776.164 474.189 768.512 484.685 765.736L524.76 755.134L533.54 713.598H468.904L544.164 497.427L544.413 497.431L606.374 327.897ZM1153.43 203.868L1083.3 202.193L993.767 2.98201C990.267 -4.80656 993.743 -13.9582 1001.53 -17.4587C1003.51 -18.3472 1005.65 -18.8101 1007.82 -18.8175L1310.15 -19.8519C1317.71 -19.8777 1324.18 -14.4381 1325.45 -6.98919L1360.32 197.524C1402.71 208.166 1434.1 246.53 1434.1 292.225C1434.1 346.148 1390.39 389.861 1336.47 389.861C1282.54 389.861 1238.83 346.148 1238.83 292.225C1238.83 272.309 1244.8 253.785 1255.03 238.342L1250.34 242.893C1248.68 244.505 1246.78 245.862 1244.72 246.921C1234.97 251.931 1226.45 253.248 1219.23 250.705C1213.15 248.562 1209.34 244.947 1208 240.031C1203.62 243.778 1198.22 244.987 1191.99 243.576C1185.23 242.043 1180.98 238.148 1179.47 232.155C1174.43 235.408 1169.25 236.15 1164.08 234.256C1154.5 230.742 1149.14 220.537 1151.68 210.652L1153.43 203.868ZM280.867 219.28L290.21 -19.1441C290.535 -27.4412 297.356 -34 305.659 -34H651.131C652.636 -34 654.134 -33.7801 655.576 -33.3472C663.755 -30.8922 668.394 -22.272 665.939 -14.0935L602.336 197.793C598.992 208.933 588.737 216.562 577.106 216.562H430.574C430.51 216.562 430.446 216.562 430.382 216.563C430.783 216.814 431.18 217.083 431.573 217.368C432.682 218.171 433.672 219.025 434.544 219.93C439.467 225.045 440.094 232.924 436.043 238.753L408.034 279.052C407.975 279.137 407.911 279.219 407.84 279.295L400.154 287.658C395.084 293.176 387.732 295.794 380.462 294.892L366.814 306.766C367.116 309.895 367.271 313.068 367.271 316.276C367.271 370.199 323.558 413.912 269.635 413.912C215.713 413.912 172 370.199 172 316.276C172 262.354 215.713 218.641 269.635 218.641C273.434 218.641 277.181 218.858 280.867 219.28ZM1037.97 714.269H894.875L907.792 755.691H979.962C981.228 755.691 982.253 756.717 982.253 757.982C982.253 759.247 981.228 760.272 979.962 760.272H902.967C902.81 760.272 902.658 760.257 902.51 760.227L864.944 770.165C855.871 772.565 848.505 779.179 845.145 787.942L842.736 794.224H1048.52L1029.79 740.063C1029.37 738.867 1030.01 737.563 1031.2 737.149C1032.4 736.735 1033.7 737.37 1034.12 738.565L1053.37 794.224H1063.46L1037.97 714.269ZM684.793 713.598H538.223L528.951 757.461C528.772 758.308 528.132 758.981 527.296 759.202L485.857 770.165C476.784 772.565 469.417 779.179 466.057 787.942L463.648 794.224H618.931L662.62 737.91C663.958 736.185 666.721 737.131 666.721 739.314V794.224H684.793V713.598ZM359.741 272.8L359.429 273.069C359.159 272.612 358.885 272.157 358.609 271.706L359.741 272.8ZM1133.05 487.663C1129.99 487.609 1127.43 487.829 1124.85 488.611C1121.41 489.65 1118.92 491.491 1117.54 494.402H1135.3C1134.69 491.933 1133.94 489.688 1133.05 487.663ZM1168.11 494.402H1185.21C1182.67 484.622 1177.91 476.967 1170.93 471.363C1167.33 468.468 1152.71 463.663 1127.54 457.156C1138.29 461.309 1146.12 464.598 1151.06 467.031C1159.77 471.324 1165.42 480.52 1168.11 494.402ZM665.942 242.46C661.018 241.543 655.874 242.744 651.823 245.808L647.187 249.315C645.503 250.589 644.167 252.265 643.3 254.189L620.12 305.656L630.17 305.74C633.091 292.757 639.254 284.161 648.681 280.203C649.37 279.914 650.069 279.634 650.78 279.364L665.942 242.46ZM672.761 274.35C675.214 274.082 677.746 273.883 680.357 273.753C680.058 270.588 679.613 268.113 679.036 266.35C678.719 265.38 678.376 264.67 678.037 264.226C677.827 263.95 677.69 263.852 677.612 263.833C677.551 263.819 677.489 263.808 677.427 263.802C675.331 268.54 673.776 272.056 672.761 274.35ZM654.907 305.946C653.423 302.434 650.581 300.241 646.594 299.035C643.714 298.163 640.863 297.926 637.452 297.994C636.422 300.322 635.559 302.915 634.865 305.779L654.907 305.946ZM320.378 181.824C329.748 191.076 330.116 200.145 321.081 207.812C320.56 208.255 319.898 208.423 319.271 208.333L321.154 233.324C344.811 248.048 361.71 272.61 366.128 301.29L377.406 291.478C377.83 290.539 378.855 289.975 379.913 290.173C386.086 291.325 392.465 289.255 396.781 284.558L404.362 276.31L432.281 236.139C435.086 232.103 434.652 226.648 431.243 223.107C430.565 222.402 429.779 221.726 428.885 221.078C424.408 217.833 419.527 217.449 413.916 219.964L393.444 247.13C392.683 248.141 391.247 248.342 390.237 247.581C389.226 246.82 389.024 245.384 389.786 244.373L410.804 216.481C412.378 211.272 411.101 207.319 406.878 204.137C402.674 200.97 398.602 200.628 394.228 203.044C394.201 203.059 394.173 203.074 394.145 203.088C394.07 203.292 393.963 203.489 393.826 203.671L372.8 231.574C372.039 232.584 370.602 232.786 369.592 232.024C368.582 231.263 368.38 229.827 369.141 228.817L390.167 200.914C390.385 200.625 390.658 200.402 390.961 200.249C391.037 200.052 391.145 199.856 391.288 199.665L421.197 159.739C423.576 152.834 422.752 148.181 418.952 145.249C414.842 142.077 409.668 142.268 403.017 146.1C402.958 146.134 402.905 146.179 402.861 146.232L348.793 211.861C347.659 213.236 345.458 212.847 344.865 211.166C342.692 205.009 341.097 200.436 340.078 197.446C339.898 196.92 339.717 196.364 339.515 195.727C339.38 195.3 339.261 194.919 339.043 194.215C337.231 188.365 336.277 186.148 334.663 184.713C332.509 182.799 330.178 181.402 327.658 180.508C325.08 179.593 322.333 180.184 320.378 181.824ZM317.916 185.844C317.749 186.569 317.69 187.316 317.744 188.061L318.915 203.611C324.69 198.243 324.462 192.638 317.916 185.844ZM404.273 276.438L404.467 276.195L404.362 276.31L404.273 276.438ZM413.393 157.547C414.281 156.645 415.731 156.633 416.633 157.521C417.534 158.408 417.546 159.858 416.659 160.76C413.458 164.012 409.442 163.98 405.481 160.895C401.486 157.784 400.512 153.962 403.153 150.341C403.899 149.319 405.332 149.095 406.354 149.84C407.376 150.586 407.6 152.018 406.854 153.04C405.818 154.462 406.1 155.571 408.296 157.281C410.526 159.018 411.935 159.029 413.393 157.547ZM269.635 409.331C321.028 409.331 362.69 367.669 362.69 316.276C362.69 264.884 321.028 223.222 269.635 223.222C218.243 223.222 176.581 264.884 176.581 316.276C176.581 367.669 218.243 409.331 269.635 409.331ZM301.357 309.863C298.693 310.671 295.559 310.052 292.105 308.151C290.997 307.541 290.593 306.148 291.203 305.039C291.813 303.931 293.206 303.527 294.315 304.138C297.141 305.694 299.151 305.978 300.595 305.234L300.177 302.697C300.027 301.786 300.437 300.875 301.219 300.384L322.393 287.089L306.085 282.694C307.104 286.531 305.344 290.689 301.661 292.555C298.26 294.277 294.603 295.378 290.7 295.858C286.797 296.337 282.982 296.153 279.266 295.304C276.776 294.736 274.669 293.089 273.515 290.812C271.372 286.58 273.065 281.411 277.297 279.268C280.697 277.545 284.355 276.444 288.257 275.965C290.569 275.681 292.849 275.63 295.096 275.811C293.315 271.399 290.412 267.655 286.799 264.852L255.853 279.049L229.176 283.78C229.031 284.725 228.955 285.689 228.955 286.666V352.129C244.045 355.608 258.336 356.753 271.833 355.572C285.18 354.404 296.994 351.164 307.289 345.859L301.357 309.863ZM292.313 280.286C291.159 280.292 289.993 280.367 288.816 280.512C285.435 280.927 282.289 281.874 279.367 283.354C277.392 284.355 276.602 286.767 277.602 288.742C278.141 289.805 279.124 290.573 280.286 290.838C283.48 291.568 286.761 291.726 290.142 291.311C293.522 290.896 296.668 289.948 299.591 288.468C301.566 287.467 302.356 285.055 301.355 283.081C301.16 282.694 300.905 282.346 300.604 282.048C300.643 282.238 300.671 282.433 300.688 282.631C300.923 285.309 299.069 287.659 296.549 287.879C294.028 288.1 291.795 286.108 291.561 283.43C291.46 282.272 291.748 281.176 292.313 280.286ZM300.155 276.352L328.647 284.029C330.576 284.549 330.961 287.118 329.269 288.181L304.944 303.454L312.077 346.742C312.236 347.705 311.766 348.663 310.908 349.128C299.706 355.194 286.808 358.861 272.232 360.136C257.701 361.407 242.331 360.082 226.127 356.168C225.099 355.92 224.374 355 224.374 353.942V286.666C224.374 277.06 230.226 268.423 239.147 264.861L259.043 256.918C261.126 256.086 263.294 255.482 265.508 255.117C280.831 252.592 295.545 261.774 300.155 276.352ZM271.911 319.159C263.254 323.762 252.506 320.475 247.903 311.819C243.3 303.162 246.586 292.414 255.243 287.811C256.36 287.217 257.747 287.641 258.341 288.758C258.934 289.875 258.51 291.262 257.393 291.856C250.971 295.271 248.533 303.246 251.948 309.668C255.363 316.091 263.337 318.529 269.76 315.114C270.877 314.52 272.264 314.944 272.858 316.061C273.452 317.178 273.028 318.565 271.911 319.159ZM1336.47 385.28C1387.86 385.28 1429.52 343.618 1429.52 292.225C1429.52 240.833 1387.86 199.171 1336.47 199.171C1285.07 199.171 1243.41 240.833 1243.41 292.225C1243.41 343.618 1285.07 385.28 1336.47 385.28ZM1321 258.639C1322.09 259.72 1322.62 261.337 1322.27 262.977C1321.73 265.514 1319.29 267.144 1316.81 266.618C1314.78 266.186 1313.36 264.437 1313.22 262.421C1312.38 263.078 1311.58 263.812 1310.8 264.623C1315.32 267.715 1319.98 269.002 1324.84 268.542C1327.99 268.244 1330.89 267.242 1333.55 265.517C1332.33 263.489 1331.22 261.227 1330.2 258.729C1328.02 258.182 1325.8 258.018 1323.55 258.232C1322.68 258.314 1321.83 258.45 1321 258.639ZM1371 301.036L1368.79 325.714C1368.7 326.776 1367.88 327.632 1366.82 327.778C1354.55 329.48 1341.28 328.809 1327.01 325.777C1312.69 322.731 1301.93 318.427 1294.75 312.797C1294.09 312.283 1293.76 311.452 1293.9 310.628L1297.44 288.695C1297.43 288.376 1297.48 288.069 1297.59 287.786L1298.76 280.574L1281.69 276.946C1280.05 276.599 1279.33 274.671 1280.33 273.333L1297.32 250.655C1308.56 235.641 1327.99 229.25 1345.96 234.654L1360.03 238.889C1369.4 241.707 1375.5 250.722 1374.63 260.466L1373.42 273.907L1416 287.022C1416.24 287.095 1416.48 287.184 1416.7 287.288C1419.58 288.605 1420.84 292.003 1419.53 294.879L1409.43 316.922C1409.34 317.125 1409.23 317.322 1409.12 317.513C1407.48 320.215 1403.95 321.074 1401.25 319.431L1371 301.036ZM1324.76 238.213C1315.46 240.188 1306.94 245.446 1300.98 253.402L1286.15 273.211L1301.84 276.547C1303.04 276.801 1303.82 277.947 1303.63 279.153L1303.13 282.21C1306.29 282.706 1308.75 283.142 1310.52 283.518C1311.65 283.757 1312.51 283.975 1313.14 284.184C1313.53 284.314 1313.86 284.446 1314.14 284.605C1314.85 284.997 1315.36 285.484 1315.51 286.456C1315.7 287.599 1315.16 288.383 1314.42 288.877C1314.15 289.062 1313.86 289.187 1313.53 289.296C1313.12 289.433 1312.6 289.549 1311.95 289.663C1310.91 289.844 1309.5 290.019 1307.74 290.197C1307.32 290.24 1306.88 290.282 1306.42 290.325C1305.43 290.417 1303.3 290.595 1301.76 290.725L1298.64 309.996C1305.21 314.751 1314.99 318.537 1327.97 321.296C1341.03 324.072 1353.17 324.794 1364.39 323.472L1368.44 278.146C1366.34 274.392 1362.62 271.5 1357.99 270.516C1352.23 269.292 1346.57 271.333 1343.04 275.359C1340.2 273.353 1337.91 271.324 1336.17 269.273C1332.87 271.444 1329.23 272.728 1325.27 273.103C1318.48 273.745 1312.02 271.602 1305.99 266.758C1305 265.962 1304.85 264.511 1305.65 263.526C1310.46 257.635 1316.31 254.315 1323.11 253.671C1324.89 253.503 1326.65 253.526 1328.39 253.739C1326.92 249.188 1325.71 244.013 1324.76 238.213ZM1207.81 233.484C1207.82 233.319 1207.85 233.153 1207.89 232.987L1222.3 179.964C1222.18 179.719 1222.1 179.444 1222.07 179.143C1221.47 172.353 1218.52 168.297 1213.06 166.543C1207.22 164.669 1202.66 166.429 1198.85 172.131C1198.6 172.5 1198.29 172.765 1197.94 172.931L1183.85 226.788C1183.76 227.1 1183.62 227.38 1183.43 227.619C1183.45 227.706 1183.46 227.795 1183.46 227.886C1183.78 234.122 1186.82 237.706 1193.01 239.108C1199.22 240.517 1204.02 238.701 1207.81 233.484ZM1212.08 234.74C1212.08 234.763 1212.08 234.786 1212.08 234.808C1211.7 240.438 1214.43 244.158 1220.75 246.384C1226.63 248.454 1233.9 247.329 1242.63 242.846C1244.29 241.994 1245.81 240.901 1247.15 239.604L1258.84 228.275L1247.89 224.539C1246.86 224.189 1246.22 223.163 1246.36 222.085L1250.38 190.173C1250.34 181.473 1247.52 176.684 1241.9 175.142C1236.8 173.742 1231.96 175.098 1227.2 179.389L1212.31 234.188C1212.26 234.386 1212.18 234.571 1212.08 234.74ZM1179.36 226.539C1179.32 226.244 1179.33 225.935 1179.41 225.629L1194 169.889C1194.04 169.706 1194.11 169.533 1194.2 169.374C1192.47 163.654 1188.96 160.071 1183.54 158.409C1181.35 157.735 1179.31 157.464 1177.43 157.582C1172.98 157.862 1169.21 160.976 1168.1 165.297L1156.12 211.796C1154.16 219.4 1158.28 227.251 1165.66 229.954C1170.15 231.6 1174.63 230.532 1179.36 226.539ZM1173.12 174.477C1172.69 177.213 1173.97 178.809 1177.73 179.784C1181.47 180.754 1183.19 180.07 1183.93 177.734C1184.31 176.528 1185.59 175.859 1186.8 176.24C1188.01 176.622 1188.67 177.909 1188.29 179.115C1186.73 184.047 1182.48 185.747 1176.58 184.218C1170.7 182.694 1167.78 179.041 1168.59 173.779C1168.78 172.529 1169.95 171.671 1171.2 171.864C1172.45 172.057 1173.31 173.227 1173.12 174.477ZM1202.32 183.67C1201.9 186.407 1203.17 188.002 1206.93 188.977C1210.68 189.948 1212.39 189.264 1213.13 186.928C1213.51 185.722 1214.79 185.053 1216 185.434C1217.21 185.815 1217.88 187.102 1217.49 188.308C1215.94 193.241 1211.68 194.941 1205.78 193.412C1199.9 191.887 1196.98 188.234 1197.79 182.973C1197.98 181.722 1199.15 180.865 1200.4 181.058C1201.65 181.25 1202.51 182.42 1202.32 183.67ZM1230.96 191.342C1230.54 194.078 1231.82 195.674 1235.58 196.649C1239.32 197.619 1241.03 196.935 1241.77 194.599C1242.15 193.393 1243.44 192.724 1244.65 193.106C1245.85 193.487 1246.52 194.774 1246.14 195.98C1244.58 200.912 1240.33 202.613 1234.43 201.083C1228.55 199.559 1225.62 195.906 1226.44 190.644C1226.63 189.394 1227.8 188.537 1229.05 188.729C1230.3 188.922 1231.16 190.092 1230.96 191.342ZM881.677 43.7193C871.554 38.2215 864.008 34.104 859.037 31.3668C854.33 28.7746 848.655 25.6143 842.012 21.8861C830.927 31.8705 826.662 46.3665 829.246 65.638L842.004 64.0715C843.26 63.9174 844.403 64.8102 844.557 66.0659C844.711 67.3215 843.818 68.4643 842.563 68.6185L827.582 70.4578C826.357 70.6083 825.233 69.7607 825.041 68.5414C822.502 52.4579 824.346 39.1111 830.584 28.6193L823.482 35.0117C821.768 38.7225 820.845 42.8612 820.917 47.2008L821.783 99.2497C832.651 103.152 844.707 104.296 857.98 102.667C871.231 101.04 882.677 97.7362 892.329 92.7687L888.149 73.5192C887.836 72.0791 888.945 70.7226 890.419 70.7428C891.018 70.751 891.62 70.7184 892.224 70.6443C899.443 69.7578 904.578 63.1864 903.691 55.9666C902.805 48.7468 896.233 43.6126 889.013 44.4991C887.595 44.6733 886.238 45.0684 884.976 45.6663C883.643 46.2977 882.07 45.5235 881.757 44.0823L881.72 43.9151C881.706 43.8498 881.692 43.7845 881.677 43.7193ZM855.949 14.4549C869.829 16.6006 881.583 26.6264 885.592 40.5438C886.522 40.2704 887.479 40.072 888.455 39.9521C898.186 38.7573 907.043 45.6773 908.238 55.4083C909.416 65.0034 902.705 73.7489 893.188 75.1367L897.174 93.4947C897.391 94.4893 896.924 95.5072 896.03 95.9932C885.533 101.699 873.033 105.434 858.538 107.214C843.956 109.004 830.664 107.601 818.695 102.988C817.825 102.653 817.245 101.822 817.229 100.889L816.337 47.277C816.128 34.7327 823.063 23.6308 833.507 18.0225C826.675 15.7149 822.426 8.65837 823.827 1.37906C824.582 -2.54614 826.874 -5.88399 830.042 -8.01377C825.732 -10.5473 823.22 -15.5631 824.116 -20.7817C825.025 -26.0779 829.248 -30.1824 834.567 -30.9409L843.536 -32.2198C849.973 -33.1376 855.935 -28.6637 856.853 -22.2269C856.855 -22.2135 856.857 -22.2 856.859 -22.1866C857.455 -17.8985 855.793 -13.799 852.76 -11.1174C857.748 -9.50224 861.61 -5.12593 862.302 0.420315C862.304 0.434937 862.305 0.449558 862.307 0.464188C862.994 6.11909 860.382 11.441 855.949 14.4549ZM844.482 45.2973C844.887 45.1462 845.32 45.0538 845.771 45.0301C848.298 44.8977 850.46 46.9666 850.601 49.6511C850.666 50.9009 850.282 52.0637 849.598 52.9631C851.171 52.8886 852.727 52.6149 854.268 52.1437C858.959 50.7094 862.739 47.6829 865.652 42.9746C860.604 40.7001 855.778 40.3047 851.087 41.7389C848.639 42.4873 846.439 43.6692 844.482 45.2973ZM841.795 47.9922C841.053 48.8802 840.356 49.8518 839.703 50.9081C840.407 51.2251 841.106 51.5057 841.801 51.7499C841.603 51.2484 841.481 50.7036 841.451 50.1306C841.411 49.3727 841.537 48.6468 841.795 47.9922ZM855.607 56.5247C849.044 58.5313 842.274 57.6292 835.425 53.8909C834.332 53.2942 833.916 51.9332 834.489 50.8272C838.076 43.8981 843.184 39.3646 849.748 37.358C856.311 35.3513 863.081 36.2534 869.93 39.9917C871.023 40.5885 871.439 41.9494 870.866 43.0555C867.279 49.9845 862.171 54.518 855.607 56.5247ZM834.509 76.5595C833.313 76.1484 832.676 74.8453 833.087 73.6489C833.498 72.4526 834.801 71.8159 835.998 72.227C838.836 73.2022 842.141 72.6906 846.02 70.5498C847.127 69.9386 848.521 70.341 849.132 71.4485C849.743 72.5561 849.341 73.9495 848.233 74.5607C843.301 77.2826 838.691 77.9963 834.509 76.5595ZM1044.92 18.0181L1101.49 138.353C1101.87 139.152 1102.67 139.663 1103.55 139.669L1312.32 141.004C1313.76 141.013 1314.86 139.698 1314.58 138.279L1291.03 16.3065C1290.82 15.2278 1289.88 14.4488 1288.78 14.4502L1046.99 14.7531C1045.32 14.7552 1044.21 16.5001 1044.92 18.0181ZM1286.89 19.0337L1309.55 136.405L1105.02 135.097L1050.6 19.3297L1286.89 19.0337ZM1187.24 114.185C1193.64 114.185 1201.86 111.652 1206.94 108.545C1216.57 102.66 1220.74 92.7943 1220.74 80.6858C1220.74 73.1612 1218.92 65.279 1214.73 59.6866C1208.62 51.5286 1198.22 47.1862 1187.24 47.1862C1176.34 47.1862 1166.94 52.9976 1160.82 61.0624C1156.56 66.6828 1153.75 73.0875 1153.75 80.6858C1153.75 90.7713 1159.05 99.5301 1166.1 105.672C1171.98 110.796 1178.83 114.185 1187.24 114.185ZM342.075 34.2503C338.596 34.2503 335.776 37.0705 335.776 40.5494C335.776 44.0283 338.596 46.8484 342.075 46.8484H578.576C582.055 46.8484 584.875 44.0283 584.875 40.5494C584.875 37.0705 582.055 34.2503 578.576 34.2503H342.075ZM343.22 77.7711C339.741 77.7711 336.921 80.5913 336.921 84.0702C336.921 87.549 339.741 90.3692 343.22 90.3692H434.546C438.025 90.3692 440.845 87.549 440.845 84.0702C440.845 80.5913 438.025 77.7711 434.546 77.7711H343.22ZM465.193 77.7711C461.714 77.7711 458.894 80.5913 458.894 84.0702C458.894 87.549 461.714 90.3692 465.193 90.3692H510.296C513.775 90.3692 516.595 87.549 516.595 84.0702C516.595 80.5913 513.775 77.7711 510.296 77.7711H465.193ZM538.491 77.7711C535.012 77.7711 532.192 80.5913 532.192 84.0702C532.192 87.549 535.012 90.3692 538.491 90.3692H572.201C575.679 90.3692 578.5 87.549 578.5 84.0702C578.5 80.5913 575.679 77.7711 572.201 77.7711H538.491Z" fill="white"/>
<path fill-rule="evenodd" clip-rule="evenodd" d="M770.38 306.736L761.766 286.046C756.001 272.199 745.093 261.287 731.533 255.453L748.036 128.739C749.779 115.36 761.962 105.875 775.359 107.467L814.502 112.118L816.782 99.5203L895.716 87.9847L918.293 124.45L966.522 130.18C975.538 131.251 983.406 136.796 987.447 144.926L1131.71 435.144H1020.95L979.961 306.583L770.38 306.736ZM484.375 132.744H547.365C556.062 132.744 563.113 139.794 563.113 148.491C563.113 157.189 556.062 164.239 547.365 164.239H484.375C475.677 164.239 468.627 157.189 468.627 148.491C468.627 139.794 475.677 132.744 484.375 132.744ZM1178.7 68.0518C1178.7 67.7621 1187.67 71.2469 1205.62 78.5061L1183.51 97.2399C1180.3 78.0709 1178.7 68.3415 1178.7 68.0518ZM981.029 303.459L956.459 211.034C956.134 209.812 954.88 209.084 953.657 209.409C952.435 209.734 951.707 210.989 952.032 212.211L976.602 304.636C976.927 305.859 978.182 306.586 979.404 306.261C980.627 305.936 981.354 304.682 981.029 303.459ZM261.747 346.96C262.651 346.973 263.556 346.964 264.46 346.934L322.464 344.999C323.256 344.972 324.041 345.151 324.742 345.519C326.984 346.692 327.849 349.461 326.676 351.702L318.557 367.209L337.053 380.397C331.817 385.882 326.996 390.08 322.589 392.992C319.779 394.848 317.113 396.336 315.268 397.426C306.499 402.603 297.601 405.263 291.252 406.83C283.824 408.663 276.205 409.395 267.694 409.395C266.133 409.395 261.406 409.099 259.888 408.939C248.014 407.693 234.399 404.347 219.26 394.671C216.479 392.893 211.292 389.023 206.566 384.719C205.702 383.933 204.385 382.634 202.613 380.82L221.073 367.209L215.152 352.676C214.92 352.107 214.805 351.498 214.814 350.883C214.85 348.354 216.929 346.331 219.459 346.367L261.747 346.96ZM1328.81 313.424L1383.69 315.876C1386.21 315.989 1388.17 318.13 1388.06 320.658C1388.03 321.204 1387.91 321.742 1387.7 322.246L1384 330.927C1380.2 339.868 1382.13 350.217 1388.9 357.188L1395.62 364.107C1378.79 378.349 1359.08 385.47 1336.47 385.47C1328.47 385.47 1318.87 384.051 1310.3 381.591C1305.64 380.255 1301.06 378.361 1297.33 376.651C1293.11 374.719 1288.31 372.088 1283.1 368.488C1281.98 367.713 1280.28 366.418 1278 364.603C1284.15 355.473 1286.25 344.205 1283.8 333.472L1279.09 312.841C1278.53 310.374 1280.08 307.918 1282.54 307.356C1283.09 307.231 1283.66 307.208 1284.21 307.288L1323.21 312.897C1325.07 313.164 1326.94 313.34 1328.81 313.424Z" fill="#7B61FF"/>
</g>
</svg>
