<svg width="320" height="171" viewBox="0 0 320 171" fill="none" xmlns="http://www.w3.org/2000/svg">
<mask id="mask0" mask-type="alpha" maskUnits="userSpaceOnUse" x="0" y="0" width="320" height="171">
<path d="M31.2941 171H159.265H259.108C275.065 163.859 309.141 135.869 317.784 81.0294C326.427 26.1902 301.02 4.16013 287.235 0L84.9412 14.1569H19C12.6667 23.4706 0 51.5235 0 89.2255C0 126.927 20.8627 159.451 31.2941 171Z" fill="#C4C4C4"/>
</mask>
<g mask="url(#mask0)">
<path fill-rule="evenodd" clip-rule="evenodd" d="M181.901 31.7372V39.2056V54.3523C181.901 56.3392 178.92 56.3392 178.92 54.3523V39.2056C178.92 37.2186 181.901 37.2186 181.901 39.2056C181.901 41.1925 178.92 41.1925 178.92 39.2056V31.7372H44.7027L44.42 61.055H58.1145V62.3903C58.3337 62.2635 58.5882 62.1909 58.8596 62.1909H264.819L268.939 58.42V31.7372H181.901ZM261.564 65.1714H58.8596C58.5882 65.1714 58.3337 65.0988 58.1145 64.972V88.0831H258.823L258.918 79.3282V67.5929L261.564 65.1714ZM58.1145 91.0635V96.5026H44.42L44.889 128.975C47.1107 126.451 49.5918 126.451 52.3325 128.975C52.7343 129.346 53.1174 129.747 53.4815 130.181H258.918L267.317 126.456V96.5026H258.732L258.791 91.0635H58.1145ZM209.963 170.809L257.727 170.789L258.831 133.162H55.4392C56.5439 135.305 57.3735 137.913 57.9282 140.985V165.394L58.1145 170.873L110.271 170.851V189.722L22.1635 185.411C12.0364 184.915 3.51129 177.666 1.39523 167.75C-22.9481 53.6777 -20.952 -11.4451 7.38342 -27.6183C58.8275 -56.9816 63.3533 9.52921 88.3731 3.96146C113.393 -1.60629 91.64 -66.7978 144.336 -72.1189C197.032 -77.44 183.641 -41.3842 201.675 -15.2066C219.709 10.9709 231.877 -51.4443 283.177 -51.2594C340.198 -51.0538 338.437 -10.7248 338.437 27.5811L322.529 189.82C321.967 195.554 317.004 199.838 311.249 199.556L209.7 194.587L209.963 170.809ZM161.956 170.829L162.647 170.829C163.302 170.984 163.791 171.573 163.793 172.275L164.194 332.179L176.91 313.392C177.371 312.71 178.298 312.531 178.979 312.993C179.661 313.454 179.839 314.381 179.378 315.062L164.361 337.25L188.41 337.237C189.233 337.237 189.901 337.904 189.901 338.727C189.901 339.55 189.235 340.217 188.412 340.218L136.194 340.246C135.371 340.246 134.703 339.58 134.703 338.757C134.703 337.934 135.37 337.266 136.193 337.266L160.99 337.252L143.335 315.301C142.819 314.66 142.921 313.722 143.562 313.206C144.204 312.69 145.142 312.792 145.658 313.433L161.216 332.777L160.812 172.283C160.81 171.578 161.299 170.986 161.956 170.829ZM-217.42 -53.9698L-193.215 -110.3L-183.919 -113.876L-204.04 -64.1119L-171.211 -111.153C-170.74 -111.828 -169.811 -111.993 -169.136 -111.522C-168.461 -111.051 -168.296 -110.122 -168.767 -109.447L-199.324 -65.6615L-150.537 -108.407C-149.918 -108.95 -148.976 -108.887 -148.434 -108.268C-147.892 -107.649 -147.954 -106.708 -148.573 -106.166L-199.772 -61.3066L-122.758 -116.607L-77.097 -19.9154L-180.981 6.73157C-186.19 15.0707 -189.402 19.7106 -190.808 20.8905C-192.559 22.3594 -194.59 23.4006 -196.805 23.6944C-199.726 24.0818 -202.641 23.1107 -205.365 20.592C-208.704 17.5035 -210.296 13.8741 -210.082 9.81273C-214.362 10.1131 -218.204 8.71796 -221.515 5.65602C-225.129 2.31409 -226.682 -1.48883 -226.061 -5.6194L-232.322 -12.5203C-236.498 -17.123 -237.379 -23.8339 -234.533 -29.3585C-230.025 -38.1087 -225.405 -45.0686 -220.661 -50.2401C-219.512 -51.4925 -218.432 -52.7357 -217.42 -53.9698ZM35.6952 308.945L-67.6408 309.947L-65.2201 334.897H-36.565C-35.742 334.897 -35.0748 335.564 -35.0748 336.387C-35.0748 337.21 -35.742 337.877 -36.565 337.877H-58.7874C-54.2726 339.117 -51.0082 340.436 -48.9673 341.859C-44.9813 344.638 -45.2855 348.19 -49.549 351.221C-53.5162 354.041 -57.4767 354.237 -61.0953 351.714C-64.336 349.455 -67.2588 345.042 -69.9523 338.472L-113.712 345.895C-120.323 347.017 -125.853 351.54 -128.264 357.797L-129.068 359.883H14.1056L48.846 329.353L35.6952 308.945ZM-70.6324 309.976L-105.16 310.311L-126.334 288.081L-88.1049 219.567C-87.7039 218.848 -87.9614 217.941 -88.6801 217.54C-89.3988 217.139 -90.3065 217.396 -90.7075 218.115L-128.486 285.821L-128.503 285.804L-128.624 286.069L-139.975 306.413L-158.903 361.854C-159.109 362.458 -159.676 362.863 -160.313 362.863H-333.907C-334.953 362.863 -335.674 361.813 -335.297 360.837L-333.713 356.725C-330.924 349.487 -324.526 344.254 -316.879 342.957L-277.437 336.266C-283.882 334.412 -288.318 332.545 -290.798 330.616C-294.633 327.633 -294.143 324.101 -289.727 321.298C-285.618 318.689 -281.653 318.701 -278.171 321.41C-275.068 323.823 -272.391 328.351 -270.053 335L-251.063 310.311H-279.042L-215.744 194.955C-215.622 195.091 -215.473 195.208 -215.3 195.296C-214.565 195.666 -213.669 195.37 -213.299 194.635L-139.113 47.3605C-138.743 46.6255 -139.038 45.7294 -139.773 45.3592C-140.508 44.989 -141.404 45.2847 -141.775 46.0197L-215.96 193.294C-216.046 193.464 -216.096 193.642 -216.113 193.82L-254.236 153.793L-180.513 7.48532L-109.963 8.26794L-36.271 7.48532V84.1033L-69.8216 157.475L32.7256 299.575C33.0873 299.667 33.4065 299.892 33.6134 300.213L37.1818 305.75L39.4612 308.909L39.2188 308.911L52.0467 328.818C52.4464 329.438 52.332 330.257 51.7777 330.744L15.651 362.492C15.379 362.731 15.0294 362.863 14.6673 362.863H-131.239C-132.285 362.863 -133.006 361.813 -132.63 360.837L-131.045 356.725C-128.256 349.487 -121.859 344.254 -114.211 342.957L-74.7697 336.266C-81.2151 334.412 -85.6516 332.545 -88.1313 330.616C-91.9664 327.633 -91.4768 324.101 -87.0604 321.298C-82.9511 318.689 -78.9859 318.701 -75.5042 321.41C-72.8774 323.453 -70.5559 327.011 -68.4869 332.089L-70.6324 309.976ZM-144.455 310.311H-247.303L-266.214 334.897H-239.232C-238.409 334.897 -237.741 335.564 -237.741 336.387C-237.741 337.21 -238.409 337.877 -239.232 337.877H-261.454C-256.939 339.117 -253.675 340.436 -251.634 341.859C-247.648 344.638 -247.952 348.19 -252.216 351.221C-256.183 354.041 -260.143 354.237 -263.762 351.714C-267.003 349.455 -269.925 345.042 -272.619 338.472L-316.38 345.895C-322.991 347.017 -328.521 351.54 -330.932 357.797L-331.736 359.883H-161.379L-144.455 310.311ZM-280.001 323.762C-282.444 321.861 -285.041 321.853 -288.13 323.814C-290.912 325.58 -291.058 326.638 -288.968 328.264C-286.496 330.187 -281.314 332.209 -273.502 334.254C-275.499 329.062 -277.686 325.563 -280.001 323.762ZM-262.058 349.269C-259.518 351.04 -256.924 350.912 -253.942 348.792C-251.257 346.883 -251.166 345.819 -253.338 344.304C-255.907 342.513 -261.188 340.765 -269.096 339.132C-266.831 344.212 -264.464 347.592 -262.058 349.269ZM-77.3342 323.762C-79.7778 321.861 -82.3743 321.853 -85.4631 323.814C-88.2449 325.58 -88.3916 326.638 -86.3013 328.264C-83.8295 330.187 -78.6477 332.209 -70.8358 334.254C-72.8319 329.062 -75.0193 325.563 -77.3342 323.762ZM-59.3909 349.269C-56.8511 351.04 -54.2578 350.912 -51.2758 348.792C-48.5903 346.883 -48.4991 345.819 -50.6716 344.304C-53.2407 342.513 -58.5213 340.765 -66.4295 339.132C-64.1644 344.212 -61.7969 347.592 -59.3909 349.269ZM110.271 284.255H50.0623C41.1384 284.255 33.6422 277.544 32.6591 268.675C31.3769 257.108 35.0179 248.075 43.5822 241.575C61.7196 227.809 71.1107 246.902 78.4747 245.001C85.8387 243.1 75.4983 218.922 88.4433 210.822C101.388 202.723 104.812 219.044 109.756 227.368C109.931 227.664 110.103 227.922 110.271 228.144V284.255ZM209.042 254.1C209.653 253.999 210.287 253.506 210.98 252.499C215.856 245.423 219.232 231.549 231.999 238.434C244.765 245.319 246.748 267.249 254.01 268.865C261.272 270.481 273.696 246.922 291.583 258.623C301.21 264.921 303.166 275.346 297.45 289.897C294.815 296.606 288.337 301.015 281.129 301.005L208.524 300.909L209.042 254.1ZM-130.564 -166.918C-129.522 -167.097 -128.59 -168.032 -127.73 -169.947C-127.393 -170.698 -126.512 -171.033 -125.761 -170.696C-125.01 -170.36 -124.674 -169.478 -125.011 -168.727C-126.061 -166.386 -127.447 -164.838 -129.148 -164.215L-117.769 -142.488C-109.338 -135.203 -101.668 -133.929 -94.431 -138.451C-86.9041 -143.154 -78.3048 -146.365 -68.6432 -148.086L-100.988 -203.129C-101.511 -204.019 -102.132 -204.822 -102.831 -205.532L-117.569 -198.042L-139.206 -193.302C-139.986 -190.425 -140.025 -187.341 -139.226 -184.359C-138.13 -185.333 -136.925 -186.199 -135.614 -186.956C-133.398 -188.236 -131.067 -189.095 -128.625 -189.532C-125.587 -190.075 -122.684 -188.052 -122.141 -185.014C-121.849 -183.379 -122.299 -181.699 -123.37 -180.429C-124.968 -178.533 -126.879 -176.943 -129.094 -175.664C-131.31 -174.385 -133.641 -173.525 -136.082 -173.089C-137.635 -172.811 -139.153 -173.204 -140.338 -174.06C-141.804 -171.726 -143.738 -168.646 -146.14 -164.821L-133.098 -169.079C-132.407 -169.305 -131.653 -168.998 -131.316 -168.354L-130.564 -166.918ZM-138.812 -176.653C-139.262 -177.99 -138.808 -179.471 -137.627 -180.209C-136.231 -181.081 -134.348 -180.586 -133.421 -179.103C-133.028 -178.473 -132.87 -177.766 -132.926 -177.094C-132.131 -177.419 -131.351 -177.803 -130.584 -178.245C-128.665 -179.353 -127.022 -180.72 -125.648 -182.35C-125.149 -182.942 -124.938 -183.727 -125.075 -184.49C-125.328 -185.907 -126.683 -186.851 -128.101 -186.598C-130.199 -186.223 -132.205 -185.483 -134.124 -184.375C-136.043 -183.267 -137.686 -181.901 -139.06 -180.271C-139.559 -179.678 -139.769 -178.894 -139.633 -178.131C-139.527 -177.538 -139.228 -177.027 -138.812 -176.653ZM-142.279 -176.574C-142.405 -176.902 -142.503 -177.247 -142.567 -177.606C-142.837 -179.117 -142.473 -180.667 -141.572 -181.896C-144.99 -191.262 -141.03 -201.943 -131.956 -206.695C-130.663 -207.372 -129.3 -207.908 -127.892 -208.291L-115.602 -211.639C-108.951 -213.45 -101.911 -210.582 -98.4184 -204.639L-64.9742 -147.725C-64.4403 -146.816 -64.9922 -145.656 -66.0339 -145.497C-76.1882 -143.945 -85.1234 -140.753 -92.8516 -135.924C-101.366 -130.603 -110.508 -132.178 -119.94 -140.426C-120.078 -140.547 -120.193 -140.693 -120.279 -140.856L-133.371 -165.855L-149.129 -160.71C-150.454 -160.277 -151.595 -161.738 -150.853 -162.919L-142.279 -176.574ZM-111.203 -169.424C-112.016 -169.295 -112.779 -169.849 -112.908 -170.662C-113.037 -171.475 -112.482 -172.239 -111.669 -172.367C-106.995 -173.108 -103.806 -177.497 -104.547 -182.171C-105.287 -186.845 -109.676 -190.034 -114.35 -189.294C-115.163 -189.165 -115.927 -189.719 -116.055 -190.532C-116.184 -191.345 -115.629 -192.109 -114.817 -192.237C-108.517 -193.235 -102.601 -188.937 -101.603 -182.637C-100.605 -176.337 -104.903 -170.421 -111.203 -169.424ZM-80.7269 -55.3776C-80.584 -54.5671 -81.1252 -53.7941 -81.9357 -53.6512C-82.7462 -53.5083 -83.5191 -54.0495 -83.662 -54.86L-85.9492 -67.8315C-86.0922 -68.642 -85.551 -69.4149 -84.7404 -69.5578C-83.9299 -69.7008 -83.1571 -69.1596 -83.0141 -68.3491L-80.7269 -55.3776ZM-68.5344 -13.5012C-68.1997 -12.7493 -68.5379 -11.8685 -69.2898 -11.5338C-70.0417 -11.1991 -70.9225 -11.5374 -71.2572 -12.2893C-76.4125 -23.8713 -73.1019 -34.9525 -61.56 -45.226C-60.9452 -45.7732 -60.0032 -45.7185 -59.4561 -45.1037C-58.9088 -44.489 -58.9636 -43.547 -59.5784 -42.9998C-70.2129 -33.534 -73.12 -23.8034 -68.5344 -13.5012ZM-66.3652 -63.406C-66.2877 -62.5866 -66.8892 -61.8596 -67.7085 -61.7822C-68.5279 -61.7047 -69.2549 -62.3062 -69.3323 -63.1255L-71.4961 -86.0161C-71.5735 -86.8355 -70.9721 -87.5625 -70.1527 -87.6399C-69.3334 -87.7174 -68.6064 -87.116 -68.5289 -86.2966L-66.3652 -63.406ZM-195.307 -40.6987L-222.969 -5.90041C-222.975 -5.89297 -222.981 -5.88562 -222.987 -5.87833C-222.992 -5.84073 -222.999 -5.80318 -223.007 -5.76575C-223.719 -2.42529 -222.593 0.599426 -219.492 3.46791C-216.367 6.35765 -212.799 7.39635 -208.644 6.62782C-208.32 6.5679 -208.009 6.61623 -207.741 6.74263L-187.406 -21.5662C-187.087 -26.701 -187.617 -30.7058 -188.953 -33.573C-190.108 -36.052 -192.219 -38.4323 -195.307 -40.6987ZM-197.519 -42.7055L-202.895 -55.2544C-203.272 -56.1348 -203.884 -56.8943 -204.664 -57.4497C-207.011 -59.1202 -210.267 -58.5721 -211.938 -56.2254C-213.813 -53.5909 -215.989 -50.9245 -218.465 -48.2254C-223.012 -43.2688 -227.489 -36.5242 -231.884 -27.9935C-234.161 -23.5738 -233.456 -18.2051 -230.115 -14.523L-224.682 -8.53499L-197.519 -42.7055ZM-185.675 -18.8667L-206.245 9.7681C-206.464 10.0741 -206.779 10.272 -207.119 10.3505C-207.17 13.3589 -205.928 16.0114 -203.341 18.4039C-201.258 20.3308 -199.223 21.0086 -197.197 20.7399C-195.613 20.5298 -194.075 19.7414 -192.724 18.6073C-191.304 17.4162 -186.469 10.117 -178.623 -2.7859C-178.895 -6.87059 -179.483 -9.86357 -180.352 -11.7268C-181.142 -13.4235 -182.922 -15.8201 -185.675 -18.8667ZM-210.179 -49.7024C-210.94 -49.3892 -211.811 -49.7523 -212.124 -50.5134C-212.437 -51.2745 -212.074 -52.1454 -211.313 -52.4586C-207.678 -53.9544 -204.56 -52.625 -202.425 -48.8151C-200.273 -44.9756 -200.787 -41.7267 -204.076 -39.774C-204.783 -39.3539 -205.698 -39.5869 -206.118 -40.2946C-206.538 -41.0023 -206.305 -41.9166 -205.597 -42.3367C-203.832 -43.3849 -203.604 -44.8234 -205.025 -47.3581C-206.462 -49.9223 -208.025 -50.5887 -210.179 -49.7024ZM-199.614 -28.6163C-200.375 -28.3032 -201.246 -28.6663 -201.559 -29.4274C-201.873 -30.1885 -201.509 -31.0593 -200.748 -31.3725C-197.113 -32.8684 -193.995 -31.5389 -191.86 -27.729C-189.709 -23.8896 -190.222 -20.6407 -193.511 -18.688C-194.219 -18.2678 -195.133 -18.5009 -195.553 -19.2086C-195.973 -19.9162 -195.74 -20.8305 -195.033 -21.2507C-193.267 -22.2989 -193.04 -23.7374 -194.46 -26.272C-195.897 -28.8362 -197.46 -29.5027 -199.614 -28.6163ZM-189.017 -8.63501C-189.778 -8.32182 -190.649 -8.68492 -190.962 -9.44601C-191.275 -10.2071 -190.912 -11.078 -190.151 -11.3912C-186.516 -12.887 -183.398 -11.5576 -181.263 -7.74771C-179.111 -3.90823 -179.625 -0.659302 -182.914 1.29335C-183.621 1.71353 -184.536 1.48045 -184.956 0.772781C-185.376 0.0651093 -185.143 -0.849197 -184.435 -1.26938C-182.67 -2.31752 -182.442 -3.75604 -183.863 -6.29066C-185.3 -8.85489 -186.863 -9.52136 -189.017 -8.63501ZM130.203 111.473C130.203 109.486 133.183 109.486 133.183 111.473V122.9C133.183 124.887 130.203 124.887 130.203 122.9V111.473V100.046C130.203 98.0594 133.183 98.0594 133.183 100.046V111.473C133.183 113.46 130.203 113.46 130.203 111.473Z" fill="#212121"/>
<path fill-rule="evenodd" clip-rule="evenodd" d="M-138.888 -104.913L-148.258 -106.562C-148.128 -106.85 -148.075 -107.093 -148.098 -107.291C-148.143 -107.662 -148.23 -108.212 -148.761 -108.541C-149.48 -108.988 -150.15 -108.74 -150.974 -108.009C-151.155 -107.849 -151.465 -107.58 -151.905 -107.204L-168.511 -110.135C-168.486 -110.417 -168.529 -110.68 -168.64 -110.923C-168.691 -111.036 -168.754 -111.139 -168.828 -111.233L-160.504 -128.499C-158.68 -132.281 -155.445 -135.196 -151.494 -136.617L-74.4084 -164.332L-28.9548 -144.23C-24.6943 -142.346 -21.3602 -138.842 -19.6904 -134.493L32.2604 0.81395L-33.0856 13.7578L-41.3308 8.30363H-181.984L-180.981 6.72318L-102.049 -13.4409C-98.6275 -10.7973 -95.2247 -8.43248 -92.3972 -6.82774C-81.2324 -0.490967 -65.3793 5.03549 -57.9652 -1.93362C-54.6911 -5.01129 -51.7842 -9.36572 -49.2445 -14.9969C-46.7711 -20.4812 -45.9722 -26.5737 -46.9478 -32.5103L-56.6974 -91.835C-57.2108 -94.9592 -60.1596 -97.0756 -63.2838 -96.5622C-64.5508 -96.3539 -65.7111 -95.7264 -66.579 -94.7802C-67.9312 -93.3058 -69.1231 -90.9257 -70.1548 -87.6399C-71.6519 -90.9571 -75.5547 -92.4324 -78.8718 -90.9353C-79.5628 -90.6234 -80.1948 -90.1946 -80.7399 -89.6678C-81.8834 -88.5629 -82.7541 -87.3677 -83.3521 -86.0822C-84.9074 -82.739 -85.5182 -77.1584 -85.1845 -69.3406L-105.371 -81.445C-105.683 -81.6321 -106.014 -81.7577 -106.352 -81.8253L-122.76 -116.607L-138.888 -104.913ZM44.7007 91.0635H274.563V98.887H44.7007V122.358H274.563V130.181H44.7007H37.6223V91.0635H44.7007ZM267.315 62.2862H37.6223V54.5537H267.315V31.7372H37.6223V24.0047H267.315H274.563V62.3772H267.315V62.2862ZM58.1125 70.0145V65.1713H274.563V70.0145H160.191V83.24H274.563V88.0831H58.1125V83.24V70.0145ZM258.916 140.985V172.279H119.583H49.5438V164.456H106.544V140.985H49.5438V133.162H258.916V140.985Z" fill="#7B61FF"/>
</g>
</svg>
