<svg width="353" height="353" viewBox="0 0 353 353" fill="none" xmlns="http://www.w3.org/2000/svg">
<path d="M284.079 208.219L239.987 201.058L250.434 173.075C252.744 166.882 249.725 164.067 243.715 166.813L191.501 190.684L169.704 160.615C166.573 156.299 162.644 156.907 160.965 161.968L149.284 197.228L92.2951 190.266C85.736 189.466 83.71 193.063 87.7843 198.267L106.211 221.772L66.3432 241.935C58.8449 245.725 59.496 249.929 67.7903 251.28L111.882 258.441L101.435 286.424C99.1256 292.617 102.144 295.432 108.154 292.686L160.368 268.815L182.167 298.891C185.297 303.206 189.227 302.598 190.905 297.537L202.587 262.277L259.575 269.239C266.134 270.039 268.16 266.443 264.086 261.238L245.665 237.726L285.526 217.564C293.024 213.774 292.373 209.57 284.079 208.219Z" fill="#171717"/>
<mask id="mask0" mask-type="alpha" maskUnits="userSpaceOnUse" x="0" y="75" width="259" height="248">
<path d="M129.189 295.884L202.032 322.5L234.874 309.893L259 274.405L254.019 231.913L219.776 198.448L194.406 75.4854H18.3666L0 92.6067L54.4772 220.55L129.189 295.884Z" fill="#C4C4C4"/>
</mask>
<g mask="url(#mask0)">
<path fill-rule="evenodd" clip-rule="evenodd" d="M-199.996 277.355H-153.245C-152.557 277.355 -151.999 276.798 -151.999 276.11C-151.999 275.422 -152.557 274.865 -153.245 274.865H-208.422H-232.092L-325.693 532.529C-325.928 533.176 -326.642 533.509 -327.288 533.274C-327.935 533.04 -328.268 532.325 -328.034 531.679L-234.742 274.865H-277.489C-279.656 274.865 -281.414 273.108 -281.414 270.94C-281.414 268.772 -279.656 267.015 -277.489 267.015H-195.594C-195.728 266.709 -195.742 266.348 -195.588 266.005L-182.193 236.264C-181.55 234.837 -180.559 233.595 -179.312 232.651L-176.791 230.745C-173.897 228.555 -170.184 227.76 -166.651 228.569V228.569L-148.301 183.906C-145.932 181.194 -143.472 180.369 -140.923 181.429C-140.882 181.446 -140.842 181.463 -140.803 181.481C-137.833 182.795 -136.49 186.267 -137.804 189.237C-145.777 207.262 -151.977 221.277 -156.402 231.282L-131.788 237.81C-131.123 237.986 -130.727 238.668 -130.904 239.333C-131.08 239.998 -131.762 240.394 -132.426 240.217L-157.422 233.588C-158.524 236.079 -159.501 238.287 -160.352 240.211C-158.414 240.949 -157.531 243.873 -157.191 249.031C-157.145 249.733 -157.689 250.334 -158.392 250.357C-165.368 250.589 -171.248 251.715 -176.033 253.724C-178.366 254.704 -180.277 256.327 -181.765 258.613C-180.243 258.657 -178.855 258.845 -177.41 259.282C-174.223 260.246 -171.917 262.238 -170.962 265.445L-148.049 265.636H3.48682L32.3057 356.765C33.537 360.659 32.8515 364.7 30.7781 367.87H75.2098C76.1284 365.004 78.2419 363.213 81.1346 362.338C82.4105 361.953 83.637 361.778 84.9679 361.728C83.6301 359.732 81.9276 358.311 79.8621 357.445C75.4919 355.612 70.1194 354.583 63.7443 354.37L48.6799 354.37C47.9922 354.37 47.4347 353.812 47.4344 353.125C47.4347 352.437 47.9922 351.879 48.6799 351.879L63.765 351.879L63.8063 351.88C70.4749 352.101 76.1481 353.187 80.8253 355.148C85.542 357.127 88.629 361.412 90.0976 367.87H102.836C101.481 361.3 98.8519 357.121 95.0038 355.225C90.5266 353.019 81.3991 349.423 67.6596 344.456C67.1928 344.287 66.8885 343.868 66.8433 343.405L58.9532 336.6C58.4325 336.151 58.3744 335.365 58.8235 334.844C59.2727 334.323 60.059 334.265 60.5797 334.714L68.2746 341.351C92.2076 347.02 105.408 350.948 108.468 353.404C113.08 357.107 116.079 362.276 117.457 368.861C117.485 368.994 117.491 369.126 117.477 369.253H139.26C141.428 369.253 143.186 371.01 143.186 373.178C143.186 375.346 141.428 377.103 139.26 377.103H35.4997L108.907 531.57C109.203 532.191 108.938 532.934 108.317 533.229C107.696 533.524 106.953 533.26 106.658 532.638L32.7424 377.103H-2.4191L54.328 487.394H37.2422L51.3746 531.726C51.6306 532.529 51.0312 533.349 50.1882 533.349H42.1418C42.1225 533.35 42.1032 533.35 42.084 533.349H-73.3163C-74.1896 533.349 -74.7917 532.474 -74.479 531.658L-72.5211 526.552C-70.4079 521.041 -65.7751 516.882 -60.0693 515.372L-38.8 509.746L-45.7701 487.394H-73.3166L-111.988 388.331C-111.566 388.04 -111.351 387.506 -111.491 386.983L-131.745 311.21C-133.06 306.289 -130.325 301.193 -125.496 299.57L-75.7148 282.84C-75.0629 282.621 -74.7121 281.915 -74.9312 281.263C-75.1502 280.611 -75.8562 280.261 -76.5081 280.48L-126.29 297.21C-132.364 299.251 -135.806 305.662 -134.151 311.853L-114.218 386.426L-124.343 487.029H-154.876V532.104C-154.876 532.792 -155.433 533.349 -156.121 533.349H-168.435C-169.123 533.349 -169.68 532.792 -169.68 532.104V504.645L-191.576 532.867C-191.812 533.171 -192.175 533.349 -192.56 533.349H-279.395C-280.268 533.349 -280.87 532.474 -280.557 531.658L-278.6 526.552C-276.486 521.041 -271.854 516.882 -266.148 515.372L-244.362 509.609L-239.589 487.029H-274.726L-233.814 369.515L-233.679 369.517L-199.996 277.355ZM97.394 209.931L59.2705 209.021L10.5981 100.726C8.6951 96.4921 10.5848 91.5171 14.8188 89.6142C15.8934 89.1312 17.0575 88.8796 18.2356 88.8755L182.591 88.3132C186.699 88.2992 190.215 91.2563 190.906 95.3056L209.86 206.482C232.907 212.268 249.972 233.123 249.972 257.964C249.972 287.277 226.209 311.04 196.896 311.04C167.582 311.04 143.819 287.277 143.819 257.964C143.819 247.137 147.061 237.067 152.627 228.672L150.076 231.146C149.172 232.022 148.143 232.76 147.023 233.336C141.719 236.059 137.089 236.775 133.164 235.393C129.857 234.228 127.786 232.262 127.059 229.59C124.677 231.627 121.741 232.284 118.358 231.517C114.681 230.684 112.37 228.566 111.55 225.309C108.81 227.077 105.992 227.48 103.183 226.45C97.9731 224.541 95.0593 218.993 96.4438 213.619L97.394 209.931ZM-376.947 218.309L-371.868 88.698C-371.691 84.1875 -367.983 80.6221 -363.469 80.6221H-175.665C-174.847 80.6221 -174.032 80.7416 -173.249 80.9769C-168.803 82.3115 -166.28 86.9976 -167.615 91.4436L-202.191 206.629C-204.009 212.685 -209.583 216.832 -215.906 216.832H-295.563C-295.598 216.832 -295.633 216.832 -295.668 216.832C-295.45 216.969 -295.234 217.115 -295.02 217.27C-294.418 217.707 -293.879 218.171 -293.406 218.663C-290.729 221.443 -290.388 225.726 -292.591 228.895L-307.816 250.803C-307.849 250.849 -307.884 250.893 -307.922 250.935L-312.1 255.481C-314.857 258.48 -318.853 259.904 -322.805 259.413L-330.225 265.868C-330.06 267.57 -329.976 269.294 -329.976 271.038C-329.976 300.352 -353.739 324.115 -383.053 324.115C-412.366 324.115 -436.129 300.352 -436.129 271.038C-436.129 241.725 -412.366 217.962 -383.053 217.962C-380.988 217.962 -378.95 218.08 -376.947 218.309ZM34.6284 487.394H-43.1614L-36.1395 509.912H3.0936C3.78131 509.912 4.33878 510.469 4.33878 511.157C4.33878 511.845 3.78131 512.402 3.0936 512.402H-38.7625C-38.8476 512.402 -38.9306 512.394 -39.0109 512.378L-59.4324 517.78C-64.3645 519.085 -68.3691 522.68 -70.1958 527.444L-71.5053 530.859H40.3646L30.1794 501.416C29.9546 500.766 30.2992 500.057 30.9491 499.832C31.599 499.607 32.3081 499.952 32.5329 500.602L42.9998 530.859H48.4843L34.6284 487.394ZM-157.366 487.029H-237.044L-242.084 510.874C-242.181 511.334 -242.53 511.7 -242.984 511.821L-265.511 517.78C-270.443 519.085 -274.448 522.68 -276.274 527.444L-277.584 530.859H-193.17L-169.419 500.246C-168.692 499.308 -167.19 499.823 -167.19 501.009V530.859H-157.366V487.029ZM-334.07 247.404L-334.239 247.55C-334.386 247.302 -334.535 247.055 -334.685 246.809L-334.07 247.404ZM86.3149 364.207C84.6537 364.178 83.2601 364.298 81.8553 364.722C79.987 365.287 78.6343 366.288 77.8823 367.87H87.5383C87.2057 366.528 86.7979 365.308 86.3149 364.207ZM105.375 367.87H114.669C113.289 362.554 110.704 358.393 106.909 355.346C104.948 353.773 97.0014 351.16 83.3182 347.623C89.1608 349.881 93.4203 351.669 96.1044 352.991C100.842 355.325 103.913 360.324 105.375 367.87ZM-167.613 230.911C-170.29 230.412 -173.087 231.065 -175.289 232.731L-177.809 234.637C-178.724 235.329 -179.451 236.241 -179.922 237.287L-192.523 265.265L-187.059 265.311C-185.472 258.253 -182.122 253.58 -176.997 251.428C-176.622 251.271 -176.242 251.119 -175.856 250.972L-167.613 230.911ZM-163.906 248.246C-162.573 248.101 -161.197 247.993 -159.777 247.922C-159.94 246.201 -160.182 244.856 -160.495 243.898C-160.667 243.37 -160.854 242.984 -161.038 242.743C-161.153 242.593 -161.227 242.539 -161.269 242.529C-161.303 242.522 -161.336 242.516 -161.37 242.512C-162.509 245.088 -163.355 246.999 -163.906 248.246ZM-173.612 265.423C-174.419 263.514 -175.964 262.321 -178.131 261.665C-179.697 261.192 -181.247 261.063 -183.101 261.1C-183.661 262.365 -184.13 263.775 -184.507 265.332L-173.612 265.423ZM-355.468 197.948C-350.375 202.978 -350.174 207.907 -355.086 212.075C-355.369 212.316 -355.729 212.408 -356.07 212.358L-355.046 225.944C-342.186 233.948 -332.999 247.301 -330.598 262.892L-324.467 257.558C-324.236 257.047 -323.679 256.741 -323.104 256.848C-319.748 257.474 -316.28 256.349 -313.934 253.796L-309.813 249.312L-294.635 227.474C-293.111 225.28 -293.347 222.315 -295.2 220.39C-295.569 220.007 -295.996 219.639 -296.482 219.287C-298.915 217.523 -301.569 217.314 -304.619 218.681L-315.748 233.449C-316.162 233.999 -316.942 234.108 -317.492 233.694C-318.041 233.281 -318.151 232.5 -317.737 231.951L-306.311 216.788C-305.455 213.956 -306.149 211.808 -308.445 210.078C-310.73 208.356 -312.944 208.17 -315.322 209.483C-315.337 209.491 -315.352 209.499 -315.367 209.507C-315.408 209.618 -315.466 209.725 -315.541 209.824L-326.971 224.992C-327.384 225.542 -328.165 225.651 -328.714 225.238C-329.264 224.824 -329.373 224.043 -328.959 223.494L-317.529 208.326C-317.411 208.168 -317.263 208.047 -317.098 207.964C-317.056 207.857 -316.998 207.75 -316.92 207.647L-300.661 185.942C-299.368 182.188 -299.816 179.659 -301.882 178.065C-304.116 176.341 -306.928 176.444 -310.544 178.528C-310.576 178.546 -310.605 178.571 -310.629 178.599L-340.021 214.276C-340.638 215.024 -341.834 214.812 -342.157 213.899C-343.338 210.551 -344.205 208.066 -344.759 206.44C-344.857 206.154 -344.955 205.852 -345.065 205.506C-345.138 205.274 -345.203 205.066 -345.322 204.684C-346.307 201.503 -346.825 200.298 -347.703 199.518C-348.873 198.478 -350.141 197.718 -351.511 197.232C-352.912 196.735 -354.405 197.056 -355.468 197.948ZM-356.806 200.133C-356.897 200.527 -356.929 200.933 -356.9 201.339L-356.263 209.792C-353.124 206.873 -353.248 203.826 -356.806 200.133ZM-309.861 249.381L-309.756 249.249L-309.813 249.312L-309.861 249.381ZM-304.903 184.75C-304.421 184.26 -303.632 184.254 -303.142 184.736C-302.652 185.218 -302.646 186.007 -303.128 186.497C-304.868 188.265 -307.051 188.247 -309.204 186.571C-311.376 184.879 -311.906 182.801 -310.47 180.833C-310.065 180.277 -309.286 180.155 -308.73 180.561C-308.175 180.966 -308.053 181.745 -308.458 182.301C-309.021 183.073 -308.868 183.676 -307.674 184.606C-306.462 185.55 -305.696 185.556 -304.903 184.75ZM-383.053 321.624C-355.115 321.624 -332.467 298.976 -332.467 271.038C-332.467 243.101 -355.115 220.452 -383.053 220.452C-410.99 220.452 -433.639 243.101 -433.639 271.038C-433.639 298.976 -410.99 321.624 -383.053 321.624ZM-365.808 267.552C-367.256 267.991 -368.96 267.655 -370.838 266.621C-371.44 266.289 -371.66 265.532 -371.328 264.93C-370.996 264.327 -370.239 264.108 -369.637 264.44C-368.1 265.286 -367.008 265.44 -366.223 265.036L-366.45 263.656C-366.531 263.161 -366.308 262.666 -365.883 262.399L-354.373 255.171L-363.238 252.783C-362.684 254.868 -363.641 257.128 -365.643 258.143C-367.492 259.079 -369.48 259.678 -371.601 259.938C-373.723 260.199 -375.797 260.099 -377.817 259.638C-379.171 259.329 -380.316 258.434 -380.943 257.195C-382.109 254.895 -381.188 252.085 -378.888 250.92C-377.039 249.983 -375.051 249.385 -372.929 249.124C-371.673 248.97 -370.433 248.942 -369.212 249.041C-370.18 246.642 -371.758 244.607 -373.722 243.083L-390.545 250.801L-405.047 253.373C-405.126 253.887 -405.167 254.411 -405.167 254.942V290.528C-396.964 292.42 -389.195 293.042 -381.858 292.4C-374.602 291.765 -368.18 290.004 -362.584 287.12L-365.808 267.552ZM-370.725 251.474C-371.352 251.477 -371.986 251.517 -372.626 251.596C-374.464 251.822 -376.174 252.337 -377.763 253.141C-378.836 253.685 -379.266 254.996 -378.722 256.07C-378.429 256.648 -377.894 257.066 -377.263 257.21C-375.527 257.606 -373.743 257.692 -371.905 257.467C-370.067 257.241 -368.357 256.726 -366.768 255.921C-365.695 255.377 -365.265 254.066 -365.809 252.993C-365.916 252.782 -366.054 252.593 -366.217 252.431C-366.196 252.534 -366.181 252.64 -366.172 252.748C-366.044 254.204 -367.052 255.481 -368.422 255.601C-369.792 255.721 -371.006 254.638 -371.133 253.182C-371.189 252.553 -371.032 251.957 -370.725 251.474ZM-366.462 249.335L-350.973 253.508C-349.924 253.791 -349.715 255.187 -350.635 255.765L-363.858 264.068L-359.981 287.6C-359.894 288.124 -360.149 288.644 -360.616 288.897C-366.706 292.195 -373.717 294.188 -381.641 294.881C-389.54 295.572 -397.896 294.852 -406.704 292.724C-407.263 292.589 -407.657 292.089 -407.657 291.514V254.942C-407.657 249.72 -404.476 245.024 -399.627 243.088L-388.811 238.77C-387.678 238.318 -386.5 237.99 -385.296 237.791C-376.967 236.419 -368.968 241.41 -366.462 249.335ZM-381.816 272.605C-386.521 275.107 -392.365 273.321 -394.867 268.615C-397.369 263.909 -395.583 258.066 -390.877 255.564C-390.269 255.241 -389.516 255.472 -389.193 256.079C-388.87 256.686 -389.1 257.44 -389.708 257.763C-393.199 259.619 -394.524 263.955 -392.668 267.446C-390.812 270.937 -386.476 272.263 -382.985 270.406C-382.378 270.084 -381.624 270.314 -381.301 270.921C-380.978 271.529 -381.208 272.283 -381.816 272.605ZM196.896 308.55C224.834 308.55 247.482 285.902 247.482 257.964C247.482 230.026 224.834 207.378 196.896 207.378C168.958 207.378 146.31 230.026 146.31 257.964C146.31 285.902 168.958 308.55 196.896 308.55ZM188.487 239.706C189.079 240.293 189.368 241.172 189.179 242.064C188.885 243.443 187.557 244.329 186.212 244.043C185.108 243.809 184.335 242.858 184.256 241.762C183.804 242.119 183.365 242.518 182.94 242.959C185.4 244.64 187.932 245.339 190.574 245.089C192.288 244.927 193.863 244.382 195.308 243.445C194.649 242.342 194.042 241.112 193.487 239.754C192.303 239.457 191.099 239.368 189.871 239.484C189.399 239.529 188.938 239.603 188.487 239.706ZM215.667 262.753L214.467 276.169C214.415 276.746 213.972 277.211 213.398 277.291C206.726 278.216 199.511 277.851 191.756 276.203C183.967 274.547 178.123 272.208 174.215 269.147C173.858 268.867 173.682 268.416 173.754 267.968L175.682 256.045C175.675 255.872 175.704 255.704 175.762 255.55L176.396 251.63L167.117 249.658C166.228 249.469 165.834 248.421 166.38 247.693L175.614 235.366C181.727 227.204 192.288 223.729 202.054 226.667L209.706 228.969C214.798 230.501 218.113 235.402 217.639 240.699L216.986 248.006L240.134 255.135C240.263 255.175 240.39 255.223 240.513 255.28C242.076 255.996 242.763 257.843 242.048 259.406L236.561 271.389C236.51 271.5 236.454 271.607 236.391 271.711C235.497 273.18 233.582 273.646 232.113 272.753L215.667 262.753ZM190.531 228.602C185.477 229.675 180.846 232.534 177.607 236.859L169.541 247.627L178.074 249.441C178.723 249.579 179.15 250.202 179.044 250.858L178.775 252.519C180.491 252.789 181.829 253.026 182.792 253.23C183.402 253.36 183.872 253.479 184.215 253.593C184.428 253.663 184.604 253.735 184.759 253.821C185.143 254.034 185.42 254.299 185.506 254.827C185.606 255.449 185.315 255.875 184.913 256.144C184.762 256.244 184.608 256.312 184.429 256.371C184.203 256.446 183.922 256.509 183.568 256.571C183.001 256.669 182.236 256.765 181.279 256.861C181.05 256.884 180.812 256.908 180.562 256.931C180.023 256.981 178.868 257.078 178.027 257.148L176.332 267.624C179.902 270.209 185.218 272.267 192.274 273.767C199.376 275.276 205.975 275.669 212.076 274.95L214.279 250.31C213.137 248.269 211.115 246.697 208.597 246.162C205.466 245.497 202.386 246.606 200.469 248.795C198.924 247.705 197.679 246.602 196.736 245.486C194.943 246.667 192.963 247.365 190.808 247.568C187.117 247.918 183.606 246.753 180.33 244.12C179.791 243.687 179.708 242.898 180.145 242.362C182.756 239.16 185.938 237.355 189.637 237.005C190.605 236.914 191.56 236.926 192.503 237.042C191.706 234.568 191.049 231.755 190.531 228.602ZM126.957 226.031C126.961 225.941 126.975 225.851 127 225.761L134.831 196.936C134.765 196.804 134.722 196.654 134.708 196.491C134.381 192.799 132.779 190.594 129.808 189.641C126.634 188.622 124.157 189.579 122.085 192.678C121.95 192.879 121.778 193.023 121.587 193.114L113.928 222.391C113.884 222.561 113.806 222.713 113.705 222.843C113.712 222.89 113.718 222.938 113.72 222.988C113.892 226.378 115.546 228.326 118.909 229.089C122.287 229.854 124.895 228.867 126.957 226.031ZM129.278 226.714C129.277 226.726 129.277 226.739 129.276 226.751C129.07 229.811 130.555 231.833 133.992 233.044C137.186 234.169 141.139 233.558 145.885 231.12C146.786 230.657 147.615 230.063 148.342 229.358L154.695 223.199L148.743 221.169C148.184 220.978 147.836 220.42 147.91 219.834L150.098 202.486C150.078 197.757 148.541 195.154 145.486 194.315C142.713 193.554 140.086 194.291 137.496 196.624L129.403 226.414C129.374 226.521 129.331 226.622 129.278 226.714ZM111.491 222.255C111.467 222.095 111.475 221.927 111.519 221.761L119.446 191.46C119.472 191.36 119.509 191.266 119.556 191.18C118.614 188.07 116.706 186.122 113.764 185.219C112.57 184.853 111.464 184.705 110.443 184.769C108.022 184.922 105.974 186.615 105.368 188.964L98.8554 214.241C97.7903 218.375 100.032 222.643 104.04 224.112C106.48 225.007 108.917 224.426 111.491 222.255ZM108.095 193.954C107.866 195.441 108.561 196.309 110.605 196.839C112.639 197.366 113.57 196.994 113.971 195.724C114.179 195.069 114.878 194.705 115.534 194.912C116.19 195.12 116.553 195.819 116.346 196.475C115.499 199.156 113.185 200.081 109.98 199.249C106.784 198.421 105.193 196.435 105.634 193.574C105.739 192.895 106.375 192.429 107.054 192.533C107.734 192.638 108.2 193.274 108.095 193.954ZM123.969 198.951C123.74 200.439 124.435 201.306 126.479 201.836C128.513 202.364 129.444 201.992 129.845 200.722C130.052 200.067 130.752 199.703 131.408 199.91C132.064 200.117 132.427 200.817 132.22 201.473C131.372 204.154 129.059 205.078 125.854 204.247C122.657 203.418 121.067 201.432 121.508 198.572C121.613 197.892 122.249 197.426 122.928 197.531C123.608 197.636 124.074 198.272 123.969 198.951ZM139.542 203.122C139.313 204.609 140.008 205.477 142.051 206.007C144.086 206.534 145.017 206.163 145.418 204.893C145.625 204.237 146.325 203.873 146.981 204.081C147.636 204.288 148 204.987 147.793 205.643C146.945 208.324 144.632 209.249 141.426 208.417C138.23 207.589 136.64 205.603 137.081 202.743C137.185 202.063 137.821 201.597 138.501 201.702C139.181 201.806 139.647 202.442 139.542 203.122ZM-50.3359 122.872C-55.8391 119.883 -59.9416 117.645 -62.6434 116.157C-65.2021 114.747 -68.2873 113.029 -71.8989 111.003C-77.9246 116.43 -80.2432 124.311 -78.8385 134.787L-71.9029 133.935C-71.2203 133.852 -70.5991 134.337 -70.5153 135.02C-70.4314 135.702 -70.9168 136.323 -71.5994 136.407L-79.7429 137.407C-80.4089 137.489 -81.02 137.028 -81.1246 136.365C-82.5044 127.622 -81.5023 120.367 -78.1111 114.663L-81.9721 118.138C-82.9037 120.155 -83.4053 122.405 -83.366 124.764L-82.8953 153.059C-76.9876 155.181 -70.4334 155.802 -63.2182 154.916C-56.0149 154.032 -49.7923 152.236 -44.5455 149.536L-46.8178 139.071C-46.9879 138.289 -46.385 137.551 -45.5839 137.562C-45.2582 137.567 -44.9307 137.549 -44.6027 137.509C-40.6779 137.027 -37.8869 133.454 -38.3688 129.529C-38.8507 125.605 -42.4231 122.814 -46.3479 123.296C-47.1189 123.39 -47.8567 123.605 -48.5428 123.93C-49.2673 124.273 -50.1227 123.852 -50.2928 123.069L-50.3125 122.978C-50.3202 122.943 -50.328 122.907 -50.3359 122.872ZM-64.3222 106.963C-56.7769 108.129 -50.3874 113.58 -48.2078 121.145C-47.7023 120.997 -47.1822 120.889 -46.6514 120.824C-41.3614 120.174 -36.5465 123.936 -35.897 129.226C-35.2565 134.442 -38.9051 139.196 -44.0785 139.951L-41.9114 149.93C-41.794 150.471 -42.0475 151.024 -42.5336 151.289C-48.2397 154.39 -55.0353 156.421 -62.9147 157.388C-70.8422 158.362 -78.0674 157.599 -84.574 155.091C-85.0474 154.909 -85.3627 154.457 -85.3712 153.95L-85.8561 124.806C-85.9695 117.986 -82.1996 111.951 -76.5219 108.902C-80.236 107.648 -82.5457 103.812 -81.7845 99.8547C-81.3741 97.7209 -80.1277 95.9064 -78.406 94.7486C-80.7486 93.3714 -82.1144 90.6447 -81.6274 87.8078C-81.1331 84.9287 -78.8376 82.6974 -75.9457 82.285L-71.07 81.5898C-67.5709 81.0909 -64.3298 83.523 -63.8308 87.0221C-63.8298 87.0294 -63.8288 87.0367 -63.8278 87.0441C-63.5036 89.3751 -64.4071 91.6037 -66.0558 93.0614C-63.3443 93.9395 -61.2448 96.3185 -60.8688 99.3336C-60.8679 99.3415 -60.8669 99.3494 -60.8659 99.3574C-60.4925 102.432 -61.9125 105.325 -64.3222 106.963ZM-70.5562 123.729C-70.3359 123.647 -70.1006 123.597 -69.8551 123.584C-68.4816 123.512 -67.3062 124.637 -67.2297 126.096C-67.1941 126.776 -67.4029 127.408 -67.7749 127.897C-66.9196 127.856 -66.0739 127.707 -65.2361 127.451C-62.6859 126.672 -60.631 125.026 -59.0475 122.467C-61.7916 121.23 -64.4151 121.015 -66.9654 121.795C-68.2961 122.202 -69.4919 122.844 -70.5562 123.729ZM-72.0168 125.194C-72.4198 125.677 -72.7987 126.205 -73.154 126.78C-72.7714 126.952 -72.3912 127.104 -72.0132 127.237C-72.1209 126.965 -72.1873 126.668 -72.2036 126.357C-72.2252 125.945 -72.1569 125.55 -72.0168 125.194ZM-64.508 129.833C-68.076 130.924 -71.7562 130.433 -75.4793 128.401C-76.0736 128.077 -76.2998 127.337 -75.9885 126.736C-74.0383 122.969 -71.2615 120.504 -67.6935 119.413C-64.1255 118.323 -60.4453 118.813 -56.7221 120.845C-56.1278 121.17 -55.9016 121.909 -56.213 122.511C-58.1632 126.278 -60.94 128.742 -64.508 129.833ZM-75.9774 140.724C-76.6277 140.501 -76.9738 139.792 -76.7504 139.142C-76.5269 138.492 -75.8185 138.145 -75.1681 138.369C-73.6254 138.899 -71.8288 138.621 -69.7201 137.457C-69.118 137.125 -68.3605 137.344 -68.0282 137.946C-67.6959 138.548 -67.9146 139.305 -68.5168 139.638C-71.1979 141.117 -73.7043 141.505 -75.9774 140.724ZM38.4077 108.9L69.1582 174.316C69.3622 174.75 69.7975 175.029 70.2771 175.032L183.768 175.757C184.553 175.762 185.147 175.047 184.998 174.276L172.195 107.97C172.082 107.383 171.569 106.96 170.971 106.96L39.533 107.125C38.6212 107.126 38.0197 108.075 38.4077 108.9ZM169.945 109.452L182.265 173.257L71.078 172.546L41.4946 109.613L169.945 109.452ZM115.776 161.178C119.251 161.178 123.72 159.801 126.483 158.112C131.716 154.913 133.987 149.55 133.987 142.967C133.987 138.877 132.993 134.592 130.716 131.552C127.395 127.117 121.743 124.756 115.776 124.756C109.849 124.756 104.737 127.915 101.412 132.3C99.0941 135.355 97.5649 138.837 97.5649 142.967C97.5649 148.45 100.446 153.211 104.28 156.55C107.478 159.336 111.201 161.178 115.776 161.178ZM-343.673 117.724C-345.565 117.724 -347.098 119.257 -347.098 121.148C-347.098 123.04 -345.565 124.573 -343.673 124.573H-215.107C-213.216 124.573 -211.683 123.04 -211.683 121.148C-211.683 119.257 -213.216 117.724 -215.107 117.724H-343.673ZM-343.051 141.383C-344.942 141.383 -346.475 142.916 -346.475 144.807C-346.475 146.698 -344.942 148.231 -343.051 148.231H-293.404C-291.513 148.231 -289.98 146.698 -289.98 144.807C-289.98 142.916 -291.513 141.383 -293.404 141.383H-343.051ZM-276.744 141.383C-278.635 141.383 -280.169 142.916 -280.169 144.807C-280.169 146.698 -278.635 148.231 -276.744 148.231H-252.225C-250.334 148.231 -248.801 146.698 -248.801 144.807C-248.801 142.916 -250.334 141.383 -252.225 141.383H-276.744ZM-236.898 141.383C-238.789 141.383 -240.322 142.916 -240.322 144.807C-240.322 146.698 -238.789 148.231 -236.898 148.231H-218.573C-216.682 148.231 -215.149 146.698 -215.149 144.807C-215.149 142.916 -216.682 141.383 -218.573 141.383H-236.898Z" fill="white"/>
<path fill-rule="evenodd" clip-rule="evenodd" d="M-110.836 265.853L-115.519 254.605C-118.653 247.078 -124.583 241.146 -131.955 237.975L-122.983 169.09C-122.036 161.818 -115.413 156.661 -108.13 157.527L-86.8511 160.055L-85.6115 153.207L-42.7019 146.936L-30.4286 166.759L-4.21027 169.874C0.690887 170.456 4.96811 173.47 7.1651 177.89L85.5895 335.658H25.379L3.0954 265.769L-110.836 265.853ZM-266.314 171.268H-232.071C-227.343 171.268 -223.511 175.1 -223.511 179.828C-223.511 184.556 -227.343 188.389 -232.071 188.389H-266.314C-271.042 188.389 -274.875 184.556 -274.875 179.828C-274.875 175.1 -271.042 171.268 -266.314 171.268ZM111.135 136.1C111.135 135.942 116.012 137.837 125.766 141.783L113.746 151.967C112.005 141.546 111.135 136.257 111.135 136.1ZM3.67618 264.071L-9.68051 213.828C-9.85721 213.163 -10.5392 212.767 -11.2038 212.944C-11.8685 213.121 -12.264 213.803 -12.0873 214.467L1.26941 264.711C1.44608 265.376 2.12811 265.771 2.79272 265.595C3.45734 265.418 3.85287 264.736 3.67618 264.071ZM-387.338 287.719C-386.847 287.726 -386.355 287.722 -385.864 287.705L-354.331 286.653C-353.901 286.639 -353.474 286.736 -353.093 286.936C-351.875 287.574 -351.404 289.079 -352.042 290.297L-356.456 298.727L-346.401 305.896C-349.247 308.878 -351.868 311.16 -354.263 312.743C-355.791 313.752 -357.24 314.561 -358.243 315.153C-363.01 317.968 -367.847 319.414 -371.299 320.266C-375.337 321.262 -379.478 321.66 -384.105 321.66C-384.954 321.66 -387.524 321.499 -388.349 321.412C-394.804 320.735 -402.205 318.916 -410.435 313.656C-411.947 312.689 -414.766 310.585 -417.336 308.246C-417.805 307.819 -418.521 307.112 -419.484 306.126L-409.449 298.727L-412.668 290.827C-412.794 290.517 -412.857 290.186 -412.852 289.852C-412.833 288.477 -411.702 287.378 -410.327 287.397L-387.338 287.719ZM192.735 269.488L222.567 270.822C223.941 270.883 225.005 272.047 224.944 273.421C224.931 273.718 224.864 274.01 224.748 274.284L222.74 279.004C220.673 283.864 221.722 289.49 225.401 293.28L229.052 297.04C219.907 304.783 209.189 308.654 196.898 308.654C192.55 308.654 187.332 307.882 182.671 306.545C180.139 305.819 177.653 304.789 175.624 303.86C173.331 302.809 170.719 301.379 167.889 299.422C167.279 299.001 166.354 298.297 165.113 297.31C168.457 292.347 169.599 286.222 168.268 280.387L165.71 269.172C165.404 267.831 166.243 266.496 167.584 266.19C167.882 266.122 168.19 266.109 168.492 266.153L189.693 269.202C190.702 269.347 191.717 269.443 192.735 269.488Z" fill="#7B61FF"/>
</g>
</svg>
