<svg width="679" height="354" fill="none" xmlns="http://www.w3.org/2000/svg"><mask id="a" maskUnits="userSpaceOnUse" x="-120" y="-104" width="1320" height="956"><path d="M974.966 27.614l123.174 119.409L1200 160.821l-52.71 690.976H954.24V666.581l-44.415-60.5-65.141-211.22L697.82 252.102 588.264 111.466l-62.773-18.575-68.102 159.211L360.5 310.5 242 242 90.5 193.5-120-12.188 253.674-104l425.788 19.105 295.504 112.51z" fill="#C4C4C4"/></mask><g mask="url(#a)"><path fill-rule="evenodd" clip-rule="evenodd" d="M546.29 537.767l-40.637 163.281-6.75 39.992 311.817 2.318a7.374 7.374 0 001.563-.155l159.973 1.961c2.197.027 2.893-2.643.91-3.49l-104.043-44.453-27.227-54.88h20.016c1.131 0 2.048-.822 2.048-1.835V458.419c0-1.013-.917-1.835-2.048-1.835H747.736V353.845c0-1.013-.917-1.835-2.048-1.835H542.424c-1.132 0-2.049.822-2.049 1.835v51.692l-124.543-29.099c-.386-.09-.774-.168-1.166-.233-9.173-1.533-17.997 3.886-19.708 12.103l-62.174 298.575c-.075.36-.112.726-.112 1.093 0 3.293 2.98 5.963 6.656 5.963h5.549l-4.048 10.453-76.591 15.733a32.582 32.582 0 00-6.659 2.129l-38.623 17.142c-1.94.861-1.255 3.479.91 3.479h272.227c1.223 0 2.173-.953 2.035-2.042l-5.94-46.894h15.038l38.873-156.195c.106.015.214.023.325.023h3.866zm291.123 104.574l13.417 27.041a2.243 2.243 0 00-1.801-.272c-13.529 3.679-31.431-.298-53.673-12.11a2.2 2.2 0 00-.599-.213l-4.101-14.446h46.757zm-365.877 51.598c-33.689 5.246-55.779 20.353-66.002 45.267h-83.758l21.857-31.793c.316-.215.56-.512.694-.859l4.886-12.615h122.323zm324.602-32.288c21.838 11.128 39.856 14.838 54.081 10.97.811-.22 1.358-.852 1.442-1.562l13.997 28.212 17.347 41.129-66.041-.809a5.36 5.36 0 00.262-3.665l-21.088-74.275zm-458.241 47.108l-20.932 30.447h-88.353l30.785-13.664a28.147 28.147 0 015.757-1.84l72.743-14.943zm146.404-12.969l5.499 43.416h-79.888c11.002-25.373 35.295-39.67 73.223-42.96.45-.039.852-.206 1.166-.456zm403.104 44.664a1.606 1.606 0 00-.025-.062l-16.106-38.187 91.691 39.175-75.56-.926zM743.64 456.584h-84.992c-1.131 0-2.048.822-2.048 1.835v75.678H544.471V355.68H743.64v100.904zm4.096 3.67h112.128v178.417H660.696V537.767h84.992c1.131 0 2.048-.822 2.048-1.835v-75.678zM593.727 228.138a40.723 40.723 0 00-7.379.702c-2.78.529-5.007 2.389-5.79 4.836-1.167 3.653 1.192 7.462 5.269 8.509 2.856.732 5.836 1.147 8.937 1.244 3.101.097 6.106-.13 9.011-.682 2.78-.528 5.008-2.388 5.79-4.836 1.127-3.526-1.032-7.199-4.852-8.39l12.314 1.551-13.37 45.933 41.836 6.475c-5.642-33.151-9.333-52.701-11.073-58.651-1.504-5.138-9.055-9.396-16.355-12.219l-6.279-27.237c-.343-1.489-1.968-2.446-3.63-2.139-.903.167-1.675.69-2.102 1.422l-14.15 24.295c-.311.04-.618.083-.923.128-12.31.982-22.714 9.199-25.028 20.434l-.821 3.985a166.628 166.628 0 00-8.852 10.752c-.867 1.147-.057 2.708 1.481 2.853l4.482.424-4.603 22.349 4.039.612 4.65-22.575 17.4 1.644c1.125.107 2.133-.624 2.251-1.632.119-1.007-.697-1.91-1.821-2.017l-22.537-2.13c5.017-6.378 10.404-12.261 16.16-17.648l15.945 2.008zm-22.081-2.781l1.17.147c-.711.691-1.417 1.388-2.118 2.094.271-.769.588-1.516.948-2.241zm19.953 6.523a38.091 38.091 0 013.617-.054c2.772.087 5.422.455 7.952 1.104 1.903.489 3.004 2.266 2.459 3.971-.365 1.142-1.404 2.01-2.702 2.257a36.677 36.677 0 01-8.018.604c-2.772-.087-5.421-.456-7.952-1.105-1.903-.488-3.004-2.266-2.459-3.97.104-.326.264-.63.468-.904l-.011.059c-.352 1.993 1.061 3.851 3.156 4.148 2.095.297 4.08-1.078 4.432-3.072a3.469 3.469 0 00-.942-3.038zm-16.149 24.092c3.213 1.726 7.155 1.924 11.707.686 1.082-.295 1.693-1.319 1.365-2.289-.329-.969-1.473-1.517-2.555-1.222-3.523.958-6.286.819-8.41-.322-.97-.521-2.228-.239-2.809.63-.582.869-.268 1.996.702 2.517zm-129.125-89.649h15.202c3.111 0 5.632-2.259 5.632-5.045v-8.715c0-2.786-2.521-5.045-5.632-5.045h-27.508l26.313-31.535a1.68 1.68 0 00.255-1.795L411.245 6.458l175.793 43.654c-.047.364-.07.733-.07 1.107 0 5.32 4.813 9.632 10.752 9.632 1.744 0 3.391-.372 4.848-1.033l104.171 154.446c-1.574 1.675-2.523 3.838-2.523 6.2 0 5.319 4.814 9.632 10.752 9.632 5.917 0 10.717-4.282 10.752-9.575l106.578-54.844c1.868 2.242 4.801 3.731 8.127 3.866l39.396 118.858c-3.066 1.696-5.109 4.734-5.109 8.2 0 5.319 4.814 9.632 10.752 9.632 1.694 0 3.296-.351 4.722-.976l20.482 21.72-25.273 16.768 42.671 38.525c12.164 10.982 29.689 15.73 46.608 12.629 26.676-4.889 39.616 2.758 38.836 22.942-.3 7.566-1.9 14.192-4.12 20.3-21.279-4.357-32.068-5.443-32.367-3.257-.306 2.229 7.667 9.452 23.917 21.67-3.302 6.566-6.434 13.037-8.211 20.139-20.292 2.014-30.19 4.062-29.695 6.146.505 2.129 10.07 6.428 28.694 12.897.864 6.094 2.89 12.799 6.494 20.372 13.358 28.064 16.678 54.585 9.958 79.564-.13.492.21.988.76 1.106.43.094.88-.074 1.11-.416 12.3-18.203 19.55-32.146 21.75-41.828 4.22-18.605-7.19-38.33-10.19-56.649 17.74-.501 26.47-1.738 26.2-3.71-.28-2.094-8.85-6.882-25.7-14.365a98.409 98.409 0 014.54-15.941c20.22 1.789 30.33 1.619 30.33-.511 0-2.057-7.44-7.508-22.33-16.353 14.43-25.641 30.93-39.766 4.14-71.709-23.04-27.478-52.384-11.034-65.953-28.819-9.046-11.857-18.655-25.73-28.828-41.62l-30.042 19.931-20.508-21.746c1.714-1.707 2.757-3.965 2.757-6.441 0-5.32-4.814-9.632-10.752-9.632-.613 0-1.215.046-1.8.135L844.518 169c4.169-1.325 7.154-4.89 7.154-9.079 0-5.32-4.814-9.632-10.752-9.632-5.938 0-10.752 4.312-10.752 9.632 0 .843.121 1.662.348 2.441l-105.638 54.36c-1.63-3.461-5.453-5.89-9.91-5.89-1.809 0-3.514.4-5.01 1.107L605.823 57.549c1.65-1.692 2.649-3.907 2.649-6.33 0-5.32-4.814-9.632-10.752-9.632-4.076 0-7.621 2.031-9.445 5.025L409.298 2.167c-.145-.56-.581-1.049-1.219-1.283a2.25 2.25 0 00-.799-.137 2.257 2.257 0 00-.802.138 1.98 1.98 0 00-1.03.835 2.259 2.259 0 00-1.34.108L278.594 52.624c-1.97-1.987-4.843-3.24-8.043-3.24-5.938 0-10.752 4.313-10.752 9.632 0 3.333 1.889 6.27 4.76 7.999l-45.908 123.252a12.206 12.206 0 00-1.348-.075c-4.879 0-8.999 2.911-10.313 6.9l-99.481 2.733c-1.131.031-2.019.877-1.985 1.89.012.34.126.656.316.924l2.157 30.91-93.958-73.628v43.452l35.517 34.554h-29.88l43.187 50.877-30.489 8.486 82.957 63.056v114.153l155.134 33.22a7.948 7.948 0 001.666.176c3.959 0 7.168-2.875 7.168-6.421v-2.464a2.281 2.281 0 01-.811-.124l-127.213-44.262c-.761-.265-1.274-.911-1.305-1.642l-3.47-83.548c-.05-1.213 1.204-2.135 2.522-1.853l174.119 37.205c.448.095.825.316 1.099.61l14.537-22.788c3.102-13.642 4.115-20.933 3.038-21.872-2.268-1.978-12.706-4.083-31.314-6.316-36.072-13.459-56.409-23.582-61.011-30.371-3.071-4.529 17.613-31.689 0-45.551-17.565-13.825-25.445-15.112-57.725-33.021-15.979-8.866-43.433-22.877-82.361-42.032l97.198-2.671c.533 4.873 5.12 8.682 10.701 8.682 5.938 0 10.752-4.312 10.752-9.632 0-3.615-2.223-6.765-5.512-8.412l45.801-122.967a12.03 12.03 0 002.207.203c5.938 0 10.752-4.312 10.752-9.632a8.72 8.72 0 00-.613-3.214L403.479 6.108 354.093 114.19a1.678 1.678 0 00.253 1.791l26.213 31.538h-27.064c-3.11 0-5.632 2.259-5.632 5.045v8.715c0 2.786 2.522 5.045 5.632 5.045h18.633c-10.246 4.194-17.28 13.536-17.06 24.27l.004.156.896 33.008c.251 9.269 8.183 16.912 18.483 17.813l14.011 1.226c.092.008.185.01.277.007l3.924-.135v8.208c0 7.473 6.763 13.531 15.104 13.531 8.342 0 15.104-6.058 15.104-13.531v-9.246l16.474-.567c4.474-.153 8.562-2.312 10.88-5.744 1.675-2.482 2.466-5.446 2.395-8.854-.111-5.362-2.594-9.716-7.329-12.954 5.198-2.516 7.811-6.634 7.617-12.161-.181-5.179-2.901-9.155-7.973-11.801 5.007-3.302 7.62-7.558 7.685-12.682.057-4.437-2.098-7.968-6.295-10.544zm-40.921-65.125c-7.734.715-13.765 6.57-13.765 13.686 0 7.6 6.877 13.76 15.36 13.76s15.36-6.16 15.36-13.76c0-6.836-5.565-12.508-12.859-13.578l-.416-89.9 47.273 103.213-27.451 32.899h-43.24l-27.344-32.898 46.671-102.139.411 88.717zm-83.068 307.183a2.312 2.312 0 01-.145-.026L150.693 371.71l3.32 79.93 125.286 43.591v-3.727l-.174-.075-.838-23.735c-.054-1.519-1.472-2.711-3.168-2.663-.897.025-1.736.401-2.298 1.027l-14.535 16.218-.052.187-14.724-6.319-.818-23.169c-.054-1.519-1.472-2.712-3.168-2.664-.897.026-1.737.401-2.298 1.028l-14.311 15.967-15-6.438-.81-22.919c-.053-1.519-1.471-2.712-3.167-2.664-.897.026-1.737.401-2.299 1.028l-14.151 15.789-21.514-9.233-4.628-59.344 44.553 8.33c.521 2.009.919 4.768 1.192 8.275.327 4.189.443 9.002.348 14.438-.01.554.167 1.098.508 1.56.936 1.269 2.841 1.617 4.257.78l30.656-18.143.583.109c.193 1.775.289 3.94.289 6.497 0 4.175-.257 8.953-.769 14.332a2.523 2.523 0 00.408 1.622c.855 1.312 2.737 1.755 4.202.989l31.927-16.699.451.084c.41 2.066.615 4.965.615 8.698 0 4.175-.256 8.953-.769 14.332a2.523 2.523 0 00.408 1.622c.855 1.313 2.737 1.755 4.202.989l34.941-18.275 2.988-4.684zM208.599 303.073l-3.703-33.326 37.682 22.877-6.39 30.282-27.589-19.833zm103.745 61.015c-1.114-.174-1.859-1.125-1.663-2.123.195-.998 1.256-1.666 2.37-1.491l19.936 3.129c1.221.192 1.974 1.304 1.599 2.362l-5.043 14.237c-.342.966-1.493 1.501-2.572 1.194-1.078-.306-1.674-1.337-1.332-2.303l4.334-12.238-17.629-2.767zm-77.908-33.692c.891.624 1.049 1.777.353 2.575-.696.799-1.983.941-2.875.317l-33.248-23.265a1.808 1.808 0 01-.767-1.188l-7.565-47.78c-.158-1.004.621-1.932 1.741-2.075 1.119-.142 2.156.556 2.315 1.559l7.449 47.048 32.597 22.809zm3.397-36.453c.117-1.007-.7-1.91-1.825-2.015-1.125-.105-2.132.627-2.249 1.635l-2.434 20.93c-.117 1.008.699 1.91 1.824 2.015 1.125.105 2.132-.627 2.25-1.635l2.434-20.93zm647.631 8.621c-3.676 0-6.656-2.67-6.656-5.963s2.98-5.963 6.656-5.963c3.676 0 6.656 2.67 6.656 5.963s-2.98 5.963-6.656 5.963zm-44.544-136.68c-3.676 0-6.656-2.67-6.656-5.963s2.98-5.963 6.656-5.963c3.676 0 6.656 2.67 6.656 5.963s-2.98 5.963-6.656 5.963zm-125.952 60.542c-3.676 0-6.656-2.669-6.656-5.962 0-3.293 2.98-5.963 6.656-5.963 3.676 0 6.656 2.67 6.656 5.963s-2.98 5.962-6.656 5.962zM597.72 57.182c-3.676 0-6.656-2.67-6.656-5.963s2.98-5.962 6.656-5.962c3.676 0 6.656 2.67 6.656 5.962 0 3.293-2.98 5.963-6.656 5.963zm-327.169 7.797c-3.676 0-6.656-2.67-6.656-5.963s2.98-5.962 6.656-5.962c3.676 0 6.656 2.67 6.656 5.962 0 3.293-2.98 5.963-6.656 5.963zm-53.248 140.808c-3.676 0-6.656-2.67-6.656-5.963s2.98-5.962 6.656-5.962c3.676 0 6.656 2.669 6.656 5.962 0 3.293-2.98 5.963-6.656 5.963zm189.633-38.525l30.568-.502a.585.585 0 01.156.019c7.49 2.007 10.925 5.302 10.865 10.046-.06 4.648-2.821 8.338-8.534 11.215h-32.992v-20.322c0-.157-.022-.31-.063-.456zm-3.986.066a1.627 1.627 0 00-.047.39v70.926l-14.182.488-13.872-1.214c-8.24-.72-14.585-6.835-14.787-14.25l-.896-33.008-.003-.135c-.254-12.41 10.77-22.655 24.624-22.882l19.163-.315zm4.049 71.175v-23.402h33.28c.088 0 .175-.005.26-.015 5.284 2.713 7.882 6.47 7.986 11.447.057 2.748-.552 5.031-1.805 6.887-1.604 2.376-4.435 3.87-7.532 3.977l-32.189 1.106zm0-27.071V191.71h33.28c.092 0 .182-.006.27-.016 5.45 2.024 8.105 5.213 8.265 9.771.177 5.039-2.532 8.244-8.525 9.963a.074.074 0 00-.014.004h-33.276z" fill="#212121"/></g><path d="M128.724 353.019c-11.196 0-22.392-1.499-33.5-4.497-32.884-8.904-60.301-30.062-77.228-59.595C1.07 259.393-3.427 225.099 5.478 192.216c8.904-32.883 30.062-60.301 59.595-77.228 29.534-16.926 63.828-21.422 96.711-12.518 32.884 8.904 60.301 30.062 77.228 59.595 16.926 29.534 21.422 63.828 12.518 96.711l-1.234-.352 1.234.352c-8.904 32.884-30.062 60.301-59.595 77.228-19.484 11.284-41.171 17.015-63.211 17.015zm-.352-252.312c-21.511 0-42.758 5.642-61.888 16.574-28.916 16.573-49.634 43.462-58.362 75.64-8.727 32.178-4.32 65.767 12.255 94.683 16.573 28.917 43.462 49.634 75.64 58.362 32.178 8.728 65.767 4.408 94.683-12.254 28.917-16.574 49.634-43.463 58.362-75.641 8.728-32.178 4.32-65.767-12.254-94.683-16.574-28.916-43.463-49.634-75.641-58.362-10.844-2.821-21.864-4.319-32.795-4.319z" fill="#000"/><ellipse cx="129.504" cy="225.506" rx="127.5" ry="127.51" fill="#000"/><path d="M166.632 267.593l-4.849-.441c-.705-.088-1.41.441-1.41 1.234-.088.706.441 1.411 1.234 1.411l4.849.441h.617a7.366 7.366 0 007.229-6.083c.353-2.028-.176-4.144-1.411-5.731-1.234-1.587-3.173-2.645-5.201-2.821l-2.997-.264c-.706-.088-1.411.44-1.411 1.234-.088.705.441 1.322 1.234 1.41l2.998.265c1.322.088 2.468.793 3.35 1.763.793 1.058 1.146 2.38.881 3.703-.529 2.38-2.733 4.055-5.113 3.879zm8.815-13.842c2.116-.088 3.615-1.939 3.527-3.967-.089-2.116-1.94-3.615-3.968-3.526-2.027.088-3.614 1.939-3.526 3.967.088 2.116 1.851 3.614 3.967 3.526zm-9.342 79.521c8.375-4.144 9.962-16.662 10.227-18.69a54.787 54.787 0 01-22.04 3.35 56.37 56.37 0 01-24.597-7.141c8.904 19.836 26.624 27.329 36.41 22.481z" fill="#000"/><mask id="b" maskUnits="userSpaceOnUse" x="2" y="98" width="255" height="256"><ellipse cx="129.5" cy="225.51" rx="127.5" ry="127.51" fill="#000"/></mask><g mask="url(#b)" fill-rule="evenodd" clip-rule="evenodd"><path d="M486.374 223.897h86a2.291 2.291 0 000-4.582H427.332L255.15 693.296a2.29 2.29 0 01-4.306-1.564l171.613-472.417h-78.634a7.22 7.22 0 010-14.441h150.649a2.264 2.264 0 01.011-1.857l24.64-54.709a17.174 17.174 0 015.3-6.646l4.636-3.507a22.574 22.574 0 0118.653-4.003l33.756-82.158c4.358-4.989 8.883-6.507 13.572-4.556.074.03.148.062.221.095 5.464 2.416 7.933 8.804 5.517 14.267l-34.213 77.343 45.279 12.009a2.29 2.29 0 11-1.174 4.428l-45.981-12.195-5.39 12.184c3.566 1.357 5.19 6.736 5.815 16.224a2.291 2.291 0 01-2.21 2.44c-12.831.426-23.648 2.498-32.45 6.194-4.291 1.802-7.807 4.786-10.544 8.993 2.799.081 5.353.425 8.011 1.23 5.863 1.774 10.104 5.438 11.861 11.337l42.149.352h278.755l53.013 167.635c2.265 7.162 1.004 14.596-2.81 20.428h81.733c1.69-5.274 5.578-8.568 10.898-10.176 2.35-.71 4.6-1.032 7.05-1.124-2.46-3.67-5.59-6.284-9.39-7.878-8.039-3.372-17.922-5.265-29.649-5.657H943.82a2.291 2.291 0 010-4.581h27.749l.076.001c12.267.407 22.703 2.404 31.305 6.012 8.68 3.639 14.36 11.523 17.06 23.403h23.43c-2.49-12.088-7.33-19.774-14.41-23.262-8.23-4.058-25.02-10.673-50.296-19.81a2.29 2.29 0 01-1.502-1.933l-14.514-12.517a2.291 2.291 0 012.992-3.47l14.155 12.208c44.025 10.429 68.305 17.655 73.935 22.173 8.49 6.811 14 16.32 16.54 28.432.05.245.06.488.03.722h40.08c3.98 0 7.22 3.233 7.22 7.22a7.225 7.225 0 01-7.22 7.221H919.574l135.036 284.145a2.291 2.291 0 01-4.14 1.966L914.502 407.386h-64.68L954.21 610.269h-31.43l25.997 81.55a2.29 2.29 0 01-2.183 2.986h-14.801a1.909 1.909 0 01-.107 0H719.404a2.29 2.29 0 01-2.138-3.111l3.601-9.392a33.782 33.782 0 0122.906-20.566l39.125-10.351-12.822-41.116h-50.672l-71.138-182.23a2.293 2.293 0 00.915-2.48l-37.258-139.386c-2.42-9.053 2.613-18.427 11.495-21.412l91.574-30.775a2.29 2.29 0 10-1.459-4.342l-91.575 30.775c-11.174 3.755-17.505 15.548-14.461 26.937l36.668 137.179-18.626 185.063h-56.165v82.916a2.291 2.291 0 01-2.291 2.291H544.43a2.29 2.29 0 01-2.29-2.291v-50.511l-40.278 51.915a2.286 2.286 0 01-1.809.887H340.317a2.29 2.29 0 01-2.139-3.111l3.602-9.392a33.782 33.782 0 0122.905-20.566l40.075-10.602 8.78-41.536h-64.636l75.26-216.171.249.004 61.961-169.534zM1033.43 99.868l-70.128-1.675-89.535-199.211c-3.5-7.789-.024-16.94 7.764-20.441a15.48 15.48 0 016.286-1.359l302.333-1.034a15.464 15.464 0 0115.3 12.863l34.87 204.513c42.39 10.642 73.78 49.006 73.78 94.701 0 53.923-43.71 97.636-97.63 97.636-53.93 0-97.64-43.713-97.64-97.636 0-19.916 5.97-38.44 16.2-53.883l-4.69 4.551a23.478 23.478 0 01-5.62 4.028c-9.75 5.01-18.27 6.327-25.49 3.784-6.08-2.143-9.89-5.758-11.23-10.674-4.38 3.747-9.78 4.956-16.01 3.545-6.76-1.533-11.01-5.428-12.52-11.421-5.04 3.253-10.22 3.995-15.39 2.101-9.58-3.514-14.94-13.719-12.4-23.604l1.75-6.784zM160.867 115.28l9.343-238.424c.325-8.297 7.146-14.856 15.449-14.856h345.472c1.505 0 3.003.22 4.445.653 8.179 2.455 12.818 11.075 10.363 19.254L482.336 93.793a26.343 26.343 0 01-25.23 18.769H310.574l-.192.001c.401.251.798.52 1.191.805a22.144 22.144 0 012.971 2.562 14.89 14.89 0 011.499 18.823l-28.009 40.299a2.152 2.152 0 01-.194.243l-7.686 8.363a22.894 22.894 0 01-19.692 7.234l-13.648 11.874a98.98 98.98 0 01.457 9.51c0 53.923-43.713 97.636-97.636 97.636-53.922 0-97.635-43.713-97.635-97.636 0-53.922 43.713-97.635 97.635-97.635 3.799 0 7.546.217 11.232.639zm757.105 494.989H774.875l12.917 41.422h72.17a2.29 2.29 0 110 4.581h-76.995c-.157 0-.309-.015-.457-.045l-37.566 9.938a29.202 29.202 0 00-19.799 17.777l-2.409 6.282h205.788l-18.736-54.161a2.29 2.29 0 114.329-1.498l19.254 55.659h10.089l-25.488-79.955zm-353.179-.671h-146.57l-9.272 43.863a2.29 2.29 0 01-1.655 1.741l-41.439 10.963a29.204 29.204 0 00-19.8 17.777l-2.409 6.282h155.283l43.689-56.314c1.338-1.725 4.101-.779 4.101 1.404v54.91h18.072v-80.626zM239.741 168.8l-.312.269c-.27-.457-.544-.912-.82-1.363l1.132 1.094zm773.309 214.863c-3.06-.054-5.62.166-8.2.948-3.44 1.039-5.928 2.88-7.312 5.791h17.762c-.61-2.469-1.36-4.714-2.25-6.739zm35.06 6.739h17.1c-2.54-9.78-7.3-17.435-14.28-23.039-3.6-2.895-18.22-7.7-43.39-14.207 10.75 4.153 18.58 7.442 23.52 9.875 8.71 4.293 14.36 13.489 17.05 27.371zM545.942 138.46a17.987 17.987 0 00-14.119 3.348l-4.636 3.507a12.604 12.604 0 00-3.887 4.874l-23.18 51.467 10.05.084c2.921-12.983 9.084-21.579 18.511-25.537a66 66 0 012.099-.839l15.162-36.904zm6.819 31.89c2.453-.268 4.985-.467 7.596-.597-.299-3.165-.744-5.64-1.321-7.403-.317-.97-.66-1.68-.999-2.124-.21-.276-.347-.374-.425-.393a1.458 1.458 0 00-.185-.031l-4.666 10.548zm-17.854 31.596c-1.484-3.512-4.326-5.705-8.313-6.911-2.88-.872-5.731-1.109-9.142-1.041-1.03 2.328-1.893 4.921-2.587 7.785l20.042.167zM200.378 77.824c9.37 9.252 9.738 18.321.703 25.988a2.285 2.285 0 01-1.81.521l1.883 24.991c23.657 14.724 40.556 39.286 44.974 67.966l11.278-9.812a2.29 2.29 0 012.507-1.305 18.32 18.32 0 0016.868-5.615l7.581-8.248 27.919-40.171a10.308 10.308 0 00-1.038-13.032 17.54 17.54 0 00-2.358-2.029c-4.477-3.245-9.358-3.629-14.969-1.114l-20.472 27.166a2.29 2.29 0 11-3.658-2.757l21.018-27.892c1.574-5.209.297-9.162-3.926-12.344-4.204-3.167-8.276-3.509-12.65-1.093a1.82 1.82 0 01-.083.044 2.293 2.293 0 01-.319.584L252.8 127.573a2.29 2.29 0 01-3.659-2.757l21.026-27.902a2.28 2.28 0 01.794-.666 2.41 2.41 0 01.327-.584l29.909-39.927c2.379-6.904 1.555-11.557-2.245-14.49-4.11-3.17-9.284-2.98-15.935.852a.585.585 0 00-.156.132l-54.068 65.629c-1.134 1.375-3.335.986-3.928-.695a1475.834 1475.834 0 01-4.787-13.72 81.327 81.327 0 01-.563-1.719c-.135-.427-.254-.808-.472-1.512-1.812-5.85-2.766-8.067-4.38-9.502-2.154-1.914-4.485-3.311-7.005-4.205a7.442 7.442 0 00-7.28 1.316zm-2.462 4.02a7.47 7.47 0 00-.172 2.217l1.171 15.55c5.775-5.368 5.547-10.973-.999-17.767zm86.357 90.594l.194-.243-.105.115-.089.128zm9.12-118.891a2.291 2.291 0 013.266 3.213c-3.201 3.252-7.217 3.22-11.178.136-3.995-3.112-4.969-6.934-2.328-10.555a2.291 2.291 0 013.701 2.7c-1.036 1.42-.754 2.53 1.442 4.24 2.23 1.737 3.639 1.748 5.097.266zM149.635 305.33c51.393 0 93.055-41.662 93.055-93.055 0-51.392-41.662-93.054-93.055-93.054-51.392 0-93.054 41.662-93.054 93.054 0 51.393 41.662 93.055 93.054 93.055zm31.722-99.468c-2.664.808-5.798.189-9.252-1.712a2.291 2.291 0 012.21-4.013c2.826 1.556 4.836 1.84 6.28 1.096l-.418-2.537a2.29 2.29 0 011.042-2.313l21.174-13.295-16.308-4.395a8.595 8.595 0 01-4.424 9.861c-3.401 1.722-7.058 2.823-10.961 3.303-3.903.479-7.718.295-11.434-.554a8.59 8.59 0 01-1.969-16.036c3.4-1.723 7.058-2.824 10.96-3.303a33.744 33.744 0 016.839-.154 26.352 26.352 0 00-8.297-10.959l-30.946 14.197-26.677 4.731a19.022 19.022 0 00-.221 2.886v65.463c15.09 3.479 29.381 4.624 42.878 3.443 13.347-1.168 25.161-4.408 35.456-9.713l-5.932-35.996zm-9.044-29.577c-1.154.006-2.32.081-3.497.226-3.381.415-6.527 1.362-9.449 2.842a4.01 4.01 0 00.919 7.484c3.194.73 6.475.888 9.856.473 3.38-.415 6.526-1.363 9.449-2.843a4.008 4.008 0 001.013-6.42c.039.19.067.385.084.583.235 2.678-1.619 5.028-4.139 5.248-2.521.221-4.754-1.771-4.988-4.449a5.036 5.036 0 01.752-3.144zm7.842-3.934l28.492 7.677c1.929.52 2.314 3.089.622 4.152l-24.325 15.273 7.133 43.288a2.29 2.29 0 01-1.169 2.386c-11.202 6.066-24.1 9.733-38.676 11.008-14.531 1.271-29.901-.054-46.105-3.968a2.29 2.29 0 01-1.753-2.226v-67.276a23.48 23.48 0 0114.773-21.805l19.896-7.943a31.045 31.045 0 016.465-1.801c15.323-2.525 30.037 6.657 34.647 21.235zm-28.244 42.807c-8.657 4.603-19.405 1.316-24.008-7.34-4.603-8.657-1.317-19.405 7.34-24.008a2.29 2.29 0 112.15 4.045c-6.422 3.415-8.86 11.39-5.445 17.812 3.415 6.423 11.389 8.861 17.812 5.446a2.29 2.29 0 112.151 4.045zM1216.47 281.28c51.39 0 93.05-41.662 93.05-93.055 0-51.392-41.66-93.054-93.05-93.054-51.4 0-93.06 41.662-93.06 93.054 0 51.393 41.66 93.055 93.06 93.055zM1201 154.639a4.712 4.712 0 011.27 4.338c-.54 2.537-2.98 4.167-5.46 3.641-2.03-.432-3.45-2.181-3.59-4.197-.84.657-1.64 1.391-2.42 2.202 4.52 3.092 9.18 4.379 14.04 3.919 3.15-.298 6.05-1.3 8.71-3.025-1.22-2.028-2.33-4.29-3.35-6.788-2.18-.547-4.4-.711-6.65-.497-.87.082-1.72.218-2.55.407zm50 42.397l-2.21 24.678a2.284 2.284 0 01-1.97 2.064c-12.27 1.702-25.54 1.031-39.81-2.001-14.32-3.046-25.08-7.35-32.26-12.98a2.27 2.27 0 01-.85-2.169l3.54-21.933a2.3 2.3 0 01.15-.909l1.17-7.212-17.07-3.628c-1.64-.347-2.36-2.275-1.36-3.613l16.99-22.678c11.24-15.014 30.67-21.405 48.64-16.001l14.07 4.235c9.37 2.818 15.47 11.833 14.6 21.577l-1.21 13.441 42.58 13.115a5.732 5.732 0 013.53 7.857l-10.1 22.043c-.09.203-.2.4-.31.591a5.729 5.729 0 01-7.87 1.918L1251 197.036zm-46.24-62.823a40.088 40.088 0 00-23.78 15.189l-14.83 19.809 15.69 3.336c1.2.254 1.98 1.4 1.79 2.606l-.5 3.057c3.16.496 5.62.932 7.39 1.308 1.13.239 1.99.457 2.62.666.39.13.72.262 1 .421.71.392 1.22.879 1.37 1.851.19 1.143-.35 1.927-1.09 2.421-.27.185-.56.31-.89.419-.41.137-.93.253-1.58.367-1.04.181-2.45.356-4.21.534-.42.043-.86.085-1.32.128-.99.092-3.12.27-4.66.4l-3.12 19.271c6.57 4.755 16.35 8.541 29.33 11.3 13.06 2.776 25.2 3.498 36.42 2.176l4.05-45.326c-2.1-3.754-5.82-6.646-10.45-7.63-5.76-1.224-11.42.817-14.95 4.843-2.84-2.006-5.13-4.035-6.87-6.086a23.614 23.614 0 01-10.9 3.83c-6.79.642-13.25-1.501-19.28-6.345a2.293 2.293 0 01-.34-3.232c4.81-5.891 10.66-9.211 17.46-9.855 1.78-.168 3.54-.145 5.28.068-1.47-4.551-2.68-9.726-3.63-15.526zm-116.95-4.729c.01-.165.04-.331.08-.497l14.41-53.023a2.4 2.4 0 01-.23-.82c-.6-6.791-3.55-10.847-9.01-12.6-5.84-1.875-10.4-.115-14.21 5.587-.25.37-.56.634-.91.8l-14.09 53.857c-.09.312-.23.592-.42.831.02.087.03.176.03.267.32 6.236 3.36 9.82 9.55 11.222 6.21 1.409 11.01-.407 14.8-5.624zm4.27 1.256v.068c-.38 5.63 2.35 9.35 8.67 11.576 5.88 2.07 13.15.945 21.88-3.538a18.92 18.92 0 004.52-3.242l11.69-11.329-10.95-3.736a2.281 2.281 0 01-1.53-2.454l4.02-31.912c-.04-8.7-2.86-13.489-8.48-15.03-5.1-1.4-9.94-.045-14.7 4.246l-14.89 54.799a2.09 2.09 0 01-.23.552zm-32.72-8.201c-.04-.295-.03-.604.05-.91l14.59-55.74c.04-.183.11-.356.2-.515-1.73-5.72-5.24-9.303-10.66-10.965-2.19-.674-4.23-.945-6.11-.827-4.45.28-8.22 3.394-9.33 7.715l-11.98 46.499a15.274 15.274 0 009.54 18.158c4.49 1.646 8.97.578 13.7-3.415zm-6.24-52.062c-.43 2.736.85 4.332 4.61 5.307 3.74.97 5.46.286 6.2-2.05a2.287 2.287 0 114.36 1.38c-1.56 4.933-5.81 6.633-11.71 5.104-5.88-1.524-8.8-5.177-7.99-10.439a2.287 2.287 0 012.61-1.915 2.296 2.296 0 011.92 2.613zm29.2 9.193c-.42 2.737.85 4.332 4.61 5.307 3.75.97 5.46.287 6.2-2.05a2.284 2.284 0 012.87-1.493 2.278 2.278 0 011.49 2.874c-1.55 4.933-5.81 6.633-11.71 5.104-5.88-1.525-8.8-5.178-7.99-10.44a2.287 2.287 0 012.61-1.914 2.296 2.296 0 011.92 2.612zm28.64 7.672c-.42 2.736.86 4.332 4.62 5.307 3.74.97 5.45.286 6.19-2.05a2.295 2.295 0 012.88-1.493 2.295 2.295 0 011.49 2.874c-1.56 4.932-5.81 6.632-11.71 5.103-5.88-1.524-8.81-5.177-7.99-10.439a2.287 2.287 0 012.61-1.915 2.282 2.282 0 011.91 2.613zM761.677-60.281a4870.682 4870.682 0 01-22.64-12.352 2483.562 2483.562 0 01-17.025-9.48c-11.085 9.984-15.35 24.48-12.766 43.751l12.758-1.566a2.29 2.29 0 01.559 4.546l-14.981 1.84a2.29 2.29 0 01-2.541-1.917c-2.539-16.083-.695-29.43 5.543-39.922l-7.102 6.393a27.896 27.896 0 00-2.565 12.189l.866 52.049C712.651-.848 724.707.296 737.98-1.333c13.251-1.627 24.697-4.93 34.349-9.898l-4.18-19.25a2.29 2.29 0 012.27-2.776c.599.008 1.201-.025 1.805-.099 7.219-.886 12.354-7.458 11.467-14.677-.886-7.22-7.458-12.354-14.678-11.468-1.418.174-2.775.57-4.037 1.167a2.29 2.29 0 01-3.219-1.584l-.037-.167-.043-.196zm-25.728-29.264c13.88 2.146 25.634 12.171 29.643 26.089.93-.274 1.887-.472 2.863-.592 9.731-1.195 18.588 5.725 19.783 15.456 1.178 9.595-5.533 18.34-15.05 19.729l3.986 18.358a2.29 2.29 0 01-1.144 2.498c-10.497 5.706-22.997 9.44-37.492 11.22-14.582 1.791-27.874.388-39.843-4.225a2.292 2.292 0 01-1.466-2.099l-.892-53.612c-.209-12.544 6.726-23.646 17.17-29.255-6.832-2.307-11.081-9.364-9.68-16.643a14.643 14.643 0 016.215-9.393c-4.31-2.533-6.822-7.549-5.926-12.768a12.378 12.378 0 0110.451-10.159l8.969-1.279c6.437-.918 12.399 3.556 13.317 9.993l.006.04a12.467 12.467 0 01-4.099 11.07c4.988 1.615 8.85 5.991 9.542 11.537l.005.044a14.758 14.758 0 01-6.358 13.99zm-11.467 30.842a4.333 4.333 0 011.289-.267c2.527-.132 4.689 1.937 4.83 4.621a5.028 5.028 0 01-1.003 3.312 18.984 18.984 0 004.67-.82c4.691-1.434 8.471-4.46 11.384-9.168-5.048-2.275-9.874-2.67-14.565-1.236a18.815 18.815 0 00-6.605 3.558zm-2.687 2.695a25.214 25.214 0 00-2.092 2.916c.704.317 1.403.598 2.098.842a5.135 5.135 0 01-.35-1.62 5.09 5.09 0 01.344-2.138zm13.812 8.533c-6.563 2.006-13.333 1.104-20.182-2.634a2.29 2.29 0 01-.936-3.064c3.587-6.929 8.695-11.462 15.259-13.469 6.563-2.007 13.333-1.105 20.182 2.634a2.29 2.29 0 01.936 3.063c-3.587 6.93-8.695 11.463-15.259 13.47zM714.509-27.44a2.291 2.291 0 011.489-4.333c2.838.975 6.143.464 10.022-1.677a2.29 2.29 0 112.213 4.01c-4.932 2.723-9.542 3.436-13.724 2zm210.415-58.542L981.49 34.353a2.291 2.291 0 002.058 1.316l208.772 1.335a2.288 2.288 0 002.26-2.725l-23.55-121.973a2.289 2.289 0 00-2.25-1.856l-241.786.303c-1.678.002-2.784 1.747-2.07 3.265zm241.966 1.016l22.66 117.371-204.528-1.308-54.42-115.767 236.288-.296zm-99.65 95.151c6.4 0 14.62-2.533 19.7-5.64 9.63-5.885 13.8-15.75 13.8-27.86 0-7.524-1.82-15.406-6.01-20.998-6.11-8.158-16.51-12.5-27.49-12.5-10.9 0-20.3 5.81-26.42 13.875-4.26 5.62-7.07 12.026-7.07 19.624 0 10.085 5.3 18.844 12.35 24.986 5.88 5.124 12.73 8.513 21.14 8.513zM222.075-69.75a6.299 6.299 0 100 12.598h236.501a6.299 6.299 0 100-12.598H222.075zm1.145 43.521a6.299 6.299 0 100 12.598h91.326a6.299 6.299 0 100-12.598H223.22zm121.973 0a6.299 6.299 0 100 12.598h45.103a6.299 6.299 0 100-12.598h-45.103zm73.298 0a6.299 6.299 0 100 12.598h33.71a6.3 6.3 0 000-12.598h-33.71z" fill="#fff"/><path d="M650.38 202.736l-8.614-20.69a57.268 57.268 0 00-30.233-30.593l16.503-126.714c1.743-13.379 13.926-22.864 27.323-21.272l39.143 4.65 2.28-12.597 78.934-11.535 22.577 36.465 48.229 5.73a26.913 26.913 0 0120.925 14.746l144.263 290.218H900.952l-40.991-128.561-209.581.153zM364.375 28.744h62.99c8.697 0 15.748 7.05 15.748 15.747s-7.051 15.748-15.748 15.748h-62.99c-8.698 0-15.748-7.05-15.748-15.748 0-8.697 7.05-15.747 15.748-15.747zM1058.7-35.948c0-.29 8.97 3.195 26.92 10.454L1063.51-6.76c-3.21-19.17-4.81-28.898-4.81-29.188zM861.029 199.459l-24.57-92.425a2.29 2.29 0 00-4.427 1.177l24.57 92.425a2.29 2.29 0 104.427-1.177zM141.747 242.96c.904.013 1.809.004 2.713-.026l58.004-1.935a4.58 4.58 0 014.212 6.703l-8.119 15.507 18.496 13.188c-5.236 5.485-10.057 9.683-14.464 12.595-2.81 1.856-5.476 3.344-7.321 4.434-8.769 5.177-17.667 7.837-24.016 9.404-7.428 1.833-15.047 2.565-23.558 2.565-1.561 0-6.288-.296-7.806-.456-11.874-1.246-25.489-4.592-40.628-14.268-2.781-1.778-7.968-5.648-12.695-9.952-.863-.786-2.18-2.085-3.952-3.899l18.46-13.611-5.92-14.533a4.581 4.581 0 014.307-6.309l42.287.593zm1067.063-33.536l54.88 2.452a4.587 4.587 0 014.37 4.782 4.816 4.816 0 01-.36 1.588l-3.7 8.681a24.14 24.14 0 004.9 26.261l6.72 6.919c-16.83 14.242-36.54 21.363-59.15 21.363-8 0-17.6-1.419-26.17-3.879-4.66-1.336-9.24-3.23-12.97-4.94-4.22-1.932-9.02-4.563-14.23-8.163-1.12-.775-2.82-2.07-5.1-3.885a39.85 39.85 0 005.8-31.131l-4.71-20.631a4.59 4.59 0 013.45-5.485 4.584 4.584 0 011.67-.068l39 5.609c1.86.267 3.73.443 5.6.527z" fill="#7B61FF"/></g></svg>