<svg width="998" height="1085" fill="none" xmlns="http://www.w3.org/2000/svg"><path fill-rule="evenodd" clip-rule="evenodd" d="M975.73 460.071v42.656c0 3.748-5.622 3.748-5.622 0v-28.569c0-3.748 5.622-3.748 5.622 0 0 3.747-5.622 3.747-5.622 0v-14.087H716.947l-.533 55.299h25.83v2.519c.414-.24.894-.376 1.406-.376h388.48l7.77-7.113v-50.329H975.73zm150.26 63.063H743.65c-.512 0-.992-.137-1.406-.376v43.592h378.576l.18-16.513v-22.135l4.99-4.568zm-383.746 48.838v10.259h-25.83l.884 61.251c4.191-4.762 8.871-4.762 14.04 0a24.543 24.543 0 012.168 2.274H1121l15.84-7.027v-56.498h-16.19l.11-10.259H742.244zm286.416 150.416l90.09-.038 2.09-70.973H737.198c2.084 4.043 3.649 8.962 4.695 14.757v46.041l.351 10.334 98.379-.041v35.594l-166.19-8.132c-19.101-.934-35.181-14.609-39.173-33.312-45.916-215.163-42.151-337.998 11.295-368.504 97.034-55.385 105.571 70.068 152.763 59.566 47.192-10.502 6.162-133.466 105.557-143.503 99.395-10.036 74.137 57.972 108.155 107.348 34.01 49.376 56.96-68.351 153.73-68.003 107.55.388 104.23 76.457 104.23 148.71l-30.01 306.014c-1.06 10.816-10.42 18.897-21.27 18.365l-191.54-9.372.49-44.851zm-90.549.039l1.303-.001a2.811 2.811 0 012.16 2.728l.759 301.606 23.983-35.433a2.812 2.812 0 014.656 3.151l-28.326 41.852 45.362-.02a2.798 2.798 0 012.812 2.8c0 1.56-1.257 2.82-2.809 2.82l-98.492.05a2.81 2.81 0 11-.003-5.62l46.772-.03-33.301-41.4a2.811 2.811 0 014.381-3.524l29.346 36.484-.761-302.722a2.81 2.81 0 012.158-2.741zM222.532 298.41l45.655-106.25 17.533-6.745-37.951 93.865 61.922-88.729a2.81 2.81 0 114.61 3.217l-57.637 82.589 92.022-80.627a2.81 2.81 0 113.705 4.228l-96.572 84.613 145.264-104.308 86.125 182.38-195.945 50.262c-9.826 15.729-15.884 24.481-18.536 26.707-3.302 2.77-7.133 4.734-11.313 5.288-5.509.731-11.007-1.101-16.145-5.851-6.299-5.826-9.301-12.672-8.897-20.332-8.073.566-15.32-2.065-21.565-7.841-6.817-6.303-9.747-13.476-8.575-21.267l-11.81-13.017a28.11 28.11 0 01-4.17-31.76c8.504-16.505 17.218-29.632 26.165-39.387a168.704 168.704 0 006.115-7.035zm477.425 684.531l-194.912 1.89 4.566 47.059h54.049a2.812 2.812 0 012.811 2.81c0 1.55-1.259 2.81-2.811 2.81h-41.916c8.516 2.34 14.673 4.83 18.523 7.51 7.518 5.24 6.944 11.94-1.098 17.66-7.482 5.32-14.953 5.69-21.778.93-6.113-4.26-11.626-12.58-16.706-24.98l-82.54 14.01a35.82 35.82 0 00-27.448 22.44l-1.516 3.94h270.054l65.527-57.59-24.805-38.489zm-200.555 1.944l-65.127.632-39.937-41.931 72.107-129.23a2.811 2.811 0 10-4.909-2.74l-71.257 127.708-.032-.033-.228.5-21.412 38.374-35.701 104.575a2.805 2.805 0 01-2.66 1.9H2.813c-1.973 0-3.332-1.98-2.622-3.82l2.988-7.76a41.472 41.472 0 0131.753-25.97l74.395-12.62c-12.156-3.49-20.525-7.01-25.202-10.65-7.233-5.63-6.31-12.29 2.02-17.58 7.751-4.92 15.231-4.9 21.798.21 5.852 4.55 10.901 13.09 15.311 25.63l35.82-46.563h-52.775l119.393-217.586a2.81 2.81 0 004.613-.602l139.929-277.79a2.811 2.811 0 00-5.021-2.529L225.284 764.8a2.804 2.804 0 00-.288.991l-71.908-75.498 139.057-275.966 133.071 1.476 138.998-1.476v144.517l-63.283 138.393 193.425 268.03a2.807 2.807 0 011.674 1.203l6.731 10.444 4.3 5.958-.458.005 24.196 37.543a2.82 2.82 0 01-.507 3.64l-68.142 59.88c-.513.45-1.173.7-1.856.7H385.086c-1.974 0-3.333-1.98-2.623-3.82l2.988-7.76a41.473 41.473 0 0131.753-25.97l74.394-12.62c-12.157-3.49-20.525-7.01-25.203-10.65-7.233-5.63-6.31-12.29 2.02-17.58 7.751-4.92 15.231-4.9 21.798.21 4.954 3.86 9.333 10.57 13.236 20.14l-4.047-41.705zm-139.245.632h-193.99l-35.672 46.373h50.895a2.812 2.812 0 012.811 2.81c0 1.55-1.259 2.81-2.811 2.81h-41.916c8.516 2.34 14.673 4.83 18.523 7.51 7.518 5.24 6.944 11.94-1.098 17.66-7.483 5.32-14.953 5.69-21.778.93-6.113-4.26-11.626-12.58-16.707-24.98l-82.542 14.01a35.821 35.821 0 00-27.447 22.44l-1.516 3.94h321.327l31.921-93.503zm-255.666 25.373c-4.61-3.59-9.507-3.6-15.333.1-5.247 3.33-5.524 5.32-1.58 8.39 4.661 3.63 14.435 7.44 29.17 11.3-3.765-9.8-7.891-16.4-12.257-19.79zm33.845 48.11c4.79 3.34 9.682 3.1 15.306-.9 5.066-3.6 5.238-5.61 1.14-8.47-4.846-3.37-14.806-6.67-29.723-9.75 4.273 9.58 8.739 15.96 13.277 19.12zm348.425-48.11c-4.609-3.59-9.507-3.6-15.333.1-5.247 3.33-5.524 5.32-1.581 8.39 4.662 3.63 14.436 7.44 29.171 11.3-3.765-9.8-7.891-16.4-12.257-19.79zm33.845 48.11c4.79 3.34 9.682 3.1 15.306-.9 5.066-3.6 5.238-5.61 1.14-8.47-4.846-3.37-14.806-6.67-29.723-9.75 4.273 9.58 8.738 15.96 13.277 19.12zm320.017-122.629H727.056c-16.832 0-30.971-12.659-32.826-29.389-2.418-21.816 4.45-38.854 20.603-51.115 34.211-25.965 51.925 10.048 65.815 6.462 13.89-3.586-5.614-49.19 18.803-64.468 24.416-15.277 30.875 15.507 40.2 31.209.33.558.654 1.044.972 1.463v105.838zm186.297-56.88c1.16-.191 2.35-1.121 3.66-3.019 9.2-13.348 15.56-39.515 39.64-26.529 24.08 12.987 27.82 54.351 41.52 57.399 13.7 3.048 37.13-41.39 70.87-19.319 18.16 11.879 21.85 31.542 11.07 58.989a33.03 33.03 0 01-30.79 20.953l-136.94-.183.97-88.291zM386.359 85.367c1.964-.338 3.724-2.1 5.345-5.713a2.81 2.81 0 115.129 2.301c-1.981 4.415-4.595 7.336-7.803 8.51l21.463 40.982c15.903 13.742 30.369 16.144 44.02 7.614 14.197-8.871 30.417-14.927 48.641-18.172L442.145 17.065a23.184 23.184 0 00-3.477-4.532l-27.799 14.129-40.81 8.94a32.398 32.398 0 00-.039 16.868 41.37 41.37 0 016.814-4.9c4.179-2.412 8.577-4.034 13.181-4.857 5.731-1.025 11.207 2.79 12.231 8.521a10.54 10.54 0 01-2.317 8.65c-3.015 3.576-6.619 6.573-10.798 8.986-4.178 2.413-8.576 4.034-13.181 4.858a10.508 10.508 0 01-8.027-1.832L356.98 89.323l24.599-8.032a2.81 2.81 0 013.362 1.368l1.418 2.708zm-15.558-18.362c-.849-2.521.007-5.315 2.236-6.708 2.633-1.645 6.184-.71 7.932 2.087a6.18 6.18 0 01.935 3.79 36.436 36.436 0 004.417-2.172c3.619-2.09 6.718-4.668 9.31-7.742a4.918 4.918 0 00-4.626-8.013c-3.958.707-7.741 2.102-11.36 4.192-3.62 2.09-6.719 4.668-9.311 7.742a4.922 4.922 0 00.467 6.824zm-6.539.149a10.545 10.545 0 011.334-10.038c-6.448-17.667 1.021-37.812 18.137-46.777a38.116 38.116 0 017.666-3.01l23.182-6.314a28.81 28.81 0 0132.411 13.202l63.082 107.353c1.007 1.713-.034 3.902-1.998 4.202-19.154 2.927-36.007 8.948-50.584 18.057-16.06 10.035-33.304 7.066-51.093-8.493a2.803 2.803 0 01-.64-.812l-24.695-47.151-29.722 9.704c-2.5.816-4.651-1.94-3.253-4.166l16.173-25.757zm58.615 13.487a2.811 2.811 0 11-.879-5.552c8.816-1.397 14.831-9.676 13.435-18.492-1.397-8.816-9.676-14.831-18.492-13.435a2.811 2.811 0 01-.879-5.552c11.882-1.882 23.041 6.225 24.923 18.108 1.882 11.882-6.225 23.041-18.108 24.923zm57.485 215.114a2.812 2.812 0 01-5.537.976l-4.314-24.467a2.81 2.81 0 115.536-.976l4.315 24.467zm22.997 78.987a2.811 2.811 0 01-5.136 2.286c-9.724-21.846-3.479-42.747 18.291-62.125a2.811 2.811 0 113.738 4.199c-20.059 17.854-25.542 36.208-16.893 55.64zm4.092-94.13a2.81 2.81 0 01-5.597.529l-4.081-43.177a2.812 2.812 0 015.596-.529l4.082 43.177zm-243.21 42.83l-52.177 65.637a.672.672 0 01-.034.041 2.637 2.637 0 01-.037.213c-1.344 6.3.78 12.006 6.63 17.416 5.894 5.451 12.625 7.41 20.461 5.96a2.78 2.78 0 011.704.217l38.356-53.396c.601-9.686-.398-17.239-2.918-22.647-2.18-4.676-6.161-9.166-11.985-13.441zm-4.173-3.785l-10.139-23.67a9.84 9.84 0 00-17.058-1.831c-3.537 4.969-7.641 9.998-12.311 15.089-8.576 9.349-17.02 22.071-25.31 38.162a22.485 22.485 0 003.336 25.408l10.247 11.294 51.235-64.452zm22.34 44.965l-38.798 54.011a2.796 2.796 0 01-1.649 1.098c-.097 5.674 2.246 10.678 7.125 15.19 3.93 3.635 7.768 4.913 11.589 4.407 2.988-.397 5.889-1.884 8.438-4.023 2.678-2.247 11.797-16.014 26.596-40.352-.511-7.704-1.622-13.35-3.26-16.864-1.491-3.2-4.847-7.721-10.041-13.467zm-46.218-58.163a2.81 2.81 0 01-2.14-5.198c6.857-2.822 12.738-.314 16.765 6.872 4.058 7.242 3.09 13.37-3.114 17.053a2.81 2.81 0 11-2.87-4.834c3.33-1.977 3.759-4.69 1.08-9.471-2.711-4.836-5.658-6.094-9.721-4.422zm19.926 39.773a2.81 2.81 0 11-2.139-5.199c6.857-2.821 12.737-.314 16.765 6.872 4.058 7.242 3.089 13.371-3.114 17.054a2.811 2.811 0 01-2.87-4.834c3.33-1.977 3.759-4.691 1.08-9.471-2.711-4.837-5.659-6.094-9.722-4.422zm19.989 37.689a2.812 2.812 0 01-2.139-5.199c6.857-2.822 12.737-.314 16.765 6.872 4.058 7.242 3.089 13.37-3.114 17.053a2.811 2.811 0 11-2.87-4.833c3.33-1.977 3.759-4.691 1.08-9.472-2.711-4.836-5.659-6.093-9.722-4.421zm602.112 226.548c0-3.748 5.622-3.748 5.622 0v21.553c0 3.748-5.622 3.748-5.622 0v-43.107c0-3.747 5.622-3.747 5.622 0v21.554c0 3.747-5.622 3.747-5.622 0z" fill="#fff"/><path fill-rule="evenodd" clip-rule="evenodd" d="M370.663 202.322l-17.674-3.109c.246-.544.347-1.003.302-1.376-.083-.699-.249-1.737-1.25-2.359-1.356-.842-2.62-.374-4.175 1.005-.34.302-.925.808-1.754 1.518l-31.324-5.528a2.91 2.91 0 00-.243-1.487 2.735 2.735 0 00-.355-.584l15.702-32.568a30.212 30.212 0 0116.994-15.311l145.399-52.277 85.734 37.916a33.027 33.027 0 0117.475 18.367l97.99 255.216-123.256 24.414-15.552-10.287H289.375l1.892-2.981 148.881-38.034c6.455 4.986 12.873 9.447 18.206 12.474 21.06 11.952 50.961 22.376 64.946 9.231 6.176-5.805 11.659-14.018 16.449-24.64a57.626 57.626 0 004.332-33.034l-18.39-111.898c-.968-5.893-6.53-9.885-12.423-8.916a10.806 10.806 0 00-6.215 3.361c-2.551 2.781-4.799 7.27-6.745 13.468-2.824-6.257-10.185-9.04-16.442-6.216a12.434 12.434 0 00-3.524 2.391c-2.157 2.084-3.799 4.338-4.927 6.763-2.933 6.306-4.085 16.832-3.456 31.578l-38.075-22.831a5.826 5.826 0 00-1.851-.718l-30.949-65.606-30.421 22.058zm346.286 369.651h433.571v14.757H716.949V631h433.571v14.757H703.597v-73.784h13.352zm419.891-54.279H703.597v-14.586h433.243v-43.036H703.597v-14.585h446.923v72.378h-13.68v-.171zm-394.594 14.577v-9.136h408.274v9.136H934.786v24.946h215.734v9.135H742.246v-34.081zM1121 666.135v59.027H726.084v-14.756h107.513v-44.271H726.084v-14.756H1121v14.756z" fill="#7B61FF"/></svg>