<svg width="710" height="459" fill="none" xmlns="http://www.w3.org/2000/svg"><mask id="a" maskUnits="userSpaceOnUse" x="-148" y="0" width="858" height="459"><path d="M-64 459h611.5c42.833-19.167 134.3-94.3 157.5-241.5C728.2 70.3 660 11.167 623 0L80 38H-97c-17 25-51 100.3-51 201.5S-92 428-64 459z" fill="#C4C4C4"/></mask><g mask="url(#a)" fill-rule="evenodd" clip-rule="evenodd"><path d="M340.266 85.188v60.704c0 5.333-8 5.333-8 0v-40.657c0-5.334 8-5.334 8 0 0 5.333-8 5.333-8 0V85.188H-28.002l-.759 78.695H8v3.584a3.985 3.985 0 012-.535h552.839l11.057-10.122V85.188h-233.63zm213.833 89.744H9.999a3.975 3.975 0 01-2-.535v62.035h538.744l.255-23.5v-31.5l7.101-6.5zm-546.1 69.5v14.6h-36.76l1.26 87.164c5.963-6.776 12.623-6.776 19.98 0a35.01 35.01 0 013.083 3.236h551.436l22.543-10v-80.4h-23.043l.158-14.6H7.998zm407.593 214.055l128.209-.055 2.963-101H.817c2.965 5.754 5.192 12.753 6.681 21v65.52l.5 14.707 140-.06v50.654l-236.5-11.572c-27.183-1.33-50.066-20.79-55.746-47.406-65.343-306.194-59.985-480.997 16.073-524.41C9.912-152.952 22.06 25.577 89.219 10.632 156.377-4.313 97.988-179.3 239.434-193.584c141.447-14.282 105.503 82.499 153.91 152.765 48.407 70.266 81.069-97.27 218.771-96.773 153.056.552 148.328 108.803 148.328 211.624l-42.7 435.483c-1.509 15.392-14.831 26.891-30.279 26.135l-272.578-13.338.706-63.825zm-128.861.054l1.855-.001a4.001 4.001 0 013.074 3.882l1.079 429.214 34.131-50.428a4 4 0 116.625 4.484l-40.31 59.558 64.554-.036a4 4 0 11.004 8l-140.162.077a4 4 0 11-.004-8l66.56-.037-47.389-58.92a4.001 4.001 0 016.234-5.014l41.761 51.923-1.083-430.8a4.003 4.003 0 013.071-3.902zM-731.594-144.867l64.971-151.203 24.952-9.598-54.008 133.577 88.12-126.269a4 4 0 016.56 4.579l-82.021 117.53 130.954-114.738a4 4 0 115.272 6.017l-137.429 120.411L-477.501-313l122.563 259.542-278.846 71.526c-13.982 22.384-22.604 34.838-26.378 38.005-4.699 3.943-10.151 6.738-16.098 7.527-7.841 1.04-15.665-1.567-22.976-8.328-8.964-8.29-13.237-18.032-12.662-28.934-11.488.806-21.802-2.938-30.689-11.157-9.7-8.97-13.87-19.179-12.202-30.266l-16.807-18.523a40.001 40.001 0 01-5.933-45.198c12.1-23.487 24.501-42.169 37.234-56.05a240.13 240.13 0 008.701-10.011zm679.414 974.14l-277.376 2.69 6.498 66.97h76.917a4 4 0 010 8h-59.65c12.119 3.327 20.881 6.869 26.359 10.688 10.699 7.458 9.883 16.994-1.561 25.129-10.649 7.57-21.28 8.095-30.993 1.324-8.699-6.064-16.544-17.91-23.774-35.545l-117.461 19.926a50.998 50.998 0 00-39.06 31.945l-2.158 5.6h384.308l93.25-81.949-35.3-54.778zm-285.406 2.767l-92.68.899-56.833-59.67 102.614-183.906a4 4 0 00-6.986-3.898l-101.405 181.738-.045-.047-.325.711-30.471 54.609-50.805 148.816a4 4 0 01-3.786 2.708h-465.962c-2.81 0-4.74-2.818-3.73-5.438l4.25-11.038a59.005 59.005 0 0145.188-36.956l105.87-17.96c-17.3-4.977-29.209-9.987-35.864-15.165-10.295-8.008-8.98-17.488 2.874-25.013 11.03-7.003 21.674-6.97 31.02.3 8.328 6.479 15.513 18.632 21.789 36.478l50.975-66.269h-75.104l169.906-309.641a4 4 0 006.564-.858l199.13-395.316a4 4 0 00-7.144-3.599l-199.131 395.316a3.977 3.977 0 00-.409 1.41l-102.331-107.439 197.888-392.721 189.371 2.1 197.806-2.1V225.75l-90.057 196.944 275.258 381.428c.97.245 1.828.849 2.383 1.711l9.578 14.864 6.119 8.478-.65.007 34.432 53.433a4 4 0 01-.722 5.171l-96.972 85.219a4 4 0 01-2.64.995h-391.644c-2.808 0-4.742-2.818-3.732-5.438l4.253-11.038a58.997 58.997 0 0145.187-36.956l105.868-17.96c-17.301-4.976-29.209-9.987-35.865-15.165-10.295-8.008-8.98-17.488 2.874-25.013 11.03-7.003 21.674-6.97 31.02.3 7.05 5.485 13.282 15.036 18.835 28.666l-5.759-59.356zm-198.156.899h-276.063l-50.763 65.994h72.427a4 4 0 010 8h-59.65c12.119 3.327 20.881 6.869 26.359 10.688 10.699 7.458 9.883 16.994-1.561 25.129-10.649 7.57-21.28 8.095-30.993 1.324-8.699-6.064-16.544-17.91-23.774-35.546l-117.464 19.927a50.99 50.99 0 00-39.056 31.945l-2.16 5.6h457.271l45.427-133.061zm-363.833 36.105c-6.559-5.102-13.528-5.124-21.819.14-7.467 4.74-7.861 7.58-2.25 11.944 6.634 5.162 20.544 10.589 41.512 16.078-5.358-13.936-11.229-23.328-17.443-28.162zm48.164 68.467c6.817 4.752 13.778 4.409 21.782-1.281 7.209-5.125 7.454-7.981 1.622-12.046-6.896-4.808-21.07-9.499-42.297-13.884 6.08 13.637 12.435 22.709 18.893 27.211zm495.836-68.467c-6.559-5.102-13.528-5.124-21.819.14-7.467 4.74-7.861 7.58-2.25 11.944 6.634 5.162 20.544 10.589 41.513 16.078-5.359-13.936-11.23-23.328-17.444-28.162zm48.164 68.467c6.817 4.752 13.778 4.409 21.782-1.281 7.209-5.125 7.454-7.981 1.622-12.046-6.896-4.808-21.07-9.499-42.297-13.884 6.08 13.637 12.435 22.709 18.893 27.211zM147.998 763H-13.616c-23.953 0-44.075-18.014-46.714-41.822-3.441-31.046 6.332-55.293 29.32-72.741 48.685-36.95 73.893 14.299 93.66 9.196 19.766-5.103-7.99-70.001 26.757-91.743 34.747-21.741 43.937 22.068 57.208 44.414a22.55 22.55 0 001.383 2.081V763zm265.121-80.944c1.641-.272 3.341-1.595 5.203-4.297 13.087-18.994 22.15-56.233 56.418-37.752 34.267 18.481 39.59 77.345 59.083 81.683 19.494 4.337 52.84-58.902 100.853-27.493 25.842 16.905 31.091 44.888 15.749 83.947a47 47 0 01-43.809 29.817l-194.887-.26 1.39-125.645zM-498.454-448.045c2.795-.48 5.299-2.988 7.606-8.13a4 4 0 017.299 3.275c-2.819 6.282-6.539 10.439-11.105 12.112l30.545 58.319c22.631 19.556 43.217 22.975 62.643 10.836 20.204-12.625 43.286-21.243 69.22-25.861l-86.821-147.749a32.95 32.95 0 00-4.948-6.45l-39.56 20.107-58.076 12.722a46.105 46.105 0 00-.055 24.004 58.809 58.809 0 019.697-6.972c5.947-3.433 12.205-5.741 18.758-6.912 8.155-1.458 15.948 3.971 17.406 12.126a15 15 0 01-3.299 12.309c-4.291 5.089-9.418 9.355-15.365 12.788-5.947 3.433-12.205 5.741-18.758 6.913a14.957 14.957 0 01-11.424-2.607l-15.572 24.8 35.006-11.43a4 4 0 014.785 1.947l2.018 3.853zm-22.14-26.13c-1.209-3.588.01-7.564 3.181-9.546 3.747-2.341 8.801-1.012 11.288 2.969a8.797 8.797 0 011.331 5.394 51.841 51.841 0 006.285-3.091c5.151-2.974 9.561-6.643 13.249-11.017a6.999 6.999 0 00-6.583-11.403c-5.632 1.007-11.015 2.992-16.166 5.965-5.151 2.974-9.562 6.644-13.25 11.018a7 7 0 00.665 9.711zm-9.306.212a15.016 15.016 0 01-.773-2.771 15 15 0 012.672-11.513c-9.176-25.142 1.452-53.81 25.81-66.568a54.253 54.253 0 0110.909-4.284l32.99-8.985c17.852-4.862 36.749 2.835 46.123 18.788l89.771 152.771c1.433 2.438-.048 5.553-2.844 5.98-27.257 4.166-51.24 12.734-71.985 25.696-22.855 14.282-47.393 10.055-72.709-12.086a3.989 3.989 0 01-.91-1.155l-35.144-67.1-42.296 13.81c-3.557 1.162-6.619-2.761-4.63-5.929l23.016-36.654zm83.414 19.193a4 4 0 01-1.252-7.901c12.547-1.987 21.106-13.769 19.119-26.315-1.987-12.546-13.768-21.106-26.315-19.119a4 4 0 01-1.251-7.902c16.91-2.678 32.789 8.859 35.468 25.769 2.678 16.91-8.859 32.79-25.769 35.468zm81.805 306.124a4.001 4.001 0 01-7.879 1.389l-6.139-34.818a4 4 0 117.878-1.39l6.14 34.819zm32.727 112.405a4 4 0 01-7.309 3.253c-13.838-31.089-4.951-60.833 26.03-88.409a4 4 0 115.319 5.975c-28.546 25.408-36.349 51.527-24.04 79.18zm5.823-133.955a4 4 0 01-7.965.753l-5.808-61.444a4 4 0 017.965-.752l5.808 61.443zm-346.107 60.951l-74.252 93.406a7.71 7.71 0 01-.048.06c-.013.1-.031.2-.052.301-1.914 8.967 1.109 17.086 9.435 24.785 8.387 7.757 17.965 10.545 29.117 8.482a3.96 3.96 0 012.424.308l54.584-75.986c.856-13.783-.566-24.533-4.153-32.23-3.101-6.653-8.767-13.043-17.055-19.126zm-5.938-5.387l-14.429-33.684a14 14 0 00-4.75-5.892c-6.299-4.484-15.04-3.013-19.524 3.286-5.034 7.072-10.875 14.229-17.52 21.474-12.204 13.304-24.222 31.408-36.019 54.306a32 32 0 004.747 36.158l14.583 16.073 72.912-91.721zm31.791 63.989l-55.212 76.861a3.986 3.986 0 01-2.347 1.564c-.138 8.075 3.196 15.195 10.14 21.617 5.593 5.172 11.054 6.991 16.492 6.27 4.252-.564 8.38-2.68 12.008-5.724 3.81-3.197 16.787-22.79 37.848-57.424-.728-10.964-2.308-18.998-4.639-24-2.123-4.554-6.899-10.987-14.29-19.164zm-65.772-82.77a4 4 0 11-3.044-7.398c9.757-4.015 18.126-.447 23.857 9.78 5.775 10.306 4.397 19.027-4.431 24.268a4 4 0 01-4.084-6.879c4.738-2.813 5.349-6.675 1.536-13.478-3.857-6.883-8.052-8.672-13.834-6.293zm28.357 56.6a4 4 0 11-3.044-7.399c9.757-4.015 18.126-.446 23.857 9.78 5.775 10.306 4.397 19.027-4.431 24.268a4 4 0 11-4.084-6.879c4.738-2.813 5.349-6.674 1.536-13.478-3.857-6.883-8.052-8.672-13.834-6.293zm28.446 53.634a4 4 0 11-3.044-7.399c9.757-4.015 18.126-.446 23.857 9.78 5.775 10.306 4.397 19.027-4.431 24.268a4 4 0 01-4.084-6.879c4.738-2.813 5.349-6.674 1.536-13.478-3.857-6.883-8.052-8.672-13.834-6.292zm856.852 322.395c0-5.333 8-5.333 8 0v30.672c0 5.333-8 5.333-8 0v-61.344c0-5.333 8-5.333 8 0v30.672c0 5.333-8 5.333-8 0z" fill="#212121"/><path d="M-520.794-281.61l-25.151-4.425c.35-.774.493-1.426.43-1.957-.119-.995-.354-2.472-1.779-3.357-1.93-1.199-3.729-.532-5.941 1.431-.484.429-1.317 1.149-2.497 2.159l-44.576-7.867a4.157 4.157 0 00-.345-2.116 3.935 3.935 0 00-.506-.83l22.345-46.347a42.997 42.997 0 0124.185-21.79l206.913-74.394 122.007 53.957a47 47 0 0124.867 26.138L-61.395 2.184l-175.402 34.744-22.132-14.64h-377.544l2.693-4.242 211.869-54.125c9.186 7.096 18.32 13.444 25.909 17.751 29.969 17.01 72.522 31.843 92.423 13.137 8.788-8.261 16.591-19.95 23.408-35.065a82 82 0 006.165-47.01l-26.17-159.239c-1.378-8.386-9.293-14.067-17.679-12.689a15.385 15.385 0 00-8.845 4.783c-3.63 3.958-6.829 10.346-9.598 19.166-4.019-8.904-14.495-12.864-23.399-8.845a17.675 17.675 0 00-5.014 3.402c-3.07 2.966-5.407 6.174-7.012 9.624-4.175 8.974-5.814 23.954-4.918 44.938l-54.184-32.49a8.273 8.273 0 00-2.634-1.021L-477.502-313l-43.292 31.39zm492.792 526.043h617v21h-617v63h617v21h-636v-105h19zm597.543-77.244H-47.002v-20.756H569.54V85.189H-47.002V64.433h636v103h-19.457v-.244zM7.998 187.933v-13h581v13h-307v35.5h307v13h-581v-48.5zm539 190.5v84h-562v-21h153v-63h-153v-21h562v21z" fill="#7B61FF"/></g></svg>