<svg width="320" height="171" fill="none" xmlns="http://www.w3.org/2000/svg"><mask id="a" maskUnits="userSpaceOnUse" x="0" y="0" width="320" height="171"><path d="M31.294 171h227.814c15.957-7.141 50.033-35.131 58.676-89.97C326.427 26.19 301.02 4.16 287.235 0L84.941 14.157H19C12.667 23.47 0 51.524 0 89.226 0 126.927 20.863 159.45 31.294 171z" fill="#C4C4C4"/></mask><g mask="url(#a)" fill-rule="evenodd" clip-rule="evenodd"><path d="M181.901 31.737v22.615c0 1.987-2.981 1.987-2.981 0V39.206c0-1.987 2.981-1.987 2.981 0 0 1.986-2.981 1.986-2.981 0v-7.469H44.703l-.283 29.318h13.694v1.335c.22-.127.474-.2.746-.2h205.959l4.12-3.77V31.737h-87.038zm79.663 33.434H58.86c-.272 0-.526-.072-.745-.199v23.111h200.708l.095-8.755V67.593l2.646-2.422zM58.114 91.063v5.44H44.42l.469 32.472c2.222-2.524 4.703-2.524 7.444 0 .401.371.784.772 1.148 1.206h205.437l8.399-3.725V96.503h-8.585l.059-5.44H58.114zm151.849 79.746l47.764-.02 1.104-37.627H55.439c1.105 2.143 1.934 4.751 2.49 7.823v24.409l.185 5.479 52.157-.022v18.871l-88.108-4.311A22.353 22.353 0 011.395 167.75C-22.948 53.678-20.952-11.445 7.383-27.618c51.444-29.364 55.97 37.147 80.99 31.58 25.02-5.568 3.267-70.76 55.963-76.08 52.696-5.322 39.305 30.734 57.339 56.911 18.034 26.178 30.202-36.237 81.502-36.052 57.021.205 55.26 40.534 55.26 78.84L322.529 189.82a10.803 10.803 0 01-11.28 9.736L209.7 194.587l.263-23.778zm-48.007.02h.691a1.492 1.492 0 011.146 1.446l.401 159.904 12.716-18.787a1.489 1.489 0 112.468 1.67l-15.017 22.188 24.049-.013a1.49 1.49 0 01.002 2.981l-52.218.028a1.49 1.49 0 11-.001-2.98l24.797-.014-17.655-21.951a1.49 1.49 0 112.323-1.868l15.558 19.344-.404-160.494a1.492 1.492 0 011.144-1.454zM-217.42-53.97l24.205-56.33 9.296-3.576-20.121 49.764 32.829-47.041a1.49 1.49 0 112.444 1.706l-30.557 43.785 48.787-42.745a1.49 1.49 0 111.964 2.241l-51.199 44.86 77.014-55.301 45.661 96.692-103.884 26.647c-5.209 8.339-8.421 12.979-9.827 14.159-1.751 1.468-3.782 2.51-5.997 2.803-2.921.388-5.836-.583-8.56-3.102-3.339-3.088-4.931-6.718-4.717-10.78-4.28.301-8.122-1.094-11.433-4.156-3.614-3.342-5.167-7.145-4.546-11.275l-6.261-6.901a14.902 14.902 0 01-2.211-16.839c4.508-8.75 9.128-15.71 13.872-20.881a89.027 89.027 0 003.241-3.73zM35.695 308.945l-103.336 1.002 2.42 24.95h28.656a1.49 1.49 0 110 2.98h-22.222c4.514 1.24 7.779 2.559 9.82 3.982 3.986 2.779 3.681 6.331-.582 9.362-3.967 2.82-7.928 3.016-11.546.493-3.241-2.259-6.164-6.672-8.857-13.242l-43.76 7.423a19.002 19.002 0 00-14.552 11.902l-.804 2.086H14.106l34.74-30.53-13.15-20.408zm-106.327 1.031l-34.528.335-21.174-22.23 38.23-68.514a1.49 1.49 0 10-2.603-1.452l-37.779 67.706-.017-.017-.121.265-11.351 20.344-18.928 55.441a1.49 1.49 0 01-1.41 1.009h-173.594a1.49 1.49 0 01-1.39-2.026l1.584-4.112a21.981 21.981 0 0116.834-13.768l39.442-6.691c-6.445-1.854-10.881-3.721-13.361-5.65-3.835-2.983-3.345-6.515 1.071-9.318 4.109-2.609 8.074-2.597 11.556.112 3.103 2.413 5.78 6.941 8.118 13.59l18.99-24.689h-27.979l63.298-115.356a1.49 1.49 0 002.445-.32l74.186-147.274a1.49 1.49 0 10-2.662-1.341l-74.185 147.274c-.086.17-.136.348-.153.526l-38.123-40.027 73.723-146.308 70.55.783 73.692-.783v76.618l-33.55 73.372 102.547 142.1c.361.092.68.317.887.638l3.569 5.537 2.28 3.159-.243.002 12.828 19.907c.4.62.285 1.439-.27 1.926l-36.126 31.748a1.49 1.49 0 01-.984.371h-145.906a1.49 1.49 0 01-1.391-2.026l1.585-4.112a21.98 21.98 0 0116.834-13.768l39.441-6.691c-6.445-1.854-10.882-3.721-13.361-5.65-3.835-2.983-3.346-6.515 1.07-9.318 4.11-2.609 8.075-2.597 11.557.112 2.627 2.043 4.948 5.601 7.017 10.679l-2.145-22.113zm-73.823.335h-102.848l-18.911 24.586h26.982a1.49 1.49 0 110 2.98h-22.222c4.515 1.24 7.779 2.559 9.82 3.982 3.986 2.779 3.682 6.331-.582 9.362-3.967 2.82-7.927 3.016-11.546.493-3.241-2.259-6.163-6.672-8.857-13.242l-43.761 7.423a19.002 19.002 0 00-14.552 11.902l-.804 2.086h170.357l16.924-49.572zm-135.546 13.451c-2.443-1.901-5.04-1.909-8.129.052-2.782 1.766-2.928 2.824-.838 4.45 2.472 1.923 7.654 3.945 15.466 5.99-1.997-5.192-4.184-8.691-6.499-10.492zm17.943 25.507c2.54 1.771 5.134 1.643 8.116-.477 2.685-1.909 2.776-2.973.604-4.488-2.569-1.791-7.85-3.539-15.758-5.172 2.265 5.08 4.632 8.46 7.038 10.137zm184.724-25.507c-2.444-1.901-5.04-1.909-8.13.052-2.78 1.766-2.928 2.824-.837 4.45 2.472 1.923 7.653 3.945 15.465 5.99-1.996-5.192-4.183-8.691-6.498-10.492zm17.943 25.507c2.54 1.771 5.133 1.643 8.115-.477 2.686-1.909 2.777-2.973.604-4.488-2.569-1.791-7.85-3.539-15.758-5.172 2.266 5.08 4.633 8.46 7.04 10.137zm169.662-65.014H50.062c-8.924 0-16.42-6.711-17.403-15.58-1.282-11.567 2.359-20.6 10.923-27.1 18.138-13.766 27.529 5.327 34.893 3.426 7.364-1.901-2.977-26.079 9.968-34.179 12.945-8.099 16.369 8.222 21.313 16.546.175.296.347.554.515.776v56.111zm98.771-30.155c.611-.101 1.245-.594 1.938-1.601 4.876-7.076 8.252-20.95 21.019-14.065 12.766 6.885 14.749 28.815 22.011 30.431 7.262 1.616 19.686-21.943 37.573-10.242 9.627 6.298 11.583 16.723 5.867 31.274a17.51 17.51 0 01-16.321 11.108l-72.605-.096.518-46.809zm-339.606-421.018c1.042-.179 1.974-1.114 2.834-3.029a1.489 1.489 0 112.719 1.22c-1.05 2.341-2.436 3.889-4.137 4.512l11.379 21.727c8.431 7.285 16.101 8.559 23.338 4.037 7.527-4.703 16.126-7.914 25.788-9.635l-32.345-55.043a12.313 12.313 0 00-1.843-2.403l-14.738 7.49-21.637 4.74a17.176 17.176 0 00-.02 8.943 21.921 21.921 0 013.612-2.597 21.44 21.44 0 016.989-2.576 5.588 5.588 0 015.255 9.103 21.44 21.44 0 01-5.724 4.765c-2.216 1.279-4.547 2.139-6.988 2.575a5.57 5.57 0 01-4.256-.971l-5.802 9.239 13.042-4.258a1.49 1.49 0 011.782.725l.752 1.436zm-8.248-9.735c-.45-1.337.004-2.818 1.185-3.556 1.396-.872 3.279-.377 4.206 1.106.393.63.551 1.337.495 2.009a19.363 19.363 0 002.342-1.151 18.46 18.46 0 004.936-4.105 2.608 2.608 0 00-2.453-4.248 18.467 18.467 0 00-6.023 2.223c-1.919 1.108-3.562 2.474-4.936 4.104a2.612 2.612 0 00.248 3.618zm-3.467.079a5.593 5.593 0 01.707-5.322c-3.418-9.366.542-20.047 9.616-24.799a20.188 20.188 0 014.064-1.596l12.29-3.348a15.276 15.276 0 0117.184 7l33.444 56.914a1.49 1.49 0 01-1.06 2.228c-10.154 1.552-19.09 4.744-26.818 9.573-8.514 5.321-17.656 3.746-27.088-4.502a1.508 1.508 0 01-.339-.43l-13.092-24.999-15.758 5.145c-1.325.433-2.466-1.028-1.724-2.209l8.574-13.655zm31.076 7.15a1.49 1.49 0 11-.466-2.943 8.568 8.568 0 007.122-9.804 8.568 8.568 0 00-9.803-7.123 1.489 1.489 0 11-.467-2.943c6.3-.998 12.216 3.3 13.214 9.6.998 6.3-3.3 12.216-9.6 13.213zm30.476 114.046a1.49 1.49 0 01-2.935.518l-2.287-12.972a1.49 1.49 0 112.935-.517l2.287 12.971zM-68.534-13.5a1.49 1.49 0 11-2.723 1.212c-5.155-11.582-1.845-22.663 9.697-32.937A1.49 1.49 0 11-59.578-43c-10.635 9.466-13.542 19.197-8.956 29.5zm2.169-49.905a1.49 1.49 0 11-2.967.28l-2.164-22.89a1.49 1.49 0 012.967-.28l2.164 22.89zm-128.942 22.707L-222.969-5.9a2.854 2.854 0 01-.018.022 1.461 1.461 0 01-.02.112c-.712 3.34.414 6.365 3.515 9.234 3.125 2.89 6.693 3.928 10.848 3.16a1.47 1.47 0 01.903.115l20.335-28.31c.319-5.134-.211-9.139-1.547-12.006-1.155-2.479-3.266-4.86-6.354-7.126zm-2.212-2.007l-5.376-12.548a5.215 5.215 0 00-9.043-.971c-1.875 2.634-4.051 5.3-6.527 8-4.547 4.956-9.024 11.7-13.419 20.232a11.921 11.921 0 001.769 13.47l5.433 5.988 27.163-34.17zm11.844 23.84l-20.57 28.634a1.482 1.482 0 01-.874.582c-.051 3.009 1.191 5.661 3.778 8.054 2.083 1.927 4.118 2.605 6.144 2.336 1.584-.21 3.122-.999 4.473-2.133 1.42-1.19 6.255-8.49 14.101-21.393-.272-4.085-.86-7.078-1.729-8.94-.79-1.697-2.57-4.094-5.323-7.14zm-24.504-30.836a1.49 1.49 0 11-1.134-2.757c3.635-1.495 6.753-.166 8.888 3.644 2.152 3.84 1.638 7.088-1.651 9.041a1.49 1.49 0 11-1.521-2.563c1.765-1.048 1.993-2.486.572-5.021-1.437-2.564-3-3.23-5.154-2.344zm10.565 21.086a1.49 1.49 0 01-1.134-2.756c3.635-1.496 6.753-.167 8.888 3.643 2.151 3.84 1.638 7.088-1.651 9.041a1.49 1.49 0 01-1.522-2.563c1.766-1.048 1.993-2.486.573-5.021-1.437-2.564-3-3.23-5.154-2.344zm10.597 19.981a1.49 1.49 0 11-1.134-2.756c3.635-1.496 6.753-.167 8.888 3.643 2.152 3.84 1.638 7.089-1.651 9.041a1.49 1.49 0 11-1.521-2.562c1.765-1.049 1.993-2.487.572-5.022-1.437-2.564-3-3.23-5.154-2.344zm319.22 120.108c0-1.987 2.98-1.987 2.98 0V122.9c0 1.987-2.98 1.987-2.98 0v-22.854c0-1.987 2.98-1.987 2.98 0v11.427c0 1.987-2.98 1.987-2.98 0z" fill="#212121"/><path d="M-138.888-104.913l-9.37-1.649c.13-.288.183-.531.16-.729-.045-.371-.132-.921-.663-1.25-.719-.447-1.389-.199-2.213.532-.181.16-.491.429-.931.805l-16.606-2.931a1.539 1.539 0 00-.317-1.098l8.324-17.266a16.024 16.024 0 019.01-8.118l77.086-27.715 45.453 20.102a17.508 17.508 0 019.265 9.737L32.26.814l-65.346 12.944-8.245-5.454h-140.653l1.003-1.58 78.932-20.165c3.422 2.644 6.824 5.009 9.652 6.613C-81.232-.49-65.38 5.035-57.965-1.934c3.274-3.077 6.18-7.432 8.72-13.063a30.55 30.55 0 002.297-17.513l-9.75-59.325a5.733 5.733 0 00-9.881-2.945c-1.352 1.474-2.544 3.854-3.576 7.14a6.59 6.59 0 00-10.585-2.028c-1.143 1.105-2.014 2.3-2.612 3.586-1.555 3.343-2.166 8.924-1.832 16.741l-20.187-12.104a3.076 3.076 0 00-.981-.38l-16.408-34.782-16.128 11.694zM44.701 91.063h229.862v7.824H44.701v23.471h229.862v7.823H37.622V91.063h7.079zm222.614-28.777H37.622v-7.732h229.693V31.737H37.622v-7.732h236.941v38.372h-7.248v-.09zM58.113 70.014v-4.843h216.45v4.843H160.191V83.24h114.372v4.843H58.113V70.015zm200.803 70.971v31.294H49.543v-7.823h57.001v-23.471h-57v-7.823h209.372v7.823z" fill="#7B61FF"/></g></svg>