<svg width="576" height="508" fill="none" xmlns="http://www.w3.org/2000/svg"><mask id="a" maskUnits="userSpaceOnUse" x="0" y="53" width="414" height="414"><circle cx="207" cy="260" r="207" fill="#C4C4C4"/></mask><g mask="url(#a)"><path fill-rule="evenodd" clip-rule="evenodd" d="M1103.01 697.101c-.08-.19-.16-.378-.26-.563l-1.36-2.526 35.17-78.561a5.126 5.126 0 00-2.58-6.774 5.133 5.133 0 00-6.78 2.584l-31.95 71.364-36.01-66.812a5.12 5.12 0 00-6.94-2.081c-2.49 1.343-3.43 4.453-2.08 6.945l39.74 73.754-1 2.23c-.06.138-.11.277-.16.416L918.884 859.51l-2.409-1.256-139.714 174.516a5.133 5.133 0 01-6.169 1.44L310.58 819.702c-3.259-1.52-3.981-5.834-1.396-8.333l21.642-20.914a75.622 75.622 0 0152.551-21.243h159.249l80.762-63.768-211.381-110.21 422.629-409.592-282.761-49.858 14.765-83.737L398.974 8.122a5.125 5.125 0 01-3.827-5.05l7.372-422.377-187.001 69.098c-8.935 20.985-22.592 41.885-40.917 64.296C132.672-234.632 82.7-205.91 24.354-205.91c-54.384 0-105.339-29.942-149.487-79.85-37.307-42.173-54.308-77.933-54.308-125.227 0-44.052 15.069-89.293 40.56-124.285 37.467-51.431 96.385-80.793 163.235-80.793 39.675 0 78.322 16.461 117.525 45.8l56.698-88.026a128.174 128.174 0 0196.789-58.297l177.317-15.227a25.518 25.518 0 0121.401 8.636c9.27 10.613 8.181 26.732-2.432 36.003l-18.01 15.731a19.229 19.229 0 00-6.567 15.151c.371 10.612 9.274 18.914 19.886 18.544l31.763-1.11a24.267 24.267 0 0120.38 9.854c7.952 10.788 5.653 25.98-5.135 33.932l-23.413 17.259a19.216 19.216 0 00-7.706 13.399c-1.147 10.556 6.481 20.043 17.037 21.19l60.156 6.535a25.636 25.636 0 0121.278 16.6c4.907 13.28-1.881 28.023-15.161 32.93l-101.423 37.476 57.38 120.374 82.198 54.266 21.019-119.208L936.73-272.776l8.293-39.016a7.69 7.69 0 018.819-5.981l313.578 53.604c4.19.716 7 4.69 6.28 8.876-.02.153-.02.153-.05.304-8.63 40.028-16.72 77.545-24.27 112.55l.53.221 150.93 221.226c-25.25-13.231-56.61-8.617-76.98 12.167-15.11 15.411-26.98 29.594-35.63 42.548-15.28 22.9-26.69 40.003-34.23 51.309l65.54 13.237c.27-.582.66-1.122 1.15-1.586 9.35-8.717 19.66-22.006 30.86-39.839 11.63-18.501 29.86-40.942 54.7-67.387a5.13 5.13 0 017.25-.226 5.138 5.138 0 01.23 7.247c-24.44 26.004-42.27 47.966-53.49 65.822-10.26 16.327-19.89 29.102-28.94 38.345l58.58 11.83c.14-.475.35-.939.64-1.374 12.08-18.248 23.96-33.788 35.65-46.622 11.52-12.662 24.55-26.565 39.06-41.711a5.129 5.129 0 017.25-.154 5.121 5.121 0 01.16 7.249c-14.46 15.086-27.43 28.926-38.89 41.519-10.86 11.92-21.94 26.333-33.25 43.238l33.04 6.673c-10.84-4.181-15.56-11.961-12.47-22.01a5.125 5.125 0 016.41-3.392 5.133 5.133 0 013.39 6.408c-1.43 4.639.39 7.402 7.36 9.79 7.06 2.419 10.8 1.164 13.22-3.916a5.13 5.13 0 016.84-2.416 5.133 5.133 0 012.42 6.836c-3.43 7.177-9.11 10.826-16.32 10.892l14.59 2.947a5.135 5.135 0 011.76-5.197l67.1-54.257a5.127 5.127 0 016.45 7.973l-66 53.362 43.91 8.869-11.54 50.36v1.972l111.2 22.321-1.11-2.317 268.99 49.33-89.48 198.347 32.43 17.438c21.62 11.622 48.56 3.714 60.47-17.749 39.04-70.361 76.97-137.818 113.81-202.37 39.36-68.976 69-145.816 88.93-230.534 4.33-18.431-3.37-37.6-19.26-47.904l-100.07-64.917a5.123 5.123 0 01-1.51-7.091 5.124 5.124 0 017.09-1.511l100.07 64.917c19.52 12.66 28.98 36.209 23.66 58.853-20.14 85.656-50.14 163.417-90 233.269-36.82 64.515-74.74 131.936-113.75 202.263-14.63 26.368-47.73 36.084-74.29 21.806l-31.81-17.101-63.53 140.815c-12.39 27.456-40.86 44.009-70.85 41.195l-548.64-51.473zM902.57 851.005L633.354 710.64l-79.159 62.502 86.224 39.031a5.127 5.127 0 01-4.229 9.342l-92.89-42.049H383.377a65.373 65.373 0 00-45.426 18.362l-16.279 15.732 397.564 185.388c46.396-44.835 87.551-67.439 123.723-67.439a5.15 5.15 0 011.544.236l62.452-78.007-4.385-2.733zM568.426 41.915l53.948-305.955-87.096-57.499a5.131 5.131 0 01-1.804-2.073l-62.831-131.811a65.367 65.367 0 00-34.542-32.49l-21.974-8.869-5.278 302.37a5.125 5.125 0 015.007-.741c68.146 26.358 93.887 99.21 77.979 217.003l76.591 20.065zM1759.9-212.319c3.4.93 6.9 1.423 10.51 1.486 10.98.192 21.12-3.637 30.58-11.645-9.18-8.333-19.18-12.513-30.16-12.704-5.72-.1-11.22.894-16.52 3.006.97-.042 1.95.061 2.93.323 5.47 1.466 8.64 7.365 7.09 13.177-.73 2.706-2.35 4.916-4.43 6.357zm-15.76-7.975c-.07-1.205.05-2.449.38-3.689.44-1.641 1.21-3.1 2.21-4.315a56.92 56.92 0 00-6.47 4.76 59.741 59.741 0 003.88 3.244zm-7.88-56.998l-19.88 8.85c-6.16 6.669-10.95 14.765-13.82 23.959l-32.62 104.755c21.5 14.09 44.15 24.498 67.94 31.235 23.88 6.757 52.6 9.407 86.18 7.909l4.03-41.183c.32-3.266 3.59-5.394 6.71-4.37 1.17.386 2.38.7 3.61.939 15.98 3.107 31.46-7.331 34.56-23.313 3.11-15.982-7.33-31.456-23.31-34.563-3.09-.6-6.19-.705-9.24-.328-2.97.366-5.56-1.863-5.75-4.735-17.73-19.74-30.98-34.282-39.74-43.626a5685.897 5685.897 0 01-29.68-31.958c-30.5 13.588-49.61 41.496-57.44 84.307l28.24 5.49a5.126 5.126 0 11-1.95 10.065l-33.16-6.446a5.127 5.127 0 01-4.09-5.837c5.72-35.994 18.88-63.13 39.41-81.15zm63.81-12.611c28.09 14.163 46.23 43.624 45.21 76.048 2.11.068 4.23.306 6.34.715 21.54 4.188 35.61 25.045 31.42 46.586-4.11 21.117-24.23 35.053-45.32 31.648l-3.37 34.375c39.12-6.032 70.15-25.167 87.48-57.293 26.76-49.601 38.15-95.847 36.91-138.857-.95-33.111-9.17-62.249-22.51-88.692-10.79-21.386-42.78-48.093-79.12-64.258-43.31-19.264-87-22.03-123.16-4.105-40.77 20.205-84.7 66.024-111.2 116.642-29.38 56.124-33.86 109.863-8.21 148.514 10.75 16.21 26.73 31.391 46.01 44.503l32.22-103.455c8.36-26.837 30.87-45.628 57.02-50.315-12.93-9.642-17.08-27.588-9.07-42.106a32.767 32.767 0 0119.73-15.696c-7.42-8.374-9.3-20.789-3.79-31.278a27.71 27.71 0 0129.28-14.397l19.98 3.481c14.33 2.498 23.93 16.146 21.43 30.483 0 .03-.01.06-.01.09-1.7 9.54-8.07 17.117-16.38 20.728 9.5 6.888 14.69 18.875 12.33 31.16-.01.033-.02.065-.02.097-2.45 12.509-11.69 22.03-23.2 25.382zm85.65-284.87l-33.5 111.977c3.02 1.189 6.04 2.455 9.05 3.796 38.34 17.051 72.14 45.267 84.11 69.008 13.98 27.714 22.62 58.296 23.61 93.017 1.29 44.839-10.53 92.86-38.13 144.02-28.61 53.03-90.55 73.337-163.86 61.485-66.79-10.798-131.6-47.128-161.01-91.441-28.06-42.295-23.27-99.831 7.68-158.939 27.45-52.446 72.9-99.851 115.72-121.074 33.91-16.804 73.46-16.871 113.18-3.406l33.3-111.291c-2.62-1.412-4.84-3.251-6.18-5.307-5.1-7.775 3.45-20.623 10.73-24.284 7.29-3.661 16.53 2.471 18.41 6.252 1.88 3.782 3.93 10.88-1.32 20.679-2.28 4.269-6.89 5.792-11.79 5.508zm-115.49 374.192c-15.36-.268-29.15-6.871-41.14-19.566a5.125 5.125 0 01.13-7.169c12.42-12.269 26.43-18.387 41.79-18.119 15.36.268 29.15 6.871 41.14 19.566a5.126 5.126 0 01-.12 7.17c-12.43 12.269-26.44 18.386-41.8 18.118zm-58.77 28.056a5.122 5.122 0 01-1.01-7.179 5.126 5.126 0 017.18-1.014c5.36 4.039 12.75 5.236 22.49 3.362a5.12 5.12 0 016 4.065 5.12 5.12 0 01-4.06 6.004c-12.38 2.382-22.69.713-30.6-5.238zM729.205 1003.6l42.069 19.61 64.978-81.159c-30.796 2.614-66.544 23.035-107.047 61.549zM481.84 19.231c15.009-112.865-9.134-180.627-71.683-204.821a5.118 5.118 0 01-1.447-.853L405.469-.776 481.84 19.23zM24.354-216.164c54.929 0 102.177-27.156 142.309-76.238 34.207-41.835 51.233-77.627 51.233-118.585 0-58.641-26.172-107.078-74.871-145.467-40.139-31.641-79.178-49.357-118.67-49.357-63.604 0-119.43 27.821-154.948 76.577-24.227 33.257-38.595 76.39-38.595 118.247 0 44.439 15.944 77.973 51.735 118.434 42.385 47.913 90.844 76.389 141.807 76.389zm245.281 333.009l-29.988 143.852 85.169 62.085-108.623 12.811-84.953 98.736 14.135-122.664-80.734-66.729 113.902-.517 91.092-127.574zm-340.14 558.163l85.828 113.997 91.724-14.398-59.723 75.471 8.51 114.101-67.539-84.935-91.85 8.758 70.665-71.12-37.614-141.874zM2223.62-624.05l99.51 127.427 107.95-17.304-71.07 85.738 8.66 128.455-78.36-94.899-108.03 10.951 83.87-80.964-42.53-159.404zm302.4 638.167l-36.99 137.816 67.81 63.415-96.24-.598-84.67 76.954 25.35-105.513-63.45-66.986 99.55 11.899 88.64-116.987zm-92.31 787.647a82.973 82.973 0 00-8.07-7.36c92.31-47.755 163.37-85.536 178.42-95.721 46.61-31.529 48.84-88.295 3.8-117.491-30.55-19.796-99.54-7.439-205.86 38.142l-56.54 29.778c24.67 16.877 43.27 36.01 51.43 51.852 11.32 21.958 23.13 52.706 26.14 91.452-13.75-10-31.36-15.545-53.35-10.717-68.29 14.995-88.92 65.356-155.8 36.316-66.88-29.04-72.37-71.506-141.48-57.196-23.18 4.801-41.08 8.409-53.69 10.823 29.54-65.559 86.26-125.804 138.21-151.004 59.37-28.799 128.97-8.737 178.7 22.068l61.78-32.539c.12-.064.24-.122.37-.176 109.57-46.992 181.08-59.817 215.67-37.404 51.44 33.341 48.84 99.087-3.63 134.589-15.11 10.226-85.03 47.439-176.1 94.588zm-16.63 68.254c-6.36 28.341-17.72 59.305-35.99 92.73-53.69 98.232-208.4 80.532-303.35 19.655-101.04 50.277-180.66 88.787-197.22 94.427-50.26 17.13-92.45-21.4-101.12-82.771-5.58-39.477 55.09-89.924 181.76-154.13l32.36-17.041-.42 6.021c43.98-21.257 77.07-28.215 99.29-20.872 33.32 11.014 124.57 81.994 182.33 62.177 55.24-18.954 123.83-48.777 142.36-.196zm-349.12 105.809c-20.35-14.339-37.39-30.73-49.3-48.345-19.21-28.393-23.77-62.025-18.26-96.628l-34.5 18.167-.07.036c-122.24 61.958-180.91 110.743-176.28 143.568 3.71 26.225 14.46 48.925 29.81 62.935 16.01 14.61 35.95 19.03 57.85 11.57 15.96-5.44 92.66-42.52 190.75-91.303zm334.22-356.588l-.37.176c.06-.027.13-.054.19-.081l.18-.095zM1375.11-547.294l8.38 3.872c.2-.013.4-.015.6-.005 13.96-1.735 21.5-7.428 23.77-17.238 2.35-10.194-2.36-18.888-15.23-26.811-.31-.196-.6-.421-.86-.67l-93.32-42.708a5.163 5.163 0 01-2.19-1.905c-12.54-.164-19.61 4.893-22.51 15.892-3.18 12.013.85 20.998 12.84 28.128.8.476 1.4 1.1 1.81 1.801a5.13 5.13 0 011.94.47l82.72 38.224c-9.11-5.874-11.07-15.279-5.95-26.305 5.26-11.315 13.76-15.699 23.83-11.403a5.113 5.113 0 012.7 6.727 5.12 5.12 0 01-6.72 2.704c-4.47-1.905-7.41-.391-10.51 6.291-3.14 6.771-2.28 10.62 2.51 13.564a5.122 5.122 0 011.69 7.051 5.13 5.13 0 01-5.5 2.321zm6.69 14.386l-95.76-44.252a5.127 5.127 0 01-2.17-1.886c-12.8 3.165-20.37 10.492-23.37 22.439-2.13 8.509-1.49 15.891 1.82 22.375a23.13 23.13 0 0010.86 10.426l27.37 12.652c.3.061.6.151.89.27l56.62 22.834c14.85 1.221 24.33-3.462 29.56-14.18 5.01-10.279 3.24-20.226-5.82-30.678zm-61.97 40.497l-9.84 84.781 123.79-19.485c18.21-2.868 32.28-17.539 34.37-35.86l28.9-252.907c-18.64-15.471-18.05-35.381 1.18-57.274a16.643 16.643 0 00-14.55-5.696c-17.61 2.026-27.92 11.149-31.84 28.136-1.51 6.54-8.72 33.336-21.7 80.668a5.122 5.122 0 01-5.96 3.67l-54.39-10.983 40.94 21.332c.14.074.28.153.41.239 16.2 10.454 22.95 23.942 19.32 39.664-2.97 12.852-11.52 21.325-24.99 25.242 10.91 9.125 15.25 20.106 12.38 32.525-2.81 12.16-11.22 20.054-24.53 23.585 8.33 11.99 9.62 24.529 3.52 37.039-7.31 14.987-21.19 21.644-40.47 19.83a5.11 5.11 0 01-1.43-.35l-35.11-14.156zm13.94-192.225l-17.76-3.586c-.11-.023-.23-.03-.34-.023-17.39 1.095-26.59 7.285-29.09 18.683-2.44 11.17 1.54 20.012 12.6 27.416.64.427 1.13.94 1.5 1.503a5.1 5.1 0 012.04.465l90.45 41.395c.41-.169.85-.285 1.32-.341 15.13-1.813 23.4-8.143 25.97-19.309 2.57-11.108-2.03-20.384-14.68-28.614l-71.36-37.183c-.23-.12-.45-.256-.65-.406zm168.48-77.291c-10.06 13.101-11.21 23.765-3.72 33.093l3.61-31.573c.06-.505.1-1.012.11-1.52zm5.62 41.683a5.125 5.125 0 01.04 5.984c-.24.344-.52.648-.82.912l-28.75 251.537c-2.62 22.902-20.2 41.241-42.97 44.825l-130.45 20.534c-3.35.528-6.28-2.286-5.89-5.655l10.84-93.439-40.99-18.952a33.272 33.272 0 01-15.68-15.061c-4.5-8.791-5.36-18.714-2.64-29.541 3.21-12.82 10.79-21.917 22.39-27.04-9.45-8.809-12.61-20.122-9.12-33.346 3.07-11.594 10.05-19.035 20.41-22.029-7.56-8.454-10.21-18.659-7.68-30.239 3.6-16.42 16.91-25.366 38.47-26.725 1.01-.063 2.02.006 3.01.206l103.48 20.896c12.11-44.226 18.91-69.525 20.32-75.646 4.91-21.235 18.77-33.497 40.67-36.016 14.77-1.699 28.12 8.896 29.82 23.665.23 2.037.23 4.094 0 6.131l-4.46 38.999zm-114.06 105.756a5.128 5.128 0 01-6.53 7.908c-8.62-7.119-9.4-16.869-2.68-27.261 6.78-10.474 15.81-13.631 25.19-7.976a5.133 5.133 0 011.74 7.038 5.13 5.13 0 01-7.04 1.741c-4.16-2.508-7.28-1.417-11.28 4.768-4.06 6.268-3.74 10.199.6 13.782zm-35 111.614a5.126 5.126 0 011.19 7.152 5.126 5.126 0 01-7.15 1.192c-9.11-6.5-10.56-16.172-4.58-27.007 6.03-10.922 14.82-14.702 24.57-9.714a5.127 5.127 0 11-4.67 9.127c-4.32-2.211-7.36-.906-10.92 5.544-3.61 6.535-3.02 10.434 1.56 13.706zm-178.88 682.583c-4.49 20.832-7.37 34.228-8.66 40.188l319.38 62.665 8.9-35.769-319.62-67.084zm-96.66 22.922l77.63 15.23 8.72-40.317-304.539-63.918-8.307 39.083 226.496 49.922zm89.19-38.231l90.6-418.911-308.519-52.74-87.315 410.785L1172.46 164.4zm-98.3-271.416c8.09 3.904 15.09 9.938 17.86 15.449 7.42 14.754 7.91 32.198-3.06 52.57-6.83 12.688-21.3 17.45-37.9 14.766-14.77-2.387-29.09-10.432-35.81-20.589-6.72-10.153-5.6-23.504 1.38-36.86 6.02-11.528 15.96-21.924 25.58-26.704 3.8-1.889 7.86-2.89 12.05-3.094l-11.18-23.142a5.126 5.126 0 012.38-6.847 5.131 5.131 0 016.85 2.386l8.52 17.629 2.71-17.136a5.128 5.128 0 0110.13 1.604l-2.94 18.576 14.25-15.42a5.133 5.133 0 017.25-.284 5.119 5.119 0 01.28 7.245l-18.35 19.851zm-5.56 8.721c-7.88-3.508-15.62-3.995-21.83-.907-7.56 3.76-15.99 12.57-21.06 22.27-5.42 10.379-6.22 19.943-1.91 26.454 5 7.553 16.77 14.164 28.9 16.125 12.72 2.055 22.8-1.263 27.23-9.505 9.31-17.274 8.91-31.206 2.93-43.103-1.74-3.466-7.59-8.362-14.26-11.334zm246.55 270.83a5.128 5.128 0 016.6-3.003 5.12 5.12 0 013 6.599c-3.92 10.476-12.88 14.387-24.9 11.411-12.11-2.999-18.04-10.513-15.74-21.216a5.126 5.126 0 016.09-3.937 5.13 5.13 0 013.94 6.088c-1.02 4.746 1.02 7.341 8.18 9.112 7.24 1.795 10.86.218 12.83-5.054zm66.94 17.872a5.123 5.123 0 016.6-3.003 5.13 5.13 0 013 6.599c-3.92 10.475-12.89 14.387-24.9 11.411-12.11-2.999-18.04-10.513-15.74-21.216a5.12 5.12 0 016.08-3.937c2.77.594 4.54 3.32 3.94 6.088-1.02 4.746 1.03 7.341 8.18 9.112 7.25 1.795 10.86.218 12.84-5.054z" fill="#212121"/></g><mask id="b" maskUnits="userSpaceOnUse" x="0" y="53" width="414" height="414"><circle cx="207" cy="260" r="207" fill="#C4C4C4"/></mask><g mask="url(#b)"><path fill-rule="evenodd" clip-rule="evenodd" d="M1282.45 130.694a6.205 6.205 0 00-.26-.563l-1.36-2.526L1316 49.044a5.126 5.126 0 00-2.58-6.774 5.132 5.132 0 00-6.78 2.584l-31.95 71.364-36.01-66.812a5.12 5.12 0 00-6.94-2.081c-2.49 1.343-3.43 4.453-2.08 6.945l39.74 73.754-.99 2.23c-.07.138-.12.276-.17.416l-169.91 162.433-2.41-1.256-139.718 174.512a5.127 5.127 0 01-6.169 1.443L490.022 253.295c-3.259-1.52-3.982-5.835-1.396-8.333l21.641-20.914a75.622 75.622 0 0152.551-21.243h159.249l80.763-63.768-211.382-110.21 422.632-409.592-282.764-49.859 14.765-83.736-167.666-43.926a5.128 5.128 0 01-3.827-5.049l7.373-422.377-187.002 69.097c-8.935 20.985-22.592 41.886-40.916 64.297-41.93 51.279-91.902 80.001-150.247 80.001-54.385 0-105.34-29.943-149.487-79.85C17.002-894.34 0-930.101 0-977.394c0-44.056 15.07-89.296 40.56-124.286 37.467-51.43 96.386-80.79 163.236-80.79 39.674 0 78.321 16.46 117.525 45.8l56.698-88.03a128.191 128.191 0 0196.788-58.3l177.318-15.22c8.102-.7 16.05 2.51 21.4 8.63 9.27 10.62 8.182 26.74-2.432 36.01l-18.01 15.73a19.22 19.22 0 00-6.566 15.15c.37 10.61 9.273 18.91 19.885 18.54l31.763-1.11a24.26 24.26 0 0120.38 9.86c7.953 10.78 5.654 25.98-5.135 33.93l-23.413 17.26a19.22 19.22 0 00-7.706 13.4c-1.147 10.55 6.481 20.04 17.037 21.19l60.157 6.53a25.636 25.636 0 0121.277 16.6c4.907 13.28-1.881 28.02-15.161 32.93l-101.422 37.48 57.379 120.372 82.198 54.265 21.02-119.207 291.394 121.477 8.29-39.016a7.692 7.692 0 018.82-5.981l313.58 53.604c4.19.716 7 4.69 6.29 8.876l-.06.303c-8.63 40.029-16.72 77.545-24.27 112.551l.53.221 150.93 221.226c-25.24-13.232-56.61-8.617-76.98 12.167-15.11 15.411-26.98 29.593-35.63 42.547-15.27 22.901-26.68 40.004-34.22 51.31l65.53 13.237c.27-.582.66-1.122 1.15-1.586 9.35-8.717 19.66-22.006 30.87-39.839 11.62-18.501 29.85-40.942 54.69-67.388a5.132 5.132 0 017.25-.226c2.06 1.939 2.17 5.184.23 7.248-24.44 26.004-42.27 47.966-53.49 65.821-10.26 16.328-19.89 29.103-28.93 38.345l58.57 11.831c.14-.476.35-.939.64-1.374 12.08-18.248 23.96-33.788 35.65-46.623 11.53-12.661 24.55-26.564 39.06-41.71a5.127 5.127 0 017.25-.154 5.12 5.12 0 01.16 7.248c-14.46 15.086-27.42 28.927-38.89 41.52-10.85 11.92-21.94 26.333-33.25 43.237l33.04 6.674c-10.84-4.181-15.56-11.961-12.47-22.011a5.126 5.126 0 016.41-3.391 5.125 5.125 0 013.39 6.408c-1.43 4.639.39 7.402 7.36 9.79 7.06 2.419 10.8 1.163 13.22-3.916a5.13 5.13 0 016.84-2.417 5.125 5.125 0 012.42 6.836c-3.43 7.178-9.11 10.827-16.32 10.893l14.59 2.947a5.135 5.135 0 011.76-5.197l67.1-54.258a5.127 5.127 0 017.21.763 5.13 5.13 0 01-.76 7.211l-65.99 53.362 43.91 8.868-11.55 50.361v1.971l111.2 22.322-1.1-2.317 268.99 49.329L1969.7-9.212l32.43 17.438c21.62 11.622 48.57 3.713 60.47-17.75 39.04-70.36 76.98-137.817 113.81-202.369 39.36-68.977 69.01-145.816 88.93-230.534 4.33-18.432-3.37-37.6-19.26-47.904l-100.07-64.917a5.126 5.126 0 115.58-8.602l100.07 64.916c19.52 12.66 28.98 36.21 23.66 58.854-20.14 85.656-50.14 163.417-90 233.269-36.82 64.515-74.73 131.936-113.75 202.262-14.63 26.369-47.73 36.085-74.29 21.807l-31.81-17.1-63.53 140.813c-12.39 27.457-40.85 44.01-70.84 41.196l-548.65-51.473zm-200.44 153.903L812.796 144.233l-79.16 62.502 86.224 39.031a5.127 5.127 0 11-4.228 9.341l-92.89-42.048H562.818a65.369 65.369 0 00-45.425 18.362l-16.28 15.732 397.565 185.388c46.395-44.835 87.55-67.439 123.722-67.439.54 0 1.06.083 1.54.236l62.46-78.008-4.39-2.733zM747.868-524.492l53.948-305.955-87.097-57.5a5.126 5.126 0 01-1.803-2.072l-62.832-131.811a65.358 65.358 0 00-34.541-32.49l-21.975-8.87-5.277 302.371a5.124 5.124 0 015.007-.741c68.145 26.358 93.887 99.21 77.978 217.003l76.592 20.065zM1939.34-778.726c3.4.929 6.9 1.423 10.51 1.486 10.98.191 21.12-3.637 30.58-11.645-9.18-8.333-19.18-12.513-30.15-12.705-5.73-.1-11.23.895-16.53 3.007.97-.042 1.96.061 2.93.323 5.47 1.466 8.65 7.365 7.09 13.177-.73 2.706-2.35 4.915-4.43 6.357zm-15.75-7.976c-.08-1.204.04-2.448.37-3.689a11.44 11.44 0 012.21-4.314 56.8 56.8 0 00-6.47 4.76 57.003 57.003 0 003.89 3.243zm-7.88-56.997l-19.89 8.85c-6.16 6.668-10.95 14.765-13.82 23.959l-32.62 104.755c21.5 14.09 44.15 24.498 67.95 31.235 23.87 6.757 52.59 9.406 86.17 7.908l4.04-41.182c.32-3.266 3.58-5.394 6.7-4.371 1.17.387 2.38.701 3.61.94 15.98 3.107 31.46-7.331 34.57-23.313 3.1-15.982-7.34-31.457-23.32-34.563-3.08-.6-6.19-.705-9.24-.328-2.97.366-5.55-1.863-5.75-4.735-17.73-19.74-30.97-34.282-39.74-43.626a5721.083 5721.083 0 01-29.68-31.958c-30.5 13.587-49.61 41.495-57.44 84.307l28.24 5.489a5.126 5.126 0 11-1.95 10.066l-33.16-6.446a5.135 5.135 0 01-4.09-5.838c5.72-35.993 18.88-63.129 39.42-81.149zm63.8-12.611c28.09 14.163 46.23 43.623 45.21 76.047 2.12.069 4.23.307 6.34.716 21.54 4.187 35.61 25.044 31.42 46.586-4.1 21.117-24.23 35.052-45.31 31.648l-3.37 34.374c39.11-6.032 70.14-25.166 87.47-57.292 26.76-49.601 38.15-95.847 36.92-138.857-.95-33.111-9.18-62.249-22.52-88.692-10.79-21.386-42.78-48.093-79.12-64.26-43.31-19.26-87-22.03-123.16-4.1-40.77 20.201-84.7 66.02-111.2 116.639-29.38 56.124-33.86 109.863-8.21 148.514 10.75 16.21 26.73 31.391 46.01 44.503l32.22-103.455c8.36-26.837 30.87-45.628 57.02-50.315-12.93-9.642-17.08-27.588-9.07-42.106a32.767 32.767 0 0119.73-15.696c-7.42-8.374-9.3-20.789-3.78-31.278 5.59-10.646 17.42-16.462 29.27-14.398l19.98 3.482c14.33 2.498 23.93 16.146 21.43 30.483 0 .029-.01.059-.01.089-1.7 9.541-8.07 17.118-16.38 20.729 9.5 6.888 14.69 18.875 12.33 31.16-.01.032-.01.065-.02.097-2.45 12.509-11.69 22.029-23.2 25.382zm85.66-284.87l-33.51 111.98c3.02 1.19 6.04 2.45 9.06 3.79 38.33 17.05 72.13 45.27 84.1 69.011 13.99 27.714 22.62 58.296 23.61 93.017 1.29 44.839-10.53 92.86-38.13 144.019-28.61 53.031-90.54 73.338-163.86 61.486-66.79-10.798-131.6-47.128-161.01-91.441-28.06-42.296-23.27-99.832 7.68-158.939 27.45-52.446 72.9-99.853 115.72-121.073 33.91-16.8 73.46-16.87 113.18-3.41l33.3-111.29c-2.62-1.41-4.84-3.25-6.18-5.31-5.1-7.77 3.45-20.62 10.73-24.28 7.29-3.66 16.53 2.47 18.41 6.25 1.88 3.78 3.93 10.88-1.31 20.68-2.29 4.27-6.9 5.79-11.79 5.51zm-115.5 374.192c-15.36-.268-29.14-6.871-41.14-19.566a5.126 5.126 0 01.13-7.17c12.43-12.268 26.44-18.386 41.8-18.118 15.36.268 29.14 6.871 41.14 19.566a5.135 5.135 0 01-.13 7.17c-12.43 12.268-26.44 18.386-41.8 18.118zm-58.77 28.056a5.13 5.13 0 01-1.01-7.179 5.127 5.127 0 017.18-1.014c5.36 4.039 12.75 5.235 22.49 3.361a5.136 5.136 0 016.01 4.066 5.134 5.134 0 01-4.07 6.003c-12.38 2.383-22.69.714-30.6-5.237zM908.646 437.189l42.07 19.617 64.974-81.162c-30.793 2.614-66.54 23.034-107.044 61.545zM661.282-547.176c15.008-112.865-9.135-180.627-71.684-204.821a5.132 5.132 0 01-1.447-.853l-3.24 185.666 76.371 20.008zM203.796-782.571c54.928 0 102.176-27.156 142.308-76.238 34.207-41.835 51.233-77.627 51.233-118.585 0-58.646-26.172-107.076-74.87-145.466-40.14-31.64-79.179-49.36-118.671-49.36-63.604 0-119.43 27.82-154.947 76.58-24.228 33.26-38.595 76.39-38.595 118.246 0 44.439 15.943 77.972 51.735 118.433 42.384 47.914 90.843 76.39 141.807 76.39zm245.281 333.009L419.088-305.71l85.17 62.085-108.624 12.811-84.953 98.736 14.136-122.664-80.734-66.73 113.901-.516 91.093-127.574zm-340.14 558.163l85.828 113.997 91.723-14.398-59.723 75.471 8.511 114.101-67.539-84.935-91.85 8.758 70.665-71.121-37.615-141.873zM2403.07-1190.46l99.5 127.43 107.95-17.3-71.07 85.733 8.66 128.456-78.36-94.899-108.03 10.951 83.87-80.961-42.52-159.41zm302.39 638.169l-36.99 137.817 67.82 63.415-96.25-.598-84.67 76.954 25.35-105.513-63.45-66.986 99.55 11.898 88.64-116.987zm-92.3 787.648a84.271 84.271 0 00-8.08-7.36c92.31-47.755 163.37-85.536 178.43-95.721 46.6-31.529 48.84-88.296 3.79-117.491-30.54-19.797-99.54-7.44-205.86 38.142l-56.54 29.778c24.67 16.877 43.27 36.01 51.44 51.852 11.31 21.958 23.12 52.706 26.13 91.452-13.75-10-31.36-15.545-53.35-10.718-68.29 14.996-88.91 65.357-155.8 36.317-66.88-29.04-72.37-71.506-141.48-57.196-23.18 4.801-41.08 8.409-53.69 10.823 29.54-65.559 86.26-125.805 138.21-151.005 59.37-28.799 128.97-8.736 178.7 22.069l61.78-32.54c.12-.063.24-.122.37-.175C2686.78-3.408 2758.3-16.233 2792.88 6.18c51.44 33.34 48.85 99.087-3.63 134.589-15.11 10.226-85.02 47.438-176.09 94.588zm-16.64 68.254c-6.36 28.34-17.72 59.305-35.99 92.73-53.69 98.235-208.4 80.532-303.35 19.654-101.04 50.28-180.66 88.792-197.22 94.433-50.26 17.121-92.45-21.402-101.12-82.776-5.57-39.477 55.1-89.925 181.76-154.13l32.36-17.041-.42 6.021c43.98-21.257 77.08-28.215 99.29-20.872 33.32 11.014 124.57 81.994 182.33 62.177 55.24-18.954 123.83-48.777 142.36-.196zM2247.4 409.42c-20.34-14.34-37.39-30.73-49.3-48.346-19.21-28.393-23.77-62.024-18.26-96.627l-34.49 18.166-.08.037c-122.24 61.958-180.91 110.743-176.28 143.568 3.71 26.227 14.46 48.921 29.81 62.936 16.01 14.612 35.96 19.028 57.85 11.567 15.96-5.437 92.66-42.518 190.75-91.301zm334.22-356.588l-.37.175c.06-.026.13-.053.19-.08l.18-.095zM1554.55-1113.7l8.38 3.87c.2-.01.4-.01.6 0 13.96-1.74 21.5-7.43 23.77-17.24 2.35-10.2-2.36-18.89-15.22-26.81-.32-.2-.61-.42-.87-.67l-93.32-42.71c-.93-.43-1.67-1.1-2.19-1.91-12.54-.16-19.61 4.9-22.51 15.9-3.18 12.01.85 20.99 12.84 28.12.8.48 1.4 1.1 1.81 1.8.65.03 1.31.18 1.94.47l82.72 38.23c-9.11-5.88-11.07-15.28-5.95-26.31 5.26-11.31 13.76-15.7 23.83-11.4a5.126 5.126 0 012.71 6.73c-1.12 2.6-4.13 3.81-6.73 2.7-4.47-1.9-7.4-.39-10.51 6.29-3.14 6.77-2.28 10.62 2.51 13.57a5.12 5.12 0 011.69 7.05 5.132 5.132 0 01-5.5 2.32zm6.69 14.39l-95.76-44.26a5.114 5.114 0 01-2.17-1.88c-12.8 3.16-20.37 10.49-23.37 22.44-2.13 8.5-1.49 15.89 1.83 22.37 2.35 4.59 6.17 8.26 10.85 10.43l27.37 12.65c.3.06.6.15.89.27l56.63 22.83c14.84 1.22 24.32-3.46 29.55-14.18 5.01-10.28 3.24-20.22-5.82-30.67zm-61.97 40.49l-9.84 84.782 123.79-19.485c18.22-2.867 32.28-17.537 34.37-35.857l28.91-252.91c-18.64-15.47-18.06-35.38 1.17-57.27-3.48-4.05-8.84-6.36-14.54-5.7-17.62 2.03-27.93 11.15-31.85 28.14-1.51 6.54-8.72 33.33-21.7 80.66a5.116 5.116 0 01-5.96 3.67l-54.38-10.98 40.93 21.33c.14.08.28.16.41.24 16.2 10.46 22.95 23.95 19.32 39.67-2.97 12.85-11.51 21.32-24.99 25.24 10.91 9.12 15.25 20.1 12.38 32.52-2.81 12.16-11.21 20.06-24.53 23.59 8.33 11.99 9.62 24.53 3.52 37.04-7.31 14.99-21.19 21.64-40.46 19.83-.5-.05-.98-.17-1.44-.35l-35.11-14.16zm13.94-192.22l-17.76-3.59c-.11-.02-.22-.03-.34-.02-17.39 1.09-26.59 7.28-29.09 18.68-2.44 11.17 1.54 20.01 12.6 27.42.64.42 1.13.94 1.5 1.5.68.01 1.38.16 2.04.46l90.45 41.4c.41-.17.86-.29 1.32-.34 15.13-1.81 23.4-8.14 25.98-19.31 2.56-11.11-2.03-20.38-14.69-28.61l-71.35-37.19c-.24-.12-.45-.25-.66-.4zm168.48-77.29c-10.06 13.1-11.21 23.76-3.71 33.09l3.6-31.57c.06-.51.1-1.02.11-1.52zm5.63 41.68a5.119 5.119 0 01.03 5.98c-.24.35-.52.65-.82.92l-28.75 251.53c-2.62 22.9-20.2 41.242-42.97 44.827l-130.45 20.534c-3.35.528-6.28-2.286-5.89-5.655l10.84-93.436-40.99-18.96a33.29 33.29 0 01-15.68-15.06c-4.5-8.79-5.36-18.71-2.64-29.54 3.21-12.82 10.79-21.91 22.39-27.04-9.44-8.81-12.61-20.12-9.12-33.34 3.07-11.6 10.05-19.04 20.41-22.03-7.56-8.46-10.21-18.66-7.67-30.24 3.59-16.42 16.9-25.37 38.46-26.73 1.01-.06 2.02.01 3.01.21l103.48 20.9c12.12-44.23 18.91-69.53 20.33-75.65 4.9-21.24 18.76-33.5 40.66-36.02 14.77-1.69 28.12 8.9 29.82 23.67.23 2.04.23 4.09 0 6.13l-4.45 39zm-114.07 105.75a5.127 5.127 0 01.69 7.22 5.117 5.117 0 01-7.22.69c-8.62-7.12-9.4-16.87-2.68-27.26 6.78-10.47 15.82-13.63 25.19-7.97a5.123 5.123 0 011.74 7.03 5.118 5.118 0 01-7.04 1.74c-4.16-2.5-7.28-1.41-11.28 4.77-4.05 6.27-3.74 10.2.6 13.78zm-35 111.62a5.124 5.124 0 011.19 7.15 5.124 5.124 0 01-7.15 1.19c-9.1-6.5-10.56-16.17-4.58-27 6.03-10.93 14.83-14.71 24.57-9.72a5.129 5.129 0 01-4.67 9.13c-4.32-2.21-7.36-.91-10.92 5.54-3.61 6.54-3.02 10.44 1.56 13.71zm-178.87 682.582c-4.49 20.831-7.38 34.227-8.66 40.188l319.37 62.665 8.9-35.77-319.61-67.083zm-96.66 22.921l77.62 15.231 8.72-40.317-304.54-63.918-8.3 39.083 226.5 49.921zm89.18-38.231l90.6-418.91-308.52-52.74-87.31 410.785 305.23 60.865zm-98.3-271.415c8.09 3.904 15.09 9.937 17.86 15.448 7.42 14.755 7.91 32.199-3.06 52.571-6.83 12.688-21.29 17.449-37.9 14.766-14.77-2.387-29.09-10.432-35.81-20.589-6.72-10.153-5.6-23.504 1.38-36.861 6.02-11.527 15.96-21.924 25.58-26.703 3.8-1.889 7.86-2.89 12.05-3.094l-11.18-23.142a5.13 5.13 0 012.39-6.847 5.122 5.122 0 016.84 2.386l8.52 17.628 2.71-17.135a5.134 5.134 0 015.87-4.262c2.8.443 4.7 3.07 4.26 5.866l-2.94 18.576 14.26-15.421a5.121 5.121 0 017.24-.284 5.119 5.119 0 01.28 7.245l-18.35 19.852zm-5.56 8.721c-7.88-3.508-15.62-3.996-21.83-.907-7.56 3.759-15.99 12.569-21.05 22.27-5.43 10.378-6.23 19.942-1.92 26.454 5 7.553 16.77 14.164 28.9 16.124 12.72 2.056 22.8-1.262 27.24-9.504 9.3-17.274 8.9-31.206 2.92-43.103-1.74-3.466-7.59-8.362-14.26-11.334zm246.55 270.83a5.13 5.13 0 019.61 3.596c-3.93 10.475-12.89 14.387-24.91 11.411-12.11-2.999-18.03-10.513-15.74-21.216a5.131 5.131 0 016.09-3.937 5.13 5.13 0 013.94 6.088c-1.02 4.746 1.03 7.341 8.18 9.112 7.24 1.794 10.86.217 12.83-5.054zM1561.53-376a5.127 5.127 0 119.6 3.596c-3.92 10.475-12.89 14.386-24.9 11.411-12.11-2.999-18.04-10.513-15.74-21.216a5.124 5.124 0 1110.02 2.151c-1.02 4.746 1.03 7.341 8.18 9.112 7.25 1.794 10.86.217 12.84-5.054z" fill="#212121"/></g><mask id="c" maskUnits="userSpaceOnUse" x="253" y="0" width="323" height="323"><circle cx="414.5" cy="161.5" r="161.5" fill="#C4C4C4"/></mask><g mask="url(#c)"><path fill-rule="evenodd" clip-rule="evenodd" d="M1113.56 502.523a3.997 3.997 0 00-.21-.439l-1.06-1.971 27.44-61.293c.91-2.016 0-4.382-2.01-5.285-2.02-.903-4.38 0-5.29 2.016l-24.93 55.678-28.09-52.126c-1.04-1.945-3.47-2.672-5.42-1.624a4.001 4.001 0 00-1.62 5.419l31.01 57.542-.78 1.74c-.05.107-.09.216-.13.325L969.906 629.234l-1.88-.98-109.003 136.153a4 4 0 01-4.813 1.125L495.312 598.176c-2.543-1.186-3.107-4.552-1.09-6.502l16.885-16.317a59 59 0 0141-16.573h124.245l63.01-49.752-164.918-85.985 329.733-319.561-220.609-38.899 11.519-65.33-130.812-34.271a3.999 3.999 0 01-2.985-3.94l5.752-329.535-145.897 53.909c-6.971 16.372-17.627 32.679-31.923 50.164C356.509-224.409 317.521-202 272-202c-42.43 0-82.185-23.361-116.629-62.298C126.265-297.202 113-325.102 113-362c0-34.369 11.757-69.665 31.645-96.966C173.876-499.092 219.844-522 272-522c30.954 0 61.106 12.842 91.692 35.733l44.236-68.677a99.994 99.994 0 0175.513-45.483l138.342-11.881a19.91 19.91 0 0116.697 6.738c7.232 8.281 6.383 20.857-1.897 28.089l-14.052 12.274a15.001 15.001 0 00-5.123 11.821c.289 8.279 7.235 14.756 15.514 14.467l24.782-.865a18.931 18.931 0 0115.9 7.687c6.204 8.417 4.411 20.27-4.006 26.474l-18.267 13.465a15 15 0 00-6.012 10.454c-.895 8.236 5.056 15.638 13.292 16.532l46.934 5.099a19.998 19.998 0 0116.6 12.951c3.829 10.361-1.467 21.864-11.828 25.692l-79.129 29.238 44.767 93.915 64.13 42.338 16.399-93.005 227.346 94.776 6.47-30.44a6 6 0 016.88-4.667l244.65 41.822a5.994 5.994 0 014.9 6.925l-.04.237c-6.73 31.229-13.04 60.5-18.93 87.81l.41.173 117.76 172.6c-19.7-10.324-44.17-6.724-60.07 9.492-11.78 12.023-21.05 23.089-27.79 33.195-11.92 17.867-20.82 31.21-26.71 40.031l51.14 10.328c.21-.454.51-.875.89-1.238 7.29-6.801 15.34-17.168 24.08-31.082 9.07-14.434 23.29-31.942 42.68-52.575a3.995 3.995 0 015.65-.176 4.003 4.003 0 01.18 5.654c-19.06 20.288-32.98 37.423-41.73 51.354-8.01 12.738-15.52 22.705-22.58 29.916l45.7 9.23c.11-.371.28-.732.5-1.072 9.43-14.237 18.7-26.36 27.81-36.374 9-9.879 19.16-20.726 30.48-32.543a4.005 4.005 0 015.66-.12 4.003 4.003 0 01.12 5.656c-11.28 11.77-21.39 22.568-30.34 32.393-8.47 9.3-17.12 20.545-25.94 33.733l25.78 5.207c-8.46-3.262-12.14-9.332-9.73-17.172a3.998 3.998 0 117.64 2.353c-1.11 3.619.3 5.775 5.74 7.638 5.51 1.888 8.43.908 10.32-3.055a4.003 4.003 0 015.34-1.885 4.002 4.002 0 011.88 5.333c-2.67 5.6-7.1 8.446-12.73 8.498l11.39 2.299a3.99 3.99 0 011.37-4.055l52.35-42.33a3.993 3.993 0 015.62.594 3.997 3.997 0 01-.59 5.626l-51.49 41.633 34.26 6.919-9.01 39.291v1.538l86.76 17.415-.86-1.808 209.86 38.487-69.82 154.75 25.31 13.605c16.87 9.067 37.89 2.897 47.18-13.848 30.45-54.896 60.05-107.525 88.79-157.888 30.71-53.815 53.84-113.765 69.38-179.86a35.006 35.006 0 00-15.02-37.375l-78.08-50.648a4.005 4.005 0 01-1.18-5.533 4.009 4.009 0 015.54-1.179l78.07 50.648c15.23 9.877 22.61 28.25 18.46 45.917-15.72 66.828-39.12 127.497-70.22 181.995-28.72 50.335-58.3 102.936-88.75 157.804-11.41 20.572-37.24 28.153-57.96 17.013l-24.81-13.342-49.57 109.863c-9.67 21.421-31.87 34.335-55.27 32.14l-428.05-40.159zM957.178 622.598l-210.04-109.512-61.76 48.764 67.272 30.452a4 4 0 01-3.3 7.288l-72.472-32.806H552.107a51 51 0 00-35.441 14.326l-12.701 12.274 310.177 144.638c36.198-34.98 68.307-52.616 96.528-52.616.419 0 .824.065 1.204.185l48.725-60.861-3.421-2.132zM696.481-8.648l42.09-238.704-67.952-44.861a4.002 4.002 0 01-1.407-1.617l-49.021-102.838a50.997 50.997 0 00-26.949-25.349l-17.144-6.919-4.118 235.907a4 4 0 013.907-.579c53.166 20.565 73.25 77.403 60.838 169.305l59.756 15.655zM1626.06-207c2.66.725 5.39 1.11 8.2 1.159 8.57.15 16.48-2.837 23.86-9.085-7.16-6.501-14.96-9.763-23.53-9.912-4.47-.078-8.76.698-12.89 2.345a7.62 7.62 0 012.29.252c4.27 1.144 6.74 5.747 5.53 10.281-.57 2.111-1.84 3.835-3.46 4.96zm-12.29-6.223c-.06-.939.03-1.91.29-2.878a8.75 8.75 0 011.73-3.366 43.006 43.006 0 00-5.05 3.714c.99.906 2.01 1.75 3.03 2.53zm-6.15-44.468l-15.52 6.904a48.91 48.91 0 00-10.77 18.693l-25.46 81.729c16.78 10.993 34.45 19.113 53.01 24.369 18.63 5.272 41.04 7.339 67.24 6.17l3.15-32.13c.25-2.548 2.79-4.209 5.22-3.41.92.302 1.86.547 2.82.733 12.47 2.424 24.55-5.719 26.97-18.188 2.42-12.47-5.72-24.543-18.19-26.966-2.41-.468-4.83-.55-7.21-.256-2.32.286-4.33-1.454-4.48-3.694-13.84-15.401-24.17-26.747-31.01-34.037a4607.013 4607.013 0 01-23.16-24.933c-23.79 10.6-38.7 32.374-44.81 65.775l22.04 4.283a4.006 4.006 0 013.16 4.69 3.999 3.999 0 01-4.69 3.163l-25.87-5.029a3.997 3.997 0 01-3.19-4.554c4.46-28.082 14.73-49.254 30.75-63.312zm49.78-9.84c21.92 11.05 36.07 34.035 35.28 59.332 1.64.054 3.3.239 4.94.559 16.8 3.266 27.78 19.539 24.51 36.345-3.2 16.476-18.9 27.348-35.35 24.692l-2.63 26.819c30.51-4.706 54.73-19.635 68.25-44.7 20.88-38.698 29.76-74.779 28.8-108.335-.74-25.833-7.16-48.566-17.57-69.197-8.42-16.685-33.37-37.522-61.73-50.134-33.79-15.029-67.87-17.187-96.09-3.202-31.81 15.763-66.08 51.511-86.75 91.003-22.93 43.788-26.42 85.714-6.41 115.87 8.39 12.647 20.86 24.491 35.9 34.721l25.14-80.715c6.52-20.938 24.08-35.599 44.48-39.255-10.08-7.523-13.32-21.525-7.07-32.851a25.563 25.563 0 0115.39-12.246c-5.79-6.533-7.26-16.22-2.95-24.403 4.36-8.306 13.59-12.844 22.84-11.233l15.58 2.716c11.19 1.949 18.68 12.597 16.73 23.783-.01.023-.01.046-.02.07-1.32 7.443-6.29 13.355-12.78 16.172 7.42 5.374 11.47 14.726 9.62 24.311 0 .025 0 .05-.01.076-1.91 9.759-9.12 17.187-18.1 19.802zm66.83-222.254l-26.14 87.364c2.35.928 4.71 1.915 7.06 2.962 29.91 13.303 56.28 35.317 65.62 53.84 10.91 21.622 17.65 45.482 18.42 72.571 1.01 34.983-8.22 72.449-29.75 112.363-22.32 41.374-70.64 57.217-127.84 47.97-52.11-8.424-102.68-36.769-125.62-71.341-21.89-32.999-18.15-77.888 5.99-124.003 21.42-40.918 56.88-77.904 90.29-94.461 26.45-13.111 57.31-13.163 88.3-2.658l25.98-86.828c-2.05-1.102-3.77-2.537-4.83-4.141-3.97-6.066 2.7-16.09 8.38-18.946 5.69-2.856 12.89 1.928 14.36 4.878 1.47 2.95 3.07 8.488-1.02 16.133-1.79 3.331-5.38 4.519-9.2 4.297zm-90.11 291.943c-11.98-.209-22.74-5.361-32.1-15.265a4.002 4.002 0 01.1-5.594c9.7-9.572 20.63-14.345 32.61-14.136 11.99.209 22.74 5.361 32.1 15.265a4.002 4.002 0 01-.1 5.594c-9.7 9.572-20.63 14.345-32.61 14.136zm-45.85 21.889a3.994 3.994 0 01-.79-5.601 3.997 3.997 0 015.6-.791c4.19 3.151 9.95 4.084 17.55 2.622a3.993 3.993 0 014.68 3.172c.42 2.17-1 4.267-3.17 4.684-9.66 1.859-17.7.557-23.87-4.086zM821.92 741.648l32.822 15.306 50.695-63.323c-24.027 2.04-51.917 17.972-83.517 48.017zM628.928-26.346c11.709-88.057-7.127-140.925-55.927-159.8a4.021 4.021 0 01-1.129-.666l-2.529 144.856 59.585 15.61zM272-210c42.855 0 79.717-21.187 111.028-59.48C409.716-302.12 423-330.045 423-362c0-45.751-20.42-83.541-58.414-113.492C333.27-500.178 302.812-514 272-514c-49.623 0-93.178 21.705-120.889 59.745C132.209-428.308 121-394.656 121-362c0 34.671 12.439 60.834 40.363 92.401C194.431-232.217 232.239-210 272-210zM463.367 49.811L439.97 162.044l66.448 48.438-84.747 9.995-66.28 77.033 11.029-95.701-62.988-52.062 88.865-.403 71.07-99.533zM197.992 485.286l66.962 88.94 71.562-11.233-46.596 58.882 6.641 89.02-52.694-66.265-71.661 6.833 55.133-55.488-29.347-110.689zM1987.86-528.23l77.63 99.418 84.22-13.501-55.44 66.892 6.75 100.22-61.14-74.039-84.28 8.544 65.43-63.168-33.17-124.366zm235.92 497.893l-28.86 107.524 52.91 49.476-75.09-.467-66.06 60.039 19.78-82.32-49.5-52.263 77.66 9.284 69.16-91.273zm-72.01 614.518a66.004 66.004 0 00-6.3-5.743c72.01-37.258 127.46-66.734 139.2-74.681 36.36-24.598 38.11-68.887 2.96-91.665-23.83-15.445-77.65-5.804-160.61 29.758l-44.11 23.233c19.25 13.167 33.76 28.094 40.13 40.454 8.83 17.132 18.04 41.121 20.39 71.35-10.73-7.802-24.47-12.128-41.62-8.361-53.28 11.699-69.37 50.99-121.56 28.333-52.18-22.656-56.46-55.788-110.38-44.623-18.08 3.745-32.05 6.56-41.89 8.444 23.05-51.149 67.3-98.152 107.83-117.813 46.32-22.469 100.62-6.816 139.42 17.217l48.2-25.386c.1-.05.19-.096.29-.138 85.49-36.662 141.28-46.669 168.26-29.182 40.14 26.012 38.12 77.307-2.82 105.005-11.8 7.979-66.34 37.012-137.39 73.798zm-12.98 53.251c-4.97 22.111-13.83 46.269-28.08 72.347-41.89 76.643-162.6 62.831-236.67 15.334-78.84 39.228-140.95 69.275-153.87 73.676-39.21 13.357-72.13-16.697-78.9-64.581-4.35-30.8 42.99-70.159 141.81-120.251l25.25-13.296-.33 4.698c34.31-16.585 60.13-22.013 77.46-16.284 26 8.593 97.19 63.971 142.26 48.509 43.1-14.787 96.61-38.055 111.07-.152zm-272.38 82.552c-15.88-11.188-29.17-23.976-38.47-37.719-14.98-22.153-18.54-48.392-14.25-75.389l-26.91 14.174-.05.028c-95.37 48.339-141.15 86.401-137.53 112.011 2.89 20.462 11.28 38.168 23.25 49.102 12.49 11.401 28.05 14.845 45.14 9.025 12.45-4.242 72.29-33.172 148.82-71.232zm260.75-278.208l-.28.137c.04-.021.09-.042.14-.063l.14-.074zm-801.31-910.121l6.54 3.02c.15-.01.31-.011.46-.003 10.9-1.354 16.78-5.796 18.55-13.45 1.84-7.952-1.84-14.736-11.88-20.917a3.828 3.828 0 01-.67-.523l-72.81-33.321a4.033 4.033 0 01-1.71-1.485c-9.78-.129-15.3 3.817-17.56 12.399-2.48 9.371.66 16.382 10.01 21.944.63.372 1.1.859 1.42 1.406.51.02 1.02.139 1.51.366l64.54 29.823c-7.1-4.584-8.63-11.921-4.64-20.523 4.1-8.828 10.74-12.249 18.59-8.897a4 4 0 11-3.14 7.358c-3.48-1.486-5.77-.305-8.19 4.908-2.46 5.283-1.79 8.286 1.96 10.583a3.996 3.996 0 011.31 5.501 3.998 3.998 0 01-4.29 1.811zm5.22 11.224l-74.71-34.526a3.93 3.93 0 01-1.69-1.471c-9.99 2.469-15.9 8.185-18.24 17.506-1.66 6.639-1.16 12.399 1.43 17.457a17.978 17.978 0 008.46 8.135l21.36 9.87c.23.048.46.118.69.211l44.18 17.816c11.58.952 18.98-2.702 23.06-11.064 3.91-8.019 2.53-15.78-4.54-23.934zm-48.35 31.595l-7.67 66.145 96.57-15.202c14.22-2.237 25.19-13.683 26.82-27.977l22.55-197.316c-14.54-12.071-14.09-27.605.92-44.686-2.72-3.157-6.9-4.955-11.35-4.444-13.74 1.581-21.79 8.699-24.85 21.952-1.18 5.102-6.8 26.008-16.92 62.937a4.004 4.004 0 01-4.65 2.863l-42.44-8.569 31.94 16.643c.11.058.22.12.32.187 12.64 8.156 17.9 18.679 15.07 30.945-2.31 10.028-8.98 16.638-19.5 19.694 8.52 7.119 11.9 15.686 9.66 25.376-2.19 9.487-8.74 15.645-19.13 18.4 6.5 9.355 7.5 19.138 2.74 28.898-5.7 11.693-16.53 16.886-31.57 15.471a4.025 4.025 0 01-1.12-.273l-27.39-11.044zm10.88-149.973l-13.86-2.798a1.036 1.036 0 00-.26-.018c-13.57.855-20.75 5.684-22.7 14.577-1.91 8.715 1.2 15.613 9.83 21.39.5.333.88.733 1.17 1.172a3.99 3.99 0 011.59.363l70.57 32.296a4.02 4.02 0 011.03-.266c11.8-1.415 18.25-6.353 20.27-15.064 2-8.667-1.59-15.904-11.46-22.325l-55.67-29.01a4 4 0 01-.51-.317zm131.44-60.301c-7.84 10.22-8.74 18.541-2.89 25.818l2.81-24.633c.05-.394.07-.79.08-1.185zm4.39 32.52a3.99 3.99 0 01.03 4.669c-.19.268-.41.505-.64.712l-22.43 196.247c-2.04 17.867-15.76 32.175-33.52 34.972l-101.78 16.021c-2.62.411-4.9-1.784-4.6-4.413l8.46-72.9-31.98-14.787a25.935 25.935 0 01-12.23-11.75c-3.52-6.859-4.18-14.6-2.07-23.047 2.51-10.002 8.43-17.1 17.47-21.097-7.36-6.872-9.83-15.699-7.11-26.016 2.39-9.046 7.84-14.851 15.92-17.187-5.89-6.596-7.96-14.558-5.98-23.593 2.8-12.81 13.18-19.79 30-20.85.79-.049 1.58.005 2.35.16l80.74 16.304c9.45-34.505 14.75-54.244 15.86-59.019 3.82-16.568 14.63-26.134 31.73-28.099 11.52-1.325 21.93 6.941 23.26 18.463.18 1.589.18 3.194 0 4.784l-3.48 30.426zm-88.99 82.51a4 4 0 01-5.09 6.17c-6.73-5.555-7.34-13.161-2.09-21.269 5.28-8.171 12.33-10.635 19.65-6.223a4 4 0 011.35 5.492 4 4 0 01-5.49 1.358c-3.24-1.957-5.67-1.106-8.8 3.72-3.16 4.89-2.92 7.957.47 10.752zm-27.31 87.081a3.991 3.991 0 01.93 5.579 4 4 0 01-5.58.931c-7.1-5.072-8.24-12.618-3.57-21.071 4.71-8.521 11.57-11.47 19.17-7.579a4.012 4.012 0 011.74 5.383 4.007 4.007 0 01-5.39 1.738c-3.37-1.725-5.74-.707-8.52 4.325-2.81 5.099-2.35 8.141 1.22 10.694zM1173.58 98.858a37735.8 37735.8 0 00-6.76 31.354l249.17 48.891 6.95-27.908-249.36-52.337zm-75.42 17.883l60.56 11.882 6.81-31.455L927.929 47.3l-6.481 30.492 176.712 38.949zm69.58-29.828l70.69-326.831-240.704-41.148-68.123 320.492 238.137 47.487zm-76.69-211.756c6.31 3.046 11.77 7.753 13.94 12.052 5.79 11.511 6.17 25.122-2.39 41.016-5.33 9.899-16.62 13.613-29.57 11.52-11.52-1.862-22.7-8.14-27.94-16.064-5.24-7.92-4.37-18.337 1.07-28.758 4.7-8.994 12.46-17.105 19.96-20.834 2.97-1.474 6.14-2.255 9.4-2.413l-8.72-18.056a3.998 3.998 0 117.2-3.48l6.65 13.753 2.12-13.368a3.991 3.991 0 014.57-3.325 4 4 0 013.33 4.576l-2.3 14.492 11.13-12.03a3.997 3.997 0 015.65-.222 4 4 0 01.22 5.652l-14.32 15.489zm-4.34 6.804c-6.14-2.737-12.18-3.118-17.03-.708-5.9 2.933-12.47 9.806-16.43 17.375-4.23 8.097-4.85 15.559-1.49 20.639 3.9 5.893 13.08 11.05 22.55 12.58 9.92 1.604 17.78-.985 21.25-7.415 7.25-13.477 6.95-24.347 2.28-33.629-1.36-2.704-5.93-6.523-11.13-8.842zm192.36 211.3a4.003 4.003 0 015.15-2.344 3.993 3.993 0 012.34 5.15c-3.06 8.172-10.05 11.223-19.43 8.902-9.44-2.34-14.07-8.203-12.28-16.553a4.003 4.003 0 017.83 1.678c-.8 3.703.8 5.728 6.38 7.11 5.65 1.4 8.47.17 10.01-3.944zm52.22 13.943a4.002 4.002 0 015.15-2.343 4.007 4.007 0 012.35 5.149c-3.07 8.172-10.06 11.224-19.43 8.902-9.45-2.339-14.08-8.202-12.28-16.552a3.998 3.998 0 117.82 1.678c-.8 3.703.8 5.727 6.38 7.109 5.65 1.4 8.47.17 10.01-3.943z" fill="#7B61FF"/></g><mask id="d" maskUnits="userSpaceOnUse" x="273" y="282" width="187" height="187"><circle cx="366.698" cy="375.697" r="93.124" transform="rotate(-45 366.698 375.697)" fill="#C4C4C4"/></mask><g mask="url(#d)"><path fill-rule="evenodd" clip-rule="evenodd" d="M790.774 229.714a2.47 2.47 0 00-.262-.096l-1.237-.37-13.802-36.18a2.305 2.305 0 10-4.31 1.644l12.538 32.866-32.708-9.8a2.306 2.306 0 10-1.324 4.419l36.106 10.818.392 1.027c.024.063.051.125.08.185l-2.381 105.723-1.166.367 11.07 99.959a2.307 2.307 0 01-1.503 2.421l-214.572 78.098a2.307 2.307 0 01-3.095-2.207l.232-13.537a34.02 34.02 0 019.959-23.475l50.659-50.659 5.406-45.977-102.302 32.184 4.148-264.738-105.81 74.089-21.941-31.335-67.309 39.363a2.307 2.307 0 01-2.824-.388L212.801 97.407l-37.507 81.467c3.834 9.518 6.138 20.512 7.438 33.47 2.974 29.65-3.786 54.684-22.346 73.244-17.3 17.3-43.035 23.985-72.955 22.153-25.283-1.549-42.067-7.516-57.112-22.561-14.013-14.013-23.61-33.198-26.633-52.438-4.443-28.28 4.96-56.363 26.225-77.628 12.621-12.621 30.151-19.679 51.956-22.817L71.9 86.259a57.662 57.662 0 0112.245-49.334l51.562-61.251a11.478 11.478 0 019.555-4.06c6.325.427 11.107 5.9 10.679 12.226l-.725 10.734a8.651 8.651 0 0014.956 6.481l9.751-10.457a10.918 10.918 0 019.618-3.349c5.961.903 10.063 6.467 9.161 12.428l-1.958 12.938a8.649 8.649 0 0013.971 8.035L231.93 3.593a11.532 11.532 0 0112.049-1.488c5.786 2.663 8.317 9.513 5.653 15.298L229.29 61.588l56.545 20.04 43.411-8.886-31.235-44.608L429.35-25.919l-9.773-15.05a3.46 3.46 0 01.903-4.707l116.804-82.701a3.46 3.46 0 014.823.825c.04.057.04.057.078.115l28.084 43.522.24-.098 118.387 22.361c-12.241 3.823-20.751 15.269-20.62 28.36.097 9.709.831 17.998 2.203 24.868l5.433 27.21 25.06-16.636a2.292 2.292 0 01-.138-.87c.199-5.746-.748-13.253-2.856-22.491-2.187-9.584-3.528-22.52-4.037-38.837a2.307 2.307 0 014.611-.144c.5 16.045 1.813 28.705 3.923 37.954 1.93 8.458 2.931 15.585 2.994 21.402l22.397-14.87a2.326 2.326 0 01-.233-.641c-1.962-9.648-3.127-18.37-3.492-26.17-.36-7.696-.64-16.26-.841-25.697a2.307 2.307 0 014.612-.098c.2 9.399.479 17.925.837 25.579.339 7.244 1.397 15.356 3.177 24.332l12.633-8.388c-4.777 2.118-8.754 1.145-10.967-3.036a2.307 2.307 0 014.077-2.158c1.021 1.93 2.477 2.233 5.454.775 3.016-1.477 3.806-3.066 2.962-5.454a2.306 2.306 0 114.349-1.537c1.193 3.374.547 6.341-1.724 8.654l5.578-3.703a2.31 2.31 0 01-1.094-2.213l4.085-38.604a2.306 2.306 0 014.587.485l-4.017 37.968 16.789-11.147 12.348 19.692.628.627 42.475-28.273-1.09-.385 101.261-69.876 34.629 91.563 15.866-4.77c10.574-3.18 16.629-14.268 13.59-24.883a8690.545 8690.545 0 01-28.173-100.58c-9.421-34.463-24.434-68.336-45.047-101.623a20.182 20.182 0 00-21.364-9.114l-52.484 11.183a2.307 2.307 0 11-.961-4.512l52.484-11.183a24.796 24.796 0 0126.247 11.197c20.841 33.655 36.034 67.935 45.575 102.836a8709.179 8709.179 0 0028.157 100.526c3.731 13.041-3.705 26.663-16.696 30.57l-15.558 4.678 24.584 65.005a31.712 31.712 0 01-9.431 35.64L790.774 229.714zm-14.803 112.72l-130.292 40.989-5.299 45.064 39.845-15.013a2.307 2.307 0 011.627 4.317l-42.926 16.173-50.873 50.874a29.405 29.405 0 00-8.609 20.291l-.174 10.183 185.443-67.495c.497-29.022 6.398-49.304 17.904-60.811a2.33 2.33 0 01.567-.416l-4.949-44.682-2.264.526zM412.297 191.349L332.131 76.86l-45.998 9.415a2.306 2.306 0 01-1.233-.086l-61.918-21.943a29.407 29.407 0 00-21.323.653l-9.812 4.169 94.508 97.866a2.309 2.309 0 011.357-1.829c30.063-13.293 61.427 1.694 93.837 44.225l30.748-17.981zm298.146-459.895a19.126 19.126 0 003.815-2.87c3.554-3.432 5.561-7.875 6.022-13.431-5.568.267-10.079 2.118-13.632 5.55a18.945 18.945 0 00-4.3 6.212 4.359 4.359 0 011.035-.829c2.206-1.274 5.092-.407 6.446 1.938.63 1.091.817 2.31.614 3.43zm-7.55 2.475a5.143 5.143 0 01-1.054-1.292 5.14 5.14 0 01-.67-2.076 25.484 25.484 0 00-.543 3.572 26.405 26.405 0 002.267-.204zm-20.638-15.624l-3.511 9.141a28.222 28.222 0 003.227 12.016l22.945 43.702c11.324-2.359 21.838-6.251 31.551-11.678 9.743-5.444 19.725-13.74 29.928-24.897l-11.816-14.385a2.306 2.306 0 01.742-3.522c.497-.252.98-.535 1.449-.851 6.072-4.096 7.674-12.339 3.578-18.411-4.096-6.072-12.339-7.675-18.411-3.579a13.272 13.272 0 00-3.045 2.836 2.306 2.306 0 01-3.333.321c-11.92-.638-20.76-1.05-26.52-1.236-5.408-.174-11.944-.415-19.609-.723-5.381 14.026-2.581 28.981 8.547 45.09l10.731-7.238a2.307 2.307 0 012.579 3.825l-12.599 8.498a2.306 2.306 0 01-3.156-.557c-9.63-13.27-14.078-26.087-13.277-38.352zm16.285-24.309c13.442-4.431 28.582-.828 38.574 9.809a17.888 17.888 0 012.244-1.788c8.184-5.521 19.294-3.361 24.815 4.823 5.411 8.024 3.442 18.859-4.348 24.483l9.863 12.007c10.523-14.36 14.308-30.319 9.602-46.053-7.266-24.291-18.356-42.624-32.43-55.914-10.835-10.23-22.72-16.883-35.376-21.051-10.235-3.371-28.907-1.691-45.611 4.728-19.905 7.649-34.681 20.666-40.484 37.873-6.542 19.397-5.94 47.946 1.732 72.478 8.507 27.2 24.178 45.719 44.631 49.856 8.578 1.735 18.49 1.482 28.795-.48l-22.66-43.161c-5.878-11.196-4.696-24.333 2.132-34.143-7.18 1.045-14.209-3.343-16.28-10.509a14.753 14.753 0 011.283-11.269c-5.025-.303-9.572-3.654-11.154-8.746a12.465 12.465 0 014.733-13.893l7.462-5.247c5.356-3.766 12.75-2.478 16.516 2.878l.024.033a12.553 12.553 0 011.383 11.805c5.213-.831 10.679 1.33 13.835 5.99l.025.037c3.2 4.758 3.29 10.725.694 15.454zm-63.372-117.868l24.962 46.279c1.339-.583 2.703-1.14 4.089-1.673 17.619-6.771 37.346-8.546 48.708-4.804 13.264 4.369 25.738 11.351 37.1 22.079 14.673 13.855 26.188 32.892 33.682 57.946 7.769 25.971-5.472 52.132-32.565 71.684-24.682 17.813-56.857 26.873-80.306 22.13-22.383-4.527-39.161-24.355-48.12-53.001-7.949-25.418-8.572-54.956-1.7-75.329 5.44-16.132 17.999-28.733 34.92-37.087l-24.81-45.997c-1.284.387-2.574.506-3.656.281-4.094-.853-5.463-7.659-4.309-11.141 1.153-3.483 6.041-4.47 7.843-3.866 1.802.604 4.711 2.211 6.16 6.996.632 2.085-.35 4.036-1.998 5.503zm82.295 155.774c-4.972 4.801-11.458 7.086-19.312 6.863a2.307 2.307 0 01-2.241-2.321c.051-7.856 2.562-14.259 7.533-19.06 4.972-4.801 11.458-7.086 19.312-6.863a2.308 2.308 0 012.241 2.321c-.051 7.856-2.562 14.259-7.533 19.06zm-9.771 27.62a2.306 2.306 0 01-.645-4.568c2.992-.422 5.723-2.392 8.225-6.086a2.306 2.306 0 013.82 2.587c-3.181 4.697-6.991 7.445-11.4 8.067zm61.671 686.602l19.623-7.142-5.149-46.489c-8.965 10.628-13.84 28.496-14.474 53.631zM377.537 211.677c-31.13-40.678-60.366-54.554-87.959-42.353a2.282 2.282 0 01-.732.189l58.032 60.094 30.659-17.93zm-220.413 70.649c17.473-17.473 23.865-41.142 21.018-69.522-2.427-24.189-8.396-40.992-21.426-54.021-18.654-18.654-42.388-25.737-70.091-22.457-22.835 2.703-40.889 9.486-53.452 22.05-20.233 20.232-29.142 46.841-24.93 73.65 2.872 18.286 12.023 36.577 25.338 49.893 14.136 14.136 29.876 19.732 54.132 21.217 28.725 1.759 53.199-4.598 69.411-20.81zm183.96 27.907l36.221 55.301 46.844-7.343-30.48 38.629 4.385 58.433-34.524-43.517-46.91 4.455 36.069-36.397-11.605-69.561zm69.356 285.76l63.566 8.961 24.598-33.759 5.01 43.007 39.004 33.589-48.504-5.533-26.433 32.004-.144-45.103-57.097-33.166zm316.542-1143.03l72.19 8.881L828.007-578l4.667 49.881 43.616 38.11-55.115-5.261-30.883 37.85.926-52.437-64.236-37.18zm299.198 106.812l32.08 55.608 41.74-1.4-30.8 30.425-2.46 51.415-25.5-41.628-41.491-1.125 35.451-27.882-9.02-65.413zm221.2 279.922c-1.63-.028-3.27.041-4.91.227 14.17-44.555 24.76-79.179 26.31-87.208 4.79-24.854-12.55-43.624-36.17-38.582-16.01 3.419-34.03 29.296-53.35 77.62l-8.51 27.458c13.21-2.478 25.22-2.31 32.85.133 10.59 3.386 24.12 9.41 37.41 20.778-7.56 1.193-14.92 5.031-20.38 13.56-16.96 26.496-7.5 49.077-38.01 61.115-30.52 12.038-45.77.275-63.2 26.811-5.85 8.903-10.4 15.743-13.64 20.523-11.46-30.252-12.58-67.46-4.07-92.002 9.72-28.046 38.25-43.805 63.87-49.826l9.3-30.004.06-.173c19.91-49.804 38.58-76.634 56.71-80.504 26.97-5.758 47.06 15.981 41.66 43.967-1.56 8.061-11.96 42.138-25.93 86.107zm16.42 27.005c6.99 11.039 13.23 24.502 18.05 40.947 14.17 48.33-40.68 91.913-90.25 102.75-16.14 48.138-29.22 85.717-32.69 92.778-10.54 21.433-36.22 22.602-58.5 5.836-14.33-10.785-11.08-46.133 8.79-106.85l4.87-15.715 1.78 2.05c7.23-20.754 15.54-33.495 24.95-38.225 14.1-7.096 65.71-13.544 77.78-38.223 11.54-23.603 23.87-54.908 45.22-45.348zm-77.4 144.717c-11.03 1.91-21.67 2.118-31.06.304-15.14-2.922-27.29-12.17-36.55-24.929l-5.19 16.751-.01.035c-19.18 58.595-22.33 92.78-10.41 101.747 9.52 7.164 20.16 10.962 29.5 10.537 9.74-.443 17.49-5.383 22.09-14.723 3.34-6.807 15.95-43 31.63-89.722zm-7.11-219.753l-.07.173c.02-.028.03-.057.04-.085l.03-.088zM481.478-252.7l3.896-1.433c.06-.067.123-.131.189-.191 3.891-4.995 4.479-9.205 2.078-13.046-2.494-3.991-6.759-5.257-13.371-3.686a2.29 2.29 0 01-.489.062l-43.27 16.099a2.3 2.3 0 01-1.303.091h-.001c-4.042 3.938-4.681 7.795-2.106 12.218 2.812 4.831 6.951 6.407 13.032 4.863a2.297 2.297 0 011.15-.004c.216-.199.474-.36.766-.467l38.473-14.154c-4.765 1.027-8.38-1.341-10.259-6.477-1.928-5.271-.616-9.372 3.953-11.208a2.306 2.306 0 111.72 4.281c-2.026.814-2.479 2.23-1.341 5.343 1.154 3.154 2.652 4.105 5.114 3.516a2.307 2.307 0 011.769 4.193zm6.704 2.45l-44.54 16.385c-.429.158-.874.18-1.289.089-3.066 5.079-3.144 9.819-.296 14.572 2.029 3.385 4.579 5.532 7.697 6.538 2.209.713 4.592.665 6.77-.136l12.73-4.681c.115-.076.239-.143.371-.199l25.276-10.749c5.11-4.333 6.638-8.84 4.891-13.912-1.675-4.865-5.403-7.466-11.61-7.907zm-6.83 32.594l23.839 30.1 33.18-45.576a18.453 18.453 0 00-.473-22.342l-71.258-89.647c-10.852 1.009-17-5.51-17.846-18.593a7.487 7.487 0 00-6.439 2.815c-4.959 6.248-5.337 12.43-1.181 19.082 1.6 2.561 7.831 13.377 18.76 32.562a2.306 2.306 0 01-.728 3.063l-20.795 13.808 19.809-6.237c.068-.021.136-.039.206-.054 8.479-1.828 14.915.318 18.761 6.474 3.145 5.032 3.122 10.445.081 15.979 6.375-.57 11.247 1.544 14.285 6.407 2.975 4.761 2.812 9.947-.299 15.305 6.463 1.165 10.861 4.744 12.9 10.665 2.442 7.093.147 13.623-6.563 19.179a2.317 2.317 0 01-.569.346l-15.67 6.664zm-56.715-65.582l-6.792 4.509a.595.595 0 00-.113.099c-5.183 5.88-6.144 10.779-3.311 15.198 2.776 4.331 6.854 5.877 12.729 4.714.339-.067.659-.062.954.001.222-.214.491-.387.798-.501l41.94-15.604c.078-.186.182-.364.313-.53 4.236-5.39 4.852-10.033 2.12-14.405-2.718-4.349-7.13-5.838-13.774-4.431l-34.527 10.871a2.416 2.416 0 01-.337.079zm29.007-78.182c.969 7.367 3.995 11.126 9.346 11.708l-8.895-11.191a7.655 7.655 0 00-.451-.517zm15.05 11.47a2.309 2.309 0 011.943 2.445l70.872 89.161a23.064 23.064 0 01.591 27.927l-34.967 48.031a2.307 2.307 0 01-3.673.075l-26.273-33.174-19.071 7.012a14.992 14.992 0 01-9.778.197c-4.229-1.365-7.657-4.25-10.238-8.557-3.056-5.1-3.538-10.406-1.479-15.724-5.806.201-10.412-2.391-13.507-7.709-2.714-4.662-2.86-9.25-.516-13.499-5.094-.285-9.183-2.688-12.061-7.178-4.08-6.366-2.692-13.446 3.734-20.737.301-.341.644-.64 1.023-.892l39.566-26.271c-10.215-17.923-16.101-28.133-17.598-30.53-5.196-8.314-4.687-16.624 1.48-24.394 4.157-5.238 11.774-6.114 17.013-1.956a12.11 12.11 0 011.951 1.949l10.988 13.824zm-2.643 69.927a2.307 2.307 0 11.44 4.592c-5.01.479-8.359-2.374-9.525-7.819-1.176-5.488.693-9.367 5.474-10.549a2.307 2.307 0 011.107 4.478c-2.12.524-2.765 1.864-2.071 5.105.704 3.284 2.054 4.434 4.575 4.193zm24.371 46.64a2.307 2.307 0 01.759 4.55c-4.964.828-8.504-1.785-10.048-7.135-1.555-5.393.039-9.392 4.725-10.905a2.308 2.308 0 011.417 4.39c-2.078.671-2.628 2.052-1.709 5.236.93 3.227 2.358 4.281 4.856 3.864zM650.658 40.655l10.029 15.54 121.531-81.663-8.547-14.21-123.013 80.333zM627.2 78.695l29.538-19.847-10.051-15.6-117.209 76.544 9.79 15.075L627.2 78.696zm16.21-40.532L538.971-123.918 424.05-42.552 526.95 115.9l116.46-77.736zm-117.611-55.07c3.814-1.33 7.962-1.639 10.596-.767 7.054 2.333 12.76 7.726 15.751 17.696 1.862 6.21-1.225 12.326-7.36 16.754-5.457 3.938-12.573 5.936-17.942 4.843-5.366-1.093-9.259-5.695-11.287-12.164-1.751-5.584-1.896-12.053-.358-16.632a13.574 13.574 0 012.85-4.818L507.131-15.8a2.307 2.307 0 111.518-4.356l8.317 2.898-4.588-6.314a2.307 2.307 0 013.732-2.712l4.973 6.845-.37-9.44a2.307 2.307 0 014.61-.181l.476 12.153zm1.004 4.545c-3.62 1.388-6.237 3.695-7.231 6.654-1.209 3.601-1.087 9.084.386 13.782 1.576 5.027 4.365 8.324 7.807 9.025 3.992.813 9.839-.829 14.321-4.064 4.7-3.391 6.851-7.654 5.641-11.687-2.536-8.454-7.093-12.761-12.78-14.643-1.657-.548-5.076-.244-8.144.933zm164.586 7.721a2.307 2.307 0 014.199-1.91c2.084 4.58.477 8.676-4.292 11.551-4.806 2.899-9.082 2.394-11.756-1.741a2.306 2.306 0 113.873-2.505c1.186 1.833 2.663 2.008 5.501.296 2.876-1.734 3.524-3.386 2.475-5.69zm26.978-15.607a2.307 2.307 0 014.199-1.91c2.084 4.58.477 8.675-4.292 11.55-4.806 2.9-9.082 2.394-11.756-1.74a2.306 2.306 0 113.873-2.506c1.186 1.834 2.663 2.008 5.501.297 2.876-1.735 3.524-3.386 2.475-5.691z" fill="#7B61FF"/></g></svg>