<svg width="576" height="508" viewBox="0 0 576 508" fill="none" xmlns="http://www.w3.org/2000/svg">
<mask id="mask0" mask-type="alpha" maskUnits="userSpaceOnUse" x="0" y="53" width="414" height="414">
<circle cx="207" cy="260" r="207" fill="#C4C4C4"/>
</mask>
<g mask="url(#mask0)">
<path fill-rule="evenodd" clip-rule="evenodd" d="M1103.01 697.101C1102.93 696.911 1102.85 696.723 1102.75 696.538L1101.39 694.012L1136.56 615.451C1137.72 612.867 1136.56 609.834 1133.98 608.677C1131.39 607.52 1128.36 608.677 1127.2 611.261L1095.25 682.625L1059.24 615.813C1057.9 613.32 1054.79 612.389 1052.3 613.732C1049.81 615.075 1048.87 618.185 1050.22 620.677L1089.96 694.431L1088.96 696.661C1088.9 696.799 1088.85 696.938 1088.8 697.077L918.884 859.51L916.475 858.254L776.761 1032.77C775.283 1034.61 772.735 1035.21 770.592 1034.21L310.58 819.702C307.321 818.182 306.599 813.868 309.184 811.369L330.826 790.455C344.926 776.829 363.768 769.212 383.377 769.212H542.626L623.388 705.444L412.007 595.234L834.636 185.642L551.875 135.784L566.64 52.0471L398.974 8.12164C396.686 7.5224 395.105 5.43671 395.147 3.07257L402.519 -419.305L215.518 -350.207C206.583 -329.222 192.926 -308.322 174.601 -285.911C132.672 -234.632 82.6999 -205.91 24.3543 -205.91C-30.0303 -205.91 -80.985 -235.852 -125.133 -285.76C-162.44 -327.933 -179.441 -363.693 -179.441 -410.987C-179.441 -455.039 -164.372 -500.28 -138.881 -535.272C-101.414 -586.703 -42.4959 -616.065 24.3543 -616.065C64.0289 -616.065 102.676 -599.604 141.879 -570.265L198.577 -658.291C220.072 -691.662 255.816 -713.192 295.366 -716.588L472.683 -731.815C480.785 -732.511 488.734 -729.303 494.084 -723.179C503.354 -712.566 502.265 -696.447 491.652 -687.176L473.642 -671.445C469.285 -667.639 466.874 -662.075 467.075 -656.294C467.446 -645.682 476.349 -637.38 486.961 -637.75L518.724 -638.86C526.727 -639.139 534.353 -635.452 539.104 -629.006C547.056 -618.218 544.757 -603.026 533.969 -595.074L510.556 -577.815C506.225 -574.624 503.43 -569.764 502.85 -564.416C501.703 -553.86 509.331 -544.373 519.887 -543.226L580.043 -536.691C589.71 -535.641 597.95 -529.212 601.321 -520.091C606.228 -506.811 599.44 -492.068 586.16 -487.161L484.737 -449.685L542.117 -329.311L624.315 -275.045L645.334 -394.253L936.73 -272.776L945.023 -311.792C945.882 -315.829 949.773 -318.469 953.842 -317.773L1267.42 -264.169C1271.61 -263.453 1274.42 -259.479 1273.7 -255.293C1273.68 -255.14 1273.68 -255.14 1273.65 -254.989C1265.02 -214.961 1256.93 -177.444 1249.38 -142.439L1249.91 -142.218L1400.84 79.0084C1375.59 65.7766 1344.23 70.391 1323.86 91.1749C1308.75 106.586 1296.88 120.769 1288.23 133.723C1272.95 156.623 1261.54 173.726 1254 185.032L1319.54 198.269C1319.81 197.687 1320.2 197.147 1320.69 196.683C1330.04 187.966 1340.35 174.677 1351.55 156.844C1363.18 138.343 1381.41 115.902 1406.25 89.4567C1408.19 87.393 1411.44 87.2919 1413.5 89.2307C1415.56 91.1696 1415.66 94.4142 1413.73 96.4778C1389.29 122.482 1371.46 144.444 1360.24 162.3C1349.98 178.627 1340.35 191.402 1331.3 200.645L1389.88 212.475C1390.02 212 1390.23 211.536 1390.52 211.101C1402.6 192.853 1414.48 177.313 1426.17 164.479C1437.69 151.817 1450.72 137.914 1465.23 122.768C1467.19 120.724 1470.44 120.655 1472.48 122.614C1474.53 124.573 1474.6 127.818 1472.64 129.863C1458.18 144.949 1445.21 158.789 1433.75 171.382C1422.89 183.302 1411.81 197.715 1400.5 214.62L1433.54 221.293C1422.7 217.112 1417.98 209.332 1421.07 199.283C1421.9 196.576 1424.77 195.058 1427.48 195.891C1430.18 196.724 1431.7 199.593 1430.87 202.299C1429.44 206.938 1431.26 209.701 1438.23 212.089C1445.29 214.508 1449.03 213.253 1451.45 208.173C1452.67 205.618 1455.73 204.536 1458.29 205.757C1460.84 206.977 1461.93 210.038 1460.71 212.593C1457.28 219.77 1451.6 223.419 1444.39 223.485L1458.98 226.432C1458.53 224.566 1459.15 222.522 1460.74 221.235L1527.84 166.978C1530.04 165.197 1533.27 165.539 1535.05 167.74C1536.83 169.942 1536.49 173.17 1534.29 174.951L1468.29 228.313L1512.2 237.182L1500.66 287.542V289.514L1611.86 311.835L1610.75 309.518L1879.74 358.848L1790.26 557.195L1822.69 574.633C1844.31 586.255 1871.25 578.347 1883.16 556.884C1922.2 486.523 1960.13 419.066 1996.97 354.514C2036.33 285.538 2065.97 208.698 2085.9 123.98C2090.23 105.549 2082.53 86.3805 2066.64 76.0759L1966.57 11.1592C1964.19 9.61823 1963.52 6.4433 1965.06 4.06787C1966.6 1.69238 1969.77 1.01581 1972.15 2.55682L2072.22 67.4736C2091.74 80.1334 2101.2 103.683 2095.88 126.327C2075.74 211.983 2045.74 289.744 2005.88 359.596C1969.06 424.111 1931.14 491.532 1892.13 561.859C1877.5 588.227 1844.4 597.943 1817.84 583.665L1786.03 566.564L1722.5 707.379C1710.11 734.835 1681.64 751.388 1651.65 748.574L1103.01 697.101ZM902.57 851.005L633.354 710.64L554.195 773.142L640.419 812.173C642.999 813.341 644.143 816.379 642.975 818.958C641.808 821.538 638.77 822.682 636.19 821.515L543.3 779.466H383.377C366.427 779.466 350.14 786.05 337.951 797.828L321.672 813.56L719.236 998.948C765.632 954.113 806.787 931.509 842.959 931.509C843.497 931.509 844.015 931.592 844.503 931.745L906.955 853.738L902.57 851.005ZM568.426 41.9153L622.374 -264.04L535.278 -321.539C534.499 -322.053 533.876 -322.77 533.474 -323.612L470.643 -455.423C463.602 -470.195 451.276 -481.788 436.101 -487.913L414.127 -496.782L408.849 -194.412C410.224 -195.484 412.112 -195.828 413.856 -195.153C482.002 -168.795 507.743 -95.9432 491.835 21.8497H491.835L568.426 41.9153ZM1759.9 -212.319C1763.3 -211.389 1766.8 -210.896 1770.41 -210.833C1781.39 -210.641 1791.53 -214.47 1800.99 -222.478C1791.81 -230.811 1781.81 -234.991 1770.83 -235.182C1765.11 -235.282 1759.61 -234.288 1754.31 -232.176C1755.28 -232.218 1756.26 -232.115 1757.24 -231.853C1762.71 -230.387 1765.88 -224.488 1764.33 -218.676C1763.6 -215.97 1761.98 -213.76 1759.9 -212.319ZM1744.14 -220.294C1744.07 -221.499 1744.19 -222.743 1744.52 -223.983C1744.96 -225.624 1745.73 -227.083 1746.73 -228.298C1744.54 -226.92 1742.38 -225.334 1740.26 -223.538C1741.54 -222.376 1742.83 -221.295 1744.14 -220.294ZM1736.26 -277.292L1716.38 -268.442C1710.22 -261.773 1705.43 -253.677 1702.56 -244.483L1669.94 -139.728C1691.44 -125.638 1714.09 -115.23 1737.88 -108.493C1761.76 -101.736 1790.48 -99.0864 1824.06 -100.584L1828.09 -141.767C1828.41 -145.033 1831.68 -147.161 1834.8 -146.137C1835.97 -145.751 1837.18 -145.437 1838.41 -145.198C1854.39 -142.091 1869.87 -152.529 1872.97 -168.511C1876.08 -184.493 1865.64 -199.967 1849.66 -203.074C1846.57 -203.674 1843.47 -203.779 1840.42 -203.402C1837.45 -203.036 1834.86 -205.265 1834.67 -208.137C1816.94 -227.877 1803.69 -242.419 1794.93 -251.763C1786.71 -260.536 1776.81 -271.189 1765.25 -283.721C1734.75 -270.133 1715.64 -242.225 1707.81 -199.414L1736.05 -193.924C1738.83 -193.384 1740.65 -190.693 1740.11 -187.913C1739.57 -185.134 1736.88 -183.319 1734.1 -183.859L1700.94 -190.305C1698.22 -190.832 1696.42 -193.414 1696.85 -196.142C1702.57 -232.136 1715.73 -259.272 1736.26 -277.292ZM1800.07 -289.903C1828.16 -275.74 1846.3 -246.279 1845.28 -213.855C1847.39 -213.787 1849.51 -213.549 1851.62 -213.14C1873.16 -208.952 1887.23 -188.095 1883.04 -166.554C1878.93 -145.437 1858.81 -131.501 1837.72 -134.906L1834.35 -100.531C1873.47 -106.563 1904.5 -125.698 1921.83 -157.824C1948.59 -207.425 1959.98 -253.671 1958.74 -296.681C1957.79 -329.792 1949.57 -358.93 1936.23 -385.373C1925.44 -406.759 1893.45 -433.466 1857.11 -449.631C1813.8 -468.895 1770.11 -471.661 1733.95 -453.736C1693.18 -433.531 1649.25 -387.712 1622.75 -337.094C1593.37 -280.97 1588.89 -227.231 1614.54 -188.58C1625.29 -172.37 1641.27 -157.189 1660.55 -144.077L1692.77 -247.532C1701.13 -274.369 1723.64 -293.16 1749.79 -297.847C1736.86 -307.489 1732.71 -325.435 1740.72 -339.953C1745.04 -347.786 1752.23 -353.306 1760.45 -355.649C1753.03 -364.023 1751.15 -376.438 1756.66 -386.927C1762.26 -397.572 1774.09 -403.389 1785.94 -401.324L1805.92 -397.843C1820.25 -395.345 1829.85 -381.697 1827.35 -367.36C1827.35 -367.33 1827.34 -367.3 1827.34 -367.27C1825.64 -357.73 1819.27 -350.153 1810.96 -346.542C1820.46 -339.654 1825.65 -327.667 1823.29 -315.382C1823.28 -315.349 1823.27 -315.317 1823.27 -315.285C1820.82 -302.776 1811.58 -293.255 1800.07 -289.903ZM1885.72 -574.773L1852.22 -462.796V-462.796C1855.24 -461.607 1858.26 -460.341 1861.27 -459C1899.61 -441.949 1933.41 -413.733 1945.38 -389.992C1959.36 -362.278 1968 -331.696 1968.99 -296.975C1970.28 -252.136 1958.46 -204.115 1930.86 -152.955C1902.25 -99.9252 1840.31 -79.6176 1767 -91.47C1700.21 -102.268 1635.4 -138.598 1605.99 -182.911C1577.93 -225.206 1582.72 -282.742 1613.67 -341.85C1641.12 -394.296 1686.57 -441.701 1729.39 -462.924C1763.3 -479.728 1802.85 -479.795 1842.57 -466.33L1875.87 -577.621C1873.25 -579.033 1871.03 -580.872 1869.69 -582.928C1864.59 -590.703 1873.14 -603.551 1880.42 -607.212C1887.71 -610.873 1896.95 -604.741 1898.83 -600.96C1900.71 -597.178 1902.76 -590.08 1897.51 -580.281C1895.23 -576.012 1890.62 -574.489 1885.72 -574.773ZM1770.23 -200.581C1754.87 -200.849 1741.08 -207.452 1729.09 -220.147C1727.18 -222.173 1727.23 -225.358 1729.22 -227.316C1741.64 -239.585 1755.65 -245.703 1771.01 -245.435C1786.37 -245.167 1800.16 -238.564 1812.15 -225.869C1814.07 -223.842 1814.01 -220.657 1812.03 -218.699C1799.6 -206.43 1785.59 -200.313 1770.23 -200.581ZM1711.46 -172.525C1709.2 -174.228 1708.74 -177.442 1710.45 -179.704C1712.15 -181.967 1715.36 -182.421 1717.63 -180.718C1722.99 -176.679 1730.38 -175.482 1740.12 -177.356C1742.9 -177.892 1745.59 -176.071 1746.12 -173.291C1746.66 -170.51 1744.84 -167.822 1742.06 -167.287C1729.68 -164.905 1719.37 -166.574 1711.46 -172.525ZM729.205 1003.6L771.274 1023.21L836.252 942.051C805.456 944.665 769.708 965.086 729.205 1003.6ZM481.84 19.2314C496.849 -93.6339 472.706 -161.396 410.157 -185.59C409.616 -185.799 409.131 -186.09 408.71 -186.443L405.469 -0.776489L481.84 19.2314ZM24.3543 -216.164C79.2826 -216.164 126.531 -243.32 166.663 -292.402C200.87 -334.237 217.896 -370.029 217.896 -410.987C217.896 -469.628 191.724 -518.065 143.025 -556.454C102.886 -588.095 63.847 -605.811 24.3543 -605.811C-39.2492 -605.811 -95.0751 -577.99 -130.593 -529.234C-154.82 -495.977 -169.188 -452.844 -169.188 -410.987C-169.188 -366.548 -153.244 -333.014 -117.453 -292.553C-75.0681 -244.64 -26.6093 -216.164 24.3543 -216.164ZM269.635 116.845L239.647 260.697L324.816 322.782L216.193 335.593L131.24 434.329L145.375 311.665L64.6413 244.936L178.543 244.419L269.635 116.845ZM-70.5043 675.008L15.3234 789.005L107.047 774.607L47.3235 850.078L55.8347 964.179L-11.7048 879.244L-103.555 888.002L-32.8897 816.882L-70.5043 675.008ZM2223.62 -624.05L2323.13 -496.623L2431.08 -513.927L2360.01 -428.189L2368.67 -299.734L2290.31 -394.633L2182.28 -383.682L2266.15 -464.646L2223.62 -624.05ZM2526.02 14.1166L2489.03 151.933L2556.84 215.348L2460.6 214.75L2375.93 291.704L2401.28 186.191L2337.83 119.205L2437.38 131.104L2526.02 14.1166ZM2433.71 801.764C2431.2 799.16 2428.51 796.687 2425.64 794.404C2517.95 746.649 2589.01 708.868 2604.06 698.683C2650.67 667.154 2652.9 610.388 2607.86 581.192C2577.31 561.396 2508.32 573.753 2402 619.334L2345.46 649.112C2370.13 665.989 2388.73 685.122 2396.89 700.964C2408.21 722.922 2420.02 753.67 2423.03 792.416C2409.28 782.416 2391.67 776.871 2369.68 781.699C2301.39 796.694 2280.76 847.055 2213.88 818.015C2147 788.975 2141.51 746.509 2072.4 760.819C2049.22 765.62 2031.32 769.228 2018.71 771.642C2048.25 706.083 2104.97 645.838 2156.92 620.638C2216.29 591.839 2285.89 611.901 2335.62 642.706L2397.4 610.167C2397.52 610.103 2397.64 610.045 2397.77 609.991C2507.34 562.999 2578.85 550.174 2613.44 572.587C2664.88 605.928 2662.28 671.674 2609.81 707.176C2594.7 717.402 2524.78 754.615 2433.71 801.764ZM2417.08 870.018C2410.72 898.359 2399.36 929.323 2381.09 962.748C2327.4 1060.98 2172.69 1043.28 2077.74 982.403C1976.7 1032.68 1897.08 1071.19 1880.52 1076.83C1830.26 1093.96 1788.07 1055.43 1779.4 994.059C1773.82 954.582 1834.49 904.135 1961.16 839.929L1993.52 822.888L1993.1 828.909C2037.08 807.652 2070.17 800.694 2092.39 808.037C2125.71 819.051 2216.96 890.031 2274.72 870.214C2329.96 851.26 2398.55 821.437 2417.08 870.018ZM2067.96 975.827C2047.61 961.488 2030.57 945.097 2018.66 927.482C1999.45 899.089 1994.89 865.457 2000.4 830.854L1965.9 849.021L1965.83 849.057C1843.59 911.015 1784.92 959.8 1789.55 992.625C1793.26 1018.85 1804.01 1041.55 1819.36 1055.56C1835.37 1070.17 1855.31 1074.59 1877.21 1067.13C1893.17 1061.69 1969.87 1024.61 2067.96 975.827ZM2402.18 619.239L2401.81 619.415C2401.87 619.388 2401.94 619.361 2402 619.334L2402.18 619.239ZM1375.11 -547.294L1383.49 -543.422C1383.69 -543.435 1383.89 -543.437 1384.09 -543.427C1398.05 -545.162 1405.59 -550.855 1407.86 -560.665C1410.21 -570.859 1405.5 -579.553 1392.63 -587.476C1392.32 -587.672 1392.03 -587.897 1391.77 -588.146L1298.45 -630.854C1297.52 -631.281 1296.78 -631.953 1296.26 -632.759C1296.26 -632.759 1296.26 -632.759 1296.26 -632.759C1283.72 -632.923 1276.65 -627.866 1273.75 -616.867C1270.57 -604.854 1274.6 -595.869 1286.59 -588.739C1287.39 -588.263 1287.99 -587.639 1288.4 -586.938C1289.05 -586.911 1289.71 -586.759 1290.34 -586.468L1373.06 -548.244C1363.95 -554.118 1361.99 -563.523 1367.11 -574.549C1372.37 -585.864 1380.87 -590.248 1390.94 -585.952C1393.55 -584.841 1394.76 -581.829 1393.64 -579.225C1392.53 -576.62 1389.52 -575.41 1386.92 -576.521C1382.45 -578.426 1379.51 -576.912 1376.41 -570.23C1373.27 -563.459 1374.13 -559.61 1378.92 -556.666C1381.34 -555.185 1382.09 -552.028 1380.61 -549.615C1379.43 -547.694 1377.19 -546.823 1375.11 -547.294ZM1381.8 -532.908L1286.04 -577.16C1285.12 -577.586 1284.38 -578.25 1283.87 -579.046C1271.07 -575.881 1263.5 -568.554 1260.5 -556.607C1258.37 -548.098 1259.01 -540.716 1262.32 -534.232C1264.68 -529.641 1268.5 -525.97 1273.18 -523.806L1300.55 -511.154C1300.85 -511.093 1301.15 -511.003 1301.44 -510.884L1358.06 -488.05C1372.91 -486.829 1382.39 -491.512 1387.62 -502.23C1392.63 -512.509 1390.86 -522.456 1381.8 -532.908ZM1319.83 -492.411L1309.99 -407.63L1433.78 -427.115C1451.99 -429.983 1466.06 -444.654 1468.15 -462.975L1497.05 -715.882C1478.41 -731.353 1479 -751.263 1498.23 -773.156C1494.75 -777.203 1489.39 -779.508 1483.68 -778.852C1466.07 -776.826 1455.76 -767.703 1451.84 -750.716C1450.33 -744.176 1443.12 -717.38 1430.14 -670.048C1429.43 -667.448 1426.83 -665.845 1424.18 -666.378L1369.79 -677.361L1410.73 -656.029C1410.87 -655.955 1411.01 -655.876 1411.14 -655.79C1427.34 -645.336 1434.09 -631.848 1430.46 -616.126C1427.49 -603.274 1418.94 -594.801 1405.47 -590.884C1416.38 -581.759 1420.72 -570.778 1417.85 -558.359C1415.04 -546.199 1406.63 -538.305 1393.32 -534.774C1401.65 -522.784 1402.94 -510.245 1396.84 -497.735C1389.53 -482.748 1375.65 -476.091 1356.37 -477.905C1355.88 -477.952 1355.4 -478.069 1354.94 -478.255L1319.83 -492.411ZM1333.77 -684.636L1316.01 -688.222C1315.9 -688.245 1315.78 -688.252 1315.67 -688.245C1298.28 -687.15 1289.08 -680.96 1286.58 -669.562C1284.14 -658.392 1288.12 -649.55 1299.18 -642.146C1299.82 -641.719 1300.31 -641.206 1300.68 -640.643C1301.36 -640.632 1302.06 -640.481 1302.72 -640.178L1393.17 -598.783C1393.58 -598.952 1394.02 -599.068 1394.49 -599.124C1409.62 -600.937 1417.89 -607.267 1420.46 -618.433C1423.03 -629.541 1418.43 -638.817 1405.78 -647.047L1334.42 -684.23C1334.19 -684.35 1333.97 -684.486 1333.77 -684.636ZM1502.25 -761.927C1492.19 -748.826 1491.04 -738.162 1498.53 -728.834L1502.14 -760.407C1502.2 -760.912 1502.24 -761.419 1502.25 -761.927ZM1507.87 -720.244C1509.13 -718.513 1509.22 -716.103 1507.91 -714.26C1507.67 -713.916 1507.39 -713.612 1507.09 -713.348L1478.34 -461.811C1475.72 -438.909 1458.14 -420.57 1435.37 -416.986L1304.92 -396.452C1301.57 -395.924 1298.64 -398.738 1299.03 -402.107L1309.87 -495.546L1268.88 -514.498C1262.11 -517.625 1256.59 -522.927 1253.2 -529.559C1248.7 -538.35 1247.84 -548.273 1250.56 -559.1C1253.77 -571.92 1261.35 -581.017 1272.95 -586.14C1263.5 -594.949 1260.34 -606.262 1263.83 -619.486C1266.9 -631.08 1273.88 -638.521 1284.24 -641.515C1276.68 -649.969 1274.03 -660.174 1276.56 -671.754C1280.16 -688.174 1293.47 -697.12 1315.03 -698.479C1316.04 -698.542 1317.05 -698.473 1318.04 -698.273L1421.52 -677.377C1433.63 -721.603 1440.43 -746.902 1441.84 -753.023C1446.75 -774.258 1460.61 -786.52 1482.51 -789.039C1497.28 -790.738 1510.63 -780.143 1512.33 -765.374C1512.56 -763.337 1512.56 -761.28 1512.33 -759.243L1507.87 -720.244ZM1393.81 -614.488C1395.99 -612.686 1396.3 -609.455 1394.5 -607.271C1392.7 -605.087 1389.47 -604.777 1387.28 -606.58C1378.66 -613.699 1377.88 -623.449 1384.6 -633.841C1391.38 -644.315 1400.41 -647.472 1409.79 -641.817C1412.21 -640.354 1412.99 -637.203 1411.53 -634.779C1410.06 -632.354 1406.91 -631.575 1404.49 -633.038C1400.33 -635.546 1397.21 -634.455 1393.21 -628.27C1389.15 -622.002 1389.47 -618.071 1393.81 -614.488ZM1358.81 -502.874C1361.11 -501.229 1361.65 -498.027 1360 -495.722C1358.35 -493.418 1355.15 -492.884 1352.85 -494.53C1343.74 -501.03 1342.29 -510.702 1348.27 -521.537C1354.3 -532.459 1363.09 -536.239 1372.84 -531.251C1375.36 -529.961 1376.36 -526.872 1375.07 -524.351C1373.78 -521.831 1370.69 -520.833 1368.17 -522.124C1363.85 -524.335 1360.81 -523.03 1357.25 -516.58C1353.64 -510.045 1354.23 -506.146 1358.81 -502.874ZM1179.93 179.709C1175.44 200.541 1172.56 213.937 1171.27 219.897L1490.65 282.562L1499.55 246.793L1179.93 179.709ZM1083.27 202.631L1160.9 217.861L1169.62 177.544L865.081 113.626L856.774 152.709L1083.27 202.631ZM1172.46 164.4L1263.06 -254.511L954.541 -307.251L867.226 103.534L1172.46 164.4ZM1074.16 -107.016C1082.25 -103.112 1089.25 -97.0785 1092.02 -91.5674C1099.44 -76.8132 1099.93 -59.3686 1088.96 -38.9968C1082.13 -26.3088 1067.66 -21.5475 1051.06 -24.2309C1036.29 -26.6178 1021.97 -34.6632 1015.25 -44.82C1008.53 -54.9727 1009.65 -68.3239 1016.63 -81.6805C1022.65 -93.208 1032.59 -103.604 1042.21 -108.384C1046.01 -110.273 1050.07 -111.274 1054.26 -111.478L1043.08 -134.62C1041.85 -137.169 1042.91 -140.235 1045.46 -141.467C1048.01 -142.698 1051.08 -141.63 1052.31 -139.081L1060.83 -121.452L1063.54 -138.588C1063.98 -141.384 1066.61 -143.292 1069.41 -142.849C1072.2 -142.406 1074.11 -139.78 1073.67 -136.984L1070.73 -118.408L1084.98 -133.828C1086.91 -135.907 1090.15 -136.035 1092.23 -134.112C1094.31 -132.19 1094.44 -128.947 1092.51 -126.867L1074.16 -107.016ZM1068.6 -98.2948C1060.72 -101.803 1052.98 -102.29 1046.77 -99.2018C1039.21 -95.4424 1030.78 -86.6329 1025.71 -76.9316C1020.29 -66.5534 1019.49 -56.9894 1023.8 -50.478C1028.8 -42.9247 1040.57 -36.3138 1052.7 -34.3534C1065.42 -32.2979 1075.5 -35.6157 1079.93 -43.8582C1089.24 -61.1317 1088.84 -75.0638 1082.86 -86.9607C1081.12 -90.4268 1075.27 -95.3225 1068.6 -98.2948ZM1315.15 172.535C1316.14 169.884 1319.1 168.539 1321.75 169.532C1324.4 170.525 1325.75 173.48 1324.75 176.131C1320.83 186.607 1311.87 190.518 1299.85 187.542C1287.74 184.543 1281.81 177.029 1284.11 166.326C1284.7 163.558 1287.43 161.795 1290.2 162.389C1292.97 162.983 1294.73 165.709 1294.14 168.477C1293.12 173.223 1295.16 175.818 1302.32 177.589C1309.56 179.384 1313.18 177.807 1315.15 172.535ZM1382.09 190.407C1383.08 187.755 1386.03 186.411 1388.69 187.404C1391.34 188.397 1392.68 191.352 1391.69 194.003C1387.77 204.478 1378.8 208.39 1366.79 205.414C1354.68 202.415 1348.75 194.901 1351.05 184.198C1351.64 181.43 1354.37 179.667 1357.13 180.261C1359.9 180.855 1361.67 183.581 1361.07 186.349C1360.05 191.095 1362.1 193.69 1369.25 195.461C1376.5 197.256 1380.11 195.679 1382.09 190.407Z" fill="#212121"/>
</g>
<mask id="mask1" mask-type="alpha" maskUnits="userSpaceOnUse" x="0" y="53" width="414" height="414">
<circle cx="207" cy="260" r="207" fill="#C4C4C4"/>
</mask>
<g mask="url(#mask1)">
<path fill-rule="evenodd" clip-rule="evenodd" d="M1282.45 130.694C1282.37 130.503 1282.29 130.316 1282.19 130.131L1280.83 127.605L1316 49.0438C1317.16 46.4595 1316 43.4265 1313.42 42.2695C1310.83 41.1124 1307.8 42.2694 1306.64 44.8538L1274.69 116.218L1238.68 49.4056C1237.34 46.9131 1234.23 45.9813 1231.74 47.3246C1229.25 48.6678 1228.31 51.7775 1229.66 54.27L1269.4 128.024L1268.41 130.254C1268.34 130.392 1268.29 130.53 1268.24 130.67L1098.33 293.103L1095.92 291.847L956.202 466.359C954.725 468.205 952.176 468.801 950.033 467.802L490.022 253.295C486.763 251.775 486.04 247.46 488.626 244.962L510.267 224.048C524.367 210.422 543.209 202.805 562.818 202.805H722.067L802.83 139.037L591.448 28.8263L1014.08 -380.765L731.316 -430.624L746.081 -514.36L578.415 -558.286C576.128 -558.885 574.547 -560.971 574.588 -563.335L581.961 -985.712L394.959 -916.615C386.024 -895.63 372.367 -874.729 354.043 -852.318C312.113 -801.039 262.141 -772.317 203.796 -772.317C149.411 -772.317 98.4564 -802.26 54.3086 -852.167C17.0019 -894.34 0 -930.101 0 -977.394C0 -1021.45 15.0696 -1066.69 40.5605 -1101.68C78.0272 -1153.11 136.946 -1182.47 203.796 -1182.47C243.47 -1182.47 282.117 -1166.01 321.321 -1136.67L378.019 -1224.7C399.514 -1258.07 435.258 -1279.6 474.807 -1283L652.125 -1298.22C660.227 -1298.92 668.175 -1295.71 673.525 -1289.59C682.795 -1278.97 681.707 -1262.85 671.093 -1253.58L653.083 -1237.85C648.727 -1234.05 646.315 -1228.48 646.517 -1222.7C646.887 -1212.09 655.79 -1203.79 666.402 -1204.16L698.165 -1205.27C706.168 -1205.55 713.794 -1201.86 718.545 -1195.41C726.498 -1184.63 724.199 -1169.43 713.41 -1161.48L689.997 -1144.22C685.667 -1141.03 682.872 -1136.17 682.291 -1130.82C681.144 -1120.27 688.772 -1110.78 699.328 -1109.63L759.485 -1103.1C769.151 -1102.05 777.392 -1095.62 780.762 -1086.5C785.669 -1073.22 778.881 -1058.48 765.601 -1053.57L664.179 -1016.09L721.558 -895.718L803.756 -841.453L824.776 -960.66L1116.17 -839.183L1124.46 -878.199C1125.32 -882.236 1129.21 -884.876 1133.28 -884.18L1446.86 -830.576C1451.05 -829.86 1453.86 -825.886 1453.15 -821.7C1453.12 -821.548 1453.12 -821.548 1453.09 -821.397C1444.46 -781.368 1436.37 -743.852 1428.82 -708.846L1429.35 -708.625L1580.28 -487.399C1555.04 -500.631 1523.67 -496.016 1503.3 -475.232C1488.19 -459.821 1476.32 -445.639 1467.67 -432.685C1452.4 -409.784 1440.99 -392.681 1433.45 -381.375L1498.98 -368.138C1499.25 -368.72 1499.64 -369.26 1500.13 -369.724C1509.48 -378.441 1519.79 -391.73 1531 -409.563C1542.62 -428.064 1560.85 -450.505 1585.69 -476.951C1587.63 -479.014 1590.88 -479.115 1592.94 -477.177C1595 -475.238 1595.11 -471.993 1593.17 -469.929C1568.73 -443.925 1550.9 -421.963 1539.68 -404.108C1529.42 -387.78 1519.79 -375.005 1510.75 -365.763L1569.32 -353.932C1569.46 -354.408 1569.67 -354.871 1569.96 -355.306C1582.04 -373.554 1593.92 -389.094 1605.61 -401.929C1617.14 -414.59 1630.16 -428.493 1644.67 -443.639C1646.63 -445.684 1649.88 -445.753 1651.92 -443.793C1653.97 -441.834 1654.04 -438.589 1652.08 -436.545C1637.62 -421.459 1624.66 -407.618 1613.19 -395.025C1602.34 -383.105 1591.25 -368.692 1579.94 -351.788L1612.98 -345.114C1602.14 -349.295 1597.42 -357.075 1600.51 -367.125C1601.34 -369.831 1604.21 -371.349 1606.92 -370.516C1609.63 -369.684 1611.14 -366.814 1610.31 -364.108C1608.88 -359.469 1610.7 -356.706 1617.67 -354.318C1624.73 -351.899 1628.47 -353.155 1630.89 -358.234C1632.11 -360.789 1635.17 -361.871 1637.73 -360.651C1640.29 -359.43 1641.37 -356.37 1640.15 -353.815C1636.72 -346.637 1631.04 -342.988 1623.83 -342.922L1638.42 -339.975C1637.97 -341.841 1638.59 -343.885 1640.18 -345.172L1707.28 -399.43C1709.48 -401.21 1712.71 -400.869 1714.49 -398.667C1716.27 -396.465 1715.93 -393.237 1713.73 -391.456L1647.74 -338.094L1691.65 -329.226L1680.1 -278.865V-276.894L1791.3 -254.572L1790.2 -256.889L2059.19 -207.56L1969.7 -9.21204L2002.13 8.22607C2023.75 19.8481 2050.7 11.9393 2062.6 -9.52307C2101.64 -79.8845 2139.58 -147.341 2176.41 -211.893C2215.77 -280.87 2245.42 -357.709 2265.34 -442.427C2269.67 -460.859 2261.97 -480.027 2246.08 -490.331L2146.01 -555.248C2143.64 -556.789 2142.96 -559.964 2144.5 -562.339C2146.04 -564.715 2149.22 -565.391 2151.59 -563.85L2251.66 -498.934C2271.18 -486.274 2280.64 -462.724 2275.32 -440.08C2255.18 -354.424 2225.18 -276.663 2185.32 -206.811C2148.5 -142.296 2110.59 -74.8748 2071.57 -4.54858C2056.94 21.8196 2023.84 31.5361 1997.28 17.2576L1965.47 0.157227L1901.94 140.971C1889.55 168.428 1861.09 184.981 1831.1 182.167L1282.45 130.694ZM1082.01 284.597L812.796 144.233L733.636 206.735L819.86 245.766C822.44 246.934 823.585 249.971 822.417 252.551C821.249 255.13 818.211 256.275 815.632 255.107L722.742 213.059H562.818C545.868 213.059 529.581 219.643 517.393 231.421L501.113 247.153L898.678 432.541C945.073 387.706 986.228 365.102 1022.4 365.102C1022.94 365.102 1023.46 365.185 1023.94 365.338L1086.4 287.33L1082.01 284.597ZM747.868 -524.492L801.816 -830.447L714.719 -887.947C713.941 -888.461 713.317 -889.177 712.916 -890.019L650.084 -1021.83C643.043 -1036.6 630.717 -1048.2 615.543 -1054.32L593.568 -1063.19L588.291 -760.819C589.665 -761.891 591.553 -762.235 593.298 -761.56C661.443 -735.202 687.185 -662.35 671.276 -544.557H671.276L747.868 -524.492ZM1939.34 -778.726C1942.74 -777.797 1946.24 -777.303 1949.85 -777.24C1960.83 -777.049 1970.97 -780.877 1980.43 -788.885C1971.25 -797.218 1961.25 -801.398 1950.28 -801.59C1944.55 -801.69 1939.05 -800.695 1933.75 -798.583C1934.72 -798.625 1935.71 -798.522 1936.68 -798.26C1942.15 -796.794 1945.33 -790.895 1943.77 -785.083C1943.04 -782.377 1941.42 -780.168 1939.34 -778.726ZM1923.59 -786.702C1923.51 -787.906 1923.63 -789.15 1923.96 -790.391C1924.4 -792.031 1925.17 -793.49 1926.17 -794.705C1923.98 -793.328 1921.82 -791.741 1919.7 -789.945C1920.98 -788.783 1922.27 -787.702 1923.59 -786.702ZM1915.71 -843.699L1895.82 -834.849C1889.66 -828.181 1884.87 -820.084 1882 -810.89L1849.38 -706.135C1870.88 -692.045 1893.53 -681.637 1917.33 -674.9C1941.2 -668.143 1969.92 -665.494 2003.5 -666.992L2007.54 -708.174C2007.86 -711.44 2011.12 -713.568 2014.24 -712.545C2015.41 -712.158 2016.62 -711.844 2017.85 -711.605C2033.83 -708.498 2049.31 -718.936 2052.42 -734.918C2055.52 -750.9 2045.08 -766.375 2029.1 -769.481C2026.02 -770.081 2022.91 -770.186 2019.86 -769.809C2016.89 -769.443 2014.31 -771.672 2014.11 -774.544C1996.38 -794.284 1983.14 -808.826 1974.37 -818.17C1966.15 -826.944 1956.25 -837.596 1944.69 -850.128C1914.19 -836.541 1895.08 -808.633 1887.25 -765.821L1915.49 -760.332C1918.27 -759.791 1920.09 -757.1 1919.55 -754.321C1919.01 -751.541 1916.32 -749.726 1913.54 -750.266L1880.38 -756.712C1877.67 -757.239 1875.86 -759.821 1876.29 -762.55C1882.01 -798.543 1895.17 -825.679 1915.71 -843.699ZM1979.51 -856.31C2007.6 -842.147 2025.74 -812.687 2024.72 -780.263C2026.84 -780.194 2028.95 -779.956 2031.06 -779.547C2052.6 -775.36 2066.67 -754.503 2062.48 -732.961C2058.38 -711.844 2038.25 -697.909 2017.17 -701.313L2013.8 -666.939C2052.91 -672.971 2083.94 -692.105 2101.27 -724.231C2128.03 -773.832 2139.42 -820.078 2138.19 -863.088C2137.24 -896.199 2129.01 -925.337 2115.67 -951.78C2104.88 -973.166 2072.89 -999.873 2036.55 -1016.04C1993.24 -1035.3 1949.55 -1038.07 1913.39 -1020.14C1872.62 -999.939 1828.69 -954.12 1802.19 -903.501C1772.81 -847.377 1768.33 -793.638 1793.98 -754.987C1804.73 -738.777 1820.71 -723.596 1839.99 -710.484L1872.21 -813.939C1880.57 -840.776 1903.08 -859.567 1929.23 -864.254C1916.3 -873.896 1912.15 -891.842 1920.16 -906.36C1924.48 -914.193 1931.67 -919.713 1939.89 -922.056C1932.47 -930.43 1930.59 -942.845 1936.11 -953.334C1941.7 -963.98 1953.53 -969.796 1965.38 -967.732L1985.36 -964.25C1999.69 -961.752 2009.29 -948.104 2006.79 -933.767C2006.79 -933.738 2006.78 -933.708 2006.78 -933.678C2005.08 -924.137 1998.71 -916.56 1990.4 -912.949C1999.9 -906.061 2005.09 -894.074 2002.73 -881.789C2002.72 -881.757 2002.72 -881.724 2002.71 -881.692C2000.26 -869.183 1991.02 -859.663 1979.51 -856.31ZM2065.17 -1141.18L2031.66 -1029.2V-1029.2C2034.68 -1028.01 2037.7 -1026.75 2040.72 -1025.41C2079.05 -1008.36 2112.85 -980.14 2124.82 -956.399C2138.81 -928.685 2147.44 -898.103 2148.43 -863.382C2149.72 -818.543 2137.9 -770.522 2110.3 -719.363C2081.69 -666.332 2019.76 -646.025 1946.44 -657.877C1879.65 -668.675 1814.84 -705.005 1785.43 -749.318C1757.37 -791.614 1762.16 -849.15 1793.11 -908.257C1820.56 -960.703 1866.01 -1008.11 1908.83 -1029.33C1942.74 -1046.13 1982.29 -1046.2 2022.01 -1032.74L2055.31 -1144.03C2052.69 -1145.44 2050.47 -1147.28 2049.13 -1149.34C2044.03 -1157.11 2052.58 -1169.96 2059.86 -1173.62C2067.15 -1177.28 2076.39 -1171.15 2078.27 -1167.37C2080.15 -1163.59 2082.2 -1156.49 2076.96 -1146.69C2074.67 -1142.42 2070.06 -1140.9 2065.17 -1141.18ZM1949.67 -766.988C1934.31 -767.256 1920.53 -773.859 1908.53 -786.554C1906.62 -788.58 1906.67 -791.765 1908.66 -793.724C1921.09 -805.992 1935.1 -812.11 1950.46 -811.842C1965.82 -811.574 1979.6 -804.971 1991.6 -792.276C1993.51 -790.25 1993.45 -787.065 1991.47 -785.106C1979.04 -772.838 1965.03 -766.72 1949.67 -766.988ZM1890.9 -738.932C1888.64 -740.635 1888.19 -743.849 1889.89 -746.111C1891.59 -748.374 1894.81 -748.828 1897.07 -747.125C1902.43 -743.086 1909.82 -741.89 1919.56 -743.764C1922.34 -744.299 1925.03 -742.479 1925.57 -739.698C1926.1 -736.918 1924.28 -734.23 1921.5 -733.695C1909.12 -731.312 1898.81 -732.981 1890.9 -738.932ZM908.646 437.189L950.716 456.806L1015.69 375.644C984.897 378.258 949.15 398.678 908.646 437.189ZM661.282 -547.176C676.29 -660.041 652.147 -727.803 589.598 -751.997C589.058 -752.206 588.572 -752.497 588.151 -752.85L584.911 -567.184L661.282 -547.176ZM203.796 -782.571C258.724 -782.571 305.972 -809.727 346.104 -858.809C380.311 -900.644 397.337 -936.436 397.337 -977.394C397.337 -1036.04 371.165 -1084.47 322.467 -1122.86C282.327 -1154.5 243.288 -1172.22 203.796 -1172.22C140.192 -1172.22 84.3663 -1144.4 48.8485 -1095.64C24.6212 -1062.38 10.2539 -1019.25 10.2539 -977.394C10.2539 -932.955 26.1971 -899.422 61.9887 -858.961C104.373 -811.047 152.832 -782.571 203.796 -782.571ZM449.077 -449.562L419.088 -305.71L504.258 -243.625L395.634 -230.814L310.681 -132.078L324.817 -254.742L244.083 -321.472L357.984 -321.988L449.077 -449.562ZM108.937 108.601L194.765 222.598L286.488 208.2L226.765 283.671L235.276 397.772L167.737 312.837L75.8867 321.595L146.552 250.474L108.937 108.601ZM2403.07 -1190.46L2502.57 -1063.03L2610.52 -1080.33L2539.45 -994.597L2548.11 -866.141L2469.75 -961.04L2361.72 -950.089L2445.59 -1031.05L2403.07 -1190.46ZM2705.46 -552.291L2668.47 -414.474L2736.29 -351.059L2640.04 -351.657L2555.37 -274.703L2580.72 -380.216L2517.27 -447.202L2616.82 -435.304L2705.46 -552.291ZM2613.16 235.357C2610.64 232.753 2607.95 230.28 2605.08 227.997C2697.39 180.242 2768.45 142.461 2783.51 132.276C2830.11 100.747 2832.35 43.9805 2787.3 14.7847C2756.76 -5.0116 2687.76 7.34583 2581.44 52.927L2524.9 82.7052C2549.57 99.582 2568.17 118.715 2576.34 134.557C2587.65 156.515 2599.46 187.263 2602.47 226.009C2588.72 216.009 2571.11 210.464 2549.12 215.291C2480.83 230.287 2460.21 280.648 2393.32 251.608C2326.44 222.568 2320.95 180.102 2251.84 194.412C2228.66 199.213 2210.76 202.821 2198.15 205.235C2227.69 139.676 2284.41 79.4303 2336.36 54.2303C2395.73 25.4313 2465.33 45.494 2515.06 76.2985L2576.84 43.7594C2576.96 43.696 2577.08 43.6373 2577.21 43.5837C2686.78 -3.4082 2758.3 -16.2334 2792.88 6.18005C2844.32 39.5206 2841.73 105.267 2789.25 140.769C2774.14 150.995 2704.23 188.207 2613.16 235.357ZM2596.52 303.611C2590.16 331.951 2578.8 362.916 2560.53 396.341C2506.84 494.576 2352.13 476.873 2257.18 415.995C2156.14 466.275 2076.52 504.787 2059.96 510.428C2009.7 527.549 1967.51 489.026 1958.84 427.652C1953.27 388.175 2013.94 337.727 2140.6 273.522L2172.96 256.481L2172.54 262.502C2216.52 241.245 2249.62 234.287 2271.83 241.63C2305.15 252.644 2396.4 323.624 2454.16 303.807C2509.4 284.853 2577.99 255.03 2596.52 303.611ZM2247.4 409.42C2227.06 395.08 2210.01 378.69 2198.1 361.074C2178.89 332.681 2174.33 299.05 2179.84 264.447L2145.35 282.613L2145.27 282.65C2023.03 344.608 1964.36 393.393 1968.99 426.218C1972.7 452.445 1983.45 475.139 1998.8 489.154C2014.81 503.766 2034.76 508.182 2056.65 500.721C2072.61 495.284 2149.31 458.203 2247.4 409.42ZM2581.62 52.8319L2581.25 53.0074C2581.31 52.9806 2581.38 52.9539 2581.44 52.927L2581.62 52.8319ZM1554.55 -1113.7L1562.93 -1109.83C1563.13 -1109.84 1563.33 -1109.84 1563.53 -1109.83C1577.49 -1111.57 1585.03 -1117.26 1587.3 -1127.07C1589.65 -1137.27 1584.94 -1145.96 1572.08 -1153.88C1571.76 -1154.08 1571.47 -1154.3 1571.21 -1154.55L1477.89 -1197.26C1476.96 -1197.69 1476.22 -1198.36 1475.7 -1199.17C1475.7 -1199.17 1475.7 -1199.17 1475.7 -1199.17C1463.16 -1199.33 1456.09 -1194.27 1453.19 -1183.27C1450.01 -1171.26 1454.04 -1162.28 1466.03 -1155.15C1466.83 -1154.67 1467.43 -1154.05 1467.84 -1153.35C1468.49 -1153.32 1469.15 -1153.17 1469.78 -1152.88L1552.5 -1114.65C1543.39 -1120.53 1541.43 -1129.93 1546.55 -1140.96C1551.81 -1152.27 1560.31 -1156.66 1570.38 -1152.36C1572.99 -1151.25 1574.2 -1148.24 1573.09 -1145.63C1571.97 -1143.03 1568.96 -1141.82 1566.36 -1142.93C1561.89 -1144.83 1558.96 -1143.32 1555.85 -1136.64C1552.71 -1129.87 1553.57 -1126.02 1558.36 -1123.07C1560.78 -1121.59 1561.53 -1118.44 1560.05 -1116.02C1558.87 -1114.1 1556.63 -1113.23 1554.55 -1113.7ZM1561.24 -1099.31L1465.48 -1143.57C1464.56 -1143.99 1463.82 -1144.66 1463.31 -1145.45C1450.51 -1142.29 1442.94 -1134.96 1439.94 -1123.01C1437.81 -1114.51 1438.45 -1107.12 1441.77 -1100.64C1444.12 -1096.05 1447.94 -1092.38 1452.62 -1090.21L1479.99 -1077.56C1480.29 -1077.5 1480.59 -1077.41 1480.88 -1077.29L1537.51 -1054.46C1552.35 -1053.24 1561.83 -1057.92 1567.06 -1068.64C1572.07 -1078.92 1570.3 -1088.86 1561.24 -1099.31ZM1499.27 -1058.82L1489.43 -974.038L1613.22 -993.523C1631.44 -996.39 1645.5 -1011.06 1647.59 -1029.38L1676.5 -1282.29C1657.86 -1297.76 1658.44 -1317.67 1677.67 -1339.56C1674.19 -1343.61 1668.83 -1345.92 1663.13 -1345.26C1645.51 -1343.23 1635.2 -1334.11 1631.28 -1317.12C1629.77 -1310.58 1622.56 -1283.79 1609.58 -1236.46C1608.87 -1233.86 1606.27 -1232.25 1603.62 -1232.79L1549.24 -1243.77L1590.17 -1222.44C1590.31 -1222.36 1590.45 -1222.28 1590.58 -1222.2C1606.78 -1211.74 1613.53 -1198.25 1609.9 -1182.53C1606.93 -1169.68 1598.39 -1161.21 1584.91 -1157.29C1595.82 -1148.17 1600.16 -1137.19 1597.29 -1124.77C1594.48 -1112.61 1586.08 -1104.71 1572.76 -1101.18C1581.09 -1089.19 1582.38 -1076.65 1576.28 -1064.14C1568.97 -1049.15 1555.09 -1042.5 1535.82 -1044.31C1535.32 -1044.36 1534.84 -1044.48 1534.38 -1044.66L1499.27 -1058.82ZM1513.21 -1251.04L1495.45 -1254.63C1495.34 -1254.65 1495.23 -1254.66 1495.11 -1254.65C1477.72 -1253.56 1468.52 -1247.37 1466.02 -1235.97C1463.58 -1224.8 1467.56 -1215.96 1478.62 -1208.55C1479.26 -1208.13 1479.75 -1207.61 1480.12 -1207.05C1480.8 -1207.04 1481.5 -1206.89 1482.16 -1206.59L1572.61 -1165.19C1573.02 -1165.36 1573.47 -1165.48 1573.93 -1165.53C1589.06 -1167.34 1597.33 -1173.67 1599.91 -1184.84C1602.47 -1195.95 1597.88 -1205.22 1585.22 -1213.45L1513.87 -1250.64C1513.63 -1250.76 1513.42 -1250.89 1513.21 -1251.04ZM1681.69 -1328.33C1671.63 -1315.23 1670.48 -1304.57 1677.98 -1295.24L1681.58 -1326.81C1681.64 -1327.32 1681.68 -1327.83 1681.69 -1328.33ZM1687.32 -1286.65C1688.58 -1284.92 1688.66 -1282.51 1687.35 -1280.67C1687.11 -1280.32 1686.83 -1280.02 1686.53 -1279.75L1657.78 -1028.22C1655.16 -1005.32 1637.58 -986.978 1614.81 -983.393L1484.36 -962.859C1481.01 -962.331 1478.08 -965.145 1478.47 -968.514L1489.31 -1061.95L1448.32 -1080.91C1441.56 -1084.03 1436.04 -1089.33 1432.64 -1095.97C1428.14 -1104.76 1427.28 -1114.68 1430 -1125.51C1433.21 -1138.33 1440.79 -1147.42 1452.39 -1152.55C1442.95 -1161.36 1439.78 -1172.67 1443.27 -1185.89C1446.34 -1197.49 1453.32 -1204.93 1463.68 -1207.92C1456.12 -1216.38 1453.47 -1226.58 1456.01 -1238.16C1459.6 -1254.58 1472.91 -1263.53 1494.47 -1264.89C1495.48 -1264.95 1496.49 -1264.88 1497.48 -1264.68L1600.96 -1243.78C1613.08 -1288.01 1619.87 -1313.31 1621.29 -1319.43C1626.19 -1340.67 1640.05 -1352.93 1661.95 -1355.45C1676.72 -1357.14 1690.07 -1346.55 1691.77 -1331.78C1692 -1329.74 1692 -1327.69 1691.77 -1325.65L1687.32 -1286.65ZM1573.25 -1180.9C1575.44 -1179.09 1575.74 -1175.86 1573.94 -1173.68C1572.14 -1171.49 1568.91 -1171.18 1566.72 -1172.99C1558.1 -1180.11 1557.32 -1189.86 1564.04 -1200.25C1570.82 -1210.72 1579.86 -1213.88 1589.23 -1208.22C1591.65 -1206.76 1592.43 -1203.61 1590.97 -1201.19C1589.51 -1198.76 1586.35 -1197.98 1583.93 -1199.45C1579.77 -1201.95 1576.65 -1200.86 1572.65 -1194.68C1568.6 -1188.41 1568.91 -1184.48 1573.25 -1180.9ZM1538.25 -1069.28C1540.55 -1067.64 1541.09 -1064.43 1539.44 -1062.13C1537.8 -1059.83 1534.59 -1059.29 1532.29 -1060.94C1523.19 -1067.44 1521.73 -1077.11 1527.71 -1087.94C1533.74 -1098.87 1542.54 -1102.65 1552.28 -1097.66C1554.8 -1096.37 1555.8 -1093.28 1554.51 -1090.76C1553.22 -1088.24 1550.13 -1087.24 1547.61 -1088.53C1543.29 -1090.74 1540.25 -1089.44 1536.69 -1082.99C1533.08 -1076.45 1533.67 -1072.55 1538.25 -1069.28ZM1359.38 -386.698C1354.89 -365.867 1352 -352.471 1350.72 -346.51L1670.09 -283.845L1678.99 -319.615L1359.38 -386.698ZM1262.72 -363.777L1340.34 -348.546L1349.06 -388.863L1044.52 -452.781L1036.22 -413.698L1262.72 -363.777ZM1351.9 -402.008L1442.5 -820.918L1133.98 -873.658L1046.67 -462.873L1351.9 -402.008ZM1253.6 -673.423C1261.69 -669.519 1268.69 -663.486 1271.46 -657.975C1278.88 -643.22 1279.37 -625.776 1268.4 -605.404C1261.57 -592.716 1247.11 -587.955 1230.5 -590.638C1215.73 -593.025 1201.41 -601.07 1194.69 -611.227C1187.97 -621.38 1189.09 -634.731 1196.07 -648.088C1202.09 -659.615 1212.03 -670.012 1221.65 -674.791C1225.45 -676.68 1229.51 -677.681 1233.7 -677.885L1222.52 -701.027C1221.29 -703.577 1222.36 -706.642 1224.91 -707.874C1227.45 -709.106 1230.52 -708.037 1231.75 -705.488L1240.27 -687.86L1242.98 -704.995C1243.43 -707.791 1246.05 -709.699 1248.85 -709.257C1251.65 -708.814 1253.55 -706.187 1253.11 -703.391L1250.17 -684.815L1264.43 -700.236C1266.35 -702.315 1269.59 -702.442 1271.67 -700.52C1273.75 -698.597 1273.88 -695.354 1271.95 -693.275L1253.6 -673.423ZM1248.04 -664.702C1240.16 -668.21 1232.42 -668.698 1226.21 -665.609C1218.65 -661.85 1210.22 -653.04 1205.16 -643.339C1199.73 -632.961 1198.93 -623.397 1203.24 -616.885C1208.24 -609.332 1220.01 -602.721 1232.14 -600.761C1244.86 -598.705 1254.94 -602.023 1259.38 -610.265C1268.68 -627.539 1268.28 -641.471 1262.3 -653.368C1260.56 -656.834 1254.71 -661.73 1248.04 -664.702ZM1494.59 -393.872C1495.59 -396.524 1498.54 -397.868 1501.19 -396.875C1503.84 -395.882 1505.19 -392.927 1504.2 -390.276C1500.27 -379.801 1491.31 -375.889 1479.29 -378.865C1467.18 -381.864 1461.26 -389.378 1463.55 -400.081C1464.15 -402.849 1466.87 -404.612 1469.64 -404.018C1472.41 -403.424 1474.17 -400.698 1473.58 -397.93C1472.56 -393.184 1474.61 -390.589 1481.76 -388.818C1489 -387.024 1492.62 -388.601 1494.59 -393.872ZM1561.53 -376C1562.52 -378.652 1565.48 -379.996 1568.13 -379.003C1570.78 -378.01 1572.12 -375.056 1571.13 -372.404C1567.21 -361.929 1558.24 -358.018 1546.23 -360.993C1534.12 -363.992 1528.19 -371.506 1530.49 -382.209C1531.08 -384.977 1533.81 -386.74 1536.58 -386.146C1539.34 -385.552 1541.11 -382.826 1540.51 -380.058C1539.49 -375.312 1541.54 -372.717 1548.69 -370.946C1555.94 -369.152 1559.55 -370.729 1561.53 -376Z" fill="#212121"/>
</g>
<mask id="mask2" mask-type="alpha" maskUnits="userSpaceOnUse" x="253" y="0" width="323" height="323">
<circle cx="414.5" cy="161.5" r="161.5" fill="#C4C4C4"/>
</mask>
<g mask="url(#mask2)">
<path fill-rule="evenodd" clip-rule="evenodd" d="M1113.56 502.523C1113.5 502.375 1113.43 502.228 1113.35 502.084L1112.29 500.113L1139.73 438.82C1140.64 436.804 1139.73 434.438 1137.72 433.535C1135.7 432.632 1133.34 433.535 1132.43 435.551L1107.5 491.229L1079.41 439.103C1078.37 437.158 1075.94 436.431 1073.99 437.479C1072.05 438.527 1071.32 440.953 1072.37 442.898L1103.38 500.44L1102.6 502.18C1102.55 502.287 1102.51 502.396 1102.47 502.505L969.906 629.234L968.026 628.254L859.023 764.407C857.87 765.847 855.881 766.312 854.21 765.532L495.312 598.176C492.769 596.99 492.205 593.624 494.222 591.674L511.107 575.357C522.108 564.726 536.808 558.784 552.107 558.784H676.352L739.362 509.032L574.444 423.047L904.177 103.486L683.568 64.587L695.087 -0.743591L564.275 -35.014C562.491 -35.4815 561.257 -37.1087 561.29 -38.9532L567.042 -368.489L421.145 -314.58C414.174 -298.208 403.518 -281.901 389.222 -264.416C356.509 -224.409 317.521 -202 272 -202C229.57 -202 189.815 -225.361 155.371 -264.298C126.265 -297.202 113 -325.102 113 -362C113 -396.369 124.757 -431.665 144.645 -458.966C173.876 -499.092 219.844 -522 272 -522C302.954 -522 333.106 -509.158 363.692 -486.267L407.928 -554.944C424.698 -580.981 452.585 -597.778 483.441 -600.427L621.783 -612.308C628.104 -612.851 634.306 -610.348 638.48 -605.57C645.712 -597.289 644.863 -584.713 636.583 -577.481L622.531 -565.207C619.132 -562.238 617.251 -557.897 617.408 -553.386C617.697 -545.107 624.643 -538.63 632.922 -538.919L657.704 -539.784C663.948 -540.002 669.897 -537.126 673.604 -532.097C679.808 -523.68 678.015 -511.827 669.598 -505.623L651.331 -492.158C647.953 -489.668 645.772 -485.876 645.319 -481.704C644.424 -473.468 650.375 -466.066 658.611 -465.172L705.545 -460.073C713.087 -459.254 719.516 -454.238 722.145 -447.122C725.974 -436.761 720.678 -425.258 710.317 -421.43L631.188 -392.192L675.955 -298.277L740.085 -255.939L756.484 -348.944L983.83 -254.168L990.3 -284.608C990.969 -287.758 994.006 -289.817 997.18 -289.275L1241.83 -247.453C1245.1 -246.895 1247.29 -243.794 1246.73 -240.528C1246.71 -240.409 1246.71 -240.409 1246.69 -240.291C1239.96 -209.062 1233.65 -179.791 1227.76 -152.481L1228.17 -152.308L1345.93 20.2914C1326.23 9.96808 1301.76 13.5682 1285.86 29.7836C1274.08 41.8073 1264.81 52.8725 1258.07 62.9791C1246.15 80.8458 1237.25 94.1896 1231.36 103.01L1282.5 113.338C1282.71 112.884 1283.01 112.463 1283.39 112.1C1290.68 105.299 1298.73 94.9316 1307.47 81.018C1316.54 66.5842 1330.76 49.0758 1350.15 28.4431C1351.66 26.8331 1354.19 26.7541 1355.8 28.2668C1357.41 29.7795 1357.49 32.3109 1355.98 33.9209C1336.92 54.2095 1323 71.344 1314.25 85.2746C1306.24 98.0131 1298.73 107.98 1291.67 115.191L1337.37 124.421C1337.48 124.05 1337.65 123.689 1337.87 123.349C1347.3 109.112 1356.57 96.9881 1365.68 86.9747C1374.68 77.0963 1384.84 66.2491 1396.16 54.4322C1397.69 52.8373 1400.22 52.7834 1401.82 54.312C1403.41 55.8406 1403.47 58.3727 1401.94 59.9676C1390.66 71.7375 1380.55 82.5356 1371.6 92.3608C1363.13 101.661 1354.48 112.906 1345.66 126.094L1371.44 131.301C1362.98 128.039 1359.3 121.969 1361.71 114.129C1362.36 112.017 1364.6 110.832 1366.71 111.482C1368.82 112.132 1370 114.371 1369.35 116.482C1368.24 120.101 1369.65 122.257 1375.09 124.12C1380.6 126.008 1383.52 125.028 1385.41 121.065C1386.36 119.071 1388.75 118.227 1390.75 119.18C1392.74 120.132 1393.58 122.52 1392.63 124.513C1389.96 130.113 1385.53 132.959 1379.9 133.011L1391.29 135.31C1390.93 133.855 1391.42 132.26 1392.66 131.255L1445.01 88.9243C1446.73 87.5353 1449.24 87.8018 1450.63 89.5195C1452.02 91.2373 1451.76 93.7559 1450.04 95.145L1398.55 136.778L1432.81 143.697L1423.8 182.988V184.526L1510.56 201.941L1509.7 200.133L1719.56 238.62L1649.74 393.37L1675.05 406.975C1691.92 416.042 1712.94 409.872 1722.23 393.127C1752.68 338.231 1782.28 285.602 1811.02 235.239C1841.73 181.424 1864.86 121.474 1880.4 55.3781C1883.78 40.998 1877.77 26.043 1865.38 18.0035L1787.3 -32.644C1785.45 -33.8463 1784.92 -36.3234 1786.12 -38.1767C1787.33 -40.03 1789.8 -40.5579 1791.66 -39.3556L1869.73 11.2921C1884.96 21.1692 1892.34 39.5423 1888.19 57.2094C1872.47 124.037 1849.07 184.706 1817.97 239.204C1789.25 289.539 1759.67 342.14 1729.22 397.008C1717.81 417.58 1691.98 425.161 1671.26 414.021L1646.45 400.679L1596.88 510.542C1587.21 531.963 1565.01 544.877 1541.61 542.682L1113.56 502.523ZM957.178 622.598L747.138 513.086L685.378 561.85L752.65 592.302C754.662 593.213 755.555 595.583 754.644 597.595C753.733 599.608 751.363 600.501 749.35 599.59L676.878 566.784H552.107C538.883 566.784 526.176 571.92 516.666 581.11L503.965 593.384L814.142 738.022C850.34 703.042 882.449 685.406 910.67 685.406C911.089 685.406 911.494 685.471 911.874 685.591L960.599 624.73L957.178 622.598ZM696.481 -8.64838L738.571 -247.352L670.619 -292.213C670.012 -292.614 669.525 -293.173 669.212 -293.83L620.191 -396.668C614.698 -408.193 605.082 -417.238 593.242 -422.017L576.098 -428.936L571.98 -193.029C573.053 -193.866 574.526 -194.134 575.887 -193.608C629.053 -173.043 649.137 -116.205 636.725 -24.3034H636.725L696.481 -8.64838ZM1626.06 -207C1628.72 -206.275 1631.45 -205.89 1634.26 -205.841C1642.83 -205.691 1650.74 -208.678 1658.12 -214.926C1650.96 -221.427 1643.16 -224.689 1634.59 -224.838C1630.12 -224.916 1625.83 -224.14 1621.7 -222.493C1622.46 -222.525 1623.22 -222.445 1623.99 -222.241C1628.26 -221.097 1630.73 -216.494 1629.52 -211.96C1628.95 -209.849 1627.68 -208.125 1626.06 -207ZM1613.77 -213.223C1613.71 -214.162 1613.8 -215.133 1614.06 -216.101C1614.4 -217.381 1615 -218.519 1615.79 -219.467C1614.07 -218.392 1612.39 -217.155 1610.74 -215.753C1611.73 -214.847 1612.75 -214.003 1613.77 -213.223ZM1607.62 -257.691L1592.1 -250.787C1587.3 -245.584 1583.56 -239.268 1581.33 -232.094L1555.87 -150.365C1572.65 -139.372 1590.32 -131.252 1608.88 -125.996C1627.51 -120.724 1649.92 -118.657 1676.12 -119.826L1679.27 -151.956C1679.52 -154.504 1682.06 -156.165 1684.49 -155.366C1685.41 -155.064 1686.35 -154.819 1687.31 -154.633C1699.78 -152.209 1711.86 -160.352 1714.28 -172.821C1716.7 -185.291 1708.56 -197.364 1696.09 -199.787C1693.68 -200.255 1691.26 -200.337 1688.88 -200.043C1686.56 -199.757 1684.55 -201.497 1684.4 -203.737C1670.56 -219.138 1660.23 -230.484 1653.39 -237.774C1646.98 -244.619 1639.25 -252.93 1630.23 -262.707C1606.44 -252.107 1591.53 -230.333 1585.42 -196.932L1607.46 -192.649C1609.62 -192.227 1611.04 -190.128 1610.62 -187.959C1610.2 -185.791 1608.1 -184.374 1605.93 -184.796L1580.06 -189.825C1577.94 -190.236 1576.53 -192.25 1576.87 -194.379C1581.33 -222.461 1591.6 -243.633 1607.62 -257.691ZM1657.4 -267.531C1679.32 -256.481 1693.47 -233.496 1692.68 -208.199C1694.32 -208.145 1695.98 -207.96 1697.62 -207.64C1714.42 -204.374 1725.4 -188.101 1722.13 -171.295C1718.93 -154.819 1703.23 -143.947 1686.78 -146.603L1684.15 -119.784C1714.66 -124.49 1738.88 -139.419 1752.4 -164.484C1773.28 -203.182 1782.16 -239.263 1781.2 -272.819C1780.46 -298.652 1774.04 -321.385 1763.63 -342.016C1755.21 -358.701 1730.26 -379.538 1701.9 -392.15C1668.11 -407.179 1634.03 -409.337 1605.81 -395.352C1574 -379.589 1539.73 -343.841 1519.06 -304.349C1496.13 -260.561 1492.64 -218.635 1512.65 -188.479C1521.04 -175.832 1533.51 -163.988 1548.55 -153.758L1573.69 -234.473C1580.21 -255.411 1597.77 -270.072 1618.17 -273.728C1608.09 -281.251 1604.85 -295.253 1611.1 -306.579C1614.47 -312.691 1620.08 -316.997 1626.49 -318.825C1620.7 -325.358 1619.23 -335.045 1623.54 -343.228C1627.9 -351.534 1637.13 -356.072 1646.38 -354.461L1661.96 -351.745C1673.15 -349.796 1680.64 -339.148 1678.69 -327.962C1678.68 -327.939 1678.68 -327.916 1678.67 -327.892C1677.35 -320.449 1672.38 -314.537 1665.89 -311.72C1673.31 -306.346 1677.36 -296.994 1675.51 -287.409C1675.51 -287.384 1675.51 -287.359 1675.5 -287.333C1673.59 -277.574 1666.38 -270.146 1657.4 -267.531ZM1724.23 -489.785L1698.09 -402.421V-402.421C1700.44 -401.493 1702.8 -400.506 1705.15 -399.459C1735.06 -386.156 1761.43 -364.142 1770.77 -345.619C1781.68 -323.997 1788.42 -300.137 1789.19 -273.048C1790.2 -238.065 1780.97 -200.599 1759.44 -160.685C1737.12 -119.311 1688.8 -103.468 1631.6 -112.715C1579.49 -121.139 1528.92 -149.484 1505.98 -184.056C1484.09 -217.055 1487.83 -261.944 1511.97 -308.059C1533.39 -348.977 1568.85 -385.963 1602.26 -402.52C1628.71 -415.631 1659.57 -415.683 1690.56 -405.178L1716.54 -492.006C1714.49 -493.108 1712.77 -494.543 1711.71 -496.147C1707.74 -502.213 1714.41 -512.237 1720.09 -515.093C1725.78 -517.949 1732.98 -513.165 1734.45 -510.215C1735.92 -507.265 1737.52 -501.727 1733.43 -494.082C1731.64 -490.751 1728.05 -489.563 1724.23 -489.785ZM1634.12 -197.842C1622.14 -198.051 1611.38 -203.203 1602.02 -213.107C1600.53 -214.688 1600.57 -217.173 1602.12 -218.701C1611.82 -228.273 1622.75 -233.046 1634.73 -232.837C1646.72 -232.628 1657.47 -227.476 1666.83 -217.572C1668.32 -215.991 1668.28 -213.506 1666.73 -211.978C1657.03 -202.406 1646.1 -197.633 1634.12 -197.842ZM1588.27 -175.953C1586.5 -177.282 1586.15 -179.789 1587.48 -181.554C1588.81 -183.32 1591.31 -183.674 1593.08 -182.345C1597.27 -179.194 1603.03 -178.261 1610.63 -179.723C1612.8 -180.14 1614.9 -178.72 1615.31 -176.551C1615.73 -174.381 1614.31 -172.284 1612.14 -171.867C1602.48 -170.008 1594.44 -171.31 1588.27 -175.953ZM821.92 741.648L854.742 756.954L905.437 693.631C881.41 695.671 853.52 711.603 821.92 741.648ZM628.928 -26.3462C640.637 -114.403 621.801 -167.271 573.001 -186.146C572.579 -186.31 572.2 -186.537 571.872 -186.812L569.343 -41.9562L628.928 -26.3462ZM272 -210C314.855 -210 351.717 -231.187 383.028 -269.48C409.716 -302.12 423 -330.045 423 -362C423 -407.751 402.58 -445.541 364.586 -475.492C333.27 -500.178 302.812 -514 272 -514C222.377 -514 178.822 -492.295 151.111 -454.255C132.209 -428.308 121 -394.656 121 -362C121 -327.329 133.439 -301.166 161.363 -269.599C194.431 -232.217 232.239 -210 272 -210ZM463.367 49.8112L439.97 162.044L506.418 210.482L421.671 220.477L355.391 297.51L366.42 201.809L303.432 149.747L392.297 149.344L463.367 49.8112ZM197.992 485.286L264.954 574.226L336.516 562.993L289.92 621.875L296.561 710.895L243.867 644.63L172.206 651.463L227.339 595.975L197.992 485.286ZM1987.86 -528.23L2065.49 -428.812L2149.71 -442.313L2094.27 -375.421L2101.02 -275.201L2039.88 -349.24L1955.6 -340.696L2021.03 -403.864L1987.86 -528.23ZM2223.78 -30.3367L2194.92 77.1869L2247.83 126.663L2172.74 126.196L2106.68 186.235L2126.46 103.915L2076.96 51.6523L2154.62 60.9357L2223.78 -30.3367ZM2151.77 584.181C2149.8 582.149 2147.71 580.219 2145.47 578.438C2217.48 541.18 2272.93 511.704 2284.67 503.757C2321.03 479.159 2322.78 434.87 2287.63 412.092C2263.8 396.647 2209.98 406.288 2127.02 441.85L2082.91 465.083C2102.16 478.25 2116.67 493.177 2123.04 505.537C2131.87 522.669 2141.08 546.658 2143.43 576.887C2132.7 569.085 2118.96 564.759 2101.81 568.526C2048.53 580.225 2032.44 619.516 1980.25 596.859C1928.07 574.203 1923.79 541.071 1869.87 552.236C1851.79 555.981 1837.82 558.796 1827.98 560.68C1851.03 509.531 1895.28 462.528 1935.81 442.867C1982.13 420.398 2036.43 436.051 2075.23 460.084L2123.43 434.698C2123.53 434.648 2123.62 434.602 2123.72 434.56C2209.21 397.898 2265 387.891 2291.98 405.378C2332.12 431.39 2330.1 482.685 2289.16 510.383C2277.36 518.362 2222.82 547.395 2151.77 584.181ZM2138.79 637.432C2133.82 659.543 2124.96 683.701 2110.71 709.779C2068.82 786.422 1948.11 772.61 1874.04 725.113C1795.2 764.341 1733.09 794.388 1720.17 798.789C1680.96 812.146 1648.04 782.092 1641.27 734.208C1636.92 703.408 1684.26 664.049 1783.08 613.957L1808.33 600.661L1808 605.359C1842.31 588.774 1868.13 583.346 1885.46 589.075C1911.46 597.668 1982.65 653.046 2027.72 637.584C2070.82 622.797 2124.33 599.529 2138.79 637.432ZM1866.41 719.984C1850.53 708.796 1837.24 696.008 1827.94 682.265C1812.96 660.112 1809.4 633.873 1813.69 606.876L1786.78 621.05L1786.73 621.078C1691.36 669.417 1645.58 707.479 1649.2 733.089C1652.09 753.551 1660.48 771.257 1672.45 782.191C1684.94 793.592 1700.5 797.036 1717.59 791.216C1730.04 786.974 1789.88 758.044 1866.41 719.984ZM2127.16 441.776L2126.88 441.913C2126.92 441.892 2126.97 441.871 2127.02 441.85L2127.16 441.776ZM1325.85 -468.345L1332.39 -465.325C1332.54 -465.335 1332.7 -465.336 1332.85 -465.328C1343.75 -466.682 1349.63 -471.124 1351.4 -478.778C1353.24 -486.73 1349.56 -493.514 1339.52 -499.695C1339.27 -499.848 1339.05 -500.024 1338.85 -500.218L1266.04 -533.539C1265.32 -533.872 1264.73 -534.396 1264.33 -535.024C1264.33 -535.024 1264.33 -535.024 1264.33 -535.024C1254.55 -535.153 1249.03 -531.207 1246.77 -522.625C1244.29 -513.254 1247.43 -506.243 1256.78 -500.681C1257.41 -500.309 1257.88 -499.822 1258.2 -499.275C1258.71 -499.255 1259.22 -499.136 1259.71 -498.909L1324.25 -469.086C1317.15 -473.67 1315.62 -481.007 1319.61 -489.609C1323.71 -498.437 1330.35 -501.858 1338.2 -498.506C1340.23 -497.639 1341.18 -495.289 1340.31 -493.257C1339.44 -491.226 1337.09 -490.281 1335.06 -491.148C1331.58 -492.634 1329.29 -491.453 1326.87 -486.24C1324.41 -480.957 1325.08 -477.954 1328.83 -475.657C1330.71 -474.502 1331.3 -472.039 1330.14 -470.156C1329.22 -468.658 1327.48 -467.978 1325.85 -468.345ZM1331.07 -457.121L1256.36 -491.647C1255.64 -491.979 1255.06 -492.497 1254.67 -493.118C1244.68 -490.649 1238.77 -484.933 1236.43 -475.612C1234.77 -468.973 1235.27 -463.213 1237.86 -458.155C1239.69 -454.573 1242.67 -451.709 1246.32 -450.02L1267.68 -440.15C1267.91 -440.102 1268.14 -440.032 1268.37 -439.939L1312.55 -422.123C1324.13 -421.171 1331.53 -424.825 1335.61 -433.187C1339.52 -441.206 1338.14 -448.967 1331.07 -457.121ZM1282.72 -425.526L1275.05 -359.381L1371.62 -374.583C1385.84 -376.82 1396.81 -388.266 1398.44 -402.56L1420.99 -599.876C1406.45 -611.947 1406.9 -627.481 1421.91 -644.562C1419.19 -647.719 1415.01 -649.517 1410.56 -649.006C1396.82 -647.425 1388.77 -640.307 1385.71 -627.054C1384.53 -621.952 1378.91 -601.046 1368.79 -564.117C1368.23 -562.089 1366.2 -560.838 1364.14 -561.254L1321.7 -569.823L1353.64 -553.18C1353.75 -553.122 1353.86 -553.06 1353.96 -552.993C1366.6 -544.837 1371.86 -534.314 1369.03 -522.048C1366.72 -512.02 1360.05 -505.41 1349.53 -502.354C1358.05 -495.235 1361.43 -486.668 1359.19 -476.978C1357 -467.491 1350.45 -461.333 1340.06 -458.578C1346.56 -449.223 1347.56 -439.44 1342.8 -429.68C1337.1 -417.987 1326.27 -412.794 1311.23 -414.209C1310.85 -414.245 1310.47 -414.337 1310.11 -414.482L1282.72 -425.526ZM1293.6 -575.499L1279.74 -578.297C1279.65 -578.314 1279.57 -578.32 1279.48 -578.315C1265.91 -577.46 1258.73 -572.631 1256.78 -563.738C1254.87 -555.023 1257.98 -548.125 1266.61 -542.348C1267.11 -542.015 1267.49 -541.615 1267.78 -541.176C1268.31 -541.167 1268.85 -541.05 1269.37 -540.813L1339.94 -508.517C1340.26 -508.648 1340.61 -508.739 1340.97 -508.783C1352.77 -510.198 1359.22 -515.136 1361.24 -523.847C1363.24 -532.514 1359.65 -539.751 1349.78 -546.172L1294.11 -575.182C1293.93 -575.276 1293.76 -575.382 1293.6 -575.499ZM1425.04 -635.8C1417.2 -625.58 1416.3 -617.259 1422.15 -609.982L1424.96 -634.615C1425.01 -635.009 1425.03 -635.405 1425.04 -635.8ZM1429.43 -603.28C1430.42 -601.93 1430.48 -600.049 1429.46 -598.611C1429.27 -598.343 1429.05 -598.106 1428.82 -597.899L1406.39 -401.652C1404.35 -383.785 1390.63 -369.477 1372.87 -366.68L1271.09 -350.659C1268.47 -350.248 1266.19 -352.443 1266.49 -355.072L1274.95 -427.972L1242.97 -442.759C1237.69 -445.198 1233.38 -449.335 1230.74 -454.509C1227.22 -461.368 1226.56 -469.109 1228.67 -477.556C1231.18 -487.558 1237.1 -494.656 1246.14 -498.653C1238.78 -505.525 1236.31 -514.352 1239.03 -524.669C1241.42 -533.715 1246.87 -539.52 1254.95 -541.856C1249.06 -548.452 1246.99 -556.414 1248.97 -565.449C1251.77 -578.259 1262.15 -585.239 1278.97 -586.299C1279.76 -586.348 1280.55 -586.294 1281.32 -586.139L1362.06 -569.835C1371.51 -604.34 1376.81 -624.079 1377.92 -628.854C1381.74 -645.422 1392.55 -654.988 1409.65 -656.953C1421.17 -658.278 1431.58 -650.012 1432.91 -638.49C1433.09 -636.901 1433.09 -635.296 1432.91 -633.706L1429.43 -603.28ZM1340.44 -520.77C1342.14 -519.364 1342.39 -516.843 1340.98 -515.139C1339.57 -513.435 1337.05 -513.194 1335.35 -514.6C1328.62 -520.155 1328.01 -527.761 1333.26 -535.869C1338.54 -544.04 1345.59 -546.504 1352.91 -542.092C1354.8 -540.951 1355.4 -538.492 1354.26 -536.6C1353.12 -534.709 1350.66 -534.101 1348.77 -535.242C1345.53 -537.199 1343.1 -536.348 1339.97 -531.522C1336.81 -526.632 1337.05 -523.565 1340.44 -520.77ZM1313.13 -433.689C1314.93 -432.406 1315.35 -429.907 1314.06 -428.11C1312.78 -426.312 1310.28 -425.895 1308.48 -427.179C1301.38 -432.251 1300.24 -439.797 1304.91 -448.25C1309.62 -456.771 1316.48 -459.72 1324.08 -455.829C1326.04 -454.822 1326.82 -452.412 1325.82 -450.446C1324.81 -448.479 1322.4 -447.701 1320.43 -448.708C1317.06 -450.433 1314.69 -449.415 1311.91 -444.383C1309.1 -439.284 1309.56 -436.242 1313.13 -433.689ZM1173.58 98.8576C1170.07 115.11 1167.82 125.562 1166.82 130.212L1415.99 179.103L1422.94 151.195L1173.58 98.8576ZM1098.16 116.741L1158.72 128.623L1165.53 97.1682L927.929 47.2999L921.448 77.7924L1098.16 116.741ZM1167.74 86.9131L1238.43 -239.918L997.726 -281.066L929.603 39.426L1167.74 86.9131ZM1091.05 -124.843C1097.36 -121.797 1102.82 -117.09 1104.99 -112.791C1110.78 -101.28 1111.16 -87.6694 1102.6 -71.7755C1097.27 -61.8763 1085.98 -58.1616 1073.03 -60.2552C1061.51 -62.1174 1050.33 -68.3944 1045.09 -76.3187C1039.85 -84.2397 1040.72 -94.6562 1046.16 -105.077C1050.86 -114.071 1058.62 -122.182 1066.12 -125.911C1069.09 -127.385 1072.26 -128.166 1075.52 -128.324L1066.8 -146.38C1065.84 -148.369 1066.67 -150.761 1068.66 -151.722C1070.65 -152.683 1073.04 -151.849 1074 -149.86L1080.65 -136.107L1082.77 -149.475C1083.11 -151.657 1085.16 -153.146 1087.34 -152.8C1089.53 -152.455 1091.01 -150.406 1090.67 -148.224L1088.37 -133.732L1099.5 -145.762C1101 -147.384 1103.53 -147.484 1105.15 -145.984C1106.77 -144.484 1106.87 -141.954 1105.37 -140.332L1091.05 -124.843ZM1086.71 -118.039C1080.57 -120.776 1074.53 -121.157 1069.68 -118.747C1063.78 -115.814 1057.21 -108.941 1053.25 -101.372C1049.02 -93.275 1048.4 -85.8132 1051.76 -80.733C1055.66 -74.84 1064.84 -69.6822 1074.31 -68.1527C1084.23 -66.549 1092.09 -69.1376 1095.56 -75.5683C1102.81 -89.0449 1102.51 -99.9147 1097.84 -109.197C1096.48 -111.901 1091.91 -115.72 1086.71 -118.039ZM1279.07 93.2604C1279.85 91.1916 1282.15 90.1426 1284.22 90.9174C1286.29 91.6921 1287.34 93.9974 1286.56 96.0662C1283.5 104.239 1276.51 107.29 1267.13 104.969C1257.69 102.629 1253.06 96.7664 1254.85 88.4164C1255.32 86.2564 1257.44 84.881 1259.6 85.3444C1261.76 85.8078 1263.14 87.9344 1262.68 90.0944C1261.88 93.7971 1263.48 95.8216 1269.06 97.2034C1274.71 98.6035 1277.53 97.3731 1279.07 93.2604ZM1331.29 107.204C1332.07 105.135 1334.37 104.086 1336.44 104.861C1338.51 105.636 1339.56 107.941 1338.79 110.01C1335.72 118.182 1328.73 121.234 1319.36 118.912C1309.91 116.573 1305.28 110.71 1307.08 102.36C1307.54 100.2 1309.67 98.8246 1311.83 99.288C1313.99 99.7513 1315.36 101.878 1314.9 104.038C1314.1 107.741 1315.7 109.765 1321.28 111.147C1326.93 112.547 1329.75 111.317 1331.29 107.204Z" fill="#7B61FF"/>
</g>
<mask id="mask3" mask-type="alpha" maskUnits="userSpaceOnUse" x="273" y="282" width="187" height="187">
<circle cx="366.698" cy="375.697" r="93.1244" transform="rotate(-45 366.698 375.697)" fill="#C4C4C4"/>
</mask>
<g mask="url(#mask3)">
<path fill-rule="evenodd" clip-rule="evenodd" d="M790.774 229.714C790.69 229.678 790.602 229.645 790.512 229.618L789.275 229.248L775.473 193.068C775.019 191.877 773.687 191.281 772.496 191.735C771.306 192.189 770.709 193.522 771.163 194.712L783.701 227.578L750.993 217.778C749.773 217.412 748.488 218.105 748.122 219.325C747.756 220.545 748.449 221.831 749.669 222.197L785.775 233.015L786.167 234.042C786.191 234.105 786.218 234.167 786.247 234.227L783.866 339.95L782.7 340.317L793.77 440.276C793.887 441.333 793.266 442.333 792.267 442.697L577.695 520.795C576.175 521.348 574.573 520.205 574.6 518.588L574.832 505.051C574.983 496.23 578.553 487.814 584.791 481.576L635.45 430.917L640.856 384.94L538.554 417.124L542.702 152.386L436.892 226.475L414.951 195.14L347.642 234.503C346.724 235.04 345.557 234.88 344.818 234.115L212.801 97.4067L175.294 178.874C179.128 188.392 181.432 199.386 182.732 212.344C185.706 241.994 178.946 267.028 160.386 285.588C143.086 302.888 117.351 309.573 87.4314 307.741C62.148 306.192 45.3637 300.225 30.3191 285.18C16.3058 271.167 6.70807 251.982 3.68566 232.742C-0.756695 204.462 8.64566 176.379 29.9114 155.114C42.5323 142.493 60.0625 135.435 81.8667 132.297L71.901 86.2589C68.1229 68.8052 72.6448 50.586 84.1455 36.9245L135.708 -24.326C138.064 -27.1248 141.613 -28.6329 145.263 -28.3863C151.588 -27.9592 156.37 -22.4852 155.942 -16.16L155.217 -5.42641C155.042 -2.83003 156.045 -0.292669 157.948 1.4821C161.442 4.73993 166.915 4.54882 170.173 1.05522L179.924 -9.40173C182.381 -12.0365 185.98 -13.2895 189.542 -12.7505C195.503 -11.8483 199.605 -6.28428 198.703 -0.322842L196.745 12.6154C196.382 15.0082 197.039 17.4433 198.556 19.3293C201.549 23.0521 206.993 23.6435 210.716 20.6503L231.931 3.59265C235.34 0.851611 240.007 0.275333 243.98 2.10469C249.766 4.76824 252.297 11.6176 249.633 17.403L229.291 61.588L285.836 81.6272L329.247 72.7417L298.012 28.1341L429.351 -25.9191L419.578 -40.9685C418.567 -42.5257 418.965 -44.6035 420.481 -45.6764L537.285 -128.377C538.844 -129.481 541.004 -129.112 542.108 -127.552C542.148 -127.495 542.148 -127.495 542.186 -127.437C552.174 -111.959 561.536 -97.4512 570.27 -83.915L570.51 -84.0135L688.897 -61.6518C676.656 -57.8292 668.146 -46.3833 668.277 -33.2912C668.374 -23.5835 669.108 -15.2945 670.48 -8.42431C672.904 3.72111 674.715 12.7913 675.913 18.7862L700.972 2.14928C700.873 1.87835 700.823 1.58423 700.834 1.27821C701.033 -4.46685 700.086 -11.9743 697.978 -21.2123C695.791 -30.7958 694.45 -43.7323 693.941 -60.049C693.902 -61.3222 694.902 -62.3866 696.175 -62.4262C697.448 -62.4659 698.512 -61.466 698.552 -60.1928C699.052 -44.1482 700.365 -31.4879 702.475 -22.2386C704.405 -13.7808 705.406 -6.65416 705.469 -0.836934L727.866 -15.7068C727.76 -15.9029 727.68 -16.118 727.633 -16.3481C725.671 -25.996 724.506 -34.7179 724.141 -42.5184C723.781 -50.2136 723.501 -58.7788 723.3 -68.2146C723.273 -69.4882 724.284 -70.5426 725.557 -70.5696C726.831 -70.5967 727.885 -69.5862 727.912 -68.3127C728.112 -58.9143 728.391 -50.3879 728.749 -42.7341C729.088 -35.4896 730.146 -27.3777 731.926 -18.4022L744.559 -26.79C739.782 -24.6724 735.805 -25.6452 733.592 -29.8259C732.996 -30.9517 733.426 -32.3475 734.551 -32.9434C735.677 -33.5393 737.073 -33.1097 737.669 -31.9838C738.69 -30.0539 740.146 -29.7515 743.123 -31.2092C746.139 -32.6863 746.929 -34.2751 746.085 -36.6626C745.66 -37.8636 746.29 -39.1814 747.491 -39.606C748.692 -40.0305 750.01 -39.4011 750.434 -38.2001C751.627 -34.8262 750.981 -31.859 748.71 -29.5456L754.288 -33.2491C753.551 -33.6989 753.098 -34.5462 753.194 -35.4621L757.279 -74.0663C757.413 -75.3331 758.549 -76.2514 759.815 -76.1173C761.082 -75.9833 762 -74.8478 761.866 -73.581L757.849 -35.6135L774.638 -46.7604L786.986 -27.0681L787.614 -26.4409L830.089 -54.7144L828.999 -55.0994L930.26 -124.975L964.889 -33.4117L980.755 -38.1828C991.329 -41.3627 997.384 -52.45 994.345 -63.0652C984.38 -97.8658 974.989 -131.392 966.172 -163.645C956.751 -198.108 941.738 -231.981 921.125 -265.268C916.641 -272.51 908.092 -276.157 899.761 -274.382L847.277 -263.199C846.031 -262.933 844.806 -263.728 844.54 -264.974C844.275 -266.22 845.07 -267.445 846.316 -267.711L898.8 -278.894C909.035 -281.074 919.538 -276.594 925.047 -267.697C945.888 -234.042 961.081 -199.762 970.622 -164.861C979.434 -132.627 988.82 -99.1182 998.779 -64.3351C1002.51 -51.2935 995.074 -37.672 982.083 -33.7653L966.525 -29.0866L991.109 35.9179C995.903 48.5929 992.114 62.9134 981.678 71.5585L790.774 229.714ZM775.971 342.434L645.679 383.423L640.38 428.487L680.225 413.474C681.417 413.025 682.748 413.627 683.197 414.82C683.646 416.012 683.044 417.342 681.852 417.791L638.926 433.964L588.053 484.838C582.661 490.23 579.574 497.505 579.444 505.129L579.27 515.312L764.713 447.817C765.21 418.795 771.111 398.513 782.617 387.006C782.788 386.835 782.98 386.697 783.184 386.59L778.235 341.908L775.971 342.434ZM412.297 191.349L332.131 76.86L286.133 86.2751C285.722 86.3593 285.296 86.3297 284.9 86.1895L222.982 64.2463C216.043 61.7872 208.434 62.0201 201.659 64.899L191.847 69.0679L286.355 166.934C286.452 166.155 286.943 165.446 287.712 165.105C317.775 151.812 349.139 166.799 381.549 209.33L381.549 209.33L412.297 191.349ZM710.443 -268.546C711.82 -269.332 713.091 -270.289 714.258 -271.416C717.812 -274.848 719.819 -279.291 720.28 -284.847C714.712 -284.58 710.201 -282.729 706.648 -279.297C704.794 -277.507 703.36 -275.441 702.348 -273.085C702.643 -273.406 702.989 -273.687 703.383 -273.914C705.589 -275.188 708.475 -274.321 709.829 -271.976C710.459 -270.885 710.646 -269.666 710.443 -268.546ZM702.893 -266.071C702.486 -266.43 702.127 -266.863 701.839 -267.363C701.457 -268.025 701.237 -268.734 701.169 -269.439C700.91 -268.304 700.729 -267.113 700.626 -265.867C701.402 -265.904 702.158 -265.972 702.893 -266.071ZM682.255 -281.695L678.744 -272.554C678.907 -268.475 679.957 -264.374 681.971 -260.538L704.916 -216.836C716.24 -219.195 726.754 -223.087 736.467 -228.514C746.21 -233.958 756.192 -242.254 766.395 -253.411L754.579 -267.796C753.642 -268.937 754.003 -270.652 755.321 -271.318C755.818 -271.57 756.301 -271.853 756.77 -272.169C762.842 -276.265 764.444 -284.508 760.348 -290.58C756.252 -296.652 748.009 -298.255 741.937 -294.159C740.765 -293.368 739.743 -292.413 738.892 -291.323C738.064 -290.261 736.533 -290.149 735.559 -291.002C723.639 -291.64 714.799 -292.052 709.039 -292.238C703.631 -292.412 697.095 -292.653 689.43 -292.961C684.049 -278.935 686.849 -263.98 697.977 -247.871L708.708 -255.109C709.764 -255.821 711.198 -255.542 711.91 -254.486C712.622 -253.43 712.344 -251.997 711.287 -251.284L698.688 -242.786C697.658 -242.091 696.262 -242.337 695.532 -243.343C685.902 -256.613 681.454 -269.43 682.255 -281.695ZM698.54 -306.004C711.982 -310.435 727.122 -306.832 737.114 -296.195C737.808 -296.846 738.558 -297.444 739.358 -297.983C747.542 -303.504 758.652 -301.344 764.173 -293.16C769.584 -285.136 767.615 -274.301 759.825 -268.677L769.688 -256.67C780.211 -271.03 783.996 -286.989 779.29 -302.723C772.024 -327.014 760.934 -345.347 746.86 -358.637C736.025 -368.867 724.14 -375.52 711.484 -379.688C701.249 -383.059 682.577 -381.379 665.873 -374.96C645.968 -367.311 631.192 -354.294 625.389 -337.087C618.847 -317.69 619.449 -289.141 627.121 -264.609C635.628 -237.409 651.299 -218.89 671.752 -214.753C680.33 -213.018 690.242 -213.271 700.547 -215.233L677.887 -258.394C672.009 -269.59 673.191 -282.727 680.019 -292.537C672.839 -291.492 665.81 -295.88 663.739 -303.046C662.623 -306.913 663.154 -310.956 665.022 -314.315C659.997 -314.618 655.45 -317.969 653.868 -323.061C652.263 -328.228 654.175 -333.841 658.601 -336.954L666.063 -342.201C671.419 -345.967 678.813 -344.679 682.579 -339.323C682.587 -339.312 682.595 -339.301 682.603 -339.29C685.098 -335.715 685.481 -331.277 683.986 -327.485C689.199 -328.316 694.665 -326.155 697.821 -321.495C697.829 -321.483 697.838 -321.471 697.846 -321.458C701.046 -316.7 701.136 -310.733 698.54 -306.004ZM635.168 -423.872L660.13 -377.593L660.13 -377.593C661.469 -378.176 662.833 -378.733 664.219 -379.266C681.838 -386.037 701.565 -387.812 712.927 -384.07C726.191 -379.701 738.665 -372.719 750.027 -361.991C764.7 -348.136 776.215 -329.099 783.709 -304.045C791.478 -278.074 778.237 -251.913 751.144 -232.361C726.462 -214.548 694.287 -205.488 670.838 -210.231C648.455 -214.758 631.677 -234.586 622.718 -263.232C614.769 -288.65 614.146 -318.188 621.018 -338.561C626.458 -354.693 639.017 -367.294 655.938 -375.648L631.128 -421.645C629.844 -421.258 628.554 -421.139 627.472 -421.364C623.378 -422.217 622.009 -429.023 623.163 -432.505C624.316 -435.988 629.204 -436.975 631.006 -436.371C632.808 -435.767 635.717 -434.16 637.166 -429.375C637.798 -427.29 636.816 -425.339 635.168 -423.872ZM717.463 -268.098C712.491 -263.297 706.005 -261.012 698.151 -261.235C696.898 -261.271 695.902 -262.301 695.91 -263.556C695.961 -271.412 698.472 -277.815 703.443 -282.616C708.415 -287.417 714.901 -289.702 722.755 -289.479C724.008 -289.443 725.004 -288.412 724.996 -287.158C724.945 -279.302 722.434 -272.899 717.463 -268.098ZM707.692 -240.478C706.431 -240.3 705.264 -241.178 705.086 -242.439C704.908 -243.701 705.786 -244.868 707.047 -245.046C710.039 -245.468 712.77 -247.438 715.272 -251.132C715.986 -252.187 717.42 -252.463 718.475 -251.748C719.53 -251.034 719.806 -249.6 719.092 -248.545C715.911 -243.848 712.101 -241.1 707.692 -240.478ZM769.363 446.124L788.986 438.982L783.837 392.493C774.872 403.121 769.997 420.989 769.363 446.124ZM377.537 211.677C346.407 170.999 317.171 157.123 289.578 169.324C289.339 169.43 289.092 169.492 288.846 169.513L346.878 229.607L377.537 211.677ZM157.124 282.326C174.597 264.853 180.989 241.184 178.142 212.804C175.715 188.615 169.746 171.812 156.716 158.783C138.062 140.129 114.328 133.046 86.6247 136.326C63.7904 139.029 45.7363 145.812 33.1732 158.376C12.9403 178.608 4.03146 205.217 8.24275 232.026C11.1153 250.312 20.2658 268.603 33.581 281.919C47.7175 296.055 63.4567 301.651 87.7134 303.136C116.438 304.895 140.912 298.538 157.124 282.326ZM341.084 310.233L377.305 365.534L424.149 358.191L393.669 396.82L398.054 455.253L363.53 411.736L316.62 416.191L352.689 379.794L341.084 310.233ZM410.44 595.993L474.006 604.954L498.604 571.195L503.614 614.202L542.618 647.791L494.114 642.258L467.681 674.262L467.537 629.159L410.44 595.993ZM726.982 -547.037L799.172 -538.156L828.007 -578L832.674 -528.119L876.29 -490.009L821.175 -495.27L790.292 -457.42L791.218 -509.857L726.982 -547.037ZM1026.18 -440.225L1058.26 -384.617L1100 -386.017L1069.2 -355.592L1066.74 -304.177L1041.24 -345.805L999.749 -346.93L1035.2 -374.812L1026.18 -440.225ZM1247.38 -160.303C1245.75 -160.331 1244.11 -160.262 1242.47 -160.076C1256.64 -204.631 1267.23 -239.255 1268.78 -247.284C1273.57 -272.138 1256.23 -290.908 1232.61 -285.866C1216.6 -282.447 1198.58 -256.57 1179.26 -208.246L1170.75 -180.788C1183.96 -183.266 1195.97 -183.098 1203.6 -180.655C1214.19 -177.269 1227.72 -171.245 1241.01 -159.877C1233.45 -158.684 1226.09 -154.846 1220.63 -146.317C1203.67 -119.821 1213.13 -97.2403 1182.62 -85.2023C1152.1 -73.1642 1136.85 -84.927 1119.42 -58.391C1113.57 -49.4884 1109.02 -42.6476 1105.78 -37.8684C1094.32 -68.1202 1093.2 -105.328 1101.71 -129.87C1111.43 -157.916 1139.96 -173.675 1165.58 -179.696L1174.88 -209.7C1174.9 -209.759 1174.92 -209.816 1174.94 -209.873C1194.85 -259.677 1213.52 -286.507 1231.65 -290.377C1258.62 -296.135 1278.71 -274.396 1273.31 -246.41C1271.75 -238.349 1261.35 -204.272 1247.38 -160.303ZM1263.8 -133.298C1270.79 -122.259 1277.03 -108.796 1281.85 -92.3512C1296.02 -44.0213 1241.17 -0.437956 1191.6 10.3992C1175.46 58.5373 1162.38 96.1156 1158.91 103.177C1148.37 124.61 1122.69 125.779 1100.41 109.013C1086.08 98.2282 1089.33 62.8805 1109.2 2.16212L1114.07 -13.5516L1115.85 -11.5028C1123.08 -32.2556 1131.39 -44.9971 1140.8 -49.7275C1154.9 -56.823 1206.51 -63.271 1218.58 -87.9495C1230.12 -111.553 1242.45 -142.858 1263.8 -133.298ZM1186.4 11.4193C1175.37 13.3293 1164.73 13.5366 1155.34 11.7234C1140.2 8.801 1128.05 -0.447753 1118.79 -13.206L1113.6 3.54535L1113.59 3.57979C1094.41 62.1746 1091.26 96.3594 1103.18 105.327C1112.7 112.491 1123.34 116.289 1132.68 115.864C1142.42 115.421 1150.17 110.481 1154.77 101.141C1158.11 94.3344 1170.72 58.1404 1186.4 11.4193ZM1179.29 -208.334L1179.22 -208.161C1179.24 -208.189 1179.25 -208.218 1179.26 -208.246L1179.29 -208.334ZM481.478 -252.7L485.374 -254.133C485.434 -254.2 485.497 -254.264 485.563 -254.324C489.454 -259.319 490.042 -263.529 487.641 -267.37C485.147 -271.361 480.882 -272.627 474.27 -271.056C474.106 -271.017 473.943 -270.997 473.781 -270.994L430.511 -254.895C430.078 -254.734 429.628 -254.711 429.208 -254.804C429.208 -254.804 429.208 -254.804 429.207 -254.804C425.165 -250.866 424.526 -247.009 427.101 -242.586C429.913 -237.755 434.052 -236.179 440.133 -237.723C440.539 -237.826 440.929 -237.819 441.283 -237.727C441.499 -237.926 441.757 -238.087 442.049 -238.194L480.522 -252.348C475.757 -251.321 472.142 -253.689 470.263 -258.825C468.335 -264.096 469.647 -268.197 474.216 -270.033C475.398 -270.508 476.741 -269.935 477.216 -268.753C477.691 -267.571 477.118 -266.227 475.936 -265.752C473.91 -264.938 473.457 -263.522 474.595 -260.409C475.749 -257.255 477.247 -256.304 479.709 -256.893C480.948 -257.19 482.193 -256.426 482.49 -255.188C482.726 -254.202 482.29 -253.212 481.478 -252.7ZM488.182 -250.25L443.642 -233.865C443.213 -233.707 442.768 -233.685 442.353 -233.776C439.287 -228.697 439.209 -223.957 442.057 -219.204C444.086 -215.819 446.636 -213.672 449.754 -212.666C451.963 -211.953 454.346 -212.001 456.524 -212.802L469.254 -217.483C469.369 -217.559 469.493 -217.626 469.625 -217.682L494.901 -228.431C500.011 -232.764 501.539 -237.271 499.792 -242.343C498.117 -247.208 494.389 -249.809 488.182 -250.25ZM481.352 -217.656L505.191 -187.556L538.371 -233.132C543.253 -239.839 543.06 -248.98 537.898 -255.474L466.64 -345.121C455.788 -344.112 449.64 -350.631 448.794 -363.714C446.399 -363.894 443.961 -362.922 442.355 -360.899C437.396 -354.651 437.018 -348.469 441.174 -341.817C442.774 -339.256 449.005 -328.44 459.934 -309.255C460.535 -308.201 460.216 -306.863 459.206 -306.192L438.411 -292.384L458.22 -298.621C458.288 -298.642 458.356 -298.66 458.426 -298.675C466.905 -300.503 473.341 -298.357 477.187 -292.201C480.332 -287.169 480.309 -281.756 477.268 -276.222C483.643 -276.792 488.515 -274.678 491.553 -269.815C494.528 -265.054 494.365 -259.868 491.254 -254.51C497.717 -253.345 502.115 -249.766 504.154 -243.845C506.596 -236.752 504.301 -230.222 497.591 -224.666C497.419 -224.524 497.227 -224.407 497.022 -224.32L481.352 -217.656ZM424.637 -283.238L417.845 -278.729C417.803 -278.701 417.765 -278.667 417.732 -278.63C412.549 -272.75 411.588 -267.851 414.421 -263.432C417.197 -259.101 421.275 -257.555 427.15 -258.718C427.489 -258.785 427.809 -258.78 428.104 -258.717C428.326 -258.931 428.595 -259.104 428.902 -259.218L470.842 -274.822C470.92 -275.008 471.024 -275.186 471.155 -275.352C475.391 -280.742 476.007 -285.385 473.275 -289.757C470.557 -294.106 466.145 -295.595 459.501 -294.188L424.974 -283.317C424.862 -283.282 424.749 -283.256 424.637 -283.238ZM453.644 -361.42C454.613 -354.053 457.639 -350.294 462.99 -349.712L454.095 -360.903C453.952 -361.082 453.802 -361.255 453.644 -361.42ZM468.694 -349.95C469.645 -349.801 470.439 -349.06 470.61 -348.059C470.641 -347.872 470.65 -347.686 470.637 -347.505L541.509 -258.344C547.962 -250.227 548.203 -238.801 542.1 -230.417L507.133 -182.386C506.235 -181.152 504.408 -181.115 503.46 -182.311L477.187 -215.485L458.116 -208.473C454.97 -207.316 451.528 -207.247 448.338 -208.276C444.109 -209.641 440.681 -212.526 438.1 -216.833C435.044 -221.933 434.562 -227.239 436.621 -232.557C430.815 -232.356 426.209 -234.948 423.114 -240.266C420.4 -244.928 420.254 -249.516 422.598 -253.765C417.504 -254.05 413.415 -256.453 410.537 -260.943C406.457 -267.309 407.845 -274.389 414.271 -281.68C414.572 -282.021 414.915 -282.32 415.294 -282.572L454.86 -308.843C444.645 -326.766 438.759 -336.976 437.262 -339.373C432.066 -347.687 432.575 -355.997 438.742 -363.767C442.899 -369.005 450.516 -369.881 455.755 -365.723C456.477 -365.15 457.132 -364.496 457.706 -363.774L468.694 -349.95ZM466.051 -280.023C467.319 -280.145 468.445 -279.215 468.567 -277.947C468.688 -276.679 467.759 -275.553 466.491 -275.431C461.481 -274.952 458.132 -277.805 456.966 -283.25C455.79 -288.738 457.659 -292.617 462.44 -293.799C463.676 -294.105 464.927 -293.35 465.233 -292.114C465.538 -290.877 464.784 -289.627 463.547 -289.321C461.427 -288.797 460.782 -287.457 461.476 -284.216C462.18 -280.932 463.53 -279.782 466.051 -280.023ZM490.422 -233.383C491.678 -233.592 492.867 -232.743 493.076 -231.487C493.286 -230.231 492.437 -229.042 491.181 -228.833C486.217 -228.005 482.677 -230.618 481.133 -235.968C479.578 -241.361 481.172 -245.36 485.858 -246.873C487.07 -247.264 488.37 -246.599 488.762 -245.387C489.153 -244.175 488.488 -242.875 487.275 -242.483C485.197 -241.812 484.647 -240.431 485.566 -237.247C486.496 -234.02 487.924 -232.966 490.422 -233.383ZM650.658 40.6555C655.856 48.7104 659.199 53.89 660.687 56.1944L782.218 -25.4679L773.671 -39.6783L650.658 40.6555ZM627.2 78.6955L656.738 58.8478L646.687 43.2487L529.478 119.792L539.268 134.867L627.2 78.6955ZM643.41 38.1631L538.971 -123.918L424.05 -42.5517L526.95 115.899L643.41 38.1631ZM525.799 -16.9065C529.613 -18.2369 533.761 -18.5458 536.395 -17.6743C543.449 -15.3411 549.155 -9.94799 552.146 0.0220042C554.008 6.23152 550.921 12.3481 544.786 16.7759C539.329 20.7144 532.213 22.712 526.844 21.6187C521.478 20.5259 517.585 15.9239 515.557 9.45474C513.806 3.87149 513.661 -2.59849 515.199 -7.17677C515.807 -8.98683 516.781 -10.5977 518.049 -11.9954L507.131 -15.8003C505.928 -16.2195 505.292 -17.5345 505.711 -18.7374C506.131 -19.9403 507.446 -20.5756 508.649 -20.1564L516.966 -17.2581L512.378 -23.5723C511.629 -24.6029 511.858 -26.0453 512.888 -26.794C513.919 -27.5428 515.361 -27.3143 516.11 -26.2837L521.083 -19.4388L520.713 -28.8794C520.663 -30.1522 521.655 -31.2245 522.927 -31.2744C524.2 -31.3243 525.273 -30.333 525.323 -29.0601L525.799 -16.9065ZM526.803 -12.3624C523.183 -10.9737 520.566 -8.6669 519.572 -5.70811C518.363 -2.10674 518.485 3.37573 519.958 8.07445C521.534 13.101 524.323 16.3976 527.765 17.0985C531.757 17.9116 537.604 16.2702 542.086 13.0354C546.786 9.6436 548.937 5.38141 547.727 1.34751C545.191 -7.1061 540.634 -11.4133 534.947 -13.2947C533.29 -13.8428 529.871 -13.5391 526.803 -12.3624ZM691.389 -4.64074C690.862 -5.80019 691.374 -7.16777 692.533 -7.69538C693.693 -8.22299 695.06 -7.71081 695.588 -6.5514C697.672 -1.9712 696.065 2.12483 691.296 5.00039C686.49 7.89869 682.214 7.39376 679.54 3.25884C678.848 2.18922 679.154 0.761307 680.224 0.0695647C681.294 -0.622199 682.721 -0.315904 683.413 0.753754C684.599 2.58732 686.076 2.76168 688.914 1.05006C691.79 -0.684283 692.438 -2.3358 691.389 -4.64074ZM718.367 -20.2483C717.84 -21.4077 718.352 -22.7753 719.511 -23.3029C720.671 -23.8305 722.038 -23.3183 722.566 -22.1589C724.65 -17.5787 723.043 -13.4827 718.274 -10.6071C713.468 -7.7088 709.192 -8.21374 706.518 -12.3487C705.826 -13.4183 706.132 -14.8461 707.202 -15.5379C708.272 -16.2297 709.699 -15.9234 710.391 -14.8537C711.577 -13.0202 713.054 -12.8458 715.892 -14.5574C718.768 -16.2917 719.416 -17.9433 718.367 -20.2483Z" fill="#7B61FF"/>
</g>
</svg>
