<svg width="727" height="535" fill="none" xmlns="http://www.w3.org/2000/svg"><path d="M649.5 365l-36-256-89 97.5V331L476 409.5 330 420l-46.5-72L184 469 76 443.5-13 1" stroke="#000" stroke-width="4"/><path d="M427.902 292.5c0 14.028-11.373 25.4-25.4 25.4-14.028 0-25.4-11.372-25.4-25.4 0-14.028 11.372-25.4 25.4-25.4 14.027 0 25.4 11.372 25.4 25.4z" fill="#7B61FF"/><path d="M445.398 215.734h-85.796c-18.676 0-33.868 15.192-33.868 33.868v85.796c0 18.676 15.192 33.868 33.868 33.868h85.796c18.676 0 33.868-15.192 33.868-33.868v-85.796c0-18.676-15.192-33.868-33.868-33.868zm-42.898 119.1c-23.343 0-42.334-18.991-42.334-42.334 0-23.343 18.991-42.334 42.334-42.334 23.343 0 42.334 18.991 42.334 42.334 0 23.343-18.991 42.334-42.334 42.334zm48.543-82.41a8.466 8.466 0 01-8.467-8.467 8.466 8.466 0 018.467-8.467 8.466 8.466 0 018.467 8.467 8.466 8.466 0 01-8.467 8.467z" fill="#7B61FF"/><path d="M470.799 148H334.201C292.185 148 258 182.185 258 224.201v136.598C258 402.815 292.185 437 334.201 437h136.598C512.815 437 547 402.815 547 360.799V224.201C547 182.185 512.815 148 470.799 148zm25.4 187.398c0 28.011-22.79 50.801-50.801 50.801h-85.796c-28.011 0-50.801-22.79-50.801-50.801v-85.796c0-28.011 22.79-50.801 50.801-50.801h85.796c28.011 0 50.801 22.79 50.801 50.801v85.796z" fill="#7B61FF"/><path d="M583.5 535c79.253 0 143.5-64.247 143.5-143.5S662.753 248 583.5 248 440 312.247 440 391.5 504.247 535 583.5 535z" fill="#212121"/><path fill-rule="evenodd" clip-rule="evenodd" d="M578.08 454.437h11.263s3.403-.373 5.139-2.246c1.599-1.719 1.548-4.947 1.548-4.947s-.22-15.113 6.794-17.338c6.915-2.193 15.793 14.606 25.204 21.065 7.117 4.888 12.524 3.816 12.524 3.816l25.164-.35s13.163-.811 6.922-11.161c-.512-.846-3.635-7.656-18.71-21.648-15.778-14.645-13.665-12.276 5.342-37.608 11.575-15.428 16.202-24.846 14.757-28.88-1.379-3.842-9.892-2.827-9.892-2.827l-28.333.177s-2.1-.287-3.658.644c-1.522.913-2.501 3.042-2.501 3.042s-4.485 11.938-10.465 22.091c-12.617 21.423-17.661 22.554-19.723 21.224-4.796-3.101-3.599-12.455-3.599-19.101 0-20.761 3.149-29.417-6.131-31.658-3.08-.745-5.347-1.236-13.223-1.315-10.109-.105-18.666.031-23.511 2.405-3.223 1.578-5.709 5.095-4.195 5.297 1.873.251 6.114 1.144 8.362 4.206 2.904 3.949 2.801 12.82 2.801 12.82s1.668 24.44-3.895 27.476c-3.82 2.082-9.058-2.169-20.306-21.605-5.763-9.956-10.114-20.96-10.114-20.96s-.84-2.057-2.336-3.157c-1.816-1.333-4.354-1.757-4.354-1.757l-26.923.176s-4.042.113-5.525 1.87c-1.32 1.563-.105 4.796-.105 4.796s21.078 49.314 44.944 74.165c21.884 22.784 46.735 21.288 46.735 21.288z" fill="#fff"/><circle cx="614" cy="113" r="8.5" fill="#fff" stroke="#000" stroke-width="3"/><circle cx="183" cy="470" r="8.5" fill="#fff" stroke="#000" stroke-width="3"/><circle cx="79" cy="447" r="8.5" fill="#fff" stroke="#000" stroke-width="3"/></svg>