<svg width="433" height="353" fill="none" xmlns="http://www.w3.org/2000/svg"><g clip-path="url(#clip0)"><path d="M238.079 59.22l-44.092-7.162 10.447-27.983c2.31-6.193-.709-9.008-6.719-6.262l-52.214 23.871-21.797-30.07c-3.131-4.315-7.06-3.707-8.739 1.354l-11.681 35.26-56.989-6.962c-6.559-.8-8.585 2.797-4.51 8.001L60.21 72.772 20.343 92.935c-7.498 3.79-6.847 7.994 1.447 9.345l44.092 7.161-10.447 27.983c-2.31 6.193.71 9.008 6.72 6.262l52.213-23.871 21.799 30.076c3.13 4.315 7.06 3.707 8.738-1.354l11.682-35.26 56.988 6.962c6.559.8 8.585-2.796 4.511-8.001l-18.421-23.512 39.861-20.162c7.498-3.79 6.847-7.994-1.447-9.345zm51.88 53.393l-12.483 38.386-23.527-13.199c-5.208-2.919-8.137-.613-6.517 5.134l14.087 49.931-29.845 15.307c-4.284 2.199-4.284 5.792 0 7.991l29.851 15.308-14.087 49.931c-1.621 5.746 1.309 8.053 6.516 5.134l23.522-13.205 12.483 38.391c2.346 7.221 6.188 7.221 8.539 0l12.483-38.385 23.527 13.199c5.208 2.919 8.137.612 6.517-5.134l-14.087-49.931 29.851-15.308c4.284-2.199 4.284-5.792 0-7.991l-29.851-15.307 14.087-49.931c1.62-5.747-1.309-8.053-6.517-5.134l-23.527 13.199-12.483-38.386c-2.346-7.22-6.188-7.22-8.539 0z" fill="#171717"/><path fill-rule="evenodd" clip-rule="evenodd" d="M163.679 275.125a.593.593 0 00-.034-.072l-.173-.323 4.489-10.034a.654.654 0 10-1.195-.535l-4.078 9.115-4.595-8.534a.654.654 0 10-1.152.621l5.073 9.421-.128.285-.021.053-21.686 20.747-.307-.161-17.832 22.29a.653.653 0 01-.787.184l-58.712-27.398a.655.655 0 01-.178-1.064l2.762-2.672a9.65 9.65 0 016.707-2.713h20.325l10.308-8.145-26.979-14.076 53.941-52.316-36.09-6.368 1.885-10.695-21.399-5.611a.654.654 0 01-.488-.645l.94-53.948-23.866 8.825c-1.14 2.681-2.884 5.35-5.223 8.213-5.351 6.549-11.729 10.218-19.176 10.218-6.94 0-13.444-3.825-19.079-10.199C2.17 144.201 0 139.634 0 133.593c0-5.626 1.923-11.405 5.177-15.874 4.782-6.569 12.301-10.32 20.833-10.32 5.064 0 9.997 2.103 15 5.85l7.236-11.243A16.357 16.357 0 0160.6 94.56l22.63-1.945a3.26 3.26 0 012.421 5.702l-2.298 2.009a2.457 2.457 0 001.7 4.304l4.054-.142a3.1 3.1 0 011.946 5.592l-2.989 2.205a2.456 2.456 0 001.19 4.418l7.679.834a3.274 3.274 0 01.78 6.327L84.77 128.65l7.323 15.375 10.491 6.931 2.683-15.225 37.191 15.515 1.058-4.983a.982.982 0 011.126-.764l40.022 6.847a.982.982 0 01.802 1.133l-.008.039-3.097 14.376.068.028 19.263 28.256a8.34 8.34 0 00-9.825 1.554c-1.928 1.969-3.444 3.78-4.547 5.435l-4.369 6.553 8.365 1.691a.65.65 0 01.147-.203c1.192-1.113 2.508-2.81 3.939-5.088 1.483-2.363 3.81-5.229 6.981-8.607a.653.653 0 01.925-.029.656.656 0 01.029.926c-3.119 3.321-5.395 6.126-6.827 8.407-1.31 2.085-2.539 3.717-3.693 4.897l7.476 1.511a.662.662 0 01.082-.175c1.542-2.331 3.058-4.316 4.549-5.955a294.226 294.226 0 014.986-5.328.655.655 0 01.945.907 288.082 288.082 0 00-4.963 5.303c-1.385 1.522-2.8 3.363-4.244 5.522l4.217.853c-1.383-.534-1.986-1.528-1.591-2.812a.655.655 0 111.251.386c-.182.592.049.945.938 1.25.902.309 1.379.149 1.689-.5a.654.654 0 111.181.564c-.438.917-1.163 1.383-2.082 1.392l1.862.376a.655.655 0 01.224-.664l8.564-6.93a.655.655 0 01.823 1.019l-8.423 6.815 5.604 1.133-1.473 6.432v.252l14.193 2.851-.142-.296 34.331 6.301-11.421 25.334 4.14 2.227a5.723 5.723 0 007.718-2.267 2471.331 2471.331 0 0114.525-25.848c5.024-8.81 8.807-18.624 11.35-29.445a5.732 5.732 0 00-2.458-6.118l-12.772-8.292a.655.655 0 01.712-1.099l12.772 8.292a7.04 7.04 0 013.019 7.517c-2.57 10.941-6.399 20.873-11.486 29.795a2458.147 2458.147 0 00-14.518 25.834 7.031 7.031 0 01-9.482 2.785l-4.06-2.184-8.108 17.985a8.996 8.996 0 01-9.042 5.262l-70.023-6.574zm-25.582 19.657l-34.36-17.928-10.103 7.983 11.005 4.985a.656.656 0 01-.54 1.194l-11.856-5.371h-20.41a8.341 8.341 0 00-5.798 2.345L63.957 290l50.741 23.678c5.922-5.726 11.174-8.613 15.791-8.613.068 0 .135.01.197.03l7.971-9.964-.56-.349zM95.45 191.44l6.886-39.078-11.117-7.344a.654.654 0 01-.23-.265l-8.019-16.836a8.346 8.346 0 00-4.408-4.149l-2.805-1.133-.674 38.62a.654.654 0 01.64-.094c8.697 3.366 11.982 12.671 9.952 27.717l9.775 2.562zm152.068-32.472c.434.119.881.182 1.341.19 1.401.024 2.695-.465 3.903-1.487-1.171-1.065-2.447-1.599-3.849-1.623a5.36 5.36 0 00-2.108.384c.123-.005.249.008.374.041.698.187 1.103.941.904 1.683-.093.346-.3.628-.565.812zm-2.011-1.018c-.01-.154.005-.313.048-.472.056-.209.154-.396.282-.551-.28.176-.555.379-.826.608.163.149.328.287.496.415zm-1.006-7.281l-2.538 1.131a8.007 8.007 0 00-1.763 3.06l-4.164 13.38c2.745 1.8 5.635 3.129 8.672 3.989 3.047.864 6.713 1.202 10.998 1.011l.515-5.26a.655.655 0 01.856-.559 3.762 3.762 0 004.872-2.857 3.765 3.765 0 00-4.155-4.457.654.654 0 01-.733-.605 394.333 394.333 0 00-5.072-5.572 683.878 683.878 0 01-3.789-4.082c-3.893 1.736-6.331 5.3-7.33 10.768l3.604.702a.654.654 0 11-.249 1.285l-4.233-.823a.654.654 0 01-.521-.746c.73-4.597 2.409-8.063 5.03-10.365zm8.143-1.61a10.525 10.525 0 015.771 9.713 5.076 5.076 0 11-.964 10.084l-.431 4.39c4.992-.77 8.953-3.214 11.165-7.317 3.415-6.336 4.869-12.243 4.711-17.736-.121-4.229-1.171-7.951-2.873-11.328-1.377-2.732-5.46-6.143-10.099-8.208-5.527-2.46-11.103-2.813-15.719-.524-5.203 2.581-10.81 8.433-14.192 14.898-3.75 7.169-4.321 14.033-1.048 18.969 1.373 2.071 3.412 4.01 5.873 5.684l4.112-13.213a9.35 9.35 0 017.278-6.427 4.192 4.192 0 011.36-7.383 3.54 3.54 0 013.253-5.834l2.55.445a3.365 3.365 0 012.734 3.905 3.563 3.563 0 01-2.091 2.647 3.984 3.984 0 011.574 3.98l-.003.013a4.216 4.216 0 01-2.961 3.242zm10.933-36.386l-4.277 14.303c.386.152.771.313 1.156.485 4.893 2.178 9.206 5.781 10.735 8.814 1.784 3.54 2.886 7.446 3.013 11.88.164 5.728-1.345 11.861-4.867 18.395-3.652 6.774-11.556 9.368-20.913 7.854-8.525-1.379-16.797-6.02-20.549-11.68-3.582-5.402-2.971-12.751.979-20.3 3.504-6.699 9.305-12.754 14.77-15.465 4.328-2.146 9.375-2.154 14.445-.435l4.25-14.214c-.335-.181-.617-.416-.789-.678-.651-.993.44-2.634 1.37-3.102.93-.467 2.109.316 2.349.799.24.483.502 1.389-.168 2.641-.291.545-.879.74-1.504.703zm-14.741 47.794c-1.96-.034-3.72-.877-5.25-2.499a.654.654 0 01.015-.915c1.587-1.567 3.375-2.349 5.335-2.315 1.961.035 3.72.878 5.251 2.5a.655.655 0 01-.016.915c-1.586 1.567-3.374 2.349-5.335 2.314zm-7.501 3.584a.656.656 0 01.787-1.047c.685.516 1.628.669 2.871.43a.655.655 0 01.248 1.286c-1.581.304-2.896.091-3.906-.669zM115.97 314.272l5.37 2.506 8.293-10.367c-3.931.334-8.493 2.942-13.663 7.861zM84.4 188.543c1.915-14.416-1.167-23.071-9.15-26.161a.662.662 0 01-.184-.109l-.414 23.715 9.747 2.555zm-58.39-30.066c7.01 0 13.041-3.468 18.163-9.737 4.366-5.344 6.54-9.916 6.54-15.147 0-7.49-3.341-13.677-9.557-18.58-5.123-4.041-10.105-6.304-15.146-6.304-8.117 0-15.242 3.553-19.775 9.781-3.093 4.248-4.926 9.757-4.926 15.103 0 5.676 2.035 9.959 6.603 15.127 5.41 6.12 11.594 9.757 18.098 9.757zm31.306 42.534l-3.828 18.374 10.87 7.93-13.863 1.636-10.843 12.611 1.804-15.667-10.304-8.524 14.538-.065 11.626-16.295zm-43.412 71.292l10.954 14.56 11.706-1.839-7.622 9.64 1.086 14.574-8.62-10.849-11.723 1.119 9.02-9.084-4.801-18.121zm292.799-165.924l12.7 16.276 13.778-2.21-9.071 10.951 1.105 16.407-10.001-12.121-13.788 1.399 10.704-10.342-5.427-20.36zm38.594 81.511l-4.721 17.603 8.656 8.099-12.284-.076-10.806 9.829 3.235-13.477-8.098-8.556 12.705 1.52 11.313-14.942zm-11.78 100.603a10.704 10.704 0 00-1.031-.94c11.781-6.1 20.851-10.925 22.772-12.226 5.948-4.027 6.234-11.278.484-15.007-3.898-2.528-12.703-.95-26.273 4.872l-7.216 3.803c3.148 2.156 5.522 4.6 6.564 6.623a30.552 30.552 0 013.336 11.681c-1.756-1.277-4.003-1.986-6.809-1.369-8.716 1.915-11.348 8.348-19.885 4.639-8.536-3.71-9.236-9.134-18.057-7.306a515.589 515.589 0 01-6.852 1.383c3.77-8.374 11.009-16.069 17.639-19.288 7.577-3.678 16.46-1.115 22.808 2.819l7.885-4.156a.402.402 0 01.047-.022c13.984-6.003 23.112-7.641 27.525-4.778 6.566 4.259 6.235 12.656-.462 17.191-1.93 1.306-10.852 6.059-22.475 12.081zm-2.124 8.718c-.812 3.62-2.261 7.575-4.593 11.844-6.853 12.547-26.599 10.286-38.716 2.51-12.897 6.422-23.058 11.341-25.172 12.062-6.414 2.186-11.799-2.734-12.905-10.573-.712-5.042 7.031-11.486 23.198-19.686l4.129-2.177-.053.769c5.613-2.715 9.837-3.604 12.672-2.666 4.253 1.407 15.899 10.473 23.271 7.942 7.051-2.421 15.805-6.23 18.169-.025zm-44.558 13.514c-2.596-1.831-4.771-3.925-6.292-6.175-2.451-3.626-3.033-7.922-2.331-12.342l-4.402 2.321-.009.005c-15.601 7.913-23.09 14.144-22.499 18.337.473 3.35 1.846 6.248 3.805 8.038 2.043 1.867 4.589 2.431 7.383 1.478 2.037-.695 11.826-5.431 24.345-11.662zm42.657-45.545l-.047.022.024-.01.023-.012zM198.407 116.183l1.069.495a.66.66 0 01.077-.001c1.782-.222 2.745-.949 3.034-2.202.3-1.302-.302-2.412-1.943-3.424a.632.632 0 01-.111-.086l-11.91-5.455a.644.644 0 01-.279-.243c-1.601-.021-2.503.625-2.874 2.03-.405 1.534.109 2.682 1.639 3.593.102.06.179.14.231.23a.631.631 0 01.248.06l10.557 4.882c-1.162-.75-1.412-1.952-.759-3.36.671-1.445 1.757-2.005 3.042-1.457a.655.655 0 01-.514 1.205c-.57-.243-.945-.05-1.341.804-.401.865-.292 1.356.321 1.732a.655.655 0 01-.487 1.197zm.854 1.838l-12.222-5.653a.65.65 0 01-.277-.24c-1.634.404-2.6 1.34-2.982 2.866-.272 1.086-.191 2.029.232 2.857a2.94 2.94 0 001.386 1.332l3.492 1.616a.608.608 0 01.115.035l7.227 2.916c1.894.156 3.104-.442 3.772-1.811.64-1.313.413-2.583-.743-3.918zm-7.909 5.172l-1.256 10.829 15.799-2.489a5.236 5.236 0 004.387-4.58l3.689-32.303c-2.379-1.976-2.305-4.519.15-7.315a2.124 2.124 0 00-1.857-.728c-2.248.259-3.564 1.424-4.064 3.594-.193.835-1.113 4.258-2.769 10.303a.655.655 0 01-.761.469l-6.941-1.403 5.225 2.725a.694.694 0 01.052.03c2.068 1.336 2.928 3.058 2.465 5.066-.379 1.642-1.469 2.724-3.19 3.225 1.394 1.165 1.947 2.568 1.581 4.154-.358 1.553-1.431 2.561-3.13 3.012 1.062 1.532 1.227 3.133.448 4.731-.933 1.914-2.704 2.765-5.164 2.533a.652.652 0 01-.184-.045l-4.48-1.808zm1.779-24.552l-2.267-.458a.168.168 0 00-.043-.003c-2.219.14-3.394.93-3.713 2.386-.312 1.427.196 2.556 1.608 3.502.082.055.145.12.191.192a.674.674 0 01.261.059l11.544 5.288a.62.62 0 01.168-.044c1.932-.231 2.987-1.04 3.316-2.466.327-1.419-.259-2.604-1.875-3.655l-9.107-4.75a.688.688 0 01-.083-.05zm21.503-9.872c-1.284 1.673-1.431 3.035-.474 4.227l.46-4.033c.008-.064.012-.13.014-.194zm.718 5.324a.657.657 0 01-.101.88l-3.669 32.129a6.546 6.546 0 01-5.484 5.725l-16.65 2.623a.655.655 0 01-.751-.723l1.384-11.934-5.232-2.421a4.255 4.255 0 01-2.002-1.924c-.574-1.122-.683-2.39-.337-3.773.41-1.637 1.378-2.799 2.858-3.453-1.205-1.126-1.609-2.571-1.163-4.26.391-1.481 1.282-2.431 2.604-2.813-.964-1.08-1.303-2.384-.979-3.863.458-2.097 2.157-3.24 4.909-3.413.128-.008.258 0 .384.026l13.207 2.67c1.547-5.65 2.414-8.881 2.594-9.663.626-2.712 2.395-4.278 5.191-4.6a3.436 3.436 0 013.806 3.806l-.569 4.981zm-14.558 13.508a.655.655 0 01-.833 1.01c-1.101-.91-1.201-2.155-.342-3.482.865-1.338 2.018-1.741 3.214-1.019a.655.655 0 01-.676 1.121c-.531-.32-.929-.181-1.44.609-.517.801-.477 1.303.077 1.761zm-4.468 14.256a.655.655 0 01-.76 1.066c-1.162-.831-1.348-2.066-.584-3.45.769-1.395 1.892-1.878 3.135-1.241a.655.655 0 01-.596 1.166c-.552-.282-.939-.116-1.394.708-.46.835-.385 1.333.199 1.751zm-22.829 87.183l-1.105 5.133 40.761 8.004 1.137-4.568-40.793-8.569zm-12.337 2.928l9.907 1.945 1.113-5.149-38.868-8.164-1.06 4.992 28.908 6.376zm11.383-4.883l11.563-53.506-39.376-6.736-11.144 52.468 38.957 7.774zm-12.546-34.667c1.032.499 1.926 1.269 2.28 1.973.946 1.885 1.009 4.113-.391 6.715-.872 1.621-2.718 2.229-4.837 1.886-1.885-.305-3.713-1.333-4.571-2.63-.857-1.297-.715-3.002.176-4.708.769-1.472 2.038-2.8 3.265-3.411a3.85 3.85 0 011.538-.395l-1.427-2.956a.655.655 0 011.178-.569l1.087 2.251.347-2.188a.654.654 0 111.292.204l-.375 2.373 1.819-1.97a.655.655 0 01.961.89l-2.342 2.535zm-.71 1.114c-1.005-.448-1.993-.51-2.786-.116-.965.48-2.04 1.606-2.687 2.845-.692 1.325-.794 2.547-.245 3.378.638.965 2.141 1.81 3.689 2.06 1.623.263 2.909-.161 3.476-1.214 1.187-2.206 1.137-3.986.373-5.505-.222-.443-.969-1.068-1.82-1.448zm31.468 34.592a.654.654 0 111.225.459c-.5 1.338-1.645 1.838-3.178 1.458-1.546-.383-2.302-1.343-2.009-2.71a.654.654 0 111.279.275c-.13.606.132.937 1.044 1.164.925.229 1.387.027 1.639-.646zm8.543 2.283a.653.653 0 111.225.459c-.501 1.338-1.645 1.838-3.178 1.458-1.546-.383-2.302-1.343-2.009-2.71a.654.654 0 111.279.274c-.13.607.132.938 1.044 1.164.925.229 1.387.028 1.639-.645z" fill="#fff"/><path fill-rule="evenodd" clip-rule="evenodd" d="M201.613 196.137l-.808-1.261-18.688-26.955 2.771-14.873-1.303-.794 2.265-19.826a2.781 2.781 0 012.527-2.457l23.789-2.025v34.48l20.032 11.739 2.317-5.138c5.123 2.749 8.811 4.342 11.065 4.778 1.83.355 4.384 1.016 8.319 1.016.654 0 1.651-.079 2.989-.238l-.301 3.892 17.486 3.327a8.347 8.347 0 016.394 5.676l13.852 43.662a6.877 6.877 0 01-4.47 8.634 6.867 6.867 0 01-3.707.126l-57.55-14.052-6.131-12.845a16.364 16.364 0 00-5.523-6.455l-14.403-9.862a8.354 8.354 0 00-.922-.549zm42.624 6.418a.655.655 0 00-.255 1.285l12.669 2.514a.655.655 0 00.745-.858l-4.252-12.201a.655.655 0 10-1.235.431l3.875 11.121-11.547-2.292z" fill="#7B61FF"/></g><defs><clipPath id="clip0"><path fill="#fff" d="M0 0h433v353H0z"/></clipPath></defs></svg>