<svg width="353" height="353" fill="none" xmlns="http://www.w3.org/2000/svg"><path d="M284.079 208.219l-44.092-7.161 10.447-27.983c2.31-6.193-.709-9.008-6.719-6.262l-52.214 23.871-21.797-30.069c-3.131-4.316-7.06-3.708-8.739 1.353l-11.681 35.26-56.989-6.962c-6.559-.8-8.585 2.797-4.51 8.001l18.426 23.505-39.868 20.163c-7.498 3.79-6.847 7.994 1.447 9.345l44.092 7.161-10.447 27.983c-2.31 6.193.709 9.008 6.719 6.262l52.214-23.871 21.799 30.076c3.13 4.315 7.06 3.707 8.738-1.354l11.682-35.26 56.988 6.962c6.559.8 8.585-2.796 4.511-8.001l-18.421-23.512 39.861-20.162c7.498-3.79 6.847-7.994-1.447-9.345z" fill="#171717"/><mask id="a" maskUnits="userSpaceOnUse" x="0" y="75" width="259" height="248"><path d="M129.189 295.884l72.843 26.616 32.842-12.607L259 274.405l-4.981-42.492-34.243-33.465-25.37-122.963H18.366L0 92.607 54.477 220.55l74.712 75.334z" fill="#C4C4C4"/></mask><g mask="url(#a)" fill-rule="evenodd" clip-rule="evenodd"><path d="M-199.996 277.355h46.751a1.245 1.245 0 100-2.49h-78.847l-93.601 257.664a1.244 1.244 0 11-2.341-.85l93.292-256.814h-42.747a3.925 3.925 0 010-7.85h81.895a1.235 1.235 0 01.006-1.01l13.395-29.741a9.349 9.349 0 012.881-3.613l2.521-1.906a12.267 12.267 0 0110.14-2.176l18.35-44.663c2.369-2.712 4.829-3.537 7.378-2.477a5.88 5.88 0 013.119 7.808l-18.598 42.045 24.614 6.528a1.244 1.244 0 11-.638 2.407l-24.996-6.629-2.93 6.623c1.938.738 2.821 3.662 3.161 8.82a1.245 1.245 0 01-1.201 1.326c-6.976.232-12.856 1.358-17.641 3.367-2.333.98-4.244 2.603-5.732 4.889 1.522.044 2.91.232 4.355.669 3.187.964 5.493 2.956 6.448 6.163l22.913.191H3.487l28.819 91.129a13.048 13.048 0 01-1.528 11.105H75.21c.918-2.866 3.032-4.657 5.925-5.532 1.275-.385 2.502-.56 3.833-.61-1.338-1.996-3.04-3.417-5.106-4.283-4.37-1.833-9.743-2.862-16.118-3.075H48.68a1.246 1.246 0 010-2.491h15.085l.041.001c6.669.221 12.342 1.307 17.02 3.268 4.716 1.979 7.803 6.264 9.272 12.722h12.738c-1.355-6.57-3.984-10.749-7.832-12.645-4.477-2.206-13.605-5.802-27.344-10.769a1.246 1.246 0 01-.817-1.051l-7.89-6.805a1.245 1.245 0 011.627-1.886l7.695 6.637c23.933 5.669 37.133 9.597 40.193 12.053 4.612 3.703 7.611 8.872 8.989 15.457.028.133.034.265.02.392h21.783a3.925 3.925 0 110 7.85H35.5l73.407 154.467a1.244 1.244 0 11-2.249 1.068L32.742 377.103H-2.419l56.747 110.291H37.242l14.133 44.332a1.245 1.245 0 01-1.187 1.623h-8.046a.557.557 0 01-.058 0h-115.4a1.245 1.245 0 01-1.163-1.691l1.958-5.106a18.368 18.368 0 0112.452-11.18l21.269-5.626-6.97-22.352h-27.547l-38.671-99.063c.422-.291.637-.825.497-1.348l-20.254-75.773a9.65 9.65 0 016.249-11.64l49.781-16.73a1.245 1.245 0 10-.793-2.36l-49.782 16.73a12.14 12.14 0 00-7.861 14.643l19.933 74.573-10.125 100.603h-30.533v45.075c0 .688-.557 1.245-1.245 1.245h-12.314a1.244 1.244 0 01-1.245-1.245v-27.459l-21.896 28.222a1.246 1.246 0 01-.984.482h-86.835a1.245 1.245 0 01-1.162-1.691l1.957-5.106a18.37 18.37 0 0112.452-11.18l21.786-5.763 4.773-22.58h-35.137l40.912-117.514.135.002 33.683-92.162zm297.39-67.424l-38.124-.91-48.672-108.295a8.405 8.405 0 017.638-11.85l164.355-.563a8.406 8.406 0 018.315 6.993l18.954 111.176c23.047 5.786 40.112 26.641 40.112 51.482 0 29.313-23.763 53.076-53.076 53.076-29.314 0-53.077-23.763-53.077-53.076 0-10.827 3.242-20.897 8.808-29.292l-2.551 2.474a12.799 12.799 0 01-3.053 2.19c-5.304 2.723-9.934 3.439-13.859 2.057-3.307-1.165-5.378-3.131-6.105-5.803-2.382 2.037-5.318 2.694-8.701 1.927-3.677-.833-5.988-2.951-6.808-6.208-2.74 1.768-5.558 2.171-8.367 1.141a10.796 10.796 0 01-6.74-12.831l.951-3.688zm-474.341 8.378l5.079-129.611a8.405 8.405 0 018.399-8.076h187.804a8.405 8.405 0 018.05 10.822l-34.576 115.185a14.32 14.32 0 01-13.715 10.203h-79.762c.218.137.434.283.648.438a12.05 12.05 0 011.614 1.393 8.092 8.092 0 01.815 10.232l-15.225 21.908c-.033.046-.068.09-.106.132l-4.178 4.546a12.446 12.446 0 01-10.705 3.932l-7.42 6.455a53.56 53.56 0 01.249 5.17c0 29.314-23.763 53.077-53.077 53.077-29.313 0-53.076-23.763-53.076-53.077 0-29.313 23.763-53.076 53.076-53.076 2.065 0 4.103.118 6.106.347zM34.628 487.394h-77.79l7.023 22.518H3.093a1.245 1.245 0 110 2.49h-41.857a1.27 1.27 0 01-.248-.024l-20.421 5.402a15.876 15.876 0 00-10.764 9.664l-1.31 3.415h111.87L30.18 501.416a1.245 1.245 0 012.354-.814L43 530.859h5.484l-13.856-43.465zm-191.994-.365h-79.678l-5.04 23.845c-.097.46-.446.826-.9.947l-22.527 5.959a15.874 15.874 0 00-10.763 9.664l-1.31 3.415h84.414l23.751-30.613c.727-.938 2.229-.423 2.229.763v29.85h9.824v-43.83zM-334.07 247.404l-.169.146a69.227 69.227 0 00-.446-.741l.615.595zM86.315 364.207c-1.661-.029-3.055.091-4.46.515-1.868.565-3.22 1.566-3.973 3.148h9.656a22.714 22.714 0 00-1.223-3.663zm19.06 3.663h9.294c-1.38-5.316-3.965-9.477-7.76-12.524-1.961-1.573-9.908-4.186-23.59-7.723 5.842 2.258 10.101 4.046 12.785 5.368 4.738 2.334 7.809 7.333 9.271 14.879zm-272.988-136.959a9.776 9.776 0 00-7.676 1.82l-2.52 1.906a6.85 6.85 0 00-2.113 2.65l-12.601 27.978 5.464.046c1.587-7.058 4.937-11.731 10.062-13.883a37.65 37.65 0 011.141-.456l8.243-20.061zm3.707 17.335a70.96 70.96 0 014.129-.324c-.163-1.721-.405-3.066-.718-4.024-.172-.528-.359-.914-.543-1.155-.115-.15-.189-.204-.231-.214a1.182 1.182 0 00-.101-.017l-2.536 5.734zm-9.706 17.177c-.807-1.909-2.352-3.102-4.519-3.758-1.566-.473-3.116-.602-4.97-.565-.56 1.265-1.029 2.675-1.406 4.232l10.895.091zm-181.856-67.475c5.093 5.03 5.294 9.959.382 14.127a1.237 1.237 0 01-.984.283l1.024 13.586c12.86 8.004 22.047 21.357 24.448 36.948l6.131-5.334a1.246 1.246 0 011.363-.71 9.96 9.96 0 009.17-3.052l4.121-4.484 15.178-21.838a5.604 5.604 0 00-.565-7.084 9.562 9.562 0 00-1.282-1.103c-2.433-1.764-5.087-1.973-8.137-.606l-11.129 14.768a1.244 1.244 0 11-1.989-1.498l11.426-15.163c.856-2.832.162-4.98-2.134-6.71-2.285-1.722-4.499-1.908-6.877-.595l-.045.024a1.232 1.232 0 01-.174.317l-11.43 15.168a1.244 1.244 0 11-1.988-1.498l11.43-15.168a1.22 1.22 0 01.431-.362c.042-.107.1-.214.178-.317l16.259-21.705c1.293-3.754.845-6.283-1.221-7.877-2.234-1.724-5.046-1.621-8.662.463a.322.322 0 00-.085.071l-29.392 35.677a1.246 1.246 0 01-2.136-.377 812.455 812.455 0 01-2.602-7.459 44.156 44.156 0 01-.306-.934l-.257-.822c-.985-3.181-1.503-4.386-2.381-5.166-1.17-1.04-2.438-1.8-3.808-2.286a4.044 4.044 0 00-3.957.716zm-1.338 2.185c-.091.394-.123.8-.094 1.206l.637 8.453c3.139-2.919 3.015-5.966-.543-9.659zm46.945 49.248l.105-.132-.057.063-.048.069zm4.958-64.631a1.246 1.246 0 011.775 1.747c-1.74 1.768-3.923 1.75-6.076.074-2.172-1.692-2.702-3.77-1.266-5.738a1.244 1.244 0 112.012 1.468c-.563.772-.41 1.375.784 2.305 1.212.944 1.978.95 2.771.144zm-78.15 136.874c27.938 0 50.586-22.648 50.586-50.586 0-27.937-22.648-50.586-50.586-50.586-27.937 0-50.586 22.649-50.586 50.586 0 27.938 22.649 50.586 50.586 50.586zm17.245-54.072c-1.448.439-3.152.103-5.03-.931a1.245 1.245 0 011.201-2.181c1.537.846 2.629 1 3.414.596l-.227-1.38c-.081-.495.142-.99.567-1.257l11.51-7.228-8.865-2.388a4.672 4.672 0 01-2.405 5.36 17.92 17.92 0 01-5.958 1.795 17.915 17.915 0 01-6.216-.3 4.669 4.669 0 01-1.071-8.718 17.92 17.92 0 015.959-1.796 18.32 18.32 0 013.717-.083 14.323 14.323 0 00-4.51-5.958l-16.823 7.718-14.502 2.572c-.079.514-.12 1.038-.12 1.569v35.586c8.203 1.892 15.972 2.514 23.309 1.872 7.256-.635 13.678-2.396 19.274-5.28l-3.224-19.568zm-4.917-16.078c-.627.003-1.261.043-1.901.122a15.457 15.457 0 00-5.137 1.545 2.18 2.18 0 00.5 4.069c1.736.396 3.52.482 5.358.257a15.435 15.435 0 005.137-1.546 2.179 2.179 0 00.551-3.49c.021.103.036.209.045.317.128 1.456-.88 2.733-2.25 2.853-1.37.12-2.584-.963-2.711-2.419a2.727 2.727 0 01.408-1.708zm4.263-2.139l15.489 4.173c1.049.283 1.258 1.679.338 2.257l-13.223 8.303 3.877 23.532a1.243 1.243 0 01-.635 1.297c-6.09 3.298-13.101 5.291-21.025 5.984-7.899.691-16.255-.029-25.063-2.157a1.245 1.245 0 01-.953-1.21v-36.572c0-5.222 3.181-9.918 8.03-11.854l10.816-4.318a16.938 16.938 0 013.515-.979c8.329-1.372 16.328 3.619 18.834 11.544zm-15.354 23.27c-4.705 2.502-10.549.716-13.051-3.99-2.502-4.706-.716-10.549 3.99-13.051a1.245 1.245 0 111.169 2.199 7.16 7.16 0 006.723 12.643 1.246 1.246 0 011.169 2.199zm578.712 35.945c27.938 0 50.586-22.648 50.586-50.586s-22.648-50.586-50.586-50.586-50.586 22.648-50.586 50.586 22.648 50.586 50.586 50.586zm-8.409-68.844c.592.587.881 1.466.692 2.358-.294 1.379-1.622 2.265-2.967 1.979-1.104-.234-1.877-1.185-1.956-2.281-.452.357-.891.756-1.316 1.197 2.46 1.681 4.992 2.38 7.634 2.13a10.358 10.358 0 004.734-1.644 27.407 27.407 0 01-1.821-3.691 10.82 10.82 0 00-5-.048zm27.18 23.047l-1.2 13.416a1.246 1.246 0 01-1.069 1.122c-6.672.925-13.887.56-21.642-1.088-7.789-1.656-13.633-3.995-17.541-7.056a1.246 1.246 0 01-.461-1.179l1.928-11.923a1.26 1.26 0 01.08-.495l.634-3.92-9.279-1.972a1.245 1.245 0 01-.737-1.965l9.234-12.327a24.29 24.29 0 0126.44-8.699l7.652 2.302a11.207 11.207 0 017.933 11.73l-.653 7.307 23.148 7.129a3.114 3.114 0 011.914 4.271l-5.487 11.983a3.114 3.114 0 01-4.448 1.364l-16.446-10zm-25.136-34.151a21.784 21.784 0 00-12.924 8.257l-8.066 10.768 8.533 1.814c.649.138 1.076.761.97 1.417l-.269 1.661c1.716.27 3.054.507 4.017.711.61.13 1.08.249 1.423.363.213.07.389.142.544.228.384.213.661.478.747 1.006.1.622-.191 1.048-.593 1.317-.151.1-.305.168-.484.227a6.198 6.198 0 01-.861.2c-.567.098-1.332.194-2.289.29-.229.023-.467.047-.717.07-.539.05-1.694.147-2.535.217l-1.695 10.476c3.57 2.585 8.886 4.643 15.942 6.143 7.102 1.509 13.701 1.902 19.802 1.183l2.203-24.64c-1.142-2.041-3.164-3.613-5.682-4.148-3.131-.665-6.211.444-8.128 2.633-1.545-1.09-2.79-2.193-3.733-3.309a12.815 12.815 0 01-5.928 2.082c-3.691.35-7.202-.815-10.478-3.448a1.245 1.245 0 01-.185-1.758c2.611-3.202 5.793-5.007 9.492-5.357a13.248 13.248 0 012.866.037c-.797-2.474-1.454-5.287-1.972-8.44zm-63.574-2.571c.004-.09.018-.18.043-.27l7.831-28.825a1.227 1.227 0 01-.123-.445c-.327-3.692-1.929-5.897-4.9-6.85-3.174-1.019-5.651-.062-7.723 3.037a1.242 1.242 0 01-.498.436l-7.659 29.277c-.044.17-.122.322-.223.452.007.047.013.095.015.145.172 3.39 1.826 5.338 5.189 6.101 3.378.765 5.986-.222 8.048-3.058zm2.321.683l-.002.037c-.206 3.06 1.279 5.082 4.716 6.293 3.194 1.125 7.147.514 11.893-1.924a10.28 10.28 0 002.457-1.762l6.353-6.159-5.952-2.03a1.246 1.246 0 01-.833-1.335l2.188-17.348c-.02-4.729-1.557-7.332-4.612-8.171-2.773-.761-5.4-.024-7.99 2.309l-8.093 29.79a1.266 1.266 0 01-.125.3zm-17.787-4.459a1.22 1.22 0 01.028-.494l7.927-30.301c.026-.1.063-.194.11-.28-.942-3.11-2.85-5.058-5.792-5.961-1.194-.366-2.3-.514-3.321-.45a5.607 5.607 0 00-5.075 4.195l-6.513 25.277a8.306 8.306 0 005.185 9.871c2.44.895 4.877.314 7.451-1.857zm-3.396-28.301c-.229 1.487.466 2.355 2.51 2.885 2.034.527 2.965.155 3.366-1.115a1.247 1.247 0 012.375.751c-.847 2.681-3.161 3.606-6.366 2.774-3.196-.828-4.787-2.814-4.346-5.675a1.245 1.245 0 112.461.38zm15.874 4.997c-.229 1.488.466 2.355 2.51 2.885 2.034.528 2.965.156 3.366-1.114a1.246 1.246 0 012.375.751c-.848 2.681-3.161 3.605-6.366 2.774-3.197-.829-4.787-2.815-4.346-5.675a1.245 1.245 0 112.461.379zm15.573 4.171c-.229 1.487.466 2.355 2.509 2.885 2.035.527 2.966.156 3.367-1.114a1.245 1.245 0 112.375.75c-.848 2.681-3.161 3.606-6.367 2.774-3.196-.828-4.786-2.814-4.345-5.674a1.244 1.244 0 112.461.379zm-189.878-80.25a2640.513 2640.513 0 01-12.307-6.715 1431.72 1431.72 0 01-9.256-5.154c-6.026 5.427-8.344 13.308-6.94 23.784l6.936-.852a1.246 1.246 0 01.304 2.472l-8.144 1a1.245 1.245 0 01-1.382-1.042c-1.38-8.743-.377-15.998 3.014-21.702l-3.861 3.475a15.163 15.163 0 00-1.394 6.626l.47 28.295c5.908 2.122 12.463 2.743 19.678 1.857 7.203-.884 13.426-2.68 18.673-5.38l-2.273-10.465a1.245 1.245 0 011.234-1.509 7.16 7.16 0 10-2.959-13.632 1.246 1.246 0 01-1.75-.861l-.02-.091-.023-.106zm-13.986-15.909c7.545 1.166 13.935 6.617 16.114 14.182a9.76 9.76 0 011.557-.321 9.651 9.651 0 012.573 19.127l2.167 9.979a1.247 1.247 0 01-.623 1.359c-5.706 3.101-12.501 5.132-20.38 6.099-7.928.974-15.153.211-21.66-2.297a1.245 1.245 0 01-.797-1.141l-.485-29.144c-.114-6.82 3.656-12.855 9.334-15.904a7.965 7.965 0 01-1.884-14.153 6.73 6.73 0 012.46-12.464l4.876-.695a6.4 6.4 0 017.242 5.454 6.776 6.776 0 01-2.228 6.017 7.576 7.576 0 015.187 6.273l.003.023a8.022 8.022 0 01-3.456 7.606zm-6.234 16.766c.22-.082.455-.132.7-.145 1.374-.072 2.55 1.053 2.626 2.512a2.731 2.731 0 01-.545 1.801c.855-.041 1.701-.19 2.539-.446 2.55-.779 4.605-2.425 6.189-4.984-2.745-1.237-5.368-1.452-7.918-.672a10.236 10.236 0 00-3.591 1.934zm-1.46 1.465a13.756 13.756 0 00-1.138 1.586 14.6 14.6 0 001.14.457 2.787 2.787 0 01-.19-.88 2.775 2.775 0 01.187-1.163zm7.508 4.639c-3.568 1.091-7.248.6-10.971-1.432a1.245 1.245 0 01-.51-1.665c1.95-3.767 4.728-6.232 8.296-7.323 3.567-1.09 7.248-.6 10.97 1.432.595.325.821 1.064.51 1.666-1.95 3.767-4.727 6.231-8.295 7.322zm-11.47 10.891a1.245 1.245 0 11.81-2.355c1.543.53 3.34.252 5.448-.912a1.246 1.246 0 011.203 2.181c-2.68 1.479-5.187 1.867-7.46 1.086zM38.409 108.9l30.75 65.416c.204.434.64.713 1.12.716l113.49.725a1.245 1.245 0 001.23-1.481l-12.803-66.306a1.245 1.245 0 00-1.224-1.01l-131.438.165a1.245 1.245 0 00-1.125 1.775zm131.537.552l12.32 63.805-111.187-.711-29.583-62.933 128.45-.161zm-54.169 51.726c3.475 0 7.944-1.377 10.707-3.066 5.233-3.199 7.504-8.562 7.504-15.145 0-4.09-.994-8.375-3.271-11.415-3.321-4.435-8.973-6.796-14.94-6.796-5.927 0-11.039 3.159-14.364 7.544-2.318 3.055-3.847 6.537-3.847 10.667 0 5.483 2.881 10.244 6.715 13.583 3.198 2.786 6.921 4.628 11.496 4.628zm-459.449-43.454a3.424 3.424 0 100 6.849h128.566a3.424 3.424 0 000-6.849h-128.566zm.622 23.659a3.424 3.424 0 000 6.848h49.647a3.424 3.424 0 000-6.848h-49.647zm66.307 0a3.425 3.425 0 100 6.848h24.519a3.424 3.424 0 000-6.848h-24.519zm39.846 0a3.424 3.424 0 000 6.848h18.325a3.424 3.424 0 000-6.848h-18.325z" fill="#fff"/><path d="M-110.836 265.853l-4.683-11.248a31.13 31.13 0 00-16.436-16.63l8.972-68.885c.947-7.272 7.57-12.429 14.853-11.563l21.279 2.528 1.24-6.848 42.91-6.271 12.272 19.823 26.219 3.115a14.63 14.63 0 0111.375 8.016L85.59 335.658H25.379L3.095 265.769l-113.931.084zm-155.478-94.585h34.243a8.56 8.56 0 018.56 8.56 8.56 8.56 0 01-8.56 8.561h-34.243a8.561 8.561 0 010-17.121zM111.135 136.1c0-.158 4.877 1.737 14.631 5.683l-12.02 10.184c-1.741-10.421-2.611-15.71-2.611-15.867zM3.676 264.071L-9.68 213.828a1.245 1.245 0 10-2.406.639L1.27 264.711a1.246 1.246 0 102.407-.64zm-391.014 23.648c.491.007.983.003 1.474-.014l31.533-1.052a2.49 2.49 0 012.289 3.644l-4.414 8.43 10.055 7.169c-2.846 2.982-5.467 5.264-7.862 6.847-1.528 1.009-2.977 1.818-3.98 2.41-4.767 2.815-9.604 4.261-13.056 5.113-4.038.996-8.179 1.394-12.806 1.394-.849 0-3.419-.161-4.244-.248-6.455-.677-13.856-2.496-22.086-7.756-1.512-.967-4.331-3.071-6.901-5.41-.469-.427-1.185-1.134-2.148-2.12l10.035-7.399-3.219-7.9a2.489 2.489 0 012.341-3.43l22.989.322zm580.073-18.231l29.832 1.334a2.49 2.49 0 012.181 3.462l-2.008 4.72a13.123 13.123 0 002.661 14.276l3.651 3.76c-9.145 7.743-19.863 11.614-32.154 11.614-4.348 0-9.566-.772-14.227-2.109-2.532-.726-5.018-1.756-7.047-2.685-2.293-1.051-4.905-2.481-7.735-4.438-.61-.421-1.535-1.125-2.776-2.112a21.663 21.663 0 003.155-16.923l-2.558-11.215a2.49 2.49 0 012.782-3.019l21.201 3.049c1.009.145 2.024.241 3.042.286z" fill="#7B61FF"/></g></svg>