<svg width="183" height="149" viewBox="0 0 183 149" fill="none" xmlns="http://www.w3.org/2000/svg">
<g clip-path="url(#clip0)">
<g clip-path="url(#clip1)">
<path d="M111.068 27.6796L90.4985 24.3322L95.3724 11.2525C96.4497 8.35772 95.0414 7.04173 92.2377 8.32558L67.8792 19.4834L57.7104 5.42816C56.25 3.41088 54.4169 3.69527 53.6337 6.06065L48.1842 22.542L21.5984 19.288C18.5385 18.9139 17.5934 20.595 19.494 23.0278L28.0902 34.0147L9.49151 43.4389C5.99347 45.2104 6.29718 47.1756 10.1666 47.8071L30.7361 51.1544L25.8622 64.2341C24.7849 67.1289 26.1932 68.4449 28.9969 67.161L53.3555 56.0032L63.5247 70.0614C64.9851 72.0786 66.8182 71.7942 67.6014 69.4289L73.0509 52.9475L99.6367 56.2015C102.697 56.5756 103.642 54.8945 101.741 52.4617L93.1473 41.4715L111.743 32.0477C115.241 30.2762 114.937 28.311 111.068 27.6796Z" fill="#171717"/>
<mask id="mask0" mask-type="alpha" maskUnits="userSpaceOnUse" x="-3" y="15" width="275" height="262">
<path d="M133.764 248.323L210.88 276.5L245.647 263.153L271.188 225.584L265.915 180.6L229.664 145.173L202.806 15H16.4436L-3 33.1254L54.6717 168.572L133.764 248.323Z" fill="#C4C4C4"/>
</mask>
<g mask="url(#mask0)">
<path fill-rule="evenodd" clip-rule="evenodd" d="M-98.7718 128.405H-75.6828C-75.3432 128.405 -75.0678 128.129 -75.0678 127.788C-75.0678 127.448 -75.3432 127.172 -75.6828 127.172H-102.933H-114.623L-160.85 254.673C-160.966 254.993 -161.318 255.158 -161.638 255.041C-161.957 254.925 -162.122 254.572 -162.006 254.252L-115.932 127.172H-137.043C-138.114 127.172 -138.982 126.303 -138.982 125.23C-138.982 124.157 -138.114 123.288 -137.043 123.288H-96.5977C-96.664 123.137 -96.671 122.958 -96.5947 122.788L-89.9794 108.071C-89.662 107.365 -89.1728 106.751 -88.5565 106.283L-87.3118 105.34C-85.8822 104.257 -84.0486 103.863 -82.3039 104.263V104.263L-73.2414 82.1628C-72.0712 80.821 -70.8565 80.4125 -69.5974 80.9373C-69.5775 80.9456 -69.5578 80.9541 -69.5381 80.9628C-68.0714 81.6129 -67.4083 83.3312 -68.0571 84.8008C-71.9949 93.7203 -75.0567 100.655 -77.2423 105.606L-65.0861 108.836C-64.7578 108.924 -64.5623 109.261 -64.6493 109.59C-64.7364 109.919 -65.0731 110.115 -65.4014 110.027L-77.7461 106.747C-78.2903 107.98 -78.7727 109.072 -79.193 110.024C-78.2357 110.39 -77.7996 111.837 -77.632 114.389C-77.6091 114.736 -77.8779 115.033 -78.2252 115.045C-81.6702 115.16 -84.5741 115.717 -86.9372 116.711C-88.0895 117.196 -89.0334 117.999 -89.7681 119.13C-89.0166 119.152 -88.331 119.245 -87.6173 119.461C-86.0432 119.939 -84.9046 120.924 -84.433 122.511L-73.1169 122.606H1.72195L15.9547 167.699C16.5628 169.626 16.2242 171.626 15.2003 173.194H37.1437C37.5973 171.776 38.6412 170.89 40.0698 170.457C40.6999 170.266 41.3056 170.179 41.963 170.155C41.3022 169.167 40.4614 168.464 39.4413 168.035C37.283 167.128 34.6297 166.619 31.4812 166.514L24.0414 166.514C23.7018 166.514 23.4265 166.238 23.4263 165.898C23.4265 165.557 23.7018 165.281 24.0414 165.281L31.4915 165.281L31.5119 165.282C34.8053 165.391 37.6071 165.928 39.917 166.899C42.2465 167.878 43.771 169.999 44.4963 173.194H50.7873C50.118 169.943 48.8198 167.875 46.9193 166.937C44.7082 165.845 40.2004 164.066 33.4149 161.608C33.1844 161.525 33.0341 161.317 33.0118 161.088L29.1151 157.721C28.8579 157.499 28.8292 157.11 29.051 156.852C29.2729 156.594 29.6612 156.565 29.9184 156.788L33.7186 160.072C45.5384 162.877 52.0576 164.821 53.5688 166.036C55.8468 167.868 57.3276 170.426 58.0084 173.684C58.0222 173.75 58.0249 173.816 58.018 173.878H68.7763C69.8469 173.878 70.7148 174.748 70.7148 175.821C70.7148 176.893 69.8469 177.763 68.7763 177.763H17.5321L53.7859 254.198C53.9317 254.505 53.8012 254.873 53.4944 255.019C53.1877 255.165 52.8208 255.034 52.675 254.727L16.1704 177.763H-1.19479L26.8308 232.338H18.3927L25.3722 254.275C25.4987 254.673 25.2027 255.078 24.7863 255.078H20.8125C20.8029 255.079 20.7934 255.079 20.7839 255.078H-36.2087C-36.64 255.078 -36.9374 254.645 -36.7829 254.242L-35.816 251.715C-34.7724 248.988 -32.4844 246.93 -29.6664 246.183L-19.1622 243.399L-22.6045 232.338H-36.2089L-55.3076 183.319C-55.0992 183.175 -54.993 182.911 -55.062 182.652L-65.0649 145.157C-65.7145 142.722 -64.3634 140.2 -61.9788 139.397L-37.3933 131.119C-37.0713 131.01 -36.8981 130.661 -37.0063 130.338C-37.1144 130.016 -37.4631 129.842 -37.7851 129.951L-62.3706 138.229C-65.3706 139.239 -67.0704 142.412 -66.2531 145.475L-56.4087 182.376L-61.4093 232.158H-76.4883V254.462C-76.4883 254.803 -76.7636 255.078 -77.1033 255.078H-83.185C-83.5247 255.078 -83.8 254.803 -83.8 254.462V240.875L-94.6134 254.84C-94.7299 254.99 -94.9093 255.078 -95.0993 255.078H-137.984C-138.416 255.078 -138.713 254.645 -138.559 254.242L-137.592 251.715C-136.548 248.988 -134.26 246.93 -131.442 246.183L-120.683 243.331L-118.326 232.158H-135.679L-115.474 174.008L-115.407 174.009L-98.7718 128.405ZM48.0998 95.0411L29.2718 94.5905L5.23396 41.0028C4.29416 38.9077 5.22742 36.4459 7.31847 35.5043C7.84917 35.2653 8.42409 35.1408 9.00594 35.1388L90.1762 34.8605C92.2049 34.8536 93.9413 36.3168 94.2823 38.3206L103.644 93.3344C115.025 96.1972 123.453 106.517 123.453 118.809C123.453 133.314 111.717 145.073 97.2406 145.073C82.7637 145.073 71.0279 133.314 71.0279 118.809C71.0279 113.451 72.6289 108.469 75.3779 104.314L74.1176 105.539C73.6711 105.972 73.1631 106.337 72.6099 106.622C69.9907 107.97 67.7038 108.324 65.7656 107.64C64.1321 107.064 63.1094 106.091 62.7505 104.769C61.574 105.777 60.1242 106.102 58.4532 105.722C56.6375 105.31 55.4958 104.262 55.0911 102.65C53.7376 103.525 52.3463 103.725 50.9587 103.215C48.3858 102.27 46.9468 99.5249 47.6305 96.866L48.0998 95.0411ZM-186.163 99.1868L-183.654 35.0509C-183.567 32.819 -181.736 31.0547 -179.506 31.0547H-86.7556C-86.3514 31.0547 -85.9493 31.1138 -85.5622 31.2303C-83.3664 31.8907 -82.1208 34.2095 -82.7799 36.4095L-99.8559 93.4069C-100.754 96.4036 -103.507 98.4556 -106.629 98.4556H-145.97C-145.987 98.4556 -146.004 98.4557 -146.021 98.4559C-145.914 98.5236 -145.807 98.5958 -145.701 98.6725C-145.404 98.8886 -145.138 99.1182 -144.904 99.3617C-143.582 100.737 -143.414 102.857 -144.501 104.425L-152.021 115.265C-152.037 115.288 -152.054 115.31 -152.073 115.331L-154.137 117.58C-155.498 119.065 -157.472 119.769 -159.424 119.526L-163.088 122.72C-163.007 123.562 -162.965 124.416 -162.965 125.279C-162.965 139.784 -174.701 151.543 -189.178 151.543C-203.655 151.543 -215.391 139.784 -215.391 125.279C-215.391 110.774 -203.655 99.0149 -189.178 99.0149C-188.158 99.0149 -187.152 99.0732 -186.163 99.1868ZM17.1018 232.338H-21.3162L-17.8483 243.481H1.52776C1.86739 243.481 2.14272 243.757 2.14272 244.097C2.14272 244.437 1.86739 244.713 1.52776 244.713H-19.1437C-19.1857 244.713 -19.2267 244.709 -19.2664 244.701L-29.3519 247.374C-31.7877 248.02 -33.7655 249.799 -34.6676 252.156L-35.3143 253.846H19.9348L14.9046 239.277C14.7935 238.955 14.9637 238.604 15.2847 238.493C15.6057 238.382 15.9559 238.552 16.0669 238.874L21.2362 253.846H23.9448L17.1018 232.338ZM-77.7182 232.158H-117.069L-119.558 243.957C-119.606 244.185 -119.778 244.366 -120.002 244.425L-131.128 247.374C-133.563 248.02 -135.541 249.799 -136.443 252.156L-137.09 253.846H-95.4005L-83.6709 238.698C-83.3118 238.234 -82.5701 238.488 -82.5701 239.075V253.846H-77.7182V232.158ZM-164.987 113.584L-165.07 113.656C-165.143 113.533 -165.216 113.411 -165.291 113.289L-164.987 113.584ZM42.6282 171.382C41.8077 171.367 41.1195 171.426 40.4257 171.637C39.503 171.916 38.835 172.411 38.4636 173.194H43.2324C43.0681 172.53 42.8667 171.926 42.6282 171.382ZM52.0415 173.194H56.6312C55.9497 170.564 54.673 168.504 52.7989 166.997C51.8305 166.218 47.9059 164.926 41.1482 163.175C44.0337 164.292 46.1373 165.177 47.4629 165.831C49.8025 166.986 51.3191 169.46 52.0415 173.194ZM-82.7791 105.422C-84.1012 105.176 -85.4822 105.499 -86.5698 106.323L-87.8145 107.266C-88.2664 107.609 -88.6252 108.06 -88.858 108.577L-95.0812 122.422L-92.383 122.444C-91.599 118.952 -89.9444 116.64 -87.4134 115.575C-87.2284 115.497 -87.0405 115.422 -86.8498 115.349L-82.7791 105.422ZM-80.9484 114C-80.2899 113.928 -79.6101 113.875 -78.9091 113.84C-78.9894 112.989 -79.1088 112.323 -79.2636 111.849C-79.3487 111.588 -79.4409 111.397 -79.5319 111.277C-79.5884 111.203 -79.6252 111.177 -79.6459 111.172C-79.6624 111.168 -79.679 111.165 -79.6957 111.163C-80.2584 112.438 -80.676 113.383 -80.9484 114ZM-85.7417 122.5C-86.1402 121.555 -86.9033 120.965 -87.9736 120.641C-88.747 120.406 -89.5124 120.343 -90.428 120.361C-90.7047 120.987 -90.9362 121.685 -91.1225 122.455L-85.7417 122.5ZM-175.555 89.1112C-173.039 91.6 -172.94 94.0395 -175.366 96.102C-175.506 96.221 -175.683 96.2664 -175.852 96.242L-175.347 102.965C-168.995 106.925 -164.458 113.533 -163.272 121.247L-160.244 118.608C-160.13 118.355 -159.855 118.204 -159.571 118.257C-157.914 118.567 -156.201 118.01 -155.042 116.747L-153.007 114.528L-145.511 103.722C-144.758 102.636 -144.875 101.169 -145.79 100.216C-145.972 100.027 -146.183 99.8447 -146.423 99.6703C-147.625 98.7975 -148.936 98.6942 -150.442 99.3707L-155.938 106.678C-156.143 106.95 -156.528 107.005 -156.799 106.8C-157.071 106.595 -157.125 106.209 -156.92 105.937L-151.278 98.434C-150.855 97.0325 -151.198 95.9694 -152.332 95.1134C-153.46 94.2613 -154.554 94.1695 -155.728 94.8193C-155.735 94.8234 -155.743 94.8273 -155.75 94.8311C-155.77 94.886 -155.799 94.9389 -155.836 94.9881L-161.481 102.494C-161.685 102.766 -162.071 102.82 -162.342 102.615C-162.613 102.41 -162.667 102.024 -162.463 101.752L-156.818 94.2465C-156.76 94.1687 -156.686 94.1087 -156.605 94.0675C-156.584 94.0144 -156.555 93.9616 -156.517 93.9105L-148.487 83.1702C-147.849 81.3127 -148.07 80.0613 -149.09 79.2724C-150.193 78.4193 -151.583 78.4705 -153.368 79.5015C-153.384 79.5107 -153.398 79.5227 -153.41 79.537L-167.926 97.191C-168.23 97.5611 -168.821 97.4564 -168.981 97.0042C-169.564 95.3478 -169.992 94.1179 -170.266 93.3136C-170.314 93.1719 -170.363 93.0224 -170.417 92.8511C-170.453 92.7362 -170.485 92.6337 -170.544 92.4442C-171.03 90.8707 -171.286 90.2743 -171.72 89.8883C-172.298 89.3735 -172.924 88.9976 -173.6 88.7571C-174.292 88.511 -175.03 88.6701 -175.555 89.1112ZM-176.216 90.1926C-176.261 90.3876 -176.276 90.5886 -176.262 90.789L-175.947 94.9719C-174.397 93.5278 -174.458 92.0201 -176.216 90.1926ZM-153.031 114.562L-152.979 114.497L-153.007 114.528L-153.031 114.562ZM-150.582 82.5806C-150.344 82.338 -149.955 82.3349 -149.713 82.5735C-149.471 82.8122 -149.467 83.2023 -149.706 83.4449C-150.565 84.3197 -151.643 84.3111 -152.707 83.4814C-153.779 82.6444 -154.041 81.6163 -153.332 80.6422C-153.131 80.3673 -152.747 80.307 -152.472 80.5075C-152.198 80.708 -152.138 81.0935 -152.338 81.3684C-152.616 81.7507 -152.54 82.0492 -151.951 82.5091C-151.352 82.9762 -150.974 82.9793 -150.582 82.5806ZM-189.178 150.31C-175.38 150.31 -164.195 139.103 -164.195 125.279C-164.195 111.454 -175.38 100.247 -189.178 100.247C-202.976 100.247 -214.161 111.454 -214.161 125.279C-214.161 139.103 -202.976 150.31 -189.178 150.31ZM-180.661 123.553C-181.377 123.771 -182.218 123.604 -183.145 123.093C-183.443 122.929 -183.551 122.554 -183.387 122.256C-183.224 121.958 -182.85 121.849 -182.552 122.013C-181.793 122.432 -181.254 122.508 -180.866 122.308L-180.978 121.626C-181.019 121.381 -180.908 121.136 -180.699 121.004L-175.014 117.427L-179.392 116.245C-179.118 117.277 -179.591 118.396 -180.58 118.898C-181.493 119.361 -182.475 119.657 -183.523 119.786C-184.57 119.915 -185.595 119.866 -186.592 119.637C-187.261 119.484 -187.826 119.041 -188.136 118.429C-188.712 117.29 -188.257 115.9 -187.121 115.323C-186.208 114.86 -185.226 114.564 -184.178 114.435C-183.558 114.359 -182.946 114.345 -182.342 114.394C-182.821 113.207 -183.6 112.2 -184.57 111.446L-192.878 115.264L-200.04 116.537C-200.079 116.791 -200.099 117.051 -200.099 117.314V134.923C-196.048 135.859 -192.212 136.167 -188.588 135.849C-185.004 135.535 -181.833 134.664 -179.069 133.236L-180.661 123.553ZM-183.09 115.597C-183.399 115.599 -183.712 115.619 -184.028 115.658C-184.936 115.77 -185.781 116.024 -186.565 116.423C-187.095 116.692 -187.308 117.341 -187.039 117.872C-186.894 118.158 -186.63 118.365 -186.319 118.436C-185.461 118.632 -184.58 118.675 -183.672 118.563C-182.765 118.451 -181.92 118.197 -181.136 117.798C-180.605 117.529 -180.393 116.88 -180.662 116.349C-180.714 116.245 -180.783 116.152 -180.864 116.071C-180.853 116.122 -180.846 116.175 -180.841 116.228C-180.778 116.949 -181.276 117.581 -181.952 117.64C-182.629 117.699 -183.228 117.163 -183.291 116.443C-183.319 116.132 -183.241 115.837 -183.09 115.597ZM-180.984 114.539L-173.335 116.604C-172.817 116.744 -172.713 117.435 -173.168 117.721L-179.698 121.83L-177.783 133.474C-177.741 133.733 -177.867 133.991 -178.097 134.116C-181.105 135.748 -184.567 136.734 -188.481 137.077C-192.382 137.419 -196.508 137.062 -200.859 136.01C-201.135 135.943 -201.329 135.695 -201.329 135.411V117.314C-201.329 114.73 -199.758 112.406 -197.363 111.448L-192.022 109.311C-191.462 109.088 -190.88 108.925 -190.286 108.827C-186.172 108.148 -182.222 110.618 -180.984 114.539ZM-188.567 126.054C-190.891 127.292 -193.777 126.408 -195.013 124.08C-196.248 121.751 -195.366 118.86 -193.042 117.622C-192.742 117.462 -192.37 117.576 -192.21 117.876C-192.051 118.177 -192.165 118.55 -192.465 118.71C-194.189 119.628 -194.843 121.773 -193.927 123.501C-193.01 125.229 -190.869 125.885 -189.144 124.966C-188.845 124.806 -188.472 124.92 -188.313 125.221C-188.153 125.521 -188.267 125.894 -188.567 126.054ZM97.2406 143.841C111.038 143.841 122.223 132.634 122.223 118.809C122.223 104.985 111.038 93.7775 97.2406 93.7775C83.443 93.7775 72.2578 104.985 72.2578 118.809C72.2578 132.634 83.443 143.841 97.2406 143.841ZM93.0877 109.774C93.38 110.065 93.5229 110.5 93.4294 110.941C93.2846 111.624 92.6286 112.062 91.9641 111.921C91.4189 111.805 91.0374 111.334 90.9981 110.792C90.7749 110.968 90.5584 111.166 90.3484 111.384C91.5634 112.216 92.8139 112.562 94.1183 112.438C94.965 112.358 95.7429 112.088 96.4567 111.624C96.1309 111.079 95.831 110.47 95.557 109.798C94.9722 109.651 94.3776 109.607 93.7714 109.665C93.5383 109.687 93.3105 109.723 93.0877 109.774ZM106.511 121.179L105.919 127.817C105.893 128.103 105.674 128.333 105.391 128.373C102.096 128.831 98.5325 128.65 94.7024 127.834C90.8557 127.015 87.9691 125.857 86.0395 124.343C85.8632 124.204 85.7759 123.981 85.8116 123.759L86.764 117.859C86.7603 117.774 86.7745 117.691 86.8034 117.615L87.1166 115.675L82.534 114.699C82.0947 114.605 81.9004 114.087 82.1696 113.727L86.73 107.627C89.7495 103.588 94.9652 101.869 99.7881 103.322L103.567 104.462C106.082 105.22 107.719 107.645 107.485 110.266L107.162 113.882L118.594 117.409C118.658 117.429 118.721 117.453 118.782 117.481C119.554 117.835 119.893 118.749 119.54 119.523L116.83 125.452C116.805 125.507 116.777 125.56 116.746 125.611C116.305 126.338 115.359 126.569 114.633 126.127L106.511 121.179ZM94.0973 104.28C91.6014 104.811 89.3144 106.225 87.7144 108.366L83.7309 113.694L87.945 114.592C88.2657 114.66 88.4765 114.968 88.4242 115.293L88.2915 116.115C89.139 116.248 89.7995 116.366 90.2751 116.467C90.5767 116.531 90.8088 116.59 90.978 116.646C91.083 116.681 91.1702 116.716 91.2467 116.759C91.4364 116.865 91.5732 116.996 91.6154 117.257C91.6652 117.565 91.5213 117.775 91.3226 117.908C91.2483 117.958 91.1719 117.992 91.0836 118.021C90.9723 118.058 90.8332 118.089 90.6584 118.12C90.3784 118.168 90.0006 118.216 89.5279 118.264C89.4152 118.275 89.2974 118.286 89.1741 118.298C88.9077 118.323 88.3371 118.371 87.9218 118.405L87.085 123.589C88.8481 124.868 91.4734 125.887 94.9582 126.629C98.4654 127.376 101.725 127.57 104.738 127.214L105.826 115.022C105.262 114.012 104.263 113.234 103.019 112.969C101.473 112.64 99.9521 113.189 99.0055 114.272C98.2422 113.732 97.6276 113.187 97.1617 112.635C96.2761 113.219 95.2985 113.564 94.2342 113.665C92.411 113.838 90.677 113.261 89.0593 111.958C88.7933 111.744 88.7523 111.354 88.968 111.089C90.2576 109.504 91.8288 108.611 93.6555 108.438C94.1336 108.393 94.6057 108.399 95.071 108.456C94.6777 107.232 94.3531 105.84 94.0973 104.28ZM62.7002 103.008C62.7022 102.963 62.7091 102.919 62.7212 102.874L66.5885 88.6108C66.5562 88.545 66.5349 88.4711 66.5278 88.3901C66.3663 86.5634 65.5752 85.4725 64.1082 85.0007C62.5404 84.4964 61.3173 84.9698 60.2938 86.5037C60.2275 86.6031 60.1421 86.6742 60.0481 86.719L56.2654 101.206C56.2435 101.29 56.2053 101.366 56.1552 101.43C56.1589 101.453 56.1615 101.477 56.1627 101.502C56.2476 103.179 57.0646 104.143 58.7252 104.521C60.3936 104.9 61.6816 104.411 62.7002 103.008ZM63.8462 103.346C63.8459 103.352 63.8456 103.358 63.8452 103.364C63.7438 104.878 64.4771 105.879 66.1742 106.478C67.7516 107.034 69.704 106.732 72.048 105.526C72.4932 105.297 72.9022 105.003 73.2615 104.654L76.3987 101.606L73.4597 100.602C73.1835 100.507 73.0116 100.231 73.0481 99.9413L74.1285 91.3569C74.1187 89.0167 73.3597 87.7286 71.8509 87.3137C70.4813 86.9372 69.1842 87.3019 67.905 88.456L63.9081 103.197C63.8936 103.25 63.8727 103.3 63.8462 103.346ZM55.0618 101.139C55.0502 101.06 55.054 100.977 55.0756 100.895L58.9905 85.9006C59.0034 85.8513 59.0218 85.805 59.045 85.7622C58.5796 84.2234 57.6374 83.2596 56.1845 82.8126C55.595 82.6313 55.0488 82.5583 54.5442 82.5901C53.3485 82.6655 52.337 83.5031 52.0381 84.6655L48.8215 97.1735C48.2955 99.2191 49.4026 101.331 51.3821 102.058C52.5872 102.501 53.7905 102.213 55.0618 101.139ZM53.3849 87.1348C53.2717 87.8708 53.6147 88.3001 54.6241 88.5624C55.6289 88.8234 56.0886 88.6394 56.2868 88.011C56.3892 87.6865 56.7347 87.5066 57.0585 87.6092C57.3824 87.7117 57.5619 88.0579 57.4596 88.3824C57.041 89.7092 55.8985 90.1666 54.3154 89.7552C52.737 89.3451 51.9516 88.3624 52.1693 86.9471C52.221 86.6108 52.5351 86.3801 52.8708 86.432C53.2064 86.4838 53.4366 86.7985 53.3849 87.1348ZM61.2245 89.6078C61.1113 90.3439 61.4544 90.7731 62.4638 91.0354C63.4686 91.2965 63.9283 91.1125 64.1265 90.4841C64.2288 90.1596 64.5743 89.9797 64.8982 90.0822C65.222 90.1848 65.4016 90.531 65.2992 90.8554C64.8807 92.1822 63.7381 92.6396 62.1551 92.2283C60.5766 91.8182 59.7913 90.8355 60.0089 89.4201C60.0607 89.0838 60.3747 88.8532 60.7104 88.905C61.0461 88.9568 61.2762 89.2715 61.2245 89.6078ZM68.9154 91.6715C68.8022 92.4075 69.1453 92.8368 70.1547 93.0991C71.1595 93.3601 71.6192 93.1761 71.8174 92.5477C71.9197 92.2232 72.2652 92.0433 72.5891 92.1459C72.9129 92.2484 73.0925 92.5946 72.9901 92.9191C72.5716 94.2459 71.429 94.7033 69.846 94.2919C68.2675 93.8818 67.4821 92.8991 67.6999 91.4838C67.7516 91.1475 68.0656 90.9168 68.4013 90.9687C68.737 91.0205 68.9671 91.3351 68.9154 91.6715ZM-24.8594 51.9611C-27.5773 50.4822 -29.6034 49.3746 -30.9377 48.6383C-32.2014 47.941 -33.7251 47.0909 -35.5087 46.088C-38.4846 48.7738 -39.6297 52.6732 -38.936 57.8572L-35.5107 57.4358C-35.1736 57.3944 -34.8668 57.6346 -34.8254 57.9723C-34.784 58.3101 -35.0237 58.6175 -35.3608 58.659L-39.3826 59.1538C-39.7116 59.1942 -40.0134 58.9662 -40.065 58.6382C-40.7465 54.3118 -40.2516 50.7215 -38.5767 47.8992L-40.4836 49.6188C-40.9437 50.617 -41.1914 51.7303 -41.172 52.8976L-40.9395 66.8987C-38.0219 67.9486 -34.7849 68.2563 -31.2216 67.8179C-27.6641 67.3802 -24.5909 66.4916 -21.9997 65.1554L-23.122 59.9773C-23.2059 59.5899 -22.9082 59.225 -22.5126 59.2304C-22.3517 59.2326 -22.19 59.2238 -22.028 59.2039C-20.0896 58.9655 -18.7113 57.1977 -18.9492 55.2556C-19.1873 53.3135 -20.9515 51.9324 -22.8899 52.1709C-23.2706 52.2177 -23.635 52.324 -23.9739 52.4849C-24.3317 52.6547 -24.7541 52.4464 -24.8381 52.0588L-24.8479 52.0138C-24.8517 51.9962 -24.8555 51.9787 -24.8594 51.9611ZM-31.7668 44.089C-28.0404 44.6662 -24.8849 47.3631 -23.8084 51.1069C-23.5588 51.0334 -23.3019 50.98 -23.0397 50.9477C-20.4272 50.6263 -18.0493 52.4878 -17.7285 55.1054C-17.4122 57.6865 -19.2141 60.039 -21.7691 60.4124L-20.6988 65.3507C-20.6408 65.6182 -20.766 65.892 -21.0061 66.0228C-23.8242 67.5575 -27.1803 68.5623 -31.0717 69.041C-34.9868 69.5227 -38.5551 69.1453 -41.7685 67.9044C-42.0023 67.8141 -42.1581 67.5907 -42.1623 67.3397L-42.4017 52.9181C-42.4578 49.5437 -40.5959 46.5573 -37.7919 45.0487C-39.6262 44.428 -40.7669 42.5298 -40.3909 40.5716C-40.1882 39.5157 -39.5727 38.6179 -38.7224 38.045C-39.8793 37.3634 -40.5538 36.0142 -40.3133 34.6104C-40.0692 33.1857 -38.9355 32.0816 -37.5073 31.8776L-35.0993 31.5336C-33.3712 31.2867 -31.7706 32.4902 -31.5242 34.2216C-31.5237 34.2253 -31.5231 34.2289 -31.5226 34.2325C-31.3625 35.386 -31.8087 36.4887 -32.623 37.2101C-31.2839 37.6446 -30.247 38.8218 -30.0613 40.3137C-30.0608 40.3177 -30.0603 40.3216 -30.0599 40.3255C-29.8755 41.8467 -30.5768 43.2783 -31.7668 44.089ZM-34.8456 52.3856C-34.7368 52.3449 -34.6206 52.3201 -34.4994 52.3137C-33.821 52.2781 -33.2405 52.8346 -33.2027 53.5568C-33.1852 53.893 -33.2883 54.2058 -33.472 54.4477C-33.0496 54.4276 -32.6319 54.354 -32.2182 54.2273C-30.9587 53.8415 -29.9439 53.0273 -29.1618 51.7608C-30.517 51.1489 -31.8127 51.0426 -33.0722 51.4284C-33.7294 51.6297 -34.32 51.9476 -34.8456 52.3856ZM-35.567 53.1105C-35.766 53.3494 -35.9531 53.6108 -36.1286 53.8949C-35.9396 53.9802 -35.7518 54.0556 -35.5652 54.1213C-35.6183 53.9864 -35.6511 53.8399 -35.6592 53.6858C-35.6699 53.4819 -35.6361 53.2866 -35.567 53.1105ZM-31.8586 55.4057C-33.6207 55.9455 -35.4382 55.7029 -37.277 54.6973C-37.5705 54.5367 -37.6822 54.1707 -37.5285 53.8731C-36.5653 52.0092 -35.1939 50.7897 -33.4318 50.2499C-31.6697 49.7101 -29.8521 49.9528 -28.0134 50.9584C-27.7199 51.1189 -27.6082 51.485 -27.7619 51.7825C-28.7251 53.6464 -30.0964 54.866 -31.8586 55.4057ZM-37.5229 60.7951C-37.8441 60.6845 -38.0151 60.334 -37.9047 60.0122C-37.7943 59.6903 -37.4445 59.5191 -37.1233 59.6297C-36.3614 59.892 -35.4741 59.7544 -34.4326 59.1785C-34.1353 59.0141 -33.7612 59.1223 -33.5971 59.4203C-33.433 59.7182 -33.541 60.093 -33.8384 60.2574C-35.1625 60.9896 -36.4003 61.1816 -37.5229 60.7951ZM18.9683 45.0475L34.155 77.4175C34.2558 77.6323 34.4707 77.77 34.7076 77.7715L90.7572 78.1306C91.1452 78.1331 91.4385 77.7794 91.3649 77.3977L85.0419 44.5871C84.986 44.2969 84.7323 44.0874 84.4373 44.0878L19.524 44.1692C19.0737 44.1698 18.7767 44.6392 18.9683 45.0475ZM83.9307 45.3207L90.0151 76.8935L35.1031 76.5417L20.4928 45.4003L83.9307 45.3207ZM57.178 70.9164C58.8943 70.9164 61.1015 70.235 62.4659 69.3992C65.0502 67.8161 66.1718 65.1622 66.1718 61.9051C66.1718 59.881 65.6812 57.7607 64.5567 56.2563C62.9163 54.0618 60.125 52.8937 57.178 52.8937C54.2508 52.8937 51.7263 54.457 50.0839 56.6264C48.9394 58.1383 48.1842 59.8611 48.1842 61.9051C48.1842 64.6181 49.6071 66.9742 51.5004 68.6262C53.0801 70.0048 54.9186 70.9164 57.178 70.9164ZM-169.73 49.414C-170.664 49.414 -171.421 50.1726 -171.421 51.1084C-171.421 52.0442 -170.664 52.8028 -169.73 52.8028H-106.235C-105.301 52.8028 -104.544 52.0442 -104.544 51.1084C-104.544 50.1726 -105.301 49.414 -106.235 49.414H-169.73ZM-169.422 61.121C-170.356 61.121 -171.113 61.8796 -171.113 62.8155C-171.113 63.7513 -170.356 64.5099 -169.422 64.5099H-144.903C-143.969 64.5099 -143.212 63.7513 -143.212 62.8155C-143.212 61.8796 -143.969 61.121 -144.903 61.121H-169.422ZM-136.676 61.121C-137.609 61.121 -138.367 61.8796 -138.367 62.8155C-138.367 63.7513 -137.609 64.5099 -136.676 64.5099H-124.566C-123.632 64.5099 -122.875 63.7513 -122.875 62.8155C-122.875 61.8796 -123.632 61.121 -124.566 61.121H-136.676ZM-116.997 61.121C-117.931 61.121 -118.688 61.8796 -118.688 62.8155C-118.688 63.7513 -117.931 64.5099 -116.997 64.5099H-107.946C-107.012 64.5099 -106.255 63.7513 -106.255 62.8155C-106.255 61.8796 -107.012 61.121 -107.946 61.121H-116.997Z" fill="white"/>
<path fill-rule="evenodd" clip-rule="evenodd" d="M-54.7401 122.712L-57.0529 117.147C-58.6006 113.422 -61.5293 110.487 -65.1698 108.917L-60.739 74.8311C-60.2712 71.2324 -57.0003 68.681 -53.4036 69.1091L-42.8946 70.3602L-42.2824 66.9714L-21.0907 63.8684L-15.0293 73.6774L-2.08087 75.2188C0.339661 75.507 2.45206 76.9985 3.53708 79.1855L42.2685 157.254H12.5323L1.52716 122.671L-54.7401 122.712ZM-131.526 75.9085H-114.614C-112.279 75.9085 -110.386 77.8051 -110.386 80.1446C-110.386 82.4841 -112.279 84.3807 -114.614 84.3807H-131.526C-133.861 84.3807 -135.754 82.4841 -135.754 80.1446C-135.754 77.8051 -133.861 75.9085 -131.526 75.9085ZM54.8845 58.5064C54.8845 58.4285 57.2932 59.3659 62.1104 61.3186L56.1739 66.358C55.3143 61.2016 54.8845 58.5844 54.8845 58.5064ZM1.81401 121.831L-4.78246 96.9686C-4.86972 96.6397 -5.20654 96.444 -5.53477 96.5314C-5.86301 96.6188 -6.05835 96.9563 -5.9711 97.2852L0.625366 122.147C0.712631 122.476 1.04945 122.672 1.37769 122.585C1.70592 122.497 1.90126 122.16 1.81401 121.831ZM-191.296 133.533C-191.053 133.536 -190.81 133.534 -190.568 133.526L-174.995 133.005C-174.782 132.998 -174.572 133.046 -174.383 133.145C-173.781 133.46 -173.549 134.205 -173.864 134.808L-176.044 138.98L-171.078 142.527C-172.484 144.003 -173.778 145.132 -174.961 145.915C-175.716 146.414 -176.431 146.815 -176.927 147.108C-179.281 148.501 -181.67 149.216 -183.375 149.637C-185.369 150.13 -187.414 150.327 -189.699 150.327C-190.118 150.327 -191.387 150.248 -191.795 150.205C-194.983 149.87 -198.638 148.969 -202.703 146.367C-203.449 145.888 -204.842 144.847 -206.111 143.69C-206.343 143.478 -206.696 143.129 -207.172 142.641L-202.216 138.98L-203.805 135.07C-203.868 134.917 -203.899 134.753 -203.896 134.588C-203.887 133.907 -203.328 133.363 -202.649 133.373L-191.296 133.533ZM95.1845 124.511L109.917 125.171C110.596 125.201 111.122 125.777 111.091 126.457C111.085 126.604 111.052 126.749 110.994 126.884L110.003 129.22C108.982 131.625 109.5 134.409 111.317 136.284L113.12 138.145C108.604 141.976 103.31 143.892 97.2401 143.892C95.0927 143.892 92.5157 143.51 90.2141 142.848C88.9636 142.489 87.7358 141.979 86.7339 141.519C85.6014 141 84.311 140.292 82.9136 139.324C82.6124 139.115 82.1554 138.767 81.5424 138.278C83.1942 135.823 83.7583 132.791 83.1009 129.904L81.8373 124.355C81.6862 123.691 82.1006 123.03 82.7629 122.879C82.91 122.845 83.0621 122.839 83.2115 122.861L93.682 124.37C94.1802 124.442 94.6816 124.489 95.1845 124.511Z" fill="#7B61FF"/>
</g>
</g>
</g>
<defs>
<clipPath id="clip0">
<rect width="183" height="149" fill="white"/>
</clipPath>
<clipPath id="clip1">
<rect width="202" height="165" fill="white"/>
</clipPath>
</defs>
</svg>
