<svg width="183" height="149" fill="none" xmlns="http://www.w3.org/2000/svg"><g clip-path="url(#clip0)"><g clip-path="url(#clip1)"><path d="M111.068 27.68l-20.57-3.348 4.874-13.08c1.078-2.894-.33-4.21-3.134-2.926L67.879 19.483 57.71 5.428c-1.46-2.017-3.293-1.733-4.076.633l-5.45 16.481-26.586-3.254c-3.06-.374-4.005 1.307-2.104 3.74l8.596 10.987-18.598 9.424c-3.499 1.771-3.195 3.737.675 4.368l20.57 3.347-4.875 13.08c-1.077 2.895.331 4.21 3.135 2.927l24.358-11.158 10.17 14.058c1.46 2.018 3.293 1.733 4.076-.632l5.45-16.482 26.586 3.255c3.06.374 4.005-1.307 2.104-3.74l-8.594-10.99 18.596-9.424c3.498-1.772 3.194-3.737-.675-4.368z" fill="#171717"/><mask id="a" maskUnits="userSpaceOnUse" x="-3" y="15" width="275" height="262"><path d="M133.764 248.323L210.88 276.5l34.767-13.347 25.541-37.569-5.273-44.984-36.251-35.427L202.806 15H16.444L-3 33.125l57.672 135.447 79.092 79.751z" fill="#C4C4C4"/></mask><g mask="url(#a)" fill-rule="evenodd" clip-rule="evenodd"><path d="M-98.772 128.405h23.09a.616.616 0 000-1.233h-38.941l-46.227 127.501a.616.616 0 01-1.156-.421l46.074-127.08h-21.111a1.94 1.94 0 01-1.939-1.942 1.94 1.94 0 011.939-1.942h40.445a.611.611 0 01.003-.5l6.616-14.717a4.627 4.627 0 011.422-1.788l1.245-.943a6.053 6.053 0 015.008-1.077l9.063-22.1c1.17-1.342 2.385-1.75 3.644-1.226l.059.026a2.912 2.912 0 011.48 3.838l-9.184 20.805 12.156 3.23a.617.617 0 01-.315 1.191l-12.345-3.28-1.447 3.277c.957.366 1.393 1.813 1.561 4.365a.616.616 0 01-.593.656c-3.445.115-6.35.672-8.712 1.666-1.153.485-2.096 1.288-2.831 2.419a8.03 8.03 0 012.15.331c1.575.478 2.713 1.463 3.185 3.05l11.316.095H1.722l14.233 45.093a6.467 6.467 0 01-.755 5.495h21.944c.453-1.418 1.497-2.304 2.926-2.737a7.272 7.272 0 011.893-.302c-.66-.988-1.502-1.691-2.522-2.12-2.158-.907-4.811-1.416-7.96-1.521h-7.44a.616.616 0 010-1.233h7.45l.02.001c3.294.109 6.096.646 8.406 1.617 2.33.979 3.854 3.1 4.58 6.295h6.29c-.669-3.251-1.967-5.319-3.868-6.257-2.21-1.092-6.719-2.871-13.504-5.329a.616.616 0 01-.403-.52l-3.897-3.367a.617.617 0 01-.064-.869.613.613 0 01.867-.064l3.8 3.284c11.82 2.805 18.34 4.749 19.85 5.964 2.279 1.832 3.76 4.39 4.44 7.648a.618.618 0 01.01.194h10.758c1.07 0 1.939.87 1.939 1.943a1.94 1.94 0 01-1.939 1.942H17.532l36.254 76.435a.615.615 0 11-1.11.529L16.17 177.763H-1.195l28.026 54.575h-8.438l6.98 21.937a.615.615 0 01-.587.803h-3.974a.137.137 0 01-.028 0H-36.21a.616.616 0 01-.574-.836l.967-2.527a9.077 9.077 0 016.15-5.532l10.504-2.784-3.443-11.061H-36.21l-19.099-49.019a.617.617 0 00.246-.667l-10.003-37.495a4.777 4.777 0 013.086-5.76l24.586-8.278a.617.617 0 00-.392-1.168l-24.586 8.278a6.01 6.01 0 00-3.882 7.246l9.844 36.901-5 49.782h-15.08v22.304a.615.615 0 01-.614.616h-6.082a.615.615 0 01-.615-.616v-13.587l-10.813 13.965a.615.615 0 01-.486.238h-42.885a.616.616 0 01-.575-.836l.967-2.527a9.078 9.078 0 016.15-5.532l10.759-2.852 2.357-11.173h-17.353l20.205-58.15.067.001 16.635-45.604zM48.1 95.041l-18.828-.45L5.234 41.003a4.162 4.162 0 012.084-5.499 4.144 4.144 0 011.688-.365l81.17-.279a4.153 4.153 0 014.106 3.46l9.362 55.014c11.381 2.863 19.809 13.183 19.809 25.475 0 14.505-11.736 26.264-26.212 26.264-14.477 0-26.213-11.759-26.213-26.264a26.18 26.18 0 014.35-14.495l-1.26 1.225a6.33 6.33 0 01-1.508 1.083c-2.62 1.348-4.906 1.702-6.844 1.018-1.634-.576-2.657-1.549-3.016-2.871-1.176 1.008-2.626 1.333-4.297.953-1.816-.412-2.957-1.46-3.362-3.072-1.353.875-2.745 1.075-4.132.565a5.345 5.345 0 01-3.329-6.349l.47-1.825zm-234.263 4.146l2.509-64.136a4.154 4.154 0 014.148-3.996h92.75c.405 0 .807.059 1.194.175a4.16 4.16 0 012.782 5.18l-17.076 56.997a7.074 7.074 0 01-6.773 5.049h-39.392a6.212 6.212 0 011.117.906 4.012 4.012 0 01.403 5.063l-7.52 10.84a.655.655 0 01-.052.066l-2.064 2.249a6.137 6.137 0 01-5.287 1.946l-3.664 3.194c.081.842.123 1.696.123 2.559 0 14.505-11.736 26.264-26.213 26.264s-26.213-11.759-26.213-26.264c0-14.505 11.736-26.264 26.213-26.264 1.02 0 2.026.058 3.015.172zM17.102 232.338h-38.418l3.468 11.143H1.528a.616.616 0 010 1.232h-20.672a.62.62 0 01-.122-.012l-10.086 2.673a7.847 7.847 0 00-5.316 4.782l-.646 1.69h55.249l-5.03-14.569a.615.615 0 111.162-.403l5.17 14.972h2.708l-6.843-21.508zm-94.82-.18h-39.351l-2.489 11.799a.614.614 0 01-.444.468l-11.126 2.949a7.848 7.848 0 00-5.315 4.782l-.647 1.69h41.69l11.73-15.148c.358-.464 1.1-.21 1.1.377v14.771h4.852v-21.688zm-87.269-118.574l-.083.072a27.444 27.444 0 00-.221-.367l.304.295zm207.615 57.798c-.82-.015-1.508.044-2.202.255-.923.279-1.591.774-1.962 1.557h4.768a11.23 11.23 0 00-.604-1.812zm9.413 1.812h4.59c-.681-2.63-1.958-4.69-3.832-6.197-.968-.779-4.893-2.071-11.65-3.822 2.885 1.117 4.988 2.002 6.314 2.656 2.34 1.155 3.856 3.629 4.578 7.363zm-134.82-67.772a4.826 4.826 0 00-3.79.901l-1.245.943a3.4 3.4 0 00-1.044 1.311l-6.223 13.845 2.698.022c.784-3.492 2.439-5.804 4.97-6.869.185-.078.373-.153.563-.226l4.07-9.927zm1.83 8.578a34.687 34.687 0 012.04-.16c-.08-.851-.2-1.517-.355-1.991-.085-.261-.177-.452-.268-.572-.056-.074-.093-.1-.114-.105a.426.426 0 00-.05-.009L-80.948 114zm-4.793 8.5c-.398-.945-1.161-1.535-2.232-1.859-.773-.235-1.538-.298-2.454-.28a12.38 12.38 0 00-.695 2.094l5.381.045zm-89.813-33.389c2.516 2.489 2.615 4.928.189 6.991a.612.612 0 01-.486.14l.505 6.723c6.352 3.96 10.889 10.568 12.075 18.282l3.028-2.639a.614.614 0 01.673-.351 4.914 4.914 0 004.529-1.51l2.035-2.219 7.496-10.806a2.778 2.778 0 00-.279-3.506 4.763 4.763 0 00-.633-.546c-1.202-.873-2.513-.976-4.019-.3l-5.496 7.308a.616.616 0 11-.982-.741l5.642-7.503c.423-1.401.08-2.465-1.054-3.32-1.128-.853-2.222-.945-3.396-.295l-.022.012a.608.608 0 01-.086.157l-5.645 7.506a.613.613 0 01-.861.121.618.618 0 01-.121-.863l5.645-7.505a.61.61 0 01.213-.18.686.686 0 01.088-.156l8.03-10.74c.638-1.858.417-3.11-.603-3.899-1.103-.853-2.493-.802-4.278.23a.157.157 0 00-.042.035l-14.516 17.654a.615.615 0 01-1.055-.187 424.49 424.49 0 01-1.285-3.69 22.605 22.605 0 01-.151-.463l-.127-.407c-.486-1.573-.742-2.17-1.176-2.556a5.67 5.67 0 00-1.88-1.13 1.996 1.996 0 00-1.955.353zm-.661 1.082c-.045.195-.06.396-.046.596l.315 4.183c1.55-1.444 1.489-2.952-.269-4.78zm23.185 24.369l.052-.065-.028.031-.024.034zm2.449-31.981a.616.616 0 01.876.864c-.859.875-1.937.866-3.001.036-1.072-.837-1.334-1.865-.625-2.839a.615.615 0 11.994.726c-.278.383-.202.681.387 1.141.599.467.977.47 1.369.072zm-38.596 67.729c13.798 0 24.983-11.207 24.983-25.031 0-13.825-11.185-25.032-24.983-25.032s-24.983 11.207-24.983 25.032c0 13.824 11.185 25.031 24.983 25.031zm8.517-26.757c-.716.218-1.557.051-2.484-.46a.616.616 0 01.593-1.08c.759.419 1.298.495 1.686.295l-.112-.682a.616.616 0 01.279-.622l5.685-3.577-4.378-1.182a2.314 2.314 0 01-1.188 2.653 8.847 8.847 0 01-2.943.888 8.809 8.809 0 01-3.069-.149 2.313 2.313 0 01-.529-4.314 8.847 8.847 0 012.943-.888 9.044 9.044 0 011.836-.041 7.094 7.094 0 00-2.228-2.948l-8.308 3.818-7.162 1.273a5.122 5.122 0 00-.059.777v17.609c4.051.936 7.887 1.244 11.511.926 3.584-.314 6.755-1.185 9.519-2.613l-1.592-9.683zm-2.429-7.956a8.083 8.083 0 00-.938.061 7.594 7.594 0 00-2.537.765 1.08 1.08 0 00.246 2.013 7.608 7.608 0 002.647.127 7.595 7.595 0 002.536-.765 1.078 1.078 0 00.272-1.727c.011.051.018.104.023.157.063.721-.435 1.353-1.111 1.412-.677.059-1.276-.477-1.339-1.197-.028-.311.05-.606.201-.846zm2.106-1.058l7.649 2.065c.518.14.622.831.167 1.117l-6.53 4.109 1.915 11.644a.618.618 0 01-.314.642c-3.008 1.632-6.47 2.618-10.384 2.961-3.901.342-8.027-.015-12.378-1.067a.616.616 0 01-.47-.599v-18.097a6.316 6.316 0 013.966-5.866l5.341-2.137a8.339 8.339 0 0111.038 5.228zm-7.583 11.515a4.762 4.762 0 01-6.446-1.974 4.78 4.78 0 011.971-6.458.615.615 0 11.577 1.088 3.546 3.546 0 00-1.462 4.791 3.533 3.533 0 004.783 1.465.616.616 0 01.577 1.088zm285.808 17.787c13.797 0 24.982-11.207 24.982-25.032 0-13.824-11.185-25.031-24.982-25.031-13.798 0-24.983 11.207-24.983 25.031 0 13.825 11.185 25.032 24.983 25.032zm-4.153-34.067c.292.291.435.726.341 1.167-.144.683-.8 1.121-1.465.98a1.237 1.237 0 01-.966-1.129c-.223.176-.44.374-.65.592 1.215.832 2.466 1.178 3.77 1.054a5.105 5.105 0 002.339-.814 13.467 13.467 0 01-.9-1.826 5.226 5.226 0 00-1.786-.133c-.233.022-.46.058-.683.109zm13.423 11.405l-.592 6.638a.618.618 0 01-.528.556c-3.295.458-6.859.277-10.689-.539-3.846-.819-6.733-1.977-8.662-3.491a.618.618 0 01-.228-.584l.952-5.9a.612.612 0 01.04-.244l.313-1.94-4.583-.976a.617.617 0 01-.364-.972l4.56-6.1a11.985 11.985 0 0113.058-4.305l3.779 1.14a5.545 5.545 0 013.918 5.804l-.323 3.616 11.432 3.527a1.542 1.542 0 01.946 2.114l-2.71 5.929a1.536 1.536 0 01-2.197.675l-8.122-4.948zM94.097 104.28a10.755 10.755 0 00-6.383 4.086l-3.983 5.328 4.214.898c.32.068.532.376.48.701l-.133.822a39.65 39.65 0 011.983.352c.302.064.534.123.703.179.105.035.192.07.269.113.19.106.326.237.368.498.05.308-.094.518-.292.651a.938.938 0 01-.24.113c-.11.037-.25.068-.425.099-.28.048-.657.096-1.13.144l-.354.034c-.266.025-.837.073-1.252.107l-.837 5.184c1.763 1.279 4.388 2.298 7.873 3.04 3.507.747 6.767.941 9.78.585l1.088-12.192a4.206 4.206 0 00-2.807-2.053c-1.546-.329-3.067.22-4.014 1.303-.763-.54-1.377-1.085-1.843-1.637a6.331 6.331 0 01-2.928 1.03c-1.823.173-3.557-.404-5.175-1.707a.616.616 0 01-.091-.869c1.29-1.585 2.86-2.478 4.688-2.651.478-.045.95-.039 1.415.018-.393-1.224-.718-2.616-.974-4.176zM62.7 103.008a.616.616 0 01.021-.134l3.867-14.263a.621.621 0 01-.06-.22c-.162-1.828-.953-2.919-2.42-3.39-1.568-.505-2.79-.031-3.814 1.503a.61.61 0 01-.246.215l-3.783 14.487a.615.615 0 01-.11.224.649.649 0 01.008.072c.085 1.677.902 2.641 2.562 3.019 1.669.379 2.957-.11 3.975-1.513zm1.146.338v.018c-.102 1.514.631 2.515 2.328 3.114 1.578.556 3.53.254 5.874-.952a5.071 5.071 0 001.213-.872l3.138-3.048-2.94-1.004a.617.617 0 01-.41-.66l1.08-8.585c-.01-2.34-.77-3.628-2.278-4.043-1.37-.377-2.667-.012-3.946 1.142l-3.997 14.741a.633.633 0 01-.062.149zm-8.784-2.207a.61.61 0 01.014-.244l3.914-14.994a.619.619 0 01.055-.139c-.465-1.539-1.408-2.502-2.86-2.95-.59-.18-1.136-.254-1.64-.222a2.769 2.769 0 00-2.507 2.075l-3.216 12.508a4.112 4.112 0 002.56 4.885c1.205.443 2.409.155 3.68-.919zm-1.677-14.004c-.113.736.23 1.165 1.24 1.427 1.004.261 1.464.077 1.662-.551a.615.615 0 111.173.371c-.419 1.327-1.562 1.785-3.145 1.373-1.578-.41-2.363-1.393-2.146-2.808a.615.615 0 111.216.188zm7.84 2.473c-.114.736.23 1.165 1.239 1.427 1.005.261 1.464.078 1.662-.55a.615.615 0 111.173.37c-.418 1.327-1.56 1.785-3.144 1.373-1.578-.41-2.364-1.392-2.146-2.808a.615.615 0 111.215.188zm7.69 2.063c-.113.736.23 1.166 1.24 1.428 1.004.261 1.464.077 1.662-.551a.615.615 0 111.173.371c-.418 1.327-1.561 1.784-3.144 1.373-1.579-.41-2.364-1.393-2.146-2.808a.615.615 0 111.215.188zm-93.774-39.71a1285.878 1285.878 0 01-6.079-3.323 668.297 668.297 0 01-4.57-2.55c-2.977 2.686-4.122 6.585-3.428 11.77l3.425-.422a.615.615 0 01.15 1.223l-4.022.495a.615.615 0 01-.682-.516c-.681-4.326-.187-7.916 1.488-10.739l-1.907 1.72a7.516 7.516 0 00-.688 3.279l.232 14c2.918 1.05 6.155 1.358 9.718.92 3.558-.438 6.631-1.326 9.222-2.663l-1.122-5.178a.616.616 0 01.61-.747 3.542 3.542 0 003.563-3.975 3.538 3.538 0 00-5.025-2.77.615.615 0 01-.864-.426l-.01-.045a9.927 9.927 0 00-.011-.053zm-6.908-7.872a9.865 9.865 0 017.959 7.018 4.768 4.768 0 016.08 3.998 4.774 4.774 0 01-4.041 5.307l1.07 4.939a.617.617 0 01-.307.672c-2.818 1.535-6.174 2.54-10.066 3.018-3.915.482-7.483.104-10.697-1.137a.616.616 0 01-.393-.564l-.24-14.422a8.767 8.767 0 014.61-7.87 3.943 3.943 0 01-.93-7.003 3.333 3.333 0 011.215-6.167l2.408-.344a3.162 3.162 0 013.575 2.688l.001.01a3.356 3.356 0 01-1.1 2.978 3.747 3.747 0 012.562 3.104l.001.011a3.973 3.973 0 01-1.707 3.764zm-3.079 8.297a1.16 1.16 0 01.347-.072c.678-.036 1.259.52 1.296 1.243.018.336-.085.649-.269.89a5.08 5.08 0 001.254-.22c1.26-.385 2.274-1.2 3.056-2.466-1.355-.612-2.65-.718-3.91-.333a5.05 5.05 0 00-1.774.958zm-.721.724c-.199.24-.386.5-.562.785.19.085.377.16.564.226a1.386 1.386 0 01-.002-1.01zm3.708 2.296c-1.762.54-3.58.297-5.418-.709a.617.617 0 01-.252-.824c.964-1.864 2.335-3.083 4.097-3.623 1.762-.54 3.58-.297 5.419.708.293.16.405.527.251.825-.963 1.863-2.334 3.083-4.097 3.623zm-5.664 5.39a.616.616 0 01.4-1.166c.762.262 1.649.124 2.69-.452a.617.617 0 01.594 1.079c-1.324.733-2.561.925-3.684.538zm56.491-15.748l15.187 32.37c.1.214.316.352.553.353l56.05.36a.616.616 0 00.607-.733l-6.323-32.81a.615.615 0 00-.605-.5l-64.913.081c-.45 0-.747.47-.556.879zm64.963.273l6.084 31.573-54.912-.352L20.493 45.4l63.438-.08zM57.178 70.916c1.716 0 3.924-.681 5.288-1.517 2.584-1.583 3.706-4.237 3.706-7.494 0-2.024-.49-4.144-1.615-5.649-1.64-2.194-4.432-3.362-7.379-3.362-2.927 0-5.452 1.563-7.094 3.732-1.145 1.512-1.9 3.235-1.9 5.28 0 2.712 1.423 5.068 3.316 6.72 1.58 1.379 3.419 2.29 5.678 2.29zM-169.73 49.414c-.934 0-1.691.759-1.691 1.694 0 .936.757 1.695 1.691 1.695h63.495c.934 0 1.691-.759 1.691-1.695 0-.935-.757-1.694-1.691-1.694h-63.495zm.308 11.707c-.934 0-1.691.759-1.691 1.694 0 .936.757 1.695 1.691 1.695h24.519c.934 0 1.691-.759 1.691-1.695 0-.935-.757-1.694-1.691-1.694h-24.519zm32.746 0a1.693 1.693 0 000 3.389h12.11c.934 0 1.691-.759 1.691-1.695 0-.935-.757-1.694-1.691-1.694h-12.11zm19.679 0c-.934 0-1.691.759-1.691 1.694 0 .936.757 1.695 1.691 1.695h9.051c.934 0 1.691-.759 1.691-1.695 0-.935-.757-1.694-1.691-1.694h-9.051z" fill="#fff"/><path d="M-54.74 122.712l-2.313-5.565a15.393 15.393 0 00-8.117-8.23l4.431-34.086c.468-3.599 3.739-6.15 7.335-5.722l10.51 1.251.612-3.389 21.191-3.103 6.062 9.81 12.948 1.54a7.227 7.227 0 015.618 3.968l38.731 78.068H12.533L1.527 122.671l-56.267.041zm-76.786-46.803h16.912a4.232 4.232 0 014.228 4.236 4.232 4.232 0 01-4.228 4.236h-16.912a4.232 4.232 0 01-4.228-4.236 4.232 4.232 0 014.228-4.236zm186.41-17.403c0-.078 2.41.86 7.226 2.813l-5.936 5.039c-.86-5.156-1.29-7.774-1.29-7.852zm-53.07 63.325l-6.596-24.862a.615.615 0 10-1.19.316l6.597 24.862a.616.616 0 101.189-.316zm-193.11 11.702c.243.003.486.001.728-.007l15.573-.521a1.233 1.233 0 011.131 1.803l-2.18 4.172 4.966 3.547c-1.406 1.476-2.7 2.605-3.883 3.388-.755.499-1.47.9-1.966 1.193-2.354 1.393-4.743 2.108-6.448 2.529-1.994.493-4.039.69-6.324.69-.419 0-1.688-.079-2.096-.122-3.188-.335-6.843-1.236-10.908-3.838-.746-.479-2.139-1.52-3.408-2.677a29 29 0 01-1.061-1.049l4.956-3.661-1.589-3.91a1.23 1.23 0 011.156-1.697l11.353.16zm286.48-9.022l14.733.66a1.23 1.23 0 011.077 1.713l-.991 2.336a6.502 6.502 0 001.314 7.064l1.803 1.861c-4.516 3.831-9.81 5.747-15.88 5.747-2.147 0-4.724-.382-7.026-1.044-1.25-.359-2.478-.869-3.48-1.329a25.044 25.044 0 01-3.82-2.195 28.616 28.616 0 01-1.372-1.046 10.735 10.735 0 001.559-8.374l-1.264-5.549a1.232 1.232 0 011.374-1.494l10.471 1.509c.498.072 1 .119 1.502.141z" fill="#7B61FF"/></g></g></g><defs><clipPath id="clip0"><path fill="#fff" d="M0 0h183v149H0z"/></clipPath><clipPath id="clip1"><path fill="#fff" d="M0 0h202v165H0z"/></clipPath></defs></svg>