<svg width="433" height="353" viewBox="0 0 433 353" fill="none" xmlns="http://www.w3.org/2000/svg">
<path d="M321.104 86.9923L307.28 129.469L281.225 114.863C275.459 111.633 272.214 114.186 274.009 120.545L289.609 175.797L256.558 192.736C251.814 195.17 251.814 199.146 256.558 201.579L289.615 218.518L274.015 273.77C272.221 280.13 275.465 282.682 281.232 279.452L307.28 264.84L321.104 307.323C323.702 315.313 327.956 315.313 330.56 307.323L344.384 264.846L370.439 279.452C376.206 282.682 379.45 280.13 377.655 273.77L362.055 218.518L395.112 201.579C399.856 199.146 399.856 195.17 395.112 192.736L362.055 175.797L377.655 120.545C379.45 114.186 376.206 111.633 370.439 114.863L344.384 129.469L330.56 86.9923C327.962 79.0024 323.708 79.0024 321.104 86.9923Z" fill="#171717"/>
<mask id="mask0" mask-type="alpha" maskUnits="userSpaceOnUse" x="0" y="81" width="312" height="255">
<path d="M0 246.966L27.1177 326.096L38.8242 335.284L123.141 326.096L167.448 251.56L247.615 240.298L311.483 125.455L279.327 81H68.0164L45.937 180.135L0 246.966Z" fill="#C4C4C4"/>
</mask>
<g mask="url(#mask0)">
<path fill-rule="evenodd" clip-rule="evenodd" d="M251.183 282.969H295.692C296.347 282.969 296.877 282.438 296.877 281.783C296.877 281.128 296.347 280.598 295.692 280.598H243.161H220.626L131.514 525.904C131.291 526.519 130.611 526.837 129.995 526.614C129.38 526.39 129.062 525.71 129.286 525.095L218.103 280.598H177.407C175.343 280.598 173.67 278.925 173.67 276.861C173.67 274.797 175.343 273.124 177.407 273.124H255.374C255.246 272.833 255.233 272.489 255.38 272.163L268.132 243.848C268.744 242.49 269.687 241.307 270.875 240.408L273.275 238.593C276.03 236.509 279.565 235.752 282.928 236.522V236.522L300.398 194.001C302.654 191.42 304.996 190.634 307.423 191.643C307.461 191.659 307.499 191.676 307.537 191.692C310.365 192.943 311.643 196.249 310.392 199.077C302.801 216.237 296.899 229.58 292.686 239.105L316.119 245.32C316.752 245.488 317.129 246.137 316.961 246.77C316.794 247.403 316.144 247.78 315.512 247.612L291.715 241.3C290.665 243.672 289.736 245.774 288.925 247.606C290.771 248.308 291.611 251.092 291.935 256.003C291.979 256.671 291.46 257.243 290.791 257.265C284.15 257.486 278.552 258.558 273.997 260.471C271.775 261.404 269.956 262.948 268.539 265.126C269.988 265.167 271.31 265.346 272.686 265.762C275.72 266.68 277.915 268.576 278.824 271.629L300.638 271.812H444.906L472.343 358.57C473.515 362.277 472.863 366.124 470.889 369.143H513.189C514.064 366.413 516.076 364.709 518.83 363.876C520.045 363.509 521.212 363.342 522.479 363.295C521.206 361.395 519.585 360.042 517.618 359.217C513.458 357.472 508.343 356.492 502.274 356.289H487.932C487.277 356.289 486.746 355.759 486.746 355.104C486.746 354.449 487.277 353.918 487.932 353.918H502.293L502.333 353.919C508.682 354.13 514.083 355.163 518.535 357.031C523.026 358.914 525.965 362.994 527.363 369.143H539.49C538.2 362.887 535.698 358.909 532.034 357.104C527.772 355.004 519.082 351.58 506.001 346.851C505.557 346.69 505.267 346.292 505.224 345.851L497.712 339.372C497.217 338.945 497.161 338.196 497.589 337.7C498.017 337.204 498.765 337.149 499.261 337.577L506.587 343.895C529.372 349.292 541.939 353.032 544.852 355.37C549.244 358.895 552.098 363.817 553.41 370.085C553.437 370.212 553.442 370.338 553.429 370.459H574.168C576.232 370.459 577.905 372.132 577.905 374.196C577.905 376.26 576.232 377.933 574.168 377.933H475.384L545.271 524.99C545.552 525.582 545.3 526.289 544.709 526.57C544.118 526.851 543.41 526.599 543.129 526.008L472.759 377.933H439.284L493.309 482.934H477.043L490.497 525.139C490.741 525.904 490.17 526.685 489.368 526.685H481.707C481.689 526.685 481.671 526.685 481.652 526.685H371.787C370.955 526.685 370.382 525.851 370.68 525.075L372.544 520.214C374.556 514.967 378.966 511.007 384.398 509.57L404.648 504.213L398.012 482.934H371.786L334.969 388.621C335.371 388.345 335.576 387.836 335.443 387.338L316.16 315.199C314.908 310.514 317.513 305.663 322.109 304.118L369.503 288.191C370.124 287.982 370.458 287.31 370.249 286.689C370.041 286.069 369.369 285.735 368.748 285.943L321.354 301.871C315.571 303.814 312.294 309.918 313.87 315.812L332.847 386.808L323.207 482.586H294.139V525.499C294.139 526.154 293.608 526.685 292.954 526.685H281.23C280.575 526.685 280.044 526.154 280.044 525.499V499.357L259.199 526.226C258.975 526.515 258.629 526.685 258.262 526.685H175.592C174.761 526.685 174.187 525.851 174.485 525.075L176.349 520.214C178.361 514.967 182.772 511.007 188.204 509.57L208.944 504.083L213.488 482.586H180.036L218.986 370.708L219.116 370.71L251.183 282.969ZM534.31 218.778L498.015 217.912L451.676 114.811C449.865 110.78 451.664 106.043 455.695 104.232C456.718 103.772 457.826 103.532 458.948 103.529L615.421 102.993C619.332 102.98 622.679 105.795 623.336 109.65L641.382 215.495C663.323 221.003 679.57 240.858 679.57 264.507C679.57 292.415 656.946 315.038 629.039 315.038C601.132 315.038 578.508 292.415 578.508 264.507C578.508 254.199 581.595 244.612 586.894 236.62L584.465 238.975C583.604 239.81 582.624 240.512 581.558 241.06C576.509 243.653 572.101 244.335 568.364 243.019C565.215 241.909 563.244 240.038 562.552 237.494C560.284 239.434 557.489 240.059 554.268 239.329C550.768 238.536 548.567 236.519 547.787 233.418C545.178 235.102 542.496 235.486 539.821 234.505C534.861 232.687 532.087 227.405 533.405 222.29L534.31 218.778ZM82.7184 226.755L87.5538 103.36C87.7221 99.0654 91.2522 95.6709 95.5496 95.6709H274.347C275.126 95.6709 275.901 95.7847 276.647 96.0087C280.88 97.2793 283.281 101.741 282.011 105.973L249.093 215.634C247.362 221.4 242.055 225.348 236.036 225.348H160.199C160.166 225.348 160.132 225.348 160.099 225.348C160.307 225.479 160.512 225.618 160.716 225.765C161.289 226.181 161.802 226.623 162.253 227.091C164.801 229.738 165.126 233.816 163.029 236.833L148.533 257.689C148.503 257.734 148.469 257.776 148.433 257.815L144.455 262.143C141.831 264.999 138.026 266.354 134.263 265.887L127.2 272.033C127.356 273.652 127.436 275.294 127.436 276.955C127.436 304.862 104.813 327.485 76.9057 327.485C48.9984 327.485 26.375 304.862 26.375 276.955C26.375 249.047 48.9984 226.424 76.9057 226.424C78.8715 226.424 80.8111 226.536 82.7184 226.755ZM474.554 482.934H400.495L407.18 504.372H444.532C445.187 504.372 445.717 504.902 445.717 505.557C445.717 506.212 445.187 506.742 444.532 506.742H404.683C404.602 506.742 404.523 506.734 404.447 506.719L385.005 511.862C380.309 513.104 376.497 516.528 374.758 521.063L373.511 524.314H480.015L470.319 496.283C470.105 495.664 470.433 494.989 471.051 494.775C471.67 494.561 472.345 494.889 472.559 495.508L482.524 524.314H487.746L474.554 482.934ZM291.768 482.586H215.912L211.113 505.288C211.021 505.726 210.689 506.074 210.256 506.189L188.81 511.862C184.114 513.104 180.302 516.528 178.563 521.063L177.316 524.314H257.682L280.293 495.169C280.985 494.276 282.415 494.766 282.415 495.896V524.314H291.768V482.586ZM123.539 254.454L123.378 254.593C123.238 254.356 123.097 254.121 122.953 253.887L123.539 254.454ZM523.762 365.655C522.18 365.627 520.854 365.741 519.516 366.145C517.737 366.683 516.45 367.636 515.734 369.143H524.927C524.61 367.865 524.222 366.703 523.762 365.655ZM541.908 369.143H550.756C549.442 364.081 546.981 360.119 543.368 357.219C541.501 355.721 533.936 353.234 520.909 349.866C526.471 352.015 530.526 353.718 533.082 354.977C537.592 357.199 540.516 361.958 541.908 369.143ZM282.012 238.752C279.464 238.277 276.801 238.898 274.705 240.484L272.305 242.299C271.434 242.958 270.743 243.826 270.294 244.822L258.297 271.458L263.499 271.502C265.01 264.782 268.2 260.334 273.079 258.285C273.435 258.135 273.797 257.991 274.165 257.851L282.012 238.752ZM285.541 255.256C286.811 255.117 288.121 255.014 289.472 254.947C289.318 253.309 289.088 252.028 288.789 251.115C288.625 250.614 288.447 250.246 288.272 250.016C288.163 249.873 288.092 249.822 288.052 249.813C288.02 249.805 287.988 249.8 287.956 249.797C286.871 252.249 286.067 254.069 285.541 255.256ZM276.301 271.608C275.533 269.791 274.062 268.656 271.999 268.031C270.508 267.58 269.033 267.458 267.267 267.492C266.734 268.697 266.288 270.04 265.929 271.522L276.301 271.608ZM103.167 207.37C108.017 212.158 108.207 216.852 103.531 220.82C103.262 221.049 102.919 221.136 102.594 221.089L103.569 234.023C115.813 241.643 124.558 254.355 126.845 269.199L132.682 264.121C132.902 263.635 133.432 263.343 133.979 263.445C137.174 264.041 140.476 262.97 142.709 260.539L146.633 256.27L161.082 235.48C162.534 233.391 162.309 230.568 160.545 228.736C160.194 228.371 159.787 228.02 159.325 227.685C157.008 226.006 154.481 225.807 151.577 227.108L140.982 241.168C140.588 241.691 139.845 241.796 139.322 241.402C138.799 241.008 138.695 240.264 139.089 239.742L149.967 225.306C150.781 222.61 150.12 220.565 147.935 218.918C145.759 217.278 143.651 217.101 141.388 218.352C141.374 218.36 141.36 218.367 141.345 218.374C141.306 218.48 141.251 218.582 141.18 218.677L130.298 233.117C129.904 233.64 129.161 233.744 128.638 233.35C128.115 232.956 128.01 232.213 128.405 231.69L139.286 217.25C139.399 217.1 139.54 216.985 139.697 216.905C139.737 216.803 139.792 216.702 139.866 216.603L155.345 195.939C156.577 192.366 156.151 189.958 154.184 188.44C152.057 186.799 149.379 186.897 145.937 188.881C145.906 188.899 145.879 188.922 145.856 188.949L117.873 222.915C117.286 223.627 116.147 223.425 115.84 222.555C114.716 219.369 113.89 217.002 113.363 215.455C113.27 215.182 113.176 214.895 113.071 214.565C113.001 214.344 112.94 214.147 112.827 213.782C111.889 210.755 111.396 209.607 110.56 208.865C109.446 207.874 108.239 207.151 106.935 206.688C105.601 206.215 104.179 206.521 103.167 207.37ZM101.893 209.45C101.806 209.825 101.776 210.212 101.804 210.598L102.41 218.645C105.399 215.867 105.281 212.966 101.893 209.45ZM146.587 256.336L146.687 256.211L146.633 256.27L146.587 256.336ZM151.307 194.805C151.766 194.338 152.517 194.332 152.983 194.791C153.45 195.251 153.456 196.001 152.997 196.468C151.341 198.151 149.262 198.134 147.212 196.538C145.144 194.928 144.64 192.95 146.007 191.076C146.393 190.547 147.135 190.431 147.664 190.816C148.193 191.202 148.309 191.944 147.923 192.473C147.386 193.208 147.533 193.783 148.669 194.667C149.823 195.566 150.552 195.572 151.307 194.805ZM76.9057 325.114C103.504 325.114 125.066 303.553 125.066 276.955C125.066 250.357 103.504 228.795 76.9057 228.795C50.3078 228.795 28.7459 250.357 28.7459 276.955C28.7459 303.553 50.3078 325.114 76.9057 325.114ZM93.3232 273.635C91.9444 274.054 90.3225 273.733 88.5348 272.749C87.9613 272.434 87.7523 271.713 88.0681 271.139C88.3838 270.566 89.1047 270.357 89.6783 270.672C91.1413 271.478 92.1812 271.625 92.9285 271.24L92.7121 269.927C92.6345 269.455 92.8471 268.984 93.2514 268.73L104.21 261.849L95.7701 259.574C96.2976 261.56 95.3868 263.712 93.4804 264.678C91.7205 265.569 89.8275 266.139 87.8076 266.387C85.7877 266.635 83.8131 266.54 81.8898 266.101C80.6015 265.806 79.5109 264.954 78.9138 263.776C77.8043 261.585 78.6805 258.91 80.8707 257.801C82.6306 256.91 84.5236 256.339 86.5435 256.091C87.7395 255.945 88.9198 255.918 90.0828 256.012C89.1609 253.729 87.6586 251.791 85.7884 250.34L69.7725 257.688L55.9663 260.136C55.8909 260.625 55.852 261.124 55.852 261.63V295.51C63.6616 297.31 71.0577 297.903 78.0429 297.292C84.9508 296.688 91.0648 295.011 96.393 292.265L93.3232 273.635ZM88.6422 258.328C88.045 258.331 87.4418 258.37 86.8324 258.445C85.0828 258.66 83.4547 259.15 81.9421 259.916C80.92 260.434 80.5111 261.682 81.0288 262.704C81.3075 263.254 81.8165 263.652 82.4176 263.789C84.0707 264.167 85.7691 264.249 87.5187 264.034C89.2683 263.819 90.8963 263.329 92.409 262.562C93.4311 262.045 93.84 260.796 93.3223 259.774C93.2209 259.574 93.0891 259.394 92.9334 259.24C92.9534 259.338 92.968 259.439 92.977 259.542C93.0983 260.928 92.1391 262.144 90.8347 262.258C89.5302 262.372 88.3745 261.341 88.2532 259.955C88.2008 259.356 88.3502 258.789 88.6422 258.328ZM92.701 256.292L107.447 260.265C108.445 260.534 108.645 261.864 107.769 262.414L95.1796 270.319L98.8712 292.722C98.9533 293.22 98.7104 293.716 98.266 293.957C92.4686 297.097 85.7934 298.994 78.2495 299.654C70.7291 300.312 62.7744 299.626 54.3882 297.6C53.856 297.472 53.4811 296.996 53.4811 296.448V261.63C53.4811 256.658 56.5095 252.188 61.1266 250.345L71.4235 246.234C72.502 245.803 73.6239 245.491 74.7696 245.302C82.6999 243.995 90.3149 248.747 92.701 256.292ZM78.0833 278.446C73.6032 280.829 68.0402 279.128 65.6581 274.648C63.276 270.168 64.9767 264.605 69.4569 262.222C70.035 261.915 70.7527 262.135 71.0601 262.713C71.3675 263.291 71.148 264.008 70.57 264.316C67.246 266.083 65.9841 270.211 67.7515 273.535C69.5189 276.859 73.6463 278.12 76.9702 276.353C77.5483 276.046 78.2661 276.265 78.5735 276.843C78.8809 277.421 78.6614 278.139 78.0833 278.446ZM629.039 312.667C655.637 312.667 677.199 291.105 677.199 264.507C677.199 237.909 655.637 216.347 629.039 216.347C602.441 216.347 580.879 237.909 580.879 264.507C580.879 291.105 602.441 312.667 629.039 312.667ZM621.034 247.125C621.597 247.684 621.872 248.521 621.692 249.37C621.413 250.683 620.148 251.527 618.868 251.254C617.816 251.031 617.081 250.125 617.005 249.082C616.575 249.422 616.158 249.802 615.753 250.222C618.095 251.822 620.506 252.488 623.02 252.25C624.652 252.096 626.152 251.577 627.528 250.684C626.9 249.635 626.322 248.464 625.794 247.171C624.666 246.888 623.52 246.804 622.351 246.914C621.902 246.957 621.463 247.027 621.034 247.125ZM646.91 269.067L645.768 281.839C645.719 282.389 645.296 282.832 644.75 282.907C638.398 283.788 631.529 283.441 624.146 281.872C616.731 280.295 611.166 278.068 607.447 275.154C607.107 274.888 606.938 274.458 607.007 274.032L608.843 262.68C608.836 262.515 608.863 262.356 608.919 262.209L609.523 258.477L600.689 256.6C599.842 256.42 599.468 255.422 599.987 254.729L608.778 242.993C614.598 235.222 624.653 231.914 633.95 234.711L641.235 236.903C646.083 238.362 649.239 243.027 648.788 248.07L648.165 255.027L670.203 261.814C670.327 261.852 670.447 261.898 670.565 261.952C672.053 262.633 672.707 264.392 672.026 265.88L666.802 277.289C666.754 277.394 666.7 277.496 666.64 277.595C665.789 278.993 663.966 279.438 662.568 278.587L646.91 269.067ZM622.98 236.554C618.168 237.575 613.76 240.297 610.675 244.414L602.996 254.666L611.12 256.393C611.738 256.524 612.144 257.118 612.044 257.742L611.788 259.324C613.422 259.581 614.695 259.806 615.612 260.001C616.193 260.124 616.64 260.237 616.966 260.346C617.169 260.413 617.337 260.481 617.485 260.563C617.85 260.766 618.114 261.018 618.195 261.521C618.291 262.113 618.014 262.519 617.631 262.774C617.488 262.87 617.34 262.935 617.17 262.991C616.956 263.062 616.687 263.122 616.351 263.181C615.811 263.275 615.082 263.365 614.171 263.458C613.954 263.48 613.727 263.502 613.489 263.524C612.976 263.571 611.876 263.664 611.075 263.731L609.462 273.704C612.861 276.165 617.922 278.125 624.639 279.552C631.4 280.989 637.683 281.363 643.491 280.679L645.589 257.221C644.501 255.277 642.577 253.781 640.179 253.271C637.199 252.638 634.266 253.694 632.441 255.778C630.97 254.74 629.785 253.69 628.887 252.628C627.18 253.752 625.295 254.416 623.243 254.61C619.729 254.943 616.386 253.834 613.268 251.327C612.755 250.915 612.676 250.164 613.092 249.654C615.578 246.605 618.607 244.887 622.128 244.554C623.05 244.467 623.96 244.478 624.857 244.589C624.099 242.233 623.473 239.555 622.98 236.554ZM562.455 234.106C562.459 234.021 562.472 233.934 562.495 233.848L569.951 206.407C569.888 206.28 569.847 206.138 569.833 205.982C569.522 202.468 567.997 200.369 565.169 199.461C562.147 198.491 559.789 199.402 557.816 202.353C557.688 202.544 557.524 202.681 557.343 202.767L550.051 230.64C550.008 230.802 549.935 230.947 549.838 231.071C549.845 231.115 549.85 231.161 549.853 231.209C550.016 234.436 551.591 236.291 554.792 237.017C558.009 237.746 560.491 236.806 562.455 234.106ZM564.664 234.756C564.664 234.768 564.663 234.779 564.662 234.791C564.467 237.705 565.88 239.63 569.152 240.782C572.193 241.853 575.956 241.272 580.475 238.951C581.333 238.51 582.121 237.945 582.814 237.273L588.862 231.41L583.196 229.477C582.664 229.295 582.332 228.764 582.403 228.206L584.486 211.69C584.467 207.188 583.003 204.709 580.095 203.911C577.455 203.187 574.954 203.889 572.488 206.109L564.784 234.47C564.756 234.573 564.715 234.668 564.664 234.756ZM547.73 230.511C547.708 230.359 547.715 230.199 547.757 230.04L555.304 201.192C555.329 201.098 555.364 201.009 555.409 200.926C554.512 197.966 552.695 196.111 549.895 195.251C548.758 194.902 547.705 194.762 546.732 194.823C544.428 194.968 542.478 196.58 541.901 198.816L535.701 222.881C534.687 226.817 536.821 230.88 540.637 232.279C542.96 233.131 545.28 232.578 547.73 230.511ZM544.498 203.567C544.279 204.983 544.941 205.809 546.887 206.314C548.824 206.816 549.71 206.462 550.092 205.253C550.289 204.629 550.955 204.282 551.579 204.48C552.204 204.677 552.55 205.343 552.353 205.967C551.546 208.52 549.343 209.4 546.292 208.609C543.249 207.82 541.735 205.929 542.154 203.206C542.254 202.559 542.86 202.115 543.507 202.215C544.154 202.315 544.597 202.92 544.498 203.567ZM559.61 208.325C559.392 209.741 560.053 210.567 561.999 211.072C563.936 211.574 564.822 211.22 565.204 210.011C565.402 209.387 566.068 209.041 566.692 209.238C567.316 209.435 567.662 210.101 567.465 210.725C566.658 213.278 564.456 214.158 561.404 213.367C558.361 212.578 556.847 210.687 557.267 207.964C557.367 207.317 557.972 206.873 558.619 206.973C559.266 207.073 559.71 207.678 559.61 208.325ZM574.436 212.295C574.218 213.712 574.879 214.537 576.825 215.042C578.762 215.544 579.648 215.19 580.03 213.981C580.228 213.357 580.894 213.011 581.518 213.208C582.142 213.406 582.488 214.072 582.291 214.696C581.484 217.249 579.282 218.128 576.23 217.337C573.187 216.548 571.673 214.657 572.093 211.934C572.193 211.287 572.798 210.844 573.445 210.943C574.092 211.043 574.536 211.648 574.436 212.295ZM393.665 135.894C388.426 133.049 384.52 130.918 381.948 129.501C379.512 128.16 376.575 126.524 373.136 124.594C367.399 129.762 365.192 137.264 366.529 147.238L373.132 146.427C373.782 146.348 374.374 146.81 374.453 147.459C374.533 148.109 374.071 148.701 373.421 148.781L365.668 149.733C365.034 149.81 364.452 149.372 364.353 148.741C363.039 140.417 363.993 133.509 367.222 128.079L363.546 131.388C362.659 133.308 362.182 135.45 362.219 137.696L362.667 164.634C368.292 166.653 374.531 167.245 381.401 166.402C388.258 165.56 394.182 163.85 399.178 161.279L397.014 151.317C396.852 150.572 397.426 149.87 398.189 149.88C398.499 149.884 398.811 149.867 399.123 149.829C402.86 149.37 405.517 145.969 405.058 142.233C404.599 138.496 401.198 135.839 397.462 136.298C396.728 136.388 396.025 136.592 395.372 136.902C394.682 137.229 393.868 136.828 393.706 136.082L393.687 135.995C393.68 135.962 393.672 135.928 393.665 135.894ZM380.349 120.748C387.533 121.859 393.616 127.048 395.691 134.251C396.172 134.109 396.667 134.007 397.173 133.944C402.209 133.326 406.793 136.907 407.411 141.944C408.021 146.91 404.548 151.436 399.622 152.154L401.685 161.655C401.797 162.17 401.556 162.697 401.093 162.948C395.661 165.901 389.191 167.834 381.689 168.755C374.142 169.682 367.263 168.956 361.069 166.568C360.618 166.395 360.318 165.965 360.31 165.482L359.848 137.735C359.74 131.243 363.329 125.497 368.735 122.595C365.199 121.401 363 117.749 363.725 113.981C364.115 111.95 365.302 110.222 366.941 109.12C364.711 107.809 363.411 105.213 363.874 102.512C364.345 99.771 366.53 97.6467 369.283 97.2541L373.925 96.5922C377.257 96.1172 380.342 98.4327 380.817 101.764C380.818 101.771 380.819 101.778 380.82 101.785C381.129 104.004 380.269 106.126 378.699 107.514C381.28 108.35 383.279 110.615 383.637 113.485C383.638 113.493 383.639 113.5 383.64 113.508C383.995 116.434 382.644 119.189 380.349 120.748ZM374.414 136.711C374.624 136.633 374.848 136.585 375.082 136.573C376.39 136.504 377.509 137.575 377.581 138.964C377.615 139.611 377.417 140.213 377.062 140.678C377.877 140.64 378.682 140.498 379.479 140.254C381.907 139.512 383.864 137.945 385.371 135.509C382.759 134.332 380.261 134.127 377.833 134.869C376.566 135.257 375.428 135.868 374.414 136.711ZM373.024 138.106C372.64 138.565 372.279 139.068 371.941 139.615C372.305 139.779 372.667 139.924 373.027 140.05C372.925 139.791 372.862 139.509 372.846 139.212C372.826 138.82 372.891 138.444 373.024 138.106ZM380.173 142.521C376.776 143.56 373.272 143.093 369.727 141.158C369.162 140.85 368.946 140.145 369.243 139.573C371.099 135.987 373.743 133.64 377.14 132.602C380.537 131.563 384.04 132.03 387.585 133.965C388.151 134.274 388.366 134.978 388.07 135.551C386.213 139.137 383.569 141.483 380.173 142.521ZM369.253 152.89C368.634 152.678 368.305 152.003 368.517 151.384C368.73 150.765 369.405 150.435 370.024 150.648C371.492 151.153 373.203 150.888 375.21 149.78C375.784 149.464 376.505 149.672 376.821 150.245C377.138 150.818 376.929 151.54 376.356 151.856C373.803 153.265 371.417 153.634 369.253 152.89ZM478.152 122.593L507.428 184.871C507.622 185.285 508.037 185.55 508.493 185.552L616.541 186.243C617.289 186.248 617.854 185.568 617.712 184.833L605.523 121.707C605.416 121.148 604.927 120.745 604.358 120.746L479.224 120.903C478.356 120.904 477.783 121.807 478.152 122.593ZM603.381 123.118L615.11 183.863L509.256 183.186L481.091 123.271L603.381 123.118ZM551.81 172.363C555.118 172.363 559.373 171.053 562.003 169.444C566.985 166.399 569.147 161.293 569.147 155.026C569.147 151.132 568.201 147.052 566.034 144.158C562.872 139.936 557.491 137.688 551.81 137.688C546.167 137.688 541.3 140.696 538.134 144.87C535.928 147.779 534.472 151.093 534.472 155.026C534.472 160.246 537.215 164.779 540.865 167.957C543.91 170.609 547.454 172.363 551.81 172.363ZM114.396 130.994C112.596 130.994 111.136 132.453 111.136 134.254C111.136 136.054 112.596 137.514 114.396 137.514H236.796C238.597 137.514 240.056 136.054 240.056 134.254C240.056 132.453 238.597 130.994 236.796 130.994H114.396ZM114.989 153.517C113.189 153.517 111.729 154.977 111.729 156.778C111.729 158.578 113.189 160.038 114.989 160.038H162.254C164.055 160.038 165.514 158.578 165.514 156.778C165.514 154.977 164.055 153.517 162.254 153.517H114.989ZM178.115 153.517C176.315 153.517 174.855 154.977 174.855 156.778C174.855 158.578 176.315 160.038 178.115 160.038H201.458C203.259 160.038 204.718 158.578 204.718 156.778C204.718 154.977 203.259 153.517 201.458 153.517H178.115ZM216.05 153.517C214.25 153.517 212.79 154.977 212.79 156.778C212.79 158.578 214.25 160.038 216.05 160.038H233.497C235.297 160.038 236.757 158.578 236.757 156.778C236.757 154.977 235.297 153.517 233.497 153.517H216.05Z" fill="white"/>
<path fill-rule="evenodd" clip-rule="evenodd" d="M336.064 272.017L331.605 261.309C328.622 254.143 322.976 248.495 315.958 245.476L324.5 179.895C325.401 172.971 331.707 168.063 338.64 168.886L358.899 171.293L360.079 164.773L400.93 158.803L412.615 177.676L437.576 180.641C442.242 181.196 446.314 184.065 448.406 188.273L523.069 338.474H465.746L444.531 271.938L336.064 272.017ZM188.043 181.968H220.643C225.145 181.968 228.793 185.617 228.793 190.118C228.793 194.619 225.145 198.268 220.643 198.268H188.043C183.542 198.268 179.893 194.619 179.893 190.118C179.893 185.617 183.542 181.968 188.043 181.968ZM547.389 148.487C547.389 148.337 552.032 150.141 561.318 153.898L549.875 163.593C548.217 153.672 547.389 148.637 547.389 148.487ZM445.084 270.321L432.368 222.487C432.2 221.854 431.55 221.478 430.918 221.646C430.285 221.814 429.908 222.463 430.077 223.096L442.793 270.93C442.961 271.563 443.61 271.939 444.243 271.771C444.876 271.603 445.252 270.954 445.084 270.321ZM72.8229 292.835C73.291 292.841 73.7592 292.837 74.2271 292.821L104.247 291.82C104.657 291.806 105.063 291.899 105.426 292.089C106.586 292.696 107.034 294.129 106.427 295.289L102.225 303.315L111.797 310.14C109.087 312.979 106.592 315.151 104.312 316.658C102.857 317.619 101.478 318.389 100.523 318.953C95.9841 321.633 91.3793 323.009 88.0932 323.82C84.2487 324.769 80.306 325.148 75.9009 325.148C75.0931 325.148 72.6466 324.994 71.8611 324.912C65.7156 324.267 58.6695 322.535 50.8344 317.527C49.3948 316.607 46.7104 314.604 44.2642 312.377C43.8175 311.97 43.1357 311.297 42.2188 310.359L51.7727 303.315L48.7082 295.793C48.5883 295.499 48.5287 295.183 48.5332 294.865C48.5516 293.556 49.6279 292.509 50.9372 292.528L72.8229 292.835ZM625.076 275.478L653.477 276.747C654.785 276.806 655.798 277.914 655.74 279.222C655.727 279.505 655.664 279.783 655.553 280.044L653.642 284.537C651.674 289.164 652.672 294.521 656.175 298.128L659.651 301.709C650.944 309.08 640.74 312.765 629.038 312.765C624.899 312.765 619.931 312.031 615.494 310.758C613.084 310.066 610.717 309.086 608.785 308.201C606.602 307.201 604.115 305.839 601.421 303.977C600.84 303.575 599.959 302.905 598.778 301.966C601.962 297.241 603.049 291.409 601.782 285.854L599.346 275.177C599.055 273.9 599.854 272.629 601.13 272.338C601.414 272.273 601.707 272.261 601.995 272.302L622.179 275.206C623.14 275.344 624.106 275.435 625.076 275.478Z" fill="#7B61FF"/>
</g>
</svg>
