<svg width="433" height="353" fill="none" xmlns="http://www.w3.org/2000/svg"><path d="M321.104 86.992L307.28 129.47l-26.055-14.606c-5.766-3.23-9.011-.677-7.216 5.682l15.6 55.252-33.051 16.939c-4.744 2.434-4.744 6.41 0 8.843l33.057 16.939-15.6 55.252c-1.794 6.36 1.45 8.912 7.217 5.682l26.048-14.612 13.824 42.483c2.598 7.99 6.852 7.99 9.456 0l13.824-42.477 26.055 14.606c5.767 3.23 9.011.678 7.216-5.682l-15.6-55.252 33.057-16.939c4.744-2.433 4.744-6.409 0-8.843l-33.057-16.939 15.6-55.252c1.795-6.359-1.449-8.912-7.216-5.682l-26.055 14.606-13.824-42.477c-2.598-7.99-6.852-7.99-9.456 0z" fill="#171717"/><mask id="a" maskUnits="userSpaceOnUse" x="0" y="81" width="312" height="255"><path d="M0 246.966l27.118 79.13 11.706 9.188 84.317-9.188 44.307-74.536 80.167-11.262 63.868-114.843L279.327 81H68.017l-22.08 99.135L0 246.966z" fill="#C4C4C4"/></mask><g mask="url(#a)" fill-rule="evenodd" clip-rule="evenodd"><path d="M251.183 282.969h44.509a1.185 1.185 0 000-2.371h-75.066l-89.112 245.306a1.186 1.186 0 01-2.228-.809l88.817-244.497h-40.696a3.737 3.737 0 110-7.474h77.967a1.171 1.171 0 01.006-.961l12.752-28.315a8.899 8.899 0 012.743-3.44l2.4-1.815a11.681 11.681 0 019.653-2.071l17.47-42.521c2.256-2.581 4.598-3.367 7.025-2.358l.114.049a5.598 5.598 0 012.855 7.385l-17.706 40.028 23.433 6.215a1.186 1.186 0 01-.607 2.292l-23.797-6.312-2.79 6.306c1.846.702 2.686 3.486 3.01 8.397a1.186 1.186 0 01-1.144 1.262c-6.641.221-12.239 1.293-16.794 3.206-2.222.933-4.041 2.477-5.458 4.655 1.449.041 2.771.22 4.147.636 3.034.918 5.229 2.814 6.138 5.867l21.814.183h144.268l27.437 86.758a12.425 12.425 0 01-1.454 10.573h42.3c.875-2.73 2.887-4.434 5.641-5.267 1.215-.367 2.382-.534 3.649-.581-1.273-1.9-2.894-3.253-4.861-4.078-4.16-1.745-9.275-2.725-15.344-2.928h-14.342a1.185 1.185 0 110-2.371h14.361l.04.001c6.349.211 11.75 1.244 16.202 3.112 4.491 1.883 7.43 5.963 8.828 12.112h12.127c-1.29-6.256-3.792-10.234-7.456-12.039-4.262-2.1-12.952-5.524-26.033-10.253a1.186 1.186 0 01-.777-1l-7.512-6.479a1.186 1.186 0 011.549-1.795l7.326 6.318c22.785 5.397 35.352 9.137 38.265 11.475 4.392 3.525 7.246 8.447 8.558 14.715.027.127.032.253.019.374h20.739a3.737 3.737 0 110 7.474h-98.784l69.887 147.057a1.186 1.186 0 01-2.142 1.018l-70.37-148.075h-33.475l54.025 105.001h-16.266l13.454 42.205a1.186 1.186 0 01-1.129 1.546H371.787a1.185 1.185 0 01-1.107-1.61l1.864-4.861a17.485 17.485 0 0111.854-10.644l20.25-5.357-6.636-21.279h-26.226l-36.817-94.313c.402-.276.607-.785.474-1.283l-19.283-72.139a9.188 9.188 0 015.949-11.081l47.394-15.927a1.185 1.185 0 00-.755-2.248l-47.394 15.928a11.558 11.558 0 00-7.484 13.941l18.977 70.996-9.64 95.778h-29.068v42.913c0 .655-.531 1.186-1.185 1.186H281.23a1.186 1.186 0 01-1.186-1.186v-26.142l-20.845 26.869c-.224.289-.57.459-.937.459h-82.67a1.186 1.186 0 01-1.107-1.61l1.864-4.861a17.486 17.486 0 0111.855-10.644l20.74-5.487 4.544-21.497h-33.452l38.95-111.878.13.002 32.067-87.741zm283.127-64.191l-36.295-.866-46.339-103.101a8.003 8.003 0 017.272-11.282l156.473-.536a8.001 8.001 0 017.915 6.657l18.046 105.845c21.941 5.508 38.188 25.363 38.188 49.012 0 27.908-22.624 50.531-50.531 50.531s-50.531-22.623-50.531-50.531c0-10.308 3.087-19.895 8.386-27.887l-2.429 2.355a12.161 12.161 0 01-2.907 2.085c-5.049 2.593-9.457 3.275-13.194 1.959-3.149-1.11-5.12-2.981-5.812-5.525-2.268 1.94-5.063 2.565-8.284 1.835-3.5-.793-5.701-2.81-6.481-5.911-2.609 1.684-5.291 2.068-7.966 1.087a10.278 10.278 0 01-6.416-12.215l.905-3.512zm-451.592 7.977l4.836-123.395a8.002 8.002 0 017.996-7.69h178.797a8.002 8.002 0 017.664 10.302l-32.918 109.662a13.633 13.633 0 01-13.057 9.714h-75.937a11.932 11.932 0 012.154 1.743 7.706 7.706 0 01.776 9.742l-14.496 20.856c-.03.045-.064.087-.1.126l-3.978 4.328a11.848 11.848 0 01-10.192 3.744l-7.063 6.146a51.31 51.31 0 01.236 4.922c0 27.907-22.623 50.53-50.53 50.53-27.908 0-50.531-22.623-50.531-50.53 0-27.908 22.623-50.531 50.53-50.531 1.966 0 3.906.112 5.813.331zm391.836 256.179h-74.059l6.685 21.438h37.352a1.184 1.184 0 110 2.37h-39.849c-.081 0-.16-.008-.236-.023l-19.442 5.143a15.114 15.114 0 00-10.247 9.201l-1.247 3.251h106.504l-9.696-28.031a1.186 1.186 0 112.24-.775l9.965 28.806h5.222l-13.192-41.38zm-182.786-.348h-75.856l-4.799 22.702a1.185 1.185 0 01-.857.901l-21.446 5.673a15.114 15.114 0 00-10.247 9.201l-1.247 3.251h80.366l22.611-29.145c.692-.893 2.122-.403 2.122.727v28.418h9.353v-41.728zM123.539 254.454l-.161.139c-.14-.237-.281-.472-.425-.706l.586.567zm400.223 111.201c-1.582-.028-2.908.086-4.246.49-1.779.538-3.066 1.491-3.782 2.998h9.193a21.633 21.633 0 00-1.165-3.488zm18.146 3.488h8.848c-1.314-5.062-3.775-9.024-7.388-11.924-1.867-1.498-9.432-3.985-22.459-7.353 5.562 2.149 9.617 3.852 12.173 5.111 4.51 2.222 7.434 6.981 8.826 14.166zM282.012 238.752a9.306 9.306 0 00-7.307 1.732l-2.4 1.815a6.526 6.526 0 00-2.011 2.523l-11.997 26.636 5.202.044c1.511-6.72 4.701-11.168 9.58-13.217.356-.15.718-.294 1.086-.434l7.847-19.099zm3.529 16.504a66.34 66.34 0 013.931-.309c-.154-1.638-.384-2.919-.683-3.832-.164-.501-.342-.869-.517-1.099-.109-.143-.18-.194-.22-.203a.641.641 0 00-.096-.016l-2.415 5.459zm-9.24 16.352c-.768-1.817-2.239-2.952-4.302-3.577-1.491-.451-2.966-.573-4.732-.539-.533 1.205-.979 2.548-1.338 4.03l10.372.086zM103.167 207.37c4.85 4.788 5.04 9.482.364 13.45a1.18 1.18 0 01-.937.269l.975 12.934c12.244 7.62 20.989 20.332 23.276 35.176l5.837-5.078c.22-.486.75-.778 1.297-.676a9.48 9.48 0 008.73-2.906l3.924-4.269 14.449-20.79a5.334 5.334 0 00-.537-6.744 9.091 9.091 0 00-1.22-1.051c-2.317-1.679-4.844-1.878-7.748-.577l-10.595 14.06a1.185 1.185 0 11-1.893-1.426l10.878-14.436c.814-2.696.153-4.741-2.032-6.388-2.176-1.64-4.284-1.817-6.547-.566a.578.578 0 01-.043.022 1.195 1.195 0 01-.165.303l-10.882 14.44a1.185 1.185 0 11-1.893-1.427l10.881-14.44c.113-.15.254-.265.411-.345.04-.102.095-.203.169-.302l15.479-20.664c1.232-3.573.806-5.981-1.161-7.499-2.127-1.641-4.805-1.543-8.247.441a.312.312 0 00-.081.068l-27.983 33.966a1.186 1.186 0 01-2.033-.36 768.298 768.298 0 01-2.477-7.1c-.093-.273-.187-.56-.292-.89-.07-.221-.131-.418-.244-.783-.938-3.027-1.431-4.175-2.267-4.917-1.114-.991-2.321-1.714-3.625-2.177a3.852 3.852 0 00-3.768.682zm-1.274 2.08a3.848 3.848 0 00-.089 1.148l.606 8.047c2.989-2.778 2.871-5.679-.517-9.195zm44.694 46.886l.1-.125-.054.059-.046.066zm4.72-61.531a1.185 1.185 0 111.69 1.663c-1.656 1.683-3.735 1.666-5.785.07-2.068-1.61-2.572-3.588-1.205-5.462a1.186 1.186 0 111.916 1.397c-.537.735-.39 1.31.746 2.194 1.154.899 1.883.905 2.638.138zM76.906 325.114c26.598 0 48.16-21.561 48.16-48.159s-21.562-48.16-48.16-48.16c-26.598 0-48.16 21.562-48.16 48.16 0 26.598 21.562 48.159 48.16 48.159zm16.417-51.479c-1.379.419-3 .098-4.788-.886a1.185 1.185 0 111.143-2.077c1.463.806 2.503.953 3.25.568l-.216-1.313a1.185 1.185 0 01.54-1.197l10.958-6.881-8.44-2.275a4.448 4.448 0 01-2.29 5.104 17.07 17.07 0 01-5.672 1.709c-2.02.248-3.995.153-5.918-.286a4.446 4.446 0 01-1.02-8.3 17.07 17.07 0 015.673-1.71 17.508 17.508 0 013.54-.079 13.643 13.643 0 00-4.295-5.672l-16.016 7.348-13.806 2.448a9.8 9.8 0 00-.114 1.494v33.88c7.81 1.8 15.206 2.393 22.19 1.782 6.909-.604 13.023-2.281 18.351-5.027l-3.07-18.63zm-4.68-15.307c-.598.003-1.201.042-1.81.117a14.69 14.69 0 00-4.89 1.471 2.075 2.075 0 00.475 3.873c1.653.378 3.351.46 5.1.245a14.677 14.677 0 004.891-1.472 2.074 2.074 0 00.524-3.322c.02.098.035.199.044.302.121 1.386-.838 2.602-2.142 2.716-1.305.114-2.46-.917-2.582-2.303a2.609 2.609 0 01.39-1.627zm4.058-2.036l14.746 3.973c.998.269 1.198 1.599.322 2.149l-12.59 7.905 3.692 22.403c.082.498-.16.994-.605 1.235-5.797 3.14-12.473 5.037-20.017 5.697-7.52.658-15.475-.028-23.86-2.054a1.184 1.184 0 01-.908-1.152V261.63a12.15 12.15 0 017.646-11.285l10.297-4.111a16.06 16.06 0 013.346-.932c7.93-1.307 15.545 3.445 17.931 10.99zm-14.618 22.154a9.189 9.189 0 01-8.626-16.224 1.186 1.186 0 011.113 2.094 6.817 6.817 0 006.4 12.037 1.186 1.186 0 011.113 2.093zm550.956 34.221c26.598 0 48.16-21.562 48.16-48.16 0-26.598-21.562-48.16-48.16-48.16-26.598 0-48.16 21.562-48.16 48.16 0 26.598 21.562 48.16 48.16 48.16zm-8.005-65.542c.563.559.838 1.396.658 2.245-.279 1.313-1.544 2.157-2.824 1.884-1.052-.223-1.787-1.129-1.863-2.172-.43.34-.847.72-1.252 1.14 2.342 1.6 4.753 2.266 7.267 2.028a9.853 9.853 0 004.508-1.566 25.89 25.89 0 01-1.734-3.513 10.134 10.134 0 00-3.443-.257c-.449.043-.888.113-1.317.211zm25.876 21.942l-1.142 12.772c-.049.55-.472.993-1.018 1.068-6.352.881-13.221.534-20.604-1.035-7.415-1.577-12.98-3.804-16.699-6.718a1.185 1.185 0 01-.44-1.122l1.836-11.352c-.007-.165.02-.324.076-.471l.604-3.732-8.834-1.877a1.186 1.186 0 01-.702-1.871l8.791-11.736a23.126 23.126 0 0125.172-8.282l7.285 2.192a10.67 10.67 0 017.553 11.167l-.623 6.957 22.038 6.787a2.964 2.964 0 011.823 4.066l-5.224 11.409a2.964 2.964 0 01-4.234 1.298l-15.658-9.52zm-23.93-32.513a20.743 20.743 0 00-12.305 7.86l-7.679 10.252 8.124 1.727c.618.131 1.024.725.924 1.349l-.256 1.582c1.634.257 2.907.482 3.824.677.581.123 1.028.236 1.354.345.203.067.371.135.519.217.365.203.629.455.71.958.096.592-.181.998-.564 1.253a1.823 1.823 0 01-.461.217 5.945 5.945 0 01-.819.19c-.54.094-1.269.184-2.18.277-.217.022-.444.044-.682.066-.513.047-1.613.14-2.414.207l-1.613 9.973c3.399 2.461 8.46 4.421 15.177 5.848 6.761 1.437 13.044 1.811 18.852 1.127l2.098-23.458c-1.088-1.944-3.012-3.44-5.41-3.95-2.98-.633-5.913.423-7.738 2.507-1.471-1.038-2.656-2.088-3.554-3.15a12.212 12.212 0 01-5.644 1.982c-3.514.333-6.857-.776-9.975-3.283a1.185 1.185 0 01-.176-1.673c2.486-3.049 5.515-4.767 9.036-5.1a12.557 12.557 0 012.729.035c-.758-2.356-1.384-5.034-1.877-8.035zm-60.525-2.448c.004-.085.017-.172.04-.258l7.456-27.441a1.19 1.19 0 01-.118-.425c-.311-3.514-1.836-5.613-4.664-6.521-3.022-.97-5.38-.059-7.353 2.892a1.176 1.176 0 01-.473.414l-7.292 27.873a1.193 1.193 0 01-.213.431c.007.044.012.09.015.138.163 3.227 1.738 5.082 4.939 5.808 3.217.729 5.699-.211 7.663-2.911zm2.209.65l-.002.035c-.195 2.914 1.218 4.839 4.49 5.991 3.041 1.071 6.804.49 11.323-1.831a9.784 9.784 0 002.339-1.678l6.048-5.863-5.666-1.933a1.186 1.186 0 01-.793-1.271l2.083-16.516c-.019-4.502-1.483-6.981-4.391-7.779-2.64-.724-5.141-.022-7.607 2.198l-7.704 28.361a1.192 1.192 0 01-.12.286zm-16.934-4.245a1.18 1.18 0 01.027-.471l7.547-28.848c.025-.094.06-.183.105-.266-.897-2.96-2.714-4.815-5.514-5.675-1.137-.349-2.19-.489-3.163-.428a5.337 5.337 0 00-4.831 3.993l-6.2 24.065a7.908 7.908 0 004.936 9.398c2.323.852 4.643.299 7.093-1.768zm-3.232-26.944c-.219 1.416.443 2.242 2.389 2.747 1.937.502 2.823.148 3.205-1.061a1.184 1.184 0 112.261.714c-.807 2.553-3.01 3.433-6.061 2.642-3.043-.789-4.557-2.68-4.138-5.403a1.186 1.186 0 012.344.361zm15.112 4.758c-.218 1.416.443 2.242 2.389 2.747 1.937.502 2.823.148 3.205-1.061a1.187 1.187 0 012.261.714c-.807 2.553-3.009 3.433-6.061 2.642-3.043-.789-4.557-2.68-4.137-5.403a1.185 1.185 0 112.343.361zm14.826 3.97c-.218 1.417.443 2.242 2.389 2.747 1.937.502 2.823.148 3.205-1.061a1.187 1.187 0 012.261.715c-.807 2.553-3.009 3.432-6.061 2.641-3.043-.789-4.557-2.68-4.137-5.403a1.186 1.186 0 012.343.361zm-180.771-76.401a2418.694 2418.694 0 01-11.717-6.393 1264.08 1264.08 0 01-8.812-4.907c-5.737 5.168-7.944 12.67-6.607 22.644l6.603-.811a1.186 1.186 0 01.289 2.354l-7.753.952a1.186 1.186 0 01-1.315-.992c-1.314-8.324-.36-15.232 2.869-20.662l-3.676 3.309a14.439 14.439 0 00-1.327 6.308l.448 26.938c5.625 2.019 11.864 2.611 18.734 1.768 6.857-.842 12.781-2.552 17.777-5.123l-2.164-9.962a1.186 1.186 0 011.175-1.437 6.816 6.816 0 10-.727-13.582 6.79 6.79 0 00-2.09.604 1.185 1.185 0 01-1.666-.82l-.019-.087-.022-.101zm-13.316-15.146c7.184 1.111 13.267 6.3 15.342 13.503a9.187 9.187 0 0111.72 7.693 9.186 9.186 0 01-7.789 10.21l2.063 9.501a1.184 1.184 0 01-.592 1.293c-5.432 2.953-11.902 4.886-19.404 5.807-7.547.927-14.426.201-20.62-2.187a1.184 1.184 0 01-.759-1.086l-.462-27.747c-.108-6.492 3.481-12.238 8.887-15.14a7.583 7.583 0 01-1.794-13.475 6.406 6.406 0 012.342-11.866l4.642-.662a6.093 6.093 0 016.892 5.172l.003.021a6.45 6.45 0 01-2.121 5.729 7.213 7.213 0 014.938 5.971l.003.023a7.636 7.636 0 01-3.291 7.24zm-5.935 15.963c.21-.078.434-.126.668-.138 1.308-.069 2.427 1.002 2.499 2.391a2.593 2.593 0 01-.519 1.714 9.782 9.782 0 002.417-.424c2.428-.742 4.385-2.309 5.892-4.745-2.612-1.177-5.11-1.382-7.538-.64a9.755 9.755 0 00-3.419 1.842zm-1.39 1.395a12.98 12.98 0 00-1.083 1.509c.364.164.726.309 1.086.435a2.677 2.677 0 01-.003-1.944zm7.149 4.415c-3.397 1.039-6.901.572-10.446-1.363a1.185 1.185 0 01-.484-1.585c1.856-3.586 4.5-5.933 7.897-6.971 3.397-1.039 6.9-.572 10.445 1.363.566.309.781 1.013.485 1.586-1.857 3.586-4.501 5.932-7.897 6.97zm-10.92 10.369a1.186 1.186 0 11.771-2.242c1.468.505 3.179.24 5.186-.868a1.186 1.186 0 011.146 2.076c-2.553 1.409-4.939 1.778-7.103 1.034zm108.899-30.297l29.276 62.278c.194.414.609.679 1.065.681l108.048.691a1.184 1.184 0 001.171-1.41l-12.189-63.126a1.183 1.183 0 00-1.165-.961l-125.134.157a1.186 1.186 0 00-1.072 1.69zm125.229.525l11.729 60.745-105.854-.677-28.165-59.915 122.29-.153zm-51.571 49.245c3.308 0 7.563-1.31 10.193-2.919 4.982-3.045 7.144-8.151 7.144-14.418 0-3.894-.946-7.974-3.113-10.868-3.162-4.222-8.543-6.47-14.224-6.47-5.643 0-10.51 3.008-13.676 7.182-2.206 2.909-3.662 6.223-3.662 10.156 0 5.22 2.743 9.753 6.393 12.931 3.045 2.652 6.589 4.406 10.945 4.406zm-437.414-41.369a3.26 3.26 0 100 6.52h122.4a3.26 3.26 0 100-6.52h-122.4zm.593 22.523a3.26 3.26 0 000 6.521h47.265a3.26 3.26 0 100-6.521h-47.265zm63.126 0a3.26 3.26 0 000 6.521h23.343a3.26 3.26 0 100-6.521h-23.343zm37.935 0a3.26 3.26 0 000 6.521h17.447a3.26 3.26 0 000-6.521H216.05z" fill="#fff"/><path d="M336.064 272.017l-4.459-10.708a29.636 29.636 0 00-15.647-15.833l8.542-65.581c.901-6.924 7.207-11.832 14.14-11.009l20.259 2.407 1.18-6.52 40.851-5.97 11.685 18.873 24.961 2.965a13.931 13.931 0 0110.83 7.632l74.663 150.201h-57.323l-21.215-66.536-108.467.079zm-148.021-90.049h32.6a8.15 8.15 0 018.15 8.15 8.15 8.15 0 01-8.15 8.15h-32.6a8.15 8.15 0 010-16.3zm359.346-33.481c0-.15 4.643 1.654 13.929 5.411l-11.443 9.695c-1.658-9.921-2.486-14.956-2.486-15.106zM445.084 270.321l-12.716-47.834a1.185 1.185 0 00-2.291.609l12.716 47.834a1.185 1.185 0 102.291-.609zM72.823 292.835c.468.006.936.002 1.404-.014l30.02-1.001a2.371 2.371 0 012.18 3.469l-4.202 8.026 9.572 6.825c-2.71 2.839-5.205 5.011-7.485 6.518-1.455.961-2.834 1.731-3.789 2.295-4.539 2.68-9.144 4.056-12.43 4.867-3.844.949-7.787 1.328-12.192 1.328-.808 0-3.254-.154-4.04-.236-6.145-.645-13.192-2.377-21.027-7.385-1.44-.92-4.124-2.923-6.57-5.15-.447-.407-1.128-1.08-2.045-2.018l9.554-7.044-3.065-7.522a2.37 2.37 0 012.23-3.265l21.885.307zm552.253-17.357l28.401 1.269a2.372 2.372 0 012.076 3.297l-1.911 4.493a12.491 12.491 0 002.533 13.591l3.476 3.581c-8.707 7.371-18.911 11.056-30.613 11.056-4.139 0-9.107-.734-13.544-2.007-2.41-.692-4.777-1.672-6.709-2.557-2.183-1-4.67-2.362-7.364-4.224-.581-.402-1.462-1.072-2.643-2.011a20.625 20.625 0 003.004-16.112l-2.436-10.677a2.371 2.371 0 012.649-2.875l20.184 2.904c.961.138 1.927.229 2.897.272z" fill="#7B61FF"/></g></svg>