<svg width="433" height="353" viewBox="0 0 433 353" fill="none" xmlns="http://www.w3.org/2000/svg">
<g clip-path="url(#clip0)">
<path d="M238.079 59.2192L193.987 52.0578L204.434 24.0753C206.744 17.8821 203.725 15.0667 197.715 17.8134L145.501 41.6843L123.704 11.6147C120.573 7.29889 116.644 7.90733 114.965 12.9678L103.284 48.2279L46.2951 41.2664C39.736 40.466 37.71 44.0626 41.7843 49.2673L60.2107 72.7725L20.3432 92.9346C12.8449 96.7245 13.496 100.929 21.7903 102.28L65.8823 109.441L55.4349 137.424C53.1256 143.617 56.1444 146.432 62.1542 143.686L114.368 119.815L136.167 149.891C139.297 154.206 143.227 153.598 144.905 148.537L156.587 113.277L213.575 120.239C220.134 121.039 222.16 117.443 218.086 112.238L199.665 88.7256L239.526 68.5644C247.024 64.7745 246.373 60.5701 238.079 59.2192Z" fill="#171717"/>
<path d="M289.959 112.613L277.476 150.999L253.949 137.8C248.741 134.881 245.812 137.187 247.432 142.934L261.519 192.865L231.674 208.172C227.39 210.371 227.39 213.964 231.674 216.163L261.525 231.471L247.438 281.402C245.817 287.148 248.747 289.455 253.954 286.536L277.476 273.331L289.959 311.722C292.305 318.943 296.147 318.943 298.498 311.722L310.981 273.337L334.508 286.536C339.716 289.455 342.645 287.148 341.025 281.402L326.938 231.471L356.789 216.163C361.073 213.964 361.073 210.371 356.789 208.172L326.938 192.865L341.025 142.934C342.645 137.187 339.716 134.881 334.508 137.8L310.981 150.999L298.498 112.613C296.152 105.393 292.31 105.393 289.959 112.613Z" fill="#171717"/>
<path fill-rule="evenodd" clip-rule="evenodd" d="M163.679 275.125C163.669 275.1 163.658 275.076 163.645 275.053L163.472 274.73L167.961 264.696C168.109 264.366 167.961 263.978 167.631 263.831C167.301 263.683 166.914 263.831 166.766 264.161L162.688 273.276L158.093 264.742C157.922 264.424 157.525 264.305 157.207 264.476C156.888 264.648 156.77 265.045 156.941 265.363L162.014 274.784L161.886 275.069C161.879 275.086 161.872 275.104 161.865 275.122L140.179 295.869L139.872 295.708L122.04 317.998C121.851 318.234 121.526 318.31 121.253 318.182L62.5414 290.784C62.1255 290.59 62.0332 290.039 62.3632 289.72L65.1253 287.048C66.9249 285.308 69.3297 284.335 71.8324 284.335H92.1573L102.465 276.19L75.4864 262.114L129.427 209.798L93.3377 203.43L95.2222 192.735L73.823 187.124C73.5311 187.048 73.3293 186.781 73.3346 186.479L74.2755 132.531L50.4086 141.356C49.2682 144.037 47.5251 146.706 45.1864 149.569C39.8349 156.118 33.457 159.787 26.0104 159.787C19.0693 159.787 12.566 155.962 6.93139 149.588C2.16995 144.201 0 139.634 0 133.593C0 127.967 1.92334 122.188 5.17673 117.719C9.9586 111.15 17.4783 107.399 26.0104 107.399C31.0741 107.399 36.0066 109.502 41.0101 113.249L48.2465 102.006C50.9899 97.7436 55.5519 94.9937 60.5996 94.5599L83.2305 92.615C84.2646 92.5261 85.2791 92.9358 85.9619 93.7181C87.1451 95.0737 87.0061 97.1325 85.6515 98.3166L83.3529 100.326C82.7969 100.812 82.4891 101.523 82.5148 102.261C82.5621 103.616 83.6984 104.677 85.0528 104.63L89.1067 104.488C90.1281 104.452 91.1014 104.923 91.7078 105.746C92.7227 107.124 92.4293 109.065 91.0524 110.08L88.0642 112.285C87.5115 112.692 87.1548 113.313 87.0807 113.996C86.9343 115.345 87.9079 116.556 89.2551 116.703L96.9329 117.537C98.1666 117.672 99.2184 118.493 99.6485 119.658C100.275 121.354 99.4085 123.237 97.7135 123.864L84.769 128.65L92.0923 144.025L102.583 150.956L105.266 135.731L142.457 151.246L143.515 146.263C143.625 145.747 144.121 145.41 144.641 145.499L184.663 152.346C185.197 152.437 185.556 152.945 185.465 153.479C185.461 153.499 185.461 153.499 185.457 153.518C184.356 158.631 183.324 163.423 182.36 167.894L182.428 167.922L201.691 196.178C198.469 194.488 194.466 195.078 191.866 197.732C189.938 199.701 188.422 201.512 187.319 203.167C185.369 206.092 183.913 208.276 182.95 209.72L191.315 211.411C191.349 211.337 191.398 211.268 191.462 211.208C192.654 210.095 193.97 208.398 195.401 206.12C196.884 203.757 199.211 200.891 202.382 197.513C202.629 197.249 203.043 197.236 203.307 197.484C203.57 197.732 203.583 198.146 203.336 198.41C200.217 201.731 197.941 204.536 196.509 206.817C195.199 208.902 193.97 210.534 192.816 211.714L200.292 213.225C200.31 213.165 200.337 213.106 200.374 213.05C201.916 210.719 203.432 208.734 204.923 207.095C206.395 205.478 208.057 203.702 209.909 201.767C210.16 201.506 210.574 201.498 210.835 201.748C211.096 201.998 211.104 202.413 210.854 202.674C209.009 204.601 207.355 206.368 205.891 207.977C204.506 209.499 203.091 211.34 201.647 213.499L205.864 214.352C204.481 213.818 203.878 212.824 204.273 211.54C204.379 211.195 204.745 211.001 205.091 211.107C205.436 211.214 205.63 211.58 205.524 211.926C205.342 212.518 205.573 212.871 206.462 213.176C207.364 213.485 207.841 213.325 208.151 212.676C208.306 212.35 208.697 212.211 209.023 212.367C209.349 212.523 209.487 212.914 209.332 213.24C208.894 214.157 208.169 214.623 207.25 214.632L209.112 215.008C209.054 214.77 209.133 214.509 209.336 214.344L217.9 207.414C218.181 207.187 218.593 207.23 218.82 207.512C219.047 207.793 219.004 208.205 218.723 208.433L210.3 215.248L215.904 216.381L214.431 222.813V223.065L228.624 225.916L228.482 225.62L262.813 231.921L251.392 257.255L255.532 259.482C258.291 260.967 261.73 259.957 263.25 257.215C268.232 248.228 273.074 239.612 277.775 231.367C282.799 222.557 286.582 212.743 289.125 201.922C289.678 199.568 288.694 197.12 286.667 195.804L273.895 187.512C273.592 187.315 273.505 186.91 273.702 186.606C273.899 186.303 274.304 186.217 274.607 186.413L287.379 194.705C289.87 196.322 291.078 199.33 290.398 202.222C287.828 213.163 283.999 223.095 278.912 232.017C274.213 240.257 269.374 248.868 264.394 257.851C262.527 261.219 258.302 262.46 254.912 260.636L250.852 258.452L242.744 276.437C241.163 279.944 237.53 282.059 233.702 281.699L163.679 275.125ZM138.097 294.782L103.737 276.854L93.6339 284.837L104.639 289.822C104.968 289.972 105.114 290.36 104.965 290.689C104.816 291.019 104.428 291.165 104.099 291.016L92.2434 285.645H71.8324C69.6691 285.645 67.5903 286.486 66.0347 287.99L63.957 290L114.698 313.678C120.62 307.952 125.872 305.065 130.489 305.065C130.557 305.065 130.624 305.075 130.686 305.095L138.657 295.131L138.097 294.782ZM95.4502 191.44L102.336 152.362L91.2195 145.018C91.1201 144.952 91.0405 144.861 90.9893 144.753L82.9702 127.917C82.0715 126.031 80.4984 124.55 78.5616 123.768L75.757 122.635L75.0834 161.255C75.2589 161.118 75.4998 161.075 75.7225 161.161C84.4198 164.527 87.7052 173.832 85.6749 188.878H85.6749L95.4502 191.44ZM247.518 158.968C247.952 159.087 248.399 159.15 248.859 159.158C250.26 159.182 251.554 158.693 252.762 157.671C251.591 156.606 250.315 156.072 248.913 156.048C248.182 156.035 247.48 156.162 246.805 156.432C246.928 156.427 247.054 156.44 247.179 156.473C247.877 156.66 248.282 157.414 248.083 158.156C247.99 158.502 247.783 158.784 247.518 158.968ZM245.507 157.95C245.497 157.796 245.512 157.637 245.555 157.478C245.611 157.269 245.709 157.082 245.837 156.927C245.557 157.103 245.282 157.306 245.011 157.535C245.174 157.684 245.339 157.822 245.507 157.95ZM244.501 150.669L241.963 151.8C241.177 152.652 240.565 153.686 240.2 154.86L236.036 168.24C238.781 170.04 241.671 171.369 244.708 172.229C247.755 173.093 251.421 173.431 255.706 173.24L256.221 167.98C256.262 167.562 256.679 167.291 257.077 167.421C257.227 167.471 257.381 167.511 257.538 167.541C259.578 167.938 261.553 166.605 261.949 164.564C262.346 162.522 261.014 160.546 258.974 160.149C258.58 160.072 258.183 160.059 257.794 160.107C257.415 160.154 257.085 159.869 257.061 159.502C254.798 156.981 253.107 155.124 251.989 153.93C250.939 152.81 249.676 151.449 248.2 149.848C244.307 151.584 241.869 155.148 240.87 160.616L244.474 161.318C244.829 161.387 245.061 161.73 244.992 162.085C244.923 162.44 244.579 162.672 244.225 162.603L239.992 161.78C239.646 161.713 239.415 161.383 239.471 161.034C240.201 156.437 241.88 152.971 244.501 150.669ZM252.644 149.059C256.23 150.868 258.544 154.631 258.415 158.772C258.685 158.781 258.955 158.811 259.224 158.863C261.973 159.398 263.768 162.062 263.234 164.814C262.71 167.511 260.142 169.291 257.451 168.856L257.02 173.246C262.012 172.476 265.973 170.032 268.185 165.929C271.6 159.593 273.054 153.686 272.896 148.193C272.775 143.964 271.725 140.242 270.023 136.865C268.646 134.133 264.563 130.722 259.924 128.657C254.397 126.197 248.821 125.844 244.205 128.133C239.002 130.714 233.395 136.566 230.013 143.031C226.263 150.2 225.692 157.064 228.965 162C230.338 164.071 232.377 166.01 234.838 167.684L238.95 154.471C240.017 151.043 242.89 148.643 246.228 148.044C244.578 146.812 244.048 144.52 245.07 142.666C245.622 141.665 246.539 140.96 247.588 140.661C246.64 139.592 246.401 138.006 247.105 136.666C247.819 135.306 249.329 134.564 250.841 134.827L253.391 135.272C255.221 135.591 256.446 137.334 256.127 139.165C256.126 139.169 256.125 139.173 256.125 139.177C255.908 140.395 255.095 141.363 254.034 141.824C255.247 142.704 255.91 144.235 255.608 145.804C255.607 145.809 255.606 145.813 255.605 145.817C255.293 147.415 254.114 148.631 252.644 149.059ZM263.577 112.673L259.3 126.976V126.976C259.686 127.128 260.071 127.289 260.456 127.461C265.349 129.639 269.662 133.242 271.191 136.275C272.975 139.815 274.077 143.721 274.204 148.155C274.368 153.883 272.859 160.016 269.337 166.55C265.685 173.324 257.781 175.918 248.424 174.404C239.899 173.025 231.627 168.384 227.875 162.724C224.293 157.322 224.904 149.973 228.854 142.424C232.358 135.725 238.159 129.67 243.624 126.959C247.952 124.813 252.999 124.805 258.069 126.524L262.319 112.31C261.984 112.129 261.702 111.894 261.53 111.632C260.879 110.639 261.97 108.998 262.9 108.53C263.83 108.063 265.009 108.846 265.249 109.329C265.489 109.812 265.751 110.718 265.081 111.97C264.79 112.515 264.202 112.71 263.577 112.673ZM248.836 160.467C246.876 160.433 245.116 159.59 243.586 157.968C243.341 157.71 243.348 157.303 243.601 157.053C245.188 155.486 246.976 154.704 248.936 154.738C250.897 154.773 252.656 155.616 254.187 157.238C254.431 157.496 254.424 157.903 254.171 158.153C252.585 159.72 250.797 160.502 248.836 160.467ZM241.335 164.051C241.047 163.833 240.989 163.423 241.206 163.134C241.423 162.845 241.834 162.787 242.122 163.004C242.807 163.52 243.75 163.673 244.993 163.434C245.348 163.365 245.691 163.598 245.76 163.953C245.828 164.308 245.595 164.652 245.241 164.72C243.66 165.024 242.345 164.811 241.335 164.051ZM115.97 314.272L121.34 316.778L129.633 306.411C125.702 306.745 121.14 309.353 115.97 314.272ZM84.3993 188.543C86.3148 174.127 83.2334 165.472 75.2503 162.382C75.1813 162.355 75.1194 162.318 75.0657 162.273L74.652 185.988L84.3993 188.543ZM26.0104 158.477C33.0209 158.477 39.0511 155.009 44.1733 148.74C48.5391 143.396 50.7121 138.824 50.7121 133.593C50.7121 126.103 47.3717 119.916 41.1563 115.013C36.0334 110.972 31.0509 108.709 26.0104 108.709C17.8927 108.709 10.7677 112.262 6.23452 118.49C3.1424 122.738 1.3087 128.247 1.3087 133.593C1.3087 139.269 3.34353 143.552 7.91161 148.72C13.3211 154.84 19.5059 158.477 26.0104 158.477ZM57.3156 201.011L53.4882 219.385L64.3583 227.315L50.4947 228.951L39.6522 241.562L41.4563 225.895L31.1522 217.371L45.6895 217.306L57.3156 201.011ZM13.9036 272.303L24.8578 286.863L36.5644 285.024L28.942 294.664L30.0282 309.238L21.4082 298.389L9.6854 299.508L18.7044 290.424L13.9036 272.303ZM306.703 106.379L319.403 122.655L333.181 120.445L324.11 131.396L325.215 147.803L315.214 135.682L301.426 137.081L312.13 126.739L306.703 106.379ZM345.297 187.89L340.576 205.493L349.232 213.592L336.948 213.516L326.142 223.345L329.377 209.868L321.279 201.312L333.984 202.832L345.297 187.89ZM333.517 288.493C333.195 288.16 332.852 287.844 332.486 287.553C344.267 281.453 353.337 276.628 355.258 275.327C361.206 271.3 361.492 264.049 355.742 260.32C351.844 257.792 343.039 259.37 329.469 265.192L322.253 268.995C325.401 271.151 327.775 273.595 328.817 275.618C330.261 278.423 331.768 282.35 332.153 287.299C330.397 286.022 328.15 285.313 325.344 285.93C316.628 287.845 313.996 294.278 305.459 290.569C296.923 286.859 296.223 281.435 287.402 283.263C284.443 283.876 282.159 284.337 280.55 284.646C284.32 276.272 291.559 268.577 298.189 265.358C305.766 261.68 314.649 264.243 320.997 268.177L328.882 264.021C328.897 264.013 328.913 264.005 328.929 263.999C342.913 257.996 352.041 256.358 356.454 259.221C363.02 263.48 362.689 271.877 355.992 276.412C354.062 277.718 345.14 282.471 333.517 288.493ZM331.393 297.211C330.581 300.831 329.132 304.786 326.8 309.055C319.947 321.602 300.201 319.341 288.084 311.565C275.187 317.987 265.026 322.906 262.912 323.627C256.498 325.813 251.113 320.893 250.007 313.054C249.295 308.012 257.038 301.568 273.205 293.368L277.334 291.191L277.281 291.96C282.894 289.245 287.118 288.356 289.953 289.294C294.206 290.701 305.852 299.767 313.224 297.236C320.275 294.815 329.029 291.006 331.393 297.211ZM286.835 310.725C284.239 308.894 282.064 306.8 280.543 304.55C278.092 300.924 277.51 296.628 278.212 292.208L273.81 294.529L273.801 294.534C258.2 302.447 250.711 308.678 251.302 312.871C251.775 316.221 253.148 319.119 255.107 320.909C257.15 322.776 259.696 323.34 262.49 322.387C264.527 321.692 274.316 316.956 286.835 310.725ZM329.492 265.18L329.445 265.202C329.453 265.199 329.461 265.195 329.469 265.192L329.492 265.18ZM198.407 116.183L199.476 116.678C199.502 116.676 199.527 116.676 199.553 116.677C201.335 116.455 202.298 115.728 202.587 114.475C202.887 113.173 202.285 112.063 200.644 111.051C200.603 111.026 200.566 110.997 200.533 110.965L188.623 105.51C188.504 105.456 188.409 105.37 188.344 105.267C188.344 105.267 188.344 105.267 188.344 105.267C186.743 105.246 185.841 105.892 185.47 107.297C185.065 108.831 185.579 109.979 187.109 110.89C187.211 110.95 187.288 111.03 187.34 111.12C187.424 111.123 187.507 111.142 187.588 111.18L198.145 116.062C196.983 115.312 196.733 114.11 197.386 112.702C198.057 111.257 199.143 110.697 200.428 111.245C200.76 111.387 200.914 111.772 200.773 112.105C200.631 112.437 200.246 112.592 199.914 112.45C199.344 112.207 198.969 112.4 198.573 113.254C198.172 114.119 198.281 114.61 198.894 114.986C199.202 115.175 199.298 115.579 199.109 115.887C198.959 116.132 198.673 116.243 198.407 116.183ZM199.261 118.021L187.039 112.368C186.921 112.314 186.827 112.229 186.762 112.128C185.128 112.532 184.162 113.468 183.78 114.994C183.508 116.08 183.589 117.023 184.012 117.851C184.312 118.438 184.8 118.907 185.398 119.183L188.89 120.799C188.929 120.807 188.967 120.818 189.005 120.834L196.232 123.75C198.126 123.906 199.336 123.308 200.004 121.939C200.644 120.626 200.417 119.356 199.261 118.021ZM191.352 123.193L190.096 134.022L205.895 131.533C208.22 131.167 210.015 129.293 210.282 126.953L213.971 94.6501C211.592 92.674 211.666 90.131 214.121 87.3347C213.677 86.8178 212.992 86.5234 212.264 86.6071C210.016 86.8659 208.7 88.0311 208.2 90.2008C208.007 91.0362 207.087 94.4587 205.431 100.504C205.34 100.836 205.008 101.041 204.67 100.973L197.729 99.5702L202.954 102.295C202.971 102.304 202.989 102.314 203.006 102.325C205.074 103.661 205.934 105.383 205.471 107.391C205.092 109.033 204.002 110.115 202.281 110.616C203.675 111.781 204.228 113.184 203.862 114.77C203.504 116.323 202.431 117.331 200.732 117.782C201.794 119.314 201.959 120.915 201.18 122.513C200.247 124.427 198.476 125.278 196.016 125.046C195.953 125.04 195.891 125.025 195.832 125.001L191.352 123.193ZM193.131 98.6411L190.864 98.1829C190.85 98.1801 190.835 98.1791 190.821 98.18C188.602 98.32 187.427 99.1105 187.108 100.566C186.796 101.993 187.304 103.122 188.716 104.068C188.798 104.123 188.861 104.188 188.907 104.26C188.995 104.262 189.083 104.281 189.168 104.319L200.712 109.607C200.764 109.585 200.821 109.57 200.88 109.563C202.812 109.332 203.867 108.523 204.196 107.097C204.523 105.678 203.937 104.493 202.321 103.442L193.214 98.6929C193.185 98.6775 193.157 98.6601 193.131 98.6411ZM214.634 88.769C213.35 90.4422 213.203 91.8044 214.16 92.9958L214.62 88.9631C214.628 88.8986 214.632 88.8338 214.634 88.769ZM215.352 94.093C215.513 94.314 215.523 94.6218 215.357 94.8573C215.325 94.9011 215.29 94.9401 215.251 94.9738L211.582 127.102C211.248 130.027 209.005 132.369 206.098 132.827L189.448 135.45C189.021 135.517 188.647 135.158 188.697 134.727L190.081 122.793L184.849 120.372C183.985 119.973 183.281 119.295 182.847 118.448C182.273 117.326 182.164 116.058 182.51 114.675C182.92 113.038 183.888 111.876 185.368 111.222C184.163 110.096 183.759 108.651 184.205 106.962C184.596 105.481 185.487 104.531 186.809 104.149C185.845 103.069 185.506 101.765 185.83 100.286C186.288 98.1891 187.987 97.0464 190.739 96.8729C190.867 96.8648 190.997 96.8736 191.123 96.8992L204.33 99.5682C205.877 93.9194 206.744 90.688 206.924 89.9062C207.55 87.1939 209.319 85.6278 212.115 85.306C214 85.0891 215.703 86.4424 215.92 88.3286C215.95 88.5888 215.95 88.8516 215.921 89.1118L215.352 94.093ZM200.794 107.601C201.073 107.831 201.112 108.244 200.882 108.523C200.652 108.802 200.24 108.841 199.961 108.611C198.86 107.701 198.76 106.456 199.619 105.129C200.484 103.791 201.637 103.388 202.833 104.11C203.142 104.297 203.242 104.699 203.055 105.009C202.868 105.319 202.466 105.418 202.157 105.231C201.626 104.911 201.228 105.05 200.717 105.84C200.2 106.641 200.24 107.143 200.794 107.601ZM196.326 121.857C196.62 122.067 196.689 122.476 196.479 122.77C196.269 123.065 195.86 123.133 195.566 122.923C194.404 122.092 194.218 120.857 194.982 119.473C195.751 118.078 196.874 117.595 198.117 118.232C198.439 118.397 198.566 118.792 198.401 119.114C198.237 119.435 197.842 119.563 197.521 119.398C196.969 119.116 196.582 119.282 196.127 120.106C195.667 120.941 195.742 121.439 196.326 121.857ZM173.497 209.04C172.924 211.701 172.555 213.412 172.392 214.173L213.153 222.177L214.29 217.609L173.497 209.04ZM161.16 211.968L171.067 213.913L172.18 208.764L133.312 200.6L132.252 205.592L161.16 211.968ZM172.543 207.085L184.106 153.579L144.73 146.843L133.586 199.311L172.543 207.085ZM159.997 172.418C161.029 172.917 161.923 173.687 162.277 174.391C163.223 176.276 163.286 178.504 161.886 181.106C161.014 182.727 159.168 183.335 157.049 182.992C155.164 182.687 153.336 181.659 152.478 180.362C151.621 179.065 151.763 177.36 152.654 175.654C153.423 174.182 154.692 172.854 155.919 172.243C156.404 172.002 156.922 171.874 157.457 171.848L156.03 168.892C155.873 168.567 156.009 168.175 156.334 168.018C156.66 167.861 157.051 167.997 157.208 168.323L158.295 170.574L158.642 168.386C158.698 168.028 159.033 167.785 159.39 167.841C159.747 167.898 159.991 168.233 159.934 168.59L159.559 170.963L161.378 168.993C161.624 168.728 162.038 168.712 162.303 168.957C162.568 169.203 162.585 169.617 162.339 169.883L159.997 172.418ZM159.287 173.532C158.282 173.084 157.294 173.022 156.501 173.416C155.536 173.896 154.461 175.022 153.814 176.261C153.122 177.586 153.02 178.808 153.569 179.639C154.207 180.604 155.71 181.449 157.258 181.699C158.881 181.962 160.167 181.538 160.734 180.485C161.921 178.279 161.871 176.499 161.107 174.98C160.885 174.537 160.138 173.912 159.287 173.532ZM190.755 208.124C190.881 207.785 191.258 207.614 191.597 207.74C191.935 207.867 192.107 208.245 191.98 208.583C191.48 209.921 190.335 210.421 188.802 210.041C187.256 209.658 186.5 208.698 186.793 207.331C186.869 206.977 187.217 206.752 187.57 206.828C187.923 206.904 188.148 207.252 188.072 207.606C187.942 208.212 188.204 208.543 189.116 208.77C190.041 208.999 190.503 208.797 190.755 208.124ZM199.298 210.407C199.424 210.068 199.801 209.896 200.14 210.023C200.478 210.15 200.65 210.527 200.523 210.866C200.022 212.204 198.878 212.704 197.345 212.324C195.799 211.941 195.043 210.981 195.336 209.614C195.412 209.26 195.759 209.035 196.113 209.111C196.466 209.187 196.691 209.535 196.615 209.888C196.485 210.495 196.747 210.826 197.659 211.052C198.584 211.281 199.046 211.08 199.298 210.407Z" fill="white"/>
<path fill-rule="evenodd" clip-rule="evenodd" d="M201.613 196.137L200.805 194.876L182.117 167.921L184.888 153.048L183.585 152.254L185.85 132.428C186 131.111 187.058 130.083 188.377 129.971L212.166 127.946V162.426L232.198 174.165L234.515 169.027C239.638 171.776 243.326 173.369 245.58 173.805C247.41 174.16 249.964 174.821 253.899 174.821C254.553 174.821 255.55 174.742 256.888 174.583L256.587 178.475L274.073 181.802C277.084 182.375 279.539 184.554 280.467 187.478L294.319 231.14C295.467 234.759 293.466 238.625 289.849 239.774C288.649 240.155 287.366 240.199 286.142 239.9L228.592 225.848L222.461 213.003C221.22 210.402 219.315 208.176 216.938 206.548L202.535 196.686C202.236 196.481 201.928 196.298 201.613 196.137ZM244.237 202.555C243.882 202.485 243.538 202.716 243.468 203.07C243.397 203.425 243.628 203.77 243.982 203.84L256.651 206.354C257.147 206.453 257.562 205.974 257.396 205.496L253.144 193.295C253.025 192.954 252.652 192.773 252.311 192.892C251.97 193.012 251.79 193.385 251.909 193.726L255.784 204.847L244.237 202.555Z" fill="#7B61FF"/>
</g>
<defs>
<clipPath id="clip0">
<rect width="433" height="353" fill="white"/>
</clipPath>
</defs>
</svg>
