<svg xmlns="http://www.w3.org/2000/svg" width="239" height="134" viewBox="0 0 239 134" fill="none">
<path fill-rule="evenodd" clip-rule="evenodd" d="M131.506 94.4748L132.721 95.8343L112.466 98.6722V86.4642H70.2249V110.74H58.3965L55.3555 98.6722L76.6089 80.9027L68.2734 70.1944L91.3453 74.0246L92.2987 69.9372L109.764 66.9353L110.793 69.6429L126.609 61.9764L122.925 71.3976L127.894 70.1944L132.754 59.5618C133.128 59.8396 133.582 60.004 134.061 60.0223L144.578 60.4253L147.489 60.1415C148.257 60.0666 148.954 59.7685 149.518 59.3148L142.048 94.0368L131.506 94.4748ZM151.068 51.4115L151.209 51.456L151.049 52.1995L151.068 51.4115Z" fill="#7B61FF"/>
<path fill-rule="evenodd" clip-rule="evenodd" d="M111.664 129.069L120.108 166.892L121.511 176.156L56.7119 176.693C56.6025 176.694 56.4935 176.682 56.387 176.658L23.1427 177.112C22.6862 177.118 22.5416 176.499 22.9537 176.303L44.5749 166.006L50.2332 153.293H46.0736C45.8385 153.293 45.648 153.103 45.648 152.868V110.688C45.648 110.454 45.8385 110.263 46.0736 110.263H69.8008V86.4642C69.8008 86.2295 69.9913 86.0392 70.2263 86.0392H112.467C112.702 86.0392 112.893 86.2295 112.893 86.4642V98.4383L138.774 91.6978C138.855 91.6769 138.935 91.6589 139.017 91.6437C140.923 91.2887 142.757 92.5439 143.112 94.4475L156.033 163.611C156.048 163.695 156.056 163.779 156.056 163.864C156.056 164.627 155.437 165.246 154.673 165.246H153.52L154.361 167.667L170.277 171.312C170.757 171.421 171.221 171.587 171.661 171.805L179.688 175.776C180.091 175.975 179.949 176.581 179.499 176.581H159.09C159.085 176.582 159.08 176.582 159.076 176.581H140.625C140.618 176.582 140.612 176.582 140.605 176.581H122.926C122.672 176.581 122.475 176.361 122.503 176.109L123.738 165.246H120.613L112.535 129.064C112.513 129.067 112.49 129.069 112.467 129.069H111.664ZM51.1647 153.293L48.3766 159.557C48.4808 159.482 48.618 159.454 48.7508 159.494C51.5624 160.346 55.2825 159.425 59.9046 156.689C59.9444 156.665 59.9864 156.649 60.0292 156.64L60.8815 153.293H51.1647ZM127.198 165.246C134.199 166.461 138.79 169.96 140.915 175.732H158.32L153.778 168.367C153.713 168.317 153.662 168.248 153.634 168.168L152.619 165.246H127.198ZM59.7422 157.766C55.204 160.344 51.4597 161.203 48.5035 160.307C48.3349 160.256 48.2213 160.11 48.2038 159.946L45.295 166.481L41.6902 176.008L55.4143 175.821C55.3105 175.56 55.2853 175.265 55.3599 174.972L59.7422 157.766ZM154.97 168.679L159.32 175.732H177.681L171.283 172.566C170.903 172.378 170.501 172.235 170.087 172.14L154.97 168.679ZM124.546 165.674L123.403 175.732H140.005C137.718 169.854 132.67 166.542 124.788 165.78C124.694 165.771 124.611 165.732 124.546 165.674ZM40.7758 176.021C40.7775 176.016 40.7792 176.011 40.781 176.006L44.128 167.16L25.0735 176.235L40.7758 176.021ZM70.6519 110.263H88.2079H88.3143C88.5494 110.263 88.74 110.454 88.74 110.688V128.219H112.042V86.8892H70.6519V110.263ZM69.8008 111.113H46.4992V152.443H87.8887V129.069H70.2263C69.9913 129.069 69.8008 128.879 69.8008 128.644V111.113ZM101.806 57.3445C102.331 57.3478 102.842 57.402 103.339 57.5073C103.917 57.6296 104.38 58.0606 104.542 58.6276C104.785 59.4737 104.295 60.3561 103.447 60.5984C102.854 60.7681 102.235 60.8642 101.59 60.8866C100.946 60.9091 100.321 60.8566 99.7176 60.7288C99.1398 60.6064 98.6769 60.1755 98.5143 59.6085C98.28 58.7916 98.7289 57.9409 99.5227 57.665L96.9637 58.0243L99.7421 68.6646L91.0481 70.1644C92.2205 62.485 92.9876 57.9563 93.3492 56.5782C93.6616 55.3878 95.2309 54.4016 96.7479 53.7476L98.0528 47.4382C98.1241 47.0934 98.4618 46.8716 98.8071 46.9428C98.9949 46.9815 99.1553 47.1025 99.2439 47.2722L102.185 52.9001C102.249 52.9093 102.313 52.9192 102.376 52.9296C104.935 53.1572 107.097 55.0605 107.577 57.6632L107.748 58.5861C108.386 59.3796 108.999 60.2098 109.588 61.0769C109.768 61.3425 109.599 61.7042 109.28 61.7378L108.348 61.8359L109.305 67.013L108.466 67.1548L107.499 61.9254L103.883 62.3063C103.65 62.3309 103.44 62.1617 103.415 61.9282C103.391 61.6948 103.56 61.4856 103.794 61.461L108.477 60.9677C107.435 59.4901 106.315 58.1274 105.119 56.8794L101.806 57.3445ZM106.394 56.7003L106.151 56.7345C106.299 56.8944 106.446 57.0561 106.591 57.2195C106.535 57.0414 106.469 56.8682 106.394 56.7003ZM102.248 58.2114C102.001 58.1942 101.751 58.19 101.496 58.1989C100.92 58.219 100.37 58.3044 99.8436 58.4548C99.4482 58.5678 99.2194 58.9796 99.3326 59.3745C99.4085 59.6391 99.6245 59.8402 99.8942 59.8973C100.429 60.0106 100.984 60.0573 101.56 60.0372C102.136 60.0171 102.687 59.9317 103.213 59.7813C103.608 59.6682 103.837 59.2564 103.724 58.8616C103.702 58.786 103.669 58.7157 103.627 58.6523C103.627 58.6568 103.628 58.6613 103.629 58.6659C103.702 59.1277 103.409 59.5579 102.973 59.6268C102.538 59.6956 102.125 59.3771 102.052 58.9152C102.01 58.6491 102.09 58.3934 102.248 58.2114ZM105.604 63.7922C104.936 64.1921 104.117 64.2378 103.171 63.9511C102.946 63.8829 102.819 63.6456 102.887 63.421C102.956 63.1964 103.193 63.0696 103.418 63.1378C104.15 63.3597 104.725 63.3276 105.166 63.0633C105.367 62.9426 105.629 63.0079 105.75 63.2091C105.871 63.4104 105.805 63.6715 105.604 63.7922ZM132.438 43.0254H129.278C128.632 43.0254 128.108 42.5021 128.108 41.8567V39.838C128.108 39.1925 128.632 38.6693 129.278 38.6693H134.995L129.527 31.3642C129.437 31.2446 129.417 31.0867 129.474 30.9485L139.728 5.99314L103.196 16.1056C103.205 16.1898 103.21 16.2753 103.21 16.362C103.21 17.5942 102.21 18.5932 100.976 18.5932C100.613 18.5932 100.271 18.507 99.9684 18.354L78.3203 54.1306C78.6476 54.5187 78.8447 55.0198 78.8447 55.5669C78.8447 56.7991 77.8444 57.7981 76.6104 57.7981C75.3807 57.7981 74.3831 56.8063 74.376 55.5801L52.2277 42.8757C51.8394 43.3951 51.2301 43.7399 50.5389 43.7712L42.3518 71.3042C42.989 71.6973 43.4136 72.401 43.4136 73.2038C43.4136 74.436 42.4132 75.435 41.1792 75.435C40.8271 75.435 40.4941 75.3537 40.1979 75.2089L35.9414 80.2402L41.1936 84.1245L32.3259 93.0486C29.7981 95.5926 26.1563 96.6926 22.6402 95.9742C17.0968 94.8417 14.4069 96.6131 14.5706 101.288C14.6319 103.041 14.9648 104.576 15.4262 105.991C19.8479 104.982 22.0899 104.73 22.1522 105.237C22.2157 105.753 20.5589 107.426 17.1817 110.256C17.8681 111.777 18.5188 113.276 18.8881 114.921C23.1051 115.388 25.1621 115.862 25.0593 116.345C24.9542 116.838 22.9665 117.834 19.0962 119.333C18.9166 120.744 18.4957 122.298 17.7466 124.052C14.9705 130.553 14.2806 136.696 15.6768 142.482C15.7043 142.597 15.634 142.711 15.5198 142.739C15.4297 142.76 15.3359 142.721 15.2879 142.642C12.7316 138.426 11.2252 135.196 10.7689 132.953C9.89209 128.643 12.2636 124.074 12.8858 119.83C9.19976 119.714 7.38484 119.428 7.44108 118.971C7.50077 118.486 9.28104 117.377 12.7819 115.643C12.5464 114.299 12.2206 113.077 11.8397 111.951C7.63666 112.365 5.53516 112.326 5.53516 111.833C5.53516 111.356 7.08246 110.093 10.1771 108.044C7.17675 102.105 3.74797 98.8328 9.31532 91.4332C14.1044 85.068 20.2022 88.8772 23.0219 84.7574C24.9018 82.0108 26.8988 78.7971 29.0129 75.1162L35.256 79.7333L39.5178 74.6958C39.1615 74.3005 38.9448 73.7774 38.9448 73.2038C38.9448 71.9715 39.9451 70.9726 41.1792 70.9726C41.3066 70.9726 41.4316 70.9833 41.5532 71.0037L49.6883 43.6456C48.8219 43.3385 48.2016 42.5128 48.2016 41.5424C48.2016 40.3101 49.2019 39.3112 50.436 39.3112C51.67 39.3112 52.6704 40.3101 52.6704 41.5424C52.6704 41.7378 52.6452 41.9273 52.598 42.1079L74.5508 54.7002C74.8896 53.8984 75.6842 53.3357 76.6104 53.3357C76.9863 53.3357 77.3406 53.4285 77.6516 53.5923L99.2919 17.8284C98.9492 17.4363 98.7415 16.9234 98.7415 16.362C98.7415 15.1297 99.7419 14.1308 100.976 14.1308C101.823 14.1308 102.56 14.6013 102.939 15.2948L140.132 4.99916C140.162 4.86969 140.253 4.75632 140.386 4.70212C140.44 4.67987 140.496 4.6697 140.552 4.67036C140.607 4.6697 140.664 4.67991 140.718 4.70225C140.814 4.74138 140.887 4.81121 140.932 4.89562C141.022 4.87313 141.12 4.87961 141.211 4.92063L167.294 16.6874C167.703 16.227 168.301 15.937 168.966 15.937C170.2 15.937 171.2 16.9359 171.2 18.1682C171.2 18.9401 170.807 19.6204 170.211 20.021L179.751 48.572C179.843 48.5605 179.936 48.5546 180.031 48.5546C181.045 48.5546 181.901 49.2289 182.174 50.1529L202.848 50.786C203.083 50.7932 203.267 50.9892 203.26 51.2238C203.258 51.3026 203.234 51.3757 203.195 51.4377L202.746 58.5981L222.272 41.5424V51.6078L214.891 59.6121H221.1L212.126 71.3976L218.462 73.3635L201.222 87.9701V114.413L168.984 122.109C168.87 122.136 168.754 122.149 168.637 122.149C167.815 122.149 167.148 121.483 167.148 120.662V120.091C167.203 120.093 167.261 120.084 167.316 120.062L193.752 109.809C193.911 109.748 194.017 109.598 194.024 109.429L194.745 90.0752C194.755 89.7943 194.495 89.5808 194.221 89.646L158.037 98.2644C157.944 98.2866 157.865 98.3376 157.808 98.4058L154.787 93.127C154.143 89.9668 153.932 88.2779 154.156 88.0603C154.627 87.6023 156.796 87.1146 160.663 86.5973C168.16 83.4797 172.386 81.1346 173.342 79.562C173.98 78.5128 169.682 72.2215 173.342 69.0103C176.993 65.8078 178.63 65.5097 185.338 61.361C188.659 59.3073 194.364 56.0618 202.454 51.6245L182.255 51.0057C182.144 52.1348 181.191 53.017 180.031 53.017C178.797 53.017 177.797 52.0181 177.797 50.7858C177.797 49.9484 178.259 49.2187 178.942 48.8371L169.424 20.3523C169.276 20.3831 169.123 20.3994 168.966 20.3994C167.732 20.3994 166.731 19.4004 166.731 18.1682C166.731 17.9071 166.776 17.6564 166.859 17.4235L141.341 5.91228L151.605 30.9488C151.661 31.0867 151.641 31.2441 151.552 31.3636L146.104 38.6693H151.729C152.375 38.6693 152.899 39.1925 152.899 39.838V41.8567C152.899 42.5021 152.375 43.0254 151.729 43.0254H147.857C149.986 43.997 151.448 46.1609 151.402 48.6474C151.402 48.6655 151.402 48.6655 151.401 48.6835L151.215 56.3297C151.163 58.4768 149.514 60.2474 147.374 60.4561L144.462 60.74C144.443 60.7419 144.424 60.7425 144.405 60.7417L143.589 60.7105V62.6119C143.589 64.3429 142.184 65.7461 140.45 65.7461C138.717 65.7461 137.312 64.3429 137.312 62.6119V60.4699L133.888 60.3387C132.958 60.3031 132.109 59.803 131.627 59.008C131.279 58.4331 131.115 57.7466 131.129 56.957C131.153 55.715 131.668 54.7063 132.653 53.9563C131.572 53.3735 131.029 52.4196 131.07 51.1392C131.107 49.9397 131.673 49.0185 132.726 48.4055C131.686 47.6407 131.143 46.6548 131.129 45.4679C131.118 44.44 131.565 43.6221 132.438 43.0254ZM140.942 27.9394C142.549 28.105 143.802 29.4613 143.802 31.1098C143.802 32.8702 142.373 34.2972 140.61 34.2972C138.847 34.2972 137.418 32.8702 137.418 31.1098C137.418 29.5262 138.575 28.2123 140.09 27.9645L140.177 7.13962L130.353 31.0483L136.058 38.6693H145.043L150.726 31.0486L141.027 7.38858L140.942 27.9394ZM158.204 99.0972C158.214 99.0956 158.224 99.0936 158.234 99.0912L193.873 90.6026L193.183 109.118L167.148 119.216V118.352L167.184 118.335L167.358 112.837C167.369 112.485 167.664 112.209 168.016 112.22C168.203 112.226 168.377 112.313 168.494 112.458L171.514 116.215L171.525 116.258L174.585 114.794L174.755 109.427C174.766 109.075 175.061 108.799 175.413 108.81C175.6 108.816 175.774 108.903 175.891 109.048L178.865 112.747L181.982 111.256L182.15 105.947C182.161 105.595 182.456 105.318 182.809 105.33C182.995 105.335 183.169 105.422 183.286 105.568L186.227 109.225L190.698 107.086L191.66 93.3395L182.401 95.269C182.293 95.7344 182.21 96.3734 182.153 97.1859C182.085 98.1563 182.061 99.2711 182.081 100.53C182.083 100.659 182.046 100.785 181.975 100.892C181.781 101.186 181.385 101.266 181.091 101.072L174.72 96.8697L174.599 96.8949C174.559 97.306 174.539 97.8077 174.539 98.3999C174.539 99.3671 174.592 100.474 174.699 101.72C174.71 101.851 174.68 101.982 174.614 102.096C174.436 102.4 174.045 102.502 173.741 102.325L167.106 98.4565L167.012 98.476C166.927 98.9546 166.884 99.6262 166.884 100.491C166.884 101.458 166.938 102.565 167.044 103.811C167.055 103.942 167.026 104.073 166.959 104.187C166.782 104.491 166.391 104.593 166.086 104.416L158.825 100.182L158.204 99.0972ZM181.84 74.703L182.609 66.9832L174.779 72.2825L176.107 79.2973L181.84 74.703ZM160.28 88.837C160.512 88.7965 160.667 88.5762 160.626 88.345C160.586 88.1139 160.365 87.9593 160.133 87.9998L155.991 88.7246C155.737 88.769 155.58 89.0266 155.658 89.2718L156.706 92.5698C156.777 92.7935 157.017 92.9173 157.241 92.8463C157.465 92.7753 157.589 92.5364 157.518 92.3127L156.617 89.478L160.28 88.837ZM176.471 81.0323C176.286 81.1768 176.253 81.4439 176.397 81.6289C176.542 81.8139 176.809 81.8467 176.995 81.7022L183.904 76.3129C183.991 76.2452 184.048 76.1466 184.063 76.0377L185.636 64.9696C185.669 64.7372 185.507 64.5221 185.274 64.4891C185.041 64.4562 184.826 64.6178 184.793 64.8502L183.245 75.7486L176.471 81.0323ZM175.765 72.5881C175.74 72.3547 175.91 72.1457 176.144 72.1214C176.378 72.0971 176.587 72.2666 176.611 72.5001L177.117 77.3484C177.142 77.5818 176.972 77.7908 176.738 77.8151C176.504 77.8394 176.295 77.6699 176.271 77.4365L175.765 72.5881ZM41.1792 74.585C41.9431 74.585 42.5624 73.9666 42.5624 73.2038C42.5624 72.441 41.9431 71.8226 41.1792 71.8226C40.4152 71.8226 39.796 72.441 39.796 73.2038C39.796 73.9666 40.4152 74.585 41.1792 74.585ZM50.436 42.9236C51.1999 42.9236 51.8192 42.3052 51.8192 41.5424C51.8192 40.7796 51.1999 40.1612 50.436 40.1612C49.672 40.1612 49.0528 40.7796 49.0528 41.5424C49.0528 42.3052 49.672 42.9236 50.436 42.9236ZM76.6104 56.9481C77.3743 56.9481 77.9936 56.3297 77.9936 55.5669C77.9936 54.8041 77.3743 54.1857 76.6104 54.1857C75.8464 54.1857 75.2271 54.8041 75.2271 55.5669C75.2271 56.3297 75.8464 56.9481 76.6104 56.9481ZM100.976 17.7432C101.74 17.7432 102.359 17.1248 102.359 16.362C102.359 15.5992 101.74 14.9808 100.976 14.9808C100.212 14.9808 99.5928 15.5992 99.5928 16.362C99.5928 17.1248 100.212 17.7432 100.976 17.7432ZM168.966 19.5494C169.729 19.5494 170.349 18.931 170.349 18.1682C170.349 17.4054 169.729 16.787 168.966 16.787C168.202 16.787 167.582 17.4054 167.582 18.1682C167.582 18.931 168.202 19.5494 168.966 19.5494ZM180.031 52.167C180.795 52.167 181.414 51.5486 181.414 50.7858C181.414 50.023 180.795 49.4046 180.031 49.4046C179.267 49.4046 178.648 50.023 178.648 50.7858C178.648 51.5486 179.267 52.167 180.031 52.167ZM140.623 43.243L134.271 43.1266C134.26 43.1264 134.249 43.1279 134.238 43.1311C132.682 43.5959 131.968 44.3593 131.98 45.4581C131.993 46.5348 132.567 47.3897 133.754 48.0561H140.61V43.3486C140.61 43.3121 140.615 43.2767 140.623 43.243ZM141.451 43.2582C141.458 43.2873 141.461 43.3175 141.461 43.3486V59.7783L144.408 59.8913L147.291 59.6102C149.004 59.4432 150.322 58.0267 150.364 56.3091L150.55 48.6629C150.551 48.6473 150.551 48.6473 150.551 48.6318C150.604 45.757 148.313 43.3838 145.434 43.3311L141.451 43.2582ZM140.61 59.7457V54.3246H133.694C133.676 54.3246 133.658 54.3235 133.64 54.3213C132.542 54.9497 132.002 55.8198 131.98 56.9728C131.969 57.6094 132.095 58.1382 132.355 58.5681C132.689 59.1185 133.277 59.4647 133.921 59.4894L140.61 59.7457ZM140.61 53.4747V48.9061H133.694C133.675 48.9061 133.656 48.9048 133.638 48.9024C132.505 49.3714 131.954 50.11 131.92 51.1659C131.884 52.3331 132.447 53.0755 133.692 53.4737C133.693 53.474 133.694 53.4744 133.695 53.4747H140.61Z" fill="#212121"/>
</svg>