<svg width="230" height="133" viewBox="0 0 230 133" fill="none" xmlns="http://www.w3.org/2000/svg">
<path d="M160.701 75.3604C160.699 75.3604 160.276 75.7371 160.276 75.7371C159.67 76.277 159.047 76.8548 158.295 76.5658C158.087 76.4905 157.941 76.2145 157.906 76.0003C157.872 74.4552 158.569 73.0236 159.246 71.6296L159.42 71.265C161.366 68.0244 163.628 64.206 166.951 61.5559C167.511 61.1531 168.118 60.8146 168.759 61.0786C168.907 61.2164 169.079 61.4553 169.079 61.6937C169.079 61.7694 169.011 61.9703 168.973 62.0327C168.045 63.5282 167.161 65.0982 166.301 66.6053C164.622 69.5825 162.88 72.6596 160.701 75.3608L160.701 75.3604ZM142.699 67.7232C142.572 67.8117 140.327 67.0577 139.893 64.9852C139.525 63.2009 140.757 61.8067 141.95 61.1038C142.461 60.7017 143.232 60.5639 143.797 60.764C144.322 61.1162 144.464 61.7447 144.464 62.422C144.464 62.8374 144.409 63.264 144.36 63.6533L144.35 63.7415C143.976 65.1354 143.403 66.5047 142.699 67.7234V67.7232ZM134.125 76.1519C133.896 75.8128 133.82 75.442 133.812 75.041C133.768 72.5781 136.426 68.1674 138.301 65.7644H138.305C139.091 67.4808 140.871 68.5841 141.946 69.049C140.611 72.0137 136.034 78.3627 134.125 76.152L134.125 76.1519ZM166.52 76.5893C166.075 76.8907 165.451 76.659 165.685 75.9684C166.266 74.2098 168.577 70.626 168.577 70.626L175.013 59.2417H170.604C170.395 59.585 169.947 60.3733 169.947 60.3733C169.743 60.0345 169.133 59.281 168.882 59.1183C167.805 58.4394 166.224 58.7604 165.134 59.3757C160.394 62.1396 156.936 67.6005 154.208 71.8585C154.208 71.8585 151.337 76.5922 149.743 76.9443C148.499 77.0449 148.627 75.3735 148.681 74.9841C149.162 72.1699 150.279 69.4946 151.405 67.0703C153.694 65.4876 156.307 63.4151 158.682 61.1416C163.834 56.2297 168.178 50.6649 168.813 49.4216C168.813 49.4216 168.126 49.5599 167.314 49.5848C163.35 55.0991 155.238 63.1138 152.779 64.3064C153.868 61.6932 160.907 49.2202 166.898 43.2541L167.84 42.3494C169.298 40.93 170.808 39.4729 171.985 39.2342C172.109 39.2217 172.269 39.2342 172.408 39.5236C172.46 40.6288 172.048 41.4454 171.574 42.3748L170.911 43.7316C170.911 43.7316 171.851 43.5557 172.468 43.3542C173.184 42.0108 173.977 40.503 173.684 38.7071C173.587 38.1292 173.167 37.6897 172.619 37.5891C170.832 37.25 168.885 38.5685 167.318 39.6365L167.254 39.6739C159.199 45.9672 152.397 55.0368 146.45 67.422C146.019 67.7481 144.354 68.138 144.071 67.9493C144.658 66.7437 145.398 65.1229 145.768 63.3644C145.832 62.8619 145.891 62.3471 145.891 61.8448C145.891 60.7636 145.631 59.7465 144.66 59.0433C143.521 58.4779 142.114 58.7419 141.165 59.1687C136.914 60.9273 133.737 65.2738 131.444 68.8531C130.211 71.1273 128.982 73.563 128.641 76.3523C128.401 78.5376 128.89 79.9444 130.136 80.6481C131.417 81.3009 133.03 80.6224 133.663 80.2961C137.97 78.0352 140.979 73.5009 143.351 69.3554C143.445 69.343 144.74 69.3056 145.72 69.054C145.733 69.054 145.738 69.054 145.76 69.0671C145.704 69.2547 145.198 70.7626 145.198 70.7626C143.694 75.1586 142.999 78.1484 144.419 79.9197C146.448 82.4196 149.807 79.8322 152.54 76.4149C151.954 80.5098 154.082 81.1507 155.704 80.8369C157.568 80.3347 159.644 78.3496 160.608 77.3325C160.298 78.5255 160.383 80.6612 162.078 80.8745C163.24 81.0887 164.109 80.4584 165.115 79.9181C168.724 77.9584 173.045 71.4283 174.167 69.5403H172.696C171.101 71.9434 169.072 75.0941 166.52 76.5898L166.52 76.5893ZM110.918 52.2046H115.049L117.38 48.4286H113.249L110.918 52.2046ZM176.902 42.1734C173.752 43.9575 170.487 45.1128 166.535 44.7109C165.44 45.9423 164.373 47.2108 163.39 48.5171C168.937 49.9239 174.818 46.7962 178.098 43.8196C181.567 40.8173 183.347 37.0367 183.347 37.0367C183.347 37.0367 180.746 40.0009 176.902 42.1736L176.902 42.1734ZM142.169 41.2191C141.512 48.7306 135.657 53.1403 134.208 53.4911C133.33 53.6668 131.832 53.2776 133.169 50.1252C135.139 45.8791 138.501 42.2746 142.109 40.4278C142.197 40.7419 142.194 40.9423 142.169 41.219L142.169 41.2191ZM130.759 60.1486C130.34 59.2444 129.344 58.6665 128.283 58.7292C124.836 59.0434 121.466 61.8696 119.695 65.927C118.767 68.0123 118.26 69.733 117.927 72.4712C118.999 71.2406 121.185 69.2184 123.666 68.1129C123.666 68.1129 124.003 65.4877 125.724 63.1512C126.375 62.1838 127.679 60.6263 129.142 61.0407C130.421 61.468 129.972 64.9978 128.272 68.4135C127.015 70.9261 125.09 73.439 123.143 75.172C121.422 76.6292 118.875 78.3876 116.647 77.0311C115.244 76.2025 114.528 74.4686 114.679 72.2327C115.35 65.8896 118.245 60.488 122.389 54.3331C126.661 48.6178 131.371 42.7518 137.716 39.6232C139.01 38.9701 140.209 38.8194 141.244 39.2214C141.244 39.2214 135.289 42.4873 132.449 48.5296C131.727 50.0623 130.723 52.1343 131.734 53.9684C132.263 54.9228 133.201 54.9983 133.957 54.9481C137.437 54.144 139.685 50.9033 141.522 47.9391C142.587 45.6907 143.534 43.4547 143.534 40.9673C143.534 40.6659 143.518 40.2641 143.493 39.9623C145.155 39.0834 148.565 40.6406 148.565 40.6406C151.229 41.5202 156.902 45.8541 158.815 46.6827C159.749 45.6027 161.283 43.9699 162.146 43.1532L160.896 42.3869C158.894 41.1684 156.778 40.0127 154.696 38.8697C149.966 36.295 146.116 37.1992 144.157 37.9027C143.387 38.1789 142.683 38.4176 142.683 38.4176C141.229 36.835 138.844 36.9854 137.087 37.4127C130.768 39.2214 124.901 43.6302 118.611 51.2803C113.987 57.2721 111.118 62.4476 109.59 67.5596C108.411 71.0011 108.053 76.0632 110.929 79.0654C113.375 81.6146 116.618 81.0625 118.908 80.1457C123.87 77.7088 128.329 72.4578 130.551 66.4162C131.088 64.6202 131.683 62.0828 130.759 60.1482L130.759 60.1486ZM75.761 54.3207C75.7527 54.3458 74.9183 56.2548 74.9183 56.2548C74.7977 56.3552 74.607 56.3052 74.3884 56.2548L74.0138 56.1917C72.8378 55.8276 71.9506 55.0487 71.6772 54.1193C71.2999 52.3104 72.8495 50.8911 73.5323 50.3763C74.1873 49.9237 75.2058 49.6851 75.7972 50.1501C76.1619 50.5772 76.3001 51.1298 76.3001 51.7331C76.3002 52.5494 76.0476 53.4663 75.761 54.3207H75.761ZM73.9685 57.9505C73.9685 57.9505 73.9307 58.0639 73.9119 58.101C73.9071 58.101 72.0152 61.178 72.0152 61.178C70.8734 62.6982 69.4478 64.608 67.6656 65.5246C67.1374 65.7005 66.4072 65.8138 66.0352 65.3494C65.2463 64.4071 65.6529 63.1008 65.9832 62.0457L66.1001 61.6688C67.0471 59.1066 68.5497 56.8451 70.0121 54.747C70.0304 54.7347 70.0713 54.7222 70.0861 54.7222C70.0896 54.7348 70.0954 54.7348 70.098 54.76C71.0157 56.5182 72.7365 57.3344 74.0235 57.7118C74.0313 57.7118 74.0395 57.7242 74.0395 57.7495C74.0397 57.7869 74.0187 57.8375 73.9686 57.9501L73.9685 57.9505ZM97.6353 55.9282C98.4816 54.7603 100.945 51.6324 101.545 51.1049C103.565 49.3331 104.372 50.1127 104.442 50.665C102.557 54.0313 100.333 57.8874 98.241 61.3545C98.2451 61.3421 97.5865 62.3467 97.5865 62.3467C96.6627 63.7533 95.7325 64.9591 94.2154 65.8007C93.999 65.8639 93.6424 65.8891 93.405 65.7127C93.1193 65.5242 93.0066 65.2101 93.0388 64.8833C93.1297 63.8034 94.2324 60.5004 97.6353 55.928V55.9282ZM76.6611 48.2911C74.0501 46.5829 68.8023 49.8487 64.5992 55.4504C60.7554 60.4754 59.0957 66.3157 60.902 69.0165C63.5889 72.1944 68.577 67.5721 70.6982 65.0979L70.9718 64.8086C72.4143 63.2636 73.5288 61.4044 74.6075 59.6206C74.6075 59.6206 75.5989 57.9876 75.6463 57.9121C76.259 57.7995 76.997 57.6236 77.8287 57.3848C77.8169 57.4222 74.6468 62.7358 74.9702 65.3735C75.0709 66.1781 74.9939 69.1173 77.8717 70.009C81.7072 70.6501 84.7702 67.6852 87.4718 65.0474C87.4718 65.0474 87.9322 64.6082 88.1926 64.3574C88.1415 64.562 88.0909 64.7667 88.0408 64.9715C86.9179 68.8656 88.4315 69.6826 89.3783 69.9841C92.2397 70.8136 95.6582 66.6681 95.6692 66.6681C95.5806 67.9739 95.3214 69.0542 96.7018 69.9209C98.0047 70.3861 99.3233 69.6771 100.326 69.0113C103.936 66.4739 106.844 62.5028 109.193 59.0701H107.695C107.677 59.0701 103.997 64.3887 101.607 65.5448C101.604 65.5448 101.169 65.7674 100.918 65.5912C100.608 65.3273 100.731 64.7787 100.922 64.3901C100.934 64.3647 110.148 48.4286 110.148 48.4286H105.797C105.797 48.4286 105.322 49.1954 105.284 49.2456C105.254 49.2206 105.185 49.0887 105.136 49.0256C102.441 45.3076 96.3369 51.0265 91.7414 57.6582C89.9721 60.2084 87.7197 63.0797 85.384 65.1525C85.384 65.1525 81.9239 68.3154 80.4455 66.043C79.9051 65.0881 80.0713 63.6922 80.3762 62.7756C82.0975 57.8893 85.0636 53.455 88.4388 50.7789C89.3917 50.0382 90.4273 49.824 90.9413 50.1382C91.4309 50.4276 91.51 51.143 91.2001 51.6329C90.4141 51.6079 89.7843 51.8461 89.2723 52.3737C88.2637 53.4289 87.9133 54.4465 88.234 55.4014C89.7918 57.6121 92.8987 53.2407 92.7484 50.5777C92.6947 49.6229 92.1838 48.7187 91.4216 48.2786C90.2855 47.6007 88.5522 47.7762 87.4305 48.3167C85.929 48.8817 83.552 50.8536 82.1646 52.3864C80.4179 54.3086 77.4224 56.4438 76.4855 56.2046C76.7924 55.3878 79.3227 50.2254 76.6609 48.2915L76.6611 48.2911ZM98.5283 76.2397C93.4047 72.9484 86.4512 72.3709 75.2374 75.4734C63.2828 78.2748 59.2966 80.0706 54.0622 76.4656C52.0511 74.6946 51.3301 71.8432 51.8686 67.7361C53.1173 61.0406 56.4918 54.597 62.4861 47.4501C65.8319 43.7321 68.9354 40.5414 73.0335 39.2603C76.1743 38.4565 75.8806 40.918 75.5006 41.27C75.0996 41.27 74.4259 41.333 73.9053 41.6717C73.4828 41.9985 72.3228 43.0537 72.2605 44.4732C72.1707 46.6461 74.4258 46.1938 75.3984 45.0008C76.4468 43.6564 77.9962 41.0818 76.7774 38.6823C76.2666 37.8282 75.384 37.238 74.2881 37.037C70.5356 36.8231 67.0405 38.6069 63.8151 40.579C56.7631 45.4652 51.1204 52.2359 47.928 59.6471C46.0871 64.1187 44.4224 70.5241 46.9178 75.7377C48.8482 79.3551 52.8558 81.2766 57.6373 80.8748C60.9907 80.5235 65.0452 79.4426 67.7729 78.7901C70.5001 78.1365 84.46 73.3511 89.0473 81.6797C89.0473 81.6797 90.5726 78.727 94.3845 78.6641C97.5184 78.3757 102.04 79.5688 105.332 81.9801C104.235 80.3351 101.125 77.9108 98.5308 76.2399L98.5283 76.2397Z" fill="white"/>
</svg>
