<svg width="230" height="133" viewBox="0 0 230 133" fill="none" xmlns="http://www.w3.org/2000/svg">
<g clip-path="url(#clip0)">
<path fill-rule="evenodd" clip-rule="evenodd" d="M67.2928 66.2288C67.2928 62.8156 64.8479 60.9033 60.4446 60.9033H58.3367V71.7431C58.6379 71.8186 60.0677 72.1566 61.4218 72.1566C65.149 72.1546 67.2928 70.0176 67.2928 66.2288ZM58.3367 59.0645H59.954C63.416 59.0645 65.6735 57.6769 65.6735 54.4506C65.6755 51.4132 64.0561 49.9879 60.5942 49.9879C59.8045 49.9879 58.4883 50.2503 58.3367 50.288V59.0645ZM53.9734 54.713C53.9734 50.3258 53.4449 48.9383 51 48.0378V48H60.2572C67.0674 48 70.1146 50.137 70.1146 54.3393C70.1146 57.0031 68.0087 59.0645 64.7721 59.5535C68.6847 59.7026 71.7718 62.1039 71.7718 66.193C71.7718 70.9559 68.1961 73.5441 63.3801 74.1067C62.4767 74.22 61.5733 74.2578 60.5583 74.2578H53.9734V54.713Z" fill="white"/>
<path fill-rule="evenodd" clip-rule="evenodd" d="M83.7391 53.1764L80.1654 64.054H87.4284L83.7789 53.1764H83.7391ZM95.9676 74.2558H91.1137L88.254 66.3043H79.4495L76.7015 74.2558H73.6543L80.9152 53.9636C81.33 52.8762 81.6312 51.5623 81.6312 50.7373C81.6312 49.312 80.9152 48.5248 79.4116 48.0378V48H86.184L95.9676 74.2558Z" fill="white"/>
<path fill-rule="evenodd" clip-rule="evenodd" d="M102.592 54.713C102.592 50.3238 101.802 48.9363 99.3555 48.0358V48H106.957V74.2558H102.592V54.713Z" fill="white"/>
<path fill-rule="evenodd" clip-rule="evenodd" d="M116.253 54.713C116.253 50.3238 115.464 48.9363 113.017 48.0358V48H120.619V60.9033L131.341 48H134.879L126.488 57.9016L136.572 74.2558H131.192L123.478 60.9788L120.617 64.5788V74.2558H116.251V54.713H116.253Z" fill="white"/>
<path fill-rule="evenodd" clip-rule="evenodd" d="M148.087 53.1764L144.513 64.054H151.776L148.127 53.1764H148.087ZM160.315 74.2558H155.461L152.602 66.3043H143.797L141.049 74.2558H138.002L145.265 53.9636C145.678 52.8762 145.979 51.5623 145.979 50.7373C145.979 49.312 145.265 48.5248 143.759 48.0378V48H150.532L160.315 74.2558Z" fill="white"/>
<path fill-rule="evenodd" clip-rule="evenodd" d="M165.438 74.2558V54.715C165.438 50.3258 164.648 48.9383 162.201 48.0378V48H169.803V71.8544C170.028 71.8544 171.233 72.1546 172.437 72.1546H172.852H173.566C178.195 72.1546 179.361 70.5424 179.964 68.7037H180.002C180.002 70.5782 180.002 72.3792 180.002 74.2558H165.438Z" fill="white"/>
<path d="M174.599 54.0309H175.092V53.4107H177.976V52.5658L175.026 50.3633H174.599V52.5798H172.904V53.4107H174.599V54.0309ZM175.094 51.0133L177.26 52.5798H175.094V51.0133ZM177.623 56.3865C177.623 56.9491 177.312 57.2393 176.789 57.2393C176.145 57.2393 175.818 56.8775 175.818 56.1062V55.9611H175.413C175.413 56.9352 175.319 57.5216 174.53 57.5216C173.668 57.5216 173.283 56.8636 173.283 55.7305V55.1362H172.906V55.7285C172.906 57.5335 173.479 58.3943 174.536 58.3943C175.295 58.3943 175.724 57.7741 175.708 56.957H175.716C175.774 57.6289 176.354 58.0901 176.869 58.0901C177.702 58.0901 178.065 57.4759 178.065 56.5237C178.065 56.1042 177.914 55.5556 177.732 55.2097H177.05V55.2236C177.367 55.5337 177.623 56.0029 177.623 56.3865ZM172.811 61.0361C172.811 62.4436 174.145 62.8928 175.636 62.8928C177.07 62.8928 178.063 62.3362 178.063 61.0361C178.063 59.7281 177.07 59.1735 175.636 59.1735C174.145 59.1735 172.811 59.6287 172.811 61.0361ZM177.658 61.0361C177.658 61.708 176.847 62.0102 175.622 62.0102C174.406 62.0102 173.217 61.8651 173.217 61.0361C173.217 60.1993 174.406 60.0541 175.622 60.0541C176.847 60.0541 177.658 60.3583 177.658 61.0361ZM176.6 65.0516V63.6721H176.592C176.518 64.0398 176.273 64.171 175.989 64.1273L172.902 63.6721V64.1491L175.742 64.5467V64.5547L172.902 65.7673V66.2006L175.742 67.4351V67.443L172.902 67.7969V68.6556L176.598 68.1209V66.791H176.59C176.538 66.9998 176.422 67.1151 176.292 67.1151C176.199 67.1151 176.103 67.1011 176.017 67.0654L173.953 66.1708V66.1629L176.6 65.0516Z" fill="white"/>
<path d="M57.3897 80.5059V79.9652H53.9736V85.6326H54.5799V80.5079H57.3897V80.5059ZM61.9007 85.6306V79.9652H58.7717V82.2652C58.7717 84.6208 58.2692 85.0899 57.5652 85.0899H57.4137V85.6306H57.7008C58.7857 85.6306 59.362 84.8355 59.362 82.4461V80.5039H61.2944V85.6286H61.9007V85.6306ZM67.0098 79.9652H66.3637L64.9817 83.3167L63.4482 79.9652H62.802L64.6786 83.9926L64.4473 84.5254C64.2798 84.915 64.0883 85.0899 63.6974 85.0899H63.3385V85.6306H63.8331C64.3994 85.6306 64.7265 85.2649 64.9518 84.746L67.0098 79.9652ZM71.8019 83.9688C71.8019 82.9669 71.1159 82.297 70.053 82.297H68.5115V80.5059H71.449V79.9652H67.9052V85.6326H70.053C71.1139 85.6306 71.8019 84.9627 71.8019 83.9688ZM71.1937 83.9688C71.1937 84.6764 70.755 85.0919 69.9952 85.0919H68.5095V82.8397H69.9952C70.755 82.8377 71.1937 83.2511 71.1937 83.9688ZM77.2143 85.6306V79.9652H76.6399L73.7503 84.581V79.9652H73.1441V85.6326H73.7184L76.608 81.0088V85.6326H77.2143V85.6306ZM82.7702 85.6306V79.9652H82.1639V82.5037H79.4657V79.9652H78.8595V85.6326H79.4657V83.0464H82.1639V85.6326H82.7702V85.6306ZM88.328 85.6306V79.9652H87.7218V82.5037H85.0216V79.9652H84.4154V85.6326H85.0216V83.0464H87.7198V85.6326H88.328V85.6306ZM93.9318 85.6306L91.8478 79.9632H91.3373L89.2454 85.6306H89.8915L90.3462 84.3484H92.829L93.2837 85.6306H93.9318ZM92.6555 83.8256H90.5317L91.6006 80.8339L92.6555 83.8256ZM96.4226 83.2989H97.8285V85.6306H98.4347V79.9652H96.3189C95.2659 79.9652 94.562 80.6172 94.562 81.629C94.562 82.4401 95.0326 83.0305 95.7844 83.2134L94.4742 85.6326H95.1842L96.4226 83.2989ZM97.8285 82.7582H96.3747C95.6169 82.7582 95.1682 82.3367 95.1682 81.6271C95.1682 80.9194 95.6149 80.496 96.3747 80.496H97.8285V82.7582ZM105.965 83.9688C105.965 82.9669 105.279 82.297 104.216 82.297H102.674V80.5059H105.612V79.9652H102.066V85.6326H104.214C105.277 85.6306 105.965 84.9627 105.965 83.9688ZM105.357 83.9688C105.357 84.6764 104.918 85.0919 104.158 85.0919H102.672V82.8397H104.158C104.918 82.8377 105.357 83.2511 105.357 83.9688ZM111.266 85.6306L109.182 79.9632H108.671L106.579 85.6306H107.225L107.68 84.3484H110.163L110.617 85.6306H111.266ZM109.987 83.8256H107.863L108.932 80.8339L109.987 83.8256ZM116.255 85.6306V79.9652H115.681L112.791 84.581V79.9652H112.185V85.6326H112.759L115.649 81.0088V85.6326H116.255V85.6306ZM115.386 78.6035H114.875C114.843 78.9931 114.612 79.1919 114.221 79.1919C113.83 79.1919 113.599 78.9931 113.567 78.6035H113.056C113.104 79.3112 113.559 79.6054 114.223 79.6054C114.883 79.6074 115.338 79.3132 115.386 78.6035ZM118.538 85.6306V82.6786L121.149 85.6306H121.955L119.248 82.6548L121.739 79.9652H120.973L118.538 82.6627V79.9652H117.932V85.6326H118.538V85.6306ZM126.731 85.6306L124.647 79.9652H124.136L122.044 85.6326H122.69L123.145 84.3504H125.628L126.083 85.6326H126.731V85.6306ZM125.452 83.8256H123.329L124.399 80.8339L125.452 83.8256ZM131.409 85.6306V79.9652H128.28V82.2652C128.28 84.6208 127.778 85.0899 127.076 85.0899H126.924V85.6306H127.211C128.298 85.6306 128.872 84.8355 128.872 82.4461V80.5039H130.805V85.6286H131.409V85.6306ZM136.943 83.9688C136.943 82.9669 136.249 82.297 135.186 82.297H133.661V79.9652H133.054V85.6326H135.186C136.239 85.6306 136.943 84.9627 136.943 83.9688ZM136.327 83.9688C136.327 84.6764 135.888 85.0919 135.128 85.0919H133.659V82.8397H135.128C135.888 82.8377 136.327 83.2511 136.327 83.9688ZM141.829 83.9926H141.223C141.071 84.6844 140.569 85.1396 139.857 85.1396C139.482 85.1396 139.123 84.9965 138.876 84.742C138.517 84.3763 138.477 83.9867 138.477 82.7999C138.477 81.6151 138.517 81.2235 138.876 80.8578C139.123 80.6033 139.482 80.4602 139.857 80.4602C140.567 80.4602 141.055 80.9134 141.207 81.6072H141.829C141.637 80.5397 140.88 79.9195 139.857 79.9195C139.298 79.9195 138.786 80.1262 138.403 80.5079C137.868 81.0406 137.868 81.5972 137.868 82.7999C137.868 84.0026 137.868 84.5592 138.403 85.0919C138.786 85.4736 139.296 85.6803 139.857 85.6803C140.87 85.6783 141.645 85.0581 141.829 83.9926ZM143.809 85.6306V82.6786L146.42 85.6306H147.225L144.519 82.6548L147.01 79.9652H146.244L143.809 82.6627V79.9652H143.203V85.6326H143.809V85.6306ZM151.999 85.6306L149.916 79.9632H149.405L147.313 85.6306H147.959L148.414 84.3484H150.897L151.351 85.6306H151.999ZM150.721 83.8256H148.597L149.668 80.8339L150.721 83.8256ZM154.49 83.2989H155.896V85.6306H156.502V79.9652H154.387C153.334 79.9652 152.63 80.6172 152.63 81.629C152.63 82.4401 153.1 83.0305 153.85 83.2134L152.54 85.6326H153.25L154.49 83.2989ZM155.896 82.7582H154.442C153.685 82.7582 153.238 82.3367 153.238 81.6271C153.238 80.9194 153.685 80.496 154.442 80.496H155.896V82.7582ZM164.041 84.0801C164.041 83.6507 163.897 83.3008 163.618 83.0285C163.482 82.8933 163.378 82.8297 163.115 82.7184C163.331 82.623 163.418 82.5753 163.538 82.456C163.809 82.2016 163.953 81.8596 163.953 81.4541C163.953 80.5636 163.283 79.9652 162.276 79.9652H160.136V85.6326H162.347C163.4 85.6306 164.041 85.0422 164.041 84.0801ZM163.345 81.4859C163.345 82.1061 162.93 82.4719 162.226 82.4719H160.74V80.5059H162.226C162.93 80.5059 163.345 80.8717 163.345 81.4859ZM163.432 84.0483C163.432 84.6844 162.994 85.0919 162.292 85.0919H160.742V83.0146H162.292C162.994 83.0126 163.432 83.4102 163.432 84.0483ZM169.23 82.4083C169.23 81.7165 169.19 80.9989 168.695 80.5059C168.312 80.1242 167.802 79.9175 167.241 79.9175C166.683 79.9175 166.17 80.1242 165.787 80.5059C165.301 80.9909 165.253 81.6827 165.253 82.3606V82.7979C165.253 83.929 165.269 84.5731 165.787 85.0899C166.17 85.4716 166.675 85.6783 167.241 85.6783C167.808 85.6783 168.312 85.4716 168.695 85.0899C169.214 84.5731 169.23 83.927 169.23 82.7979V82.4083ZM168.621 83.0762C168.621 83.7282 168.613 84.3425 168.222 84.7321C167.959 84.9945 167.616 85.1376 167.239 85.1376C166.864 85.1376 166.521 84.9945 166.258 84.7321C165.891 84.3663 165.859 83.8097 165.859 83.1955V82.6309C165.859 81.8517 165.859 81.2613 166.258 80.8637C166.521 80.6013 166.872 80.4582 167.239 80.4582C167.606 80.4582 167.957 80.6013 168.222 80.8637C168.597 81.2374 168.621 81.8278 168.621 82.4958V83.0762ZM169.884 85.0899V87.0003H170.482V85.6306H174.291V87.0003H174.889V85.0899H174.211V79.9652H171.106V81.8755C171.106 83.2591 170.907 84.2789 170.388 85.0899H169.884ZM171.066 85.0899C171.521 84.2948 171.68 83.2989 171.68 82.2493V80.5059H173.605V85.0899H171.066ZM180 85.6306L177.916 79.9632H177.406L175.314 85.6306H175.96L176.415 84.3484H178.897L179.352 85.6306H180ZM178.722 83.8256H176.598L177.669 80.8339L178.722 83.8256Z" fill="white"/>
</g>
<defs>
<clipPath id="clip0">
<rect width="129" height="39" fill="white" transform="translate(51 48)"/>
</clipPath>
</defs>
</svg>
