<svg width="250" height="365" fill="none" xmlns="http://www.w3.org/2000/svg"><path d="M238.556 337.084l-12.502-32.843-.448-1.157-41.986-110.47c27.916-18.959 46.278-50.943 46.278-87.257C229.898 47.174 182.724 0 124.54 0 66.357 0 19.258 47.211 19.258 105.395c0 36.276 18.362 68.297 46.278 87.219l-45.01 118.457-.26.672-8.286 21.758L0 365h249.193l-10.637-27.916z" fill="#FFDF57"/><path d="M249.193 365H0l11.98-31.499h59.266l.448.896a10.016 10.016 0 011.828 2.5c.784.075 1.53.523 1.867 1.418 1.418 3.62 2.873 7.203 3.993 10.935 1.567 1.381 3.732 2.165 7.352 2.426 1.904.15 1.381-3.396 3.135-3.807 3.023-.746 4.553 1.941 9.181-3.806.336.074.672.074.97.112 3.546.298 5.636-1.232 5.748-4.479v-.037c.037-1.605-.411-3.658-1.418-6.158h9.442c1.232 1.343 2.351 2.388 3.284 3.023.597.373 1.157.56 1.568.485 1.903-.261 3.097-1.344 2.948-3.508h45.756c-2.314 5.449-2.464 6.307.149 7.837 1.605.933 3.657.038 5.747-1.866 1.643-1.493 3.322-3.62 4.815-5.971 0 0 11.457.186 24.035.261 10.711.075 22.206.112 28.102-.037 2.053-.075 3.397-.149 3.844-.261.374-.075.747 6.083 1.083 6.083 1.082-.933 2.202-1.792 3.359-2.501L249.193 365z" fill="#201000"/><path d="M54.377 354.252H40.643c-2.314 0-2.314 3.583 0 3.583h13.734c2.276 0 2.314-3.583 0-3.583zm14.928-8.36h-8.957c-2.314 0-2.314 3.582 0 3.582h8.957c2.314 0 2.314-3.582 0-3.582zm30.455 5.971H80.053c-2.314 0-2.314 3.583 0 3.583h19.705c2.314 0 2.314-3.583 0-3.583zm116.478-6.569h-10.749c-2.314 0-2.314 3.583 0 3.583h10.749c2.314 0 2.314-3.583 0-3.583zm-42.993-2.985h-11.943c-2.314 0-2.314 3.582 0 3.582h11.943c2.313 0 2.313-3.582 0-3.582zm16.122 16.123h-12.54c-2.314 0-2.314 3.582 0 3.582h12.54c2.314 0 2.314-3.582 0-3.582z" fill="#fff"/><path d="M73.785 144.881c-8.957 16.571-18.623 17.914-.896 31.35 12.988 9.853 35.38 30.006 44.785.448 9.405-29.559-3.135-22.841-3.135-22.841l-25.08-16.57-15.674 7.613z" fill="#201000"/><path d="M151.151 107.859c4.479-12.54 8.659-48.07-37.022-22.99-45.681 25.08-39.113 83.039-11.346 90.205 27.767 7.166 48.368-67.215 48.368-67.215z" fill="#201000"/><path d="M166.863 167.909c-3.097 9.74-12.54 13.883-22.84 15.674l-4.852 32.096-12.988 32.694-24.445-35.94s3.844-29.036 4.217-36.463c-9.405-4.479-15.227-20.601-15.227-20.601-17.466.895-34.932-7.166-31.35-25.08 2.538-12.689 15.004-14.145 24.11-12.017 3.732.895 6.904 2.388 8.584 3.956 0 0-1.792-13.623 18.81-22.393 17.727-7.576 30.379-6.494 38.701 3.993 3.061 3.807 5.487 8.92 7.427 15.265 5.822 19.257 12.988 38.963 9.853 48.816z" fill="#fff"/><path d="M168.282 152.16c-1.493-7.577-4.218-16.347-7.017-25.379a533.395 533.395 0 01-2.538-8.248c-1.754-5.822-3.918-10.487-6.531-14.219-.41-.56-.821-1.12-1.231-1.642a27.09 27.09 0 00-2.576-2.837c-8.695-8.397-21.273-8.92-38.216-1.679-1.008.41-1.941.858-2.874 1.306-3.471 1.717-6.233 3.583-8.472 5.449-.15.112-.261.224-.41.373-5.71 5.076-7.502 10.301-8.025 13.622-1.53-.821-3.358-1.53-5.374-2.09a11.488 11.488 0 00-1.194-.298c-3.433-.821-12.13-2.202-18.996 2.202-3.845 2.463-6.27 6.232-7.278 11.196-1.344 6.793.075 12.839 4.105 17.541 1.866 2.165 4.255 3.993 7.017 5.486 3.06 1.642 6.643 2.837 10.524 3.546a42.33 42.33 0 005.039.634c1.679.112 3.433.15 5.225.112 1.306 3.21 5.113 11.756 10.972 17.131a19.414 19.414 0 003.62 2.687c-.261 3.321-.896 9.143-1.605 15.152-.709 5.897-1.455 11.905-1.978 15.787a88.979 88.979 0 00-.336 2.612 44.197 44.197 0 00-.224 1.642c-.074.448.038.896.299 1.232l.485.747 23.96 35.193c.336.485.896.784 1.493.784h.187c.672-.075 1.231-.485 1.455-1.12l12.615-31.797.373-.896c.037-.112.075-.261.112-.41l.373-2.538.635-4.143 3.657-24.147c12.652-2.463 20.191-7.912 22.99-16.682 1.381-4.18 1.008-9.778-.261-16.309zm-3.098 15.227c-2.426 7.65-9.442 12.353-21.46 14.443-.746.149-1.343.746-1.455 1.493l-3.994 26.498-.821 5.374-11.681 29.371-22.169-32.581c.075-.672.224-1.829.411-3.284.522-4.105 1.381-10.786 2.127-17.168.746-6.419 1.418-12.577 1.568-15.488 0-.187 0-.373-.075-.56a1.8 1.8 0 00-.97-1.119c-8.622-4.106-14.257-19.445-14.332-19.594a1.816 1.816 0 00-1.791-1.194 43.36 43.36 0 01-7.651-.224 24.725 24.725 0 01-2.389-.336c-3.62-.597-6.979-1.68-9.815-3.098-2.575-1.306-4.74-2.911-6.345-4.814-3.358-3.882-4.44-8.771-3.321-14.481.784-3.993 2.724-6.979 5.71-8.882 3.956-2.538 10.04-3.172 16.235-1.717.26.075.522.149.783.187 2.986.821 5.636 2.052 7.017 3.321.074.075.149.15.261.187.15.112.336.187.522.224.411.112.859.037 1.232-.149.672-.336 1.045-1.083.97-1.792-.037-.485-1.157-11.681 15.937-19.705.597-.299 1.194-.56 1.828-.821 17.28-7.353 28.887-6.27 36.612 3.47.933 1.157 1.829 2.501 2.65 3.956 1.717 2.986 3.21 6.569 4.479 10.712a540.216 540.216 0 002.537 8.248c4.889 15.525 9.89 31.61 7.39 39.523z" fill="#201000"/><path d="M147.606 146.859c-.262 0-.523-.075-.747-.187-.895-.41-1.269-1.492-.858-2.388 3.545-7.464.448-14.929-11.794-28.513a1.816 1.816 0 01.112-2.538 1.815 1.815 0 012.538.112c11.532 12.764 17.242 22.168 12.391 32.432a1.766 1.766 0 01-1.642 1.082zm-32.842-21.048a2.24 2.24 0 10-.002-4.48 2.24 2.24 0 00.002 4.48zm33.29-7.166a2.24 2.24 0 10-.002-4.48 2.24 2.24 0 00.002 4.48zm-31.761-2.724c-.149-1.008-1.082-1.568-2.015-1.531-1.008.075-2.015.15-2.986.224-.97.075-1.642 1.12-1.53 2.016.149 1.007 1.082 1.567 2.016 1.53 1.007-.075 2.015-.149 2.985-.224 1.008-.037 1.68-1.082 1.53-2.015zm26.834-15.191h-2.239c-2.314 0-2.314 3.583 0 3.583h2.239c2.314 0 2.314-3.583 0-3.583zm-53.742 41.203a1.765 1.765 0 01-1.605-1.007c-1.418-2.874-8.845-9.181-14.63-7.987-.97.186-1.903-.448-2.127-1.418-.187-.971.448-1.904 1.418-2.128 7.539-1.53 16.421 5.673 18.549 9.928.447.895.074 1.978-.784 2.388a1.44 1.44 0 01-.821.224zm20.489-39.3l-.112-.335a4.943 4.943 0 00-.784-1.605 3.28 3.28 0 00-1.679-1.194c-1.829-.56-4.143.447-5.785 2.089a26.989 26.989 0 00-2.5 2.912c-.187.261-.374.522-.598.783-1.791 2.538-3.21 5.412-4.367 8.323a56.3 56.3 0 00-1.716 5.187c-.224.784.074 1.419.56 1.792.037.037.074.075.149.112-.075 0-.112.037-.187.037-.261.075-.56.149-.82.224h-.038c-.41.075-.71.261-.896.485-.56.597-.485 1.605.037 2.277.112.149.262.298.448.448.374.261.821.373 1.381.261 8.883-1.717 19.445-11.719 16.907-21.796zm35.12 47.735l-6.718 1.343c-2.276.448-1.306 3.919.97 3.471l6.718-1.343c2.24-.448 1.269-3.919-.97-3.471z" fill="#201000"/><path d="M121.667 333.502c-.075-1.418-.784-3.358-2.202-5.822a1.177 1.177 0 01-.187-.373l-.037-.037c-1.157-2.053-2.911-5.71-5.337-9.704-.037-.037-.037-.074-.037-.074-3.061-5.039-7.091-10.525-12.055-13.772l-.037-.037c-.597-.411-1.232-.747-1.866-1.082-.374-.486-.784-.971-1.157-1.419-2.725-3.023-5.934-4.739-9.405-5.598-1.866-.448-3.77-.672-5.748-.709-6.382-.112-13.249 1.68-19.37 3.322-.111.037-.223.037-.372.112h-.075c-10.263 2.724-20.415 5.747-30.529 9.031a532.498 532.498 0 00-12.95 4.404l-.373 1.008-7.912 20.75h58.78c.075-.186.112-.373.15-.597v-.037c.112.224.224.448.335.634l.448.896a10.037 10.037 0 011.829 2.501c.784.074 1.53.522 1.866 1.418 1.418 3.62 2.874 7.203 3.993 10.935 1.568 1.381 3.733 2.165 7.353 2.426h.112c.112 0 .224 0 .298-.038a1.27 1.27 0 00.448-.223l.112-.112c.037-.038.112-.112.15-.187.037-.037.074-.112.111-.149.038-.038.038-.112.075-.15.037-.037.037-.112.075-.149.037-.037.037-.112.074-.149.037-.075.037-.112.075-.187.037-.074.037-.112.074-.186.075-.187.15-.411.224-.598.038-.111.075-.186.112-.261 0-.037 0-.037.038-.074 0-.038.037-.075.037-.075.037-.075.037-.112.075-.149.037-.075.074-.15.112-.262 0-.037 0-.037.037-.037 0 0 0-.037.037-.037.038-.038.038-.075.075-.112.075-.075.112-.149.186-.224l.075-.075c.037-.037.075-.037.075-.074.037-.038.074-.075.112-.075.074-.037.149-.075.261-.112.037-.037.112-.037.15-.037.111-.038.223-.038.335-.075.075 0 .187-.037.261-.037h1.083c.149 0 .261.037.41.037h.038c.149 0 .26.037.41.037h.15c.074 0 .149 0 .223.038.112 0 .224 0 .299.037h.522c.075 0 .187 0 .262-.037.037 0 .112 0 .149-.038.075 0 .15-.037.224-.037.037 0 .075 0 .075-.037.186-.038.41-.112.634-.187.075-.037.187-.075.261-.112.112-.037.224-.112.336-.149a.816.816 0 01.187-.112c.037-.037.112-.075.149-.112.037-.037.075-.037.15-.075.074-.037.149-.112.223-.149.075-.037.112-.075.187-.149.037-.038.112-.075.186-.15.038-.037.112-.112.187-.149.261-.224.56-.485.858-.784l.299-.298c.112-.112.187-.224.299-.336a2.58 2.58 0 00.41-.485c.075-.075.112-.15.187-.187.074-.074.149-.186.224-.261.149.037.335.037.485.075h.037a.64.64 0 01.261.037c.075 0 .15 0 .224.037.373.038.747.038 1.12.038h.298c.224 0 .486-.038.71-.075.037 0 .074 0 .112-.037.074 0 .149-.038.186-.038.037 0 .075 0 .112-.037.037 0 .112-.037.149-.037.075-.038.15-.038.224-.075.075-.037.112-.037.187-.075.075-.037.187-.074.261-.112a.792.792 0 00.187-.112c.074-.037.149-.074.186-.112 0 0 .038 0 .038-.037 0 0 .037 0 .037-.037 0 0 .037-.038.075-.038.037-.037.074-.037.112-.074.074-.038.149-.112.224-.187 0 0 .037 0 .037-.037a1 1 0 01.224-.187l.112-.112c.037-.037.037-.074.074-.074 0-.038.038-.038.038-.075 0 0 .037 0 .037-.037.075-.075.112-.15.187-.224.037-.038.074-.075.074-.112.038-.075.075-.112.112-.187.038-.074.112-.186.15-.261.037-.037.037-.075.074-.149.037-.075.037-.15.075-.224.037-.075.037-.15.074-.224.038-.075.038-.149.075-.224 0-.075.037-.149.037-.224 0-.075.038-.149.038-.261 0-.075.037-.187.037-.262 0-.074 0-.149.037-.261v-1.231c0-.075 0-.15-.037-.224 0-.15-.037-.336-.075-.485v-.15c0-.112-.037-.186-.037-.298 0-.038 0-.075-.037-.112 0-.075-.038-.15-.038-.224 0-.075-.037-.15-.037-.224v-.037c0-.075-.037-.112-.037-.187-.038-.149-.075-.336-.112-.485 0-.038-.037-.075-.037-.15 0-.037 0-.074-.038-.111-.037-.112-.037-.187-.074-.299v-.075c-.038-.112-.075-.261-.112-.41 0-.038-.038-.075-.038-.112-.186-.485-.373-1.045-.597-1.568a20.74 20.74 0 00-.597-1.343 63.164 63.164 0 00-1.306-2.762v-.037c-1.829-3.807-3.695-7.353-4.553-9.592v-.037c-.299-.784-.486-1.418-.523-1.829-.037-.709.41-.784 1.53-.075.485.299 1.045.747 1.792 1.344 3.657 3.06 7.501 7.875 10.823 11.719 0 0 0 .037.037.037.821.933 1.568 1.792 2.314 2.575.075.075.112.15.187.187l.186.187.112.112c.038.037.038.074.075.074l.149.149a20.805 20.805 0 002.239 2.053c.075.037.112.075.187.112.075.037.112.075.187.112.074.037.112.075.186.112l.038.037c.074.038.111.075.186.075h.037c.038.037.075.037.112.075.038.037.075.037.112.037.038 0 .075.037.112.037.038 0 .075.038.112.038.038 0 .038 0 .075.037h.037c.038 0 .075.037.112.037h.373c1.68-.448 2.874-1.493 2.725-3.695z" fill="#fff"/><path d="M102.298 346.788c-1.195 0-2.314-.41-3.36-1.231-1.604-1.269-2.463-3.06-2.537-3.247-.41-.896 0-1.978.895-2.351.896-.411 1.941 0 2.352.895 0 0 .56 1.195 1.493 1.904.634.485 1.38.821 2.724-.149 0 0 .448-.448.149-2.65v-.112c-.373-2.351-1.418-5.598-3.172-9.704 0-.037-.037-.037-.037-.074-1.568-3.658-3.285-7.091-4.479-9.368a.282.282 0 01-.075-.149c-1.12-2.202-2.052-3.882-2.5-4.703-.187-.298-.261-.522-.299-.597-.447-.896-.074-1.978.822-2.388.895-.448 1.977-.075 2.388.821l.224.448c.448.821 1.418 2.537 2.538 4.739.037.038.037.075.075.112 1.194 2.314 2.985 5.86 4.627 9.666 0 .038.038.038.038.075 1.903 4.441 3.06 8.061 3.47 10.711v.149c.15 1.195.523 4.367-1.604 5.935-1.232.821-2.501 1.268-3.732 1.268z" fill="#201000"/><path d="M117.86 338.391c-.336 0-.635-.037-.97-.074-.038 0-.112 0-.15-.038-2.314-.485-3.918-2.351-4.926-3.694a45.304 45.304 0 01-1.829-2.687c0-.038-.037-.038-.037-.075l-.747-1.232c-.933-1.493-1.866-3.023-2.911-4.441-4.926-6.568-11.98-10.039-12.017-10.077-.15-.074-.299-.186-.448-.298-.746-.672-.784-1.792-.112-2.538.597-.634 1.53-.784 2.277-.336 1.12.56 8.061 4.292 13.174 11.084 1.157 1.531 2.127 3.135 3.098 4.703l.746 1.194c0 .038.037.038.037.075a26.566 26.566 0 001.643 2.426c1.045 1.381 1.94 2.127 2.761 2.351h.038c.336.075.671.037 1.045-.075.037 0 .074 0 .112-.149.373-.784.336-2.986-1.045-6.606 0-.037-.075-.186-.075-.224-1.082-2.724-2.836-5.896-5.038-9.143-.038-.038-.075-.075-.075-.15-3.135-4.553-7.091-9.031-11.644-13.323a.455.455 0 01-.187-.187l-.522-.522a16.48 16.48 0 00-2.24-1.754c-6.978-4.703-17.914-5.599-33.477-2.688-.074.038-.149.038-.223.075-13.473 2.538-27.954 7.427-42.808 12.615-.224.112-.485.149-.746.149a1.769 1.769 0 01-1.791-1.792c0-.746.485-1.455 1.194-1.716 15.003-5.263 29.633-10.189 43.367-12.801.074-.038.15-.038.224-.075 16.57-3.135 28.401-2.09 36.238 3.21a20.089 20.089 0 012.688 2.089l.522.523a.289.289 0 01.149.149c4.778 4.479 8.92 9.219 12.242 13.996.037.037.074.074.074.149 2.389 3.471 4.218 6.83 5.449 9.927 1.195 3.023 2.24 7.054.971 9.629a3.655 3.655 0 01-2.352 1.978 3.912 3.912 0 01-1.679.373z" fill="#201000"/><path d="M93.974 350.894c-2.5 0-4.702-1.344-5-1.53-.822-.523-1.083-1.642-.56-2.463.522-.821 1.641-1.083 2.462-.56.598.373 2.538 1.306 3.882.858.224-.075.858-.298 1.343-1.493 1.53-3.769-5.56-18.959-11.756-27.057a1.784 1.784 0 012.837-2.165c4.404 5.785 14.891 23.997 12.241 30.566-.933 2.314-2.463 3.209-3.583 3.583a6.64 6.64 0 01-1.866.261z" fill="#201000"/><path d="M85.578 353.842c-2.538 0-4.777-1.716-5.038-1.94-2.352-1.941-3.135-4.554-3.882-7.054-.933-3.098-1.94-6.307-5.896-8.957-2.09-1.381-8.248.261-18.474 3.06-5.561 1.493-12.428 3.396-20.975 5.412a1.8 1.8 0 01-2.164-1.344 1.8 1.8 0 011.343-2.164c8.472-2.016 15.34-3.882 20.863-5.375 12.316-3.359 17.951-4.889 21.422-2.575 5.038 3.359 6.307 7.539 7.315 10.898.709 2.277 1.231 4.068 2.724 5.337.597.448 2.165 1.381 3.172 1.082.187-.037.747-.186 1.232-1.418 1.53-3.769-5.56-18.959-11.756-27.058a1.783 1.783 0 112.836-2.164c4.404 5.784 14.892 23.997 12.242 30.566-.97 2.388-2.5 3.246-3.62 3.545-.486.075-.933.149-1.344.149z" fill="#201000"/><path d="M229.413 324.844c-1.455-4.068-4.217-7.8-7.538-10.898-.896-.858-1.867-1.642-2.837-2.389-3.172-2.426-6.643-4.292-9.927-5.411-1.195-.411-1.978.41-2.128 1.381-11.905-4.479-25.005.485-32.618 10.599a37.895 37.895 0 00-1.904 2.836c-2.388 4.031-3.246 7.8-2.873 11.085.224 2.052.97 3.881 2.09 5.523a15.85 15.85 0 001.642 1.904c1.642-1.493 3.321-3.621 4.814-5.972h23.886c.037.112.112.187.149.261 10.711.075 22.206.112 28.103-.037.522-3.023.149-6.046-.859-8.882z" fill="#fff"/><path d="M238.558 337.085c-.038 2.351-2.501 5.934-6.084 2.687-3.247.784-3.396 4.292-7.053 3.732-1.978-1.567-3.434-3.62-4.591-5.859a35.488 35.488 0 00-1.306-4.143c-1.008-2.687-2.351-5.3-3.695-7.651-.634-1.343-1.344-2.612-2.202-3.769-.411-.523-.896-.821-1.381-.896a157.118 157.118 0 01-1.754-3.135c-1.343-2.463-5.113-.261-3.769 2.202.895 1.679 3.582 6.345 5.822 11.308-.261.448-.373.971-.224 1.605 0 .112.037.224.074.336 1.008 4.404.859 8.584-.223 12.726-2.65-.933-4.778-2.388-5.823-4.217-1.268-2.202-2.724-5.299-4.366-8.509-3.023-5.934-6.494-12.316-9.965-14.331-5.374-3.135-8.509 4.478-12.092 11.196-.56 1.082-1.194 2.127-1.829 3.135-3.396 5.374-7.688 9.517-10.561 7.837-2.613-1.53-2.464-2.388-.15-7.837.262-.597.56-1.269.859-1.978-.933.709-1.866 1.381-2.837 1.978h-8.957c.037-.037.075-.037.112-.075-.112-.821 0-1.642.261-2.463 1.083-3.657 5.039-7.389 7.017-9.965 4.217-5.411 8.919-10.673 14.518-14.667a41.534 41.534 0 016.456-3.844c9.33-4.404 19.071-3.657 28.961-1.791.485.074.971.186 1.493.261 3.322.597 6.867 1.232 10.338 2.127l.448 1.157 12.503 32.843z" fill="#fff"/><path d="M210.529 347.46a7.922 7.922 0 01-1.829-.224c-3.508-.859-5.523-5.785-7.874-11.495-1.232-2.948-2.501-6.009-3.845-7.912l-.634-.933c-1.903-2.762-4.031-5.86-6.233-5.86-1.567 0-3.545 1.605-5.672 4.666a361.885 361.885 0 00-4.068 5.934c-5.412 8.098-8.995 13.435-13.548 11.345-1.343-.634-2.239-1.567-2.687-2.836-1.157-3.434 1.493-8.472 6.307-17.653l1.829-3.471c.448-.896 1.53-1.232 2.426-.746.896.447 1.231 1.53.746 2.426l-1.829 3.47c-3.769 7.203-6.755 12.876-6.083 14.854.075.224.224.485.784.709 1.754.784 5.299-4.478 9.069-10.076a255.08 255.08 0 014.105-6.009c2.911-4.18 5.748-6.195 8.621-6.195h.038c4.068 0 6.792 3.956 9.181 7.426l.634.896c1.568 2.239 2.911 5.486 4.217 8.621 1.568 3.77 3.695 8.957 5.449 9.368.784.187 1.866.261 2.575-.523 1.12-1.194 1.232-3.732.262-6.829-2.053-6.681-9.592-19.818-9.666-19.93a1.75 1.75 0 01.261-2.127 1.882 1.882 0 012.127-.373c.523.261 13.1 6.829 16.907 17.578 3.321 9.442 4.889 9.479 6.232 9.479.261 0 .523-.149.709-.447.411-.56 1.568-2.949-.746-9.443-3.023-8.583-10.562-16.458-10.637-16.533a1.815 1.815 0 01.038-2.538 1.815 1.815 0 012.538.038c.335.336 8.135 8.509 11.457 17.839 2.538 7.24 1.568 10.898.299 12.689-.896 1.269-2.202 1.978-3.583 1.978-3.732 0-6.121-1.791-9.704-11.868-1.754-4.963-5.822-8.994-9.33-11.719 2.351 4.479 5.262 10.338 6.494 14.332 1.381 4.478 1.008 8.173-1.082 10.338-1.12 1.157-2.613 1.754-4.255 1.754z" fill="#201000"/><path d="M154.137 336.637c-.336 0-.672-.112-1.008-.298a1.803 1.803 0 01-.485-2.501c.56-.858 14.182-21.124 27.879-31.574 13.062-10.002 27.916-5.374 42.285-.895 1.53.485 3.06.97 4.59 1.418.933.298 1.493 1.269 1.194 2.239-.298.933-1.269 1.493-2.239 1.194-1.567-.447-3.098-.933-4.628-1.418-14.144-4.366-27.468-8.509-39.038.336-13.249 10.114-26.945 30.529-27.095 30.753a1.77 1.77 0 01-1.455.746zM57.811 214.671c-.858 0-1.642-.634-1.754-1.493-.15-.97.522-1.903 1.493-2.052 9.18-1.456 22.43-1.605 44.3-.448.97.037 1.754.895 1.679 1.903-.037.97-.895 1.754-1.903 1.68-21.609-1.157-34.597-1.008-43.516.41h-.299zm81.359 2.8a1.766 1.766 0 01-1.754-1.456 1.785 1.785 0 011.419-2.09c1.828-.373 3.806-.746 5.859-1.194 13.585-2.799 32.208-6.606 45.83-4.516.971.149 1.642 1.082 1.493 2.053a1.786 1.786 0 01-2.053 1.492c-12.987-1.978-31.237 1.754-44.561 4.479-2.09.41-4.068.821-5.897 1.194-.074.038-.224.038-.336.038z" fill="#201000"/><path d="M200.115 299.913a1.795 1.795 0 01-1.791-1.68l-1.792-25.079a1.79 1.79 0 011.643-1.904 1.767 1.767 0 011.903 1.642l1.791 25.08a1.789 1.789 0 01-1.642 1.904c-.037.037-.074.037-.112.037z" fill="#201000"/></svg>