<svg width="244" height="302" fill="none" xmlns="http://www.w3.org/2000/svg"><path d="M3.772 301.658a3.08 3.08 0 01-1.415-.314C.943 300.794 0 299.379 0 297.886V31.254c0-2.121 1.65-3.772 3.772-3.772h236.456c2.122 0 3.772 1.65 3.772 3.772v191.193c0 2.121-1.65 3.772-3.772 3.772H80.783l-74.34 74.339a3.882 3.882 0 01-2.671 1.1zM7.544 35.026v253.745l68.996-68.996a3.743 3.743 0 012.672-1.1h157.244V35.026H7.544z" fill="#fff"/><path d="M61.373 75.182l.471 112.766s103.494.393 117.796-.471c20.196-1.179 24.597-24.754 6.051-25.854 0 0 15.717-.629 15.638-12.416-.078-11.788-17.995-15.088-17.995-15.088s17.917-.629 17.367-11.866c-.629-11.787-16.346-13.359-16.346-13.359s16.267-3.301 16.188-16.895c-.078-21.846-34.89-22.318-56.736-22.24 0 0 33.397-60.744 16.581-65.695-16.817-4.95-38.506 53.987-48.565 62.474-10.058 8.487-50.45 8.644-50.45 8.644z" fill="#fff"/><path d="M109.702 191.799c-24.36 0-45.97-.078-47.857-.078a3.773 3.773 0 01-3.772-3.772l-.471-112.767a3.773 3.773 0 013.772-3.772c15.087-.078 41.491-2.2 48.014-7.7 2.907-2.437 8.094-11.945 13.044-21.14C134.141 20.883 147.5-3.636 161.41.45c2.907.864 5.108 2.908 6.286 5.815 5.344 12.966-10.216 45.421-17.681 59.723 10.452.079 21.61.629 31.198 2.986 15.245 3.772 23.024 11.473 23.103 23.025 0 7.78-4.322 13.045-9.273 16.345 4.794 2.594 9.037 6.916 9.43 13.752.157 3.458-.943 6.601-3.222 9.116-1.493 1.65-3.3 2.829-5.265 3.772 4.794 2.908 9.116 7.387 9.194 14.223 0 6.523-3.614 10.609-8.015 13.124 2.75 2.672 4.086 6.208 4.086 9.744 0 8.801-7.937 18.389-21.374 19.253-7.859.393-40.942.471-70.175.471zm-44.085-7.622c18.703.078 101.293.236 113.788-.472 9.823-.628 14.302-7.151 14.224-11.708 0-3.93-2.987-6.366-8.173-6.601-2.043-.079-3.536-1.808-3.536-3.772 0-2.044 1.571-3.694 3.615-3.772.471 0 12.101-.629 12.023-8.645 0-8.329-14.774-11.315-14.931-11.394-1.886-.393-3.222-2.043-3.065-4.008.157-1.886 1.729-3.457 3.615-3.536 2.436-.079 9.509-1.022 12.495-4.322.943-1.022 1.336-2.122 1.257-3.615-.471-8.408-12.809-9.823-12.966-9.823-1.886-.157-3.301-1.729-3.379-3.536-.079-1.886 1.179-3.536 2.986-3.851.55-.078 13.202-2.907 13.202-13.201 0-4.873-1.807-11.867-17.367-15.717-10.687-2.672-23.968-2.75-35.598-2.75-1.414.157-2.593-.708-3.222-1.808-.707-1.179-.707-2.593-.078-3.772 9.822-17.917 24.046-49.664 20.274-58.858-.393-.943-.864-1.258-1.493-1.415-8.173-2.436-21.925 23.182-30.255 38.427-6.05 11.08-10.765 19.882-14.852 23.26-9.273 7.78-38.191 9.195-49.114 9.43l.55 105.459z" fill="#FFDF57"/><path d="M149.308 191.328c-.157 0-.393 0-.55-.078-5.579-.865-10.923-4.165-13.909-8.645-2.436-3.614-3.144-7.622-2.201-11.708 3.379-13.674 23.732-13.438 41.649-13.124 4.087.079 7.859.079 11.159 0 2.122-.157 3.851 1.572 3.929 3.615.079 2.043-1.571 3.851-3.614 3.929-3.458.157-7.387.079-11.552 0-13.674-.157-32.298-.471-34.262 7.387-.472 1.965-.079 3.851 1.1 5.658 1.807 2.672 5.343 4.793 8.722 5.344 2.044.314 3.458 2.2 3.144 4.322-.157 1.964-1.729 3.3-3.615 3.3z" fill="#FFDF57"/><path d="M147.579 166.103c-.158 0-.393 0-.551-.078-5.265-.786-10.844-4.637-14.144-9.745-2.751-4.243-3.615-8.801-2.437-12.887 3.615-12.967 24.361-12.967 42.671-12.967 3.615 0 7.072 0 10.137-.078 2.122-.157 3.851 1.572 3.929 3.615.079 2.043-1.571 3.85-3.614 3.929-3.144.157-6.68.157-10.373.157-13.281 0-33.32 0-35.441 7.465-.786 2.672.628 5.344 1.493 6.758 2.122 3.301 5.815 5.973 8.958 6.366 2.043.314 3.458 2.2 3.144 4.322-.315 1.807-1.965 3.143-3.772 3.143z" fill="#FFDF57"/><path d="M147.422 139.62c-.393 0-.708-.078-1.101-.157-18.467-5.579-17.366-17.131-16.109-21.846 3.615-12.809 26.404-12.652 46.521-12.573 4.165 0 8.016.078 11.237-.079 2.122-.157 3.851 1.572 3.93 3.615.078 2.043-1.572 3.85-3.615 3.929-3.301.157-7.308.079-11.552.079-13.909-.079-37.17-.236-39.213 7.072-.628 2.122-2.357 8.487 11.002 12.573 1.964.629 3.143 2.751 2.514 4.715-.471 1.651-1.964 2.672-3.614 2.672z" fill="#FFDF57"/><path d="M143.964 113.923c-.158 0-.393 0-.551-.078-5.658-.865-11.237-4.322-14.144-8.88-2.358-3.615-2.987-7.544-1.887-11.473 3.615-12.966 24.361-12.966 42.671-12.966 3.615 0 7.072 0 10.137-.079a3.778 3.778 0 013.929 3.615 3.778 3.778 0 01-3.614 3.929c-3.144.079-6.68.157-10.373.157-13.281 0-33.32 0-35.441 7.466-.472 1.807-.157 3.614.943 5.343 1.807 2.751 5.422 5.03 8.958 5.501 2.043.314 3.458 2.2 3.143 4.322-.314 1.807-1.964 3.143-3.771 3.143z" fill="#FFDF57"/></svg>