<svg width="467" height="428" fill="none" xmlns="http://www.w3.org/2000/svg"><path d="M466.8 0H133v198.5h333.8V0z" fill="#FFDF57"/><path d="M378 72.6H212.4c-2.7 0-4.8-2.1-4.8-4.8 0-2.7 2.1-4.8 4.8-4.8H378c2.7 0 4.8 2.1 4.8 4.8 0 2.6-2.1 4.8-4.8 4.8zm0 48.9H212.4c-2.7 0-4.8-2.1-4.8-4.8 0-2.7 2.1-4.8 4.8-4.8H378c2.7 0 4.8 2.1 4.8 4.8 0 2.7-2.1 4.8-4.8 4.8z" fill="#fff"/><path d="M466.8 198.5v64.9l-79.9-79.9 79.9 15z" fill="#FFDF57"/><path d="M0 266h205.3v122.084H0V266z" fill="#FF98E1"/><path d="M54.616 310.651h101.85a2.914 2.914 0 002.952-2.952 2.915 2.915 0 00-2.952-2.952H54.616a2.915 2.915 0 00-2.952 2.952 2.953 2.953 0 002.952 2.952zm0 30.076h101.85a2.915 2.915 0 002.952-2.953 2.915 2.915 0 00-2.952-2.952H54.616a2.915 2.915 0 00-2.952 2.952 2.915 2.915 0 002.952 2.953z" fill="#fff"/><path d="M0 388.084V428l49.142-49.142L0 388.084z" fill="#FF98E1"/></svg>