<svg width="467" height="428" viewBox="0 0 467 428" fill="none" xmlns="http://www.w3.org/2000/svg">
<path d="M466.8 0H133V198.5H466.8V0Z" fill="#FFDF57"/>
<path d="M378 72.6H212.4C209.7 72.6 207.6 70.5 207.6 67.8C207.6 65.1 209.7 63 212.4 63H378C380.7 63 382.8 65.1 382.8 67.8C382.8 70.4 380.7 72.6 378 72.6Z" fill="white"/>
<path d="M378 121.5H212.4C209.7 121.5 207.6 119.4 207.6 116.7C207.6 114 209.7 111.9 212.4 111.9H378C380.7 111.9 382.8 114 382.8 116.7C382.8 119.4 380.7 121.5 378 121.5Z" fill="white"/>
<path d="M466.8 198.5V263.4L386.9 183.5L466.8 198.5Z" fill="#FFDF57"/>
<path d="M0.000457764 266H205.299V388.084H0.000457764V266Z" fill="#FF98E1"/>
<path d="M54.6161 310.651H156.466C158.126 310.651 159.418 309.36 159.418 307.699C159.418 306.039 158.126 304.747 156.466 304.747H54.6161C52.9556 304.747 51.664 306.039 51.664 307.699C51.664 309.298 52.9556 310.651 54.6161 310.651Z" fill="white"/>
<path d="M54.6161 340.727H156.466C158.126 340.727 159.418 339.435 159.418 337.774C159.418 336.114 158.126 334.822 156.466 334.822H54.6161C52.9556 334.822 51.664 336.114 51.664 337.774C51.664 339.435 52.9556 340.727 54.6161 340.727Z" fill="white"/>
<path d="M0.000362396 388.084V428L49.1416 378.858L0.000362396 388.084Z" fill="#FF98E1"/>
</svg>
