<svg width="250" height="365" viewBox="0 0 250 365" fill="none" xmlns="http://www.w3.org/2000/svg">
<path d="M238.556 337.084L226.054 304.241L225.606 303.084L183.62 192.614C211.536 173.655 229.898 141.671 229.898 105.357C229.898 47.1738 182.724 0 124.54 0C66.3569 0 19.2577 47.2112 19.2577 105.395C19.2577 141.671 37.6197 173.692 65.5358 192.614L20.5266 311.071L20.2653 311.743L11.9801 333.501L0 365H249.193L238.556 337.084Z" fill="#FFDF57"/>
<path d="M249.193 365H0L11.9801 333.501H71.2459C71.3952 333.799 71.5445 334.098 71.6938 334.397C72.4402 335.143 73.0373 335.964 73.5225 336.897C74.3063 336.972 75.0527 337.42 75.3886 338.315C76.8068 341.935 78.2623 345.518 79.3819 349.25C80.9494 350.631 83.114 351.415 86.7342 351.676C88.6376 351.826 88.115 348.28 89.8691 347.869C92.8921 347.123 94.4223 349.81 99.0501 344.063C99.386 344.137 99.7219 344.137 100.02 344.175C103.566 344.473 105.656 342.943 105.768 339.696V339.659C105.805 338.054 105.357 336.001 104.35 333.501H113.792C115.024 334.844 116.143 335.889 117.076 336.524C117.673 336.897 118.233 337.084 118.644 337.009C120.547 336.748 121.741 335.665 121.592 333.501H167.348C165.034 338.95 164.884 339.808 167.497 341.338C169.102 342.271 171.154 341.376 173.244 339.472C174.887 337.979 176.566 335.852 178.059 333.501C178.059 333.501 189.516 333.687 202.094 333.762C212.805 333.837 224.3 333.874 230.196 333.725C232.249 333.65 233.593 333.576 234.04 333.464C234.414 333.389 234.787 339.547 235.123 339.547C236.205 338.614 237.325 337.755 238.482 337.046L249.193 365Z" fill="#201000"/>
<path d="M54.3768 354.252H40.6427C38.3287 354.252 38.3287 357.835 40.6427 357.835H54.3768C56.6534 357.835 56.6907 354.252 54.3768 354.252Z" fill="white"/>
<path d="M69.3048 345.892H60.3477C58.0338 345.892 58.0338 349.474 60.3477 349.474H69.3048C71.6187 349.474 71.6187 345.892 69.3048 345.892Z" fill="white"/>
<path d="M99.7593 351.863H80.0538C77.7399 351.863 77.7399 355.446 80.0538 355.446H99.7593C102.073 355.446 102.073 351.863 99.7593 351.863Z" fill="white"/>
<path d="M216.238 345.294H205.489C203.175 345.294 203.175 348.877 205.489 348.877H216.238C218.552 348.877 218.552 345.294 216.238 345.294Z" fill="white"/>
<path d="M173.245 342.309H161.302C158.988 342.309 158.988 345.891 161.302 345.891H173.245C175.558 345.891 175.558 342.309 173.245 342.309Z" fill="white"/>
<path d="M189.367 358.432H176.827C174.513 358.432 174.513 362.014 176.827 362.014H189.367C191.681 362.014 191.681 358.432 189.367 358.432Z" fill="white"/>
<path d="M73.7847 144.881C64.8277 161.452 55.1615 162.795 72.889 176.231C85.8767 186.084 108.269 206.237 117.674 176.679C127.079 147.12 114.539 153.838 114.539 153.838L89.4596 137.268L73.7847 144.881Z" fill="#201000"/>
<path d="M151.151 107.859C155.63 95.3189 159.81 59.7892 114.129 84.869C68.4478 109.949 75.0163 167.908 102.783 175.074C130.55 182.24 151.151 107.859 151.151 107.859Z" fill="#201000"/>
<path d="M166.863 167.909C163.766 177.649 154.323 181.792 144.023 183.583L139.171 215.679L126.183 248.373L101.738 212.433C101.738 212.433 105.582 183.397 105.955 175.97C96.5503 171.491 90.7282 155.369 90.7282 155.369C73.2619 156.264 55.7957 148.203 59.3785 130.289C61.9163 117.6 74.3816 116.144 83.4879 118.272C87.22 119.167 90.3923 120.66 92.0717 122.228C92.0717 122.228 90.2803 108.605 110.882 99.8349C128.609 92.2587 141.261 93.341 149.583 103.828C152.644 107.635 155.07 112.748 157.01 119.093C162.832 138.35 169.998 158.056 166.863 167.909Z" fill="white"/>
<path d="M168.282 152.16C166.789 144.583 164.064 135.813 161.265 126.781C160.407 124.057 159.548 121.295 158.727 118.533C156.973 112.711 154.809 108.046 152.196 104.314C151.786 103.754 151.375 103.194 150.965 102.672C150.144 101.627 149.285 100.694 148.389 99.8354C139.694 91.4382 127.116 90.9157 110.173 98.156C109.165 98.5665 108.232 99.0143 107.299 99.4622C103.828 101.179 101.066 103.045 98.8271 104.911C98.6778 105.023 98.5659 105.135 98.4166 105.284C92.7064 110.36 90.915 115.585 90.3925 118.906C88.8624 118.085 87.0336 117.376 85.0183 116.816C84.6451 116.705 84.2346 116.593 83.824 116.518C80.3905 115.697 71.6947 114.316 64.8276 118.72C60.9835 121.183 58.5577 124.952 57.55 129.916C56.2064 136.709 57.6246 142.755 61.6553 147.457C63.5214 149.622 65.9099 151.45 68.6717 152.943C71.732 154.585 75.3148 155.78 79.1962 156.489C80.801 156.787 82.4805 157.011 84.2346 157.123C85.914 157.235 87.6681 157.273 89.4595 157.235C90.7658 160.445 94.5725 168.991 100.432 174.366C101.552 175.411 102.746 176.306 104.052 177.053C103.791 180.374 103.156 186.196 102.447 192.205C101.738 198.102 100.992 204.11 100.469 207.992C100.32 209.037 100.208 209.933 100.133 210.604C99.984 211.612 99.9094 212.209 99.9094 212.246C99.8348 212.694 99.9467 213.142 100.208 213.478L100.693 214.225L124.653 249.418C124.989 249.903 125.549 250.202 126.146 250.202C126.221 250.202 126.295 250.202 126.333 250.202C127.005 250.127 127.564 249.717 127.788 249.082L140.403 217.285L140.776 216.389C140.813 216.277 140.851 216.128 140.888 215.979L141.261 213.441L141.896 209.298L145.553 185.151C158.205 182.688 165.744 177.239 168.543 168.469C169.924 164.289 169.551 158.691 168.282 152.16ZM165.184 167.387C162.758 175.037 155.742 179.74 143.724 181.83C142.978 181.979 142.381 182.576 142.269 183.323L138.275 209.821L137.454 215.195L125.773 244.566L103.604 211.985C103.679 211.313 103.828 210.156 104.015 208.701C104.537 204.596 105.396 197.915 106.142 191.533C106.888 185.114 107.56 178.956 107.71 176.045C107.71 175.858 107.71 175.672 107.635 175.485C107.486 175 107.15 174.59 106.665 174.366C98.0434 170.26 92.4079 154.921 92.3332 154.772C92.072 154.026 91.3256 153.54 90.5418 153.578C87.9294 153.727 85.3542 153.652 82.891 153.354C82.07 153.279 81.2862 153.167 80.5025 153.018C76.8823 152.421 73.5234 151.338 70.687 149.92C68.1119 148.614 65.9472 147.009 64.3424 145.106C60.9835 141.224 59.9012 136.335 61.0209 130.625C61.8046 126.632 63.7453 123.646 66.731 121.743C70.687 119.205 76.7703 118.571 82.9656 120.026C83.2269 120.101 83.4882 120.175 83.7494 120.213C86.7351 121.034 89.3849 122.265 90.7658 123.534C90.8404 123.609 90.915 123.684 91.027 123.721C91.1763 123.833 91.3629 123.908 91.5495 123.945C91.96 124.057 92.4079 123.982 92.7811 123.796C93.4529 123.46 93.8261 122.713 93.7514 122.004C93.7141 121.519 92.5945 110.323 109.688 102.299C110.285 102 110.882 101.739 111.516 101.478C128.796 94.1253 140.403 95.2076 148.128 104.948C149.061 106.105 149.957 107.449 150.778 108.904C152.495 111.89 153.988 115.473 155.257 119.616C156.078 122.377 156.936 125.139 157.794 127.864C162.683 143.389 167.684 159.474 165.184 167.387Z" fill="#201000"/>
<path d="M147.606 146.859C147.344 146.859 147.083 146.784 146.859 146.672C145.964 146.262 145.59 145.18 146.001 144.284C149.546 136.82 146.449 129.355 134.207 115.771C133.536 115.024 133.61 113.905 134.319 113.233C135.066 112.561 136.185 112.636 136.857 113.345C148.389 126.109 154.099 135.513 149.248 145.777C148.949 146.486 148.277 146.859 147.606 146.859Z" fill="#201000"/>
<path d="M114.764 125.811C116 125.811 117.003 124.808 117.003 123.571C117.003 122.335 116 121.332 114.764 121.332C113.527 121.332 112.524 122.335 112.524 123.571C112.524 124.808 113.527 125.811 114.764 125.811Z" fill="#201000"/>
<path d="M148.054 118.645C149.29 118.645 150.293 117.642 150.293 116.405C150.293 115.169 149.29 114.166 148.054 114.166C146.817 114.166 145.814 115.169 145.814 116.405C145.814 117.642 146.817 118.645 148.054 118.645Z" fill="#201000"/>
<path d="M116.293 115.921C116.144 114.913 115.211 114.353 114.278 114.39C113.27 114.465 112.263 114.54 111.292 114.614C110.322 114.689 109.65 115.734 109.762 116.63C109.911 117.637 110.844 118.197 111.778 118.16C112.785 118.085 113.793 118.011 114.763 117.936C115.771 117.899 116.443 116.854 116.293 115.921Z" fill="#201000"/>
<path d="M143.127 100.73H140.888C138.574 100.73 138.574 104.313 140.888 104.313H143.127C145.441 104.313 145.441 100.73 143.127 100.73Z" fill="#201000"/>
<path d="M89.3848 141.933C88.713 141.933 88.0785 141.56 87.78 140.926C86.3618 138.052 78.9349 131.745 73.1501 132.939C72.1797 133.125 71.2467 132.491 71.0228 131.521C70.8362 130.55 71.4707 129.617 72.441 129.393C79.9799 127.863 88.8623 135.066 90.9896 139.321C91.4374 140.216 91.0642 141.299 90.2058 141.709C89.9073 141.896 89.646 141.933 89.3848 141.933Z" fill="#201000"/>
<path d="M109.874 102.633C109.836 102.522 109.799 102.41 109.762 102.298C109.575 101.626 109.277 101.103 108.978 100.693C108.53 100.096 107.933 99.6851 107.299 99.4985C105.47 98.9387 103.156 99.9464 101.514 101.588C100.618 102.484 99.797 103.455 99.0132 104.5C98.8266 104.761 98.64 105.022 98.4161 105.283C96.6247 107.821 95.2065 110.695 94.0495 113.606C93.3778 115.323 92.8179 117.077 92.3328 118.793C92.1088 119.577 92.4074 120.212 92.8926 120.585C92.9299 120.622 92.9672 120.66 93.0419 120.697C92.9672 120.697 92.9299 120.734 92.8553 120.734C92.594 120.809 92.2955 120.883 92.0342 120.958H91.9969C91.5863 121.033 91.2878 121.219 91.1012 121.443C90.5414 122.04 90.616 123.048 91.1385 123.72C91.2505 123.869 91.3997 124.018 91.5864 124.168C91.9596 124.429 92.4074 124.541 92.9672 124.429C101.85 122.712 112.412 112.71 109.874 102.633Z" fill="#201000"/>
<path d="M144.994 150.368C142.755 150.816 140.515 151.264 138.276 151.711C136 152.159 136.97 155.63 139.246 155.182C141.486 154.734 143.725 154.287 145.964 153.839C148.204 153.391 147.233 149.92 144.994 150.368Z" fill="#201000"/>
<path d="M121.667 333.502C121.592 332.084 120.883 330.144 119.465 327.68C119.39 327.568 119.316 327.456 119.278 327.307L119.241 327.27C118.084 325.217 116.33 321.56 113.904 317.566C113.867 317.529 113.867 317.492 113.867 317.492C110.806 312.453 106.776 306.967 101.812 303.72L101.775 303.683C101.178 303.272 100.543 302.936 99.9087 302.601C99.5355 302.115 99.125 301.63 98.7518 301.182C96.0273 298.159 92.8177 296.443 89.3468 295.584C87.4808 295.136 85.5774 294.912 83.5994 294.875C77.2175 294.763 70.3504 296.555 64.2298 298.197C64.1178 298.234 64.0058 298.234 63.8566 298.309C63.8566 298.309 63.8192 298.309 63.7819 298.309C53.5186 301.033 43.3673 304.056 33.2533 307.34C28.924 308.759 24.5948 310.214 20.3029 311.744L19.9296 312.752L12.0176 333.502H70.7983C70.8729 333.316 70.9102 333.129 70.9476 332.905V332.868C71.0595 333.092 71.1715 333.316 71.2834 333.502C71.4327 333.801 71.582 334.1 71.7313 334.398C72.4777 335.145 73.0749 335.966 73.56 336.899C74.3438 336.973 75.0902 337.421 75.4261 338.317C76.8443 341.937 78.2998 345.52 79.4194 349.252C80.9869 350.633 83.1515 351.417 86.7717 351.678C86.809 351.678 86.8463 351.678 86.8836 351.678C86.9956 351.678 87.1076 351.678 87.1822 351.64C87.3315 351.603 87.4808 351.528 87.6301 351.417C87.6674 351.379 87.7047 351.342 87.742 351.305C87.7794 351.267 87.854 351.193 87.8913 351.118C87.9286 351.081 87.9659 351.006 88.0033 350.969C88.0406 350.931 88.0406 350.857 88.0779 350.819C88.1152 350.782 88.1152 350.707 88.1526 350.67C88.1899 350.633 88.1899 350.558 88.2272 350.521C88.2645 350.446 88.2645 350.409 88.3019 350.334C88.3392 350.26 88.3392 350.222 88.3765 350.148C88.4511 349.961 88.5258 349.737 88.6004 349.55C88.6377 349.439 88.6751 349.364 88.7124 349.289C88.7124 349.252 88.7124 349.252 88.7497 349.215C88.7497 349.177 88.787 349.14 88.787 349.14C88.8243 349.065 88.8243 349.028 88.8617 348.991C88.899 348.916 88.9363 348.841 88.9736 348.729C88.9736 348.692 88.9736 348.692 89.0109 348.692C89.0109 348.692 89.011 348.655 89.0483 348.655C89.0856 348.617 89.0856 348.58 89.1229 348.543C89.1975 348.468 89.2349 348.394 89.3095 348.319C89.3468 348.282 89.3468 348.282 89.3841 348.244C89.4215 348.207 89.4588 348.207 89.4588 348.17C89.4961 348.132 89.5334 348.095 89.5708 348.095C89.6454 348.058 89.72 348.02 89.832 347.983C89.8693 347.946 89.944 347.946 89.9813 347.946C90.0933 347.908 90.2052 347.908 90.3172 347.871C90.3918 347.871 90.5038 347.834 90.5784 347.834C90.6158 347.834 90.6531 347.834 90.6904 347.834C90.7277 347.834 90.8024 347.834 90.8397 347.834C90.9143 347.834 90.9516 347.834 90.989 347.834C91.2129 347.834 91.4368 347.834 91.6608 347.834C91.81 347.834 91.922 347.871 92.0713 347.871H92.1086C92.2579 347.871 92.3698 347.908 92.5191 347.908C92.5564 347.908 92.5938 347.908 92.6684 347.908C92.743 347.908 92.8177 347.908 92.8923 347.946C93.0043 347.946 93.1163 347.946 93.1909 347.983C93.3029 347.983 93.3775 347.983 93.4522 347.983C93.5268 347.983 93.6388 347.983 93.7134 347.983C93.788 347.983 93.9 347.983 93.9746 347.946C94.012 347.946 94.0866 347.946 94.1239 347.908C94.1986 347.908 94.2732 347.871 94.3478 347.871C94.3852 347.871 94.4225 347.871 94.4225 347.834C94.6091 347.796 94.833 347.722 95.057 347.647C95.1316 347.61 95.2436 347.572 95.3182 347.535C95.4302 347.498 95.5421 347.423 95.6541 347.386C95.6914 347.349 95.7661 347.311 95.8407 347.274C95.878 347.237 95.9527 347.199 95.99 347.162C96.0273 347.125 96.0646 347.125 96.1393 347.087C96.2139 347.05 96.2886 346.975 96.3632 346.938C96.4378 346.901 96.4752 346.863 96.5498 346.789C96.5871 346.751 96.6618 346.714 96.7364 346.639C96.7737 346.602 96.8484 346.527 96.923 346.49C97.1843 346.266 97.4828 346.005 97.7814 345.706C97.8934 345.594 97.968 345.52 98.08 345.408C98.1919 345.296 98.2666 345.184 98.3785 345.072C98.5278 344.923 98.6771 344.773 98.7891 344.587C98.8637 344.512 98.901 344.437 98.9757 344.4C99.0503 344.326 99.1249 344.214 99.1996 344.139C99.3489 344.176 99.5355 344.176 99.6848 344.214C99.6848 344.214 99.6848 344.214 99.7221 344.214C99.7967 344.214 99.9087 344.214 99.9833 344.251C100.058 344.251 100.133 344.251 100.207 344.288C100.58 344.326 100.954 344.326 101.327 344.326C101.327 344.326 101.327 344.326 101.364 344.326C101.439 344.326 101.513 344.326 101.625 344.326C101.849 344.326 102.111 344.288 102.335 344.251C102.372 344.251 102.409 344.251 102.447 344.214C102.521 344.214 102.596 344.176 102.633 344.176C102.67 344.176 102.708 344.176 102.745 344.139C102.782 344.139 102.857 344.102 102.894 344.102C102.969 344.064 103.044 344.064 103.118 344.027C103.193 343.99 103.23 343.99 103.305 343.952C103.38 343.915 103.492 343.878 103.566 343.84C103.641 343.803 103.715 343.766 103.753 343.728C103.827 343.691 103.902 343.654 103.939 343.616C103.939 343.616 103.977 343.616 103.977 343.579C103.977 343.579 104.014 343.579 104.014 343.542C104.014 343.542 104.051 343.504 104.089 343.504C104.126 343.467 104.163 343.467 104.201 343.43C104.275 343.392 104.35 343.318 104.425 343.243C104.425 343.243 104.462 343.243 104.462 343.206C104.537 343.131 104.611 343.057 104.686 343.019C104.723 342.982 104.76 342.945 104.798 342.907C104.835 342.87 104.835 342.833 104.872 342.833C104.872 342.795 104.91 342.795 104.91 342.758C104.91 342.758 104.947 342.758 104.947 342.721C105.022 342.646 105.059 342.571 105.134 342.497C105.171 342.459 105.208 342.422 105.208 342.385C105.246 342.31 105.283 342.273 105.32 342.198C105.358 342.124 105.432 342.012 105.47 341.937C105.507 341.9 105.507 341.862 105.544 341.788C105.581 341.713 105.581 341.638 105.619 341.564C105.656 341.489 105.656 341.414 105.693 341.34C105.731 341.265 105.731 341.191 105.768 341.116C105.768 341.041 105.805 340.967 105.805 340.892C105.805 340.817 105.843 340.743 105.843 340.631C105.843 340.556 105.88 340.444 105.88 340.369C105.88 340.295 105.88 340.22 105.917 340.108C105.917 340.034 105.917 339.922 105.917 339.847V339.81C105.917 339.66 105.917 339.511 105.917 339.362C105.917 339.287 105.917 339.213 105.917 339.175V339.138C105.917 339.101 105.917 339.026 105.917 338.989C105.917 338.951 105.917 338.951 105.917 338.914V338.877C105.917 338.802 105.917 338.727 105.88 338.653C105.88 338.503 105.843 338.317 105.805 338.168C105.805 338.13 105.805 338.056 105.805 338.018C105.805 337.906 105.768 337.832 105.768 337.72C105.768 337.682 105.768 337.645 105.731 337.608C105.731 337.533 105.693 337.458 105.693 337.384C105.693 337.309 105.656 337.234 105.656 337.16V337.123C105.656 337.048 105.619 337.011 105.619 336.936C105.581 336.787 105.544 336.6 105.507 336.451C105.507 336.413 105.47 336.376 105.47 336.301C105.47 336.264 105.47 336.227 105.432 336.19C105.395 336.078 105.395 336.003 105.358 335.891V335.854V335.816C105.32 335.704 105.283 335.555 105.246 335.406C105.246 335.368 105.208 335.331 105.208 335.294C105.022 334.809 104.835 334.249 104.611 333.726C104.425 333.278 104.238 332.831 104.014 332.383C103.603 331.45 103.156 330.517 102.708 329.621C102.708 329.621 102.708 329.621 102.708 329.584C100.879 325.777 99.013 322.231 98.1546 319.992V319.955C97.856 319.171 97.6694 318.537 97.6321 318.126C97.5948 317.417 98.0426 317.342 99.1623 318.051C99.6475 318.35 100.207 318.798 100.954 319.395C104.611 322.455 108.455 327.27 111.777 331.114C111.777 331.114 111.777 331.151 111.814 331.151C112.635 332.084 113.382 332.943 114.128 333.726C114.203 333.801 114.24 333.876 114.315 333.913C114.389 333.988 114.427 334.025 114.501 334.1C114.539 334.137 114.576 334.174 114.613 334.212C114.651 334.249 114.651 334.286 114.688 334.286C114.725 334.323 114.8 334.398 114.837 334.435C115.658 335.294 116.405 335.966 117.076 336.488C117.151 336.525 117.188 336.563 117.263 336.6C117.338 336.637 117.375 336.675 117.45 336.712C117.524 336.749 117.562 336.787 117.636 336.824L117.674 336.861C117.748 336.899 117.785 336.936 117.86 336.936H117.897C117.935 336.973 117.972 336.973 118.009 337.011C118.047 337.048 118.084 337.048 118.121 337.048C118.159 337.048 118.196 337.085 118.233 337.085C118.271 337.085 118.308 337.123 118.345 337.123C118.383 337.123 118.383 337.123 118.42 337.16C118.42 337.16 118.42 337.16 118.457 337.16C118.495 337.16 118.532 337.197 118.569 337.197C118.607 337.197 118.644 337.197 118.644 337.197H118.681C118.719 337.197 118.719 337.197 118.756 337.197C118.83 337.197 118.868 337.197 118.942 337.197C120.622 336.749 121.816 335.704 121.667 333.502Z" fill="white"/>
<path d="M102.298 346.788C101.103 346.788 99.9837 346.378 98.9387 345.557C97.3339 344.288 96.4755 342.497 96.4008 342.31C95.9903 341.414 96.4008 340.332 97.2965 339.959C98.1922 339.548 99.2372 339.959 99.6478 340.854C99.6478 340.854 100.208 342.049 101.141 342.758C101.775 343.243 102.521 343.579 103.865 342.609C103.865 342.609 104.313 342.161 104.014 339.959C104.014 339.921 104.014 339.884 104.014 339.847C103.641 337.496 102.596 334.249 100.842 330.143C100.842 330.106 100.805 330.106 100.805 330.069C99.2372 326.411 97.5205 322.978 96.3262 320.701C96.2889 320.664 96.2515 320.589 96.2515 320.552C95.1319 318.35 94.1989 316.67 93.751 315.849C93.5644 315.551 93.4898 315.327 93.4525 315.252C93.0046 314.356 93.3778 313.274 94.2735 312.864C95.1692 312.416 96.2515 312.789 96.6621 313.685L96.886 314.133C97.3339 314.954 98.3042 316.67 99.4238 318.872C99.4612 318.91 99.4612 318.947 99.4985 318.984C100.693 321.298 102.484 324.844 104.126 328.65C104.126 328.688 104.164 328.688 104.164 328.725C106.067 333.166 107.224 336.786 107.634 339.436C107.634 339.474 107.634 339.548 107.634 339.585C107.784 340.78 108.157 343.952 106.03 345.52C104.798 346.341 103.529 346.788 102.298 346.788Z" fill="#201000"/>
<path d="M117.86 338.391C117.524 338.391 117.225 338.354 116.89 338.317C116.852 338.317 116.778 338.317 116.74 338.279C114.426 337.794 112.822 335.928 111.814 334.585C111.291 333.876 110.694 333.017 109.985 331.898C109.985 331.86 109.948 331.86 109.948 331.823L109.201 330.591C108.268 329.098 107.335 327.568 106.29 326.15C101.364 319.582 94.3103 316.111 94.273 316.073C94.1237 315.999 93.9744 315.887 93.8251 315.775C93.0787 315.103 93.0414 313.983 93.7132 313.237C94.3103 312.603 95.2433 312.453 95.9898 312.901C97.1094 313.461 104.051 317.193 109.164 323.985C110.321 325.516 111.291 327.12 112.262 328.688L113.008 329.882C113.008 329.92 113.045 329.92 113.045 329.957C113.68 331.002 114.202 331.748 114.688 332.383C115.733 333.764 116.628 334.51 117.449 334.734H117.487C117.823 334.809 118.158 334.771 118.532 334.659C118.569 334.659 118.606 334.659 118.644 334.51C119.017 333.726 118.98 331.524 117.599 327.904C117.599 327.867 117.524 327.718 117.524 327.68C116.442 324.956 114.688 321.784 112.486 318.537C112.448 318.499 112.411 318.462 112.411 318.387C109.276 313.834 105.32 309.356 100.767 305.064C100.692 305.026 100.618 304.952 100.58 304.877C100.356 304.653 100.207 304.504 100.058 304.355C99.3487 303.683 98.6022 303.123 97.8185 302.601C90.8395 297.898 79.9044 297.002 64.3415 299.913C64.2669 299.951 64.1922 299.951 64.1176 299.988C50.6447 302.526 36.1641 307.415 21.3103 312.603C21.0864 312.715 20.8251 312.752 20.5639 312.752C19.5562 312.752 18.7725 311.968 18.7725 310.96C18.7725 310.214 19.2576 309.505 19.9667 309.244C34.9698 303.981 49.5997 299.055 63.3338 296.443C63.4085 296.405 63.4831 296.405 63.5577 296.368C80.1283 293.233 91.9591 294.278 99.7965 299.578C100.73 300.175 101.625 300.884 102.484 301.667C102.633 301.817 102.82 302.003 103.006 302.19C103.081 302.227 103.118 302.265 103.155 302.339C107.933 306.818 112.075 311.558 115.397 316.335C115.434 316.372 115.471 316.409 115.471 316.484C117.86 319.955 119.689 323.314 120.92 326.411C122.115 329.434 123.16 333.465 121.891 336.04C121.405 337.048 120.584 337.72 119.539 338.018C118.98 338.279 118.42 338.391 117.86 338.391Z" fill="#201000"/>
<path d="M93.9741 350.894C91.4736 350.894 89.2717 349.55 88.9731 349.364C88.152 348.841 87.8908 347.722 88.4133 346.901C88.9358 346.08 90.0554 345.818 90.8765 346.341C91.4736 346.714 93.4143 347.647 94.7579 347.199C94.9818 347.124 95.6162 346.901 96.1014 345.706C97.6316 341.937 90.5406 326.747 84.3453 318.649C83.7481 317.865 83.8974 316.745 84.6812 316.148C85.4649 315.551 86.5846 315.7 87.1817 316.484C91.5856 322.269 102.073 340.481 99.423 347.05C98.49 349.364 96.9598 350.259 95.8402 350.633C95.2057 350.819 94.5712 350.894 93.9741 350.894Z" fill="#201000"/>
<path d="M85.578 353.842C83.0402 353.842 80.8009 352.126 80.5397 351.902C78.1884 349.961 77.4047 347.348 76.6583 344.848C75.7253 341.75 74.7176 338.541 70.7616 335.891C68.6716 334.51 62.5136 336.152 52.2876 338.951C46.7268 340.444 39.8597 342.347 31.3132 344.363C30.3428 344.587 29.3725 343.99 29.1486 343.019C28.9246 342.049 29.5218 341.079 30.4921 340.855C38.964 338.839 45.8311 336.973 51.3546 335.48C63.6706 332.121 69.306 330.591 72.7769 332.905C77.8152 336.264 79.0842 340.444 80.0918 343.803C80.8009 346.08 81.3234 347.871 82.8163 349.14C83.4134 349.588 84.9809 350.521 85.9885 350.222C86.1752 350.185 86.735 350.036 87.2201 348.804C88.7503 345.035 81.6593 329.845 75.464 321.746C74.8669 320.962 75.0162 319.843 75.7999 319.246C76.5836 318.649 77.7033 318.798 78.3004 319.582C82.7043 325.366 93.1915 343.579 90.5417 350.148C89.5714 352.536 88.0412 353.394 86.9216 353.693C86.4364 353.768 85.9885 353.842 85.578 353.842Z" fill="#201000"/>
<path d="M229.413 324.844C227.958 320.776 225.196 317.044 221.875 313.946C220.979 313.088 220.008 312.304 219.038 311.557C215.866 309.131 212.395 307.265 209.111 306.146C207.916 305.735 207.133 306.556 206.983 307.527C195.078 303.048 181.978 308.012 174.365 318.126C173.693 319.022 173.059 319.992 172.461 320.962C170.073 324.993 169.215 328.762 169.588 332.047C169.812 334.099 170.558 335.928 171.678 337.57C172.163 338.242 172.723 338.876 173.32 339.474C174.962 337.981 176.641 335.853 178.134 333.502H202.02C202.057 333.614 202.132 333.689 202.169 333.763C212.88 333.838 224.375 333.875 230.272 333.726C230.794 330.703 230.421 327.68 229.413 324.844Z" fill="white"/>
<path d="M238.558 337.085C238.52 339.436 236.057 343.019 232.474 339.772C229.227 340.556 229.078 344.064 225.421 343.504C223.443 341.937 221.987 339.884 220.83 337.645C220.494 336.264 220.046 334.883 219.524 333.502C218.516 330.815 217.173 328.202 215.829 325.851C215.195 324.508 214.485 323.239 213.627 322.082C213.216 321.559 212.731 321.261 212.246 321.186C211.537 319.954 210.94 318.872 210.492 318.051C209.149 315.588 205.379 317.79 206.723 320.253C207.618 321.932 210.305 326.598 212.545 331.561C212.284 332.009 212.172 332.532 212.321 333.166C212.321 333.278 212.358 333.39 212.395 333.502C213.403 337.906 213.254 342.086 212.172 346.228C209.522 345.295 207.394 343.84 206.349 342.011C205.081 339.809 203.625 336.712 201.983 333.502C198.96 327.568 195.489 321.186 192.018 319.171C186.644 316.036 183.509 323.649 179.926 330.367C179.366 331.449 178.732 332.494 178.097 333.502C174.701 338.876 170.409 343.019 167.536 341.339C164.923 339.809 165.072 338.951 167.386 333.502C167.648 332.905 167.946 332.233 168.245 331.524C167.312 332.233 166.379 332.905 165.408 333.502H156.451C156.488 333.465 156.526 333.465 156.563 333.427C156.451 332.606 156.563 331.785 156.824 330.964C157.907 327.307 161.863 323.575 163.841 320.999C168.058 315.588 172.76 310.326 178.359 306.332C180.374 304.877 182.539 303.57 184.815 302.488C194.145 298.084 203.886 298.831 213.776 300.697C214.261 300.771 214.747 300.883 215.269 300.958C218.591 301.555 222.136 302.19 225.607 303.085L226.055 304.242L238.558 337.085Z" fill="white"/>
<path d="M210.529 347.46C209.932 347.46 209.335 347.385 208.7 347.236C205.192 346.377 203.177 341.451 200.826 335.741C199.594 332.793 198.325 329.732 196.981 327.829L196.347 326.896C194.444 324.134 192.316 321.036 190.114 321.036C188.547 321.036 186.569 322.641 184.442 325.702C182.949 327.829 181.605 329.807 180.374 331.636C174.962 339.734 171.379 345.071 166.826 342.981C165.483 342.347 164.587 341.414 164.139 340.145C162.982 336.711 165.632 331.673 170.446 322.492L172.275 319.021C172.723 318.125 173.805 317.789 174.701 318.275C175.597 318.722 175.932 319.805 175.447 320.701L173.618 324.171C169.849 331.374 166.863 337.047 167.535 339.025C167.61 339.249 167.759 339.51 168.319 339.734C170.073 340.518 173.618 335.256 177.388 329.658C178.619 327.792 180 325.776 181.493 323.649C184.404 319.469 187.241 317.454 190.114 317.454C190.114 317.454 190.114 317.454 190.152 317.454C194.22 317.454 196.944 321.41 199.333 324.88L199.967 325.776C201.535 328.015 202.878 331.262 204.184 334.397C205.752 338.167 207.879 343.354 209.633 343.765C210.417 343.952 211.499 344.026 212.208 343.242C213.328 342.048 213.44 339.51 212.47 336.413C210.417 329.732 202.878 316.595 202.804 316.483C202.393 315.811 202.505 314.916 203.065 314.356C203.625 313.796 204.483 313.647 205.192 313.983C205.715 314.244 218.292 320.812 222.099 331.561C225.42 341.003 226.988 341.04 228.331 341.04C228.592 341.04 228.854 340.891 229.04 340.593C229.451 340.033 230.608 337.644 228.294 331.15C225.271 322.567 217.732 314.692 217.657 314.617C216.986 313.908 216.986 312.788 217.695 312.079C218.404 311.408 219.523 311.408 220.233 312.117C220.568 312.453 228.368 320.626 231.69 329.956C234.228 337.196 233.258 340.854 231.989 342.645C231.093 343.914 229.787 344.623 228.406 344.623C224.674 344.623 222.285 342.832 218.702 332.755C216.948 327.792 212.88 323.761 209.372 321.036C211.723 325.515 214.634 331.374 215.866 335.368C217.247 339.846 216.874 343.541 214.784 345.706C213.664 346.863 212.171 347.46 210.529 347.46Z" fill="#201000"/>
<path d="M154.137 336.637C153.801 336.637 153.465 336.525 153.129 336.339C152.308 335.779 152.084 334.659 152.644 333.838C153.204 332.98 166.826 312.714 180.523 302.264C193.585 292.262 208.439 296.89 222.808 301.369C224.338 301.854 225.868 302.339 227.398 302.787C228.331 303.085 228.891 304.056 228.592 305.026C228.294 305.959 227.323 306.519 226.353 306.22C224.786 305.773 223.255 305.287 221.725 304.802C207.581 300.436 194.257 296.293 182.687 305.138C169.438 315.252 155.742 335.667 155.592 335.891C155.256 336.376 154.697 336.637 154.137 336.637Z" fill="#201000"/>
<path d="M57.811 214.671C56.9526 214.671 56.1689 214.037 56.0569 213.178C55.9076 212.208 56.5794 211.275 57.5497 211.126C66.7307 209.67 79.9797 209.521 101.85 210.678C102.82 210.715 103.604 211.573 103.529 212.581C103.492 213.551 102.634 214.335 101.626 214.261C80.017 213.104 67.0293 213.253 58.1096 214.671C57.9976 214.671 57.923 214.671 57.811 214.671Z" fill="#201000"/>
<path d="M139.17 217.471C138.312 217.471 137.566 216.873 137.416 216.015C137.23 215.045 137.864 214.112 138.835 213.925C140.663 213.552 142.641 213.179 144.694 212.731C158.279 209.932 176.902 206.125 190.524 208.215C191.495 208.364 192.166 209.297 192.017 210.268C191.868 211.238 190.972 211.91 189.964 211.76C176.977 209.782 158.727 213.514 145.403 216.239C143.313 216.649 141.335 217.06 139.506 217.433C139.432 217.471 139.282 217.471 139.17 217.471Z" fill="#201000"/>
<path d="M200.115 299.913C199.182 299.913 198.399 299.204 198.324 298.233L196.532 273.154C196.458 272.183 197.204 271.325 198.175 271.25C199.182 271.176 200.003 271.922 200.078 272.892L201.869 297.972C201.944 298.942 201.198 299.801 200.227 299.876C200.19 299.913 200.153 299.913 200.115 299.913Z" fill="#201000"/>
</svg>
