<svg width="371" height="353" viewBox="0 0 371 353" fill="none" xmlns="http://www.w3.org/2000/svg">
<path d="M284.079 208.219L239.987 201.058L250.434 173.075C252.744 166.882 249.725 164.067 243.715 166.813L191.501 190.684L169.704 160.615C166.573 156.299 162.644 156.907 160.965 161.968L149.284 197.228L92.2951 190.266C85.736 189.466 83.71 193.063 87.7843 198.267L106.211 221.772L66.3432 241.935C58.8449 245.725 59.496 249.929 67.7903 251.28L111.882 258.441L101.435 286.424C99.1256 292.617 102.144 295.432 108.154 292.686L160.368 268.815L182.167 298.891C185.297 303.206 189.227 302.598 190.905 297.537L202.587 262.277L259.575 269.239C266.134 270.039 268.16 266.443 264.086 261.238L245.665 237.726L285.526 217.564C293.024 213.774 292.373 209.57 284.079 208.219Z" fill="#171717"/>
<mask id="mask0" mask-type="alpha" maskUnits="userSpaceOnUse" x="0" y="32" width="371" height="304">
<path d="M0 230.091L32.2992 324.341L46.2426 335.284L146.67 324.341L199.443 235.562L294.929 222.148L371 85.3617L332.7 32.4121H81.0128L54.7146 150.49L0 230.091Z" fill="#C4C4C4"/>
</mask>
<g mask="url(#mask0)">
<path fill-rule="evenodd" clip-rule="evenodd" d="M299.18 272.972H352.194C352.974 272.972 353.606 272.34 353.606 271.56C353.606 270.78 352.974 270.148 352.194 270.148H289.625H262.784L156.646 562.327C156.379 563.06 155.569 563.438 154.836 563.172C154.103 562.906 153.725 562.096 153.991 561.363L259.78 270.148H211.307C208.849 270.148 206.856 268.155 206.856 265.697C206.856 263.239 208.849 261.246 211.307 261.246H304.172C304.02 260.9 304.004 260.49 304.179 260.101L319.368 226.376C320.097 224.759 321.22 223.35 322.635 222.279L325.493 220.117C328.775 217.635 332.985 216.734 336.991 217.65V217.65L357.799 167.005C360.486 163.93 363.275 162.994 366.166 164.196C366.212 164.215 366.257 164.235 366.302 164.255C369.67 165.745 371.193 169.682 369.703 173.05C360.661 193.49 353.631 209.382 348.613 220.727L376.525 228.129C377.278 228.329 377.727 229.102 377.527 229.856C377.327 230.61 376.554 231.059 375.801 230.859L347.456 223.342C346.207 226.167 345.099 228.67 344.134 230.852C346.332 231.689 347.334 235.005 347.718 240.853C347.771 241.649 347.154 242.331 346.356 242.357C338.447 242.62 331.779 243.897 326.353 246.176C323.707 247.286 321.54 249.126 319.853 251.719C321.579 251.769 323.153 251.981 324.791 252.477C328.406 253.571 331.02 255.829 332.103 259.466L358.085 259.683H529.92L562.599 363.019C563.995 367.434 563.218 372.017 560.867 375.612H611.25C612.292 372.361 614.688 370.33 617.969 369.339C619.415 368.901 620.806 368.703 622.315 368.646C620.798 366.384 618.868 364.772 616.526 363.79C611.57 361.711 605.478 360.544 598.249 360.303L581.167 360.302C580.387 360.302 579.755 359.67 579.754 358.891C579.755 358.111 580.387 357.479 581.167 357.479H598.272L598.319 357.479C605.881 357.73 612.314 358.961 617.618 361.186C622.966 363.429 626.467 368.288 628.132 375.612H642.577C641.04 368.161 638.059 363.422 633.696 361.272C628.619 358.771 618.268 354.693 602.689 349.061C602.159 348.869 601.814 348.394 601.763 347.869L592.816 340.153C592.225 339.644 592.16 338.752 592.669 338.161C593.178 337.571 594.07 337.505 594.66 338.014L603.386 345.54C630.525 351.968 645.493 356.423 648.963 359.208C654.194 363.407 657.594 369.268 659.157 376.734C659.188 376.886 659.195 377.035 659.179 377.179H683.88C686.339 377.179 688.331 379.172 688.331 381.63C688.331 384.089 686.339 386.081 683.88 386.081H566.221L649.462 561.239C649.796 561.943 649.497 562.785 648.792 563.12C648.088 563.455 647.246 563.155 646.911 562.451L563.094 386.081H523.223L587.571 511.146H568.197L584.222 561.416C584.513 562.327 583.833 563.257 582.877 563.257H573.753C573.731 563.257 573.709 563.257 573.687 563.257H442.829C441.838 563.257 441.156 562.264 441.51 561.339L443.73 555.549C446.127 549.3 451.38 544.583 457.85 542.872L481.968 536.491L474.065 511.146H442.828L398.976 398.813C399.455 398.483 399.699 397.877 399.54 397.284L376.573 311.361C375.082 305.781 378.184 300.002 383.659 298.162L440.109 279.192C440.848 278.943 441.246 278.143 440.997 277.403C440.749 276.664 439.948 276.266 439.209 276.515L382.759 295.486C375.871 297.8 371.968 305.07 373.845 312.09L396.448 396.653L384.967 510.732H350.344V561.845C350.344 562.625 349.712 563.257 348.932 563.257H334.968C334.188 563.257 333.556 562.625 333.556 561.845V530.708L308.728 562.71C308.461 563.055 308.049 563.257 307.612 563.257H209.146C208.155 563.257 207.473 562.264 207.827 561.339L210.047 555.549C212.444 549.3 217.697 544.583 224.167 542.872L248.871 536.337L254.283 510.732H214.439L260.832 377.477L260.986 377.479L299.18 272.972ZM636.406 196.516L593.176 195.484L537.983 72.6828C535.826 67.8816 537.968 62.2402 542.77 60.0824C543.988 59.5347 545.308 59.2493 546.644 59.2448L733.016 58.6072C737.674 58.5912 741.661 61.9444 742.444 66.5362L763.938 192.605C790.071 199.166 809.422 222.815 809.422 250.983C809.422 284.223 782.476 311.169 749.236 311.169C715.996 311.169 689.05 284.223 689.05 250.983C689.05 238.705 692.726 227.287 699.038 217.767L696.144 220.572C695.119 221.566 693.953 222.403 692.683 223.056C686.669 226.144 681.418 226.956 676.968 225.388C673.217 224.067 670.869 221.839 670.045 218.808C667.344 221.118 664.015 221.864 660.178 220.994C656.009 220.049 653.388 217.647 652.458 213.953C649.351 215.959 646.156 216.416 642.97 215.248C637.063 213.082 633.759 206.791 635.328 200.698L636.406 196.516ZM98.5258 206.017L104.285 59.0435C104.486 53.9288 108.69 49.8857 113.809 49.8857H326.77C327.698 49.8857 328.621 50.0213 329.51 50.2881C334.552 51.8015 337.412 57.1153 335.899 62.1568L296.691 192.772C294.63 199.639 288.309 204.341 281.139 204.341H190.811C190.771 204.341 190.732 204.341 190.692 204.342C190.939 204.497 191.184 204.662 191.427 204.838C192.11 205.333 192.721 205.86 193.258 206.418C196.293 209.57 196.68 214.427 194.182 218.021L176.917 242.862C176.88 242.915 176.841 242.965 176.797 243.012L172.059 248.167C168.933 251.569 164.402 253.182 159.92 252.626L151.507 259.946C151.693 261.875 151.789 263.831 151.789 265.809C151.789 299.049 124.842 325.995 91.6025 325.995C58.3627 325.995 31.4165 299.049 31.4165 265.809C31.4165 232.569 58.3627 205.623 91.6025 205.623C93.9439 205.623 96.2541 205.757 98.5258 206.017ZM565.233 511.146H477.023L484.985 536.68H529.474C530.254 536.68 530.886 537.312 530.886 538.092C530.886 538.872 530.254 539.504 529.474 539.504H482.011C481.915 539.504 481.82 539.494 481.729 539.476L458.572 545.602C452.98 547.081 448.438 551.159 446.367 556.56L444.882 560.433H571.737L560.188 527.046C559.933 526.309 560.324 525.505 561.061 525.25C561.798 524.995 562.602 525.386 562.857 526.123L574.726 560.433H580.945L565.233 511.146ZM347.52 510.732H257.169L251.454 537.771C251.344 538.293 250.949 538.708 250.434 538.844L224.889 545.602C219.296 547.081 214.755 551.159 212.684 556.56L211.199 560.433H306.921L333.853 525.719C334.677 524.656 336.38 525.239 336.38 526.584V560.433H347.52V510.732ZM147.147 239.008L146.955 239.174C146.788 238.892 146.619 238.612 146.449 238.334L147.147 239.008ZM623.843 371.457C621.959 371.425 620.379 371.56 618.786 372.042C616.667 372.682 615.133 373.818 614.281 375.612H625.23C624.853 374.09 624.391 372.706 623.843 371.457ZM645.456 375.612H655.995C654.43 369.583 651.498 364.864 647.195 361.41C644.972 359.625 635.961 356.663 620.445 352.652C627.07 355.212 631.9 357.24 634.944 358.739C640.316 361.386 643.798 367.055 645.456 375.612ZM335.9 220.306C332.865 219.741 329.694 220.481 327.197 222.37L324.339 224.532C323.301 225.317 322.477 226.35 321.943 227.536L307.654 259.262L313.849 259.314C315.649 251.31 319.448 246.012 325.26 243.572C325.684 243.393 326.116 243.221 326.554 243.054L335.9 220.306ZM340.104 239.964C341.616 239.799 343.176 239.676 344.786 239.596C344.602 237.645 344.328 236.119 343.972 235.032C343.777 234.435 343.565 233.997 343.356 233.723C343.226 233.553 343.142 233.492 343.094 233.481C343.056 233.472 343.018 233.465 342.98 233.462C341.688 236.382 340.729 238.55 340.104 239.964ZM329.098 259.441C328.183 257.276 326.431 255.924 323.973 255.18C322.198 254.643 320.44 254.497 318.338 254.539C317.703 255.974 317.171 257.573 316.743 259.338L329.098 259.441ZM122.882 182.927C128.658 188.631 128.885 194.221 123.316 198.948C122.994 199.22 122.586 199.324 122.2 199.268L123.36 214.674C137.944 223.75 148.361 238.891 151.084 256.571L158.036 250.522C158.298 249.944 158.929 249.596 159.581 249.717C163.387 250.428 167.319 249.152 169.98 246.257L174.653 241.172L191.863 216.409C193.592 213.921 193.324 210.559 191.223 208.376C190.805 207.942 190.321 207.524 189.77 207.125C187.01 205.125 184.001 204.888 180.542 206.438L167.923 223.185C167.454 223.807 166.568 223.932 165.945 223.462C165.323 222.993 165.198 222.108 165.668 221.485L178.624 204.292C179.594 201.08 178.807 198.644 176.204 196.682C173.613 194.73 171.102 194.519 168.406 196.008C168.389 196.018 168.372 196.027 168.355 196.035C168.308 196.161 168.243 196.282 168.158 196.395L155.197 213.595C154.728 214.218 153.842 214.342 153.219 213.873C152.597 213.403 152.472 212.518 152.942 211.895L165.903 194.696C166.037 194.517 166.205 194.38 166.392 194.285C166.439 194.164 166.505 194.043 166.593 193.926L185.03 169.313C186.497 165.057 185.989 162.189 183.647 160.381C181.113 158.426 177.924 158.544 173.824 160.906C173.787 160.927 173.754 160.955 173.728 160.987L140.398 201.443C139.699 202.291 138.342 202.051 137.977 201.015C136.637 197.219 135.654 194.401 135.026 192.558C134.915 192.233 134.803 191.89 134.679 191.498C134.595 191.235 134.522 191 134.388 190.566C133.271 186.96 132.683 185.593 131.688 184.708C130.36 183.529 128.923 182.667 127.37 182.116C125.78 181.552 124.087 181.917 122.882 182.927ZM121.365 185.406C121.261 185.852 121.225 186.313 121.258 186.772L121.98 196.358C125.54 193.049 125.399 189.594 121.365 185.406ZM174.598 241.251L174.718 241.101L174.653 241.172L174.598 241.251ZM180.22 167.962C180.767 167.406 181.661 167.399 182.217 167.946C182.773 168.493 182.78 169.387 182.233 169.943C180.26 171.947 177.785 171.928 175.343 170.026C172.88 168.108 172.28 165.752 173.908 163.52C174.367 162.89 175.251 162.752 175.881 163.211C176.511 163.671 176.649 164.554 176.189 165.184C175.55 166.06 175.725 166.744 177.078 167.798C178.453 168.869 179.321 168.876 180.22 167.962ZM91.6025 323.171C123.283 323.171 148.965 297.489 148.965 265.809C148.965 234.129 123.283 208.447 91.6025 208.447C59.9223 208.447 34.2405 234.129 34.2405 265.809C34.2405 297.489 59.9223 323.171 91.6025 323.171ZM111.157 261.855C109.515 262.354 107.583 261.972 105.454 260.8C104.771 260.424 104.522 259.565 104.898 258.882C105.274 258.199 106.132 257.95 106.816 258.326C108.558 259.285 109.797 259.46 110.687 259.002L110.429 257.438C110.337 256.877 110.59 256.315 111.071 256.012L124.124 247.816L114.071 245.108C114.7 247.473 113.615 250.036 111.344 251.186C109.248 252.248 106.993 252.926 104.588 253.222C102.182 253.517 99.8297 253.404 97.5389 252.881C96.0045 252.53 94.7055 251.516 93.9943 250.111C92.6728 247.503 93.7164 244.317 96.3251 242.995C98.4213 241.933 100.676 241.255 103.082 240.959C104.506 240.784 105.912 240.753 107.297 240.865C106.199 238.145 104.41 235.837 102.183 234.109L83.1063 242.86L66.6621 245.777C66.5722 246.359 66.5259 246.954 66.5259 247.556V287.91C75.8278 290.054 84.6371 290.76 92.957 290.032C101.185 289.312 108.467 287.315 114.813 284.045L111.157 261.855ZM105.582 243.623C104.87 243.627 104.152 243.673 103.426 243.762C101.342 244.018 99.4029 244.602 97.6012 245.514C96.3838 246.131 95.8968 247.618 96.5135 248.835C96.8454 249.491 97.4516 249.964 98.1676 250.128C100.137 250.577 102.159 250.675 104.243 250.419C106.327 250.163 108.266 249.579 110.068 248.667C111.286 248.05 111.773 246.563 111.156 245.346C111.035 245.107 110.878 244.893 110.693 244.709C110.717 244.826 110.734 244.946 110.745 245.069C110.889 246.719 109.747 248.168 108.193 248.304C106.639 248.44 105.263 247.212 105.118 245.561C105.056 244.847 105.234 244.171 105.582 243.623ZM110.416 241.198L127.979 245.93C129.169 246.251 129.406 247.835 128.363 248.49L113.368 257.905L117.765 284.589C117.863 285.182 117.574 285.773 117.044 286.06C110.139 289.799 102.188 292.059 93.2031 292.845C84.2457 293.629 74.771 292.812 64.7824 290.4C64.1485 290.246 63.7019 289.679 63.7019 289.027V247.556C63.7019 241.634 67.309 236.31 72.8084 234.115L85.0728 229.218C86.3573 228.705 87.6936 228.333 89.0583 228.108C98.5038 226.552 107.574 232.211 110.416 241.198ZM93.0051 267.586C87.6689 270.423 81.043 268.397 78.2057 263.061C75.3684 257.725 77.3942 251.099 82.7303 248.262C83.4189 247.895 84.2738 248.157 84.6399 248.845C85.006 249.534 84.7447 250.389 84.0561 250.755C80.097 252.86 78.594 257.776 80.6991 261.735C82.8042 265.694 87.7202 267.197 91.6793 265.092C92.3679 264.726 93.2228 264.987 93.5889 265.676C93.955 266.365 93.6937 267.22 93.0051 267.586ZM749.236 308.345C780.916 308.345 806.598 282.663 806.598 250.983C806.598 219.303 780.916 193.621 749.236 193.621C717.556 193.621 691.874 219.303 691.874 250.983C691.874 282.663 717.556 308.345 749.236 308.345ZM739.701 230.279C740.372 230.945 740.7 231.942 740.485 232.953C740.153 234.517 738.647 235.522 737.121 235.198C735.869 234.932 734.993 233.853 734.903 232.61C734.391 233.016 733.893 233.468 733.411 233.968C736.201 235.874 739.072 236.667 742.067 236.384C744.011 236.2 745.797 235.582 747.436 234.519C746.688 233.269 746 231.874 745.37 230.334C744.028 229.997 742.663 229.896 741.271 230.028C740.735 230.079 740.212 230.162 739.701 230.279ZM770.522 256.414L769.161 271.626C769.103 272.281 768.6 272.809 767.949 272.899C760.384 273.948 752.202 273.534 743.408 271.665C734.576 269.788 727.948 267.135 723.518 263.664C723.113 263.347 722.912 262.835 722.995 262.327L725.181 248.807C725.173 248.61 725.205 248.42 725.272 248.246L725.991 243.801L715.469 241.564C714.46 241.35 714.014 240.162 714.632 239.337L725.103 225.358C732.036 216.102 744.012 212.162 755.085 215.494L763.762 218.104C769.537 219.842 773.295 225.399 772.758 231.405L772.017 239.691L798.266 247.775C798.413 247.82 798.557 247.875 798.696 247.939C800.469 248.751 801.248 250.846 800.436 252.618L794.215 266.207C794.157 266.332 794.093 266.453 794.021 266.571C793.009 268.237 790.837 268.766 789.171 267.753L770.522 256.414ZM742.019 217.688C736.288 218.905 731.037 222.146 727.364 227.051L718.217 239.261L727.893 241.318C728.629 241.475 729.113 242.181 728.993 242.925L728.688 244.809C730.634 245.115 732.151 245.383 733.243 245.615C733.935 245.763 734.468 245.897 734.857 246.026C735.098 246.106 735.298 246.188 735.474 246.285C735.909 246.527 736.224 246.827 736.32 247.426C736.435 248.131 736.104 248.614 735.648 248.919C735.477 249.033 735.302 249.11 735.099 249.177C734.844 249.261 734.524 249.333 734.123 249.403C733.48 249.515 732.613 249.623 731.527 249.733C731.268 249.759 730.998 249.785 730.715 249.811C730.103 249.868 728.793 249.978 727.839 250.058L725.918 261.937C729.967 264.869 735.994 267.202 743.995 268.903C752.048 270.615 759.532 271.06 766.45 270.244L768.948 242.304C767.653 239.989 765.36 238.207 762.505 237.6C758.955 236.846 755.462 238.104 753.288 240.586C751.536 239.349 750.125 238.099 749.055 236.834C747.022 238.172 744.777 238.964 742.333 239.195C738.147 239.591 734.166 238.27 730.451 235.284C729.841 234.793 729.746 233.899 730.242 233.291C733.203 229.66 736.81 227.614 741.005 227.217C742.102 227.113 743.186 227.127 744.255 227.258C743.352 224.453 742.606 221.263 742.019 217.688ZM669.929 214.773C669.934 214.671 669.95 214.568 669.978 214.466L678.857 181.781C678.783 181.63 678.734 181.461 678.718 181.275C678.347 177.089 676.53 174.589 673.162 173.508C669.562 172.352 666.754 173.437 664.404 176.952C664.252 177.18 664.056 177.343 663.84 177.446L655.155 210.645C655.104 210.837 655.017 211.01 654.901 211.157C654.91 211.211 654.916 211.266 654.919 211.322C655.114 215.166 656.99 217.375 660.802 218.24C664.633 219.108 667.591 217.988 669.929 214.773ZM672.561 215.547C672.56 215.561 672.559 215.575 672.558 215.589C672.326 219.059 674.009 221.352 677.906 222.725C681.528 224 686.011 223.307 691.392 220.544C692.415 220.018 693.354 219.345 694.179 218.545L701.382 211.561L694.634 209.259C694 209.042 693.605 208.41 693.689 207.746L696.169 188.074C696.147 182.711 694.404 179.759 690.94 178.809C687.795 177.946 684.817 178.781 681.88 181.426L672.703 215.206C672.67 215.328 672.621 215.442 672.561 215.547ZM652.391 210.491C652.365 210.309 652.373 210.119 652.423 209.93L661.412 175.57C661.441 175.457 661.484 175.351 661.537 175.253C660.468 171.727 658.305 169.518 654.969 168.494C653.615 168.078 652.361 167.911 651.203 167.984C648.457 168.157 646.135 170.076 645.449 172.74L638.063 201.403C636.855 206.091 639.397 210.931 643.942 212.597C646.709 213.611 649.472 212.953 652.391 210.491ZM648.541 178.398C648.281 180.085 649.069 181.069 651.386 181.67C653.693 182.268 654.749 181.846 655.204 180.406C655.439 179.663 656.232 179.251 656.976 179.486C657.719 179.721 658.132 180.514 657.897 181.257C656.936 184.298 654.312 185.346 650.677 184.403C647.053 183.464 645.25 181.212 645.75 177.968C645.869 177.198 646.59 176.669 647.36 176.788C648.131 176.907 648.66 177.628 648.541 178.398ZM666.541 184.066C666.281 185.752 667.069 186.736 669.387 187.337C671.694 187.935 672.749 187.514 673.204 186.074C673.439 185.33 674.232 184.918 674.976 185.153C675.72 185.388 676.132 186.181 675.897 186.925C674.936 189.965 672.312 191.013 668.678 190.071C665.054 189.131 663.25 186.879 663.75 183.636C663.869 182.865 664.59 182.336 665.361 182.455C666.131 182.574 666.66 183.295 666.541 184.066ZM684.2 188.795C683.94 190.481 684.728 191.465 687.045 192.066C689.352 192.664 690.408 192.243 690.863 190.803C691.098 190.059 691.891 189.647 692.635 189.882C693.378 190.117 693.791 190.91 693.556 191.654C692.595 194.694 689.971 195.742 686.336 194.8C682.712 193.86 680.909 191.608 681.409 188.365C681.528 187.594 682.249 187.065 683.019 187.184C683.79 187.303 684.319 188.024 684.2 188.795ZM468.887 97.7948C462.647 94.4057 457.995 91.8675 454.931 90.1802C452.03 88.5823 448.531 86.6342 444.436 84.3359C437.603 90.4907 434.974 99.4265 436.567 111.306L444.431 110.341C445.205 110.246 445.91 110.796 446.005 111.57C446.1 112.344 445.55 113.048 444.776 113.144L435.541 114.277C434.786 114.37 434.093 113.848 433.974 113.096C432.41 103.182 433.546 94.9541 437.392 88.4866L433.013 92.4271C431.957 94.7145 431.388 97.2658 431.433 99.9408L431.967 132.026C438.666 134.431 446.098 135.137 454.279 134.132C462.448 133.129 469.504 131.093 475.453 128.031L472.877 116.164C472.684 115.277 473.367 114.441 474.276 114.453C474.645 114.458 475.017 114.438 475.388 114.392C479.839 113.846 483.004 109.795 482.457 105.344C481.911 100.894 477.86 97.729 473.41 98.2754C472.535 98.3828 471.699 98.6264 470.921 98.9949C470.099 99.3841 469.129 98.9069 468.936 98.0185L468.914 97.9155C468.905 97.8752 468.896 97.8349 468.887 97.7948ZM453.028 79.7551C461.584 81.0778 468.829 87.2581 471.3 95.8372C471.874 95.6687 472.463 95.5464 473.065 95.4725C479.064 94.736 484.524 99.0017 485.26 105C485.987 110.915 481.849 116.306 475.983 117.162L478.44 128.478C478.573 129.091 478.286 129.719 477.735 130.018C471.264 133.535 463.558 135.838 454.624 136.935C445.634 138.039 437.441 137.174 430.063 134.33C429.526 134.123 429.169 133.611 429.159 133.036L428.609 99.9878C428.48 92.255 432.755 85.4115 439.194 81.9543C434.982 80.5318 432.363 76.1819 433.226 71.6947C433.692 69.275 435.105 67.2175 437.057 65.9046C434.401 64.3428 432.852 61.2509 433.404 58.034C433.965 54.7692 436.568 52.239 439.847 51.7715L445.376 50.9831C449.344 50.4173 453.019 53.1753 453.585 57.1431C453.586 57.1514 453.587 57.1597 453.588 57.168C453.956 59.8113 452.931 62.3384 451.062 63.9914C454.136 64.987 456.517 67.6848 456.943 71.1037C456.945 71.1127 456.946 71.1217 456.947 71.1307C457.37 74.6166 455.76 77.8972 453.028 79.7551ZM445.958 98.7675C446.208 98.6743 446.475 98.6173 446.753 98.6028C448.311 98.5211 449.644 99.7965 449.731 101.451C449.771 102.222 449.534 102.939 449.112 103.493C450.082 103.447 451.041 103.278 451.991 102.988C454.883 102.104 457.213 100.238 459.009 97.3357C455.897 95.9336 452.922 95.6898 450.03 96.574C448.521 97.0353 447.165 97.7638 445.958 98.7675ZM444.302 100.429C443.845 100.976 443.416 101.575 443.013 102.226C443.447 102.422 443.878 102.595 444.306 102.745C444.184 102.436 444.109 102.1 444.09 101.747C444.066 101.28 444.143 100.832 444.302 100.429ZM452.817 105.688C448.771 106.925 444.598 106.369 440.376 104.065C439.702 103.697 439.445 102.858 439.798 102.176C442.01 97.905 445.159 95.1103 449.205 93.8734C453.251 92.6364 457.424 93.1925 461.646 95.4969C462.32 95.8648 462.576 96.7037 462.223 97.3855C460.012 101.657 456.863 104.451 452.817 105.688ZM439.811 118.039C439.074 117.785 438.681 116.982 438.935 116.244C439.188 115.507 439.991 115.115 440.729 115.368C442.478 115.969 444.515 115.654 446.907 114.334C447.589 113.957 448.448 114.205 448.825 114.888C449.202 115.571 448.954 116.43 448.271 116.806C445.231 118.484 442.389 118.924 439.811 118.039ZM569.518 81.9516L604.388 156.13C604.619 156.623 605.113 156.938 605.657 156.942L734.35 157.765C735.241 157.77 735.914 156.96 735.745 156.085L721.227 80.8965C721.099 80.2315 720.516 79.7514 719.839 79.7522L570.794 79.9389C569.76 79.9402 569.078 81.0158 569.518 81.9516ZM718.676 82.5776L732.646 154.93L606.565 154.123L573.019 82.7601L718.676 82.5776ZM657.25 141.233C661.191 141.233 666.259 139.671 669.391 137.756C675.325 134.128 677.9 128.046 677.9 120.582C677.9 115.944 676.774 111.085 674.192 107.638C670.426 102.609 664.017 99.9319 657.25 99.9319C650.529 99.9319 644.733 103.514 640.962 108.486C638.334 111.95 636.6 115.898 636.6 120.582C636.6 126.799 639.867 132.199 644.214 135.984C647.841 139.143 652.062 141.233 657.25 141.233ZM136.257 91.9577C134.112 91.9577 132.374 93.6962 132.374 95.8407C132.374 97.9852 134.112 99.7236 136.257 99.7236H282.044C284.189 99.7236 285.927 97.9852 285.927 95.8407C285.927 93.6962 284.189 91.9577 282.044 91.9577H136.257ZM136.963 118.785C134.818 118.785 133.08 120.524 133.08 122.668C133.08 124.813 134.818 126.551 136.963 126.551H193.259C195.404 126.551 197.142 124.813 197.142 122.668C197.142 120.524 195.404 118.785 193.259 118.785H136.963ZM212.151 118.785C210.007 118.785 208.268 120.524 208.268 122.668C208.268 124.813 210.007 126.551 212.151 126.551H239.954C242.099 126.551 243.837 124.813 243.837 122.668C243.837 120.524 242.099 118.785 239.954 118.785H212.151ZM257.335 118.785C255.19 118.785 253.452 120.524 253.452 122.668C253.452 124.813 255.19 126.551 257.335 126.551H278.115C280.259 126.551 281.998 124.813 281.998 122.668C281.998 120.524 280.259 118.785 278.115 118.785H257.335Z" fill="white"/>
<path fill-rule="evenodd" clip-rule="evenodd" d="M400.281 259.928L394.971 247.174C391.417 238.638 384.693 231.912 376.334 228.316L386.507 150.204C387.581 141.957 395.091 136.11 403.35 137.092L427.479 139.958L428.884 132.193L477.542 125.082L491.459 147.56L521.19 151.092C526.747 151.753 531.597 155.171 534.089 160.182L623.018 339.083H554.742L529.474 259.834L400.281 259.928ZM223.976 152.673H262.806C268.167 152.673 272.514 157.019 272.514 162.38C272.514 167.742 268.167 172.088 262.806 172.088H223.976C218.615 172.088 214.269 167.742 214.269 162.38C214.269 157.019 218.615 152.673 223.976 152.673ZM651.985 112.794C651.985 112.616 657.516 114.764 668.576 119.239L654.946 130.787C652.972 118.971 651.985 112.973 651.985 112.794ZM530.132 257.908L514.987 200.934C514.786 200.18 514.013 199.732 513.259 199.932C512.506 200.133 512.057 200.906 512.257 201.66L527.403 258.633C527.604 259.387 528.377 259.836 529.131 259.635C529.884 259.435 530.333 258.662 530.132 257.908ZM86.7405 284.724C87.298 284.732 87.8557 284.726 88.413 284.708L124.169 283.515C124.657 283.498 125.141 283.609 125.573 283.835C126.955 284.559 127.489 286.265 126.765 287.647L121.76 297.206L133.162 305.336C129.934 308.717 126.962 311.304 124.246 313.099C122.514 314.244 120.87 315.161 119.733 315.832C114.327 319.024 108.843 320.664 104.929 321.63C100.35 322.759 95.6535 323.211 90.4066 323.211C89.4445 323.211 86.5305 323.028 85.595 322.93C78.2752 322.162 69.8827 320.099 60.5504 314.134C58.8357 313.038 55.6384 310.653 52.7249 308C52.1928 307.515 51.3807 306.714 50.2886 305.596L61.668 297.206L58.018 288.247C57.8751 287.897 57.8043 287.521 57.8096 287.142C57.8315 285.583 59.1134 284.336 60.6729 284.358L86.7405 284.724ZM744.516 264.051L778.344 265.562C779.902 265.632 781.109 266.952 781.039 268.51C781.024 268.847 780.949 269.178 780.817 269.489L778.541 274.84C776.197 280.352 777.386 286.732 781.558 291.029L785.698 295.293C775.328 304.073 763.174 308.462 749.236 308.462C744.306 308.462 738.389 307.588 733.104 306.071C730.233 305.248 727.414 304.08 725.113 303.026C722.513 301.835 719.55 300.213 716.342 297.994C715.65 297.516 714.601 296.718 713.193 295.599C716.986 289.971 718.281 283.025 716.772 276.409L713.871 263.691C713.524 262.171 714.475 260.657 715.996 260.31C716.334 260.233 716.683 260.219 717.026 260.268L741.067 263.726C742.211 263.891 743.362 263.999 744.516 264.051Z" fill="#1840F8"/>
</g>
</svg>
