<svg width="1920" height="1394" fill="none" xmlns="http://www.w3.org/2000/svg"><g opacity=".25" fill="#fff"><path d="M23.703 0h-1.807v1484h1.807V0zm134.813 0h-1.807v1484h1.807V0zm134.812 0h-1.806v1484h1.806V0zm134.84 0h-1.807v1484h1.807V0zm134.813 0h-1.807v1484h1.807V0zm134.813 0h-1.807v1484h1.807V0zm134.81 0h-1.807v1484h1.807V0zm134.813 0h-1.807v1484h1.807V0zm134.813 0h-1.81v1484h1.81V0zm134.81 0h-1.8v1484h1.8V0zm134.82 0h-1.81v1484h1.81V0zm134.81 0h-1.81v1484h1.81V0zm134.81 0h-1.81v1484h1.81V0zm134.81 0h-1.8v1484h1.8V0zm134.81 0h-1.8v1484h1.8V0z" opacity=".25"/><path d="M2045 133.992H-112v1.808h2157v-1.808zm0 134.909H-112v1.809h2157v-1.809zm0 134.91H-112v1.808h2157v-1.808zm0 134.936H-112v1.808h2157v-1.808zm0 134.908H-112v1.808h2157v-1.808zm0 134.909H-112v1.808h2157v-1.808zm0 134.91H-112v1.808h2157v-1.808zm0 134.906H-112v1.81h2157v-1.81zm0 134.91H-112v1.81h2157v-1.81zm0 134.91H-112v1.81h2157v-1.81z" opacity=".25"/></g></svg>