<svg width="484" height="425" viewBox="0 0 484 425" fill="none" xmlns="http://www.w3.org/2000/svg">
<path fill-rule="evenodd" clip-rule="evenodd" d="M81.9 1L96.7 81.2L159.9 54.9L101.3 100.9L153.7 126.7L93 115.4L105.7 190.7L74.4 117.5L19.2 177.3L55.6 109.2L1 90.9L53.2 87.6L37.5 54L67.9 78.1L81.9 1Z" stroke="black" stroke-width="3"/>
<path d="M309.347 0L342.513 179.532L484 120.754L352.706 223.845L470.003 281.557L334.145 256.279L362.595 425L292.612 261L168.925 394.85L250.318 242.27L128 201.156L244.841 193.846L209.697 118.47L277.855 172.376L309.347 0Z" fill="black"/>
</svg>
