<svg width="261" height="267" viewBox="0 0 261 267" fill="none" xmlns="http://www.w3.org/2000/svg">
<path fill-rule="evenodd" clip-rule="evenodd" d="M42.1283 191.812L42.7283 190.614L41.6873 189.769C17.1857 169.886 2 141.912 2 110.986C2 51.0378 59.2259 2 130.406 2C201.586 2 258.811 51.0378 258.811 110.986C258.811 170.935 201.586 219.973 130.406 219.973C111.257 219.973 93.0955 216.415 76.7824 210.041L75.8907 209.693L75.1397 210.286L5.18402 265.59L42.1283 191.812Z" stroke="#6983FF" stroke-width="3"/>
<path d="M47.8347 144.489C58.2601 117.526 82.8855 67.3771 97.9841 82.4761C113.083 97.575 104.275 126.514 97.9841 139.096C106.073 128.491 121.711 112.242 119.554 132.086C116.857 156.891 115.24 111.056 137.888 125.076C160.536 139.096 147.055 154.195 137.888 144.489C128.721 134.783 148.133 117.527 160.536 128.311C172.938 139.096 176.713 153.116 188.037 139.096C197.097 127.88 207.269 92.0026 211.224 75.4663" stroke="black" stroke-width="8" stroke-linecap="round"/>
</svg>
