<svg width="1920" height="1394" fill="none" xmlns="http://www.w3.org/2000/svg"><g opacity=".25" fill="#fff" clip-path="url(#clip0)"><path d="M135.703 0h-1.807v1484h1.807V0zm134.813 0h-1.807v1484h1.807V0zm134.812 0h-1.807v1484h1.807V0zm134.84 0h-1.807v1484h1.807V0zm134.813 0h-1.807v1484h1.807V0zm134.812 0h-1.806v1484h1.806V0zm134.811 0h-1.807v1484h1.807V0zm134.816 0h-1.81v1484h1.81V0zm134.81 0h-1.81v1484h1.81V0zm134.81 0h-1.8v1484h1.8V0zm134.81 0h-1.8v1484h1.8V0zm134.82 0h-1.81v1484h1.81V0zm134.81 0h-1.81v1484h1.81V0zm134.81 0h-1.8v1484h1.8V0z" opacity=".25"/><path d="M2157 133.992H0v1.808h2157v-1.808zm0 134.909H0v1.809h2157v-1.809zm0 134.91H0v1.808h2157v-1.808zm0 134.936H0v1.808h2157v-1.808zm0 134.908H0v1.808h2157v-1.808zm0 134.909H0v1.808h2157v-1.808zm0 134.91H0v1.808h2157v-1.808zm0 134.906H0v1.81h2157v-1.81zm0 134.91H0v1.81h2157v-1.81zm0 134.91H0v1.81h2157v-1.81z" opacity=".25"/></g><defs><clipPath id="clip0"><path fill="#fff" d="M0 0h1920v1394H0z"/></clipPath></defs></svg>