<svg width="562" height="353" fill="none" xmlns="http://www.w3.org/2000/svg"><path d="M545.35 123.802l-107.81-17.51 25.545-68.42c5.647-15.143-1.735-22.028-16.429-15.312l-127.67 58.367-53.297-73.523c-7.655-10.553-17.262-9.065-21.367 3.308L215.76 96.927 76.416 79.906c-16.037-1.958-20.991 6.837-11.03 19.563l45.056 57.473-97.481 49.298c-18.334 9.267-16.742 19.547 3.538 22.85l107.81 17.511-25.545 68.42c-5.646 15.143 1.735 22.027 16.43 15.311l127.669-58.367 53.3 73.539c7.655 10.553 17.262 9.065 21.367-3.309l28.562-86.214 139.343 17.021c16.038 1.957 20.992-6.837 11.03-19.563l-45.042-57.49 97.465-49.297c18.334-9.266 16.743-19.547-3.538-22.85z" fill="#5B6CFF"/></svg>