<svg width="205" height="205" fill="none" xmlns="http://www.w3.org/2000/svg"><path fill-rule="evenodd" clip-rule="evenodd" d="M18.864-89h166.464C250.416-89 294-43.304 294 24.664v156.883C294 249.304 250.416 295 185.328 295H18.864C-46.224 295-90 249.304-90 181.547V24.664C-90-43.304-46.224-89 18.864-89zm72.19 249.408l91.201-91.2c6.528-6.528 6.528-17.088 0-23.808-6.528-6.528-17.28-6.528-23.808 0l-79.296 79.296-33.6-33.6c-6.528-6.528-17.28-6.528-23.808 0-6.528 6.528-6.528 17.088 0 23.808l45.696 45.504c3.264 3.264 7.488 4.8 11.712 4.8 4.416 0 8.64-1.536 11.904-4.8z" fill="#FF4E00"/></svg>