<svg width="292" height="293" fill="none" xmlns="http://www.w3.org/2000/svg"><path d="M146 23.897c32.757 0 63.557 12.755 86.718 35.922 23.167 23.161 35.922 53.962 35.922 86.718 0 32.757-12.755 63.557-35.922 86.718-23.161 23.168-53.961 35.922-86.718 35.922-32.757 0-63.557-12.754-86.718-35.922-23.167-23.161-35.922-53.961-35.922-86.718 0-32.756 12.755-63.557 35.922-86.718C82.443 36.652 113.243 23.897 146 23.897zm0-23.36c-80.633 0-146 65.367-146 146s65.367 146 146 146 146-65.367 146-146-65.367-146-146-146z" fill="#fff"/></svg>