<svg width="292" height="293" fill="none" xmlns="http://www.w3.org/2000/svg"><path d="M146 23.897c32.757 0 63.557 12.755 86.718 35.922 23.167 23.161 35.922 53.962 35.922 86.718 0 32.757-12.755 63.557-35.922 86.718-23.161 23.168-53.961 35.922-86.718 35.922-32.757 0-63.557-12.754-86.718-35.922-23.167-23.161-35.922-53.961-35.922-86.718 0-32.756 12.755-63.557 35.922-86.718C82.443 36.652 113.243 23.897 146 23.897zm0-23.36c-80.633 0-146 65.367-146 146s65.367 146 146 146 146-65.367 146-146-65.367-146-146-146z" fill="#fff"/><path d="M146 207.857c-33.814 0-61.32-27.506-61.32-61.32 0-33.813 27.506-61.32 61.32-61.32 22.653 0 42.474 12.346 53.091 30.666l20.224-11.68C204.657 78.91 177.285 61.857 146 61.857c-46.69 0-84.68 37.99-84.68 84.68 0 46.691 37.99 84.68 84.68 84.68 31.285 0 58.657-17.052 73.321-42.351l-20.224-11.68c-10.623 18.326-30.444 30.671-53.097 30.671z" fill="#fff"/></svg>