<svg width="32" height="25" fill="none" xmlns="http://www.w3.org/2000/svg"><path fill-rule="evenodd" clip-rule="evenodd" d="M22.509 1.84a.689.689 0 00-.25 0h-5.718c-2.276 0-4.193 1.846-4.193 4.097v9.923c0 2.362 1.816 4.139 4.193 4.139h7.306c2.258 0 4.097-1.87 4.097-4.14V7.353a.686.686 0 00-.191-.475L23.119 2.05a.686.686 0 00-.494-.21h-.116zm-.81 1.371l-5.158.001c-1.53 0-2.821 1.243-2.821 2.725v9.923c0 1.597 1.195 2.766 2.82 2.766h7.307c1.495 0 2.725-1.25 2.725-2.766V8.216l-.802.003-1.038-.002a3.04 3.04 0 01-3.029-2.869l-.005-.172V3.21zm4.122 3.634h-1.086a1.669 1.669 0 01-1.665-1.67V3.98l2.75 2.865z" fill="#C8C8C8"/><path fill-rule="evenodd" clip-rule="evenodd" d="M13.363 4.89a.69.69 0 00-.25 0H7.394c-2.275 0-4.192 1.845-4.192 4.096v9.923c0 2.361 1.815 4.139 4.192 4.139H14.7c2.258 0 4.098-1.87 4.098-4.14v-8.507a.686.686 0 00-.191-.475L13.973 5.1a.686.686 0 00-.495-.21h-.115zm-.811 1.37H7.394c-1.53 0-2.82 1.244-2.82 2.726v9.922c0 1.598 1.195 2.767 2.82 2.767H14.7c1.495 0 2.726-1.25 2.726-2.767v-7.643l-.802.003-1.038-.002a3.04 3.04 0 01-3.03-2.87l-.004-.171V6.26zm4.122 3.634H15.59a1.669 1.669 0 01-1.665-1.67V7.03l2.75 2.865z" fill="#C8C8C8"/></svg>