<svg width="433" height="353" fill="none" xmlns="http://www.w3.org/2000/svg"><g clip-path="url(#clip0)"><path d="M238.079 59.22l-44.092-7.162 10.447-27.983c2.31-6.193-.709-9.008-6.719-6.262l-52.214 23.871-21.797-30.07c-3.131-4.315-7.06-3.707-8.739 1.354l-11.681 35.26-56.989-6.962c-6.559-.8-8.585 2.797-4.51 8.001L60.21 72.772 20.343 92.935c-7.498 3.79-6.847 7.994 1.447 9.345l44.092 7.161-10.447 27.983c-2.31 6.193.71 9.008 6.72 6.262l52.213-23.871 21.799 30.076c3.13 4.315 7.06 3.707 8.738-1.354l11.682-35.26 56.988 6.962c6.559.8 8.585-2.796 4.511-8.001l-18.421-23.512 39.861-20.162c7.498-3.79 6.847-7.994-1.447-9.345z" fill="#171717"/><path fill-rule="evenodd" clip-rule="evenodd" d="M241.054 176.66v10.539c0 .925-1.389.925-1.389 0v-7.059c0-.925 1.389-.925 1.389 0 0 .926-1.389.926-1.389 0v-3.48h-62.544l-.131 13.662h6.381v.622a.692.692 0 01.347-.093h95.975l1.919-1.757V176.66h-40.558zm37.121 15.58h-94.457a.692.692 0 01-.347-.093v10.77h93.528l.044-4.08v-5.469l1.232-1.128zm-94.804 12.065v2.535h-6.381l.218 15.132c1.036-1.176 2.192-1.176 3.469 0 .187.172.366.36.535.562h95.731l3.913-1.736V206.84h-4l.027-2.535h-93.512zm70.759 37.161l22.258-.01.514-17.534h-94.777c.514.999.901 2.214 1.159 3.646v11.374l.087 2.554 24.304-.011v8.794l-41.057-2.009a10.415 10.415 0 01-9.677-8.23c-11.344-53.156-10.414-83.502 2.79-91.039 23.972-13.682 26.081 17.311 37.74 14.716 11.659-2.594 1.523-32.973 26.078-35.452 24.555-2.48 18.316 14.322 26.719 26.52 8.404 12.198 14.074-16.886 37.979-16.8 26.571.096 25.75 18.889 25.75 36.739l-7.413 75.6a5.035 5.035 0 01-5.256 4.538l-47.32-2.316.122-11.08zm-22.37.009h.322a.695.695 0 01.534.674l.187 74.512 5.925-8.754a.694.694 0 111.15.778l-6.998 10.34 11.207-.006a.694.694 0 11.001 1.389l-24.333.013a.695.695 0 01-.001-1.389l11.556-.006-8.227-10.229a.693.693 0 111.082-.871l7.25 9.014-.188-74.788a.694.694 0 01.533-.677zM54.976 136.722l11.28-26.249 4.331-1.666-9.376 23.189 15.298-21.92a.695.695 0 111.139.794l-14.24 20.404 22.735-19.919a.694.694 0 11.915 1.045L63.2 133.303l35.887-25.769 21.278 45.057-48.409 12.417c-2.427 3.886-3.924 6.048-4.579 6.598-.816.684-1.762 1.17-2.795 1.306-1.36.181-2.72-.272-3.988-1.445-1.556-1.439-2.298-3.131-2.198-5.023-1.995.14-3.785-.51-5.328-1.937-1.684-1.557-2.408-3.33-2.118-5.254l-2.918-3.216a6.944 6.944 0 01-1.03-7.846c2.1-4.078 4.253-7.321 6.464-9.731a41.979 41.979 0 001.51-1.738zm117.948 169.113l-48.153.467 1.128 11.626h13.353a.695.695 0 010 1.389h-10.355c2.103.578 3.625 1.192 4.576 1.855 1.857 1.295 1.715 2.951-.271 4.363-1.849 1.314-3.695 1.405-5.381.23-1.51-1.053-2.872-3.109-4.127-6.171l-20.392 3.459a8.854 8.854 0 00-6.78 5.546l-.375.972h66.717l16.188-14.226-6.128-9.51zm-49.547.48l-16.09.156-9.866-10.358 17.814-31.927a.694.694 0 10-1.213-.677L96.418 295.06l-.008-.009-.056.124-5.29 9.48-8.82 25.835a.695.695 0 01-.657.47H.695a.694.694 0 01-.648-.944l.738-1.916a10.244 10.244 0 017.845-6.416l18.38-3.118c-3.004-.864-5.071-1.734-6.227-2.633-1.787-1.39-1.559-3.035.5-4.342 1.914-1.215 3.762-1.21 5.384.052 1.446 1.125 2.693 3.235 3.783 6.333l8.85-11.505H26.26l29.496-53.754a.694.694 0 001.14-.149l34.57-68.628a.694.694 0 10-1.241-.624l-34.57 68.627a.695.695 0 00-.07.245L37.82 233.537l34.354-68.178 32.875.365 34.34-.365v35.703l-15.634 34.19 47.785 66.217a.689.689 0 01.414.297l1.663 2.58 1.062 1.472-.113.001 5.978 9.276a.694.694 0 01-.126.898l-16.834 14.794a.693.693 0 01-.459.173h-67.99a.694.694 0 01-.648-.944l.739-1.916a10.244 10.244 0 017.844-6.416l18.379-3.118c-3.003-.864-5.071-1.734-6.226-2.633-1.787-1.39-1.559-3.035.499-4.342 1.915-1.215 3.762-1.21 5.385.052 1.224.953 2.306 2.611 3.27 4.977l-1-10.305zm-34.4.156H41.05l-8.812 11.457h12.573a.695.695 0 010 1.389H34.457c2.104.578 3.625 1.192 4.576 1.855 1.857 1.295 1.716 2.951-.271 4.363-1.849 1.314-3.694 1.405-5.38.23-1.51-1.053-2.873-3.109-4.128-6.171l-20.392 3.459a8.854 8.854 0 00-6.78 5.546l-.375.972H81.09l7.886-23.1zm-63.163 6.268c-1.138-.885-2.348-.889-3.788.025-1.296.823-1.364 1.316-.39 2.073 1.152.896 3.566 1.838 7.207 2.791-.93-2.419-1.95-4.049-3.029-4.889zm8.362 11.886c1.183.825 2.392.766 3.781-.222 1.252-.89 1.294-1.386.282-2.091-1.197-.835-3.658-1.649-7.343-2.41 1.055 2.367 2.159 3.942 3.28 4.723zm86.078-11.886c-1.139-.885-2.349-.889-3.788.025-1.296.823-1.365 1.316-.39 2.073 1.151.896 3.566 1.838 7.206 2.791-.93-2.419-1.949-4.049-3.028-4.889zm8.361 11.886c1.184.825 2.392.766 3.782-.222 1.251-.89 1.294-1.386.281-2.091-1.197-.835-3.657-1.649-7.343-2.41 1.056 2.367 2.159 3.942 3.28 4.723zm79.06-30.295h-28.056a8.16 8.16 0 01-8.11-7.26c-.597-5.39 1.099-9.599 5.09-12.628 8.452-6.415 12.828 2.482 16.26 1.596 3.431-.886-1.387-12.152 4.645-15.927 6.032-3.774 7.628 3.831 9.931 7.711.082.137.162.257.24.361v26.147zm46.026-14.052c.285-.047.58-.277.903-.746 2.272-3.298 3.846-9.762 9.794-6.554 5.949 3.208 6.873 13.427 10.258 14.18 3.384.753 9.173-10.225 17.508-4.772 4.486 2.934 5.397 7.792 2.734 14.573a8.16 8.16 0 01-7.605 5.176l-33.833-.045.241-21.812zM95.45 84.09c.485-.084.92-.519 1.32-1.412a.694.694 0 111.267.569c-.489 1.09-1.135 1.812-1.927 2.103l5.302 10.124c3.929 3.395 7.503 3.988 10.875 1.881 3.508-2.192 7.515-3.688 12.017-4.49l-15.072-25.65a5.747 5.747 0 00-.859-1.119l-6.868 3.49-10.082 2.21a8.006 8.006 0 00-.01 4.167 10.178 10.178 0 011.684-1.21 9.993 9.993 0 013.256-1.2 2.604 2.604 0 012.45 4.241 9.991 9.991 0 01-2.668 2.22 9.993 9.993 0 01-3.257 1.2 2.597 2.597 0 01-1.983-.452l-2.703 4.305 6.077-1.984a.694.694 0 01.83.338l.35.669zm-3.844-4.536c-.21-.623.002-1.314.553-1.658.65-.406 1.527-.175 1.96.516.183.293.256.623.23.936a8.95 8.95 0 001.091-.536 8.604 8.604 0 002.3-1.913 1.215 1.215 0 00-1.142-1.98 8.604 8.604 0 00-2.807 1.036 8.606 8.606 0 00-2.3 1.913 1.215 1.215 0 00.115 1.686zm-1.615.036a2.604 2.604 0 01.33-2.48 9.415 9.415 0 014.48-11.556 9.418 9.418 0 011.894-.743l5.727-1.56a7.118 7.118 0 018.007 3.261l15.585 26.522a.695.695 0 01-.494 1.038c-4.732.723-8.896 2.21-12.497 4.46-3.967 2.48-8.227 1.746-12.622-2.097a.675.675 0 01-.158-.2l-6.101-11.65-7.343 2.398c-.618.201-1.15-.48-.804-1.03l3.996-6.363zm14.481 3.332a.695.695 0 01-.218-1.371 3.993 3.993 0 00-1.249-7.888.694.694 0 11-.217-1.371 5.382 5.382 0 011.684 10.63zm14.201 53.144a.694.694 0 11-1.368.241l-1.065-6.044a.694.694 0 111.367-.241l1.066 6.044zm5.682 19.514a.695.695 0 01-1.269.565c-2.402-5.397-.86-10.561 4.519-15.348a.693.693 0 11.923 1.037c-4.955 4.411-6.31 8.945-4.173 13.746zm1.01-23.255a.694.694 0 11-1.382.131l-1.008-10.667a.694.694 0 111.382-.131l1.008 10.667zm-60.084 10.581l-12.89 16.216-.009.01a.64.64 0 01-.01.052c-.331 1.557.194 2.967 1.639 4.303 1.456 1.347 3.119 1.831 5.055 1.473a.686.686 0 01.42.053l9.476-13.191c.149-2.393-.098-4.259-.72-5.595-.539-1.155-1.523-2.265-2.962-3.321zm-1.031-.935l-2.505-5.848a2.43 2.43 0 00-4.214-.452 39.002 39.002 0 01-3.042 3.728c-2.118 2.31-4.205 5.452-6.253 9.428a5.555 5.555 0 00.825 6.277l2.531 2.79 12.658-15.923zm5.519 11.109l-9.585 13.343a.686.686 0 01-.408.271c-.024 1.402.555 2.638 1.76 3.753.972.898 1.92 1.214 2.864 1.089.738-.098 1.454-.466 2.084-.994.662-.555 2.915-3.956 6.57-9.969-.126-1.903-.4-3.298-.805-4.166-.368-.791-1.197-1.908-2.48-3.327zM58.35 138.711a.695.695 0 01-.529-1.285c1.694-.697 3.147-.077 4.142 1.698 1.002 1.789.763 3.303-.77 4.213a.695.695 0 01-.709-1.194c.823-.489.93-1.159.267-2.34-.67-1.195-1.398-1.505-2.401-1.092zm4.922 9.825a.694.694 0 11-.528-1.284c1.694-.697 3.147-.077 4.142 1.698 1.002 1.789.763 3.303-.77 4.213a.694.694 0 01-.709-1.194c.823-.489.929-1.159.267-2.34-.67-1.195-1.398-1.506-2.402-1.093zm4.939 9.311a.694.694 0 11-.529-1.284c1.694-.697 3.147-.077 4.142 1.698 1.002 1.789.763 3.303-.77 4.213a.694.694 0 01-.708-1.194c.822-.489.928-1.159.266-2.34-.67-1.195-1.398-1.506-2.401-1.093zm148.751 55.969c0-.926 1.389-.926 1.389 0v5.325c0 .926-1.389.926-1.389 0v-10.65c0-.926 1.389-.926 1.389 0v5.325c0 .926-1.389.926-1.389 0z" fill="#fff"/><path fill-rule="evenodd" clip-rule="evenodd" d="M91.572 112.983l-4.367-.768a.663.663 0 00.075-.34c-.02-.173-.061-.429-.309-.583-.335-.208-.647-.092-1.031.249l-.433.375-7.739-1.366a.72.72 0 00-.148-.512l3.88-8.045a7.464 7.464 0 014.198-3.783l35.921-12.915 21.18 9.367a8.157 8.157 0 014.317 4.537l24.209 63.051-30.451 6.032-3.842-2.541H71.49l.467-.737 36.781-9.396c1.595 1.232 3.18 2.334 4.498 3.082 5.203 2.952 12.59 5.528 16.045 2.28 1.526-1.434 2.88-3.463 4.064-6.087a14.246 14.246 0 001.07-8.161l-4.543-27.645a2.672 2.672 0 00-4.605-1.372c-.63.687-1.186 1.796-1.666 3.327a3.071 3.071 0 00-4.933-.945 5.634 5.634 0 00-1.217 1.671c-.725 1.558-1.009 4.159-.854 7.801l-9.406-5.64a1.431 1.431 0 00-.458-.177l-7.645-16.208-7.516 5.449zm85.55 91.322h107.112v3.646H177.122v10.937h107.112v3.646H173.823v-18.229h3.299zm103.734-13.409H173.823v-3.604h107.033V176.66H173.823v-3.603h110.411v17.881h-3.378v-.042zm-97.485 3.601v-2.257h100.863v2.257h-53.296v6.163h53.296v2.257H183.371v-8.42zm93.572 33.071v14.583h-97.565v-3.646h26.562v-10.937h-26.562v-3.646h97.565v3.646z" fill="#1840F8"/></g><defs><clipPath id="clip0"><path fill="#fff" d="M0 0h433v353H0z"/></clipPath></defs></svg>