<svg width="400" height="266" viewBox="0 0 400 266" fill="none" xmlns="http://www.w3.org/2000/svg">
<path fill-rule="evenodd" clip-rule="evenodd" d="M181.261 210.824C181.25 210.798 181.238 210.771 181.224 210.745L181.031 210.388L186.003 199.284C186.166 198.919 186.003 198.49 185.638 198.327C185.272 198.163 184.844 198.327 184.68 198.692L180.164 208.778L175.075 199.335C174.885 198.983 174.446 198.851 174.093 199.041C173.741 199.231 173.609 199.67 173.799 200.023L179.417 210.447L179.276 210.762C179.267 210.782 179.259 210.801 179.252 210.821L155.237 233.779L154.896 233.602L135.149 258.267C134.94 258.528 134.58 258.612 134.277 258.471L69.2594 228.153C68.7988 227.938 68.6966 227.328 69.0621 226.975L72.1208 224.019C74.1138 222.093 76.7769 221.017 79.5484 221.017H102.057L113.471 212.004L83.5949 196.427L143.329 138.535L103.364 131.488L105.451 119.653L81.7528 113.445C81.4295 113.36 81.2061 113.065 81.2119 112.731L82.254 53.0323L55.8233 62.7985C54.5604 65.7645 52.6301 68.7186 50.0402 71.8861C44.1139 79.1339 37.0509 83.1934 28.8044 83.1934C21.1177 83.1934 13.9158 78.9613 7.67594 71.9075C2.40304 65.9467 0 60.8924 0 54.2079C0 47.9817 2.12993 41.5874 5.7328 36.6416C11.0283 29.3723 19.3558 25.2224 28.8044 25.2224C34.4119 25.2224 39.8743 27.5489 45.4153 31.6957L53.429 19.2542C56.467 14.5375 61.5191 11.4945 67.109 11.0145L92.1709 8.86223C93.3161 8.76389 94.4395 9.21728 95.1956 10.0829C96.5059 11.583 96.352 13.8613 94.852 15.1715L92.3064 17.395C91.6906 17.9329 91.3498 18.7194 91.3783 19.5364C91.4307 21.0363 92.689 22.2097 94.1889 22.1573L98.6782 22.0006C99.8094 21.9611 100.887 22.4822 101.559 23.3933C102.683 24.918 102.358 27.0653 100.833 28.1892L97.5238 30.6285C96.9117 31.0796 96.5167 31.7665 96.4346 32.5224C96.2725 34.0144 97.3506 35.3553 98.8426 35.5174L107.345 36.441C108.711 36.5894 109.876 37.498 110.352 38.7872C111.046 40.6642 110.087 42.748 108.21 43.4416L93.8746 48.7384L101.985 65.752L113.602 73.4218L116.573 56.5732L157.759 73.7426L158.931 68.2281C159.052 67.6576 159.603 67.2844 160.178 67.3827L204.498 74.9591C205.09 75.0603 205.488 75.622 205.387 76.2137C205.383 76.2352 205.383 76.2352 205.378 76.2565C204.159 81.9141 203.016 87.2167 201.949 92.1643L202.024 92.1956L223.356 123.464C219.788 121.593 215.355 122.246 212.475 125.183C210.34 127.361 208.662 129.366 207.44 131.197C205.281 134.434 203.668 136.851 202.602 138.449L211.865 140.32C211.903 140.238 211.958 140.161 212.028 140.096C213.349 138.864 214.806 136.985 216.39 134.465C218.033 131.85 220.609 128.678 224.121 124.94C224.395 124.649 224.854 124.634 225.145 124.908C225.437 125.182 225.451 125.641 225.177 125.933C221.724 129.608 219.203 132.712 217.617 135.236C216.167 137.544 214.806 139.349 213.528 140.656L221.807 142.328C221.827 142.26 221.857 142.195 221.898 142.134C223.605 139.554 225.284 137.358 226.936 135.544C228.565 133.754 230.406 131.789 232.457 129.649C232.734 129.36 233.193 129.35 233.482 129.627C233.771 129.904 233.781 130.362 233.504 130.651C231.46 132.784 229.628 134.74 228.007 136.52C226.473 138.204 224.906 140.242 223.307 142.631L227.977 143.574C226.446 142.983 225.778 141.883 226.215 140.463C226.333 140.081 226.739 139.866 227.121 139.984C227.504 140.101 227.718 140.507 227.601 140.889C227.399 141.545 227.655 141.936 228.64 142.273C229.638 142.615 230.167 142.438 230.51 141.72C230.682 141.359 231.115 141.206 231.476 141.378C231.837 141.551 231.99 141.983 231.817 142.344C231.333 143.359 230.53 143.874 229.512 143.884L231.574 144.3C231.51 144.037 231.597 143.748 231.822 143.566L241.306 135.897C241.617 135.645 242.073 135.694 242.325 136.005C242.577 136.316 242.528 136.772 242.217 137.024L232.89 144.566L239.096 145.82L237.465 152.938V153.216L253.182 156.371L253.025 156.044L291.044 163.016L278.396 191.05L282.98 193.515C286.036 195.158 289.844 194.04 291.527 191.006C297.044 181.061 302.406 171.527 307.613 162.403C313.176 152.654 317.366 141.794 320.181 129.82C320.794 127.215 319.705 124.506 317.46 123.049L303.316 113.874C302.98 113.656 302.885 113.207 303.102 112.872C303.32 112.536 303.769 112.44 304.105 112.658L318.249 121.833C321.007 123.623 322.345 126.951 321.592 130.152C318.745 142.258 314.505 153.249 308.871 163.122C303.668 172.24 298.309 181.77 292.794 191.709C290.727 195.436 286.048 196.81 282.294 194.791L277.798 192.374L268.819 212.277C267.068 216.158 263.045 218.497 258.806 218.1L181.261 210.824ZM152.931 232.577L114.88 212.738L103.692 221.572L115.879 227.089C116.243 227.254 116.405 227.683 116.24 228.048C116.075 228.412 115.646 228.574 115.281 228.409L102.152 222.466H79.5484C77.1527 222.466 74.8507 223.396 73.128 225.061L70.8271 227.285L127.019 253.487C133.576 247.15 139.393 243.956 144.505 243.956C144.581 243.956 144.655 243.967 144.724 243.989L153.551 232.963L152.931 232.577ZM105.703 118.221L113.328 74.9774L101.018 66.8504C100.908 66.7778 100.82 66.6765 100.763 66.5575L91.8825 47.9274C90.8873 45.8396 89.1452 44.2009 87.0005 43.3353L83.8946 42.0817L83.1486 84.8186C83.343 84.667 83.6098 84.6184 83.8563 84.7138C93.488 88.4392 97.1263 98.7361 94.8778 115.385H94.8778L105.703 118.221ZM274.106 82.2876C274.586 82.4189 275.081 82.4887 275.591 82.4976C277.142 82.5247 278.576 81.9836 279.912 80.8517C278.616 79.6739 277.203 79.0832 275.651 79.0561C274.841 79.0419 274.064 79.1825 273.316 79.4809C273.452 79.4751 273.592 79.4896 273.73 79.5266C274.503 79.7338 274.951 80.5677 274.731 81.3891C274.629 81.7715 274.399 82.0838 274.106 82.2876ZM271.878 81.1603C271.868 80.9901 271.884 80.8142 271.931 80.6389C271.993 80.407 272.102 80.2009 272.244 80.0291C271.934 80.2238 271.629 80.448 271.329 80.7019C271.51 80.8661 271.693 81.0189 271.878 81.1603ZM270.765 73.1044L267.954 74.3552C267.084 75.2977 266.406 76.442 266.001 77.7415L261.39 92.5475C264.43 94.5391 267.63 96.0101 270.994 96.9622C274.368 97.9174 278.428 98.2918 283.173 98.0801L283.744 92.2594C283.789 91.7978 284.251 91.4969 284.691 91.6416C284.857 91.6962 285.028 91.7406 285.202 91.7745C287.461 92.2135 289.648 90.7383 290.087 88.4794C290.526 86.2205 289.051 84.0333 286.792 83.5942C286.356 83.5094 285.917 83.4947 285.486 83.5479C285.066 83.5997 284.701 83.2846 284.674 82.8786C282.167 80.0886 280.295 78.0333 279.057 76.7126C277.894 75.4725 276.496 73.9669 274.861 72.1957C270.55 74.1161 267.85 78.0606 266.743 84.1115L270.735 84.8874C271.128 84.9638 271.384 85.3442 271.308 85.737C271.232 86.1299 270.851 86.3864 270.458 86.3101L265.771 85.399C265.388 85.3245 265.133 84.9596 265.194 84.5739C266.003 79.4867 267.862 75.6512 270.765 73.1044ZM279.783 71.3219C283.753 73.3237 286.316 77.4876 286.173 82.0704C286.472 82.0801 286.771 82.1137 287.069 82.1716C290.113 82.7634 292.102 85.7113 291.51 88.7559C290.93 91.7406 288.085 93.7103 285.105 93.2291L284.629 98.0876C290.157 97.235 294.543 94.5306 296.993 89.9899C300.775 82.9792 302.384 76.4429 302.21 70.3639C302.076 65.684 300.913 61.5657 299.028 57.8282C297.503 54.8056 292.981 51.0308 287.845 48.746C281.723 46.0233 275.549 45.6324 270.437 48.1658C264.675 51.0215 258.466 57.4975 254.721 64.6519C250.568 72.5845 249.935 80.1799 253.56 85.6428C255.08 87.9339 257.338 90.0796 260.063 91.9329L264.618 77.3106C265.799 73.5175 268.98 70.8615 272.676 70.1991C270.849 68.8363 270.262 66.2998 271.395 64.2479C272.005 63.1407 273.022 62.3606 274.183 62.0294C273.134 60.8459 272.868 59.0911 273.648 57.6086C274.439 56.104 276.111 55.2818 277.786 55.5737L280.609 56.0657C282.636 56.4188 283.992 58.3477 283.639 60.3741C283.638 60.3783 283.638 60.3826 283.637 60.3868C283.397 61.7353 282.496 62.8062 281.321 63.3165C282.664 64.2901 283.399 65.9844 283.064 67.7207C283.064 67.7253 283.063 67.7299 283.062 67.7345C282.716 69.5025 281.41 70.8481 279.783 71.3219ZM291.889 31.0585L287.154 46.8852V46.8852C287.581 47.0533 288.007 47.2322 288.434 47.4218C293.852 49.8319 298.629 53.8198 300.321 57.1754C302.298 61.0925 303.518 65.4149 303.658 70.3223C303.84 76.6599 302.169 83.4471 298.268 90.678C294.225 98.1732 285.471 101.043 275.109 99.3683C265.668 97.8421 256.508 92.7073 252.352 86.4441C248.385 80.466 249.063 72.3339 253.437 63.9797C257.317 56.567 263.741 49.8668 269.793 46.8672C274.586 44.4922 280.175 44.4826 285.79 46.3858L290.497 30.656C290.126 30.4565 289.813 30.1965 289.622 29.9059C288.902 28.807 290.11 26.991 291.14 26.4736C292.17 25.9562 293.475 26.8228 293.741 27.3573C294.007 27.8918 294.297 28.8951 293.556 30.2801C293.233 30.8835 292.581 31.0987 291.889 31.0585ZM275.566 83.9466C273.395 83.9087 271.446 82.9755 269.751 81.1812C269.48 80.8948 269.488 80.4446 269.768 80.1678C271.525 78.4338 273.505 77.5691 275.676 77.607C277.847 77.6449 279.796 78.5781 281.491 80.3724C281.762 80.6589 281.754 81.109 281.473 81.3858C279.717 83.1199 277.736 83.9845 275.566 83.9466ZM267.259 87.912C266.939 87.6714 266.875 87.2171 267.116 86.8973C267.356 86.5775 267.811 86.5134 268.13 86.754C268.889 87.3249 269.933 87.494 271.31 87.2291C271.703 87.1535 272.083 87.4108 272.158 87.8038C272.234 88.1968 271.977 88.5767 271.584 88.6523C269.834 88.9891 268.377 88.7531 267.259 87.912ZM128.428 254.144L134.374 256.917L143.558 245.445C139.205 245.815 134.152 248.701 128.428 254.144ZM93.4652 115.015C95.5864 99.0624 92.1741 89.485 83.3335 86.0655C83.257 86.0359 83.1885 85.9948 83.129 85.9448L82.6709 112.187L93.4652 115.015ZM28.8044 81.7442C36.5679 81.7442 43.2459 77.9059 48.9182 70.9687C53.753 65.0558 56.1594 59.9969 56.1594 54.2079C56.1594 45.9197 52.4602 39.0736 45.5772 33.6478C39.904 29.1755 34.3862 26.6717 28.8044 26.6717C19.8147 26.6717 11.9243 30.6038 6.90421 37.495C3.47995 42.1955 1.44928 48.2918 1.44928 54.2079C1.44928 60.4889 3.70269 65.2286 8.76145 70.9473C14.7521 77.7194 21.6012 81.7442 28.8044 81.7442ZM63.4723 128.811L59.2337 149.143L71.2715 157.918L55.9187 159.729L43.9115 173.684L45.9094 156.347L34.4985 146.916L50.5973 146.843L63.4723 128.811ZM15.3971 207.702L27.5279 223.814L40.4921 221.779L32.0508 232.446L33.2538 248.573L23.7078 236.568L10.7258 237.806L20.7135 227.754L15.3971 207.702ZM339.648 24.0938L353.712 42.1042L368.97 39.6585L358.925 51.7766L360.148 69.9324L349.073 56.5194L333.804 58.0672L345.658 46.6238L339.648 24.0938ZM382.388 114.292L377.16 133.771L386.745 142.734L373.142 142.649L361.175 153.526L364.757 138.613L355.789 129.145L369.86 130.827L382.388 114.292ZM369.342 225.617C368.986 225.249 368.606 224.9 368.201 224.577C381.247 217.828 391.291 212.488 393.419 211.048C400.006 206.592 400.322 198.568 393.955 194.442C389.638 191.644 379.887 193.391 364.859 199.833L356.868 204.042C360.354 206.427 362.984 209.131 364.138 211.371C365.737 214.474 367.406 218.82 367.831 224.296C365.888 222.883 363.399 222.099 360.292 222.781C350.639 224.901 347.724 232.019 338.271 227.914C328.818 223.81 328.042 217.808 318.274 219.83C314.997 220.509 312.468 221.019 310.686 221.36C314.861 212.094 322.878 203.579 330.22 200.017C338.611 195.947 348.448 198.782 355.477 203.136L364.209 198.537C364.226 198.528 364.244 198.52 364.261 198.512C379.748 191.871 389.856 190.058 394.743 193.226C402.014 197.938 401.648 207.231 394.231 212.248C392.095 213.694 382.214 218.953 369.342 225.617ZM366.99 235.264C366.091 239.27 364.486 243.647 361.904 248.371C354.315 262.255 332.448 259.753 319.029 251.149C304.747 258.255 293.494 263.699 291.154 264.496C284.05 266.916 278.087 261.471 276.861 252.796C276.073 247.217 284.648 240.086 302.551 231.012L307.125 228.603L307.065 229.454C313.281 226.45 317.959 225.466 321.099 226.504C325.808 228.061 338.705 238.093 346.869 235.292C354.677 232.613 364.372 228.398 366.99 235.264ZM317.646 250.219C314.771 248.193 312.362 245.876 310.678 243.386C307.963 239.373 307.319 234.62 308.097 229.729L303.222 232.297L303.212 232.302C285.935 241.059 277.641 247.954 278.297 252.594C278.82 256.301 280.34 259.508 282.51 261.489C284.772 263.554 287.591 264.178 290.686 263.124C292.942 262.355 303.782 257.114 317.646 250.219ZM364.885 199.819L364.833 199.844C364.841 199.841 364.85 199.837 364.859 199.833L364.885 199.819ZM219.72 34.9424L220.904 35.4896C220.932 35.4878 220.96 35.4876 220.988 35.489C222.962 35.2437 224.028 34.4391 224.348 33.0525C224.68 31.6118 224.014 30.3829 222.196 29.2631C222.151 29.2354 222.11 29.2036 222.074 29.1684L208.885 23.1321C208.753 23.0717 208.648 22.9767 208.575 22.8629C208.575 22.8629 208.575 22.8629 208.575 22.8629C206.802 22.8396 205.803 23.5544 205.393 25.1091C204.944 26.8069 205.514 28.0768 207.207 29.0845C207.321 29.1519 207.406 29.2401 207.464 29.3391C207.556 29.3429 207.649 29.3645 207.738 29.4056L219.429 34.8082C218.142 33.9779 217.865 32.6486 218.589 31.0903C219.331 29.491 220.534 28.8713 221.957 29.4785C222.325 29.6355 222.496 30.0612 222.339 30.4293C222.182 30.7974 221.756 30.9685 221.388 30.8115C220.757 30.5422 220.342 30.7562 219.903 31.7007C219.459 32.6577 219.58 33.2017 220.258 33.6178C220.599 33.8271 220.706 34.2733 220.497 34.6144C220.33 34.8859 220.014 35.009 219.72 34.9424ZM220.665 36.9758L207.13 30.7211C207 30.661 206.896 30.567 206.824 30.4546C205.014 30.9019 203.944 31.9375 203.521 33.626C203.219 34.8287 203.309 35.8722 203.778 36.7885C204.111 37.4374 204.651 37.9563 205.313 38.2622L209.18 40.0503C209.223 40.059 209.265 40.0717 209.307 40.0885L217.31 43.316C219.408 43.4884 220.749 42.8266 221.487 41.3117C222.196 39.8589 221.946 38.453 220.665 36.9758ZM211.906 42.6995L210.516 54.6824L228.012 51.9284C230.586 51.5231 232.574 49.4495 232.87 46.86L236.955 11.1143C234.32 8.92759 234.403 6.11348 237.121 3.01917C236.629 2.44722 235.871 2.12137 235.065 2.21408C232.576 2.50042 231.118 3.78984 230.564 6.19079C230.35 7.11515 229.332 10.9025 227.498 17.5924C227.397 17.9598 227.029 18.1865 226.655 18.1111L218.968 16.5588L224.754 19.5739C224.774 19.5842 224.793 19.5955 224.812 19.6076C227.102 21.0852 228.055 22.9916 227.542 25.2137C227.122 27.0303 225.915 28.2277 224.01 28.7814C225.553 30.0711 226.165 31.6231 225.76 33.3785C225.363 35.0971 224.175 36.2129 222.294 36.7119C223.47 38.4066 223.652 40.1789 222.79 41.947C221.757 44.0653 219.796 45.0061 217.071 44.7498C217.001 44.7432 216.933 44.7266 216.868 44.7004L211.906 42.6995ZM213.876 15.5306L211.366 15.0237C211.35 15.0205 211.334 15.0194 211.319 15.0204C208.861 15.1753 207.559 16.0501 207.207 17.6611C206.861 19.2399 207.424 20.4896 208.987 21.5361C209.078 21.5965 209.148 21.6689 209.199 21.7484C209.296 21.7501 209.394 21.7713 209.488 21.8142L222.271 27.665C222.33 27.6411 222.393 27.6247 222.458 27.6168C224.597 27.3605 225.765 26.4658 226.13 24.8877C226.492 23.3176 225.843 22.0066 224.054 20.8433L213.969 15.588C213.936 15.5709 213.905 15.5517 213.876 15.5306ZM237.689 4.60633C236.268 6.45792 236.105 7.96527 237.164 9.28363L237.674 4.82113C237.682 4.74974 237.687 4.67806 237.689 4.60633ZM238.484 10.4978C238.662 10.7423 238.674 11.083 238.489 11.3435C238.455 11.3921 238.416 11.4351 238.373 11.4725L234.31 47.0246C233.94 50.2614 231.455 52.8534 228.237 53.36L209.798 56.2624C209.325 56.3369 208.911 55.9392 208.966 55.463L210.499 42.2565L204.704 39.5777C203.749 39.1358 202.968 38.3864 202.488 37.4491C201.852 36.2065 201.732 34.804 202.115 33.2738C202.569 31.4618 203.641 30.176 205.28 29.4519C203.945 28.2069 203.498 26.6079 203.991 24.7388C204.424 23.1001 205.411 22.0485 206.876 21.6253C205.807 20.4304 205.433 18.988 205.791 17.3512C206.299 15.0305 208.18 13.766 211.227 13.574C211.37 13.565 211.513 13.5748 211.653 13.603L226.279 16.5565C227.991 10.3057 228.952 6.72985 229.152 5.86477C229.844 2.86338 231.803 1.1304 234.9 0.774293C236.987 0.534221 238.874 2.03172 239.114 4.11904C239.147 4.40697 239.147 4.69774 239.114 4.98569L238.484 10.4978ZM222.362 25.4452C222.671 25.6999 222.715 26.1566 222.46 26.4653C222.205 26.774 221.749 26.8177 221.44 26.563C220.221 25.5567 220.11 24.1787 221.061 22.7099C222.019 21.2295 223.296 20.7832 224.621 21.5825C224.963 21.7893 225.073 22.2347 224.867 22.5773C224.66 22.92 224.214 23.0302 223.872 22.8234C223.284 22.469 222.843 22.6231 222.278 23.4973C221.704 24.3832 221.749 24.9388 222.362 25.4452ZM217.415 41.2207C217.741 41.4532 217.816 41.9058 217.584 42.2315C217.351 42.5572 216.899 42.6327 216.573 42.4001C215.286 41.4813 215.08 40.1143 215.926 38.5828C216.778 37.0392 218.021 36.5049 219.398 37.2099C219.754 37.3923 219.895 37.8289 219.713 38.1851C219.531 38.5414 219.094 38.6823 218.738 38.5C218.127 38.1874 217.698 38.3719 217.195 39.2834C216.685 40.2071 216.768 40.7583 217.415 41.2207ZM192.133 137.697C191.499 140.641 191.091 142.534 190.909 143.377L236.05 152.234L237.308 147.178L192.133 137.697ZM178.471 140.936L189.443 143.089L190.675 137.391L147.632 128.356L146.458 133.88L178.471 140.936ZM191.077 135.533L203.882 76.3241L160.276 68.8699L147.935 126.93L191.077 135.533ZM177.183 97.1711C178.326 97.7229 179.316 98.5756 179.708 99.3545C180.756 101.44 180.826 103.905 179.275 106.785C178.31 108.578 176.265 109.251 173.919 108.872C171.831 108.534 169.807 107.397 168.857 105.962C167.907 104.527 168.065 102.64 169.051 100.752C169.903 99.1226 171.308 97.6532 172.667 96.9777C173.204 96.7107 173.778 96.5692 174.37 96.5404L172.79 93.2695C172.616 92.9092 172.767 92.4759 173.127 92.3018C173.488 92.1277 173.921 92.2787 174.095 92.639L175.299 95.1306L175.682 92.7087C175.745 92.3134 176.116 92.0438 176.512 92.1064C176.907 92.169 177.177 92.5402 177.114 92.9354L176.698 95.5609L178.713 93.3814C178.985 93.0875 179.443 93.0695 179.737 93.3412C180.031 93.6129 180.049 94.0714 179.777 94.3652L177.183 97.1711ZM176.397 98.4037C175.284 97.9079 174.19 97.8389 173.312 98.2755C172.243 98.8068 171.052 100.052 170.336 101.423C169.569 102.89 169.457 104.242 170.065 105.162C170.772 106.23 172.435 107.164 174.15 107.441C175.947 107.732 177.372 107.263 177.999 106.098C179.314 103.656 179.259 101.687 178.413 100.006C178.167 99.5157 177.34 98.8238 176.397 98.4037ZM211.245 136.683C211.385 136.308 211.803 136.118 212.178 136.258C212.552 136.399 212.742 136.816 212.602 137.191C212.048 138.671 210.781 139.224 209.082 138.804C207.371 138.38 206.533 137.318 206.858 135.805C206.941 135.414 207.327 135.165 207.718 135.249C208.109 135.333 208.359 135.718 208.275 136.109C208.131 136.78 208.42 137.147 209.431 137.397C210.455 137.651 210.966 137.428 211.245 136.683ZM220.705 139.209C220.846 138.834 221.263 138.644 221.638 138.784C222.013 138.925 222.203 139.342 222.063 139.717C221.508 141.197 220.241 141.75 218.543 141.33C216.831 140.906 215.994 139.844 216.318 138.331C216.402 137.94 216.787 137.691 217.179 137.775C217.57 137.859 217.819 138.244 217.735 138.635C217.591 139.306 217.88 139.673 218.891 139.923C219.916 140.177 220.426 139.954 220.705 139.209Z" fill="white"/>
</svg>
