<svg width="362" height="362" fill="none" xmlns="http://www.w3.org/2000/svg"><g clip-path="url(#clip0)"><g clip-path="url(#clip1)"><path d="M363.45 362.934V-1.47H-.954v364.404H363.45z" fill="#3D3D3D"/><path d="M181.248-1.47c.654 99.974-79.866 181.548-179.84 182.202-.787.01-1.575.01-2.362 0V-1.47h182.202zm0 364.404c0-100.628 81.573-182.202 182.202-182.202v182.202H181.248z" fill="#000"/><path d="M363.45 180.732c-102.489 0-182.202-79.713-182.202-182.202H363.45v182.202zm-364.404 0c99.974-.654 181.547 79.866 182.202 179.84.009.787.009 1.575 0 2.362H-.954V180.732z" fill="#000"/></g></g><defs><clipPath id="clip0"><path fill="#fff" d="M0 0h362v362H0z"/></clipPath><clipPath id="clip1"><path fill="#fff" transform="rotate(90 182.46 180.99)" d="M0 0h364.404v364.404H0z"/></clipPath></defs></svg>