<svg width="873" height="973" fill="none" xmlns="http://www.w3.org/2000/svg"><path d="M-339 98.282C-132.677 24.58 43.217-33.249 118.76 24.888c75.543 58.136 13.753 172.663 59.307 219.214 45.555 46.552 108.394 29.079 161.516 6.442 53.122-22.637 158.005-66.579 213.21-10.165 55.206 56.414 1.923 162.616-17.867 209.784-19.79 47.169-52.828 153.638-1.097 206.502 51.732 52.863 106.506 30.153 150.571 85.113s1.067 131.79 52.026 183.864c50.959 52.075 87.972-2.68 135.456 45.844" stroke="url(#paint0_linear)" stroke-width="2" stroke-linecap="round" stroke-linejoin="round"/><defs><linearGradient id="paint0_linear" x1="-339" y1="98.282" x2="689.831" y2="1149.64" gradientUnits="userSpaceOnUse"><stop stop-color="#FF59F8"/><stop offset=".198" stop-color="#AE72FF"/><stop offset=".406" stop-color="#90E9ED"/><stop offset=".62" stop-color="#5CD167"/><stop offset=".825" stop-color="#FE0"/></linearGradient></defs></svg>