<svg width="566" height="515" viewBox="0 0 566 515" fill="none" xmlns="http://www.w3.org/2000/svg">
<path d="M262.705 244.64C260.633 243.603 258.86 260.359 251 265.042C246.764 267.567 254.546 270.142 254.702 270.609L260.472 263.437C260.472 263.435 264.889 245.731 262.705 244.64Z" fill="white"/>
<path d="M263.041 243.967C262.735 243.814 262.393 243.802 262.076 243.931C261.125 244.323 260.562 245.881 259.383 249.367C257.727 254.258 255.225 261.65 250.617 264.396C249.507 265.056 248.96 265.836 248.991 266.711C249.055 268.515 251.629 269.813 253.332 270.67C253.627 270.819 253.988 271 254.127 271.089C254.269 271.259 254.48 271.359 254.703 271.359C254.782 271.359 254.863 271.347 254.941 271.32C255.335 271.189 255.547 270.764 255.417 270.37C255.285 269.972 254.963 269.81 254.008 269.329C253.056 268.849 250.525 267.573 250.492 266.657C250.483 266.381 250.8 266.036 251.386 265.686C256.47 262.657 259.08 254.95 260.806 249.848C261.351 248.238 262.01 246.291 262.463 245.565C263.041 247.463 261.575 255.917 259.744 263.254C259.644 263.657 259.888 264.064 260.291 264.164C260.694 264.264 261.101 264.019 261.201 263.618C261.212 263.574 262.321 259.116 263.148 254.583C264.697 246.074 264.013 244.453 263.041 243.967ZM253.991 270.847V270.845V270.847Z" fill="#272727"/>
<path d="M211.415 79.5865C211.416 79.5615 211.415 79.5365 211.416 79.5115C210.92 81.6749 210.607 83.0433 210.607 83.0433C210.874 81.8983 211.145 80.7455 211.415 79.5865Z" fill="#272727"/>
<path d="M208.107 66.6183C207.424 69.9048 211.773 73.8193 211.416 79.513C212.599 74.366 214.837 64.6829 216.482 57.9661C210.817 58.3331 208.702 63.7519 208.107 66.6183Z" fill="#272727"/>
<path d="M219.935 8.67716C219.12 12.6026 225.49 17.4215 222.438 25.1021C219.976 31.2972 213.244 33.4013 207.605 30.7036C190.272 22.4123 166.782 12.7619 143.393 13.3368C142.49 17.2841 136.186 51.4633 131.564 71.2779C154.953 70.703 178.443 80.3534 195.776 88.6447C201.417 91.3424 208.147 89.2383 210.609 83.0432C213.661 75.3626 207.293 70.5437 208.107 66.6183C208.83 63.1302 211.799 55.8589 220.682 58.5112L232.511 0.570121C223.628 -2.08224 220.659 5.1891 219.935 8.67716Z" fill="#FF5050"/>
<path d="M263.041 34.1026C256.5 24.1118 249.163 5.54056 232.511 0.570121C223.628 -2.08224 220.66 5.1891 219.935 8.67716C219.153 12.4511 210.639 55.5683 208.21 65.3796C209.283 61.6838 212.479 55.9635 220.512 58.3629C237.164 63.3349 242.372 81.0344 248.913 91.0253C252.238 96.1035 255.881 99.0746 258.655 100.11C263.71 101.997 272.924 101.847 277.978 98.7637C279.123 98.0655 283.329 43.9139 283.329 43.9139C275.749 50.826 269.486 43.9467 263.041 34.1026Z" fill="#FF5050"/>
<path d="M220.109 7.83829C219.643 7.73988 219.192 8.03979 219.097 8.50216C218.891 9.49875 218.188 13.2289 217.218 18.3899C214.572 32.4593 209.645 58.6471 207.858 65.8638C207.744 66.323 208.024 66.7869 208.483 66.8994C208.552 66.9166 208.621 66.9244 208.689 66.9244C209.074 66.9244 209.423 66.6635 209.519 66.2746C211.316 59.0095 216.249 32.7905 218.898 18.7055C219.867 13.5523 220.568 9.8299 220.771 8.84893C220.87 8.38813 220.571 7.93513 220.109 7.83829Z" fill="#272727"/>
<path d="M493.891 450.907L452.405 379.347C450.484 376.032 446.949 373.983 443.118 373.959L394.301 373.678C392.566 373.669 390.86 373.241 389.325 372.432L341.972 347.476C341.591 347.275 341.223 347.051 340.866 346.806L272.216 299.376C267.457 296.088 260.951 297.131 257.459 301.743L203.76 372.641C203.074 373.547 202.249 374.339 201.317 374.987L164.4 402.318C157.015 407.786 151.289 415.193 147.855 423.717L135.891 453.422C134.669 456.454 132.143 458.769 129.018 459.722C114.368 464.19 69.6381 474.79 45.804 481.856C35.7011 484.852 26.3668 492.674 18.4382 499.617L0.869202 515H565.167L496.059 453.563C495.2 452.799 494.468 451.902 493.891 450.907Z" fill="url(#paint0_linear)"/>
<path d="M335.595 361.674C331.977 358.662 327.39 357.039 322.684 357.021L263.122 357.16C262.696 357.161 262.349 357.508 262.351 357.934C262.352 358.361 262.698 358.706 263.124 358.706H263.126L322.687 358.567C322.701 358.567 322.715 358.567 322.729 358.567C327.06 358.567 331.276 360.091 334.604 362.864L352.014 377.358C352.158 377.479 352.334 377.536 352.508 377.536C352.73 377.536 352.95 377.441 353.103 377.258C353.376 376.93 353.331 376.443 353.003 376.17L335.595 361.674Z" fill="white"/>
<path d="M183.988 418.022C183.617 417.812 183.145 417.944 182.936 418.315L171.347 438.867C168.044 444.727 162.433 449.116 155.96 450.909L32.4617 483.559C32.0493 483.668 31.8025 484.092 31.9118 484.504C32.004 484.851 32.3164 485.081 32.6585 485.081C32.7241 485.081 32.7897 485.073 32.8568 485.054L156.365 452.402C163.239 450.498 169.192 445.842 172.695 439.626L184.284 419.075C184.493 418.704 184.36 418.231 183.988 418.022Z" fill="white"/>
<path d="M479.735 440.298C479.707 440.275 479.677 440.254 479.647 440.237C476.339 438.213 472.54 437.143 468.662 437.143H448.853C443.118 437.143 437.727 434.909 433.672 430.854L421.856 419.037C416.517 413.698 408.062 413.25 402.189 417.994L382.791 433.661C382.459 433.93 382.407 434.415 382.676 434.748C382.944 435.081 383.432 435.132 383.763 434.864L403.161 419.196C408.419 414.951 415.985 415.352 420.763 420.13L432.579 431.947C436.926 436.295 442.705 438.689 448.853 438.689H468.662C472.237 438.689 475.741 439.672 478.796 441.527L543.905 494.987C544.049 495.104 544.222 495.162 544.396 495.162C544.619 495.162 544.841 495.065 544.994 494.879C545.266 494.55 545.217 494.061 544.886 493.79L479.735 440.298Z" fill="white"/>
<path d="M290.365 344.443C285.635 348.226 273.577 351.122 270.807 351.875C265.82 353.231 267.801 356.674 267.801 356.674H316.681L317.571 331.768L301.503 331.509C301.503 331.507 297.587 338.663 290.365 344.443Z" fill="white"/>
<path d="M317.598 331.017C317.167 330.998 316.835 331.326 316.82 331.74L315.956 355.922H268.296C268.175 355.555 268.068 354.971 268.304 354.398C268.628 353.612 269.562 352.99 271.004 352.598C271.263 352.528 271.604 352.439 272.012 352.331C275.954 351.299 286.424 348.556 290.833 345.029C298.09 339.221 301.998 332.167 302.161 331.868C302.359 331.504 302.226 331.048 301.862 330.848C301.5 330.65 301.042 330.784 300.842 331.147C300.805 331.217 296.919 338.234 289.895 343.856C285.735 347.184 275.489 349.868 271.631 350.879C271.217 350.988 270.871 351.077 270.609 351.149C268.674 351.675 267.43 352.576 266.915 353.825C266.245 355.444 267.11 356.983 267.148 357.047C267.282 357.28 267.53 357.424 267.799 357.424H316.681C317.085 357.424 317.417 357.103 317.432 356.699L318.321 331.793C318.337 331.379 318.012 331.033 317.598 331.017Z" fill="#272727"/>
<path d="M285.818 345.672C285.427 345.532 284.998 345.732 284.856 346.122C284.714 346.513 284.915 346.944 285.306 347.084C287.142 347.753 289.468 349.212 290.521 350.967C290.662 351.202 290.91 351.333 291.166 351.333C291.297 351.333 291.432 351.299 291.552 351.225C291.908 351.013 292.024 350.55 291.81 350.194C290.482 347.981 287.753 346.375 285.818 345.672Z" fill="#272727"/>
<path d="M289.74 343.663C289.35 343.523 288.92 343.723 288.778 344.113C288.636 344.504 288.837 344.935 289.228 345.075C291.066 345.742 293.39 347.203 294.443 348.957C294.584 349.191 294.832 349.323 295.088 349.323C295.219 349.323 295.352 349.288 295.474 349.215C295.83 349.002 295.946 348.54 295.732 348.184C294.404 345.972 291.674 344.366 289.74 343.663Z" fill="#272727"/>
<path d="M317.118 349.858C313.897 348.929 310.55 349.313 307.935 350.913C305.83 352.201 304.382 354.167 303.968 356.305C303.888 356.713 304.155 357.106 304.562 357.186C304.61 357.195 304.658 357.2 304.705 357.2C305.058 357.2 305.372 356.95 305.441 356.592C305.777 354.868 306.972 353.265 308.72 352.195C310.977 350.816 313.885 350.491 316.703 351.302C317.101 351.417 317.517 351.186 317.632 350.788C317.746 350.39 317.517 349.972 317.118 349.858Z" fill="#272727"/>
<path d="M294.465 257.042C292.594 269.205 280.899 341.716 280.899 341.716H322.532C322.532 341.716 327.677 272.948 327.677 268.27C327.677 263.591 362.294 213.068 362.294 213.068L373.988 184.531L344.985 183.595C344.987 183.595 296.336 244.879 294.465 257.042Z" fill="#272727"/>
<path d="M374.013 183.78L345.01 182.844C344.759 182.836 344.545 182.941 344.398 183.128C342.407 185.637 295.602 244.708 293.723 256.928C291.874 268.949 280.274 340.872 280.157 341.597C280.123 341.814 280.184 342.036 280.328 342.203C280.47 342.37 280.679 342.467 280.899 342.467H322.532C322.926 342.467 323.252 342.164 323.28 341.772C323.491 338.963 328.429 272.921 328.429 268.27C328.429 265.008 349.051 233.725 362.914 213.492C362.943 213.448 362.968 213.401 362.989 213.353L374.683 184.815C374.777 184.587 374.752 184.328 374.619 184.122C374.486 183.916 374.26 183.788 374.013 183.78ZM361.63 212.709C357.864 218.207 326.927 263.516 326.927 268.27C326.927 272.615 322.376 333.721 321.835 340.966H281.782C283.116 332.696 293.468 268.462 295.208 257.157C296.963 245.756 341.677 188.994 345.342 184.359L372.885 185.248L361.63 212.709Z" fill="#272727"/>
<path d="M350.162 118.695L350.996 118.497C342.635 114.929 332.154 126.809 326.918 132.226C321.681 137.643 306.567 153.062 301.338 158.292C296.478 163.151 302.712 172.566 308.182 171.049C317.017 168.598 341.533 146.552 346.647 140.922C353.595 133.274 352.035 119.911 350.162 118.695Z" fill="#3092F7"/>
<path d="M437.535 368.862C434.764 368.109 427.089 365.215 422.359 361.43C415.135 355.651 411.221 348.496 411.221 348.496L390.771 348.756L391.662 373.661H440.542C440.542 373.663 442.523 370.218 437.535 368.862Z" fill="white"/>
<path d="M437.734 368.138C434.988 367.391 427.421 364.518 422.831 360.844C415.818 355.234 411.92 348.206 411.881 348.136C411.681 347.772 411.225 347.639 410.861 347.837C410.497 348.037 410.365 348.493 410.563 348.856C410.725 349.154 414.634 356.21 421.892 362.016C426.712 365.873 434.382 368.781 437.34 369.586C438.796 369.981 439.703 370.582 440.036 371.374C440.278 371.949 440.169 372.539 440.048 372.91H392.386L391.523 348.729C391.508 348.315 391.174 347.981 390.745 348.006C390.331 348.02 390.006 348.368 390.022 348.784L390.912 373.689C390.926 374.094 391.259 374.414 391.663 374.414H440.544C440.812 374.414 441.061 374.27 441.195 374.038C441.232 373.973 442.098 372.435 441.429 370.815C440.912 369.564 439.669 368.664 437.734 368.138Z" fill="#272727"/>
<path d="M425.886 362.847C423.952 363.55 421.223 365.157 419.896 367.369C419.682 367.725 419.797 368.186 420.153 368.4C420.274 368.472 420.408 368.508 420.539 368.508C420.794 368.508 421.044 368.378 421.184 368.142C422.237 366.388 424.563 364.928 426.4 364.259C426.79 364.117 426.99 363.686 426.85 363.297C426.706 362.906 426.276 362.706 425.886 362.847Z" fill="#272727"/>
<path d="M421.964 360.84C420.03 361.543 417.3 363.15 415.974 365.362C415.76 365.718 415.875 366.179 416.231 366.393C416.352 366.465 416.486 366.501 416.617 366.501C416.873 366.501 417.122 366.371 417.262 366.135C418.315 364.381 420.641 362.92 422.478 362.252C422.868 362.11 423.068 361.679 422.927 361.29C422.784 360.899 422.354 360.699 421.964 360.84Z" fill="#272727"/>
<path d="M376.142 96.5065L373.905 98.484C373.905 98.484 370.742 136.303 395.476 128.25C402.666 125.909 404.172 116.21 400.994 109.689C396.187 99.8196 376.142 96.5065 376.142 96.5065Z" fill="#272727"/>
<path d="M362.139 73.0961C358.111 74.0255 356.316 80.0097 356.316 80.0097L370.8 77.1433C370.8 77.1449 368.857 71.5465 362.139 73.0961Z" fill="#272727"/>
<path d="M376.559 95.4114C376.985 93.0965 359.743 96.7829 360.008 101.015C360.43 107.738 359.31 118.906 357.087 125.826L379.221 126.403C375.516 118.463 375.461 101.388 376.559 95.4114Z" fill="white"/>
<path d="M377.298 95.5474C377.382 95.0881 377.206 94.6633 376.812 94.3821C374.992 93.0715 366.405 95.035 362.384 97.2563C360.227 98.4481 359.176 99.729 359.259 101.063C359.651 107.319 358.659 118.478 356.371 125.598C356.244 125.993 356.461 126.417 356.856 126.543C357.251 126.67 357.675 126.453 357.801 126.057C360.141 118.77 361.158 107.361 360.758 100.969C360.717 100.329 361.503 99.4947 362.912 98.684C367.045 96.305 374.297 95.0397 375.775 95.5286C374.664 102.031 374.863 118.847 378.538 126.721C378.665 126.995 378.936 127.155 379.219 127.155C379.325 127.155 379.433 127.132 379.536 127.085C379.913 126.91 380.075 126.463 379.899 126.087C376.301 118.372 376.169 101.696 377.298 95.5474Z" fill="#272727"/>
<path d="M372.062 76.9465C366.822 73.1336 360.672 75.661 355.402 80.4174C350.765 84.6022 348.898 90.5067 350.17 95.3116C352.224 103.072 359.331 108.298 368.157 104.378L376.548 93.6371C378.722 88.2167 378.744 81.8092 372.062 76.9465Z" fill="white"/>
<path d="M372.503 76.3389C367.609 72.779 361.356 74.0286 354.898 79.8597C350.193 84.107 348.051 90.2474 349.443 95.5037C350.627 99.9758 353.389 103.539 357.019 105.279C358.67 106.071 360.438 106.466 362.276 106.466C364.276 106.466 366.358 105.997 368.462 105.063C368.841 104.895 369.012 104.451 368.843 104.071C368.674 103.692 368.231 103.522 367.851 103.69C364.229 105.299 360.707 105.38 357.665 103.925C354.434 102.375 351.964 99.1667 350.894 95.1194C349.645 90.402 351.611 84.8489 355.903 80.975C360.061 77.223 366.161 73.585 371.618 77.5542C378.38 82.4746 377.652 88.8634 375.85 93.3558C375.695 93.7417 375.883 94.179 376.267 94.3337C376.654 94.4883 377.09 94.3009 377.245 93.9166C380.073 86.864 378.39 80.622 372.503 76.3389Z" fill="#272727"/>
<path d="M378.652 187.232C378.652 187.232 350.118 171.449 353.051 189.778C355.983 208.107 362.281 240.821 366.37 263.385C369.782 282.215 382.416 358.119 382.416 358.119H427.615C427.615 358.119 409.845 289.685 406.107 273.951C397.732 238.703 378.652 187.232 378.652 187.232Z" fill="#272727"/>
<path d="M406.836 273.776C398.547 238.889 379.547 187.485 379.355 186.97C379.292 186.801 379.172 186.66 379.014 186.573C378.291 186.173 361.239 176.837 354.649 181.46C352.447 183.007 351.658 185.845 352.306 189.895C354.307 202.399 357.828 221.35 361.231 239.678C362.801 248.125 364.326 256.335 365.627 263.516C368.999 282.126 381.545 357.48 381.671 358.239C381.732 358.601 382.045 358.867 382.412 358.867H427.61C427.843 358.867 428.062 358.759 428.204 358.575C428.346 358.39 428.395 358.151 428.337 357.926C428.165 357.244 410.53 289.321 406.836 273.776ZM383.052 357.366C381.827 350.019 370.317 280.961 367.109 263.249C365.808 256.065 364.282 247.854 362.712 239.403C359.309 221.085 355.791 202.143 353.793 189.658C353.243 186.223 353.823 183.878 355.514 182.69C357.87 181.035 362.517 181.385 368.951 183.7C373.269 185.254 377.068 187.234 378.046 187.757C379.534 191.799 397.414 240.62 405.376 274.124C408.834 288.681 424.493 349.074 426.645 357.367H383.052V357.366Z" fill="#272727"/>
<path d="M362.731 239.389C361.109 230.658 359.44 221.677 357.923 213.315C357.604 211.561 355.494 211.144 353.631 210.775C352.383 210.528 350.829 210.221 350.718 209.6C350.643 209.18 350.248 208.905 349.82 208.976C349.399 209.051 349.12 209.452 349.195 209.874C349.492 211.534 351.442 211.92 353.331 212.293C354.71 212.567 356.272 212.875 356.402 213.592C357.92 221.956 359.588 230.941 361.211 239.673C362.781 248.124 364.307 256.339 365.609 263.524C368.982 282.134 381.527 357.488 381.654 358.247C381.716 358.625 382.045 358.893 382.416 358.893C382.458 358.893 382.501 358.89 382.544 358.882C382.966 358.812 383.25 358.414 383.18 357.992C383.054 357.233 370.506 281.869 367.132 263.248C365.828 256.059 364.302 247.843 362.731 239.389Z" fill="#F3B727"/>
<path d="M386.409 120.095C382.882 118.374 372.898 117.188 360.692 116.908C350.729 116.68 346.646 117.472 342.285 119.241C338.655 120.712 343.786 127.337 338.623 139.788C335.781 146.644 338.791 152.664 335.781 164.035C330.642 183.447 321.232 200.658 321.232 200.658C321.232 200.658 339.39 200.5 352.864 201.247C362.785 201.797 384.945 202.742 384.945 202.742C384.945 202.742 385.068 161.73 386.112 149.599C387.896 128.864 389.936 121.818 386.409 120.095Z" fill="#3092F7"/>
<path d="M406.143 133.486C400.268 127.06 390.798 121.123 386.409 120.095L378.658 120.282C374.574 119.072 377.207 134.638 381.187 137.402C384.833 139.936 404.075 153.02 409.265 162.608C412.081 167.811 420.335 166.742 423.568 163.2C430.661 155.435 409.448 137.101 406.143 133.486Z" fill="#3092F7"/>
<path d="M396.774 168.75C389.491 175.66 381.386 187.063 379.539 192.21C378.174 196.018 381.545 202.732 382.687 203.36C384.589 204.405 386.31 198.596 387.177 196.668C391.781 186.435 423.79 172.717 424.46 160.749L416.374 158.789C409.061 158.912 402.514 163.303 396.774 168.75Z" fill="white"/>
<path d="M424.502 159.998C424.096 159.966 423.734 160.291 423.71 160.705C423.354 167.071 412.872 174.497 403.622 181.046C395.891 186.521 388.591 191.692 386.493 196.359C386.328 196.728 386.131 197.235 385.909 197.809C385.334 199.294 384.138 202.384 383.221 202.718C383.163 202.74 383.124 202.743 383.054 202.704C382.16 202.14 379.039 195.833 380.247 192.463C382.006 187.558 389.834 176.371 397.291 169.295C404.103 162.831 410.349 159.641 416.388 159.54C416.803 159.534 417.133 159.192 417.126 158.776C417.12 158.361 416.75 158.036 416.363 158.037C409.932 158.145 403.355 161.471 396.257 168.205C388.653 175.418 380.647 186.896 378.833 191.956C377.374 196.025 380.692 203.12 382.326 204.018C382.59 204.163 382.868 204.236 383.147 204.236C383.343 204.236 383.539 204.201 383.735 204.13C385.175 203.605 386.206 201.203 387.31 198.352C387.521 197.807 387.707 197.326 387.865 196.976C389.795 192.682 396.933 187.626 404.492 182.274C414.484 175.198 424.816 167.88 425.213 160.791C425.233 160.376 424.916 160.021 424.502 159.998Z" fill="#272727"/>
<path d="M390.628 208.965C389.475 208.056 384.967 204.675 383.885 202.362L379.539 192.21C376.376 197.432 379.756 203.344 381.328 205.069C382.897 206.793 391.687 213.535 392.719 212.887C393.758 212.236 391.78 209.874 390.628 208.965Z" fill="white"/>
<path d="M391.092 208.374L390.748 208.106C389.308 206.984 385.483 204.007 384.566 202.043C384.389 201.667 383.941 201.504 383.568 201.681C383.191 201.857 383.029 202.304 383.205 202.679C384.155 204.71 387.243 207.279 389.826 209.291L390.162 209.554C391.096 210.291 392.023 211.512 392.222 212.106C390.295 211.425 383.385 206.212 381.884 204.563C380.748 203.316 377.135 197.634 380.183 192.598C380.398 192.243 380.284 191.781 379.928 191.565C379.572 191.351 379.113 191.465 378.897 191.82C375.427 197.552 379.183 203.827 380.772 205.574C381.439 206.308 390.014 213.635 392.655 213.635C392.839 213.635 392.996 213.599 393.119 213.523C393.508 213.279 393.736 212.886 393.761 212.417C393.842 210.872 391.677 208.837 391.092 208.374ZM392.541 212.179H392.532H392.541Z" fill="#272727"/>
<path d="M391.24 207.014C389.331 205.617 385.539 201.77 384.439 197.565L381.151 199.768C383.102 203.67 386.732 206.6 387.694 207.408C388.657 208.215 394.553 212.818 395.181 211.895C395.923 210.805 393.339 208.549 391.24 207.014Z" fill="white"/>
<path d="M391.684 206.408C389.697 204.955 386.171 201.217 385.167 197.376C385.062 196.974 384.652 196.732 384.25 196.839C383.849 196.943 383.608 197.354 383.713 197.756C384.823 202.004 388.557 205.983 390.796 207.62C393.2 209.379 394.209 210.585 394.484 211.156C393.15 210.617 389.814 208.206 388.179 206.831L388.041 206.717C386.948 205.805 383.622 203.029 381.823 199.432C381.637 199.061 381.186 198.91 380.815 199.096C380.445 199.282 380.294 199.732 380.48 200.103C382.418 203.98 385.926 206.908 387.077 207.87L387.21 207.981C387.269 208.029 392.961 212.764 394.931 212.764C394.981 212.764 395.028 212.761 395.073 212.754C395.379 212.712 395.638 212.556 395.803 212.315C396.687 211.016 395.339 209.083 391.684 206.408Z" fill="#272727"/>
<path d="M286.046 123.194C286.046 123.194 282.168 107.338 278.117 104.687C275.687 103.097 272.53 113.138 271.97 114.959C270.475 119.815 279.112 128.594 279.112 128.594C279.112 128.594 285.999 147.742 289.011 155.085C294.734 169.04 302.998 173.197 308.181 171.048L308.521 153.418C300.316 148.376 286.046 123.194 286.046 123.194Z" fill="white"/>
<path d="M308.916 152.778C301.208 148.042 287.692 124.561 286.75 122.911C286.238 120.837 282.632 106.741 278.528 104.057C278.046 103.744 277.504 103.681 276.958 103.876C274.761 104.67 272.643 110.221 271.253 114.737C269.726 119.697 277.371 127.866 278.463 129C279.122 130.831 285.476 148.442 288.319 155.368C291.716 163.65 296.382 169.375 301.458 171.486C302.815 172.05 304.152 172.335 305.428 172.335C306.494 172.335 307.517 172.136 308.473 171.741C308.855 171.582 309.038 171.143 308.879 170.759C308.72 170.376 308.281 170.193 307.896 170.352C306.175 171.066 304.149 170.977 302.036 170.099C299.312 168.965 294.087 165.471 289.709 154.798C286.738 147.553 279.892 128.53 279.823 128.338C279.786 128.236 279.728 128.143 279.651 128.065C277.336 125.711 271.573 118.806 272.69 115.178C274.38 109.684 276.302 105.71 277.471 105.288C277.569 105.252 277.624 105.259 277.708 105.313C280.827 107.353 284.259 119.039 285.32 123.371C285.335 123.438 285.362 123.502 285.396 123.563C285.982 124.598 299.857 148.971 308.134 154.057C308.488 154.274 308.949 154.163 309.166 153.81C309.38 153.457 309.271 152.995 308.916 152.778Z" fill="#272727"/>
<path d="M364.869 75.2283L362.183 75.9249C362.183 75.9249 367.076 80.5939 371.825 89.9943C375.425 97.122 375.317 104.439 375.317 104.439L377.17 104.003C377.17 104.003 386.663 91.6704 382.86 83.3337C376.726 69.8845 364.869 75.2283 364.869 75.2283Z" fill="#272727"/>
<path d="M349.443 83.3182C349.487 84.6475 351.06 85.955 352.458 87.0203L356.024 83.1214C353.323 83.3026 349.393 81.7921 349.443 83.3182Z" fill="white"/>
<path d="M355.974 82.3715C355.024 82.4372 353.84 82.2622 352.795 82.1091C351.068 81.8561 349.821 81.6733 349.117 82.3028C348.914 82.484 348.675 82.812 348.692 83.3431C348.747 85.002 350.429 86.4188 352.002 87.6185C352.138 87.7216 352.297 87.7716 352.456 87.7716C352.683 87.7716 352.906 87.67 353.054 87.4763C353.306 87.1467 353.242 86.675 352.912 86.4235C352.072 85.7831 350.357 84.4756 350.204 83.4041C350.635 83.3135 351.788 83.4822 352.577 83.5978C353.695 83.7618 354.963 83.9461 356.072 83.8727C356.486 83.8446 356.8 83.4869 356.77 83.0729C356.745 82.6558 356.377 82.3372 355.974 82.3715Z" fill="#272727"/>
<path fill-rule="evenodd" clip-rule="evenodd" d="M362.372 83.1572C361.627 82.8183 360.677 83.3494 360.254 84.3413C359.83 85.3331 360.09 86.4141 360.835 86.753C361.58 87.092 362.529 86.5609 362.953 85.569C363.378 84.5771 363.117 83.4962 362.372 83.1572Z" fill="#272727"/>
<path d="M355.565 94.1042C355.565 94.1042 355.84 98.1906 360.349 98.2749C363.682 98.3374 364.557 94.1589 364.557 94.1589C364.557 94.1589 362.17 94.7478 360.113 94.7478C357.834 94.7478 355.565 94.1042 355.565 94.1042Z" fill="white"/>
<path d="M364.377 93.4293C364.354 93.434 362.053 93.9964 360.115 93.9964H360.113C357.972 93.9964 355.793 93.3856 355.771 93.3793C355.536 93.3137 355.283 93.3653 355.093 93.5184C354.904 93.673 354.799 93.9089 354.816 94.1526C354.927 95.8037 356.224 98.9481 360.335 99.0246C360.365 99.0246 360.393 99.0262 360.422 99.0262C363.49 99.0262 364.949 95.9521 365.293 94.3119C365.346 94.0588 365.264 93.7964 365.079 93.6168C364.894 93.4387 364.629 93.37 364.377 93.4293ZM360.363 97.5235C357.926 97.4782 356.953 96.1223 356.566 95.1101C357.473 95.2944 358.784 95.4991 360.113 95.4991H360.115C361.28 95.4991 362.526 95.3225 363.432 95.1601C362.971 96.1989 362.025 97.5703 360.363 97.5235Z" fill="#272727"/>
<path d="M280.164 104.143C279.145 105.838 279.648 109.77 280.285 111.705C280.923 113.641 277.299 117.893 281.299 123.674L285.741 124.953C287.983 121.124 286.479 116.812 285.026 114.495C281.999 109.657 281.24 102.353 280.164 104.143Z" fill="white"/>
<path d="M282.631 106.771C281.857 104.337 281.504 103.227 280.609 103.122C280.36 103.095 279.893 103.137 279.52 103.756C278.244 105.88 279.022 110.265 279.573 111.94C279.703 112.335 279.493 113.138 279.27 113.987C278.659 116.32 277.738 119.844 280.684 124.1C280.92 124.441 281.388 124.527 281.729 124.291C282.069 124.055 282.155 123.586 281.919 123.246C279.367 119.558 280.151 116.559 280.724 114.369C281.029 113.205 281.269 112.286 281.001 111.469C280.463 109.837 280.103 106.938 280.537 105.245C280.746 105.799 280.99 106.561 281.201 107.227C281.902 109.433 282.864 112.454 284.392 114.893C284.942 115.771 287.56 120.362 285.095 124.573C284.885 124.931 285.006 125.392 285.363 125.601C285.484 125.672 285.613 125.704 285.743 125.704C286.001 125.704 286.252 125.572 286.393 125.333C288.642 121.492 287.492 117.01 285.666 114.095C284.239 111.816 283.309 108.9 282.631 106.771Z" fill="#272727"/>
<path d="M371.47 89.6209L371.879 95.9707C376.393 95.6661 377.813 92.4357 376.436 90.088C374.847 87.3794 372.087 88.8571 371.47 89.6209Z" fill="white"/>
<path d="M374.241 87.7855C372.777 87.6731 371.395 88.5181 370.886 89.1492C370.625 89.4726 370.675 89.9459 370.998 90.2052C371.32 90.466 371.793 90.416 372.054 90.0927C372.27 89.824 373.17 89.2101 374.13 89.2836C374.808 89.3335 375.35 89.7209 375.787 90.4676C376.29 91.3267 376.323 92.3046 375.875 93.1512C375.249 94.3352 373.774 95.0897 371.828 95.2209C371.414 95.249 371.1 95.6067 371.13 96.0207C371.156 96.4174 371.486 96.722 371.878 96.722C371.895 96.722 371.912 96.722 371.929 96.7205C374.407 96.5533 376.328 95.5099 377.204 93.8541C377.89 92.556 377.846 91.0065 377.084 89.7069C376.217 88.2292 375.06 87.8465 374.241 87.7855Z" fill="#272727"/>
<path d="M389.261 203.001C388.096 201.478 386.599 198.054 386.112 195.726L383.575 196.981C384.411 199.767 385.884 202.304 387.588 204.618C388.369 205.677 393.552 207.181 394.166 206.178C394.806 205.13 389.986 203.947 389.261 203.001Z" fill="white"/>
<path d="M391.848 203.565C391.132 203.254 390.053 202.784 389.858 202.543C388.739 201.081 387.305 197.759 386.846 195.572C386.76 195.166 386.36 194.905 385.957 194.991C385.551 195.075 385.29 195.473 385.376 195.879C385.879 198.283 387.415 201.823 388.664 203.455C389.058 203.971 389.903 204.357 391.248 204.941C391.763 205.166 392.513 205.492 393.013 205.773C391.626 205.73 388.669 204.814 388.194 204.169C386.292 201.587 385.017 199.164 384.295 196.762C384.177 196.364 383.755 196.139 383.36 196.257C382.961 196.376 382.737 196.795 382.855 197.193C383.627 199.763 384.976 202.337 386.984 205.06C387.774 206.133 391.273 207.256 393.132 207.256C393.192 207.256 393.253 207.254 393.31 207.253C394.044 207.222 394.548 206.99 394.806 206.567C394.979 206.283 395.02 205.952 394.922 205.638C394.665 204.827 393.588 204.322 391.848 203.565Z" fill="#272727"/>
<path d="M253.929 336.236L260.659 336.209L289.237 40.6805L282.772 39.7886L253.929 336.236Z" fill="white"/>
<path d="M289.34 39.9353L282.874 39.0434C282.669 39.0169 282.466 39.0715 282.305 39.1981C282.144 39.3246 282.043 39.512 282.022 39.7151L253.179 336.162C253.138 336.575 253.441 336.942 253.854 336.983C253.879 336.986 253.902 336.986 253.927 336.986C254.31 336.986 254.636 336.695 254.674 336.306L283.442 40.6367L288.419 41.3225L259.913 336.137C259.872 336.55 260.175 336.917 260.587 336.958C260.993 336.997 261.367 336.695 261.407 336.283L289.985 40.7539C290.024 40.3509 289.74 39.9916 289.34 39.9353Z" fill="#272727"/>
<path d="M274.07 110.165C273.51 107.924 270.522 114.648 271.704 118.383C272.351 120.426 275.843 124.391 277.254 123.983C278.442 123.639 277.058 121.121 277.058 121.121C277.058 121.121 278.638 122.835 279.736 121.805C280.732 120.871 279.636 119.603 278.241 118.071C276.374 116.018 274.444 111.66 274.07 110.165Z" fill="white"/>
<path d="M274.8 109.984C274.631 109.308 274.256 109.075 273.97 109C273.689 108.926 273.25 108.94 272.78 109.434C271.604 110.668 270.005 115.503 270.99 118.611C271.581 120.478 274.887 124.762 277.06 124.762C277.199 124.762 277.335 124.744 277.465 124.708C277.88 124.588 278.199 124.306 278.361 123.913C278.494 123.593 278.509 123.218 278.461 122.838C278.589 122.866 278.719 122.883 278.852 122.888C279.37 122.908 279.861 122.724 280.253 122.357C281.818 120.889 280.145 119.047 278.8 117.568C276.994 115.584 275.136 111.326 274.8 109.984ZM277.046 123.263L277.254 123.985L277.046 123.263ZM279.222 121.26C279.122 121.354 279.03 121.396 278.905 121.385C278.456 121.371 277.838 120.859 277.61 120.614C277.352 120.336 276.927 120.292 276.619 120.514C276.312 120.736 276.216 121.153 276.401 121.485C276.752 122.124 277.019 122.95 276.988 123.264C276.135 123.222 273.057 120.162 272.421 118.157C271.705 115.896 272.758 112.332 273.522 110.952C274.173 112.899 275.963 116.684 277.686 118.577C279.056 120.086 279.636 120.871 279.222 121.26Z" fill="#272727"/>
<path d="M277.059 121.123L272.949 115.799C274.117 118.275 275.72 120.126 277.059 121.123Z" fill="white"/>
<path d="M273.63 115.479C273.453 115.104 273.005 114.942 272.63 115.12C272.255 115.296 272.094 115.745 272.271 116.12C273.367 118.446 274.95 120.489 276.61 121.724C276.744 121.824 276.902 121.873 277.058 121.873C277.288 121.873 277.514 121.768 277.661 121.57C277.91 121.237 277.839 120.767 277.507 120.518C276.059 119.444 274.609 117.558 273.63 115.479Z" fill="#272727"/>
<path d="M276.218 105.621C276.24 104.314 273.136 106.804 273.386 109.543C273.683 112.807 275.145 114.306 276.126 115.893C277.107 117.48 279.943 120.853 280.841 119.395C281.541 118.26 279.301 115.357 278.367 113.466C275.813 108.299 276.187 107.489 276.218 105.621Z" fill="white"/>
<path d="M279.039 113.133C276.854 108.708 276.894 107.672 276.951 106.238C276.958 106.044 276.966 105.846 276.969 105.634C276.98 105.003 276.605 104.728 276.444 104.639C276.163 104.484 275.679 104.393 274.979 104.849C273.891 105.56 272.446 107.507 272.636 109.611C272.896 112.46 274.016 114.105 274.915 115.426C275.114 115.718 275.307 116.001 275.485 116.288C275.512 116.331 278.181 120.504 280.228 120.504C280.228 120.504 280.228 120.504 280.229 120.504C280.751 120.504 281.196 120.25 281.479 119.79C282.228 118.575 281.133 116.737 279.976 114.79C279.618 114.189 279.279 113.62 279.039 113.133ZM280.234 119.002C279.746 119.064 277.877 117.301 276.765 115.499C276.576 115.195 276.371 114.892 276.159 114.581C275.273 113.281 274.358 111.938 274.134 109.476C274.019 108.197 274.829 107.005 275.442 106.407C275.389 107.902 275.451 109.259 277.694 113.8C277.961 114.34 278.314 114.932 278.687 115.56C279.22 116.457 280.473 118.561 280.234 119.002Z" fill="#272727"/>
<path d="M272.405 260.972C272.629 257.627 271.459 255.358 271.459 255.358C271.459 255.358 271.151 251.245 268.782 250.882L243.977 273.402C243.977 273.402 248.117 282.509 250.805 278.873C255.097 273.068 267.487 271.487 270.175 268.665C273.519 265.153 272.251 263.285 272.405 260.972Z" fill="white"/>
<path d="M273.154 261.022C273.36 257.944 272.455 255.725 272.193 255.155C272.107 254.339 271.56 250.548 268.894 250.14C268.482 250.078 268.101 250.359 268.038 250.77C267.976 251.181 268.257 251.563 268.667 251.626C270.389 251.888 270.706 255.381 270.709 255.415C270.717 255.514 270.745 255.612 270.789 255.7C270.8 255.722 271.859 257.848 271.654 260.922C271.613 261.522 271.66 262.079 271.704 262.618C271.84 264.274 271.955 265.705 269.631 268.146C268.685 269.14 266.036 270.082 263.23 271.08C258.638 272.714 252.923 274.746 250.2 278.426C249.757 279.026 249.413 278.988 249.283 278.974C247.875 278.826 245.733 275.444 244.662 273.092C244.49 272.714 244.043 272.546 243.667 272.718C243.289 272.89 243.121 273.335 243.293 273.713C243.782 274.791 246.364 280.177 249.126 280.469C249.202 280.477 249.282 280.482 249.366 280.482C249.953 280.482 250.719 280.252 251.409 279.32C253.858 276.008 259.333 274.06 263.735 272.495C266.843 271.389 269.527 270.435 270.72 269.182C273.51 266.251 273.347 264.255 273.203 262.495C273.161 261.989 273.122 261.511 273.154 261.022Z" fill="#272727"/>
<path d="M269.84 240.068C268.447 243.803 266.693 248.091 266.106 249.266C265.729 250.019 263.853 252.002 261.256 254.505C257.396 258.224 251.223 264.538 252.115 267.493L263.319 258.574C265.548 256.121 268.827 251.371 269.506 249.934C270.404 248.032 270.962 245.97 271.53 244.178C272.571 240.904 272.516 239.12 271.846 238.283C271.296 237.597 270.471 238.377 269.84 240.068Z" fill="white"/>
<path d="M271.199 237.3C270.209 237.46 269.531 238.751 269.138 239.806C267.715 243.619 265.979 247.841 265.436 248.93C265.32 249.159 264.642 250.201 260.737 253.964C253.512 260.928 250.631 265.167 251.398 267.71C251.497 268.035 251.795 268.245 252.117 268.245C252.189 268.245 252.262 268.234 252.334 268.212C252.731 268.091 252.956 267.673 252.837 267.276C252.451 266 253.691 262.841 261.781 255.045C264.697 252.235 266.379 250.403 266.781 249.601C267.415 248.332 269.211 243.914 270.546 240.331C270.865 239.476 271.17 239.05 271.345 238.873C271.637 239.378 271.86 240.67 270.818 243.952C270.706 244.305 270.595 244.668 270.479 245.04C270.012 246.56 269.53 248.133 268.83 249.614C268.185 250.979 264.945 255.673 262.766 258.069C262.487 258.377 262.51 258.852 262.816 259.132C263.124 259.411 263.599 259.388 263.878 259.082C266.178 256.553 269.492 251.732 270.189 250.258C270.934 248.68 271.456 246.98 271.916 245.482C272.029 245.117 272.14 244.758 272.251 244.408C273.31 241.076 273.369 238.981 272.438 237.816C272.113 237.414 271.662 237.225 271.199 237.3Z" fill="#272727"/>
<path d="M186.092 195.837C171.71 202.034 171.552 215.642 178.718 224.898C178.848 225.065 178.981 225.227 179.117 225.388C177.869 235.034 169.565 245.393 169.565 245.393L190.567 247.6C190.567 247.6 193.827 232.06 195.061 230.468C206.634 230.844 211.028 221.977 210.437 211.398C209.756 199.191 194.171 192.357 186.092 195.837Z" fill="white"/>
<path d="M202.27 197.588C196.834 194.225 190.214 193.244 185.795 195.147C179.418 197.894 175.291 202.274 173.862 207.813C172.403 213.467 173.996 220.026 178.126 225.357C178.193 225.443 178.261 225.529 178.329 225.613C176.983 234.845 169.061 244.822 168.981 244.923C168.809 245.137 168.768 245.429 168.875 245.682C168.981 245.937 169.217 246.112 169.49 246.14L190.492 248.347C190.519 248.35 190.545 248.352 190.572 248.352C190.923 248.352 191.233 248.105 191.306 247.755C192.762 240.82 194.644 233.036 195.488 231.23C200.089 231.285 203.835 229.91 206.554 227.127C209.919 223.682 211.565 218.081 211.19 211.358C210.885 205.927 207.633 200.908 202.27 197.588ZM205.478 226.075C202.979 228.634 199.483 229.856 195.088 229.718C194.844 229.701 194.617 229.818 194.469 230.009C193.28 231.544 190.755 243.108 189.974 246.784L170.974 244.786C173.134 241.86 178.824 233.515 179.863 225.485C179.89 225.276 179.827 225.063 179.691 224.902C179.563 224.751 179.437 224.596 179.315 224.438C175.469 219.471 173.975 213.398 175.318 208.19C176.627 203.118 180.455 199.085 186.391 196.528C190.378 194.809 196.443 195.75 201.481 198.868C206.421 201.925 209.414 206.508 209.689 211.441C210.04 217.737 208.544 222.936 205.478 226.075Z" fill="#272727"/>
<path d="M209.448 211.158L209.133 217.515C210.54 217.076 212.961 217.023 213.964 215.7C214.967 214.376 212.652 214.707 209.448 211.158Z" fill="white"/>
<path d="M213.542 213.54C212.71 213.029 211.454 212.257 210.006 210.653C209.728 210.345 209.253 210.32 208.945 210.598C208.638 210.877 208.613 211.351 208.891 211.659C210.484 213.424 211.852 214.263 212.757 214.819C212.974 214.952 213.232 215.11 213.381 215.224C213.377 215.23 213.372 215.238 213.366 215.244C212.811 215.977 211.49 216.238 210.323 216.469C209.814 216.569 209.333 216.664 208.91 216.797C208.513 216.92 208.293 217.342 208.416 217.737C208.516 218.059 208.813 218.265 209.133 218.265C209.208 218.265 209.283 218.254 209.356 218.231C209.703 218.123 210.147 218.035 210.614 217.942C211.971 217.673 213.663 217.34 214.562 216.152C214.679 215.995 215.039 215.522 214.931 214.947C214.814 214.319 214.281 213.993 213.542 213.54ZM213.494 215.324H213.502H213.494Z" fill="#272727"/>
<path d="M207.897 223.011C205.637 223.525 201.123 222.269 199.755 219.544C199.567 219.174 199.116 219.024 198.746 219.21C198.376 219.396 198.226 219.849 198.412 220.219C199.899 223.178 203.924 224.621 206.79 224.621C207.316 224.621 207.804 224.573 208.229 224.476C208.633 224.384 208.886 223.981 208.794 223.576C208.705 223.172 208.3 222.92 207.897 223.011Z" fill="#272727"/>
<path fill-rule="evenodd" clip-rule="evenodd" d="M204.05 207.393C203.316 207.564 202.898 208.47 203.118 209.415C203.336 210.36 204.111 210.988 204.847 210.817C205.581 210.647 206 209.741 205.781 208.796C205.559 207.851 204.784 207.222 204.05 207.393Z" fill="#272727"/>
<path d="M178.596 197.816C163.509 210.988 178.774 228.136 178.774 228.136C178.774 228.136 184.207 226.789 187.923 222.205C190.152 219.454 190.85 213.515 193.268 212.131C200.512 207.984 201.596 197.969 201.596 197.969C201.596 197.969 189.13 188.619 178.596 197.816Z" fill="#272727"/>
<path d="M202.046 197.368C201.917 197.271 188.969 187.765 178.101 197.251C173.845 200.967 171.53 205.35 171.221 210.28C170.61 219.977 177.903 228.287 178.214 228.636C178.357 228.798 178.564 228.887 178.774 228.887C178.834 228.887 178.895 228.879 178.956 228.865C179.187 228.808 184.677 227.403 188.507 222.676C189.572 221.363 190.285 219.452 190.972 217.604C191.739 215.546 192.531 213.418 193.641 212.782C201.132 208.495 202.298 198.474 202.343 198.051C202.371 197.787 202.259 197.527 202.046 197.368ZM192.895 211.478C191.312 212.384 190.463 214.665 189.563 217.08C188.918 218.813 188.249 220.607 187.339 221.73C184.432 225.316 180.365 226.849 179.034 227.275C177.675 225.605 172.217 218.367 172.72 210.372C173.005 205.858 175.148 201.823 179.09 198.38C182.042 195.803 185.396 194.508 189.101 194.508C190.611 194.508 192.181 194.724 193.805 195.155C197.218 196.061 199.861 197.696 200.787 198.318C200.481 200.241 198.893 208.045 192.895 211.478Z" fill="#272727"/>
<path d="M175.846 215.307C162.85 213.649 134.029 212.868 133.396 228.22C132.838 241.762 148.775 248.895 162.558 238.172C176.361 227.431 176.33 217.951 176.33 217.951C176.33 217.951 178.414 215.635 175.846 215.307Z" fill="#272727"/>
<path d="M175.938 214.582C171.164 213.974 146.845 211.366 136.84 219.815C134.207 222.039 132.803 224.857 132.665 228.19C132.414 234.276 135.408 239.528 140.673 242.238C143.102 243.488 145.789 244.1 148.572 244.1C153.381 244.1 158.475 242.272 163.003 238.748C175.788 228.801 176.944 219.927 177.047 218.228C177.42 217.754 178.111 216.7 177.756 215.746C177.594 215.3 177.144 214.736 175.938 214.582ZM175.785 217.464C175.665 217.597 175.599 217.772 175.597 217.951C175.597 218.043 175.41 227.245 162.107 237.596C155.412 242.805 147.455 244.087 141.342 240.94C136.595 238.497 133.897 233.753 134.124 228.251C134.244 225.343 135.475 222.881 137.782 220.932C142.821 216.675 152.635 215.182 162.457 215.182C167.049 215.182 171.644 215.508 175.752 216.031C176.235 216.092 176.377 216.224 176.389 216.255C176.46 216.439 176.153 217.05 175.785 217.464Z" fill="#272727"/>
<path d="M188.029 211.439C187.457 215.933 191.768 217.1 191.768 217.1L195.4 211.519C195.722 207.756 188.719 206.009 188.029 211.439Z" fill="white"/>
<path d="M192.087 207.275C189.985 207.053 187.682 208.224 187.286 211.344C186.769 215.411 189.864 217.362 191.573 217.825C191.639 217.843 191.704 217.851 191.77 217.851C192.101 217.851 192.404 217.631 192.495 217.297C192.604 216.895 192.367 216.483 191.967 216.375C191.817 216.334 188.293 215.335 188.776 211.534C189.137 208.696 191.281 208.698 191.929 208.77C193.368 208.923 194.78 209.969 194.653 211.456C194.618 211.87 194.925 212.233 195.338 212.269C195.756 212.308 196.115 211.997 196.15 211.584C196.354 209.177 194.244 207.503 192.087 207.275Z" fill="#272727"/>
<path d="M79.6846 361.954C80.8279 362.677 82.9194 360.245 83.8425 357.534C84.4392 355.785 86.6072 351.75 86.6072 351.75L93.1722 342.49L88.0239 341C85.5701 345.552 78.6787 361.318 79.6846 361.954Z" fill="white"/>
<path d="M92.5584 342.058L85.9934 351.316C85.9762 351.341 85.959 351.367 85.945 351.396C85.856 351.563 83.7395 355.505 83.1319 357.294C82.4555 359.281 81.1763 360.921 80.3625 361.272C80.8077 358.508 86.2089 345.949 88.6847 341.359C88.8815 340.994 88.7456 340.538 88.3801 340.341C88.0146 340.144 87.5585 340.28 87.3617 340.646C86.0856 343.012 83.7223 348.176 81.8636 352.658C78.0649 361.818 78.685 362.21 79.2832 362.589C79.4831 362.716 79.769 362.836 80.1376 362.836C80.3328 362.836 80.5531 362.802 80.7936 362.716C82.3446 362.169 83.8582 359.817 84.5548 357.777C85.0921 356.197 87.0212 352.57 87.2477 352.147L93.7845 342.926C94.0235 342.587 93.9438 342.119 93.6064 341.878C93.2659 341.639 92.7989 341.719 92.5584 342.058ZM80.3375 361.66H80.3469H80.3375Z" fill="#272727"/>
<path d="M87.2977 339.629C81.6074 344.247 78.307 350.411 77.3026 352.442C76.2983 354.473 75.3471 358.231 76.4998 357.858C77.6525 357.486 81.9464 350.329 84.2581 347.996L93.655 340.499L94.7655 330.005C92.0586 335.086 90.9027 336.701 87.2977 339.629Z" fill="white"/>
<path d="M95.12 329.342C94.7545 329.147 94.2984 329.288 94.1031 329.652C91.4931 334.549 90.4372 336.112 86.8243 339.046C81.1887 343.621 77.818 349.705 76.6294 352.109C76.2467 352.884 74.5207 357.069 75.5594 358.273C75.764 358.511 76.0452 358.635 76.3513 358.635C76.4747 358.635 76.6028 358.615 76.7309 358.573C77.5134 358.32 78.4928 357.016 80.8904 353.626C82.2899 351.648 83.7363 349.602 84.7625 348.556L94.125 341.084C94.4499 340.825 94.5014 340.353 94.2437 340.028C93.9844 339.703 93.5127 339.652 93.1878 339.91L83.7894 347.409C83.766 347.428 83.7457 347.447 83.7254 347.467C82.6101 348.592 81.1122 350.71 79.6627 352.758C78.7052 354.112 77.4728 355.855 76.7481 356.684C76.8668 355.744 77.3166 354.107 77.9758 352.773C79.1191 350.458 82.3649 344.597 87.7693 340.21C91.5134 337.17 92.7005 335.477 95.4277 330.356C95.6245 329.992 95.487 329.536 95.12 329.342ZM76.7559 357.369H76.7481H76.7559Z" fill="#272727"/>
<path d="M82.0947 349.824C80.5093 352.379 74.8831 360.938 76.431 361.769C77.8649 362.539 83.4755 353.462 85.2874 351.484C87.0993 349.507 94.1141 344.332 97.1724 342.353L93.4049 338.829C90.0264 341.178 83.6801 347.267 82.0947 349.824Z" fill="white"/>
<path d="M96.7647 341.723C93.7798 343.655 86.6479 348.891 84.7344 350.977C84.144 351.622 83.2178 352.915 82.1447 354.413C80.6842 356.453 78.0836 360.085 76.9152 360.905C77.0808 359.676 78.8364 356.405 82.1431 351.158L82.7336 350.219C84.1971 347.857 90.4231 341.817 93.8345 339.446C94.175 339.208 94.2593 338.741 94.0219 338.401C93.7861 338.06 93.319 337.976 92.9769 338.213C89.664 340.516 83.1459 346.705 81.4574 349.429L80.8732 350.358C77.2276 356.142 75.0518 360.046 75.4704 361.638C75.5891 362.088 75.8656 362.317 76.0764 362.431C76.2514 362.525 76.4326 362.572 76.6231 362.572C77.9945 362.572 79.8783 360.162 83.3677 355.29C84.3689 353.892 85.3139 352.572 85.8434 351.994C87.5382 350.146 94.3577 345.072 97.5817 342.985C97.93 342.76 98.0299 342.295 97.8034 341.947C97.5785 341.598 97.1146 341.497 96.7647 341.723ZM76.923 361.255H76.9308H76.923Z" fill="#272727"/>
<path d="M89.7046 353.696C91.0276 354.424 94.6045 349.316 99.053 345.711C101.552 343.687 103.22 339.764 103.45 337.142L97.8659 341.255C94.945 343.746 88.3816 352.968 89.7046 353.696Z" fill="white"/>
<path d="M103.516 336.394C103.099 336.362 102.738 336.664 102.702 337.076C102.483 339.569 100.882 343.263 98.5797 345.129C96.7397 346.619 95.084 348.325 93.622 349.829C92.449 351.036 91.0307 352.495 90.3482 352.919C90.9683 350.91 95.6682 344.116 98.3533 341.826C98.6688 341.558 98.7063 341.083 98.4376 340.767C98.169 340.452 97.6941 340.414 97.3786 340.683C94.8076 342.876 88.555 351.182 88.7878 353.467C88.8424 354.003 89.158 354.252 89.3423 354.354C89.5516 354.47 89.7671 354.524 89.992 354.524C91.1541 354.524 92.574 353.062 94.6998 350.875C96.1321 349.401 97.755 347.731 99.5263 346.295C102.236 344.099 103.956 339.974 104.198 337.207C104.234 336.793 103.928 336.43 103.516 336.394ZM90.281 353.317H90.2904H90.281Z" fill="#272727"/>
<path d="M120.604 286.046C111.686 296.449 89.5734 333.295 89.5734 333.295L107.817 342.806C107.817 342.806 136.184 294.893 137.834 288.992L174.584 239.622C156.106 242.633 131.831 272.948 120.604 286.046Z" fill="white"/>
<path d="M174.462 238.881C157.221 241.69 134.98 267.932 123.032 282.031C121.953 283.306 120.95 284.488 120.033 285.557C111.179 295.888 89.1517 332.538 88.9299 332.907C88.8237 333.085 88.7956 333.298 88.8502 333.498C88.9065 333.697 89.0424 333.863 89.2251 333.96L107.469 343.473C107.58 343.531 107.699 343.559 107.816 343.559C108.073 343.559 108.323 343.426 108.462 343.19C109.623 341.23 136.9 295.124 138.555 289.196C138.666 288.796 138.433 288.382 138.034 288.27C137.637 288.159 137.22 288.392 137.107 288.792C135.605 294.173 110.838 336.209 107.531 341.812L90.6278 332.999C93.6986 327.913 113.065 295.994 121.172 286.536C122.091 285.466 123.095 284.28 124.176 283.004C135.998 269.054 158.006 243.086 174.701 240.367C175.11 240.299 175.388 239.914 175.321 239.504C175.257 239.093 174.877 238.815 174.462 238.881Z" fill="#272727"/>
<path d="M229.373 404.939C227.149 404.297 217.399 401.832 214.048 398.61C208.931 393.688 206.879 387.596 206.879 387.596L193.151 387.818L189.451 409.026H231.075C231.074 409.026 233.376 406.094 229.373 404.939Z" fill="white"/>
<path d="M229.581 404.218C229.37 404.157 229.09 404.079 228.756 403.987C225.668 403.131 217.466 400.856 214.569 398.069C209.653 393.343 207.61 387.416 207.59 387.357C207.457 386.965 207.03 386.752 206.638 386.885C206.246 387.018 206.034 387.444 206.167 387.837C206.253 388.093 208.338 394.161 213.528 399.152C216.699 402.203 224.867 404.468 228.355 405.435C228.683 405.527 228.957 405.602 229.165 405.661C229.852 405.859 230.716 406.231 230.929 406.876C231.085 407.351 230.869 407.915 230.669 408.276H190.344L193.891 387.947C193.963 387.538 193.69 387.149 193.28 387.077C192.874 387.007 192.482 387.28 192.41 387.688L188.71 408.896C188.673 409.115 188.732 409.338 188.876 409.508C189.018 409.679 189.229 409.775 189.451 409.775H231.075C231.307 409.775 231.524 409.669 231.666 409.488C231.714 409.426 232.855 407.949 232.359 406.417C232.028 405.394 231.093 404.653 229.581 404.218Z" fill="#272727"/>
<path d="M217.55 399.547C215.788 400.142 213.195 401.498 211.683 403.365C211.423 403.687 211.473 404.16 211.794 404.421C211.933 404.533 212.101 404.588 212.266 404.588C212.485 404.588 212.702 404.493 212.85 404.31C214.076 402.798 216.335 401.543 218.031 400.97C218.425 400.837 218.636 400.411 218.503 400.019C218.37 399.625 217.945 399.414 217.55 399.547Z" fill="#272727"/>
<path d="M214.57 397.837C212.808 398.432 210.215 399.789 208.703 401.654C208.442 401.976 208.492 402.449 208.814 402.71C208.953 402.823 209.12 402.877 209.286 402.877C209.505 402.877 209.722 402.782 209.87 402.599C211.095 401.087 213.355 399.833 215.051 399.26C215.445 399.127 215.656 398.701 215.523 398.308C215.39 397.915 214.964 397.704 214.57 397.837Z" fill="#272727"/>
<path d="M198.165 404.24C196.161 402.682 193.237 402.27 190.146 403.11C189.746 403.22 189.51 403.632 189.618 404.032C189.727 404.432 190.139 404.668 190.539 404.56C193.171 403.843 195.612 404.158 197.242 405.425C198.354 406.289 198.955 407.495 198.935 408.821C198.929 409.237 199.26 409.577 199.674 409.583C199.677 409.583 199.681 409.583 199.686 409.583C200.095 409.583 200.431 409.255 200.437 408.844C200.466 407.062 199.638 405.385 198.165 404.24Z" fill="#272727"/>
<path d="M131.255 464.821C129.03 464.179 119.281 461.714 115.93 458.491C110.813 453.569 108.761 447.477 108.761 447.477L95.0325 447.699L91.3322 468.907H132.957C132.957 468.909 135.258 465.977 131.255 464.821Z" fill="white"/>
<path d="M131.462 464.099C131.251 464.038 130.975 463.962 130.642 463.87C127.554 463.014 119.349 460.739 116.45 457.951C111.536 453.223 109.492 447.296 109.471 447.237C109.339 446.845 108.912 446.632 108.52 446.765C108.128 446.898 107.916 447.323 108.048 447.716C108.134 447.972 110.22 454.041 115.41 459.032C118.582 462.084 126.753 464.349 130.241 465.314L131.047 465.541C131.734 465.739 132.598 466.111 132.81 466.756C132.967 467.231 132.751 467.795 132.551 468.156H92.2257L95.7729 447.827C95.8447 447.418 95.5714 447.029 95.1622 446.957C94.7529 446.888 94.364 447.159 94.2921 447.568L90.5918 468.778C90.5544 468.996 90.6137 469.22 90.7574 469.39C90.8995 469.56 91.1104 469.657 91.3322 469.657H132.957C133.188 469.657 133.405 469.551 133.548 469.37C133.596 469.307 134.736 467.831 134.241 466.299C133.91 465.277 132.976 464.535 131.462 464.099Z" fill="#272727"/>
<path d="M119.434 459.429C117.672 460.024 115.077 461.381 113.567 463.246C113.306 463.568 113.356 464.041 113.678 464.302C113.817 464.415 113.984 464.469 114.149 464.469C114.368 464.469 114.585 464.374 114.734 464.191C115.958 462.679 118.218 461.425 119.915 460.852C120.308 460.719 120.519 460.292 120.386 459.9C120.252 459.507 119.827 459.297 119.434 459.429Z" fill="#272727"/>
<path d="M116.453 457.72C114.691 458.315 112.097 459.672 110.587 461.537C110.326 461.859 110.376 462.332 110.698 462.593C110.837 462.706 111.004 462.76 111.169 462.76C111.388 462.76 111.605 462.665 111.753 462.482C112.978 460.97 115.238 459.716 116.934 459.143C117.328 459.01 117.539 458.583 117.406 458.191C117.272 457.798 116.845 457.585 116.453 457.72Z" fill="#272727"/>
<path d="M100.048 464.123C98.0425 462.564 95.1185 462.153 92.0289 462.993C91.629 463.102 91.3932 463.515 91.5009 463.915C91.6103 464.315 92.0242 464.551 92.4225 464.443C95.0529 463.726 97.4958 464.043 99.1249 465.308C100.237 466.172 100.838 467.378 100.818 468.704C100.812 469.12 101.143 469.46 101.557 469.466C101.56 469.466 101.565 469.466 101.569 469.466C101.979 469.466 102.314 469.138 102.321 468.727C102.349 466.945 101.521 465.266 100.048 464.123Z" fill="#272727"/>
<path d="M145.18 285.293C131.178 295.301 118.896 311.376 117.161 330.292C115.426 349.209 117.559 372.121 117.559 372.121C117.559 372.121 108.901 384.545 102.082 400.041C95.2621 415.537 91.782 449.527 91.782 449.527H123.468C123.468 449.527 146.648 392.562 152.847 370.379C155.909 359.428 157.463 344.488 158.253 332.207C158.447 329.202 167.625 327.21 166.913 324.717C164.418 315.985 170.032 298.831 170.032 298.831L145.18 285.293Z" fill="#272727"/>
<path d="M154.208 317.943L134.76 311.566C131.247 333.329 135.434 347.898 156.94 351.442C168.155 353.29 203.388 345.221 224.189 334.14C235.705 328.005 235.315 322.623 234.801 317.216C233.456 303.052 177.711 313.56 154.208 317.943Z" fill="#272727"/>
<path d="M233.064 313.964L212.894 317.308C201.976 333.073 195.06 350.062 192.849 358.976C190.639 367.891 186.994 391.778 186.994 391.778H218.277C218.275 391.776 249.885 326.682 233.064 313.964Z" fill="#272727"/>
<path d="M174.582 239.623L152.549 259.502C143.247 271.575 123.157 298.908 115.769 314.739C115.001 316.387 132.203 318.794 143.524 318.794C162.86 318.794 171.591 315.987 171.591 315.987C171.591 315.987 194.799 267.806 195.605 253.3C196.301 240.796 186.455 236.78 174.582 239.623Z" fill="white"/>
<path d="M191.939 241.276C187.989 237.977 181.761 237.132 174.407 238.894C174.004 238.99 173.756 239.395 173.851 239.8C173.948 240.203 174.354 240.453 174.757 240.356C181.641 238.708 187.4 239.445 190.977 242.432C193.818 244.804 195.124 248.447 194.856 253.261C194.1 266.861 173.022 311.262 171.061 315.362C169.367 315.836 160.538 318.044 143.527 318.044C132.395 318.044 118.676 315.965 116.606 314.73C125.341 296.26 150.312 263.641 153.146 259.963C153.399 259.633 153.338 259.163 153.01 258.91C152.682 258.657 152.21 258.718 151.957 259.046C149.095 262.76 123.749 295.869 115.091 314.423C114.941 314.744 114.969 315.106 115.166 315.417C116.567 317.616 133.833 319.547 143.527 319.547C162.76 319.547 171.463 316.82 171.825 316.704C172.02 316.64 172.183 316.499 172.272 316.315C173.222 314.342 195.553 267.832 196.358 253.344C196.647 248.103 195.12 243.931 191.939 241.276Z" fill="#272727"/>
<path d="M194.671 246.749L173.386 263.123C176.894 293.998 195.486 317.858 209.483 311.93C215.25 309.489 227.923 303.27 217.591 291.347C209.483 281.992 203.558 281.68 194.671 246.749Z" fill="white"/>
<path d="M213.972 286.435C207.899 280.339 202.654 275.077 195.399 246.565C195.295 246.162 194.891 245.918 194.485 246.021C194.083 246.124 193.84 246.532 193.943 246.935C201.298 275.845 206.679 281.244 212.908 287.495C214.231 288.823 215.598 290.194 217.024 291.841C220.06 295.343 221.257 298.592 220.584 301.496C219.317 306.954 211.695 310.181 209.191 311.241C205.704 312.719 201.709 312.243 197.637 309.864C186.169 303.167 176.505 283.912 174.132 263.04C174.085 262.627 173.72 262.326 173.301 262.377C172.889 262.424 172.592 262.796 172.639 263.208C175.06 284.521 185.029 304.24 196.879 311.16C199.642 312.774 202.391 313.588 205.016 313.588C206.66 313.588 208.258 313.267 209.776 312.624C212.455 311.49 220.607 308.038 222.047 301.835C222.836 298.437 221.527 294.743 218.16 290.857C216.699 289.171 215.312 287.779 213.972 286.435Z" fill="#272727"/>
<path d="M210.108 287.294L198.257 311.153C215.565 322.613 262.968 277.626 262.968 277.626L251.897 261.409C251.897 261.407 219.775 283.864 210.108 287.294Z" fill="white"/>
<path d="M252.517 260.986C252.403 260.82 252.229 260.706 252.031 260.67C251.833 260.633 251.629 260.678 251.465 260.794C251.145 261.017 219.317 283.229 209.856 286.586C209.466 286.725 209.261 287.155 209.4 287.545C209.539 287.937 209.969 288.142 210.359 288.001C219.381 284.801 247.054 265.691 251.704 262.457L261.984 277.515C257.034 282.108 214.389 320.929 198.671 310.524C198.324 310.295 197.859 310.39 197.631 310.737C197.401 311.082 197.496 311.549 197.843 311.777C199.864 313.116 202.315 313.783 205.194 313.783C212.941 313.783 223.77 308.941 237.534 299.301C251.433 289.568 263.366 278.282 263.485 278.17C263.752 277.917 263.796 277.506 263.588 277.201L252.517 260.986Z" fill="#272727"/>
<path d="M214.45 337.892C196.832 345.285 167.925 352.491 157.063 350.7C144.556 348.64 137.64 342.903 135.297 332.645C135.205 332.24 134.802 331.986 134.397 332.079C133.993 332.171 133.74 332.574 133.832 332.979C136.294 343.759 143.813 350.04 156.818 352.183C157.982 352.375 159.367 352.467 160.94 352.467C173.301 352.467 197.157 346.778 215.031 339.279C215.414 339.118 215.593 338.677 215.432 338.295C215.271 337.912 214.831 337.732 214.45 337.892Z" fill="#272727"/>
<path d="M157.611 324.45C155.703 325.723 144.951 329.188 141.437 328.572C141.028 328.499 140.639 328.774 140.567 329.182C140.495 329.589 140.767 329.98 141.176 330.052C141.521 330.113 141.921 330.141 142.363 330.141C147.023 330.141 156.493 327.001 158.444 325.701C158.789 325.472 158.883 325.005 158.652 324.659C158.423 324.313 157.956 324.219 157.611 324.45Z" fill="#272727"/>
<path d="M130.828 369.586C127.309 369.586 121.992 369.586 117.287 371.421C116.902 371.571 116.709 372.008 116.861 372.394C116.977 372.691 117.261 372.872 117.561 372.872C117.651 372.872 117.743 372.855 117.834 372.821C122.275 371.088 127.218 371.088 130.83 371.088C131.245 371.088 131.581 370.752 131.581 370.337C131.579 369.921 131.242 369.586 130.828 369.586Z" fill="#272727"/>
<path d="M121.463 373.377C121.047 373.377 120.711 373.713 120.711 374.128C120.711 374.544 121.047 374.879 121.463 374.879C124.324 374.879 126.797 374.879 129.721 376.969C129.853 377.063 130.005 377.11 130.156 377.11C130.391 377.11 130.622 377.001 130.769 376.796C131.009 376.459 130.931 375.988 130.594 375.748C127.278 373.377 124.454 373.377 121.463 373.377Z" fill="#272727"/>
<path d="M119.457 442.051H94.2624C93.8469 442.051 93.5111 442.387 93.5111 442.802C93.5111 443.218 93.8469 443.553 94.2624 443.553H119.457C119.872 443.553 120.208 443.218 120.208 442.802C120.208 442.387 119.872 442.051 119.457 442.051Z" fill="#272727"/>
<path d="M214.436 383.188H189.241C188.826 383.188 188.49 383.524 188.49 383.939C188.49 384.355 188.826 384.691 189.241 384.691H214.436C214.851 384.691 215.187 384.355 215.187 383.939C215.187 383.524 214.851 383.188 214.436 383.188Z" fill="#272727"/>
<path d="M214.942 341.717L214.689 341.697C211.898 341.473 208.077 341.166 204.966 341.611C204.555 341.669 204.269 342.05 204.328 342.461C204.386 342.871 204.764 343.16 205.178 343.098C208.124 342.679 211.848 342.976 214.568 343.193L214.822 343.213C214.842 343.215 214.862 343.215 214.882 343.215C215.27 343.215 215.599 342.917 215.631 342.525C215.663 342.112 215.356 341.75 214.942 341.717Z" fill="#272727"/>
<path d="M172.334 213.574C172.263 213.154 171.864 212.867 171.443 212.942C171.021 213.013 170.738 213.412 170.81 213.834C171.241 216.38 172.308 221.194 174.598 224.819C174.745 225.052 174.996 225.18 175.252 225.18C175.393 225.18 175.536 225.141 175.665 225.06C176.025 224.832 176.133 224.354 175.905 223.993C173.679 220.468 172.667 215.533 172.334 213.574Z" fill="#F3B727"/>
<path opacity="0.8" d="M390.774 449.352L357.398 459.213C352.461 460.672 347.291 460.522 342.447 458.78L320.712 450.965C312.798 448.119 303.993 449.342 297.155 454.238L260.031 480.808C259.685 481.057 259.605 481.539 259.853 481.888C260.005 482.098 260.242 482.211 260.483 482.211C260.639 482.211 260.795 482.164 260.933 482.067L298.056 455.497C304.48 450.898 312.756 449.749 320.189 452.423L341.924 460.238C347.08 462.092 352.583 462.251 357.837 460.698L391.213 450.837C391.623 450.715 391.857 450.286 391.737 449.877C391.613 449.464 391.182 449.231 390.774 449.352Z" fill="white"/>
<path d="M284.151 37.0706L283.148 39.7463L289.237 40.6804L289.015 37.6141L284.151 37.0706Z" fill="#272727"/>
<path d="M282.166 33.9462L281.752 37.0964L291.037 38.3166L291.451 35.1664L282.166 33.9462Z" fill="#F3B727"/>
<path d="M270.129 336.567L254.411 335.23C254.269 335.219 254.122 335.246 253.994 335.311L242.178 341.331C241.797 341.525 241.647 341.991 241.841 342.372C241.977 342.64 242.248 342.793 242.529 342.793C242.648 342.793 242.768 342.767 242.881 342.709L254.5 336.789L270 338.109C270.426 338.142 270.8 337.829 270.835 337.403C270.87 336.978 270.554 336.605 270.129 336.567Z" fill="white"/>
<path d="M313.515 150.811C313.137 151.01 312.991 151.478 313.19 151.856C315.384 156.027 315.308 164.184 311.686 169.217C311.436 169.564 311.515 170.048 311.862 170.296C312 170.395 312.157 170.441 312.314 170.441C312.554 170.441 312.792 170.331 312.941 170.12C316.953 164.546 317.015 155.804 314.558 151.136C314.36 150.757 313.891 150.611 313.515 150.811Z" fill="white"/>
<path d="M305.597 166.127C305.597 166.127 303.702 167.951 306.914 170.307C310.447 172.899 311.116 155.842 308.523 153.417C305.931 150.994 303.924 157.097 305.597 166.127Z" fill="white"/>
<path d="M307.186 152.498L309.193 166.713C312.285 161.446 312.453 156.177 307.186 152.498Z" fill="white"/>
<path d="M307.615 151.883C307.275 151.645 306.806 151.728 306.569 152.069C306.331 152.409 306.414 152.878 306.754 153.115C312.353 157.025 310.817 162.461 308.543 166.333C308.332 166.691 308.452 167.152 308.81 167.361C308.93 167.431 309.06 167.464 309.19 167.464C309.447 167.464 309.699 167.331 309.838 167.094C313.507 160.847 312.718 155.446 307.615 151.883Z" fill="#272727"/>
<path d="M418.431 154.43C414.048 153.178 409.078 154.405 404.806 157.801C404.471 158.067 404.415 158.554 404.681 158.889C404.834 159.081 405.059 159.181 405.287 159.181C405.455 159.181 405.626 159.126 405.768 159.014C409.645 155.933 414.104 154.802 418.006 155.918C418.415 156.035 418.845 155.797 418.962 155.386C419.079 154.976 418.841 154.548 418.431 154.43Z" fill="white"/>
<path d="M378.755 114.483C377.082 112.81 362.256 112.699 359.135 112.81C356.014 112.921 355.902 116.377 353.45 119.945L382.88 120.726C381.318 119.722 379.542 115.271 378.755 114.483Z" fill="#3092F7"/>
<path d="M340.456 133.985C340.051 133.89 339.647 134.138 339.551 134.541C339.162 136.173 338.617 137.842 337.928 139.5C336.473 143.013 336.49 146.269 336.512 150.04C336.534 153.846 336.557 158.162 335.054 163.843C330 182.938 320.889 199.683 320.797 199.85C320.597 200.214 320.731 200.67 321.095 200.87C321.209 200.933 321.334 200.962 321.454 200.962C321.72 200.962 321.978 200.82 322.113 200.572C322.206 200.403 331.404 183.505 336.505 164.228C338.06 158.353 338.035 153.932 338.013 150.03C337.992 146.423 337.975 143.307 339.315 140.075C340.034 138.343 340.604 136.598 341.012 134.888C341.109 134.486 340.86 134.082 340.456 133.985Z" fill="#272727"/>
<path d="M387.309 118.327C381.336 116.743 365.439 116.267 360.71 116.159C360.31 116.149 359.951 116.477 359.941 116.893C359.932 117.308 360.26 117.652 360.675 117.661C373.188 117.947 383.001 118.739 386.924 119.78C386.988 119.797 387.054 119.805 387.118 119.805C387.451 119.805 387.754 119.583 387.844 119.245C387.947 118.846 387.708 118.433 387.309 118.327Z" fill="#272727"/>
<path d="M271.673 254.639C271.276 254.522 270.857 254.748 270.739 255.145C270.445 256.135 267.421 258.686 265.795 260.056C265.409 260.381 265.053 260.683 264.748 260.945C264.435 261.217 264.4 261.69 264.672 262.006C264.82 262.177 265.03 262.265 265.24 262.265C265.414 262.265 265.589 262.206 265.731 262.082C266.031 261.823 266.382 261.526 266.763 261.206C269.592 258.821 271.787 256.89 272.177 255.573C272.297 255.175 272.069 254.756 271.673 254.639Z" fill="#272727"/>
<path d="M272.68 260.076C272.29 259.937 271.86 260.141 271.72 260.531C271.417 261.379 269.258 262.965 266.349 264.478C265.981 264.669 265.839 265.123 266.029 265.491C266.164 265.748 266.424 265.895 266.696 265.895C266.813 265.895 266.932 265.869 267.043 265.809C269.055 264.763 272.521 262.751 273.135 261.036C273.274 260.647 273.071 260.217 272.68 260.076Z" fill="#272727"/>
<defs>
<linearGradient id="paint0_linear" x1="75.9831" y1="275.461" x2="346.99" y2="584.036" gradientUnits="userSpaceOnUse">
<stop stop-color="white"/>
<stop offset="0.2597" stop-color="#FCEBC4"/>
<stop offset="0.7722" stop-color="#F5C654"/>
<stop offset="1" stop-color="#F3B727"/>
</linearGradient>
</defs>
</svg>
