<svg width="518" height="562" viewBox="0 0 518 562" fill="none" xmlns="http://www.w3.org/2000/svg">
<path d="M239.928 0L283.808 237.405L471 159.68L297.294 296.001L452.482 372.318L272.737 338.891L310.377 562L217.787 345.134L54.1449 522.13L161.831 320.366L0 265.999L154.585 256.333L108.088 156.659L198.263 227.941L239.928 0Z" fill="#AFF800"/>
<path d="M400.76 394.2C463.036 394.2 513.52 343.34 513.52 280.6C513.52 217.86 463.036 167 400.76 167C338.484 167 288 217.86 288 280.6C288 343.34 338.484 394.2 400.76 394.2Z" fill="#3092F7" stroke="black" stroke-width="7" stroke-linecap="round" stroke-linejoin="round"/>
<path d="M452.511 302.23C452.607 309.179 451.321 316.079 448.728 322.527C446.135 328.975 442.286 334.844 437.406 339.792C432.525 344.74 426.71 348.67 420.298 351.351C413.887 354.033 407.006 355.414 400.056 355.414C393.106 355.414 386.225 354.033 379.813 351.351C373.401 348.67 367.586 344.74 362.706 339.792C357.825 334.844 353.977 328.975 351.384 322.527C348.791 316.079 347.505 309.179 347.601 302.23" stroke="black" stroke-width="7" stroke-linecap="round" stroke-linejoin="round"/>
<path d="M420.6 289.12C428.409 289.12 434.74 272.013 434.74 250.91C434.74 229.807 428.409 212.7 420.6 212.7C412.791 212.7 406.46 229.807 406.46 250.91C406.46 272.013 412.791 289.12 420.6 289.12Z" fill="black"/>
<path d="M379.5 289.12C387.31 289.12 393.64 272.013 393.64 250.91C393.64 229.807 387.31 212.7 379.5 212.7C371.691 212.7 365.36 229.807 365.36 250.91C365.36 272.013 371.691 289.12 379.5 289.12Z" fill="black"/>
<path d="M344.53 284H127V503.14H344.53V284Z" fill="#FF5050" stroke="black" stroke-width="7" stroke-linecap="round" stroke-linejoin="round"/>
<path d="M288.22 420.2C288.316 427.149 287.03 434.049 284.437 440.497C281.844 446.945 277.995 452.814 273.115 457.762C268.234 462.71 262.419 466.64 256.007 469.321C249.596 472.003 242.715 473.384 235.765 473.384C228.815 473.384 221.934 472.003 215.522 469.321C209.11 466.64 203.295 462.71 198.415 457.762C193.534 452.814 189.686 446.945 187.093 440.497C184.5 434.049 183.214 427.149 183.31 420.2" stroke="black" stroke-width="7" stroke-linecap="round" stroke-linejoin="round"/>
<path d="M256.32 407.09C264.129 407.09 270.46 389.983 270.46 368.88C270.46 347.777 264.129 330.67 256.32 330.67C248.51 330.67 242.18 347.777 242.18 368.88C242.18 389.983 248.51 407.09 256.32 407.09Z" fill="black"/>
<path d="M215.22 407.09C223.029 407.09 229.36 389.983 229.36 368.88C229.36 347.777 223.029 330.67 215.22 330.67C207.411 330.67 201.08 347.777 201.08 368.88C201.08 389.983 207.411 407.09 215.22 407.09Z" fill="black"/>
</svg>
