<svg width="566" height="515" fill="none" xmlns="http://www.w3.org/2000/svg"><path d="M262.705 244.64c-2.072-1.037-3.845 15.719-11.705 20.402-4.236 2.525 3.546 5.1 3.702 5.567l5.77-7.172c0-.002 4.417-17.706 2.233-18.797z" fill="#fff"/><path d="M263.041 243.967a1.154 1.154 0 00-.965-.036c-.951.392-1.514 1.95-2.693 5.436-1.656 4.891-4.158 12.283-8.766 15.029-1.11.66-1.657 1.44-1.626 2.315.064 1.804 2.638 3.102 4.341 3.959.295.149.656.33.795.419a.752.752 0 001.29-.719c-.132-.398-.454-.56-1.409-1.041-.952-.48-3.483-1.756-3.516-2.672-.009-.276.308-.621.894-.971 5.084-3.029 7.694-10.736 9.42-15.838.545-1.61 1.204-3.557 1.657-4.283.578 1.898-.888 10.352-2.719 17.689a.75.75 0 101.457.364c.011-.044 1.12-4.502 1.947-9.035 1.549-8.509.865-10.13-.107-10.616zm-9.05 26.88v-.002.002zm-42.576-191.26l.001-.076-.809 3.532c.267-1.145.538-2.297.808-3.457z" fill="#272727"/><path d="M208.107 66.618c-.683 3.287 3.666 7.201 3.309 12.895 1.183-5.147 3.421-14.83 5.066-21.547-5.665.367-7.78 5.786-8.375 8.652z" fill="#272727"/><path d="M219.935 8.677c-.815 3.926 5.555 8.745 2.503 16.425-2.462 6.195-9.194 8.3-14.833 5.602-17.333-8.292-40.823-17.942-64.212-17.367-.903 3.947-7.207 38.126-11.829 57.94 23.389-.574 46.879 9.076 64.212 17.368 5.641 2.697 12.371.593 14.833-5.602 3.052-7.68-3.316-12.5-2.502-16.425.723-3.488 3.692-10.76 12.575-8.107L232.511.571c-8.883-2.653-11.852 4.618-12.576 8.106z" fill="#FF5050"/><path d="M263.041 34.103C256.5 24.112 249.163 5.54 232.511.57c-8.883-2.652-11.851 4.62-12.576 8.107-.782 3.774-9.296 46.891-11.725 56.703 1.073-3.696 4.269-9.416 12.302-7.017 16.652 4.972 21.86 22.671 28.401 32.662 3.325 5.078 6.968 8.05 9.742 9.085 5.055 1.887 14.269 1.737 19.323-1.346 1.145-.698 5.351-54.85 5.351-54.85-7.58 6.912-13.843.033-20.288-9.811z" fill="#FF5050"/><path d="M220.109 7.838a.852.852 0 00-1.012.664c-.206.997-.909 4.727-1.879 9.888-2.646 14.07-7.573 40.257-9.36 47.474a.854.854 0 00.831 1.06c.385 0 .734-.26.83-.65 1.797-7.264 6.73-33.483 9.379-47.569.969-5.153 1.67-8.875 1.873-9.856a.853.853 0 00-.662-1.01z" fill="#272727"/><path d="M493.891 450.907l-41.486-71.56a10.812 10.812 0 00-9.287-5.388l-48.817-.281a10.791 10.791 0 01-4.976-1.246l-47.353-24.956a11.142 11.142 0 01-1.106-.67l-68.65-47.43a10.806 10.806 0 00-14.757 2.367l-53.699 70.898a10.794 10.794 0 01-2.443 2.346L164.4 402.318a49.763 49.763 0 00-16.545 21.399l-11.964 29.705a10.81 10.81 0 01-6.873 6.3c-14.65 4.468-59.38 15.068-83.214 22.134-10.103 2.996-19.437 10.818-27.366 17.761L.87 515h564.298l-69.108-61.437a10.817 10.817 0 01-2.168-2.656z" fill="url(#paint0_linear)"/><path d="M335.595 361.674c-3.618-3.012-8.205-4.635-12.911-4.653l-59.562.139a.773.773 0 00.002 1.546h.002l59.561-.139h.042a18.58 18.58 0 0111.875 4.297l17.41 14.494a.774.774 0 00.989-1.188l-17.408-14.496zm-151.607 56.348a.772.772 0 00-1.052.293l-11.589 20.552c-3.303 5.86-8.914 10.249-15.387 12.042l-123.498 32.65a.774.774 0 00.395 1.495l123.508-32.652c6.874-1.904 12.827-6.56 16.33-12.776l11.589-20.551a.774.774 0 00-.296-1.053zm295.747 22.276a.63.63 0 00-.088-.061 21.04 21.04 0 00-10.985-3.094h-19.809a21.329 21.329 0 01-15.181-6.289l-11.816-11.817a14.698 14.698 0 00-19.667-1.043l-19.398 15.667a.772.772 0 10.972 1.203l19.398-15.668a13.156 13.156 0 0117.602.934l11.816 11.817a22.86 22.86 0 0016.274 6.742h19.809c3.575 0 7.079.983 10.134 2.838l65.109 53.46a.775.775 0 001.089-.108.773.773 0 00-.108-1.089l-65.151-53.492zm-189.37-95.855c-4.73 3.783-16.788 6.679-19.558 7.432-4.987 1.356-3.006 4.799-3.006 4.799h48.88l.89-24.906-16.068-.259c0-.002-3.916 7.154-11.138 12.934z" fill="#fff"/><path d="M317.598 331.017a.739.739 0 00-.778.723l-.864 24.182h-47.66c-.121-.367-.228-.951.008-1.524.324-.786 1.258-1.408 2.7-1.8.259-.07.6-.159 1.008-.267 3.942-1.032 14.412-3.775 18.821-7.302 7.257-5.808 11.165-12.862 11.328-13.161a.753.753 0 00-.299-1.02.754.754 0 00-1.02.299c-.037.07-3.923 7.087-10.947 12.709-4.16 3.328-14.406 6.012-18.264 7.023-.414.109-.76.198-1.022.27-1.935.526-3.179 1.427-3.694 2.676-.67 1.619.195 3.158.233 3.222a.751.751 0 00.651.377h48.882a.753.753 0 00.751-.725l.889-24.906a.75.75 0 00-.723-.776z" fill="#272727"/><path d="M285.818 345.672a.752.752 0 00-.512 1.412c1.836.669 4.162 2.128 5.215 3.883a.75.75 0 101.289-.773c-1.328-2.213-4.057-3.819-5.992-4.522zm3.922-2.009a.752.752 0 00-.962.45.749.749 0 00.45.962c1.838.667 4.162 2.128 5.215 3.882a.753.753 0 001.031.258.75.75 0 00.258-1.031c-1.328-2.212-4.058-3.818-5.992-4.521zm27.378 6.195c-3.221-.929-6.568-.545-9.183 1.055-2.105 1.288-3.553 3.254-3.967 5.392a.751.751 0 101.473.287c.336-1.724 1.531-3.327 3.279-4.397 2.257-1.379 5.165-1.704 7.983-.893a.751.751 0 00.415-1.444zm-22.653-92.816c-1.871 12.163-13.566 84.674-13.566 84.674h41.633s5.145-68.768 5.145-73.446c0-4.679 34.617-55.202 34.617-55.202l11.694-28.537-29.003-.936c.002 0-48.649 61.284-50.52 73.447z" fill="#272727"/><path d="M374.013 183.78l-29.003-.936a.729.729 0 00-.612.284c-1.991 2.509-48.796 61.58-50.675 73.8-1.849 12.021-13.449 83.944-13.566 84.669a.75.75 0 00.742.87h41.633c.394 0 .72-.303.748-.695.211-2.809 5.149-68.851 5.149-73.502 0-3.262 20.622-34.545 34.485-54.778a.932.932 0 00.075-.139l11.694-28.538a.75.75 0 00-.67-1.035zm-12.383 28.929c-3.766 5.498-34.703 50.807-34.703 55.561 0 4.345-4.551 65.451-5.092 72.696h-40.053c1.334-8.27 11.686-72.504 13.426-83.809 1.755-11.401 46.469-68.163 50.134-72.798l27.543.889-11.255 27.461z" fill="#272727"/><path d="M350.162 118.695l.834-.198c-8.361-3.568-18.842 8.312-24.078 13.729-5.237 5.417-20.351 20.836-25.58 26.066-4.86 4.859 1.374 14.274 6.844 12.757 8.835-2.451 33.351-24.497 38.465-30.127 6.948-7.648 5.388-21.011 3.515-22.227z" fill="#3092F7"/><path d="M437.535 368.862c-2.771-.753-10.446-3.647-15.176-7.432-7.224-5.779-11.138-12.934-11.138-12.934l-20.45.26.891 24.905h48.88c0 .002 1.981-3.443-3.007-4.799z" fill="#fff"/><path d="M437.734 368.138c-2.746-.747-10.313-3.62-14.903-7.294-7.013-5.61-10.911-12.638-10.95-12.708a.752.752 0 00-1.318.72c.162.298 4.071 7.354 11.329 13.16 4.82 3.857 12.49 6.765 15.448 7.57 1.456.395 2.363.996 2.696 1.788.242.575.133 1.165.012 1.536h-47.662l-.863-24.181a.736.736 0 00-.778-.723.75.75 0 00-.723.778l.89 24.905a.751.751 0 00.751.725h48.881a.753.753 0 00.651-.376c.037-.065.903-1.603.234-3.223-.517-1.251-1.76-2.151-3.695-2.677z" fill="#272727"/><path d="M425.886 362.847c-1.934.703-4.663 2.31-5.99 4.522a.75.75 0 101.288.773c1.053-1.754 3.379-3.214 5.216-3.883a.753.753 0 00.45-.962.754.754 0 00-.964-.45zm-3.922-2.007c-1.934.703-4.664 2.31-5.99 4.522a.75.75 0 101.288.773c1.053-1.754 3.379-3.215 5.216-3.883a.751.751 0 00-.514-1.412zM376.142 96.507l-2.237 1.977s-3.163 37.819 21.571 29.766c7.19-2.341 8.696-12.04 5.518-18.561-4.807-9.87-24.852-13.182-24.852-13.182zm-14.003-23.411c-4.028.93-5.823 6.914-5.823 6.914l14.484-2.867c0 .002-1.943-5.597-8.661-4.047z" fill="#272727"/><path d="M376.559 95.411c.426-2.314-16.816 1.372-16.551 5.604.422 6.723-.698 17.891-2.921 24.811l22.134.577c-3.705-7.94-3.76-25.015-2.662-30.992z" fill="#fff"/><path d="M377.298 95.547c.084-.459-.092-.884-.486-1.165-1.82-1.31-10.407.653-14.428 2.874-2.157 1.192-3.208 2.473-3.125 3.807.392 6.256-.6 17.415-2.888 24.535a.75.75 0 101.43.459c2.34-7.287 3.357-18.696 2.957-25.088-.041-.64.745-1.474 2.154-2.285 4.133-2.379 11.385-3.644 12.863-3.155-1.111 6.502-.912 23.318 2.763 31.192a.75.75 0 00.998.364.75.75 0 00.363-.998c-3.598-7.715-3.73-24.391-2.601-30.54z" fill="#272727"/><path d="M372.062 76.947c-5.24-3.813-11.39-1.286-16.66 3.47-4.637 4.185-6.504 10.09-5.232 14.895 2.054 7.76 9.161 12.986 17.987 9.066l8.391-10.74c2.174-5.421 2.196-11.829-4.486-16.692z" fill="#fff"/><path d="M372.503 76.339c-4.894-3.56-11.147-2.31-17.605 3.52-4.705 4.248-6.847 10.388-5.455 15.645 1.184 4.472 3.946 8.035 7.576 9.775a12.05 12.05 0 005.257 1.187c2 0 4.082-.469 6.186-1.403a.75.75 0 10-.611-1.373c-3.622 1.609-7.144 1.69-10.186.235-3.231-1.55-5.701-4.758-6.771-8.806-1.249-4.717.717-10.27 5.009-14.144 4.158-3.752 10.258-7.39 15.715-3.42 6.762 4.92 6.034 11.308 4.232 15.8a.752.752 0 001.395.562c2.828-7.053 1.145-13.295-4.742-17.578zm6.149 110.893s-28.534-15.783-25.601 2.546c2.932 18.329 9.23 51.043 13.319 73.607 3.412 18.83 16.046 94.734 16.046 94.734h45.199s-17.77-68.434-21.508-84.168c-8.375-35.248-27.455-86.719-27.455-86.719z" fill="#272727"/><path d="M406.836 273.776c-8.289-34.887-27.289-86.291-27.481-86.806a.751.751 0 00-.341-.397c-.723-.4-17.775-9.736-24.365-5.113-2.202 1.547-2.991 4.385-2.343 8.435 2.001 12.504 5.522 31.455 8.925 49.783 1.57 8.447 3.095 16.657 4.396 23.838 3.372 18.61 15.918 93.964 16.044 94.723a.752.752 0 00.741.628h45.198a.75.75 0 00.727-.941c-.172-.682-17.807-68.605-21.501-84.15zm-23.784 83.59c-1.225-7.347-12.735-76.405-15.943-94.117-1.301-7.184-2.827-15.395-4.397-23.846-3.403-18.318-6.921-37.26-8.919-49.745-.55-3.435.03-5.78 1.721-6.968 2.356-1.655 7.003-1.305 13.437 1.01 4.318 1.554 8.117 3.534 9.095 4.057 1.488 4.042 19.368 52.863 27.33 86.367 3.458 14.557 19.117 74.95 21.269 83.243h-43.593v-.001z" fill="#272727"/><path d="M362.731 239.389c-1.622-8.731-3.291-17.712-4.808-26.074-.319-1.754-2.429-2.171-4.292-2.54-1.248-.247-2.802-.554-2.913-1.175a.773.773 0 10-1.523.274c.297 1.66 2.247 2.046 4.136 2.419 1.379.274 2.941.582 3.071 1.299a6417.272 6417.272 0 004.809 26.081c1.57 8.451 3.096 16.666 4.398 23.851 3.373 18.61 15.918 93.964 16.045 94.723a.773.773 0 101.526-.255c-.126-.759-12.674-76.123-16.048-94.744a5918.008 5918.008 0 00-4.401-23.859z" fill="#F3B727"/><path d="M386.409 120.095c-3.527-1.721-13.511-2.907-25.717-3.187-9.963-.228-14.046.564-18.407 2.333-3.63 1.471 1.501 8.096-3.662 20.547-2.842 6.856.168 12.876-2.842 24.247-5.139 19.412-14.549 36.623-14.549 36.623s18.158-.158 31.632.589c9.921.55 32.081 1.495 32.081 1.495s.123-41.012 1.167-53.143c1.784-20.735 3.824-27.781.297-29.504z" fill="#3092F7"/><path d="M406.143 133.486c-5.875-6.426-15.345-12.363-19.734-13.391l-7.751.187c-4.084-1.21-1.451 14.356 2.529 17.12 3.646 2.534 22.888 15.618 28.078 25.206 2.816 5.203 11.07 4.134 14.303.592 7.093-7.765-14.12-26.099-17.425-29.714z" fill="#3092F7"/><path d="M396.774 168.75c-7.283 6.91-15.388 18.313-17.235 23.46-1.365 3.808 2.006 10.522 3.148 11.15 1.902 1.045 3.623-4.764 4.49-6.692 4.604-10.233 36.613-23.951 37.283-35.919l-8.086-1.96c-7.313.123-13.86 4.514-19.6 9.961z" fill="#fff"/><path d="M424.502 159.998a.75.75 0 00-.792.707c-.356 6.366-10.838 13.792-20.088 20.341-7.731 5.475-15.031 10.646-17.129 15.313-.165.369-.362.876-.584 1.45-.575 1.485-1.771 4.575-2.688 4.909-.058.022-.097.025-.167-.014-.894-.564-4.015-6.871-2.807-10.241 1.759-4.905 9.587-16.092 17.044-23.168 6.812-6.464 13.058-9.654 19.097-9.755a.75.75 0 00.738-.764c-.006-.415-.376-.74-.763-.739-6.431.108-13.008 3.434-20.106 10.168-7.604 7.213-15.61 18.691-17.424 23.751-1.459 4.069 1.859 11.164 3.493 12.062.264.145.542.218.821.218.196 0 .392-.035.588-.106 1.44-.525 2.471-2.927 3.575-5.778.211-.545.397-1.026.555-1.376 1.93-4.294 9.068-9.35 16.627-14.702 9.992-7.076 20.324-14.394 20.721-21.483a.756.756 0 00-.711-.793z" fill="#272727"/><path d="M390.628 208.965c-1.153-.909-5.661-4.29-6.743-6.603l-4.346-10.152c-3.163 5.222.217 11.134 1.789 12.859 1.569 1.724 10.359 8.466 11.391 7.818 1.039-.651-.939-3.013-2.091-3.922z" fill="#fff"/><path d="M391.092 208.374l-.344-.268c-1.44-1.122-5.265-4.099-6.182-6.063a.75.75 0 10-1.361.636c.95 2.031 4.038 4.6 6.621 6.612l.336.263c.934.737 1.861 1.958 2.06 2.552-1.927-.681-8.837-5.894-10.338-7.543-1.136-1.247-4.749-6.929-1.701-11.965a.752.752 0 00-1.286-.778c-3.47 5.732.286 12.007 1.875 13.754.667.734 9.242 8.061 11.883 8.061a.874.874 0 00.464-.112c.389-.244.617-.637.642-1.106.081-1.545-2.084-3.58-2.669-4.043zm1.449 3.805h-.009.009z" fill="#272727"/><path d="M391.24 207.014c-1.909-1.397-5.701-5.244-6.801-9.449l-3.288 2.203c1.951 3.902 5.581 6.832 6.543 7.64.963.807 6.859 5.41 7.487 4.487.742-1.09-1.842-3.346-3.941-4.881z" fill="#fff"/><path d="M391.684 206.408c-1.987-1.453-5.513-5.191-6.517-9.032a.751.751 0 10-1.454.38c1.11 4.248 4.844 8.227 7.083 9.864 2.404 1.759 3.413 2.965 3.688 3.536-1.334-.539-4.67-2.95-6.305-4.325l-.138-.114c-1.093-.912-4.419-3.688-6.218-7.285a.751.751 0 00-1.343.671c1.938 3.877 5.446 6.805 6.597 7.767l.133.111c.059.048 5.751 4.783 7.721 4.783.05 0 .097-.003.142-.01a1.04 1.04 0 00.73-.439c.884-1.299-.464-3.232-4.119-5.907z" fill="#272727"/><path d="M286.046 123.194s-3.878-15.856-7.929-18.507c-2.43-1.59-5.587 8.451-6.147 10.272-1.495 4.856 7.142 13.635 7.142 13.635s6.887 19.148 9.899 26.491c5.723 13.955 13.987 18.112 19.17 15.963l.34-17.63c-8.205-5.042-22.475-30.224-22.475-30.224z" fill="#fff"/><path d="M308.916 152.778c-7.708-4.736-21.224-28.217-22.166-29.867-.512-2.074-4.118-16.17-8.222-18.854a1.722 1.722 0 00-1.57-.181c-2.197.794-4.315 6.345-5.705 10.861-1.527 4.96 6.118 13.129 7.21 14.263.659 1.831 7.013 19.442 9.856 26.368 3.397 8.282 8.063 14.007 13.139 16.118 1.357.564 2.694.849 3.97.849a7.925 7.925 0 003.045-.594.752.752 0 00-.577-1.389c-1.721.714-3.747.625-5.86-.253-2.724-1.134-7.949-4.628-12.327-15.301-2.971-7.245-9.817-26.268-9.886-26.46a.753.753 0 00-.172-.273c-2.315-2.354-8.078-9.259-6.961-12.887 1.69-5.494 3.612-9.468 4.781-9.89.098-.036.153-.029.237.025 3.119 2.04 6.551 13.726 7.612 18.058a.719.719 0 00.076.192c.586 1.035 14.461 25.408 22.738 30.494a.75.75 0 10.782-1.279zm55.953-77.55l-2.686.697s4.893 4.669 9.642 14.07c3.6 7.127 3.492 14.444 3.492 14.444l1.853-.436s9.493-12.333 5.69-20.67c-6.134-13.448-17.991-8.105-17.991-8.105z" fill="#272727"/><path d="M349.443 83.318c.044 1.33 1.617 2.637 3.015 3.702l3.566-3.899c-2.701.182-6.631-1.329-6.581.197z" fill="#fff"/><path d="M355.974 82.371c-.95.066-2.134-.109-3.179-.262-1.727-.253-2.974-.436-3.678.194-.203.181-.442.509-.425 1.04.055 1.659 1.737 3.076 3.31 4.275a.75.75 0 10.91-1.195c-.84-.64-2.555-1.947-2.708-3.019.431-.09 1.584.078 2.373.194 1.118.164 2.386.348 3.495.275a.749.749 0 00.698-.8.748.748 0 00-.796-.701z" fill="#272727"/><path fill-rule="evenodd" clip-rule="evenodd" d="M362.372 83.157c-.745-.339-1.695.192-2.118 1.184-.424.992-.164 2.073.581 2.412.745.339 1.694-.192 2.118-1.184.425-.992.164-2.073-.581-2.412z" fill="#272727"/><path d="M355.565 94.104s.275 4.087 4.784 4.17c3.333.063 4.208-4.115 4.208-4.115s-2.387.589-4.444.589c-2.279 0-4.548-.644-4.548-.644z" fill="#fff"/><path d="M364.377 93.43c-.023.004-2.324.566-4.262.566h-.002c-2.141 0-4.32-.61-4.342-.617a.753.753 0 00-.955.773c.111 1.652 1.408 4.796 5.519 4.873l.087.001c3.068 0 4.527-3.074 4.871-4.714a.755.755 0 00-.214-.695.76.76 0 00-.702-.188zm-4.014 4.093c-2.437-.045-3.41-1.4-3.797-2.413.907.184 2.218.39 3.547.39h.002c1.165 0 2.411-.177 3.317-.34-.461 1.039-1.407 2.41-3.069 2.364z" fill="#272727"/><path d="M280.164 104.143c-1.019 1.695-.516 5.627.121 7.562.638 1.936-2.986 6.188 1.014 11.969l4.442 1.279c2.242-3.829.738-8.141-.715-10.458-3.027-4.838-3.786-12.142-4.862-10.352z" fill="#fff"/><path d="M282.631 106.771c-.774-2.434-1.127-3.544-2.022-3.649-.249-.027-.716.015-1.089.634-1.276 2.124-.498 6.509.053 8.184.13.395-.08 1.198-.303 2.047-.611 2.333-1.532 5.857 1.414 10.113a.751.751 0 101.235-.854c-2.552-3.688-1.768-6.687-1.195-8.877.305-1.164.545-2.083.277-2.9-.538-1.632-.898-4.531-.464-6.224.209.554.453 1.316.664 1.982.701 2.206 1.663 5.227 3.191 7.666.55.878 3.168 5.469.703 9.68a.752.752 0 101.298.76c2.249-3.841 1.099-8.323-.727-11.238-1.427-2.279-2.357-5.195-3.035-7.324z" fill="#272727"/><path d="M371.47 89.62l.409 6.35c4.514-.304 5.934-3.534 4.557-5.882-1.589-2.709-4.349-1.23-4.966-.467z" fill="#fff"/><path d="M374.241 87.785c-1.464-.112-2.846.733-3.355 1.364a.75.75 0 101.168.944c.216-.269 1.116-.883 2.076-.81.678.05 1.22.438 1.657 1.185.503.859.536 1.837.088 2.683-.626 1.184-2.101 1.939-4.047 2.07a.75.75 0 00.05 1.501l.051-.001c2.478-.168 4.399-1.211 5.275-2.867.686-1.298.642-2.847-.12-4.147-.867-1.478-2.024-1.86-2.843-1.921z" fill="#272727"/><path d="M389.261 203.001c-1.165-1.523-2.662-4.947-3.149-7.275l-2.537 1.255c.836 2.786 2.309 5.323 4.013 7.637.781 1.059 5.964 2.563 6.578 1.56.64-1.048-4.18-2.231-4.905-3.177z" fill="#fff"/><path d="M391.848 203.565c-.716-.311-1.795-.781-1.99-1.022-1.119-1.462-2.553-4.784-3.012-6.971a.752.752 0 00-1.47.307c.503 2.404 2.039 5.944 3.288 7.576.394.516 1.239.902 2.584 1.486.515.225 1.265.551 1.765.832-1.387-.043-4.344-.959-4.819-1.604-1.902-2.582-3.177-5.005-3.899-7.407a.753.753 0 00-1.44.431c.772 2.57 2.121 5.144 4.129 7.867.79 1.073 4.289 2.196 6.148 2.196.06 0 .121-.002.178-.003.734-.031 1.238-.263 1.496-.686.173-.284.214-.615.116-.929-.257-.811-1.334-1.316-3.074-2.073z" fill="#272727"/><path d="M253.929 336.236l6.73-.027L289.237 40.68l-6.465-.891-28.843 296.447z" fill="#fff"/><path d="M289.34 39.935l-6.466-.892a.756.756 0 00-.852.672l-28.843 296.447a.752.752 0 101.495.144l28.768-295.67 4.977.686-28.506 294.815a.752.752 0 00.674.821.756.756 0 00.82-.675l28.578-295.53a.752.752 0 00-.645-.818z" fill="#272727"/><path d="M274.07 110.165c-.56-2.241-3.548 4.483-2.366 8.218.647 2.043 4.139 6.008 5.55 5.6 1.188-.344-.196-2.862-.196-2.862s1.58 1.714 2.678.684c.996-.934-.1-2.202-1.495-3.734-1.867-2.053-3.797-6.411-4.171-7.906z" fill="#fff"/><path d="M274.8 109.984c-.169-.676-.544-.909-.83-.984-.281-.074-.72-.06-1.19.434-1.176 1.234-2.775 6.069-1.79 9.177.591 1.867 3.897 6.151 6.07 6.151.139 0 .275-.018.405-.054.415-.12.734-.402.896-.795.133-.32.148-.695.1-1.075.128.028.258.045.391.05a1.917 1.917 0 001.401-.531c1.565-1.468-.108-3.31-1.453-4.789-1.806-1.984-3.664-6.242-4-7.584zm2.246 13.279l.208.722-.208-.722zm2.176-2.003c-.1.094-.192.136-.317.125-.449-.014-1.067-.526-1.295-.771a.75.75 0 00-1.209.871c.351.639.618 1.465.587 1.779-.853-.042-3.931-3.102-4.567-5.107-.716-2.261.337-5.825 1.101-7.205.651 1.947 2.441 5.732 4.164 7.625 1.37 1.509 1.95 2.294 1.536 2.683z" fill="#272727"/><path d="M277.059 121.123l-4.11-5.324c1.168 2.476 2.771 4.327 4.11 5.324z" fill="#fff"/><path d="M273.63 115.479a.75.75 0 10-1.359.641c1.096 2.326 2.679 4.369 4.339 5.604a.749.749 0 001.051-.154.752.752 0 00-.154-1.052c-1.448-1.074-2.898-2.96-3.877-5.039z" fill="#272727"/><path d="M276.218 105.621c.022-1.307-3.082 1.183-2.832 3.922.297 3.264 1.759 4.763 2.74 6.35.981 1.587 3.817 4.96 4.715 3.502.7-1.135-1.54-4.038-2.474-5.929-2.554-5.167-2.18-5.977-2.149-7.845z" fill="#fff"/><path d="M279.039 113.133c-2.185-4.425-2.145-5.461-2.088-6.895.007-.194.015-.392.018-.604.011-.631-.364-.906-.525-.995-.281-.155-.765-.246-1.465.21-1.088.711-2.533 2.658-2.343 4.762.26 2.849 1.38 4.494 2.279 5.815.199.292.392.575.57.862.027.043 2.696 4.216 4.743 4.216h.001c.522 0 .967-.254 1.25-.714.749-1.215-.346-3.053-1.503-5-.358-.601-.697-1.17-.937-1.657zm1.195 5.869c-.488.062-2.357-1.701-3.469-3.503a26.293 26.293 0 00-.606-.918c-.886-1.3-1.801-2.643-2.025-5.105-.115-1.279.695-2.471 1.308-3.069-.053 1.495.009 2.852 2.252 7.393.267.54.62 1.132.993 1.76.533.897 1.786 3.001 1.547 3.442z" fill="#272727"/><path d="M272.405 260.972c.224-3.345-.946-5.614-.946-5.614s-.308-4.113-2.677-4.476l-24.805 22.52s4.14 9.107 6.828 5.471c4.292-5.805 16.682-7.386 19.37-10.208 3.344-3.512 2.076-5.38 2.23-7.693z" fill="#fff"/><path d="M273.154 261.022c.206-3.078-.699-5.297-.961-5.867-.086-.816-.633-4.607-3.299-5.015a.75.75 0 10-.227 1.486c1.722.262 2.039 3.755 2.042 3.789a.783.783 0 00.08.285c.011.022 1.07 2.148.865 5.222-.041.6.006 1.157.05 1.696.136 1.656.251 3.087-2.073 5.528-.946.994-3.595 1.936-6.401 2.934-4.592 1.634-10.307 3.666-13.03 7.346-.443.6-.787.562-.917.548-1.408-.148-3.55-3.53-4.621-5.882a.752.752 0 00-1.369.621c.489 1.078 3.071 6.464 5.833 6.756.076.008.156.013.24.013.587 0 1.353-.23 2.043-1.162 2.449-3.312 7.924-5.26 12.326-6.825 3.108-1.106 5.792-2.06 6.985-3.313 2.79-2.931 2.627-4.927 2.483-6.687-.042-.506-.081-.984-.049-1.473z" fill="#272727"/><path d="M269.84 240.068c-1.393 3.735-3.147 8.023-3.734 9.198-.377.753-2.253 2.736-4.85 5.239-3.86 3.719-10.033 10.033-9.141 12.988l11.204-8.919c2.229-2.453 5.508-7.203 6.187-8.64.898-1.902 1.456-3.964 2.024-5.756 1.041-3.274.986-5.058.316-5.895-.55-.686-1.375.094-2.006 1.785z" fill="#fff"/><path d="M271.199 237.3c-.99.16-1.668 1.451-2.061 2.506-1.423 3.813-3.159 8.035-3.702 9.124-.116.229-.794 1.271-4.699 5.034-7.225 6.964-10.106 11.203-9.339 13.746a.754.754 0 00.936.502.753.753 0 00.503-.936c-.386-1.276.854-4.435 8.944-12.231 2.916-2.81 4.598-4.642 5-5.444.634-1.269 2.43-5.687 3.765-9.27.319-.855.624-1.281.799-1.458.292.505.515 1.797-.527 5.079-.112.353-.223.716-.339 1.088-.467 1.52-.949 3.093-1.649 4.574-.645 1.365-3.885 6.059-6.064 8.455a.753.753 0 001.112 1.013c2.3-2.529 5.614-7.35 6.311-8.824.745-1.578 1.267-3.278 1.727-4.776.113-.365.224-.724.335-1.074 1.059-3.332 1.118-5.427.187-6.592-.325-.402-.776-.591-1.239-.516z" fill="#272727"/><path d="M186.092 195.837c-14.382 6.197-14.54 19.805-7.374 29.061.13.167.263.329.399.49-1.248 9.646-9.552 20.005-9.552 20.005l21.002 2.207s3.26-15.54 4.494-17.132c11.573.376 15.967-8.491 15.376-19.07-.681-12.207-16.266-19.041-24.345-15.561z" fill="#fff"/><path d="M202.27 197.588c-5.436-3.363-12.056-4.344-16.475-2.441-6.377 2.747-10.504 7.127-11.933 12.666-1.459 5.654.134 12.213 4.264 17.544.067.086.135.172.203.256-1.346 9.232-9.268 19.209-9.348 19.31a.748.748 0 00-.106.759c.106.255.342.43.615.458l21.002 2.207a.751.751 0 00.814-.592c1.456-6.935 3.338-14.719 4.182-16.525 4.601.055 8.347-1.32 11.066-4.103 3.365-3.445 5.011-9.046 4.636-15.769-.305-5.431-3.557-10.45-8.92-13.77zm3.208 28.487c-2.499 2.559-5.995 3.781-10.39 3.643a.724.724 0 00-.619.291c-1.189 1.535-3.714 13.099-4.495 16.775l-19-1.998c2.16-2.926 7.85-11.271 8.889-19.301a.757.757 0 00-.172-.583 13.112 13.112 0 01-.376-.464c-3.846-4.967-5.34-11.04-3.997-16.248 1.309-5.072 5.137-9.105 11.073-11.662 3.987-1.719 10.052-.778 15.09 2.34 4.94 3.057 7.933 7.64 8.208 12.573.351 6.296-1.145 11.495-4.211 14.634z" fill="#272727"/><path d="M209.448 211.158l-.315 6.357c1.407-.439 3.828-.492 4.831-1.815 1.003-1.324-1.312-.993-4.516-4.542z" fill="#fff"/><path d="M213.542 213.54c-.832-.511-2.088-1.283-3.536-2.887a.751.751 0 10-1.115 1.006c1.593 1.765 2.961 2.604 3.866 3.16.217.133.475.291.624.405-.004.006-.009.014-.015.02-.555.733-1.876.994-3.043 1.225-.509.1-.99.195-1.413.328a.75.75 0 10.446 1.434c.347-.108.791-.196 1.258-.289 1.357-.269 3.049-.602 3.948-1.79.117-.157.477-.63.369-1.205-.117-.628-.65-.954-1.389-1.407zm-.048 1.784h.008-.008zm-5.597 7.687c-2.26.514-6.774-.742-8.142-3.467a.753.753 0 00-1.343.675c1.487 2.959 5.512 4.402 8.378 4.402.526 0 1.014-.048 1.439-.145a.752.752 0 00-.332-1.465z" fill="#272727"/><path fill-rule="evenodd" clip-rule="evenodd" d="M204.05 207.393c-.734.171-1.152 1.077-.932 2.022.218.945.993 1.573 1.729 1.402.734-.17 1.153-1.076.934-2.021-.222-.945-.997-1.574-1.731-1.403z" fill="#272727"/><path d="M178.596 197.816c-15.087 13.172.178 30.32.178 30.32s5.433-1.347 9.149-5.931c2.229-2.751 2.927-8.69 5.345-10.074 7.244-4.147 8.328-14.162 8.328-14.162s-12.466-9.35-23-.153z" fill="#272727"/><path d="M202.046 197.368c-.129-.097-13.077-9.603-23.945-.117-4.256 3.716-6.571 8.099-6.88 13.029-.611 9.697 6.682 18.007 6.993 18.356a.75.75 0 00.742.229c.231-.057 5.721-1.462 9.551-6.189 1.065-1.313 1.778-3.224 2.465-5.072.767-2.058 1.559-4.186 2.669-4.822 7.491-4.287 8.657-14.308 8.702-14.731a.753.753 0 00-.297-.683zm-9.151 14.11c-1.583.906-2.432 3.187-3.332 5.602-.645 1.733-1.314 3.527-2.224 4.65-2.907 3.586-6.974 5.119-8.305 5.545-1.359-1.67-6.817-8.908-6.314-16.903.285-4.514 2.428-8.549 6.37-11.992 2.952-2.577 6.306-3.872 10.011-3.872 1.51 0 3.08.216 4.704.647 3.413.906 6.056 2.541 6.982 3.163-.306 1.923-1.894 9.727-7.892 13.16z" fill="#272727"/><path d="M175.846 215.307c-12.996-1.658-41.817-2.439-42.45 12.913-.558 13.542 15.379 20.675 29.162 9.952 13.803-10.741 13.772-20.221 13.772-20.221s2.084-2.316-.484-2.644z" fill="#272727"/><path d="M175.938 214.582c-4.774-.608-29.093-3.216-39.098 5.233-2.633 2.224-4.037 5.042-4.175 8.375-.251 6.086 2.743 11.338 8.008 14.048 2.429 1.25 5.116 1.862 7.899 1.862 4.809 0 9.903-1.828 14.431-5.352 12.785-9.947 13.941-18.821 14.044-20.52.373-.474 1.064-1.528.709-2.482-.162-.446-.612-1.01-1.818-1.164zm-.153 2.882a.741.741 0 00-.188.487c0 .092-.187 9.294-13.49 19.645-6.695 5.209-14.652 6.491-20.765 3.344-4.747-2.443-7.445-7.187-7.218-12.689.12-2.908 1.351-5.37 3.658-7.319 5.039-4.257 14.853-5.75 24.675-5.75 4.592 0 9.187.326 13.295.849.483.061.625.193.637.224.071.184-.236.795-.604 1.209z" fill="#272727"/><path d="M188.029 211.439c-.572 4.494 3.739 5.661 3.739 5.661l3.632-5.581c.322-3.763-6.681-5.51-7.371-.08z" fill="#fff"/><path d="M192.087 207.275c-2.102-.222-4.405.949-4.801 4.069-.517 4.067 2.578 6.018 4.287 6.481a.752.752 0 00.394-1.45c-.15-.041-3.674-1.04-3.191-4.841.361-2.838 2.505-2.836 3.153-2.764 1.439.153 2.851 1.199 2.724 2.686a.753.753 0 00.685.813.746.746 0 00.812-.685c.204-2.407-1.906-4.081-4.063-4.309z" fill="#272727"/><path d="M79.685 361.954c1.143.723 3.234-1.709 4.157-4.42.597-1.749 2.765-5.784 2.765-5.784l6.565-9.26-5.148-1.49c-2.454 4.552-9.345 20.318-8.34 20.954z" fill="#fff"/><path d="M92.558 342.058l-6.565 9.258a.607.607 0 00-.048.08c-.089.167-2.205 4.109-2.813 5.898-.677 1.987-1.956 3.627-2.77 3.978.446-2.764 5.847-15.323 8.323-19.913a.751.751 0 10-1.323-.713c-1.276 2.366-3.64 7.53-5.498 12.012-3.8 9.16-3.179 9.552-2.58 9.931.2.127.485.247.854.247.195 0 .415-.034.656-.12 1.55-.547 3.064-2.899 3.76-4.939.538-1.58 2.467-5.207 2.694-5.63l6.536-9.221a.754.754 0 00-.178-1.048.753.753 0 00-1.048.18zm-12.22 19.602h.009-.01z" fill="#272727"/><path d="M87.298 339.629c-5.69 4.618-8.991 10.782-9.995 12.813-1.005 2.031-1.956 5.789-.803 5.416 1.153-.372 5.446-7.529 7.758-9.862l9.397-7.497 1.11-10.494c-2.706 5.081-3.862 6.696-7.467 9.624z" fill="#fff"/><path d="M95.12 329.342a.754.754 0 00-1.017.31c-2.61 4.897-3.666 6.46-7.279 9.394-5.635 4.575-9.006 10.659-10.195 13.063-.382.775-2.108 4.96-1.07 6.164.205.238.486.362.792.362.124 0 .252-.02.38-.062.782-.253 1.762-1.557 4.16-4.947 1.399-1.978 2.845-4.024 3.871-5.07l9.363-7.472a.752.752 0 00-.937-1.174l-9.399 7.499a.881.881 0 00-.064.058c-1.115 1.125-2.613 3.243-4.062 5.291-.958 1.354-2.19 3.097-2.915 3.926.119-.94.569-2.577 1.228-3.911 1.143-2.315 4.389-8.176 9.793-12.563 3.744-3.04 4.931-4.733 7.659-9.854a.746.746 0 00-.308-1.014zm-18.364 28.027h-.008.008z" fill="#272727"/><path d="M82.095 349.824c-1.586 2.555-7.212 11.114-5.664 11.945 1.434.77 7.044-8.307 8.856-10.285 1.812-1.977 8.827-7.152 11.885-9.131l-3.767-3.524c-3.379 2.349-9.725 8.438-11.31 10.995z" fill="#fff"/><path d="M96.765 341.723c-2.985 1.932-10.117 7.168-12.03 9.254-.591.645-1.517 1.938-2.59 3.436-1.46 2.04-4.061 5.672-5.23 6.492.166-1.229 1.921-4.5 5.228-9.747l.59-.939c1.464-2.362 7.69-8.402 11.102-10.773a.75.75 0 10-.858-1.233c-3.313 2.303-9.831 8.492-11.52 11.216l-.584.929c-3.645 5.784-5.821 9.688-5.403 11.28.12.45.396.679.606.793.175.094.357.141.547.141 1.371 0 3.255-2.41 6.745-7.282 1-1.398 1.946-2.718 2.475-3.296 1.695-1.848 8.515-6.922 11.739-9.009a.75.75 0 00.221-1.038.75.75 0 00-1.038-.224zm-19.842 19.532h.008-.008z" fill="#272727"/><path d="M89.705 353.696c1.323.728 4.9-4.38 9.348-7.985 2.499-2.024 4.167-5.947 4.397-8.569l-5.584 4.113c-2.921 2.491-9.484 11.713-8.161 12.441z" fill="#fff"/><path d="M103.516 336.394a.752.752 0 00-.814.682c-.219 2.493-1.82 6.187-4.122 8.053-1.84 1.49-3.496 3.196-4.958 4.7-1.173 1.207-2.591 2.666-3.274 3.09.62-2.009 5.32-8.803 8.005-11.093a.752.752 0 00-.974-1.143c-2.571 2.193-8.824 10.499-8.591 12.784.054.536.37.785.554.887.21.116.425.17.65.17 1.162 0 2.582-1.462 4.708-3.649 1.432-1.474 3.055-3.144 4.826-4.58 2.71-2.196 4.43-6.321 4.672-9.088a.75.75 0 00-.682-.813zm-13.235 16.923h.01-.01z" fill="#272727"/><path d="M120.604 286.046c-8.918 10.403-31.03 47.249-31.03 47.249l18.243 9.511s28.367-47.913 30.017-53.814l36.75-49.37c-18.478 3.011-42.753 33.326-53.98 46.424z" fill="#fff"/><path d="M174.462 238.881c-17.241 2.809-39.482 29.051-51.43 43.15a708.454 708.454 0 01-2.999 3.526c-8.854 10.331-30.881 46.981-31.103 47.35a.76.76 0 00-.08.591.757.757 0 00.375.462l18.244 9.513a.748.748 0 00.993-.283c1.161-1.96 28.438-48.066 30.093-53.994a.752.752 0 00-1.448-.404c-1.502 5.381-26.269 47.417-29.576 53.02l-16.903-8.813c3.07-5.086 22.437-37.005 30.544-46.463.919-1.07 1.923-2.256 3.004-3.532 11.822-13.95 33.83-39.918 50.525-42.637a.752.752 0 00.62-.863.745.745 0 00-.859-.623z" fill="#272727"/><path d="M229.373 404.939c-2.224-.642-11.974-3.107-15.325-6.329-5.117-4.922-7.169-11.014-7.169-11.014l-13.728.222-3.7 21.208h41.624c-.001 0 2.301-2.932-1.702-4.087z" fill="#fff"/><path d="M229.581 404.218a72.949 72.949 0 00-.825-.231c-3.088-.856-11.29-3.131-14.187-5.918-4.916-4.726-6.959-10.653-6.979-10.712a.752.752 0 00-1.423.48c.086.256 2.171 6.324 7.361 11.315 3.171 3.051 11.339 5.316 14.827 6.283l.81.226c.687.198 1.551.57 1.764 1.215.156.475-.06 1.039-.26 1.4h-40.325l3.547-20.329a.75.75 0 10-1.481-.259l-3.7 21.208a.75.75 0 00.741.879h41.624a.75.75 0 00.591-.287c.048-.062 1.189-1.539.693-3.071-.331-1.023-1.266-1.764-2.778-2.199z" fill="#272727"/><path d="M217.55 399.547c-1.762.595-4.355 1.951-5.867 3.818a.753.753 0 00.583 1.223.749.749 0 00.584-.278c1.226-1.512 3.485-2.767 5.181-3.34a.75.75 0 10-.481-1.423zm-2.98-1.71c-1.762.595-4.355 1.952-5.867 3.817a.751.751 0 001.167.945c1.225-1.512 3.485-2.766 5.181-3.339a.75.75 0 10-.481-1.423zm-16.405 6.403c-2.004-1.558-4.928-1.97-8.019-1.13a.751.751 0 00.393 1.45c2.632-.717 5.073-.402 6.703.865 1.112.864 1.713 2.07 1.693 3.396a.75.75 0 00.739.762h.012a.75.75 0 00.751-.739c.029-1.782-.799-3.459-2.272-4.604z" fill="#272727"/><path d="M131.255 464.821c-2.225-.642-11.974-3.107-15.325-6.33-5.117-4.922-7.169-11.014-7.169-11.014l-13.728.222-3.7 21.208h41.624c0 .002 2.301-2.93-1.702-4.086z" fill="#fff"/><path d="M131.462 464.099c-.211-.061-.487-.137-.82-.229-3.088-.856-11.293-3.131-14.192-5.919-4.914-4.728-6.958-10.655-6.979-10.714a.751.751 0 00-1.423.479c.086.256 2.172 6.325 7.362 11.316 3.172 3.052 11.343 5.317 14.831 6.282l.806.227c.687.198 1.551.57 1.763 1.215.157.475-.059 1.039-.259 1.4H92.226l3.547-20.329a.751.751 0 10-1.48-.259l-3.701 21.21a.75.75 0 00.74.879h41.625a.753.753 0 00.591-.287c.048-.063 1.188-1.539.693-3.071-.331-1.022-1.265-1.764-2.779-2.2z" fill="#272727"/><path d="M119.434 459.429c-1.762.595-4.357 1.952-5.867 3.817a.751.751 0 001.167.945c1.224-1.512 3.484-2.766 5.181-3.339a.751.751 0 00-.481-1.423zm-2.981-1.709c-1.762.595-4.356 1.952-5.866 3.817a.751.751 0 001.166.945c1.225-1.512 3.485-2.766 5.181-3.339a.751.751 0 10-.481-1.423zm-16.405 6.403c-2.005-1.559-4.93-1.97-8.02-1.13a.753.753 0 00-.527.922c.11.4.523.636.921.528 2.63-.717 5.074-.4 6.703.865 1.112.864 1.713 2.07 1.693 3.396a.75.75 0 00.739.762h.012c.41 0 .745-.328.752-.739.028-1.782-.8-3.461-2.273-4.604zm45.132-178.83c-14.002 10.008-26.284 26.083-28.019 44.999-1.735 18.917.398 41.829.398 41.829s-8.658 12.424-15.477 27.92c-6.82 15.496-10.3 49.486-10.3 49.486h31.686s23.18-56.965 29.379-79.148c3.062-10.951 4.616-25.891 5.406-38.172.194-3.005 9.372-4.997 8.66-7.49-2.495-8.732 3.119-25.886 3.119-25.886l-24.852-13.538z" fill="#272727"/><path d="M154.208 317.943l-19.448-6.377c-3.513 21.763.674 36.332 22.18 39.876 11.215 1.848 46.448-6.221 67.249-17.302 11.516-6.135 11.126-11.517 10.612-16.924-1.345-14.164-57.09-3.656-80.593.727z" fill="#272727"/><path d="M233.064 313.964l-20.17 3.344c-10.918 15.765-17.834 32.754-20.045 41.668-2.21 8.915-5.855 32.802-5.855 32.802h31.283c-.002-.002 31.608-65.096 14.787-77.814z" fill="#272727"/><path d="M174.582 239.623l-22.033 19.879c-9.302 12.073-29.392 39.406-36.78 55.237-.768 1.648 16.434 4.055 27.755 4.055 19.336 0 28.067-2.807 28.067-2.807s23.208-48.181 24.014-62.687c.696-12.504-9.15-16.52-21.023-13.677z" fill="#fff"/><path d="M191.939 241.276c-3.95-3.299-10.178-4.144-17.532-2.382a.753.753 0 00.35 1.462c6.884-1.648 12.643-.911 16.22 2.076 2.841 2.372 4.147 6.015 3.879 10.829-.756 13.6-21.834 58.001-23.795 62.101-1.694.474-10.523 2.682-27.534 2.682-11.132 0-24.851-2.079-26.921-3.314 8.735-18.47 33.706-51.089 36.54-54.767a.751.751 0 00-1.189-.917c-2.862 3.714-28.208 36.823-36.866 55.377a1.02 1.02 0 00.075.994c1.401 2.199 18.667 4.13 28.361 4.13 19.233 0 27.936-2.727 28.298-2.843a.761.761 0 00.447-.389c.95-1.973 23.281-48.483 24.086-62.971.289-5.241-1.238-9.413-4.419-12.068z" fill="#272727"/><path d="M194.671 246.749l-21.285 16.374c3.508 30.875 22.1 54.735 36.097 48.807 5.767-2.441 18.44-8.66 8.108-20.583-8.108-9.355-14.033-9.667-22.92-44.598z" fill="#fff"/><path d="M213.972 286.435c-6.073-6.096-11.318-11.358-18.573-39.87a.75.75 0 10-1.456.37c7.355 28.91 12.736 34.309 18.965 40.56 1.323 1.328 2.69 2.699 4.116 4.346 3.036 3.502 4.233 6.751 3.56 9.655-1.267 5.458-8.889 8.685-11.393 9.745-3.487 1.478-7.482 1.002-11.554-1.377-11.468-6.697-21.132-25.952-23.505-46.824a.745.745 0 00-.831-.663.752.752 0 00-.662.831c2.421 21.313 12.39 41.032 24.24 47.952 2.763 1.614 5.512 2.428 8.137 2.428 1.644 0 3.242-.321 4.76-.964 2.679-1.134 10.831-4.586 12.271-10.789.789-3.398-.52-7.092-3.887-10.978-1.461-1.686-2.848-3.078-4.188-4.422z" fill="#272727"/><path d="M210.108 287.294l-11.851 23.859c17.308 11.46 64.711-33.527 64.711-33.527l-11.071-16.217c0-.002-32.122 22.455-41.789 25.885z" fill="#fff"/><path d="M252.517 260.986a.753.753 0 00-1.052-.192c-.32.223-32.148 22.435-41.609 25.792a.752.752 0 00.503 1.415c9.022-3.2 36.695-22.31 41.345-25.544l10.28 15.058c-4.95 4.593-47.595 43.414-63.313 33.009a.749.749 0 00-1.04.213.748.748 0 00.212 1.04c2.021 1.339 4.472 2.006 7.351 2.006 7.747 0 18.576-4.842 32.34-14.482 13.899-9.733 25.832-21.019 25.951-21.131a.752.752 0 00.103-.969l-11.071-16.215zm-38.067 76.906c-17.618 7.393-46.525 14.599-57.387 12.808-12.507-2.06-19.423-7.797-21.766-18.055a.75.75 0 10-1.465.334c2.462 10.78 9.981 17.061 22.986 19.204 1.164.192 2.549.284 4.122.284 12.361 0 36.217-5.689 54.091-13.188a.751.751 0 00-.581-1.387zm-56.839-13.442c-1.908 1.273-12.66 4.738-16.174 4.122a.75.75 0 00-.261 1.48c.345.061.745.089 1.187.089 4.66 0 14.13-3.14 16.081-4.44a.75.75 0 00.208-1.042.749.749 0 00-1.041-.209zm-26.783 45.136c-3.519 0-8.836 0-13.541 1.835a.751.751 0 00.547 1.4c4.441-1.733 9.384-1.733 12.996-1.733a.75.75 0 10-.002-1.502zm-9.365 3.791a.75.75 0 100 1.502c2.861 0 5.334 0 8.258 2.09a.75.75 0 001.048-.173.753.753 0 00-.175-1.048c-3.316-2.371-6.14-2.371-9.131-2.371zm-2.006 68.674H94.262a.75.75 0 100 1.502h25.195a.75.75 0 100-1.502zm94.979-58.863h-25.195a.75.75 0 100 1.503h25.195a.75.75 0 100-1.503z" fill="#272727"/><path d="M214.942 341.717l-.253-.02c-2.791-.224-6.612-.531-9.723-.086a.75.75 0 10.212 1.487c2.946-.419 6.67-.122 9.39.095l.254.02a.752.752 0 00.809-.688.751.751 0 00-.689-.808z" fill="#272727"/><path d="M172.334 213.574a.77.77 0 00-.891-.632.772.772 0 00-.633.892c.431 2.546 1.498 7.36 3.788 10.985a.773.773 0 101.307-.826c-2.226-3.525-3.238-8.46-3.571-10.419z" fill="#F3B727"/><path opacity=".8" d="M390.774 449.352l-33.376 9.861a23.887 23.887 0 01-14.951-.433l-21.735-7.815a25.588 25.588 0 00-23.557 3.273l-37.124 26.57a.776.776 0 00.452 1.403.778.778 0 00.45-.144l37.123-26.57a24.044 24.044 0 0122.133-3.074l21.735 7.815a25.424 25.424 0 0015.913.46l33.376-9.861a.775.775 0 10-.439-1.485z" fill="#fff"/><path d="M284.151 37.07l-1.003 2.676 6.089.934-.222-3.066-4.864-.543z" fill="#272727"/><path d="M282.166 33.946l-.414 3.15 9.285 1.22.414-3.15-9.285-1.22z" fill="#F3B727"/><path d="M270.129 336.567l-15.718-1.337a.793.793 0 00-.417.081l-11.816 6.02a.773.773 0 00.703 1.378l11.619-5.92 15.5 1.32a.774.774 0 00.129-1.542zm43.386-185.756a.774.774 0 00-.325 1.045c2.194 4.171 2.118 12.328-1.504 17.361a.772.772 0 00.628 1.224c.24 0 .478-.11.627-.321 4.012-5.574 4.074-14.316 1.617-18.984a.77.77 0 00-1.043-.325zm-7.918 15.316s-1.895 1.824 1.317 4.18c3.533 2.592 4.202-14.465 1.609-16.89-2.592-2.423-4.599 3.68-2.926 12.71z" fill="#fff"/><path d="M307.186 152.498l2.007 14.215c3.092-5.267 3.26-10.536-2.007-14.215z" fill="#fff"/><path d="M307.615 151.883a.75.75 0 10-.861 1.232c5.599 3.91 4.063 9.346 1.789 13.218a.75.75 0 00.647 1.131.752.752 0 00.648-.37c3.669-6.247 2.88-11.648-2.223-15.211z" fill="#272727"/><path d="M418.431 154.43c-4.383-1.252-9.353-.025-13.625 3.371a.774.774 0 00.962 1.213c3.877-3.081 8.336-4.212 12.238-3.096a.774.774 0 00.425-1.488z" fill="#fff"/><path d="M378.755 114.483c-1.673-1.673-16.499-1.784-19.62-1.673-3.121.111-3.233 3.567-5.685 7.135l29.43.781c-1.562-1.004-3.338-5.455-4.125-6.243z" fill="#3092F7"/><path d="M340.456 133.985a.752.752 0 00-.905.556 32.802 32.802 0 01-1.623 4.959c-1.455 3.513-1.438 6.769-1.416 10.54.022 3.806.045 8.122-1.458 13.803-5.054 19.095-14.165 35.84-14.257 36.007a.751.751 0 001.316.722c.093-.169 9.291-17.067 14.392-36.344 1.555-5.875 1.53-10.296 1.508-14.198-.021-3.607-.038-6.723 1.302-9.955a34.43 34.43 0 001.697-5.187.75.75 0 00-.556-.903zm46.853-15.658c-5.973-1.584-21.87-2.06-26.599-2.168a.76.76 0 00-.769.734.75.75 0 00.734.768c12.513.286 22.326 1.078 26.249 2.119a.751.751 0 10.385-1.453zM271.673 254.639a.753.753 0 00-.934.506c-.294.99-3.318 3.541-4.944 4.911-.386.325-.742.627-1.047.889a.753.753 0 00.492 1.32.742.742 0 00.491-.183c.3-.259.651-.556 1.032-.876 2.829-2.385 5.024-4.316 5.414-5.633a.75.75 0 00-.504-.934zm1.007 5.437a.753.753 0 00-.96.455c-.303.848-2.462 2.434-5.371 3.947a.752.752 0 00.347 1.417.725.725 0 00.347-.086c2.012-1.046 5.478-3.058 6.092-4.773a.753.753 0 00-.455-.96z" fill="#272727"/><defs><linearGradient id="paint0_linear" x1="75.983" y1="275.461" x2="346.99" y2="584.036" gradientUnits="userSpaceOnUse"><stop stop-color="#fff"/><stop offset=".26" stop-color="#FCEBC4"/><stop offset=".772" stop-color="#F5C654"/><stop offset="1" stop-color="#F3B727"/></linearGradient></defs></svg>