<svg width="518" height="562" fill="none" xmlns="http://www.w3.org/2000/svg"><path d="M239.928 0l43.88 237.405L471 159.68 297.294 296.001l155.188 76.317-179.745-33.427L310.377 562l-92.59-216.866L54.145 522.13 161.83 320.366 0 265.999l154.585-9.666-46.497-99.674 90.175 71.282L239.928 0z" fill="#AFF800"/><path d="M400.76 394.2c62.276 0 112.76-50.86 112.76-113.6 0-62.74-50.484-113.6-112.76-113.6S288 217.86 288 280.6c0 62.74 50.484 113.6 112.76 113.6z" fill="#3092F7" stroke="#000" stroke-width="7" stroke-linecap="round" stroke-linejoin="round"/><path d="M452.511 302.23a52.461 52.461 0 01-101.127 20.297 52.461 52.461 0 01-3.783-20.297" stroke="#000" stroke-width="7" stroke-linecap="round" stroke-linejoin="round"/><path d="M420.6 289.12c7.809 0 14.14-17.107 14.14-38.21s-6.331-38.21-14.14-38.21-14.14 17.107-14.14 38.21 6.331 38.21 14.14 38.21zm-41.1 0c7.81 0 14.14-17.107 14.14-38.21s-6.33-38.21-14.14-38.21c-7.809 0-14.14 17.107-14.14 38.21s6.331 38.21 14.14 38.21z" fill="#000"/><path d="M344.53 284H127v219.14h217.53V284z" fill="#FF5050" stroke="#000" stroke-width="7" stroke-linecap="round" stroke-linejoin="round"/><path d="M288.22 420.2a52.461 52.461 0 01-101.127 20.297 52.461 52.461 0 01-3.783-20.297" stroke="#000" stroke-width="7" stroke-linecap="round" stroke-linejoin="round"/><path d="M256.32 407.09c7.809 0 14.14-17.107 14.14-38.21s-6.331-38.21-14.14-38.21c-7.81 0-14.14 17.107-14.14 38.21s6.33 38.21 14.14 38.21zm-41.1 0c7.809 0 14.14-17.107 14.14-38.21s-6.331-38.21-14.14-38.21-14.14 17.107-14.14 38.21 6.331 38.21 14.14 38.21z" fill="#000"/></svg>