<svg width="14" height="14" fill="none" xmlns="http://www.w3.org/2000/svg"><path fill-rule="evenodd" clip-rule="evenodd" d="M4.96 13.244l6.833-8.838c.372-.476.504-1.027.38-1.588-.107-.51-.421-.995-.891-1.363L10.134.544c-.998-.795-2.236-.711-2.946.2l-.768.996a.294.294 0 00.05.409s1.94 1.555 1.98 1.589a.816.816 0 01.256.493.735.735 0 01-.635.81.658.658 0 01-.503-.141l-2.04-1.622a.243.243 0 00-.33.042L.355 9.59c-.314.393-.42.903-.314 1.396l.62 2.684a.311.311 0 00.305.243l2.723-.034a1.637 1.637 0 001.271-.635zm3.813-.836h4.441c.434 0 .786.357.786.796a.79.79 0 01-.786.796h-4.44a.791.791 0 01-.787-.796c0-.439.353-.796.786-.796z" fill="#FF4E00"/></svg>