<svg width="33" height="33" fill="none" xmlns="http://www.w3.org/2000/svg"><path fill-rule="evenodd" clip-rule="evenodd" d="M9.464.249h14.088c5.51 0 9.198 3.867 9.198 9.62v13.278c0 5.736-3.689 9.602-9.198 9.602H9.464c-5.509 0-9.214-3.866-9.214-9.602V9.869c0-5.753 3.705-9.62 9.214-9.62zM21.39 21.374a1.41 1.41 0 000-1.997l-2.892-2.893 2.892-2.894a1.43 1.43 0 000-2.013 1.429 1.429 0 00-2.015 0l-2.876 2.89-2.893-2.89a1.429 1.429 0 00-2.015 0 1.43 1.43 0 000 2.013l2.893 2.894-2.893 2.876a1.43 1.43 0 001.008 2.438c.373 0 .731-.148 1.007-.424l2.893-2.875 2.892 2.875c.277.294.634.424.992.424.373 0 .73-.148 1.007-.424z" fill="#3A3A3A"/></svg>