<svg width="594" height="594" viewBox="0 0 594 594" fill="none" xmlns="http://www.w3.org/2000/svg">
<g clip-path="url(#clip0)">
<rect width="594" height="594" rx="24" fill="#FF4E00"/>
<path d="M506.914 103.021H336.288C331.461 103.021 327.549 106.933 327.549 111.76V249.051C327.549 253.878 331.461 257.79 336.288 257.79H506.914C511.74 257.79 515.653 253.878 515.653 249.051V111.76C515.653 106.933 511.74 103.021 506.914 103.021Z" fill="black"/>
<path d="M351.467 119.895V124.199L355.421 121.925L359.367 119.642L355.421 117.36L351.467 115.077V119.382L347.962 117.36L344.008 115.077V119.642V124.199L347.962 121.925L351.467 119.895Z" fill="white"/>
<path d="M509.375 135.05C508.927 135.05 507.981 134.985 508.144 135.099H508.307C508.266 135.164 508.022 135.197 507.9 135.23C507.28 135.23 507.614 135.107 507.492 135.058C506.465 135.01 507.402 135.327 506.465 135.319L506.343 135.262C505.894 135.336 505.193 135.344 505.071 135.507C504.655 135.336 504.003 135.58 503.554 135.507C503.465 135.124 505.185 135.507 505.682 135.327C505.193 135.246 505.968 135.14 506.171 135.05L504.614 135.221C504.352 135.08 504.047 135.043 503.758 135.116H503.881C503.261 135.116 503.424 135.319 502.894 135.262C502.813 135.262 502.976 135.164 503.016 135.14C502.519 135.14 502.609 135.23 502.275 135.262C501.785 135.262 502.519 135.107 502.112 135.067C501.65 135.137 501.18 135.137 500.718 135.067C500.921 135.287 498.745 135.368 499.813 135.564L498.631 135.711C498.256 135.596 499.446 135.401 499.12 135.221H500.065C499.902 134.944 498.084 135.401 497.457 135.091C497.008 135.106 496.56 135.071 496.12 134.985L496.283 135.23C495.785 135.173 495.631 135.042 495.606 134.993C495.313 134.993 495.052 134.993 494.791 134.993C494.902 134.946 495.021 134.918 495.141 134.912C494.766 134.781 494.66 134.83 494.53 134.912C494.261 134.959 493.988 134.976 493.715 134.961L494 134.871C493.804 134.871 493.576 134.912 493.552 134.961H493.185C493.407 135.099 493.658 135.186 493.919 135.213C492.904 135.187 491.892 135.106 490.886 134.969C490.886 134.895 491.334 134.814 491.204 134.798C490.715 134.798 490.177 134.887 490.226 134.993H489.957C489.823 134.907 489.667 134.862 489.508 134.863C489.409 134.828 489.304 134.811 489.198 134.814C489.035 135.001 488.09 134.912 487.886 134.993C488.157 135.012 488.43 135.012 488.701 134.993C488.373 135.154 488.004 135.213 487.641 135.164C488.375 135.042 486.826 134.961 487.967 134.912C487.152 134.667 487.56 135.083 486.737 135.001L486.198 134.904C486.28 134.765 487.063 134.83 486.94 134.781H486.573C486.94 134.675 488.334 134.781 489.198 134.586L487.47 134.504C485.294 134.675 482.579 134.504 480.745 134.789H480.818C480.818 134.789 480.769 134.83 480.745 134.879H480.663L480.296 134.985C479.685 134.865 479.067 134.778 478.446 134.724C478.861 134.806 478.861 134.806 478.902 134.912C478.943 135.018 478.755 135.116 478.136 135.058C478.136 134.961 478.511 134.961 478.054 134.887C478.291 134.936 478.054 135.001 477.818 135.018C477.582 135.034 476.889 134.936 476.88 134.838C477.013 134.816 477.148 134.816 477.28 134.838C477.443 134.838 476.628 134.749 477.101 134.667H476.481C476.114 134.586 476.717 134.537 476.579 134.488C475.535 134.553 474.997 134.781 474.052 134.846C474.085 134.781 474.102 134.708 474.101 134.635C473.375 134.569 472.544 134.879 471.72 134.895C471.942 134.846 472.169 134.824 472.397 134.83C469.87 134.74 467.799 134.74 465.427 134.529L464.815 134.757L464.196 134.602C461.701 134.455 459.785 134.602 457.413 134.675C456.671 134.675 456.973 134.512 456.598 134.447C454.967 134.447 454.584 134.683 453.035 134.732C453.247 134.659 453.614 134.463 452.946 134.455C452.855 134.518 452.753 134.562 452.645 134.585C452.537 134.607 452.426 134.607 452.318 134.586L452.53 134.512C452.015 134.464 451.498 134.447 450.981 134.463C449.671 134.47 448.365 134.612 447.084 134.887C445.845 134.887 447.215 134.635 446.978 134.586C447.859 134.675 447.59 134.586 447.793 134.471C447.375 134.571 446.936 134.549 446.53 134.406C446.003 134.399 445.477 134.438 444.956 134.52C445.274 134.463 445.552 134.52 445.25 134.626C444.728 134.569 443.383 134.626 443.456 134.431C440.399 134.431 436.935 134.431 433.674 134.431C433.119 134.537 434.09 134.431 433.788 134.545C432.973 134.683 433.152 134.471 432.508 134.545L432.777 134.439C431.804 134.474 430.835 134.572 429.875 134.732C430.03 134.602 429.117 134.626 429.875 134.553C429.426 134.553 428.872 134.007 428.522 134.121L429.035 134.651C429.035 134.7 428.375 134.651 428.44 134.7C428.062 134.59 427.674 134.517 427.282 134.48C427.152 134.341 427.837 134.374 428.212 134.374C428.269 134.154 426.948 134.235 427.494 134.031C426.679 134.031 427.609 134.145 427.119 134.227L426.418 134.178L426.965 134.251C426.452 134.39 425.918 134.429 425.391 134.366L424.576 134.577C424.494 134.406 423.981 134.577 423.565 134.504L423.826 134.398C423.449 134.41 423.071 134.38 422.701 134.308C423.019 134.154 423.206 134.308 423.345 134.194L422.734 134.145C422.734 134.243 422.342 134.325 422.782 134.382C422.05 134.66 421.264 134.771 420.483 134.708C419.839 134.537 421.176 134.553 420.907 134.39C419.432 134.317 419.098 134.83 418.242 134.814C417.52 134.802 416.799 134.835 416.081 134.912C416.44 134.798 415.266 134.789 415.095 134.675L415.543 134.553C415.201 134.594 414.875 134.553 414.973 134.463C415.038 134.618 413.53 134.61 412.755 134.683L412.894 134.814C412.206 134.888 411.515 134.921 410.823 134.912C410.321 134.941 409.827 135.045 409.356 135.221C408.956 135.099 408.997 134.952 409.127 134.806C409.495 134.852 409.865 134.876 410.236 134.879C411.334 134.679 412.446 134.567 413.562 134.545C414.076 134.219 412.747 134.586 412.168 134.471C412.168 134.471 412.233 134.471 412.274 134.471H412.127C412.56 134.471 413.261 134.382 413.375 134.211C412.657 134.211 412.853 134.537 411.964 134.398C411.415 134.411 410.866 134.348 410.334 134.211C409.868 134.479 409.329 134.596 408.793 134.545L409.266 134.357C408.035 134.357 408.687 134.626 407.554 134.618C407.954 134.618 407.171 134.798 407.929 134.806C407.328 134.903 406.717 134.922 406.111 134.863C405.948 134.863 406.111 134.928 406.046 134.985C406.731 135.115 407.13 134.863 407.676 135.05L408.149 134.855C408.785 134.92 408.85 135.083 408.467 135.156C408.621 135.136 408.778 135.136 408.932 135.156C409.038 135.45 408.166 135.05 407.945 135.303H408.394C408.589 135.499 407.35 135.474 406.763 135.458C406.176 135.442 405.516 135.336 405.467 135.197L406.348 135.14C405.804 135.107 405.258 135.126 404.717 135.197C404.669 135.189 404.619 135.189 404.57 135.197C404.473 135.192 404.377 135.173 404.285 135.14C403.837 135.14 403.176 135.213 402.761 135.14L402.818 135.262L402.867 135.189C403.282 135.189 403.837 135.27 403.527 135.368C403.299 135.416 403.064 135.417 402.836 135.372C402.608 135.327 402.391 135.237 402.198 135.107C402.41 134.912 403.095 135.107 403.568 135.042C403.282 134.855 402.63 135.042 401.668 134.895C402.051 134.692 402.777 134.895 402.989 134.708C402.223 134.708 402.019 134.822 401.212 134.773C401.309 134.675 402.1 134.667 402.027 134.545L401.587 134.496C402.867 134.496 401.367 134.243 402.361 134.194C401.888 134.113 401.701 134.365 401.032 134.235C401.22 134.325 401.758 134.488 401.114 134.561L400.388 134.504C400.087 134.406 401.146 134.284 400.674 134.202L399.915 134.268C399.915 134.333 400.307 134.365 400.079 134.447C399.638 134.382 399.361 134.683 398.848 134.773C398.551 134.795 398.253 134.765 397.967 134.683C396.932 134.871 395.619 134.863 394.665 135.034C395.318 134.912 394.665 134.822 394.25 134.732C395 134.732 395.008 134.512 394.959 134.39C394.502 134.39 394.201 134.61 394.429 134.675C393.671 134.594 393.907 134.806 393.239 134.675C392.807 134.61 393.451 134.488 393.304 134.414C392.489 134.414 393.084 134.651 392.187 134.602C392.236 134.602 392.318 134.602 392.252 134.537C391.877 134.489 391.496 134.537 391.144 134.675C390.63 134.431 389.701 134.675 389.799 134.463C388.633 134.529 389.97 134.594 389.742 134.683C389.201 134.759 388.652 134.759 388.111 134.683C388.382 134.664 388.655 134.664 388.926 134.683L388.682 134.512C387.231 134.39 387.761 134.895 386.367 134.749C387.084 134.659 386.603 134.626 386.962 134.504C386.742 134.504 385.649 134.504 386.309 134.626C385.788 134.626 385.421 134.626 385.054 134.553C384.635 134.589 384.22 134.663 383.815 134.773C383.266 134.757 382.72 134.686 382.184 134.561C380.635 134.683 379.209 134.48 377.578 134.61H377.693C376.429 134.61 378.255 134.838 376.943 134.83C377.114 134.618 376.127 134.692 375.728 134.577C374.097 134.471 372.94 134.732 371.448 134.577C371.448 134.529 371.562 134.48 371.847 134.471C370.714 134.406 369.801 134.471 368.774 134.471H368.823C367.212 134.389 365.596 134.416 363.989 134.553C364.127 134.553 364.168 134.447 364.274 134.423C363.33 134.337 362.379 134.375 361.445 134.537C360.434 134.333 360.777 134.594 359.472 134.398C359.399 134.398 359.603 134.398 359.684 134.398C359.048 134.325 358.592 134.349 357.94 134.325C356.801 134.547 355.643 134.653 354.483 134.643C354.402 134.365 355.51 134.577 355.543 134.349C355.187 134.409 354.823 134.409 354.467 134.349C354.744 134.243 354.524 134.284 354.72 134.178C354.24 134.209 353.766 134.299 353.309 134.447C353.309 134.496 353.407 134.529 353.741 134.52C352.929 134.608 352.112 134.636 351.296 134.602C351.557 134.602 352.38 134.667 352.07 134.798C351.327 134.798 350.588 134.908 349.877 135.124C348.874 134.993 350.611 134.887 350.423 134.692C350.252 134.618 349.853 134.455 350.277 134.382C349.491 134.391 348.707 134.448 347.929 134.553V134.496C346.846 134.613 345.757 134.665 344.668 134.651L345.165 134.716C344.811 134.727 344.459 134.77 344.114 134.846C344.114 134.749 343.413 134.667 343.714 134.594C343.217 134.887 341.179 134.773 340.616 135.058C340.323 134.977 340.559 134.863 340.616 134.789C341.05 134.87 341.495 134.87 341.929 134.789C341.342 134.789 340.918 134.716 341.008 134.651C340.421 134.838 339.018 134.912 338.725 135.091C338.301 135.001 337.91 134.952 338.04 134.798C336.239 134.895 338.929 135.27 336.899 135.27C335.97 135.124 337.804 135.067 336.524 135.018H336.76C335.839 134.618 336.116 135.303 335.065 135.287C334.926 135.067 335.798 135.132 335.065 134.977C334.297 135.141 333.517 135.244 332.733 135.287L332.888 135.189C332.277 135.189 331.086 135.189 330.442 135.189C330.442 135.148 330.508 135.189 330.622 135.14C329.497 135.058 330.149 135.254 329.228 135.14L328.967 135.246C329.607 135.365 330.261 135.384 330.907 135.303C330.32 135.425 331.828 135.58 331.535 135.768L331.649 135.686C333.452 135.962 335.271 136.122 337.095 136.167C338.317 135.947 339.182 136.257 340.494 136.102C340.698 135.849 340.739 136.053 341.864 136.004C341.268 136.004 341.798 136.192 342.173 136.224C342.422 136.166 342.676 136.13 342.932 136.118C343.641 136.291 344.376 136.33 345.1 136.232C345.785 136.314 344.937 136.314 344.79 136.371C345.067 136.501 345.353 136.265 345.605 136.371C345.605 136.371 345.605 136.371 345.516 136.371C346.567 136.371 347.195 136.428 348.288 136.461C348.385 136.208 349.364 136.363 349.853 136.273C349.698 136.355 350.464 136.371 350.774 136.412L351.361 136.232C351.94 136.069 352.176 136.338 352.918 136.232L352.739 136.183C353.586 136.153 354.435 136.224 355.266 136.395C360.328 135.906 363.092 136.664 368.423 136.534C368.774 136.461 368.171 136.412 368.423 136.298C368.97 136.298 369.092 136.298 369.581 136.298C369.149 136.224 369.214 136.298 369.271 136.241L368.521 136.314C368.521 136.314 368.562 136.314 368.521 136.249C368.232 136.29 367.941 136.309 367.649 136.306C368.048 136.172 368.468 136.114 368.888 136.135C368.79 136.165 368.689 136.181 368.587 136.183C368.901 136.165 369.217 136.165 369.532 136.183C370.021 136.183 369.899 136.183 369.964 136.241L371.464 136.346C372.099 136.219 372.753 136.219 373.388 136.346C373.225 136.51 372.394 136.395 372.019 136.558L372.565 136.681V136.542H373.339H373.29C373.346 136.505 373.409 136.481 373.476 136.471C373.542 136.461 373.609 136.466 373.674 136.485C373.674 136.485 373.788 136.542 373.674 136.542L374.228 136.477C373.902 136.607 374.709 136.477 374.627 136.673C376.429 136.746 376.918 136.461 378.5 136.673C378.247 136.599 379.005 136.428 379.486 136.452C379.771 136.493 379.845 136.526 379.665 136.591L380.301 136.51C381.209 136.66 382.129 136.717 383.049 136.681L382.991 136.746C383.504 136.643 384.027 136.602 384.549 136.624L384.426 136.762C385.241 136.86 385.038 136.477 385.918 136.567C385.918 136.412 385.356 136.338 385.274 136.2C385.478 136.347 386.424 136.371 386.203 136.265C387.084 136.2 386.815 136.265 386.888 136.265L387.402 136.175C388.021 136.175 387.597 136.363 387.402 136.452C388.018 136.358 388.645 136.358 389.261 136.452L388.992 136.518H389.856C390.539 136.4 391.236 136.378 391.926 136.452L391.421 136.648C391.934 136.746 391.682 136.583 391.82 136.542C392.29 136.467 392.772 136.521 393.214 136.697C394.502 136.493 395.774 137.015 396.875 136.697L397.013 136.811C398.513 136.567 400.274 136.917 401.432 136.575C403.258 136.982 402.63 136.208 404.301 136.575L404.244 136.518C409.763 136.583 415.608 136.795 420.761 136.599V136.681C429.068 136.819 437.155 136.681 445.388 136.681C446.155 136.607 445.69 136.428 446.35 136.338C446.636 136.338 447.288 136.338 447.296 136.436C446.734 136.485 447.052 136.575 446.856 136.615C447.839 136.673 448.824 136.673 449.807 136.615L449.114 136.485C449.486 136.457 449.859 136.457 450.231 136.485C450.109 136.55 450.533 136.689 450.28 136.721C452.024 136.404 451.641 136.86 453.109 136.721C453.394 136.452 455.236 136.224 456.443 136.029L457.079 136.102C456.264 136.102 457.079 136.306 456.043 136.289C456.924 136.371 457.731 136.249 458.554 136.289C458.399 136.216 458.44 136.126 458.766 136.094C459.28 136.094 459.321 136.273 459.899 136.289L459.329 136.371C459.688 136.416 460.052 136.4 460.405 136.322C460.519 136.436 461.383 136.461 461.22 136.583C461.995 136.428 462.272 136.518 463.111 136.42C462.239 136.298 463.34 136.265 463.242 136.175H462.255C463.641 136.249 461.807 136.175 461.905 136.395C461.253 136.306 462.802 136.069 461.709 136.102C463.014 136.004 463.291 136.102 464.628 135.931C463.812 135.931 464.783 135.8 464.351 135.743C465.378 135.743 464.603 135.808 464.921 135.931C465.342 136.001 465.772 136.001 466.193 135.931C467.098 135.988 466.062 136.077 466.519 136.151C466.185 136.289 464 135.988 464.253 136.42C463.78 136.42 463.201 136.583 462.524 136.575C463.244 136.691 463.974 136.727 464.701 136.681V136.436C465.255 136.436 465.37 136.265 465.777 136.289C465.565 136.355 465.948 136.461 466.397 136.436C466.266 136.436 466.087 136.436 466.136 136.371C466.951 136.371 467.082 136.183 468.068 136.143C467.253 136.077 467.082 136.004 466.323 135.898C466.527 135.727 466.861 135.898 467.31 135.898C467.245 135.898 467.147 135.898 467.31 135.955L467.791 135.874C468.802 135.947 467.66 136.118 468.5 136.2C469.079 136.347 469.315 136.126 469.731 136.2L469.649 136.151H469.87C470.298 136.182 470.729 136.135 471.141 136.012C471.198 136.069 471.606 136.012 471.785 135.963C472.266 135.832 472.772 135.832 473.253 135.963C473.921 135.963 474.443 136.053 474.304 136.118L475.38 136.167L475.266 136.338C475.802 136.321 476.33 136.217 476.832 136.029C477.646 136.1 478.466 136.084 479.277 135.98C479.41 135.988 479.544 135.988 479.677 135.98L479.261 135.914C480.035 135.914 479.938 135.833 480.443 135.833C480.337 135.833 480.329 135.833 480.606 135.833H480.443H480.647H480.932C480.849 135.848 480.763 135.848 480.679 135.833L480.777 135.882C481.389 136.061 481.715 135.784 482.408 135.882H482.171C482.538 135.882 483.076 136.159 483.223 136.012C483.339 136.025 483.456 136.011 483.565 135.971H483.842H483.573C483.745 135.923 483.9 135.865 483.924 135.898H484.87C485.075 135.922 485.283 135.922 485.489 135.898L485.644 135.971C485.995 135.971 485.995 135.971 485.954 136.02C487.152 136.257 487.804 135.898 489.092 136.102C489.345 135.988 488.807 135.939 488.766 135.874C489.199 135.771 489.637 135.695 490.079 135.645C490.65 135.8 492.419 135.939 492.133 136.167C493.201 136.167 491.799 136.029 492.337 135.947H492.459C492.163 135.928 491.871 135.862 491.595 135.751C491.514 135.629 492.459 135.596 492.745 135.629L492.541 135.8C493.519 135.743 493.315 135.482 493.927 135.303C494.742 135.376 494.261 135.531 494.424 135.686H495.239V135.817C495.699 135.733 496.166 135.697 496.633 135.711C496.103 135.833 497.742 135.833 497.008 136.004C497.416 136.004 497.538 135.792 497.742 135.963C498.027 135.825 497.375 135.898 497.171 135.849C497 135.654 498.068 135.751 498.565 135.702C498.606 135.808 498.231 135.825 498.818 135.898C499.075 135.783 499.365 135.765 499.633 135.849C499.633 135.719 500.285 135.849 500.62 135.849C500.245 135.849 499.715 135.727 499.951 135.613C500.347 135.546 500.749 135.527 501.15 135.556L500.693 135.49C501.264 135.295 501.639 135.629 502.421 135.572C502.147 135.614 501.874 135.671 501.606 135.743C501.973 135.678 502.674 135.588 503.237 135.523L503.889 135.719C503.97 135.621 504.631 135.719 504.631 135.596C505.446 135.678 503.97 135.751 503.889 135.849C504.916 135.931 504.704 135.629 505.699 135.849L505.372 135.971C505.714 135.942 506.058 135.942 506.4 135.971C506.4 135.923 506.228 135.971 506.025 135.971C506.228 135.711 507.541 135.792 507.419 135.523H506.97C507.536 135.41 508.114 135.364 508.69 135.385C509.098 135.474 508.397 135.572 508.161 135.637C508.813 135.637 508.69 135.344 509.465 135.368C509.049 135.221 509.131 135.124 509.375 135.05ZM477.166 135.865C477.237 135.886 477.3 135.929 477.345 135.988C477.105 136.004 476.865 135.953 476.652 135.841C477.019 135.645 478.935 135.963 478.568 135.841C479.383 135.768 479.147 135.841 479.212 135.914C478.372 135.89 477.908 135.955 477.166 135.89V135.865ZM485.62 135.865H485.506C485.775 135.865 485.929 135.841 485.62 135.931V135.865ZM494.359 134.887H494.465H494.359Z" fill="white"/>
<path d="M492.002 116.871C492.182 116.871 491.953 117.156 492.002 117.213L492.067 117.156C491.97 117.441 492.206 117.441 492.23 117.637V117.58C492.281 117.564 492.335 117.564 492.385 117.58C492.385 117.58 492.239 117.702 492.296 117.71C492.308 117.675 492.328 117.641 492.353 117.613C492.287 117.873 492.524 118.028 492.597 118.265C492.858 118.428 492.964 118.778 493.201 118.941C493.201 118.941 493.339 118.778 493.323 118.835C493.127 119.162 493.478 118.901 493.323 119.145C493.527 119.145 493.412 119.512 493.722 119.422L493.649 119.504C493.649 119.553 493.69 119.504 493.714 119.504C493.714 119.569 493.853 119.504 493.845 119.61L493.926 119.528C493.926 119.528 493.877 119.602 493.926 119.577H493.877L493.991 119.528C493.845 119.675 494.048 119.61 493.991 119.7C493.934 119.789 494.171 119.7 494.195 119.781C494.22 119.863 494.195 119.92 494.195 119.993C494.309 120.054 494.407 120.14 494.48 120.246L494.57 120.156H494.529C494.44 120.278 494.619 120.156 494.57 120.262C494.643 120.164 494.57 120.262 494.57 120.262C494.57 120.262 494.709 120.124 494.684 120.197H494.749C494.676 120.278 494.66 120.327 494.586 120.401C494.684 120.466 494.872 120.401 494.913 120.507C494.823 120.58 494.994 120.507 494.839 120.678C494.929 120.678 494.953 120.58 495.035 120.507C495.038 120.534 495.038 120.561 495.035 120.588C495.025 120.627 495.002 120.662 494.97 120.686H494.864H494.986C494.986 120.686 494.986 120.759 494.986 120.768C494.986 120.776 494.676 120.768 494.668 120.955C494.79 121.191 494.472 120.841 494.546 121.02L494.505 120.955C494.497 121.071 494.511 121.187 494.546 121.297C494.374 121.11 494.546 121.297 494.423 121.24L494.489 121.314C494.432 121.314 494.391 121.314 494.342 121.249L494.407 121.363L494.326 121.289C494.285 121.289 494.277 121.452 494.105 121.289C494.105 121.485 493.967 121.583 493.828 121.664C493.844 121.685 493.853 121.711 493.853 121.738C493.853 121.764 493.844 121.79 493.828 121.811L493.714 121.746C493.714 121.795 493.804 121.933 493.714 121.901C493.714 121.901 493.633 121.901 493.714 122.023C493.796 122.145 493.608 122.023 493.535 121.941C493.682 122.088 493.453 121.941 493.453 121.941C493.453 121.941 491.684 123.009 492.124 124.143C492.19 124.232 492.198 124.306 492.296 124.379C492.393 124.452 492.165 124.314 492.23 124.379C492.296 124.444 492.402 124.575 492.524 124.632V124.672C492.573 124.721 492.524 124.583 492.581 124.672L492.451 124.534C492.499 124.537 492.546 124.557 492.581 124.591C492.54 124.526 492.369 124.33 492.491 124.371C492.491 124.371 492.597 124.436 492.622 124.452L492.72 124.501C492.654 124.501 492.72 124.615 492.72 124.591C492.72 124.566 492.679 124.591 492.72 124.526C492.76 124.461 492.801 124.575 492.842 124.615C492.907 124.672 492.842 124.615 492.899 124.681V124.575C493.07 124.73 492.899 124.461 493.037 124.575C493.037 124.64 493.095 124.624 493.135 124.681L493.201 124.599C493.201 124.599 493.201 124.664 493.201 124.648C493.201 124.632 493.201 124.591 493.201 124.583C493.201 124.575 493.249 124.526 493.347 124.632C493.445 124.738 493.241 124.485 493.347 124.501C493.453 124.518 493.347 124.55 493.413 124.591V124.526C493.413 124.526 493.51 124.64 493.478 124.64C493.682 124.64 494.089 124.868 494.114 124.64C494.203 124.697 494.154 124.705 494.195 124.762C494.195 124.583 494.472 124.811 494.529 124.762L494.472 124.697C494.766 124.795 494.766 124.558 494.953 124.534H494.896C494.855 124.461 494.896 124.428 494.855 124.379C494.815 124.33 494.978 124.526 494.986 124.469C494.952 124.458 494.921 124.438 494.896 124.412C495.149 124.477 495.312 124.24 495.54 124.167C495.703 123.906 496.054 123.808 496.217 123.564C496.217 123.564 496.054 123.433 496.111 123.441C496.437 123.637 496.176 123.287 496.421 123.441C496.421 123.238 496.796 123.352 496.706 123.042L496.779 123.115C496.828 123.115 496.779 123.075 496.779 123.05C496.853 123.05 496.828 122.912 496.885 122.92L496.804 122.838C496.804 122.838 496.877 122.887 496.861 122.838L496.902 122.887L496.853 122.773C496.991 122.928 496.926 122.716 497.016 122.773C497.105 122.83 497.016 122.594 497.097 122.569C497.179 122.545 497.236 122.569 497.309 122.569L497.456 122.382L497.57 122.276C497.57 122.276 497.668 122.137 497.741 122.113C497.815 122.088 497.635 122.243 497.692 122.202C497.749 122.162 497.831 122.088 497.831 122.202C497.831 122.316 497.79 122.202 497.831 122.202C497.872 122.202 497.921 122.251 497.79 122.398C497.66 122.545 497.717 122.463 497.717 122.439C497.595 122.504 497.774 122.439 497.635 122.545C497.709 122.471 497.733 122.545 497.733 122.545L497.815 122.455C498.124 122.259 497.643 122.618 497.733 122.643C497.823 122.667 497.733 122.602 497.823 122.569C497.912 122.537 497.766 122.691 497.823 122.683C497.789 122.761 497.742 122.833 497.684 122.895C497.741 122.895 497.684 123.001 497.807 122.895C497.929 122.789 497.676 122.96 497.749 122.789L497.855 122.708C497.855 122.749 497.961 122.708 497.953 122.789C497.97 122.766 497.989 122.744 498.01 122.724C498.084 122.724 498.19 122.659 498.206 122.724C498.222 122.789 498.116 122.773 498.092 122.724C498.067 122.675 498.092 122.724 498.092 122.822C498.092 122.92 498.092 122.822 497.994 122.822H498.059C498.19 122.708 498.059 122.871 498.141 122.822C498.222 122.773 498.385 122.732 498.524 122.667C498.503 122.709 498.472 122.745 498.434 122.773C498.434 122.708 498.434 122.773 498.393 122.773C498.353 122.773 498.32 122.944 498.263 122.985C498.206 123.026 498.312 122.903 498.369 122.887L498.41 122.944C498.467 122.879 498.467 122.846 498.54 122.822C498.614 122.797 498.54 122.822 498.597 122.879C498.654 122.936 498.508 122.985 498.491 122.96C498.475 122.936 498.491 123.026 498.573 122.96C498.654 122.895 498.671 122.96 498.752 122.838V122.92C498.752 122.92 498.703 122.92 498.711 122.92C498.72 122.92 498.76 122.92 498.777 122.92C498.793 122.92 498.777 122.985 498.777 123.018C498.777 123.05 498.777 123.018 498.777 123.099C498.777 123.181 498.842 123.042 498.874 123.018L498.915 123.075C498.846 123.15 498.773 123.221 498.695 123.287C498.76 123.287 498.858 123.14 498.883 123.172C498.76 123.262 498.834 123.287 498.695 123.384C498.557 123.482 498.695 123.523 498.695 123.523C498.695 123.523 498.695 123.45 498.801 123.36C498.899 123.36 499.135 123.181 499.152 123.27V123.23C499.208 123.227 499.262 123.207 499.307 123.172C499.192 123.27 499.062 123.49 499.135 123.515C499.209 123.539 499.209 123.393 499.298 123.319H499.347H499.307C499.372 123.319 499.225 123.515 499.355 123.401L499.233 123.588L499.29 123.507C499.347 123.458 499.396 123.507 499.421 123.466C499.445 123.425 499.486 123.507 499.421 123.588C499.421 123.539 499.535 123.425 499.584 123.441C499.413 123.605 499.584 123.564 499.494 123.645C499.404 123.727 499.494 123.727 499.543 123.645L499.437 123.751C499.584 123.605 499.616 123.653 499.673 123.662C499.47 123.849 499.73 123.662 499.559 123.874C499.698 123.743 499.673 123.874 499.788 123.768C499.902 123.662 499.698 123.906 499.657 123.955H499.722C499.665 124.028 499.722 124.085 499.722 124.151L499.861 124.061L499.82 124.126C499.82 124.126 499.894 124.126 499.926 124.045C500.057 123.922 499.975 124.045 500.057 124.004C500.043 124.033 500.02 124.056 499.991 124.069C499.991 124.069 499.926 124.151 499.893 124.2C499.861 124.249 500.179 124.012 500.195 123.922C500.211 123.833 500.309 123.849 500.301 123.882L500.187 124.012L500.326 123.906C500.366 123.906 500.326 123.988 500.326 124.02C500.326 124.053 500.065 124.208 500.114 124.249C500.163 124.289 499.999 124.249 499.959 124.306C499.918 124.363 499.959 124.306 499.893 124.371C499.967 124.371 499.983 124.314 500.032 124.371C499.926 124.477 499.902 124.518 499.893 124.583L499.951 124.485C499.951 124.485 499.951 124.444 499.999 124.403C500.048 124.363 500.171 124.314 500.114 124.403C500.244 124.2 500.301 124.338 500.374 124.216C500.448 124.094 500.44 124.216 500.374 124.265C500.309 124.314 500.277 124.403 500.203 124.469C500.13 124.534 500.252 124.371 500.309 124.346C500.366 124.322 500.309 124.436 500.26 124.477V124.558C500.317 124.509 500.326 124.436 500.374 124.436C500.423 124.436 500.374 124.436 500.374 124.501C500.374 124.566 500.211 124.664 500.171 124.664C500.13 124.664 500.26 124.721 500.334 124.599C500.334 124.542 500.415 124.428 500.464 124.452L500.57 124.403V124.469C500.57 124.469 500.627 124.42 500.635 124.469C500.644 124.518 500.635 124.526 500.562 124.566C500.489 124.607 500.643 124.566 500.684 124.509C500.725 124.452 500.684 124.509 500.619 124.599C500.554 124.689 500.684 124.664 500.619 124.738C500.554 124.811 500.619 124.738 500.717 124.656C500.562 124.868 500.758 124.835 500.831 124.86C500.978 124.689 500.831 124.86 501.019 124.721C500.953 124.721 500.945 124.901 500.855 124.893H500.896C500.831 124.999 500.782 124.893 500.692 125.056C500.692 125.056 500.929 124.933 500.904 125.056C500.88 125.178 500.97 125.056 500.839 125.162C500.709 125.268 500.79 125.162 500.774 125.162C500.774 125.268 500.929 125.047 501.035 125.007C501.141 124.966 500.986 125.129 500.929 125.186C500.872 125.243 500.929 125.186 500.994 125.186C500.904 125.186 500.994 125.064 501.1 125.007C500.994 125.153 501.157 125.08 501.214 125.007C501.288 124.811 501.214 124.958 501.271 124.754C501.222 124.754 501.108 124.909 501.124 124.827C501.141 124.746 501.182 124.762 501.198 124.738C501.214 124.713 501.149 124.738 501.108 124.738C501.067 124.738 501.279 124.607 501.271 124.55L501.108 124.697C501.108 124.656 501.23 124.591 501.165 124.599C501.263 124.534 501.288 124.469 501.353 124.477C501.442 124.297 501.206 124.477 501.116 124.477H501.165C501.116 124.477 501.108 124.477 501.084 124.477C501.059 124.477 501.173 124.42 501.214 124.371H501.173C501.173 124.371 501.116 124.371 501.173 124.371C501.233 124.337 501.29 124.298 501.345 124.257L501.198 124.322C501.247 124.273 501.247 124.2 501.312 124.191H501.239L501.336 124.085C501.329 124.085 501.322 124.087 501.316 124.09C501.309 124.093 501.303 124.097 501.299 124.103C501.294 124.108 501.291 124.114 501.289 124.121C501.287 124.128 501.286 124.135 501.288 124.143C501.288 124.094 501.01 124.232 501.23 124.037C501.1 124.037 501.116 124.037 501.002 124.037C501.149 123.988 501.076 123.865 501.165 123.865C501.255 123.865 501.067 123.865 501.027 123.865C501.074 123.785 501.145 123.722 501.23 123.686H501.157H501.076C501.076 123.605 501.182 123.58 501.165 123.539L501.067 123.629V123.556C501.067 123.605 501.002 123.613 500.978 123.556H501.043C501.124 123.556 501.043 123.556 501.124 123.466C501.206 123.376 501.124 123.466 501.059 123.466L501.002 123.531C500.904 123.531 501.092 123.441 501.067 123.401L500.994 123.474C501.067 123.303 500.839 123.474 500.88 123.344C500.921 123.213 501.002 123.254 500.978 123.278C500.953 123.303 500.888 123.197 500.766 123.278C500.835 123.216 500.883 123.133 500.904 123.042C500.904 123.042 500.904 123.042 500.79 123.091C500.79 123.026 500.701 123.042 500.79 122.96C500.717 123.018 500.79 122.96 500.717 122.96V122.92L500.644 123.001C500.766 122.789 500.48 123.001 500.586 122.83L500.684 122.74L500.619 122.643L500.578 122.716C500.578 122.716 500.472 122.765 500.497 122.716C500.521 122.667 500.497 122.716 500.554 122.594H500.603C500.603 122.594 500.603 122.594 500.497 122.651C500.391 122.708 500.611 122.488 500.497 122.537C500.497 122.585 500.391 122.634 500.374 122.618C500.358 122.602 500.374 122.561 500.423 122.561C500.472 122.561 500.374 122.488 500.334 122.504C500.352 122.465 500.384 122.433 500.423 122.414C500.309 122.414 500.423 122.414 500.301 122.414H500.342H500.277L500.334 122.3L500.293 122.365H500.228L500.301 122.316C500.22 122.316 500.35 122.153 500.211 122.194C500.211 122.194 500.252 122.194 500.26 122.194C500.122 122.243 500.342 122.047 500.179 122.129L500.244 122.064H500.179L500.268 121.982L500.13 122.088L500.203 121.99H500.154C500.293 121.811 500.154 121.901 500.236 121.754L500.13 121.86C499.845 122.007 500.089 121.575 499.902 121.583L499.983 121.501L499.853 121.558C499.894 121.477 499.934 121.501 499.967 121.452C499.999 121.403 499.828 121.558 499.763 121.542C499.698 121.526 499.828 121.485 499.869 121.469C499.91 121.452 499.682 121.469 499.698 121.371C499.633 121.371 499.633 121.297 499.592 121.273C499.551 121.249 499.649 121.273 499.665 121.273C499.682 121.273 499.665 121.216 499.616 121.273L499.706 121.216C499.706 121.175 499.584 121.216 499.665 121.11C499.747 121.004 499.567 121.2 499.551 121.175C499.665 121.037 499.445 121.175 499.478 121.069C499.51 120.963 499.543 121.069 499.535 121.069C499.527 121.069 499.478 121.069 499.429 121.069L499.478 121.02H499.331C499.445 120.882 499.241 120.963 499.331 120.882C499.421 120.8 499.331 120.955 499.249 120.939C499.168 120.922 499.192 120.939 499.249 120.849L499.347 120.784C499.273 120.807 499.205 120.849 499.152 120.906C499.152 120.841 499.111 120.849 499.152 120.768C499.111 120.768 499.152 120.694 499.152 120.637C499.151 120.618 499.151 120.599 499.152 120.58C499.152 120.58 499.152 120.58 499.201 120.645L499.152 120.572C499.201 120.572 499.249 120.572 499.29 120.678L499.421 120.547C499.421 120.547 499.315 120.409 499.38 120.417C499.445 120.425 499.38 120.458 499.453 120.507C499.657 120.507 499.274 120.115 499.453 120.099C499.453 120.05 499.453 120.026 499.453 120.001C499.29 119.863 499.518 120.099 499.404 120.001C499.29 119.903 499.364 119.903 499.274 119.814C499.339 119.814 499.274 119.757 499.274 119.732C499.274 119.708 499.364 119.675 499.486 119.732C499.486 119.675 499.355 119.537 499.38 119.504C499.404 119.471 499.47 119.602 499.535 119.602L499.47 119.528C499.47 119.528 499.519 119.528 499.551 119.577C499.584 119.626 499.478 119.455 499.551 119.463L499.6 119.553C499.6 119.504 499.6 119.504 499.657 119.48C499.714 119.455 499.657 119.528 499.657 119.528C499.779 119.618 499.657 119.447 499.657 119.447C499.602 119.429 499.554 119.395 499.518 119.349C499.518 119.349 499.461 119.21 499.559 119.284L499.608 119.374C499.608 119.284 499.535 119.268 499.608 119.251C499.543 119.137 499.665 119.186 499.706 119.153C499.747 119.121 499.657 119.064 499.665 119.064C499.61 119.035 499.56 118.996 499.518 118.95C499.665 119.039 499.421 118.762 499.518 118.787C499.616 118.811 499.6 118.893 499.518 118.86C499.61 118.962 499.69 119.074 499.755 119.194C499.755 119.145 499.755 119.104 499.796 119.194L499.682 119.08C499.682 119.08 499.543 118.982 499.518 118.909C499.494 118.835 499.657 119.015 499.608 118.958C499.559 118.901 499.502 118.819 499.608 118.819C499.714 118.819 499.608 118.86 499.608 118.819C499.608 118.778 499.657 118.729 499.804 118.86C499.951 118.99 499.869 118.933 499.845 118.933C499.918 119.056 499.845 118.876 499.959 119.015C499.877 118.941 499.959 118.917 499.959 118.917L499.869 118.835C499.673 118.526 500.032 119.007 500.057 118.917C500.081 118.827 500.016 118.917 499.983 118.827C499.951 118.738 500.105 118.884 500.105 118.827C500.18 118.864 500.248 118.91 500.309 118.966C500.309 118.909 500.415 118.966 500.309 118.844C500.203 118.721 500.374 118.974 500.211 118.901L500.13 118.795C500.13 118.795 500.13 118.689 500.211 118.697C500.186 118.682 500.164 118.663 500.146 118.64C500.146 118.566 500.073 118.46 500.146 118.444C500.22 118.428 500.203 118.534 500.187 118.558C500.171 118.583 500.187 118.558 500.293 118.558C500.399 118.558 500.293 118.558 500.293 118.656V118.591C500.171 118.46 500.334 118.591 500.293 118.509C500.252 118.428 500.203 118.265 500.146 118.134C500.186 118.152 500.219 118.18 500.244 118.216C500.179 118.216 500.244 118.216 500.244 118.216C500.244 118.216 500.407 118.289 500.448 118.354C500.448 118.281 500.366 118.297 500.35 118.24L500.407 118.2C500.342 118.143 500.309 118.143 500.285 118.069C500.26 117.996 500.285 118.069 500.35 118.012C500.415 117.955 500.448 118.102 500.423 118.118C500.399 118.134 500.489 118.118 500.423 118.037C500.358 117.955 500.423 117.939 500.301 117.857H500.391C500.391 117.857 500.391 117.906 500.391 117.898C500.497 117.988 500.391 117.849 500.391 117.833C500.391 117.816 500.456 117.833 500.497 117.833C500.538 117.833 500.497 117.833 500.578 117.833C500.66 117.833 500.513 117.768 500.489 117.735H500.546L500.766 117.955C500.766 117.89 500.611 117.792 500.644 117.768C500.733 117.89 500.758 117.816 500.864 117.955C500.97 118.094 500.994 117.955 500.994 117.955C500.994 117.955 500.921 117.955 500.839 117.849C500.88 117.751 500.652 117.515 500.741 117.507C500.735 117.45 500.712 117.396 500.676 117.352C500.774 117.466 500.994 117.596 501.027 117.523C501.059 117.45 500.896 117.45 500.823 117.36V117.311C500.828 117.327 500.828 117.344 500.823 117.36C500.823 117.287 501.018 117.433 500.904 117.303L501.092 117.425L501.01 117.368C500.97 117.311 501.01 117.262 500.97 117.238C500.929 117.213 501.01 117.172 501.092 117.238C501.043 117.238 500.937 117.124 500.945 117.075C501.116 117.246 501.067 117.075 501.157 117.164C501.247 117.254 501.239 117.164 501.157 117.115L501.263 117.221C501.116 117.075 501.165 117.042 501.173 116.985C501.361 117.189 501.173 116.928 501.385 117.099C501.255 116.96 501.385 116.985 501.279 116.871C501.279 116.871 501.426 116.969 501.475 117.001L501.434 116.936C501.508 116.993 501.565 116.936 501.638 116.936L501.54 116.797L501.605 116.838C501.605 116.838 501.605 116.765 501.524 116.732C501.394 116.602 501.524 116.683 501.475 116.602C501.506 116.614 501.532 116.637 501.548 116.667C501.548 116.667 501.622 116.732 501.671 116.765C501.72 116.797 501.491 116.479 501.393 116.463C501.296 116.447 501.32 116.349 501.393 116.365L501.516 116.471L501.41 116.333C501.41 116.292 501.499 116.333 501.524 116.333C501.548 116.333 501.711 116.594 501.752 116.545C501.793 116.496 501.801 116.659 501.809 116.7C501.817 116.74 501.809 116.7 501.874 116.765C501.874 116.691 501.817 116.675 501.834 116.626C501.94 116.732 501.98 116.757 502.046 116.765L501.948 116.708C501.948 116.708 501.907 116.708 501.866 116.659C501.826 116.61 501.777 116.488 501.866 116.545C501.671 116.414 501.801 116.357 501.679 116.284C501.557 116.21 501.679 116.219 501.728 116.284C501.777 116.349 501.866 116.382 501.94 116.455C502.013 116.528 501.834 116.406 501.809 116.349C501.785 116.292 501.899 116.349 501.94 116.398H502.013C501.964 116.341 501.899 116.333 501.891 116.284C501.883 116.235 501.891 116.284 501.964 116.284C502.038 116.284 502.127 116.447 502.119 116.488C502.111 116.528 502.176 116.398 502.054 116.325C501.997 116.325 501.883 116.251 501.907 116.194L501.858 116.088H501.923C501.923 116.088 501.874 116.031 501.923 116.023C501.972 116.015 501.98 116.023 502.021 116.096C502.062 116.17 502.021 116.015 501.964 115.974C501.907 115.933 502.005 115.974 502.054 116.039C502.103 116.104 502.119 115.974 502.192 116.039C502.266 116.104 502.192 116.039 502.111 115.941C502.323 116.096 502.29 115.941 502.323 115.827C502.144 115.681 502.323 115.827 502.184 115.64C502.184 115.705 502.355 115.713 502.355 115.803V115.762C502.461 115.827 502.355 115.876 502.527 115.966C502.527 115.966 502.396 115.729 502.527 115.754C502.657 115.778 502.527 115.689 502.633 115.819C502.739 115.95 502.633 115.868 502.633 115.884C502.739 115.884 502.527 115.729 502.486 115.623C502.445 115.518 502.608 115.672 502.657 115.729C502.706 115.787 502.657 115.729 502.657 115.664C502.698 115.754 502.543 115.664 502.478 115.558C502.624 115.664 502.551 115.501 502.478 115.444C502.282 115.371 502.429 115.444 502.233 115.387C502.233 115.436 502.38 115.55 502.298 115.534C502.217 115.518 502.233 115.477 502.209 115.46C502.184 115.444 502.209 115.509 502.209 115.55C502.209 115.591 502.07 115.379 502.013 115.387L502.16 115.55C502.16 115.55 502.054 115.428 502.062 115.493C501.997 115.395 501.932 115.371 501.94 115.306C501.76 115.216 501.94 115.452 501.94 115.542V115.493C501.94 115.542 501.94 115.55 501.94 115.575C501.94 115.599 501.891 115.485 501.842 115.444L501.801 115.493C501.801 115.493 501.801 115.55 501.801 115.493L501.679 115.322L501.744 115.477C501.703 115.42 501.622 115.42 501.614 115.354V115.428L501.499 115.33C501.499 115.33 501.499 115.387 501.557 115.379C501.614 115.371 501.646 115.656 501.451 115.436C501.491 115.566 501.451 115.55 501.451 115.664C501.402 115.518 501.279 115.591 501.279 115.501C501.279 115.412 501.32 115.599 501.279 115.64C501.2 115.595 501.139 115.522 501.108 115.436V115.509V115.591C501.035 115.591 501.002 115.485 500.961 115.501L501.051 115.599H500.978C501.027 115.599 501.035 115.664 501.027 115.689V115.729C500.986 115.648 500.986 115.729 500.929 115.648C500.872 115.566 500.929 115.648 500.888 115.713L500.961 115.77C500.961 115.868 500.864 115.681 500.823 115.705L500.896 115.778C500.725 115.705 500.896 115.933 500.766 115.893C500.635 115.852 500.676 115.77 500.701 115.795C500.725 115.819 500.627 115.884 500.701 116.007C500.586 115.909 500.554 115.884 500.472 115.868C500.391 115.852 500.472 115.868 500.472 115.982C500.472 116.096 500.423 116.072 500.342 115.982C500.399 116.056 500.342 115.982 500.342 116.056L500.415 116.129C500.211 116.007 500.415 116.292 500.252 116.186V116.235L500.171 116.137L500.073 116.202H500.146C500.146 116.202 500.195 116.308 500.146 116.284C500.097 116.259 500.146 116.284 500.024 116.227V116.178C500.024 116.178 500.024 116.178 500.081 116.284C500.138 116.39 499.926 116.17 499.975 116.284C500.024 116.284 500.065 116.39 500.048 116.406C500.032 116.422 499.991 116.406 499.991 116.357C499.991 116.308 499.926 116.406 499.942 116.447C499.9 116.431 499.865 116.398 499.845 116.357C499.845 116.471 499.804 116.357 499.845 116.48L499.804 116.439V116.504L499.69 116.447L499.755 116.488V116.553L499.698 116.48C499.698 116.561 499.535 116.431 499.576 116.569C499.576 116.569 499.576 116.528 499.576 116.52C499.633 116.659 499.437 116.439 499.51 116.602C499.51 116.602 499.461 116.602 499.445 116.537V116.602L499.364 116.512L499.47 116.651L499.372 116.577V116.626C499.192 116.488 499.282 116.626 499.135 116.545L499.241 116.651C499.388 116.936 498.956 116.691 498.964 116.879L498.883 116.797L498.948 116.928C498.858 116.928 498.883 116.846 498.834 116.814C498.785 116.781 498.948 116.952 498.923 117.018C498.899 117.083 498.866 116.952 498.85 116.912C498.834 116.871 498.85 117.099 498.752 117.083C498.752 117.148 498.687 117.148 498.663 117.189C498.638 117.23 498.663 117.132 498.663 117.115C498.663 117.099 498.605 117.115 498.663 117.164L498.597 117.075C498.557 117.075 498.597 117.197 498.491 117.075C498.385 116.952 498.589 117.172 498.565 117.189C498.426 117.075 498.565 117.295 498.459 117.262C498.353 117.229 498.459 117.197 498.459 117.205C498.459 117.213 498.459 117.262 498.459 117.311L498.41 117.262V117.409C498.271 117.295 498.361 117.498 498.271 117.409C498.182 117.319 498.353 117.409 498.328 117.49C498.304 117.572 498.328 117.547 498.239 117.49L498.173 117.393C498.198 117.471 498.243 117.541 498.304 117.596C498.23 117.596 498.247 117.596 498.157 117.596C498.157 117.686 497.839 117.466 497.929 117.645L497.88 117.572V117.727H497.839C497.782 117.727 497.749 117.825 497.709 117.882C497.709 118.004 497.619 117.882 497.619 117.979V117.931C497.684 118.045 497.423 117.89 497.521 117.931C497.539 117.996 497.57 118.056 497.611 118.11C497.611 118.159 497.546 118.11 497.489 118.061C497.432 118.012 497.489 118.159 497.448 118.159H497.407C497.407 118.159 497.407 118.224 497.407 118.249C497.456 118.379 497.236 118.175 497.407 118.387C497.358 118.387 497.35 118.387 497.268 118.346C497.277 118.428 497.277 118.51 497.268 118.591C497.22 118.591 497.268 118.591 497.211 118.591L497.268 118.501C497.22 118.501 497.22 118.575 497.171 118.607C497.122 118.64 497.04 118.607 497.065 118.607C497.008 118.607 497.122 118.469 497.065 118.452C497.008 118.436 497.016 118.452 496.902 118.55C496.836 118.55 496.975 118.452 496.975 118.428C496.975 118.403 496.893 118.428 496.975 118.322C496.771 118.485 496.975 118.167 496.796 118.322L496.853 118.208C496.853 118.208 496.714 118.338 496.673 118.338C496.716 118.271 496.765 118.208 496.82 118.151L496.649 118.297C496.698 118.012 496.437 117.971 496.453 117.71C496.364 117.71 496.217 117.71 496.176 117.605V117.499V117.613C496.176 117.613 496.103 117.613 496.095 117.613C496.086 117.613 496.095 117.303 495.907 117.295C495.671 117.417 496.021 117.099 495.842 117.172L495.907 117.124C495.791 117.119 495.675 117.135 495.565 117.172C495.752 117.001 495.524 117.172 495.622 117.05L495.548 117.115C495.548 117.058 495.548 117.009 495.614 116.969L495.499 117.026L495.573 116.952C495.573 116.912 495.41 116.895 495.573 116.732C495.377 116.732 495.279 116.585 495.198 116.455C495.178 116.47 495.154 116.478 495.129 116.478C495.103 116.478 495.079 116.47 495.059 116.455L495.116 116.341C495.067 116.341 494.929 116.431 494.961 116.341C494.921 116.341 494.961 116.268 494.839 116.341C494.717 116.414 494.839 116.235 494.921 116.162C494.774 116.3 494.921 116.08 494.921 116.08C494.921 116.08 493.853 114.303 492.72 114.751C492.629 114.79 492.549 114.849 492.483 114.922C492.426 114.922 492.548 114.784 492.483 114.857C492.418 114.931 492.287 115.028 492.23 115.151H492.19C492.141 115.151 492.279 115.151 492.19 115.208L492.328 115.077C492.324 115.126 492.304 115.172 492.271 115.208C492.336 115.208 492.532 114.996 492.491 115.118C492.491 115.118 492.426 115.224 492.41 115.257L492.369 115.346C492.369 115.281 492.247 115.346 492.271 115.346C492.296 115.346 492.271 115.306 492.336 115.346C492.402 115.387 492.287 115.428 492.247 115.469C492.19 115.526 492.247 115.469 492.182 115.517H492.287C492.133 115.681 492.402 115.518 492.287 115.648C492.222 115.648 492.239 115.705 492.182 115.754L492.263 115.811C492.263 115.811 492.198 115.811 492.214 115.811C492.23 115.811 492.271 115.811 492.279 115.811C492.287 115.811 492.336 115.868 492.23 115.966C492.124 116.064 492.377 115.852 492.361 115.966C492.345 116.08 492.312 115.966 492.271 116.031H492.336C492.336 116.031 492.222 116.121 492.222 116.096C492.222 116.3 491.994 116.7 492.222 116.732C492.076 116.887 492.076 116.838 492.002 116.871ZM497.782 122.268C497.823 122.268 497.872 122.268 497.864 122.268C497.855 122.268 497.758 122.341 497.79 122.268C497.788 122.268 497.785 122.268 497.782 122.268ZM497.578 122.414C497.578 122.414 497.578 122.414 497.578 122.357H497.619H497.66L497.48 122.496L497.578 122.414ZM497.179 118.738H497.22C497.197 118.766 497.165 118.786 497.13 118.795C497.151 118.778 497.17 118.759 497.187 118.738H497.179ZM495.157 120.507C495.157 120.507 495.157 120.507 495.108 120.507H495.157Z" fill="white"/>
<path d="M448.796 169.118H424.649V193.265H448.796V169.118Z" fill="white"/>
<path d="M381.19 169.118H357.043V193.265H381.19V169.118Z" fill="white"/>
<path d="M414.997 169.118H390.851V193.265H414.997V169.118Z" fill="white"/>
<path d="M381.19 200.481H357.043V224.628H381.19V200.481Z" fill="white"/>
<path d="M414.997 200.481H390.851V224.628H414.997V200.481Z" fill="white"/>
<path d="M448.796 200.481H424.649V224.628H448.796V200.481Z" fill="white"/>
<path d="M677.988 426.997H396.58C350.997 366.105 315.507 291.614 306.03 265.547C301.408 252.843 287.794 211.725 256.148 201.457C253.401 200.04 250.348 199.32 247.257 199.359C229.109 198.655 213.073 196.601 199.781 196.102L192.372 169.536L222.903 162.994C224.377 162.527 225.705 161.687 226.757 160.554C227.81 159.422 228.551 158.036 228.908 156.533C229.266 155.029 229.228 153.458 228.797 151.973C228.367 150.488 227.56 149.14 226.453 148.061C223.609 145.364 221.012 142.418 218.692 139.259C210.829 128.345 202.217 110.17 187.223 110.038C175.633 109.95 161.387 112.664 155.533 113.896C152.071 114.013 148.682 114.204 145.469 114.541C138.049 115.305 131.234 118.973 126.511 124.745C121.788 130.518 119.542 137.924 120.264 145.347V146.212C120.624 149.939 121.721 153.557 123.493 156.856C125.264 160.154 127.674 163.068 130.582 165.427C133.49 167.786 136.838 169.543 140.431 170.596C144.025 171.649 147.792 171.977 151.513 171.561L163.793 168.876L157.661 197.32C149.034 197.115 139.776 196.719 134.084 197.32C119.5 198.914 105.462 203.774 93.0161 211.541C80.5698 219.307 70.0351 229.779 62.1953 242.179L-2.15253 343.954L-179.307 217.388L-179.864 217.842L-203.235 194.503C-206.5 191.241 -210.386 188.667 -214.664 186.934L-243.361 175.375L-261.333 166.177C-266.649 163.461 -272.579 162.172 -278.542 162.436L-302.603 163.478L-364.398 91.9506L-358.06 85.8922C-353.801 81.8394 -351.175 76.3659 -350.68 70.5078C-350.186 64.6497 -351.856 58.8134 -355.375 54.1038L-377.089 25L-458 103.407C-453.599 105.95 -449.197 108.527 -444.796 111.138C-437.089 115.705 -429.528 120.292 -422.114 124.898C-417.808 127.551 -412.774 128.778 -407.729 128.404C-402.685 128.03 -397.887 126.074 -394.019 122.815L-383.852 114.263C-383.256 114.574 -382.644 114.853 -382.018 115.099L-383.162 116.566L-328.38 173.6C-328.501 174.181 -328.585 174.769 -328.63 175.36C-328.628 177.084 -328.284 178.79 -327.617 180.379C-326.95 181.969 -325.974 183.41 -324.746 184.619C-323.517 185.828 -322.061 186.782 -320.461 187.423C-318.861 188.065 -317.149 188.382 -315.426 188.357H-314.208L-277.413 226.673C-277.933 231.724 -276.563 236.788 -273.569 240.888C-271.528 243.691 -268.815 245.936 -265.68 247.417C-262.545 248.899 -259.088 249.569 -255.626 249.367L-239.635 266.016L-281.154 299.535L-54.8806 436.136C3.11441 471.166 78.891 447.094 105.813 384.896C113.662 366.794 121.232 347.607 128.318 327.334L129.184 327.26C135.935 339.571 146.507 349.353 159.304 355.132C168.54 359.157 178.6 360.932 188.657 360.312C198.714 359.693 208.479 356.696 217.152 351.567C225.637 346.42 232.741 339.286 237.853 330.781C251.791 358.931 256.295 377.723 259.332 393.155C251.928 387.554 243.843 382.915 235.271 379.351C210.33 369.303 179.946 373.117 177.701 373.483C162.414 375.537 126.895 380.979 103.935 410.435C95.8801 420.704 89.1168 430.752 84.598 440.17C16.9493 580.775 92.5497 736.489 107.236 765.446L-90.7809 1247.45L-52.0345 1248.51L-95.1089 1316.63L-160.689 1333.09C-169.535 1336.14 -177.603 1341.1 -184.324 1347.61C-192.933 1356.01 -199.03 1366.64 -201.93 1378.31H-76.858C-72.8479 1370.41 -68.8525 1362.51 -64.8717 1354.59C-62.5243 1349.68 -57.5361 1347.82 -54.2497 1349.36C-51.3155 1350.82 -50.6994 1354.65 -50.6407 1355.09C-53.438 1362.84 -56.2499 1370.58 -59.0766 1378.31L-39.2705 1386.62L25.5613 1250.63L204.388 1255.55C200.207 1246.04 181.31 1200.58 195.087 1145.98C205.356 1105.36 228.009 1082.16 236.841 1074C263.469 1131.42 290.097 1197.84 316.74 1255.25L396.61 1255.02C408.826 1277.64 421.052 1300.26 433.287 1322.89L373.957 1337.68C364.183 1339.46 355.264 1344.4 348.573 1351.74C341.882 1359.08 337.79 1368.42 336.927 1378.31C392.428 1378.7 425.923 1379.08 481.424 1379.46C482.128 1371.41 482.827 1363.36 483.521 1355.3C483.585 1354.33 483.942 1353.4 484.545 1352.64C485.147 1351.88 485.967 1351.32 486.896 1351.03L487.483 1350.91C488.515 1350.8 489.557 1350.99 490.479 1351.47C491.401 1351.95 492.16 1352.69 492.662 1353.6L505.381 1379.62L535.179 1379.83L483.83 1254.75L553.576 1254.55C548.852 1240.72 542.47 1220.97 533.873 1201.33C524.205 1179.21 513.759 1161.91 500.833 1141.49C484.695 1116.1 459.901 1079.02 424.543 1033.75C421.659 978.39 405.744 924.495 378.095 876.449C360.155 845.521 337.544 817.549 311.062 793.523C323.782 774.747 375.146 694.388 361.413 584.251C360.665 578.237 355.442 540.42 334.536 494.974C349.897 506.46 368.514 520.073 390.844 536.371C408.449 549.192 412.586 551.686 420.802 559.592C443.381 581.303 451.26 601.092 464.258 599.287C470.391 598.437 474.895 593.948 477.741 590.295L525.686 498.158C534.908 496.055 544.325 494.929 553.782 494.798C570.125 494.578 577.079 497.541 588.611 494.798C597.199 492.618 605.107 488.327 611.615 482.315L643.995 459.797L525.378 453.93H678.516C680.363 453.93 682.191 453.55 683.885 452.815C685.58 452.08 687.105 451.004 688.367 449.654C689.628 448.305 690.599 446.711 691.219 444.971C691.839 443.231 692.094 441.382 691.969 439.539C691.655 436.069 690.038 432.847 687.444 430.52C684.85 428.193 681.472 426.934 677.988 426.997ZM-269.27 190.983C-271.397 192.255 -273.051 194.187 -273.98 196.484L-281.462 187.829L-263.607 187.565L-269.27 190.983Z" fill="black"/>
<path d="M151.505 143.454C151.837 143.374 152.146 143.235 152.411 143.047C152.675 142.859 152.89 142.626 153.04 142.364C153.314 141.804 153.401 141.193 153.293 140.595C153.185 139.997 152.885 139.435 152.426 138.97C152.145 138.698 151.782 138.495 151.374 138.385C150.967 138.274 150.531 138.26 150.115 138.344C149.784 138.395 149.469 138.504 149.191 138.663C148.912 138.823 148.676 139.03 148.498 139.27C148.119 139.857 147.948 140.524 148.005 141.191C148.062 141.858 148.346 142.496 148.821 143.031C149.163 143.326 149.604 143.524 150.084 143.6C150.564 143.675 151.06 143.624 151.505 143.454Z" fill="white"/>
<path d="M124.758 146.662C125.095 146.565 125.409 146.398 125.678 146.172C125.947 145.946 126.165 145.665 126.318 145.348C126.595 144.672 126.683 143.933 126.573 143.21C126.463 142.487 126.159 141.807 125.693 141.243C125.439 140.957 125.121 140.735 124.765 140.596C124.409 140.456 124.024 140.402 123.643 140.439C123.262 140.476 122.896 140.602 122.573 140.807C122.25 141.013 121.98 141.292 121.785 141.621C121.401 142.326 121.228 143.126 121.286 143.927C121.345 144.728 121.632 145.495 122.114 146.137C122.456 146.472 122.888 146.7 123.357 146.793C123.827 146.886 124.313 146.841 124.758 146.662Z" fill="white"/>
<path d="M153.544 114.285V114.123C153.662 114.123 153.721 114.226 153.75 114.3C153.78 114.374 154.015 114.063 154.251 114.3H154.177C154.398 114.3 154.281 114.448 154.31 114.478L154.472 114.626C154.354 114.522 154.074 114.626 154.207 114.626C154.34 114.626 154.207 114.626 154.34 114.626C154.472 114.626 154.413 114.73 154.34 114.774H154.56C154.56 114.774 154.413 114.774 154.487 114.774H154.781C154.781 114.996 155.091 114.774 155.15 115.011C154.943 115.011 155.15 115.011 155.15 115.129L155.606 115.278C155.606 115.278 155.474 115.278 155.606 115.278C155.739 115.278 155.768 115.278 155.812 115.278C155.857 115.278 156.151 115.411 156.092 115.529C156.372 115.737 156.284 115.426 156.549 115.529C156.549 115.618 156.313 115.529 156.402 115.529L156.711 115.633C156.711 115.633 156.608 115.722 156.505 115.633C157.256 116.062 157.477 116.655 158.213 116.906C158.213 117.054 158.125 116.906 158.022 116.906C158.582 117.054 158.611 117.469 159.024 117.691C159.465 118.239 160.187 118.535 160.718 119.068V118.964C160.853 118.991 160.982 119.041 161.101 119.112C161.101 119.112 160.924 119.112 161.101 119.29C161.277 119.468 161.027 119.172 161.101 119.157C161.483 119.69 162.573 120.519 163.163 121.348C164.147 122.384 165.021 123.52 165.77 124.739C165.652 124.561 165.873 124.532 165.917 124.739C165.843 125.287 166.344 125.361 166.359 125.849C166.845 126.516 166.889 127.33 167.42 127.863H167.331C167.331 127.982 167.405 127.996 167.464 128.1C167.464 128.367 167.744 128.648 167.758 128.811H167.861C167.861 128.959 167.861 128.929 167.861 129.063L168.023 129.211C167.847 129.211 168.156 129.67 168.112 129.818C168.28 130.091 168.4 130.392 168.465 130.706C168.465 130.78 168.465 131.165 168.465 131.432C168.65 132.011 168.783 132.605 168.863 133.208H168.981V133.371C168.981 133.371 169.084 133.741 168.981 133.89C169.069 133.786 168.981 133.771 168.981 133.682C168.981 133.593 169.143 133.682 169.113 133.83L169.187 133.949C169.099 133.949 169.069 134.097 168.981 134.126L169.202 135.148C169.305 135.635 169.349 136.132 169.334 136.629C169.231 136.629 169.334 137.458 169.202 137.428C169.29 138.08 169.349 137.132 169.482 137.295C169.614 137.458 169.482 137.621 169.482 137.754C169.482 137.887 169.379 138.065 169.364 137.932C169.364 138.08 169.364 138.243 169.364 138.406C169.364 138.568 169.364 138.406 169.364 138.406V138.539C169.776 138.539 169.997 138.968 170.203 138.924C170.41 138.879 170.13 138.924 170.203 138.791C170.277 138.657 170.351 138.998 170.498 139.013C170.498 139.013 170.586 139.013 170.631 139.013C170.675 139.013 170.631 139.013 170.527 139.013C170.424 139.013 170.675 139.013 170.66 139.013H170.91C170.91 138.894 170.911 139.101 171.146 139.131C171.382 139.161 171.559 139.131 172.148 139.131C172.652 138.059 173.301 137.063 174.077 136.17C174.151 135.921 174.288 135.697 174.475 135.518L174.622 135.652L174.726 135.459C174.829 135.459 174.637 135.592 174.726 135.548V135.4C174.726 135.4 175.153 135.104 174.976 135.4L175.58 134.911C175.727 134.822 175.58 134.733 175.757 134.659C175.933 134.585 175.757 134.734 175.757 134.778C176.302 134.571 176.11 134.097 176.64 133.919C176.64 133.83 176.847 133.741 176.847 133.727C176.847 133.712 176.847 133.86 176.611 133.845C176.375 133.83 176.743 133.667 176.611 133.564C176.478 133.46 176.773 133.445 176.876 133.386C176.979 133.327 177.318 133.223 177.495 133.282C177.671 133.342 177.613 133.016 177.804 132.942C177.995 132.868 177.804 133.075 178.01 133.046V132.957C178.172 132.957 178.143 132.957 178.157 132.957C178.172 132.957 178.261 132.794 178.482 132.794L178.393 132.912C178.526 132.846 178.672 132.811 178.82 132.809C178.82 132.809 178.732 132.809 178.673 132.809C178.614 132.809 178.85 132.705 178.923 132.705C178.997 132.705 178.747 132.705 178.791 132.587C178.835 132.468 178.997 132.409 179.1 132.498L178.997 132.616C179.203 132.483 179.1 132.468 179.365 132.468C179.365 132.468 179.734 132.468 179.984 132.468C180.234 132.468 180.087 132.379 180.131 132.379C180.176 132.379 180.028 132.305 180.013 132.216C180.205 132.364 180.293 132.024 180.617 132.098C180.606 132.11 180.593 132.121 180.578 132.128C180.562 132.134 180.546 132.138 180.529 132.138C180.512 132.138 180.496 132.134 180.481 132.128C180.465 132.121 180.452 132.11 180.441 132.098C180.338 132.261 180.338 132.394 180.161 132.468C180.264 132.468 180.396 132.468 180.382 132.468V132.32H180.558C180.558 132.231 180.411 132.172 180.558 132.113C180.706 132.053 180.662 132.261 180.691 132.113C180.941 132.113 180.794 131.965 181.045 132.024C181.045 132.024 181.045 132.024 180.941 132.024C180.838 132.024 181.383 132.024 181.413 132.202C181.442 132.379 181.413 132.29 181.31 132.276C181.118 132.394 181.472 132.276 181.398 132.409C181.398 132.305 181.634 132.409 181.737 132.409V132.305C182.149 132.053 181.737 132.512 182.046 132.527C182.356 132.542 181.958 132.527 182.046 132.438C182.135 132.35 182.223 132.587 182.444 132.601C182.665 132.616 182.591 132.749 182.562 132.868C182.532 132.986 182.915 133.031 183.018 132.972C182.856 132.779 182.768 132.971 182.576 132.779L182.68 132.69C182.861 132.717 183.036 132.777 183.195 132.868C183.446 132.868 183.578 132.868 183.784 133.001C183.784 133.12 183.652 133.001 183.549 133.001C183.446 133.001 183.696 133.09 183.902 133.238C183.902 133.327 183.755 133.149 183.681 133.238L183.946 133.342C184.064 133.223 184.123 133.46 184.285 133.519C184.447 133.579 184.801 133.623 185.066 133.682C185.066 133.756 185.066 133.801 185.066 133.815C185.066 133.83 185.066 133.741 184.948 133.815C184.83 133.89 185.095 134.126 184.948 134.126C185.139 134.23 184.948 134.008 185.081 134.126L185.301 134.334C185.301 134.245 185.301 134.156 185.419 134.23C185.537 134.304 185.567 134.378 185.699 134.497C185.832 134.615 185.699 134.63 185.552 134.497C185.405 134.363 185.684 134.674 185.773 134.659C185.861 134.645 186.038 134.867 186.038 134.659V134.852C186.038 134.852 186.038 134.852 185.935 134.852C185.832 134.852 186.067 134.956 186.126 135C186.185 135.044 186.244 135.222 186.215 135.267C186.185 135.311 186.362 135.429 186.318 135.489C186.274 135.548 186.318 135.489 186.436 135.489C186.5 135.574 186.559 135.663 186.612 135.755C186.612 135.755 186.421 135.948 186.377 135.918C186.333 135.888 186.568 135.844 186.657 136.007C186.495 136.007 186.657 136.259 186.495 136.214C186.333 136.17 186.612 136.584 186.715 136.718C186.819 136.851 186.715 136.54 186.715 136.495C186.951 136.88 187.246 136.762 187.334 137.103V137.014C187.402 137.108 187.487 137.189 187.585 137.251C187.437 137.251 187.364 137.606 187.585 137.932C187.585 137.932 187.585 137.695 187.747 137.71L187.85 137.932C187.982 138.124 187.85 138.361 187.997 138.376L187.879 138.642V138.524C187.953 138.524 188.041 138.761 188.085 138.805C188.13 138.873 188.154 138.953 188.154 139.035C188.154 139.117 188.13 139.196 188.085 139.264C188.085 139.264 188.233 139.072 188.292 139.264C188.085 139.264 188.292 139.664 188.203 139.694C188.115 139.723 188.203 139.916 188.203 139.901H188.409C188.601 139.901 188.645 140.153 188.704 140.375C188.454 140.375 188.704 140.597 188.542 140.73C188.719 140.73 188.645 141.086 188.792 141.115C188.94 141.145 188.645 141.278 188.601 141.322V141.397C188.534 141.579 188.484 141.767 188.454 141.959L188.616 142.137C188.616 142.137 188.616 142.3 188.719 142.226V142.315C188.896 142.315 188.719 142.448 188.822 142.625C188.925 142.803 188.822 142.625 188.733 142.625C188.645 142.625 188.645 142.625 188.586 142.714C188.527 142.803 188.851 143.084 188.954 142.833C188.954 142.833 189.058 142.981 188.954 143.07H188.792L188.94 143.188C188.94 143.336 188.837 143.395 188.807 143.499C188.807 143.381 188.557 143.203 188.513 143.499C188.514 143.38 188.483 143.262 188.424 143.158C188.424 143.158 188.424 143.247 188.424 143.158C188.424 143.395 188.424 143.262 188.424 143.484C188.306 143.484 188.247 143.484 188.159 143.692L188.292 143.558C188.292 143.558 188.292 143.484 188.395 143.484C188.498 143.484 188.498 143.78 188.395 143.81C188.645 143.617 188.468 144.239 188.63 144.121C188.792 144.002 188.63 144.328 188.63 144.328C188.63 144.106 188.439 144.432 188.365 144.328C188.292 144.225 188.498 144.21 188.513 144.328C188.527 144.447 188.395 144.506 188.336 144.565L188.233 144.728C188.233 144.728 188.395 144.58 188.38 144.728C188.365 144.876 188.38 144.935 188.277 144.906C188.174 144.876 188.085 144.832 188.1 144.684C188.1 144.802 187.968 145.157 188.1 145.054V145.187C188.188 145.187 188.35 144.92 188.277 145.187V145.409H188.188C188.188 145.409 188.188 145.409 188.188 145.528C188.188 145.646 188.1 145.528 188.056 145.528C188.012 145.528 188.056 145.735 188.056 145.779C188.056 145.824 188.056 145.913 187.938 145.779C187.82 145.646 187.747 146.179 187.629 146.253C187.511 146.327 187.629 146.253 187.629 146.386C187.334 146.386 187.216 146.979 187.054 147.29C187.275 147.29 187.054 147.393 187.143 147.541C187.143 147.452 186.833 147.749 186.951 147.452L186.863 147.63C186.701 147.63 186.966 147.319 186.73 147.393C186.495 147.467 186.73 147.808 186.524 147.985C186.524 147.823 186.524 148.163 186.362 147.985C186.2 147.808 186.362 147.867 186.436 147.808C186.141 148.148 186.436 148.015 186.436 148.267C186.436 148.519 186.215 148.385 186.141 148.356C186.074 148.407 186.027 148.48 186.008 148.563C186.008 148.385 186.274 148.385 186.303 148.563C186.097 148.563 186.023 148.874 186.008 148.978C186.406 148.77 186.2 148.77 186.598 148.578C186.598 148.578 186.465 148.43 186.598 148.282C186.598 148.444 186.598 148.282 186.701 148.282C186.804 148.282 186.701 148.134 186.789 148.06C186.878 147.985 186.789 148.282 187.025 148.06L186.892 147.911C186.892 147.911 186.995 148.03 187.069 147.911C187.069 148.06 187.216 147.911 187.069 148.222C187.393 148.045 187.275 147.749 187.349 147.497C187.329 147.424 187.329 147.347 187.349 147.275C187.467 147.156 187.349 147.438 187.437 147.423L187.555 147.186C187.555 147.186 187.555 147.053 187.643 147.053C187.639 147.132 187.639 147.211 187.643 147.29V146.964C187.643 146.964 187.85 146.816 187.791 146.964L187.968 146.564H188.1C188.1 146.46 188.1 146.446 188.1 146.564C188.188 146.446 188.1 145.883 188.365 146.061C188.413 145.771 188.477 145.484 188.557 145.202C188.557 145.542 188.822 144.92 188.763 145.202C188.881 145.039 188.763 144.95 188.763 144.802C188.763 144.654 188.969 144.802 188.954 144.95V144.758V144.58C189.072 144.447 189.102 144.58 189.161 144.417H189.058L189.161 144.313C189.161 144.313 189.161 144.239 189.161 144.106V143.943C189.161 144.121 189.161 143.81 189.293 143.943C189.301 143.82 189.301 143.696 189.293 143.573H189.205C189.205 143.247 189.323 143.573 189.367 143.321H189.279C189.485 142.981 189.278 142.699 189.396 142.433C189.396 142.596 189.514 142.566 189.499 142.566C189.513 142.272 189.484 141.978 189.411 141.693C189.544 141.604 189.588 141.589 189.647 141.337C189.706 141.086 189.647 141.115 189.544 141.071C189.441 141.026 189.544 140.553 189.544 140.538C189.544 140.523 189.544 140.375 189.544 140.286C189.706 139.96 189.367 139.783 189.544 139.442V139.309C189.544 139.309 189.544 139.309 189.676 139.309L189.573 138.702V138.835C189.573 138.702 189.426 138.642 189.441 138.494C189.632 138.687 189.441 138.287 189.441 138.213L189.514 138.346C189.514 138.169 189.514 138.169 189.382 138.198C189.278 137.991 189.499 138.006 189.382 137.813V137.961C189.382 137.961 189.234 137.961 189.205 137.843C189.175 137.724 189.205 137.739 189.205 137.843C189.205 137.947 189.087 137.399 189.013 137.339C188.94 137.28 189.087 137.236 189.131 137.339C188.91 136.999 189.131 137.162 188.866 136.821L188.763 136.718V136.495V136.584C188.692 136.485 188.637 136.375 188.601 136.259H188.689C188.498 135.933 188.689 135.8 188.365 135.533C188.085 135.311 188.365 135.237 188.071 135.03L187.953 134.926H188.041H187.85V134.778C187.938 134.511 187.658 134.423 187.658 134.141L187.57 134.26C187.04 133.964 186.863 133.134 186.259 132.779H186.347L186.038 132.69C186.038 132.527 186.17 132.69 186.17 132.601C185.891 132.453 185.964 132.601 185.67 132.438C185.375 132.276 185.773 132.438 185.861 132.438C185.54 132.269 185.234 132.07 184.948 131.846C184.715 131.737 184.488 131.613 184.27 131.476C184.27 131.476 184.359 131.476 184.418 131.476C184.477 131.476 184.256 131.328 184.153 131.343H184.285C184.108 131.239 183.74 131.18 183.74 131.061C183.74 130.943 183.74 131.18 183.549 131.061C183.357 130.943 183.107 131.061 182.871 130.825C182.871 130.825 183.107 130.825 183.048 130.825C182.929 130.78 182.798 130.78 182.68 130.825H182.061C182.061 130.647 181.486 130.75 181.545 130.632C181.324 130.632 181.707 130.736 181.428 130.632C181.148 130.528 181.177 130.632 181.207 130.543H181.045L181.177 130.454C181.112 130.449 181.046 130.463 180.989 130.495C180.931 130.526 180.884 130.574 180.853 130.632C180.706 130.632 180.485 130.632 180.411 130.499C179.969 130.499 179.645 130.217 179.306 130.425H179.027V130.336L178.585 130.514C178.199 130.568 177.82 130.657 177.451 130.78C177.053 130.958 177.038 130.78 176.758 131.002L176.493 131.091V131.017C176.331 131.195 175.874 131.017 176.036 131.135C175.948 131.224 175.786 131.358 175.786 131.432C175.506 131.565 175.683 131.432 175.491 131.432C175.3 131.432 175.285 131.609 175.02 131.713C174.902 131.713 174.843 131.861 174.681 131.965C174.46 132.216 174.254 131.965 174.166 132.35C174.033 132.35 173.842 132.542 173.798 132.453C173.503 132.72 173.267 132.912 173.002 133.194C172.84 133.105 173.002 133.194 172.708 133.327C172.487 133.505 172.236 133.653 172 133.815L171.632 134.082L171.455 134.215V134.141V134.23H171.323C171.323 134.334 171.249 134.585 171.235 134.556C171.235 134.733 171.102 134.941 171.102 134.867C171.096 134.778 171.096 134.689 171.102 134.6C171.102 134.808 171.102 134.763 171.102 134.704V134.63V134.837C171.028 135.133 171.102 134.837 171.102 134.615L171.014 134.852V134.748V134.867L171.117 134.526L170.969 134.882C170.99 134.801 171.015 134.722 171.043 134.645V134.437V134.541C170.955 134.733 170.911 134.763 170.94 134.659C171.011 134.552 171.07 134.438 171.117 134.319L170.999 134.556L171.102 134.334C171.102 134.334 171.102 134.334 170.94 134.452C170.778 134.571 171.043 134.334 171.058 134.304C171.072 134.274 171.058 134.304 171.058 134.2C170.822 134.289 171.058 134.082 170.925 134.126C170.968 134.062 171.003 133.992 171.028 133.919C170.977 133.92 170.926 133.903 170.886 133.871C170.845 133.838 170.818 133.792 170.807 133.741C170.807 133.593 170.94 133.608 170.984 133.564L170.778 133.49C170.727 132.496 170.614 131.507 170.439 130.528C170.52 130.164 170.618 129.803 170.734 129.448L170.631 128.959V129.329C170.57 129.247 170.521 129.157 170.483 129.063C170.415 128.423 170.22 127.804 169.909 127.241C169.526 126.945 169.909 126.901 169.673 126.59C169.673 126.59 169.747 126.59 169.776 126.59C169.567 126.264 169.33 125.957 169.069 125.672C169.29 125.672 168.937 125.42 169.069 125.405H168.981C168.981 125.302 168.981 125.08 168.981 125.08L168.789 124.961H168.863C168.73 124.724 168.392 124.28 168.495 124.073C167.964 123.422 167.472 122.739 167.022 122.029C166.904 122.029 166.757 121.792 166.639 121.659V121.437C166.492 121.319 166.256 121.245 166.212 121.067C166.079 120.934 166.005 120.756 165.814 120.682C165.622 120.608 165.593 120.327 165.711 120.312C165.578 120.415 165.431 119.971 165.431 119.971L164.253 118.698C163.303 117.761 162.261 116.923 161.145 116.196C159.044 114.707 156.568 113.845 154.001 113.708C153.883 113.708 153.647 113.708 153.706 113.9C153.515 113.9 153.485 113.708 153.426 113.797C153.647 113.915 153.294 114.004 153.5 114.182H153.338C153.338 114.182 153.603 114.167 153.544 114.285Z" fill="white"/>
</g>
<defs>
<clipPath id="clip0">
<rect width="594" height="594" rx="24" fill="white"/>
</clipPath>
</defs>
</svg>
