<svg width="594" height="594" fill="none" xmlns="http://www.w3.org/2000/svg"><g clip-path="url(#clip0)"><rect width="594" height="594" rx="24" fill="#FF4E00"/><path d="M506.914 103.021H336.288a8.738 8.738 0 00-8.739 8.739v137.291a8.738 8.738 0 008.739 8.739h170.626a8.739 8.739 0 008.739-8.739V111.76a8.739 8.739 0 00-8.739-8.739z" fill="#000"/><path d="M351.467 119.895v4.304l3.954-2.274 3.946-2.283-3.946-2.282-3.954-2.283v4.305l-3.505-2.022-3.954-2.283v9.122l3.954-2.274 3.505-2.03zm157.908 15.155c-.448 0-1.394-.065-1.231.049h.163c-.041.065-.285.098-.407.131-.62 0-.286-.123-.408-.172-1.027-.048-.09.269-1.027.261l-.122-.057c-.449.074-1.15.082-1.272.245-.416-.171-1.068.073-1.517 0-.089-.383 1.631 0 2.128-.18-.489-.081.286-.187.489-.277l-1.557.171a1.19 1.19 0 00-.856-.105h.123c-.62 0-.457.203-.987.146-.081 0 .082-.098.122-.122-.497 0-.407.09-.741.122-.49 0 .244-.155-.163-.195-.462.07-.932.07-1.394 0 .203.22-1.973.301-.905.497l-1.182.147c-.375-.115.815-.31.489-.49h.945c-.163-.277-1.981.18-2.608-.13a5.933 5.933 0 01-1.337-.106l.163.245c-.498-.057-.652-.188-.677-.237h-.815c.111-.047.23-.075.35-.081-.375-.131-.481-.082-.611 0a3.588 3.588 0 01-.815.049l.285-.09c-.196 0-.424.041-.448.09h-.367c.222.138.473.225.734.252a27.734 27.734 0 01-3.033-.244c0-.074.448-.155.318-.171-.489 0-1.027.089-.978.195h-.269a.822.822 0 00-.449-.13.857.857 0 00-.31-.049c-.163.187-1.108.098-1.312.179.271.019.544.019.815 0-.328.161-.697.22-1.06.171.734-.122-.815-.203.326-.252-.815-.245-.407.171-1.23.089l-.539-.097c.082-.139.865-.074.742-.123h-.367c.367-.106 1.761 0 2.625-.195l-1.728-.082c-2.176.171-4.891 0-6.725.285h.073s-.049.041-.073.09h-.082l-.367.106a17.444 17.444 0 00-1.85-.261c.415.082.415.082.456.188.041.106-.147.204-.766.146 0-.097.375-.097-.082-.171.237.049 0 .114-.236.131-.236.016-.929-.082-.938-.18a1.22 1.22 0 01.4 0c.163 0-.652-.089-.179-.171h-.62c-.367-.081.236-.13.098-.179-1.044.065-1.582.293-2.527.358a.454.454 0 00.049-.211c-.726-.066-1.557.244-2.381.26.222-.049.449-.071.677-.065-2.527-.09-4.598-.09-6.97-.301l-.612.228-.619-.155c-2.495-.147-4.411 0-6.783.073-.742 0-.44-.163-.815-.228-1.631 0-2.014.236-3.563.285.212-.073.579-.269-.089-.277a.833.833 0 01-.301.13.837.837 0 01-.327.001l.212-.074a12.515 12.515 0 00-1.549-.049c-1.31.007-2.616.149-3.897.424-1.239 0 .131-.252-.106-.301.881.089.612 0 .815-.115-.418.1-.857.078-1.263-.065a9.323 9.323 0 00-1.574.114c.318-.057.596 0 .294.106-.522-.057-1.867 0-1.794-.195h-9.782c-.555.106.416 0 .114.114-.815.138-.636-.074-1.28 0l.269-.106c-.973.035-1.942.133-2.902.293.155-.13-.758-.106 0-.179-.449 0-1.003-.546-1.353-.432l.513.53c0 .049-.66 0-.595.049a6.245 6.245 0 00-1.158-.22c-.13-.139.555-.106.93-.106.057-.22-1.264-.139-.718-.343-.815 0 .115.114-.375.196l-.701-.049.547.073a4.138 4.138 0 01-1.574.115l-.815.211c-.082-.171-.595 0-1.011-.073l.261-.106a5.053 5.053 0 01-1.125-.09c.318-.154.505 0 .644-.114l-.611-.049c0 .098-.392.18.048.237a5.281 5.281 0 01-2.299.326c-.644-.171.693-.155.424-.318-1.475-.073-1.809.44-2.665.424a17.525 17.525 0 00-2.161.098c.359-.114-.815-.123-.986-.237l.448-.122c-.342.041-.668 0-.57-.09.065.155-1.443.147-2.218.22l.139.131a17.26 17.26 0 01-2.071.098 5.015 5.015 0 00-1.467.309c-.4-.122-.359-.269-.229-.415.368.046.738.07 1.109.073 1.098-.2 2.21-.312 3.326-.334.514-.326-.815.041-1.394-.074h.106-.147c.433 0 1.134-.089 1.248-.26-.718 0-.522.326-1.411.187a5.972 5.972 0 01-1.63-.187 2.599 2.599 0 01-1.541.334l.473-.188c-1.231 0-.579.269-1.712.261.4 0-.383.18.375.188a7.095 7.095 0 01-1.818.057c-.163 0 0 .065-.065.122.685.13 1.084-.122 1.63.065l.473-.195c.636.065.701.228.318.301.154-.02.311-.02.465 0 .106.294-.766-.106-.987.147h.449c.195.196-1.044.171-1.631.155-.587-.016-1.247-.122-1.296-.261l.881-.057a8.553 8.553 0 00-1.631.057.453.453 0 00-.147 0 .996.996 0 01-.285-.057c-.448 0-1.109.073-1.524 0l.057.122.049-.073c.415 0 .97.081.66.179a1.729 1.729 0 01-1.329-.261c.212-.195.897 0 1.37-.065-.286-.187-.938 0-1.9-.147.383-.203 1.109 0 1.321-.187-.766 0-.97.114-1.777.065.097-.098.888-.106.815-.228l-.44-.049c1.28 0-.22-.253.774-.302-.473-.081-.66.171-1.329.041.188.09.726.253.082.326l-.726-.057c-.301-.098.758-.22.286-.302l-.759.066c0 .065.392.097.164.179-.441-.065-.718.236-1.231.326a2.52 2.52 0 01-.881-.09c-1.035.188-2.348.18-3.302.351.653-.122 0-.212-.415-.302.75 0 .758-.22.709-.342-.457 0-.758.22-.53.285-.758-.081-.522.131-1.19 0-.432-.065.212-.187.065-.261-.815 0-.22.237-1.117.188.049 0 .131 0 .065-.065-.375-.048-.756 0-1.108.138-.514-.244-1.443 0-1.345-.212-1.166.066.171.131-.057.22a5.862 5.862 0 01-1.631 0c.271-.019.544-.019.815 0l-.244-.171c-1.451-.122-.921.383-2.315.237.717-.09.236-.123.595-.245-.22 0-1.313 0-.653.122-.521 0-.888 0-1.255-.073-.419.036-.834.11-1.239.22a8.235 8.235 0 01-1.631-.212c-1.549.122-2.975-.081-4.606.049h.115c-1.264 0 .562.228-.75.22.171-.212-.816-.138-1.215-.253-1.631-.106-2.788.155-4.28 0 0-.048.114-.097.399-.106-1.133-.065-2.046 0-3.073 0h.049a35.612 35.612 0 00-4.834.082c.138 0 .179-.106.285-.13a10.812 10.812 0 00-2.829.114c-1.011-.204-.668.057-1.973-.139h.212c-.636-.073-1.092-.049-1.744-.073a17.29 17.29 0 01-3.457.318c-.081-.278 1.027-.066 1.06-.294-.356.06-.72.06-1.076 0 .277-.106.057-.065.253-.171a5.79 5.79 0 00-1.411.269c0 .049.098.082.432.073-.812.088-1.629.116-2.445.082.261 0 1.084.065.774.196-.743 0-1.482.11-2.193.326-1.003-.131.734-.237.546-.432-.171-.074-.57-.237-.146-.31-.786.009-1.57.066-2.348.171v-.057a27.116 27.116 0 01-3.261.155l.497.065a5.71 5.71 0 00-1.051.13c0-.097-.701-.179-.4-.252-.497.293-2.535.179-3.098.464-.293-.081-.057-.195 0-.269.434.081.879.081 1.313 0-.587 0-1.011-.073-.921-.138-.587.187-1.99.261-2.283.44-.424-.09-.815-.139-.685-.293-1.801.097.889.472-1.141.472-.929-.146.905-.203-.375-.252h.236c-.921-.4-.644.285-1.695.269-.139-.22.733-.155 0-.31-.768.164-1.548.267-2.332.31l.155-.098h-2.446c0-.041.066 0 .18-.049-1.125-.082-.473.114-1.394 0l-.261.106c.64.119 1.294.138 1.94.057-.587.122.921.277.628.465l.114-.082c1.803.276 3.622.436 5.446.481 1.222-.22 2.087.09 3.399-.065.204-.253.245-.049 1.37-.098-.596 0-.066.188.309.22.249-.058.503-.094.759-.106a5.84 5.84 0 002.168.114c.685.082-.163.082-.31.139.277.13.563-.106.815 0h-.089c1.051 0 1.679.057 2.772.09.097-.253 1.076-.098 1.565-.188-.155.082.611.098.921.139l.587-.18c.579-.163.815.106 1.557 0l-.179-.049c.847-.03 1.696.041 2.527.212 5.062-.489 7.826.269 13.157.139.351-.073-.252-.122 0-.236h1.158c-.432-.074-.367 0-.31-.057l-.75.073s.041 0 0-.065a5.78 5.78 0 01-.872.057 3.363 3.363 0 011.239-.171 1.1 1.1 0 01-.301.048c.314-.018.63-.018.945 0 .489 0 .367 0 .432.058l1.5.105a4.906 4.906 0 011.924 0c-.163.164-.994.049-1.369.212l.546.123v-.139h.774-.049a.459.459 0 01.384-.057s.114.057 0 .057l.554-.065c-.326.13.481 0 .399.196 1.802.073 2.291-.212 3.873 0-.253-.074.505-.245.986-.221.285.041.359.074.179.139l.636-.081c.908.15 1.828.207 2.748.171l-.058.065a6.52 6.52 0 011.558-.122l-.123.138c.815.098.612-.285 1.492-.195 0-.155-.562-.229-.644-.367.204.147 1.15.171.929.065.881-.065.612 0 .685 0l.514-.09c.619 0 .195.188 0 .277a6.163 6.163 0 011.859 0l-.269.066h.864a7.478 7.478 0 012.07-.066l-.505.196c.513.098.261-.065.399-.106.47-.075.952-.021 1.394.155 1.288-.204 2.56.318 3.661 0l.138.114c1.5-.244 3.261.106 4.419-.236 1.826.407 1.198-.367 2.869 0l-.057-.057c5.519.065 11.364.277 16.517.081v.082c8.307.138 16.394 0 24.627 0 .767-.074.302-.253.962-.343.286 0 .938 0 .946.098-.562.049-.244.139-.44.179.983.058 1.968.058 2.951 0l-.693-.13a7.437 7.437 0 011.117 0c-.122.065.302.204.049.236 1.744-.317 1.361.139 2.829 0 .285-.269 2.127-.497 3.334-.692l.636.073c-.815 0 0 .204-1.036.187.881.082 1.688-.04 2.511 0-.155-.073-.114-.163.212-.195.514 0 .555.179 1.133.195l-.57.082c.359.045.723.029 1.076-.049.114.114.978.139.815.261.775-.155 1.052-.065 1.891-.163-.872-.122.229-.155.131-.245h-.987c1.386.074-.448 0-.35.22-.652-.089.897-.326-.196-.293 1.305-.098 1.582 0 2.919-.171-.816 0 .155-.131-.277-.188 1.027 0 .252.065.57.188.421.07.851.07 1.272 0 .905.057-.131.146.326.22-.334.138-2.519-.163-2.266.269-.473 0-1.052.163-1.729.155.72.116 1.45.152 2.177.106v-.245c.554 0 .669-.171 1.076-.147-.212.066.171.172.62.147-.131 0-.31 0-.261-.065.815 0 .946-.188 1.932-.228-.815-.066-.986-.139-1.745-.245.204-.171.538 0 .987 0-.065 0-.163 0 0 .057l.481-.081c1.011.073-.131.244.709.326.579.147.815-.074 1.231 0l-.082-.049h.221c.428.031.859-.016 1.271-.139.057.057.465 0 .644-.049a2.79 2.79 0 011.468 0c.668 0 1.19.09 1.051.155l1.076.049-.114.171a4.904 4.904 0 001.566-.309c.814.071 1.634.055 2.445-.049.133.008.267.008.4 0l-.416-.066c.774 0 .677-.081 1.182-.081h.163-.163.489a.717.717 0 01-.253 0l.098.049c.612.179.938-.098 1.631 0h-.237c.367 0 .905.277 1.052.13a.75.75 0 00.342-.041h.277-.269c.172-.048.327-.106.351-.073h.946c.205.024.413.024.619 0l.155.073c.351 0 .351 0 .31.049 1.198.237 1.85-.122 3.138.082.253-.114-.285-.163-.326-.228.433-.103.871-.179 1.313-.229.571.155 2.34.294 2.054.522 1.068 0-.334-.138.204-.22h.122a2.797 2.797 0 01-.864-.196c-.081-.122.864-.155 1.15-.122l-.204.171c.978-.057.774-.318 1.386-.497.815.073.334.228.497.383h.815v.131a6.65 6.65 0 011.394-.106c-.53.122 1.109.122.375.293.408 0 .53-.212.734-.041.285-.138-.367-.065-.571-.114-.171-.195.897-.098 1.394-.147.041.106-.334.123.253.196.257-.115.547-.133.815-.049 0-.13.652 0 .987 0-.375 0-.905-.122-.669-.236a5.014 5.014 0 011.199-.057l-.457-.066c.571-.195.946.139 1.728.082a7.562 7.562 0 00-.815.171 34.194 34.194 0 011.631-.22l.652.196c.081-.098.742 0 .742-.123.815.082-.661.155-.742.253 1.027.082.815-.22 1.81 0l-.327.122a6.084 6.084 0 011.028 0c0-.048-.172 0-.375 0 .203-.26 1.516-.179 1.394-.448h-.449a7.411 7.411 0 011.72-.138c.408.089-.293.187-.529.252.652 0 .529-.293 1.304-.269-.416-.147-.334-.244-.09-.318zm-32.209.815a.35.35 0 01.179.123c-.24.016-.48-.035-.693-.147.367-.196 2.283.122 1.916 0 .815-.073.579 0 .644.073-.84-.024-1.304.041-2.046-.024v-.025zm8.454 0h-.114c.269 0 .423-.024.114.066v-.066zm8.739-.978h.106-.106zm-2.357-18.016c.18 0-.049.285 0 .342l.065-.057c-.097.285.139.285.163.481v-.057a.256.256 0 01.155 0s-.146.122-.089.13a.289.289 0 01.057-.097c-.066.26.171.415.244.652.261.163.367.513.604.676 0 0 .138-.163.122-.106-.196.327.155.066 0 .31.204 0 .089.367.399.277l-.073.082c0 .049.041 0 .065 0 0 .065.139 0 .131.106l.081-.082s-.049.074 0 .049h-.049l.114-.049c-.146.147.057.082 0 .172-.057.089.18 0 .204.081.025.082 0 .139 0 .212a.807.807 0 01.285.253l.09-.09h-.041c-.089.122.09 0 .041.106.073-.098 0 0 0 0s.139-.138.114-.065h.065c-.073.081-.089.13-.163.204.098.065.286 0 .327.106-.09.073.081 0-.074.171.09 0 .114-.098.196-.171a.366.366 0 010 .081.178.178 0 01-.065.098h-.106.122v.082c0 .008-.31 0-.318.187.122.236-.196-.114-.122.065l-.041-.065a.92.92 0 00.041.342c-.172-.187 0 0-.123-.057l.066.074c-.057 0-.098 0-.147-.065l.065.114-.081-.074c-.041 0-.049.163-.221 0 0 .196-.138.294-.277.375a.122.122 0 010 .147l-.114-.065c0 .049.09.187 0 .155 0 0-.081 0 0 .122.082.122-.106 0-.179-.082.147.147-.082 0-.082 0s-1.769 1.068-1.329 2.202c.066.089.074.163.172.236.097.073-.131-.065-.066 0 .066.065.172.196.294.253v.04c.049.049 0-.089.057 0l-.13-.138a.206.206 0 01.13.057c-.041-.065-.212-.261-.09-.22l.131.081.098.049c-.066 0 0 .114 0 .09 0-.025-.041 0 0-.065.04-.065.081.049.122.089.065.057 0 0 .057.066v-.106c.171.155 0-.114.138 0 0 .065.058.049.098.106l.066-.082v-.016c0-.008.048-.057.146.049.098.106-.106-.147 0-.131.106.017 0 .049.066.09v-.065s.097.114.065.114c.204 0 .611.228.636 0 .089.057.04.065.081.122 0-.179.277.049.334 0l-.057-.065c.294.098.294-.139.481-.163h-.057c-.041-.073 0-.106-.041-.155-.04-.049.123.147.131.09a.22.22 0 01-.09-.057c.253.065.416-.172.644-.245.163-.261.514-.359.677-.603 0 0-.163-.131-.106-.123.326.196.065-.154.31 0 0-.203.375-.089.285-.399l.073.073c.049 0 0-.04 0-.065.074 0 .049-.138.106-.13l-.081-.082s.073.049.057 0l.041.049-.049-.114c.138.155.073-.057.163 0 .089.057 0-.179.081-.204.082-.024.139 0 .212 0l.147-.187.114-.106s.098-.139.171-.163c.074-.025-.106.13-.049.089.057-.04.139-.114.139 0s-.041 0 0 0 .09.049-.041.196c-.13.147-.073.065-.073.041-.122.065.057 0-.082.106.074-.074.098 0 .098 0l.082-.09c.309-.196-.172.163-.082.188.09.024 0-.041.09-.074.089-.032-.057.122 0 .114a.748.748 0 01-.139.212c.057 0 0 .106.123 0 .122-.106-.131.065-.058-.106l.106-.081c0 .041.106 0 .098.081a.5.5 0 01.057-.065c.074 0 .18-.065.196 0 .016.065-.09.049-.114 0-.025-.049 0 0 0 .098s0 0-.098 0h.065c.131-.114 0 .049.082 0 .081-.049.244-.09.383-.155a.297.297 0 01-.09.106c0-.065 0 0-.041 0-.04 0-.073.171-.13.212-.057.041.049-.082.106-.098l.041.057c.057-.065.057-.098.13-.122.074-.025 0 0 .057.057s-.089.106-.106.081c-.016-.024 0 .066.082 0 .081-.065.098 0 .179-.122v.082h-.041.066c.016 0 0 .065 0 .098v.081c0 .082.065-.057.097-.081l.041.057a2.447 2.447 0 01-.22.212c.065 0 .163-.147.188-.115-.123.09-.049.115-.188.212-.138.098 0 .139 0 .139s0-.073.106-.163c.098 0 .334-.179.351-.09v-.04a.276.276 0 00.155-.058c-.115.098-.245.318-.172.343.074.024.074-.122.163-.196h.049-.04c.065 0-.082.196.048.082l-.122.187.057-.081c.057-.049.106 0 .131-.041.024-.041.065.041 0 .122 0-.049.114-.163.163-.147-.171.164 0 .123-.09.204-.09.082 0 .082.049 0l-.106.106c.147-.146.179-.098.236-.089-.203.187.057 0-.114.212.139-.131.114 0 .229-.106.114-.106-.09.138-.131.187h.065c-.057.073 0 .13 0 .196l.139-.09-.041.065s.074 0 .106-.081c.131-.123.049 0 .131-.041a.135.135 0 01-.066.065s-.065.082-.098.131c-.032.049.286-.188.302-.278.016-.089.114-.073.106-.04l-.114.13.139-.106c.04 0 0 .082 0 .114 0 .033-.261.188-.212.229.049.04-.115 0-.155.057-.041.057 0 0-.066.065.074 0 .09-.057.139 0-.106.106-.13.147-.139.212l.058-.098s0-.041.048-.082c.049-.04.172-.089.115 0 .13-.203.187-.065.26-.187.074-.122.066 0 0 .049-.065.049-.097.138-.171.204-.073.065.049-.098.106-.123.057-.024 0 .09-.049.131v.081c.057-.049.066-.122.114-.122.049 0 0 0 0 .065s-.163.163-.203.163c-.041 0 .089.057.163-.065 0-.057.081-.171.13-.147l.106-.049v.066s.057-.049.065 0c.009.049 0 .057-.073.097-.073.041.081 0 .122-.057l-.065.09c-.065.09.065.065 0 .139-.065.073 0 0 .098-.082-.155.212.041.179.114.204.147-.171 0 0 .188-.139-.066 0-.074.18-.164.172h.041c-.065.106-.114 0-.204.163 0 0 .237-.123.212 0-.024.122.066 0-.065.106-.13.106-.049 0-.065 0 0 .106.155-.115.261-.155.106-.041-.049.122-.106.179-.057.057 0 0 .065 0-.09 0 0-.122.106-.179-.106.146.057.073.114 0 .074-.196 0-.049.057-.253-.049 0-.163.155-.147.073.017-.081.058-.065.074-.089.016-.025-.049 0-.09 0-.041 0 .171-.131.163-.188l-.163.147c0-.041.122-.106.057-.098.098-.065.123-.13.188-.122.089-.18-.147 0-.237 0h.049-.081c-.025 0 .089-.057.13-.106h-.041s-.057 0 0 0c.06-.034.117-.073.172-.114l-.147.065c.049-.049.049-.122.114-.131h-.073l.097-.106a.046.046 0 00-.02.005.037.037 0 00-.017.013.04.04 0 00-.01.018.04.04 0 00-.001.022c0-.049-.278.089-.058-.106h-.228c.147-.049.074-.172.163-.172h-.138a.43.43 0 01.203-.179h-.154c0-.081.106-.106.089-.147l-.098.09v-.073c0 .049-.065.057-.089 0h.065c.081 0 0 0 .081-.09.082-.09 0 0-.065 0l-.057.065c-.098 0 .09-.09.065-.13l-.073.073c.073-.171-.155 0-.114-.13.041-.131.122-.09.098-.066-.025.025-.09-.081-.212 0a.455.455 0 00.138-.236l-.114.049c0-.065-.089-.049 0-.131-.073.058 0 0-.073 0v-.04l-.073.081c.122-.212-.164 0-.058-.171l.098-.09-.065-.097-.041.073s-.106.049-.081 0c.024-.049 0 0 .057-.122h.049l-.106.057c-.106.057.114-.163 0-.114 0 .048-.106.097-.123.081-.016-.016 0-.057.049-.057s-.049-.073-.089-.057a.19.19 0 01.089-.09h-.122.041-.065l.057-.114-.041.065h-.065l.073-.049c-.081 0 .049-.163-.09-.122h.049c-.138.049.082-.147-.081-.065l.065-.065h-.065l.089-.082-.138.106.073-.098h-.049c.139-.179 0-.089.082-.236l-.106.106c-.285.147-.041-.285-.228-.277l.081-.082-.13.057c.041-.081.081-.057.114-.106.032-.049-.139.106-.204.09-.065-.016.065-.057.106-.073.041-.017-.187 0-.171-.098-.065 0-.065-.074-.106-.098-.041-.024.057 0 .073 0 .017 0 0-.057-.049 0l.09-.057c0-.041-.122 0-.041-.106.082-.106-.098.09-.114.065.114-.138-.106 0-.073-.106.032-.106.065 0 .057 0h-.106l.049-.049h-.147c.114-.138-.09-.057 0-.138.09-.082 0 .073-.082.057-.081-.017-.057 0 0-.09l.098-.065a.449.449 0 00-.195.122c0-.065-.041-.057 0-.138-.041 0 0-.074 0-.131a.542.542 0 010-.057l.049.065-.049-.073c.049 0 .097 0 .138.106l.131-.131s-.106-.138-.041-.13c.065.008 0 .041.073.09.204 0-.179-.392 0-.408v-.098c-.163-.138.065.098-.049 0s-.04-.098-.13-.187c.065 0 0-.057 0-.082 0-.024.09-.057.212 0 0-.057-.131-.195-.106-.228.024-.033.09.098.155.098l-.065-.074s.049 0 .081.049c.033.049-.073-.122 0-.114l.049.09c0-.049 0-.049.057-.073.057-.025 0 .048 0 .048.122.09 0-.081 0-.081a.291.291 0 01-.139-.098s-.057-.139.041-.065l.049.09c0-.09-.073-.106 0-.123-.065-.114.057-.065.098-.098.041-.032-.049-.089-.041-.089a.543.543 0 01-.147-.114c.147.089-.097-.188 0-.163.098.024.082.106 0 .073.092.102.172.214.237.334 0-.049 0-.09.041 0l-.114-.114s-.139-.098-.164-.171c-.024-.074.139.106.09.049-.049-.057-.106-.139 0-.139s0 .041 0 0 .049-.09.196.041c.147.13.065.073.041.073.073.123 0-.057.114.082-.082-.074 0-.098 0-.098l-.09-.082c-.196-.309.163.172.188.082.024-.09-.041 0-.074-.09-.032-.089.122.057.122 0a.866.866 0 01.204.139c0-.057.106 0 0-.122-.106-.123.065.13-.098.057l-.081-.106s0-.106.081-.098a.236.236 0 01-.065-.057c0-.074-.073-.18 0-.196.074-.016.057.09.041.114-.016.025 0 0 .106 0s0 0 0 .098v-.065c-.122-.131.041 0 0-.082-.041-.081-.09-.244-.147-.375.04.018.073.046.098.082-.065 0 0 0 0 0s.163.073.204.138c0-.073-.082-.057-.098-.114l.057-.04c-.065-.057-.098-.057-.122-.131-.025-.073 0 0 .065-.057s.098.09.073.106c-.024.016.066 0 0-.081-.065-.082 0-.098-.122-.18h.09v.041c.106.09 0-.049 0-.065 0-.017.065 0 .106 0h.081c.082 0-.065-.065-.089-.098h.057l.22.22c0-.065-.155-.163-.122-.187.089.122.114.048.22.187s.13 0 .13 0-.073 0-.155-.106c.041-.098-.187-.334-.098-.342a.294.294 0 00-.065-.155c.098.114.318.244.351.171.032-.073-.131-.073-.204-.163v-.049a.082.082 0 010 .049c0-.073.195.073.081-.057l.188.122-.082-.057c-.04-.057 0-.106-.04-.13-.041-.025.04-.066.122 0-.049 0-.155-.114-.147-.163.171.171.122 0 .212.089.09.09.082 0 0-.049l.106.106c-.147-.146-.098-.179-.09-.236.188.204 0-.057.212.114-.13-.139 0-.114-.106-.228l.196.13-.041-.065c.074.057.131 0 .204 0l-.098-.139.065.041s0-.073-.081-.106c-.13-.13 0-.049-.049-.13a.14.14 0 01.073.065s.074.065.123.098c.049.032-.18-.286-.278-.302-.097-.016-.073-.114 0-.098l.123.106-.106-.138c0-.041.089 0 .114 0 .024 0 .187.261.228.212.041-.049.049.114.057.155.008.04 0 0 .065.065 0-.074-.057-.09-.04-.139.106.106.146.131.212.139l-.098-.057s-.041 0-.082-.049c-.04-.049-.089-.171 0-.114-.195-.131-.065-.188-.187-.261-.122-.074 0-.065.049 0s.138.098.212.171c.073.073-.106-.049-.131-.106-.024-.057.09 0 .131.049h.073c-.049-.057-.114-.065-.122-.114-.008-.049 0 0 .073 0 .074 0 .163.163.155.204-.008.04.057-.09-.065-.163-.057 0-.171-.074-.147-.131l-.049-.106h.065s-.049-.057 0-.065.057 0 .098.073c.041.074 0-.081-.057-.122-.057-.041.041 0 .09.065.049.065.065-.065.138 0 .074.065 0 0-.081-.098.212.155.179 0 .212-.114-.179-.146 0 0-.139-.187 0 .065.171.073.171.163v-.041c.106.065 0 .114.172.204 0 0-.131-.237 0-.212.13.024 0-.065.106.065.106.131 0 .049 0 .065.106 0-.106-.155-.147-.261-.041-.105.122.049.171.106.049.058 0 0 0-.065.041.09-.114 0-.179-.106.146.106.073-.057 0-.114-.196-.073-.049 0-.245-.057 0 .049.147.163.065.147-.081-.016-.065-.057-.089-.074-.025-.016 0 .049 0 .09 0 .041-.139-.171-.196-.163l.147.163s-.106-.122-.098-.057c-.065-.098-.13-.122-.122-.187-.18-.09 0 .146 0 .236v-.049.082c0 .024-.049-.09-.098-.131l-.041.049s0 .057 0 0l-.122-.171.065.155c-.041-.057-.122-.057-.13-.123v.074l-.115-.098s0 .057.058.049c.057-.008.089.277-.106.057.04.13 0 .114 0 .228-.049-.146-.172-.073-.172-.163 0-.089.041.098 0 .139a.386.386 0 01-.171-.204v.155c-.073 0-.106-.106-.147-.09l.09.098h-.073c.049 0 .057.065.049.09v.04c-.041-.081-.041 0-.098-.081-.057-.082 0 0-.041.065l.073.057c0 .098-.097-.089-.138-.065l.073.073c-.171-.073 0 .155-.13.115-.131-.041-.09-.123-.065-.098.024.024-.074.089 0 .212-.115-.098-.147-.123-.229-.139-.081-.016 0 0 0 .114s-.049.09-.13 0c.057.074 0 0 0 .074l.073.073c-.204-.122 0 .163-.163.057v.049l-.081-.098-.098.065h.073s.049.106 0 .082c-.049-.025 0 0-.122-.057v-.049l.057.106c.057.106-.155-.114-.106 0 .049 0 .09.106.073.122-.016.016-.057 0-.057-.049s-.065.049-.049.09a.182.182 0 01-.097-.09c0 .114-.041 0 0 .123l-.041-.041v.065l-.114-.057.065.041v.065l-.057-.073c0 .081-.163-.049-.122.089v-.049c.057.139-.139-.081-.066.082 0 0-.049 0-.065-.065v.065l-.081-.09.106.139-.098-.074v.049c-.18-.138-.09 0-.237-.081l.106.106c.147.285-.285.04-.277.228l-.081-.082.065.131c-.09 0-.065-.082-.114-.114-.049-.033.114.138.089.204-.024.065-.057-.066-.073-.106-.016-.041 0 .187-.098.171 0 .065-.065.065-.089.106-.025.041 0-.057 0-.074 0-.016-.058 0 0 .049l-.066-.089c-.04 0 0 .122-.106 0-.106-.123.098.097.074.114-.139-.114 0 .106-.106.073s0-.065 0-.057v.106l-.049-.049v.147c-.139-.114-.049.089-.139 0-.089-.09.082 0 .057.081-.024.082 0 .057-.089 0l-.066-.097c.025.078.07.148.131.203h-.147c0 .09-.318-.13-.228.049l-.049-.073v.155h-.041c-.057 0-.09.098-.13.155 0 .122-.09 0-.09.097v-.048c.065.114-.196-.041-.098 0a.53.53 0 00.09.179c0 .049-.065 0-.122-.049-.057-.049 0 .098-.041.098h-.041v.09c.049.13-.171-.074 0 .138-.049 0-.057 0-.139-.041.009.082.009.164 0 .245h-.057l.057-.09c-.048 0-.048.074-.097.106-.049.033-.131 0-.106 0-.057 0 .057-.138 0-.155-.057-.016-.049 0-.163.098-.066 0 .073-.098.073-.122 0-.025-.082 0 0-.106-.204.163 0-.155-.179 0l.057-.114s-.139.13-.18.13a1.21 1.21 0 01.147-.187l-.171.146c.049-.285-.212-.326-.196-.587-.089 0-.236 0-.277-.105v-.106.114h-.081c-.009 0 0-.31-.188-.318-.236.122.114-.196-.065-.123l.065-.048a.945.945 0 00-.342.048c.187-.171-.041 0 .057-.122l-.074.065c0-.057 0-.106.066-.146l-.115.057.074-.074c0-.04-.163-.057 0-.22-.196 0-.294-.147-.375-.277a.115.115 0 01-.139 0l.057-.114c-.049 0-.187.09-.155 0-.04 0 0-.073-.122 0s0-.106.082-.179c-.147.138 0-.082 0-.082s-1.068-1.777-2.201-1.329a.683.683 0 00-.237.171c-.057 0 .065-.138 0-.065-.065.074-.196.171-.253.294h-.04c-.049 0 .089 0 0 .057l.138-.131a.22.22 0 01-.057.131c.065 0 .261-.212.22-.09 0 0-.065.106-.081.139l-.041.089c0-.065-.122 0-.098 0 .025 0 0-.04.065 0 .066.041-.049.082-.089.123-.057.057 0 0-.065.048h.105c-.154.164.115.001 0 .131-.065 0-.048.057-.105.106l.081.057h-.049.065c.008 0 .057.057-.049.155-.106.098.147-.114.131 0-.016.114-.049 0-.09.065h.065s-.114.09-.114.065c0 .204-.228.604 0 .636-.146.155-.146.106-.22.139zm5.78 5.397h.082c-.009 0-.106.073-.074 0h-.008zm-.204.146v-.057h.082l-.18.139.098-.082zm-.399-3.676h.041a.173.173 0 01-.09.057.384.384 0 00.057-.057h-.008zm-2.022 1.769h-.049.049zm-46.361 48.611h-24.147v24.147h24.147v-24.147zm-67.606 0h-24.147v24.147h24.147v-24.147zm33.807 0h-24.146v24.147h24.146v-24.147zm-33.807 31.363h-24.147v24.147h24.147v-24.147zm33.807 0h-24.146v24.147h24.146v-24.147zm33.799 0h-24.147v24.147h24.147v-24.147z" fill="#fff"/><path d="M677.988 426.997H396.58c-45.583-60.892-81.073-135.383-90.55-161.45-4.622-12.704-18.236-53.822-49.882-64.09a18.874 18.874 0 00-8.891-2.098c-18.148-.704-34.184-2.758-47.476-3.257l-7.409-26.566 30.531-6.542a8.944 8.944 0 006.005-6.461 8.935 8.935 0 00-.111-4.56 8.93 8.93 0 00-2.344-3.912 65.84 65.84 0 01-7.761-8.802c-7.863-10.914-16.475-29.089-31.469-29.221-11.59-.088-25.836 2.626-31.69 3.858-3.462.117-6.851.308-10.064.645a28.22 28.22 0 00-25.205 30.806v.865a28.228 28.228 0 0010.318 19.215 28.241 28.241 0 0020.931 6.134l12.28-2.685-6.132 28.444c-8.627-.205-17.885-.601-23.577 0a97.6 97.6 0 00-71.889 44.859L-2.153 343.954l-177.154-126.566-.557.454-23.371-23.339a34.495 34.495 0 00-11.429-7.569l-28.697-11.559-17.972-9.198a34.474 34.474 0 00-17.209-3.741l-24.061 1.042-61.795-71.527 6.338-6.059a24.03 24.03 0 002.685-31.788L-377.089 25-458 103.407c4.401 2.543 8.803 5.12 13.204 7.731a1265.959 1265.959 0 0122.682 13.76 24.036 24.036 0 0028.095-2.083l10.167-8.552c.596.311 1.208.59 1.834.836l-1.144 1.467 54.782 57.034a13.757 13.757 0 00-.25 1.76 13.006 13.006 0 003.884 9.259 13.012 13.012 0 009.32 3.738h1.218l36.795 38.316a20.538 20.538 0 003.844 14.215 20.702 20.702 0 0017.943 8.479l15.991 16.649-41.519 33.519 226.273 136.601c57.995 35.03 133.772 10.958 160.694-51.24a848.113 848.113 0 0022.505-57.562l.866-.074a64.738 64.738 0 0030.12 27.872 63.667 63.667 0 0029.353 5.18 63.66 63.66 0 0028.495-8.745 61.163 61.163 0 0020.701-20.786c13.938 28.15 18.442 46.942 21.479 62.374a109.675 109.675 0 00-24.061-13.804c-24.941-10.048-55.325-6.234-57.57-5.868-15.287 2.054-50.806 7.496-73.766 36.952-8.055 10.269-14.818 20.317-19.337 29.735-67.649 140.605 7.952 296.319 22.638 325.276L-90.781 1247.45l38.747 1.06-43.075 68.12-65.58 16.46a63.927 63.927 0 00-23.635 14.52 64.69 64.69 0 00-17.606 30.7h125.072c4.01-7.9 8.005-15.8 11.986-23.72 2.348-4.91 7.336-6.77 10.622-5.23 2.934 1.46 3.55 5.29 3.61 5.73-2.798 7.75-5.61 15.49-8.437 23.22l19.806 8.31 64.832-135.99 178.827 4.92c-4.181-9.51-23.078-54.97-9.301-109.57 10.269-40.62 32.922-63.82 41.754-71.98 26.628 57.42 53.256 123.84 79.899 181.25l79.87-.23c12.216 22.62 24.442 45.24 36.677 67.87l-59.33 14.79a45.34 45.34 0 00-25.384 14.06 45.291 45.291 0 00-11.646 26.57c55.501.39 88.996.77 144.497 1.15.704-8.05 1.403-16.1 2.097-24.16a4.79 4.79 0 011.024-2.66 4.834 4.834 0 012.351-1.61l.587-.12a5.272 5.272 0 012.996.56 5.271 5.271 0 012.183 2.13l12.719 26.02 29.798.21-51.349-125.08 69.746-.2c-4.724-13.83-11.106-33.58-19.703-53.22-9.668-22.12-20.114-39.42-33.04-59.84-16.138-25.39-40.932-62.47-76.29-107.74a352.098 352.098 0 00-46.448-157.301 347.175 347.175 0 00-67.033-82.926c12.72-18.776 64.084-99.135 50.351-209.272-.748-6.014-5.971-43.831-26.877-89.277 15.361 11.486 33.978 25.099 56.308 41.397 17.605 12.821 21.742 15.315 29.958 23.221 22.579 21.711 30.458 41.5 43.456 39.695 6.133-.85 10.637-5.339 13.483-8.992l47.945-92.137a134.762 134.762 0 0128.096-3.36c16.343-.22 23.297 2.743 34.829 0a53.187 53.187 0 0023.004-12.483l32.38-22.518-118.617-5.867h153.138a13.491 13.491 0 009.851-4.276 13.488 13.488 0 003.602-10.115 13.785 13.785 0 00-13.981-12.542zM-269.27 190.983a11.383 11.383 0 00-4.71 5.501l-7.482-8.655 17.855-.264-5.663 3.418z" fill="#000"/><path d="M151.505 143.454c.332-.08.641-.219.906-.407a2.17 2.17 0 00.629-.683c.274-.56.361-1.171.253-1.769a3.106 3.106 0 00-.867-1.625 2.413 2.413 0 00-1.052-.585 2.746 2.746 0 00-1.259-.041 2.69 2.69 0 00-.924.319c-.279.16-.515.367-.693.607a3.047 3.047 0 00-.493 1.921c.057.667.341 1.305.816 1.84.342.295.783.493 1.263.569.48.075.976.024 1.421-.146zm-26.747 3.208a2.489 2.489 0 001.56-1.314 4.037 4.037 0 00-.625-4.105 2.427 2.427 0 00-3.908.378 4.187 4.187 0 00.329 4.516 2.46 2.46 0 002.644.525zm28.786-32.377v-.162c.118 0 .177.103.206.177.03.074.265-.237.501 0h-.074c.221 0 .104.148.133.178l.162.148c-.118-.104-.398 0-.265 0h.133c.132 0 .073.104 0 .148h.441c0 .222.31 0 .369.237-.207 0 0 0 0 .118l.456.149s-.132 0 0 0h.206c.045 0 .339.133.28.251.28.208.192-.103.457 0 0 .089-.236 0-.147 0l.309.104s-.103.089-.206 0c.751.429.972 1.022 1.708 1.273 0 .148-.088 0-.191 0 .56.148.589.563 1.002.785.441.548 1.163.844 1.694 1.377v-.104c.135.027.264.077.383.148 0 0-.177 0 0 .178.176.178-.074-.118 0-.133.382.533 1.472 1.362 2.062 2.191a20.531 20.531 0 012.607 3.391c-.118-.178.103-.207.147 0-.074.548.427.622.442 1.11.486.667.53 1.481 1.061 2.014h-.089c0 .119.074.133.133.237 0 .267.28.548.294.711h.103v.252l.162.148c-.176 0 .133.459.089.607.168.273.288.574.353.888v.726c.185.579.318 1.173.398 1.776h.118v.163s.103.37 0 .519c.088-.104 0-.119 0-.208s.162 0 .132.148l.074.119c-.088 0-.118.148-.206.177l.221 1.022c.103.487.147.984.132 1.481-.103 0 0 .829-.132.799.088.652.147-.296.28-.133.132.163 0 .326 0 .459s-.103.311-.118.178v.474c0 .162 0 0 0 0v.133c.412 0 .633.429.839.385.207-.045-.073 0 0-.133.074-.134.148.207.295.222h.412c0-.119.001.088.236.118.236.03.413 0 1.002 0a12.846 12.846 0 011.929-2.961c.074-.249.211-.473.398-.652l.147.134.104-.193c.103 0-.089.133 0 .089v-.148s.427-.296.25 0l.604-.489c.147-.089 0-.178.177-.252.176-.074 0 .075 0 .119.545-.207.353-.681.883-.859 0-.089.207-.178.207-.192 0-.015 0 .133-.236.118-.236-.015.132-.178 0-.281-.133-.104.162-.119.265-.178.103-.059.442-.163.619-.104.176.06.118-.266.309-.34.191-.074 0 .133.206.104v-.089h.147c.015 0 .104-.163.325-.163l-.089.118a.99.99 0 01.427-.103h-.147c-.059 0 .177-.104.25-.104.074 0-.176 0-.132-.118.044-.119.206-.178.309-.089l-.103.118c.206-.133.103-.148.368-.148h.619c.25 0 .103-.089.147-.089.045 0-.103-.074-.118-.163.192.148.28-.192.604-.118a.127.127 0 01-.039.03.138.138 0 01-.049.01.129.129 0 01-.048-.01.12.12 0 01-.04-.03c-.103.163-.103.296-.28.37h.221v-.148h.176c0-.089-.147-.148 0-.207.148-.06.104.148.133 0 .25 0 .103-.148.354-.089h-.104c-.103 0 .442 0 .472.178.029.177 0 .088-.103.074-.192.118.162 0 .088.133 0-.104.236 0 .339 0v-.104c.412-.252 0 .207.309.222.31.015-.088 0 0-.089.089-.088.177.149.398.163.221.015.147.148.118.267-.03.118.353.163.456.104-.162-.193-.25-.001-.442-.193l.104-.089c.181.027.356.087.515.178.251 0 .383 0 .589.133 0 .119-.132 0-.235 0-.103 0 .147.089.353.237 0 .089-.147-.089-.221 0l.265.104c.118-.119.177.118.339.177.162.06.516.104.781.163v.133c0 .015 0-.074-.118 0-.118.075.147.311 0 .311.191.104 0-.118.133 0l.22.208c0-.089 0-.178.118-.104s.148.148.28.267c.133.118 0 .133-.147 0-.147-.134.132.177.221.162.088-.014.265.208.265 0v.193h-.103c-.103 0 .132.104.191.148s.118.222.089.267c-.03.044.147.162.103.222-.044.059 0 0 .118 0 .064.085.123.174.176.266 0 0-.191.193-.235.163-.044-.03.191-.074.28.089-.162 0 0 .252-.162.207-.162-.044.117.37.22.504.104.133 0-.178 0-.223.236.385.531.267.619.608v-.089a.914.914 0 00.251.237c-.148 0-.221.355 0 .681 0 0 0-.237.162-.222l.103.222c.132.192 0 .429.147.444l-.118.266v-.118c.074 0 .162.237.206.281a.417.417 0 010 .459s.148-.192.207 0c-.207 0 0 .4-.089.43-.088.029 0 .222 0 .207h.206c.192 0 .236.252.295.474-.25 0 0 .222-.162.355.177 0 .103.356.25.385.148.03-.147.163-.191.207v.075c-.067.182-.117.37-.147.562l.162.178s0 .163.103.089v.089c.177 0 0 .133.103.31.103.178 0 0-.089 0-.088 0-.088 0-.147.089s.265.37.368.119c0 0 .104.148 0 .237h-.162l.148.118c0 .148-.103.207-.133.311 0-.118-.25-.296-.294 0a.681.681 0 00-.089-.341s0 .089 0 0v.326c-.118 0-.177 0-.265.208l.133-.134s0-.074.103-.074.103.296 0 .326c.25-.193.073.429.235.311.162-.119 0 .207 0 .207 0-.222-.191.104-.265 0-.073-.103.133-.118.148 0 .014.119-.118.178-.177.237l-.103.163s.162-.148.147 0c-.015.148 0 .207-.103.178-.103-.03-.192-.074-.177-.222 0 .118-.132.473 0 .37v.133c.088 0 .25-.267.177 0v.222h-.089v.119c0 .118-.088 0-.132 0-.044 0 0 .207 0 .251 0 .045 0 .134-.118 0-.118-.133-.191.4-.309.474-.118.074 0 0 0 .133-.295 0-.413.593-.575.904.221 0 0 .103.089.251 0-.089-.31.208-.192-.089l-.088.178c-.162 0 .103-.311-.133-.237-.235.074 0 .415-.206.592 0-.162 0 .178-.162 0-.162-.177 0-.118.074-.177-.295.34 0 .207 0 .459s-.221.118-.295.089a.36.36 0 00-.133.207c0-.178.266-.178.295 0-.206 0-.28.311-.295.415.398-.208.192-.208.59-.4 0 0-.133-.148 0-.296 0 .162 0 0 .103 0s0-.148.088-.222c.089-.075 0 .222.236 0l-.133-.149s.103.119.177 0c0 .149.147 0 0 .311.324-.177.206-.473.28-.725a.418.418 0 010-.222c.118-.119 0 .163.088.148l.118-.237s0-.133.088-.133a2.342 2.342 0 000 .237v-.326s.207-.148.148 0l.177-.4h.132c0-.104 0-.118 0 0 .088-.118 0-.681.265-.503.048-.29.112-.577.192-.859 0 .34.265-.282.206 0 .118-.163 0-.252 0-.4 0-.148.206 0 .191.148v-.37c.118-.133.148 0 .207-.163h-.103l.103-.104v-.37c0 .178 0-.133.132 0a2.855 2.855 0 000-.37h-.088c0-.326.118 0 .162-.252h-.088c.206-.34-.001-.622.117-.888 0 .163.118.133.103.133a2.95 2.95 0 00-.088-.873c.133-.089.177-.104.236-.356.059-.251 0-.222-.103-.266-.103-.045 0-.518 0-.533v-.252c.162-.326-.177-.503 0-.844v-.133h.132l-.103-.607v.133c0-.133-.147-.193-.132-.341.191.193 0-.207 0-.281l.073.133c0-.177 0-.177-.132-.148-.104-.207.117-.192 0-.385v.148s-.148 0-.177-.118c-.03-.119 0-.104 0 0s-.118-.444-.192-.504c-.073-.059.074-.103.118 0-.221-.34 0-.177-.265-.518l-.103-.103v-.223.089a1.137 1.137 0 01-.162-.325h.088c-.191-.326 0-.459-.324-.726-.28-.222 0-.296-.294-.503l-.118-.104h.088-.191v-.148c.088-.267-.192-.355-.192-.637l-.088.119c-.53-.296-.707-1.126-1.311-1.481h.088l-.309-.089c0-.163.132 0 .132-.089-.279-.148-.206 0-.5-.163-.295-.162.103 0 .191 0a6.067 6.067 0 01-.913-.592 6.267 6.267 0 01-.678-.37h.148c.059 0-.162-.148-.265-.133h.132c-.177-.104-.545-.163-.545-.282 0-.118 0 .119-.191 0-.192-.118-.442 0-.678-.236h.177a.518.518 0 00-.368 0h-.619c0-.178-.575-.075-.516-.193-.221 0 .162.104-.117 0-.28-.104-.251 0-.221-.089h-.162l.132-.089a.333.333 0 00-.188.041.332.332 0 00-.136.137c-.147 0-.368 0-.442-.133-.442 0-.766-.282-1.105-.074h-.279v-.089l-.442.178a6.378 6.378 0 00-1.134.266c-.398.178-.413 0-.693.222l-.265.089v-.074c-.162.178-.619 0-.457.118-.088.089-.25.223-.25.297-.28.133-.103 0-.295 0-.191 0-.206.177-.471.281-.118 0-.177.148-.339.252-.221.251-.427 0-.515.385-.133 0-.324.192-.368.103-.295.267-.531.459-.796.741-.162-.089 0 0-.294.133-.221.178-.472.326-.708.488l-.368.267-.177.133v-.074.089h-.132c0 .104-.074.355-.088.326 0 .177-.133.385-.133.311a1.982 1.982 0 010-.267v.104-.074.207c-.074.296 0 0 0-.222l-.088.237v-.104.119l.103-.341-.148.356c.021-.081.046-.16.074-.237v-.208.104c-.088.192-.132.222-.103.118a1.83 1.83 0 00.177-.34l-.118.237.103-.222-.162.118c-.162.119.103-.118.118-.148.014-.03 0 0 0-.104-.236.089 0-.118-.133-.074a.89.89 0 00.103-.207.222.222 0 01-.221-.178c0-.148.133-.133.177-.177l-.206-.074a23.744 23.744 0 00-.339-2.962c.081-.364.179-.725.295-1.08l-.103-.489v.37a1.196 1.196 0 01-.148-.266 4.82 4.82 0 00-.574-1.822c-.383-.296 0-.34-.236-.651h.103a6.771 6.771 0 00-.707-.918c.221 0-.132-.252 0-.267h-.088v-.325l-.192-.119h.074c-.133-.237-.471-.681-.368-.888a21.134 21.134 0 01-1.473-2.044c-.118 0-.265-.237-.383-.37v-.222c-.147-.118-.383-.192-.427-.37-.133-.133-.207-.311-.398-.385-.192-.074-.221-.355-.103-.37-.133.103-.28-.341-.28-.341l-1.178-1.273a19.875 19.875 0 00-3.108-2.502 13.607 13.607 0 00-7.144-2.488c-.118 0-.354 0-.295.192-.191 0-.221-.192-.28-.103.221.118-.132.207.074.385h-.162s.265-.015.206.103z" fill="#fff"/></g><defs><clipPath id="clip0"><rect width="594" height="594" rx="24" fill="#fff"/></clipPath></defs></svg>