<svg width="594" height="376" fill="none" xmlns="http://www.w3.org/2000/svg"><g clip-path="url(#clip0)"><rect width="594" height="376" rx="24" fill="#000"/><path d="M616.48 1138.09a92.509 92.509 0 00-42.992-25.38l-72.884-19.42c-5.454-19.33-10.918-38.66-16.389-57.99l70.602-10.56c-41.87-88.739-83.752-198.916-125.634-287.672a140.71 140.71 0 00-80.209-70.035 73.608 73.608 0 0031.418-60.365l-9.644-253.914a38.509 38.509 0 0014.586-27.22l2.219-27.736 90.774-4.917a13.506 13.506 0 0012.025-8.999c.59-1.675.843-3.449.746-5.222L476.474 7.99A13.531 13.531 0 00462.24-4.78L118.939 13.777a13.515 13.515 0 00-12.772 14.221l14.625 270.67a13.525 13.525 0 0014.196 12.771l96.409-5.207 21.912 38.794-20.298 240.802a121.76 121.76 0 00-42.865-14.889l-66.026-9.796-8.649-32.162c11.234-1.261 19.126-6.127 19.492-25.076v-.492a27.733 27.733 0 00-.492-4.299l13.301.441s-3.909-22.239-18.558-29.652c-12.923-6.544-25.846 8.321-28.72 11.926l-1.513-.126c-11.902-11.788-35.957-30.611-44.92-24.811-1.413.907-2.106 2.294-3.215 5.471-2.522 7.287-5.61 15.129-5.61 30.851l14.624.983a24.221 24.221 0 00-2.673 11.7v.756a24.242 24.242 0 0022.05 23.513l-7.564 23.198-72.48-10.767a218.666 218.666 0 00-86.777 4.602c-14.789 3.782-29.59 13.956-44.379 17.777.517-27.737 1.047-56.331 1.564-85.189l136.034 5.774a15.733 15.733 0 0016.39-15.053l4.98-117.451a15.735 15.735 0 00-15.053-16.39l-128.748-5.459c-2.521-6.606-8.056-11.347-14.599-11.738h-.341c-6.82-.428-12.847 3.909-15.873 10.452l-14.347-.605a15.737 15.737 0 00-16.163 13.061l-44.756-.958-55.473 312.665c-11.99 68.068 55.284 123.175 119.708 97.872l77.7-30.498 30.069 114.401-115.901 64.424a139.239 139.239 0 00-66.258 174.636 139.255 139.255 0 00167.118 83.43l114.993-32.09c-.606 1.44-1.261 2.89-1.803 4.32-.196.48-.572.86-1.047 1.06l-27.598 12.18a4.3 4.3 0 00-1.172.81c-.375.36-.683.79-.908 1.26a17.321 17.321 0 00-1.04 10.18 17.272 17.272 0 004.885 8.98h76.906a19.473 19.473 0 008.081-11.85c5.951-26.25 11.906-52.5 17.865-78.76l.076-.27a164.54 164.54 0 0117.65-34.04c9.368-13.87 12.973-14.55 15.482-21.66 7.048-19.987-6.808-55.565-36.082-64.604a46.62 46.62 0 00-12.242-2.03l185.847-95.06c12.305 67.138 24.605 134.269 36.902 201.394l33.851-5.05c.496 31.1.983 62.2 1.462 93.3.066 3.85 1.17 7.62 3.196 10.9a21.379 21.379 0 008.315 7.73h231.851c2.659-.83 5.06-2.33 6.977-4.36a16.375 16.375 0 003.96-15.42 16.347 16.347 0 00-4.015-7.18z" fill="#000"/><path d="M134.547 45.978a5.32 5.32 0 10-5.598-5.043 5.335 5.335 0 005.598 5.043zm18.092-.984a5.32 5.32 0 10-.568-10.623 5.32 5.32 0 00.568 10.623zm18.142-.984a5.307 5.307 0 10-.592-10.597 5.307 5.307 0 00.592 10.598zm271.149 7.427c.819 0 1.021-.378 1.45-.126.554-.252-.732-.076-1.135-.114-.353-.302 1.765-.252 2.723-.378.089.151-.63.215.517.265a2.912 2.912 0 011.601-.151c0-.202 1.261-.114 1.942-.139-.731 0-1.79-.088-1.261-.29a12.95 12.95 0 012.332-.227h-.882c1.109-.366 1.866.114 3.392-.063-.631.151-1.034.177-1.602.353a94.695 94.695 0 013.215-.517l1.261.227c.151-.151 1.462-.063 1.45-.265 1.614 0-1.261.316-1.437.467 2.029 0 1.601-.416 3.555-.215l-.63.227c.669-.08 1.343-.118 2.017-.113h-.731c.378-.429 2.962-.441 2.71-.857h-.895a19.051 19.051 0 013.379-.404c.807.101-.555.315-1.021.454 1.26 0 1.008-.517 2.521-.555-.807 0-.656-.189-.177-.315-.895 0-2.748 0-2.42.19h.328c-.076.113-.555.176-.795.251-1.26 0-.579-.164-.832-.227-2.017 0-.138.43-1.992.517l-.239-.075c-.861.05-1.71.224-2.522.517-.832-.227-2.093.227-2.988.113-.201-.592 3.14-.139 4.173-.517-.97 0 .542-.315.946-.466l-3.051.416a2.987 2.987 0 00-1.702-.063h.239c-1.26.126-.869.353-1.929.328-.163 0 .152-.152.228-.202-.971 0-.795.176-1.438.277-.971 0 .467-.277-.34-.302-.908.148-1.831.186-2.749.113.429.315-3.782.668-1.739.857l-2.32.353c-.732-.138 1.588-.567.92-.806l1.866-.089c-.328-.403-3.883.48-5.144.076-.876.076-1.758.076-2.635 0l.341.365c-.984 0-1.261-.226-1.362-.29-.567 0-1.084.076-1.614.089.217-.092.447-.148.681-.164-.756-.177-.958-.088-1.261 0a7.718 7.718 0 01-1.601.176l.542-.176a2.526 2.526 0 00-.87.189 6.31 6.31 0 00-.718.076c.467.181.961.284 1.462.302-2.269 0-4.034.151-6.001-.063.076-.1.87-.29.63-.29-.97 0-2.017.252-1.916.404h-.542a1.74 1.74 0 00-.883-.164 2.237 2.237 0 00-.617 0c-.303.315-2.169.265-2.522.416.441 0 .971 0 1.513-.063a4.461 4.461 0 01-2.067.378c1.437-.265-1.551-.227.617-.429-1.55-.29-.781.316-2.408.265l-1.059-.088c.152-.227 1.69-.202 1.437-.265l-.718.063c.718-.202 3.467-.24 5.144-.58h-3.404c-4.262.492-9.607.48-13.213 1.16h.151s-.088 0-.138.151h-.164l-.706.202c-.832-.164-2.358-.113-3.669-.202.819.089.819.089.908.24-.152.227-.265.328-1.488.315 0-.151.731-.189-.177-.265.467 0 0 .177-.466.227-.467.05-1.828 0-1.853-.176.264-.031.53-.031.794 0 .315 0-1.261 0-.366-.24l-1.26.114c-.719-.089.466-.227.176-.303-2.042.215-3.076.63-4.929.832.088-.088.088-.428.075-.328-1.437 0-3.051.542-4.664.656.435-.1.877-.164 1.323-.19-5.043.14-9.052.354-13.729.278l-1.261.429-1.261-.177c-4.917 0-8.674.48-13.338.833-1.45.1-.883-.202-1.576-.265-3.19.138-3.947.58-6.985.82.416-.127 1.109-.48-.202-.417-.377.23-.822.324-1.26.265l.416-.126a23.311 23.311 0 00-3.051.088 45.955 45.955 0 00-7.64 1.06c-2.446.087.226-.392-.24-.455 1.74 0 1.261-.126 1.563-.265a5.544 5.544 0 01-2.521 0c-1.037.03-2.07.145-3.089.34.618-.125 1.172 0 .58.127-1.034 0-3.681.214-3.555-.114-6.014.391-12.747.681-19.189 1.047-1.084.227.832 0 .24.164-1.576.302-1.261 0-2.522.202l.504-.202c-1.878.075-3.858.504-5.673.756.29-.214-1.513-.075 0-.277-.895.076-2.017-.744-2.698-.517l1.046.757c0 .088-1.26.1-1.172.15a12.61 12.61 0 00-2.282-.226c-.277-.19 1.084-.227 1.815-.265.101-.34-2.521-.076-1.449-.454-1.589.139.239.164-.706.34h-1.387 1.071a10.076 10.076 0 01-3.088.341l-1.589.416c-.176-.252-1.172 0-1.992 0l.504-.202c-.738.066-1.48.066-2.219 0 .606-.277.996 0 1.261-.24h-1.261c0 .152-.756.316.114.354a13.151 13.151 0 01-4.501.756c-1.261-.202 1.349-.315.807-.542-2.912 0-3.505.87-5.207.933-2.181 0-2.042.252-4.236.378.693-.214-1.551-.1-1.954-.252l.857-.24a2.144 2.144 0 01-1.16 0 41.583 41.583 0 01-4.312.53l.278.19c-1.185.125-2.812.352-4.072.365-.972.095-1.929.307-2.85.63-.807-.151-.731-.365-.479-.605.505.076 1.349 0 2.169 0a52.465 52.465 0 016.518-.87c.996-.555-1.576.139-2.736 0a.58.58 0 01.202 0 2.227 2.227 0 01-.29 0 6.874 6.874 0 002.433-.53c-1.412.127-.996.555-2.761.442a15.808 15.808 0 01-3.165-.126 6.135 6.135 0 01-3 .68l.908-.34c-2.408.126-1.11.48-3.341.58.794 0-.744.328.756.252a17.644 17.644 0 01-3.568.29c-.315 0 0 .101-.113.19 1.349.126 2.105-.303 3.227-.076l.908-.353c1.261 0 1.399.277.643.441.306-.035.614-.035.92 0 .24.441-1.513-.088-1.929.328l.883-.088c.403.277-2.043.378-3.177.416-1.135.037-2.522 0-2.522-.265l1.715-.19a22.34 22.34 0 00-3.202.265 1.267 1.267 0 00-.278 0h.076a2.524 2.524 0 01-.567 0c-.883 0-2.169.24-3.001.215l.113.189.114-.114c.807 0 1.904 0 1.261.19a4.071 4.071 0 01-2.635-.253c.403-.315 1.777-.1 2.698-.252a25.904 25.904 0 00-3.783 0c.732-.365 2.181-.113 2.522-.428-1.513 0-1.904.277-3.505.277.202-.164 1.752-.252 1.639-.441h-1.021c2.521-.152-.467-.366 1.487-.555-.932-.076-1.26.328-2.597.202.366.113 1.438.315.177.504h-1.425c-.605-.126 1.463-.416.53-.504l-1.475.189c0 .1.769.1.327.265-.87 0-1.399.44-2.395.63a7.132 7.132 0 01-1.752 0c-2.018.39-4.59.517-6.455.883 1.26-.265-.063-.316-.845-.43 1.475-.113 1.462-.415 1.361-.592-.895.076-1.475.416-1.008.492-1.513 0-1.021.265-2.358.126-.857 0 .416-.315.114-.403-1.614 0-.416.378-2.181.403.1 0 .252-.063.113-.113a5.335 5.335 0 00-2.156.34c-1.034-.328-2.849.202-2.673-.19-2.282.228.353.19-.088.341a14.788 14.788 0 01-3.227.152 12.15 12.15 0 011.639-.14l-.505-.239c-2.862 0-1.777.694-4.551.605 1.412-.201.467-.214 1.16-.44-.416.087-2.522.125-1.261.264h-2.521a16.56 16.56 0 00-2.434.48 20.938 20.938 0 01-3.227-.152c-3.038.353-5.875.176-9.077.554h.239c-2.521.089 1.122.29-1.475.417.34-.328-1.551-.126-2.408-.253-3.177 0-5.472.53-8.409.48 0-.076.202-.164.769-.202-2.232 0-4.035.176-6.052.277h.089a90.813 90.813 0 00-9.494.643c.265 0 .328-.176.542-.227-1.86-.037-3.719.12-5.547.467-2.017-.202-1.261.164-3.908 0-.152 0 .252 0 .416-.089-1.261 0-2.156 0-3.442.076a43.053 43.053 0 01-6.77.857c-.189-.416 2.004-.214 2.067-.567a7.633 7.633 0 01-2.118.177c.53-.19.101-.114.467-.29-.933.097-1.854.287-2.749.567 0 .088.215.113.858.076a45.083 45.083 0 01-4.804.39c.517 0 2.143 0 1.551.215a18.07 18.07 0 00-4.299.73c-1.98-.087 1.424-.44 1.033-.73-.327-.089-1.134-.29-.315-.454-1.765 0-3.026.353-4.589.504v-.088c-2.194.151-4.526.656-6.379.592h.983c-.695.062-1.386.167-2.067.316 0-.126-1.022-.177-.933-.29-1.122.453-4.892.517-5.926.983-.592-.076-.126-.29 0-.403a9.6 9.6 0 002.585-.19c-1.148 0-2.005 0-1.828-.126-1.148.353-3.884.618-4.451.933-.845-.1-1.664-.138-1.374-.39-3.53.34 1.79.642-2.206.857-1.841-.139 1.752-.416-.757-.353h.454c-1.841-.517-1.261.504-3.303.592-.29-.315 1.424-.315 0-.479-1.879.19-2.673.732-4.564.719l.29-.151c-1.261.088-3.543.15-4.74.24-.064 0 .113 0 .34-.09-.914.081-1.831.11-2.749.09l-.504.188c1.261.108 2.531.066 3.782-.126-1.147.252 1.829.328 1.261.643l.214-.126c3.039.328 6.935.177 10.755.164 2.395-.48 4.11-.088 6.694-.466.378-.416.479-.101 2.686-.303-1.173.113-.114.302.63.315a9.422 9.422 0 011.475-.252c1.421.22 2.866.22 4.287 0 1.361 0-.316.151-.606.24.568.176 1.097-.215 1.551-.101l-.164.075c2.068-.138 3.316-.1 5.472-.164.151-.39 2.105-.264 3.051-.453-.303.15 1.261.088 1.841.126l1.134-.353c1.122-.303 1.589.088 3.064-.126h-.366a27.51 27.51 0 015.043 0c9.922-1.261 15.432-.404 25.921-1.173.668-.151-.517-.176 0-.366 1.059-.113 1.261-.1 2.27-.164h-.606l-1.487.19c-.076 0 .088 0 0-.089-.505.063-1.084.164-1.727.19.781-.26 1.597-.4 2.42-.416a1.83 1.83 0 01-.58.113c1.034 0 1.084-.177 1.866-.139.782.038.719-.063.845 0h2.975a12.003 12.003 0 013.782-.176c-.302.265-1.954.176-2.672.466l1.084.126v-.201h1.525-.088c.23-.129.497-.174.757-.126.063 0 .214.075 0 .088l1.084-.164c-.631.24.945 0 .807.265 3.542-.076 4.488-.58 7.564-.416-.504-.089.971-.43 1.929-.442.555 0 .706.076.353.19l1.261-.19a34.23 34.23 0 005.434 0l-.114.114a17.657 17.657 0 013.051-.353l-.227.227c1.576.075 1.173-.505 2.913-.467 0-.227-1.11-.29-1.261-.491.428.201 2.282.138 1.841 0 1.727-.19 1.26-.063 1.349 0l1.008-.19c1.261 0 .404.278 0 .43a15.622 15.622 0 013.656-.228l-.517.126h1.69a20.005 20.005 0 014.072-.315l-.971.353c1.009.1.505-.126.769-.202a6.58 6.58 0 012.761.089c2.522-.454 5.043.214 7.212-.353l.277.163c2.925-.542 6.304-.176 8.674-.832 3.631.429 2.333-.693 5.661-.315l-.126-.075c10.855-.48 22.391-.782 32.514-1.627v.126c16.39-.668 32.263-1.79 48.464-2.521 1.5-.19.58-.416 1.866-.63.567 0 1.853-.102 1.865 0-1.096.138-.466.239-.844.327 1.828-.113 4.185 0 5.799-.34l-1.374-.126a19.187 19.187 0 012.206-.139c-.239.114.605.29.114.366 3.404-.681 2.685 0 5.56-.29.554-.454 4.147-.996 6.518-1.425h1.26c-1.651.088 0 .303-2.004.39 1.727 0 3.303-.239 4.942-.251-.328-.089-.252-.24.403-.316.996 0 1.097.202 2.232.164l-1.11.202a8.232 8.232 0 002.106-.202c.239.164 1.941.114 1.651.328 1.526-.328 2.081-.227 3.72-.466-1.728-.089.428-.252.239-.391l-1.941.176c2.735 0-.883.076-.669.366-1.26 0 1.74-.593-.403-.429 2.522-.29 3.114-.189 5.724-.58-1.589.152.29-.214-.568-.252 2.018-.126.505.076 1.148.24.845.039 1.693-.03 2.521-.202 1.79 0-.252.24.656.315-.643.24-4.955 0-4.438.656-.933 0-2.042.365-3.379.428 1.424.1 2.854.074 4.274-.075l.063-.378c1.084-.076 1.261-.34 2.093-.353-.416.138.353.252 1.261.176-.252 0-.605 0-.517-.088 1.626-.114 1.841-.378 3.782-.555-1.614 0-1.941-.1-3.454-.189.39-.277 1.059-.088 1.941-.164-.138 0-.315 0 0 .088l.921-.176c2.004 0-.227.403 1.424.428 1.16.164 1.564-.201 2.434-.125h-.164.416a9.096 9.096 0 002.521-.353c.426.017.851-.034 1.261-.152a7.096 7.096 0 012.887-.151c1.261 0 2.358 0 2.068.139h2.143l-.215.264a11.712 11.712 0 003.052-.643 28.9 28.9 0 004.74-.327h.769-.82c1.526 0 1.324-.19 2.333-.253h.945c-.167.02-.336.02-.504 0l.189.076a19.52 19.52 0 003.152-.227h-.466c.731 0 1.803.328 2.092.088.227.004.453-.03.669-.1.34-.089.643-.202.693-.152h1.866c.423.006.845-.028 1.261-.1l.328.088h.605c2.37.24 3.631-.391 6.19-.215.466-.201-.58-.214-.668-.315.391-.151 1.841-.353 2.521-.492 1.148.19 4.627.215 4.098.593 2.093-.088-.669-.177.378-.353h.24a7.144 7.144 0 01-1.715-.202c-.177-.189 1.677-.34 2.244-.315l-.378.29c1.929-.202 1.5-.58 2.685-.92 1.551 0 .681.315 1.009.542l1.613-.151v.201a15.88 15.88 0 012.749-.315c-.845-.265 2.433-.441.996-.063zm-38.655 2.143a3.191 3.191 0 01-1.374-.164c.706-.34 4.488 0 3.782-.176 1.665-.215 1.148 0 1.261 0-1.651 0-2.521.151-4.022.126a.79.79 0 01.353.164v.05zm16.277-1.008h-.227c.517-.164.819-.227.227-.05v.05zm17.108-2.446l.202-.076-.202.076zm-52.309 250.182c.164 0 .088.29 0 .353-.366.29-.555-.088-.58-.214l.277-.089c-.328-.706-1.135.164-1.702.139l.215-.529-.568.453c-.126-.126-.227-.416 0-.504-.416-.239-.353.202-.718-.075v-.089l-.391.177c.075-.114-.076-.366.164-.303-.732-.277-1.135.441-1.425 0-.983.227-.076.391-.807.883l-.542-.933-.076.391c-.113 0-.315 0-.277-.189-.378.277.063.163-.139.428-.517-.34-1.361.215-1.487-.391-.164.303.479.202 0 .429-.189-.656-.606.139-1.072-.139.126-.353.555-.189.101-.479-.252.593-.895-.088-1.261 0 0 .467-.819.227-1.45.404 0-.152-1.261-.189-1.815-.341v-.075c-.089.466-.706.403-1.148.517a.497.497 0 01.316-.517h-.416a.667.667 0 01-.492.302l.088-.34c-.555 0-1.097.454-1.828.252 0 .315.605.87-.139 1.122 0-.176-.075-.479.114-.555-.063 0-.227.152-.353.089l.29-.316c-.341-.113-.164.253-.429.24 0-.252-.202-.164-.164-.366.038-.201.227.089.328 0a1.258 1.258 0 01-.794-.34.262.262 0 01-.012.232.26.26 0 01-.19.133c-.555 0-.202-.289-.529-.403-.127.189-.492 0-.48.391-.163 0-.201-.164-.277-.265-.277.177-1.336.101-.996.479h.076c-.933.404-1.967-.126-2.9.063v-.126c-.555.177-1.261.139-1.626.429-.164 0-.404-.214-.341-.366a1.33 1.33 0 01-1.084.076c.416-.24-.164-.189.429-.177-.555-.088-.694-.277-1.261.089.189-.328-.441-.391-.706-.278l.403.215a3.618 3.618 0 01-.819 0l.126-.429c-1.16-.467-2.017.958-2.925.139-.29.302.63.176.378.529-.529 0-1.097-.605-1.26-.605-.732-.202-.644.643-1.4.517.101.139.202.542-.353.706-.517 0-.668-.605-.34-.744.126 0 .189 0 .189.088 0 .089.378-.138.164-.29v.152c-.265-.139-.984-.101-.82-.353-.391.163-.164.252.139.315-.681-.189-1.059 0-1.753-.076.114.076.227.252.114.252-1.021-.138-.441.303-1.122.404-.404-.215.113-.555-.567-.328-.429-.139-.101-.404.063-.53-.618.316-1.261-.138-1.551-.176l.328-.139a1.438 1.438 0 01-.53.101l.202.29c-.189 0-.366 0-.366-.164-.189.202.177.492-.214.769-.265-.138-.782.202-.883-.189.82.101-.113-.403.58-.492a.792.792 0 01-.491 0s0-.088.075-.113c-.794-.315-.34.466-1.147.492.088-.227-.214-.416-.34-.366.327 0 .176.366-.127.555-.529-.152-.554.151-.832.151h.316c-.089.227-.353.214-.719.29 0-.164.328-.126.202-.202-.391.416-.933-.365-1.488-.075-.265-.139 0-.416-.265-.517-.618.315-.693-.278-1.349 0 .202.302.227.227-.227.529l1.085-.252-.782.63c.328 0 .681-.214.882-.176-.315.265-.29.189-.126.429-.466-.429-.87.302-1.412 0v-.744c-.794-.303-1.361.441-2.382.302l.327.114c-.126.302-.63 0-.945.202 0-.253-.189-.341-.341-.48 0 .177-.744 0-.807.505l-.466-.303c-.832-.101-.908.744-1.702.694.227-.278-.139-.442.391-.656-.265 0-.505 0-.505.151-.163-.151-.718.366-.958.139-.113.113-.138.366-.428.366a.149.149 0 010-.126c0 .126-.454.189-.177.453-.845-.743-2.257.152-2.988-.491-.587.12-1.181.209-1.777.264 0-.075 0-.126.088-.1-.719-.202-.404.731-1.261.504-.429-.391.429-.24.164-.378-.151-.82-.983.151-1.551-.303h.126c-.428-.265-1.008.353-1.702.315a.112.112 0 000-.113 4.612 4.612 0 01-1.992.756c.202-.328.303-.189.164-.504-.302 0 .101.517-.479.63-.202-.164-.63-.302-.706-.643h.555c-.303-.428-.719 0-1.021 0v-.201c-.858.101-.845.592-1.765.605l.1.138c-.479.517-.428-.252-.92.127l-.164-.492c-.556.266-1.134.485-1.727.655.424-.36.905-.645 1.425-.844-.328 0-1.11.088-1.261.34.126 0 .29-.189.429-.113a2.213 2.213 0 01-1.564.643c.076-.971-1.714-.177-2.219-.908-1.147.416-2.307 0-3.643 0 .504.731-.391 0-.278.807h-.453l-.971-.416c-.227-.215.29-.177.252-.353-.681 0-.303-.315-.757-.505.101.278-.227.404-.617.316l.567.34c-.946.441-.857-.618-1.815-.164l.302-.265c-.492.164-1.841.076-2.295.719-.088-.088-.214-.29 0-.353-1.26 0-2.609.769-3.555.416l.088-.189c-.226.063-.378.378-.655.189 0-.076.076-.189 0-.189s-.58.353-.87.252l.24-.227c-1.173-.189-1.753.593-2.724.769 0-.554-.933-.693-1.399-.769v-.075a14.65 14.65 0 00-3.505.819c-.794-.567-2.635-.139-3.896-.429.202.101 0 .442-.227.505s-.794.416-.769-.089h.202c-.24-.491-.832-.327-1.261-.327v.668c-1.26-.908-3.202.492-3.908-.341-.29.177-.656.189-.933.366v-.353a9.06 9.06 0 00-2.244 0l.189-.265c-.567 0-.681 1.059-1.198 1.11l-.189-.53c-.996 0-2.017-.378-2.988.151 0-.088 0-.239.202-.264-.479 0-1.841-.29-1.639.441 0-.479-1.021 0-1.563.227l.075-.353c-.441.466-.441.592-1.071.744-.114 0-.139-.164 0-.202-.353 0-.328.34-.87.189l.214-.227c-.517 0-.466.114-.744.378-.277.265-.983 0-1.071-.353a.568.568 0 01-.643.379c0-.114 0-.189.113-.227-.87-.202-1.261.454-1.866.138a.216.216 0 00-.113-.201c.394-.032.79-.032 1.185 0 0-.328-.568-.353-.139-.82-.441.265-1.172.82-1.727.694l-.076-.114h.063a.518.518 0 00-.34.063 1.994 1.994 0 00-.454-.075c-.076-.265-.643-.114-.92-.114 0 .353-.328.303 0 .58l.239-.063c.24-.063.088 0 .114 0h.68c-.214.189-.428.353-.743.164a6.776 6.776 0 01-.366.592c-.403-.479-1.135-.718-1.261-1.008-.832.227-1.979.214-2.521.895-.24.101-.278-.177-.378-.277.138-.076.302-.076.378-.164-.479.189-1.425.126-1.513.592-.618-.189.315-.441-.504-.328l.1-.151c-1.664-.681-2.597 1.261-4.45.416.126 0 .189.076.214.151-2.08-.327-4.236.58-6.303 0-.593-.113-.643.19-.984.429l-.138-.378-.593.466c-.832.353-1.513-.87-2.522-.214l.152.252c-.391 0-1.261.202-1.173-.101 0 0-.126.278-.277.152v-.202l-.933.378c-.756-.113.076-.794-1.009-.782-.391.089-1.122.618-.958.744.164.126.416.114.441.316l-.365.113c0 .593-.303 1.198.618 1.576l.617-.391.215.277h-.53c.315.265.492 0 .694-.151a.542.542 0 00.277.303l.592-.593c.089.227-.252.467.164.58.278-.277-.302-.504.177-.693.315.252.227.466.58.227a.263.263 0 01-.151.327c.302-.201.819-.113.97-.441.328.328 1.059-.126 1.047.429.225-.24.513-.41.832-.492-.504.694 1.084 0 .971.719.365-.618 1.399-.328 2.08-.694 0 0-.114.152-.177.126.391 0 .517.202.769.303 0-.492.631-.63.946-.946.492.454-.265.593-.101 1.047 0-.404.82-.441.643-.769.378.277.315.138.517.529 0-.617.34-.113.63-.504.543.277.164.567.732.353.277.189-.227.429-.227.429.592 0 .264-.467.378-.744.693-.164.34.328.592.555.429-.139.744-.58 1.085-.58 0 .075.088.101 0 .201.454-.39 1.387-.075 1.903-.567a.331.331 0 01.076.113 1.52 1.52 0 01-.101-.63c.265 0 .479-.315.593 0-.164 0-.177.114-.252.214l.277-.138c.265.428-.378.164-.366.491.542-.163 1.16-.554 1.576-.453.101.428-.958.189-.391.542l-.655-.139c.517.656-.391 0 .088.681.857.088.933-.265 1.79-.177.177-.239-.075-.34.101-.592 1.173-.479.984 1.034 1.841.428.214-.29.277-.832.92-.58l-.189.492c.82 0 .429-.706 1.261-.416-.139.189-.63.177-.504.24.567.353.378-.29.806-.316l.101.429c.87-.101 1.816-.454 2.774-.58 0 .139-.202.278 0 .391a10.327 10.327 0 013.782.151l.429-.391c.113 0 .202.164.101.24.454.126 0-.24.227-.391.227-.151.353.202.189.315a4.843 4.843 0 013.139-.403l-.164.113c.668.126.706-.794 1.336-.466l-.113.063c1.45.101 3.013-.303 4.135.214.189-.542 1.438.177 1.488-.58.845.341.618.479 1.778.681.315 0 .441-.479.819-.58v.391l.504-.429.29.454.353-.113c-.138 0-.315-.164-.29-.278.555-.201 1.375.215 1.387.416l1.261-.39c0 .164-.24.227-.416.327.693-.428.151.404.782 0-.089-.075 0-.226 0-.315a2.406 2.406 0 001.601.076l-.088.277c.983 0 2.055-.214 3.164-.265a.315.315 0 110-.63l.151.404c.189-.265-.353-.139.063-.467.416 0 .303.454 0 .593l.505-.164c0 .126-.089.201-.114.353.202-.265.883.378 1.16-.076v.114c1.097 0 1.589-.202 2.522-.265 0-.353.353-.29.617-.58.719.171 1.455.26 2.194.265.542-.202.151-.303.391-.53 0 .328.845.265.441.504a11.574 11.574 0 002.408-.416c-.139-.138-.29-.189-.214-.302.075-.114.504.113.479.277 1.261-.542 3.152.807 4.198.088l1.097-.403c.517 0-.303.265.088.441 1.185-.592 1.904 0 2.887-.403.807.92 2.711-.177 3.783.391l-.076-.227c.265-.227.328.113.53.164 0-.177-.303-.19-.139-.328a35.74 35.74 0 017.035.239c.844 0 .428-1.185 1.525-.693l-.29.429c1.702-.568 3.518-.126 5.169-.618-.088.101-.088.227-.252.227.366.29 1.261 0 1.261-.29.265 0 0 .227.227.34.366.164.882-.416 1.084-.126 0 0-.088.101-.164.126.227-.151 1.085 0 .845-.353.643.151 1.261-.202 1.715 0 .315-.403 1.084.139 1.172-.416 0 .567 1.122.416 1.513.126-.126.177.353.164.202.416.454 0 .87-.151.781-.441.87.643 1.665-.618 2.169.227a37.51 37.51 0 013.782-.807c0 .567-1.349.114-1.261.706a8.643 8.643 0 012.938-.706c.302.063-.151.252-.252.353 1.147-.277 2.231 0 3.252-.391 0 0-.113.114-.214.164.202 0 .467 0 .441-.189l-.201.076c-.341-.366.769-.82.794-1.022-.303.757 1.021.152.517 1.11.139-.063.302-.189.265-.366.189 0 .264.152.063.353.718-.176.454-.441 1.109-.454 0 .126-.126.177-.189.328a1.452 1.452 0 011.261-.441c0 .076 0 .176-.126.176.945-.075 1.588-.718 2.647-.516-.29.554.353.163.429.63l.555-.164-.227-.227c.491 0 .907-.366 1.336-.227l-.353.202.92-.126-.529-.151c.479-.265-.088-.593.58-.492-.139 0 .492 0 .756.252a.942.942 0 01.394-.219.943.943 0 01.451-.008c.101.151 0 .517 0 .618.227-.404 1.147-.151 1.437-.593a.446.446 0 000 .404l.177-.328c.239.088.277.139.239.34.694 0-.239-.592.58-.365-.063 0 0 .075-.151.126.819.101 1.563-.265 2.32-.139.239.467-.643.139-.378.53a20.42 20.42 0 013.265-.593h-.189c.113-.668.794.303 1.26 0-.126.063-.163.378-.126.303a8.611 8.611 0 002.522-.479l-.126.176c.522.072 1.049.106 1.576.101.126-.177.391-.164.227-.404 1.45.921 2.66-.63 3.946.127-.151 0-.353.163-.24.163l1.059-.201c-.088-.29-.138-.177-.378-.391a.988.988 0 01.693-.341c-.479.215.001.467.227.631v-.29c.58.504 0-.58.845-.265v.151c.277-.088.53-.302.845-.277.138.34-.303.177-.303.454.429 0 .82-.668 1.261-.353-.177.101-.441.113-.618.214a.976.976 0 00.795.328l.731.151-.189-.101c.504-.895 1.096-.201 1.79-.806-.681.567-.101.315-.139.693.189.101.479.214.404.315.327-.315.58.227 1.046-.252 0 .126.366 0 .303.315.441-.113-.114-.214-.089-.365.669-.454 1.639.441 2.61-.177.832-.277.971-.693 1.753-.933.277.189-.19.454-.19.454a1.486 1.486 0 001.16 0c-.088.113 0 .202.139.328s.189-.454.63-.29c-.067.186-.17.357-.302.504.378-.126.744-.378 1.134-.504.127.214-.214.34-.353.479.442-.114 1.148-.24 1.261-.58l-.403-.227zm-125.457 3.568a.665.665 0 010-.189c.189 0 .252 0 .277.088-.095.026-.188.06-.277.101zm1.437 2.282h-.277.277zm.656-.063c0-.114 0-.24.113-.24.114 0 .214.139.391.24h-.504zm28.063 45.513l.278-.328v.29h-.215c.089.29.19.063.29-.088a.612.612 0 00.064.315l.302-.529c0 .239-.164.441 0 .592.139-.252 0-.529.151-.681.089.278 0 .492.189.278a.397.397 0 01-.1.315c.138-.176.327 0 .428-.353.076.34.416 0 .341.517 0-.126.264-.416.378-.416-.277.63.403.076.277.782.215-.58.568-.202.858-.505 0 0 0 .139-.076.101-.076-.038.164.252.252.378.076-.491.315-.58.467-.87.138.492-.164.568-.152 1.022 0-.391.353-.366.328-.706.092.179.14.378.139.58.088-.618.138-.101.29-.467.176.328 0 .58.239.416.076.202-.138.404-.138.404.227 0 .151-.442.227-.706.277-.101.088.353.163.605.177-.114.353-.517.467-.492a.385.385 0 010 .202c.214-.353.529 0 .782-.416a.663.663 0 010 .126 3.29 3.29 0 010-.643c.1 0 .214-.278.226 0 0 0-.088.113-.126.201l.126-.113c0 .441-.163.126-.189.454.215-.126.492-.454.643-.315 0 .428-.39.101-.214.504l-.227-.189c.126.693-.151-.063 0 .681.303.151.378-.189.694 0 .088-.227 0-.353.1-.58.492-.378.265 1.109.643.567.114-.277.202-.807.416-.504l-.126.479c.303.076.24-.681.542-.328-.075.189-.264.139-.226.202.189.403.176-.265.34-.252v.441c.34 0 .731-.328 1.109-.366 0 .126-.113.252 0 .391a1.67 1.67 0 011.425.429l.202-.366s.063.177 0 .252c.164.152 0-.239.113-.378.114-.139.126.227 0 .328.328-.29.933-.605 1.261-.177l-.076.101c.252.164.353-.731.555-.378v.063c.542.202 1.173-.088 1.551.492.113-.517.529.277.618-.467.289.391.189.517.617.795.114 0 .202-.454.353-.517v.39l.215-.39.075.466.152-.088a.335.335 0 01-.089-.29c.215-.164.505.302.492.492l.529-.29c0 .151-.113.201-.189.302.303-.391 0 .404.303 0a.834.834 0 010-.315.456.456 0 00.605.177v.264c.42.032.841.032 1.261 0-.151-.138-.088-.592 0-.63v.403c.101-.239-.114-.151 0-.454.151 0 .076.467 0 .593l.202-.126c0 .113 0 .176-.063.34.088-.252.302.429.441 0v.126c.325-.02.649-.058.971-.113 0-.353.151-.265.264-.542.253.126.517.416.832.391.316-.026.076-.29.177-.505 0 .328.303.303.139.53.333-.012.658-.108.945-.277 0-.139-.101-.202 0-.316.101-.113.177.152.164.303.542-.467 1.173.983 1.601.315l.441-.34c.202.063-.126.239 0 .441.48-.517.732.113 1.123-.24.277.959 1.059 0 1.437.568v-.227c.101-.215.113.138.189.189 0-.177-.101-.202 0-.328.882-.239 1.803.353 2.698.567.328 0 .189-1.159.605-.617l-.126.416c.668-.505 1.362 0 2.005-.416 0 .101 0 .227-.101.227.138.302.504 0 .504-.24.101 0 0 .227.088.353.089.126.341-.391.416-.101v.126c0 .026.416 0 .328-.315.24.164.454-.164.656 0 .113-.391.416.177.454-.378 0 .58.428.454.579.189 0 .164.139.177.089.416.176 0 .328-.126.29-.416.34.668.63-.58.844.29a6.946 6.946 0 011.45-.706c0 .58-.517.076-.466.681.428-.252.668-.757 1.109-.643.126.075 0 .252-.088.353.441-.265.87 0 1.261-.328a.25.25 0 01-.076.151c.076 0 .189.076.164-.176l-.076.075c-.138-.378.265-.806.265-1.008-.088.756.404.164.252 1.109a.407.407 0 00.075-.162.396.396 0 00.001-.178c.088 0 .113.139 0 .34.277-.164.151-.428.403-.441v.328c.114-.252.215-.517.442-.416v.164c.365-.063.567-.694.996-.492-.076.555.151.176.214.643l.202-.164-.379-.076c.202 0 .328-.378.505-.239l-.114.214.341-.126-.215-.164c.164-.252-.075-.58.177-.479 0 0 .189 0 .315.252.076-.164.164-.327.315-.227.152.101 0 .517 0 .618 0-.403.429-.151.492-.58a.954.954 0 000 .391v-.328c.101.101.113.152.126.341.265 0-.151-.58.189-.353v.126c.328.088.58-.29.883-.164.151.454-.24.151-.089.529.416-.138.782-.681 1.261-.617h-.075c0-.669.352.289.504 0a.617.617 0 000 .302c.302 0 .542-.252.92-.529v.176c.189.126.441 0 .631.063 0-.189.126-.176 0-.403.718.857.907-.732 1.55 0 0 0-.101.176 0 .164l.378-.24c-.1-.277-.1-.164-.226-.366a.357.357 0 01.189-.353c-.139.227.101.454.227.593a1.466 1.466 0 010-.265c.34.454-.101-.58.264-.315v.151c.089-.101.126-.327.252-.315.139.315-.075.189 0 .454.164-.063.152-.706.391-.416 0 .101-.138.139-.189.24.265.34.252.239.391.264l.328.089-.101-.076c0-.908.366-.265.466-.895-.1.592 0 .315.152.681.101.075.239.151.239.264 0-.34.29.164.341-.327 0 .113.138 0 .201.264.139-.151-.1-.189-.138-.34.113-.492.781.265.958-.404.214-.365.113-.769.302-1.084.177.139.114.454.114.454.227.088.328 0 .416-.176a.453.453 0 00.189.277c.101-.088-.113-.441.114-.34.054.159.088.324.1.491.089-.164.126-.428.215-.605.138.164 0 .328.075.492a.75.75 0 00.202-.744h-.151s.164.239.151.328c0 .302-.239 0-.302-.101v-.126c-.429-.58-.328.315-.555.365l-.151-.517v.492c-.101-.101-.253-.353-.19-.466-.252-.177 0 .214-.29 0a.113.113 0 01-.01-.044c0-.016.004-.031.01-.045l-.075.202c0-.113-.164-.328 0-.29-.366-.176-.24.53-.492.202-.277.315.114.378 0 .895l-.517-.819.101.365s-.126 0-.164-.151c0 .302.076.151.088.416-.302-.277-.441.328-.68-.24 0 .29.239.152.126.404-.265-.605-.189.189-.442 0 0-.353.152-.227-.1-.467.075.593-.353 0-.454.126a.278.278 0 010 .253v-.253a2.083 2.083 0 00-.089-.239s0 .328.076.492c.076.163-.29.075-.416.214 0-.151-.504-.114-.756-.214v-.089c0 .467-.177.442-.316.568a.745.745 0 010-.53h-.151a.366.366 0 01-.113.315v-.34c-.19.063-.316.479-.631.315 0 .315.404.832.164 1.11a1.153 1.153 0 01-.063-.555s0 .164-.113.101v-.316c-.152-.088 0 .265-.114.253 0-.24-.113-.152-.138-.353-.026-.202.1.088.126 0a.513.513 0 01-.366-.303c0 .126.076.328 0 .378-.076.051-.126-.29-.277-.378 0 .177-.177 0-.114.391 0 0-.101-.164-.139-.252-.088.176-.491.126-.302.491-.29.429-.769-.075-1.084.139v-.126c-.189.189-.454.164-.568.441 0 0-.176-.201-.176-.353-.139.114-.139.265-.404.089.139-.24-.075-.19.152-.177-.227-.088-.303-.277-.479.088 0-.315-.215-.378-.29-.264l.163.201a.425.425 0 01-.302 0v-.428c-.479-.442-.668.97-1.084.151-.089.302.252.176.189.529-.202 0-.479-.605-.53-.605-.302-.201-.189.631-.491.505 0 .151.126.542-.076.706-.202 0-.303-.606-.189-.732.113-.126.075 0 .075.076a.175.175 0 00.05-.065.184.184 0 000-.16.175.175 0 00-.05-.065v.151c-.113-.138-.39-.101-.34-.34-.139.151 0 .239.076.315-.278-.189-.404 0-.668-.101 0 .088.1.252 0 .252-.404-.151-.152.303-.404.391-.164-.214 0-.555-.239-.34-.177-.139-.064-.391 0-.517-.215.302-.454-.151-.593-.202l.113-.126a.287.287 0 01-.189.088l.089.29c-.076 0-.139 0-.152-.164 0 .202.101.492 0 .769-.113-.151-.29.19-.353-.214.315.114-.063-.391.189-.479 0 0-.101.063-.176 0a.113.113 0 010-.113c-.315-.328-.101.466-.404.479 0-.227-.1-.429-.151-.379-.05.051.088.379 0 .555-.214-.164-.202.139-.315.126l.126.076c0 .227-.126.202-.265.277 0-.176.126-.126.063-.201-.126.403-.365-.391-.554-.114-.114-.139 0-.416-.127-.517-.226.303-.277-.29-.516 0 .088.303.1.227 0 .53l.403-.24-.239.454c.126 0 .252-.202.327-.151-.113.252-.101.176 0 .416-.189-.441-.315.277-.529 0v-.744c-.303-.315-.505.403-.895.239l.126.114c0 .303-.227 0-.353.176a1.086 1.086 0 00-.139-.491c0 .189-.277 0-.29.491l-.189-.315c-.315-.126-.328.719-.63.643.075-.265 0-.441.138-.643-.101 0-.201 0-.189.139-.063-.164-.265.34-.366.101 0 .113.001.378-.163.353a.38.38 0 010-.126c0 .126-.177.176 0 .454-.328-.769-.87.063-1.148-.593a2.419 2.419 0 01-.668.189v-.088c-.265-.227-.151.719-.466.454-.315-.265.164-.215 0-.366 0-.819-.379.114-.593-.365-.151-.278-.378.315-.643.252a.38.38 0 000-.126 1.248 1.248 0 01-.769.68c.076-.315.114-.163 0-.491-.113 0 0 .517-.189.618a1.459 1.459 0 01-.252-.681h.214c-.113-.442-.277 0-.391 0v-.189c-.327.063-.328.554-.681.517v.151c-.201.479-.163-.278-.352.075v-.491c-.199.22-.429.411-.681.567.143-.287.335-.548.567-.769-.126 0-.429 0-.492.277 0 0 .114-.176.164-.088-.151.378-.365.58-.605.567 0-.97-.655-.264-.819-1.008-.442.34-.87-.177-1.375-.126.164.756-.151 0-.138.794h-.177l-.353-.466c-.075-.227.114-.164.114-.341-.265-.063-.101-.328-.265-.542 0 .277-.101.391-.252.277l.201.366c-.378.403-.302-.656-.68-.265l.126-.239c-.189.138-.694 0-.895.592 0-.088-.076-.302 0-.353-.442-.113-1.022.618-1.362.227v-.189c-.088 0-.164.341-.252.151-.088-.189 0-.189 0-.201 0-.013-.24.327-.341.214l.101-.214c-.428-.265-.693.491-1.071.605a.87.87 0 00-.479-.857v-.076c-.517-.088-.896.416-1.387.605-.265-.605-.984-.303-1.437-.668a.536.536 0 01-.127.479c-.1-.114-.327.378-.277-.139 0-.504-.29-.378-.466-.403l-.076.668c-.403-.996-1.261.277-1.437-.605-.126.151-.265.139-.391.302v-.353a1.332 1.332 0 00-.845-.113l.088-.252c-.214 0-.34 1.008-.542 1.021v-.542c-.378 0-.731-.504-1.134 0 0-.088 0-.24.088-.252-.177 0-.656-.416-.643.328 0-.48-.391-.076-.618.113v-.353c-.202.441-.227.555-.479.668a.234.234 0 01-.024-.101c0-.035.009-.069.024-.101-.126-.063-.151.303-.34.127l.101-.215c-.19 0-.19.076-.316.328s-.365-.113-.365-.441c0 .189-.177.441-.29.34a.384.384 0 01-.166-.179.387.387 0 01.093-.454.393.393 0 01.224-.098c-.315-.265-.529.366-.719 0a.571.571 0 000-.202c.265 0 .467.063.442.088 0-.327-.177-.403 0-.832-.189.227-.53.732-.719.568a.312.312 0 010-.114h-.126c-.038 0-.101-.101-.164-.101 0-.277-.227-.164-.328-.189 0 .353-.164.278 0 .58h.353c-.101.177-.201.315-.302.114l-.189.554c-.101-.504-.353-.794-.366-1.096-.34.163-.769.063-1.034.706-.088.075-.076-.202-.101-.316-.025-.113.114 0 .152-.138-.202.164-.543 0-.631.479-.214-.227.164-.416-.151-.366v-.139c-.542-.794-1.122 1.085-1.715.064a.294.294 0 010 .176c-.744-.492-1.651.227-2.357-.517-.202-.151-.252.139-.416.353v-.391l-.265.416c-.366.278-.467-.996-.946-.428v.252c-.138-.063-.479.101-.428-.189 0 0-.076.264-.114.113v-.189l-.403.29c-.265-.176.138-.782-.265-.87-.164.063-.504.53-.454.668.051.139.139.139.114.341l-.152.088c.063.567-.063 1.147.189 1.601zm10.326.227c0 .076.063.151.126.265h-.189c-.013-.151.013-.278.063-.265zm-.63-2.131a1.477 1.477 0 010-.163c.075 0 .1 0 .1.1l-.1.063zm.315 2.358h-.114.114zm26.451-239.252l2.434 44.353 55.775-3.063v.252a21.889 21.889 0 00-.214 2.95h-.076c.479.151.454 1.16.605 1.878-.277 0-.403-.138-.555-.517v.681c.199.22.318.499.341.794l-.353-.138c.255.975.382 1.98.378 2.988.328 0 .832-.996 1.135.227-.177 0-.467.126-.555-.189.086.18.121.381.101.58l-.328-.467c-.088.542.265.265.277.693-.252 0-.164.328-.365.278-.202-.051.075-.378 0-.542.006.437-.094.87-.29 1.26.139 0 .328 0 .391.328.075.908-.278.328-.379.87.19.202 0 .807.429.794 0 .265-.151.328-.252.429.202.467.202 2.206.555 1.639v-.113.075c.198.774.27 1.574.214 2.37v1.198a3.438 3.438 0 000 .895h-.126c.066.249.117.502.151.757a3.359 3.359 0 00-1.172.34c-.215 0-.593-.189-.492-.353a3.48 3.48 0 01-1.778.151c.681-.264-.264-.176.706-.214a3.436 3.436 0 00-2.093.177c.316-.341-.705-.353-1.134-.24l.655.189a8.33 8.33 0 01-1.349.076l.215-.429c-1.891-.391-3.303 1.084-4.778.328-.467.328 1.033.139.617.504a12.045 12.045 0 01-2.067-.517c-1.185-.164-1.047.681-2.282.606.164.138.34.516-.568.718-.857 0-1.096-.555-.567-.706h.303c.277-.076.63-.164.29-.302l-.101.163c-.441-.126-1.614 0-1.362-.302-.63.189-.252.265.227.315-1.109-.151-1.715.101-2.849 0 .176.076.353.24.176.252-1.664-.075-.706.328-1.828.467-.655-.189.189-.555-.92-.29-.706-.114-.177-.391.088-.53a5.606 5.606 0 01-2.521-.075l.529-.152c-.28.073-.568.111-.857.114l.328.29c-.316 0-.593 0-.593-.139-.315.214.29.479-.353.782-.429-.126-1.261.252-1.45-.139 1.349 0-.176-.391.946-.53a1.966 1.966 0 01-.794 0s-.001-.088.126-.113c-1.261-.265-.568.492-1.892.567.152-.239-.327-.403-.542-.34.53 0 .278.353-.201.555-.858-.114-.921.189-1.362.201h.517c-.164.227-.593.227-1.173.341 0-.177.53-.164.316-.227-.631.441-1.513-.303-2.421 0-.429-.126-.063-.416-.441-.504-1.009.365-1.135-.227-2.194.075.328.29.378.202-.366.555l1.765-.328-1.109.504c.53 0 1.109-.264 1.437-.226-.529.277-.479.201-.201.428-.77-.403-1.438.366-2.308.114v-.744c-1.26-.252-2.231.529-3.895.441l.529.101c-.202.315-1.008.101-1.538.265 0-.252-.315-.328-.542-.467 0 .189-1.261 0-1.336.568l-.656-.139c-1.349 0-1.475.807-2.774.807.379-.29-.227-.429.631-.681-.442 0-.82 0-.82.176-.265-.138-1.172.416-1.576.202-.176.126-.214.391-.693.404a.099.099 0 01-.022-.063.1.1 0 01.022-.064c0 .127-.744.215-.303.467-1.374-.693-3.681.29-4.879-.303-.933.152-2.055.303-2.9.379 0-.076 0-.126.152-.114-1.185-.151-.668.769-2.017.593-.706-.353.693-.265.252-.391-.24-.807-1.601.214-2.522-.202l.215-.063c-.706-.227-1.665.416-2.787.441v-.126c-1.03.465-2.128.763-3.252.883.315-.341.479-.202.252-.517-.479.076.176.517-.782.668-.328-.151-1.034-.265-1.147-.605l.907-.076c-.491-.416-1.172.101-1.651 0v-.201c-1.387.151-1.374.655-2.875.706l.164.138c-.781.555-.706-.227-1.5.189l-.277-.479a24.65 24.65 0 01-2.824.757 11.364 11.364 0 012.332-.921 5.267 5.267 0 00-2.08.416c.215-.105.454-.153.693-.138-.76.466-1.63.723-2.521.744.126-.984-2.799-.063-3.619-.757-1.866.479-3.782.088-5.95.29.819.694-.643.063-.454.82-.505.088-.706.088-.757 0h.114-.126l-1.589-.353c-.378-.202.479-.202.416-.379-1.122 0-.492-.29-1.261-.453.177.264-.365.428-1.008.365l.92.29c-1.538.517-1.387-.555-2.95 0l.492-.277c-.807.201-3.001.201-3.783.87-.151-.089-.353-.278 0-.366-1.954 0-4.273.946-5.812.668l.139-.201c-.353.075-.605.39-1.072.239 0-.088.139-.202 0-.202a3.264 3.264 0 01-1.424.316l.403-.24c-1.903-.126-2.874.706-4.45.933 0-.555-1.526-.63-2.282-.681v-.075a37.134 37.134 0 00-5.737 1.059c-1.26-.53-4.299 0-6.303-.177.315.076 0 .429-.378.504-.379.076-1.261.479-1.261 0h.164c-.391-.479-1.362-.277-2.131-.239l-.088.668c-2.055-.832-5.22.693-6.367-.101-.479.202-1.072.24-1.538.441v-.365a25.855 25.855 0 00-3.669.189l.315-.277c-.933 0-1.109 1.109-1.966 1.185l-.29-.517c-1.627.113-3.316-.24-4.892.34a.339.339 0 01.328-.265c-.769 0-2.988-.176-2.673.542 0-.479-1.677.064-2.522.328l.114-.365a3.053 3.053 0 01-1.753.819c-.252 0-.239-.265.101-.202-.832-.126-.618.379-1.626.253l.353-.253a1.504 1.504 0 00-1.261.442c-.529.176-1.614 0-1.752-.29a1.113 1.113 0 01-1.047.428c-.075-.113.101-.201.189-.239-1.424-.151-2.08.542-3.051.252a.39.39 0 00-.075-.202l1.261-.063h.516c0-.328-.933-.328-.239-.819-.353.151-.832.378-1.337.554v.101h-.075l-.151.076a.349.349 0 01-.278 0 .24.24 0 010-.113h-.227a.52.52 0 000-.215c.265-.252.139-.328.139-.454-.353.126-.315-.466-.593 0l.076.189a.085.085 0 000 .076v.517c-.177 0-.34-.189-.164-.542a1.098 1.098 0 01-.58-.366c.467-.63.681-1.84.984-2.017-.253-1.374-.265-3.24-.959-4.085-.1-.378.164-.454.265-.605.076.227.076.492.177.618-.202-.782-.152-2.32-.631-2.522.177-.996.454.542.315-.807l.152.177c.643-2.698-1.362-4.299-.53-7.287 0 .202 0 .302-.138.353.037-.693.037-1.387 0-2.08l52.648-2.774-2.433-44.353-105.991 5.837 2.433 44.353 51.388-2.887c0 .441-.39.139-.567.454.151.719.605 1.261.605 1.79-.075 0-.101.152-.202 0 .404.757.114 2.27.618 3.127-.02.055-.06.1-.113.126a.928.928 0 01.63-.164c0 .429.328.794 0 .971 0-.265-.126-.29-.227-.404l.152.442c-.416.428-.177-.605-.492-.593.271.816.432 1.664.479 2.522-.416.164-.202-1.576-.555-.656l.126-1.059c-.643.832 0-.63-.668.126-.076 1.387.277 1.538.214 2.925.24.303.341-.113.593.177.504 1.941-1.009 1.588-.391 3 .303.366.857.492.605 1.526l-.491-.328c0 1.336.718.731.453 2.143-.201-.239-.201-1.046-.252-.832-.34.92.303.63.328 1.324l-.416.164c.164 1.462.366 3.063.555 4.702l1.639-.189c-.177.139-.719.303-.164.404a27.822 27.822 0 013.858-.278c1.059 0 2.105 0 3.076.126l.706-.416c.164 0 .328.152.139.227.756.101 0-.227.378-.403.378-.177.567.176.315.302a12.539 12.539 0 015.119-.605l-.265.126c1.097.076 1.172-.844 2.194-.555l-.189.076c2.357 0 4.929-.504 6.757 0 .303-.555 2.333.088 2.433-.668.938.315 1.913.505 2.9.567.504 0 .719-.517 1.337-.63v.378l.819-.454.479.429.58-.139c-.24 0-.504-.138-.479-.252a3.09 3.09 0 012.282.328l2.131-.479c0 .164-.391.239-.669.353 1.122-.467.227.403 1.261 0-.139-.088 0-.24.088-.315a6.781 6.781 0 002.61 0l-.151.277c1.614 0 3.366-.353 5.169-.466-.656-.076-.53-.555 0-.631l.239.404c.328-.278-.567-.126.114-.48.681 0 .479.442.113.593l.807-.189c0 .113-.138.189-.176.353.315-.277 1.437.315 1.891-.151v.113c1.803-.113 2.61-.302 4.072-.429 0-.353.58-.315.996-.63 1.193.132 2.394.179 3.593.139.895-.24.24-.328.643-.555.076.315 1.374.202.719.479a31.816 31.816 0 003.933-.592c-.227-.114-.466-.152-.353-.278.353-.075.82.088.782.24h-.088c2.168-.631 5.156.605 6.871-.189h-.101l1.803-.467c.844 0-.492.278.138.441 1.942-.668 3.115-.126 4.716-.592 1.26.87 4.437-.353 6.177.139l-.113-.215c.416-.252.542.088.857.126 0-.176-.479-.176-.214-.315l1.097-.126h.138a.638.638 0 00-.302.076l.567.101c-.227 0-.454 0-.58.063.265 0 .504-.089.681 0-.252.088-.479.088-.24.151a.728.728 0 01-.315 0c.177.063.088.189.404.202-.328.088.101.227-.454.252.126 0 .441.101.466.164-.668-.076 0 .239-.744.252.606 0 .29.29.631.428h-.114c.026 0-.227.127-.327.19.313.007.623.063.92.163-.467.139-.58 0-1.046 0 .403 0 .416.152.743.101a1.588 1.588 0 01-.542.139c.618 0 .114.076.492.113-.29.139-.58.076-.378.19a.619.619 0 01-.416 0c0 .126.466 0 .731 0 .265 0-.341.1-.567.163.126.089.554.139.542.215a.974.974 0 01-.202 0c.378.075 0 .302.517.391h-.114c.227 0 .467 0 .631-.063.164-.063.302.1 0 .138h-.215.139c-.441.076-.164-.075-.479-.063.151.114.517.227.403.328-.428 0-.163-.202-.529 0l.151-.151c-.668.151 0-.089-.668 0-.113.201.227.201.113.391h.593c.441.239-1.059.277-.479.441.29 0 .832 0 .555.176h-.492c0 .189.706.063.391.278-.189 0-.177-.139-.227-.101-.378.139.277 0 .29.164h-.429c.076.189.404.391.492.592a1.029 1.029 0 00-.391 0c.227.252 0 .58-.252.858l.366.075h.151c.151 0-.202.089-.315.063.315.152.706.454.315.668h-.114c-.138.152.769.114.442.278h-.076c-.139.328.227.655-.315.933.529 0-.227.328.517.302-.353.215-.492.164-.719.442 0 0 .467 0 .555.151h-.391l.416.088-.454.088.101.076s.164-.076.277-.088c.114-.013-.252.328-.441.34l.34.265a.728.728 0 01-.315-.063c.404.126-.403 0 0 .164.105-.013.211-.013.315 0-.226.088-.226.252-.113.365h-.277c0 .227.164.454.176.694a.925.925 0 01.631 0l-.404.063c.252 0 .139-.088.467 0 0 .088-.467.088-.606 0l.152.101h-.353c.265 0-.391.214 0 .252h-.114c0 .239.152.34.189.542.353 0 .278 0 .568.101-.101.151-.366.328-.328.504.038.177.303 0 .517.063-.328 0-.277.202-.517.126.049.21.175.395.353.517.096-.04.198-.065.302-.075 0 0-.126.126-.289.126.491.277-.896.756-.215.945l.366.227c0 .126-.24 0-.441 0 .554.227 0 .416.327.618-.945.227.101.605-.491.87h.227c.227 0-.126.075-.177.126.177 0 .202-.076.328 0 .302.479-.265 1.059-.429 1.576 0 .202 1.16 0 .643.315h-.428c.529.353 0 .782.479 1.122h-.215c-.302.101 0 .29.252.277h-.353c-.126 0 .404.177.101.24a.194.194 0 01-.126 0c.152 0 0 .24.328.164-.164.151.177.265 0 .391.391 0-.176.239.378.227-.567 0-.441.277-.176.353-.164 0-.164.088-.404 0 0 .101.126.189.416.151-.668.227.568.34-.302.504.277.225.515.493.706.795-.568 0-.076-.29-.668-.24.239.24.743.353.617.618-.075.075-.239 0-.34 0 .252.239 0 .491.303.706h-.164s-.076.113.189.088h-.076c.366-.101.794.126.996.126-.744 0-.176.227-1.122.164a.624.624 0 00.353 0s-.151.076-.353 0c.151.151.429.076.429.227h-.328c.252 0 .504.113.403.239-.1.127-.176 0-.176 0 0 .202.668.316.454.568-.542 0-.177.088-.643.126l.151.113.227-.063c0 .114.34.189.189.29l-.189-.075.101.201.164-.126c.252.101.592 0 .479.101-.114.101 0 .114-.278.189.152 0 .316.088.202.177-.113.088-.517 0-.618 0 .391 0 .126.239.543.29a1.965 1.965 0 00-.391 0h.315c-.088.063-.139.075-.341.075-.201 0 .593-.088.353.114h-.126c-.126.189.227.34.076.517-.466.075-.126-.139-.517 0 .063.164.328.328.454.491l-50.896 2.913 2.445 44.353 106.067-5.837-2.433-44.379-53.368 2.938h-.453c-.089 0-.164-.076 0-.202.227.076.189 0 .164.088.1-.138.302-.176 0-.29.327 0 .403-.113.302-.164l-.227.101v-.189h.416c.505-.29-.895-.403 0-.643-.302 0-.201.139-.542.101 0-.113.643-.277.643-.302.214-.177-.618-.114-.479-.29a1.275 1.275 0 01-.693 0c0-.127.617-.19.743-.114s0 0-.088 0a.284.284 0 00.29 0h-.151c.151-.076.126-.227.365-.214a.25.25 0 00-.315 0c.202-.164 0-.227.126-.391-.075 0-.252.063-.252 0 .164-.24-.29-.088-.365-.227.227-.101.542 0 .34-.151a.73.73 0 01.517 0c-.29-.126.176-.278.227-.353l.126.063c-.076 0-.076-.076-.076-.114h-.302s0-.088.176-.088a5.482 5.482 0 01-.769 0c.151-.063-.176-.164.227-.202-.126.189.391 0 .467.101.075.101 0 0 0-.113.353-.189-.454 0-.454-.227.227 0 .428-.076.378-.101-.051-.025-.378.063-.555 0 .177-.126-.126-.126-.113-.189l-.076.075c-.227 0-.202-.063-.277-.138.176 0 .126.063.201 0-.403-.063.391-.227.114-.328.151-.076.428 0 .517-.088-.29-.126.302-.177 0-.303a.623.623 0 01-.517 0l.227.227-.454-.126c0 .076.202.139.151.189a.53.53 0 00-.416 0c.441-.126-.277-.189 0-.315h.744c.315-.189-.403-.277-.227-.517l-.126.088c-.303 0 0-.138-.177-.201.168-.013.333-.047.492-.101-.189 0 0-.164-.492-.164l.316-.114c.126-.189-.719-.164-.643-.34.264 0 .441-.063.643 0 0 0 0-.114-.139-.114.164 0-.34-.138-.101-.201-.113 0-.378 0-.365-.076h.126c-.126 0-.177-.088-.442 0 .757-.227-.088-.492.568-.693a1.248 1.248 0 01-.202-.379h.088c.227-.176-.718 0-.466-.252.252-.252.227.089.365 0 .82-.075-.126-.201.353-.365.265-.114-.327-.215-.277-.366h.126a1.07 1.07 0 01-.706-.403c.328 0 .177.063.504 0 0-.063-.529 0-.63-.076a2.77 2.77 0 01.668-.189v.113c.454-.088 0-.151 0-.227h.202c-.076-.189-.567-.151-.555-.365h-.139c-.504-.088.265-.114-.1-.202l.491-.063a2.463 2.463 0 01-.605-.353c.282.051.554.145.807.277a.302.302 0 00-.303-.264s.177 0 .101.088c-.403-.063-.605-.177-.605-.315.971 0 .227-.391.958-.542-.365-.24.126-.517 0-.82-.744.151 0-.088-.794 0v-.101l.441-.239c.215-.076.177 0 .341 0 .164 0 .327-.089.529-.202-.277 0-.403 0-.302-.126l-.353.151c-.416-.189.643-.227.214-.416h.252c-.151-.101 0-.403-.643-.466.088 0 .29-.076.353 0 .076-.265-.693-.542-.328-.769h.189s-.353 0-.176-.126c.176-.127.189 0 .202 0 .012 0-.341-.101-.227-.177h.214c.227-.265-.542-.353-.693-.567.554 0 .731-.24.807-.353h.088c0-.303-.492-.479-.731-.732.592-.214.214-.605.529-.895a.913.913 0 01-.492 0c.114-.075-.39-.151.114-.176.492-.088.353-.215.353-.315h-.656c.946-.328-.403-.694.454-.896-.176 0-.176-.126-.34-.189h.353a.514.514 0 000-.504h.264c0-.126-1.033-.088-1.071-.202l.529-.075c0-.215.429-.467-.063-.656h.252c.013 0 .341-.416-.39-.34.479 0 0-.227-.177-.328h.341c-.454 0-.568 0-.706-.202a.279.279 0 01.201 0c0-.088-.328-.063-.164-.189h.227c0-.113-.101-.101-.365-.151-.265-.051.075-.215.391-.252-.202 0-.454 0-.379-.126a.606.606 0 01.24 0c.227-.202-.429-.253-.088-.416a.566.566 0 00.201 0v.264c.328 0 .379-.151.832-.075-.252-.089-.794-.227-.643-.353h.101v-.076c0-.076.089 0 .089-.101.264 0 .138-.151.138-.214h-.58c.003.05.003.101 0 .151-.189 0-.34-.088-.151-.164h-.58c.492-.113.756-.29 1.059-.328-.214-.176-.164-.441-.832-.504-.088 0 .176-.076.29-.101.113-.025 0 0 .151.076-.176-.101-.088-.315-.555-.315.202-.139.442 0 .354-.126h.138c.719-.404-1.261-.505-.29-.971a.626.626 0 01-.164.063c.391-.492-.454-.92.189-1.412.126-.139-.176-.139-.403-.202h.378l-.454-.101c-.327-.176.921-.391.29-.592h-.252c0-.089-.164-.265.126-.265 0 0-.265 0-.138-.063h.466l-.353-.189c.101-.126.454-.088.656-.139 2.609 0 5.27.076 7.854 0 1.399 0 .719-1.261 2.522-.794l-.467.454c2.774-.681 5.736-.366 8.447-.958-.151.1-.151.227-.416.239.593.265 2.143-.126 2.131-.366.441 0 .113.215.391.316.592.138 1.437-.479 1.765-.202 0 0-.164.113-.265.139.365-.164 1.765-.076 1.387-.391 1.033.088 1.954-.29 2.786-.139.517-.429 1.778.076 1.916-.492 0 .58 1.841.341 2.522 0-.215.19.58.139.34.391.744 0 1.412-.201 1.261-.491 1.412.592 2.723-.719 3.543.1a88.337 88.337 0 016.202-1.059c0 .58-2.193.202-2.067.795a21.266 21.266 0 014.803-.895c.479 0-.264.264-.428.365 1.878-.353 3.643-.189 5.307-.605 0 0-.176.126-.353.177.328 0 .782 0 .719-.215l-.315.088c-.555-.34 1.261-.869 1.261-1.071-.517.769 1.664.075.832 1.071.214-.063.479-.201.416-.378.327 0 .441.126.126.341 1.172-.215.731-.467 1.803-.53 0 .126-.202.189-.303.34a3.334 3.334 0 011.967-.504c0 .076 0 .164-.215.189 1.551-.138 2.61-.832 4.325-.706-.467.58.592.139.718.605l.908-.201-.378-.202a11.985 11.985 0 012.181-.315l-.58.227 1.5-.189-.857-.126c.794-.29-.126-.58.946-.517-.215 0 .807 0 1.26.201a2.37 2.37 0 011.387-.29c.164.139-.088.53 0 .631.366-.429 1.866-.24 2.345-.694a.327.327 0 00-.101.404l.316-.341c.378.089.428.126.378.328 1.122 0-.391-.567.958-.403-.101 0 0 .075-.265.138 1.337 0 2.522-.365 3.783-.29.403.454-1.06.19-.618.555.882-.101 1.79-.302 2.685-.479.454-.088.895-.164 1.349-.227h1.626-.441c0-.479.782-.164 1.803-.088a2.293 2.293 0 00-.088-1.021c.076.302.416.617.34.479 0-.404 0-.845-.075-1.261-.076-.416-.114-.958-.177-1.261l-.466-2.282.189.202c.101-.706 0-1.828 0-2.521-.189-.215-.19-.643-.416-.366.819-2.37-.833-4.35-.152-6.442 0 .239.189.567.177.378l-.278-1.727c-.289.151-.163.239-.365.617a2.176 2.176 0 01-.391-1.122c.252.769.467 0 .605-.378h-.277c.454-.946-.593-.113-.328-1.374h.151a5.045 5.045 0 01-.327-1.374c.315-.227.189.479.466.491-.063-.693-.731-1.336-.441-2.004.113.302.151.731.264 1.021.2-.352.292-.756.265-1.16l49.169-2.711-2.445-44.353-106.08 6.241zm-103.747 73.401h-.693l.693-.076v.076zm.681-2.761h.177s0 .113-.089.176v-.138l-.088-.038zm.883 2.622c-.076-.113 0-.239.189-.252-.101.088.353.139.643.214l-.832.038zm80.536.895v-.063.063zm0 .252a.357.357 0 000-.113h.24s-.114.063-.177.113h-.063zm2.421-.706s0 .063-.088.076v-.076h.138-.05z" fill="#fff"/></g><defs><clipPath id="clip0"><rect width="594" height="376" rx="24" fill="#fff"/></clipPath></defs></svg>