<svg width="594" height="376" viewBox="0 0 594 376" fill="none" xmlns="http://www.w3.org/2000/svg">
<g clip-path="url(#clip0)">
<rect width="594" height="376" rx="24" fill="black"/>
<path d="M616.48 1138.09C604.746 1125.85 589.874 1117.07 573.488 1112.71L500.604 1093.29C495.15 1073.96 489.686 1054.63 484.215 1035.3L554.817 1024.74C512.947 936.001 471.065 825.824 429.183 737.068C412.653 704.117 383.852 678.97 348.974 667.033C358.682 660.242 366.608 651.208 372.077 640.699C377.547 630.19 380.399 618.516 380.392 606.668L370.748 352.754C374.926 349.469 378.379 345.355 380.889 340.671C383.4 335.986 384.913 330.833 385.334 325.534L387.553 297.798L478.327 292.881C480.1 292.788 481.837 292.345 483.439 291.58C485.041 290.814 486.476 289.74 487.662 288.419C488.848 287.098 489.763 285.556 490.352 283.882C490.942 282.207 491.195 280.433 491.098 278.66L476.474 7.99011C476.278 4.40951 474.669 1.05297 472 -1.34183C469.331 -3.73663 465.821 -4.97374 462.24 -4.78126L118.939 13.7769C117.166 13.8721 115.43 14.3154 113.829 15.0816C112.228 15.8477 110.793 16.9218 109.607 18.2424C108.421 19.5629 107.507 21.1042 106.917 22.7781C106.327 24.452 106.072 26.2258 106.167 27.9982L120.792 298.668C120.987 302.242 122.591 305.592 125.252 307.986C127.912 310.38 131.413 311.621 134.988 311.439L231.397 306.232L253.309 345.026L233.011 585.828C219.782 578.223 205.241 573.172 190.146 570.939L124.12 561.143L115.471 528.981C126.705 527.72 134.597 522.854 134.963 503.905C134.963 503.741 134.963 503.577 134.963 503.413C134.911 501.97 134.747 500.532 134.471 499.114L147.772 499.555C147.772 499.555 143.863 477.316 129.214 469.903C116.291 463.359 103.368 478.224 100.494 481.829L98.9809 481.703C87.0794 469.915 63.0244 451.092 54.0605 456.892C52.6484 457.799 51.955 459.186 50.8456 462.363C48.3241 469.65 45.2352 477.492 45.2352 493.214L59.8599 494.197C58.0015 497.811 57.0824 501.835 57.1871 505.897V506.653C57.3421 512.594 59.6736 518.271 63.7387 522.605C67.8037 526.94 73.3193 529.631 79.2376 530.166L71.6732 553.364L-0.807251 542.597C-29.7495 538.31 -59.2578 539.875 -87.5844 547.199C-102.373 550.981 -117.174 561.155 -131.963 564.976C-131.446 537.239 -130.916 508.645 -130.399 479.787L5.63522 485.561C7.69986 485.649 9.76157 485.329 11.7027 484.62C13.6437 483.912 15.4262 482.827 16.9482 481.429C18.4702 480.031 19.7018 478.347 20.5729 476.474C21.444 474.6 21.9374 472.572 22.0249 470.508L27.0048 353.057C27.0928 350.992 26.7732 348.93 26.0643 346.989C25.3553 345.048 24.271 343.266 22.8731 341.744C21.4752 340.222 19.7912 338.99 17.9173 338.119C16.0433 337.248 14.0161 336.754 11.9515 336.667L-116.796 331.208C-119.317 324.602 -124.852 319.861 -131.395 319.47H-131.736C-138.556 319.042 -144.583 323.379 -147.609 329.922L-161.956 329.317C-165.777 329.158 -169.526 330.396 -172.5 332.799C-175.475 335.203 -177.472 338.608 -178.119 342.378L-222.875 341.42C-241.366 445.642 -259.857 549.863 -278.348 654.085C-290.338 722.153 -223.064 777.26 -158.64 751.957L-80.9403 721.459L-50.8715 835.86L-166.772 900.284C-197.495 916.005 -221.285 942.576 -233.528 974.844C-245.77 1007.11 -245.593 1042.78 -233.03 1074.92C-220.467 1107.06 -196.413 1133.4 -165.535 1148.81C-134.657 1164.23 -99.1537 1167.62 -65.9122 1158.35L49.0805 1126.26C48.4753 1127.7 47.8198 1129.15 47.2776 1130.58C47.0822 1131.06 46.7061 1131.44 46.2312 1131.64L18.6335 1143.82C18.2001 1144.02 17.8037 1144.3 17.461 1144.63C17.0859 1144.99 16.7784 1145.42 16.5533 1145.89C15.1891 1149.1 14.8263 1152.65 15.5125 1156.07C16.1986 1159.49 17.9016 1162.62 20.3985 1165.05H97.3041C101.406 1162.27 104.296 1158.04 105.385 1153.2C111.336 1126.95 117.291 1100.7 123.25 1074.44L123.326 1074.17C127.864 1062.17 133.787 1050.75 140.976 1040.13C150.344 1026.26 153.949 1025.58 156.458 1018.47C163.506 998.483 149.65 962.905 120.376 953.866C116.404 952.647 112.287 951.964 108.134 951.836L293.981 856.776C306.286 923.914 318.586 991.045 330.883 1058.17L364.734 1053.12C365.23 1084.22 365.717 1115.32 366.196 1146.42C366.262 1150.27 367.366 1154.04 369.392 1157.32C371.417 1160.6 374.29 1163.27 377.707 1165.05H609.558C612.217 1164.22 614.618 1162.72 616.535 1160.69C618.452 1158.67 619.822 1156.19 620.515 1153.49C621.208 1150.79 621.201 1147.96 620.495 1145.27C619.789 1142.57 618.407 1140.1 616.48 1138.09Z" fill="black"/>
<path d="M134.547 45.9778C135.597 45.9217 136.607 45.5555 137.449 44.9257C138.291 44.2958 138.928 43.4305 139.279 42.439C139.629 41.4475 139.678 40.3744 139.419 39.3551C139.16 38.3359 138.605 37.4162 137.824 36.7123C137.042 36.0084 136.07 35.5518 135.029 35.4003C133.989 35.2487 132.926 35.409 131.977 35.8608C131.027 36.3127 130.233 37.0358 129.694 37.9389C129.155 38.842 128.896 39.8846 128.949 40.9349C129.024 42.3454 129.656 43.6686 130.705 44.614C131.755 45.5595 133.136 46.05 134.547 45.9778Z" fill="white"/>
<path d="M152.639 44.9944C153.689 44.9383 154.699 44.5721 155.541 43.9423C156.383 43.3124 157.02 42.4471 157.37 41.4556C157.721 40.4641 157.77 39.391 157.511 38.3717C157.252 37.3525 156.697 36.4328 155.916 35.7289C155.134 35.025 154.162 34.5684 153.121 34.4169C152.081 34.2653 151.018 34.4256 150.069 34.8774C149.119 35.3293 148.325 36.0524 147.786 36.9555C147.247 37.8586 146.988 38.9012 147.041 39.9515C147.077 40.6504 147.25 41.3356 147.55 41.9676C147.851 42.5996 148.273 43.166 148.793 43.6345C149.313 44.103 149.921 44.4642 150.581 44.6976C151.24 44.931 151.94 45.0318 152.639 44.9944Z" fill="white"/>
<path d="M170.781 44.0105C171.827 43.9521 172.833 43.5851 173.671 42.9559C174.509 42.3266 175.142 41.4634 175.491 40.4748C175.839 39.4863 175.887 38.4168 175.628 37.4011C175.369 36.3855 174.816 35.4691 174.037 34.7676C173.258 34.0661 172.29 33.6108 171.252 33.4592C170.215 33.3075 169.157 33.4663 168.21 33.9155C167.263 34.3647 166.47 35.0841 165.931 35.9832C165.393 36.8823 165.132 37.9207 165.183 38.9676C165.217 39.6671 165.389 40.353 165.689 40.9858C165.989 41.6186 166.411 42.1857 166.932 42.6545C167.452 43.1233 168.06 43.4845 168.721 43.7172C169.381 43.9499 170.081 44.0496 170.781 44.0105Z" fill="white"/>
<path d="M441.93 51.437C442.749 51.437 442.951 51.0588 443.38 51.3109C443.934 51.0588 442.648 51.2353 442.245 51.1974C441.892 50.8949 444.01 50.9453 444.968 50.8192C445.057 50.9705 444.338 51.0336 445.485 51.084C445.994 50.8843 446.549 50.8318 447.086 50.9327C447.086 50.731 448.347 50.8192 449.028 50.794C448.297 50.794 447.238 50.7058 447.767 50.504C448.536 50.3583 449.317 50.2824 450.099 50.2771H449.217C450.326 49.9115 451.083 50.3906 452.609 50.2141C451.978 50.3654 451.575 50.3906 451.007 50.5671C451.739 50.4284 453.1 50.2141 454.222 50.0502L455.483 50.2771C455.634 50.1258 456.945 50.2141 456.933 50.0124C458.547 50.0124 455.672 50.3275 455.496 50.4788C457.525 50.4788 457.097 50.0628 459.051 50.2645L458.421 50.4914C459.09 50.4108 459.764 50.3729 460.438 50.378C460.438 50.378 460.11 50.378 459.707 50.378C460.085 49.9493 462.669 49.9367 462.417 49.5207H461.522C462.634 49.2857 463.765 49.1506 464.901 49.1172C465.708 49.2181 464.346 49.4324 463.88 49.5711C465.14 49.5711 464.888 49.0542 466.401 49.0164C465.594 49.0164 465.745 48.8272 466.224 48.7012C465.329 48.7012 463.476 48.7012 463.804 48.8903H464.132C464.056 49.0038 463.577 49.0668 463.337 49.1424C462.077 49.1424 462.758 48.9785 462.505 48.9155C460.488 48.9155 462.367 49.3442 460.513 49.4324L460.274 49.3568C459.413 49.4069 458.564 49.581 457.752 49.8737C456.92 49.6467 455.659 50.1006 454.764 49.9871C454.563 49.3946 457.904 49.8485 458.937 49.4702C457.967 49.4702 459.479 49.155 459.883 49.0037L456.832 49.4198C456.283 49.2341 455.691 49.2122 455.13 49.3568H455.369C454.109 49.4828 454.5 49.7098 453.44 49.6846C453.277 49.6846 453.592 49.5333 453.668 49.4828C452.697 49.4828 452.873 49.6593 452.23 49.7602C451.259 49.7602 452.697 49.4828 451.89 49.4576C450.982 49.6059 450.059 49.644 449.141 49.5711C449.57 49.8863 445.359 50.2393 447.402 50.4284L445.082 50.7814C444.35 50.6427 446.67 50.2141 446.002 49.9745L447.868 49.8863C447.54 49.4828 443.985 50.3654 442.724 49.9619C441.848 50.0382 440.966 50.0382 440.089 49.9619L440.43 50.3275C439.446 50.3275 439.169 50.1006 439.068 50.0376C438.501 50.0376 437.984 50.1132 437.454 50.1258C437.671 50.0336 437.901 49.9782 438.135 49.9619C437.379 49.7854 437.177 49.8737 436.874 49.9619C436.348 50.0764 435.812 50.1355 435.273 50.1384L435.815 49.9619C435.516 49.9729 435.222 50.0369 434.945 50.151C434.705 50.1625 434.465 50.1877 434.227 50.2267C434.694 50.4083 435.188 50.5105 435.689 50.5293C433.42 50.5293 431.655 50.6805 429.688 50.4662C429.764 50.3654 430.558 50.1762 430.318 50.1762C429.348 50.1762 428.301 50.4284 428.402 50.5797H427.86C427.585 50.4488 427.281 50.3923 426.977 50.4158C426.772 50.3873 426.565 50.3873 426.36 50.4158C426.057 50.731 424.191 50.6805 423.838 50.8318C424.279 50.8318 424.809 50.8318 425.351 50.7688C424.702 51.0577 423.993 51.1873 423.284 51.147C424.721 50.8823 421.733 50.9201 423.901 50.7184C422.351 50.4284 423.12 51.0336 421.493 50.9831L420.434 50.8949C420.586 50.6679 422.124 50.6932 421.871 50.6301L421.153 50.6932C421.871 50.4914 424.62 50.4536 426.297 50.1132H422.893C418.631 50.6049 413.286 50.5923 409.68 51.2731H409.831C409.831 51.2731 409.743 51.2731 409.693 51.4244H409.529L408.823 51.6261C407.991 51.4622 406.465 51.5126 405.154 51.4244C405.973 51.5126 405.973 51.5126 406.062 51.6639C405.91 51.8909 405.797 51.9917 404.574 51.9791C404.574 51.8278 405.305 51.79 404.397 51.7144C404.864 51.7144 404.397 51.8909 403.931 51.9413C403.464 51.9917 402.103 51.9413 402.078 51.7648C402.342 51.7338 402.608 51.7338 402.872 51.7648C403.187 51.7648 401.611 51.7648 402.506 51.5252L401.246 51.6387C400.527 51.5505 401.712 51.4118 401.422 51.3361C399.38 51.5505 398.346 51.9665 396.493 52.1682C396.581 52.08 396.581 51.7396 396.568 51.8404C395.131 51.8404 393.517 52.3825 391.904 52.496C392.339 52.3952 392.781 52.332 393.227 52.3069C388.184 52.4456 384.175 52.6599 379.498 52.5843L378.237 53.0129L376.976 52.8364C372.059 52.8364 368.302 53.3155 363.638 53.6685C362.188 53.7694 362.755 53.4668 362.062 53.4038C358.872 53.5424 358.115 53.9837 355.077 54.2232C355.493 54.0972 356.186 53.7442 354.875 53.8072C354.498 54.0373 354.053 54.1308 353.615 54.0719L354.031 53.9459C353.013 53.9086 351.994 53.9381 350.98 54.0341C348.408 54.1725 345.852 54.5267 343.34 55.0932C340.894 55.1814 343.566 54.7023 343.1 54.6393C344.84 54.6393 344.361 54.5132 344.663 54.3745C343.834 54.5681 342.971 54.5681 342.142 54.3745C341.105 54.4048 340.072 54.5186 339.053 54.7149C339.671 54.5889 340.225 54.7149 339.633 54.841C338.599 54.841 335.952 55.0553 336.078 54.7275C330.064 55.1184 323.331 55.4083 316.889 55.774C315.805 56.0009 317.721 55.774 317.129 55.9379C315.553 56.2404 315.868 55.9379 314.607 56.1396L315.111 55.9379C313.233 56.0135 311.253 56.4422 309.438 56.6943C309.728 56.48 307.925 56.6187 309.438 56.4169C308.543 56.4926 307.421 55.6731 306.74 55.9L307.786 56.6565C307.786 56.7447 306.526 56.7573 306.614 56.8078C305.862 56.663 305.098 56.587 304.332 56.5808C304.055 56.3917 305.416 56.3539 306.147 56.3161C306.248 55.9757 303.626 56.2404 304.698 55.8622C303.109 56.0009 304.937 56.0261 303.992 56.2026H302.605H303.676C302.671 56.475 301.629 56.5898 300.588 56.543L298.999 56.9591C298.823 56.7069 297.827 56.9591 297.007 56.9591L297.511 56.7573C296.773 56.8226 296.031 56.8226 295.292 56.7573C295.898 56.48 296.288 56.7573 296.553 56.5178H295.292C295.292 56.6691 294.536 56.833 295.406 56.8708C293.961 57.3834 292.438 57.6394 290.905 57.6273C289.644 57.4255 292.254 57.3121 291.712 57.0851C288.8 57.0851 288.207 57.9551 286.505 58.0181C284.324 58.0181 284.463 58.2702 282.269 58.3963C282.962 58.182 280.718 58.2955 280.315 58.1442L281.172 57.9046C280.793 58.0112 280.391 58.0112 280.012 57.9046C278.585 58.1561 277.146 58.3328 275.7 58.4341L275.978 58.6232C274.793 58.7493 273.166 58.9763 271.906 58.9889C270.934 59.0844 269.977 59.296 269.056 59.6192C268.249 59.4679 268.325 59.2536 268.577 59.0141C269.082 59.0897 269.926 59.0141 270.746 59.0141C272.898 58.5882 275.075 58.2976 277.264 58.1442C278.26 57.5894 275.688 58.2828 274.528 58.1442C274.595 58.1324 274.663 58.1324 274.73 58.1442C274.633 58.1505 274.536 58.1505 274.44 58.1442C275.276 58.1173 276.101 57.9379 276.873 57.6147C275.461 57.7407 275.877 58.1694 274.112 58.0559C273.055 58.1199 271.995 58.0777 270.947 57.9298C270.021 58.4078 268.989 58.6421 267.947 58.6106L268.855 58.2702C266.447 58.3963 267.745 58.7493 265.514 58.8502C266.308 58.8502 264.77 59.178 266.27 59.1023C265.094 59.3197 263.898 59.4168 262.702 59.3923C262.387 59.3923 262.702 59.4932 262.589 59.5814C263.938 59.7075 264.694 59.2788 265.816 59.5058L266.724 59.1528C267.985 59.1528 268.123 59.4301 267.367 59.594C267.673 59.5586 267.981 59.5586 268.287 59.594C268.527 60.0353 266.774 59.5058 266.358 59.9218L267.241 59.8336C267.644 60.1109 265.198 60.2118 264.064 60.2496C262.929 60.2874 261.542 60.2496 261.542 59.9849L263.257 59.7957C262.184 59.8071 261.114 59.8955 260.055 60.0605C259.962 60.0503 259.869 60.0503 259.777 60.0605H259.853C259.664 60.0818 259.474 60.0818 259.286 60.0605C258.403 60.0605 257.117 60.3 256.285 60.2748L256.398 60.4639L256.512 60.3505C257.319 60.3505 258.416 60.3505 257.773 60.5396C256.891 60.7513 255.963 60.6626 255.138 60.2874C255.541 59.9722 256.915 60.1866 257.836 60.0353C256.577 59.9431 255.312 59.9431 254.053 60.0353C254.785 59.6697 256.234 59.9218 256.575 59.6066C255.062 59.6066 254.671 59.884 253.07 59.884C253.272 59.7201 254.822 59.6318 254.709 59.4427H253.688C256.209 59.2914 253.221 59.0771 255.175 58.888C254.243 58.8124 253.915 59.2158 252.578 59.0897C252.944 59.2032 254.016 59.4049 252.755 59.594H251.33C250.725 59.468 252.793 59.178 251.86 59.0897L250.385 59.2788C250.385 59.3797 251.154 59.3797 250.712 59.5436C249.842 59.5436 249.313 59.9849 248.317 60.174C247.735 60.246 247.146 60.246 246.565 60.174C244.547 60.5648 241.975 60.6909 240.11 61.0565C241.37 60.7917 240.047 60.7413 239.265 60.6278C240.74 60.5144 240.727 60.2118 240.626 60.0353C239.731 60.1109 239.151 60.4513 239.618 60.527C238.105 60.527 238.597 60.7917 237.26 60.653C236.403 60.653 237.676 60.3379 237.374 60.2496C235.76 60.2496 236.958 60.6278 235.193 60.653C235.293 60.653 235.445 60.59 235.306 60.5396C234.572 60.5032 233.838 60.6191 233.15 60.88C232.116 60.5522 230.301 61.0817 230.477 60.6909C228.195 60.9178 230.83 60.88 230.389 61.0313C229.322 61.1994 228.24 61.2502 227.162 61.1826C227.704 61.0994 228.252 61.0531 228.801 61.0439L228.296 60.8043C225.434 60.8043 226.519 61.4978 223.745 61.4095C225.157 61.2078 224.212 61.1952 224.905 60.9682C224.489 61.0565 222.383 61.0943 223.644 61.233C222.61 61.233 221.892 61.233 221.123 61.233C220.301 61.3316 219.487 61.4918 218.689 61.7121C217.611 61.7448 216.532 61.6943 215.462 61.5608C212.424 61.9138 209.587 61.7373 206.385 62.1155H206.624C204.103 62.2038 207.746 62.4055 205.149 62.5316C205.489 62.2038 203.598 62.4055 202.741 62.2794C199.564 62.2794 197.269 62.8089 194.332 62.7585C194.332 62.6829 194.534 62.5946 195.101 62.5568C192.869 62.5568 191.066 62.7333 189.049 62.8341H189.138C185.964 62.8824 182.795 63.097 179.644 63.4771C179.909 63.4771 179.972 63.3006 180.186 63.2502C178.326 63.2133 176.467 63.3696 174.639 63.7167C172.622 63.5149 173.378 63.8806 170.731 63.7167C170.579 63.7167 170.983 63.7167 171.147 63.6284C169.886 63.6284 168.991 63.6284 167.705 63.7041C165.474 64.1686 163.211 64.4552 160.935 64.5614C160.746 64.1453 162.939 64.347 163.002 63.994C162.308 64.1513 161.595 64.2107 160.884 64.1705C161.414 63.9814 160.985 64.0571 161.351 63.8806C160.418 63.9781 159.497 64.1682 158.602 64.4479C158.602 64.5362 158.817 64.5614 159.46 64.5235C157.866 64.7394 156.263 64.8699 154.656 64.9144C155.173 64.9144 156.799 64.9144 156.207 65.1287C154.75 65.198 153.306 65.4435 151.908 65.8599C149.928 65.7717 153.332 65.4187 152.941 65.1287C152.614 65.0405 151.807 64.8387 152.626 64.6748C150.861 64.6748 149.6 65.0278 148.037 65.1791V65.0909C145.843 65.2422 143.511 65.7465 141.658 65.6834H142.641C141.946 65.7452 141.255 65.8504 140.574 65.9986C140.574 65.8726 139.552 65.8221 139.641 65.7086C138.519 66.1625 134.749 66.2256 133.715 66.692C133.123 66.6164 133.589 66.4021 133.715 66.2886C134.581 66.3427 135.451 66.2791 136.3 66.0995C135.152 66.0995 134.295 66.0995 134.472 65.9734C133.324 66.3264 130.588 66.5912 130.021 66.9064C129.176 66.8055 128.357 66.7677 128.647 66.5155C125.117 66.8559 130.437 67.1585 126.441 67.3728C124.6 67.2342 128.193 66.9568 125.684 67.0198H126.138C124.297 66.5029 124.877 67.5241 122.835 67.6124C122.545 67.2972 124.259 67.2972 122.835 67.1333C120.956 67.3224 120.162 67.8645 118.271 67.8519L118.561 67.7006C117.3 67.7889 115.018 67.8519 113.821 67.9402C113.757 67.9402 113.934 67.9402 114.161 67.8519C113.247 67.9323 112.33 67.9618 111.412 67.9402L110.908 68.1293C112.169 68.2374 113.439 68.1951 114.69 68.0032C113.543 68.2554 116.519 68.331 115.951 68.6462L116.165 68.5201C119.204 68.8479 123.1 68.6966 126.92 68.684C129.315 68.2049 131.03 68.5958 133.614 68.2175C133.992 67.8015 134.093 68.1167 136.3 67.915C135.127 68.0284 136.186 68.2175 136.93 68.2301C137.414 68.1072 137.907 68.0228 138.405 67.978C139.826 68.1973 141.271 68.1973 142.692 67.978C144.053 67.978 142.376 68.1293 142.086 68.2175C142.654 68.394 143.183 68.0032 143.637 68.1167C143.637 68.1167 143.637 68.1167 143.473 68.1923C145.541 68.0536 146.789 68.0915 148.945 68.0284C149.096 67.6376 151.05 67.7637 151.996 67.5746C151.693 67.7258 153.257 67.6628 153.837 67.7006L154.971 67.3476C156.093 67.045 156.56 67.4359 158.035 67.2215H157.669C159.347 67.0671 161.035 67.0671 162.712 67.2215C172.634 65.9608 178.144 66.8181 188.633 66.049C189.301 65.8978 188.116 65.8726 188.633 65.6834C189.692 65.57 189.894 65.5826 190.903 65.5195C190.045 65.5195 190.184 65.5195 190.297 65.5195L188.81 65.7086C188.734 65.7086 188.898 65.7086 188.81 65.6204C188.305 65.6834 187.726 65.7843 187.083 65.8095C187.864 65.5504 188.68 65.4101 189.503 65.3935C189.317 65.4625 189.121 65.5008 188.923 65.5069C189.957 65.5069 190.007 65.3304 190.789 65.3683C191.571 65.4061 191.508 65.3052 191.634 65.3683H194.609C195.853 65.1097 197.129 65.0501 198.391 65.1917C198.089 65.4565 196.437 65.3682 195.719 65.6582L196.803 65.7843V65.5826H198.328H198.24C198.47 65.454 198.737 65.4095 198.997 65.4565C199.06 65.4565 199.211 65.5321 198.997 65.5448L200.081 65.3809C199.45 65.6204 201.026 65.3808 200.888 65.6456C204.43 65.57 205.376 65.0657 208.452 65.2296C207.948 65.1413 209.423 64.8009 210.381 64.7883C210.936 64.7883 211.087 64.8639 210.734 64.9774L211.995 64.7883C213.803 64.9322 215.62 64.9322 217.429 64.7883L217.315 64.9018C218.32 64.6957 219.341 64.5776 220.366 64.5488L220.139 64.7757C221.715 64.8513 221.312 64.2714 223.052 64.3092C223.052 64.0823 221.942 64.0192 221.791 63.8175C222.219 64.0192 224.073 63.9562 223.632 63.8175C225.359 63.6284 224.892 63.7545 224.981 63.8175L225.989 63.6284C227.25 63.6284 226.393 63.9058 225.989 64.0571C227.195 63.8383 228.422 63.7621 229.645 63.8301L229.128 63.9562H230.818C232.161 63.7125 233.525 63.6069 234.89 63.641L233.919 63.994C234.928 64.0949 234.424 63.868 234.688 63.7923C235.605 63.6261 236.546 63.6561 237.449 63.8806C239.971 63.4267 242.492 64.0949 244.661 63.5276L244.938 63.6915C247.863 63.1493 251.242 63.5149 253.612 62.8594C257.243 63.288 255.945 62.1659 259.273 62.5442L259.147 62.4685C270.002 61.9894 281.538 61.6869 291.661 60.8422V60.9682C308.051 60.3 323.924 59.178 340.125 58.4467C341.625 58.2576 340.705 58.0307 341.991 57.8164C342.558 57.8164 343.844 57.7155 343.856 57.8164C342.76 57.9551 343.39 58.0559 343.012 58.1442C344.84 58.0307 347.197 58.1442 348.811 57.8038L347.437 57.6777C348.169 57.5891 348.906 57.5428 349.643 57.539C349.404 57.6525 350.248 57.829 349.757 57.9046C353.161 57.2238 352.442 57.9046 355.317 57.6147C355.871 57.1608 359.464 56.6187 361.835 56.19H363.095C361.444 56.2783 363.095 56.4926 361.091 56.5808C362.818 56.5808 364.394 56.3413 366.033 56.3287C365.705 56.2404 365.781 56.0891 366.436 56.0135C367.432 56.0135 367.533 56.2152 368.668 56.1774L367.558 56.3791C368.266 56.4027 368.974 56.3349 369.664 56.1774C369.903 56.3413 371.605 56.2909 371.315 56.5052C372.841 56.1774 373.396 56.2783 375.035 56.0387C373.307 55.9505 375.463 55.7866 375.274 55.6479L373.333 55.8244C376.068 55.8244 372.45 55.9 372.664 56.19C371.404 56.19 374.404 55.5975 372.261 55.7614C374.783 55.4714 375.375 55.5722 377.985 55.1814C376.396 55.3327 378.275 54.9671 377.417 54.9293C379.435 54.8032 377.922 55.0049 378.565 55.1688C379.41 55.2076 380.258 55.1399 381.086 54.9671C382.876 54.9671 380.834 55.2066 381.742 55.2823C381.099 55.5218 376.787 55.2823 377.304 55.9379C376.371 55.9379 375.262 56.3035 373.925 56.3665C375.349 56.4653 376.779 56.44 378.199 56.2909L378.262 55.9126C379.346 55.837 379.523 55.5722 380.355 55.5596C379.939 55.6983 380.708 55.8118 381.616 55.7361C381.364 55.7361 381.011 55.7361 381.099 55.6479C382.725 55.5344 382.94 55.2697 384.881 55.0932C383.267 55.0932 382.94 54.9923 381.427 54.904C381.817 54.6267 382.486 54.8158 383.368 54.7402C383.23 54.7402 383.053 54.7402 383.368 54.8284L384.289 54.6519C386.293 54.6519 384.062 55.0553 385.713 55.0805C386.873 55.2444 387.277 54.8788 388.147 54.9545H387.983H388.399C389.251 54.9557 390.1 54.8368 390.92 54.6015C391.346 54.619 391.771 54.5679 392.181 54.4502C393.123 54.2022 394.105 54.1507 395.068 54.2989C396.329 54.2989 397.426 54.2989 397.136 54.4376H399.279L399.064 54.7023C400.106 54.6249 401.132 54.4087 402.116 54.0593C403.702 54.0804 405.288 53.9707 406.856 53.7316H407.625H406.805C408.331 53.7316 408.129 53.5424 409.138 53.4794C408.923 53.4794 408.898 53.4794 409.453 53.4794H409.529H410.083C409.916 53.4999 409.747 53.4999 409.579 53.4794L409.768 53.555C410.823 53.5647 411.877 53.4888 412.92 53.3281H412.454C413.185 53.3281 414.257 53.6559 414.546 53.4164C414.773 53.4201 414.999 53.386 415.215 53.3155C415.555 53.2272 415.858 53.1138 415.908 53.1642H417.774C418.197 53.1703 418.619 53.1365 419.035 53.0634L419.363 53.1516C420.031 53.1516 420.043 53.1516 419.968 53.1516C422.338 53.3911 423.599 52.7608 426.158 52.9373C426.624 52.7356 425.578 52.723 425.49 52.6221C425.881 52.4708 427.331 52.2691 428.011 52.1304C429.159 52.3195 432.638 52.3447 432.109 52.7229C434.202 52.6347 431.44 52.5464 432.487 52.3699H432.727C432.149 52.3722 431.573 52.3045 431.012 52.1682C430.835 51.9791 432.689 51.8278 433.256 51.853L432.878 52.143C434.807 51.9413 434.378 51.5631 435.563 51.2227C437.114 51.2227 436.244 51.5379 436.572 51.7648L438.185 51.6135V51.8152C439.091 51.6299 440.01 51.5244 440.934 51.5C440.089 51.2353 443.367 51.0588 441.93 51.437ZM403.275 53.5803C402.811 53.6269 402.342 53.5709 401.901 53.4164C402.607 53.076 406.389 53.4164 405.683 53.2399C407.348 53.0255 406.831 53.2399 406.944 53.2399C405.293 53.2399 404.423 53.3911 402.922 53.3659C403.052 53.3904 403.173 53.4468 403.275 53.5298V53.5803ZM419.552 52.5717H419.325C419.842 52.4078 420.144 52.3447 419.552 52.5212V52.5717ZM436.66 50.1258L436.862 50.0502L436.66 50.1258Z" fill="white"/>
<path d="M384.351 300.308C384.515 300.308 384.439 300.598 384.351 300.661C383.985 300.951 383.796 300.573 383.771 300.447L384.048 300.358C383.72 299.652 382.913 300.522 382.346 300.497L382.561 299.968L381.993 300.421C381.867 300.295 381.766 300.005 381.993 299.917C381.577 299.678 381.64 300.119 381.275 299.842C381.275 299.842 381.275 299.842 381.275 299.753L380.884 299.93C380.959 299.816 380.808 299.564 381.048 299.627C380.316 299.35 379.913 300.068 379.623 299.627C378.64 299.854 379.547 300.018 378.816 300.51L378.274 299.577L378.198 299.968C378.085 299.968 377.883 299.968 377.921 299.779C377.543 300.056 377.984 299.942 377.782 300.207C377.265 299.867 376.421 300.422 376.295 299.816C376.131 300.119 376.774 300.018 376.295 300.245C376.106 299.589 375.689 300.384 375.223 300.106C375.349 299.753 375.778 299.917 375.324 299.627C375.072 300.22 374.429 299.539 374.063 299.627C374.063 300.094 373.244 299.854 372.613 300.031C372.613 299.879 371.352 299.842 370.798 299.69V299.615C370.709 300.081 370.092 300.018 369.65 300.132C369.638 300.023 369.662 299.912 369.719 299.819C369.776 299.725 369.863 299.653 369.966 299.615H369.55C369.495 299.699 369.423 299.769 369.338 299.822C369.253 299.874 369.157 299.907 369.058 299.917L369.146 299.577C368.591 299.577 368.049 300.031 367.318 299.829C367.318 300.144 367.923 300.699 367.179 300.951C367.179 300.775 367.104 300.472 367.293 300.396C367.23 300.396 367.066 300.548 366.94 300.485L367.23 300.169C366.889 300.056 367.066 300.422 366.801 300.409C366.801 300.157 366.599 300.245 366.637 300.043C366.675 299.842 366.864 300.132 366.965 300.043C366.668 300.027 366.387 299.906 366.171 299.703C366.187 299.74 366.194 299.78 366.192 299.82C366.19 299.86 366.179 299.9 366.159 299.935C366.14 299.97 366.113 300.001 366.08 300.024C366.047 300.047 366.009 300.062 365.969 300.068C365.414 300.068 365.767 299.779 365.44 299.665C365.313 299.854 364.948 299.665 364.96 300.056C364.797 300.056 364.759 299.892 364.683 299.791C364.406 299.968 363.347 299.892 363.687 300.27H363.763C362.83 300.674 361.796 300.144 360.863 300.333V300.207C360.308 300.384 359.602 300.346 359.237 300.636C359.073 300.636 358.833 300.422 358.896 300.27C358.731 300.358 358.549 300.41 358.362 300.423C358.175 300.436 357.988 300.41 357.812 300.346C358.228 300.106 357.648 300.157 358.241 300.169C357.686 300.081 357.547 299.892 356.98 300.258C357.169 299.93 356.539 299.867 356.274 299.98L356.677 300.195C356.405 300.226 356.13 300.226 355.858 300.195L355.984 299.766C354.824 299.299 353.967 300.724 353.059 299.905C352.769 300.207 353.689 300.081 353.437 300.434C352.908 300.434 352.34 299.829 352.177 299.829C351.445 299.627 351.533 300.472 350.777 300.346C350.878 300.485 350.979 300.888 350.424 301.052C349.907 301.052 349.756 300.447 350.084 300.308C350.21 300.308 350.273 300.308 350.273 300.396C350.273 300.485 350.651 300.258 350.437 300.106V300.258C350.172 300.119 349.453 300.157 349.617 299.905C349.226 300.068 349.453 300.157 349.756 300.22C349.075 300.031 348.697 300.22 348.003 300.144C348.117 300.22 348.23 300.396 348.117 300.396C347.096 300.258 347.676 300.699 346.995 300.8C346.591 300.585 347.108 300.245 346.428 300.472C345.999 300.333 346.327 300.068 346.491 299.942C345.873 300.258 345.23 299.804 344.94 299.766L345.268 299.627C345.099 299.694 344.919 299.728 344.738 299.728L344.94 300.018C344.751 300.018 344.574 300.018 344.574 299.854C344.385 300.056 344.751 300.346 344.36 300.623C344.095 300.485 343.578 300.825 343.477 300.434C344.297 300.535 343.364 300.031 344.057 299.942C343.898 299.994 343.725 299.994 343.566 299.942C343.566 299.942 343.566 299.854 343.641 299.829C342.847 299.514 343.301 300.295 342.494 300.321C342.582 300.094 342.28 299.905 342.154 299.955C342.481 299.955 342.33 300.321 342.027 300.51C341.498 300.358 341.473 300.661 341.195 300.661H341.511C341.422 300.888 341.158 300.875 340.792 300.951C340.792 300.787 341.12 300.825 340.994 300.749C340.603 301.165 340.061 300.384 339.506 300.674C339.241 300.535 339.506 300.258 339.241 300.157C338.623 300.472 338.548 299.879 337.892 300.157C338.094 300.459 338.119 300.384 337.665 300.686L338.75 300.434L337.968 301.064C338.296 301.064 338.649 300.85 338.85 300.888C338.535 301.153 338.56 301.077 338.724 301.317C338.258 300.888 337.854 301.619 337.312 301.317V300.573C336.518 300.27 335.951 301.014 334.93 300.875L335.257 300.989C335.131 301.291 334.627 300.989 334.312 301.191C334.312 300.938 334.123 300.85 333.971 300.711C333.971 300.888 333.227 300.711 333.164 301.216L332.698 300.913C331.866 300.812 331.79 301.657 330.996 301.607C331.223 301.329 330.857 301.165 331.387 300.951C331.122 300.951 330.882 300.951 330.882 301.102C330.719 300.951 330.164 301.468 329.924 301.241C329.811 301.354 329.786 301.607 329.496 301.607C329.487 301.587 329.482 301.565 329.482 301.544C329.482 301.522 329.487 301.5 329.496 301.481C329.496 301.607 329.042 301.67 329.319 301.934C328.474 301.191 327.062 302.086 326.331 301.443C325.744 301.563 325.15 301.652 324.554 301.707C324.554 301.632 324.554 301.581 324.642 301.607C323.923 301.405 324.238 302.338 323.381 302.111C322.952 301.72 323.81 301.871 323.545 301.733C323.394 300.913 322.562 301.884 321.994 301.43H322.12C321.692 301.165 321.112 301.783 320.418 301.745C320.428 301.728 320.433 301.708 320.433 301.689C320.433 301.669 320.428 301.649 320.418 301.632C319.822 302.036 319.14 302.295 318.426 302.388C318.628 302.06 318.729 302.199 318.59 301.884C318.288 301.884 318.691 302.401 318.111 302.514C317.909 302.35 317.481 302.212 317.405 301.871H317.96C317.657 301.443 317.241 301.871 316.939 301.871V301.67C316.081 301.771 316.094 302.262 315.174 302.275L315.274 302.413C314.795 302.93 314.846 302.161 314.354 302.54L314.19 302.048C313.634 302.314 313.056 302.533 312.463 302.703C312.887 302.343 313.368 302.058 313.888 301.859C313.56 301.859 312.778 301.947 312.627 302.199C312.753 302.199 312.917 302.01 313.056 302.086C312.85 302.291 312.607 302.453 312.338 302.564C312.07 302.674 311.782 302.73 311.492 302.729C311.568 301.758 309.778 302.552 309.273 301.821C308.126 302.237 306.966 301.821 305.63 301.821C306.134 302.552 305.239 301.821 305.352 302.628C305.05 302.628 304.936 302.628 304.899 302.628L303.928 302.212C303.701 301.997 304.218 302.035 304.18 301.859C303.499 301.859 303.877 301.544 303.423 301.354C303.524 301.632 303.196 301.758 302.806 301.67L303.373 302.01C302.427 302.451 302.516 301.392 301.558 301.846L301.86 301.581C301.368 301.745 300.019 301.657 299.565 302.3C299.477 302.212 299.351 302.01 299.565 301.947C298.305 301.947 296.956 302.716 296.01 302.363L296.098 302.174C295.872 302.237 295.72 302.552 295.443 302.363C295.443 302.287 295.519 302.174 295.443 302.174C295.367 302.174 294.863 302.527 294.573 302.426L294.813 302.199C293.64 302.01 293.06 302.792 292.089 302.968C292.089 302.414 291.156 302.275 290.69 302.199V302.124C289.492 302.252 288.315 302.527 287.185 302.943C286.391 302.376 284.55 302.804 283.289 302.514C283.491 302.615 283.289 302.956 283.062 303.019C282.835 303.082 282.268 303.435 282.293 302.93H282.495C282.255 302.439 281.663 302.603 281.234 302.603V303.271C279.974 302.363 278.032 303.763 277.326 302.93C277.036 303.107 276.67 303.119 276.393 303.296V302.943C275.648 302.85 274.894 302.85 274.149 302.943L274.338 302.678C273.771 302.678 273.657 303.737 273.14 303.788L272.951 303.258C271.955 303.258 270.934 302.88 269.963 303.409C269.963 303.321 269.963 303.17 270.165 303.145C269.686 303.145 268.324 302.855 268.526 303.586C268.526 303.107 267.505 303.586 266.963 303.813L267.038 303.46C266.597 303.926 266.597 304.052 265.967 304.204C265.853 304.204 265.828 304.04 265.967 304.002C265.614 304.002 265.639 304.342 265.097 304.191L265.311 303.964C264.794 303.964 264.845 304.078 264.567 304.342C264.29 304.607 263.584 304.342 263.496 303.989C263.452 304.12 263.363 304.23 263.245 304.299C263.127 304.369 262.987 304.393 262.853 304.368C262.853 304.254 262.853 304.179 262.966 304.141C262.096 303.939 261.705 304.595 261.1 304.279C261.1 304.166 261.037 304.103 260.987 304.078C261.381 304.046 261.777 304.046 262.172 304.078C262.172 303.75 261.604 303.725 262.033 303.258C261.592 303.523 260.861 304.078 260.306 303.952L260.23 303.838H260.293C260.176 303.819 260.056 303.842 259.953 303.901C259.805 303.859 259.653 303.833 259.499 303.826C259.423 303.561 258.856 303.712 258.579 303.712C258.579 304.065 258.251 304.015 258.579 304.292C258.579 304.292 258.579 304.292 258.818 304.229C259.058 304.166 258.906 304.229 258.932 304.229H259.612C259.398 304.418 259.184 304.582 258.869 304.393C258.757 304.597 258.635 304.794 258.503 304.985C258.1 304.506 257.368 304.267 257.242 303.977C256.41 304.204 255.263 304.191 254.721 304.872C254.481 304.973 254.443 304.695 254.343 304.595C254.481 304.519 254.645 304.519 254.721 304.431C254.242 304.62 253.296 304.557 253.208 305.023C252.59 304.834 253.523 304.582 252.704 304.695L252.804 304.544C251.14 303.863 250.207 305.805 248.354 304.96C248.48 304.96 248.543 305.036 248.568 305.111C246.488 304.784 244.332 305.691 242.265 305.111C241.672 304.998 241.622 305.301 241.281 305.54L241.143 305.162L240.55 305.628C239.718 305.981 239.037 304.758 238.028 305.414L238.18 305.666C237.789 305.666 236.919 305.868 237.007 305.565C237.007 305.565 236.881 305.843 236.73 305.717V305.515L235.797 305.893C235.041 305.78 235.873 305.099 234.788 305.111C234.397 305.2 233.666 305.729 233.83 305.855C233.994 305.981 234.246 305.969 234.271 306.171L233.906 306.284C233.906 306.877 233.603 307.482 234.524 307.86L235.141 307.469L235.356 307.746H234.826C235.141 308.011 235.318 307.746 235.52 307.595C235.569 307.728 235.668 307.837 235.797 307.898L236.389 307.305C236.478 307.532 236.137 307.772 236.553 307.885C236.831 307.608 236.251 307.381 236.73 307.192C237.045 307.444 236.957 307.658 237.31 307.419C237.331 307.482 237.327 307.552 237.299 307.612C237.271 307.673 237.221 307.721 237.159 307.746C237.461 307.545 237.978 307.633 238.129 307.305C238.457 307.633 239.188 307.179 239.176 307.734C239.401 307.494 239.689 307.324 240.008 307.242C239.504 307.936 241.092 307.242 240.979 307.961C241.344 307.343 242.378 307.633 243.059 307.267C243.059 307.267 242.945 307.419 242.882 307.393C243.273 307.393 243.399 307.595 243.651 307.696C243.651 307.204 244.282 307.066 244.597 306.75C245.089 307.204 244.332 307.343 244.496 307.797C244.496 307.393 245.316 307.356 245.139 307.028C245.517 307.305 245.454 307.166 245.656 307.557C245.656 306.94 245.996 307.444 246.286 307.053C246.829 307.33 246.45 307.62 247.018 307.406C247.295 307.595 246.791 307.835 246.791 307.835C247.383 307.835 247.055 307.368 247.169 307.091C247.862 306.927 247.509 307.419 247.761 307.646C248.19 307.507 248.505 307.066 248.846 307.066C248.846 307.141 248.934 307.167 248.846 307.267C249.3 306.877 250.233 307.192 250.749 306.7C250.782 306.732 250.808 306.771 250.825 306.813C250.747 306.613 250.713 306.398 250.724 306.183C250.989 306.183 251.203 305.868 251.317 306.183C251.153 306.183 251.14 306.297 251.065 306.397L251.342 306.259C251.607 306.687 250.964 306.423 250.976 306.75C251.518 306.587 252.136 306.196 252.552 306.297C252.653 306.725 251.594 306.486 252.161 306.839L251.506 306.7C252.023 307.356 251.115 306.7 251.594 307.381C252.451 307.469 252.527 307.116 253.384 307.204C253.561 306.965 253.309 306.864 253.485 306.612C254.658 306.133 254.469 307.646 255.326 307.04C255.54 306.75 255.603 306.208 256.246 306.46L256.057 306.952C256.877 306.952 256.486 306.246 257.318 306.536C257.179 306.725 256.688 306.713 256.814 306.776C257.381 307.129 257.192 306.486 257.62 306.46L257.721 306.889C258.591 306.788 259.537 306.435 260.495 306.309C260.495 306.448 260.293 306.587 260.495 306.7C261.754 306.517 263.037 306.568 264.277 306.851L264.706 306.46C264.819 306.46 264.908 306.624 264.807 306.7C265.261 306.826 264.807 306.46 265.034 306.309C265.261 306.158 265.387 306.511 265.223 306.624C266.194 306.142 267.3 306 268.362 306.221L268.198 306.334C268.866 306.46 268.904 305.54 269.534 305.868L269.421 305.931C270.871 306.032 272.434 305.628 273.556 306.145C273.745 305.603 274.994 306.322 275.044 305.565C275.889 305.906 275.662 306.044 276.822 306.246C277.137 306.246 277.263 305.767 277.641 305.666V306.057L278.145 305.628L278.435 306.082L278.788 305.969C278.65 305.969 278.473 305.805 278.498 305.691C279.053 305.49 279.873 305.906 279.885 306.107L281.146 305.717C281.146 305.881 280.906 305.944 280.73 306.044C281.423 305.616 280.881 306.448 281.512 306.044C281.423 305.969 281.512 305.818 281.512 305.729C282.021 305.937 282.586 305.963 283.113 305.805L283.025 306.082C284.008 306.082 285.08 305.868 286.189 305.817C286.105 305.817 286.025 305.784 285.966 305.725C285.907 305.666 285.874 305.586 285.874 305.502C285.874 305.419 285.907 305.339 285.966 305.279C286.025 305.22 286.105 305.187 286.189 305.187L286.34 305.591C286.529 305.326 285.987 305.452 286.403 305.124C286.819 305.124 286.706 305.578 286.403 305.717L286.908 305.553C286.908 305.679 286.819 305.754 286.794 305.906C286.996 305.641 287.677 306.284 287.954 305.83V305.944C289.051 305.944 289.543 305.742 290.476 305.679C290.476 305.326 290.829 305.389 291.093 305.099C291.812 305.27 292.548 305.359 293.287 305.364C293.829 305.162 293.438 305.061 293.678 304.834C293.678 305.162 294.523 305.099 294.119 305.338C294.934 305.285 295.741 305.145 296.527 304.922C296.388 304.784 296.237 304.733 296.313 304.62C296.388 304.506 296.817 304.733 296.792 304.897C298.053 304.355 299.944 305.704 300.99 304.985L302.087 304.582C302.604 304.582 301.784 304.847 302.175 305.023C303.36 304.431 304.079 305.023 305.062 304.62C305.869 305.54 307.773 304.443 308.845 305.011L308.769 304.784C309.034 304.557 309.097 304.897 309.299 304.948C309.299 304.771 308.996 304.758 309.16 304.62C311.507 304.468 313.863 304.548 316.195 304.859C317.039 304.859 316.623 303.674 317.72 304.166L317.43 304.595C319.132 304.027 320.948 304.469 322.599 303.977C322.511 304.078 322.511 304.204 322.347 304.204C322.713 304.494 323.608 304.204 323.608 303.914C323.873 303.914 323.608 304.141 323.835 304.254C324.201 304.418 324.717 303.838 324.919 304.128C324.919 304.128 324.831 304.229 324.755 304.254C324.982 304.103 325.84 304.254 325.6 303.901C326.243 304.052 326.861 303.699 327.315 303.901C327.63 303.498 328.399 304.04 328.487 303.485C328.487 304.052 329.609 303.901 330 303.611C329.874 303.788 330.353 303.775 330.202 304.027C330.656 304.027 331.072 303.876 330.983 303.586C331.853 304.229 332.648 302.968 333.152 303.813C334.398 303.479 335.66 303.21 336.934 303.006C336.934 303.573 335.585 303.12 335.673 303.712C336.603 303.306 337.598 303.067 338.611 303.006C338.913 303.069 338.46 303.258 338.359 303.359C339.506 303.082 340.59 303.359 341.611 302.968C341.611 302.968 341.498 303.082 341.397 303.132C341.599 303.132 341.864 303.132 341.838 302.943L341.637 303.019C341.296 302.653 342.406 302.199 342.431 301.997C342.128 302.754 343.452 302.149 342.948 303.107C343.087 303.044 343.25 302.918 343.213 302.741C343.402 302.741 343.477 302.893 343.276 303.094C343.994 302.918 343.73 302.653 344.385 302.64C344.385 302.766 344.259 302.817 344.196 302.968C344.355 302.799 344.553 302.671 344.772 302.594C344.992 302.517 345.227 302.494 345.457 302.527C345.457 302.603 345.457 302.703 345.331 302.703C346.276 302.628 346.919 301.985 347.978 302.187C347.688 302.741 348.331 302.35 348.407 302.817L348.962 302.653L348.735 302.426C349.226 302.426 349.642 302.06 350.071 302.199L349.718 302.401L350.638 302.275L350.109 302.124C350.588 301.859 350.021 301.531 350.689 301.632C350.55 301.632 351.181 301.632 351.445 301.884C351.557 301.78 351.692 301.705 351.839 301.665C351.987 301.626 352.141 301.623 352.29 301.657C352.391 301.808 352.29 302.174 352.29 302.275C352.517 301.871 353.437 302.124 353.727 301.682C353.695 301.745 353.678 301.814 353.678 301.884C353.678 301.954 353.695 302.023 353.727 302.086L353.904 301.758C354.143 301.846 354.181 301.897 354.143 302.098C354.837 302.098 353.904 301.506 354.723 301.733C354.66 301.733 354.723 301.808 354.572 301.859C355.391 301.96 356.135 301.594 356.892 301.72C357.131 302.187 356.249 301.859 356.514 302.25C357.584 301.964 358.676 301.766 359.779 301.657H359.59C359.703 300.989 360.384 301.96 360.85 301.657C360.724 301.72 360.687 302.035 360.724 301.96C361.584 301.927 362.434 301.766 363.246 301.481L363.12 301.657C363.642 301.729 364.169 301.763 364.696 301.758C364.822 301.581 365.087 301.594 364.923 301.354C366.373 302.275 367.583 300.724 368.869 301.481C368.718 301.481 368.516 301.644 368.629 301.644L369.688 301.443C369.6 301.153 369.55 301.266 369.31 301.052C369.397 300.952 369.503 300.87 369.622 300.812C369.742 300.753 369.871 300.719 370.003 300.711C369.524 300.926 370.004 301.178 370.23 301.342C370.23 301.254 370.23 301.153 370.23 301.052C370.81 301.556 370.23 300.472 371.075 300.787V300.938C371.352 300.85 371.605 300.636 371.92 300.661C372.058 301.001 371.617 300.838 371.617 301.115C372.046 301.115 372.437 300.447 372.878 300.762C372.701 300.863 372.437 300.875 372.26 300.976C372.359 301.088 372.481 301.176 372.619 301.233C372.757 301.29 372.906 301.314 373.055 301.304L373.786 301.455L373.597 301.354C374.101 300.459 374.693 301.153 375.387 300.548C374.706 301.115 375.286 300.863 375.248 301.241C375.437 301.342 375.727 301.455 375.652 301.556C375.979 301.241 376.232 301.783 376.698 301.304C376.698 301.43 377.064 301.304 377.001 301.619C377.442 301.506 376.887 301.405 376.912 301.254C377.581 300.8 378.551 301.695 379.522 301.077C380.354 300.8 380.493 300.384 381.275 300.144C381.552 300.333 381.085 300.598 381.085 300.598C381.269 300.676 381.466 300.717 381.665 300.717C381.865 300.717 382.062 300.676 382.245 300.598C382.157 300.711 382.245 300.8 382.384 300.926C382.523 301.052 382.573 300.472 383.014 300.636C382.947 300.822 382.844 300.993 382.712 301.14C383.09 301.014 383.456 300.762 383.846 300.636C383.973 300.85 383.632 300.976 383.493 301.115C383.935 301.001 384.641 300.875 384.754 300.535L384.351 300.308ZM258.894 303.876C258.885 303.813 258.885 303.75 258.894 303.687C259.083 303.687 259.146 303.687 259.171 303.775C259.076 303.801 258.983 303.835 258.894 303.876ZM260.331 306.158H260.054H260.331ZM260.987 306.095C260.987 305.981 260.987 305.855 261.1 305.855C261.214 305.855 261.314 305.994 261.491 306.095H260.987Z" fill="white"/>
<path d="M289.05 351.608L289.328 351.28V351.57H289.113C289.202 351.86 289.303 351.633 289.403 351.482C289.396 351.591 289.418 351.7 289.467 351.797L289.769 351.268C289.769 351.507 289.605 351.709 289.769 351.86C289.908 351.608 289.769 351.331 289.92 351.179C290.009 351.457 289.92 351.671 290.109 351.457C290.116 351.514 290.11 351.571 290.093 351.625C290.075 351.68 290.047 351.73 290.009 351.772C290.147 351.596 290.336 351.772 290.437 351.419C290.513 351.759 290.853 351.419 290.778 351.936C290.778 351.81 291.042 351.52 291.156 351.52C290.879 352.15 291.559 351.596 291.433 352.302C291.648 351.722 292.001 352.1 292.291 351.797C292.291 351.797 292.291 351.936 292.215 351.898C292.139 351.86 292.379 352.15 292.467 352.276C292.543 351.785 292.782 351.696 292.934 351.406C293.072 351.898 292.77 351.974 292.782 352.428C292.782 352.037 293.135 352.062 293.11 351.722C293.202 351.901 293.25 352.1 293.249 352.302C293.337 351.684 293.387 352.201 293.539 351.835C293.715 352.163 293.539 352.415 293.778 352.251C293.854 352.453 293.64 352.655 293.64 352.655C293.867 352.655 293.791 352.213 293.867 351.949C294.144 351.848 293.955 352.302 294.03 352.554C294.207 352.44 294.383 352.037 294.497 352.062C294.515 352.128 294.515 352.198 294.497 352.264C294.711 351.911 295.026 352.264 295.279 351.848C295.283 351.89 295.283 351.932 295.279 351.974C295.258 351.76 295.258 351.545 295.279 351.331C295.379 351.331 295.493 351.053 295.505 351.331C295.505 351.331 295.417 351.444 295.379 351.532L295.505 351.419C295.505 351.86 295.342 351.545 295.316 351.873C295.531 351.747 295.808 351.419 295.959 351.558C295.959 351.986 295.569 351.659 295.745 352.062L295.518 351.873C295.644 352.566 295.367 351.81 295.518 352.554C295.821 352.705 295.896 352.365 296.212 352.554C296.3 352.327 296.212 352.201 296.312 351.974C296.804 351.596 296.577 353.083 296.955 352.541C297.069 352.264 297.157 351.734 297.371 352.037L297.245 352.516C297.548 352.592 297.485 351.835 297.787 352.188C297.712 352.377 297.523 352.327 297.561 352.39C297.75 352.793 297.737 352.125 297.901 352.138V352.579C298.241 352.579 298.632 352.251 299.01 352.213C299.01 352.339 298.897 352.465 299.01 352.604C299.265 352.561 299.526 352.577 299.773 352.652C300.02 352.726 300.247 352.857 300.435 353.033L300.637 352.667C300.637 352.667 300.7 352.844 300.637 352.919C300.801 353.071 300.637 352.68 300.75 352.541C300.864 352.402 300.876 352.768 300.75 352.869C301.078 352.579 301.683 352.264 302.011 352.692L301.935 352.793C302.187 352.957 302.288 352.062 302.49 352.415V352.478C303.032 352.68 303.663 352.39 304.041 352.97C304.154 352.453 304.57 353.247 304.659 352.503C304.948 352.894 304.848 353.02 305.276 353.298C305.39 353.298 305.478 352.844 305.629 352.781V353.171L305.844 352.781L305.919 353.247L306.071 353.159C306.034 353.121 306.008 353.075 305.992 353.024C305.977 352.974 305.974 352.921 305.982 352.869C306.197 352.705 306.487 353.171 306.474 353.361L307.003 353.071C307.003 353.222 306.89 353.272 306.814 353.373C307.117 352.982 306.814 353.777 307.117 353.373C307.097 353.269 307.097 353.162 307.117 353.058C307.175 353.16 307.271 353.236 307.384 353.268C307.497 353.301 307.618 353.289 307.722 353.235V353.499C308.142 353.531 308.563 353.531 308.983 353.499C308.832 353.361 308.895 352.907 308.983 352.869V353.272C309.084 353.033 308.869 353.121 308.983 352.818C309.134 352.818 309.059 353.285 308.983 353.411L309.185 353.285C309.185 353.398 309.185 353.461 309.122 353.625C309.21 353.373 309.424 354.054 309.563 353.625V353.751C309.888 353.731 310.212 353.693 310.534 353.638C310.534 353.285 310.685 353.373 310.798 353.096C311.051 353.222 311.315 353.512 311.63 353.487C311.946 353.461 311.706 353.197 311.807 352.982C311.807 353.31 312.11 353.285 311.946 353.512C312.279 353.5 312.604 353.404 312.891 353.235C312.891 353.096 312.79 353.033 312.891 352.919C312.992 352.806 313.068 353.071 313.055 353.222C313.597 352.755 314.228 354.205 314.656 353.537L315.097 353.197C315.299 353.26 314.971 353.436 315.097 353.638C315.577 353.121 315.829 353.751 316.22 353.398C316.497 354.357 317.279 353.398 317.657 353.966V353.739C317.758 353.524 317.77 353.877 317.846 353.928C317.846 353.751 317.745 353.726 317.846 353.6C318.728 353.361 319.649 353.953 320.544 354.167C320.872 354.167 320.733 353.008 321.149 353.55L321.023 353.966C321.691 353.461 322.385 353.966 323.028 353.55C323.028 353.651 323.028 353.777 322.927 353.777C323.065 354.079 323.431 353.777 323.431 353.537C323.532 353.537 323.431 353.764 323.519 353.89C323.608 354.016 323.86 353.499 323.935 353.789C323.935 353.789 323.935 353.89 323.935 353.915C323.935 353.941 324.351 353.915 324.263 353.6C324.503 353.764 324.717 353.436 324.919 353.6C325.032 353.209 325.335 353.777 325.373 353.222C325.373 353.802 325.801 353.676 325.952 353.411C325.952 353.575 326.091 353.588 326.041 353.827C326.217 353.827 326.369 353.701 326.331 353.411C326.671 354.079 326.961 352.831 327.175 353.701C327.63 353.41 328.116 353.173 328.625 352.995C328.625 353.575 328.108 353.071 328.159 353.676C328.587 353.424 328.827 352.919 329.268 353.033C329.394 353.108 329.268 353.285 329.18 353.386C329.621 353.121 330.05 353.386 330.441 353.058C330.434 353.116 330.407 353.169 330.365 353.209C330.441 353.209 330.554 353.285 330.529 353.033L330.453 353.108C330.315 352.73 330.718 352.302 330.718 352.1C330.63 352.856 331.122 352.264 330.97 353.209C331.007 353.161 331.032 353.106 331.045 353.047C331.059 352.989 331.059 352.928 331.046 352.869C331.134 352.869 331.159 353.008 331.046 353.209C331.323 353.045 331.197 352.781 331.449 352.768C331.449 352.894 331.449 352.945 331.449 353.096C331.563 352.844 331.664 352.579 331.891 352.68C331.891 352.755 331.891 352.844 331.891 352.844C332.256 352.781 332.458 352.15 332.887 352.352C332.811 352.907 333.038 352.528 333.101 352.995L333.303 352.831L332.924 352.755C333.126 352.755 333.252 352.377 333.429 352.516L333.315 352.73L333.656 352.604L333.441 352.44C333.605 352.188 333.366 351.86 333.618 351.961C333.618 351.961 333.807 351.961 333.933 352.213C334.009 352.049 334.097 351.886 334.248 351.986C334.4 352.087 334.248 352.503 334.248 352.604C334.248 352.201 334.677 352.453 334.74 352.024C334.713 352.153 334.713 352.286 334.74 352.415V352.087C334.841 352.188 334.853 352.239 334.866 352.428C335.131 352.428 334.715 351.848 335.055 352.075C335.055 352.075 335.055 352.138 335.055 352.201C335.383 352.289 335.635 351.911 335.938 352.037C336.089 352.491 335.698 352.188 335.849 352.566C336.265 352.428 336.631 351.885 337.11 351.949H337.035C337.035 351.28 337.387 352.238 337.539 351.949C337.514 352.048 337.514 352.152 337.539 352.251C337.841 352.251 338.081 351.999 338.459 351.722V351.898C338.648 352.024 338.9 351.898 339.09 351.961C339.09 351.772 339.216 351.785 339.09 351.558C339.808 352.415 339.997 350.826 340.64 351.558C340.64 351.558 340.539 351.734 340.64 351.722L341.018 351.482C340.918 351.205 340.918 351.318 340.792 351.116C340.784 351.045 340.797 350.974 340.831 350.911C340.865 350.848 340.917 350.796 340.981 350.763C340.842 350.99 341.082 351.217 341.208 351.356C341.2 351.268 341.2 351.179 341.208 351.091C341.548 351.545 341.107 350.511 341.472 350.776V350.927C341.561 350.826 341.598 350.6 341.724 350.612C341.863 350.927 341.649 350.801 341.724 351.066C341.888 351.003 341.876 350.36 342.115 350.65C342.115 350.751 341.977 350.789 341.926 350.89C342.191 351.23 342.178 351.129 342.317 351.154L342.645 351.243L342.544 351.167C342.544 350.259 342.91 350.902 343.01 350.272C342.91 350.864 343.01 350.587 343.162 350.953C343.263 351.028 343.401 351.104 343.401 351.217C343.401 350.877 343.691 351.381 343.742 350.89C343.742 351.003 343.88 350.89 343.943 351.154C344.082 351.003 343.843 350.965 343.805 350.814C343.918 350.322 344.586 351.079 344.763 350.41C344.977 350.045 344.876 349.641 345.065 349.326C345.242 349.465 345.179 349.78 345.179 349.78C345.406 349.868 345.507 349.78 345.595 349.604C345.62 349.717 345.688 349.816 345.784 349.881C345.885 349.793 345.671 349.44 345.898 349.541C345.952 349.7 345.986 349.865 345.998 350.032C346.087 349.868 346.124 349.604 346.213 349.427C346.351 349.591 346.213 349.755 346.288 349.919C346.386 349.824 346.456 349.705 346.491 349.574C346.527 349.444 346.526 349.306 346.49 349.175H346.339C346.339 349.175 346.503 349.414 346.49 349.503C346.49 349.805 346.251 349.503 346.188 349.402V349.276C345.759 348.696 345.86 349.591 345.633 349.641L345.482 349.124V349.616C345.381 349.515 345.229 349.263 345.292 349.15C345.04 348.973 345.292 349.364 345.002 349.15C344.996 349.136 344.992 349.121 344.992 349.106C344.992 349.09 344.996 349.075 345.002 349.061L344.927 349.263C344.927 349.15 344.763 348.935 344.927 348.973C344.561 348.797 344.687 349.503 344.435 349.175C344.158 349.49 344.549 349.553 344.435 350.07L343.918 349.251L344.019 349.616C344.019 349.616 343.893 349.616 343.855 349.465C343.855 349.767 343.931 349.616 343.943 349.881C343.641 349.604 343.502 350.209 343.263 349.641C343.263 349.931 343.502 349.793 343.389 350.045C343.124 349.44 343.2 350.234 342.947 350.045C342.947 349.692 343.099 349.818 342.847 349.578C342.922 350.171 342.494 349.578 342.393 349.704C342.413 349.743 342.423 349.787 342.423 349.83C342.423 349.874 342.413 349.918 342.393 349.957C342.393 349.805 342.393 349.73 342.393 349.704C342.368 349.623 342.339 349.543 342.304 349.465C342.304 349.465 342.304 349.793 342.38 349.957C342.456 350.12 342.09 350.032 341.964 350.171C341.964 350.02 341.46 350.057 341.208 349.957V349.868C341.208 350.335 341.031 350.31 340.892 350.436C340.827 350.265 340.827 350.077 340.892 349.906H340.741C340.749 349.964 340.742 350.023 340.723 350.077C340.703 350.132 340.67 350.182 340.628 350.221V349.881C340.438 349.944 340.312 350.36 339.997 350.196C339.997 350.511 340.401 351.028 340.161 351.306C340.095 351.129 340.073 350.938 340.098 350.751C340.098 350.751 340.098 350.915 339.985 350.852V350.536C339.833 350.448 339.985 350.801 339.871 350.789C339.871 350.549 339.758 350.637 339.733 350.436C339.707 350.234 339.833 350.524 339.859 350.436C339.778 350.418 339.703 350.381 339.639 350.329C339.575 350.276 339.525 350.209 339.493 350.133C339.493 350.259 339.569 350.461 339.493 350.511C339.417 350.562 339.367 350.221 339.216 350.133C339.216 350.31 339.039 350.133 339.102 350.524C339.102 350.524 339.001 350.36 338.963 350.272C338.875 350.448 338.472 350.398 338.661 350.763C338.371 351.192 337.892 350.688 337.577 350.902V350.776C337.388 350.965 337.123 350.94 337.009 351.217C337.009 351.217 336.833 351.016 336.833 350.864C336.694 350.978 336.694 351.129 336.429 350.953C336.568 350.713 336.354 350.763 336.581 350.776C336.354 350.688 336.278 350.499 336.102 350.864C336.102 350.549 335.887 350.486 335.812 350.6L335.975 350.801C335.878 350.838 335.77 350.838 335.673 350.801V350.373C335.194 349.931 335.005 351.343 334.589 350.524C334.5 350.826 334.841 350.7 334.778 351.053C334.576 351.053 334.299 350.448 334.248 350.448C333.946 350.247 334.059 351.079 333.757 350.953C333.757 351.104 333.883 351.495 333.681 351.659C333.479 351.659 333.378 351.053 333.492 350.927C333.605 350.801 333.567 350.927 333.567 351.003C333.589 350.985 333.606 350.963 333.617 350.938C333.629 350.913 333.635 350.886 333.635 350.858C333.635 350.83 333.629 350.803 333.617 350.778C333.606 350.753 333.589 350.731 333.567 350.713V350.864C333.454 350.726 333.177 350.763 333.227 350.524C333.088 350.675 333.227 350.763 333.303 350.839C333.025 350.65 332.899 350.839 332.635 350.738C332.635 350.826 332.735 350.99 332.635 350.99C332.231 350.839 332.483 351.293 332.231 351.381C332.067 351.167 332.231 350.826 331.992 351.041C331.815 350.902 331.928 350.65 331.992 350.524C331.777 350.826 331.538 350.373 331.399 350.322L331.512 350.196C331.463 350.248 331.395 350.279 331.323 350.284L331.412 350.574C331.336 350.574 331.273 350.574 331.26 350.41C331.26 350.612 331.361 350.902 331.26 351.179C331.147 351.028 330.97 351.369 330.907 350.965C331.222 351.079 330.844 350.574 331.096 350.486C331.096 350.486 330.995 350.549 330.92 350.486C330.91 350.469 330.905 350.449 330.905 350.429C330.905 350.409 330.91 350.39 330.92 350.373C330.605 350.045 330.819 350.839 330.516 350.852C330.516 350.625 330.416 350.423 330.365 350.473C330.315 350.524 330.453 350.852 330.365 351.028C330.151 350.864 330.163 351.167 330.05 351.154L330.176 351.23C330.176 351.457 330.05 351.432 329.911 351.507C329.911 351.331 330.037 351.381 329.974 351.306C329.848 351.709 329.609 350.915 329.42 351.192C329.306 351.053 329.42 350.776 329.293 350.675C329.067 350.978 329.016 350.385 328.777 350.675C328.865 350.978 328.877 350.902 328.777 351.205L329.18 350.965L328.941 351.419C329.067 351.419 329.193 351.217 329.268 351.268C329.155 351.52 329.167 351.444 329.268 351.684C329.079 351.243 328.953 351.961 328.739 351.684V350.94C328.436 350.625 328.234 351.343 327.844 351.179L327.97 351.293C327.97 351.596 327.743 351.293 327.617 351.469C327.61 351.297 327.563 351.128 327.478 350.978C327.478 351.167 327.201 350.978 327.188 351.469L326.999 351.154C326.684 351.028 326.671 351.873 326.369 351.797C326.444 351.532 326.369 351.356 326.507 351.154C326.406 351.154 326.306 351.154 326.318 351.293C326.255 351.129 326.053 351.633 325.952 351.394C325.952 351.507 325.953 351.772 325.789 351.747C325.782 351.705 325.782 351.663 325.789 351.621C325.789 351.747 325.612 351.797 325.789 352.075C325.461 351.306 324.919 352.138 324.641 351.482C324.429 351.577 324.204 351.64 323.973 351.671C323.973 351.596 323.973 351.558 323.973 351.583C323.708 351.356 323.822 352.302 323.507 352.037C323.192 351.772 323.671 351.822 323.507 351.671C323.507 350.852 323.128 351.785 322.914 351.306C322.763 351.028 322.536 351.621 322.271 351.558C322.278 351.516 322.278 351.473 322.271 351.432C322.198 351.593 322.092 351.737 321.959 351.854C321.827 351.971 321.671 352.059 321.502 352.112C321.578 351.797 321.616 351.949 321.502 351.621C321.389 351.621 321.502 352.138 321.313 352.239C321.173 352.037 321.086 351.802 321.061 351.558H321.275C321.162 351.116 320.998 351.558 320.884 351.558V351.369C320.557 351.432 320.556 351.923 320.203 351.886V352.037C320.002 352.516 320.04 351.759 319.851 352.112V351.621C319.652 351.841 319.422 352.032 319.17 352.188C319.313 351.901 319.505 351.64 319.737 351.419C319.611 351.419 319.308 351.419 319.245 351.696C319.245 351.696 319.359 351.52 319.409 351.608C319.258 351.986 319.044 352.188 318.804 352.175C318.804 351.205 318.149 351.911 317.985 351.167C317.543 351.507 317.115 350.99 316.61 351.041C316.774 351.797 316.459 351.041 316.472 351.835C316.358 351.835 316.308 351.835 316.295 351.835L315.942 351.369C315.867 351.142 316.056 351.205 316.056 351.028C315.791 350.965 315.955 350.7 315.791 350.486C315.791 350.763 315.69 350.877 315.539 350.763L315.74 351.129C315.362 351.532 315.438 350.473 315.06 350.864L315.186 350.625C314.997 350.763 314.492 350.625 314.291 351.217C314.291 351.129 314.215 350.915 314.291 350.864C313.849 350.751 313.269 351.482 312.929 351.091V350.902C312.841 350.902 312.765 351.243 312.677 351.053C312.589 350.864 312.677 350.864 312.677 350.852C312.677 350.839 312.437 351.179 312.336 351.066L312.437 350.852C312.009 350.587 311.744 351.343 311.366 351.457C311.381 351.282 311.344 351.107 311.259 350.954C311.173 350.801 311.044 350.678 310.887 350.6V350.524C310.37 350.436 309.991 350.94 309.5 351.129C309.235 350.524 308.516 350.826 308.063 350.461C308.082 350.545 308.081 350.633 308.059 350.716C308.037 350.8 307.995 350.876 307.936 350.94C307.836 350.826 307.609 351.318 307.659 350.801C307.659 350.297 307.369 350.423 307.193 350.398L307.117 351.066C306.714 350.07 305.856 351.343 305.68 350.461C305.554 350.612 305.415 350.6 305.289 350.763V350.41C305.028 350.281 304.731 350.241 304.444 350.297L304.532 350.045C304.318 350.045 304.192 351.053 303.99 351.066V350.524C303.612 350.524 303.259 350.02 302.856 350.524C302.856 350.436 302.856 350.284 302.944 350.272C302.767 350.272 302.288 349.856 302.301 350.6C302.301 350.12 301.91 350.524 301.683 350.713V350.36C301.481 350.801 301.456 350.915 301.204 351.028C301.189 350.997 301.18 350.962 301.18 350.927C301.18 350.892 301.189 350.858 301.204 350.826C301.078 350.763 301.053 351.129 300.864 350.953L300.965 350.738C300.775 350.738 300.775 350.814 300.649 351.066C300.523 351.318 300.284 350.953 300.284 350.625C300.284 350.814 300.107 351.066 299.994 350.965C299.921 350.925 299.862 350.862 299.828 350.786C299.793 350.711 299.783 350.626 299.8 350.544C299.817 350.462 299.859 350.388 299.921 350.332C299.984 350.276 300.062 350.242 300.145 350.234C299.83 349.969 299.616 350.6 299.426 350.234C299.438 350.167 299.438 350.099 299.426 350.032C299.691 350.032 299.893 350.095 299.868 350.12C299.868 349.793 299.691 349.717 299.868 349.288C299.679 349.515 299.338 350.02 299.149 349.856C299.142 349.818 299.142 349.78 299.149 349.742C299.149 349.742 299.061 349.742 299.023 349.742C298.985 349.742 298.922 349.641 298.859 349.641C298.859 349.364 298.632 349.477 298.531 349.452C298.531 349.805 298.367 349.73 298.531 350.032C298.531 350.032 298.531 350.032 298.619 350.032H298.884C298.783 350.209 298.683 350.347 298.582 350.146L298.393 350.7C298.292 350.196 298.04 349.906 298.027 349.604C297.687 349.767 297.258 349.667 296.993 350.31C296.905 350.385 296.917 350.108 296.892 349.994C296.867 349.881 297.006 349.994 297.044 349.856C296.842 350.02 296.501 349.856 296.413 350.335C296.199 350.108 296.577 349.919 296.262 349.969V349.83C295.72 349.036 295.14 350.915 294.547 349.894C294.565 349.951 294.565 350.012 294.547 350.07C293.803 349.578 292.896 350.297 292.19 349.553C291.988 349.402 291.938 349.692 291.774 349.906V349.515L291.509 349.931C291.143 350.209 291.042 348.935 290.563 349.503V349.755C290.425 349.692 290.084 349.856 290.135 349.566C290.135 349.566 290.059 349.83 290.021 349.679V349.49L289.618 349.78C289.353 349.604 289.756 348.998 289.353 348.91C289.189 348.973 288.849 349.44 288.899 349.578C288.95 349.717 289.038 349.717 289.013 349.919L288.861 350.007C288.924 350.574 288.798 351.154 289.05 351.608ZM299.376 351.835C299.376 351.911 299.439 351.986 299.502 352.1H299.313C299.3 351.949 299.326 351.822 299.376 351.835ZM298.746 349.704C298.743 349.65 298.743 349.595 298.746 349.541C298.821 349.541 298.846 349.541 298.846 349.641L298.746 349.704ZM299.061 352.062H298.947H299.061Z" fill="white"/>
<path d="M325.512 112.81L327.946 157.163L383.721 154.1V154.352C383.583 155.329 383.512 156.315 383.507 157.302H383.431C383.91 157.453 383.885 158.462 384.036 159.18C383.759 159.18 383.633 159.042 383.481 158.663V159.344C383.68 159.564 383.799 159.843 383.822 160.138L383.469 160C383.724 160.975 383.851 161.98 383.847 162.988C384.175 162.988 384.679 161.992 384.982 163.215C384.805 163.215 384.515 163.341 384.427 163.026C384.513 163.206 384.548 163.407 384.528 163.606L384.2 163.139C384.112 163.681 384.465 163.404 384.477 163.832C384.225 163.832 384.313 164.16 384.112 164.11C383.91 164.059 384.187 163.732 384.112 163.568C384.118 164.005 384.018 164.438 383.822 164.828C383.961 164.828 384.15 164.828 384.213 165.156C384.288 166.064 383.935 165.484 383.834 166.026C384.024 166.228 383.834 166.833 384.263 166.82C384.263 167.085 384.112 167.148 384.011 167.249C384.213 167.716 384.213 169.455 384.566 168.888V168.775V168.85C384.764 169.624 384.836 170.424 384.78 171.22C384.78 171.624 384.78 172.027 384.78 172.418C384.741 172.715 384.741 173.016 384.78 173.313H384.654C384.72 173.562 384.771 173.815 384.805 174.07C384.397 174.111 383.999 174.226 383.633 174.41C383.418 174.41 383.04 174.221 383.141 174.057C382.572 174.261 381.959 174.313 381.363 174.208C382.044 173.944 381.099 174.032 382.069 173.994C381.37 173.833 380.639 173.895 379.976 174.171C380.292 173.83 379.271 173.818 378.842 173.931L379.497 174.12C379.051 174.182 378.599 174.207 378.148 174.196L378.363 173.767C376.472 173.376 375.06 174.851 373.585 174.095C373.118 174.423 374.618 174.234 374.202 174.599C373.499 174.488 372.807 174.315 372.135 174.082C370.95 173.918 371.088 174.763 369.853 174.688C370.017 174.826 370.193 175.204 369.285 175.406C368.428 175.406 368.189 174.851 368.718 174.7C368.932 174.7 369.033 174.7 369.021 174.7C369.298 174.624 369.651 174.536 369.311 174.398L369.21 174.561C368.769 174.435 367.596 174.561 367.848 174.259C367.218 174.448 367.596 174.524 368.075 174.574C366.966 174.423 366.36 174.675 365.226 174.574C365.402 174.65 365.579 174.814 365.402 174.826C363.738 174.751 364.696 175.154 363.574 175.293C362.919 175.104 363.763 174.738 362.654 175.003C361.948 174.889 362.477 174.612 362.742 174.473C361.907 174.64 361.045 174.614 360.221 174.398L360.75 174.246C360.47 174.319 360.182 174.357 359.893 174.36L360.221 174.65C359.905 174.65 359.628 174.65 359.628 174.511C359.313 174.725 359.918 174.99 359.275 175.293C358.846 175.167 358.014 175.545 357.825 175.154C359.174 175.154 357.649 174.763 358.771 174.624C358.509 174.678 358.239 174.678 357.977 174.624C357.977 174.624 357.976 174.536 358.103 174.511C356.842 174.246 357.535 175.003 356.211 175.078C356.363 174.839 355.884 174.675 355.669 174.738C356.199 174.738 355.947 175.091 355.468 175.293C354.61 175.179 354.547 175.482 354.106 175.494H354.623C354.459 175.721 354.03 175.721 353.45 175.835C353.45 175.658 353.98 175.671 353.766 175.608C353.135 176.049 352.253 175.305 351.345 175.608C350.916 175.482 351.282 175.192 350.904 175.104C349.895 175.469 349.769 174.877 348.71 175.179C349.038 175.469 349.088 175.381 348.344 175.734L350.109 175.406L349 175.91C349.53 175.91 350.109 175.646 350.437 175.684C349.908 175.961 349.958 175.885 350.236 176.112C349.466 175.709 348.798 176.478 347.928 176.226V175.482C346.668 175.23 345.697 176.011 344.033 175.923L344.562 176.024C344.36 176.339 343.554 176.125 343.024 176.289C343.024 176.037 342.709 175.961 342.482 175.822C342.482 176.011 341.221 175.822 341.146 176.39L340.49 176.251C339.141 176.251 339.015 177.058 337.716 177.058C338.095 176.768 337.489 176.629 338.347 176.377C337.905 176.377 337.527 176.377 337.527 176.553C337.262 176.415 336.355 176.969 335.951 176.755C335.775 176.881 335.737 177.146 335.258 177.159C335.243 177.141 335.236 177.118 335.236 177.096C335.236 177.073 335.243 177.05 335.258 177.032C335.258 177.159 334.514 177.247 334.955 177.499C333.581 176.806 331.274 177.789 330.076 177.196C329.143 177.348 328.021 177.499 327.176 177.575C327.176 177.499 327.176 177.449 327.328 177.461C326.143 177.31 326.66 178.23 325.311 178.054C324.605 177.701 326.004 177.789 325.563 177.663C325.323 176.856 323.962 177.877 323.041 177.461L323.256 177.398C322.55 177.171 321.591 177.814 320.469 177.839C320.469 177.839 320.469 177.764 320.469 177.713C319.439 178.178 318.341 178.476 317.217 178.596C317.532 178.255 317.696 178.394 317.469 178.079C316.99 178.155 317.645 178.596 316.687 178.747C316.359 178.596 315.653 178.482 315.54 178.142L316.447 178.066C315.956 177.65 315.275 178.167 314.796 178.066V177.865C313.409 178.016 313.422 178.52 311.921 178.571L312.085 178.709C311.304 179.264 311.379 178.482 310.585 178.898L310.308 178.419C309.382 178.727 308.439 178.98 307.484 179.176C308.225 178.784 309.007 178.475 309.816 178.255C309.101 178.251 308.394 178.393 307.736 178.671C307.951 178.566 308.19 178.518 308.429 178.533C307.669 178.999 306.799 179.256 305.908 179.277C306.034 178.293 303.109 179.214 302.289 178.52C300.423 178.999 298.507 178.608 296.339 178.81C297.158 179.504 295.696 178.873 295.885 179.63C295.38 179.718 295.179 179.718 295.128 179.63H295.242H295.116L293.527 179.277C293.149 179.075 294.006 179.075 293.943 178.898C292.821 178.898 293.451 178.608 292.682 178.445C292.859 178.709 292.317 178.873 291.674 178.81L292.594 179.1C291.056 179.617 291.207 178.545 289.644 179.1L290.136 178.823C289.329 179.024 287.135 179.024 286.353 179.693C286.202 179.604 286 179.415 286.353 179.327C284.399 179.327 282.08 180.273 280.541 179.995L280.68 179.794C280.327 179.869 280.075 180.184 279.608 180.033C279.608 179.945 279.747 179.831 279.608 179.831C279.163 180.043 278.676 180.15 278.184 180.147L278.587 179.907C276.684 179.781 275.713 180.613 274.137 180.84C274.137 180.285 272.611 180.21 271.855 180.159V180.084C269.918 180.286 268 180.64 266.118 181.143C264.858 180.613 261.819 181.143 259.815 180.966C260.13 181.042 259.815 181.395 259.437 181.47C259.058 181.546 258.176 181.949 258.176 181.47H258.34C257.949 180.991 256.978 181.193 256.209 181.231L256.121 181.899C254.066 181.067 250.901 182.592 249.754 181.798C249.275 182 248.682 182.038 248.216 182.239V181.874C246.99 181.85 245.764 181.913 244.547 182.063L244.862 181.786C243.929 181.786 243.753 182.895 242.896 182.971L242.606 182.454C240.979 182.567 239.29 182.214 237.714 182.794C237.731 182.72 237.772 182.653 237.832 182.605C237.891 182.557 237.965 182.53 238.042 182.529C237.273 182.529 235.054 182.353 235.369 183.071C235.369 182.592 233.692 183.135 232.847 183.399L232.961 183.034C232.481 183.49 231.866 183.777 231.208 183.853C230.956 183.853 230.969 183.588 231.309 183.651C230.477 183.525 230.691 184.03 229.683 183.904L230.036 183.651C229.806 183.623 229.572 183.647 229.354 183.724C229.135 183.801 228.937 183.927 228.775 184.093C228.246 184.269 227.161 184.093 227.023 183.803C226.903 183.961 226.742 184.085 226.558 184.16C226.374 184.236 226.173 184.26 225.976 184.231C225.901 184.118 226.077 184.03 226.165 183.992C224.741 183.841 224.085 184.534 223.114 184.244C223.109 184.171 223.082 184.101 223.039 184.042L224.3 183.979H224.816C224.816 183.651 223.883 183.651 224.577 183.16C224.224 183.311 223.745 183.538 223.24 183.714V183.815H223.165L223.014 183.891C222.97 183.91 222.923 183.919 222.875 183.919C222.827 183.919 222.78 183.91 222.736 183.891C222.727 183.854 222.727 183.815 222.736 183.778C222.736 183.778 222.61 183.778 222.509 183.778C222.524 183.707 222.524 183.634 222.509 183.563C222.774 183.311 222.648 183.235 222.648 183.109C222.295 183.235 222.333 182.643 222.055 183.109C222.055 183.109 222.055 183.109 222.131 183.298C222.125 183.31 222.122 183.323 222.122 183.336C222.122 183.349 222.125 183.362 222.131 183.374C222.131 183.513 222.131 183.689 222.131 183.891C221.954 183.891 221.791 183.702 221.967 183.349C221.74 183.292 221.536 183.164 221.387 182.983C221.854 182.353 222.068 181.143 222.371 180.966C222.118 179.592 222.106 177.726 221.412 176.881C221.312 176.503 221.576 176.427 221.677 176.276C221.753 176.503 221.753 176.768 221.854 176.894C221.652 176.112 221.702 174.574 221.223 174.372C221.4 173.376 221.677 174.914 221.538 173.565L221.69 173.742C222.333 171.044 220.328 169.443 221.16 166.455C221.16 166.657 221.16 166.757 221.022 166.808C221.059 166.115 221.059 165.421 221.022 164.728L273.67 161.954L271.237 117.601L165.246 123.438L167.679 167.791L219.067 164.904C219.067 165.345 218.677 165.043 218.5 165.358C218.651 166.077 219.105 166.619 219.105 167.148C219.03 167.148 219.004 167.3 218.903 167.148C219.307 167.905 219.017 169.418 219.521 170.275C219.501 170.33 219.461 170.375 219.408 170.401C219.591 170.272 219.815 170.214 220.038 170.237C220.038 170.666 220.366 171.031 220.038 171.208C220.038 170.943 219.912 170.918 219.811 170.804L219.963 171.246C219.547 171.674 219.786 170.641 219.471 170.653C219.742 171.469 219.903 172.317 219.95 173.175C219.534 173.339 219.748 171.599 219.395 172.519L219.521 171.46C218.878 172.292 219.521 170.83 218.853 171.586C218.777 172.973 219.13 173.124 219.067 174.511C219.307 174.814 219.408 174.398 219.66 174.688C220.164 176.629 218.651 176.276 219.269 177.688C219.572 178.054 220.126 178.18 219.874 179.214L219.383 178.886C219.383 180.222 220.101 179.617 219.836 181.029C219.635 180.79 219.635 179.983 219.584 180.197C219.244 181.117 219.887 180.827 219.912 181.521L219.496 181.685C219.66 183.147 219.862 184.748 220.051 186.387L221.69 186.198C221.513 186.337 220.971 186.501 221.526 186.602C222.804 186.42 224.093 186.327 225.384 186.324C226.443 186.324 227.489 186.324 228.46 186.45L229.166 186.034C229.33 186.034 229.494 186.186 229.305 186.261C230.061 186.362 229.305 186.034 229.683 185.858C230.061 185.681 230.25 186.034 229.998 186.16C231.644 185.606 233.387 185.4 235.117 185.555L234.852 185.681C235.949 185.757 236.024 184.837 237.046 185.126L236.857 185.202C239.214 185.202 241.786 184.698 243.614 185.202C243.917 184.647 245.947 185.29 246.047 184.534C246.985 184.849 247.96 185.039 248.947 185.101C249.451 185.101 249.666 184.584 250.284 184.471V184.849L251.103 184.395L251.582 184.824L252.162 184.685C251.922 184.685 251.658 184.547 251.683 184.433C252.457 184.244 253.275 184.361 253.965 184.761L256.096 184.282C256.096 184.446 255.705 184.521 255.427 184.635C256.549 184.168 255.654 185.038 256.688 184.635C256.549 184.547 256.688 184.395 256.776 184.32C257.638 184.489 258.524 184.489 259.386 184.32L259.235 184.597C260.849 184.597 262.601 184.244 264.404 184.131C263.748 184.055 263.874 183.576 264.404 183.5L264.643 183.904C264.971 183.626 264.076 183.778 264.757 183.424C265.438 183.424 265.236 183.866 264.87 184.017L265.677 183.828C265.677 183.941 265.539 184.017 265.501 184.181C265.816 183.904 266.938 184.496 267.392 184.03V184.143C269.195 184.03 270.002 183.841 271.464 183.714C271.464 183.361 272.044 183.399 272.46 183.084C273.653 183.216 274.854 183.263 276.053 183.223C276.948 182.983 276.293 182.895 276.696 182.668C276.772 182.983 278.07 182.87 277.415 183.147C278.737 183.032 280.051 182.834 281.348 182.555C281.121 182.441 280.882 182.403 280.995 182.277C281.348 182.202 281.815 182.365 281.777 182.517H281.689C283.857 181.886 286.845 183.122 288.56 182.328H288.459L290.262 181.861C291.106 181.861 289.77 182.139 290.4 182.302C292.342 181.634 293.515 182.176 295.116 181.71C296.376 182.58 299.553 181.357 301.293 181.849L301.18 181.634C301.596 181.382 301.722 181.722 302.037 181.76C302.037 181.584 301.558 181.584 301.823 181.445L302.92 181.319H303.058C302.953 181.319 302.849 181.345 302.756 181.395L303.323 181.496C303.096 181.496 302.869 181.496 302.743 181.559C303.008 181.559 303.247 181.47 303.424 181.559C303.172 181.647 302.945 181.647 303.184 181.71C303.081 181.733 302.973 181.733 302.869 181.71C303.046 181.773 302.957 181.899 303.273 181.912C302.945 182 303.374 182.139 302.819 182.164C302.945 182.164 303.26 182.265 303.285 182.328C302.617 182.252 303.285 182.567 302.541 182.58C303.147 182.58 302.831 182.87 303.172 183.008C303.172 183.008 303.033 183.008 303.058 183.008C303.084 183.008 302.831 183.135 302.731 183.198C303.044 183.205 303.354 183.261 303.651 183.361C303.184 183.5 303.071 183.361 302.605 183.361C303.008 183.361 303.021 183.513 303.348 183.462C303.177 183.54 302.994 183.587 302.806 183.601C303.424 183.601 302.92 183.677 303.298 183.714C303.008 183.853 302.718 183.79 302.92 183.904C302.785 183.952 302.638 183.952 302.504 183.904C302.504 184.03 302.97 183.904 303.235 183.904C303.5 183.904 302.894 184.004 302.668 184.067C302.794 184.156 303.222 184.206 303.21 184.282C303.143 184.289 303.075 184.289 303.008 184.282C303.386 184.357 303.008 184.584 303.525 184.673H303.411C303.638 184.673 303.878 184.673 304.042 184.61C304.206 184.547 304.344 184.71 304.042 184.748C304.042 184.748 303.928 184.748 303.827 184.748H303.966C303.525 184.824 303.802 184.673 303.487 184.685C303.638 184.799 304.004 184.912 303.89 185.013C303.462 185.013 303.727 184.811 303.361 185.013L303.512 184.862C302.844 185.013 303.512 184.773 302.844 184.862C302.731 185.063 303.071 185.063 302.957 185.253C303.197 185.253 303.311 185.253 303.55 185.253C303.991 185.492 302.491 185.53 303.071 185.694C303.361 185.694 303.903 185.694 303.626 185.87H303.134C303.134 186.059 303.84 185.933 303.525 186.148C303.336 186.148 303.348 186.009 303.298 186.047C302.92 186.186 303.575 186.047 303.588 186.211H303.159C303.235 186.4 303.563 186.602 303.651 186.803C303.522 186.778 303.389 186.778 303.26 186.803C303.487 187.055 303.26 187.383 303.008 187.661L303.374 187.736C303.374 187.736 303.21 187.736 303.147 187.736C303.084 187.736 303.374 187.736 303.525 187.736C303.676 187.736 303.323 187.825 303.21 187.799C303.525 187.951 303.916 188.253 303.525 188.467H303.411C303.273 188.619 304.18 188.581 303.853 188.745H303.777C303.638 189.073 304.004 189.4 303.462 189.678C303.991 189.678 303.235 190.006 303.979 189.98C303.626 190.195 303.487 190.144 303.26 190.422C303.26 190.422 303.727 190.422 303.815 190.573H303.424L303.84 190.661L303.386 190.749L303.487 190.825C303.487 190.825 303.651 190.749 303.764 190.737C303.878 190.724 303.512 191.065 303.323 191.077L303.663 191.342C303.555 191.345 303.447 191.323 303.348 191.279C303.752 191.405 302.945 191.279 303.348 191.443C303.453 191.43 303.559 191.43 303.663 191.443C303.437 191.531 303.437 191.695 303.55 191.808H303.273C303.273 192.035 303.437 192.262 303.449 192.502C303.653 192.428 303.876 192.428 304.08 192.502L303.676 192.565C303.928 192.565 303.815 192.477 304.143 192.565C304.143 192.653 303.676 192.653 303.537 192.565L303.689 192.666C303.563 192.666 303.5 192.666 303.336 192.666C303.601 192.666 302.945 192.88 303.336 192.918H303.222C303.222 193.157 303.374 193.258 303.411 193.46C303.764 193.46 303.689 193.46 303.979 193.561C303.878 193.712 303.613 193.889 303.651 194.065C303.689 194.242 303.954 194.065 304.168 194.128C303.84 194.128 303.891 194.33 303.651 194.254C303.7 194.464 303.826 194.649 304.004 194.771C304.1 194.731 304.202 194.706 304.306 194.696C304.306 194.696 304.18 194.822 304.017 194.822C304.508 195.099 303.121 195.578 303.802 195.767L304.168 195.994C304.168 196.12 303.928 195.994 303.727 195.994C304.281 196.221 303.727 196.41 304.054 196.612C303.109 196.839 304.155 197.217 303.563 197.482H303.79C304.017 197.482 303.664 197.557 303.613 197.608C303.79 197.608 303.815 197.532 303.941 197.608C304.243 198.087 303.676 198.667 303.512 199.184C303.512 199.386 304.672 199.184 304.155 199.499H303.727C304.256 199.852 303.727 200.281 304.206 200.621C304.117 200.621 303.991 200.621 303.991 200.621C303.689 200.722 303.991 200.911 304.243 200.898C304.243 200.898 304.016 200.898 303.89 200.898C303.764 200.898 304.294 201.075 303.991 201.138C303.951 201.152 303.906 201.152 303.865 201.138C304.017 201.138 303.865 201.378 304.193 201.302C304.029 201.453 304.37 201.567 304.193 201.693C304.584 201.693 304.017 201.932 304.571 201.92C304.004 201.92 304.13 202.197 304.395 202.273C304.231 202.273 304.231 202.361 303.991 202.273C303.991 202.374 304.117 202.462 304.407 202.424C303.739 202.651 304.975 202.764 304.105 202.928C304.382 203.153 304.62 203.421 304.811 203.723C304.243 203.723 304.735 203.433 304.143 203.483C304.382 203.723 304.886 203.836 304.76 204.101C304.685 204.176 304.521 204.101 304.42 204.101C304.672 204.34 304.42 204.592 304.723 204.807H304.559C304.559 204.807 304.483 204.92 304.748 204.895H304.672C305.038 204.794 305.466 205.021 305.668 205.021C304.924 205.021 305.492 205.248 304.546 205.185C304.661 205.219 304.784 205.219 304.899 205.185C304.899 205.185 304.748 205.261 304.546 205.185C304.697 205.336 304.975 205.261 304.975 205.412H304.647C304.899 205.412 305.151 205.525 305.05 205.651C304.95 205.778 304.874 205.651 304.874 205.651C304.874 205.853 305.542 205.967 305.328 206.219C304.786 206.219 305.151 206.307 304.685 206.345L304.836 206.458L305.063 206.395C305.063 206.509 305.403 206.584 305.252 206.685L305.063 206.61L305.164 206.811L305.328 206.685C305.58 206.786 305.92 206.685 305.807 206.786C305.693 206.887 305.807 206.9 305.529 206.975C305.681 206.975 305.845 207.063 305.731 207.152C305.618 207.24 305.214 207.152 305.113 207.152C305.504 207.152 305.239 207.391 305.656 207.442C305.526 207.429 305.395 207.429 305.265 207.442H305.58C305.492 207.505 305.441 207.517 305.239 207.517C305.038 207.517 305.832 207.429 305.592 207.631C305.592 207.631 305.517 207.631 305.466 207.631C305.34 207.82 305.693 207.971 305.542 208.148C305.076 208.223 305.416 208.009 305.025 208.148C305.088 208.312 305.353 208.476 305.479 208.639L254.583 211.552L257.028 255.905L363.095 250.068L360.662 205.689L307.294 208.627C307.294 208.627 307.181 208.627 307.03 208.627H306.841C306.752 208.627 306.677 208.551 306.841 208.425C307.068 208.501 307.03 208.425 307.005 208.513C307.105 208.375 307.307 208.337 307.005 208.223C307.332 208.223 307.408 208.11 307.307 208.059L307.08 208.16C307.08 208.097 307.08 208.034 307.08 207.971H307.496C308.001 207.681 306.601 207.568 307.496 207.328C307.194 207.328 307.295 207.467 306.954 207.429C306.954 207.316 307.597 207.152 307.597 207.127C307.811 206.95 306.979 207.013 307.118 206.837C306.891 206.901 306.651 206.901 306.425 206.837C306.425 206.71 307.042 206.647 307.168 206.723C307.294 206.799 307.168 206.723 307.08 206.723C307.124 206.749 307.174 206.762 307.225 206.762C307.276 206.762 307.326 206.749 307.37 206.723H307.219C307.37 206.647 307.345 206.496 307.584 206.509C307.54 206.473 307.484 206.453 307.427 206.453C307.37 206.453 307.314 206.473 307.269 206.509C307.471 206.345 307.269 206.282 307.395 206.118C307.32 206.118 307.143 206.181 307.143 206.118C307.307 205.878 306.853 206.03 306.778 205.891C307.005 205.79 307.32 205.891 307.118 205.74C307.285 205.677 307.468 205.677 307.635 205.74C307.345 205.614 307.811 205.462 307.862 205.387L307.988 205.45C307.912 205.45 307.912 205.374 307.912 205.336H307.61C307.61 205.336 307.61 205.248 307.786 205.248C307.53 205.266 307.273 205.266 307.017 205.248C307.168 205.185 306.841 205.084 307.244 205.046C307.118 205.235 307.635 205.046 307.711 205.147C307.786 205.248 307.711 205.147 307.711 205.034C308.064 204.845 307.257 205.034 307.257 204.807C307.484 204.807 307.685 204.731 307.635 204.706C307.584 204.681 307.257 204.769 307.08 204.706C307.257 204.58 306.954 204.58 306.967 204.517L306.891 204.592C306.664 204.592 306.689 204.529 306.614 204.454C306.79 204.454 306.74 204.517 306.815 204.454C306.412 204.391 307.206 204.227 306.929 204.126C307.08 204.05 307.357 204.126 307.446 204.038C307.156 203.912 307.748 203.861 307.446 203.735C307.365 203.772 307.277 203.792 307.187 203.792C307.098 203.792 307.01 203.772 306.929 203.735L307.156 203.962L306.702 203.836C306.702 203.912 306.904 203.975 306.853 204.025C306.787 203.997 306.717 203.983 306.645 203.983C306.574 203.983 306.503 203.997 306.437 204.025C306.878 203.899 306.16 203.836 306.437 203.71H307.181C307.496 203.521 306.778 203.433 306.954 203.193L306.828 203.281C306.525 203.281 306.828 203.143 306.651 203.08C306.819 203.067 306.984 203.033 307.143 202.979C306.954 202.979 307.143 202.815 306.651 202.815L306.967 202.701C307.093 202.512 306.248 202.537 306.324 202.361C306.588 202.361 306.765 202.298 306.967 202.361C306.967 202.361 306.967 202.247 306.828 202.247C306.992 202.247 306.488 202.109 306.727 202.046C306.614 202.046 306.349 202.046 306.362 201.97H306.488C306.362 201.97 306.311 201.882 306.046 201.97C306.803 201.743 305.958 201.478 306.614 201.277C306.525 201.163 306.457 201.035 306.412 200.898C306.488 200.898 306.525 200.898 306.5 200.898C306.727 200.722 305.782 200.898 306.034 200.646C306.286 200.394 306.261 200.735 306.399 200.646C307.219 200.571 306.273 200.445 306.752 200.281C307.017 200.167 306.425 200.066 306.475 199.915H306.601C306.322 199.879 306.068 199.734 305.895 199.512C306.223 199.512 306.072 199.575 306.399 199.512C306.399 199.449 305.87 199.512 305.769 199.436C305.983 199.345 306.207 199.282 306.437 199.247V199.36C306.891 199.272 306.437 199.209 306.437 199.133H306.639C306.563 198.944 306.072 198.982 306.084 198.768H305.945C305.441 198.68 306.21 198.654 305.845 198.566L306.336 198.503C306.119 198.415 305.915 198.296 305.731 198.15C306.013 198.201 306.285 198.295 306.538 198.427C306.529 198.354 306.493 198.286 306.437 198.237C306.381 198.189 306.31 198.162 306.235 198.163C306.235 198.163 306.412 198.163 306.336 198.251C305.933 198.188 305.731 198.074 305.731 197.936C306.702 197.936 305.958 197.545 306.689 197.394C306.324 197.154 306.815 196.877 306.689 196.574C305.945 196.725 306.689 196.486 305.895 196.574C305.895 196.511 305.895 196.486 305.895 196.473L306.336 196.234C306.551 196.158 306.513 196.234 306.677 196.234C306.841 196.234 307.004 196.145 307.206 196.032C306.929 196.032 306.803 196.032 306.904 195.906L306.551 196.057C306.135 195.868 307.194 195.83 306.765 195.641H307.017C306.866 195.54 307.017 195.238 306.374 195.175C306.462 195.175 306.664 195.099 306.727 195.175C306.803 194.91 306.034 194.633 306.399 194.406H306.588C306.588 194.406 306.235 194.406 306.412 194.28C306.588 194.153 306.601 194.28 306.614 194.28C306.626 194.28 306.273 194.179 306.387 194.103H306.601C306.828 193.838 306.059 193.75 305.908 193.536C306.462 193.536 306.639 193.296 306.715 193.183H306.803C306.803 192.88 306.311 192.704 306.072 192.451C306.664 192.237 306.286 191.846 306.601 191.556C306.44 191.601 306.27 191.601 306.109 191.556C306.223 191.481 305.719 191.405 306.223 191.38C306.715 191.292 306.576 191.165 306.576 191.065H305.92C306.866 190.737 305.517 190.371 306.374 190.169C306.198 190.169 306.198 190.043 306.034 189.98H306.387C306.43 189.903 306.452 189.817 306.452 189.728C306.452 189.64 306.43 189.553 306.387 189.476H306.651C306.651 189.35 305.618 189.388 305.58 189.274L306.109 189.199C306.109 188.984 306.538 188.732 306.046 188.543C306.122 188.543 306.286 188.543 306.298 188.543C306.311 188.543 306.639 188.127 305.908 188.203C306.387 188.203 305.908 187.976 305.731 187.875H306.072C305.618 187.875 305.504 187.875 305.366 187.673C305.43 187.648 305.502 187.648 305.567 187.673C305.567 187.585 305.239 187.61 305.403 187.484H305.63C305.63 187.371 305.529 187.383 305.265 187.333C305 187.282 305.34 187.118 305.656 187.081C305.454 187.081 305.202 187.081 305.277 186.955C305.356 186.939 305.438 186.939 305.517 186.955C305.744 186.753 305.088 186.702 305.429 186.539C305.495 186.551 305.564 186.551 305.63 186.539C305.63 186.69 305.63 186.803 305.63 186.803C305.958 186.803 306.009 186.652 306.462 186.728C306.21 186.639 305.668 186.501 305.819 186.375H305.92C305.92 186.375 305.92 186.375 305.92 186.299C305.92 186.223 306.009 186.299 306.009 186.198C306.273 186.198 306.147 186.047 306.147 185.984C305.794 185.984 305.857 185.984 305.567 185.984C305.57 186.034 305.57 186.085 305.567 186.135C305.378 186.135 305.227 186.047 305.416 185.971H304.836C305.328 185.858 305.592 185.681 305.895 185.643C305.681 185.467 305.731 185.202 305.063 185.139C304.975 185.139 305.239 185.063 305.353 185.038C305.466 185.013 305.353 185.038 305.504 185.114C305.328 185.013 305.416 184.799 304.949 184.799C305.151 184.66 305.391 184.799 305.303 184.673H305.441C306.16 184.269 304.18 184.168 305.151 183.702C305.1 183.73 305.045 183.752 304.987 183.765C305.378 183.273 304.533 182.845 305.176 182.353C305.302 182.214 305 182.214 304.773 182.151H305.151L304.697 182.05C304.37 181.874 305.618 181.659 304.987 181.458H304.735C304.735 181.369 304.571 181.193 304.861 181.193C304.861 181.193 304.596 181.193 304.723 181.13H305.189L304.836 180.941C304.937 180.815 305.29 180.853 305.492 180.802C308.101 180.802 310.762 180.878 313.346 180.802C314.745 180.802 314.065 179.541 315.868 180.008L315.401 180.462C318.175 179.781 321.137 180.096 323.848 179.504C323.697 179.604 323.697 179.731 323.432 179.743C324.025 180.008 325.575 179.617 325.563 179.377C326.004 179.377 325.676 179.592 325.954 179.693C326.546 179.831 327.391 179.214 327.719 179.491C327.719 179.491 327.555 179.604 327.454 179.63C327.819 179.466 329.219 179.554 328.841 179.239C329.874 179.327 330.795 178.949 331.627 179.1C332.144 178.671 333.405 179.176 333.543 178.608C333.543 179.188 335.384 178.949 336.065 178.608C335.85 178.798 336.645 178.747 336.405 178.999C337.149 178.999 337.817 178.798 337.666 178.508C339.078 179.1 340.389 177.789 341.209 178.608C343.402 178.155 345.432 177.814 347.411 177.549C347.411 178.129 345.218 177.751 345.344 178.344C346.905 177.862 348.517 177.562 350.147 177.449C350.626 177.449 349.883 177.713 349.719 177.814C351.597 177.461 353.362 177.625 355.026 177.209C355.026 177.209 354.85 177.335 354.673 177.386C355.001 177.386 355.455 177.386 355.392 177.171L355.077 177.259C354.522 176.919 356.338 176.39 356.338 176.188C355.821 176.957 358.002 176.263 357.17 177.259C357.384 177.196 357.649 177.058 357.586 176.881C357.913 176.881 358.027 177.007 357.712 177.222C358.884 177.007 358.443 176.755 359.515 176.692C359.515 176.818 359.313 176.881 359.212 177.032C359.799 176.664 360.487 176.487 361.179 176.528C361.179 176.604 361.179 176.692 360.964 176.717C362.515 176.579 363.574 175.885 365.289 176.011C364.822 176.591 365.881 176.15 366.007 176.616L366.915 176.415L366.537 176.213C367.253 176.041 367.983 175.936 368.718 175.898L368.138 176.125L369.638 175.936L368.781 175.81C369.575 175.52 368.655 175.23 369.727 175.293C369.512 175.293 370.534 175.293 370.987 175.494C371.409 175.258 371.893 175.157 372.374 175.204C372.538 175.343 372.286 175.734 372.374 175.835C372.74 175.406 374.24 175.595 374.719 175.141C374.658 175.187 374.615 175.251 374.597 175.325C374.578 175.399 374.586 175.476 374.618 175.545L374.934 175.204C375.312 175.293 375.362 175.33 375.312 175.532C376.434 175.532 374.921 174.965 376.27 175.129C376.169 175.129 376.27 175.204 376.005 175.267C377.342 175.267 378.527 174.902 379.788 174.977C380.191 175.431 378.728 175.167 379.17 175.532C380.052 175.431 380.96 175.23 381.855 175.053C382.309 174.965 382.75 174.889 383.204 174.826H383.532H383.973C384.25 174.826 384.541 174.826 384.83 174.826H384.389C384.389 174.347 385.171 174.662 386.192 174.738C386.24 174.395 386.21 174.046 386.104 173.717C386.18 174.019 386.52 174.334 386.444 174.196C386.444 173.792 386.444 173.351 386.369 172.935C386.293 172.519 386.255 171.977 386.192 171.674L385.726 169.392L385.915 169.594C386.016 168.888 385.915 167.766 385.915 167.073C385.726 166.858 385.725 166.43 385.499 166.707C386.318 164.337 384.666 162.357 385.347 160.265C385.347 160.504 385.536 160.832 385.524 160.643L385.246 158.916C384.957 159.067 385.083 159.155 384.881 159.533C384.649 159.203 384.514 158.814 384.49 158.411C384.742 159.18 384.957 158.411 385.095 158.033C385.02 158.033 384.906 158.033 384.818 158.033C385.272 157.087 384.225 157.92 384.49 156.659H384.641C384.468 156.218 384.358 155.756 384.314 155.285C384.629 155.058 384.503 155.764 384.78 155.776C384.717 155.083 384.049 154.44 384.339 153.772C384.452 154.074 384.49 154.503 384.603 154.793C384.803 154.441 384.895 154.037 384.868 153.633L434.037 150.922L431.592 106.569L325.512 112.81ZM221.765 186.211H221.072L221.765 186.135V186.211ZM222.446 183.45H222.623C222.623 183.45 222.623 183.563 222.534 183.626V183.488L222.446 183.45ZM223.329 186.072C223.253 185.959 223.329 185.833 223.518 185.82C223.417 185.908 223.871 185.959 224.161 186.034L223.329 186.072ZM303.865 186.967V186.904V186.967ZM303.865 187.219C303.871 187.182 303.871 187.143 303.865 187.106C303.979 187.106 304.105 187.106 304.105 187.106C304.105 187.106 303.991 187.169 303.928 187.219H303.865ZM306.286 186.513C306.286 186.513 306.286 186.576 306.198 186.589V186.513H306.336H306.286Z" fill="white"/>
</g>
<defs>
<clipPath id="clip0">
<rect width="594" height="376" rx="24" fill="white"/>
</clipPath>
</defs>
</svg>
