<svg width="20" height="20" fill="none" xmlns="http://www.w3.org/2000/svg"><path fill-rule="evenodd" clip-rule="evenodd" d="M5.67-.001h8.67c3.39 0 5.66 2.38 5.66 5.92v8.171c0 3.53-2.27 5.909-5.66 5.909H5.67C2.28 19.999 0 17.62 0 14.09V5.919c0-3.54 2.28-5.92 5.67-5.92zm7.34 13a.868.868 0 000-1.229l-1.78-1.78 1.78-1.781a.88.88 0 000-1.239.88.88 0 00-1.24 0L10 8.749 8.22 6.97a.88.88 0 00-1.24 0 .88.88 0 000 1.239L8.76 9.99l-1.78 1.77a.88.88 0 00.62 1.5c.23 0 .45-.091.62-.261L10 11.23l1.78 1.769c.17.181.39.261.61.261.23 0 .45-.091.62-.261z" fill="#EB5757"/></svg>