<svg width="362" height="362" fill="none" xmlns="http://www.w3.org/2000/svg"><g clip-path="url(#clip0)"><g clip-path="url(#clip1)"><path d="M363.449 362.934V-1.47H-.955v364.404H363.45z" fill="#FF4E00"/><path d="M181.247-1.47c.655 99.974-79.865 181.548-179.839 182.202-.787.01-1.575.01-2.363 0V-1.47h182.202zm.001 364.404c0-100.628 81.573-182.202 182.202-182.202v182.202H181.248z" fill="#fff"/><path d="M363.449 180.732c-102.488 0-182.202-79.713-182.202-182.202h182.202v182.202zm-364.404 0c99.974-.654 181.548 79.866 182.202 179.84.01.787.01 1.575 0 2.362H-.955V180.732z" fill="#fff"/></g></g><defs><clipPath id="clip0"><path fill="#fff" d="M0 0h362v362H0z"/></clipPath><clipPath id="clip1"><path fill="#fff" transform="rotate(90 182.46 180.99)" d="M0 0h364.404v364.404H0z"/></clipPath></defs></svg>