<svg width="145" height="195" viewBox="0 0 145 195" fill="none" xmlns="http://www.w3.org/2000/svg">
<path d="M2.62868 166.208C4.05696 167.073 5.50558 167.915 6.98114 168.736C8.45848 169.55 9.96195 170.294 11.4937 171.038C15.9834 173.213 20.6474 175.108 25.405 176.971C26.1021 177.229 26.8152 177.825 27.4694 177.766C28.5117 177.662 29.7864 177.379 30.4127 176.71C30.8105 176.284 30.9063 174.047 30.0335 174.154C28.9643 174.279 27.3707 173.951 25.5801 173.379C23.7966 172.78 21.8117 171.901 19.9434 171.01C16.1931 169.147 12.8906 167.148 12.13 166.81L12.1421 166.288C13.5069 167.072 14.9362 167.774 16.511 168.331C17.7403 168.774 19.0499 169.182 20.4864 169.46C21.9163 169.737 23.4654 169.939 25.1656 170.054C33.5459 170.498 41.992 170.483 50.439 169.725C58.8725 168.884 67.3575 167.348 75.4698 164.158C79.519 162.576 83.4589 160.581 87.1296 158.081C90.7889 155.571 94.1315 152.522 96.9696 149.026C98.3524 147.254 99.6731 145.423 100.775 143.455C101.366 142.493 101.837 141.477 102.361 140.475C102.814 139.447 103.311 138.438 103.693 137.384C105.349 133.216 106.35 128.845 106.891 124.47C107.558 118.988 107.341 113.495 106.597 108.145C105.848 102.787 104.542 97.5705 102.881 92.4927C101.889 89.4174 100.55 85.703 97.3577 85.8338C97.5522 91.1713 99.1277 96.2261 100.597 101.6C101.672 105.556 102.568 109.599 103.062 113.711C103.55 117.822 103.617 122.018 102.981 126.14C102.429 129.738 101.467 133.275 100.122 136.654C98.7566 140.027 96.9328 143.206 94.7315 146.099C90.3417 151.918 84.2939 156.3 77.7479 159.363C74.4575 160.893 71.0346 162.097 67.5507 163.079C64.068 164.083 60.5058 164.774 56.9292 165.334C49.7619 166.4 42.5045 166.797 35.2623 166.687C33.1572 166.626 31.07 166.393 28.9923 165.993C27.9565 165.808 26.9207 165.622 25.8801 165.428C24.846 165.237 23.8072 165.036 22.7625 164.884C20.9067 164.635 19.0424 164.391 17.1733 164.138C18.6425 163.659 20.1063 163.2 21.5372 162.626C23.7259 161.765 25.8547 160.81 27.835 159.589C28.3086 159.304 28.6668 157.967 28.4176 157.467C28.1847 156.986 27.1197 156.857 26.4047 156.772C26.0114 156.73 25.544 157.045 25.1381 157.263C18.8434 160.606 11.9102 162.679 4.52803 162.588C4.17401 162.585 3.75511 162.586 3.47945 162.768C2.81063 163.199 1.8756 163.643 1.67887 164.272C1.50565 164.786 2.07245 165.874 2.62868 166.208Z" fill="#231F20"/>
<mask id="path-2-outside-1" maskUnits="userSpaceOnUse" x="44" y="0" width="101" height="75" fill="black">
<rect fill="white" x="44" width="101" height="75"/>
<path d="M64.4732 16.7408C64.6987 16.6957 64.8825 16.7347 65.0248 16.8578C65.167 16.9808 65.2563 17.132 65.2926 17.3112C65.3266 17.4792 65.302 17.6473 65.2187 17.8154C65.1355 17.9836 64.9811 18.0902 64.7556 18.1352L56.8921 19.7073C57.8712 21.8191 58.8288 23.941 59.765 26.073C60.7102 28.1915 61.7309 30.2775 62.8272 32.3309C62.9402 32.5414 62.9551 32.7307 62.8718 32.8989C62.7886 33.067 62.667 33.1904 62.5069 33.269C62.3469 33.3476 62.1755 33.3702 61.9928 33.3368C61.8101 33.3034 61.6633 33.1871 61.5526 32.9878C60.9875 31.9353 60.4439 30.8728 59.9216 29.8001C59.4084 28.714 58.9064 27.6256 58.4157 26.535C57.9251 25.4444 57.4344 24.3537 56.9437 23.2631C56.453 22.1725 55.9567 21.083 55.4547 19.9946L45.8325 21.9182C45.607 21.9633 45.4231 21.9243 45.2809 21.8012C45.1387 21.6782 45.0506 21.5326 45.0165 21.3646C44.9802 21.1854 45.0037 21.0117 45.087 20.8436C45.1702 20.6754 45.3246 20.5688 45.55 20.5237L54.8341 18.6677C54.7097 18.4013 54.5865 18.1404 54.4644 17.8851C54.34 17.6186 54.2101 17.3532 54.0744 17.089C53.9749 16.8874 53.9612 16.7037 54.0332 16.5378C54.1142 16.3585 54.2347 16.2295 54.3947 16.1509C54.5547 16.0723 54.7261 16.0497 54.9088 16.0831C55.1028 16.1142 55.2495 16.2306 55.349 16.4321C55.5095 16.7613 55.6644 17.0916 55.8137 17.423C55.9719 17.741 56.1301 18.059 56.2884 18.377L64.4732 16.7408Z"/>
<path d="M99.5802 10.4567C100.016 11.3367 100.437 12.2258 100.842 13.1238C101.247 14.0218 101.646 14.921 102.039 15.8213C102.444 16.7193 102.854 17.6162 103.27 18.512C103.684 19.3966 104.125 20.2699 104.593 21.132C104.704 21.3313 104.717 21.515 104.634 21.6832C104.562 21.8491 104.446 21.9713 104.286 22.0499C104.126 22.1285 103.949 22.1523 103.755 22.1211C103.572 22.0877 103.426 21.9714 103.315 21.7721C102.847 20.91 102.406 20.0366 101.992 19.1521C101.576 18.2563 101.166 17.3594 100.761 16.4614C100.368 15.5611 99.9685 14.6619 99.5638 13.7639C99.159 12.8658 98.7385 11.9768 98.3022 11.0967C98.2027 10.8952 98.189 10.7115 98.2609 10.5456C98.3419 10.3662 98.4624 10.2373 98.6225 10.1586C98.7825 10.08 98.955 10.063 99.14 10.1076C99.334 10.1388 99.4807 10.2551 99.5802 10.4567ZM83.2205 19.3386C83.613 19.365 84.0765 19.3948 84.611 19.4277C85.1569 19.4585 85.6937 19.5318 86.2216 19.6477C86.7495 19.7636 87.2368 19.94 87.6837 20.177C88.1305 20.414 88.4613 20.7441 88.676 21.1674C88.9496 21.707 88.9829 22.219 88.7759 22.7032C88.578 23.174 88.2324 23.6102 87.7389 24.0118C87.2432 24.4023 86.6471 24.7604 85.9506 25.0861C85.2631 25.3983 84.5688 25.677 83.8677 25.922C83.1643 26.1559 82.506 26.3516 81.8927 26.5091C81.2795 26.6667 80.7992 26.786 80.452 26.8671C80.2491 26.9076 80.0788 26.8776 79.9411 26.7769C79.8034 26.6763 79.7074 26.5498 79.6531 26.3975C79.6101 26.2429 79.6133 26.0849 79.6627 25.9236C79.7211 25.7487 79.8349 25.6153 80.0039 25.5232C79.6151 24.7618 79.2375 23.9982 78.8713 23.2323C78.514 22.453 78.1624 21.6725 77.8164 20.891C77.609 20.9091 77.4015 20.9273 77.194 20.9455C76.9978 20.9614 76.8016 20.9773 76.6054 20.9932C76.3754 21.0159 76.1882 20.9601 76.0437 20.8258C75.8992 20.6915 75.8088 20.5348 75.7725 20.3556C75.7362 20.1764 75.7619 20.0139 75.8497 19.8682C75.9352 19.7112 76.093 19.6214 76.323 19.5987L77.2059 19.5271C76.9097 18.8754 76.6146 18.2293 76.3206 17.5889C76.0244 16.9372 75.7181 16.2933 75.4016 15.6574C75.3021 15.4558 75.2884 15.2721 75.3603 15.1062C75.4436 14.9381 75.5652 14.8147 75.7253 14.7361C75.8853 14.6575 76.0567 14.6349 76.2394 14.6683C76.4334 14.6994 76.5801 14.8157 76.6796 15.0173C77.039 15.7496 77.3872 16.4841 77.7241 17.2209C78.0588 17.9465 78.3889 18.6788 78.7145 19.4178C79.4768 19.3587 80.2323 19.3242 80.981 19.3143C81.7275 19.2933 82.474 19.3014 83.2205 19.3386ZM84.4879 24.0324C84.6615 23.9628 84.8869 23.8594 85.1642 23.7224C85.4527 23.5832 85.7389 23.4327 86.0229 23.2711C86.3181 23.1071 86.5818 22.9321 86.8139 22.7458C87.0572 22.5573 87.2194 22.3734 87.3004 22.1941C87.3791 22.0035 87.3496 21.8288 87.2118 21.6698C87.083 21.4975 86.7942 21.3454 86.3452 21.2138C85.224 20.8902 84.069 20.719 82.8805 20.7002C81.7009 20.668 80.5147 20.6895 79.3217 20.7649C79.6586 21.5016 79.9955 22.2384 80.3324 22.9752C80.6671 23.7008 81.0254 24.4275 81.4074 25.1552C82.4467 24.8426 83.4736 24.4683 84.4879 24.0324Z"/>
<path d="M118.449 21.561C117.78 18.2568 117.111 14.9526 116.442 11.6484C115.772 8.34426 114.997 5.06709 114.116 1.81693C114.059 1.59517 114.087 1.41476 114.2 1.27571C114.313 1.13666 114.453 1.05023 114.623 1.01642C114.803 0.980363 114.978 1.00369 115.147 1.08639C115.327 1.16685 115.452 1.31683 115.52 1.53633C116.011 3.32604 116.456 5.11917 116.855 6.91571C117.264 8.69879 117.657 10.4965 118.036 12.3087C118.45 12.0393 118.841 11.7398 119.209 11.41C119.576 11.0802 119.943 10.7503 120.31 10.4205C120.677 10.0907 121.054 9.77661 121.439 9.47816C121.822 9.1685 122.242 8.89801 122.7 8.66669C123.507 8.24899 124.321 7.86489 125.141 7.51439C125.971 7.15044 126.791 6.77081 127.602 6.37551C127.805 6.27669 127.991 6.26863 128.161 6.35134C128.341 6.43179 128.471 6.55151 128.55 6.71051C128.629 6.8695 128.646 7.04089 128.601 7.22468C128.568 7.40621 128.45 7.54639 128.247 7.64522C127.787 7.86533 127.319 8.07538 126.844 8.27535C126.368 8.47533 125.893 8.6809 125.42 8.89207C124.947 9.10324 124.476 9.32562 124.007 9.55919C123.547 9.77931 123.105 10.0308 122.682 10.3136C122.172 10.6368 121.706 10.9981 121.282 11.3975C120.856 11.7856 120.425 12.1748 119.988 12.5652C120.917 12.7524 121.821 13.0146 122.699 13.3519C123.574 13.678 124.443 14.0288 125.305 14.4042C126.167 14.7796 127.029 15.1551 127.891 15.5305C128.764 15.9037 129.661 16.2197 130.581 16.4785C130.805 16.5388 130.946 16.6562 131.005 16.8309C131.061 16.9944 131.06 17.1636 131.002 17.3384C130.952 17.4998 130.845 17.6377 130.681 17.7522C130.525 17.8532 130.336 17.8736 130.113 17.8134C129.106 17.5367 128.126 17.1849 127.172 16.7581C126.217 16.3312 125.265 15.9156 124.315 15.5111C123.363 15.0955 122.396 14.7235 121.414 14.3953C120.433 14.0671 119.412 13.8632 118.352 13.7838C118.606 15.0383 118.853 16.2883 119.094 17.5338C119.346 18.7771 119.593 20.0271 119.836 21.2838C119.881 21.5078 119.842 21.6905 119.718 21.8318C119.594 21.9731 119.442 22.0618 119.262 22.0978C119.093 22.1316 118.923 22.1072 118.754 22.0245C118.596 21.9395 118.495 21.785 118.449 21.561Z"/>
<path d="M79.8502 52.4859C80.0789 52.5104 80.2424 52.6026 80.3406 52.7626C80.4389 52.9225 80.4782 53.0933 80.4585 53.2751C80.44 53.4455 80.3655 53.5984 80.2352 53.7338C80.1048 53.8692 79.9253 53.9246 79.6966 53.9001L71.7218 53.0451C72.0148 55.3518 72.2844 57.6618 72.5305 59.975C72.7893 62.278 73.13 64.5726 73.5525 66.8588C73.5964 67.0933 73.5532 67.2783 73.4228 67.4137C73.2925 67.5491 73.139 67.6303 72.9626 67.6574C72.7862 67.6844 72.6159 67.6547 72.4518 67.5682C72.2877 67.4816 72.1831 67.3268 72.1379 67.1036C71.9183 65.9309 71.7222 64.755 71.5495 63.5758C71.3895 62.3865 71.241 61.1985 71.1039 60.0116C70.9667 58.8248 70.8296 57.638 70.6925 56.4511C70.5554 55.2643 70.4125 54.0769 70.264 52.8888L60.5056 51.8426C60.2769 51.8181 60.1134 51.7258 60.0151 51.5659C59.9168 51.406 59.8769 51.2408 59.8954 51.0704C59.9152 50.8887 59.9902 50.7301 60.1206 50.5947C60.251 50.4593 60.4305 50.4039 60.6592 50.4284L70.0746 51.4378C70.0369 51.1465 69.9985 50.8608 69.9595 50.5809C69.9217 50.2895 69.8783 49.9976 69.8291 49.705C69.7954 49.4831 69.838 49.3038 69.9569 49.1671C70.0885 49.0204 70.2425 48.9335 70.419 48.9064C70.5954 48.8794 70.7657 48.9091 70.9298 48.9956C71.1053 49.0834 71.2099 49.2383 71.2437 49.4602C71.2969 49.8222 71.3444 50.1835 71.3862 50.5442C71.4406 50.8948 71.4951 51.2454 71.5495 51.596L79.8502 52.4859Z"/>
<path d="M115.231 57.0032C115.381 57.973 115.512 58.9466 115.626 59.9241C115.739 60.9015 115.847 61.8784 115.949 62.8546C116.063 63.8321 116.182 64.8101 116.307 65.7888C116.433 66.7562 116.589 67.7209 116.773 68.683C116.819 68.9062 116.776 69.0854 116.646 69.2209C116.527 69.3575 116.379 69.4393 116.203 69.4664C116.026 69.4934 115.85 69.4631 115.675 69.3753C115.511 69.2888 115.406 69.1339 115.361 68.9107C115.176 67.9486 115.021 66.9839 114.894 66.0166C114.769 65.0379 114.65 64.0598 114.536 63.0824C114.434 62.1061 114.326 61.1293 114.213 60.1518C114.099 59.1744 113.968 58.2007 113.819 57.231C113.785 57.009 113.828 56.8297 113.947 56.6931C114.078 56.5463 114.232 56.4594 114.409 56.4323C114.585 56.4053 114.755 56.4407 114.918 56.5386C115.093 56.6264 115.198 56.7812 115.231 57.0032ZM96.9384 60.5751C97.3046 60.7178 97.7376 60.8848 98.2373 61.0763C98.7484 61.269 99.238 61.4996 99.7062 61.7682C100.174 62.0367 100.586 62.3508 100.94 62.7106C101.294 63.0703 101.509 63.4841 101.586 63.9519C101.683 64.5484 101.559 65.0466 101.215 65.4463C100.884 65.836 100.422 66.1484 99.8295 66.3837C99.2384 66.6076 98.5614 66.7706 97.7985 66.8727C97.0483 66.9646 96.3017 67.0225 95.5589 67.0463C94.8172 67.0587 94.1302 67.0482 93.4976 67.0149C92.8651 66.9815 92.371 66.9515 92.0153 66.9249C91.8095 66.9028 91.6562 66.8232 91.5555 66.686C91.4547 66.5488 91.4015 66.3994 91.3959 66.238C91.4018 66.0777 91.4527 65.928 91.5488 65.7889C91.6575 65.6397 91.8065 65.5465 91.9956 65.5093C91.8557 64.667 91.7273 63.8258 91.6104 62.9859C91.5061 62.1358 91.4075 61.2864 91.3146 60.4375C91.1113 60.3928 90.908 60.348 90.7046 60.3032C90.5127 60.2596 90.3208 60.2161 90.1289 60.1725C89.9027 60.1253 89.7411 60.016 89.644 59.8447C89.547 59.6735 89.5083 59.4969 89.5281 59.3152C89.5478 59.1334 89.6216 58.9862 89.7495 58.8735C89.8787 58.7495 90.0563 58.7111 90.2825 58.7583L91.1461 58.9543C91.0613 58.2442 90.9759 57.5398 90.8898 56.8411C90.805 56.1311 90.7082 55.4254 90.5993 54.7243C90.5655 54.5023 90.6081 54.323 90.7271 54.1864C90.8575 54.051 91.0109 53.9698 91.1873 53.9427C91.3637 53.9157 91.534 53.9454 91.6981 54.0319C91.8736 54.1197 91.9783 54.2746 92.012 54.4965C92.1327 55.3024 92.2419 56.107 92.3397 56.9104C92.4387 57.7024 92.5314 58.4995 92.6178 59.3017C93.3625 59.4735 94.0934 59.6668 94.8103 59.8815C95.5285 60.0849 96.2378 60.3161 96.9384 60.5751ZM96.7233 65.4302C96.91 65.4157 97.1563 65.3846 97.4622 65.337C97.7795 65.2906 98.0981 65.2328 98.4179 65.1637C98.7491 65.0958 99.0536 65.0077 99.3314 64.8996C99.6206 64.7927 99.831 64.6659 99.9626 64.5191C100.095 64.361 100.12 64.1855 100.037 63.9928C99.9667 63.7899 99.7373 63.5584 99.3492 63.2985C98.3782 62.6543 97.3288 62.1453 96.2012 61.7716C95.0862 61.3878 93.9486 61.0532 92.7882 60.7679C92.886 61.5713 92.9838 62.3747 93.0816 63.1781C93.1806 63.9701 93.3019 64.7703 93.4454 65.5786C94.5313 65.5916 95.6239 65.5421 96.7233 65.4302Z"/>
<path d="M129.856 73.24C130.22 69.889 130.584 66.5381 130.948 63.1871C131.312 59.8361 131.567 56.4792 131.712 53.1163C131.725 52.8879 131.807 52.7243 131.956 52.6254C132.106 52.5265 132.266 52.4863 132.438 52.5047C132.621 52.5243 132.78 52.5988 132.917 52.7284C133.064 52.8591 133.137 53.0393 133.135 53.2689C133.061 55.1226 132.942 56.9657 132.778 58.7982C132.626 60.6206 132.456 62.4525 132.268 64.2939C132.745 64.1612 133.208 63.9925 133.659 63.788C134.109 63.5835 134.559 63.3789 135.009 63.1744C135.459 62.9698 135.913 62.7829 136.371 62.6137C136.83 62.4331 137.313 62.301 137.82 62.2174C138.716 62.0606 139.608 61.938 140.497 61.8494C141.398 61.7507 142.296 61.6343 143.189 61.5003C143.413 61.4668 143.592 61.5148 143.729 61.6443C143.876 61.7751 143.964 61.9281 143.991 62.1034C144.018 62.2787 143.983 62.4472 143.884 62.609C143.797 62.7721 143.642 62.8703 143.418 62.9038C142.913 62.9761 142.404 63.0363 141.889 63.0846C141.375 63.1329 140.86 63.1869 140.345 63.2466C139.83 63.3062 139.313 63.3772 138.795 63.4596C138.29 63.5318 137.792 63.6394 137.303 63.7822C136.719 63.938 136.165 64.1429 135.64 64.3969C135.116 64.6395 134.586 64.8815 134.051 65.1229C134.881 65.5796 135.663 66.1001 136.397 66.6845C137.133 67.2575 137.855 67.852 138.563 68.468C139.271 69.084 139.979 69.7001 140.687 70.3161C141.407 70.9333 142.166 71.5031 142.965 72.0255C143.16 72.1497 143.259 72.304 143.262 72.4882C143.267 72.661 143.214 72.8221 143.106 72.9713C143.01 73.1104 142.866 73.2099 142.674 73.2698C142.495 73.3195 142.308 73.2823 142.114 73.158C141.238 72.593 140.41 71.9641 139.629 71.2713C138.849 70.5786 138.067 69.8972 137.284 69.2272C136.502 68.5458 135.693 67.9017 134.856 67.2949C134.02 66.6881 133.109 66.1882 132.122 65.7951C131.984 67.0674 131.84 68.3333 131.692 69.5929C131.555 70.8538 131.412 72.1198 131.262 73.3908C131.237 73.6179 131.145 73.7804 130.984 73.878C130.823 73.9757 130.651 74.0147 130.468 73.9951C130.296 73.9767 130.142 73.9027 130.006 73.7732C129.881 73.6449 129.831 73.4672 129.856 73.24Z"/>
</mask>
<path d="M64.4732 16.7408C64.6987 16.6957 64.8825 16.7347 65.0248 16.8578C65.167 16.9808 65.2563 17.132 65.2926 17.3112C65.3266 17.4792 65.302 17.6473 65.2187 17.8154C65.1355 17.9836 64.9811 18.0902 64.7556 18.1352L56.8921 19.7073C57.8712 21.8191 58.8288 23.941 59.765 26.073C60.7102 28.1915 61.7309 30.2775 62.8272 32.3309C62.9402 32.5414 62.9551 32.7307 62.8718 32.8989C62.7886 33.067 62.667 33.1904 62.5069 33.269C62.3469 33.3476 62.1755 33.3702 61.9928 33.3368C61.8101 33.3034 61.6633 33.1871 61.5526 32.9878C60.9875 31.9353 60.4439 30.8728 59.9216 29.8001C59.4084 28.714 58.9064 27.6256 58.4157 26.535C57.9251 25.4444 57.4344 24.3537 56.9437 23.2631C56.453 22.1725 55.9567 21.083 55.4547 19.9946L45.8325 21.9182C45.607 21.9633 45.4231 21.9243 45.2809 21.8012C45.1387 21.6782 45.0506 21.5326 45.0165 21.3646C44.9802 21.1854 45.0037 21.0117 45.087 20.8436C45.1702 20.6754 45.3246 20.5688 45.55 20.5237L54.8341 18.6677C54.7097 18.4013 54.5865 18.1404 54.4644 17.8851C54.34 17.6186 54.2101 17.3532 54.0744 17.089C53.9749 16.8874 53.9612 16.7037 54.0332 16.5378C54.1142 16.3585 54.2347 16.2295 54.3947 16.1509C54.5547 16.0723 54.7261 16.0497 54.9088 16.0831C55.1028 16.1142 55.2495 16.2306 55.349 16.4321C55.5095 16.7613 55.6644 17.0916 55.8137 17.423C55.9719 17.741 56.1301 18.059 56.2884 18.377L64.4732 16.7408Z" fill="black"/>
<path d="M99.5802 10.4567C100.016 11.3367 100.437 12.2258 100.842 13.1238C101.247 14.0218 101.646 14.921 102.039 15.8213C102.444 16.7193 102.854 17.6162 103.27 18.512C103.684 19.3966 104.125 20.2699 104.593 21.132C104.704 21.3313 104.717 21.515 104.634 21.6832C104.562 21.8491 104.446 21.9713 104.286 22.0499C104.126 22.1285 103.949 22.1523 103.755 22.1211C103.572 22.0877 103.426 21.9714 103.315 21.7721C102.847 20.91 102.406 20.0366 101.992 19.1521C101.576 18.2563 101.166 17.3594 100.761 16.4614C100.368 15.5611 99.9685 14.6619 99.5638 13.7639C99.159 12.8658 98.7385 11.9768 98.3022 11.0967C98.2027 10.8952 98.189 10.7115 98.2609 10.5456C98.3419 10.3662 98.4624 10.2373 98.6225 10.1586C98.7825 10.08 98.955 10.063 99.14 10.1076C99.334 10.1388 99.4807 10.2551 99.5802 10.4567ZM83.2205 19.3386C83.613 19.365 84.0765 19.3948 84.611 19.4277C85.1569 19.4585 85.6937 19.5318 86.2216 19.6477C86.7495 19.7636 87.2368 19.94 87.6837 20.177C88.1305 20.414 88.4613 20.7441 88.676 21.1674C88.9496 21.707 88.9829 22.219 88.7759 22.7032C88.578 23.174 88.2324 23.6102 87.7389 24.0118C87.2432 24.4023 86.6471 24.7604 85.9506 25.0861C85.2631 25.3983 84.5688 25.677 83.8677 25.922C83.1643 26.1559 82.506 26.3516 81.8927 26.5091C81.2795 26.6667 80.7992 26.786 80.452 26.8671C80.2491 26.9076 80.0788 26.8776 79.9411 26.7769C79.8034 26.6763 79.7074 26.5498 79.6531 26.3975C79.6101 26.2429 79.6133 26.0849 79.6627 25.9236C79.7211 25.7487 79.8349 25.6153 80.0039 25.5232C79.6151 24.7618 79.2375 23.9982 78.8713 23.2323C78.514 22.453 78.1624 21.6725 77.8164 20.891C77.609 20.9091 77.4015 20.9273 77.194 20.9455C76.9978 20.9614 76.8016 20.9773 76.6054 20.9932C76.3754 21.0159 76.1882 20.9601 76.0437 20.8258C75.8992 20.6915 75.8088 20.5348 75.7725 20.3556C75.7362 20.1764 75.7619 20.0139 75.8497 19.8682C75.9352 19.7112 76.093 19.6214 76.323 19.5987L77.2059 19.5271C76.9097 18.8754 76.6146 18.2293 76.3206 17.5889C76.0244 16.9372 75.7181 16.2933 75.4016 15.6574C75.3021 15.4558 75.2884 15.2721 75.3603 15.1062C75.4436 14.9381 75.5652 14.8147 75.7253 14.7361C75.8853 14.6575 76.0567 14.6349 76.2394 14.6683C76.4334 14.6994 76.5801 14.8157 76.6796 15.0173C77.039 15.7496 77.3872 16.4841 77.7241 17.2209C78.0588 17.9465 78.3889 18.6788 78.7145 19.4178C79.4768 19.3587 80.2323 19.3242 80.981 19.3143C81.7275 19.2933 82.474 19.3014 83.2205 19.3386ZM84.4879 24.0324C84.6615 23.9628 84.8869 23.8594 85.1642 23.7224C85.4527 23.5832 85.7389 23.4327 86.0229 23.2711C86.3181 23.1071 86.5818 22.9321 86.8139 22.7458C87.0572 22.5573 87.2194 22.3734 87.3004 22.1941C87.3791 22.0035 87.3496 21.8288 87.2118 21.6698C87.083 21.4975 86.7942 21.3454 86.3452 21.2138C85.224 20.8902 84.069 20.719 82.8805 20.7002C81.7009 20.668 80.5147 20.6895 79.3217 20.7649C79.6586 21.5016 79.9955 22.2384 80.3324 22.9752C80.6671 23.7008 81.0254 24.4275 81.4074 25.1552C82.4467 24.8426 83.4736 24.4683 84.4879 24.0324Z" fill="black"/>
<path d="M118.449 21.561C117.78 18.2568 117.111 14.9526 116.442 11.6484C115.772 8.34426 114.997 5.06709 114.116 1.81693C114.059 1.59517 114.087 1.41476 114.2 1.27571C114.313 1.13666 114.453 1.05023 114.623 1.01642C114.803 0.980363 114.978 1.00369 115.147 1.08639C115.327 1.16685 115.452 1.31683 115.52 1.53633C116.011 3.32604 116.456 5.11917 116.855 6.91571C117.264 8.69879 117.657 10.4965 118.036 12.3087C118.45 12.0393 118.841 11.7398 119.209 11.41C119.576 11.0802 119.943 10.7503 120.31 10.4205C120.677 10.0907 121.054 9.77661 121.439 9.47816C121.822 9.1685 122.242 8.89801 122.7 8.66669C123.507 8.24899 124.321 7.86489 125.141 7.51439C125.971 7.15044 126.791 6.77081 127.602 6.37551C127.805 6.27669 127.991 6.26863 128.161 6.35134C128.341 6.43179 128.471 6.55151 128.55 6.71051C128.629 6.8695 128.646 7.04089 128.601 7.22468C128.568 7.40621 128.45 7.54639 128.247 7.64522C127.787 7.86533 127.319 8.07538 126.844 8.27535C126.368 8.47533 125.893 8.6809 125.42 8.89207C124.947 9.10324 124.476 9.32562 124.007 9.55919C123.547 9.77931 123.105 10.0308 122.682 10.3136C122.172 10.6368 121.706 10.9981 121.282 11.3975C120.856 11.7856 120.425 12.1748 119.988 12.5652C120.917 12.7524 121.821 13.0146 122.699 13.3519C123.574 13.678 124.443 14.0288 125.305 14.4042C126.167 14.7796 127.029 15.1551 127.891 15.5305C128.764 15.9037 129.661 16.2197 130.581 16.4785C130.805 16.5388 130.946 16.6562 131.005 16.8309C131.061 16.9944 131.06 17.1636 131.002 17.3384C130.952 17.4998 130.845 17.6377 130.681 17.7522C130.525 17.8532 130.336 17.8736 130.113 17.8134C129.106 17.5367 128.126 17.1849 127.172 16.7581C126.217 16.3312 125.265 15.9156 124.315 15.5111C123.363 15.0955 122.396 14.7235 121.414 14.3953C120.433 14.0671 119.412 13.8632 118.352 13.7838C118.606 15.0383 118.853 16.2883 119.094 17.5338C119.346 18.7771 119.593 20.0271 119.836 21.2838C119.881 21.5078 119.842 21.6905 119.718 21.8318C119.594 21.9731 119.442 22.0618 119.262 22.0978C119.093 22.1316 118.923 22.1072 118.754 22.0245C118.596 21.9395 118.495 21.785 118.449 21.561Z" fill="black"/>
<path d="M79.8502 52.4859C80.0789 52.5104 80.2424 52.6026 80.3406 52.7626C80.4389 52.9225 80.4782 53.0933 80.4585 53.2751C80.44 53.4455 80.3655 53.5984 80.2352 53.7338C80.1048 53.8692 79.9253 53.9246 79.6966 53.9001L71.7218 53.0451C72.0148 55.3518 72.2844 57.6618 72.5305 59.975C72.7893 62.278 73.13 64.5726 73.5525 66.8588C73.5964 67.0933 73.5532 67.2783 73.4228 67.4137C73.2925 67.5491 73.139 67.6303 72.9626 67.6574C72.7862 67.6844 72.6159 67.6547 72.4518 67.5682C72.2877 67.4816 72.1831 67.3268 72.1379 67.1036C71.9183 65.9309 71.7222 64.755 71.5495 63.5758C71.3895 62.3865 71.241 61.1985 71.1039 60.0116C70.9667 58.8248 70.8296 57.638 70.6925 56.4511C70.5554 55.2643 70.4125 54.0769 70.264 52.8888L60.5056 51.8426C60.2769 51.8181 60.1134 51.7258 60.0151 51.5659C59.9168 51.406 59.8769 51.2408 59.8954 51.0704C59.9152 50.8887 59.9902 50.7301 60.1206 50.5947C60.251 50.4593 60.4305 50.4039 60.6592 50.4284L70.0746 51.4378C70.0369 51.1465 69.9985 50.8608 69.9595 50.5809C69.9217 50.2895 69.8783 49.9976 69.8291 49.705C69.7954 49.4831 69.838 49.3038 69.9569 49.1671C70.0885 49.0204 70.2425 48.9335 70.419 48.9064C70.5954 48.8794 70.7657 48.9091 70.9298 48.9956C71.1053 49.0834 71.2099 49.2383 71.2437 49.4602C71.2969 49.8222 71.3444 50.1835 71.3862 50.5442C71.4406 50.8948 71.4951 51.2454 71.5495 51.596L79.8502 52.4859Z" fill="black"/>
<path d="M115.231 57.0032C115.381 57.973 115.512 58.9466 115.626 59.9241C115.739 60.9015 115.847 61.8784 115.949 62.8546C116.063 63.8321 116.182 64.8101 116.307 65.7888C116.433 66.7562 116.589 67.7209 116.773 68.683C116.819 68.9062 116.776 69.0854 116.646 69.2209C116.527 69.3575 116.379 69.4393 116.203 69.4664C116.026 69.4934 115.85 69.4631 115.675 69.3753C115.511 69.2888 115.406 69.1339 115.361 68.9107C115.176 67.9486 115.021 66.9839 114.894 66.0166C114.769 65.0379 114.65 64.0598 114.536 63.0824C114.434 62.1061 114.326 61.1293 114.213 60.1518C114.099 59.1744 113.968 58.2007 113.819 57.231C113.785 57.009 113.828 56.8297 113.947 56.6931C114.078 56.5463 114.232 56.4594 114.409 56.4323C114.585 56.4053 114.755 56.4407 114.918 56.5386C115.093 56.6264 115.198 56.7812 115.231 57.0032ZM96.9384 60.5751C97.3046 60.7178 97.7376 60.8848 98.2373 61.0763C98.7484 61.269 99.238 61.4996 99.7062 61.7682C100.174 62.0367 100.586 62.3508 100.94 62.7106C101.294 63.0703 101.509 63.4841 101.586 63.9519C101.683 64.5484 101.559 65.0466 101.215 65.4463C100.884 65.836 100.422 66.1484 99.8295 66.3837C99.2384 66.6076 98.5614 66.7706 97.7985 66.8727C97.0483 66.9646 96.3017 67.0225 95.5589 67.0463C94.8172 67.0587 94.1302 67.0482 93.4976 67.0149C92.8651 66.9815 92.371 66.9515 92.0153 66.9249C91.8095 66.9028 91.6562 66.8232 91.5555 66.686C91.4547 66.5488 91.4015 66.3994 91.3959 66.238C91.4018 66.0777 91.4527 65.928 91.5488 65.7889C91.6575 65.6397 91.8065 65.5465 91.9956 65.5093C91.8557 64.667 91.7273 63.8258 91.6104 62.9859C91.5061 62.1358 91.4075 61.2864 91.3146 60.4375C91.1113 60.3928 90.908 60.348 90.7046 60.3032C90.5127 60.2596 90.3208 60.2161 90.1289 60.1725C89.9027 60.1253 89.7411 60.016 89.644 59.8447C89.547 59.6735 89.5083 59.4969 89.5281 59.3152C89.5478 59.1334 89.6216 58.9862 89.7495 58.8735C89.8787 58.7495 90.0563 58.7111 90.2825 58.7583L91.1461 58.9543C91.0613 58.2442 90.9759 57.5398 90.8898 56.8411C90.805 56.1311 90.7082 55.4254 90.5993 54.7243C90.5655 54.5023 90.6081 54.323 90.7271 54.1864C90.8575 54.051 91.0109 53.9698 91.1873 53.9427C91.3637 53.9157 91.534 53.9454 91.6981 54.0319C91.8736 54.1197 91.9783 54.2746 92.012 54.4965C92.1327 55.3024 92.2419 56.107 92.3397 56.9104C92.4387 57.7024 92.5314 58.4995 92.6178 59.3017C93.3625 59.4735 94.0934 59.6668 94.8103 59.8815C95.5285 60.0849 96.2378 60.3161 96.9384 60.5751ZM96.7233 65.4302C96.91 65.4157 97.1563 65.3846 97.4622 65.337C97.7795 65.2906 98.0981 65.2328 98.4179 65.1637C98.7491 65.0958 99.0536 65.0077 99.3314 64.8996C99.6206 64.7927 99.831 64.6659 99.9626 64.5191C100.095 64.361 100.12 64.1855 100.037 63.9928C99.9667 63.7899 99.7373 63.5584 99.3492 63.2985C98.3782 62.6543 97.3288 62.1453 96.2012 61.7716C95.0862 61.3878 93.9486 61.0532 92.7882 60.7679C92.886 61.5713 92.9838 62.3747 93.0816 63.1781C93.1806 63.9701 93.3019 64.7703 93.4454 65.5786C94.5313 65.5916 95.6239 65.5421 96.7233 65.4302Z" fill="black"/>
<path d="M129.856 73.24C130.22 69.889 130.584 66.5381 130.948 63.1871C131.312 59.8361 131.567 56.4792 131.712 53.1163C131.725 52.8879 131.807 52.7243 131.956 52.6254C132.106 52.5265 132.266 52.4863 132.438 52.5047C132.621 52.5243 132.78 52.5988 132.917 52.7284C133.064 52.8591 133.137 53.0393 133.135 53.2689C133.061 55.1226 132.942 56.9657 132.778 58.7982C132.626 60.6206 132.456 62.4525 132.268 64.2939C132.745 64.1612 133.208 63.9925 133.659 63.788C134.109 63.5835 134.559 63.3789 135.009 63.1744C135.459 62.9698 135.913 62.7829 136.371 62.6137C136.83 62.4331 137.313 62.301 137.82 62.2174C138.716 62.0606 139.608 61.938 140.497 61.8494C141.398 61.7507 142.296 61.6343 143.189 61.5003C143.413 61.4668 143.592 61.5148 143.729 61.6443C143.876 61.7751 143.964 61.9281 143.991 62.1034C144.018 62.2787 143.983 62.4472 143.884 62.609C143.797 62.7721 143.642 62.8703 143.418 62.9038C142.913 62.9761 142.404 63.0363 141.889 63.0846C141.375 63.1329 140.86 63.1869 140.345 63.2466C139.83 63.3062 139.313 63.3772 138.795 63.4596C138.29 63.5318 137.792 63.6394 137.303 63.7822C136.719 63.938 136.165 64.1429 135.64 64.3969C135.116 64.6395 134.586 64.8815 134.051 65.1229C134.881 65.5796 135.663 66.1001 136.397 66.6845C137.133 67.2575 137.855 67.852 138.563 68.468C139.271 69.084 139.979 69.7001 140.687 70.3161C141.407 70.9333 142.166 71.5031 142.965 72.0255C143.16 72.1497 143.259 72.304 143.262 72.4882C143.267 72.661 143.214 72.8221 143.106 72.9713C143.01 73.1104 142.866 73.2099 142.674 73.2698C142.495 73.3195 142.308 73.2823 142.114 73.158C141.238 72.593 140.41 71.9641 139.629 71.2713C138.849 70.5786 138.067 69.8972 137.284 69.2272C136.502 68.5458 135.693 67.9017 134.856 67.2949C134.02 66.6881 133.109 66.1882 132.122 65.7951C131.984 67.0674 131.84 68.3333 131.692 69.5929C131.555 70.8538 131.412 72.1198 131.262 73.3908C131.237 73.6179 131.145 73.7804 130.984 73.878C130.823 73.9757 130.651 74.0147 130.468 73.9951C130.296 73.9767 130.142 73.9027 130.006 73.7732C129.881 73.6449 129.831 73.4672 129.856 73.24Z" fill="black"/>
<path d="M64.4732 16.7408C64.6987 16.6957 64.8825 16.7347 65.0248 16.8578C65.167 16.9808 65.2563 17.132 65.2926 17.3112C65.3266 17.4792 65.302 17.6473 65.2187 17.8154C65.1355 17.9836 64.9811 18.0902 64.7556 18.1352L56.8921 19.7073C57.8712 21.8191 58.8288 23.941 59.765 26.073C60.7102 28.1915 61.7309 30.2775 62.8272 32.3309C62.9402 32.5414 62.9551 32.7307 62.8718 32.8989C62.7886 33.067 62.667 33.1904 62.5069 33.269C62.3469 33.3476 62.1755 33.3702 61.9928 33.3368C61.8101 33.3034 61.6633 33.1871 61.5526 32.9878C60.9875 31.9353 60.4439 30.8728 59.9216 29.8001C59.4084 28.714 58.9064 27.6256 58.4157 26.535C57.9251 25.4444 57.4344 24.3537 56.9437 23.2631C56.453 22.1725 55.9567 21.083 55.4547 19.9946L45.8325 21.9182C45.607 21.9633 45.4231 21.9243 45.2809 21.8012C45.1387 21.6782 45.0506 21.5326 45.0165 21.3646C44.9802 21.1854 45.0037 21.0117 45.087 20.8436C45.1702 20.6754 45.3246 20.5688 45.55 20.5237L54.8341 18.6677C54.7097 18.4013 54.5865 18.1404 54.4644 17.8851C54.34 17.6186 54.2101 17.3532 54.0744 17.089C53.9749 16.8874 53.9612 16.7037 54.0332 16.5378C54.1142 16.3585 54.2347 16.2295 54.3947 16.1509C54.5547 16.0723 54.7261 16.0497 54.9088 16.0831C55.1028 16.1142 55.2495 16.2306 55.349 16.4321C55.5095 16.7613 55.6644 17.0916 55.8137 17.423C55.9719 17.741 56.1301 18.059 56.2884 18.377L64.4732 16.7408Z" stroke="black" mask="url(#path-2-outside-1)"/>
<path d="M99.5802 10.4567C100.016 11.3367 100.437 12.2258 100.842 13.1238C101.247 14.0218 101.646 14.921 102.039 15.8213C102.444 16.7193 102.854 17.6162 103.27 18.512C103.684 19.3966 104.125 20.2699 104.593 21.132C104.704 21.3313 104.717 21.515 104.634 21.6832C104.562 21.8491 104.446 21.9713 104.286 22.0499C104.126 22.1285 103.949 22.1523 103.755 22.1211C103.572 22.0877 103.426 21.9714 103.315 21.7721C102.847 20.91 102.406 20.0366 101.992 19.1521C101.576 18.2563 101.166 17.3594 100.761 16.4614C100.368 15.5611 99.9685 14.6619 99.5638 13.7639C99.159 12.8658 98.7385 11.9768 98.3022 11.0967C98.2027 10.8952 98.189 10.7115 98.2609 10.5456C98.3419 10.3662 98.4624 10.2373 98.6225 10.1586C98.7825 10.08 98.955 10.063 99.14 10.1076C99.334 10.1388 99.4807 10.2551 99.5802 10.4567ZM83.2205 19.3386C83.613 19.365 84.0765 19.3948 84.611 19.4277C85.1569 19.4585 85.6937 19.5318 86.2216 19.6477C86.7495 19.7636 87.2368 19.94 87.6837 20.177C88.1305 20.414 88.4613 20.7441 88.676 21.1674C88.9496 21.707 88.9829 22.219 88.7759 22.7032C88.578 23.174 88.2324 23.6102 87.7389 24.0118C87.2432 24.4023 86.6471 24.7604 85.9506 25.0861C85.2631 25.3983 84.5688 25.677 83.8677 25.922C83.1643 26.1559 82.506 26.3516 81.8927 26.5091C81.2795 26.6667 80.7992 26.786 80.452 26.8671C80.2491 26.9076 80.0788 26.8776 79.9411 26.7769C79.8034 26.6763 79.7074 26.5498 79.6531 26.3975C79.6101 26.2429 79.6133 26.0849 79.6627 25.9236C79.7211 25.7487 79.8349 25.6153 80.0039 25.5232C79.6151 24.7618 79.2375 23.9982 78.8713 23.2323C78.514 22.453 78.1624 21.6725 77.8164 20.891C77.609 20.9091 77.4015 20.9273 77.194 20.9455C76.9978 20.9614 76.8016 20.9773 76.6054 20.9932C76.3754 21.0159 76.1882 20.9601 76.0437 20.8258C75.8992 20.6915 75.8088 20.5348 75.7725 20.3556C75.7362 20.1764 75.7619 20.0139 75.8497 19.8682C75.9352 19.7112 76.093 19.6214 76.323 19.5987L77.2059 19.5271C76.9097 18.8754 76.6146 18.2293 76.3206 17.5889C76.0244 16.9372 75.7181 16.2933 75.4016 15.6574C75.3021 15.4558 75.2884 15.2721 75.3603 15.1062C75.4436 14.9381 75.5652 14.8147 75.7253 14.7361C75.8853 14.6575 76.0567 14.6349 76.2394 14.6683C76.4334 14.6994 76.5801 14.8157 76.6796 15.0173C77.039 15.7496 77.3872 16.4841 77.7241 17.2209C78.0588 17.9465 78.3889 18.6788 78.7145 19.4178C79.4768 19.3587 80.2323 19.3242 80.981 19.3143C81.7275 19.2933 82.474 19.3014 83.2205 19.3386ZM84.4879 24.0324C84.6615 23.9628 84.8869 23.8594 85.1642 23.7224C85.4527 23.5832 85.7389 23.4327 86.0229 23.2711C86.3181 23.1071 86.5818 22.9321 86.8139 22.7458C87.0572 22.5573 87.2194 22.3734 87.3004 22.1941C87.3791 22.0035 87.3496 21.8288 87.2118 21.6698C87.083 21.4975 86.7942 21.3454 86.3452 21.2138C85.224 20.8902 84.069 20.719 82.8805 20.7002C81.7009 20.668 80.5147 20.6895 79.3217 20.7649C79.6586 21.5016 79.9955 22.2384 80.3324 22.9752C80.6671 23.7008 81.0254 24.4275 81.4074 25.1552C82.4467 24.8426 83.4736 24.4683 84.4879 24.0324Z" stroke="black" mask="url(#path-2-outside-1)"/>
<path d="M118.449 21.561C117.78 18.2568 117.111 14.9526 116.442 11.6484C115.772 8.34426 114.997 5.06709 114.116 1.81693C114.059 1.59517 114.087 1.41476 114.2 1.27571C114.313 1.13666 114.453 1.05023 114.623 1.01642C114.803 0.980363 114.978 1.00369 115.147 1.08639C115.327 1.16685 115.452 1.31683 115.52 1.53633C116.011 3.32604 116.456 5.11917 116.855 6.91571C117.264 8.69879 117.657 10.4965 118.036 12.3087C118.45 12.0393 118.841 11.7398 119.209 11.41C119.576 11.0802 119.943 10.7503 120.31 10.4205C120.677 10.0907 121.054 9.77661 121.439 9.47816C121.822 9.1685 122.242 8.89801 122.7 8.66669C123.507 8.24899 124.321 7.86489 125.141 7.51439C125.971 7.15044 126.791 6.77081 127.602 6.37551C127.805 6.27669 127.991 6.26863 128.161 6.35134C128.341 6.43179 128.471 6.55151 128.55 6.71051C128.629 6.8695 128.646 7.04089 128.601 7.22468C128.568 7.40621 128.45 7.54639 128.247 7.64522C127.787 7.86533 127.319 8.07538 126.844 8.27535C126.368 8.47533 125.893 8.6809 125.42 8.89207C124.947 9.10324 124.476 9.32562 124.007 9.55919C123.547 9.77931 123.105 10.0308 122.682 10.3136C122.172 10.6368 121.706 10.9981 121.282 11.3975C120.856 11.7856 120.425 12.1748 119.988 12.5652C120.917 12.7524 121.821 13.0146 122.699 13.3519C123.574 13.678 124.443 14.0288 125.305 14.4042C126.167 14.7796 127.029 15.1551 127.891 15.5305C128.764 15.9037 129.661 16.2197 130.581 16.4785C130.805 16.5388 130.946 16.6562 131.005 16.8309C131.061 16.9944 131.06 17.1636 131.002 17.3384C130.952 17.4998 130.845 17.6377 130.681 17.7522C130.525 17.8532 130.336 17.8736 130.113 17.8134C129.106 17.5367 128.126 17.1849 127.172 16.7581C126.217 16.3312 125.265 15.9156 124.315 15.5111C123.363 15.0955 122.396 14.7235 121.414 14.3953C120.433 14.0671 119.412 13.8632 118.352 13.7838C118.606 15.0383 118.853 16.2883 119.094 17.5338C119.346 18.7771 119.593 20.0271 119.836 21.2838C119.881 21.5078 119.842 21.6905 119.718 21.8318C119.594 21.9731 119.442 22.0618 119.262 22.0978C119.093 22.1316 118.923 22.1072 118.754 22.0245C118.596 21.9395 118.495 21.785 118.449 21.561Z" stroke="black" mask="url(#path-2-outside-1)"/>
<path d="M79.8502 52.4859C80.0789 52.5104 80.2424 52.6026 80.3406 52.7626C80.4389 52.9225 80.4782 53.0933 80.4585 53.2751C80.44 53.4455 80.3655 53.5984 80.2352 53.7338C80.1048 53.8692 79.9253 53.9246 79.6966 53.9001L71.7218 53.0451C72.0148 55.3518 72.2844 57.6618 72.5305 59.975C72.7893 62.278 73.13 64.5726 73.5525 66.8588C73.5964 67.0933 73.5532 67.2783 73.4228 67.4137C73.2925 67.5491 73.139 67.6303 72.9626 67.6574C72.7862 67.6844 72.6159 67.6547 72.4518 67.5682C72.2877 67.4816 72.1831 67.3268 72.1379 67.1036C71.9183 65.9309 71.7222 64.755 71.5495 63.5758C71.3895 62.3865 71.241 61.1985 71.1039 60.0116C70.9667 58.8248 70.8296 57.638 70.6925 56.4511C70.5554 55.2643 70.4125 54.0769 70.264 52.8888L60.5056 51.8426C60.2769 51.8181 60.1134 51.7258 60.0151 51.5659C59.9168 51.406 59.8769 51.2408 59.8954 51.0704C59.9152 50.8887 59.9902 50.7301 60.1206 50.5947C60.251 50.4593 60.4305 50.4039 60.6592 50.4284L70.0746 51.4378C70.0369 51.1465 69.9985 50.8608 69.9595 50.5809C69.9217 50.2895 69.8783 49.9976 69.8291 49.705C69.7954 49.4831 69.838 49.3038 69.9569 49.1671C70.0885 49.0204 70.2425 48.9335 70.419 48.9064C70.5954 48.8794 70.7657 48.9091 70.9298 48.9956C71.1053 49.0834 71.2099 49.2383 71.2437 49.4602C71.2969 49.8222 71.3444 50.1835 71.3862 50.5442C71.4406 50.8948 71.4951 51.2454 71.5495 51.596L79.8502 52.4859Z" stroke="black" mask="url(#path-2-outside-1)"/>
<path d="M115.231 57.0032C115.381 57.973 115.512 58.9466 115.626 59.9241C115.739 60.9015 115.847 61.8784 115.949 62.8546C116.063 63.8321 116.182 64.8101 116.307 65.7888C116.433 66.7562 116.589 67.7209 116.773 68.683C116.819 68.9062 116.776 69.0854 116.646 69.2209C116.527 69.3575 116.379 69.4393 116.203 69.4664C116.026 69.4934 115.85 69.4631 115.675 69.3753C115.511 69.2888 115.406 69.1339 115.361 68.9107C115.176 67.9486 115.021 66.9839 114.894 66.0166C114.769 65.0379 114.65 64.0598 114.536 63.0824C114.434 62.1061 114.326 61.1293 114.213 60.1518C114.099 59.1744 113.968 58.2007 113.819 57.231C113.785 57.009 113.828 56.8297 113.947 56.6931C114.078 56.5463 114.232 56.4594 114.409 56.4323C114.585 56.4053 114.755 56.4407 114.918 56.5386C115.093 56.6264 115.198 56.7812 115.231 57.0032ZM96.9384 60.5751C97.3046 60.7178 97.7376 60.8848 98.2373 61.0763C98.7484 61.269 99.238 61.4996 99.7062 61.7682C100.174 62.0367 100.586 62.3508 100.94 62.7106C101.294 63.0703 101.509 63.4841 101.586 63.9519C101.683 64.5484 101.559 65.0466 101.215 65.4463C100.884 65.836 100.422 66.1484 99.8295 66.3837C99.2384 66.6076 98.5614 66.7706 97.7985 66.8727C97.0483 66.9646 96.3017 67.0225 95.5589 67.0463C94.8172 67.0587 94.1302 67.0482 93.4976 67.0149C92.8651 66.9815 92.371 66.9515 92.0153 66.9249C91.8095 66.9028 91.6562 66.8232 91.5555 66.686C91.4547 66.5488 91.4015 66.3994 91.3959 66.238C91.4018 66.0777 91.4527 65.928 91.5488 65.7889C91.6575 65.6397 91.8065 65.5465 91.9956 65.5093C91.8557 64.667 91.7273 63.8258 91.6104 62.9859C91.5061 62.1358 91.4075 61.2864 91.3146 60.4375C91.1113 60.3928 90.908 60.348 90.7046 60.3032C90.5127 60.2596 90.3208 60.2161 90.1289 60.1725C89.9027 60.1253 89.7411 60.016 89.644 59.8447C89.547 59.6735 89.5083 59.4969 89.5281 59.3152C89.5478 59.1334 89.6216 58.9862 89.7495 58.8735C89.8787 58.7495 90.0563 58.7111 90.2825 58.7583L91.1461 58.9543C91.0613 58.2442 90.9759 57.5398 90.8898 56.8411C90.805 56.1311 90.7082 55.4254 90.5993 54.7243C90.5655 54.5023 90.6081 54.323 90.7271 54.1864C90.8575 54.051 91.0109 53.9698 91.1873 53.9427C91.3637 53.9157 91.534 53.9454 91.6981 54.0319C91.8736 54.1197 91.9783 54.2746 92.012 54.4965C92.1327 55.3024 92.2419 56.107 92.3397 56.9104C92.4387 57.7024 92.5314 58.4995 92.6178 59.3017C93.3625 59.4735 94.0934 59.6668 94.8103 59.8815C95.5285 60.0849 96.2378 60.3161 96.9384 60.5751ZM96.7233 65.4302C96.91 65.4157 97.1563 65.3846 97.4622 65.337C97.7795 65.2906 98.0981 65.2328 98.4179 65.1637C98.7491 65.0958 99.0536 65.0077 99.3314 64.8996C99.6206 64.7927 99.831 64.6659 99.9626 64.5191C100.095 64.361 100.12 64.1855 100.037 63.9928C99.9667 63.7899 99.7373 63.5584 99.3492 63.2985C98.3782 62.6543 97.3288 62.1453 96.2012 61.7716C95.0862 61.3878 93.9486 61.0532 92.7882 60.7679C92.886 61.5713 92.9838 62.3747 93.0816 63.1781C93.1806 63.9701 93.3019 64.7703 93.4454 65.5786C94.5313 65.5916 95.6239 65.5421 96.7233 65.4302Z" stroke="black" mask="url(#path-2-outside-1)"/>
<path d="M129.856 73.24C130.22 69.889 130.584 66.5381 130.948 63.1871C131.312 59.8361 131.567 56.4792 131.712 53.1163C131.725 52.8879 131.807 52.7243 131.956 52.6254C132.106 52.5265 132.266 52.4863 132.438 52.5047C132.621 52.5243 132.78 52.5988 132.917 52.7284C133.064 52.8591 133.137 53.0393 133.135 53.2689C133.061 55.1226 132.942 56.9657 132.778 58.7982C132.626 60.6206 132.456 62.4525 132.268 64.2939C132.745 64.1612 133.208 63.9925 133.659 63.788C134.109 63.5835 134.559 63.3789 135.009 63.1744C135.459 62.9698 135.913 62.7829 136.371 62.6137C136.83 62.4331 137.313 62.301 137.82 62.2174C138.716 62.0606 139.608 61.938 140.497 61.8494C141.398 61.7507 142.296 61.6343 143.189 61.5003C143.413 61.4668 143.592 61.5148 143.729 61.6443C143.876 61.7751 143.964 61.9281 143.991 62.1034C144.018 62.2787 143.983 62.4472 143.884 62.609C143.797 62.7721 143.642 62.8703 143.418 62.9038C142.913 62.9761 142.404 63.0363 141.889 63.0846C141.375 63.1329 140.86 63.1869 140.345 63.2466C139.83 63.3062 139.313 63.3772 138.795 63.4596C138.29 63.5318 137.792 63.6394 137.303 63.7822C136.719 63.938 136.165 64.1429 135.64 64.3969C135.116 64.6395 134.586 64.8815 134.051 65.1229C134.881 65.5796 135.663 66.1001 136.397 66.6845C137.133 67.2575 137.855 67.852 138.563 68.468C139.271 69.084 139.979 69.7001 140.687 70.3161C141.407 70.9333 142.166 71.5031 142.965 72.0255C143.16 72.1497 143.259 72.304 143.262 72.4882C143.267 72.661 143.214 72.8221 143.106 72.9713C143.01 73.1104 142.866 73.2099 142.674 73.2698C142.495 73.3195 142.308 73.2823 142.114 73.158C141.238 72.593 140.41 71.9641 139.629 71.2713C138.849 70.5786 138.067 69.8972 137.284 69.2272C136.502 68.5458 135.693 67.9017 134.856 67.2949C134.02 66.6881 133.109 66.1882 132.122 65.7951C131.984 67.0674 131.84 68.3333 131.692 69.5929C131.555 70.8538 131.412 72.1198 131.262 73.3908C131.237 73.6179 131.145 73.7804 130.984 73.878C130.823 73.9757 130.651 74.0147 130.468 73.9951C130.296 73.9767 130.142 73.9027 130.006 73.7732C129.881 73.6449 129.831 73.4672 129.856 73.24Z" stroke="black" mask="url(#path-2-outside-1)"/>
</svg>
