<svg width="145" height="195" fill="none" xmlns="http://www.w3.org/2000/svg"><path d="M2.629 166.208a136.96 136.96 0 004.352 2.528c1.477.814 2.981 1.558 4.513 2.302 4.49 2.175 9.153 4.07 13.911 5.933.697.258 1.41.854 2.064.795 1.043-.104 2.317-.387 2.944-1.056.398-.426.493-2.663-.38-2.556-1.069.125-2.662-.203-4.453-.775-1.783-.599-3.768-1.478-5.637-2.369-3.75-1.863-7.052-3.862-7.813-4.2l.012-.522c1.365.784 2.794 1.486 4.369 2.043 1.23.443 2.539.851 3.975 1.129 1.43.277 2.98.479 4.68.594 8.38.444 16.826.429 25.273-.329 8.434-.841 16.919-2.377 25.03-5.567 4.05-1.582 7.99-3.577 11.66-6.077a46.748 46.748 0 009.84-9.055c1.383-1.772 2.704-3.603 3.806-5.571.591-.962 1.062-1.978 1.586-2.98.453-1.028.95-2.037 1.332-3.091 1.656-4.168 2.657-8.539 3.198-12.914.667-5.482.45-10.975-.294-16.325-.749-5.358-2.055-10.575-3.716-15.652-.992-3.076-2.331-6.79-5.523-6.66.194 5.338 1.77 10.393 3.239 15.767 1.075 3.956 1.971 7.999 2.465 12.111.488 4.111.555 8.307-.081 12.429a48.257 48.257 0 01-2.859 10.514 41.079 41.079 0 01-5.39 9.445c-4.39 5.819-10.438 10.201-16.984 13.264-3.29 1.53-6.713 2.734-10.197 3.716-3.483 1.004-7.045 1.695-10.622 2.255-7.167 1.066-14.425 1.463-21.667 1.353a39.083 39.083 0 01-6.27-.694 416.988 416.988 0 01-3.112-.565c-1.034-.191-2.073-.392-3.117-.544-1.856-.249-3.72-.493-5.59-.746 1.47-.479 2.933-.938 4.364-1.512 2.189-.861 4.318-1.816 6.298-3.037.474-.285.832-1.622.583-2.122-.233-.481-1.298-.61-2.013-.695-.394-.042-.861.273-1.267.491-6.295 3.343-13.228 5.416-20.61 5.325-.354-.003-.773-.002-1.049.18-.668.431-1.603.875-1.8 1.504-.173.514.393 1.602.95 1.936z" fill="#231F20"/><mask id="a" maskUnits="userSpaceOnUse" x="44" y="0" width="101" height="75" fill="#000"><path fill="#fff" d="M44 0h101v75H44z"/><path d="M64.473 16.74c.226-.044.41-.005.552.118a.794.794 0 01.268.453.767.767 0 01-.074.504c-.084.169-.238.275-.463.32l-7.864 1.572c.98 2.112 1.937 4.234 2.873 6.366a98.485 98.485 0 003.062 6.258c.113.21.128.4.045.568a.788.788 0 01-.365.37.807.807 0 01-.514.068c-.183-.034-.33-.15-.44-.35a90.36 90.36 0 01-1.631-3.187 193.116 193.116 0 01-1.506-3.265l-1.472-3.272a384.1 384.1 0 00-1.49-3.268l-9.621 1.923c-.226.045-.41.006-.552-.117a.771.771 0 01-.264-.436.79.79 0 01.07-.521c.083-.169.238-.275.463-.32l9.284-1.856a93.813 93.813 0 00-.37-.783 23.476 23.476 0 00-.39-.796c-.1-.202-.113-.385-.04-.551a.762.762 0 01.36-.387.807.807 0 01.515-.068c.194.031.34.148.44.35.16.328.315.659.465.99l.474.954 8.185-1.636zm35.107-6.283c.436.88.857 1.769 1.262 2.667.405.898.804 1.797 1.197 2.697a269.4 269.4 0 001.231 2.691c.414.885.855 1.758 1.323 2.62.111.2.124.383.041.551a.71.71 0 01-.348.367.865.865 0 01-.531.071c-.183-.033-.329-.15-.44-.349a49.266 49.266 0 01-1.323-2.62c-.416-.896-.826-1.793-1.231-2.69-.393-.9-.792-1.8-1.197-2.698a80.231 80.231 0 00-1.262-2.667c-.1-.202-.113-.386-.041-.551a.744.744 0 01.88-.438c.193.03.34.147.44.349zm-16.36 8.882c.393.026.856.056 1.391.089.546.03 1.083.104 1.61.22a5.723 5.723 0 011.463.529c.447.237.777.567.992.99.274.54.307 1.052.1 1.536-.198.471-.544.907-1.037 1.309a9.134 9.134 0 01-1.788 1.074c-.688.312-1.382.591-2.083.836-.704.234-1.362.43-1.975.587-.614.158-1.094.277-1.441.358-.203.04-.373.01-.51-.09a.792.792 0 01-.289-.38.829.829 0 01.01-.473.695.695 0 01.34-.4 97.83 97.83 0 01-1.132-2.292c-.357-.779-.709-1.56-1.055-2.341l-.622.055-.589.047c-.23.023-.417-.033-.561-.167a.867.867 0 01-.272-.47.659.659 0 01.078-.488c.085-.157.243-.247.473-.27l.883-.07c-.296-.653-.591-1.299-.885-1.94a60.718 60.718 0 00-.92-1.93c-.099-.202-.113-.386-.04-.552a.788.788 0 01.364-.37.807.807 0 01.514-.068c.194.031.341.148.44.35.36.732.708 1.466 1.045 2.203.335.726.665 1.458.99 2.197.763-.06 1.518-.094 2.267-.104a28.74 28.74 0 012.24.025zm1.268 4.693c.174-.07.399-.173.676-.31.289-.139.575-.29.859-.45.295-.165.559-.34.79-.526.244-.189.406-.373.487-.552a.472.472 0 00-.088-.524c-.129-.173-.418-.325-.867-.456a13.191 13.191 0 00-3.465-.514 39.363 39.363 0 00-3.558.065l1.01 2.21c.335.726.693 1.452 1.075 2.18a28.827 28.827 0 003.08-1.123zm33.961-2.471l-2.007-9.913a156.28 156.28 0 00-2.326-9.831c-.057-.222-.029-.402.084-.541a.709.709 0 01.423-.26.804.804 0 01.524.07c.18.08.305.23.373.45.491 1.79.936 3.583 1.335 5.38.409 1.783.802 3.58 1.181 5.393.414-.27.805-.57 1.173-.899l1.101-.99c.367-.33.744-.643 1.129-.942a7.06 7.06 0 011.261-.811 36.634 36.634 0 012.441-1.153 67.29 67.29 0 002.461-1.138c.203-.1.389-.107.559-.025.18.08.31.2.389.36a.73.73 0 01.051.514c-.033.181-.151.321-.354.42-.46.22-.928.43-1.403.63-.476.2-.951.406-1.424.617a37.06 37.06 0 00-1.413.667c-.46.22-.902.472-1.325.755-.51.323-.976.684-1.4 1.084-.426.388-.857.777-1.294 1.167.929.187 1.833.45 2.711.787.875.326 1.744.677 2.606 1.052l2.586 1.127c.873.373 1.77.689 2.69.947.224.06.365.178.424.353a.775.775 0 01-.003.507.79.79 0 01-.321.414c-.156.101-.345.122-.568.061a20.474 20.474 0 01-2.941-1.055 178.34 178.34 0 00-2.857-1.247 34.89 34.89 0 00-2.901-1.116 12.574 12.574 0 00-3.062-.611c.254 1.254.501 2.504.742 3.75.252 1.243.499 2.493.742 3.75.045.224.006.407-.118.548a.802.802 0 01-.456.266.783.783 0 01-.508-.073c-.158-.085-.259-.24-.305-.464zM79.85 52.486c.229.024.392.117.49.277.099.16.138.33.118.512a.77.77 0 01-.223.459c-.13.135-.31.19-.538.166l-7.975-.855c.293 2.307.562 4.617.809 6.93a98.04 98.04 0 001.021 6.884c.044.234.001.42-.13.555a.793.793 0 01-.46.243.808.808 0 01-.51-.089c-.164-.086-.269-.241-.314-.464a90.096 90.096 0 01-.589-3.528c-.16-1.19-.308-2.377-.445-3.564l-.412-3.56a384.41 384.41 0 00-.428-3.563l-9.758-1.046c-.23-.025-.393-.117-.49-.277a.768.768 0 01-.12-.496.793.793 0 01.225-.475c.13-.136.31-.191.538-.167l9.416 1.01a88.791 88.791 0 00-.115-.857 23.554 23.554 0 00-.13-.876c-.035-.222.008-.401.127-.538a.766.766 0 01.462-.26.808.808 0 01.51.089c.176.087.28.242.315.464.053.362.1.724.142 1.084.055.35.11.701.163 1.052l8.301.89zm35.381 4.517c.15.97.281 1.944.395 2.921.113.977.221 1.954.323 2.93.114.978.233 1.956.358 2.935.126.967.282 1.932.466 2.894.046.223.003.402-.127.538a.716.716 0 01-.443.245.864.864 0 01-.528-.09c-.164-.087-.269-.242-.314-.465a49.327 49.327 0 01-.467-2.894 272.94 272.94 0 01-.358-2.935c-.102-.976-.21-1.953-.323-2.93a81.077 81.077 0 00-.394-2.921c-.034-.222.009-.401.128-.538a.745.745 0 01.971-.154c.175.087.28.242.313.464zm-18.293 3.572c.367.143.8.31 1.3.501.51.193 1 .424 1.468.692.468.269.88.583 1.234.943s.569.773.646 1.24c.097.597-.027 1.096-.371 1.495-.331.39-.793.702-1.386.938a9.178 9.178 0 01-2.03.489c-.75.092-1.497.15-2.24.173-.742.013-1.429.002-2.061-.031a72.164 72.164 0 01-1.483-.09c-.206-.022-.359-.102-.46-.239a.79.79 0 01-.16-.448.83.83 0 01.154-.45.699.699 0 01.447-.279 97.078 97.078 0 01-.386-2.523c-.104-.85-.203-1.7-.295-2.548l-.61-.135-.576-.13c-.226-.048-.388-.157-.485-.328a.863.863 0 01-.116-.53.661.661 0 01.221-.441c.13-.125.307-.163.534-.116l.863.196c-.085-.71-.17-1.414-.256-2.113a60.665 60.665 0 00-.29-2.117c-.034-.222.008-.401.127-.538a.793.793 0 01.46-.243.808.808 0 01.511.089c.176.088.28.243.314.465.12.805.23 1.61.328 2.413.099.792.191 1.59.278 2.392.745.172 1.475.365 2.192.58.718.203 1.428.434 2.128.693zm-.215 4.855a9.73 9.73 0 00.74-.093c.317-.046.635-.104.955-.173a5.64 5.64 0 00.913-.264c.29-.107.5-.234.632-.38a.473.473 0 00.074-.527c-.07-.203-.3-.435-.688-.695a13.148 13.148 0 00-3.148-1.526 39.334 39.334 0 00-3.413-1.004l.294 2.41c.099.792.22 1.592.363 2.4a28.928 28.928 0 003.278-.148zm33.133 7.81l1.092-10.053c.364-3.35.619-6.708.764-10.07.013-.23.095-.393.244-.492a.709.709 0 01.482-.12.81.81 0 01.479.223c.147.131.22.311.218.54a112.252 112.252 0 01-.357 5.53 297.867 297.867 0 01-.51 5.496c.477-.133.94-.301 1.391-.506l1.35-.614c.45-.204.904-.391 1.362-.56a7.1 7.1 0 011.449-.397 36.55 36.55 0 012.677-.368 68.168 68.168 0 002.692-.349c.224-.033.403.015.54.144a.76.76 0 01.262.46.73.73 0 01-.107.505c-.087.163-.242.261-.466.295-.505.072-1.014.132-1.529.18a71.52 71.52 0 00-1.544.163c-.515.06-1.032.13-1.55.213a10.83 10.83 0 00-1.492.322 9.329 9.329 0 00-1.663.615c-.524.242-1.054.484-1.589.726.83.457 1.612.977 2.346 1.561a51.47 51.47 0 012.166 1.784l2.124 1.848c.72.617 1.479 1.187 2.278 1.71.195.124.294.278.297.462a.77.77 0 01-.156.483.788.788 0 01-.432.299c-.179.05-.366.012-.56-.112a20.408 20.408 0 01-2.485-1.887 173.84 173.84 0 00-2.345-2.044 34.671 34.671 0 00-2.428-1.932 12.516 12.516 0 00-2.734-1.5 428.443 428.443 0 01-.43 3.798 413.34 413.34 0 01-.43 3.798c-.025.227-.117.39-.278.487a.805.805 0 01-.516.117.778.778 0 01-.462-.222c-.125-.128-.175-.306-.15-.533z"/></mask><path d="M64.473 16.74c.226-.044.41-.005.552.118a.794.794 0 01.268.453.767.767 0 01-.074.504c-.084.169-.238.275-.463.32l-7.864 1.572c.98 2.112 1.937 4.234 2.873 6.366a98.485 98.485 0 003.062 6.258c.113.21.128.4.045.568a.788.788 0 01-.365.37.807.807 0 01-.514.068c-.183-.034-.33-.15-.44-.35a90.36 90.36 0 01-1.631-3.187 193.116 193.116 0 01-1.506-3.265l-1.472-3.272a384.1 384.1 0 00-1.49-3.268l-9.621 1.923c-.226.045-.41.006-.552-.117a.771.771 0 01-.264-.436.79.79 0 01.07-.521c.083-.169.238-.275.463-.32l9.284-1.856a93.813 93.813 0 00-.37-.783 23.476 23.476 0 00-.39-.796c-.1-.202-.113-.385-.04-.551a.762.762 0 01.36-.387.807.807 0 01.515-.068c.194.031.34.148.44.35.16.328.315.659.465.99l.474.954 8.185-1.636zm35.107-6.283c.436.88.857 1.769 1.262 2.667.405.898.804 1.797 1.197 2.697a269.4 269.4 0 001.231 2.691c.414.885.855 1.758 1.323 2.62.111.2.124.383.041.551a.71.71 0 01-.348.367.865.865 0 01-.531.071c-.183-.033-.329-.15-.44-.349a49.266 49.266 0 01-1.323-2.62c-.416-.896-.826-1.793-1.231-2.69-.393-.9-.792-1.8-1.197-2.698a80.231 80.231 0 00-1.262-2.667c-.1-.202-.113-.386-.041-.551a.744.744 0 01.88-.438c.193.03.34.147.44.349zm-16.36 8.882c.393.026.856.056 1.391.089.546.03 1.083.104 1.61.22a5.723 5.723 0 011.463.529c.447.237.777.567.992.99.274.54.307 1.052.1 1.536-.198.471-.544.907-1.037 1.309a9.134 9.134 0 01-1.788 1.074c-.688.312-1.382.591-2.083.836-.704.234-1.362.43-1.975.587-.614.158-1.094.277-1.441.358-.203.04-.373.01-.51-.09a.792.792 0 01-.289-.38.829.829 0 01.01-.473.695.695 0 01.34-.4 97.83 97.83 0 01-1.132-2.292c-.357-.779-.709-1.56-1.055-2.341l-.622.055-.589.047c-.23.023-.417-.033-.561-.167a.867.867 0 01-.272-.47.659.659 0 01.078-.488c.085-.157.243-.247.473-.27l.883-.07c-.296-.653-.591-1.299-.885-1.94a60.718 60.718 0 00-.92-1.93c-.099-.202-.113-.386-.04-.552a.788.788 0 01.364-.37.807.807 0 01.514-.068c.194.031.341.148.44.35.36.732.708 1.466 1.045 2.203.335.726.665 1.458.99 2.197.763-.06 1.518-.094 2.267-.104a28.74 28.74 0 012.24.025zm1.268 4.693c.174-.07.399-.173.676-.31.289-.139.575-.29.859-.45.295-.165.559-.34.79-.526.244-.189.406-.373.487-.552a.472.472 0 00-.088-.524c-.129-.173-.418-.325-.867-.456a13.191 13.191 0 00-3.465-.514 39.363 39.363 0 00-3.558.065l1.01 2.21c.335.726.693 1.452 1.075 2.18a28.827 28.827 0 003.08-1.123zm33.961-2.471l-2.007-9.913a156.28 156.28 0 00-2.326-9.831c-.057-.222-.029-.402.084-.541a.709.709 0 01.423-.26.804.804 0 01.524.07c.18.08.305.23.373.45.491 1.79.936 3.583 1.335 5.38.409 1.783.802 3.58 1.181 5.393.414-.27.805-.57 1.173-.899l1.101-.99c.367-.33.744-.643 1.129-.942a7.06 7.06 0 011.261-.811 36.634 36.634 0 012.441-1.153 67.29 67.29 0 002.461-1.138c.203-.1.389-.107.559-.025.18.08.31.2.389.36a.73.73 0 01.051.514c-.033.181-.151.321-.354.42-.46.22-.928.43-1.403.63-.476.2-.951.406-1.424.617a37.06 37.06 0 00-1.413.667c-.46.22-.902.472-1.325.755-.51.323-.976.684-1.4 1.084-.426.388-.857.777-1.294 1.167.929.187 1.833.45 2.711.787.875.326 1.744.677 2.606 1.052l2.586 1.127c.873.373 1.77.689 2.69.947.224.06.365.178.424.353a.775.775 0 01-.003.507.79.79 0 01-.321.414c-.156.101-.345.122-.568.061a20.474 20.474 0 01-2.941-1.055 178.34 178.34 0 00-2.857-1.247 34.89 34.89 0 00-2.901-1.116 12.574 12.574 0 00-3.062-.611c.254 1.254.501 2.504.742 3.75.252 1.243.499 2.493.742 3.75.045.224.006.407-.118.548a.802.802 0 01-.456.266.783.783 0 01-.508-.073c-.158-.085-.259-.24-.305-.464zM79.85 52.486c.229.024.392.117.49.277.099.16.138.33.118.512a.77.77 0 01-.223.459c-.13.135-.31.19-.538.166l-7.975-.855c.293 2.307.562 4.617.809 6.93a98.04 98.04 0 001.021 6.884c.044.234.001.42-.13.555a.793.793 0 01-.46.243.808.808 0 01-.51-.089c-.164-.086-.269-.241-.314-.464a90.096 90.096 0 01-.589-3.528c-.16-1.19-.308-2.377-.445-3.564l-.412-3.56a384.41 384.41 0 00-.428-3.563l-9.758-1.046c-.23-.025-.393-.117-.49-.277a.768.768 0 01-.12-.496.793.793 0 01.225-.475c.13-.136.31-.191.538-.167l9.416 1.01a88.791 88.791 0 00-.115-.857 23.554 23.554 0 00-.13-.876c-.035-.222.008-.401.127-.538a.766.766 0 01.462-.26.808.808 0 01.51.089c.176.087.28.242.315.464.053.362.1.724.142 1.084.055.35.11.701.163 1.052l8.301.89zm35.381 4.517c.15.97.281 1.944.395 2.921.113.977.221 1.954.323 2.93.114.978.233 1.956.358 2.935.126.967.282 1.932.466 2.894.046.223.003.402-.127.538a.716.716 0 01-.443.245.864.864 0 01-.528-.09c-.164-.087-.269-.242-.314-.465a49.327 49.327 0 01-.467-2.894 272.94 272.94 0 01-.358-2.935c-.102-.976-.21-1.953-.323-2.93a81.077 81.077 0 00-.394-2.921c-.034-.222.009-.401.128-.538a.745.745 0 01.971-.154c.175.087.28.242.313.464zm-18.293 3.572c.367.143.8.31 1.3.501.51.193 1 .424 1.468.692.468.269.88.583 1.234.943s.569.773.646 1.24c.097.597-.027 1.096-.371 1.495-.331.39-.793.702-1.386.938a9.178 9.178 0 01-2.03.489c-.75.092-1.497.15-2.24.173-.742.013-1.429.002-2.061-.031a72.164 72.164 0 01-1.483-.09c-.206-.022-.359-.102-.46-.239a.79.79 0 01-.16-.448.83.83 0 01.154-.45.699.699 0 01.447-.279 97.078 97.078 0 01-.386-2.523c-.104-.85-.203-1.7-.295-2.548l-.61-.135-.576-.13c-.226-.048-.388-.157-.485-.328a.863.863 0 01-.116-.53.661.661 0 01.221-.441c.13-.125.307-.163.534-.116l.863.196c-.085-.71-.17-1.414-.256-2.113a60.665 60.665 0 00-.29-2.117c-.034-.222.008-.401.127-.538a.793.793 0 01.46-.243.808.808 0 01.511.089c.176.088.28.243.314.465.12.805.23 1.61.328 2.413.099.792.191 1.59.278 2.392.745.172 1.475.365 2.192.58.718.203 1.428.434 2.128.693zm-.215 4.855a9.73 9.73 0 00.74-.093c.317-.046.635-.104.955-.173a5.64 5.64 0 00.913-.264c.29-.107.5-.234.632-.38a.473.473 0 00.074-.527c-.07-.203-.3-.435-.688-.695a13.148 13.148 0 00-3.148-1.526 39.334 39.334 0 00-3.413-1.004l.294 2.41c.099.792.22 1.592.363 2.4a28.928 28.928 0 003.278-.148zm33.133 7.81l1.092-10.053c.364-3.35.619-6.708.764-10.07.013-.23.095-.393.244-.492a.709.709 0 01.482-.12.81.81 0 01.479.223c.147.131.22.311.218.54a112.252 112.252 0 01-.357 5.53 297.867 297.867 0 01-.51 5.496c.477-.133.94-.301 1.391-.506l1.35-.614c.45-.204.904-.391 1.362-.56a7.1 7.1 0 011.449-.397 36.55 36.55 0 012.677-.368 68.168 68.168 0 002.692-.349c.224-.033.403.015.54.144a.76.76 0 01.262.46.73.73 0 01-.107.505c-.087.163-.242.261-.466.295-.505.072-1.014.132-1.529.18a71.52 71.52 0 00-1.544.163c-.515.06-1.032.13-1.55.213a10.83 10.83 0 00-1.492.322 9.329 9.329 0 00-1.663.615c-.524.242-1.054.484-1.589.726.83.457 1.612.977 2.346 1.561a51.47 51.47 0 012.166 1.784l2.124 1.848c.72.617 1.479 1.187 2.278 1.71.195.124.294.278.297.462a.77.77 0 01-.156.483.788.788 0 01-.432.299c-.179.05-.366.012-.56-.112a20.408 20.408 0 01-2.485-1.887 173.84 173.84 0 00-2.345-2.044 34.671 34.671 0 00-2.428-1.932 12.516 12.516 0 00-2.734-1.5 428.443 428.443 0 01-.43 3.798 413.34 413.34 0 01-.43 3.798c-.025.227-.117.39-.278.487a.805.805 0 01-.516.117.778.778 0 01-.462-.222c-.125-.128-.175-.306-.15-.533z" fill="#000"/><path d="M64.473 16.74c.226-.044.41-.005.552.118a.794.794 0 01.268.453.767.767 0 01-.074.504c-.084.169-.238.275-.463.32l-7.864 1.572c.98 2.112 1.937 4.234 2.873 6.366a98.485 98.485 0 003.062 6.258c.113.21.128.4.045.568a.788.788 0 01-.365.37.807.807 0 01-.514.068c-.183-.034-.33-.15-.44-.35a90.36 90.36 0 01-1.631-3.187 193.116 193.116 0 01-1.506-3.265l-1.472-3.272a384.1 384.1 0 00-1.49-3.268l-9.621 1.923c-.226.045-.41.006-.552-.117a.771.771 0 01-.264-.436.79.79 0 01.07-.521c.083-.169.238-.275.463-.32l9.284-1.856a93.813 93.813 0 00-.37-.783 23.476 23.476 0 00-.39-.796c-.1-.202-.113-.385-.04-.551a.762.762 0 01.36-.387.807.807 0 01.515-.068c.194.031.34.148.44.35.16.328.315.659.465.99l.474.954 8.185-1.636zm35.107-6.283c.436.88.857 1.769 1.262 2.667.405.898.804 1.797 1.197 2.697a269.4 269.4 0 001.231 2.691c.414.885.855 1.758 1.323 2.62.111.2.124.383.041.551a.71.71 0 01-.348.367.865.865 0 01-.531.071c-.183-.033-.329-.15-.44-.349a49.266 49.266 0 01-1.323-2.62c-.416-.896-.826-1.793-1.231-2.69-.393-.9-.792-1.8-1.197-2.698a80.231 80.231 0 00-1.262-2.667c-.1-.202-.113-.386-.041-.551a.744.744 0 01.88-.438c.193.03.34.147.44.349zm-16.36 8.882c.393.026.856.056 1.391.089.546.03 1.083.104 1.61.22a5.723 5.723 0 011.463.529c.447.237.777.567.992.99.274.54.307 1.052.1 1.536-.198.471-.544.907-1.037 1.309a9.134 9.134 0 01-1.788 1.074c-.688.312-1.382.591-2.083.836-.704.234-1.362.43-1.975.587-.614.158-1.094.277-1.441.358-.203.04-.373.01-.51-.09a.792.792 0 01-.289-.38.829.829 0 01.01-.473.695.695 0 01.34-.4 97.83 97.83 0 01-1.132-2.292c-.357-.779-.709-1.56-1.055-2.341l-.622.055-.589.047c-.23.023-.417-.033-.561-.167a.867.867 0 01-.272-.47.659.659 0 01.078-.488c.085-.157.243-.247.473-.27l.883-.07c-.296-.653-.591-1.299-.885-1.94a60.718 60.718 0 00-.92-1.93c-.099-.202-.113-.386-.04-.552a.788.788 0 01.364-.37.807.807 0 01.514-.068c.194.031.341.148.44.35.36.732.708 1.466 1.045 2.203.335.726.665 1.458.99 2.197.763-.06 1.518-.094 2.267-.104a28.74 28.74 0 012.24.025zm1.268 4.693c.174-.07.399-.173.676-.31.289-.139.575-.29.859-.45.295-.165.559-.34.79-.526.244-.189.406-.373.487-.552a.472.472 0 00-.088-.524c-.129-.173-.418-.325-.867-.456a13.191 13.191 0 00-3.465-.514 39.363 39.363 0 00-3.558.065l1.01 2.21c.335.726.693 1.452 1.075 2.18a28.827 28.827 0 003.08-1.123zm33.961-2.471l-2.007-9.913a156.28 156.28 0 00-2.326-9.831c-.057-.222-.029-.402.084-.541a.709.709 0 01.423-.26.804.804 0 01.524.07c.18.08.305.23.373.45.491 1.79.936 3.583 1.335 5.38.409 1.783.802 3.58 1.181 5.393.414-.27.805-.57 1.173-.899l1.101-.99c.367-.33.744-.643 1.129-.942a7.06 7.06 0 011.261-.811 36.634 36.634 0 012.441-1.153 67.29 67.29 0 002.461-1.138c.203-.1.389-.107.559-.025.18.08.31.2.389.36a.73.73 0 01.051.514c-.033.181-.151.321-.354.42-.46.22-.928.43-1.403.63-.476.2-.951.406-1.424.617a37.06 37.06 0 00-1.413.667c-.46.22-.902.472-1.325.755-.51.323-.976.684-1.4 1.084-.426.388-.857.777-1.294 1.167.929.187 1.833.45 2.711.787.875.326 1.744.677 2.606 1.052l2.586 1.127c.873.373 1.77.689 2.69.947.224.06.365.178.424.353a.775.775 0 01-.003.507.79.79 0 01-.321.414c-.156.101-.345.122-.568.061a20.474 20.474 0 01-2.941-1.055 178.34 178.34 0 00-2.857-1.247 34.89 34.89 0 00-2.901-1.116 12.574 12.574 0 00-3.062-.611c.254 1.254.501 2.504.742 3.75.252 1.243.499 2.493.742 3.75.045.224.006.407-.118.548a.802.802 0 01-.456.266.783.783 0 01-.508-.073c-.158-.085-.259-.24-.305-.464zM79.85 52.486c.229.024.392.117.49.277.099.16.138.33.118.512a.77.77 0 01-.223.459c-.13.135-.31.19-.538.166l-7.975-.855c.293 2.307.562 4.617.809 6.93a98.04 98.04 0 001.021 6.884c.044.234.001.42-.13.555a.793.793 0 01-.46.243.808.808 0 01-.51-.089c-.164-.086-.269-.241-.314-.464a90.096 90.096 0 01-.589-3.528c-.16-1.19-.308-2.377-.445-3.564l-.412-3.56a384.41 384.41 0 00-.428-3.563l-9.758-1.046c-.23-.025-.393-.117-.49-.277a.768.768 0 01-.12-.496.793.793 0 01.225-.475c.13-.136.31-.191.538-.167l9.416 1.01a88.791 88.791 0 00-.115-.857 23.554 23.554 0 00-.13-.876c-.035-.222.008-.401.127-.538a.766.766 0 01.462-.26.808.808 0 01.51.089c.176.087.28.242.315.464.053.362.1.724.142 1.084.055.35.11.701.163 1.052l8.301.89zm35.381 4.517c.15.97.281 1.944.395 2.921.113.977.221 1.954.323 2.93.114.978.233 1.956.358 2.935.126.967.282 1.932.466 2.894.046.223.003.402-.127.538a.716.716 0 01-.443.245.864.864 0 01-.528-.09c-.164-.087-.269-.242-.314-.465a49.327 49.327 0 01-.467-2.894 272.94 272.94 0 01-.358-2.935c-.102-.976-.21-1.953-.323-2.93a81.077 81.077 0 00-.394-2.921c-.034-.222.009-.401.128-.538a.745.745 0 01.971-.154c.175.087.28.242.313.464zm-18.293 3.572c.367.143.8.31 1.3.501.51.193 1 .424 1.468.692.468.269.88.583 1.234.943s.569.773.646 1.24c.097.597-.027 1.096-.371 1.495-.331.39-.793.702-1.386.938a9.178 9.178 0 01-2.03.489c-.75.092-1.497.15-2.24.173-.742.013-1.429.002-2.061-.031a72.164 72.164 0 01-1.483-.09c-.206-.022-.359-.102-.46-.239a.79.79 0 01-.16-.448.83.83 0 01.154-.45.699.699 0 01.447-.279 97.078 97.078 0 01-.386-2.523c-.104-.85-.203-1.7-.295-2.548l-.61-.135-.576-.13c-.226-.048-.388-.157-.485-.328a.863.863 0 01-.116-.53.661.661 0 01.221-.441c.13-.125.307-.163.534-.116l.863.196c-.085-.71-.17-1.414-.256-2.113a60.665 60.665 0 00-.29-2.117c-.034-.222.008-.401.127-.538a.793.793 0 01.46-.243.808.808 0 01.511.089c.176.088.28.243.314.465.12.805.23 1.61.328 2.413.099.792.191 1.59.278 2.392.745.172 1.475.365 2.192.58.718.203 1.428.434 2.128.693zm-.215 4.855a9.73 9.73 0 00.74-.093c.317-.046.635-.104.955-.173a5.64 5.64 0 00.913-.264c.29-.107.5-.234.632-.38a.473.473 0 00.074-.527c-.07-.203-.3-.435-.688-.695a13.148 13.148 0 00-3.148-1.526 39.334 39.334 0 00-3.413-1.004l.294 2.41c.099.792.22 1.592.363 2.4a28.928 28.928 0 003.278-.148zm33.133 7.81l1.092-10.053c.364-3.35.619-6.708.764-10.07.013-.23.095-.393.244-.492a.709.709 0 01.482-.12.81.81 0 01.479.223c.147.131.22.311.218.54a112.252 112.252 0 01-.357 5.53 297.867 297.867 0 01-.51 5.496c.477-.133.94-.301 1.391-.506l1.35-.614c.45-.204.904-.391 1.362-.56a7.1 7.1 0 011.449-.397 36.55 36.55 0 012.677-.368 68.168 68.168 0 002.692-.349c.224-.033.403.015.54.144a.76.76 0 01.262.46.73.73 0 01-.107.505c-.087.163-.242.261-.466.295-.505.072-1.014.132-1.529.18a71.52 71.52 0 00-1.544.163c-.515.06-1.032.13-1.55.213a10.83 10.83 0 00-1.492.322 9.329 9.329 0 00-1.663.615c-.524.242-1.054.484-1.589.726.83.457 1.612.977 2.346 1.561a51.47 51.47 0 012.166 1.784l2.124 1.848c.72.617 1.479 1.187 2.278 1.71.195.124.294.278.297.462a.77.77 0 01-.156.483.788.788 0 01-.432.299c-.179.05-.366.012-.56-.112a20.408 20.408 0 01-2.485-1.887 173.84 173.84 0 00-2.345-2.044 34.671 34.671 0 00-2.428-1.932 12.516 12.516 0 00-2.734-1.5 428.443 428.443 0 01-.43 3.798 413.34 413.34 0 01-.43 3.798c-.025.227-.117.39-.278.487a.805.805 0 01-.516.117.778.778 0 01-.462-.222c-.125-.128-.175-.306-.15-.533z" stroke="#000" mask="url(#a)"/></svg>