<svg width="252" height="180" fill="none" xmlns="http://www.w3.org/2000/svg"><g clip-path="url(#clip0)"><path d="M234.076 68.218l-44.092-7.161 10.447-27.983c2.31-6.193-.709-9.008-6.719-6.262l-52.214 23.871-21.797-30.07c-3.131-4.315-7.06-3.707-8.739 1.354l-11.681 35.26-56.989-6.962c-6.559-.8-8.585 2.797-4.51 8.001l18.426 23.506-39.868 20.162c-7.498 3.79-6.847 7.994 1.447 9.345l44.092 7.161-10.447 27.983c-2.31 6.193.71 9.008 6.72 6.262l52.213-23.871 21.799 30.076c3.13 4.315 7.06 3.707 8.738-1.354l11.682-35.26 56.988 6.962c6.559.8 8.585-2.796 4.511-8.001l-18.421-23.512 39.861-20.162c7.498-3.79 6.847-7.994-1.447-9.345z" fill="#00C1FF"/><path d="M79.894 108.904l2.14-15.093 6.604 13.739 6.806-1.054 3.647-21.645-5.617.87-2.21 15.557-6.644-14.186-6.641 1.029-2.024 15.472-6.83-14.101-6.116.947 10.272 19.489 6.613-1.024zm31.995-26.374c-9.63 1.49-11.491 7.587-10.797 12.07l.129.83c.685 4.427 4.329 9.842 13.958 8.351l1.218-.189c9.629-1.491 11.464-7.754 10.779-12.18l-.129-.831c-.698-4.51-4.312-9.73-13.941-8.24l-1.217.189zm9.331 9.577c.386 2.49-.382 5.952-6.165 6.848-5.672.878-7.561-2.173-7.947-4.663l-.06-.388c-.394-2.545.422-5.873 6.178-6.764 5.81-.9 7.54 2.034 7.934 4.58l.06.387zm13.637-8.147l7.941-1.23c2.324-.36 3.107.483 3.291 1.672l.008.056c.185 1.19-.298 2.284-2.622 2.644l-7.941 1.23-.677-4.372zm13.486 4.202c2.483-.98 3.984-2.997 3.585-5.57l-.042-.277c-.347-2.241-1.739-5.37-9.569-4.157l-13.863 2.147 3.188 20.586 5.7-.882-1.084-7 7.415-1.15c2.878-.445 4.035.623 4.446 3.28l.262 1.687c.141.913.312 1.283.416 1.409l5.894-.913-.021-.138c-.245-.302-.448-.696-.688-2.245l-.33-2.13c-.467-3.017-2.416-4.443-5.309-4.647zm14.915 7.834l-1.5-9.685 11.406 8.15 7.443-1.152-13.044-9.398 9.386-11.115-7.25 1.122-8.318 9.958-1.311-8.467-5.7.883 3.188 20.586 5.7-.882zm14.991-23.402l3.95 13.612 2.629-.407-.38-14.165-6.199.96zm8.517 14.747l-5.949.92.759 4.898 5.949-.92-.759-4.898z" fill="#fff"/></g><defs><clipPath id="clip0"><path fill="#fff" transform="rotate(-8.802 230.94 17.774)" d="M0 0h232.309v145.664H0z"/></clipPath></defs></svg>