<svg width="1920" height="848" fill="none" xmlns="http://www.w3.org/2000/svg"><path d="M-164 847c144.822-312.945 273.94-574.232 423.124-595.195 149.184-20.963 210.253 174.441 313.199 174.441 102.945 0 152.673-89.841 185.825-174.441C791.3 167.205 857.604 1 982.36 1c124.76 0 185.83 176.687 217.23 250.805 31.41 74.119 115.16 228.345 232.07 228.345 116.9 0 151.8-86.537 262.59-75.615 110.8 10.921 150.06 143.745 265.22 143.745 115.16 0 94.22-101.82 201.53-101.82" stroke="url(#paint0_linear)" stroke-width="2" stroke-linecap="round" stroke-linejoin="round"/><defs><linearGradient id="paint0_linear" x1="-164" y1="847" x2="2161" y2="847" gradientUnits="userSpaceOnUse"><stop stop-color="#FF59F8"/><stop offset=".198" stop-color="#AE72FF"/><stop offset=".406" stop-color="#90E9ED"/><stop offset=".62" stop-color="#5CD167"/><stop offset=".825" stop-color="#FE0"/></linearGradient></defs></svg>