<svg width="20" height="20" viewBox="0 0 20 20" fill="none" xmlns="http://www.w3.org/2000/svg">
<path d="M13.2988 9.60886L9.14584 6.58999C8.99343 6.47952 8.79111 6.46288 8.62406 6.54873C8.45568 6.63392 8.35052 6.80696 8.35052 6.99397V13.0297C8.35052 13.2187 8.45568 13.3911 8.62406 13.4763C8.69527 13.5122 8.77314 13.5302 8.85167 13.5302C8.95417 13.5302 9.05799 13.4976 9.14584 13.433L13.2988 10.4168C13.4299 10.3203 13.5064 10.1712 13.5064 10.0128C13.5071 9.85178 13.4286 9.70337 13.2988 9.60886Z" fill="#858585"/>
<path d="M10.0003 0.00195312C4.47639 0.00195312 0 4.47834 0 10.0023C0 15.5242 4.47639 19.9993 10.0003 19.9993C15.5229 19.9993 20 15.5236 20 10.0023C20.0007 4.47834 15.5229 0.00195312 10.0003 0.00195312ZM10.0003 18.3308C5.40015 18.3308 1.67049 14.6031 1.67049 10.0023C1.67049 5.40344 5.40015 1.67112 10.0003 1.67112C14.5998 1.67112 18.3288 5.40277 18.3288 10.0023C18.3295 14.6031 14.5998 18.3308 10.0003 18.3308Z" fill="#858585"/>
</svg>
