<svg width="963" height="694" viewBox="0 0 963 694" fill="none" xmlns="http://www.w3.org/2000/svg">
<path d="M673.638 576.341L503.328 421.195L609.475 320.221C609.785 319.911 609.785 319.447 609.527 319.138C609.217 318.829 608.753 318.829 608.444 319.087L502.193 420.164L376.343 308.778C376.188 308.675 376.033 308.572 375.827 308.572H173.899V157.343C173.899 156.931 173.538 156.57 173.125 156.57C172.713 156.57 172.352 156.931 172.352 157.343V309.396C172.352 309.809 172.713 310.17 173.125 310.17H375.569L501.729 421.814L671.936 576.856L592.196 636.647C591.835 636.904 591.784 637.368 592.042 637.729C592.196 637.935 592.403 638.038 592.661 638.038C592.815 638.038 592.97 637.987 593.125 637.883L673.638 577.526C673.844 577.372 673.948 577.165 673.948 576.959C673.948 576.753 673.844 576.495 673.638 576.341Z" fill="white"/>
<path d="M726.248 208.166C726.248 217.289 718.047 224.66 707.886 224.66H361.901C351.792 224.66 343.539 217.289 343.539 208.166V17.5583C343.539 8.43516 351.74 1.06445 361.901 1.06445H632.685C642.846 1.06445 651.047 8.43516 651.047 17.5583V119.563C651.047 136.005 659.3 151.52 673.484 161.88L719.44 195.332C723.72 198.476 726.248 203.218 726.248 208.166Z" fill="white"/>
<path d="M707.886 225.484H361.901C351.328 225.484 342.766 217.753 342.766 208.217V17.558C342.766 8.02252 351.328 0.291016 361.901 0.291016H632.686C643.259 0.291016 651.821 8.02252 651.821 17.558V119.562C651.821 135.799 659.867 151.004 673.948 161.261L719.904 194.713C724.443 198.011 727.022 202.908 727.022 208.165C727.022 217.701 718.408 225.484 707.886 225.484ZM361.901 1.78577C352.204 1.78577 344.313 8.84721 344.313 17.5065V208.114C344.313 216.773 352.204 223.835 361.901 223.835H707.886C717.583 223.835 725.474 216.773 725.474 208.114C725.474 203.372 723.102 198.888 718.976 195.898L673.02 162.446C658.578 151.932 650.274 136.262 650.274 119.511V17.558C650.274 8.89876 642.382 1.83732 632.686 1.83732H361.901V1.78577Z" fill="black"/>
<path d="M399.553 224.711H361.901C351.792 224.711 343.539 216.516 343.539 206.362V153.942L344.674 149.458L360.457 194.713L394.189 105.233L399.553 224.711Z" fill="#F9D84E"/>
<path d="M399.553 225.485H361.901C351.328 225.485 342.766 216.929 342.766 206.362V153.943C342.766 153.891 342.766 153.84 342.766 153.736L343.9 149.252C344.003 148.943 344.261 148.685 344.622 148.685C344.983 148.685 345.293 148.891 345.396 149.201L360.508 192.446L393.467 104.976C393.622 104.616 393.931 104.409 394.292 104.461C394.653 104.513 394.911 104.822 394.963 105.183L400.327 224.66C400.327 224.866 400.275 225.072 400.12 225.227C399.966 225.382 399.811 225.485 399.553 225.485ZM344.313 154.046V206.362C344.313 216.052 352.204 223.939 361.901 223.939H398.779L393.622 109.1L361.231 195.023C361.127 195.332 360.818 195.538 360.508 195.538C360.199 195.538 359.89 195.332 359.786 195.023L344.829 152.19L344.313 154.046Z" fill="black"/>
<path d="M513.13 68.38C493.53 65.8028 466.658 73.1736 431.225 76.8331C410.387 78.998 393.727 94.9764 390.684 115.697C390.684 115.8 390.633 115.955 390.633 116.058C386.352 152.138 382.019 188.218 377.738 224.299H530.151C537.268 224.247 544.386 224.247 551.504 224.196C553.825 220.897 561.82 208.681 559.55 192.6C558.467 185.023 555.476 179.25 553.206 175.745C558.467 166.776 565.894 150.746 565.791 130.129C565.74 121.057 565.585 94.0486 546.862 78.8433C538.145 71.7819 529.222 70.4933 513.13 68.38Z" fill="#F9D84E"/>
<path d="M377.789 225.123C377.583 225.123 377.377 225.02 377.222 224.866C377.067 224.711 377.016 224.505 377.016 224.247L389.91 116.006L389.962 115.645C393.005 94.564 409.974 78.3278 431.173 76.1115C444.015 74.7713 455.929 72.9158 466.451 71.3179C485.587 68.38 500.648 66.009 513.233 67.6583C528.861 69.7201 538.299 70.9056 547.48 78.3794C566.513 93.7908 566.616 121.212 566.667 130.232C566.771 145.85 562.438 161.57 554.237 175.796C557.486 181.002 559.601 186.62 560.426 192.548C562.593 207.959 555.423 220.175 552.226 224.66C552.071 224.866 551.865 224.969 551.607 224.969L530.253 225.072H377.789V225.123ZM378.615 223.577H530.15L551.142 223.474C554.34 218.835 560.891 207.289 558.828 192.754C558.002 186.93 555.888 181.363 552.638 176.209C552.483 175.951 552.483 175.642 552.638 175.384C560.891 161.261 565.172 145.643 565.12 130.18C565.068 121.367 564.965 94.4609 546.5 79.5133C538.042 72.658 529.686 71.3179 513.026 69.1531C500.648 67.5553 485.69 69.8747 466.658 72.8127C456.136 74.4621 444.222 76.2661 431.327 77.6062C410.851 79.7195 394.449 95.4402 391.509 115.8L391.457 116.161L378.615 223.577Z" fill="black"/>
<path d="M464.955 224.041C469.288 208.165 473.62 192.29 477.953 176.414C479.964 168.992 485.122 162.859 492.085 159.611L508.023 152.137C507.146 147.756 506.269 143.324 505.444 138.942L415.337 161.621C409.818 182.6 404.351 203.629 398.832 224.608C420.856 224.401 442.931 224.247 464.955 224.041Z" fill="#FF6EC1"/>
<path d="M398.781 225.33C398.523 225.33 398.317 225.227 398.162 225.021C398.008 224.815 397.956 224.609 398.008 224.351L414.513 161.365C414.564 161.107 414.822 160.901 415.08 160.798L505.187 138.119C505.393 138.067 505.599 138.119 505.806 138.222C505.96 138.325 506.115 138.531 506.167 138.737L508.746 151.932C508.797 152.293 508.643 152.654 508.333 152.757L492.395 160.231C485.639 163.427 480.636 169.354 478.727 176.57L465.73 224.196C465.626 224.506 465.317 224.763 465.007 224.763L398.781 225.33ZM415.905 162.241L399.761 223.835L464.337 223.32L477.18 176.261C479.243 168.633 484.556 162.293 491.725 158.942L507.095 151.726L504.774 139.923L415.905 162.241Z" fill="black"/>
<path d="M529.324 188.425C529.634 200.383 529.892 212.341 530.201 224.299C550.471 224.196 570.741 224.041 590.96 223.938C582.243 188.94 573.578 153.942 564.861 118.944L560.89 135.541" fill="#F9D84E"/>
<path d="M493.218 182.6C496.411 182.6 498.995 180.016 498.995 176.828C498.995 173.639 496.411 171.055 493.218 171.055C490.025 171.055 487.441 173.639 487.441 176.828C487.441 180.016 490.025 182.6 493.218 182.6Z" fill="white"/>
<path d="M493.218 183.425C489.608 183.425 486.668 180.487 486.668 176.879C486.668 173.271 489.608 170.333 493.218 170.333C496.829 170.333 499.769 173.271 499.769 176.879C499.769 180.487 496.88 183.425 493.218 183.425ZM493.218 171.828C490.433 171.828 488.215 174.096 488.215 176.828C488.215 179.559 490.485 181.827 493.218 181.827C495.952 181.827 498.221 179.559 498.221 176.828C498.221 174.096 496.004 171.828 493.218 171.828Z" fill="black"/>
<path d="M173.282 323.829C182.398 323.829 189.787 316.445 189.787 307.335C189.787 298.225 182.398 290.841 173.282 290.841C164.167 290.841 156.777 298.225 156.777 307.335C156.777 316.445 164.167 323.829 173.282 323.829Z" fill="#349948"/>
<path d="M173.283 324.602C163.741 324.602 156.004 316.87 156.004 307.334C156.004 297.799 163.741 290.067 173.283 290.067C182.824 290.067 190.561 297.799 190.561 307.334C190.561 316.87 182.824 324.602 173.283 324.602ZM173.283 291.614C164.617 291.614 157.551 298.675 157.551 307.334C157.551 315.994 164.617 323.055 173.283 323.055C181.948 323.055 189.014 315.994 189.014 307.334C189.014 298.675 181.948 291.614 173.283 291.614Z" fill="black"/>
<path d="M445.612 171.775C471.107 171.775 491.774 151.122 491.774 125.644C491.774 100.167 471.107 79.5127 445.612 79.5127C420.117 79.5127 399.449 100.167 399.449 125.644C399.449 151.122 420.117 171.775 445.612 171.775Z" fill="#3FD1FF"/>
<path d="M445.612 172.548C419.72 172.548 398.676 151.519 398.676 125.644C398.676 99.769 419.72 78.7393 445.612 78.7393C471.504 78.7393 492.548 99.769 492.548 125.644C492.548 151.519 471.453 172.548 445.612 172.548ZM445.612 80.2856C420.596 80.2856 400.223 100.645 400.223 125.644C400.223 150.642 420.596 171.002 445.612 171.002C470.628 171.002 491.001 150.642 491.001 125.644C491.001 100.645 470.628 80.2856 445.612 80.2856Z" fill="black"/>
<path d="M427.61 167.755L421.318 183.166C419.564 187.444 422.092 192.238 426.63 193.217C430.035 193.939 433.439 192.238 434.883 189.094L447.881 160.951" fill="#3FD1FF"/>
<path d="M428.229 194.145C427.662 194.145 427.094 194.094 426.475 193.939C424.103 193.424 422.091 191.929 420.957 189.764C419.822 187.599 419.719 185.125 420.596 182.857L426.888 167.497C427.043 167.085 427.507 166.93 427.92 167.085C428.332 167.24 428.487 167.704 428.332 168.116L422.04 183.476C421.318 185.28 421.421 187.342 422.298 189.094C423.174 190.847 424.825 192.084 426.785 192.496C429.828 193.166 432.871 191.62 434.212 188.785L447.21 160.642C447.365 160.23 447.829 160.075 448.241 160.281C448.654 160.436 448.809 160.9 448.602 161.312L435.605 189.455C434.264 192.341 431.375 194.145 428.229 194.145Z" fill="black"/>
<path d="M488.269 119.511C491.26 120.129 493.787 120.748 496.779 121.366C501.524 122.346 505.392 125.954 506.424 130.747C506.991 133.427 506.682 136.314 505.392 138.943L503.897 141.881C501.112 147.396 494.716 150.024 488.887 148.066C487.082 147.447 485.329 146.88 483.523 146.262L486.463 132.345" fill="#3FD1FF"/>
<path d="M492.807 149.406C491.414 149.406 490.022 149.2 488.681 148.736L483.317 146.932C482.956 146.829 482.749 146.417 482.801 146.056L485.741 132.139C485.844 131.727 486.257 131.469 486.669 131.521C487.082 131.624 487.34 132.036 487.288 132.449L484.503 145.695L489.196 147.293C494.612 149.097 500.698 146.623 503.277 141.52L504.773 138.582C506.011 136.16 506.32 133.531 505.753 130.902C504.825 126.521 501.266 123.119 496.675 122.14C495.18 121.831 493.787 121.521 492.394 121.212C491.002 120.903 489.661 120.594 488.113 120.284C487.701 120.181 487.443 119.769 487.494 119.357C487.598 118.944 488.01 118.686 488.423 118.738C489.919 119.047 491.311 119.357 492.704 119.666C494.096 119.975 495.437 120.284 496.985 120.594C502.143 121.676 506.166 125.593 507.249 130.541C507.868 133.531 507.507 136.52 506.114 139.252L504.618 142.19C502.297 146.726 497.655 149.406 492.807 149.406Z" fill="black"/>
<path d="M402.596 111.934C399.553 111.985 396.922 112.037 393.879 112.088C389.031 112.14 384.492 114.923 382.583 119.356C381.5 121.881 381.191 124.716 382.016 127.603L382.893 130.798C384.543 136.726 390.269 140.54 396.406 139.767C398.263 139.509 400.172 139.303 402.028 139.045L401.874 124.819" fill="#3FD1FF"/>
<path d="M394.858 140.643C389.03 140.643 383.717 136.726 382.118 131.005L381.241 127.809C380.416 124.871 380.622 121.83 381.86 119.047C383.872 114.408 388.617 111.367 393.878 111.315C395.425 111.315 396.818 111.263 398.21 111.263C399.655 111.212 401.047 111.212 402.595 111.212C403.007 111.212 403.368 111.573 403.368 111.985C403.368 112.397 403.007 112.758 402.595 112.758C401.047 112.758 399.655 112.81 398.21 112.81C396.818 112.861 395.374 112.861 393.878 112.861C389.236 112.913 385.058 115.593 383.253 119.665C382.17 122.139 382.015 124.768 382.737 127.397L383.614 130.592C385.161 136.107 390.577 139.715 396.25 139.045L401.202 138.427L401.047 124.871C401.047 124.459 401.408 124.098 401.821 124.098C402.233 124.098 402.595 124.459 402.595 124.871L402.749 139.097C402.749 139.509 402.44 139.818 402.079 139.87L396.457 140.592C395.941 140.592 395.374 140.643 394.858 140.643Z" fill="black"/>
<path d="M260.705 55.6997L288.3 124.716C291.136 131.829 292.478 118.119 299.389 114.82L301.658 113.738C308.157 110.645 310.994 102.913 308.003 96.3675L285.05 45.3395C281.182 36.7833 269.886 34.8246 263.387 41.6799C259.829 45.4426 258.797 50.9062 260.705 55.6997Z" fill="#3FD1FF"/>
<path d="M289.899 127.5C289.848 127.5 289.848 127.5 289.796 127.5C288.661 127.448 288.042 126.108 287.578 124.974L259.984 55.9574C257.972 50.9062 259.107 45.0818 262.821 41.1645C266.019 37.7626 270.712 36.2163 275.303 36.9894C279.893 37.7626 283.813 40.8036 285.721 45.0302L308.674 96.0582C311.768 102.965 308.725 111.16 301.917 114.408L299.647 115.49C296.604 116.933 294.644 120.696 293.2 123.479C292.014 125.902 291.189 127.5 289.899 127.5ZM261.428 55.3904L289.022 124.407C289.487 125.593 289.796 125.85 289.899 125.953C290.363 125.747 291.24 124.046 291.911 122.758C293.458 119.82 295.573 115.748 299.08 114.098L301.35 113.016C307.436 110.13 310.118 102.81 307.333 96.6767L284.38 45.6487C282.678 41.8345 279.223 39.2058 275.096 38.4842C271.022 37.7626 266.844 39.1543 263.955 42.1953C260.603 45.7518 259.623 50.9062 261.428 55.3904Z" fill="black"/>
<path d="M250.027 116.83L288.763 157.343C294.075 162.858 302.895 162.755 308.104 157.137L309.806 155.281C314.655 149.973 314.397 141.777 309.187 136.777L268.75 98.0683C261.942 91.5739 250.75 94.048 247.294 102.759C245.385 107.655 246.469 113.119 250.027 116.83Z" fill="#3FD1FF"/>
<path d="M298.305 162.24C294.436 162.24 290.877 160.694 288.195 157.91L249.46 117.397C245.695 113.48 244.56 107.656 246.572 102.604C248.274 98.2747 252.039 95.079 256.578 94.0481C261.117 93.0172 265.862 94.3574 269.266 97.6046L309.703 136.314C315.171 141.52 315.429 150.333 310.322 155.9L308.62 157.756C305.99 160.642 302.379 162.24 298.459 162.292C298.408 162.24 298.356 162.24 298.305 162.24ZM259.57 95.2851C258.693 95.2851 257.764 95.3882 256.888 95.5944C252.813 96.4706 249.512 99.3055 247.965 103.171C246.211 107.656 247.191 112.861 250.543 116.315L289.279 156.828C291.703 159.354 294.952 160.745 298.408 160.694C301.915 160.642 305.113 159.199 307.486 156.673L309.188 154.818C313.726 149.87 313.469 142.087 308.62 137.396L268.183 98.687C265.862 96.4706 262.767 95.2851 259.57 95.2851Z" fill="black"/>
<path d="M259.468 34.1031L287.062 103.12C289.899 110.233 291.24 96.5221 298.151 93.2233L300.42 92.1409C306.919 89.0483 309.756 81.3168 306.765 74.7708L283.812 23.7428C279.944 15.1866 268.648 13.228 262.15 20.0832C258.642 23.8459 257.559 29.3095 259.468 34.1031Z" fill="#3FD1FF"/>
<path d="M288.661 105.903C288.609 105.903 288.609 105.903 288.558 105.903C287.423 105.851 286.804 104.511 286.34 103.377L258.746 34.3607C256.734 29.3095 257.869 23.4851 261.582 19.5678C264.78 16.1659 269.474 14.6196 274.064 15.3928C278.655 16.1659 282.575 19.207 284.483 23.4335L307.435 74.4615C310.53 81.3683 307.487 89.5637 300.679 92.8109L298.409 93.8933C295.366 95.3366 293.406 99.0992 291.962 101.883C290.827 104.305 289.95 105.903 288.661 105.903ZM260.19 33.7938L287.784 102.81C288.248 103.996 288.558 104.254 288.661 104.357C289.125 104.15 290.002 102.45 290.672 101.161C292.22 98.223 294.334 94.1511 297.842 92.5017L300.111 91.4193C306.197 88.5328 308.879 81.2137 306.094 75.08L283.142 24.0521C281.44 20.2378 277.984 17.6091 273.858 16.8875C269.783 16.2175 265.606 17.5576 262.717 20.5986C259.416 24.1551 258.385 29.3095 260.19 33.7938Z" fill="black"/>
<path d="M297.274 173.682C293.457 166.157 289.279 155.694 287.164 142.756C283.038 117.242 289.382 96.5219 293.405 86.2132L276.488 38.8448C274.734 33.9998 275.972 28.5877 279.685 24.9281C286.391 18.3306 297.635 20.65 301.193 29.3609L311.458 54.4625C314.14 61.06 320.277 76.1623 322.959 82.8114C328.272 95.9549 335.08 112.655 340.393 125.799L350.45 153.168C355.557 167.136 348.903 182.651 335.235 188.527C335.08 188.578 334.926 188.681 334.771 188.733C322.031 194.248 307.177 189.558 299.852 177.754L297.274 173.682Z" fill="#3FD1FF"/>
<path d="M323.632 191.825C320.743 191.825 317.803 191.362 315.018 190.485C308.416 188.424 302.794 184.042 299.184 178.166L296.656 174.094C296.656 174.094 296.656 174.043 296.605 174.043C291.602 164.147 288.198 153.683 286.444 142.911C282.627 119.252 287.682 99.0473 292.633 86.213L275.767 39.1539C273.91 34.0511 275.251 28.2782 279.12 24.464C282.472 21.1652 287.166 19.7736 291.756 20.7529C296.347 21.6807 300.112 24.8248 301.917 29.1545L312.181 54.2561C314.863 60.9052 321.001 75.9559 323.683 82.605C328.996 95.7485 335.804 112.449 341.117 125.592L351.174 152.962C356.435 167.291 349.575 183.269 335.546 189.3L335.082 189.506C331.42 191.001 327.552 191.825 323.632 191.825ZM297.946 173.321L300.473 177.393C307.539 188.784 322.136 193.372 334.411 188.063L334.876 187.857C348.131 182.135 354.63 167.033 349.679 153.477L339.621 126.108C334.308 113.016 327.5 96.264 322.187 83.1204C319.505 76.5228 313.368 61.4206 310.686 54.7715L300.422 29.6699C298.823 25.8042 295.47 23.0208 291.395 22.1961C287.321 21.3714 283.143 22.6085 280.151 25.4949C276.696 28.8968 275.509 33.9995 277.16 38.5869L294.129 85.9037C294.181 86.0584 294.181 86.2645 294.129 86.4192C289.177 99.0988 284.123 119.098 287.888 142.601C289.693 153.271 293.046 163.58 297.946 173.321Z" fill="black"/>
<path d="M239.661 76.4199H105.559V158.374H239.661V76.4199Z" fill="#F15922"/>
<path d="M239.662 159.147H105.559C105.146 159.147 104.785 158.786 104.785 158.374V76.4196C104.785 76.0073 105.146 75.6465 105.559 75.6465H239.662C240.074 75.6465 240.435 76.0073 240.435 76.4196V158.374C240.435 158.786 240.074 159.147 239.662 159.147ZM106.332 157.6H238.888V77.1928H106.332V157.6Z" fill="black"/>
<path d="M172.608 117.912C172.454 117.912 172.35 117.861 172.196 117.809L105.144 77.0897C104.783 76.8836 104.68 76.3681 104.886 76.0073C105.093 75.6465 105.608 75.5434 105.97 75.7496L172.608 116.211L239.247 75.7496C239.608 75.5434 240.072 75.6465 240.33 76.0073C240.536 76.3681 240.433 76.832 240.072 77.0897L173.021 117.809C172.866 117.861 172.711 117.912 172.608 117.912Z" fill="black"/>
<path d="M239.66 159.147C239.505 159.147 239.402 159.096 239.247 159.044L172.608 118.067L105.97 159.044C105.608 159.25 105.144 159.147 104.886 158.787C104.68 158.426 104.783 157.962 105.144 157.704L172.196 116.469C172.454 116.315 172.763 116.315 173.021 116.469L240.072 157.704C240.433 157.91 240.536 158.426 240.33 158.787C240.175 158.993 239.918 159.147 239.66 159.147Z" fill="black"/>
<path d="M456.598 151.777C455.464 151.777 454.535 152.705 454.535 153.839C454.535 154.973 455.464 155.901 456.598 155.901C457.733 155.901 458.661 154.973 458.661 153.839C458.661 152.705 457.733 151.777 456.598 151.777Z" fill="black"/>
<path d="M425.653 149.2C424.518 149.2 423.59 150.128 423.59 151.262C423.59 152.396 424.518 153.324 425.653 153.324C426.788 153.324 427.716 152.396 427.716 151.262C427.716 150.128 426.788 149.2 425.653 149.2Z" fill="black"/>
<path d="M591.734 223.783L565.635 118.738C565.532 118.377 565.222 118.171 564.861 118.171C564.5 118.171 564.191 118.429 564.088 118.789L560.116 135.386C560.013 135.799 560.271 136.211 560.684 136.314C561.096 136.417 561.509 136.16 561.612 135.747L564.81 122.243L589.877 223.216L530.871 223.577L530.046 188.425C530.046 188.012 529.685 187.651 529.273 187.651C528.86 187.651 528.499 188.012 528.499 188.425L528.602 192.187C526.745 198.166 523.599 205.898 517.977 213.835C514.934 218.165 511.736 221.722 508.848 224.556C515.708 224.196 522.516 223.886 529.376 223.526V224.299C529.376 224.711 529.737 225.072 530.149 225.072L590.908 224.711C591.166 224.711 591.372 224.608 591.527 224.402C591.734 224.247 591.785 223.989 591.734 223.783Z" fill="black"/>
<path d="M469.596 99.2031C464.231 99.4093 458.867 100.801 454.07 103.224C450.821 104.873 447.881 106.935 445.251 109.46C444.167 97.3476 452.059 85.7503 452.162 85.5957C452.42 85.2349 452.317 84.771 451.956 84.5133C451.595 84.2556 451.131 84.3586 450.873 84.7194C450.512 85.2349 442.672 96.7291 443.652 109.254C440.97 105.749 437.72 102.657 434.007 100.286C430.138 97.8115 425.857 96.059 421.267 95.1312C420.854 95.0281 420.442 95.3374 420.338 95.7497C420.235 96.1621 420.545 96.5744 420.957 96.6775C425.342 97.5538 429.416 99.2547 433.181 101.626C437.153 104.151 440.609 107.553 443.291 111.419C443.239 111.47 443.188 111.522 443.136 111.574C443.084 111.625 443.084 111.625 443.084 111.677C442.93 111.625 442.775 111.625 442.62 111.574C442.465 111.522 442.259 111.574 442.156 111.677C437.514 111.728 432.82 112.604 428.539 114.357C424.258 116.058 420.338 118.532 416.934 121.728C416.625 122.037 416.625 122.501 416.883 122.81C417.037 122.965 417.244 123.068 417.45 123.068C417.656 123.068 417.811 123.016 417.966 122.862C421.215 119.82 424.98 117.449 429.055 115.8C433.388 114.048 438.184 113.171 442.878 113.223C443.136 113.274 443.394 113.326 443.652 113.378L440.402 134.046C440.351 134.459 440.609 134.871 441.021 134.923C441.073 134.923 441.124 134.923 441.124 134.923C441.485 134.923 441.846 134.665 441.898 134.253L445.148 113.687C448.5 114.512 451.698 115.8 454.689 117.553C459.125 120.13 462.994 123.738 465.985 127.964C466.14 128.171 466.398 128.274 466.604 128.274C466.759 128.274 466.913 128.222 467.068 128.119C467.429 127.861 467.481 127.397 467.274 127.037C464.18 122.604 460.105 118.893 455.515 116.161C452.368 114.305 449.016 112.965 445.509 112.141C445.56 112.037 445.56 111.883 445.509 111.78C445.457 111.625 445.457 111.47 445.457 111.316C448.191 108.584 451.285 106.316 454.741 104.564C459.331 102.244 464.438 100.904 469.596 100.749C470.008 100.749 470.369 100.389 470.318 99.9247C470.369 99.5124 470.008 99.2031 469.596 99.2031Z" fill="black"/>
<path d="M591.578 113.738V342.436C591.578 353.363 600.449 362.229 611.384 362.229H984.964C995.898 362.229 1004.77 353.363 1004.77 342.436C1004.77 336.457 1002.09 330.787 997.394 327.025L947.776 286.872C932.457 274.45 923.534 255.843 923.534 236.102V113.738C923.534 102.811 914.663 93.9455 903.728 93.9455H611.332C600.45 93.894 591.578 102.811 591.578 113.738Z" fill="white"/>
<path d="M985.014 363.001H611.435C600.088 363.001 590.855 353.775 590.855 342.436V113.738C590.855 102.398 600.088 93.1719 611.435 93.1719H903.831C915.178 93.1719 924.41 102.398 924.41 113.738V236.153C924.41 255.74 933.127 273.986 948.342 286.305L997.96 326.457C1002.81 330.374 1005.59 336.199 1005.59 342.436C1005.59 353.775 996.362 363.001 985.014 363.001ZM611.435 94.6666C600.913 94.6666 592.403 103.223 592.403 113.686V342.436C592.403 352.951 600.965 361.455 611.435 361.455H985.014C995.536 361.455 1004.05 352.899 1004.05 342.436C1004.05 336.663 1001.47 331.251 996.981 327.643L947.362 287.49C931.786 274.862 922.863 256.152 922.863 236.153V113.738C922.863 103.223 914.301 94.7182 903.831 94.7182H611.435V94.6666Z" fill="black"/>
<path d="M649.707 362.125C668.997 361.765 688.339 361.404 707.629 361.095C728.57 335.426 749.459 309.757 770.4 284.14C767.614 277.697 763.488 269.657 757.247 261.203C750.542 252.183 742.496 246.256 736.822 241.565C727.28 252.802 717.738 264.038 708.145 275.275C688.648 304.242 669.204 333.21 649.707 362.125Z" fill="#FF6EC1"/>
<path d="M649.705 362.898C649.447 362.898 649.138 362.744 649.035 362.486C648.88 362.228 648.932 361.919 649.086 361.661L707.576 274.81L707.627 274.759L736.305 241.049C736.563 240.74 737.078 240.689 737.388 240.946C738.162 241.616 739.038 242.287 739.915 242.957C745.382 247.338 752.191 252.802 757.967 260.688C763.228 267.852 767.716 275.584 771.223 283.779C771.326 284.037 771.275 284.346 771.12 284.552L708.246 361.558C708.092 361.712 707.885 361.816 707.679 361.868L649.705 362.898ZM708.762 275.738L651.15 361.352L707.266 360.321L769.521 283.985C766.117 276.099 761.784 268.574 756.626 261.616C750.953 253.936 744.196 248.524 738.832 244.194C738.162 243.679 737.543 243.163 736.924 242.648L708.762 275.738Z" fill="black"/>
<path d="M750.129 277.491C744.662 277.852 738.318 277.903 731.355 277.285C719.802 276.254 710.002 273.625 702.523 270.945C701.956 270.069 700.976 268.213 700.924 265.79C700.821 260.945 704.534 257.905 705.05 257.492C704.895 254.709 704.999 248.833 708.506 243.06C713.973 234.04 725.63 228.731 736.049 231.463C744.456 233.679 748.943 240.225 750.181 242.184C760.135 257.234 750.748 276.202 750.129 277.491Z" fill="#349948"/>
<path d="M742.084 278.522C738.473 278.522 734.863 278.367 731.304 278.058C721.453 277.181 711.653 275.017 702.266 271.718C702.111 271.666 701.956 271.563 701.853 271.409C701.079 270.223 700.203 268.316 700.151 265.893C700.048 261.358 703.091 258.265 704.226 257.234C704.071 253.471 704.587 248.008 707.784 242.75C713.561 233.215 725.785 228.112 736.204 230.844C740.227 231.926 746.055 234.658 750.801 241.874C761.065 257.389 751.162 277.078 750.749 277.903C750.646 278.161 750.388 278.315 750.13 278.315C747.5 278.418 744.766 278.522 742.084 278.522ZM703.039 270.326C712.22 273.573 721.814 275.635 731.459 276.511C737.493 277.078 743.58 277.13 749.666 276.769C751.058 273.883 758.743 256.461 749.614 242.699C745.127 235.895 739.711 233.318 735.894 232.339C726.095 229.761 714.644 234.607 709.177 243.575C706.082 248.678 705.67 253.987 705.825 257.543C705.825 257.801 705.721 258.007 705.515 258.213C704.845 258.729 701.647 261.564 701.698 265.893C701.75 267.697 702.42 269.295 703.039 270.326Z" fill="black"/>
<path d="M764.725 234.658L798.766 240.843C804.027 247.544 813.724 262.131 811.712 278.934C811.145 283.779 809.649 288.212 808.875 290.583C805.059 302.077 799.23 310.633 794.434 316.354C797.116 317.282 801.603 319.292 805.884 323.467C811.248 328.673 813.363 334.446 814.188 337.281C816.561 339.549 819.449 342.796 822.079 347.126C825.277 352.435 826.825 357.383 827.65 360.888C787.058 360.888 746.518 360.888 705.926 360.888C706.493 357.847 707.783 353.208 710.671 348.311C713.714 343.105 717.273 339.652 719.749 337.642C720.626 334.91 722.534 330.323 726.454 325.787C730.838 320.787 735.686 318.261 738.42 317.076C737.337 316.56 731.612 313.829 729.239 307.128C727.279 301.664 728.723 296.974 729.239 295.531C725.319 291.201 723.411 287.026 722.431 284.243C717.067 269.089 723.772 251.307 735.067 242.75C738.11 240.431 740.999 239.245 743.475 238.215C752.037 234.658 759.928 234.4 764.725 234.658Z" fill="#349948"/>
<path d="M827.65 361.713H705.926C705.72 361.713 705.462 361.61 705.307 361.455C705.152 361.301 705.101 361.043 705.152 360.837C706.029 356.301 707.628 351.971 709.949 348.002C712.322 343.93 715.416 340.322 719.027 337.281C720.471 332.849 722.792 328.88 725.835 325.375C728.826 321.973 732.54 319.138 736.615 317.128C734.242 315.736 730.322 312.747 728.414 307.438C726.66 302.541 727.485 298.16 728.259 295.789C725.268 292.387 723.05 288.624 721.606 284.604C715.932 268.522 723.72 250.431 734.5 242.235C737.646 239.864 740.638 238.576 743.062 237.596C749.819 234.762 757.091 233.524 764.673 233.937C764.725 233.937 764.725 233.937 764.776 233.937L798.818 240.122C799.024 240.174 799.179 240.277 799.282 240.431C806.297 249.4 814.24 263.368 812.383 279.089C811.815 283.882 810.32 288.315 809.546 290.686L809.494 290.892C806.503 299.964 801.809 308.469 795.62 316.097C799.591 317.695 803.305 320.066 806.348 323.004C811.3 327.797 813.672 333.209 814.807 336.972C817.85 339.91 820.532 343.26 822.698 346.868C825.329 351.198 827.237 355.94 828.372 360.888C828.424 361.094 828.372 361.352 828.217 361.558C828.114 361.558 827.908 361.713 827.65 361.713ZM706.906 360.167H826.721C825.587 355.734 823.833 351.507 821.46 347.538C819.294 343.982 816.715 340.735 813.672 337.848C813.569 337.745 813.517 337.642 813.466 337.487C812.434 333.931 810.165 328.674 805.368 323.983C802.222 320.942 798.354 318.52 794.176 317.025C793.918 316.922 793.763 316.767 793.712 316.509C793.66 316.252 793.712 315.994 793.866 315.788C800.314 308.108 805.11 299.5 808.153 290.274L808.205 290.068C808.979 287.748 810.423 283.418 810.99 278.78C812.795 263.729 805.162 250.225 798.405 241.462L764.725 235.328C757.401 234.968 750.334 236.153 743.836 238.885C741.36 239.916 738.626 241.05 735.635 243.318C725.268 251.152 717.84 268.522 723.256 283.934C724.649 287.903 726.918 291.614 729.91 294.964C730.116 295.17 730.167 295.48 730.064 295.737C729.342 297.799 728.362 302.026 730.064 306.819C732.231 312.901 737.337 315.633 738.884 316.355C739.142 316.458 739.348 316.767 739.348 317.076C739.348 317.386 739.142 317.643 738.884 317.798C734.448 319.705 730.374 322.695 727.176 326.303C724.236 329.704 722.018 333.57 720.626 337.9C720.574 338.054 720.471 338.158 720.368 338.261C716.809 341.199 713.766 344.704 711.445 348.724C709.227 352.28 707.731 356.095 706.906 360.167Z" fill="black"/>
<path d="M765.191 322.541C764.52 322.541 763.85 322.541 763.179 322.541C754.669 322.335 746.262 320.737 738.164 317.85C737.751 317.696 737.545 317.283 737.7 316.871C737.855 316.459 738.267 316.252 738.68 316.407C746.571 319.242 754.824 320.788 763.179 320.994C773.856 321.252 784.326 319.397 794.332 315.376C794.745 315.222 795.158 315.428 795.312 315.789C795.467 316.149 795.261 316.613 794.9 316.768C785.358 320.634 775.403 322.541 765.191 322.541Z" fill="black"/>
<path d="M893.309 318.881L812.95 238.01C806.709 231.721 797.167 229.711 789.069 233.319C786.078 234.659 783.396 236.669 781.23 239.35C781.126 239.453 781.075 239.556 780.972 239.659C780.817 239.865 780.662 240.071 780.507 240.277C772.564 250.741 773.39 265.431 782.261 275.121C804.285 299.295 826.309 323.52 848.333 347.694C809.03 387.898 778.032 414.958 768.541 419.7C768.232 419.855 767.922 420.01 767.664 420.113C761.939 422.793 755.595 423.824 749.303 423.36C746.672 423.154 744.042 423.308 741.411 423.721L670.027 432.793C665.076 433.566 661.517 437.895 661.775 442.895C662.033 448.41 665.85 454.905 671.368 454.492L702.47 452.327L673.793 479.749C670.904 482.48 669.666 486.604 670.801 490.366C671.162 491.552 671.678 492.634 672.452 493.614C674.05 495.727 676.423 497.067 679.002 497.583C682.767 498.304 686.584 496.861 689.163 494.026C695.197 487.428 701.284 480.831 707.318 474.182C707.473 478.202 709.433 479.8 712.373 482.532C717.737 487.428 723.05 492.377 728.414 497.273C732.643 501.139 739.193 500.83 743.062 496.603C746.93 492.377 746.621 485.831 742.391 481.965L731.663 473.048L777.877 470.265C769.47 479.697 762.249 487.016 754.151 495.985C749.664 500.933 750.231 508.819 755.595 512.788C755.75 512.942 755.956 513.046 756.163 513.149C758.948 515.004 762.3 515.571 765.447 514.901C768.077 514.386 770.398 512.839 771.997 510.675C788.399 489.336 808.411 465.986 832.601 442.173C853.026 422.071 873.038 404.908 891.71 390.372C902.644 381.867 909.195 368.827 909.091 355.013C909.091 354.601 909.091 354.188 909.04 353.724C908.318 334.086 896.094 321.561 893.309 318.881Z" fill="#FF6EC1"/>
<path d="M762.867 516.035C760.34 516.035 757.864 515.313 755.698 513.87C755.491 513.715 755.285 513.612 755.13 513.458C752.448 511.447 750.746 508.509 750.385 505.108C750.024 501.603 751.159 498.149 753.531 495.521C757.09 491.603 760.546 487.944 763.847 484.387C767.767 480.212 771.738 475.934 776.019 471.192L733.622 473.718L742.855 481.346C745.073 483.356 746.362 486.14 746.517 489.078C746.671 492.067 745.64 494.902 743.628 497.118C741.617 499.335 738.883 500.623 735.892 500.726C732.9 500.829 730.063 499.85 727.846 497.84L711.444 482.738C709.123 480.573 707.317 478.924 706.699 475.934L689.678 494.541C686.893 497.634 682.715 499.077 678.795 498.304C675.906 497.737 673.431 496.242 671.78 494.026C671.007 492.995 670.388 491.809 670.027 490.521C668.84 486.552 670.13 482.068 673.224 479.13L700.354 453.203L671.368 455.265C669.304 455.42 667.241 454.698 665.539 453.1C662.96 450.781 661.155 446.76 661 442.895C660.743 437.534 664.611 432.844 669.923 432.019L741.307 422.947C743.989 422.535 746.723 422.38 749.354 422.587C755.749 423.051 761.99 421.917 767.354 419.391C767.664 419.236 767.922 419.133 768.231 418.979C777.257 414.443 807.276 388.516 847.3 347.642L781.745 275.636C772.564 265.533 771.842 250.483 779.991 239.813C780.146 239.607 780.3 239.401 780.455 239.195L780.713 238.885C782.931 236.154 785.664 234.04 788.862 232.649C797.115 228.938 807.069 230.896 813.62 237.494L893.978 318.365C898.569 322.798 909.245 335.169 909.864 353.879C909.864 354.291 909.864 354.755 909.916 355.167C910.019 368.981 903.417 382.434 892.225 391.145C871.645 407.175 851.787 424.545 833.219 442.895C811.608 464.234 791.235 487.222 772.718 511.293C770.913 513.612 768.437 515.21 765.704 515.777C764.621 515.932 763.744 516.035 762.867 516.035ZM777.825 469.543C778.134 469.543 778.392 469.697 778.495 469.955C778.65 470.213 778.598 470.574 778.392 470.831C773.647 476.14 769.211 480.882 764.93 485.47C761.629 489.026 758.173 492.686 754.615 496.603C752.551 498.871 751.571 501.912 751.881 504.953C752.19 507.891 753.635 510.468 756.007 512.221C756.162 512.324 756.368 512.478 756.523 512.581C759.102 514.282 762.196 514.849 765.24 514.231C767.612 513.767 769.778 512.324 771.326 510.313C789.894 486.191 810.319 463.1 831.982 441.709C850.601 423.36 870.51 405.887 891.141 389.856C901.921 381.454 908.317 368.466 908.214 355.116C908.214 354.703 908.214 354.291 908.214 353.879C907.595 335.735 897.228 323.777 892.792 319.448L812.433 238.576C806.347 232.443 797.063 230.639 789.43 234.04C786.49 235.381 783.911 237.339 781.848 239.865L781.59 240.174C781.435 240.38 781.28 240.535 781.126 240.741C773.441 250.844 774.163 265.07 782.828 274.605L848.899 347.178C849.157 347.487 849.157 347.951 848.899 348.261C808.513 389.598 778.082 415.834 768.902 420.422C768.592 420.576 768.283 420.731 767.973 420.886C762.351 423.514 755.852 424.648 749.199 424.184C746.672 424.03 744.093 424.133 741.462 424.545L670.078 433.617C665.539 434.339 662.29 438.307 662.496 442.895C662.651 446.4 664.25 449.956 666.519 452.018C667.963 453.306 669.562 453.873 671.213 453.77L702.314 451.606C702.624 451.554 702.933 451.76 703.088 452.069C703.243 452.379 703.14 452.74 702.933 452.946L674.256 480.367C671.574 482.944 670.439 486.81 671.471 490.212C671.78 491.294 672.296 492.325 672.967 493.201C674.411 495.108 676.577 496.397 679.053 496.861C682.405 497.531 686.067 496.242 688.491 493.562L706.647 473.718C706.853 473.511 707.214 473.408 707.472 473.512C707.782 473.615 707.988 473.872 707.988 474.182C708.143 477.686 709.742 479.181 712.424 481.655L728.826 496.758C730.734 498.51 733.158 499.386 735.737 499.283C738.316 499.18 740.688 498.046 742.39 496.191C744.144 494.283 745.021 491.861 744.918 489.284C744.815 486.707 743.68 484.336 741.823 482.635L731.147 473.769C730.889 473.563 730.785 473.254 730.889 472.944C730.992 472.635 731.25 472.429 731.559 472.429L777.825 469.543C777.825 469.543 777.773 469.543 777.825 469.543Z" fill="black"/>
<path d="M771.793 265.945C774.836 270.739 779.323 273.058 781.748 274.089C787.989 274.45 795.467 274.347 803.823 273.058C821.153 270.326 834.306 263.626 842.558 258.471C835.028 253.317 827.549 248.214 820.018 243.06C819.451 240.328 817.801 234.71 812.901 230.019C805.164 222.649 792.424 220.793 783.295 226.05C776.899 229.71 774.32 235.689 772.464 240.07" fill="#349948"/>
<path d="M787.935 275.068C785.82 275.068 783.757 275.017 781.643 274.862C781.54 274.862 781.488 274.862 781.385 274.811C776.949 272.904 773.39 270.017 771.121 266.358C770.914 265.997 771.018 265.533 771.379 265.275C771.74 265.069 772.204 265.172 772.462 265.533C774.576 268.883 777.826 271.563 781.952 273.316C789.225 273.728 796.549 273.419 803.718 272.285C816.922 270.223 829.507 265.533 841.164 258.42L819.604 243.678C819.449 243.575 819.346 243.421 819.295 243.215C818.521 239.71 816.716 234.71 812.383 230.586C804.801 223.37 792.422 221.721 783.654 226.772C777.465 230.329 774.989 236.153 773.132 240.431C772.978 240.844 772.513 240.998 772.101 240.844C771.688 240.689 771.533 240.225 771.688 239.813C773.597 235.328 776.227 229.246 782.881 225.432C792.216 220.072 805.369 221.773 813.415 229.504C817.902 233.782 819.862 238.936 820.687 242.648L842.969 257.853C843.175 258.008 843.33 258.265 843.33 258.523C843.33 258.781 843.175 259.038 842.969 259.142C830.848 266.718 817.747 271.667 803.976 273.883C798.663 274.656 793.299 275.068 787.935 275.068Z" fill="black"/>
<path d="M718.15 201.877L713.765 210.588C712.012 214.041 714.23 218.216 718.046 218.783L743.423 222.391L718.15 201.877Z" fill="#F9D84E"/>
<path d="M743.475 223.165C743.423 223.165 743.423 223.165 743.372 223.165L717.995 219.557C715.932 219.248 714.179 218.011 713.199 216.155C712.219 214.3 712.219 212.135 713.147 210.279L717.531 201.568C717.634 201.362 717.841 201.208 718.047 201.156C718.253 201.105 718.511 201.156 718.717 201.311L743.991 221.825C744.249 222.031 744.352 222.392 744.197 222.753C744.042 222.959 743.733 223.165 743.475 223.165ZM718.408 203.063L714.488 210.949C713.766 212.393 713.766 213.99 714.54 215.434C715.262 216.877 716.603 217.805 718.202 218.011L740.793 221.258L718.408 203.063Z" fill="black"/>
<path d="M727.434 177.188C724.856 177.291 722.277 177.394 719.698 177.497C715.623 177.651 711.858 180.125 710.362 183.94C709.537 186.053 709.331 188.527 710.104 190.898L710.929 193.578C712.477 198.526 717.428 201.619 722.535 200.794C724.082 200.537 725.681 200.279 727.228 200.021" fill="#FF6EC1"/>
<path d="M720.937 201.67C716.089 201.67 711.653 198.526 710.209 193.784L709.384 191.104C708.61 188.63 708.713 186.053 709.642 183.63C711.24 179.61 715.16 176.878 719.648 176.723L727.384 176.414C727.797 176.363 728.158 176.723 728.21 177.136C728.21 177.548 727.9 177.909 727.488 177.96L719.751 178.27C715.883 178.424 712.478 180.744 711.086 184.197C710.261 186.259 710.157 188.475 710.828 190.64L711.653 193.32C713.097 197.856 717.688 200.743 722.433 199.969L727.126 199.196C727.539 199.145 727.952 199.402 728.003 199.815C728.055 200.227 727.797 200.639 727.384 200.691L722.691 201.464C722.123 201.619 721.504 201.67 720.937 201.67Z" fill="black"/>
<path d="M774.888 166.157C771.175 161.982 767.048 159.147 763.386 157.24C753.071 158.065 742.755 158.941 732.491 159.766C730.634 161.106 727.179 164.044 724.754 168.941C724.548 174.198 722.279 176.981 722.175 179.198C715.109 192.702 717.172 208.01 726.302 216.309C733.677 223.061 743.322 222.907 746.108 222.803C746.572 229.916 746.933 230.277 747.346 236.462C743.993 238.885 738.938 243.112 734.554 249.812C730.015 256.719 728.159 263.265 727.333 267.337C731.202 267.543 735.07 267.749 738.938 267.955C748.635 268.471 757.661 263.317 762.252 254.76C762.303 254.657 762.355 254.554 762.406 254.451C766.687 246.513 771.484 240.431 775.61 236.05C775.662 234.195 775.713 233.112 775.713 232.391C775.713 232.184 775.765 231.153 775.817 229.762C775.817 229.607 775.817 229.659 775.92 227.133C776.023 225.329 776.126 221.669 776.281 218.371L784.327 207.753C785.152 204.042 788.969 182.084 774.888 166.157Z" fill="#FF6EC1"/>
<path d="M740.277 268.781C739.813 268.781 739.401 268.781 738.936 268.729L727.331 268.111C727.125 268.111 726.919 268.007 726.764 267.801C726.609 267.647 726.558 267.389 726.609 267.183C727.899 260.791 730.374 254.812 733.933 249.4C737.337 244.246 741.567 239.762 746.57 236.102C746.364 233.473 746.209 231.927 746.002 230.432C745.796 228.731 745.59 226.927 745.384 223.577C741.257 223.68 732.541 223.01 725.784 216.876C716.19 208.114 714.385 192.6 721.4 178.992C721.451 178.064 721.864 177.033 722.277 175.899C722.947 174.147 723.824 171.931 723.927 168.89C723.927 168.786 723.979 168.683 724.03 168.58C725.836 164.869 728.621 161.57 731.973 159.096C732.076 158.993 732.231 158.942 732.386 158.942L763.281 156.416C763.436 156.416 763.591 156.416 763.694 156.519C768.233 158.89 772.153 161.983 775.402 165.642C788.967 180.951 786.285 201.877 785.15 207.908C785.15 208.011 785.099 208.114 784.995 208.217L777.052 218.68C776.949 220.433 776.898 222.237 776.846 223.783C776.795 225.175 776.743 226.36 776.691 227.185C776.588 229.041 776.588 229.505 776.588 229.659V229.814C776.537 230.845 776.485 231.669 776.485 232.133V232.443C776.434 233.37 776.382 234.556 776.382 236.051C776.382 236.257 776.279 236.411 776.176 236.566C771.069 242.081 766.634 248.215 763.126 254.812L762.972 255.07C758.484 263.523 749.716 268.781 740.277 268.781ZM728.311 266.616L739.039 267.183C748.375 267.698 757.195 262.647 761.631 254.4L761.785 254.091C765.344 247.442 769.78 241.308 774.886 235.741C774.938 234.35 774.938 233.216 774.989 232.339V232.03C774.989 231.566 775.041 230.742 775.092 229.711V229.556C775.092 229.35 775.144 228.886 775.196 227.03C775.247 226.206 775.299 225.02 775.35 223.629C775.402 221.979 775.505 220.072 775.557 218.268C775.557 218.113 775.608 217.959 775.711 217.856L783.654 207.392C784.789 201.31 787.265 181.26 774.267 166.622C771.173 163.168 767.459 160.23 763.178 157.962L732.695 160.488C730.529 162.086 727.589 164.869 725.475 169.096C725.32 172.343 724.443 174.611 723.721 176.466C723.308 177.6 722.947 178.477 722.896 179.198C722.896 179.301 722.844 179.404 722.792 179.507C715.984 192.496 717.635 207.392 726.764 215.691C733.572 221.876 742.495 222.134 746.002 221.979C746.415 221.979 746.776 222.288 746.828 222.701C747.086 226.464 747.292 228.371 747.498 230.226C747.705 231.824 747.859 233.473 748.066 236.411C748.066 236.669 747.962 236.927 747.756 237.081C742.753 240.638 738.524 245.071 735.171 250.225C731.922 255.276 729.601 260.791 728.311 266.616Z" fill="black"/>
<path d="M772.464 202.186C772.516 202.34 772.413 202.34 772.413 202.495C771.639 206.824 772 210.329 772.928 213.164C774.115 216.875 777.725 219.298 781.645 218.937C787.989 218.37 794.333 217.752 800.677 217.185C804.7 216.824 806.97 212.34 804.855 208.886C800.471 201.773 796.293 193.165 793.405 183.166C792.58 180.383 791.909 177.651 791.393 175.022V174.197C791.393 172.651 791.6 171.105 791.961 169.61C792.734 166.569 793.56 160.435 789.846 155.023C786.132 149.56 781.387 146.776 774.992 147.859C772.361 148.271 769.679 148.22 767.152 147.498C746.778 141.467 728.984 146.055 724.342 155.539C723.62 157.034 720.525 160.951 721.815 167.6C722.279 169.919 722.279 171.62 722.537 173.991C722.691 175.331 723.052 177.393 722.795 178.733C727.798 174.455 731.202 170.126 736.205 165.847C737.752 167.703 739.609 169.455 741.878 171.002C753.845 179.043 768.854 180.537 772.052 179.506C771.02 195.691 771.484 197.804 772.464 202.186Z" fill="#F9D84E"/>
<path d="M780.82 219.762C776.9 219.762 773.393 217.237 772.155 213.422C771.072 210.072 770.917 206.361 771.587 202.341C771.587 202.289 771.587 202.238 771.639 202.186C770.711 198.011 770.246 195.692 771.123 180.435C766.223 181.053 752.503 179.095 741.363 171.621C739.403 170.332 737.649 168.734 736.05 166.93C733.832 168.889 731.872 170.899 729.964 172.806C727.901 174.92 725.735 177.136 723.207 179.301C722.949 179.507 722.588 179.558 722.33 179.404C722.021 179.249 721.918 178.888 721.969 178.579C722.176 177.651 721.969 176.26 721.815 175.074C721.763 174.713 721.711 174.353 721.711 174.043C721.66 173.373 721.608 172.755 721.557 172.188C721.454 170.693 721.35 169.404 720.989 167.755C719.855 161.776 722.124 157.859 723.207 155.952C723.362 155.642 723.517 155.436 723.62 155.23C728.726 144.715 747.965 141.004 767.358 146.777C769.627 147.447 772.155 147.55 774.837 147.138C781.181 146.107 786.287 148.529 790.465 154.611C794.333 160.23 793.508 166.57 792.734 169.817C792.373 171.312 792.167 172.755 792.167 174.198V174.92C792.734 177.6 793.405 180.332 794.127 182.96C796.706 191.826 800.523 200.434 805.474 208.474C806.609 210.33 806.712 212.598 805.732 214.556C804.752 216.515 802.895 217.804 800.729 217.958L781.697 219.711C781.439 219.762 781.129 219.762 780.82 219.762ZM772 178.682C772.155 178.682 772.361 178.734 772.464 178.837C772.671 178.992 772.774 179.249 772.774 179.507C771.794 195.64 772.258 197.753 773.238 201.98C773.289 202.289 773.238 202.495 773.186 202.598C772.516 206.361 772.671 209.814 773.702 212.907C774.785 216.309 778.035 218.474 781.593 218.113L800.626 216.36C802.276 216.206 803.669 215.226 804.391 213.783C805.113 212.34 805.061 210.588 804.185 209.196C799.13 201.001 795.262 192.29 792.631 183.27C791.858 180.589 791.187 177.806 790.62 175.023C790.62 174.971 790.62 174.92 790.62 174.868V174.043C790.62 172.497 790.826 170.899 791.239 169.301C792.012 166.312 792.734 160.487 789.227 155.333C785.41 149.766 780.82 147.55 775.146 148.478C772.206 148.942 769.473 148.839 766.945 148.065C746.056 141.88 729.242 147.086 725.064 155.745C724.961 155.952 724.806 156.261 724.6 156.57C723.517 158.426 721.557 161.879 722.588 167.343C722.898 169.044 723.052 170.487 723.156 171.93C723.207 172.497 723.259 173.116 723.31 173.786C723.362 174.095 723.362 174.404 723.414 174.765C723.517 175.435 723.568 176.157 723.62 176.827C725.528 175.074 727.23 173.322 728.932 171.621C730.995 169.508 733.162 167.291 735.689 165.126C735.844 164.972 736.05 164.92 736.256 164.92C736.463 164.92 736.669 165.023 736.772 165.178C738.371 167.137 740.228 168.837 742.291 170.178C754.102 178.115 768.854 179.558 771.794 178.579C771.845 178.734 771.897 178.682 772 178.682Z" fill="black"/>
<path d="M769.418 179.816C771.997 179.61 774.576 179.455 777.155 179.249C781.229 178.94 785.201 180.95 787.161 184.558C788.244 186.568 788.708 188.991 788.244 191.413L787.728 194.145C787.264 196.671 785.871 198.887 783.963 200.382C781.9 202.031 779.63 202.289 777 202.65C774.524 202.959 772.409 202.856 771.017 202.701" fill="#FF6EC1"/>
<path d="M773.854 203.681C772.874 203.681 771.894 203.629 770.914 203.526C770.502 203.475 770.192 203.114 770.244 202.65C770.295 202.238 770.656 201.928 771.121 201.98C773.029 202.186 774.989 202.186 776.897 201.928H777.104C779.528 201.619 781.642 201.31 783.499 199.867C785.305 198.423 786.542 196.362 787.007 194.094L787.522 191.362C787.935 189.146 787.574 186.981 786.542 184.971C784.789 181.723 781.127 179.765 777.258 180.074L769.522 180.641C769.109 180.692 768.748 180.332 768.696 179.919C768.645 179.507 769.006 179.146 769.418 179.095L777.155 178.528C781.642 178.218 785.872 180.435 787.883 184.249C789.121 186.517 789.534 189.094 789.018 191.62L788.502 194.351C787.987 196.98 786.542 199.403 784.479 201.052C782.313 202.805 779.889 203.114 777.361 203.423H777.155C776.02 203.578 774.937 203.681 773.854 203.681Z" fill="black"/>
<path d="M740.02 190.436L735.585 190.59C733.625 190.796 732.284 192.6 732.645 194.507C732.954 196.208 734.502 197.342 736.255 197.188L741.722 196.93" fill="#FF6EC1"/>
<path d="M584.204 662.211C593.318 662.211 600.709 654.825 600.709 645.718C600.709 636.61 593.318 629.224 584.204 629.224C575.09 629.224 567.699 636.61 567.699 645.718C567.699 654.825 575.09 662.211 584.204 662.211Z" fill="#3FD1FF"/>
<path d="M584.204 662.985C574.663 662.985 566.926 655.254 566.926 645.718C566.926 636.183 574.663 628.451 584.204 628.451C593.746 628.451 601.483 636.183 601.483 645.718C601.483 655.254 593.746 662.985 584.204 662.985ZM584.204 629.997C575.539 629.997 568.473 637.059 568.473 645.718C568.473 654.377 575.539 661.439 584.204 661.439C592.87 661.439 599.936 654.377 599.936 645.718C599.936 637.059 592.87 629.997 584.204 629.997Z" fill="black"/>
<path d="M802.947 539.538H668.844V621.492H802.947V539.538Z" fill="#F9D84E"/>
<path d="M802.947 622.266H668.844C668.431 622.266 668.07 621.905 668.07 621.493V539.539C668.07 539.126 668.431 538.766 668.844 538.766H802.947C803.359 538.766 803.72 539.126 803.72 539.539V621.493C803.72 621.905 803.359 622.266 802.947 622.266ZM669.618 620.72H802.173V540.312H669.618V620.72Z" fill="black"/>
<path d="M668.844 539.538L735.895 580.257L802.947 539.538" fill="white"/>
<path d="M735.893 581.031C735.739 581.031 735.636 580.98 735.481 580.928L668.429 540.209C668.068 540.003 667.965 539.487 668.172 539.126C668.378 538.766 668.894 538.663 669.255 538.869L735.893 579.33L802.532 538.869C802.893 538.663 803.358 538.766 803.615 539.126C803.873 539.487 803.719 539.951 803.358 540.209L736.306 580.928C736.151 580.98 735.997 581.031 735.893 581.031Z" fill="black"/>
<path d="M668.844 621.493L735.895 580.258L802.947 621.493" fill="#F9D84E"/>
<path d="M802.945 622.266C802.79 622.266 802.687 622.214 802.532 622.162L735.893 581.185L669.255 622.162C668.894 622.369 668.429 622.266 668.172 621.905C667.965 621.544 668.068 621.08 668.429 620.822L735.481 579.588C735.739 579.433 736.048 579.433 736.306 579.588L803.357 620.822C803.719 621.029 803.822 621.544 803.615 621.905C803.461 622.111 803.203 622.266 802.945 622.266Z" fill="black"/>
<path d="M802.947 540.054L735.895 499.335L668.844 540.054H802.947Z" fill="#F9D84E"/>
<path d="M802.943 540.827H668.84C668.479 540.827 668.17 540.621 668.118 540.26C668.067 539.9 668.17 539.59 668.479 539.384L735.531 498.665C735.788 498.51 736.098 498.51 736.356 498.665L803.407 539.384C803.717 539.539 803.82 539.9 803.768 540.26C803.717 540.621 803.252 540.827 802.943 540.827ZM671.574 539.281H800.158L735.892 500.263L671.574 539.281Z" fill="black"/>
<path d="M719.234 289.5C725.372 293.417 727.899 299.035 728.725 301.097C728.828 299.035 728.983 297.025 729.086 294.963C728.209 293.881 727.28 292.695 726.352 291.355C724.65 288.83 723.412 286.407 722.432 284.294C721.813 281.407 721.194 278.469 720.524 275.583C716.655 274.81 712.787 273.985 708.919 273.212C706.391 277.542 703.812 281.923 701.285 286.252C703.142 285.84 711.291 284.448 719.234 289.5Z" fill="black"/>
<path d="M738.163 208.113C741.928 208.732 746.467 205.175 746.415 199.866C741.773 199.866 737.131 199.866 732.489 199.866C732.231 204.093 735.017 207.546 738.163 208.113Z" fill="black"/>
<path d="M779.166 186.413C778.753 186.413 778.392 186.774 778.392 187.186L778.289 196.413C778.289 196.825 778.65 197.186 779.063 197.186C779.475 197.186 779.837 196.825 779.837 196.413L779.94 187.186C779.94 186.774 779.579 186.413 779.166 186.413Z" fill="black"/>
<path d="M745.898 222.082C745.95 225.587 746.878 229.195 746.982 232.7C751.52 231.566 755.234 230.741 759.876 229.453C761.991 228.886 764.105 228.267 766.169 227.7C768.902 226.927 770.707 224.453 770.656 221.618C768.025 222.082 765.137 222.494 762.094 222.752C756.008 223.216 750.54 222.546 745.898 222.082Z" fill="black"/>
<path d="M732.645 191.464C731.975 192.392 731.665 193.526 731.872 194.66C732.233 196.619 733.935 198.01 735.843 198.01C735.998 198.01 736.101 198.01 736.256 198.01L741.723 197.753C742.136 197.753 742.497 197.392 742.445 196.928C742.445 196.516 742.084 196.155 741.62 196.206L736.101 196.464C734.812 196.619 733.574 195.691 733.368 194.402C733.213 193.681 733.419 193.011 733.832 192.392C734.244 191.825 734.915 191.464 735.585 191.413L740.021 191.258C740.434 191.258 740.795 190.897 740.743 190.434C740.743 190.021 740.382 189.66 739.918 189.712L735.482 189.867C734.399 189.918 733.368 190.537 732.645 191.464Z" fill="black"/>
<path d="M747.911 189.763C749.046 189.815 750.026 188.939 750.078 187.805C750.129 186.671 749.252 185.691 748.118 185.64C746.983 185.588 746.003 186.465 745.951 187.599C745.9 188.732 746.777 189.66 747.911 189.763Z" fill="black"/>
<path d="M734.449 186.929C734.5 185.795 733.623 184.815 732.489 184.764C731.354 184.712 730.374 185.589 730.322 186.723C730.271 187.857 731.148 188.836 732.282 188.887C733.417 188.99 734.397 188.063 734.449 186.929Z" fill="black"/>
<path d="M754.461 451.399L729.342 453.306C723.308 453.77 717.892 456.863 714.385 461.759C713.198 463.46 711.806 465.625 710.465 467.79C709.124 469.903 707.783 472.12 706.596 473.769C706.339 474.13 706.442 474.594 706.803 474.851C706.957 474.954 707.112 475.006 707.267 475.006C707.525 475.006 707.731 474.903 707.886 474.697C709.072 472.996 710.465 470.779 711.806 468.666C713.147 466.553 714.488 464.337 715.674 462.687C718.924 458.151 723.927 455.316 729.497 454.853L754.615 452.945C755.028 452.894 755.338 452.533 755.338 452.121C755.234 451.657 754.873 451.348 754.461 451.399Z" fill="black"/>
<path d="M741.463 439.184C741.875 439.081 742.133 438.668 742.082 438.256C741.978 437.844 741.566 437.586 741.153 437.637L713.353 443.307C709.742 444.029 706.493 445.884 704.017 448.616L702.212 450.575C701.902 450.884 701.954 451.4 702.263 451.657C702.418 451.812 702.573 451.863 702.779 451.863C702.985 451.863 703.192 451.76 703.347 451.606L705.152 449.647C707.421 447.173 710.361 445.524 713.662 444.853L741.463 439.184Z" fill="black"/>
<path d="M861.126 344.806L848.644 345.786C848.231 345.837 847.922 346.198 847.922 346.61C847.973 347.023 848.283 347.332 848.696 347.332H848.747L861.229 346.353C861.642 346.301 861.951 345.94 861.951 345.528C861.9 345.064 861.538 344.755 861.126 344.806Z" fill="black"/>
<path d="M836.935 262.131C831.107 265.378 823.061 269.089 812.952 271.615C800.212 274.759 789.226 274.759 781.695 274.14C784.481 274.14 788.762 274.192 794.022 274.244C814.602 274.553 825.072 274.759 834.047 276.357C839.824 277.388 848.231 279.398 858.289 283.728C851.171 276.511 844.053 269.295 836.935 262.131Z" fill="black"/>
<path d="M813.929 336.559L804.078 340.116C803.665 340.27 803.459 340.683 803.614 341.095C803.717 341.404 804.027 341.61 804.336 341.61C804.439 341.61 804.491 341.61 804.594 341.559L814.445 338.002C814.858 337.848 815.064 337.435 814.909 337.023C814.755 336.611 814.29 336.405 813.929 336.559Z" fill="black"/>
<path d="M731.199 329.498L719.336 337.023C718.975 337.229 718.871 337.745 719.078 338.105C719.233 338.363 719.49 338.466 719.748 338.466C719.903 338.466 720.058 338.415 720.161 338.363L732.024 330.838C732.385 330.632 732.488 330.116 732.282 329.755C732.024 329.395 731.56 329.291 731.199 329.498Z" fill="black"/>
<path d="M802.583 248.163C802.583 248.163 802.635 248.163 802.583 248.163C812.538 247.751 820.017 243.885 820.326 243.73C820.687 243.524 820.842 243.06 820.635 242.699C820.429 242.339 819.965 242.184 819.604 242.39C819.552 242.442 812.125 246.256 802.532 246.668C802.119 246.668 801.758 247.029 801.81 247.493C801.81 247.854 802.171 248.163 802.583 248.163Z" fill="black"/>
<path d="M706.082 258.316H712.633C713.045 258.316 713.406 257.955 713.406 257.543C713.406 257.13 713.045 256.77 712.633 256.77H706.082C705.67 256.77 705.309 257.13 705.309 257.543C705.309 257.955 705.67 258.316 706.082 258.316Z" fill="black"/>
<path d="M730.067 296.201H736.617C737.03 296.201 737.391 295.84 737.391 295.427C737.391 295.015 737.03 294.654 736.617 294.654H730.067C729.654 294.654 729.293 295.015 729.293 295.427C729.293 295.84 729.602 296.201 730.067 296.201Z" fill="black"/>
<path d="M787.883 179.918C787.986 179.97 788.089 179.97 788.192 179.97C788.502 179.97 788.759 179.815 788.914 179.506L792.318 171.62C792.473 171.208 792.318 170.795 791.906 170.589C791.493 170.434 791.08 170.589 790.874 171.001L787.47 178.888C787.315 179.3 787.522 179.764 787.883 179.918Z" fill="black"/>
<path d="M735.534 166.311C735.689 166.517 735.895 166.569 736.153 166.569C736.307 166.569 736.514 166.518 736.668 166.415C736.978 166.157 737.03 165.641 736.772 165.332L726.508 152.91C726.25 152.6 725.734 152.549 725.425 152.807C725.115 153.064 725.063 153.58 725.321 153.89L735.534 166.311Z" fill="black"/>
<path d="M414.872 434.854V663.552C414.872 674.479 406 683.345 395.066 683.345H21.4349C10.5003 683.345 1.62891 674.479 1.62891 663.552C1.62891 657.573 4.31096 651.903 9.00456 648.141L58.6226 607.988C73.9413 595.566 82.8642 576.959 82.8642 557.218V434.802C82.8642 423.875 91.7357 415.01 102.67 415.01H395.066C405.949 415.061 414.872 423.927 414.872 434.854Z" fill="white"/>
<path d="M395.015 684.118H21.4351C10.0879 684.118 0.855469 674.891 0.855469 663.552C0.855469 657.315 3.64068 651.491 8.48901 647.573L58.107 607.421C73.3226 595.102 82.0392 576.856 82.0392 557.269V434.854C82.0392 423.514 91.2717 414.288 102.619 414.288H395.015C406.362 414.288 415.594 423.514 415.594 434.854V663.552C415.646 674.891 406.362 684.118 395.015 684.118ZM102.619 415.834C92.0969 415.834 83.5866 424.391 83.5866 434.854V557.269C83.5866 577.32 74.6636 596.03 59.087 608.607L9.46899 648.759C4.98171 652.367 2.40281 657.779 2.40281 663.552C2.40281 674.067 10.9648 682.571 21.4351 682.571H395.015C405.536 682.571 414.047 674.015 414.047 663.552V434.854C414.047 424.339 405.485 415.834 395.015 415.834H102.619Z" fill="black"/>
<path d="M221.611 428.875L192.572 438.05C184.268 445.162 175.964 452.275 167.66 459.388C178.337 475.47 188.962 491.5 199.639 507.581C199.277 514.694 198.968 521.859 198.607 528.972C209.438 528.457 220.27 527.941 231.101 527.426C231.772 520.674 232.494 513.973 233.164 507.221L236.62 506.138C248.895 502.273 255.497 488.923 251.113 476.81L243.789 456.45C242.242 450.471 240.695 444.492 239.096 438.513C237.187 430.885 229.141 426.452 221.611 428.875Z" fill="#F9D84E"/>
<path d="M198.608 529.746C198.401 529.746 198.195 529.642 198.04 529.539C197.885 529.385 197.782 529.179 197.834 528.972L198.865 507.84L167.042 459.853C166.835 459.543 166.887 459.08 167.196 458.822L192.109 437.483C192.212 437.431 192.263 437.38 192.367 437.328L221.405 428.154C225.273 426.916 229.348 427.329 232.907 429.287C236.466 431.246 238.942 434.493 239.973 438.411L244.615 456.296L251.888 476.604C254.054 482.686 253.693 489.181 250.856 494.954C248.019 500.727 243.016 504.953 236.878 506.912L233.887 507.84L231.875 527.529C231.824 527.89 231.514 528.199 231.153 528.199L198.608 529.746ZM168.692 459.492L200.258 507.118C200.361 507.273 200.413 507.427 200.361 507.582L199.381 528.148L230.38 526.653L232.391 507.118C232.443 506.809 232.649 506.551 232.907 506.448L236.363 505.365C242.088 503.561 246.73 499.593 249.412 494.181C252.094 488.769 252.455 482.686 250.392 477.068L243.068 456.709V456.657L238.374 438.72C237.446 435.215 235.228 432.329 232.03 430.576C228.832 428.824 225.222 428.463 221.766 429.545L192.882 438.668L168.692 459.492Z" fill="black"/>
<path d="M198.914 492.222C197.263 494.18 192.003 499.902 185.143 499.592C182.151 499.438 179.882 498.201 175.859 495.984C170.907 493.201 167.245 490.211 164.821 487.995C162.913 486.603 158.425 482.892 155.846 476.243C153.422 469.903 154.093 464.388 154.557 462.069L154.608 461.811C157.136 451.193 164.357 442.328 174.208 437.689C185.916 432.225 197.625 426.813 209.333 421.349C214.181 419.081 219.7 418.566 224.806 420.164C227.024 420.886 229.345 421.968 231.511 423.772C235.947 427.432 237.082 432.019 237.701 434.081L202.628 447.997V454.698C197.315 458.306 191.951 461.914 186.638 465.522C190.816 474.439 194.891 483.356 198.914 492.222Z" fill="#3FD1FF"/>
<path d="M185.711 500.366C185.505 500.366 185.298 500.366 185.144 500.366C181.894 500.211 179.367 498.82 175.498 496.655C171.475 494.438 167.71 491.707 164.358 488.614C161.469 486.449 157.498 482.635 155.177 476.553C152.907 470.677 153.217 465.368 153.836 461.915L153.887 461.657C156.518 450.781 163.79 441.813 173.951 437.019L209.076 420.68C214.234 418.309 219.907 417.845 225.116 419.443C227.695 420.268 230.068 421.505 232.131 423.205C236.515 426.813 237.856 431.401 238.475 433.566L238.578 433.875C238.681 434.236 238.475 434.648 238.114 434.803L203.505 448.513V454.698C203.505 454.956 203.402 455.214 203.144 455.317L187.722 465.78L199.637 491.861C199.74 492.119 199.74 492.428 199.534 492.686C197.11 495.624 192.107 500.366 185.711 500.366ZM218.772 420.01C215.729 420.01 212.635 420.68 209.746 422.02L174.622 438.359C164.925 442.947 157.91 451.503 155.435 461.966L155.383 462.224C154.816 465.42 154.506 470.419 156.672 475.986C158.89 481.759 162.604 485.367 165.338 487.377L165.389 487.429C168.69 490.47 172.352 493.098 176.272 495.315C180.347 497.583 182.461 498.717 185.195 498.82C190.92 499.077 195.562 494.902 197.986 492.119L185.969 465.883C185.814 465.523 185.917 465.11 186.227 464.904L201.855 454.286V447.998C201.855 447.689 202.061 447.379 202.319 447.276L236.722 433.617C236.051 431.349 234.813 427.535 230.996 424.339C229.088 422.793 226.922 421.608 224.549 420.886C222.744 420.319 220.732 420.01 218.772 420.01Z" fill="black"/>
<path d="M195.256 459.44C192.47 461.244 190.149 462.842 187.364 464.646C182.928 467.481 180.453 472.636 181.226 477.841C181.691 480.779 183.083 483.563 185.456 485.728L188.086 488.15C193.038 492.634 200.517 492.789 205.623 488.563C207.222 487.274 208.769 485.985 210.368 484.645" fill="#F9D84E"/>
<path d="M197.162 492.325C193.706 492.325 190.302 491.088 187.62 488.665L184.989 486.243C182.565 484.027 181.018 481.14 180.502 477.944C179.677 472.532 182.204 467.069 187.001 463.976C188.394 463.1 189.683 462.224 190.921 461.399C192.21 460.574 193.5 459.698 194.892 458.822C195.253 458.564 195.718 458.667 195.976 459.028C196.182 459.389 196.079 459.853 195.769 460.11C194.377 460.987 193.087 461.863 191.849 462.688C190.56 463.512 189.27 464.389 187.878 465.265C183.597 467.997 181.327 472.893 182.101 477.687C182.565 480.573 183.906 483.15 186.073 485.109L188.703 487.531C193.345 491.706 200.411 491.913 205.26 487.944L210.005 484.026C210.314 483.769 210.83 483.82 211.088 484.13C211.346 484.439 211.294 484.954 210.985 485.212L206.24 489.129C203.557 491.243 200.36 492.325 197.162 492.325Z" fill="black"/>
<path d="M242.445 455.214C245.695 453.306 248.893 451.399 252.142 449.492C254.36 448.204 257.197 449.131 258.228 451.451C259.053 453.41 258.383 455.677 256.578 456.76C252.812 459.182 248.996 461.657 245.231 464.079" fill="#F9D84E"/>
<path d="M245.182 464.904C244.924 464.904 244.666 464.801 244.511 464.543C244.305 464.182 244.408 463.718 244.718 463.461L256.065 456.141C257.561 455.214 258.128 453.358 257.458 451.76C257.045 450.833 256.271 450.111 255.343 449.802C254.414 449.492 253.331 449.596 252.506 450.111L242.809 455.832C242.448 456.038 241.984 455.935 241.726 455.575C241.52 455.214 241.623 454.75 241.984 454.492L251.681 448.771C252.919 448.049 254.414 447.895 255.807 448.307C257.2 448.771 258.283 449.75 258.85 451.09C259.83 453.358 259.005 456.09 256.89 457.379L245.543 464.698C245.491 464.852 245.337 464.904 245.182 464.904Z" fill="black"/>
<path d="M232.906 507.581C223.622 507.53 214.39 507.478 205.105 507.427L232.906 507.581Z" fill="white"/>
<path d="M232.906 508.355L205.106 508.201C204.693 508.201 204.332 507.84 204.332 507.427C204.332 507.015 204.693 506.654 205.106 506.654L232.906 506.809C233.319 506.809 233.68 507.17 233.68 507.582C233.68 507.994 233.319 508.355 232.906 508.355Z" fill="black"/>
<path d="M139.499 557.167C132.02 598.968 124.541 640.77 117.062 682.572H155.54C151.156 640.822 146.771 599.02 142.387 557.27C142.233 555.569 139.808 555.466 139.499 557.167Z" fill="#F15922"/>
<path d="M155.591 683.344H117.113C116.907 683.344 116.649 683.241 116.494 683.087C116.34 682.932 116.288 682.674 116.34 682.468L138.776 557.063C138.982 555.929 139.911 555.156 141.046 555.208C142.18 555.259 143.057 556.084 143.212 557.218L156.364 682.52C156.364 682.726 156.313 682.932 156.158 683.138C156.003 683.241 155.797 683.344 155.591 683.344ZM118.042 681.798H154.765L141.664 557.372C141.613 556.805 141.149 556.754 140.994 556.754C140.839 556.754 140.375 556.754 140.272 557.321L118.042 681.798Z" fill="black"/>
<path d="M485.223 520.983L504.926 488.407L530.406 477.841C533.81 476.449 536.595 473.821 538.194 470.522L547.581 451.193C551.192 443.719 548.303 432.483 540.824 428.875L528.394 422.896C524.062 420.782 518.646 424.854 516.583 429.132C514.468 433.462 516.325 438.668 520.606 440.73L528.446 444.492L525.557 450.471C522.411 456.966 514.571 459.698 508.021 456.554L472.174 439.235C466.862 436.658 464.644 430.318 467.223 425.009L472.226 414.7L476.507 416.762C481.2 419.03 486.874 417.071 489.195 412.381C491.464 407.69 489.504 402.021 484.811 399.701L477.693 396.248C468.048 391.609 456.494 395.629 451.852 405.216L446.179 416.968L417.657 374.754C414.459 370.476 406.567 370.528 402.029 373.363L404.04 372.229C399.14 375.321 395.788 383.001 399.037 387.795L421.319 420.319L390.785 394.135C386.916 391.248 381.449 392.021 378.561 395.887L376.755 399.34C374.022 403 374.641 408.154 378.096 411.144L433.078 456.193C436.173 458.821 437.308 463.151 435.915 466.965L427.147 490.778" fill="#F9D84E"/>
<path d="M485.225 521.756C485.071 521.756 484.968 521.704 484.813 521.653C484.452 521.447 484.349 520.931 484.555 520.57L504.258 487.995C504.361 487.84 504.464 487.737 504.619 487.686L530.098 477.119C533.348 475.779 535.927 473.305 537.474 470.161L546.81 450.832C550.42 443.41 547.222 432.844 540.414 429.545L527.984 423.566C524.012 421.659 519.009 425.679 517.204 429.442C516.275 431.349 516.172 433.514 516.843 435.472C517.513 437.483 518.957 439.08 520.866 440.008L528.706 443.771C529.067 443.977 529.273 444.441 529.067 444.802L526.178 450.781C522.826 457.687 514.522 460.574 507.61 457.224L471.764 439.905C466.09 437.173 463.717 430.318 466.451 424.648L471.454 414.34C471.557 414.133 471.712 414.03 471.918 413.927C472.125 413.876 472.331 413.876 472.486 413.979L476.767 416.041C481.099 418.154 486.309 416.298 488.372 412.02C490.435 407.742 488.63 402.485 484.349 400.423L477.231 396.969C467.998 392.485 456.857 396.402 452.422 405.577L446.749 417.329C446.646 417.587 446.388 417.741 446.13 417.741C445.872 417.741 445.563 417.638 445.408 417.381L416.886 375.167C414.307 371.662 408.014 371.352 403.682 373.259C401.206 375.064 399.246 378.105 398.627 381.197C398.266 382.847 398.163 385.218 399.555 387.279L421.837 419.803C422.043 420.112 421.992 420.576 421.734 420.834C421.424 421.092 421.012 421.092 420.702 420.834L390.168 394.65C388.518 393.413 386.403 392.846 384.288 393.155C382.225 393.465 380.368 394.547 379.079 396.196L377.325 399.547C377.325 399.598 377.274 399.598 377.274 399.65C374.798 403 375.314 407.69 378.512 410.371L433.442 455.368C436.795 458.203 438.033 462.893 436.485 467.017L427.717 490.83C427.562 491.242 427.15 491.448 426.737 491.294C426.324 491.139 426.118 490.727 426.273 490.314L435.041 466.501C436.33 462.996 435.299 459.028 432.411 456.605L377.48 411.608C373.715 408.412 373.044 402.794 375.984 398.825L377.738 395.475C377.738 395.423 377.789 395.423 377.789 395.372C379.285 393.31 381.503 392.021 384.03 391.66C386.558 391.3 389.033 391.918 391.097 393.464L417.195 415.834L398.266 388.207C396.925 386.248 396.512 383.723 397.08 380.939C397.647 378.208 399.143 375.476 401.154 373.466C401.103 373.156 401.257 372.899 401.515 372.693C401.722 372.538 401.98 372.435 402.237 372.28L403.527 371.507C403.733 371.404 403.939 371.404 404.146 371.455C408.994 369.755 415.287 370.425 418.175 374.29L445.976 415.422L451.081 404.907C455.929 394.908 467.998 390.733 477.953 395.578L485.071 399.031C490.177 401.505 492.292 407.639 489.816 412.742C487.34 417.845 481.202 419.958 476.096 417.484L472.537 415.783L467.895 425.37C465.523 430.266 467.586 436.194 472.486 438.565L508.332 455.883C511.324 457.327 514.676 457.533 517.771 456.45C520.866 455.368 523.393 453.152 524.837 450.162L527.365 444.905L520.247 441.451C517.977 440.369 516.275 438.41 515.45 436.039C514.625 433.668 514.78 431.091 515.863 428.823C518.235 423.927 524.115 419.958 528.706 422.226L541.136 428.205C544.85 430.009 547.738 433.72 549.079 438.41C550.42 442.946 550.111 447.74 548.254 451.554L538.918 470.883C537.216 474.388 534.328 477.119 530.717 478.614L505.496 489.077L485.896 521.447C485.741 521.653 485.483 521.756 485.225 521.756Z" fill="black"/>
<path d="M433.493 441.04C433.235 441.04 432.977 440.885 432.822 440.679L420.547 420.731C420.34 420.371 420.443 419.907 420.804 419.649C421.165 419.443 421.63 419.546 421.888 419.907L434.163 439.854C434.369 440.215 434.266 440.679 433.905 440.936C433.751 440.988 433.596 441.04 433.493 441.04Z" fill="black"/>
<path d="M446.487 436.916C445.559 435.112 444.218 431.916 443.96 427.69C443.702 422.69 445.146 418.876 446.023 416.969" fill="#F9D84E"/>
<path d="M446.49 437.688C446.232 437.688 445.922 437.534 445.819 437.276C444.272 434.338 443.395 431.039 443.24 427.741C442.982 422.947 444.272 419.081 445.355 416.659C445.51 416.246 445.974 416.092 446.387 416.298C446.799 416.453 446.954 416.916 446.748 417.329C445.716 419.597 444.53 423.205 444.736 427.689C444.891 430.782 445.716 433.874 447.16 436.606C447.367 436.967 447.212 437.431 446.851 437.637C446.748 437.688 446.593 437.688 446.49 437.688Z" fill="black"/>
<path d="M194.48 526.395C194.274 524.178 194.119 521.962 193.913 519.746C193.655 516.705 196.131 514.127 199.174 514.231L244.769 515.88C248.895 516.035 250.442 521.344 247.038 523.663C246.161 524.282 245.285 524.848 244.459 525.467" fill="#F15922"/>
<path d="M194.482 527.168C194.069 527.168 193.76 526.859 193.708 526.447L193.141 519.798C192.986 518.148 193.605 516.448 194.74 515.262C195.874 514.025 197.525 513.407 199.175 513.458L244.77 515.107C246.988 515.21 248.845 516.602 249.464 518.715C250.083 520.829 249.309 523.045 247.504 524.282L244.925 526.086C244.564 526.344 244.1 526.241 243.842 525.88C243.584 525.519 243.687 525.055 244.048 524.797L246.627 522.993C248.174 521.911 248.329 520.313 248.02 519.128C247.659 517.942 246.627 516.654 244.77 516.602L199.175 514.953C197.937 514.901 196.751 515.417 195.874 516.293C194.997 517.169 194.585 518.406 194.688 519.643L195.255 526.292C195.307 526.705 194.997 527.117 194.533 527.117C194.533 527.168 194.482 527.168 194.482 527.168Z" fill="black"/>
<path d="M427.51 481.759C422.301 485.573 416.009 491.088 410.026 498.717C399.71 511.912 395.377 525.21 393.417 533.457C388.156 537.941 381.4 544.642 375.262 553.971C367.886 565.207 364.224 575.825 362.367 583.196C358.86 575.516 352.722 564.537 342.097 553.971C325.644 537.58 307.488 531.137 298.101 528.56C292.995 527.735 287.889 526.911 282.783 526.086C275.716 524.952 268.547 524.385 261.326 524.437C235.434 524.643 209.593 524.849 183.701 525.004C180.761 524.591 176.429 524.23 171.323 525.004C161.471 526.447 154.921 530.983 153.167 532.271C151.31 533.611 147.081 536.962 142.748 543.559C133.774 557.27 132.794 572.166 132.33 581.083C131.453 597.628 134.547 612.06 138.364 623.194C136.353 629.018 133.825 638.605 134.444 650.563C135.218 665.562 140.582 676.747 143.831 682.52C167.918 682.623 191.954 682.623 216.041 682.778C240.128 682.933 264.163 683.139 288.25 683.036C291.138 666.181 294.027 648.244 296.967 631.389C299.906 638.966 304.703 648.914 312.749 659.016C326.16 675.82 341.736 684.633 351.123 688.963C351.433 688.86 351.639 688.808 351.949 688.654C352.052 688.448 352.155 688.293 352.258 688.087C355.765 689.685 373.766 697.313 393.727 689.375C421.063 678.5 426.273 648.656 426.53 647.11C432.926 640.976 441.437 631.389 448.657 617.885C456.807 602.576 459.953 588.505 461.294 579.176C467.999 569.692 475.53 557.321 481.822 542.065C486.103 531.756 488.991 522.117 491.055 513.664C469.908 503.098 448.709 492.428 427.51 481.759Z" fill="#F15922"/>
<path d="M375.055 693.808C365.101 693.808 357.003 691.024 352.671 689.169C352.567 689.323 352.464 689.375 352.31 689.426L351.484 689.736C351.278 689.787 351.072 689.787 350.917 689.684C335.805 682.674 322.394 672.263 312.233 659.48C306.147 651.8 301.093 643.347 297.327 634.172C296.038 641.8 294.697 649.635 293.459 657.315C292.015 665.871 290.571 674.737 289.126 683.138C289.075 683.499 288.765 683.757 288.353 683.757C264.317 683.86 239.921 683.654 216.298 683.499H216.144C200.103 683.396 183.804 683.344 168.073 683.293C160.027 683.293 151.981 683.241 143.934 683.241C143.676 683.241 143.419 683.087 143.264 682.829C137.642 672.933 134.341 661.799 133.774 650.563C133.309 641.234 134.599 632.007 137.642 623.142C132.948 609.277 130.937 595.102 131.659 580.979C132.071 572.681 132.897 557.218 142.181 543.043C145.327 538.25 148.886 534.384 152.806 531.549C155.797 529.384 162.245 525.467 171.322 524.178C175.449 523.56 179.678 523.56 183.856 524.178L261.429 523.612C268.65 523.56 275.871 524.127 282.989 525.261L298.307 527.735C298.359 527.735 298.359 527.735 298.41 527.735C310.17 530.982 327.397 538.095 342.716 553.352C350.711 561.341 357.313 570.568 362.264 580.876C364.998 571.134 369.176 561.908 374.746 553.507C379.801 545.827 385.887 538.971 392.85 532.992C395.944 520.158 401.515 508.406 409.51 498.201C414.564 491.758 420.496 485.985 427.149 481.088C427.407 480.934 427.717 480.882 427.974 481.037L491.57 512.994C491.88 513.148 492.034 513.509 491.983 513.87C489.662 523.612 486.567 533.199 482.75 542.425C477.335 555.465 470.423 567.939 462.222 579.536C460.262 593.144 455.981 606.184 449.534 618.297C443.757 629.121 436.33 638.966 427.459 647.522C426.891 650.769 421.166 679.376 394.242 690.097C387.383 692.828 380.935 693.808 375.055 693.808ZM352.361 687.365C352.464 687.365 352.567 687.365 352.671 687.416C357.519 689.581 374.798 696.127 393.52 688.705C420.65 677.881 425.653 648.295 425.808 647.058C425.86 646.903 425.911 646.749 426.014 646.646C434.834 638.141 442.262 628.399 447.987 617.627C454.382 605.617 458.612 592.68 460.52 579.175C460.52 579.072 460.572 578.918 460.675 578.814C468.876 567.269 475.736 554.847 481.151 541.858C484.865 532.889 487.908 523.56 490.177 514.128L427.562 482.635C421.166 487.377 415.441 492.943 410.593 499.18C402.701 509.282 397.182 520.88 394.139 533.611C394.088 533.766 394.036 533.92 393.881 534.023C386.918 539.951 380.884 546.806 375.829 554.383C370.001 563.248 365.668 573.042 363.038 583.35C362.935 583.66 362.677 583.917 362.367 583.917C362.058 583.969 361.748 583.763 361.594 583.453C356.642 572.578 349.885 562.785 341.478 554.486C326.417 539.487 309.448 532.477 297.895 529.281L282.628 526.807C275.613 525.673 268.444 525.106 261.326 525.158L183.701 525.725C183.649 525.725 183.598 525.725 183.598 525.725C179.575 525.106 175.5 525.106 171.477 525.725C162.709 527.013 156.571 530.725 153.683 532.838C149.917 535.57 146.513 539.281 143.47 543.92C134.392 557.733 133.619 572.939 133.206 581.082C132.484 595.102 134.496 609.174 139.189 622.884C139.241 623.039 139.241 623.245 139.189 623.399C136.146 632.162 134.857 641.285 135.321 650.46C135.888 661.335 139.034 672.108 144.399 681.643C152.29 681.695 160.181 681.695 168.073 681.695C183.856 681.747 200.154 681.747 216.144 681.901H216.298C239.715 682.056 263.905 682.262 287.734 682.159C289.126 673.912 290.571 665.304 291.963 656.954C293.407 648.398 294.852 639.584 296.296 631.131C296.347 630.77 296.657 630.512 296.966 630.512C297.327 630.461 297.637 630.667 297.74 631.028C301.557 640.976 306.869 650.202 313.42 658.449C323.374 670.922 336.475 681.18 351.226 688.035L351.484 687.932L351.639 687.674C351.794 687.519 352.103 687.365 352.361 687.365Z" fill="black"/>
<path d="M502.192 437.741C511.306 437.741 518.697 430.355 518.697 421.247C518.697 412.139 511.306 404.753 502.192 404.753C493.079 404.753 485.688 412.139 485.688 421.247C485.688 430.355 493.079 437.741 502.192 437.741Z" fill="#FF6EC1"/>
<path d="M502.193 438.514C492.651 438.514 484.914 430.782 484.914 421.247C484.914 411.711 492.651 403.979 502.193 403.979C511.735 403.979 519.471 411.711 519.471 421.247C519.471 430.782 511.735 438.514 502.193 438.514ZM502.193 405.526C493.528 405.526 486.461 412.587 486.461 421.247C486.461 429.906 493.528 436.967 502.193 436.967C510.858 436.967 517.924 429.906 517.924 421.247C517.924 412.587 510.858 405.526 502.193 405.526Z" fill="black"/>
<path d="M237.933 458.45C238.061 457.203 237.154 456.089 235.907 455.961C234.66 455.837 233.546 456.744 233.418 457.986C233.291 459.234 234.198 460.347 235.445 460.476C236.692 460.605 237.806 459.697 237.933 458.45Z" fill="black"/>
<path d="M249.307 471.449C247.501 472.377 245.593 472.841 243.581 472.944C240.332 473.099 237.753 472.016 236.154 471.14C235.793 470.934 235.329 471.037 235.123 471.449C234.916 471.81 235.02 472.274 235.432 472.48C237.083 473.408 239.713 474.49 243.066 474.49C243.272 474.49 243.478 474.49 243.685 474.49C245.902 474.387 248.017 473.82 250.029 472.841C250.39 472.635 250.545 472.171 250.39 471.81C250.132 471.398 249.668 471.243 249.307 471.449Z" fill="black"/>
<path d="M192.055 473.872C191.797 473.512 191.282 473.46 190.972 473.718C190.611 473.975 190.56 474.491 190.817 474.8L198.09 484.181C198.245 484.387 198.451 484.49 198.709 484.49C198.864 484.49 199.018 484.439 199.173 484.336C199.534 484.078 199.586 483.562 199.328 483.253L192.055 473.872Z" fill="black"/>
<path d="M232.339 515.004C232.545 512.221 232.7 509.438 232.906 506.654L227.336 507.015C219.908 507.118 212.533 507.273 205.105 507.376C211.965 508.974 218.774 510.572 225.633 512.118C226.201 512.994 226.768 513.922 227.336 514.798C229.038 514.85 230.688 515.004 232.339 515.004Z" fill="black"/>
<path d="M202.475 447.276L181.844 454.543C181.431 454.698 181.225 455.11 181.379 455.522C181.483 455.832 181.792 456.038 182.102 456.038C182.205 456.038 182.256 456.038 182.359 455.986L202.991 448.719C203.403 448.564 203.61 448.152 203.455 447.739C203.3 447.379 202.888 447.172 202.475 447.276Z" fill="black"/>
<path d="M362.573 582.474C362.211 582.371 361.85 582.526 361.696 582.835L350.142 603.349C349.936 603.71 350.039 604.174 350.452 604.38C350.864 604.586 351.277 604.483 351.483 604.071L361.438 586.392L360.303 609.998C360.303 610.411 360.613 610.772 361.025 610.823C361.025 610.823 361.025 610.823 361.077 610.823C361.489 610.823 361.85 610.514 361.85 610.102L363.14 583.247C363.14 582.887 362.882 582.577 362.573 582.474Z" fill="black"/>
<path d="M277.16 596.236C276.954 595.875 276.49 595.772 276.077 595.978C275.716 596.184 275.613 596.648 275.819 597.061L287.734 617.214C288.198 624.636 287.94 635.976 283.607 648.759C277.624 666.386 267.051 677.571 261.48 682.726C270.455 682.829 279.378 682.932 288.353 683.086C291.189 666.129 294.078 649.119 296.915 632.162C296.966 632.162 297.018 632.162 297.018 632.162C297.172 632.162 297.276 632.11 297.43 632.058C297.791 631.852 297.895 631.388 297.688 630.976L277.16 596.236Z" fill="black"/>
<path d="M139.134 622.936C138.979 622.523 138.515 622.317 138.154 622.523C137.741 622.678 137.535 623.142 137.741 623.503L144.343 640.357C144.446 640.667 144.756 640.873 145.065 640.873C145.168 640.873 145.271 640.873 145.323 640.821C145.736 640.667 145.942 640.203 145.736 639.842L139.134 622.936Z" fill="black"/>
<path d="M393.673 532.735C393.26 532.58 392.847 532.786 392.693 533.199L385.575 553.713C385.42 554.125 385.626 554.538 386.039 554.692C386.142 554.744 386.194 554.744 386.297 554.744C386.606 554.744 386.916 554.538 387.019 554.228L394.137 533.714C394.291 533.353 394.085 532.89 393.673 532.735Z" fill="black"/>
<path d="M463.821 552.476C463.408 552.425 462.995 552.734 462.995 553.198L460.623 579.279C460.571 579.691 460.881 580.104 461.345 580.104H461.396C461.809 580.104 462.119 579.794 462.17 579.382L464.543 553.301C464.543 552.889 464.233 552.476 463.821 552.476Z" fill="black"/>
<path d="M428.23 621.956C427.817 621.956 427.456 622.265 427.405 622.678L425.806 647.161C425.754 647.573 426.115 647.934 426.528 647.985H426.579C426.992 647.985 427.301 647.676 427.353 647.264L428.952 622.781C429.004 622.317 428.643 621.956 428.23 621.956Z" fill="black"/>
<path d="M444.011 480.573C440.349 475.728 437.719 471.037 435.811 466.862L429.363 482.531C443.083 489.129 456.752 495.675 470.471 502.272C463.56 498.871 452.935 492.325 444.011 480.573Z" fill="black"/>
</svg>
