<svg width="760" height="402" viewBox="0 0 760 402" fill="none" xmlns="http://www.w3.org/2000/svg">
<path d="M10.1567 344.255L10.1603 344.253L74.2776 292.329L74.2784 292.328C94.3062 276.076 105.974 251.729 105.974 225.898V67.595C105.974 54.0166 116.99 43 130.567 43H508.404C521.92 43.0653 533 54.0867 533 67.6617V363.405C533 376.983 521.984 388 508.406 388H25.5936C12.0161 388 1 376.983 1 363.405C1 355.973 4.33099 348.929 10.1567 344.255Z" stroke="black" stroke-width="2"/>
<path d="M758.735 200.589C758.735 259.129 733.491 311.787 693.229 348.25C681.557 358.836 668.528 368.065 654.594 375.665C642.289 382.36 629.17 387.789 615.508 391.77C597.774 396.927 579.045 399.732 559.592 399.732C549.278 399.732 539.144 398.918 529.282 397.47C513.9 395.118 499.062 391.046 485.038 385.346C460.156 375.303 437.718 360.374 418.989 341.736C382.797 305.635 360.449 255.781 360.449 200.68C360.449 90.6582 449.57 1.53711 559.592 1.53711C669.614 1.53711 758.735 90.6583 758.735 200.589Z" fill="white"/>
<path d="M559.59 401.09C549.366 401.09 539.142 400.276 529.099 398.738C513.808 396.386 498.88 392.314 484.584 386.523C484.584 386.523 484.584 386.523 484.493 386.523C459.521 376.48 437.173 361.642 417.992 342.551C379.991 304.641 359 254.244 359 200.5C359 146.937 379.81 96.6309 417.72 58.7204C455.631 20.81 505.937 0 559.5 0C613.063 0 663.369 20.81 701.28 58.7204C739.19 96.6309 760 146.937 760 200.5C760 256.958 735.933 311.155 694.041 349.156C682.189 359.832 669.069 369.152 655.136 376.752C642.65 383.538 629.349 389.057 615.777 393.038C597.682 398.376 578.772 401.09 559.59 401.09ZM485.489 384.081C485.579 384.081 485.579 384.081 485.489 384.081C499.603 389.781 514.351 393.852 529.461 396.114C539.323 397.652 549.457 398.376 559.59 398.376C578.5 398.376 597.139 395.752 615.144 390.505C628.625 386.614 641.654 381.185 653.959 374.49C667.712 366.98 680.651 357.842 692.322 347.256C733.671 309.798 757.376 256.325 757.376 200.59C757.376 91.5641 668.617 2.80483 559.59 2.80483C450.564 2.80483 361.805 91.5641 361.805 200.59C361.805 253.52 382.434 303.283 419.982 340.651C438.892 359.561 460.969 374.128 485.489 384.081Z" fill="black"/>
<path d="M661.926 277.483C690.9 248.509 690.9 201.534 661.926 172.56C632.952 143.587 585.977 143.587 557.004 172.56C528.03 201.534 528.03 248.509 557.004 277.483C585.977 306.456 632.952 306.456 661.926 277.483Z" fill="#F15922"/>
<path d="M609.445 300.57C603.112 300.57 596.688 299.755 590.264 298.127C550.001 287.541 525.753 246.192 536.339 205.839C541.496 186.295 553.891 169.919 571.263 159.785C588.726 149.561 609.083 146.847 628.536 151.914C668.799 162.5 693.047 203.848 682.461 244.202C673.685 278.04 642.922 300.57 609.445 300.57ZM609.355 152.095C596.597 152.095 584.021 155.442 572.711 162.047C555.882 171.909 543.939 187.653 538.963 206.472C533.986 225.292 536.701 244.925 546.563 261.754C556.425 278.583 572.168 290.526 590.988 295.503C629.803 305.727 669.704 282.383 679.928 243.478C690.152 204.572 666.808 164.762 627.903 154.537C621.75 152.909 615.507 152.095 609.355 152.095Z" fill="black"/>
<path d="M693.228 348.252C657.851 380.281 610.983 399.734 559.592 399.734C549.277 399.734 539.144 398.92 529.281 397.472C528.648 396.658 528.105 395.753 527.472 394.758C520.595 383.629 512.271 362.095 503.676 318.665C501.324 306.722 499.424 295.774 497.976 286.003C496.257 274.512 494.99 264.74 494.176 257.05C495.533 256.778 496.981 256.416 498.428 256.145C517.972 251.983 537.877 247.368 558.144 242.302C558.687 242.211 559.23 242.03 559.773 241.94C565.654 240.492 571.625 238.954 577.597 237.416C578.773 237.144 579.859 236.782 581.035 236.511C588.273 234.611 595.512 232.711 602.659 230.72C603.474 230.539 604.197 230.268 605.012 230.087C606.55 229.816 608.088 229.544 609.626 229.273C624.284 227.192 634.96 229.816 641.565 232.259C662.737 240.311 679.023 261.031 687.438 288.988C692.685 306.451 694.857 326.627 693.228 348.252Z" fill="#349948"/>
<path d="M559.592 401.091C549.368 401.091 539.144 400.277 529.101 398.738C528.739 398.648 528.377 398.467 528.196 398.196C527.562 397.381 527.02 396.476 526.386 395.391C517.881 381.638 509.829 355.852 502.5 318.846C500.328 307.989 498.428 296.95 496.8 286.093C495.352 276.502 494.085 267.002 493 257.049C492.909 256.325 493.362 255.692 494.085 255.602L494.99 255.421C496.076 255.149 497.162 254.968 498.338 254.697C518.062 250.444 538.148 245.83 558.054 240.854C558.506 240.763 558.868 240.673 559.23 240.582L559.592 240.492C565.292 239.044 571.083 237.596 577.416 235.968L580.854 235.063C588.273 233.163 595.512 231.173 602.388 229.272C603.202 229.092 603.926 228.82 604.74 228.639H604.831C606.369 228.368 607.817 228.096 609.445 227.825H609.536C621.389 226.106 632.336 227.191 642.108 230.901C663.461 239.044 680.109 259.492 688.795 288.536C694.224 306.45 696.214 327.17 694.585 348.251C694.585 348.613 694.405 348.885 694.133 349.156C657.218 382.724 609.445 401.091 559.592 401.091ZM530.096 396.205C539.777 397.653 549.73 398.376 559.592 398.376C608.541 398.376 655.499 380.371 691.871 347.618C693.319 326.989 691.328 306.903 686.081 289.441C677.757 261.573 661.289 241.216 641.022 233.615C631.613 230.087 621.117 229.092 609.807 230.63H609.717C608.179 230.811 606.731 231.082 605.283 231.353C604.469 231.534 603.745 231.806 602.931 231.987C596.055 233.887 588.816 235.787 581.307 237.777L577.868 238.682C571.535 240.311 565.744 241.758 560.044 243.206L559.682 243.297C559.23 243.387 558.868 243.478 558.416 243.568C538.51 248.544 518.334 253.159 498.7 257.411C497.705 257.592 496.709 257.864 495.714 258.045C496.8 267.545 497.976 276.593 499.424 285.731C501.052 296.588 502.952 307.536 505.124 318.394C512.362 355.128 520.324 380.552 528.739 394.034C529.101 394.848 529.643 395.572 530.096 396.205Z" fill="black"/>
<path d="M540.591 397.653C516.433 396.115 497.523 390.234 485.127 385.348C480.603 383.539 466.398 377.748 449.75 366.71C436.721 358.114 426.588 349.157 419.078 341.647C420.978 324.909 422.878 308.17 424.778 291.432C427.493 275.327 437.174 263.383 449.569 256.598C453.369 254.517 457.35 252.978 461.603 251.893C475.175 248.454 488.113 250.897 498.428 256.055C505.033 259.312 510.552 263.745 514.623 268.45C519.328 273.879 522.133 279.579 523.943 285.551C525.843 291.703 526.657 298.127 527.562 304.822C530.909 329.614 534.89 358.205 540.591 397.653Z" fill="#349948"/>
<path d="M540.588 399.011C540.498 399.011 540.498 399.011 540.588 399.011C521.136 397.744 502.316 393.582 484.582 386.615C472.911 382.001 460.334 375.396 448.934 367.886C437.896 360.557 427.491 352.052 418.081 342.643C417.809 342.371 417.628 341.919 417.719 341.557C419.528 325.995 421.247 310.342 423.057 294.78L423.419 291.251C426.133 275.598 435.181 262.841 448.934 255.331C452.824 253.25 456.986 251.621 461.239 250.536C477.254 246.464 490.644 250.626 499.059 254.879C505.483 258.136 511.273 262.479 515.707 267.636C520.05 272.703 523.217 278.403 525.298 285.279C527.198 291.522 528.012 297.856 528.917 304.642V304.732C532.626 332.328 536.788 361.824 541.855 397.472C541.946 397.834 541.765 398.287 541.493 398.558C541.312 398.83 540.95 399.011 540.588 399.011ZM420.433 341.195C429.572 350.243 439.705 358.476 450.472 365.624C461.601 373.043 474.087 379.558 485.578 384.082C502.497 390.777 520.502 394.849 538.96 396.206C533.984 361.281 529.912 332.238 526.202 305.094V305.004C525.298 298.399 524.483 292.065 522.674 286.094C520.683 279.579 517.788 274.241 513.626 269.446C509.464 264.65 503.945 260.398 497.792 257.322C489.83 253.34 477.073 249.359 461.872 253.25C457.801 254.245 453.82 255.874 450.201 257.864C437.172 264.922 428.576 276.955 426.043 291.703L425.681 295.141C423.962 310.432 422.243 325.814 420.433 341.195Z" fill="black"/>
<path d="M648.259 126.126C647.626 126.126 646.992 126.036 646.359 125.855C635.502 122.779 636.859 92.197 637.221 86.1349C637.221 85.5016 637.764 84.9587 638.397 84.8682C646.811 83.7825 654.955 87.0397 659.569 93.3732C665.721 101.697 664.907 114.183 657.759 121.15C655.769 123.141 652.059 126.126 648.259 126.126ZM639.845 87.4016C639.211 99.5257 639.935 121.15 647.083 123.231C650.34 124.136 654.321 120.698 655.95 119.16C662.012 113.188 662.736 102.059 657.397 94.9113C653.507 89.7541 646.902 86.9492 639.845 87.4016Z" fill="black"/>
<path d="M640.115 92.4688L586.732 90.8401C573.342 90.3878 562.122 100.974 561.67 114.365L558.141 227.281C558.141 232.891 558.141 238.591 558.051 244.201C559.77 245.83 562.032 247.73 564.927 249.539C566.284 250.444 570.175 252.796 575.332 254.515C580.851 256.325 586.099 256.868 590.352 256.777C594.061 256.687 597.409 254.515 599.037 251.168C604.647 239.406 610.347 227.553 615.957 215.791C625.005 215.519 644.729 213.348 658.753 198.69C681.916 174.533 675.13 131.917 656.763 107.941C651.062 100.431 644.639 95.4545 640.115 92.4688Z" fill="#3FD1FF"/>
<path d="M589.629 258.225C584.472 258.225 579.496 257.41 574.881 255.872C569.905 254.244 566.105 251.982 564.205 250.715C561.762 249.086 559.319 247.277 557.148 245.196C556.876 244.924 556.695 244.563 556.695 244.201L556.786 227.281L560.314 114.274C560.495 107.397 563.391 101.064 568.367 96.359C573.343 91.6542 579.858 89.2112 586.734 89.3922L640.116 91.0208C640.388 91.0208 640.659 91.1113 640.84 91.2922C647.445 95.7257 653.145 101.064 657.85 107.126C677.303 132.55 682.732 175.799 659.75 199.595C646.269 213.619 627.359 216.605 616.863 217.057L600.306 251.801C598.496 255.691 594.696 258.134 590.444 258.134C590.172 258.225 589.901 258.225 589.629 258.225ZM559.5 243.658C561.491 245.467 563.572 247.096 565.743 248.453C567.553 249.629 571.172 251.71 575.786 253.248C580.31 254.787 585.196 255.51 590.353 255.42C593.61 255.42 596.415 253.52 597.863 250.625L614.782 215.248C614.963 214.795 615.416 214.524 615.959 214.433C628.173 213.981 645.274 210.724 657.85 197.695C679.836 174.804 674.498 133.184 655.769 108.755C651.336 102.964 645.997 97.9876 639.754 93.7352L586.734 92.1065C580.582 91.9256 574.791 94.0971 570.358 98.3496C565.924 102.602 563.3 108.212 563.119 114.364L559.591 227.281L559.5 243.658Z" fill="black"/>
<path d="M493.724 138.161C514.534 133.456 533.353 122.418 547.649 106.494C547.92 106.222 548.101 105.951 548.282 105.77C551.449 102.332 553.621 100.522 554.706 99.7079C560.949 95.003 569.726 91.5648 584.112 89.9362C597.05 88.4886 619.489 86.1361 644.732 84.598C649.89 84.2361 657.49 83.8742 664.185 88.6695C671.876 94.1887 674.138 103.417 674.862 107.941C667.08 109.48 659.209 111.018 651.428 112.556C626.637 121.061 601.755 129.656 576.964 138.161C576.602 138.704 575.969 139.609 575.335 140.785C575.788 147.119 576.24 153.542 576.783 160.057C577.416 168.471 578.14 176.705 578.955 184.938C581.307 190.005 584.655 198.601 585.198 209.639C585.198 209.639 585.559 220.044 582.755 230.63C572.169 270.893 531.001 294.96 490.829 284.374C450.837 273.879 426.589 232.44 437.085 192.448C444.504 164.49 467.033 144.223 493.724 138.161Z" fill="#F15922"/>
<path d="M509.918 288.265C503.494 288.265 496.98 287.45 490.465 285.731C470.831 280.574 454.274 267.907 443.869 250.173C433.464 232.439 430.569 211.81 435.726 192.086C442.964 164.309 465.041 143.137 493.27 136.804L493.541 138.161L493.361 136.894C513.99 132.189 532.447 121.423 546.562 105.679C546.833 105.408 547.014 105.136 547.286 104.955C549.729 102.332 551.991 100.251 553.891 98.8029C561.038 93.4647 570.629 90.298 584.02 88.7599C605.011 86.4074 625.459 84.5978 644.731 83.4216C649.617 83.1502 657.85 82.6073 665.088 87.7646C672.508 93.0123 675.312 101.608 676.308 107.941C676.398 108.665 675.946 109.389 675.222 109.479L651.879 114.094L577.958 139.518C577.596 140.061 577.234 140.694 576.872 141.328C577.324 147.571 577.777 153.904 578.32 160.147C578.953 168.29 579.677 176.614 580.401 184.757C584.11 192.719 586.191 201.134 586.644 209.82C586.644 210.272 586.915 220.587 584.11 231.263C575.062 265.464 543.938 288.265 509.918 288.265ZM493.994 139.518C466.76 145.671 445.407 166.119 438.44 192.9C428.126 232.349 451.74 272.883 491.189 283.198C510.28 288.174 530.185 285.46 547.286 275.507C564.296 265.555 576.51 249.54 581.486 230.449C584.201 220.134 583.929 209.91 583.929 209.82C583.567 201.496 581.486 193.353 577.867 185.662C577.777 185.481 577.777 185.391 577.777 185.21C577.053 176.976 576.329 168.562 575.605 160.328C575.062 153.904 574.61 147.39 574.158 141.056C574.158 140.785 574.158 140.513 574.339 140.332C574.882 139.337 575.424 138.432 576.058 137.528C576.239 137.256 576.42 137.075 576.782 136.985L651.245 111.379C651.336 111.379 651.336 111.379 651.426 111.289L673.503 106.946C672.417 101.336 669.793 94.1885 663.55 89.8456C657.126 85.2312 649.526 85.7741 644.912 86.0455C625.73 87.2217 605.282 89.0313 584.291 91.3837C571.443 92.8314 562.305 95.8172 555.519 100.884C553.71 102.241 551.538 104.232 549.276 106.765C549.095 107.036 548.824 107.217 548.643 107.489C534.166 123.594 515.256 134.723 493.994 139.518Z" fill="black"/>
<path d="M577.323 138.342C572.437 138.975 567.551 139.518 562.665 140.151C554.974 141.147 548.279 146.394 546.017 153.814C544.75 157.976 544.841 162.59 546.56 167.023L548.551 171.909C552.26 181.048 562.122 186.114 571.622 183.762C574.518 183.038 577.504 182.314 580.4 181.59" fill="#3FD1FF"/>
<path d="M567.101 185.662C558.596 185.662 550.634 180.505 547.376 172.452L545.386 167.566C543.576 163.043 543.305 158.157 544.752 153.452C547.105 145.671 554.162 139.88 562.577 138.885L577.234 137.075C577.958 136.985 578.682 137.528 578.772 138.252C578.863 138.975 578.32 139.699 577.596 139.79L562.939 141.599C555.61 142.504 549.457 147.48 547.376 154.266C546.11 158.338 546.291 162.59 547.919 166.571L549.91 171.457C553.348 179.872 562.577 184.667 571.444 182.495L580.22 180.324C580.944 180.143 581.668 180.595 581.849 181.319C582.03 182.043 581.577 182.767 580.853 182.948L572.077 185.119C570.358 185.481 568.729 185.662 567.101 185.662Z" fill="black"/>
<path d="M670.426 142.957L688.702 139.066C692.322 138.342 695.76 140.876 696.122 144.585C696.484 147.842 694.222 150.828 691.055 151.371L670.788 155.624" fill="#3FD1FF"/>
<path d="M670.787 157.071C670.153 157.071 669.61 156.618 669.429 155.985C669.249 155.261 669.701 154.537 670.515 154.356L690.782 150.104C693.316 149.652 695.035 147.299 694.763 144.766C694.582 143.409 693.949 142.142 692.773 141.327C691.687 140.513 690.24 140.151 688.882 140.423L670.606 144.313C669.882 144.494 669.158 144.042 668.977 143.228C668.796 142.504 669.249 141.78 670.063 141.599L688.339 137.708C690.42 137.256 692.682 137.799 694.402 139.066C696.121 140.332 697.206 142.323 697.478 144.404C697.84 148.294 695.125 152.004 691.325 152.728L671.149 156.98C670.968 157.071 670.877 157.071 670.787 157.071Z" fill="black"/>
<path d="M724.983 344.723C716.388 350.424 704.716 348.071 699.016 339.476L679.834 310.613C674.134 302.018 676.487 290.346 685.082 284.646C693.678 278.946 705.349 281.298 711.049 289.894L730.231 318.756C735.931 327.352 733.578 338.933 724.983 344.723Z" fill="#3FD1FF"/>
<path d="M714.669 349.156C713.312 349.156 711.955 349.066 710.688 348.794C705.441 347.708 700.917 344.723 697.931 340.199L678.75 311.336C672.597 302.107 675.13 289.621 684.359 283.559C688.793 280.573 694.221 279.578 699.469 280.573C704.717 281.659 709.241 284.645 712.227 289.169L731.408 318.031C737.56 327.26 735.027 339.746 725.798 345.808C722.36 347.98 718.56 349.156 714.669 349.156ZM695.398 282.835C692.05 282.835 688.702 283.831 685.807 285.731C681.916 288.264 679.292 292.245 678.388 296.769C677.483 301.293 678.388 305.907 680.921 309.798L700.102 338.66C702.636 342.551 706.617 345.175 711.141 346.08C715.665 346.985 720.279 346.08 724.17 343.546C732.132 338.299 734.303 327.441 729.055 319.479L709.874 290.616C707.341 286.726 703.36 284.102 698.836 283.197C697.75 283.016 696.574 282.835 695.398 282.835Z" fill="black"/>
<path d="M703.452 365.262C694.856 370.962 683.185 368.609 677.484 360.014L658.303 331.151C652.603 322.556 654.955 310.884 663.551 305.184C672.146 299.484 683.818 301.836 689.518 310.432L708.699 339.294C714.4 347.98 712.047 359.561 703.452 365.262Z" fill="#3FD1FF"/>
<path d="M693.138 369.786C691.781 369.786 690.424 369.695 689.157 369.424C683.909 368.338 679.385 365.352 676.4 360.828L657.218 331.966C651.066 322.737 653.599 310.251 662.828 304.189C672.057 298.036 684.543 300.57 690.605 309.799L709.786 338.661C712.772 343.095 713.767 348.523 712.772 353.771C711.686 359.019 708.7 363.543 704.177 366.529C700.919 368.61 697.029 369.786 693.138 369.786ZM673.957 303.465C670.7 303.465 667.352 304.37 664.366 306.36C656.404 311.608 654.233 322.466 659.48 330.428L678.662 359.29C681.195 363.181 685.176 365.805 689.7 366.71C694.224 367.614 698.838 366.71 702.729 364.176C706.62 361.643 709.243 357.662 710.148 353.138C711.053 348.614 710.148 343.999 707.615 340.109L688.433 311.246C685.086 306.18 679.566 303.465 673.957 303.465Z" fill="black"/>
<path d="M684.542 386.072C675.946 391.772 664.274 389.42 658.574 380.824L639.393 351.962C633.693 343.366 636.045 331.695 644.641 325.994C653.236 320.294 664.908 322.647 670.608 331.242L689.789 360.105C695.489 368.791 693.137 380.372 684.542 386.072Z" fill="#3FD1FF"/>
<path d="M674.228 390.596C667.714 390.596 661.29 387.43 657.49 381.639L638.308 352.776C632.156 343.548 634.689 331.062 643.918 325C653.147 318.847 665.633 321.38 671.695 330.609L690.876 359.472C693.862 363.905 694.857 369.334 693.862 374.582C692.776 379.829 689.79 384.353 685.266 387.339C681.919 389.511 678.028 390.596 674.228 390.596ZM655.047 324.276C651.789 324.276 648.442 325.18 645.456 327.171C637.494 332.419 635.322 343.276 640.57 351.238L659.752 380.101C664.999 388.063 675.857 390.234 683.819 384.987C687.709 382.453 690.333 378.472 691.238 373.948C692.143 369.424 691.238 364.81 688.705 360.919L669.523 332.057C666.175 326.99 660.656 324.276 655.047 324.276Z" fill="black"/>
<path d="M654.866 374.58C654.775 374.942 654.685 375.304 654.594 375.666C642.289 382.362 629.17 387.79 615.508 391.771C623.47 378.471 631.522 365.261 639.485 351.961C644.551 359.471 649.709 367.071 654.866 374.58Z" fill="#3FD1FF"/>
<path d="M615.506 393.128C615.054 393.128 614.692 392.947 614.421 392.585C614.059 392.133 614.059 391.5 614.33 391.047L620.754 380.371C626.635 370.69 632.426 360.918 638.307 351.237C638.578 350.875 638.94 350.604 639.393 350.604C639.845 350.604 640.297 350.784 640.569 351.237L655.95 373.856C656.131 374.128 656.222 374.49 656.131 374.852C656.041 375.214 655.95 375.576 655.86 376.028C655.769 376.39 655.498 376.752 655.226 376.933C642.74 383.719 629.44 389.238 615.868 393.219C615.778 393.128 615.597 393.128 615.506 393.128ZM639.483 354.494C633.964 363.632 628.535 372.771 623.016 381.819L618.402 389.419C630.435 385.709 642.198 380.733 653.326 374.761L639.483 354.494Z" fill="black"/>
<path d="M653.145 161.865C653.687 167.294 658.573 173.175 663.188 174.713C666.807 175.89 670.064 174.804 671.24 174.261C671.693 169.194 672.235 164.127 672.688 159.061L653.145 161.865Z" fill="black"/>
<path d="M563.21 155.441C563.029 154.717 562.305 154.265 561.582 154.355C560.858 154.536 560.405 155.26 560.496 155.984L564.115 173.084C564.205 173.718 564.839 174.17 565.472 174.17C565.563 174.17 565.653 174.17 565.744 174.17C566.467 173.989 566.92 173.265 566.829 172.541L563.21 155.441Z" fill="black"/>
<path d="M600.125 219.318C600.849 222.304 601.754 225.29 602.297 228.366C603.021 232.98 603.835 237.504 604.559 242.119C608.178 232.799 611.888 223.571 615.507 214.251L605.826 212.985C602.025 212.532 599.311 216.061 600.125 219.318Z" fill="black"/>
<path d="M654.412 150.556C656.584 150.375 658.122 148.385 657.941 146.213C657.76 144.042 655.769 142.503 653.598 142.684C651.426 142.865 649.888 144.856 650.069 147.027C650.341 149.199 652.241 150.737 654.412 150.556Z" fill="black"/>
</svg>
