<svg xmlns="http://www.w3.org/2000/svg" width="338" height="171" viewBox="0 0 338 171" fill="none">

<path d="M337.482 158.094C337.482 164.5 331.724 169.675 324.589 169.675H81.6656C74.5677 169.675 68.7734 164.5 68.7734 158.094V24.2643C68.7734 17.8587 74.5315 12.6836 81.6656 12.6836H271.789C278.923 12.6836 284.682 17.8587 284.682 24.2643V95.8838C284.682 107.428 290.476 118.321 300.435 125.596L332.701 149.083C335.707 151.29 337.482 154.62 337.482 158.094Z" fill="white"/>
<path d="M324.59 170.254H81.6659C74.242 170.254 68.2305 164.825 68.2305 158.13V24.2642C68.2305 17.5691 74.242 12.1406 81.6659 12.1406H271.79C279.213 12.1406 285.225 17.5691 285.225 24.2642V95.8837C285.225 107.283 290.874 117.959 300.761 125.161L333.027 148.648C336.214 150.964 338.025 154.402 338.025 158.094C338.025 164.789 331.977 170.254 324.59 170.254ZM81.6659 13.1901C74.8576 13.1901 69.3169 18.1481 69.3169 24.228V158.058C69.3169 164.137 74.8576 169.095 81.6659 169.095H324.59C331.398 169.095 336.939 164.137 336.939 158.058C336.939 154.728 335.273 151.58 332.376 149.481L300.109 125.994C289.969 118.611 284.139 107.609 284.139 95.8475V24.2642C284.139 18.1843 278.598 13.2263 271.79 13.2263H81.6659V13.1901Z" fill="black"/>
<path d="M108.102 169.711H81.6656C74.5677 169.711 68.7734 163.957 68.7734 156.828V120.023L69.5701 116.874L80.6516 148.649L104.336 85.8232L108.102 169.711Z" fill="#F9D84E"/>
<path d="M108.102 170.253H81.6659C74.242 170.253 68.2305 164.246 68.2305 156.827V120.022C68.2305 119.986 68.2305 119.95 68.2305 119.877L69.0272 116.729C69.0996 116.512 69.2807 116.331 69.5342 116.331C69.7877 116.331 70.0049 116.475 70.0774 116.693L80.6881 147.056L103.829 85.6418C103.938 85.3885 104.155 85.2437 104.408 85.2799C104.662 85.3161 104.843 85.5333 104.879 85.7866L108.645 169.674C108.645 169.819 108.609 169.964 108.5 170.072C108.392 170.181 108.283 170.253 108.102 170.253ZM69.3169 120.094V156.827C69.3169 163.631 74.8576 169.168 81.6659 169.168H107.559L103.937 88.537L81.1951 148.865C81.1227 149.082 80.9054 149.227 80.6881 149.227C80.4708 149.227 80.2535 149.082 80.1811 148.865L69.679 118.792L69.3169 120.094Z" fill="black"/>
<path d="M187.843 59.9471C174.081 58.1376 155.214 63.3128 130.335 65.8823C115.705 67.4022 104.008 78.621 101.871 93.1693C101.871 93.2417 101.835 93.3503 101.835 93.4226C98.829 118.755 95.787 144.088 92.7812 169.421H199.793C204.791 169.385 209.788 169.385 214.786 169.349C216.416 167.033 222.029 158.456 220.435 147.164C219.675 141.845 217.574 137.791 215.981 135.33C219.675 129.033 224.89 117.778 224.817 103.302C224.781 96.933 224.672 77.9696 211.527 67.2936C205.407 62.3357 199.141 61.4309 187.843 59.9471Z" fill="#F9D84E"/>
<path d="M92.8166 170C92.6718 170 92.5269 169.927 92.4183 169.819C92.3096 169.71 92.2734 169.566 92.2734 169.385L101.327 93.3862L101.363 93.1329C103.5 78.3313 115.414 66.9315 130.298 65.3753C139.315 64.4344 147.681 63.1316 155.068 62.0097C168.504 59.9469 179.078 58.2821 187.914 59.4402C198.887 60.8878 205.514 61.7202 211.96 66.9677C225.323 77.7884 225.396 97.0414 225.432 103.375C225.504 114.34 222.463 125.378 216.704 135.366C218.986 139.021 220.471 142.966 221.05 147.128C222.571 157.949 217.537 166.526 215.292 169.674C215.183 169.819 215.039 169.891 214.858 169.891L199.865 169.964H92.8166V170ZM93.3961 168.914H199.793L214.532 168.842C216.777 165.585 221.376 157.478 219.928 147.273C219.348 143.183 217.863 139.275 215.582 135.656C215.473 135.475 215.473 135.258 215.582 135.077C221.376 125.161 224.382 114.195 224.346 103.338C224.309 97.1499 224.237 78.2589 211.272 67.7639C205.333 62.9506 199.467 62.0097 187.769 60.4897C179.078 59.3678 168.576 60.9964 155.213 63.0592C147.825 64.2173 139.46 65.4839 130.407 66.4248C116.03 67.9086 104.514 78.9465 102.45 93.2414L102.413 93.4948L93.3961 168.914Z" fill="black"/>
<path d="M154.02 169.24C157.062 158.094 160.104 146.948 163.146 135.801C164.558 130.59 168.18 126.283 173.069 124.003L184.259 118.756C183.643 115.68 183.028 112.567 182.448 109.491L119.182 125.415C115.307 140.144 111.469 154.909 107.594 169.639C123.057 169.494 138.557 169.385 154.02 169.24Z" fill="#FF6EC1"/>
<path d="M107.557 170.146C107.376 170.146 107.231 170.073 107.122 169.929C107.014 169.784 106.977 169.639 107.014 169.458L118.602 125.234C118.638 125.053 118.819 124.908 119 124.836L182.266 108.913C182.411 108.876 182.556 108.913 182.701 108.985C182.81 109.057 182.918 109.202 182.954 109.347L184.765 118.611C184.801 118.865 184.693 119.118 184.475 119.191L173.285 124.438C168.541 126.682 165.029 130.844 163.689 135.91L154.563 169.349C154.49 169.567 154.273 169.748 154.056 169.748L107.557 170.146ZM119.58 125.849L108.245 169.096L153.585 168.734L162.602 135.693C164.051 130.337 167.781 125.886 172.815 123.533L183.606 118.467L181.977 110.179L119.58 125.849Z" fill="black"/>
<path d="M199.215 144.233C199.432 152.629 199.613 161.025 199.831 169.421C214.063 169.349 228.295 169.24 242.491 169.168C236.37 144.595 230.286 120.022 224.166 95.4492L221.378 107.102" fill="#F9D84E"/>
<path d="M173.865 140.145C176.106 140.145 177.921 138.33 177.921 136.091C177.921 133.853 176.106 132.038 173.865 132.038C171.623 132.038 169.809 133.853 169.809 136.091C169.809 138.33 171.623 140.145 173.865 140.145Z" fill="white"/>
<path d="M173.865 140.723C171.33 140.723 169.266 138.661 169.266 136.127C169.266 133.594 171.33 131.531 173.865 131.531C176.4 131.531 178.464 133.594 178.464 136.127C178.464 138.661 176.436 140.723 173.865 140.723ZM173.865 132.581C171.909 132.581 170.352 134.173 170.352 136.091C170.352 138.009 171.945 139.602 173.865 139.602C175.784 139.602 177.378 138.009 177.378 136.091C177.378 134.173 175.82 132.581 173.865 132.581Z" fill="black"/>
<path d="M140.439 132.543C158.34 132.543 172.851 118.042 172.851 100.153C172.851 82.2653 158.34 67.7637 140.439 67.7637C122.538 67.7637 108.027 82.2653 108.027 100.153C108.027 118.042 122.538 132.543 140.439 132.543Z" fill="#3FD1FF"/>
<path d="M140.439 133.086C122.26 133.086 107.484 118.321 107.484 100.153C107.484 81.9861 122.26 67.2207 140.439 67.2207C158.619 67.2207 173.394 81.9861 173.394 100.153C173.394 118.321 158.583 133.086 140.439 133.086ZM140.439 68.3064C122.875 68.3064 108.571 82.6013 108.571 100.153C108.571 117.705 122.875 132 140.439 132C158.003 132 172.308 117.705 172.308 100.153C172.308 82.6013 158.003 68.3064 140.439 68.3064Z" fill="black"/>
<path d="M127.8 129.72L123.382 140.541C122.15 143.545 123.925 146.911 127.112 147.598C129.502 148.105 131.892 146.911 132.906 144.703L142.032 124.943" fill="#3FD1FF"/>
<path d="M128.234 148.25C127.836 148.25 127.438 148.214 127.003 148.105C125.337 147.743 123.925 146.694 123.128 145.174C122.332 143.654 122.259 141.916 122.875 140.324L127.293 129.54C127.402 129.25 127.727 129.141 128.017 129.25C128.307 129.359 128.416 129.684 128.307 129.974L123.889 140.758C123.382 142.025 123.454 143.473 124.07 144.703C124.685 145.934 125.844 146.802 127.22 147.092C129.357 147.562 131.494 146.476 132.435 144.486L141.561 124.726C141.67 124.437 141.996 124.328 142.286 124.473C142.575 124.582 142.684 124.907 142.539 125.197L133.413 144.956C132.472 146.983 130.444 148.25 128.234 148.25Z" fill="black"/>
<path d="M170.39 95.8477C172.491 96.2819 174.265 96.7162 176.366 97.1505C179.697 97.8381 182.413 100.371 183.138 103.737C183.536 105.619 183.319 107.646 182.413 109.491L181.363 111.554C179.408 115.426 174.917 117.272 170.825 115.897C169.557 115.463 168.326 115.064 167.059 114.63L169.123 104.859" fill="#3FD1FF"/>
<path d="M173.574 116.837C172.596 116.837 171.618 116.693 170.677 116.367L166.911 115.1C166.657 115.028 166.512 114.738 166.548 114.485L168.613 104.714C168.685 104.424 168.975 104.243 169.265 104.279C169.554 104.352 169.735 104.641 169.699 104.931L167.744 114.232L171.039 115.354C174.841 116.62 179.115 114.883 180.925 111.3L181.976 109.237C182.845 107.537 183.062 105.691 182.664 103.845C182.012 100.769 179.513 98.3805 176.29 97.6929C175.24 97.4758 174.262 97.2586 173.284 97.0415C172.306 96.8244 171.365 96.6072 170.278 96.3901C169.989 96.3177 169.808 96.0282 169.844 95.7387C169.916 95.4492 170.206 95.2682 170.496 95.3044C171.546 95.5215 172.524 95.7387 173.502 95.9558C174.479 96.173 175.421 96.3901 176.507 96.6072C180.129 97.3672 182.953 100.118 183.714 103.592C184.148 105.691 183.895 107.79 182.917 109.708L181.867 111.771C180.237 114.955 176.978 116.837 173.574 116.837Z" fill="black"/>
<path d="M110.236 90.5273C108.099 90.5635 106.252 90.5997 104.116 90.6359C100.712 90.6721 97.5247 92.6263 96.1848 95.7387C95.4243 97.5119 95.207 99.5024 95.7865 101.529L96.4021 103.773C97.561 107.935 101.581 110.613 105.89 110.07C107.194 109.889 108.534 109.744 109.838 109.563L109.729 99.5748" fill="#3FD1FF"/>
<path d="M104.803 110.685C100.71 110.685 96.9804 107.934 95.8578 103.917L95.2422 101.674C94.6628 99.6108 94.8076 97.4756 95.6767 95.5213C97.0891 92.2643 100.421 90.1291 104.115 90.0929C105.201 90.0929 106.179 90.0567 107.157 90.0567C108.171 90.0205 109.148 90.0205 110.235 90.0205C110.525 90.0205 110.778 90.2738 110.778 90.5634C110.778 90.8529 110.525 91.1062 110.235 91.1062C109.148 91.1062 108.171 91.1424 107.157 91.1424C106.179 91.1786 105.165 91.1786 104.115 91.1786C100.855 91.2148 97.922 93.0966 96.6545 95.9556C95.894 97.6927 95.7854 99.5384 96.2924 101.384L96.908 103.628C97.9945 107.5 101.797 110.033 105.78 109.563L109.257 109.129L109.148 99.6108C109.148 99.3213 109.402 99.0679 109.692 99.0679C109.981 99.0679 110.235 99.3213 110.235 99.6108L110.343 109.599C110.343 109.889 110.126 110.106 109.873 110.142L105.925 110.649C105.563 110.649 105.165 110.685 104.803 110.685Z" fill="black"/>
<path d="M10.6118 51.0443L29.9864 99.5023C31.9781 104.497 32.9197 94.87 37.7724 92.5539L39.3658 91.7939C43.9288 89.6225 45.9206 84.1941 43.8201 79.598L27.7049 43.7701C24.9888 37.7626 17.0579 36.3874 12.4949 41.2006C9.99617 43.8425 9.27189 47.6786 10.6118 51.0443Z" fill="#3FD1FF"/>
<path d="M31.1091 101.457C31.0729 101.457 31.0729 101.457 31.0366 101.457C30.2399 101.421 29.8054 100.48 29.4794 99.6836L10.1049 51.2256C8.69256 47.679 9.48927 43.5896 12.0967 40.8391C14.342 38.4506 17.6374 37.3649 20.8605 37.9078C24.0835 38.4506 26.8358 40.5858 28.1757 43.5534L44.291 79.3812C46.4638 84.2306 44.3272 89.9848 39.547 92.2648L37.9535 93.0247C35.8169 94.0381 34.4408 96.6799 33.4268 98.6341C32.5938 100.335 32.0144 101.457 31.1091 101.457ZM11.1189 50.8275L30.4934 99.2856C30.8194 100.118 31.0366 100.299 31.1091 100.371C31.435 100.226 32.0506 99.0322 32.5214 98.1275C33.6078 96.0647 35.0926 93.2057 37.5552 92.0476L39.1486 91.2876C43.4219 89.261 45.305 84.1221 43.3494 79.8155L27.2342 43.9876C26.0391 41.3096 23.6128 39.4639 20.7156 38.9573C17.8547 38.4506 14.9214 39.4277 12.8934 41.5629C10.5395 44.06 9.8514 47.679 11.1189 50.8275Z" fill="black"/>
<path d="M3.11566 93.9659L30.3124 122.411C34.0425 126.283 40.2351 126.211 43.8927 122.266L45.0877 120.963C48.4919 117.236 48.3108 111.482 44.6532 107.971L16.2614 80.7928C11.4811 76.2329 3.62266 77.97 1.19632 84.0861C-0.143602 87.5241 0.616888 91.3602 3.11566 93.9659Z" fill="#3FD1FF"/>
<path d="M37.0122 125.849C34.2962 125.849 31.7974 124.763 29.9143 122.809L2.71753 94.3639C0.0739081 91.6135 -0.722792 87.524 0.689556 83.9774C1.88462 80.9375 4.52823 78.6937 7.71507 77.9699C10.9019 77.2462 14.2336 78.1871 16.6237 80.467L45.0155 107.646C48.8542 111.301 49.0353 117.489 45.4501 121.398L44.255 122.7C42.4081 124.727 39.8731 125.849 37.1209 125.885C37.0847 125.849 37.0484 125.849 37.0122 125.849ZM9.81548 78.8385C9.19984 78.8385 8.548 78.9109 7.93236 79.0556C5.07145 79.6709 2.75374 81.6613 1.66732 84.3755C0.43604 87.524 1.12411 91.1792 3.47802 93.6039L30.6748 122.049C32.3768 123.822 34.6583 124.799 37.0847 124.763C39.5472 124.727 41.7925 123.714 43.4583 121.94L44.6534 120.638C47.8402 117.163 47.6592 111.699 44.255 108.406L15.8632 81.227C14.2336 79.6709 12.0607 78.8385 9.81548 78.8385Z" fill="black"/>
<path d="M9.74448 35.8802L29.119 84.3383C31.1108 89.3324 32.0523 79.706 36.905 77.3898L38.4984 76.6299C43.0614 74.4585 45.0532 69.03 42.9528 64.4339L26.8375 28.6061C24.1215 22.5986 16.1906 21.2233 11.6276 26.0366C9.16506 28.6784 8.40456 32.5145 9.74448 35.8802Z" fill="#3FD1FF"/>
<path d="M30.2379 86.2929C30.2017 86.2929 30.2017 86.2929 30.1655 86.2929C29.3688 86.2567 28.9342 85.3158 28.6083 84.5196L9.23381 36.0615C7.82146 32.5149 8.61817 28.4255 11.2256 25.6751C13.4709 23.2866 16.7663 22.2009 19.9894 22.7437C23.2124 23.2865 25.9647 25.4217 27.3046 28.3893L43.4198 64.2171C45.5927 69.0666 43.4561 74.8207 38.6758 77.1007L37.0824 77.8607C34.9458 78.874 33.5696 81.5158 32.5556 83.4701C31.7589 85.171 31.1433 86.2929 30.2379 86.2929ZM10.2478 35.6634L29.6223 84.1215C29.9482 84.9539 30.1655 85.1348 30.2379 85.2072C30.5639 85.0624 31.1795 83.8682 31.6503 82.9634C32.7367 80.9006 34.2215 78.0416 36.684 76.8836L38.2774 76.1236C42.5507 74.0969 44.4338 68.958 42.4783 64.6514L26.363 28.8236C25.168 26.1455 22.7416 24.2999 19.8445 23.7932C16.9836 23.3227 14.0503 24.2637 12.0223 26.3989C9.70458 28.896 8.98031 32.5149 10.2478 35.6634Z" fill="black"/>
<path d="M36.2896 133.882C33.6098 128.599 30.6764 121.252 29.1916 112.168C26.2945 94.2545 30.7489 79.7063 33.5736 72.4683L21.6954 39.2099C20.4641 35.8081 21.3332 32.0082 23.9406 29.4387C28.6484 24.8064 36.5431 26.435 39.0419 32.551L46.2485 50.1754C48.1316 54.8077 52.4411 65.4113 54.3242 70.0798C58.0542 79.3082 62.8345 91.0336 66.5645 100.262L73.6263 119.479C77.2115 129.286 72.5398 140.179 62.9431 144.305C62.8345 144.341 62.7259 144.413 62.6172 144.45C53.6723 148.322 43.2427 145.029 38.1003 136.741L36.2896 133.882Z" fill="#3FD1FF"/>
<path d="M54.7919 146.622C52.7639 146.622 50.6997 146.296 48.7442 145.681C44.1088 144.233 40.1615 141.157 37.6265 137.031L35.852 134.172C35.852 134.172 35.852 134.136 35.8158 134.136C32.303 127.188 29.9129 119.841 28.6816 112.278C26.0018 95.6665 29.5507 81.4802 33.0273 72.4689L21.1853 39.4277C19.8816 35.8449 20.8232 31.7917 23.5392 29.1136C25.8931 26.7975 29.1886 25.8204 32.4116 26.508C35.6347 27.1594 38.2783 29.3669 39.5458 32.4069L46.7524 50.0313C48.6355 54.6998 52.945 65.2672 54.8282 69.9356C58.5582 79.164 63.3385 90.8895 67.0685 100.118L74.1302 119.335C77.8241 129.395 73.0076 140.614 63.1574 144.848L62.8315 144.993C60.2603 146.043 57.5442 146.622 54.7919 146.622ZM36.7573 133.63L38.5318 136.489C43.4932 144.486 53.7417 147.707 62.3607 143.98L62.6866 143.835C71.9936 139.818 76.5566 129.214 73.08 119.697L66.0183 100.48C62.2882 91.2876 57.508 79.5259 53.7779 70.2975C51.8948 65.6653 47.5853 55.0617 45.7022 50.3932L38.4956 32.7688C37.373 30.0546 35.0191 28.1003 32.1581 27.5213C29.2972 26.9422 26.3639 27.8108 24.2635 29.8374C21.8371 32.2259 21.0042 35.8087 22.1631 39.0296L34.0775 72.2518C34.1137 72.3604 34.1137 72.5051 34.0775 72.6137C30.6009 81.5164 27.052 95.558 29.6956 112.06C30.9631 119.552 33.317 126.79 36.7573 133.63Z" fill="black"/>
<path d="M278.242 0.543945H184.086V58.0856H278.242V0.543945Z" fill="#F15922"/>
<path d="M278.243 58.6293H184.086C183.796 58.6293 183.543 58.376 183.543 58.0865V0.544799C183.543 0.255281 183.796 0.00195312 184.086 0.00195312H278.243C278.532 0.00195312 278.786 0.255281 278.786 0.544799V58.0865C278.786 58.376 278.532 58.6293 278.243 58.6293ZM184.629 57.5436H277.699V1.08765H184.629V57.5436Z" fill="black"/>
<path d="M231.162 29.677C231.053 29.677 230.981 29.6408 230.872 29.6046L183.794 1.01471C183.54 0.869956 183.468 0.508056 183.613 0.254728C183.758 0.00139953 184.12 -0.07098 184.373 0.073779L231.162 28.4827L277.95 0.073779C278.204 -0.07098 278.53 0.00139953 278.711 0.254728C278.856 0.508056 278.783 0.833766 278.53 1.01471L231.452 29.6046C231.343 29.6408 231.234 29.677 231.162 29.677Z" fill="black"/>
<path d="M278.24 58.6285C278.131 58.6285 278.059 58.5924 277.95 58.5562L231.162 29.7853L184.373 58.5562C184.12 58.7009 183.794 58.6285 183.613 58.3752C183.468 58.1219 183.54 57.7962 183.794 57.6152L230.872 28.6635C231.053 28.5549 231.271 28.5549 231.452 28.6635L278.53 57.6152C278.783 57.76 278.856 58.1219 278.711 58.3752C278.602 58.52 278.421 58.6285 278.24 58.6285Z" fill="black"/>
<path d="M148.152 118.503C147.355 118.503 146.703 119.154 146.703 119.951C146.703 120.747 147.355 121.398 148.152 121.398C148.948 121.398 149.6 120.747 149.6 119.951C149.6 119.154 148.948 118.503 148.152 118.503Z" fill="black"/>
<path d="M126.425 116.693C125.628 116.693 124.977 117.345 124.977 118.141C124.977 118.937 125.628 119.589 126.425 119.589C127.222 119.589 127.874 118.937 127.874 118.141C127.874 117.345 127.222 116.693 126.425 116.693Z" fill="black"/>
<path d="M243.036 169.06L224.712 95.3053C224.639 95.052 224.422 94.9072 224.168 94.9072C223.915 94.9072 223.698 95.0882 223.625 95.3415L220.837 106.995C220.764 107.284 220.945 107.574 221.235 107.646C221.525 107.718 221.814 107.537 221.887 107.248L224.132 97.7662L241.732 168.662L200.303 168.915L199.724 144.234C199.724 143.944 199.47 143.691 199.181 143.691C198.891 143.691 198.637 143.944 198.637 144.234L198.71 146.876C197.406 151.074 195.197 156.502 191.25 162.075C189.113 165.115 186.868 167.612 184.84 169.603C189.656 169.35 194.437 169.132 199.253 168.879V169.422C199.253 169.711 199.507 169.965 199.796 169.965L242.456 169.711C242.637 169.711 242.782 169.639 242.891 169.494C243.036 169.386 243.072 169.205 243.036 169.06Z" fill="black"/>
<path d="M157.279 81.5894C153.513 81.7342 149.747 82.7113 146.379 84.4122C144.097 85.5703 142.033 87.0179 140.186 88.7911C139.426 80.2866 144.966 72.1439 145.039 72.0353C145.22 71.782 145.147 71.4563 144.894 71.2753C144.64 71.0944 144.314 71.1667 144.133 71.4201C143.88 71.782 138.375 79.8523 139.063 88.6464C137.18 86.1855 134.899 84.0141 132.291 82.3494C129.575 80.6123 126.57 79.3818 123.346 78.7304C123.057 78.658 122.767 78.8752 122.695 79.1647C122.622 79.4542 122.84 79.7437 123.129 79.8161C126.207 80.4313 129.068 81.6256 131.712 83.2903C134.5 85.0636 136.927 87.4521 138.81 90.1664C138.774 90.2025 138.737 90.2387 138.701 90.2749C138.665 90.3111 138.665 90.3111 138.665 90.3473C138.556 90.3111 138.448 90.3111 138.339 90.2749C138.23 90.2387 138.086 90.2749 138.013 90.3473C134.754 90.3835 131.458 90.9987 128.453 92.2292C125.447 93.4234 122.695 95.1605 120.305 97.4043C120.087 97.6214 120.087 97.9471 120.268 98.1643C120.377 98.2729 120.522 98.3452 120.667 98.3452C120.812 98.3452 120.92 98.309 121.029 98.2005C123.31 96.0653 125.954 94.4006 128.815 93.2425C131.857 92.012 135.225 91.3968 138.52 91.433C138.701 91.4692 138.882 91.5054 139.063 91.5416L136.782 106.054C136.746 106.343 136.927 106.633 137.216 106.669C137.253 106.669 137.289 106.669 137.289 106.669C137.542 106.669 137.796 106.488 137.832 106.198L140.114 91.7587C142.468 92.3377 144.713 93.2425 146.813 94.4729C149.928 96.2824 152.644 98.8157 154.744 101.783C154.853 101.928 155.034 102 155.179 102C155.287 102 155.396 101.964 155.505 101.892C155.758 101.711 155.794 101.385 155.649 101.132C153.477 98.0195 150.616 95.4139 147.393 93.4958C145.184 92.193 142.83 91.2521 140.367 90.673C140.403 90.6006 140.403 90.4921 140.367 90.4197C140.331 90.3111 140.331 90.2025 140.331 90.094C142.25 88.1759 144.423 86.5836 146.849 85.3531C150.072 83.7246 153.658 82.7837 157.279 82.6751C157.569 82.6751 157.822 82.4218 157.786 82.096C157.822 81.8065 157.569 81.5894 157.279 81.5894Z" fill="black"/>
</svg>