<svg width="433" height="353" viewBox="0 0 433 353" fill="none" xmlns="http://www.w3.org/2000/svg">
<g clip-path="url(#clip0)">
<path d="M238.079 59.2192L193.987 52.0578L204.434 24.0753C206.744 17.8821 203.725 15.0667 197.715 17.8134L145.501 41.6843L123.704 11.6147C120.573 7.29889 116.644 7.90733 114.965 12.9678L103.284 48.2279L46.2951 41.2664C39.736 40.466 37.71 44.0626 41.7843 49.2673L60.2107 72.7725L20.3432 92.9346C12.8449 96.7245 13.496 100.929 21.7903 102.28L65.8823 109.441L55.4349 137.424C53.1256 143.617 56.1444 146.432 62.1542 143.686L114.368 119.815L136.167 149.891C139.297 154.206 143.227 153.598 144.905 148.537L156.587 113.277L213.575 120.239C220.134 121.039 222.16 117.443 218.086 112.238L199.665 88.7256L239.526 68.5644C247.024 64.7745 246.373 60.5701 238.079 59.2192Z" fill="#171717"/>
<path d="M252.399 162.492V300.031C252.399 306.602 247.063 311.934 240.487 311.934H15.7863C9.21025 311.934 3.875 306.602 3.875 300.031C3.875 296.435 5.48799 293.025 8.31071 290.762L38.1509 266.615C47.3635 259.144 52.7298 247.954 52.7298 236.081V162.461C52.7298 155.889 58.0651 150.558 64.6411 150.558H240.487C247.032 150.589 252.399 155.92 252.399 162.492Z" fill="white"/>
<path d="M240.457 312.399H15.7867C8.96254 312.399 3.41016 306.851 3.41016 300.031C3.41016 296.28 5.08518 292.777 8.00096 290.422L37.8412 266.274C46.9918 258.865 52.234 247.892 52.234 236.113V162.492C52.234 155.673 57.7863 150.124 64.6105 150.124H240.457C247.281 150.124 252.833 155.673 252.833 162.492V300.031C252.864 306.851 247.281 312.399 240.457 312.399ZM64.6105 151.054C58.2826 151.054 53.1645 156.2 53.1645 162.492V236.113C53.1645 248.171 47.7982 259.423 38.4305 266.987L8.59032 291.134C5.89167 293.304 4.34072 296.559 4.34072 300.031C4.34072 306.355 9.48987 311.469 15.7867 311.469H240.457C246.785 311.469 251.903 306.324 251.903 300.031V162.492C251.903 156.169 246.754 151.054 240.457 151.054H64.6105Z" fill="black"/>
<path d="M136.172 158.896L118.709 164.414C113.715 168.692 108.721 172.969 103.727 177.247C110.147 186.919 116.537 196.559 122.958 206.23C122.741 210.508 122.555 214.817 122.338 219.095C128.852 218.785 135.366 218.475 141.88 218.165C142.283 214.104 142.717 210.074 143.121 206.013L145.199 205.362C152.581 203.038 156.552 195.009 153.915 187.725L149.511 175.48C148.58 171.884 147.649 168.289 146.688 164.693C145.54 160.105 140.701 157.439 136.172 158.896Z" fill="#F9D84E"/>
<path d="M122.335 219.56C122.211 219.56 122.087 219.498 121.994 219.436C121.901 219.343 121.839 219.219 121.87 219.095L122.49 206.386L103.352 177.527C103.228 177.341 103.259 177.062 103.445 176.907L118.427 164.073C118.489 164.042 118.52 164.011 118.582 163.98L136.046 158.463C138.372 157.719 140.823 157.967 142.963 159.145C145.103 160.323 146.592 162.276 147.213 164.631L150.004 175.388L154.378 187.601C155.681 191.259 155.464 195.165 153.758 198.636C152.052 202.108 149.043 204.65 145.351 205.828L143.552 206.386L142.343 218.227C142.312 218.444 142.125 218.63 141.908 218.63L122.335 219.56ZM104.344 177.31L123.328 205.952C123.39 206.045 123.421 206.138 123.39 206.231L122.801 218.599L141.443 217.7L142.653 205.952C142.684 205.766 142.808 205.611 142.963 205.549L145.041 204.898C148.484 203.813 151.276 201.426 152.889 198.171C154.502 194.917 154.719 191.259 153.478 187.88L149.074 175.636V175.605L146.251 164.817C145.693 162.71 144.359 160.974 142.436 159.92C140.512 158.866 138.341 158.649 136.263 159.3L118.892 164.786L104.344 177.31Z" fill="black"/>
<path d="M122.522 196.993C121.529 198.171 118.365 201.612 114.24 201.426C112.441 201.333 111.076 200.589 108.657 199.256C105.679 197.582 103.476 195.784 102.018 194.451C100.871 193.614 98.1721 191.383 96.6212 187.384C95.1633 183.571 95.5665 180.254 95.8457 178.859L95.8767 178.704C97.3966 172.319 101.739 166.987 107.664 164.197C114.705 160.911 121.747 157.657 128.788 154.371C131.704 153.007 135.023 152.697 138.093 153.658C139.427 154.092 140.823 154.743 142.126 155.828C144.794 158.029 145.476 160.787 145.848 162.027L124.755 170.397V174.427C121.56 176.596 118.334 178.766 115.139 180.936C117.652 186.299 120.103 191.662 122.522 196.993Z" fill="#3FD1FF"/>
<path d="M114.584 201.89C114.46 201.89 114.336 201.89 114.243 201.89C112.289 201.797 110.769 200.96 108.442 199.658C106.023 198.325 103.759 196.683 101.742 194.823C100.005 193.521 97.6169 191.227 96.221 187.569C94.8562 184.035 95.0423 180.843 95.4145 178.766L95.4456 178.611C97.0275 172.07 101.401 166.676 107.512 163.794L128.636 153.967C131.738 152.541 135.15 152.262 138.283 153.223C139.834 153.719 141.261 154.463 142.501 155.486C145.138 157.656 145.944 160.415 146.317 161.717L146.379 161.903C146.441 162.12 146.317 162.368 146.099 162.461L125.286 170.706V174.426C125.286 174.581 125.224 174.736 125.069 174.798L115.794 181.091L122.959 196.776C123.021 196.931 123.021 197.117 122.897 197.272C121.439 199.038 118.431 201.89 114.584 201.89ZM134.467 153.564C132.637 153.564 130.776 153.967 129.039 154.773L107.915 164.6C102.084 167.358 97.865 172.504 96.3761 178.797L96.3451 178.952C96.0039 180.874 95.8178 183.88 97.1206 187.228C98.4544 190.7 100.688 192.87 102.332 194.079L102.363 194.11C104.348 195.939 106.55 197.52 108.908 198.852C111.358 200.216 112.63 200.898 114.274 200.96C117.717 201.115 120.509 198.604 121.967 196.931L114.739 181.153C114.646 180.936 114.708 180.688 114.894 180.564L124.293 174.178V170.396C124.293 170.21 124.417 170.024 124.572 169.962L145.262 161.748C144.859 160.384 144.114 158.09 141.819 156.168C140.671 155.238 139.368 154.525 137.941 154.091C136.856 153.75 135.646 153.564 134.467 153.564Z" fill="black"/>
<path d="M120.322 177.278C118.647 178.363 117.251 179.324 115.576 180.409C112.909 182.114 111.42 185.214 111.885 188.345C112.164 190.112 113.002 191.785 114.429 193.087L116.011 194.544C118.989 197.241 123.486 197.334 126.557 194.792C127.519 194.017 128.449 193.242 129.411 192.436" fill="#F9D84E"/>
<path d="M121.467 197.055C119.389 197.055 117.342 196.311 115.729 194.854L114.147 193.397C112.689 192.064 111.759 190.329 111.448 188.407C110.952 185.152 112.472 181.866 115.357 180.006C116.194 179.479 116.97 178.952 117.714 178.456C118.49 177.96 119.265 177.433 120.103 176.906C120.32 176.751 120.599 176.813 120.754 177.03C120.878 177.247 120.816 177.526 120.63 177.681C119.792 178.208 119.017 178.735 118.273 179.231C117.497 179.727 116.722 180.254 115.884 180.781C113.309 182.424 111.945 185.369 112.41 188.252C112.689 189.988 113.496 191.537 114.798 192.715L116.38 194.172C119.172 196.683 123.422 196.807 126.337 194.42L129.191 192.064C129.377 191.909 129.688 191.94 129.843 192.126C129.998 192.312 129.967 192.622 129.781 192.777L126.927 195.133C125.314 196.404 123.391 197.055 121.467 197.055Z" fill="black"/>
<path d="M148.703 174.736C150.657 173.589 152.58 172.442 154.535 171.296C155.868 170.521 157.575 171.079 158.195 172.473C158.691 173.651 158.288 175.015 157.202 175.666C154.938 177.123 152.643 178.611 150.378 180.068" fill="#F9D84E"/>
<path d="M150.349 180.564C150.193 180.564 150.038 180.502 149.945 180.347C149.821 180.13 149.883 179.851 150.069 179.696L156.894 175.294C157.793 174.736 158.134 173.62 157.731 172.659C157.483 172.101 157.018 171.667 156.459 171.481C155.901 171.295 155.25 171.357 154.753 171.667L148.922 175.108C148.705 175.232 148.425 175.17 148.27 174.953C148.146 174.736 148.208 174.457 148.425 174.302L154.257 170.862C155.001 170.428 155.901 170.335 156.738 170.583C157.576 170.862 158.227 171.45 158.569 172.256C159.158 173.62 158.662 175.263 157.39 176.038L150.566 180.44C150.535 180.533 150.442 180.564 150.349 180.564Z" fill="black"/>
<path d="M142.965 206.231C137.382 206.2 131.829 206.169 126.246 206.138L142.965 206.231Z" fill="white"/>
<path d="M142.966 206.696L126.247 206.603C125.998 206.603 125.781 206.386 125.781 206.138C125.781 205.89 125.998 205.673 126.247 205.673L142.966 205.766C143.214 205.766 143.431 205.983 143.431 206.231C143.431 206.479 143.214 206.696 142.966 206.696Z" fill="black"/>
<path d="M86.7901 236.05C82.2924 261.19 77.7946 286.329 73.2969 311.469H96.437C93.8004 286.36 91.1638 261.221 88.5272 236.112C88.4341 235.089 86.9762 235.027 86.7901 236.05Z" fill="#F15922"/>
<path d="M96.4686 311.934H73.3285C73.2044 311.934 73.0493 311.872 72.9562 311.779C72.8632 311.686 72.8322 311.531 72.8632 311.407L86.3564 235.988C86.4805 235.307 87.0389 234.842 87.7213 234.873C88.4037 234.904 88.931 235.399 89.0241 236.081L96.9339 311.438C96.9339 311.562 96.9029 311.686 96.8098 311.81C96.7168 311.872 96.5927 311.934 96.4686 311.934ZM73.8868 311.004H95.9723L88.0935 236.174C88.0625 235.833 87.7833 235.802 87.6903 235.802C87.5972 235.802 87.318 235.802 87.256 236.143L73.8868 311.004Z" fill="black"/>
<path d="M294.709 214.29L306.558 194.699L321.882 188.345C323.929 187.508 325.604 185.927 326.566 183.943L332.211 172.319C334.382 167.824 332.645 161.066 328.148 158.897L320.672 155.301C318.066 154.03 314.809 156.479 313.569 159.051C312.297 161.655 313.414 164.786 315.988 166.026L320.703 168.289L318.966 171.885C317.074 175.79 312.359 177.433 308.42 175.543L286.861 165.127C283.666 163.577 282.333 159.764 283.884 156.572L286.892 150.372L289.467 151.612C292.29 152.976 295.702 151.798 297.098 148.977C298.463 146.156 297.284 142.746 294.461 141.352L290.18 139.275C284.38 136.485 277.432 138.903 274.64 144.668L271.228 151.736L254.075 126.348C252.152 123.776 247.406 123.807 244.676 125.512L245.886 124.83C242.939 126.689 240.923 131.308 242.877 134.191L256.277 153.751L237.914 138.004C235.587 136.268 232.299 136.733 230.562 139.058L229.477 141.135C227.833 143.335 228.205 146.435 230.283 148.233L263.349 175.326C265.21 176.906 265.893 179.51 265.055 181.804L259.782 196.125" fill="#F9D84E"/>
<path d="M294.709 214.755C294.616 214.755 294.554 214.724 294.461 214.693C294.244 214.569 294.182 214.259 294.306 214.042L306.155 194.451C306.217 194.358 306.279 194.296 306.372 194.265L321.696 187.91C323.65 187.105 325.201 185.617 326.132 183.726L331.746 172.101C333.917 167.638 331.994 161.283 327.9 159.299L320.424 155.703C318.036 154.557 315.027 156.974 313.941 159.237C313.383 160.384 313.321 161.686 313.724 162.864C314.127 164.073 314.996 165.034 316.143 165.592L320.858 167.855C321.075 167.979 321.199 168.258 321.075 168.475L319.338 172.07C317.322 176.224 312.328 177.96 308.172 175.945L286.613 165.53C283.201 163.887 281.774 159.764 283.418 156.354L286.427 150.155C286.489 150.031 286.582 149.969 286.706 149.907C286.831 149.876 286.955 149.876 287.048 149.938L289.622 151.178C292.228 152.449 295.361 151.333 296.601 148.76C297.842 146.187 296.757 143.025 294.182 141.785L289.901 139.708C284.349 137.012 277.649 139.367 274.981 144.885L271.57 151.953C271.508 152.108 271.353 152.201 271.198 152.201C271.043 152.201 270.856 152.139 270.763 151.984L253.61 126.596C252.059 124.488 248.275 124.302 245.669 125.449C244.18 126.534 243.001 128.363 242.629 130.223C242.412 131.215 242.35 132.641 243.188 133.881L256.588 153.441C256.712 153.627 256.681 153.906 256.526 154.061C256.34 154.216 256.091 154.216 255.905 154.061L237.542 138.314C236.549 137.57 235.278 137.229 234.006 137.415C232.765 137.601 231.648 138.252 230.873 139.243L229.818 141.258C229.818 141.289 229.787 141.289 229.787 141.32C228.298 143.335 228.609 146.156 230.532 147.768L263.567 174.829C265.583 176.534 266.328 179.355 265.397 181.835L260.124 196.156C260.031 196.404 259.783 196.528 259.534 196.435C259.286 196.342 259.162 196.094 259.255 195.846L264.529 181.525C265.304 179.417 264.684 177.03 262.947 175.573L229.911 148.512C227.647 146.59 227.244 143.211 229.012 140.824L230.067 138.809C230.067 138.778 230.098 138.778 230.098 138.747C230.997 137.508 232.331 136.733 233.851 136.516C235.371 136.299 236.86 136.671 238.1 137.601L253.796 151.054L242.412 134.439C241.606 133.261 241.357 131.742 241.699 130.068C242.04 128.425 242.939 126.782 244.149 125.573C244.118 125.387 244.211 125.232 244.366 125.108C244.49 125.015 244.645 124.953 244.8 124.86L245.576 124.395C245.7 124.333 245.824 124.333 245.948 124.364C248.864 123.341 252.648 123.744 254.385 126.069L271.105 150.806L274.175 144.482C277.091 138.468 284.349 135.958 290.336 138.871L294.616 140.948C297.687 142.436 298.959 146.125 297.47 149.194C295.981 152.263 292.29 153.534 289.219 152.046L287.079 151.023L284.287 156.788C282.86 159.733 284.101 163.298 287.048 164.724L308.606 175.139C310.405 176.007 312.421 176.131 314.282 175.48C316.143 174.829 317.663 173.496 318.532 171.698L320.052 168.537L315.771 166.46C314.406 165.809 313.383 164.631 312.886 163.205C312.39 161.779 312.483 160.229 313.135 158.865C314.561 155.92 318.098 153.534 320.858 154.898L328.334 158.493C330.567 159.578 332.304 161.81 333.111 164.631C333.917 167.359 333.731 170.242 332.614 172.535L327 184.16C325.976 186.268 324.239 187.91 322.068 188.809L306.9 195.102L295.113 214.569C295.02 214.693 294.864 214.755 294.709 214.755Z" fill="black"/>
<path d="M263.595 166.212C263.44 166.212 263.285 166.119 263.192 165.995L255.809 153.998C255.685 153.781 255.747 153.502 255.964 153.347C256.182 153.223 256.461 153.285 256.616 153.502L263.998 165.499C264.122 165.716 264.06 165.995 263.843 166.15C263.75 166.181 263.657 166.212 263.595 166.212Z" fill="black"/>
<path d="M119.856 217.545C119.732 216.212 119.639 214.879 119.515 213.546C119.36 211.717 120.849 210.167 122.679 210.229L150.1 211.221C152.581 211.314 153.512 214.507 151.465 215.902C150.937 216.274 150.41 216.615 149.914 216.987" fill="#F15922"/>
<path d="M119.856 218.01C119.608 218.01 119.422 217.824 119.39 217.576L119.049 213.577C118.956 212.585 119.328 211.562 120.011 210.849C120.693 210.105 121.686 209.733 122.678 209.764L150.099 210.756C151.433 210.818 152.55 211.655 152.922 212.926C153.294 214.197 152.829 215.53 151.743 216.274L150.192 217.359C149.975 217.514 149.696 217.452 149.541 217.235C149.386 217.018 149.448 216.739 149.665 216.584L151.216 215.499C152.146 214.848 152.24 213.887 152.053 213.174C151.836 212.461 151.216 211.686 150.099 211.655L122.678 210.663C121.934 210.632 121.221 210.942 120.693 211.469C120.166 211.996 119.918 212.74 119.98 213.484L120.321 217.483C120.352 217.731 120.166 217.979 119.887 217.979C119.887 218.01 119.856 218.01 119.856 218.01Z" fill="black"/>
<path d="M259.998 190.7C256.865 192.994 253.081 196.311 249.483 200.899C243.279 208.834 240.673 216.832 239.495 221.791C236.331 224.488 232.267 228.518 228.576 234.129C224.14 240.886 221.938 247.272 220.821 251.704C218.712 247.086 215.021 240.483 208.631 234.129C198.736 224.271 187.817 220.396 182.172 218.846C179.101 218.35 176.03 217.855 172.959 217.359C168.709 216.677 164.398 216.336 160.055 216.367C144.484 216.491 128.943 216.615 113.372 216.708C111.604 216.46 108.998 216.243 105.927 216.708C100.003 217.576 96.0632 220.303 95.0085 221.078C93.8918 221.884 91.3483 223.899 88.7427 227.867C83.3454 236.112 82.756 245.071 82.4769 250.434C81.9495 260.384 83.8107 269.063 86.1061 275.759C84.8963 279.262 83.3764 285.027 83.7486 292.219C84.2139 301.239 87.4399 307.966 89.3941 311.438C103.88 311.5 118.335 311.5 132.821 311.593C147.306 311.686 161.761 311.81 176.247 311.748C177.984 301.611 179.721 290.824 181.489 280.688C183.257 285.244 186.142 291.227 190.981 297.303C199.046 307.408 208.414 312.709 214.059 315.313C214.245 315.251 214.369 315.22 214.555 315.127C214.618 315.003 214.68 314.91 214.742 314.786C216.851 315.747 227.676 320.334 239.681 315.561C256.121 309.02 259.254 291.072 259.409 290.142C263.255 286.453 268.373 280.688 272.716 272.566C277.617 263.36 279.509 254.897 280.316 249.287C284.348 243.583 288.877 236.143 292.661 226.968C295.236 220.768 296.973 214.972 298.214 209.888C285.496 203.533 272.747 197.117 259.998 190.7Z" fill="#F15922"/>
<path d="M228.453 318.226C222.466 318.226 217.596 316.552 214.991 315.436C214.928 315.529 214.866 315.56 214.773 315.591L214.277 315.777C214.153 315.808 214.029 315.808 213.936 315.746C204.847 311.531 196.782 305.269 190.672 297.582C187.011 292.963 183.972 287.879 181.707 282.361C180.932 286.949 180.125 291.661 179.381 296.28C178.512 301.425 177.644 306.757 176.775 311.81C176.744 312.027 176.558 312.182 176.31 312.182C161.855 312.244 147.183 312.12 132.976 312.027H132.883C123.237 311.965 113.435 311.934 103.974 311.903C99.1348 311.903 94.2958 311.872 89.4569 311.872C89.3018 311.872 89.1467 311.779 89.0536 311.624C85.6726 305.672 83.6874 298.976 83.3462 292.219C83.067 286.608 83.8425 281.06 85.6726 275.728C82.8499 267.389 81.6401 258.865 82.0744 250.371C82.3225 245.381 82.8188 236.081 88.4022 227.557C90.2944 224.674 92.4347 222.349 94.7922 220.644C96.5912 219.342 100.469 216.986 105.928 216.212C108.409 215.84 110.953 215.84 113.466 216.212L160.118 215.871C164.461 215.84 168.803 216.181 173.084 216.862L182.297 218.35C182.328 218.35 182.328 218.35 182.359 218.35C189.431 220.303 199.791 224.581 209.004 233.756C213.812 238.561 217.782 244.11 220.76 250.309C222.404 244.451 224.917 238.902 228.267 233.849C231.307 229.231 234.967 225.108 239.154 221.512C241.015 213.794 244.365 206.726 249.173 200.588C252.213 196.714 255.78 193.242 259.782 190.297C259.937 190.204 260.123 190.173 260.278 190.266L298.525 209.485C298.711 209.578 298.804 209.795 298.773 210.012C297.377 215.871 295.516 221.636 293.22 227.185C289.963 235.027 285.807 242.529 280.875 249.503C279.696 257.687 277.121 265.529 273.244 272.814C269.77 279.324 265.303 285.244 259.968 290.39C259.627 292.343 256.184 309.547 239.992 315.994C235.866 317.637 231.989 318.226 228.453 318.226ZM214.804 314.351C214.866 314.351 214.928 314.352 214.991 314.383C217.906 315.684 228.298 319.621 239.558 315.157C255.874 308.648 258.882 290.855 258.975 290.111C259.006 290.018 259.037 289.925 259.099 289.863C264.404 284.748 268.87 278.89 272.314 272.411C276.16 265.189 278.703 257.408 279.851 249.287C279.851 249.225 279.882 249.131 279.944 249.069C284.876 242.126 289.002 234.655 292.259 226.844C294.492 221.45 296.322 215.84 297.687 210.167L260.03 191.227C256.184 194.079 252.741 197.427 249.825 201.177C245.079 207.253 241.76 214.228 239.93 221.884C239.899 221.977 239.868 222.07 239.775 222.132C235.587 225.697 231.958 229.82 228.918 234.376C225.413 239.708 222.807 245.598 221.225 251.797C221.163 251.983 221.008 252.138 220.822 252.138C220.636 252.169 220.45 252.045 220.357 251.859C217.379 245.319 213.316 239.429 208.259 234.438C199.202 225.418 188.997 221.202 182.048 219.28L172.867 217.792C168.648 217.11 164.337 216.769 160.056 216.8L113.372 217.141C113.341 217.141 113.31 217.141 113.31 217.141C110.891 216.769 108.44 216.769 106.021 217.141C100.748 217.916 97.0565 220.148 95.3195 221.419C93.0551 223.062 91.0078 225.294 89.1777 228.084C83.7184 236.391 83.2531 245.536 83.005 250.433C82.5707 258.865 83.7804 267.327 86.6032 275.573C86.6342 275.666 86.6342 275.79 86.6032 275.883C84.773 281.153 83.9976 286.639 84.2767 292.157C84.6179 298.697 86.5101 305.176 89.7361 310.911C94.482 310.942 99.2279 310.942 103.974 310.942C113.466 310.973 123.268 310.973 132.883 311.066H132.976C147.059 311.159 161.607 311.283 175.938 311.221C176.775 306.261 177.644 301.084 178.481 296.063C179.35 290.917 180.218 285.616 181.087 280.533C181.118 280.316 181.304 280.161 181.49 280.161C181.707 280.13 181.893 280.254 181.955 280.471C184.251 286.453 187.446 292.002 191.385 296.962C197.372 304.463 205.251 310.632 214.122 314.754L214.277 314.693L214.37 314.538C214.463 314.445 214.649 314.351 214.804 314.351Z" fill="black"/>
<path d="M304.914 164.227C310.395 164.227 314.84 159.785 314.84 154.308C314.84 148.831 310.395 144.389 304.914 144.389C299.433 144.389 294.988 148.831 294.988 154.308C294.988 159.785 299.433 164.227 304.914 164.227Z" fill="#FF6EC1"/>
<path d="M304.915 164.693C299.176 164.693 294.523 160.043 294.523 154.308C294.523 148.574 299.176 143.924 304.915 143.924C310.653 143.924 315.306 148.574 315.306 154.308C315.306 160.043 310.653 164.693 304.915 164.693ZM304.915 144.854C299.704 144.854 295.454 149.101 295.454 154.308C295.454 159.516 299.704 163.763 304.915 163.763C310.126 163.763 314.376 159.516 314.376 154.308C314.376 149.101 310.126 144.854 304.915 144.854Z" fill="black"/>
<path d="M145.988 176.683C146.065 175.933 145.519 175.263 144.769 175.185C144.02 175.111 143.35 175.657 143.273 176.404C143.196 177.154 143.742 177.823 144.492 177.901C145.242 177.978 145.912 177.433 145.988 176.683Z" fill="black"/>
<path d="M152.827 184.501C151.741 185.059 150.593 185.338 149.384 185.4C147.429 185.493 145.878 184.842 144.917 184.315C144.7 184.191 144.42 184.253 144.296 184.501C144.172 184.718 144.234 184.997 144.483 185.121C145.475 185.679 147.057 186.33 149.073 186.33C149.197 186.33 149.321 186.33 149.446 186.33C150.779 186.268 152.051 185.927 153.261 185.338C153.478 185.214 153.571 184.935 153.478 184.718C153.323 184.47 153.044 184.377 152.827 184.501Z" fill="black"/>
<path d="M118.396 185.957C118.241 185.74 117.931 185.709 117.745 185.864C117.528 186.019 117.497 186.329 117.652 186.515L122.025 192.157C122.118 192.281 122.242 192.343 122.398 192.343C122.491 192.343 122.584 192.312 122.677 192.25C122.894 192.095 122.925 191.785 122.77 191.599L118.396 185.957Z" fill="black"/>
<path d="M142.624 210.695C142.748 209.021 142.841 207.347 142.965 205.673L139.615 205.89C135.149 205.952 130.713 206.045 126.246 206.107C130.372 207.068 134.466 208.029 138.592 208.959C138.933 209.486 139.274 210.044 139.615 210.571C140.639 210.602 141.631 210.695 142.624 210.695Z" fill="black"/>
<path d="M124.663 169.962L112.255 174.333C112.007 174.426 111.883 174.674 111.976 174.922C112.038 175.108 112.224 175.232 112.41 175.232C112.473 175.232 112.504 175.232 112.566 175.201L124.973 170.83C125.221 170.737 125.345 170.489 125.252 170.241C125.159 170.024 124.911 169.9 124.663 169.962Z" fill="black"/>
<path d="M220.948 251.271C220.731 251.209 220.513 251.302 220.42 251.488L213.472 263.825C213.348 264.042 213.41 264.321 213.658 264.445C213.906 264.569 214.155 264.507 214.279 264.259L220.265 253.627L219.583 267.824C219.583 268.072 219.769 268.289 220.017 268.32C220.017 268.32 220.017 268.32 220.048 268.32C220.296 268.32 220.514 268.134 220.514 267.886L221.289 251.736C221.289 251.519 221.134 251.333 220.948 251.271Z" fill="black"/>
<path d="M169.578 259.547C169.454 259.33 169.175 259.268 168.927 259.392C168.71 259.516 168.648 259.795 168.772 260.043L175.937 272.164C176.216 276.627 176.061 283.447 173.456 291.134C169.857 301.736 163.498 308.462 160.148 311.562C165.546 311.624 170.912 311.686 176.309 311.779C178.015 301.581 179.752 291.351 181.458 281.153C181.489 281.153 181.521 281.153 181.521 281.153C181.614 281.153 181.676 281.122 181.769 281.091C181.986 280.967 182.048 280.688 181.924 280.44L169.578 259.547Z" fill="black"/>
<path d="M86.5698 275.604C86.4767 275.356 86.1976 275.232 85.9804 275.356C85.7323 275.449 85.6082 275.728 85.7323 275.945L89.7027 286.082C89.7647 286.268 89.9508 286.392 90.137 286.392C90.199 286.392 90.261 286.392 90.2921 286.361C90.5402 286.268 90.6643 285.989 90.5402 285.772L86.5698 275.604Z" fill="black"/>
<path d="M239.651 221.357C239.403 221.264 239.155 221.388 239.062 221.636L234.781 233.973C234.688 234.221 234.812 234.469 235.06 234.562C235.122 234.593 235.153 234.593 235.215 234.593C235.401 234.593 235.587 234.469 235.649 234.283L239.93 221.946C240.023 221.729 239.899 221.45 239.651 221.357Z" fill="black"/>
<path d="M281.837 233.23C281.589 233.199 281.34 233.385 281.34 233.664L279.914 249.349C279.883 249.597 280.069 249.845 280.348 249.845H280.379C280.627 249.845 280.813 249.659 280.844 249.411L282.271 233.726C282.271 233.478 282.085 233.23 281.837 233.23Z" fill="black"/>
<path d="M260.434 275.016C260.185 275.016 259.968 275.202 259.937 275.45L258.976 290.174C258.945 290.422 259.162 290.639 259.41 290.67H259.441C259.689 290.67 259.875 290.484 259.906 290.236L260.868 275.512C260.899 275.233 260.682 275.016 260.434 275.016Z" fill="black"/>
</g>
<defs>
<clipPath id="clip0">
<rect width="433" height="353" fill="white"/>
</clipPath>
</defs>
</svg>
