<svg xmlns="http://www.w3.org/2000/svg" width="404" height="235" viewBox="0 0 404 235" fill="none">

<path d="M326.104 5.99231L312.28 48.4692L286.225 33.8629C280.459 30.6331 277.214 33.1856 279.009 39.5449L294.609 94.7969L261.558 111.736C256.814 114.17 256.814 118.146 261.558 120.579L294.615 137.518L279.015 192.77C277.221 199.13 280.465 201.682 286.232 198.452L312.28 183.84L326.104 226.323C328.702 234.313 332.956 234.313 335.56 226.323L349.384 183.846L375.439 198.452C381.206 201.682 384.45 199.13 382.655 192.77L367.055 137.518L400.112 120.579C404.856 118.146 404.856 114.17 400.112 111.736L367.055 94.7969L382.655 39.5449C384.45 33.1856 381.206 30.6331 375.439 33.8629L349.384 48.4692L335.56 5.99231C332.963 -1.9976 328.708 -1.9976 326.104 5.99231Z" fill="#171717"/>
<path d="M0.476562 70.6937V221.437C0.476562 228.64 6.32402 234.484 13.5314 234.484H259.772C266.979 234.484 272.827 228.64 272.827 221.437C272.827 217.496 271.059 213.759 267.965 211.279L235.26 184.813C225.163 176.625 219.282 164.361 219.282 151.349V70.6937C219.282 63.4912 213.434 57.6476 206.227 57.6476H13.4974C6.32403 57.6136 0.476562 63.4912 0.476562 70.6937Z" fill="white"/>
<path d="M259.805 234.993H13.5648C6.08548 234.993 0 228.911 0 221.437V70.6934C0 63.2191 6.08548 57.1377 13.5648 57.1377H206.294C213.773 57.1377 219.859 63.2191 219.859 70.6934V151.382C219.859 164.292 225.604 176.319 235.634 184.439L268.339 210.905C271.534 213.487 273.37 217.326 273.37 221.437C273.37 228.911 267.285 234.993 259.805 234.993ZM13.5648 58.1229C6.62943 58.1229 1.01991 63.7627 1.01991 70.6594V221.437C1.01991 228.368 6.66343 233.974 13.5648 233.974H259.805C266.741 233.974 272.35 228.334 272.35 221.437C272.35 217.632 270.65 214.065 267.693 211.686L234.988 185.221C224.72 176.897 218.839 164.564 218.839 151.382V70.6934C218.839 63.7627 213.195 58.1569 206.294 58.1569H13.5648V58.1229Z" fill="black"/>
<path d="M38.7891 234.416C51.504 234.178 64.2529 233.94 76.9678 233.736C90.7706 216.817 104.539 199.898 118.342 183.013C116.506 178.766 113.787 173.466 109.673 167.894C105.253 161.949 99.9498 158.042 96.2101 154.95C89.9207 162.357 83.6312 169.763 77.3078 177.169C64.4569 196.263 51.64 215.356 38.7891 234.416Z" fill="#FF6EC1"/>
<path d="M38.7887 234.925C38.6187 234.925 38.4147 234.823 38.3467 234.653C38.2447 234.483 38.2788 234.279 38.3808 234.109L76.9333 176.862L76.9674 176.829L95.8697 154.609C96.0397 154.405 96.3797 154.372 96.5836 154.541C97.0936 154.983 97.6716 155.425 98.2495 155.867C101.853 158.755 106.341 162.356 110.148 167.554C113.616 172.276 116.574 177.372 118.886 182.774C118.954 182.944 118.92 183.148 118.818 183.284L77.3753 234.041C77.2733 234.143 77.1374 234.211 77.0014 234.245L38.7887 234.925ZM77.7153 177.474L39.7406 233.906L76.7294 233.226L117.764 182.91C115.52 177.712 112.664 172.752 109.265 168.165C105.525 163.103 101.071 159.536 97.5356 156.682C97.0936 156.342 96.6856 156.003 96.2777 155.663L77.7153 177.474Z" fill="black"/>
<path d="M104.981 178.629C101.378 178.867 97.1961 178.901 92.6065 178.493C84.9912 177.814 78.5317 176.081 73.6022 174.314C73.2282 173.737 72.5823 172.514 72.5483 170.917C72.4803 167.723 74.9281 165.719 75.268 165.447C75.166 163.613 75.234 159.74 77.5458 155.934C81.1495 149.989 88.8328 146.49 95.7002 148.29C101.242 149.751 104.199 154.066 105.015 155.357C111.577 165.277 105.389 177.78 104.981 178.629Z" fill="#349948"/>
<path d="M99.6803 179.309C97.3005 179.309 94.9207 179.207 92.5749 179.003C86.0815 178.426 79.6221 176.999 73.4346 174.824C73.3326 174.791 73.2306 174.723 73.1626 174.621C72.6527 173.839 72.0747 172.582 72.0407 170.985C71.9728 167.996 73.9785 165.957 74.7265 165.278C74.6245 162.798 74.9645 159.196 77.0723 155.731C80.8799 149.446 88.9372 146.082 95.8046 147.883C98.4564 148.596 102.298 150.397 105.426 155.153C112.191 165.38 105.664 178.358 105.392 178.901C105.324 179.071 105.154 179.173 104.984 179.173C103.25 179.241 101.448 179.309 99.6803 179.309ZM73.9446 173.907C79.996 176.048 86.3195 177.407 92.6769 177.984C96.6546 178.358 100.666 178.392 104.678 178.154C105.596 176.251 110.661 164.768 104.644 155.697C101.686 151.212 98.1164 149.514 95.6007 148.868C89.1412 147.169 81.5939 150.363 77.9902 156.275C75.9504 159.638 75.6784 163.137 75.7804 165.482C75.7804 165.651 75.7124 165.787 75.5764 165.923C75.1344 166.263 73.0267 168.132 73.0607 170.985C73.0947 172.174 73.5366 173.228 73.9446 173.907Z" fill="black"/>
<path d="M114.604 150.397L137.042 154.474C140.51 158.89 146.902 168.505 145.576 179.581C145.202 182.774 144.216 185.696 143.706 187.259C141.19 194.835 137.348 200.475 134.187 204.246C135.954 204.858 138.912 206.182 141.734 208.934C145.27 212.366 146.664 216.171 147.208 218.039C148.771 219.534 150.675 221.675 152.409 224.529C154.517 228.028 155.537 231.289 156.081 233.6C129.325 233.6 102.603 233.6 75.8477 233.6C76.2216 231.595 77.0715 228.538 78.9754 225.31C80.9812 221.879 83.327 219.602 84.9589 218.277C85.5368 216.477 86.7947 213.453 89.3785 210.463C92.2683 207.168 95.464 205.503 97.2658 204.722C96.5519 204.382 92.7782 202.581 91.2143 198.165C89.9224 194.563 90.8743 191.472 91.2143 190.52C88.6305 187.667 87.3727 184.915 86.7267 183.08C83.191 173.092 87.6106 161.37 95.056 155.731C97.0618 154.202 98.9657 153.42 100.598 152.741C106.241 150.397 111.443 150.227 114.604 150.397Z" fill="#349948"/>
<path d="M156.08 234.143H75.8469C75.7109 234.143 75.541 234.075 75.439 233.973C75.337 233.872 75.303 233.702 75.337 233.566C75.9149 230.576 76.9688 227.722 78.4987 225.106C80.0626 222.422 82.1024 220.044 84.4822 218.04C85.4341 215.118 86.9639 212.502 88.9698 210.191C90.9416 207.949 93.3894 206.081 96.0752 204.756C94.5113 203.838 91.9275 201.868 90.6696 198.368C89.5137 195.141 90.0577 192.253 90.5677 190.69C88.5958 188.448 87.1339 185.968 86.182 183.318C82.4424 172.718 87.5759 160.793 94.6813 155.391C96.7551 153.828 98.7269 152.979 100.325 152.333C104.778 150.465 109.572 149.649 114.57 149.921C114.604 149.921 114.604 149.921 114.638 149.921L137.076 153.998C137.212 154.032 137.314 154.1 137.382 154.202C142.005 160.113 147.241 169.32 146.017 179.683C145.643 182.842 144.657 185.764 144.147 187.327L144.113 187.463C142.141 193.442 139.047 199.048 134.968 204.076C137.586 205.129 140.033 206.692 142.039 208.629C145.303 211.788 146.867 215.356 147.615 217.836C149.62 219.772 151.388 221.981 152.816 224.359C154.55 227.213 155.808 230.338 156.556 233.6C156.59 233.736 156.556 233.906 156.454 234.041C156.386 234.041 156.25 234.143 156.08 234.143ZM76.4929 233.124H155.468C154.72 230.202 153.564 227.416 152 224.8C150.572 222.456 148.873 220.316 146.867 218.413C146.799 218.345 146.765 218.277 146.731 218.175C146.051 215.831 144.555 212.366 141.393 209.274C139.319 207.27 136.77 205.673 134.016 204.688C133.846 204.62 133.744 204.518 133.71 204.348C133.676 204.178 133.71 204.008 133.812 203.872C138.062 198.81 141.223 193.136 143.229 187.055L143.263 186.919C143.773 185.39 144.725 182.536 145.099 179.479C146.289 169.558 141.257 160.657 136.804 154.881L114.604 150.838C109.776 150.601 105.118 151.382 100.835 153.183C99.2029 153.862 97.401 154.61 95.4292 156.104C88.5958 161.269 83.7002 172.718 87.2699 182.876C88.1878 185.492 89.6837 187.938 91.6555 190.147C91.7915 190.283 91.8255 190.486 91.7576 190.656C91.2816 192.015 90.6357 194.801 91.7576 197.961C93.1854 201.97 96.5511 203.77 97.571 204.246C97.741 204.314 97.877 204.518 97.877 204.722C97.877 204.925 97.741 205.095 97.571 205.197C94.6473 206.454 91.9615 208.425 89.8537 210.803C87.9159 213.045 86.454 215.593 85.5361 218.447C85.5021 218.549 85.4341 218.617 85.3661 218.685C83.0203 220.622 81.0145 222.932 79.4846 225.582C78.0227 227.926 77.0368 230.44 76.4929 233.124Z" fill="black"/>
<path d="M114.908 208.323C114.466 208.323 114.024 208.323 113.582 208.323C107.973 208.187 102.431 207.134 97.0937 205.231C96.8218 205.129 96.6858 204.858 96.7878 204.586C96.8898 204.314 97.1617 204.178 97.4337 204.28C102.635 206.149 108.075 207.168 113.582 207.304C120.62 207.474 127.521 206.251 134.117 203.601C134.388 203.499 134.66 203.635 134.762 203.872C134.864 204.11 134.728 204.416 134.49 204.518C128.201 207.066 121.64 208.323 114.908 208.323Z" fill="black"/>
<mask id="mask0" mask-type="alpha" maskUnits="userSpaceOnUse" x="0" y="57" width="273" height="177">
<path d="M0.476562 70.0463V220.79C0.476562 227.993 6.32402 233.836 13.5314 233.836H259.772C266.979 233.836 272.827 227.993 272.827 220.79C272.827 216.849 271.059 213.112 267.965 210.632L235.26 184.166C225.163 175.978 219.282 163.713 219.282 150.701V70.0463C219.282 62.8437 213.434 57.0001 206.227 57.0001H13.4974C6.32403 56.9662 0.476562 62.8437 0.476562 70.0463Z" fill="white"/>
</mask>
<g mask="url(#mask0)">
<path d="M199.36 205.912L146.392 152.606C142.279 148.461 135.989 147.136 130.652 149.514C128.68 150.398 126.912 151.723 125.484 153.489C125.416 153.557 125.382 153.625 125.314 153.693C125.212 153.829 125.11 153.965 125.008 154.101C119.773 160.998 120.317 170.68 126.164 177.068C140.681 193.001 155.198 208.969 169.714 224.903C143.809 251.403 123.376 269.24 117.121 272.366C116.917 272.468 116.713 272.569 116.543 272.637C112.769 274.404 108.588 275.084 104.44 274.778C102.706 274.642 100.972 274.744 99.2384 275.016L52.1865 280.995C48.9228 281.505 46.577 284.359 46.747 287.654C46.9169 291.289 49.4327 295.57 53.0704 295.298L73.5706 293.871L54.6682 311.946C52.7644 313.746 51.9485 316.464 52.6964 318.944C52.9344 319.726 53.2744 320.439 53.7843 321.085C54.8382 322.478 56.4021 323.361 58.102 323.701C60.5838 324.176 63.0995 323.225 64.7994 321.356C68.777 317.008 72.7887 312.659 76.7663 308.276C76.8683 310.926 78.1602 311.98 80.0981 313.78C83.6338 317.008 87.1355 320.269 90.6711 323.497C93.4589 326.045 97.7765 325.841 100.326 323.055C102.876 320.269 102.672 315.955 99.8843 313.406L92.813 307.529L123.274 305.694C117.733 311.912 112.973 316.736 107.636 322.647C104.678 325.909 105.052 331.107 108.588 333.723C108.69 333.825 108.826 333.893 108.962 333.961C110.797 335.184 113.007 335.558 115.081 335.116C116.815 334.776 118.345 333.757 119.399 332.33C130.21 318.265 143.401 302.874 159.345 287.178C172.808 273.928 185.999 262.615 198.306 253.034C205.513 247.428 209.831 238.833 209.763 229.728C209.763 229.456 209.763 229.184 209.729 228.878C209.253 215.934 201.196 207.678 199.36 205.912Z" fill="#FF6EC1"/>
<path d="M113.379 335.863C111.713 335.863 110.081 335.388 108.653 334.436C108.517 334.334 108.381 334.266 108.279 334.164C106.511 332.839 105.389 330.903 105.151 328.661C104.913 326.35 105.661 324.074 107.225 322.341C109.571 319.759 111.849 317.347 114.025 315.003C116.608 312.251 119.226 309.431 122.048 306.306L94.1024 307.97L100.188 312.999C101.65 314.324 102.5 316.158 102.602 318.095C102.704 320.065 102.024 321.934 100.698 323.395C99.372 324.855 97.5701 325.705 95.5983 325.773C93.6265 325.841 91.7566 325.195 90.2948 323.87L79.4837 313.916C77.9538 312.489 76.7639 311.402 76.356 309.431L65.1369 321.696C63.3011 323.734 60.5473 324.686 57.9636 324.176C56.0597 323.802 54.4279 322.817 53.34 321.356C52.83 320.677 52.422 319.895 52.1841 319.046C51.4021 316.43 52.252 313.474 54.2919 311.538L72.1743 294.449L53.068 295.808C51.7081 295.909 50.3482 295.434 49.2263 294.381C47.5264 292.852 46.3366 290.202 46.2346 287.654C46.0646 284.12 48.6144 281.029 52.1161 280.485L99.168 274.506C100.936 274.234 102.738 274.132 104.472 274.268C108.687 274.574 112.801 273.826 116.336 272.161C116.54 272.06 116.71 271.992 116.914 271.89C122.864 268.9 142.65 251.811 169.032 224.869L125.822 177.407C119.77 170.748 119.294 160.828 124.666 153.795C124.768 153.659 124.87 153.523 124.972 153.387L125.142 153.183C126.604 151.383 128.405 149.99 130.513 149.072C135.953 146.626 142.514 147.917 146.832 152.266L199.799 205.572C202.825 208.493 209.862 216.647 210.27 228.98C210.27 229.252 210.27 229.557 210.304 229.829C210.372 238.934 206.021 247.802 198.643 253.543C185.079 264.11 171.99 275.559 159.751 287.654C145.506 301.719 132.077 316.872 119.872 332.738C118.682 334.266 117.05 335.32 115.249 335.693C114.535 335.795 113.957 335.863 113.379 335.863ZM123.238 305.218C123.442 305.218 123.612 305.32 123.68 305.49C123.782 305.66 123.748 305.898 123.612 306.068C120.484 309.567 117.56 312.693 114.739 315.716C112.563 318.061 110.285 320.473 107.939 323.055C106.579 324.55 105.933 326.554 106.137 328.559C106.341 330.495 107.293 332.194 108.857 333.349C108.959 333.417 109.095 333.519 109.197 333.587C110.897 334.708 112.937 335.082 114.943 334.674C116.506 334.368 117.934 333.417 118.954 332.092C131.193 316.192 144.656 300.972 158.935 286.872C171.208 274.777 184.331 263.26 197.929 252.694C205.035 247.156 209.25 238.595 209.182 229.795C209.182 229.523 209.182 229.252 209.182 228.98C208.774 217.021 201.941 209.139 199.017 206.285L146.05 152.98C142.038 148.937 135.919 147.747 130.887 149.99C128.949 150.873 127.25 152.164 125.89 153.829L125.72 154.033C125.618 154.169 125.516 154.271 125.414 154.406C120.348 161.065 120.824 170.442 126.536 176.727L170.086 224.563C170.256 224.767 170.256 225.073 170.086 225.277C143.466 252.524 123.408 269.817 117.356 272.841C117.152 272.943 116.948 273.045 116.744 273.147C113.039 274.879 108.755 275.627 104.37 275.321C102.704 275.219 101.004 275.287 99.27 275.559L52.2181 281.538C49.2263 282.014 47.0845 284.63 47.2205 287.654C47.3225 289.964 48.3764 292.308 49.8723 293.667C50.8242 294.517 51.8781 294.89 52.966 294.822L73.4662 293.395C73.6702 293.361 73.8742 293.497 73.9762 293.701C74.0782 293.905 74.0102 294.143 73.8742 294.279L54.9718 312.353C53.204 314.052 52.456 316.6 53.136 318.842C53.3399 319.556 53.6799 320.235 54.1219 320.813C55.0738 322.07 56.5017 322.919 58.1336 323.225C60.3434 323.666 62.7571 322.817 64.355 321.05L76.322 307.97C76.458 307.834 76.6959 307.766 76.8659 307.834C77.0699 307.902 77.2059 308.072 77.2059 308.276C77.3079 310.586 78.3618 311.572 80.1296 313.202L90.9407 323.157C92.1986 324.312 93.7965 324.889 95.4963 324.822C97.1962 324.754 98.76 324.006 99.8819 322.783C101.038 321.526 101.616 319.929 101.548 318.231C101.48 316.532 100.732 314.969 99.508 313.848L92.4706 308.004C92.3006 307.868 92.2326 307.665 92.3006 307.461C92.3686 307.257 92.5385 307.121 92.7425 307.121L123.238 305.218C123.204 305.218 123.238 305.218 123.238 305.218Z" fill="black"/>
</g>
<path d="M119.262 171.019C121.268 174.179 124.225 175.707 125.823 176.387C129.937 176.625 134.866 176.557 140.374 175.707C151.797 173.907 160.466 169.49 165.906 166.093C160.942 162.695 156.013 159.332 151.049 155.934C150.675 154.134 149.587 150.431 146.357 147.339C141.258 142.481 132.861 141.258 126.843 144.723C122.627 147.135 120.928 151.076 119.704 153.964" fill="#349948"/>
<path d="M129.902 177.033C128.508 177.033 127.149 176.999 125.755 176.897C125.687 176.897 125.653 176.897 125.585 176.863C122.661 175.606 120.315 173.704 118.819 171.292C118.683 171.054 118.751 170.748 118.989 170.578C119.227 170.442 119.533 170.51 119.703 170.748C121.097 172.956 123.239 174.723 125.959 175.878C130.752 176.15 135.58 175.946 140.305 175.199C149.009 173.84 157.304 170.748 164.987 166.06L150.777 156.343C150.675 156.275 150.607 156.173 150.573 156.037C150.063 153.727 148.873 150.431 146.017 147.714C141.019 142.957 132.86 141.87 127.081 145.199C123.001 147.544 121.369 151.383 120.145 154.203C120.043 154.474 119.737 154.576 119.465 154.474C119.193 154.372 119.091 154.067 119.193 153.795C120.451 150.839 122.185 146.83 126.571 144.316C132.724 140.783 141.393 141.904 146.697 147C149.655 149.82 150.947 153.217 151.49 155.663L166.177 165.686C166.313 165.788 166.415 165.958 166.415 166.128C166.415 166.297 166.313 166.467 166.177 166.535C158.188 171.529 149.553 174.791 140.475 176.252C136.974 176.761 133.438 177.033 129.902 177.033Z" fill="black"/>
<path d="M83.9046 128.79L81.0148 134.532C79.8589 136.808 81.3208 139.56 83.8366 139.934L100.563 142.312L83.9046 128.79Z" fill="#F9D84E"/>
<path d="M100.597 142.821C100.563 142.821 100.563 142.821 100.529 142.821L83.8029 140.442C82.443 140.239 81.2871 139.423 80.6411 138.2C79.9952 136.977 79.9952 135.55 80.6071 134.327L83.4969 128.585C83.5649 128.449 83.7009 128.347 83.8369 128.314C83.9729 128.28 84.1429 128.314 84.2788 128.415L100.937 141.937C101.107 142.073 101.175 142.311 101.073 142.549C100.971 142.685 100.767 142.821 100.597 142.821ZM84.0748 129.571L81.4911 134.769C81.0151 135.72 81.0151 136.773 81.525 137.724C82.001 138.676 82.885 139.287 83.9389 139.423L98.8295 141.564L84.0748 129.571Z" fill="black"/>
<path d="M90.0227 112.516C88.3229 112.584 86.623 112.652 84.9232 112.719C82.2374 112.821 79.7556 114.452 78.7697 116.966C78.2257 118.359 78.0898 119.99 78.5997 121.553L79.1437 123.319C80.1636 126.581 83.4273 128.619 86.793 128.076C87.8129 127.906 88.8669 127.736 89.8868 127.566" fill="#FF6EC1"/>
<path d="M85.7409 128.654C82.5452 128.654 79.6215 126.581 78.6696 123.456L78.1256 121.689C77.6156 120.058 77.6836 118.359 78.2956 116.763C79.3495 114.113 81.9333 112.312 84.891 112.21L89.9905 112.006C90.2625 111.972 90.5005 112.21 90.5345 112.482C90.5345 112.754 90.3305 112.991 90.0586 113.025L84.959 113.229C82.4093 113.331 80.1654 114.86 79.2475 117.136C78.7036 118.495 78.6356 119.956 79.0775 121.383L79.6215 123.15C80.5734 126.139 83.5991 128.042 86.7268 127.532L89.8206 127.023C90.0925 126.989 90.3645 127.159 90.3985 127.43C90.4325 127.702 90.2625 127.974 89.9905 128.008L86.8968 128.518C86.5229 128.62 86.1149 128.654 85.7409 128.654Z" fill="black"/>
<path d="M121.303 105.246C118.855 102.494 116.135 100.625 113.721 99.3682C106.922 99.9118 100.123 100.489 93.3572 101.033C92.1333 101.916 89.8555 103.853 88.2577 107.08C88.1217 110.546 86.6258 112.38 86.5578 113.841C81.9002 122.742 83.2601 132.833 89.2776 138.303C94.1391 142.753 100.497 142.651 102.332 142.583C102.638 147.272 102.876 147.51 103.148 151.587C100.939 153.183 97.6068 155.969 94.7171 160.386C91.7254 164.938 90.5015 169.253 89.9575 171.937C92.5073 172.073 95.0571 172.209 97.6068 172.345C103.998 172.685 109.948 169.287 112.973 163.647C113.007 163.579 113.042 163.512 113.075 163.444C115.897 158.212 119.059 154.203 121.779 151.315C121.813 150.092 121.847 149.378 121.847 148.903C121.847 148.767 121.881 148.087 121.915 147.17C121.915 147.068 121.915 147.102 121.983 145.437C122.051 144.248 122.119 141.836 122.221 139.662L127.524 132.663C128.068 130.217 130.584 115.744 121.303 105.246Z" fill="#FF6EC1"/>
<path d="M98.4913 172.889C98.1853 172.889 97.9133 172.889 97.6073 172.855L89.958 172.447C89.822 172.447 89.686 172.379 89.5841 172.244C89.4821 172.142 89.448 171.972 89.482 171.836C90.332 167.623 91.9639 163.682 94.3096 160.115C96.5535 156.717 99.3412 153.762 102.639 151.349C102.503 149.617 102.401 148.597 102.265 147.612C102.129 146.491 101.993 145.302 101.857 143.094C99.1372 143.162 93.3917 142.72 88.9381 138.677C82.6146 132.901 81.4248 122.675 86.0484 113.706C86.0823 113.094 86.3543 112.415 86.6263 111.667C87.0682 110.512 87.6462 109.051 87.7142 107.047C87.7142 106.979 87.7482 106.911 87.7822 106.843C88.9721 104.397 90.8079 102.223 93.0177 100.592C93.0857 100.524 93.1877 100.49 93.2897 100.49L113.654 98.8252C113.756 98.8252 113.858 98.8252 113.926 98.8931C116.918 100.456 119.501 102.494 121.643 104.907C130.584 114.997 128.817 128.79 128.069 132.765C128.069 132.833 128.035 132.901 127.967 132.969L122.731 139.866C122.663 141.021 122.629 142.21 122.595 143.23C122.561 144.147 122.527 144.928 122.493 145.472C122.425 146.695 122.425 147.001 122.425 147.103V147.205C122.391 147.884 122.357 148.428 122.357 148.733V148.937C122.323 149.549 122.289 150.33 122.289 151.315C122.289 151.451 122.221 151.553 122.153 151.655C118.787 155.29 115.864 159.333 113.552 163.682L113.45 163.852C110.492 169.424 104.713 172.889 98.4913 172.889ZM90.604 171.462L97.6753 171.836C103.829 172.176 109.642 168.846 112.566 163.41L112.668 163.206C115.014 158.824 117.938 154.781 121.303 151.112C121.337 150.194 121.337 149.447 121.371 148.869V148.665C121.371 148.36 121.405 147.816 121.439 147.137V147.035C121.439 146.899 121.473 146.593 121.507 145.37C121.541 144.826 121.575 144.045 121.609 143.128C121.643 142.04 121.711 140.783 121.745 139.594C121.745 139.492 121.779 139.39 121.847 139.322L127.083 132.426C127.831 128.417 129.463 115.201 120.895 105.552C118.855 103.276 116.408 101.339 113.586 99.8444L93.4937 101.509C92.0658 102.562 90.128 104.397 88.7341 107.183C88.6321 109.323 88.0542 110.818 87.5782 112.041C87.3062 112.789 87.0683 113.366 87.0343 113.842C87.0343 113.91 87.0003 113.978 86.9663 114.046C82.4786 122.607 83.5666 132.426 89.5841 137.896C94.0717 141.972 99.9531 142.142 102.265 142.04C102.537 142.04 102.775 142.244 102.809 142.516C102.979 144.996 103.115 146.253 103.251 147.476C103.387 148.53 103.489 149.617 103.625 151.553C103.625 151.723 103.557 151.893 103.421 151.995C100.123 154.339 97.3354 157.261 95.1255 160.658C92.9837 163.988 91.4539 167.623 90.604 171.462Z" fill="black"/>
<path d="M119.703 128.993C119.737 129.095 119.669 129.095 119.669 129.197C119.159 132.051 119.397 134.361 120.009 136.23C120.791 138.676 123.171 140.273 125.755 140.035C129.936 139.661 134.118 139.253 138.3 138.88C140.951 138.642 142.447 135.686 141.053 133.41C138.164 128.721 135.41 123.048 133.506 116.457C132.962 114.622 132.52 112.822 132.18 111.089V110.545C132.18 109.526 132.316 108.507 132.554 107.522C133.064 105.517 133.608 101.474 131.16 97.9069C128.712 94.3056 125.585 92.471 121.369 93.1845C119.635 93.4562 117.867 93.4223 116.201 92.9466C102.773 88.9716 91.0436 91.9954 87.9839 98.2466C87.508 99.2319 85.4682 101.814 86.3181 106.197C86.6241 107.725 86.624 108.847 86.794 110.409C86.896 111.293 87.134 112.652 86.964 113.535C90.2617 110.715 92.5055 107.861 95.8032 105.041C96.8231 106.265 98.047 107.42 99.5429 108.439C107.43 113.739 117.323 114.724 119.431 114.045C118.751 124.713 119.057 126.105 119.703 128.993Z" fill="#F9D84E"/>
<path d="M125.211 140.579C122.627 140.579 120.315 138.914 119.5 136.4C118.786 134.191 118.684 131.745 119.126 129.095C119.126 129.061 119.126 129.027 119.16 128.993C118.548 126.241 118.242 124.713 118.82 114.656C115.59 115.064 106.547 113.773 99.2032 108.847C97.9113 107.997 96.7555 106.944 95.7016 105.755C94.2397 107.046 92.9478 108.371 91.6899 109.628C90.33 111.021 88.9021 112.482 87.2363 113.909C87.0663 114.045 86.8283 114.079 86.6583 113.977C86.4544 113.875 86.3863 113.637 86.4203 113.433C86.5563 112.822 86.4204 111.904 86.3184 111.123C86.2844 110.885 86.2504 110.647 86.2504 110.443C86.2164 110.002 86.1824 109.594 86.1484 109.22C86.0804 108.235 86.0124 107.386 85.7744 106.299C85.0265 102.358 86.5223 99.7756 87.2363 98.5185C87.3383 98.3147 87.4403 98.1788 87.5083 98.0429C90.874 91.1121 103.555 88.666 116.338 92.4711C117.834 92.9128 119.499 92.9807 121.267 92.7089C125.449 92.0294 128.815 93.6262 131.568 97.6352C134.118 101.338 133.574 105.517 133.064 107.658C132.826 108.643 132.69 109.594 132.69 110.545V111.021C133.064 112.788 133.506 114.588 133.982 116.321C135.682 122.165 138.198 127.838 141.462 133.138C142.21 134.361 142.278 135.856 141.632 137.147C140.986 138.438 139.762 139.288 138.334 139.39L125.789 140.545C125.619 140.579 125.415 140.579 125.211 140.579ZM119.397 113.501C119.499 113.501 119.635 113.535 119.703 113.603C119.839 113.705 119.907 113.875 119.907 114.045C119.262 124.679 119.567 126.072 120.213 128.858C120.247 129.061 120.213 129.197 120.179 129.265C119.737 131.745 119.839 134.022 120.519 136.06C121.233 138.302 123.375 139.729 125.721 139.491L138.266 138.336C139.354 138.234 140.272 137.589 140.748 136.638C141.224 135.686 141.19 134.531 140.612 133.614C137.28 128.212 134.73 122.47 132.996 116.525C132.486 114.758 132.044 112.924 131.67 111.089C131.67 111.055 131.67 111.021 131.67 110.987V110.443C131.67 109.424 131.806 108.371 132.078 107.318C132.588 105.347 133.064 101.508 130.753 98.1108C128.237 94.4416 125.211 92.9807 121.471 93.5922C119.533 93.898 117.732 93.8301 116.066 93.3205C102.297 89.2436 91.2139 92.675 88.4602 98.3826C88.3922 98.5185 88.2902 98.7224 88.1542 98.9262C87.4402 100.149 86.1484 102.426 86.8283 106.027C87.0323 107.148 87.1343 108.099 87.2023 109.051C87.2363 109.424 87.2703 109.832 87.3043 110.274C87.3383 110.477 87.3383 110.681 87.3723 110.919C87.4403 111.361 87.4743 111.836 87.5083 112.278C88.7662 111.123 89.888 109.968 91.0099 108.847C92.3698 107.454 93.7977 105.993 95.4636 104.566C95.5655 104.464 95.7016 104.43 95.8376 104.43C95.9735 104.43 96.1095 104.498 96.1775 104.6C97.2314 105.891 98.4553 107.012 99.8152 107.895C107.601 113.127 117.324 114.079 119.262 113.433C119.295 113.535 119.33 113.501 119.397 113.501Z" fill="black"/>
<path d="M117.699 114.249C119.399 114.113 121.099 114.011 122.799 113.875C125.485 113.671 128.102 114.996 129.394 117.374C130.108 118.699 130.414 120.296 130.108 121.893L129.768 123.694C129.462 125.358 128.544 126.819 127.286 127.804C125.927 128.892 124.431 129.062 122.697 129.299C121.065 129.503 119.671 129.435 118.753 129.333" fill="#FF6EC1"/>
<path d="M120.622 129.978C119.976 129.978 119.33 129.944 118.684 129.876C118.412 129.842 118.208 129.604 118.242 129.299C118.276 129.027 118.514 128.823 118.82 128.857C120.078 128.993 121.37 128.993 122.628 128.823H122.764C124.361 128.619 125.755 128.415 126.979 127.464C128.169 126.513 128.985 125.154 129.291 123.659L129.631 121.858C129.903 120.397 129.665 118.971 128.985 117.646C127.829 115.505 125.415 114.214 122.866 114.418L117.766 114.792C117.494 114.826 117.256 114.588 117.222 114.316C117.188 114.044 117.426 113.806 117.698 113.772L122.798 113.399C125.755 113.195 128.543 114.656 129.869 117.17C130.685 118.665 130.957 120.363 130.617 122.028L130.277 123.829C129.937 125.561 128.985 127.158 127.625 128.245C126.197 129.401 124.599 129.604 122.934 129.808H122.798C122.05 129.91 121.336 129.978 120.622 129.978Z" fill="black"/>
<path d="M98.3183 121.248L95.3945 121.35C94.1027 121.486 93.2187 122.675 93.4567 123.932C93.6607 125.053 94.6806 125.801 95.8365 125.699L99.4402 125.529" fill="#FF6EC1"/>
<path d="M247.756 67.0176H159.363V121.037H247.756V67.0176Z" fill="#F9D84E"/>
<path d="M247.754 121.547H159.362C159.09 121.547 158.852 121.309 158.852 121.037V67.0184C158.852 66.7466 159.09 66.5088 159.362 66.5088H247.754C248.026 66.5088 248.264 66.7466 248.264 67.0184V121.037C248.264 121.309 248.026 121.547 247.754 121.547ZM159.871 120.528H247.244V67.528H159.871V120.528Z" fill="black"/>
<path d="M159.363 67.0176L203.559 93.8572L247.756 67.0176" fill="white"/>
<path d="M203.559 94.3671C203.457 94.3671 203.389 94.3331 203.287 94.2991L159.091 67.4594C158.853 67.3235 158.785 66.9838 158.921 66.746C159.057 66.5081 159.397 66.4402 159.635 66.5761L203.559 93.2459L247.483 66.5761C247.721 66.4402 248.027 66.5081 248.197 66.746C248.367 66.9838 248.265 67.2895 248.027 67.4594L203.831 94.2991C203.729 94.3331 203.627 94.3671 203.559 94.3671Z" fill="black"/>
<path d="M159.363 121.037L203.559 93.8574L247.756 121.037" fill="#F9D84E"/>
<path d="M247.755 121.547C247.653 121.547 247.585 121.513 247.483 121.479L203.559 94.4695L159.635 121.479C159.397 121.615 159.091 121.547 158.921 121.309C158.785 121.071 158.853 120.766 159.091 120.596L203.287 93.4163C203.457 93.3144 203.661 93.3144 203.831 93.4163L248.027 120.596C248.265 120.732 248.333 121.071 248.197 121.309C248.095 121.445 247.925 121.547 247.755 121.547Z" fill="black"/>
<path d="M247.756 67.3582L203.559 40.5186L159.363 67.3582H247.756Z" fill="#F9D84E"/>
<path d="M247.756 67.8674H159.363C159.125 67.8674 158.921 67.7315 158.887 67.4936C158.853 67.2558 158.921 67.052 159.125 66.9161L203.321 40.0764C203.491 39.9745 203.695 39.9745 203.865 40.0764L248.062 66.9161C248.265 67.018 248.333 67.2558 248.299 67.4936C248.265 67.7315 247.96 67.8674 247.756 67.8674ZM161.165 66.8481H245.92L203.559 41.1296L161.165 66.8481Z" fill="black"/>
<path d="M84.6201 186.545C88.6657 189.127 90.3316 192.831 90.8755 194.19C90.9435 192.831 91.0455 191.506 91.1135 190.147C90.5356 189.433 89.9236 188.652 89.3116 187.768C88.1897 186.104 87.3738 184.507 86.7279 183.114C86.3199 181.211 85.912 179.275 85.47 177.372C82.9202 176.863 80.3704 176.319 77.8207 175.81C76.1548 178.663 74.4549 181.551 72.7891 184.405C74.013 184.133 79.3845 183.216 84.6201 186.545Z" fill="black"/>
<path d="M97.0943 132.9C99.5761 133.307 102.568 130.963 102.534 127.464C99.4741 127.464 96.4144 127.464 93.3547 127.464C93.1847 130.25 95.0205 132.526 97.0943 132.9Z" fill="black"/>
<path d="M124.125 118.597C123.853 118.597 123.615 118.835 123.615 119.106L123.547 125.188C123.547 125.46 123.785 125.697 124.057 125.697C124.329 125.697 124.567 125.46 124.567 125.188L124.635 119.106C124.635 118.835 124.397 118.597 124.125 118.597Z" fill="black"/>
<path d="M102.195 142.108C102.229 144.418 102.841 146.796 102.909 149.106C105.901 148.359 108.349 147.815 111.408 146.966C112.802 146.592 114.196 146.184 115.556 145.811C117.358 145.301 118.548 143.67 118.514 141.802C116.78 142.108 114.876 142.379 112.87 142.549C108.859 142.855 105.255 142.413 102.195 142.108Z" fill="black"/>
<path d="M93.4579 121.926C93.0159 122.537 92.8119 123.285 92.9479 124.032C93.1859 125.323 94.3078 126.241 95.5657 126.241C95.6677 126.241 95.7357 126.241 95.8377 126.241L99.4414 126.071C99.7133 126.071 99.9513 125.833 99.9173 125.527C99.9173 125.255 99.6793 125.018 99.3733 125.052L95.7357 125.221C94.8857 125.323 94.0698 124.712 93.9338 123.862C93.8318 123.387 93.9678 122.945 94.2398 122.537C94.5117 122.164 94.9537 121.926 95.3957 121.892L98.3194 121.79C98.5914 121.79 98.8294 121.552 98.7954 121.246C98.7954 120.975 98.5574 120.737 98.2515 120.771L95.3277 120.873C94.6138 120.907 93.9338 121.314 93.4579 121.926Z" fill="black"/>
<path d="M103.52 120.805C104.268 120.839 104.914 120.262 104.948 119.514C104.982 118.767 104.404 118.121 103.656 118.087C102.908 118.053 102.262 118.631 102.228 119.378C102.194 120.126 102.772 120.737 103.52 120.805Z" fill="black"/>
<path d="M94.6469 118.937C94.6809 118.19 94.103 117.544 93.355 117.51C92.6071 117.476 91.9612 118.054 91.9272 118.801C91.8932 119.549 92.4711 120.194 93.219 120.228C93.967 120.296 94.6129 119.685 94.6469 118.937Z" fill="black"/>
<path d="M178.145 223L169.917 223.645C169.645 223.679 169.441 223.917 169.441 224.189C169.475 224.461 169.679 224.665 169.951 224.665H169.985L178.213 224.019C178.485 223.985 178.689 223.747 178.689 223.475C178.655 223.17 178.417 222.966 178.145 223Z" fill="black"/>
<path d="M162.2 168.505C158.358 170.645 153.055 173.091 146.391 174.756C137.994 176.829 130.753 176.829 125.789 176.421C127.625 176.421 130.447 176.455 133.914 176.489C147.479 176.693 154.381 176.829 160.296 177.882C164.104 178.561 169.645 179.886 176.275 182.74C171.583 177.984 166.891 173.227 162.2 168.505Z" fill="black"/>
<path d="M147.036 217.564L140.543 219.908C140.271 220.01 140.135 220.282 140.237 220.554C140.305 220.758 140.509 220.894 140.713 220.894C140.781 220.894 140.815 220.894 140.883 220.86L147.376 218.515C147.648 218.413 147.784 218.142 147.682 217.87C147.58 217.598 147.274 217.462 147.036 217.564Z" fill="black"/>
<path d="M92.5078 212.909L84.6885 217.869C84.4505 218.005 84.3825 218.345 84.5185 218.583C84.6205 218.753 84.7905 218.821 84.9605 218.821C85.0625 218.821 85.1645 218.787 85.2325 218.753L93.0517 213.792C93.2897 213.657 93.3577 213.317 93.2217 213.079C93.0517 212.841 92.7458 212.773 92.5078 212.909Z" fill="black"/>
<path d="M139.556 159.299C139.556 159.299 139.59 159.299 139.556 159.299C146.118 159.027 151.047 156.479 151.251 156.377C151.489 156.241 151.591 155.935 151.455 155.697C151.319 155.46 151.013 155.358 150.775 155.493C150.741 155.527 145.846 158.042 139.522 158.313C139.25 158.313 139.012 158.551 139.046 158.857C139.046 159.095 139.284 159.299 139.556 159.299Z" fill="black"/>
<path d="M75.9514 165.991H80.269C80.5409 165.991 80.7789 165.753 80.7789 165.481C80.7789 165.209 80.5409 164.972 80.269 164.972H75.9514C75.6794 164.972 75.4414 165.209 75.4414 165.481C75.4414 165.753 75.6794 165.991 75.9514 165.991Z" fill="black"/>
<path d="M91.76 190.962H96.0776C96.3495 190.962 96.5875 190.724 96.5875 190.452C96.5875 190.18 96.3495 189.942 96.0776 189.942H91.76C91.488 189.942 91.25 190.18 91.25 190.452C91.25 190.724 91.454 190.962 91.76 190.962Z" fill="black"/>
<path d="M129.869 114.316C129.937 114.35 130.005 114.35 130.073 114.35C130.277 114.35 130.447 114.248 130.549 114.044L132.792 108.846C132.894 108.574 132.792 108.303 132.52 108.167C132.249 108.065 131.977 108.167 131.841 108.438L129.597 113.637C129.495 113.908 129.631 114.214 129.869 114.316Z" fill="black"/>
<path d="M95.3637 105.347C95.4657 105.483 95.6016 105.517 95.7716 105.517C95.8736 105.517 96.0096 105.483 96.1116 105.415C96.3156 105.245 96.3496 104.906 96.1796 104.702L89.4142 96.5136C89.2442 96.3098 88.9043 96.2758 88.7003 96.4457C88.4963 96.6155 88.4623 96.9556 88.6323 97.1595L95.3637 105.347Z" fill="black"/>
</svg>