<svg width="438" height="390" viewBox="0 0 438 390" fill="none" xmlns="http://www.w3.org/2000/svg">
<path d="M326.104 86.9923L312.28 129.469L286.225 114.863C280.459 111.633 277.214 114.186 279.009 120.545L294.609 175.797L261.558 192.736C256.814 195.17 256.814 199.146 261.558 201.579L294.615 218.518L279.015 273.77C277.221 280.13 280.465 282.682 286.232 279.452L312.28 264.84L326.104 307.323C328.702 315.313 332.956 315.313 335.56 307.323L349.384 264.846L375.439 279.452C381.206 282.682 384.45 280.13 382.655 273.77L367.055 218.518L400.112 201.579C404.856 199.146 404.856 195.17 400.112 192.736L367.055 175.797L382.655 120.545C384.45 114.186 381.206 111.633 375.439 114.863L349.384 129.469L335.56 86.9923C332.962 79.0024 328.708 79.0024 326.104 86.9923Z" fill="#171717"/>
<path d="M0.476562 151.694V302.437C0.476562 309.64 6.32402 315.484 13.5314 315.484H259.772C266.979 315.484 272.827 309.64 272.827 302.437C272.827 298.496 271.059 294.759 267.965 292.279L235.26 265.813C225.163 257.625 219.282 245.361 219.282 232.349V151.694C219.282 144.491 213.434 138.648 206.227 138.648H13.4974C6.32403 138.614 0.476562 144.491 0.476562 151.694Z" fill="white"/>
<path d="M259.805 315.993H13.5648C6.08548 315.993 0 309.911 0 302.437V151.693C0 144.219 6.08548 138.138 13.5648 138.138H206.294C213.773 138.138 219.859 144.219 219.859 151.693V232.382C219.859 245.292 225.604 257.319 235.634 265.439L268.339 291.905C271.534 294.487 273.37 298.326 273.37 302.437C273.37 309.911 267.285 315.993 259.805 315.993ZM13.5648 139.123C6.62943 139.123 1.01991 144.763 1.01991 151.659V302.437C1.01991 309.368 6.66343 314.974 13.5648 314.974H259.805C266.741 314.974 272.35 309.334 272.35 302.437C272.35 298.632 270.651 295.065 267.693 292.686L234.988 266.221C224.72 257.897 218.839 245.564 218.839 232.382V151.693C218.839 144.763 213.195 139.157 206.294 139.157H13.5648V139.123Z" fill="black"/>
<path d="M38.7891 315.416C51.504 315.178 64.2529 314.94 76.9678 314.736C90.7706 297.817 104.539 280.898 118.342 264.013C116.506 259.766 113.787 254.466 109.673 248.894C105.253 242.949 99.9498 239.042 96.2101 235.95C89.9207 243.357 83.6312 250.763 77.3078 258.169C64.4569 277.263 51.64 296.356 38.7891 315.416Z" fill="#FF6EC1"/>
<path d="M38.7887 315.925C38.6187 315.925 38.4147 315.823 38.3467 315.653C38.2447 315.483 38.2788 315.279 38.3808 315.109L76.9333 257.862L76.9674 257.829L95.8697 235.609C96.0397 235.405 96.3797 235.372 96.5836 235.541C97.0936 235.983 97.6716 236.425 98.2495 236.867C101.853 239.755 106.341 243.356 110.148 248.554C113.616 253.276 116.574 258.372 118.886 263.774C118.954 263.944 118.92 264.148 118.818 264.284L77.3753 315.041C77.2733 315.143 77.1374 315.211 77.0014 315.245L38.7887 315.925ZM77.7153 258.474L39.7406 314.906L76.7294 314.226L117.764 263.91C115.52 258.712 112.664 253.752 109.265 249.165C105.525 244.103 101.071 240.536 97.5356 237.682C97.0936 237.342 96.6856 237.003 96.2777 236.663L77.7153 258.474Z" fill="black"/>
<path d="M104.981 259.629C101.378 259.867 97.1961 259.901 92.6065 259.493C84.9912 258.814 78.5317 257.081 73.6022 255.314C73.2282 254.737 72.5823 253.514 72.5483 251.917C72.4803 248.723 74.9281 246.719 75.268 246.447C75.166 244.613 75.234 240.74 77.5458 236.934C81.1495 230.989 88.8328 227.49 95.7002 229.29C101.242 230.751 104.199 235.066 105.015 236.357C111.577 246.277 105.389 258.78 104.981 259.629Z" fill="#349948"/>
<path d="M99.6803 260.309C97.3005 260.309 94.9207 260.207 92.5749 260.003C86.0815 259.426 79.6221 257.999 73.4346 255.824C73.3326 255.791 73.2306 255.723 73.1626 255.621C72.6527 254.839 72.0747 253.582 72.0407 251.985C71.9728 248.996 73.9785 246.957 74.7265 246.278C74.6245 243.798 74.9645 240.196 77.0723 236.731C80.8799 230.446 88.9372 227.082 95.8046 228.883C98.4564 229.596 102.298 231.397 105.426 236.153C112.191 246.38 105.664 259.358 105.392 259.901C105.324 260.071 105.154 260.173 104.984 260.173C103.25 260.241 101.448 260.309 99.6803 260.309ZM73.9446 254.907C79.996 257.048 86.3195 258.407 92.6769 258.984C96.6546 259.358 100.666 259.392 104.678 259.154C105.596 257.251 110.661 245.768 104.644 236.697C101.686 232.212 98.1164 230.514 95.6007 229.868C89.1412 228.169 81.5939 231.363 77.9902 237.275C75.9504 240.638 75.6784 244.137 75.7804 246.482C75.7804 246.651 75.7124 246.787 75.5764 246.923C75.1344 247.263 73.0267 249.132 73.0607 251.985C73.0947 253.174 73.5366 254.228 73.9446 254.907Z" fill="black"/>
<path d="M114.604 231.397L137.042 235.474C140.51 239.89 146.902 249.505 145.576 260.581C145.202 263.774 144.216 266.696 143.706 268.259C141.19 275.835 137.348 281.475 134.187 285.246C135.954 285.858 138.912 287.182 141.734 289.934C145.27 293.366 146.664 297.171 147.208 299.039C148.771 300.534 150.675 302.675 152.409 305.529C154.517 309.028 155.537 312.289 156.081 314.6C129.325 314.6 102.603 314.6 75.8477 314.6C76.2216 312.595 77.0715 309.538 78.9754 306.31C80.9812 302.879 83.327 300.602 84.9589 299.277C85.5368 297.477 86.7947 294.453 89.3785 291.463C92.2683 288.168 95.464 286.503 97.2658 285.722C96.5519 285.382 92.7782 283.581 91.2143 279.165C89.9224 275.563 90.8743 272.472 91.2143 271.52C88.6305 268.667 87.3727 265.915 86.7267 264.08C83.191 254.092 87.6106 242.37 95.056 236.731C97.0618 235.202 98.9657 234.42 100.598 233.741C106.241 231.397 111.443 231.227 114.604 231.397Z" fill="#349948"/>
<path d="M156.08 315.143H75.8469C75.7109 315.143 75.541 315.075 75.439 314.973C75.337 314.872 75.303 314.702 75.337 314.566C75.9149 311.576 76.9688 308.722 78.4987 306.106C80.0626 303.422 82.1024 301.044 84.4822 299.04C85.4341 296.118 86.9639 293.502 88.9698 291.191C90.9416 288.949 93.3894 287.081 96.0752 285.756C94.5113 284.838 91.9275 282.868 90.6696 279.368C89.5137 276.141 90.0577 273.253 90.5677 271.69C88.5958 269.448 87.1339 266.968 86.182 264.318C82.4424 253.718 87.5759 241.793 94.6813 236.391C96.7551 234.828 98.7269 233.979 100.325 233.333C104.778 231.465 109.572 230.649 114.57 230.921C114.604 230.921 114.604 230.921 114.638 230.921L137.076 234.998C137.212 235.032 137.314 235.1 137.382 235.202C142.005 241.113 147.241 250.32 146.017 260.683C145.643 263.842 144.657 266.764 144.147 268.327L144.113 268.463C142.141 274.442 139.047 280.048 134.968 285.076C137.586 286.129 140.033 287.692 142.039 289.629C145.303 292.788 146.867 296.356 147.615 298.836C149.62 300.772 151.388 302.981 152.816 305.359C154.55 308.213 155.808 311.338 156.556 314.6C156.59 314.736 156.556 314.906 156.454 315.041C156.386 315.041 156.25 315.143 156.08 315.143ZM76.4929 314.124H155.468C154.72 311.202 153.564 308.416 152 305.8C150.572 303.456 148.873 301.316 146.867 299.413C146.799 299.345 146.765 299.277 146.731 299.175C146.051 296.831 144.555 293.366 141.393 290.274C139.319 288.27 136.77 286.673 134.016 285.688C133.846 285.62 133.744 285.518 133.71 285.348C133.676 285.178 133.71 285.008 133.812 284.872C138.062 279.81 141.223 274.136 143.229 268.055L143.263 267.919C143.773 266.39 144.725 263.536 145.099 260.479C146.289 250.558 141.257 241.657 136.804 235.881L114.604 231.838C109.776 231.601 105.118 232.382 100.835 234.183C99.2029 234.862 97.401 235.61 95.4292 237.104C88.5958 242.269 83.7002 253.718 87.2699 263.876C88.1878 266.492 89.6837 268.938 91.6555 271.147C91.7915 271.283 91.8255 271.486 91.7576 271.656C91.2816 273.015 90.6357 275.801 91.7576 278.961C93.1854 282.97 96.5511 284.77 97.571 285.246C97.741 285.314 97.877 285.518 97.877 285.722C97.877 285.925 97.741 286.095 97.571 286.197C94.6473 287.454 91.9615 289.425 89.8537 291.803C87.9159 294.045 86.454 296.593 85.5361 299.447C85.5021 299.549 85.4341 299.617 85.3661 299.685C83.0203 301.622 81.0145 303.932 79.4846 306.582C78.0227 308.926 77.0368 311.44 76.4929 314.124Z" fill="black"/>
<path d="M114.908 289.323C114.466 289.323 114.024 289.323 113.582 289.323C107.973 289.187 102.431 288.134 97.0937 286.231C96.8218 286.129 96.6858 285.858 96.7878 285.586C96.8898 285.314 97.1617 285.178 97.4337 285.28C102.635 287.149 108.075 288.168 113.582 288.304C120.62 288.474 127.521 287.251 134.117 284.601C134.388 284.499 134.66 284.635 134.762 284.872C134.864 285.11 134.728 285.416 134.49 285.518C128.201 288.066 121.64 289.323 114.908 289.323Z" fill="black"/>
<mask id="mask0" mask-type="alpha" maskUnits="userSpaceOnUse" x="0" y="138" width="273" height="177">
<path d="M0.476562 151.046V301.79C0.476562 308.993 6.32402 314.836 13.5314 314.836H259.772C266.979 314.836 272.827 308.993 272.827 301.79C272.827 297.849 271.059 294.112 267.965 291.632L235.26 265.166C225.163 256.978 219.282 244.713 219.282 231.701V151.046C219.282 143.844 213.434 138 206.227 138H13.4974C6.32403 137.966 0.476562 143.844 0.476562 151.046Z" fill="white"/>
</mask>
<g mask="url(#mask0)">
<path d="M199.36 286.912L146.392 233.606C142.279 229.461 135.989 228.136 130.652 230.514C128.68 231.398 126.912 232.723 125.484 234.489C125.416 234.557 125.382 234.625 125.314 234.693C125.212 234.829 125.11 234.965 125.008 235.101C119.773 241.998 120.317 251.68 126.164 258.068C140.681 274.001 155.198 289.969 169.714 305.903C143.809 332.403 123.376 350.24 117.121 353.366C116.917 353.468 116.713 353.569 116.543 353.637C112.769 355.404 108.588 356.084 104.44 355.778C102.706 355.642 100.972 355.744 99.2384 356.016L52.1865 361.995C48.9228 362.505 46.577 365.359 46.747 368.654C46.9169 372.289 49.4327 376.57 53.0704 376.298L73.5706 374.871L54.6682 392.946C52.7644 394.746 51.9485 397.464 52.6964 399.944C52.9344 400.726 53.2744 401.439 53.7843 402.085C54.8382 403.478 56.4021 404.361 58.102 404.701C60.5838 405.176 63.0995 404.225 64.7994 402.356C68.777 398.008 72.7887 393.659 76.7663 389.276C76.8683 391.926 78.1602 392.98 80.0981 394.78C83.6338 398.008 87.1355 401.269 90.6711 404.497C93.4589 407.045 97.7765 406.841 100.326 404.055C102.876 401.269 102.672 396.955 99.8843 394.406L92.813 388.529L123.274 386.694C117.733 392.912 112.973 397.736 107.636 403.647C104.678 406.909 105.052 412.107 108.588 414.723C108.69 414.825 108.826 414.893 108.962 414.961C110.797 416.184 113.007 416.558 115.081 416.116C116.815 415.776 118.345 414.757 119.399 413.33C130.21 399.265 143.401 383.874 159.345 368.178C172.808 354.928 185.999 343.615 198.306 334.034C205.513 328.428 209.831 319.833 209.763 310.728C209.763 310.456 209.763 310.184 209.729 309.878C209.253 296.934 201.196 288.678 199.36 286.912Z" fill="#FF6EC1"/>
<path d="M113.379 416.863C111.713 416.863 110.081 416.388 108.653 415.436C108.517 415.334 108.381 415.266 108.279 415.164C106.511 413.839 105.389 411.903 105.151 409.661C104.913 407.35 105.661 405.074 107.225 403.341C109.571 400.759 111.849 398.347 114.025 396.003C116.608 393.251 119.226 390.431 122.048 387.306L94.1024 388.97L100.188 393.999C101.65 395.324 102.5 397.158 102.602 399.095C102.704 401.065 102.024 402.934 100.698 404.395C99.372 405.855 97.5701 406.705 95.5983 406.773C93.6265 406.841 91.7566 406.195 90.2948 404.87L79.4837 394.916C77.9538 393.489 76.7639 392.402 76.356 390.431L65.1369 402.696C63.3011 404.734 60.5473 405.686 57.9636 405.176C56.0597 404.802 54.4279 403.817 53.34 402.356C52.83 401.677 52.422 400.895 52.1841 400.046C51.4021 397.43 52.252 394.474 54.2919 392.538L72.1743 375.449L53.068 376.808C51.7081 376.909 50.3482 376.434 49.2263 375.381C47.5264 373.852 46.3366 371.202 46.2346 368.654C46.0646 365.12 48.6144 362.029 52.1161 361.485L99.168 355.506C100.936 355.234 102.738 355.132 104.472 355.268C108.687 355.574 112.801 354.826 116.336 353.161C116.54 353.06 116.71 352.992 116.914 352.89C122.864 349.9 142.65 332.811 169.032 305.869L125.822 258.407C119.77 251.748 119.294 241.828 124.666 234.795C124.768 234.659 124.87 234.523 124.972 234.387L125.142 234.183C126.604 232.383 128.405 230.99 130.513 230.072C135.953 227.626 142.514 228.917 146.832 233.266L199.799 286.572C202.825 289.493 209.862 297.647 210.27 309.98C210.27 310.252 210.27 310.557 210.304 310.829C210.372 319.934 206.021 328.802 198.643 334.543C185.079 345.11 171.99 356.559 159.751 368.654C145.506 382.719 132.077 397.872 119.872 413.738C118.682 415.266 117.05 416.32 115.249 416.693C114.535 416.795 113.957 416.863 113.379 416.863ZM123.238 386.218C123.442 386.218 123.612 386.32 123.68 386.49C123.782 386.66 123.748 386.898 123.612 387.068C120.484 390.567 117.56 393.693 114.739 396.716C112.563 399.061 110.285 401.473 107.939 404.055C106.579 405.55 105.933 407.554 106.137 409.559C106.341 411.495 107.293 413.194 108.857 414.349C108.959 414.417 109.095 414.519 109.197 414.587C110.897 415.708 112.937 416.082 114.943 415.674C116.506 415.368 117.934 414.417 118.954 413.092C131.193 397.192 144.656 381.972 158.935 367.872C171.208 355.777 184.331 344.26 197.929 333.694C205.035 328.156 209.25 319.595 209.182 310.795C209.182 310.523 209.182 310.252 209.182 309.98C208.774 298.021 201.941 290.139 199.017 287.285L146.05 233.98C142.038 229.937 135.919 228.747 130.887 230.99C128.949 231.873 127.25 233.164 125.89 234.829L125.72 235.033C125.618 235.169 125.516 235.271 125.414 235.406C120.348 242.065 120.824 251.442 126.536 257.727L170.086 305.563C170.256 305.767 170.256 306.073 170.086 306.277C143.466 333.524 123.408 350.817 117.356 353.841C117.152 353.943 116.948 354.045 116.744 354.147C113.039 355.879 108.755 356.627 104.37 356.321C102.704 356.219 101.004 356.287 99.27 356.559L52.2181 362.538C49.2263 363.014 47.0845 365.63 47.2205 368.654C47.3225 370.964 48.3764 373.308 49.8723 374.667C50.8242 375.517 51.8781 375.89 52.966 375.822L73.4662 374.395C73.6702 374.361 73.8742 374.497 73.9762 374.701C74.0782 374.905 74.0102 375.143 73.8742 375.279L54.9718 393.353C53.204 395.052 52.456 397.6 53.136 399.842C53.3399 400.556 53.6799 401.235 54.1219 401.813C55.0738 403.07 56.5017 403.919 58.1336 404.225C60.3434 404.666 62.7571 403.817 64.355 402.05L76.322 388.97C76.458 388.834 76.6959 388.766 76.8659 388.834C77.0699 388.902 77.2059 389.072 77.2059 389.276C77.3079 391.586 78.3618 392.572 80.1296 394.202L90.9407 404.157C92.1986 405.312 93.7965 405.889 95.4963 405.822C97.1962 405.754 98.76 405.006 99.8819 403.783C101.038 402.526 101.616 400.929 101.548 399.231C101.48 397.532 100.732 395.969 99.508 394.848L92.4706 389.004C92.3006 388.868 92.2326 388.665 92.3006 388.461C92.3686 388.257 92.5385 388.121 92.7425 388.121L123.238 386.218C123.238 386.218 123.204 386.218 123.238 386.218Z" fill="black"/>
</g>
<path d="M119.262 252.019C121.268 255.179 124.225 256.707 125.823 257.387C129.937 257.625 134.866 257.557 140.374 256.707C151.797 254.907 160.466 250.49 165.906 247.093C160.942 243.695 156.013 240.332 151.049 236.934C150.675 235.134 149.587 231.431 146.357 228.339C141.258 223.481 132.861 222.258 126.843 225.723C122.627 228.135 120.928 232.076 119.704 234.964" fill="#349948"/>
<path d="M129.902 258.033C128.508 258.033 127.149 257.999 125.755 257.897C125.687 257.897 125.653 257.897 125.585 257.863C122.661 256.606 120.315 254.704 118.819 252.292C118.683 252.054 118.751 251.748 118.989 251.578C119.227 251.442 119.533 251.51 119.703 251.748C121.097 253.956 123.239 255.723 125.959 256.878C130.752 257.15 135.58 256.946 140.305 256.199C149.009 254.84 157.304 251.748 164.987 247.06L150.777 237.343C150.675 237.275 150.607 237.173 150.573 237.037C150.063 234.727 148.873 231.431 146.017 228.714C141.019 223.957 132.86 222.87 127.081 226.199C123.001 228.544 121.369 232.383 120.145 235.203C120.043 235.474 119.737 235.576 119.465 235.474C119.193 235.372 119.091 235.067 119.193 234.795C120.451 231.839 122.185 227.83 126.571 225.316C132.724 221.783 141.393 222.904 146.697 228C149.655 230.82 150.947 234.217 151.49 236.663L166.177 246.686C166.313 246.788 166.415 246.958 166.415 247.128C166.415 247.297 166.313 247.467 166.177 247.535C158.188 252.529 149.553 255.791 140.475 257.252C136.974 257.761 133.438 258.033 129.902 258.033Z" fill="black"/>
<path d="M83.9046 209.79L81.0148 215.532C79.8589 217.808 81.3208 220.56 83.8366 220.934L100.563 223.312L83.9046 209.79Z" fill="#F9D84E"/>
<path d="M100.597 223.821C100.563 223.821 100.563 223.821 100.529 223.821L83.8029 221.442C82.443 221.239 81.2871 220.423 80.6411 219.2C79.9952 217.977 79.9952 216.55 80.6071 215.327L83.4969 209.585C83.5649 209.449 83.7009 209.347 83.8369 209.314C83.9729 209.28 84.1429 209.314 84.2788 209.415L100.937 222.937C101.107 223.073 101.175 223.311 101.073 223.549C100.971 223.685 100.767 223.821 100.597 223.821ZM84.0748 210.571L81.4911 215.769C81.0151 216.72 81.0151 217.773 81.525 218.724C82.001 219.676 82.885 220.287 83.9389 220.423L98.8295 222.564L84.0748 210.571Z" fill="black"/>
<path d="M90.0227 193.516C88.3229 193.584 86.623 193.652 84.9232 193.719C82.2374 193.821 79.7556 195.452 78.7697 197.966C78.2257 199.359 78.0898 200.99 78.5997 202.553L79.1437 204.319C80.1636 207.581 83.4273 209.619 86.793 209.076C87.8129 208.906 88.8669 208.736 89.8868 208.566" fill="#FF6EC1"/>
<path d="M85.7409 209.654C82.5452 209.654 79.6215 207.581 78.6696 204.456L78.1256 202.689C77.6156 201.058 77.6836 199.359 78.2956 197.763C79.3495 195.113 81.9333 193.312 84.891 193.21L89.9905 193.006C90.2625 192.972 90.5005 193.21 90.5345 193.482C90.5345 193.754 90.3305 193.991 90.0586 194.025L84.959 194.229C82.4093 194.331 80.1654 195.86 79.2475 198.136C78.7036 199.495 78.6356 200.956 79.0775 202.383L79.6215 204.15C80.5734 207.139 83.5991 209.042 86.7268 208.532L89.8206 208.023C90.0925 207.989 90.3645 208.159 90.3985 208.43C90.4325 208.702 90.2625 208.974 89.9905 209.008L86.8968 209.518C86.5229 209.62 86.1149 209.654 85.7409 209.654Z" fill="black"/>
<path d="M121.303 186.246C118.855 183.494 116.135 181.625 113.721 180.368C106.922 180.912 100.123 181.489 93.3572 182.033C92.1333 182.916 89.8555 184.853 88.2577 188.08C88.1217 191.546 86.6258 193.38 86.5578 194.841C81.9002 203.742 83.2601 213.833 89.2776 219.303C94.1391 223.753 100.497 223.651 102.332 223.583C102.638 228.272 102.876 228.51 103.148 232.587C100.939 234.183 97.6068 236.969 94.7171 241.386C91.7254 245.938 90.5015 250.253 89.9575 252.937C92.5073 253.073 95.0571 253.209 97.6068 253.345C103.998 253.685 109.948 250.287 112.973 244.647C113.007 244.579 113.042 244.512 113.075 244.444C115.897 239.212 119.059 235.203 121.779 232.315C121.813 231.092 121.847 230.378 121.847 229.903C121.847 229.767 121.881 229.087 121.915 228.17C121.915 228.068 121.915 228.102 121.983 226.437C122.051 225.248 122.119 222.836 122.221 220.662L127.524 213.663C128.068 211.217 130.584 196.744 121.303 186.246Z" fill="#FF6EC1"/>
<path d="M98.4913 253.889C98.1853 253.889 97.9133 253.889 97.6073 253.855L89.958 253.447C89.822 253.447 89.686 253.379 89.5841 253.244C89.4821 253.142 89.448 252.972 89.482 252.836C90.332 248.623 91.9639 244.682 94.3096 241.115C96.5535 237.717 99.3412 234.762 102.639 232.349C102.503 230.617 102.401 229.597 102.265 228.612C102.129 227.491 101.993 226.302 101.857 224.094C99.1372 224.162 93.3917 223.72 88.9381 219.677C82.6146 213.901 81.4248 203.675 86.0484 194.706C86.0823 194.094 86.3543 193.415 86.6263 192.667C87.0682 191.512 87.6462 190.051 87.7142 188.047C87.7142 187.979 87.7482 187.911 87.7822 187.843C88.9721 185.397 90.8079 183.223 93.0177 181.592C93.0857 181.524 93.1877 181.49 93.2897 181.49L113.654 179.825C113.756 179.825 113.858 179.825 113.926 179.893C116.918 181.456 119.501 183.494 121.643 185.907C130.584 195.997 128.817 209.79 128.069 213.765C128.069 213.833 128.035 213.901 127.967 213.969L122.731 220.866C122.663 222.021 122.629 223.21 122.595 224.23C122.561 225.147 122.527 225.928 122.493 226.472C122.425 227.695 122.425 228.001 122.425 228.103V228.205C122.391 228.884 122.357 229.428 122.357 229.733V229.937C122.323 230.549 122.289 231.33 122.289 232.315C122.289 232.451 122.221 232.553 122.153 232.655C118.787 236.29 115.864 240.333 113.552 244.682L113.45 244.852C110.492 250.424 104.713 253.889 98.4913 253.889ZM90.604 252.462L97.6753 252.836C103.829 253.176 109.642 249.846 112.566 244.41L112.668 244.206C115.014 239.824 117.938 235.781 121.303 232.112C121.337 231.194 121.337 230.447 121.371 229.869V229.665C121.371 229.36 121.405 228.816 121.439 228.137V228.035C121.439 227.899 121.473 227.593 121.507 226.37C121.541 225.826 121.575 225.045 121.609 224.128C121.643 223.04 121.711 221.783 121.745 220.594C121.745 220.492 121.779 220.39 121.847 220.322L127.083 213.426C127.831 209.417 129.463 196.201 120.895 186.552C118.855 184.276 116.408 182.339 113.586 180.844L93.4937 182.509C92.0658 183.562 90.128 185.397 88.7341 188.183C88.6321 190.323 88.0542 191.818 87.5782 193.041C87.3062 193.789 87.0683 194.366 87.0343 194.842C87.0343 194.91 87.0003 194.978 86.9663 195.046C82.4786 203.607 83.5666 213.426 89.5841 218.896C94.0717 222.972 99.9531 223.142 102.265 223.04C102.537 223.04 102.775 223.244 102.809 223.516C102.979 225.996 103.115 227.253 103.251 228.476C103.387 229.53 103.489 230.617 103.625 232.553C103.625 232.723 103.557 232.893 103.421 232.995C100.123 235.339 97.3354 238.261 95.1255 241.658C92.9837 244.988 91.4539 248.623 90.604 252.462Z" fill="black"/>
<path d="M119.703 209.993C119.737 210.095 119.669 210.095 119.669 210.197C119.159 213.051 119.397 215.361 120.009 217.23C120.791 219.676 123.171 221.273 125.755 221.035C129.936 220.661 134.118 220.253 138.3 219.88C140.951 219.642 142.447 216.686 141.053 214.41C138.164 209.721 135.41 204.048 133.506 197.457C132.962 195.622 132.52 193.822 132.18 192.089V191.545C132.18 190.526 132.316 189.507 132.554 188.522C133.064 186.517 133.608 182.474 131.16 178.907C128.712 175.306 125.585 173.471 121.369 174.184C119.635 174.456 117.867 174.422 116.201 173.947C102.773 169.972 91.0436 172.995 87.9839 179.247C87.508 180.232 85.4682 182.814 86.3181 187.197C86.6241 188.725 86.624 189.847 86.794 191.409C86.896 192.293 87.134 193.652 86.964 194.535C90.2617 191.715 92.5055 188.861 95.8032 186.041C96.8231 187.265 98.047 188.42 99.5429 189.439C107.43 194.739 117.323 195.724 119.431 195.045C118.751 205.713 119.057 207.105 119.703 209.993Z" fill="#F9D84E"/>
<path d="M125.211 221.579C122.627 221.579 120.315 219.914 119.5 217.4C118.786 215.191 118.684 212.745 119.126 210.095C119.126 210.061 119.126 210.027 119.16 209.993C118.548 207.241 118.242 205.713 118.82 195.656C115.59 196.064 106.547 194.773 99.2032 189.847C97.9113 188.997 96.7555 187.944 95.7016 186.755C94.2397 188.046 92.9478 189.371 91.6899 190.628C90.33 192.021 88.9021 193.482 87.2363 194.909C87.0663 195.045 86.8283 195.079 86.6583 194.977C86.4544 194.875 86.3863 194.637 86.4203 194.433C86.5563 193.822 86.4204 192.904 86.3184 192.123C86.2844 191.885 86.2504 191.647 86.2504 191.443C86.2164 191.002 86.1824 190.594 86.1484 190.22C86.0804 189.235 86.0124 188.386 85.7744 187.299C85.0265 183.358 86.5223 180.776 87.2363 179.519C87.3383 179.315 87.4403 179.179 87.5083 179.043C90.874 172.112 103.555 169.666 116.338 173.471C117.834 173.913 119.499 173.981 121.267 173.709C125.449 173.029 128.815 174.626 131.568 178.635C134.118 182.338 133.574 186.517 133.064 188.658C132.826 189.643 132.69 190.594 132.69 191.545V192.021C133.064 193.788 133.506 195.588 133.982 197.321C135.682 203.165 138.198 208.838 141.462 214.138C142.21 215.361 142.278 216.856 141.632 218.147C140.986 219.438 139.762 220.288 138.334 220.39L125.789 221.545C125.619 221.579 125.415 221.579 125.211 221.579ZM119.397 194.501C119.499 194.501 119.635 194.535 119.703 194.603C119.839 194.705 119.907 194.875 119.907 195.045C119.262 205.679 119.567 207.072 120.213 209.858C120.247 210.061 120.213 210.197 120.179 210.265C119.737 212.745 119.839 215.022 120.519 217.06C121.233 219.302 123.375 220.729 125.721 220.491L138.266 219.336C139.354 219.234 140.272 218.589 140.748 217.638C141.224 216.686 141.19 215.531 140.612 214.614C137.28 209.212 134.73 203.47 132.996 197.525C132.486 195.758 132.044 193.924 131.67 192.089C131.67 192.055 131.67 192.021 131.67 191.987V191.443C131.67 190.424 131.806 189.371 132.078 188.318C132.588 186.347 133.064 182.508 130.753 179.111C128.237 175.442 125.211 173.981 121.471 174.592C119.533 174.898 117.732 174.83 116.066 174.32C102.297 170.244 91.2139 173.675 88.4602 179.383C88.3922 179.519 88.2902 179.722 88.1542 179.926C87.4402 181.149 86.1484 183.426 86.8283 187.027C87.0323 188.148 87.1343 189.099 87.2023 190.051C87.2363 190.424 87.2703 190.832 87.3043 191.274C87.3383 191.477 87.3383 191.681 87.3723 191.919C87.4403 192.361 87.4743 192.836 87.5083 193.278C88.7662 192.123 89.888 190.968 91.0099 189.847C92.3698 188.454 93.7977 186.993 95.4636 185.566C95.5655 185.464 95.7016 185.43 95.8376 185.43C95.9735 185.43 96.1095 185.498 96.1775 185.6C97.2314 186.891 98.4553 188.012 99.8152 188.895C107.601 194.127 117.324 195.079 119.262 194.433C119.295 194.535 119.33 194.501 119.397 194.501Z" fill="black"/>
<path d="M117.699 195.249C119.399 195.113 121.099 195.011 122.799 194.875C125.485 194.671 128.102 195.996 129.394 198.374C130.108 199.699 130.414 201.296 130.108 202.893L129.768 204.694C129.462 206.358 128.544 207.819 127.286 208.804C125.927 209.892 124.431 210.062 122.697 210.299C121.065 210.503 119.671 210.435 118.753 210.333" fill="#FF6EC1"/>
<path d="M120.622 210.978C119.976 210.978 119.33 210.944 118.684 210.876C118.412 210.842 118.208 210.604 118.242 210.299C118.276 210.027 118.514 209.823 118.82 209.857C120.078 209.993 121.37 209.993 122.628 209.823H122.764C124.361 209.619 125.755 209.415 126.979 208.464C128.169 207.513 128.985 206.154 129.291 204.659L129.631 202.858C129.903 201.397 129.665 199.971 128.985 198.646C127.829 196.505 125.415 195.214 122.866 195.418L117.766 195.792C117.494 195.826 117.256 195.588 117.222 195.316C117.188 195.044 117.426 194.806 117.698 194.772L122.798 194.399C125.755 194.195 128.543 195.656 129.869 198.17C130.685 199.665 130.957 201.363 130.617 203.028L130.277 204.829C129.937 206.561 128.985 208.158 127.625 209.245C126.197 210.401 124.599 210.604 122.934 210.808H122.798C122.05 210.91 121.336 210.978 120.622 210.978Z" fill="black"/>
<path d="M98.3183 202.248L95.3945 202.35C94.1027 202.486 93.2187 203.675 93.4567 204.932C93.6607 206.053 94.6806 206.801 95.8365 206.699L99.4402 206.529" fill="#FF6EC1"/>
<path d="M247.756 148.018H159.363V202.037H247.756V148.018Z" fill="#F9D84E"/>
<path d="M247.754 202.547H159.362C159.09 202.547 158.852 202.309 158.852 202.037V148.018C158.852 147.747 159.09 147.509 159.362 147.509H247.754C248.026 147.509 248.264 147.747 248.264 148.018V202.037C248.264 202.309 248.026 202.547 247.754 202.547ZM159.871 201.528H247.244V148.528H159.871V201.528Z" fill="black"/>
<path d="M159.363 148.018L203.559 174.857L247.756 148.018" fill="white"/>
<path d="M203.559 175.367C203.457 175.367 203.389 175.333 203.287 175.299L159.091 148.459C158.853 148.324 158.785 147.984 158.921 147.746C159.057 147.508 159.397 147.44 159.635 147.576L203.559 174.246L247.483 147.576C247.721 147.44 248.027 147.508 248.197 147.746C248.367 147.984 248.265 148.29 248.027 148.459L203.831 175.299C203.729 175.333 203.627 175.367 203.559 175.367Z" fill="black"/>
<path d="M159.363 202.037L203.559 174.857L247.756 202.037" fill="#F9D84E"/>
<path d="M247.755 202.547C247.653 202.547 247.585 202.513 247.483 202.479L203.559 175.469L159.635 202.479C159.397 202.615 159.091 202.547 158.921 202.309C158.785 202.071 158.853 201.766 159.091 201.596L203.287 174.416C203.457 174.314 203.661 174.314 203.831 174.416L248.027 201.596C248.265 201.732 248.333 202.071 248.197 202.309C248.095 202.445 247.925 202.547 247.755 202.547Z" fill="black"/>
<path d="M247.756 148.358L203.559 121.519L159.363 148.358H247.756Z" fill="#F9D84E"/>
<path d="M247.756 148.867H159.363C159.125 148.867 158.921 148.731 158.887 148.494C158.853 148.256 158.921 148.052 159.125 147.916L203.321 121.076C203.491 120.975 203.695 120.975 203.865 121.076L248.062 147.916C248.265 148.018 248.333 148.256 248.299 148.494C248.265 148.731 247.96 148.867 247.756 148.867ZM161.165 147.848H245.92L203.559 122.13L161.165 147.848Z" fill="black"/>
<path d="M84.6201 267.545C88.6657 270.127 90.3316 273.831 90.8755 275.19C90.9435 273.831 91.0455 272.506 91.1135 271.147C90.5356 270.433 89.9236 269.652 89.3116 268.768C88.1897 267.104 87.3738 265.507 86.7279 264.114C86.3199 262.211 85.912 260.275 85.47 258.372C82.9202 257.863 80.3704 257.319 77.8207 256.81C76.1548 259.663 74.4549 262.551 72.7891 265.405C74.013 265.133 79.3845 264.216 84.6201 267.545Z" fill="black"/>
<path d="M97.0943 213.9C99.5761 214.307 102.568 211.963 102.534 208.464C99.4741 208.464 96.4144 208.464 93.3547 208.464C93.1847 211.25 95.0205 213.526 97.0943 213.9Z" fill="black"/>
<path d="M124.125 199.597C123.853 199.597 123.615 199.835 123.615 200.106L123.547 206.188C123.547 206.46 123.785 206.697 124.057 206.697C124.329 206.697 124.567 206.46 124.567 206.188L124.635 200.106C124.635 199.835 124.397 199.597 124.125 199.597Z" fill="black"/>
<path d="M102.195 223.108C102.229 225.418 102.841 227.796 102.909 230.106C105.901 229.359 108.349 228.815 111.408 227.966C112.802 227.592 114.196 227.184 115.556 226.811C117.358 226.301 118.548 224.67 118.514 222.802C116.78 223.108 114.876 223.379 112.87 223.549C108.859 223.855 105.255 223.413 102.195 223.108Z" fill="black"/>
<path d="M93.4579 202.926C93.0159 203.537 92.8119 204.285 92.9479 205.032C93.1859 206.323 94.3078 207.241 95.5657 207.241C95.6677 207.241 95.7357 207.241 95.8377 207.241L99.4414 207.071C99.7133 207.071 99.9513 206.833 99.9173 206.527C99.9173 206.255 99.6793 206.018 99.3733 206.052L95.7357 206.221C94.8857 206.323 94.0698 205.712 93.9338 204.862C93.8318 204.387 93.9678 203.945 94.2398 203.537C94.5117 203.164 94.9537 202.926 95.3957 202.892L98.3194 202.79C98.5914 202.79 98.8294 202.552 98.7954 202.246C98.7954 201.975 98.5574 201.737 98.2515 201.771L95.3277 201.873C94.6138 201.907 93.9338 202.314 93.4579 202.926Z" fill="black"/>
<path d="M103.52 201.805C104.268 201.839 104.914 201.262 104.948 200.514C104.982 199.767 104.404 199.121 103.656 199.087C102.908 199.053 102.262 199.631 102.228 200.378C102.194 201.126 102.772 201.737 103.52 201.805Z" fill="black"/>
<path d="M94.6469 199.937C94.6809 199.19 94.103 198.544 93.355 198.51C92.6071 198.476 91.9612 199.054 91.9272 199.801C91.8932 200.549 92.4711 201.194 93.219 201.228C93.967 201.296 94.6129 200.685 94.6469 199.937Z" fill="black"/>
<path d="M107.839 374.26L91.2824 375.517C87.3048 375.822 83.7351 377.861 81.4233 381.088C80.6414 382.21 79.7234 383.636 78.8395 385.063C77.9556 386.456 77.0717 387.917 76.2897 389.004C76.1198 389.242 76.1877 389.548 76.4257 389.718C76.5277 389.786 76.6297 389.82 76.7317 389.82C76.9017 389.82 77.0377 389.752 77.1397 389.616C77.9216 388.495 78.8395 387.034 79.7234 385.641C80.6074 384.248 81.4913 382.787 82.2732 381.7C84.415 378.71 87.7127 376.842 91.3844 376.536L107.941 375.279C108.213 375.245 108.417 375.007 108.417 374.735C108.349 374.429 108.111 374.226 107.839 374.26Z" fill="black"/>
<path d="M99.2705 366.207C99.5425 366.139 99.7125 365.867 99.6785 365.596C99.6105 365.324 99.3385 365.154 99.0666 365.188L80.7421 368.925C78.3623 369.401 76.2205 370.624 74.5887 372.424L73.3988 373.715C73.1948 373.919 73.2288 374.259 73.4328 374.429C73.5347 374.531 73.6367 374.565 73.7727 374.565C73.9087 374.565 74.0447 374.497 74.1467 374.395L75.3366 373.104C76.8325 371.473 78.7703 370.386 80.9461 369.944L99.2705 366.207Z" fill="black"/>
<path d="M178.145 304L169.917 304.645C169.645 304.679 169.441 304.917 169.441 305.189C169.475 305.461 169.679 305.665 169.951 305.665H169.985L178.213 305.019C178.485 304.985 178.689 304.747 178.689 304.475C178.655 304.17 178.417 303.966 178.145 304Z" fill="black"/>
<path d="M162.2 249.505C158.358 251.645 153.055 254.091 146.391 255.756C137.994 257.829 130.753 257.829 125.789 257.421C127.625 257.421 130.447 257.455 133.914 257.489C147.479 257.693 154.381 257.829 160.296 258.882C164.104 259.561 169.645 260.886 176.275 263.74C171.583 258.984 166.891 254.227 162.2 249.505Z" fill="black"/>
<path d="M147.036 298.564L140.543 300.908C140.271 301.01 140.135 301.282 140.237 301.554C140.305 301.758 140.509 301.894 140.713 301.894C140.781 301.894 140.815 301.894 140.883 301.86L147.376 299.515C147.648 299.413 147.784 299.142 147.682 298.87C147.58 298.598 147.274 298.462 147.036 298.564Z" fill="black"/>
<path d="M92.5078 293.909L84.6885 298.869C84.4505 299.005 84.3825 299.345 84.5185 299.583C84.6205 299.753 84.7905 299.821 84.9605 299.821C85.0625 299.821 85.1645 299.787 85.2325 299.753L93.0517 294.792C93.2897 294.657 93.3577 294.317 93.2217 294.079C93.0517 293.841 92.7458 293.773 92.5078 293.909Z" fill="black"/>
<path d="M139.556 240.299C139.556 240.299 139.59 240.299 139.556 240.299C146.118 240.027 151.047 237.479 151.251 237.377C151.489 237.241 151.591 236.935 151.455 236.697C151.319 236.46 151.013 236.358 150.775 236.493C150.741 236.527 145.846 239.042 139.522 239.313C139.25 239.313 139.012 239.551 139.046 239.857C139.046 240.095 139.284 240.299 139.556 240.299Z" fill="black"/>
<path d="M75.9514 246.991H80.269C80.5409 246.991 80.7789 246.753 80.7789 246.481C80.7789 246.209 80.5409 245.972 80.269 245.972H75.9514C75.6794 245.972 75.4414 246.209 75.4414 246.481C75.4414 246.753 75.6794 246.991 75.9514 246.991Z" fill="black"/>
<path d="M91.76 271.962H96.0776C96.3495 271.962 96.5875 271.724 96.5875 271.452C96.5875 271.18 96.3495 270.942 96.0776 270.942H91.76C91.488 270.942 91.25 271.18 91.25 271.452C91.25 271.724 91.454 271.962 91.76 271.962Z" fill="black"/>
<path d="M129.869 195.316C129.937 195.35 130.005 195.35 130.073 195.35C130.277 195.35 130.447 195.248 130.549 195.044L132.792 189.846C132.894 189.574 132.792 189.303 132.52 189.167C132.249 189.065 131.977 189.167 131.841 189.438L129.597 194.637C129.495 194.908 129.631 195.214 129.869 195.316Z" fill="black"/>
<path d="M95.3637 186.347C95.4657 186.483 95.6016 186.517 95.7716 186.517C95.8736 186.517 96.0096 186.483 96.1116 186.415C96.3156 186.245 96.3496 185.906 96.1796 185.702L89.4142 177.514C89.2442 177.31 88.9043 177.276 88.7003 177.446C88.4963 177.616 88.4623 177.956 88.6323 178.159L95.3637 186.347Z" fill="black"/>
</svg>
