<svg width="331" height="319" viewBox="0 0 331 319" fill="none" xmlns="http://www.w3.org/2000/svg">
<path d="M235.079 59.2192L190.987 52.0578L201.434 24.0753C203.744 17.8821 200.725 15.0667 194.715 17.8134L142.501 41.6843L120.704 11.6147C117.573 7.29889 113.644 7.90733 111.965 12.9678L100.284 48.2279L43.2951 41.2664C36.736 40.466 34.71 44.0626 38.7843 49.2673L57.2107 72.7725L17.3432 92.9346C9.84495 96.7245 10.496 100.929 18.7903 102.28L62.8823 109.441L52.4349 137.424C50.1256 143.617 53.1444 146.432 59.1542 143.686L111.368 119.815L133.167 149.891C136.297 154.206 140.227 153.598 141.905 148.537L153.587 113.277L210.575 120.239C217.134 121.039 219.16 117.443 215.086 112.238L196.665 88.7256L236.526 68.5644C244.024 64.7745 243.373 60.5701 235.079 59.2192Z" fill="#171717"/>
<path d="M249.399 162.492V300.031C249.399 306.602 244.063 311.934 237.487 311.934H12.7863C6.21025 311.934 0.875 306.602 0.875 300.031C0.875 296.435 2.48799 293.025 5.31071 290.762L35.1509 266.615C44.3635 259.144 49.7298 247.954 49.7298 236.081V162.461C49.7298 155.889 55.0651 150.558 61.6411 150.558H237.487C244.032 150.589 249.399 155.92 249.399 162.492Z" fill="white"/>
<path d="M237.457 312.399H12.7867C5.96254 312.399 0.410156 306.851 0.410156 300.031C0.410156 296.28 2.08518 292.777 5.00096 290.422L34.8412 266.274C43.9918 258.865 49.234 247.892 49.234 236.113V162.492C49.234 155.673 54.7863 150.124 61.6105 150.124H237.457C244.281 150.124 249.833 155.673 249.833 162.492V300.031C249.864 306.851 244.281 312.399 237.457 312.399ZM61.6105 151.054C55.2826 151.054 50.1645 156.2 50.1645 162.492V236.113C50.1645 248.171 44.7982 259.423 35.4305 266.987L5.59032 291.134C2.89167 293.304 1.34072 296.559 1.34072 300.031C1.34072 306.355 6.48987 311.469 12.7867 311.469H237.457C243.785 311.469 248.903 306.324 248.903 300.031V162.492C248.903 156.169 243.754 151.054 237.457 151.054H61.6105Z" fill="black"/>
<path d="M133.172 158.896L115.709 164.414C110.715 168.692 105.721 172.969 100.727 177.247C107.147 186.919 113.537 196.559 119.958 206.23C119.741 210.508 119.555 214.817 119.338 219.095C125.852 218.785 132.366 218.475 138.88 218.165C139.283 214.104 139.717 210.074 140.121 206.013L142.199 205.362C149.581 203.038 153.552 195.009 150.915 187.725L146.511 175.48C145.58 171.884 144.649 168.289 143.688 164.693C142.54 160.105 137.701 157.439 133.172 158.896Z" fill="#F9D84E"/>
<path d="M119.335 219.56C119.211 219.56 119.087 219.498 118.994 219.436C118.901 219.343 118.839 219.219 118.87 219.095L119.49 206.386L100.352 177.527C100.228 177.341 100.259 177.062 100.445 176.907L115.427 164.073C115.489 164.042 115.52 164.011 115.582 163.98L133.046 158.463C135.372 157.719 137.823 157.967 139.963 159.145C142.103 160.323 143.592 162.276 144.213 164.631L147.004 175.388L151.378 187.601C152.681 191.259 152.464 195.165 150.758 198.636C149.052 202.108 146.043 204.65 142.351 205.828L140.552 206.386L139.343 218.227C139.312 218.444 139.125 218.63 138.908 218.63L119.335 219.56ZM101.344 177.31L120.328 205.952C120.39 206.045 120.421 206.138 120.39 206.231L119.801 218.599L138.443 217.7L139.653 205.952C139.684 205.766 139.808 205.611 139.963 205.549L142.041 204.898C145.484 203.813 148.276 201.426 149.889 198.171C151.502 194.917 151.719 191.259 150.478 187.88L146.074 175.636V175.605L143.251 164.817C142.693 162.71 141.359 160.974 139.436 159.92C137.512 158.866 135.341 158.649 133.263 159.3L115.892 164.786L101.344 177.31Z" fill="black"/>
<path d="M119.522 196.993C118.529 198.171 115.365 201.612 111.24 201.426C109.441 201.333 108.076 200.589 105.657 199.256C102.679 197.582 100.476 195.784 99.0185 194.451C97.8708 193.614 95.1721 191.383 93.6212 187.384C92.1633 183.571 92.5665 180.254 92.8457 178.859L92.8767 178.704C94.3966 172.319 98.7393 166.987 104.664 164.197C111.705 160.911 118.747 157.657 125.788 154.371C128.704 153.007 132.023 152.697 135.093 153.658C136.427 154.092 137.823 154.743 139.126 155.828C141.794 158.029 142.476 160.787 142.848 162.027L121.755 170.397V174.427C118.56 176.596 115.334 178.766 112.139 180.936C114.652 186.299 117.103 191.662 119.522 196.993Z" fill="#3FD1FF"/>
<path d="M111.584 201.89C111.46 201.89 111.336 201.89 111.243 201.89C109.289 201.797 107.769 200.96 105.442 199.658C103.023 198.325 100.759 196.683 98.7424 194.823C97.0053 193.521 94.6169 191.227 93.221 187.569C91.8562 184.035 92.0423 180.843 92.4145 178.766L92.4456 178.611C94.0275 172.07 98.4012 166.676 104.512 163.794L125.636 153.967C128.738 152.541 132.15 152.262 135.283 153.223C136.834 153.719 138.261 154.463 139.501 155.486C142.138 157.656 142.944 160.415 143.317 161.717L143.379 161.903C143.441 162.12 143.317 162.368 143.099 162.461L122.286 170.706V174.426C122.286 174.581 122.224 174.736 122.069 174.798L112.794 181.091L119.959 196.776C120.021 196.931 120.021 197.117 119.897 197.272C118.439 199.038 115.431 201.89 111.584 201.89ZM131.467 153.564C129.637 153.564 127.776 153.967 126.039 154.773L104.915 164.6C99.0836 167.358 94.865 172.504 93.3761 178.797L93.3451 178.952C93.0039 180.874 92.8178 183.88 94.1206 187.228C95.4544 190.7 97.6878 192.87 99.3318 194.079L99.3628 194.11C101.348 195.939 103.55 197.52 105.908 198.852C108.358 200.216 109.63 200.898 111.274 200.96C114.717 201.115 117.509 198.604 118.967 196.931L111.739 181.153C111.646 180.936 111.708 180.688 111.894 180.564L121.293 174.178V170.396C121.293 170.21 121.417 170.024 121.572 169.962L142.262 161.748C141.859 160.384 141.114 158.09 138.819 156.168C137.671 155.238 136.368 154.525 134.941 154.091C133.856 153.75 132.646 153.564 131.467 153.564Z" fill="black"/>
<path d="M117.322 177.278C115.647 178.363 114.251 179.324 112.576 180.409C109.909 182.114 108.42 185.214 108.885 188.345C109.164 190.112 110.002 191.785 111.429 193.087L113.011 194.544C115.989 197.241 120.486 197.334 123.557 194.792C124.519 194.017 125.449 193.242 126.411 192.436" fill="#F9D84E"/>
<path d="M118.467 197.055C116.389 197.055 114.342 196.311 112.729 194.854L111.147 193.397C109.689 192.064 108.759 190.329 108.448 188.407C107.952 185.152 109.472 181.866 112.357 180.006C113.194 179.479 113.97 178.952 114.714 178.456C115.49 177.96 116.265 177.433 117.103 176.906C117.32 176.751 117.599 176.813 117.754 177.03C117.878 177.247 117.816 177.526 117.63 177.681C116.792 178.208 116.017 178.735 115.273 179.231C114.497 179.727 113.722 180.254 112.884 180.781C110.309 182.424 108.945 185.369 109.41 188.252C109.689 189.988 110.496 191.537 111.798 192.715L113.38 194.172C116.172 196.683 120.422 196.807 123.337 194.42L126.191 192.064C126.377 191.909 126.688 191.94 126.843 192.126C126.998 192.312 126.967 192.622 126.781 192.777L123.927 195.133C122.314 196.404 120.391 197.055 118.467 197.055Z" fill="black"/>
<path d="M145.703 174.736C147.657 173.589 149.58 172.442 151.535 171.296C152.868 170.521 154.575 171.079 155.195 172.473C155.691 173.651 155.288 175.015 154.202 175.666C151.938 177.123 149.643 178.611 147.378 180.068" fill="#F9D84E"/>
<path d="M147.349 180.564C147.193 180.564 147.038 180.502 146.945 180.347C146.821 180.13 146.883 179.851 147.069 179.696L153.894 175.294C154.793 174.736 155.134 173.62 154.731 172.659C154.483 172.101 154.018 171.667 153.459 171.481C152.901 171.295 152.25 171.357 151.753 171.667L145.922 175.108C145.705 175.232 145.425 175.17 145.27 174.953C145.146 174.736 145.208 174.457 145.425 174.302L151.257 170.862C152.001 170.428 152.901 170.335 153.738 170.583C154.576 170.862 155.227 171.45 155.569 172.256C156.158 173.62 155.662 175.263 154.39 176.038L147.566 180.44C147.535 180.533 147.442 180.564 147.349 180.564Z" fill="black"/>
<path d="M139.965 206.231C134.382 206.2 128.829 206.169 123.246 206.138L139.965 206.231Z" fill="white"/>
<path d="M139.966 206.696L123.247 206.603C122.998 206.603 122.781 206.386 122.781 206.138C122.781 205.89 122.998 205.673 123.247 205.673L139.966 205.766C140.214 205.766 140.431 205.983 140.431 206.231C140.431 206.479 140.214 206.696 139.966 206.696Z" fill="black"/>
<path d="M83.7901 236.05C79.2924 261.19 74.7946 286.329 70.2969 311.469H93.437C90.8004 286.36 88.1638 261.221 85.5272 236.112C85.4341 235.089 83.9762 235.027 83.7901 236.05Z" fill="#F15922"/>
<path d="M93.4686 311.934H70.3285C70.2044 311.934 70.0493 311.872 69.9562 311.779C69.8632 311.686 69.8322 311.531 69.8632 311.407L83.3564 235.988C83.4805 235.307 84.0389 234.842 84.7213 234.873C85.4037 234.904 85.931 235.399 86.0241 236.081L93.9339 311.438C93.9339 311.562 93.9029 311.686 93.8098 311.81C93.7168 311.872 93.5927 311.934 93.4686 311.934ZM70.8868 311.004H92.9723L85.0935 236.174C85.0625 235.833 84.7833 235.802 84.6903 235.802C84.5972 235.802 84.318 235.802 84.256 236.143L70.8868 311.004Z" fill="black"/>
<path d="M291.709 214.29L303.558 194.699L318.882 188.345C320.929 187.508 322.604 185.927 323.566 183.943L329.211 172.319C331.382 167.824 329.645 161.066 325.148 158.897L317.672 155.301C315.066 154.03 311.809 156.479 310.569 159.051C309.297 161.655 310.414 164.786 312.988 166.026L317.703 168.289L315.966 171.885C314.074 175.79 309.359 177.433 305.42 175.543L283.861 165.127C280.666 163.577 279.333 159.764 280.884 156.572L283.892 150.372L286.467 151.612C289.29 152.976 292.702 151.798 294.098 148.977C295.463 146.156 294.284 142.746 291.461 141.352L287.18 139.275C281.38 136.485 274.432 138.903 271.64 144.668L268.228 151.736L251.075 126.348C249.152 123.776 244.406 123.807 241.676 125.512L242.886 124.83C239.939 126.689 237.923 131.308 239.877 134.191L253.277 153.751L234.914 138.004C232.587 136.268 229.299 136.733 227.562 139.058L226.477 141.135C224.833 143.335 225.205 146.435 227.283 148.233L260.349 175.326C262.21 176.906 262.893 179.51 262.055 181.804L256.782 196.125" fill="#F9D84E"/>
<path d="M291.709 214.755C291.616 214.755 291.554 214.724 291.461 214.693C291.244 214.569 291.182 214.259 291.306 214.042L303.155 194.451C303.217 194.358 303.279 194.296 303.372 194.265L318.696 187.91C320.65 187.105 322.201 185.617 323.132 183.726L328.746 172.101C330.917 167.638 328.994 161.283 324.9 159.299L317.424 155.703C315.036 154.557 312.027 156.974 310.941 159.237C310.383 160.384 310.321 161.686 310.724 162.864C311.127 164.073 311.996 165.034 313.143 165.592L317.858 167.855C318.075 167.979 318.199 168.258 318.075 168.475L316.338 172.07C314.322 176.224 309.328 177.96 305.172 175.945L283.613 165.53C280.201 163.887 278.774 159.764 280.418 156.354L283.427 150.155C283.489 150.031 283.582 149.969 283.706 149.907C283.831 149.876 283.955 149.876 284.048 149.938L286.622 151.178C289.228 152.449 292.361 151.333 293.601 148.76C294.842 146.187 293.757 143.025 291.182 141.785L286.901 139.708C281.349 137.012 274.649 139.367 271.981 144.885L268.57 151.953C268.508 152.108 268.353 152.201 268.198 152.201C268.043 152.201 267.856 152.139 267.763 151.984L250.61 126.596C249.059 124.488 245.275 124.302 242.669 125.449C241.18 126.534 240.001 128.363 239.629 130.223C239.412 131.215 239.35 132.641 240.188 133.881L253.588 153.441C253.712 153.627 253.681 153.906 253.526 154.061C253.34 154.216 253.091 154.216 252.905 154.061L234.542 138.314C233.549 137.57 232.278 137.229 231.006 137.415C229.765 137.601 228.648 138.252 227.873 139.243L226.818 141.258C226.818 141.289 226.787 141.289 226.787 141.32C225.298 143.335 225.609 146.156 227.532 147.768L260.567 174.829C262.583 176.534 263.328 179.355 262.397 181.835L257.124 196.156C257.031 196.404 256.783 196.528 256.534 196.435C256.286 196.342 256.162 196.094 256.255 195.846L261.529 181.525C262.304 179.417 261.684 177.03 259.947 175.573L226.911 148.512C224.647 146.59 224.244 143.211 226.012 140.824L227.067 138.809C227.067 138.778 227.098 138.778 227.098 138.747C227.997 137.508 229.331 136.733 230.851 136.516C232.371 136.299 233.86 136.671 235.1 137.601L250.796 151.054L239.412 134.439C238.606 133.261 238.357 131.742 238.699 130.068C239.04 128.425 239.939 126.782 241.149 125.573C241.118 125.387 241.211 125.232 241.366 125.108C241.49 125.015 241.645 124.953 241.8 124.86L242.576 124.395C242.7 124.333 242.824 124.333 242.948 124.364C245.864 123.341 249.648 123.744 251.385 126.069L268.105 150.806L271.175 144.482C274.091 138.468 281.349 135.958 287.336 138.871L291.616 140.948C294.687 142.436 295.959 146.125 294.47 149.194C292.981 152.263 289.29 153.534 286.219 152.046L284.079 151.023L281.287 156.788C279.86 159.733 281.101 163.298 284.048 164.724L305.606 175.139C307.405 176.007 309.421 176.131 311.282 175.48C313.143 174.829 314.663 173.496 315.532 171.698L317.052 168.537L312.771 166.46C311.406 165.809 310.383 164.631 309.886 163.205C309.39 161.779 309.483 160.229 310.135 158.865C311.561 155.92 315.098 153.534 317.858 154.898L325.334 158.493C327.567 159.578 329.304 161.81 330.111 164.631C330.917 167.359 330.731 170.242 329.614 172.535L324 184.16C322.976 186.268 321.239 187.91 319.068 188.809L303.9 195.102L292.113 214.569C292.02 214.693 291.864 214.755 291.709 214.755Z" fill="black"/>
<path d="M260.595 166.212C260.44 166.212 260.285 166.119 260.192 165.995L252.809 153.998C252.685 153.781 252.747 153.502 252.964 153.347C253.182 153.223 253.461 153.285 253.616 153.502L260.998 165.499C261.122 165.716 261.06 165.995 260.843 166.15C260.75 166.181 260.657 166.212 260.595 166.212Z" fill="black"/>
<path d="M116.856 217.545C116.732 216.212 116.639 214.879 116.515 213.546C116.36 211.717 117.849 210.167 119.679 210.229L147.1 211.221C149.581 211.314 150.512 214.507 148.465 215.902C147.937 216.274 147.41 216.615 146.914 216.987" fill="#F15922"/>
<path d="M116.856 218.01C116.608 218.01 116.422 217.824 116.39 217.576L116.049 213.577C115.956 212.585 116.328 211.562 117.011 210.849C117.693 210.105 118.686 209.733 119.678 209.764L147.099 210.756C148.433 210.818 149.55 211.655 149.922 212.926C150.294 214.197 149.829 215.53 148.743 216.274L147.192 217.359C146.975 217.514 146.696 217.452 146.541 217.235C146.386 217.018 146.448 216.739 146.665 216.584L148.216 215.499C149.146 214.848 149.24 213.887 149.053 213.174C148.836 212.461 148.216 211.686 147.099 211.655L119.678 210.663C118.934 210.632 118.221 210.942 117.693 211.469C117.166 211.996 116.918 212.74 116.98 213.484L117.321 217.483C117.352 217.731 117.166 217.979 116.887 217.979C116.887 218.01 116.856 218.01 116.856 218.01Z" fill="black"/>
<path d="M256.998 190.7C253.865 192.994 250.081 196.311 246.483 200.899C240.279 208.834 237.673 216.832 236.495 221.791C233.331 224.488 229.267 228.518 225.576 234.129C221.14 240.886 218.938 247.272 217.821 251.704C215.712 247.086 212.021 240.483 205.631 234.129C195.736 224.271 184.817 220.396 179.172 218.846C176.101 218.35 173.03 217.855 169.959 217.359C165.709 216.677 161.398 216.336 157.055 216.367C141.484 216.491 125.943 216.615 110.372 216.708C108.604 216.46 105.998 216.243 102.927 216.708C97.0026 217.576 93.0632 220.303 92.0085 221.078C90.8918 221.884 88.3483 223.899 85.7427 227.867C80.3454 236.112 79.756 245.071 79.4769 250.434C78.9495 260.384 80.8107 269.063 83.1061 275.759C81.8963 279.262 80.3764 285.027 80.7486 292.219C81.2139 301.239 84.4399 307.966 86.3941 311.438C100.88 311.5 115.335 311.5 129.821 311.593C144.306 311.686 158.761 311.81 173.247 311.748C174.984 301.611 176.721 290.824 178.489 280.688C180.257 285.244 183.142 291.227 187.981 297.303C196.046 307.408 205.414 312.709 211.059 315.313C211.245 315.251 211.369 315.22 211.555 315.127C211.618 315.003 211.68 314.91 211.742 314.786C213.851 315.747 224.676 320.334 236.681 315.561C253.121 309.02 256.254 291.072 256.409 290.142C260.255 286.453 265.373 280.688 269.716 272.566C274.617 263.36 276.509 254.897 277.316 249.287C281.348 243.583 285.877 236.143 289.661 226.968C292.236 220.768 293.973 214.972 295.214 209.888C282.496 203.533 269.747 197.117 256.998 190.7Z" fill="#F15922"/>
<path d="M225.453 318.226C219.466 318.226 214.596 316.552 211.991 315.436C211.928 315.529 211.866 315.56 211.773 315.591L211.277 315.777C211.153 315.808 211.029 315.808 210.936 315.746C201.847 311.531 193.782 305.269 187.672 297.582C184.011 292.963 180.972 287.879 178.707 282.361C177.932 286.949 177.125 291.661 176.381 296.28C175.512 301.425 174.644 306.757 173.775 311.81C173.744 312.027 173.558 312.182 173.31 312.182C158.855 312.244 144.183 312.12 129.976 312.027H129.883C120.237 311.965 110.435 311.934 100.974 311.903C96.1348 311.903 91.2958 311.872 86.4569 311.872C86.3018 311.872 86.1467 311.779 86.0536 311.624C82.6726 305.672 80.6874 298.976 80.3462 292.219C80.067 286.608 80.8425 281.06 82.6726 275.728C79.8499 267.389 78.6401 258.865 79.0744 250.371C79.3225 245.381 79.8188 236.081 85.4022 227.557C87.2944 224.674 89.4347 222.349 91.7922 220.644C93.5912 219.342 97.4686 216.986 102.928 216.212C105.409 215.84 107.953 215.84 110.466 216.212L157.118 215.871C161.461 215.84 165.803 216.181 170.084 216.862L179.297 218.35C179.328 218.35 179.328 218.35 179.359 218.35C186.431 220.303 196.791 224.581 206.004 233.756C210.812 238.561 214.782 244.11 217.76 250.309C219.404 244.451 221.917 238.902 225.267 233.849C228.307 229.231 231.967 225.108 236.154 221.512C238.015 213.794 241.365 206.726 246.173 200.588C249.213 196.714 252.78 193.242 256.782 190.297C256.937 190.204 257.123 190.173 257.278 190.266L295.525 209.485C295.711 209.578 295.804 209.795 295.773 210.012C294.377 215.871 292.516 221.636 290.22 227.185C286.963 235.027 282.807 242.529 277.875 249.503C276.696 257.687 274.121 265.529 270.244 272.814C266.77 279.324 262.303 285.244 256.968 290.39C256.627 292.343 253.184 309.547 236.992 315.994C232.866 317.637 228.989 318.226 225.453 318.226ZM211.804 314.351C211.866 314.351 211.928 314.352 211.991 314.383C214.906 315.684 225.298 319.621 236.558 315.157C252.874 308.648 255.882 290.855 255.975 290.111C256.006 290.018 256.037 289.925 256.099 289.863C261.404 284.748 265.87 278.89 269.314 272.411C273.16 265.189 275.703 257.408 276.851 249.287C276.851 249.225 276.882 249.131 276.944 249.069C281.876 242.126 286.002 234.655 289.259 226.844C291.492 221.45 293.322 215.84 294.687 210.167L257.03 191.227C253.184 194.079 249.741 197.427 246.825 201.177C242.079 207.253 238.76 214.228 236.93 221.884C236.899 221.977 236.868 222.07 236.775 222.132C232.587 225.697 228.958 229.82 225.918 234.376C222.413 239.708 219.807 245.598 218.225 251.797C218.163 251.983 218.008 252.138 217.822 252.138C217.636 252.169 217.45 252.045 217.357 251.859C214.379 245.319 210.316 239.429 205.259 234.438C196.202 225.418 185.997 221.202 179.048 219.28L169.867 217.792C165.648 217.11 161.337 216.769 157.056 216.8L110.372 217.141C110.341 217.141 110.31 217.141 110.31 217.141C107.891 216.769 105.44 216.769 103.021 217.141C97.7478 217.916 94.0565 220.148 92.3195 221.419C90.0551 223.062 88.0078 225.294 86.1777 228.084C80.7184 236.391 80.2531 245.536 80.005 250.433C79.5707 258.865 80.7804 267.327 83.6032 275.573C83.6342 275.666 83.6342 275.79 83.6032 275.883C81.773 281.153 80.9976 286.639 81.2767 292.157C81.6179 298.697 83.5101 305.176 86.7361 310.911C91.482 310.942 96.2279 310.942 100.974 310.942C110.466 310.973 120.268 310.973 129.883 311.066H129.976C144.059 311.159 158.607 311.283 172.938 311.221C173.775 306.261 174.644 301.084 175.481 296.063C176.35 290.917 177.218 285.616 178.087 280.533C178.118 280.316 178.304 280.161 178.49 280.161C178.707 280.13 178.893 280.254 178.955 280.471C181.251 286.453 184.446 292.002 188.385 296.962C194.372 304.463 202.251 310.632 211.122 314.754L211.277 314.693L211.37 314.538C211.463 314.445 211.649 314.351 211.804 314.351Z" fill="black"/>
<path d="M301.914 164.227C307.395 164.227 311.84 159.785 311.84 154.308C311.84 148.831 307.395 144.389 301.914 144.389C296.433 144.389 291.988 148.831 291.988 154.308C291.988 159.785 296.433 164.227 301.914 164.227Z" fill="#FF6EC1"/>
<path d="M301.915 164.693C296.176 164.693 291.523 160.043 291.523 154.308C291.523 148.574 296.176 143.924 301.915 143.924C307.653 143.924 312.306 148.574 312.306 154.308C312.306 160.043 307.653 164.693 301.915 164.693ZM301.915 144.854C296.704 144.854 292.454 149.101 292.454 154.308C292.454 159.516 296.704 163.763 301.915 163.763C307.126 163.763 311.376 159.516 311.376 154.308C311.376 149.101 307.126 144.854 301.915 144.854Z" fill="black"/>
<path d="M142.988 176.683C143.065 175.933 142.519 175.263 141.769 175.185C141.02 175.111 140.35 175.657 140.273 176.404C140.196 177.154 140.742 177.823 141.492 177.901C142.242 177.978 142.912 177.433 142.988 176.683Z" fill="black"/>
<path d="M149.827 184.501C148.741 185.059 147.593 185.338 146.384 185.4C144.429 185.493 142.878 184.842 141.917 184.315C141.7 184.191 141.42 184.253 141.296 184.501C141.172 184.718 141.234 184.997 141.483 185.121C142.475 185.679 144.057 186.33 146.073 186.33C146.197 186.33 146.321 186.33 146.446 186.33C147.779 186.268 149.051 185.927 150.261 185.338C150.478 185.214 150.571 184.935 150.478 184.718C150.323 184.47 150.044 184.377 149.827 184.501Z" fill="black"/>
<path d="M115.396 185.957C115.241 185.74 114.931 185.709 114.745 185.864C114.528 186.019 114.497 186.329 114.652 186.515L119.025 192.157C119.118 192.281 119.242 192.343 119.398 192.343C119.491 192.343 119.584 192.312 119.677 192.25C119.894 192.095 119.925 191.785 119.77 191.599L115.396 185.957Z" fill="black"/>
<path d="M139.624 210.695C139.748 209.021 139.841 207.347 139.965 205.673L136.615 205.89C132.149 205.952 127.713 206.045 123.246 206.107C127.372 207.068 131.466 208.029 135.592 208.959C135.933 209.486 136.274 210.044 136.615 210.571C137.639 210.602 138.631 210.695 139.624 210.695Z" fill="black"/>
<path d="M121.663 169.962L109.255 174.333C109.007 174.426 108.883 174.674 108.976 174.922C109.038 175.108 109.224 175.232 109.41 175.232C109.473 175.232 109.504 175.232 109.566 175.201L121.973 170.83C122.221 170.737 122.345 170.489 122.252 170.241C122.159 170.024 121.911 169.9 121.663 169.962Z" fill="black"/>
<path d="M217.948 251.271C217.731 251.209 217.513 251.302 217.42 251.488L210.472 263.825C210.348 264.042 210.41 264.321 210.658 264.445C210.906 264.569 211.155 264.507 211.279 264.259L217.265 253.627L216.583 267.824C216.583 268.072 216.769 268.289 217.017 268.32C217.017 268.32 217.017 268.32 217.048 268.32C217.296 268.32 217.514 268.134 217.514 267.886L218.289 251.736C218.289 251.519 218.134 251.333 217.948 251.271Z" fill="black"/>
<path d="M166.578 259.547C166.454 259.33 166.175 259.268 165.927 259.392C165.71 259.516 165.648 259.795 165.772 260.043L172.937 272.164C173.216 276.627 173.061 283.447 170.456 291.134C166.857 301.736 160.498 308.462 157.148 311.562C162.546 311.624 167.912 311.686 173.309 311.779C175.015 301.581 176.752 291.351 178.458 281.153C178.489 281.153 178.521 281.153 178.521 281.153C178.614 281.153 178.676 281.122 178.769 281.091C178.986 280.967 179.048 280.688 178.924 280.44L166.578 259.547Z" fill="black"/>
<path d="M83.5698 275.604C83.4767 275.356 83.1976 275.232 82.9804 275.356C82.7323 275.449 82.6082 275.728 82.7323 275.945L86.7027 286.082C86.7647 286.268 86.9508 286.392 87.137 286.392C87.199 286.392 87.261 286.392 87.2921 286.361C87.5402 286.268 87.6643 285.989 87.5402 285.772L83.5698 275.604Z" fill="black"/>
<path d="M236.651 221.357C236.403 221.264 236.155 221.388 236.062 221.636L231.781 233.973C231.688 234.221 231.812 234.469 232.06 234.562C232.122 234.593 232.153 234.593 232.215 234.593C232.401 234.593 232.587 234.469 232.649 234.283L236.93 221.946C237.023 221.729 236.899 221.45 236.651 221.357Z" fill="black"/>
<path d="M278.837 233.23C278.589 233.199 278.34 233.385 278.34 233.664L276.914 249.349C276.883 249.597 277.069 249.845 277.348 249.845H277.379C277.627 249.845 277.813 249.659 277.844 249.411L279.271 233.726C279.271 233.478 279.085 233.23 278.837 233.23Z" fill="black"/>
<path d="M257.434 275.016C257.185 275.016 256.968 275.202 256.937 275.45L255.976 290.174C255.945 290.422 256.162 290.639 256.41 290.67H256.441C256.689 290.67 256.875 290.484 256.906 290.236L257.868 275.512C257.899 275.233 257.682 275.016 257.434 275.016Z" fill="black"/>
</svg>
