<svg width="353" height="353" viewBox="0 0 353 353" fill="none" xmlns="http://www.w3.org/2000/svg">
<path d="M284.079 208.219L239.987 201.058L250.434 173.075C252.744 166.882 249.725 164.067 243.715 166.813L191.501 190.684L169.704 160.615C166.573 156.299 162.644 156.907 160.965 161.968L149.284 197.228L92.2951 190.266C85.736 189.466 83.71 193.063 87.7843 198.267L106.211 221.772L66.3432 241.935C58.8449 245.725 59.496 249.929 67.7903 251.28L111.882 258.441L101.435 286.424C99.1256 292.617 102.144 295.432 108.154 292.686L160.368 268.815L182.167 298.891C185.297 303.206 189.227 302.598 190.905 297.537L202.587 262.277L259.575 269.239C266.134 270.039 268.16 266.443 264.086 261.238L245.665 237.726L285.526 217.564C293.024 213.774 292.373 209.57 284.079 208.219Z" fill="#171717"/>
<path d="M337.482 298.094C337.482 304.5 331.724 309.675 324.589 309.675H81.6656C74.5677 309.675 68.7734 304.5 68.7734 298.094V164.264C68.7734 157.859 74.5315 152.684 81.6656 152.684H271.789C278.923 152.684 284.682 157.859 284.682 164.264V235.884C284.682 247.428 290.476 258.321 300.435 265.596L332.701 289.083C335.707 291.29 337.482 294.62 337.482 298.094Z" fill="white"/>
<path d="M324.59 310.254H81.6659C74.242 310.254 68.2305 304.825 68.2305 298.13V164.264C68.2305 157.569 74.242 152.141 81.6659 152.141H271.79C279.213 152.141 285.225 157.569 285.225 164.264V235.884C285.225 247.283 290.874 257.959 300.761 265.161L333.027 288.648C336.214 290.964 338.025 294.402 338.025 298.094C338.025 304.789 331.977 310.254 324.59 310.254ZM81.6659 153.19C74.8576 153.19 69.3169 158.148 69.3169 164.228V298.058C69.3169 304.137 74.8576 309.095 81.6659 309.095H324.59C331.398 309.095 336.939 304.137 336.939 298.058C336.939 294.728 335.273 291.58 332.376 289.481L300.109 265.994C289.969 258.611 284.139 247.609 284.139 235.847V164.264C284.139 158.184 278.598 153.226 271.79 153.226H81.6659V153.19Z" fill="black"/>
<path d="M108.102 309.711H81.6656C74.5677 309.711 68.7734 303.957 68.7734 296.828V260.023L69.5701 256.874L80.6516 288.649L104.336 225.823L108.102 309.711Z" fill="#F9D84E"/>
<path d="M108.102 310.253H81.6659C74.242 310.253 68.2305 304.246 68.2305 296.827V260.022C68.2305 259.986 68.2305 259.95 68.2305 259.877L69.0272 256.729C69.0996 256.512 69.2807 256.331 69.5342 256.331C69.7877 256.331 70.0049 256.475 70.0774 256.693L80.6881 287.056L103.829 225.642C103.938 225.388 104.155 225.244 104.408 225.28C104.662 225.316 104.843 225.533 104.879 225.787L108.645 309.674C108.645 309.819 108.609 309.964 108.5 310.072C108.392 310.181 108.283 310.253 108.102 310.253ZM69.3169 260.094V296.827C69.3169 303.631 74.8576 309.168 81.6659 309.168H107.559L103.938 228.537L81.1951 288.865C81.1227 289.082 80.9054 289.227 80.6881 289.227C80.4708 289.227 80.2535 289.082 80.1811 288.865L69.679 258.792L69.3169 260.094Z" fill="black"/>
<path d="M187.843 199.947C174.081 198.138 155.214 203.313 130.335 205.882C115.705 207.402 104.008 218.621 101.871 233.169C101.871 233.242 101.835 233.35 101.835 233.423C98.829 258.755 95.787 284.088 92.7812 309.421H199.793C204.791 309.385 209.788 309.385 214.786 309.349C216.416 307.033 222.029 298.456 220.435 287.164C219.675 281.844 217.574 277.791 215.981 275.33C219.675 269.033 224.89 257.778 224.817 243.302C224.781 236.933 224.672 217.97 211.527 207.294C205.407 202.336 199.141 201.431 187.843 199.947Z" fill="#F9D84E"/>
<path d="M92.8166 310C92.6718 310 92.5269 309.927 92.4183 309.819C92.3096 309.71 92.2734 309.566 92.2734 309.385L101.327 233.386L101.363 233.133C103.5 218.331 115.414 206.931 130.298 205.375C139.315 204.434 147.681 203.132 155.068 202.01C168.504 199.947 179.078 198.282 187.914 199.44C198.887 200.888 205.514 201.72 211.96 206.968C225.323 217.788 225.396 237.041 225.432 243.375C225.504 254.34 222.463 265.378 216.704 275.366C218.986 279.021 220.471 282.966 221.05 287.128C222.571 297.949 217.537 306.526 215.292 309.674C215.183 309.819 215.039 309.891 214.858 309.891L199.865 309.964H92.8166V310ZM93.3961 308.914H199.793L214.532 308.842C216.777 305.585 221.376 297.478 219.928 287.273C219.348 283.183 217.863 279.275 215.582 275.656C215.473 275.475 215.473 275.258 215.582 275.077C221.376 265.161 224.382 254.195 224.346 243.338C224.309 237.15 224.237 218.259 211.272 207.764C205.333 202.951 199.467 202.01 187.769 200.49C179.078 199.368 168.576 200.996 155.213 203.059C147.825 204.217 139.46 205.484 130.407 206.425C116.03 207.909 104.514 218.946 102.45 233.241L102.413 233.495L93.3961 308.914Z" fill="black"/>
<path d="M154.02 309.24C157.062 298.094 160.104 286.948 163.146 275.801C164.558 270.59 168.18 266.283 173.069 264.003L184.259 258.756C183.643 255.68 183.028 252.567 182.448 249.491L119.182 265.415C115.307 280.144 111.469 294.909 107.594 309.639C123.057 309.494 138.557 309.385 154.02 309.24Z" fill="#FF6EC1"/>
<path d="M107.557 310.146C107.376 310.146 107.231 310.073 107.122 309.929C107.014 309.784 106.977 309.639 107.014 309.458L118.602 265.234C118.638 265.053 118.819 264.908 119 264.836L182.266 248.913C182.411 248.876 182.556 248.913 182.701 248.985C182.81 249.057 182.918 249.202 182.954 249.347L184.765 258.611C184.801 258.865 184.693 259.118 184.475 259.191L173.285 264.438C168.541 266.682 165.029 270.844 163.689 275.91L154.563 309.349C154.49 309.567 154.273 309.748 154.056 309.748L107.557 310.146ZM119.58 265.849L108.245 309.096L153.585 308.734L162.602 275.693C164.051 270.337 167.781 265.886 172.815 263.533L183.606 258.467L181.977 250.179L119.58 265.849Z" fill="black"/>
<path d="M199.215 284.233C199.432 292.629 199.613 301.025 199.831 309.421C214.063 309.349 228.295 309.24 242.491 309.168C236.37 284.595 230.286 260.022 224.166 235.449L221.378 247.102" fill="#F9D84E"/>
<path d="M173.865 280.145C176.106 280.145 177.921 278.33 177.921 276.091C177.921 273.853 176.106 272.038 173.865 272.038C171.623 272.038 169.809 273.853 169.809 276.091C169.809 278.33 171.623 280.145 173.865 280.145Z" fill="white"/>
<path d="M173.865 280.723C171.33 280.723 169.266 278.661 169.266 276.127C169.266 273.594 171.33 271.531 173.865 271.531C176.4 271.531 178.464 273.594 178.464 276.127C178.464 278.661 176.436 280.723 173.865 280.723ZM173.865 272.581C171.909 272.581 170.352 274.173 170.352 276.091C170.352 278.009 171.945 279.602 173.865 279.602C175.784 279.602 177.378 278.009 177.378 276.091C177.378 274.173 175.82 272.581 173.865 272.581Z" fill="black"/>
<path d="M140.439 272.543C158.34 272.543 172.851 258.042 172.851 240.153C172.851 222.265 158.34 207.764 140.439 207.764C122.538 207.764 108.027 222.265 108.027 240.153C108.027 258.042 122.538 272.543 140.439 272.543Z" fill="#3FD1FF"/>
<path d="M140.439 273.086C122.26 273.086 107.484 258.321 107.484 240.153C107.484 221.986 122.26 207.221 140.439 207.221C158.619 207.221 173.394 221.986 173.394 240.153C173.394 258.321 158.583 273.086 140.439 273.086ZM140.439 208.306C122.875 208.306 108.571 222.601 108.571 240.153C108.571 257.705 122.875 272 140.439 272C158.003 272 172.308 257.705 172.308 240.153C172.308 222.601 158.003 208.306 140.439 208.306Z" fill="black"/>
<path d="M127.8 269.72L123.382 280.541C122.15 283.545 123.925 286.911 127.112 287.598C129.502 288.105 131.892 286.911 132.906 284.703L142.032 264.943" fill="#3FD1FF"/>
<path d="M128.234 288.25C127.836 288.25 127.438 288.214 127.003 288.105C125.337 287.743 123.925 286.694 123.128 285.174C122.332 283.654 122.259 281.916 122.875 280.324L127.293 269.54C127.402 269.25 127.727 269.141 128.017 269.25C128.307 269.359 128.416 269.684 128.307 269.974L123.889 280.758C123.382 282.025 123.454 283.473 124.07 284.703C124.685 285.934 125.844 286.802 127.22 287.092C129.357 287.562 131.494 286.476 132.435 284.486L141.561 264.726C141.67 264.437 141.996 264.328 142.286 264.473C142.575 264.582 142.684 264.907 142.539 265.197L133.413 284.956C132.472 286.983 130.444 288.25 128.234 288.25Z" fill="black"/>
<path d="M170.39 235.848C172.491 236.282 174.265 236.716 176.366 237.15C179.697 237.838 182.413 240.371 183.138 243.737C183.536 245.619 183.319 247.646 182.413 249.491L181.363 251.554C179.408 255.426 174.917 257.272 170.825 255.897C169.557 255.463 168.326 255.064 167.059 254.63L169.123 244.859" fill="#3FD1FF"/>
<path d="M173.574 256.837C172.596 256.837 171.618 256.693 170.677 256.367L166.911 255.1C166.657 255.028 166.512 254.738 166.548 254.485L168.613 244.714C168.685 244.424 168.975 244.243 169.265 244.279C169.554 244.352 169.735 244.641 169.699 244.931L167.744 254.232L171.039 255.354C174.841 256.62 179.115 254.883 180.925 251.3L181.976 249.237C182.845 247.537 183.062 245.691 182.664 243.845C182.012 240.769 179.513 238.381 176.29 237.693C175.24 237.476 174.262 237.259 173.284 237.042C172.306 236.824 171.365 236.607 170.278 236.39C169.989 236.318 169.808 236.028 169.844 235.739C169.916 235.449 170.206 235.268 170.496 235.304C171.546 235.522 172.524 235.739 173.502 235.956C174.479 236.173 175.421 236.39 176.507 236.607C180.129 237.367 182.953 240.118 183.714 243.592C184.148 245.691 183.895 247.79 182.917 249.708L181.867 251.771C180.237 254.955 176.978 256.837 173.574 256.837Z" fill="black"/>
<path d="M110.236 230.527C108.099 230.564 106.252 230.6 104.116 230.636C100.712 230.672 97.5247 232.626 96.1848 235.739C95.4243 237.512 95.207 239.502 95.7865 241.529L96.4021 243.773C97.561 247.935 101.581 250.613 105.89 250.07C107.194 249.889 108.534 249.744 109.838 249.563L109.729 239.575" fill="#3FD1FF"/>
<path d="M104.803 250.685C100.71 250.685 96.9804 247.934 95.8578 243.917L95.2422 241.674C94.6628 239.611 94.8076 237.476 95.6767 235.521C97.0891 232.264 100.421 230.129 104.115 230.093C105.201 230.093 106.179 230.057 107.157 230.057C108.171 230.02 109.148 230.021 110.235 230.021C110.525 230.021 110.778 230.274 110.778 230.563C110.778 230.853 110.525 231.106 110.235 231.106C109.148 231.106 108.171 231.142 107.157 231.142C106.179 231.179 105.165 231.179 104.115 231.179C100.855 231.215 97.922 233.097 96.6545 235.956C95.894 237.693 95.7854 239.538 96.2924 241.384L96.908 243.628C97.9945 247.5 101.797 250.033 105.78 249.563L109.257 249.129L109.148 239.611C109.148 239.321 109.402 239.068 109.692 239.068C109.981 239.068 110.235 239.321 110.235 239.611L110.343 249.599C110.343 249.889 110.126 250.106 109.873 250.142L105.925 250.649C105.563 250.649 105.165 250.685 104.803 250.685Z" fill="black"/>
<path d="M10.6118 191.044L29.9864 239.502C31.9781 244.497 32.9197 234.87 37.7724 232.554L39.3658 231.794C43.9288 229.623 45.9206 224.194 43.8201 219.598L27.7049 183.77C24.9888 177.763 17.0579 176.387 12.4949 181.201C9.99617 183.842 9.27189 187.679 10.6118 191.044Z" fill="#3FD1FF"/>
<path d="M31.1091 241.457C31.0729 241.457 31.0729 241.457 31.0366 241.457C30.2399 241.421 29.8054 240.48 29.4794 239.684L10.1049 191.226C8.69256 187.679 9.48927 183.59 12.0967 180.839C14.342 178.451 17.6374 177.365 20.8605 177.908C24.0835 178.451 26.8358 180.586 28.1757 183.553L44.291 219.381C46.4638 224.231 44.3272 229.985 39.547 232.265L37.9535 233.025C35.8169 234.038 34.4408 236.68 33.4268 238.634C32.5938 240.335 32.0144 241.457 31.1091 241.457ZM11.1189 190.828L30.4934 239.286C30.8194 240.118 31.0366 240.299 31.1091 240.371C31.435 240.226 32.0506 239.032 32.5214 238.127C33.6078 236.065 35.0926 233.206 37.5552 232.048L39.1486 231.288C43.4219 229.261 45.305 224.122 43.3494 219.815L27.2342 183.988C26.0391 181.31 23.6128 179.464 20.7156 178.957C17.8547 178.451 14.9214 179.428 12.8934 181.563C10.5395 184.06 9.8514 187.679 11.1189 190.828Z" fill="black"/>
<path d="M3.11566 233.966L30.3124 262.411C34.0425 266.283 40.2351 266.211 43.8927 262.266L45.0877 260.963C48.4919 257.236 48.3108 251.482 44.6532 247.971L16.2614 220.793C11.4811 216.233 3.62266 217.97 1.19632 224.086C-0.143602 227.524 0.616888 231.36 3.11566 233.966Z" fill="#3FD1FF"/>
<path d="M37.0122 265.849C34.2962 265.849 31.7974 264.763 29.9143 262.809L2.71753 234.364C0.0739081 231.613 -0.722792 227.524 0.689556 223.977C1.88462 220.938 4.52823 218.694 7.71507 217.97C10.9019 217.246 14.2336 218.187 16.6237 220.467L45.0155 247.646C48.8542 251.301 49.0353 257.489 45.4501 261.398L44.255 262.7C42.4081 264.727 39.8731 265.849 37.1209 265.885C37.0847 265.849 37.0484 265.849 37.0122 265.849ZM9.81548 218.838C9.19984 218.838 8.548 218.911 7.93236 219.056C5.07145 219.671 2.75374 221.661 1.66732 224.376C0.43604 227.524 1.12411 231.179 3.47802 233.604L30.6748 262.049C32.3768 263.822 34.6583 264.799 37.0847 264.763C39.5472 264.727 41.7925 263.714 43.4583 261.94L44.6534 260.638C47.8402 257.163 47.6592 251.699 44.255 248.406L15.8632 221.227C14.2336 219.671 12.0607 218.838 9.81548 218.838Z" fill="black"/>
<path d="M9.74448 175.88L29.119 224.338C31.1108 229.332 32.0523 219.706 36.905 217.39L38.4984 216.63C43.0614 214.458 45.0532 209.03 42.9528 204.434L26.8375 168.606C24.1215 162.599 16.1906 161.223 11.6276 166.037C9.16506 168.678 8.40456 172.515 9.74448 175.88Z" fill="#3FD1FF"/>
<path d="M30.2379 226.293C30.2017 226.293 30.2017 226.293 30.1655 226.293C29.3688 226.257 28.9342 225.316 28.6083 224.52L9.23381 176.062C7.82146 172.515 8.61817 168.425 11.2256 165.675C13.4709 163.287 16.7663 162.201 19.9894 162.744C23.2124 163.287 25.9647 165.422 27.3046 168.389L43.4198 204.217C45.5927 209.067 43.4561 214.821 38.6758 217.101L37.0824 217.861C34.9458 218.874 33.5696 221.516 32.5556 223.47C31.7589 225.171 31.1433 226.293 30.2379 226.293ZM10.2478 175.663L29.6223 224.122C29.9482 224.954 30.1655 225.135 30.2379 225.207C30.5639 225.062 31.1795 223.868 31.6503 222.963C32.7367 220.901 34.2215 218.042 36.684 216.884L38.2774 216.124C42.5507 214.097 44.4338 208.958 42.4783 204.651L26.363 168.824C25.168 166.146 22.7416 164.3 19.8445 163.793C16.9836 163.323 14.0503 164.264 12.0223 166.399C9.70458 168.896 8.98031 172.515 10.2478 175.663Z" fill="black"/>
<path d="M36.2896 273.882C33.6098 268.599 30.6764 261.252 29.1916 252.168C26.2945 234.255 30.7489 219.706 33.5736 212.468L21.6954 179.21C20.4641 175.808 21.3332 172.008 23.9406 169.439C28.6484 164.806 36.5431 166.435 39.0419 172.551L46.2485 190.175C48.1316 194.808 52.4411 205.411 54.3242 210.08C58.0542 219.308 62.8345 231.034 66.5645 240.262L73.6263 259.479C77.2115 269.286 72.5398 280.179 62.9431 284.305C62.8345 284.341 62.7259 284.413 62.6172 284.45C53.6723 288.322 43.2427 285.029 38.1003 276.741L36.2896 273.882Z" fill="#3FD1FF"/>
<path d="M54.7919 286.622C52.7639 286.622 50.6997 286.296 48.7442 285.681C44.1088 284.233 40.1615 281.157 37.6265 277.031L35.852 274.172C35.852 274.172 35.852 274.136 35.8158 274.136C32.303 267.188 29.9129 259.841 28.6816 252.278C26.0018 235.667 29.5507 221.48 33.0273 212.469L21.1853 179.428C19.8816 175.845 20.8232 171.792 23.5392 169.114C25.8931 166.797 29.1886 165.82 32.4116 166.508C35.6347 167.159 38.2783 169.367 39.5458 172.407L46.7524 190.031C48.6355 194.7 52.945 205.267 54.8282 209.936C58.5582 219.164 63.3385 230.889 67.0685 240.118L74.1302 259.335C77.8241 269.395 73.0076 280.614 63.1574 284.848L62.8315 284.993C60.2603 286.043 57.5442 286.622 54.7919 286.622ZM36.7573 273.63L38.5318 276.489C43.4932 284.486 53.7417 287.707 62.3607 283.98L62.6866 283.835C71.9936 279.818 76.5566 269.214 73.08 259.697L66.0183 240.48C62.2882 231.288 57.508 219.526 53.7779 210.298C51.8948 205.665 47.5853 195.062 45.7022 190.393L38.4956 172.769C37.373 170.055 35.0191 168.1 32.1581 167.521C29.2972 166.942 26.3639 167.811 24.2635 169.837C21.8371 172.226 21.0042 175.809 22.1631 179.03L34.0775 212.252C34.1137 212.36 34.1137 212.505 34.0775 212.614C30.6009 221.516 27.052 235.558 29.6956 252.06C30.9631 259.552 33.317 266.79 36.7573 273.63Z" fill="black"/>
<path d="M278.242 140.544H184.086V198.086H278.242V140.544Z" fill="#F15922"/>
<path d="M278.243 198.629H184.086C183.796 198.629 183.543 198.376 183.543 198.086V140.545C183.543 140.255 183.796 140.002 184.086 140.002H278.243C278.532 140.002 278.786 140.255 278.786 140.545V198.086C278.786 198.376 278.532 198.629 278.243 198.629ZM184.629 197.544H277.699V141.088H184.629V197.544Z" fill="black"/>
<path d="M231.162 169.677C231.053 169.677 230.981 169.641 230.872 169.605L183.794 141.015C183.54 140.87 183.468 140.508 183.613 140.255C183.758 140.001 184.12 139.929 184.373 140.074L231.162 168.483L277.95 140.074C278.204 139.929 278.53 140.001 278.711 140.255C278.856 140.508 278.783 140.834 278.53 141.015L231.452 169.605C231.343 169.641 231.234 169.677 231.162 169.677Z" fill="black"/>
<path d="M278.24 198.629C278.131 198.629 278.059 198.592 277.95 198.556L231.162 169.785L184.373 198.556C184.12 198.701 183.794 198.629 183.613 198.375C183.468 198.122 183.54 197.796 183.794 197.615L230.872 168.663C231.053 168.555 231.271 168.555 231.452 168.663L278.53 197.615C278.783 197.76 278.856 198.122 278.711 198.375C278.602 198.52 278.421 198.629 278.24 198.629Z" fill="black"/>
<path d="M148.152 258.503C147.355 258.503 146.703 259.154 146.703 259.951C146.703 260.747 147.355 261.398 148.152 261.398C148.948 261.398 149.6 260.747 149.6 259.951C149.6 259.154 148.948 258.503 148.152 258.503Z" fill="black"/>
<path d="M126.425 256.693C125.628 256.693 124.977 257.345 124.977 258.141C124.977 258.937 125.628 259.589 126.425 259.589C127.222 259.589 127.874 258.937 127.874 258.141C127.874 257.345 127.222 256.693 126.425 256.693Z" fill="black"/>
<path d="M243.036 309.06L224.712 235.305C224.639 235.052 224.422 234.907 224.168 234.907C223.915 234.907 223.698 235.088 223.625 235.342L220.837 246.995C220.764 247.284 220.945 247.574 221.235 247.646C221.525 247.718 221.814 247.537 221.887 247.248L224.132 237.766L241.732 308.662L200.303 308.915L199.724 284.234C199.724 283.944 199.47 283.691 199.181 283.691C198.891 283.691 198.637 283.944 198.637 284.234L198.71 286.876C197.406 291.074 195.197 296.502 191.25 302.075C189.113 305.115 186.868 307.612 184.84 309.603C189.656 309.35 194.437 309.132 199.253 308.879V309.422C199.253 309.711 199.507 309.965 199.796 309.965L242.456 309.711C242.637 309.711 242.782 309.639 242.891 309.494C243.036 309.386 243.072 309.205 243.036 309.06Z" fill="black"/>
<path d="M157.279 221.589C153.513 221.734 149.747 222.711 146.379 224.412C144.097 225.57 142.033 227.018 140.186 228.791C139.426 220.287 144.966 212.144 145.039 212.035C145.22 211.782 145.147 211.456 144.894 211.275C144.64 211.094 144.314 211.167 144.133 211.42C143.88 211.782 138.375 219.852 139.063 228.646C137.18 226.185 134.899 224.014 132.291 222.349C129.575 220.612 126.57 219.382 123.346 218.73C123.057 218.658 122.767 218.875 122.695 219.165C122.622 219.454 122.84 219.744 123.129 219.816C126.207 220.431 129.068 221.626 131.712 223.29C134.5 225.064 136.927 227.452 138.81 230.166C138.774 230.203 138.737 230.239 138.701 230.275C138.665 230.311 138.665 230.311 138.665 230.347C138.556 230.311 138.448 230.311 138.339 230.275C138.23 230.239 138.086 230.275 138.013 230.347C134.754 230.383 131.458 230.999 128.453 232.229C125.447 233.423 122.695 235.161 120.305 237.404C120.087 237.621 120.087 237.947 120.268 238.164C120.377 238.273 120.522 238.345 120.667 238.345C120.812 238.345 120.92 238.309 121.029 238.2C123.31 236.065 125.954 234.401 128.815 233.242C131.857 232.012 135.225 231.397 138.52 231.433C138.701 231.469 138.882 231.505 139.063 231.542L136.782 246.054C136.746 246.343 136.927 246.633 137.216 246.669C137.253 246.669 137.289 246.669 137.289 246.669C137.542 246.669 137.796 246.488 137.832 246.198L140.114 231.759C142.468 232.338 144.713 233.242 146.813 234.473C149.928 236.282 152.644 238.816 154.744 241.783C154.853 241.928 155.034 242 155.179 242C155.287 242 155.396 241.964 155.505 241.892C155.758 241.711 155.794 241.385 155.649 241.132C153.477 238.02 150.616 235.414 147.393 233.496C145.184 232.193 142.83 231.252 140.367 230.673C140.403 230.601 140.403 230.492 140.367 230.42C140.331 230.311 140.331 230.203 140.331 230.094C142.25 228.176 144.423 226.584 146.849 225.353C150.072 223.725 153.658 222.784 157.279 222.675C157.569 222.675 157.822 222.422 157.786 222.096C157.822 221.807 157.569 221.589 157.279 221.589Z" fill="black"/>
</svg>
