<svg width="705" height="515" viewBox="0 0 705 515" fill="none" xmlns="http://www.w3.org/2000/svg">
<g clip-path="url(#clip0)">
<path d="M343.705 244.64C341.633 243.603 339.86 260.359 332 265.042C327.764 267.567 335.546 270.142 335.702 270.609L341.472 263.437C341.472 263.435 345.889 245.731 343.705 244.64Z" fill="white"/>
<path d="M344.041 243.967C343.735 243.814 343.393 243.802 343.076 243.931C342.125 244.323 341.562 245.881 340.383 249.367C338.727 254.258 336.225 261.65 331.617 264.396C330.507 265.056 329.96 265.836 329.991 266.711C330.055 268.515 332.629 269.813 334.332 270.67C334.627 270.819 334.988 271 335.127 271.089C335.269 271.259 335.48 271.359 335.703 271.359C335.782 271.359 335.863 271.347 335.941 271.32C336.335 271.189 336.547 270.764 336.417 270.37C336.285 269.972 335.963 269.81 335.008 269.329C334.056 268.849 331.525 267.573 331.492 266.657C331.483 266.381 331.8 266.036 332.386 265.686C337.47 262.657 340.08 254.95 341.806 249.848C342.351 248.238 343.01 246.291 343.463 245.565C344.041 247.463 342.575 255.917 340.744 263.254C340.644 263.657 340.888 264.064 341.291 264.164C341.694 264.264 342.101 264.019 342.201 263.618C342.212 263.574 343.321 259.116 344.148 254.583C345.697 246.074 345.013 244.453 344.041 243.967ZM334.991 270.847V270.845V270.847Z" fill="#272727"/>
<path d="M292.415 79.5865C292.416 79.5615 292.415 79.5365 292.416 79.5115C291.92 81.6749 291.607 83.0433 291.607 83.0433C291.874 81.8983 292.145 80.7455 292.415 79.5865Z" fill="#272727"/>
<path d="M289.107 66.6183C288.424 69.9048 292.773 73.8193 292.416 79.513C293.599 74.366 295.837 64.6829 297.482 57.9661C291.817 58.3331 289.702 63.7519 289.107 66.6183Z" fill="#272727"/>
<path d="M300.935 8.67716C300.12 12.6026 306.49 17.4215 303.438 25.1021C300.976 31.2972 294.244 33.4013 288.605 30.7036C271.272 22.4123 247.782 12.7619 224.393 13.3368C223.49 17.2841 217.186 51.4633 212.564 71.2779C235.953 70.703 259.443 80.3534 276.776 88.6447C282.417 91.3424 289.147 89.2383 291.609 83.0432C294.661 75.3626 288.293 70.5437 289.107 66.6183C289.83 63.1302 292.799 55.8589 301.682 58.5112L313.511 0.570121C304.628 -2.08224 301.659 5.1891 300.935 8.67716Z" fill="#FF5050"/>
<path d="M344.041 34.1026C337.5 24.1118 330.163 5.54056 313.511 0.570121C304.628 -2.08224 301.66 5.1891 300.935 8.67716C300.153 12.4511 291.639 55.5683 289.21 65.3796C290.283 61.6838 293.479 55.9635 301.512 58.3629C318.164 63.3349 323.372 81.0344 329.913 91.0253C333.238 96.1035 336.881 99.0746 339.655 100.11C344.71 101.997 353.924 101.847 358.978 98.7637C360.123 98.0655 364.329 43.9139 364.329 43.9139C356.749 50.826 350.486 43.9467 344.041 34.1026Z" fill="#FF5050"/>
<path d="M301.109 7.83829C300.643 7.73988 300.192 8.03979 300.097 8.50216C299.891 9.49875 299.188 13.2289 298.218 18.3899C295.572 32.4593 290.645 58.6471 288.858 65.8638C288.744 66.323 289.024 66.7869 289.483 66.8994C289.552 66.9166 289.621 66.9244 289.689 66.9244C290.074 66.9244 290.423 66.6635 290.519 66.2746C292.316 59.0095 297.249 32.7905 299.898 18.7055C300.867 13.5523 301.568 9.8299 301.771 8.84893C301.87 8.38813 301.571 7.93513 301.109 7.83829Z" fill="#272727"/>
<path d="M574.891 450.907L533.405 379.347C531.484 376.032 527.949 373.983 524.118 373.959L475.301 373.678C473.566 373.669 471.86 373.241 470.325 372.432L422.972 347.476C422.591 347.275 422.223 347.051 421.866 346.806L353.216 299.376C348.457 296.088 341.951 297.131 338.459 301.743L284.76 372.641C284.074 373.547 283.249 374.339 282.317 374.987L245.4 402.318C238.015 407.786 232.289 415.193 228.855 423.717L216.891 453.422C215.669 456.454 213.143 458.769 210.018 459.722C195.368 464.19 150.638 474.79 126.804 481.856C116.701 484.852 107.367 492.674 99.4382 499.617L81.8692 515H646.167L577.059 453.563C576.2 452.799 575.468 451.902 574.891 450.907Z" fill="url(#paint0_linear)"/>
<path d="M416.595 361.674C412.977 358.662 408.39 357.039 403.684 357.021L344.122 357.16C343.696 357.161 343.349 357.508 343.351 357.934C343.352 358.361 343.698 358.706 344.124 358.706H344.126L403.687 358.567C403.701 358.567 403.715 358.567 403.729 358.567C408.06 358.567 412.276 360.091 415.604 362.864L433.014 377.358C433.158 377.479 433.334 377.536 433.508 377.536C433.73 377.536 433.95 377.441 434.103 377.258C434.376 376.93 434.331 376.443 434.003 376.17L416.595 361.674Z" fill="white"/>
<path d="M264.988 418.022C264.617 417.812 264.145 417.944 263.936 418.315L252.347 438.867C249.044 444.727 243.433 449.116 236.96 450.909L113.462 483.559C113.049 483.668 112.802 484.092 112.912 484.504C113.004 484.851 113.316 485.081 113.658 485.081C113.724 485.081 113.79 485.073 113.857 485.054L237.365 452.402C244.239 450.498 250.192 445.842 253.695 439.626L265.284 419.075C265.493 418.704 265.36 418.231 264.988 418.022Z" fill="white"/>
<path d="M560.735 440.298C560.707 440.275 560.677 440.254 560.647 440.237C557.339 438.213 553.54 437.143 549.662 437.143H529.853C524.118 437.143 518.727 434.909 514.672 430.854L502.856 419.037C497.517 413.698 489.062 413.25 483.189 417.994L463.791 433.661C463.459 433.93 463.407 434.415 463.676 434.748C463.944 435.081 464.432 435.132 464.763 434.864L484.161 419.196C489.419 414.951 496.985 415.352 501.763 420.13L513.579 431.947C517.926 436.295 523.705 438.689 529.853 438.689H549.662C553.237 438.689 556.741 439.672 559.796 441.527L624.905 494.987C625.049 495.104 625.222 495.162 625.396 495.162C625.619 495.162 625.841 495.065 625.994 494.879C626.266 494.55 626.217 494.061 625.886 493.79L560.735 440.298Z" fill="white"/>
<path d="M371.365 344.443C366.635 348.226 354.577 351.122 351.807 351.875C346.82 353.231 348.801 356.674 348.801 356.674H397.681L398.571 331.768L382.503 331.509C382.503 331.507 378.587 338.663 371.365 344.443Z" fill="white"/>
<path d="M398.598 331.017C398.167 330.998 397.835 331.326 397.82 331.74L396.956 355.922H349.296C349.175 355.555 349.068 354.971 349.304 354.398C349.628 353.612 350.562 352.99 352.004 352.598C352.263 352.528 352.604 352.439 353.012 352.331C356.954 351.299 367.424 348.556 371.833 345.029C379.09 339.221 382.998 332.167 383.161 331.868C383.359 331.504 383.226 331.048 382.862 330.848C382.5 330.65 382.042 330.784 381.842 331.147C381.805 331.217 377.919 338.234 370.895 343.856C366.735 347.184 356.489 349.868 352.631 350.879C352.217 350.988 351.871 351.077 351.609 351.149C349.674 351.675 348.43 352.576 347.915 353.825C347.245 355.444 348.11 356.983 348.148 357.047C348.282 357.28 348.53 357.424 348.799 357.424H397.681C398.085 357.424 398.417 357.103 398.432 356.699L399.321 331.793C399.337 331.379 399.012 331.033 398.598 331.017Z" fill="#272727"/>
<path d="M366.818 345.672C366.427 345.532 365.998 345.732 365.856 346.122C365.714 346.513 365.915 346.944 366.306 347.084C368.142 347.753 370.468 349.212 371.521 350.967C371.662 351.202 371.91 351.333 372.166 351.333C372.297 351.333 372.432 351.299 372.552 351.225C372.908 351.013 373.024 350.55 372.81 350.194C371.482 347.981 368.753 346.375 366.818 345.672Z" fill="#272727"/>
<path d="M370.74 343.663C370.35 343.523 369.92 343.723 369.778 344.113C369.636 344.504 369.837 344.935 370.228 345.075C372.066 345.742 374.39 347.203 375.443 348.957C375.584 349.191 375.832 349.323 376.088 349.323C376.219 349.323 376.352 349.288 376.474 349.215C376.83 349.002 376.946 348.54 376.732 348.184C375.404 345.972 372.674 344.366 370.74 343.663Z" fill="#272727"/>
<path d="M398.118 349.858C394.897 348.929 391.55 349.313 388.935 350.913C386.83 352.201 385.382 354.167 384.968 356.305C384.888 356.713 385.155 357.106 385.562 357.186C385.61 357.195 385.658 357.2 385.705 357.2C386.058 357.2 386.372 356.95 386.441 356.592C386.777 354.868 387.972 353.265 389.72 352.195C391.977 350.816 394.885 350.491 397.703 351.302C398.101 351.417 398.517 351.186 398.632 350.788C398.746 350.39 398.517 349.972 398.118 349.858Z" fill="#272727"/>
<path d="M375.465 257.042C373.594 269.205 361.899 341.716 361.899 341.716H403.532C403.532 341.716 408.677 272.948 408.677 268.27C408.677 263.591 443.294 213.068 443.294 213.068L454.988 184.531L425.985 183.595C425.987 183.595 377.336 244.879 375.465 257.042Z" fill="#272727"/>
<path d="M455.013 183.78L426.01 182.844C425.759 182.836 425.545 182.941 425.398 183.128C423.407 185.637 376.602 244.708 374.723 256.928C372.874 268.949 361.274 340.872 361.157 341.597C361.123 341.814 361.184 342.036 361.328 342.203C361.47 342.37 361.679 342.467 361.899 342.467H403.532C403.926 342.467 404.252 342.164 404.28 341.772C404.491 338.963 409.429 272.921 409.429 268.27C409.429 265.008 430.051 233.725 443.914 213.492C443.943 213.448 443.968 213.401 443.989 213.353L455.683 184.815C455.777 184.587 455.752 184.328 455.619 184.122C455.486 183.916 455.26 183.788 455.013 183.78ZM442.63 212.709C438.864 218.207 407.927 263.516 407.927 268.27C407.927 272.615 403.376 333.721 402.835 340.966H362.782C364.116 332.696 374.468 268.462 376.208 257.157C377.963 245.756 422.677 188.994 426.342 184.359L453.885 185.248L442.63 212.709Z" fill="#272727"/>
<path d="M431.162 118.695L431.996 118.497C423.635 114.929 413.154 126.809 407.918 132.226C402.681 137.643 387.567 153.062 382.338 158.292C377.478 163.151 383.712 172.566 389.182 171.049C398.017 168.598 422.533 146.552 427.647 140.922C434.595 133.274 433.035 119.911 431.162 118.695Z" fill="#3092F7"/>
<path d="M518.535 368.862C515.764 368.109 508.089 365.215 503.359 361.43C496.135 355.651 492.221 348.496 492.221 348.496L471.771 348.756L472.662 373.661H521.542C521.542 373.663 523.523 370.218 518.535 368.862Z" fill="white"/>
<path d="M518.734 368.138C515.988 367.391 508.421 364.518 503.831 360.844C496.818 355.234 492.92 348.206 492.881 348.136C492.681 347.772 492.225 347.639 491.861 347.837C491.497 348.037 491.365 348.493 491.563 348.856C491.725 349.154 495.634 356.21 502.892 362.016C507.712 365.873 515.382 368.781 518.34 369.586C519.796 369.981 520.703 370.582 521.036 371.374C521.278 371.949 521.169 372.539 521.048 372.91H473.386L472.523 348.729C472.508 348.315 472.174 347.981 471.745 348.006C471.331 348.02 471.006 348.368 471.022 348.784L471.912 373.689C471.926 374.094 472.259 374.414 472.663 374.414H521.544C521.812 374.414 522.061 374.27 522.195 374.038C522.232 373.973 523.098 372.435 522.429 370.815C521.912 369.564 520.669 368.664 518.734 368.138Z" fill="#272727"/>
<path d="M506.886 362.847C504.952 363.55 502.223 365.157 500.896 367.369C500.682 367.725 500.797 368.186 501.153 368.4C501.274 368.472 501.408 368.508 501.539 368.508C501.794 368.508 502.044 368.378 502.184 368.142C503.237 366.388 505.563 364.928 507.4 364.259C507.79 364.117 507.99 363.686 507.85 363.297C507.706 362.906 507.276 362.706 506.886 362.847Z" fill="#272727"/>
<path d="M502.964 360.84C501.03 361.543 498.3 363.15 496.974 365.362C496.76 365.718 496.875 366.179 497.231 366.393C497.352 366.465 497.486 366.501 497.617 366.501C497.873 366.501 498.122 366.371 498.262 366.135C499.315 364.381 501.641 362.92 503.478 362.252C503.868 362.11 504.068 361.679 503.927 361.29C503.784 360.899 503.354 360.699 502.964 360.84Z" fill="#272727"/>
<path d="M457.142 96.5065L454.905 98.484C454.905 98.484 451.742 136.303 476.476 128.25C483.666 125.909 485.172 116.21 481.994 109.689C477.187 99.8196 457.142 96.5065 457.142 96.5065Z" fill="#272727"/>
<path d="M443.139 73.0961C439.111 74.0255 437.316 80.0097 437.316 80.0097L451.8 77.1433C451.8 77.1449 449.857 71.5465 443.139 73.0961Z" fill="#272727"/>
<path d="M457.559 95.4114C457.985 93.0965 440.743 96.7829 441.008 101.015C441.43 107.738 440.31 118.906 438.087 125.826L460.221 126.403C456.516 118.463 456.461 101.388 457.559 95.4114Z" fill="white"/>
<path d="M458.298 95.5474C458.382 95.0881 458.206 94.6633 457.812 94.3821C455.992 93.0715 447.405 95.035 443.384 97.2563C441.227 98.4481 440.176 99.729 440.259 101.063C440.651 107.319 439.659 118.478 437.371 125.598C437.244 125.993 437.461 126.417 437.856 126.543C438.251 126.67 438.675 126.453 438.801 126.057C441.141 118.77 442.158 107.361 441.758 100.969C441.717 100.329 442.503 99.4947 443.912 98.684C448.045 96.305 455.297 95.0397 456.775 95.5286C455.664 102.031 455.863 118.847 459.538 126.721C459.665 126.995 459.936 127.155 460.219 127.155C460.325 127.155 460.433 127.132 460.536 127.085C460.913 126.91 461.075 126.463 460.899 126.087C457.301 118.372 457.169 101.696 458.298 95.5474Z" fill="#272727"/>
<path d="M453.062 76.9465C447.822 73.1336 441.672 75.661 436.402 80.4174C431.765 84.6022 429.898 90.5067 431.17 95.3116C433.224 103.072 440.331 108.298 449.157 104.378L457.548 93.6371C459.722 88.2167 459.744 81.8092 453.062 76.9465Z" fill="white"/>
<path d="M453.503 76.3389C448.609 72.779 442.356 74.0286 435.898 79.8597C431.193 84.107 429.051 90.2474 430.443 95.5037C431.627 99.9758 434.389 103.539 438.019 105.279C439.67 106.071 441.438 106.466 443.276 106.466C445.276 106.466 447.358 105.997 449.462 105.063C449.841 104.895 450.012 104.451 449.843 104.071C449.674 103.692 449.231 103.522 448.851 103.69C445.229 105.299 441.707 105.38 438.665 103.925C435.434 102.375 432.964 99.1667 431.894 95.1194C430.645 90.402 432.611 84.8489 436.903 80.975C441.061 77.223 447.161 73.585 452.618 77.5542C459.38 82.4746 458.652 88.8634 456.85 93.3558C456.695 93.7417 456.883 94.179 457.267 94.3337C457.654 94.4883 458.09 94.3009 458.245 93.9166C461.073 86.864 459.39 80.622 453.503 76.3389Z" fill="#272727"/>
<path d="M459.652 187.232C459.652 187.232 431.118 171.449 434.051 189.778C436.983 208.107 443.281 240.821 447.37 263.385C450.782 282.215 463.416 358.119 463.416 358.119H508.615C508.615 358.119 490.845 289.685 487.107 273.951C478.732 238.703 459.652 187.232 459.652 187.232Z" fill="#272727"/>
<path d="M487.836 273.776C479.547 238.889 460.547 187.485 460.355 186.97C460.292 186.801 460.172 186.66 460.014 186.573C459.291 186.173 442.239 176.837 435.649 181.46C433.447 183.007 432.658 185.845 433.306 189.895C435.307 202.399 438.828 221.35 442.231 239.678C443.801 248.125 445.326 256.335 446.627 263.516C449.999 282.126 462.545 357.48 462.671 358.239C462.732 358.601 463.045 358.867 463.412 358.867H508.61C508.843 358.867 509.062 358.759 509.204 358.575C509.346 358.39 509.395 358.151 509.337 357.926C509.165 357.244 491.53 289.321 487.836 273.776ZM464.052 357.366C462.827 350.019 451.317 280.961 448.109 263.249C446.808 256.065 445.282 247.854 443.712 239.403C440.309 221.085 436.791 202.143 434.793 189.658C434.243 186.223 434.823 183.878 436.514 182.69C438.87 181.035 443.517 181.385 449.951 183.7C454.269 185.254 458.068 187.234 459.046 187.757C460.534 191.799 478.414 240.62 486.376 274.124C489.834 288.681 505.493 349.074 507.645 357.367H464.052V357.366Z" fill="#272727"/>
<path d="M443.731 239.389C442.109 230.658 440.44 221.677 438.923 213.315C438.604 211.561 436.494 211.144 434.631 210.775C433.383 210.528 431.829 210.221 431.718 209.6C431.643 209.18 431.248 208.905 430.82 208.976C430.399 209.051 430.12 209.452 430.195 209.874C430.492 211.534 432.442 211.92 434.331 212.293C435.71 212.567 437.272 212.875 437.402 213.592C438.92 221.956 440.588 230.941 442.211 239.673C443.781 248.124 445.307 256.339 446.609 263.524C449.982 282.134 462.527 357.488 462.654 358.247C462.716 358.625 463.045 358.893 463.416 358.893C463.458 358.893 463.501 358.89 463.544 358.882C463.966 358.812 464.25 358.414 464.18 357.992C464.054 357.233 451.506 281.869 448.132 263.248C446.828 256.059 445.302 247.843 443.731 239.389Z" fill="#F3B727"/>
<path d="M467.409 120.095C463.882 118.374 453.898 117.188 441.692 116.908C431.729 116.68 427.646 117.472 423.285 119.241C419.655 120.712 424.786 127.337 419.623 139.788C416.781 146.644 419.791 152.664 416.781 164.035C411.642 183.447 402.232 200.658 402.232 200.658C402.232 200.658 420.39 200.5 433.864 201.247C443.785 201.797 465.945 202.742 465.945 202.742C465.945 202.742 466.068 161.73 467.112 149.599C468.896 128.864 470.936 121.818 467.409 120.095Z" fill="#3092F7"/>
<path d="M487.143 133.486C481.268 127.06 471.798 121.123 467.409 120.095L459.658 120.282C455.574 119.072 458.207 134.638 462.187 137.402C465.833 139.936 485.075 153.02 490.265 162.608C493.081 167.811 501.335 166.742 504.568 163.2C511.661 155.435 490.448 137.101 487.143 133.486Z" fill="#3092F7"/>
<path d="M477.774 168.75C470.491 175.66 462.386 187.063 460.539 192.21C459.174 196.018 462.545 202.732 463.687 203.36C465.589 204.405 467.31 198.596 468.177 196.668C472.781 186.435 504.79 172.717 505.46 160.749L497.374 158.789C490.061 158.912 483.514 163.303 477.774 168.75Z" fill="white"/>
<path d="M505.502 159.998C505.096 159.966 504.734 160.291 504.71 160.705C504.354 167.071 493.872 174.497 484.622 181.046C476.891 186.521 469.591 191.692 467.493 196.359C467.328 196.728 467.131 197.235 466.909 197.809C466.334 199.294 465.138 202.384 464.221 202.718C464.163 202.74 464.124 202.743 464.054 202.704C463.16 202.14 460.039 195.833 461.247 192.463C463.006 187.558 470.834 176.371 478.291 169.295C485.103 162.831 491.349 159.641 497.388 159.54C497.803 159.534 498.133 159.192 498.126 158.776C498.12 158.361 497.75 158.036 497.363 158.037C490.932 158.145 484.355 161.471 477.257 168.205C469.653 175.418 461.647 186.896 459.833 191.956C458.374 196.025 461.692 203.12 463.326 204.018C463.59 204.163 463.868 204.236 464.147 204.236C464.343 204.236 464.539 204.201 464.735 204.13C466.175 203.605 467.206 201.203 468.31 198.352C468.521 197.807 468.707 197.326 468.865 196.976C470.795 192.682 477.933 187.626 485.492 182.274C495.484 175.198 505.816 167.88 506.213 160.791C506.233 160.376 505.916 160.021 505.502 159.998Z" fill="#272727"/>
<path d="M471.628 208.965C470.475 208.056 465.967 204.675 464.885 202.362L460.539 192.21C457.376 197.432 460.756 203.344 462.328 205.069C463.897 206.793 472.687 213.535 473.719 212.887C474.758 212.236 472.78 209.874 471.628 208.965Z" fill="white"/>
<path d="M472.092 208.374L471.748 208.106C470.308 206.984 466.483 204.007 465.566 202.043C465.389 201.667 464.941 201.504 464.568 201.681C464.191 201.857 464.029 202.304 464.205 202.679C465.155 204.71 468.243 207.279 470.826 209.291L471.162 209.554C472.096 210.291 473.023 211.512 473.222 212.106C471.295 211.425 464.385 206.212 462.884 204.563C461.748 203.316 458.135 197.634 461.183 192.598C461.398 192.243 461.284 191.781 460.928 191.565C460.572 191.351 460.113 191.465 459.897 191.82C456.427 197.552 460.183 203.827 461.772 205.574C462.439 206.308 471.014 213.635 473.655 213.635C473.839 213.635 473.996 213.599 474.119 213.523C474.508 213.279 474.736 212.886 474.761 212.417C474.842 210.872 472.677 208.837 472.092 208.374ZM473.541 212.179H473.532H473.541Z" fill="#272727"/>
<path d="M472.24 207.014C470.331 205.617 466.539 201.77 465.439 197.565L462.151 199.768C464.102 203.67 467.732 206.6 468.694 207.408C469.657 208.215 475.553 212.818 476.181 211.895C476.923 210.805 474.339 208.549 472.24 207.014Z" fill="white"/>
<path d="M472.684 206.408C470.697 204.955 467.171 201.217 466.167 197.376C466.062 196.974 465.652 196.732 465.25 196.839C464.849 196.943 464.608 197.354 464.713 197.756C465.823 202.004 469.557 205.983 471.796 207.62C474.2 209.379 475.209 210.585 475.484 211.156C474.15 210.617 470.814 208.206 469.179 206.831L469.041 206.717C467.948 205.805 464.622 203.029 462.823 199.432C462.637 199.061 462.186 198.91 461.815 199.096C461.445 199.282 461.294 199.732 461.48 200.103C463.418 203.98 466.926 206.908 468.077 207.87L468.21 207.981C468.269 208.029 473.961 212.764 475.931 212.764C475.981 212.764 476.028 212.761 476.073 212.754C476.379 212.712 476.638 212.556 476.803 212.315C477.687 211.016 476.339 209.083 472.684 206.408Z" fill="#272727"/>
<path d="M367.046 123.194C367.046 123.194 363.168 107.338 359.117 104.687C356.687 103.097 353.53 113.138 352.97 114.959C351.475 119.815 360.112 128.594 360.112 128.594C360.112 128.594 366.999 147.742 370.011 155.085C375.734 169.04 383.998 173.197 389.181 171.048L389.521 153.418C381.316 148.376 367.046 123.194 367.046 123.194Z" fill="white"/>
<path d="M389.916 152.778C382.208 148.042 368.692 124.561 367.75 122.911C367.238 120.837 363.632 106.741 359.528 104.057C359.046 103.744 358.504 103.681 357.958 103.876C355.761 104.67 353.643 110.221 352.253 114.737C350.726 119.697 358.371 127.866 359.463 129C360.122 130.831 366.476 148.442 369.319 155.368C372.716 163.65 377.382 169.375 382.458 171.486C383.815 172.05 385.152 172.335 386.428 172.335C387.494 172.335 388.517 172.136 389.473 171.741C389.855 171.582 390.038 171.143 389.879 170.759C389.72 170.376 389.281 170.193 388.896 170.352C387.175 171.066 385.149 170.977 383.036 170.099C380.312 168.965 375.087 165.471 370.709 154.798C367.738 147.553 360.892 128.53 360.823 128.338C360.786 128.236 360.728 128.143 360.651 128.065C358.336 125.711 352.573 118.806 353.69 115.178C355.38 109.684 357.302 105.71 358.471 105.288C358.569 105.252 358.624 105.259 358.708 105.313C361.827 107.353 365.259 119.039 366.32 123.371C366.335 123.438 366.362 123.502 366.396 123.563C366.982 124.598 380.857 148.971 389.134 154.057C389.488 154.274 389.949 154.163 390.166 153.81C390.38 153.457 390.271 152.995 389.916 152.778Z" fill="#272727"/>
<path d="M445.869 75.2283L443.183 75.9249C443.183 75.9249 448.076 80.5939 452.825 89.9943C456.425 97.122 456.317 104.439 456.317 104.439L458.17 104.003C458.17 104.003 467.663 91.6704 463.86 83.3337C457.726 69.8845 445.869 75.2283 445.869 75.2283Z" fill="#272727"/>
<path d="M430.443 83.3182C430.487 84.6475 432.06 85.955 433.458 87.0203L437.024 83.1214C434.323 83.3026 430.393 81.7921 430.443 83.3182Z" fill="white"/>
<path d="M436.974 82.3715C436.024 82.4372 434.84 82.2622 433.795 82.1091C432.068 81.8561 430.821 81.6733 430.117 82.3028C429.914 82.484 429.675 82.812 429.692 83.3431C429.747 85.002 431.429 86.4188 433.002 87.6185C433.138 87.7216 433.297 87.7716 433.456 87.7716C433.683 87.7716 433.906 87.67 434.054 87.4763C434.306 87.1467 434.242 86.675 433.912 86.4235C433.072 85.7831 431.357 84.4756 431.204 83.4041C431.635 83.3135 432.788 83.4822 433.577 83.5978C434.695 83.7618 435.963 83.9461 437.072 83.8727C437.486 83.8446 437.8 83.4869 437.77 83.0729C437.745 82.6558 437.377 82.3372 436.974 82.3715Z" fill="#272727"/>
<path fill-rule="evenodd" clip-rule="evenodd" d="M443.372 83.1572C442.627 82.8183 441.677 83.3494 441.254 84.3413C440.83 85.3331 441.09 86.4141 441.835 86.753C442.58 87.092 443.529 86.5609 443.953 85.569C444.378 84.5771 444.117 83.4962 443.372 83.1572Z" fill="#272727"/>
<path d="M436.565 94.1042C436.565 94.1042 436.84 98.1906 441.349 98.2749C444.682 98.3374 445.557 94.1589 445.557 94.1589C445.557 94.1589 443.17 94.7478 441.113 94.7478C438.834 94.7478 436.565 94.1042 436.565 94.1042Z" fill="white"/>
<path d="M445.377 93.4293C445.354 93.434 443.053 93.9964 441.115 93.9964H441.113C438.972 93.9964 436.793 93.3856 436.771 93.3793C436.536 93.3137 436.283 93.3653 436.093 93.5184C435.904 93.673 435.799 93.9089 435.816 94.1526C435.927 95.8037 437.224 98.9481 441.335 99.0246C441.365 99.0246 441.393 99.0262 441.422 99.0262C444.49 99.0262 445.949 95.9521 446.293 94.3119C446.346 94.0588 446.264 93.7964 446.079 93.6168C445.894 93.4387 445.629 93.37 445.377 93.4293ZM441.363 97.5235C438.926 97.4782 437.953 96.1223 437.566 95.1101C438.473 95.2944 439.784 95.4991 441.113 95.4991H441.115C442.28 95.4991 443.526 95.3225 444.432 95.1601C443.971 96.1989 443.025 97.5703 441.363 97.5235Z" fill="#272727"/>
<path d="M361.164 104.143C360.145 105.838 360.648 109.77 361.285 111.705C361.923 113.641 358.299 117.893 362.299 123.674L366.741 124.953C368.983 121.124 367.479 116.812 366.026 114.495C362.999 109.657 362.24 102.353 361.164 104.143Z" fill="white"/>
<path d="M363.631 106.771C362.857 104.337 362.504 103.227 361.609 103.122C361.36 103.095 360.893 103.137 360.52 103.756C359.244 105.88 360.022 110.265 360.573 111.94C360.703 112.335 360.493 113.138 360.27 113.987C359.659 116.32 358.738 119.844 361.684 124.1C361.92 124.441 362.388 124.527 362.729 124.291C363.069 124.055 363.155 123.586 362.919 123.246C360.367 119.558 361.151 116.559 361.724 114.369C362.029 113.205 362.269 112.286 362.001 111.469C361.463 109.837 361.103 106.938 361.537 105.245C361.746 105.799 361.99 106.561 362.201 107.227C362.902 109.433 363.864 112.454 365.392 114.893C365.942 115.771 368.56 120.362 366.095 124.573C365.885 124.931 366.006 125.392 366.363 125.601C366.484 125.672 366.613 125.704 366.743 125.704C367.001 125.704 367.252 125.572 367.393 125.333C369.642 121.492 368.492 117.01 366.666 114.095C365.239 111.816 364.309 108.9 363.631 106.771Z" fill="#272727"/>
<path d="M452.47 89.6209L452.879 95.9707C457.393 95.6661 458.813 92.4357 457.436 90.088C455.847 87.3794 453.087 88.8571 452.47 89.6209Z" fill="white"/>
<path d="M455.241 87.7855C453.777 87.6731 452.395 88.5181 451.886 89.1492C451.625 89.4726 451.675 89.9459 451.998 90.2052C452.32 90.466 452.793 90.416 453.054 90.0927C453.27 89.824 454.17 89.2101 455.13 89.2836C455.808 89.3335 456.35 89.7209 456.787 90.4676C457.29 91.3267 457.323 92.3046 456.875 93.1512C456.249 94.3352 454.774 95.0897 452.828 95.2209C452.414 95.249 452.1 95.6067 452.13 96.0207C452.156 96.4174 452.486 96.722 452.878 96.722C452.895 96.722 452.912 96.722 452.929 96.7205C455.407 96.5533 457.328 95.5099 458.204 93.8541C458.89 92.556 458.846 91.0065 458.084 89.7069C457.217 88.2292 456.06 87.8465 455.241 87.7855Z" fill="#272727"/>
<path d="M470.261 203.001C469.096 201.478 467.599 198.054 467.112 195.726L464.575 196.981C465.411 199.767 466.884 202.304 468.588 204.618C469.369 205.677 474.552 207.181 475.166 206.178C475.806 205.13 470.986 203.947 470.261 203.001Z" fill="white"/>
<path d="M472.848 203.565C472.132 203.254 471.053 202.784 470.858 202.543C469.739 201.081 468.305 197.759 467.846 195.572C467.76 195.166 467.36 194.905 466.957 194.991C466.551 195.075 466.29 195.473 466.376 195.879C466.879 198.283 468.415 201.823 469.664 203.455C470.058 203.971 470.903 204.357 472.248 204.941C472.763 205.166 473.513 205.492 474.013 205.773C472.626 205.73 469.669 204.814 469.194 204.169C467.292 201.587 466.017 199.164 465.295 196.762C465.177 196.364 464.755 196.139 464.36 196.257C463.961 196.376 463.737 196.795 463.855 197.193C464.627 199.763 465.976 202.337 467.984 205.06C468.774 206.133 472.273 207.256 474.132 207.256C474.192 207.256 474.253 207.254 474.31 207.253C475.044 207.222 475.548 206.99 475.806 206.567C475.979 206.283 476.02 205.952 475.922 205.638C475.665 204.827 474.588 204.322 472.848 203.565Z" fill="#272727"/>
<path d="M334.929 336.236L341.659 336.209L370.237 40.6805L363.772 39.7886L334.929 336.236Z" fill="white"/>
<path d="M370.34 39.9353L363.874 39.0434C363.669 39.0169 363.466 39.0715 363.305 39.1981C363.144 39.3246 363.043 39.512 363.022 39.7151L334.179 336.162C334.138 336.575 334.441 336.942 334.854 336.983C334.879 336.986 334.902 336.986 334.927 336.986C335.31 336.986 335.636 336.695 335.674 336.306L364.442 40.6367L369.419 41.3225L340.913 336.137C340.872 336.55 341.175 336.917 341.587 336.958C341.993 336.997 342.367 336.695 342.407 336.283L370.985 40.7539C371.024 40.3509 370.74 39.9916 370.34 39.9353Z" fill="#272727"/>
<path d="M355.07 110.165C354.51 107.924 351.522 114.648 352.704 118.383C353.351 120.426 356.843 124.391 358.254 123.983C359.442 123.639 358.058 121.121 358.058 121.121C358.058 121.121 359.638 122.835 360.736 121.805C361.732 120.871 360.636 119.603 359.241 118.071C357.374 116.018 355.444 111.66 355.07 110.165Z" fill="white"/>
<path d="M355.8 109.984C355.631 109.308 355.256 109.075 354.97 109C354.689 108.926 354.25 108.94 353.78 109.434C352.604 110.668 351.005 115.503 351.99 118.611C352.581 120.478 355.887 124.762 358.06 124.762C358.199 124.762 358.335 124.744 358.465 124.708C358.88 124.588 359.199 124.306 359.361 123.913C359.494 123.593 359.509 123.218 359.461 122.838C359.589 122.866 359.719 122.883 359.852 122.888C360.37 122.908 360.861 122.724 361.253 122.357C362.818 120.889 361.145 119.047 359.8 117.568C357.994 115.584 356.136 111.326 355.8 109.984ZM358.046 123.263L358.254 123.985L358.046 123.263ZM360.222 121.26C360.122 121.354 360.03 121.396 359.905 121.385C359.456 121.371 358.838 120.859 358.61 120.614C358.352 120.336 357.927 120.292 357.619 120.514C357.312 120.736 357.216 121.153 357.401 121.485C357.752 122.124 358.019 122.95 357.988 123.264C357.135 123.222 354.057 120.162 353.421 118.157C352.705 115.896 353.758 112.332 354.522 110.952C355.173 112.899 356.963 116.684 358.686 118.577C360.056 120.086 360.636 120.871 360.222 121.26Z" fill="#272727"/>
<path d="M358.059 121.123L353.949 115.799C355.117 118.275 356.72 120.126 358.059 121.123Z" fill="white"/>
<path d="M354.63 115.479C354.453 115.104 354.005 114.942 353.63 115.12C353.255 115.296 353.094 115.745 353.271 116.12C354.367 118.446 355.95 120.489 357.61 121.724C357.744 121.824 357.902 121.873 358.058 121.873C358.288 121.873 358.514 121.768 358.661 121.57C358.91 121.237 358.839 120.767 358.507 120.518C357.059 119.444 355.609 117.558 354.63 115.479Z" fill="#272727"/>
<path d="M357.218 105.621C357.24 104.314 354.136 106.804 354.386 109.543C354.683 112.807 356.145 114.306 357.126 115.893C358.107 117.48 360.943 120.853 361.841 119.395C362.541 118.26 360.301 115.357 359.367 113.466C356.813 108.299 357.187 107.489 357.218 105.621Z" fill="white"/>
<path d="M360.039 113.133C357.854 108.708 357.894 107.672 357.951 106.238C357.958 106.044 357.966 105.846 357.969 105.634C357.98 105.003 357.605 104.728 357.444 104.639C357.163 104.484 356.679 104.393 355.979 104.849C354.891 105.56 353.446 107.507 353.636 109.611C353.896 112.46 355.016 114.105 355.915 115.426C356.114 115.718 356.307 116.001 356.485 116.288C356.512 116.331 359.181 120.504 361.228 120.504C361.228 120.504 361.228 120.504 361.229 120.504C361.751 120.504 362.196 120.25 362.479 119.79C363.228 118.575 362.133 116.737 360.976 114.79C360.618 114.189 360.279 113.62 360.039 113.133ZM361.234 119.002C360.746 119.064 358.877 117.301 357.765 115.499C357.576 115.195 357.371 114.892 357.159 114.581C356.273 113.281 355.358 111.938 355.134 109.476C355.019 108.197 355.829 107.005 356.442 106.407C356.389 107.902 356.451 109.259 358.694 113.8C358.961 114.34 359.314 114.932 359.687 115.56C360.22 116.457 361.473 118.561 361.234 119.002Z" fill="#272727"/>
<path d="M353.405 260.972C353.629 257.627 352.459 255.358 352.459 255.358C352.459 255.358 352.151 251.245 349.782 250.882L324.977 273.402C324.977 273.402 329.117 282.509 331.805 278.873C336.097 273.068 348.487 271.487 351.175 268.665C354.519 265.153 353.251 263.285 353.405 260.972Z" fill="white"/>
<path d="M354.154 261.022C354.36 257.944 353.455 255.725 353.193 255.155C353.107 254.339 352.56 250.548 349.894 250.14C349.482 250.078 349.101 250.359 349.038 250.77C348.976 251.181 349.257 251.563 349.667 251.626C351.389 251.888 351.706 255.381 351.709 255.415C351.717 255.514 351.745 255.612 351.789 255.7C351.8 255.722 352.859 257.848 352.654 260.922C352.613 261.522 352.66 262.079 352.704 262.618C352.84 264.274 352.955 265.705 350.631 268.146C349.685 269.14 347.036 270.082 344.23 271.08C339.638 272.714 333.923 274.746 331.2 278.426C330.757 279.026 330.413 278.988 330.283 278.974C328.875 278.826 326.733 275.444 325.662 273.092C325.49 272.714 325.043 272.546 324.667 272.718C324.289 272.89 324.121 273.335 324.293 273.713C324.782 274.791 327.364 280.177 330.126 280.469C330.202 280.477 330.282 280.482 330.366 280.482C330.953 280.482 331.719 280.252 332.409 279.32C334.858 276.008 340.333 274.06 344.735 272.495C347.843 271.389 350.527 270.435 351.72 269.182C354.51 266.251 354.347 264.255 354.203 262.495C354.161 261.989 354.122 261.511 354.154 261.022Z" fill="#272727"/>
<path d="M350.84 240.068C349.447 243.803 347.693 248.091 347.106 249.266C346.729 250.019 344.853 252.002 342.256 254.505C338.396 258.224 332.223 264.538 333.115 267.493L344.319 258.574C346.548 256.121 349.827 251.371 350.506 249.934C351.404 248.032 351.962 245.97 352.53 244.178C353.571 240.904 353.516 239.12 352.846 238.283C352.296 237.597 351.471 238.377 350.84 240.068Z" fill="white"/>
<path d="M352.199 237.3C351.209 237.46 350.531 238.751 350.138 239.806C348.715 243.619 346.979 247.841 346.436 248.93C346.32 249.159 345.642 250.201 341.737 253.964C334.512 260.928 331.631 265.167 332.398 267.71C332.497 268.035 332.795 268.245 333.117 268.245C333.189 268.245 333.262 268.234 333.334 268.212C333.731 268.091 333.956 267.673 333.837 267.276C333.451 266 334.691 262.841 342.781 255.045C345.697 252.235 347.379 250.403 347.781 249.601C348.415 248.332 350.211 243.914 351.546 240.331C351.865 239.476 352.17 239.05 352.345 238.873C352.637 239.378 352.86 240.67 351.818 243.952C351.706 244.305 351.595 244.668 351.479 245.04C351.012 246.56 350.53 248.133 349.83 249.614C349.185 250.979 345.945 255.673 343.766 258.069C343.487 258.377 343.51 258.852 343.816 259.132C344.124 259.411 344.599 259.388 344.878 259.082C347.178 256.553 350.492 251.732 351.189 250.258C351.934 248.68 352.456 246.98 352.916 245.482C353.029 245.117 353.14 244.758 353.251 244.408C354.31 241.076 354.369 238.981 353.438 237.816C353.113 237.414 352.662 237.225 352.199 237.3Z" fill="#272727"/>
<path d="M267.092 195.837C252.71 202.034 252.552 215.642 259.718 224.898C259.848 225.065 259.981 225.227 260.117 225.388C258.869 235.034 250.565 245.393 250.565 245.393L271.567 247.6C271.567 247.6 274.827 232.06 276.061 230.468C287.634 230.844 292.028 221.977 291.437 211.398C290.756 199.191 275.171 192.357 267.092 195.837Z" fill="white"/>
<path d="M283.27 197.588C277.834 194.225 271.214 193.244 266.795 195.147C260.418 197.894 256.291 202.274 254.862 207.813C253.403 213.467 254.996 220.026 259.126 225.357C259.193 225.443 259.261 225.529 259.329 225.613C257.983 234.845 250.061 244.822 249.981 244.923C249.809 245.137 249.768 245.429 249.875 245.682C249.981 245.937 250.217 246.112 250.49 246.14L271.492 248.347C271.519 248.35 271.545 248.352 271.572 248.352C271.923 248.352 272.233 248.105 272.306 247.755C273.762 240.82 275.644 233.036 276.488 231.23C281.089 231.285 284.835 229.91 287.554 227.127C290.919 223.682 292.565 218.081 292.19 211.358C291.885 205.927 288.633 200.908 283.27 197.588ZM286.478 226.075C283.979 228.634 280.483 229.856 276.088 229.718C275.844 229.701 275.617 229.818 275.469 230.009C274.28 231.544 271.755 243.108 270.974 246.784L251.974 244.786C254.134 241.86 259.824 233.515 260.863 225.485C260.89 225.276 260.827 225.063 260.691 224.902C260.563 224.751 260.437 224.596 260.315 224.438C256.469 219.471 254.975 213.398 256.318 208.19C257.627 203.118 261.455 199.085 267.391 196.528C271.378 194.809 277.443 195.75 282.481 198.868C287.421 201.925 290.414 206.508 290.689 211.441C291.04 217.737 289.544 222.936 286.478 226.075Z" fill="#272727"/>
<path d="M290.448 211.158L290.133 217.515C291.54 217.076 293.961 217.023 294.964 215.7C295.967 214.376 293.652 214.707 290.448 211.158Z" fill="white"/>
<path d="M294.542 213.54C293.71 213.029 292.454 212.257 291.006 210.653C290.728 210.345 290.253 210.32 289.945 210.598C289.638 210.877 289.613 211.351 289.891 211.659C291.484 213.424 292.852 214.263 293.757 214.819C293.974 214.952 294.232 215.11 294.381 215.224C294.377 215.23 294.372 215.238 294.366 215.244C293.811 215.977 292.49 216.238 291.323 216.469C290.814 216.569 290.333 216.664 289.91 216.797C289.513 216.92 289.293 217.342 289.416 217.737C289.516 218.059 289.813 218.265 290.133 218.265C290.208 218.265 290.283 218.254 290.356 218.231C290.703 218.123 291.147 218.035 291.614 217.942C292.971 217.673 294.663 217.34 295.562 216.152C295.679 215.995 296.039 215.522 295.931 214.947C295.814 214.319 295.281 213.993 294.542 213.54ZM294.494 215.324H294.502H294.494Z" fill="#272727"/>
<path d="M288.897 223.011C286.637 223.525 282.123 222.269 280.755 219.544C280.567 219.174 280.116 219.024 279.746 219.21C279.376 219.396 279.226 219.849 279.412 220.219C280.899 223.178 284.924 224.621 287.79 224.621C288.316 224.621 288.804 224.573 289.229 224.476C289.633 224.384 289.886 223.981 289.794 223.576C289.705 223.172 289.3 222.92 288.897 223.011Z" fill="#272727"/>
<path fill-rule="evenodd" clip-rule="evenodd" d="M285.05 207.393C284.316 207.564 283.898 208.47 284.118 209.415C284.336 210.36 285.111 210.988 285.847 210.817C286.581 210.647 287 209.741 286.781 208.796C286.559 207.851 285.784 207.222 285.05 207.393Z" fill="#272727"/>
<path d="M259.596 197.816C244.509 210.988 259.774 228.136 259.774 228.136C259.774 228.136 265.207 226.789 268.923 222.205C271.152 219.454 271.85 213.515 274.268 212.131C281.512 207.984 282.596 197.969 282.596 197.969C282.596 197.969 270.13 188.619 259.596 197.816Z" fill="#272727"/>
<path d="M283.046 197.368C282.917 197.271 269.969 187.765 259.101 197.251C254.845 200.967 252.53 205.35 252.221 210.28C251.61 219.977 258.903 228.287 259.214 228.636C259.357 228.798 259.564 228.887 259.774 228.887C259.834 228.887 259.895 228.879 259.956 228.865C260.187 228.808 265.677 227.403 269.507 222.676C270.572 221.363 271.285 219.452 271.972 217.604C272.739 215.546 273.531 213.418 274.641 212.782C282.132 208.495 283.298 198.474 283.343 198.051C283.371 197.787 283.259 197.527 283.046 197.368ZM273.895 211.478C272.312 212.384 271.463 214.665 270.563 217.08C269.918 218.813 269.249 220.607 268.339 221.73C265.432 225.316 261.365 226.849 260.034 227.275C258.675 225.605 253.217 218.367 253.72 210.372C254.005 205.858 256.148 201.823 260.09 198.38C263.042 195.803 266.396 194.508 270.101 194.508C271.611 194.508 273.181 194.724 274.805 195.155C278.218 196.061 280.861 197.696 281.787 198.318C281.481 200.241 279.893 208.045 273.895 211.478Z" fill="#272727"/>
<path d="M256.846 215.307C243.85 213.649 215.029 212.868 214.396 228.22C213.838 241.762 229.775 248.895 243.558 238.172C257.361 227.431 257.33 217.951 257.33 217.951C257.33 217.951 259.414 215.635 256.846 215.307Z" fill="#272727"/>
<path d="M256.938 214.582C252.164 213.974 227.845 211.366 217.84 219.815C215.207 222.039 213.803 224.857 213.665 228.19C213.414 234.276 216.408 239.528 221.673 242.238C224.102 243.488 226.789 244.1 229.572 244.1C234.381 244.1 239.475 242.272 244.003 238.748C256.788 228.801 257.944 219.927 258.047 218.228C258.42 217.754 259.111 216.7 258.756 215.746C258.594 215.3 258.144 214.736 256.938 214.582ZM256.785 217.464C256.665 217.597 256.599 217.772 256.597 217.951C256.597 218.043 256.41 227.245 243.107 237.596C236.412 242.805 228.455 244.087 222.342 240.94C217.595 238.497 214.897 233.753 215.124 228.251C215.244 225.343 216.475 222.881 218.782 220.932C223.821 216.675 233.635 215.182 243.457 215.182C248.049 215.182 252.644 215.508 256.752 216.031C257.235 216.092 257.377 216.224 257.389 216.255C257.46 216.439 257.153 217.05 256.785 217.464Z" fill="#272727"/>
<path d="M269.029 211.439C268.457 215.933 272.768 217.1 272.768 217.1L276.4 211.519C276.722 207.756 269.719 206.009 269.029 211.439Z" fill="white"/>
<path d="M273.087 207.275C270.985 207.053 268.682 208.224 268.286 211.344C267.769 215.411 270.864 217.362 272.573 217.825C272.639 217.843 272.704 217.851 272.77 217.851C273.101 217.851 273.404 217.631 273.495 217.297C273.604 216.895 273.367 216.483 272.967 216.375C272.817 216.334 269.293 215.335 269.776 211.534C270.137 208.696 272.281 208.698 272.929 208.77C274.368 208.923 275.78 209.969 275.653 211.456C275.618 211.87 275.925 212.233 276.338 212.269C276.756 212.308 277.115 211.997 277.15 211.584C277.354 209.177 275.244 207.503 273.087 207.275Z" fill="#272727"/>
<path d="M160.685 361.954C161.828 362.677 163.919 360.245 164.843 357.534C165.439 355.785 167.607 351.75 167.607 351.75L174.172 342.49L169.024 341C166.57 345.552 159.679 361.318 160.685 361.954Z" fill="white"/>
<path d="M173.558 342.058L166.993 351.316C166.976 351.341 166.959 351.367 166.945 351.396C166.856 351.563 164.739 355.505 164.132 357.294C163.456 359.281 162.176 360.921 161.362 361.272C161.808 358.508 167.209 345.949 169.685 341.359C169.881 340.994 169.746 340.538 169.38 340.341C169.015 340.144 168.558 340.28 168.362 340.646C167.086 343.012 164.722 348.176 162.864 352.658C159.065 361.818 159.685 362.21 160.283 362.589C160.483 362.716 160.769 362.836 161.138 362.836C161.333 362.836 161.553 362.802 161.794 362.716C163.345 362.169 164.858 359.817 165.555 357.777C166.092 356.197 168.021 352.57 168.248 352.147L174.784 342.926C175.023 342.587 174.944 342.119 174.606 341.878C174.266 341.639 173.799 341.719 173.558 342.058ZM161.338 361.66H161.347H161.338Z" fill="#272727"/>
<path d="M168.298 339.629C162.607 344.247 159.307 350.411 158.303 352.442C157.298 354.473 156.347 358.231 157.5 357.858C158.653 357.486 162.946 350.329 165.258 347.996L174.655 340.499L175.766 330.005C173.059 335.086 171.903 336.701 168.298 339.629Z" fill="white"/>
<path d="M176.12 329.342C175.754 329.147 175.298 329.288 175.103 329.652C172.493 334.549 171.437 336.112 167.824 339.046C162.189 343.621 158.818 349.705 157.629 352.109C157.247 352.884 155.521 357.069 156.559 358.273C156.764 358.511 157.045 358.635 157.351 358.635C157.475 358.635 157.603 358.615 157.731 358.573C158.513 358.32 159.493 357.016 161.89 353.626C163.29 351.648 164.736 349.602 165.763 348.556L175.125 341.084C175.45 340.825 175.501 340.353 175.244 340.028C174.984 339.703 174.513 339.652 174.188 339.91L164.789 347.409C164.766 347.428 164.746 347.447 164.725 347.467C163.61 348.592 162.112 350.71 160.663 352.758C159.705 354.112 158.473 355.855 157.748 356.684C157.867 355.744 158.317 354.107 158.976 352.773C160.119 350.458 163.365 344.597 168.769 340.21C172.513 337.17 173.7 335.477 176.428 330.356C176.624 329.992 176.487 329.536 176.12 329.342ZM157.756 357.369H157.748H157.756Z" fill="#272727"/>
<path d="M163.095 349.824C161.509 352.379 155.883 360.938 157.431 361.769C158.865 362.539 164.475 353.462 166.287 351.484C168.099 349.507 175.114 344.332 178.172 342.353L174.405 338.829C171.026 341.178 164.68 347.267 163.095 349.824Z" fill="white"/>
<path d="M177.765 341.723C174.78 343.655 167.648 348.891 165.734 350.977C165.144 351.622 164.218 352.915 163.145 354.413C161.684 356.453 159.084 360.085 157.915 360.905C158.081 359.676 159.836 356.405 163.143 351.158L163.734 350.219C165.197 347.857 171.423 341.817 174.834 339.446C175.175 339.208 175.259 338.741 175.022 338.401C174.786 338.06 174.319 337.976 173.977 338.213C170.664 340.516 164.146 346.705 162.457 349.429L161.873 350.358C158.228 356.142 156.052 360.046 156.47 361.638C156.589 362.088 156.866 362.317 157.076 362.431C157.251 362.525 157.433 362.572 157.623 362.572C158.995 362.572 160.878 360.162 164.368 355.29C165.369 353.892 166.314 352.572 166.843 351.994C168.538 350.146 175.358 345.072 178.582 342.985C178.93 342.76 179.03 342.295 178.803 341.947C178.579 341.598 178.115 341.497 177.765 341.723ZM157.923 361.255H157.931H157.923Z" fill="#272727"/>
<path d="M170.705 353.696C172.028 354.424 175.605 349.316 180.053 345.711C182.552 343.687 184.22 339.764 184.45 337.142L178.866 341.255C175.945 343.746 169.382 352.968 170.705 353.696Z" fill="white"/>
<path d="M184.516 336.394C184.099 336.362 183.738 336.664 183.702 337.076C183.483 339.569 181.882 343.263 179.58 345.129C177.74 346.619 176.084 348.325 174.622 349.829C173.449 351.036 172.031 352.495 171.348 352.919C171.968 350.91 176.668 344.116 179.353 341.826C179.669 341.558 179.706 341.083 179.438 340.767C179.169 340.452 178.694 340.414 178.379 340.683C175.808 342.876 169.555 351.182 169.788 353.467C169.842 354.003 170.158 354.252 170.342 354.354C170.552 354.47 170.767 354.524 170.992 354.524C172.154 354.524 173.574 353.062 175.7 350.875C177.132 349.401 178.755 347.731 180.526 346.295C183.236 344.099 184.956 339.974 185.198 337.207C185.234 336.793 184.928 336.43 184.516 336.394ZM171.281 353.317H171.29H171.281Z" fill="#272727"/>
<path d="M201.604 286.046C192.686 296.449 170.573 333.295 170.573 333.295L188.817 342.806C188.817 342.806 217.184 294.893 218.834 288.992L255.584 239.622C237.106 242.633 212.831 272.948 201.604 286.046Z" fill="white"/>
<path d="M255.462 238.881C238.221 241.69 215.98 267.932 204.032 282.031C202.953 283.306 201.95 284.488 201.033 285.557C192.179 295.888 170.152 332.538 169.93 332.907C169.824 333.085 169.796 333.298 169.85 333.498C169.906 333.697 170.042 333.863 170.225 333.96L188.469 343.473C188.58 343.531 188.699 343.559 188.816 343.559C189.073 343.559 189.323 343.426 189.462 343.19C190.623 341.23 217.9 295.124 219.555 289.196C219.666 288.796 219.433 288.382 219.034 288.27C218.637 288.159 218.22 288.392 218.107 288.792C216.605 294.173 191.838 336.209 188.531 341.812L171.628 332.999C174.699 327.913 194.065 295.994 202.172 286.536C203.091 285.466 204.095 284.28 205.176 283.004C216.998 269.054 239.006 243.086 255.701 240.367C256.11 240.299 256.388 239.914 256.321 239.504C256.257 239.093 255.877 238.815 255.462 238.881Z" fill="#272727"/>
<path d="M310.373 404.939C308.149 404.297 298.399 401.832 295.048 398.61C289.931 393.688 287.879 387.596 287.879 387.596L274.151 387.818L270.451 409.026H312.075C312.074 409.026 314.376 406.094 310.373 404.939Z" fill="white"/>
<path d="M310.581 404.218C310.37 404.157 310.09 404.079 309.756 403.987C306.668 403.131 298.466 400.856 295.569 398.069C290.653 393.343 288.61 387.416 288.59 387.357C288.457 386.965 288.03 386.752 287.638 386.885C287.246 387.018 287.034 387.444 287.167 387.837C287.253 388.093 289.338 394.161 294.528 399.152C297.699 402.203 305.867 404.468 309.355 405.435C309.683 405.527 309.957 405.602 310.165 405.661C310.852 405.859 311.716 406.231 311.929 406.876C312.085 407.351 311.869 407.915 311.669 408.276H271.344L274.891 387.947C274.963 387.538 274.69 387.149 274.28 387.077C273.874 387.007 273.482 387.28 273.41 387.688L269.71 408.896C269.673 409.115 269.732 409.338 269.876 409.508C270.018 409.679 270.229 409.775 270.451 409.775H312.075C312.307 409.775 312.524 409.669 312.666 409.488C312.714 409.426 313.855 407.949 313.359 406.417C313.028 405.394 312.093 404.653 310.581 404.218Z" fill="#272727"/>
<path d="M298.55 399.547C296.788 400.142 294.195 401.498 292.683 403.365C292.423 403.687 292.473 404.16 292.794 404.421C292.933 404.533 293.101 404.588 293.266 404.588C293.485 404.588 293.702 404.493 293.85 404.31C295.076 402.798 297.335 401.543 299.031 400.97C299.425 400.837 299.636 400.411 299.503 400.019C299.37 399.625 298.945 399.414 298.55 399.547Z" fill="#272727"/>
<path d="M295.57 397.837C293.808 398.432 291.215 399.789 289.703 401.654C289.442 401.976 289.492 402.449 289.814 402.71C289.953 402.823 290.12 402.877 290.286 402.877C290.505 402.877 290.722 402.782 290.87 402.599C292.095 401.087 294.355 399.833 296.051 399.26C296.445 399.127 296.656 398.701 296.523 398.308C296.39 397.915 295.964 397.704 295.57 397.837Z" fill="#272727"/>
<path d="M279.165 404.24C277.161 402.682 274.237 402.27 271.146 403.11C270.746 403.22 270.51 403.632 270.618 404.032C270.727 404.432 271.139 404.668 271.539 404.56C274.171 403.843 276.612 404.158 278.242 405.425C279.354 406.289 279.955 407.495 279.935 408.821C279.929 409.237 280.26 409.577 280.674 409.583C280.677 409.583 280.681 409.583 280.686 409.583C281.095 409.583 281.431 409.255 281.437 408.844C281.466 407.062 280.638 405.385 279.165 404.24Z" fill="#272727"/>
<path d="M212.255 464.821C210.03 464.179 200.281 461.714 196.93 458.491C191.813 453.569 189.761 447.477 189.761 447.477L176.033 447.699L172.332 468.907H213.957C213.957 468.909 216.258 465.977 212.255 464.821Z" fill="white"/>
<path d="M212.462 464.099C212.251 464.038 211.975 463.962 211.642 463.87C208.554 463.014 200.349 460.739 197.45 457.951C192.536 453.223 190.492 447.296 190.471 447.237C190.339 446.845 189.912 446.632 189.52 446.765C189.128 446.898 188.916 447.323 189.048 447.716C189.134 447.972 191.22 454.041 196.41 459.032C199.582 462.084 207.753 464.349 211.241 465.314L212.047 465.541C212.734 465.739 213.598 466.111 213.81 466.756C213.967 467.231 213.751 467.795 213.551 468.156H173.226L176.773 447.827C176.845 447.418 176.571 447.029 176.162 446.957C175.753 446.888 175.364 447.159 175.292 447.568L171.592 468.778C171.554 468.996 171.614 469.22 171.757 469.39C171.9 469.56 172.11 469.657 172.332 469.657H213.957C214.188 469.657 214.405 469.551 214.548 469.37C214.596 469.307 215.736 467.831 215.241 466.299C214.91 465.277 213.976 464.535 212.462 464.099Z" fill="#272727"/>
<path d="M200.434 459.429C198.672 460.024 196.077 461.381 194.567 463.246C194.306 463.568 194.356 464.041 194.678 464.302C194.817 464.415 194.984 464.469 195.149 464.469C195.368 464.469 195.585 464.374 195.734 464.191C196.958 462.679 199.218 461.425 200.915 460.852C201.308 460.719 201.519 460.292 201.386 459.9C201.252 459.507 200.827 459.297 200.434 459.429Z" fill="#272727"/>
<path d="M197.453 457.72C195.691 458.315 193.097 459.672 191.587 461.537C191.326 461.859 191.376 462.332 191.698 462.593C191.837 462.706 192.004 462.76 192.169 462.76C192.388 462.76 192.605 462.665 192.753 462.482C193.978 460.97 196.238 459.716 197.934 459.143C198.328 459.01 198.539 458.583 198.406 458.191C198.272 457.798 197.845 457.585 197.453 457.72Z" fill="#272727"/>
<path d="M181.048 464.123C179.042 462.564 176.118 462.153 173.029 462.993C172.629 463.102 172.393 463.515 172.501 463.915C172.61 464.315 173.024 464.551 173.423 464.443C176.053 463.726 178.496 464.043 180.125 465.308C181.237 466.172 181.838 467.378 181.818 468.704C181.812 469.12 182.143 469.46 182.557 469.466C182.56 469.466 182.565 469.466 182.569 469.466C182.979 469.466 183.314 469.138 183.321 468.727C183.349 466.945 182.521 465.266 181.048 464.123Z" fill="#272727"/>
<path d="M226.18 285.293C212.178 295.301 199.896 311.376 198.161 330.292C196.426 349.209 198.559 372.121 198.559 372.121C198.559 372.121 189.901 384.545 183.082 400.041C176.262 415.537 172.782 449.527 172.782 449.527H204.468C204.468 449.527 227.648 392.562 233.847 370.379C236.909 359.428 238.463 344.488 239.253 332.207C239.447 329.202 248.625 327.21 247.913 324.717C245.418 315.985 251.032 298.831 251.032 298.831L226.18 285.293Z" fill="#272727"/>
<path d="M235.208 317.943L215.76 311.566C212.247 333.329 216.434 347.898 237.94 351.442C249.155 353.29 284.388 345.221 305.189 334.14C316.705 328.005 316.315 322.623 315.801 317.216C314.456 303.052 258.711 313.56 235.208 317.943Z" fill="#272727"/>
<path d="M314.064 313.964L293.894 317.308C282.976 333.073 276.06 350.062 273.849 358.976C271.639 367.891 267.994 391.778 267.994 391.778H299.277C299.275 391.776 330.885 326.682 314.064 313.964Z" fill="#272727"/>
<path d="M255.582 239.623L233.549 259.502C224.247 271.575 204.157 298.908 196.769 314.739C196.001 316.387 213.203 318.794 224.524 318.794C243.86 318.794 252.591 315.987 252.591 315.987C252.591 315.987 275.799 267.806 276.605 253.3C277.301 240.796 267.455 236.78 255.582 239.623Z" fill="white"/>
<path d="M272.939 241.276C268.989 237.977 262.761 237.132 255.407 238.894C255.004 238.99 254.756 239.395 254.851 239.8C254.948 240.203 255.354 240.453 255.757 240.356C262.641 238.708 268.4 239.445 271.977 242.432C274.818 244.804 276.124 248.447 275.856 253.261C275.1 266.861 254.022 311.262 252.061 315.362C250.367 315.836 241.538 318.044 224.527 318.044C213.395 318.044 199.676 315.965 197.606 314.73C206.341 296.26 231.312 263.641 234.146 259.963C234.399 259.633 234.338 259.163 234.01 258.91C233.682 258.657 233.21 258.718 232.957 259.046C230.095 262.76 204.749 295.869 196.091 314.423C195.941 314.744 195.969 315.106 196.166 315.417C197.567 317.616 214.833 319.547 224.527 319.547C243.76 319.547 252.463 316.82 252.825 316.704C253.02 316.64 253.183 316.499 253.272 316.315C254.222 314.342 276.553 267.832 277.358 253.344C277.647 248.103 276.12 243.931 272.939 241.276Z" fill="#272727"/>
<path d="M275.671 246.749L254.386 263.123C257.894 293.998 276.486 317.858 290.483 311.93C296.25 309.489 308.923 303.27 298.591 291.347C290.483 281.992 284.558 281.68 275.671 246.749Z" fill="white"/>
<path d="M294.972 286.435C288.899 280.339 283.654 275.077 276.399 246.565C276.295 246.162 275.891 245.918 275.485 246.021C275.083 246.124 274.84 246.532 274.943 246.935C282.298 275.845 287.679 281.244 293.908 287.495C295.231 288.823 296.598 290.194 298.024 291.841C301.06 295.343 302.257 298.592 301.584 301.496C300.317 306.954 292.695 310.181 290.191 311.241C286.704 312.719 282.709 312.243 278.637 309.864C267.169 303.167 257.505 283.912 255.132 263.04C255.085 262.627 254.72 262.326 254.301 262.377C253.889 262.424 253.592 262.796 253.639 263.208C256.06 284.521 266.029 304.24 277.879 311.16C280.642 312.774 283.391 313.588 286.016 313.588C287.66 313.588 289.258 313.267 290.776 312.624C293.455 311.49 301.607 308.038 303.047 301.835C303.836 298.437 302.527 294.743 299.16 290.857C297.699 289.171 296.312 287.779 294.972 286.435Z" fill="#272727"/>
<path d="M291.108 287.294L279.257 311.153C296.565 322.613 343.968 277.626 343.968 277.626L332.897 261.409C332.897 261.407 300.775 283.864 291.108 287.294Z" fill="white"/>
<path d="M333.517 260.986C333.403 260.82 333.229 260.706 333.031 260.67C332.833 260.633 332.629 260.678 332.465 260.794C332.145 261.017 300.317 283.229 290.856 286.586C290.466 286.725 290.261 287.155 290.4 287.545C290.539 287.937 290.969 288.142 291.359 288.001C300.381 284.801 328.054 265.691 332.704 262.457L342.984 277.515C338.034 282.108 295.389 320.929 279.671 310.524C279.324 310.295 278.859 310.39 278.631 310.737C278.401 311.082 278.496 311.549 278.843 311.777C280.864 313.116 283.315 313.783 286.194 313.783C293.941 313.783 304.77 308.941 318.534 299.301C332.433 289.568 344.366 278.282 344.485 278.17C344.752 277.917 344.796 277.506 344.588 277.201L333.517 260.986Z" fill="#272727"/>
<path d="M295.45 337.892C277.832 345.285 248.925 352.491 238.063 350.7C225.556 348.64 218.64 342.903 216.297 332.645C216.205 332.24 215.802 331.986 215.397 332.079C214.993 332.171 214.74 332.574 214.832 332.979C217.294 343.759 224.813 350.04 237.818 352.183C238.982 352.375 240.367 352.467 241.94 352.467C254.301 352.467 278.157 346.778 296.031 339.279C296.414 339.118 296.593 338.677 296.432 338.295C296.271 337.912 295.831 337.732 295.45 337.892Z" fill="#272727"/>
<path d="M238.611 324.45C236.703 325.723 225.951 329.188 222.437 328.572C222.028 328.499 221.639 328.774 221.567 329.182C221.495 329.589 221.767 329.98 222.176 330.052C222.521 330.113 222.921 330.141 223.363 330.141C228.023 330.141 237.493 327.001 239.444 325.701C239.789 325.472 239.883 325.005 239.652 324.659C239.423 324.313 238.956 324.219 238.611 324.45Z" fill="#272727"/>
<path d="M211.828 369.586C208.309 369.586 202.992 369.586 198.287 371.421C197.902 371.571 197.709 372.008 197.861 372.394C197.977 372.691 198.261 372.872 198.561 372.872C198.651 372.872 198.743 372.855 198.834 372.821C203.275 371.088 208.218 371.088 211.83 371.088C212.245 371.088 212.581 370.752 212.581 370.337C212.579 369.921 212.242 369.586 211.828 369.586Z" fill="#272727"/>
<path d="M202.463 373.377C202.047 373.377 201.711 373.713 201.711 374.128C201.711 374.544 202.047 374.879 202.463 374.879C205.324 374.879 207.797 374.879 210.721 376.969C210.853 377.063 211.005 377.11 211.156 377.11C211.391 377.11 211.622 377.001 211.769 376.796C212.009 376.459 211.931 375.988 211.594 375.748C208.278 373.377 205.454 373.377 202.463 373.377Z" fill="#272727"/>
<path d="M200.457 442.051H175.262C174.847 442.051 174.511 442.387 174.511 442.802C174.511 443.218 174.847 443.553 175.262 443.553H200.457C200.872 443.553 201.208 443.218 201.208 442.802C201.208 442.387 200.872 442.051 200.457 442.051Z" fill="#272727"/>
<path d="M295.436 383.188H270.241C269.826 383.188 269.49 383.524 269.49 383.939C269.49 384.355 269.826 384.691 270.241 384.691H295.436C295.851 384.691 296.187 384.355 296.187 383.939C296.187 383.524 295.851 383.188 295.436 383.188Z" fill="#272727"/>
<path d="M295.942 341.717L295.689 341.697C292.898 341.473 289.077 341.166 285.966 341.611C285.555 341.669 285.269 342.05 285.328 342.461C285.386 342.871 285.764 343.16 286.178 343.098C289.124 342.679 292.848 342.976 295.568 343.193L295.822 343.213C295.842 343.215 295.862 343.215 295.882 343.215C296.27 343.215 296.599 342.917 296.631 342.525C296.663 342.112 296.356 341.75 295.942 341.717Z" fill="#272727"/>
<path d="M253.334 213.574C253.263 213.154 252.864 212.867 252.443 212.942C252.021 213.013 251.738 213.412 251.81 213.834C252.241 216.38 253.308 221.194 255.598 224.819C255.745 225.052 255.996 225.18 256.252 225.18C256.393 225.18 256.536 225.141 256.665 225.06C257.025 224.832 257.133 224.354 256.905 223.993C254.679 220.468 253.667 215.533 253.334 213.574Z" fill="#F3B727"/>
<path opacity="0.8" d="M471.774 449.352L438.398 459.213C433.461 460.672 428.291 460.522 423.447 458.78L401.712 450.965C393.798 448.119 384.993 449.342 378.155 454.238L341.031 480.808C340.685 481.057 340.605 481.539 340.853 481.888C341.005 482.098 341.242 482.211 341.483 482.211C341.639 482.211 341.795 482.164 341.933 482.067L379.056 455.497C385.48 450.898 393.756 449.749 401.189 452.423L422.924 460.238C428.08 462.092 433.583 462.251 438.837 460.698L472.213 450.837C472.623 450.715 472.857 450.286 472.737 449.877C472.613 449.464 472.182 449.231 471.774 449.352Z" fill="white"/>
<path d="M365.151 37.0706L364.148 39.7463L370.237 40.6804L370.015 37.6141L365.151 37.0706Z" fill="#272727"/>
<path d="M363.166 33.9462L362.752 37.0964L372.037 38.3166L372.451 35.1664L363.166 33.9462Z" fill="#F3B727"/>
<path d="M351.129 336.567L335.411 335.23C335.269 335.219 335.122 335.246 334.994 335.311L323.178 341.331C322.797 341.525 322.647 341.991 322.841 342.372C322.977 342.64 323.248 342.793 323.529 342.793C323.648 342.793 323.768 342.767 323.881 342.709L335.5 336.789L351 338.109C351.426 338.142 351.8 337.829 351.835 337.403C351.87 336.978 351.554 336.605 351.129 336.567Z" fill="white"/>
<path d="M394.515 150.811C394.137 151.01 393.991 151.478 394.19 151.856C396.384 156.027 396.308 164.184 392.686 169.217C392.436 169.564 392.515 170.048 392.862 170.296C393 170.395 393.157 170.441 393.314 170.441C393.554 170.441 393.792 170.331 393.941 170.12C397.953 164.546 398.015 155.804 395.558 151.136C395.36 150.757 394.891 150.611 394.515 150.811Z" fill="white"/>
<path d="M386.597 166.127C386.597 166.127 384.702 167.951 387.914 170.307C391.447 172.899 392.116 155.842 389.523 153.417C386.931 150.994 384.924 157.097 386.597 166.127Z" fill="white"/>
<path d="M388.186 152.498L390.193 166.713C393.285 161.446 393.453 156.177 388.186 152.498Z" fill="white"/>
<path d="M388.615 151.883C388.275 151.645 387.806 151.728 387.569 152.069C387.331 152.409 387.414 152.878 387.754 153.115C393.353 157.025 391.817 162.461 389.543 166.333C389.332 166.691 389.452 167.152 389.81 167.361C389.93 167.431 390.06 167.464 390.19 167.464C390.447 167.464 390.699 167.331 390.838 167.094C394.507 160.847 393.718 155.446 388.615 151.883Z" fill="#272727"/>
<path d="M499.431 154.43C495.048 153.178 490.078 154.405 485.806 157.801C485.471 158.067 485.415 158.554 485.681 158.889C485.834 159.081 486.059 159.181 486.287 159.181C486.455 159.181 486.626 159.126 486.768 159.014C490.645 155.933 495.104 154.802 499.006 155.918C499.415 156.035 499.845 155.797 499.962 155.386C500.079 154.976 499.841 154.548 499.431 154.43Z" fill="white"/>
<path d="M459.755 114.483C458.082 112.81 443.256 112.699 440.135 112.81C437.014 112.921 436.902 116.377 434.45 119.945L463.88 120.726C462.318 119.722 460.542 115.271 459.755 114.483Z" fill="#3092F7"/>
<path d="M421.456 133.985C421.051 133.89 420.647 134.138 420.551 134.541C420.162 136.173 419.617 137.842 418.928 139.5C417.473 143.013 417.49 146.269 417.512 150.04C417.534 153.846 417.557 158.162 416.054 163.843C411 182.938 401.889 199.683 401.797 199.85C401.597 200.214 401.731 200.67 402.095 200.87C402.209 200.933 402.334 200.962 402.454 200.962C402.72 200.962 402.978 200.82 403.113 200.572C403.206 200.403 412.404 183.505 417.505 164.228C419.06 158.353 419.035 153.932 419.013 150.03C418.992 146.423 418.975 143.307 420.315 140.075C421.034 138.343 421.604 136.598 422.012 134.888C422.109 134.486 421.86 134.082 421.456 133.985Z" fill="#272727"/>
<path d="M468.309 118.327C462.336 116.743 446.439 116.267 441.71 116.159C441.31 116.149 440.951 116.477 440.941 116.893C440.932 117.308 441.26 117.652 441.675 117.661C454.188 117.947 464.001 118.739 467.924 119.78C467.988 119.797 468.054 119.805 468.118 119.805C468.451 119.805 468.754 119.583 468.844 119.245C468.947 118.846 468.708 118.433 468.309 118.327Z" fill="#272727"/>
<path d="M352.673 254.639C352.276 254.522 351.857 254.748 351.739 255.145C351.445 256.135 348.421 258.686 346.795 260.056C346.409 260.381 346.053 260.683 345.748 260.945C345.435 261.217 345.4 261.69 345.672 262.006C345.82 262.177 346.03 262.265 346.24 262.265C346.414 262.265 346.589 262.206 346.731 262.082C347.031 261.823 347.382 261.526 347.763 261.206C350.592 258.821 352.787 256.89 353.177 255.573C353.297 255.175 353.069 254.756 352.673 254.639Z" fill="#272727"/>
<path d="M353.68 260.076C353.29 259.937 352.86 260.141 352.72 260.531C352.417 261.379 350.258 262.965 347.349 264.478C346.981 264.669 346.839 265.123 347.029 265.491C347.164 265.748 347.424 265.895 347.696 265.895C347.813 265.895 347.932 265.869 348.043 265.809C350.055 264.763 353.521 262.751 354.135 261.036C354.274 260.647 354.071 260.217 353.68 260.076Z" fill="#272727"/>
</g>
<defs>
<linearGradient id="paint0_linear" x1="156.983" y1="275.461" x2="427.99" y2="584.036" gradientUnits="userSpaceOnUse">
<stop stop-color="white"/>
<stop offset="0.2597" stop-color="#FCEBC4"/>
<stop offset="0.7722" stop-color="#F5C654"/>
<stop offset="1" stop-color="#F3B727"/>
</linearGradient>
<clipPath id="clip0">
<rect width="705" height="515" fill="white"/>
</clipPath>
</defs>
</svg>
