<svg width="362" height="362" viewBox="0 0 362 362" fill="none" xmlns="http://www.w3.org/2000/svg">
<g clip-path="url(#clip0)">
<g clip-path="url(#clip1)">
<path d="M363.449 362.934L363.449 -1.46971L-0.95459 -1.46973L-0.954606 362.934L363.449 362.934Z" fill="#FF4E00"/>
<path d="M181.247 -1.46972C181.902 98.5042 101.382 180.078 1.40834 180.732C0.620696 180.742 -0.166954 180.742 -0.954598 180.732L-0.95459 -1.46973L181.247 -1.46972Z" fill="white"/>
<path d="M181.248 362.934C181.248 262.306 262.821 180.732 363.45 180.732L363.45 362.934L181.248 362.934Z" fill="white"/>
<path d="M363.449 180.732C260.961 180.732 181.247 101.019 181.247 -1.46973L363.449 -1.46972L363.449 180.732Z" fill="white"/>
<path d="M-0.95459 180.732C99.0193 180.078 180.593 260.598 181.247 360.572C181.257 361.359 181.257 362.147 181.247 362.934L-0.954598 362.934L-0.95459 180.732Z" fill="white"/>
</g>
</g>
<defs>
<clipPath id="clip0">
<rect width="362" height="362" fill="white"/>
</clipPath>
<clipPath id="clip1">
<rect width="364.404" height="364.404" fill="white" transform="translate(363.449 -1.46973) rotate(90)"/>
</clipPath>
</defs>
</svg>
