<svg width="484" height="425" fill="none" xmlns="http://www.w3.org/2000/svg"><path clip-rule="evenodd" d="M81.9 1l14.8 80.2 63.2-26.3-58.6 46 52.4 25.8L93 115.4l12.7 75.3-31.3-73.2-55.2 59.8 36.4-68.1L1 90.9l52.2-3.3L37.5 54l30.4 24.1L81.9 1z" stroke="#000" stroke-width="3"/><path d="M309.347 0l33.166 179.532L484 120.754 352.706 223.845l117.297 57.712-135.858-25.278L362.595 425l-69.983-164-123.687 133.85 81.393-152.58L128 201.156l116.841-7.31-35.144-75.376 68.158 53.906L309.347 0z" fill="#000"/></svg>