<svg width="261" height="267" fill="none" xmlns="http://www.w3.org/2000/svg"><path clip-rule="evenodd" d="M42.128 191.812l.6-1.198-1.04-.845C17.185 169.886 2 141.912 2 110.986 2 51.038 59.226 2 130.406 2s128.405 49.038 128.405 108.986c0 59.949-57.225 108.987-128.405 108.987-19.149 0-37.31-3.558-53.624-9.932l-.891-.348-.751.593L5.184 265.59l36.944-73.778z" stroke="#6983FF" stroke-width="3"/><path d="M47.835 144.489c10.425-26.963 35.05-77.112 50.15-62.013 15.098 15.099 6.29 44.038 0 56.62 8.088-10.605 23.726-26.854 21.569-7.01-2.697 24.805-4.314-21.03 18.334-7.01 22.648 14.02 9.167 29.119 0 19.413s10.245-26.962 22.648-16.178c12.402 10.785 16.177 24.805 27.501 10.785 9.06-11.216 19.232-47.093 23.187-63.63" stroke="#000" stroke-width="8" stroke-linecap="round"/></svg>