<svg width="371" height="353" viewBox="0 0 371 353" fill="none" xmlns="http://www.w3.org/2000/svg">
<path d="M284.079 208.218L239.987 201.057L250.434 173.074C252.744 166.881 249.725 164.066 243.715 166.812L191.501 190.683L169.704 160.614C166.573 156.298 162.644 156.906 160.965 161.967L149.284 197.227L92.2951 190.265C85.736 189.465 83.71 193.062 87.7843 198.266L106.211 221.771L66.3432 241.934C58.8449 245.724 59.496 249.928 67.7903 251.279L111.882 258.44L101.435 286.423C99.1256 292.616 102.144 295.431 108.154 292.685L160.368 268.814L182.167 298.89C185.297 303.205 189.227 302.597 190.905 297.536L202.587 262.276L259.575 269.238C266.134 270.038 268.16 266.442 264.086 261.237L245.665 237.725L285.526 217.563C293.024 213.773 292.373 209.569 284.079 208.218Z" fill="#171717"/>
<mask id="mask0" mask-type="alpha" maskUnits="userSpaceOnUse" x="0" y="32" width="371" height="304">
<path d="M0 230.091L32.2992 324.341L46.2426 335.284L146.67 324.341L199.443 235.562L294.929 222.148L371 85.3617L332.7 32.4121H81.0128L54.7146 150.49L0 230.091Z" fill="#C4C4C4"/>
</mask>
<g mask="url(#mask0)">
<path fill-rule="evenodd" clip-rule="evenodd" d="M299.18 272.971H352.194C352.974 272.971 353.606 272.339 353.606 271.559C353.606 270.779 352.974 270.147 352.194 270.147H289.625H262.785L156.646 562.326C156.38 563.059 155.57 563.437 154.837 563.171C154.104 562.905 153.725 562.095 153.992 561.362L259.78 270.147H211.307C208.849 270.147 206.856 268.154 206.856 265.696C206.856 263.238 208.849 261.245 211.307 261.245H304.172C304.02 260.899 304.004 260.489 304.179 260.1L319.368 226.375C320.097 224.758 321.22 223.349 322.635 222.278L325.493 220.117C328.776 217.634 332.986 216.733 336.992 217.649V217.649L357.8 167.004C360.487 163.929 363.276 162.993 366.166 164.195C366.212 164.214 366.258 164.234 366.303 164.254C369.67 165.744 371.193 169.681 369.703 173.049C360.662 193.489 353.632 209.381 348.613 220.726L376.525 228.128C377.278 228.328 377.727 229.101 377.528 229.855C377.328 230.609 376.555 231.058 375.801 230.858L347.457 223.341C346.207 226.166 345.1 228.669 344.134 230.851C346.332 231.688 347.334 235.004 347.719 240.852C347.771 241.648 347.154 242.33 346.357 242.356C338.447 242.619 331.779 243.896 326.353 246.175C323.708 247.285 321.54 249.125 319.853 251.719C321.579 251.768 323.153 251.981 324.792 252.476C328.406 253.57 331.02 255.829 332.103 259.465L358.085 259.682H529.92L562.599 363.018C563.995 367.433 563.218 372.016 560.867 375.611H611.25C612.292 372.36 614.689 370.329 617.969 369.338C619.416 368.9 620.806 368.702 622.316 368.645C620.798 366.383 618.868 364.771 616.526 363.789C611.57 361.71 605.478 360.543 598.249 360.302L581.167 360.302C580.387 360.302 579.755 359.669 579.754 358.89C579.755 358.11 580.387 357.478 581.167 357.478H598.273L598.319 357.478C605.881 357.729 612.314 358.96 617.618 361.185C622.967 363.428 626.467 368.287 628.132 375.611H642.577C641.04 368.16 638.059 363.421 633.696 361.271C628.619 358.77 618.269 354.692 602.689 349.06C602.16 348.868 601.814 348.393 601.763 347.868L592.816 340.152C592.226 339.643 592.16 338.751 592.669 338.16C593.178 337.57 594.07 337.504 594.661 338.013L603.386 345.539C630.525 351.967 645.493 356.422 648.963 359.207C654.194 363.406 657.594 369.267 659.157 376.733C659.188 376.885 659.195 377.034 659.179 377.178H683.881C686.339 377.178 688.332 379.171 688.332 381.629C688.332 384.088 686.339 386.08 683.881 386.08H566.221L649.462 561.238C649.797 561.942 649.497 562.784 648.793 563.119C648.088 563.454 647.246 563.154 646.911 562.45L563.094 386.08H523.223L587.571 511.145H568.197L584.222 561.415C584.513 562.326 583.833 563.256 582.877 563.256H573.753C573.731 563.256 573.709 563.256 573.687 563.256H442.829C441.839 563.256 441.156 562.263 441.51 561.338L443.731 555.548C446.127 549.299 451.38 544.582 457.85 542.871L481.969 536.49L474.065 511.145H442.829L398.977 398.812C399.455 398.482 399.699 397.876 399.541 397.283L376.573 311.36C375.082 305.78 378.184 300.001 383.659 298.161L440.109 279.191C440.848 278.942 441.246 278.142 440.998 277.402C440.749 276.663 439.949 276.265 439.209 276.514L382.76 295.485C375.872 297.799 371.969 305.069 373.845 312.089L396.449 396.652L384.967 510.731H350.345V561.844C350.345 562.624 349.712 563.256 348.933 563.256H334.968C334.189 563.256 333.557 562.624 333.557 561.844V530.707L308.728 562.709C308.461 563.054 308.049 563.256 307.613 563.256H209.146C208.155 563.256 207.473 562.263 207.827 561.338L210.047 555.548C212.444 549.299 217.697 544.582 224.167 542.871L248.871 536.336L254.283 510.731H214.439L260.832 377.476L260.986 377.478L299.18 272.971ZM636.406 196.515L593.176 195.483L537.984 72.6818C535.826 67.8807 537.969 62.2393 542.77 60.0814C543.988 59.5337 545.308 59.2484 546.644 59.2438L733.016 58.6062C737.674 58.5902 741.661 61.9435 742.444 66.5352L763.938 192.604C790.071 199.165 809.422 222.814 809.422 250.982C809.422 284.222 782.476 311.168 749.236 311.168C715.997 311.168 689.05 284.222 689.05 250.982C689.05 238.704 692.727 227.286 699.038 217.766L696.145 220.571C695.119 221.565 693.953 222.402 692.683 223.055C686.669 226.143 681.418 226.955 676.968 225.387C673.217 224.066 670.869 221.838 670.045 218.807C667.344 221.117 664.015 221.863 660.178 220.993C656.009 220.048 653.388 217.646 652.459 213.952C649.351 215.958 646.156 216.415 642.97 215.247C637.063 213.081 633.759 206.79 635.329 200.697L636.406 196.515ZM98.526 206.016L104.285 59.0425C104.486 53.9278 108.69 49.8848 113.809 49.8848H326.77C327.698 49.8848 328.622 50.0203 329.51 50.2872C334.552 51.8005 337.412 57.1143 335.899 62.1559L296.691 192.771C294.63 199.638 288.309 204.34 281.139 204.34H190.811C190.772 204.34 190.732 204.34 190.693 204.341C190.94 204.496 191.184 204.661 191.427 204.837C192.11 205.332 192.721 205.859 193.258 206.417C196.293 209.569 196.68 214.426 194.182 218.02L176.917 242.861C176.88 242.914 176.841 242.964 176.797 243.011L172.059 248.166C168.934 251.568 164.402 253.181 159.92 252.625L151.507 259.945C151.693 261.874 151.789 263.83 151.789 265.808C151.789 299.048 124.843 325.994 91.6027 325.994C58.3629 325.994 31.4167 299.048 31.4167 265.808C31.4167 232.568 58.3629 205.622 91.6027 205.622C93.9441 205.622 96.2543 205.756 98.526 206.016ZM565.233 511.145H477.023L484.986 536.679H529.474C530.254 536.679 530.886 537.311 530.886 538.091C530.886 538.871 530.254 539.503 529.474 539.503H482.011C481.915 539.503 481.821 539.493 481.73 539.475L458.573 545.601C452.98 547.081 448.439 551.158 446.367 556.559L444.882 560.432H571.738L560.188 527.045C559.933 526.308 560.324 525.504 561.061 525.249C561.798 524.994 562.602 525.385 562.857 526.122L574.726 560.432H580.945L565.233 511.145ZM347.521 510.731H257.17L251.454 537.77C251.344 538.292 250.949 538.707 250.434 538.843L224.889 545.601C219.297 547.081 214.756 551.158 212.684 556.559L211.199 560.432H306.921L333.853 525.718C334.678 524.655 336.38 525.238 336.38 526.583V560.432H347.521V510.731ZM147.147 239.007L146.955 239.173C146.788 238.891 146.62 238.611 146.449 238.333L147.147 239.007ZM623.843 371.456C621.959 371.424 620.379 371.559 618.786 372.041C616.667 372.681 615.134 373.817 614.281 375.611H625.23C624.853 374.089 624.391 372.705 623.843 371.456ZM645.456 375.611H655.995C654.43 369.582 651.499 364.863 647.195 361.409C644.972 359.624 635.961 356.662 620.445 352.651C627.07 355.211 631.9 357.239 634.944 358.738C640.316 361.385 643.798 367.054 645.456 375.611ZM335.9 220.305C332.865 219.74 329.694 220.48 327.197 222.369L324.339 224.531C323.301 225.316 322.477 226.349 321.943 227.535L307.654 259.261L313.85 259.313C315.65 251.309 319.449 246.011 325.26 243.571C325.685 243.392 326.116 243.22 326.554 243.053L335.9 220.305ZM340.104 239.963C341.616 239.798 343.177 239.675 344.786 239.595C344.602 237.644 344.328 236.118 343.972 235.031C343.777 234.434 343.565 233.996 343.356 233.722C343.227 233.552 343.142 233.491 343.095 233.48C343.057 233.471 343.018 233.465 342.98 233.461C341.688 236.381 340.729 238.549 340.104 239.963ZM329.098 259.44C328.183 257.275 326.431 255.923 323.974 255.179C322.198 254.642 320.441 254.496 318.338 254.538C317.703 255.973 317.171 257.572 316.743 259.337L329.098 259.44ZM122.882 182.926C128.658 188.63 128.885 194.22 123.316 198.947C122.995 199.219 122.587 199.323 122.2 199.268L123.36 214.673C137.944 223.749 148.361 238.89 151.084 256.57L158.036 250.521C158.298 249.943 158.929 249.595 159.582 249.716C163.387 250.427 167.319 249.151 169.98 246.256L174.653 241.171L191.863 216.408C193.592 213.92 193.325 210.558 191.224 208.375C190.805 207.941 190.321 207.523 189.77 207.124C187.01 205.124 184.001 204.887 180.542 206.437L167.923 223.184C167.454 223.806 166.568 223.931 165.946 223.462C165.323 222.992 165.198 222.107 165.668 221.484L178.624 204.291C179.594 201.079 178.807 198.643 176.204 196.681C173.613 194.729 171.102 194.518 168.406 196.007C168.389 196.017 168.372 196.026 168.355 196.034C168.309 196.16 168.243 196.281 168.158 196.394L155.197 213.594C154.728 214.217 153.842 214.341 153.22 213.872C152.597 213.402 152.472 212.517 152.942 211.894L165.903 194.695C166.037 194.516 166.206 194.379 166.392 194.285C166.439 194.163 166.506 194.042 166.594 193.925L185.031 169.312C186.497 165.056 185.99 162.188 183.647 160.38C181.113 158.425 177.924 158.543 173.824 160.905C173.787 160.926 173.755 160.954 173.728 160.986L140.398 201.442C139.699 202.29 138.342 202.05 137.977 201.014C136.638 197.218 135.654 194.4 135.026 192.557C134.915 192.232 134.803 191.889 134.679 191.497C134.596 191.234 134.522 190.999 134.388 190.565C133.271 186.959 132.683 185.592 131.688 184.707C130.36 183.528 128.923 182.666 127.37 182.115C125.78 181.551 124.087 181.916 122.882 182.926ZM121.365 185.405C121.261 185.851 121.225 186.312 121.259 186.771L121.981 196.357C125.54 193.048 125.4 189.593 121.365 185.405ZM174.598 241.25L174.718 241.1L174.653 241.171L174.598 241.25ZM180.22 167.961C180.767 167.405 181.661 167.398 182.217 167.945C182.773 168.492 182.78 169.386 182.233 169.942C180.26 171.947 177.785 171.927 175.343 170.025C172.88 168.107 172.28 165.751 173.908 163.519C174.367 162.889 175.251 162.751 175.881 163.21C176.511 163.67 176.649 164.553 176.189 165.183C175.55 166.059 175.725 166.743 177.078 167.797C178.453 168.868 179.321 168.875 180.22 167.961ZM91.6027 323.17C123.283 323.17 148.965 297.488 148.965 265.808C148.965 234.128 123.283 208.446 91.6027 208.446C59.9225 208.446 34.2407 234.128 34.2407 265.808C34.2407 297.488 59.9225 323.17 91.6027 323.17ZM111.157 261.854C109.515 262.353 107.583 261.971 105.454 260.799C104.771 260.423 104.522 259.564 104.898 258.881C105.274 258.198 106.133 257.949 106.816 258.325C108.558 259.284 109.797 259.459 110.687 259.001L110.429 257.437C110.337 256.876 110.59 256.314 111.072 256.011L124.124 247.815L114.072 245.107C114.7 247.472 113.615 250.035 111.344 251.185C109.248 252.247 106.994 252.926 104.588 253.221C102.182 253.516 99.8299 253.403 97.5391 252.88C96.0047 252.529 94.7057 251.515 93.9944 250.11C92.673 247.502 93.7166 244.316 96.3253 242.994C98.4215 241.932 100.676 241.254 103.082 240.958C104.507 240.783 105.912 240.752 107.298 240.864C106.2 238.144 104.41 235.836 102.183 234.108L83.1065 242.859L66.6623 245.776C66.5724 246.358 66.5261 246.953 66.5261 247.555V287.909C75.828 290.053 84.6373 290.759 92.9572 290.031C101.185 289.311 108.467 287.314 114.814 284.044L111.157 261.854ZM105.582 243.622C104.87 243.626 104.152 243.672 103.426 243.761C101.342 244.017 99.4031 244.601 97.6014 245.513C96.384 246.13 95.897 247.617 96.5137 248.834C96.8456 249.49 97.4518 249.963 98.1678 250.127C100.137 250.576 102.16 250.674 104.244 250.418C106.327 250.162 108.267 249.578 110.068 248.666C111.286 248.049 111.773 246.562 111.156 245.345C111.035 245.106 110.878 244.892 110.693 244.708C110.717 244.825 110.734 244.945 110.745 245.068C110.889 246.718 109.747 248.167 108.193 248.303C106.639 248.439 105.263 247.211 105.118 245.56C105.056 244.846 105.234 244.171 105.582 243.622ZM110.416 241.197L127.979 245.93C129.169 246.25 129.406 247.834 128.363 248.489L113.368 257.904L117.765 284.588C117.863 285.182 117.574 285.772 117.044 286.059C110.139 289.798 102.189 292.058 93.2033 292.844C84.2459 293.628 74.7712 292.811 64.7826 290.399C64.1487 290.245 63.7021 289.678 63.7021 289.026V247.555C63.7021 241.633 67.3092 236.309 72.8086 234.114L85.073 229.217C86.3575 228.704 87.6938 228.332 89.0585 228.107C98.504 226.551 107.574 232.21 110.416 241.197ZM93.0053 267.585C87.6691 270.422 81.0432 268.396 78.2059 263.06C75.3686 257.724 77.3944 251.098 82.7305 248.261C83.4191 247.895 84.274 248.156 84.6401 248.844C85.0062 249.533 84.7449 250.388 84.0563 250.754C80.0972 252.859 78.5942 257.775 80.6993 261.734C82.8044 265.693 87.7204 267.196 91.6795 265.091C92.3681 264.725 93.223 264.987 93.5891 265.675C93.9552 266.364 93.6939 267.219 93.0053 267.585ZM749.236 308.344C780.917 308.344 806.598 282.662 806.598 250.982C806.598 219.302 780.917 193.62 749.236 193.62C717.556 193.62 691.874 219.302 691.874 250.982C691.874 282.662 717.556 308.344 749.236 308.344ZM739.701 230.278C740.372 230.944 740.7 231.941 740.485 232.952C740.153 234.516 738.647 235.521 737.121 235.197C735.869 234.931 734.993 233.852 734.903 232.609C734.391 233.015 733.894 233.467 733.411 233.967C736.201 235.873 739.072 236.666 742.067 236.383C744.011 236.199 745.797 235.581 747.436 234.518C746.688 233.268 746 231.873 745.371 230.333C744.028 229.996 742.663 229.895 741.271 230.027C740.736 230.078 740.213 230.161 739.701 230.278ZM770.522 256.413L769.161 271.625C769.103 272.28 768.6 272.808 767.949 272.898C760.384 273.947 752.203 273.533 743.409 271.664C734.576 269.787 727.949 267.134 723.518 263.663C723.113 263.346 722.913 262.834 722.995 262.326L725.181 248.806C725.173 248.609 725.206 248.419 725.272 248.245L725.991 243.8L715.469 241.563C714.46 241.349 714.014 240.161 714.632 239.336L725.103 225.357C732.036 216.101 744.012 212.161 755.086 215.493L763.762 218.103C769.537 219.841 773.296 225.398 772.758 231.404L772.017 239.69L798.266 247.774C798.413 247.82 798.557 247.874 798.697 247.938C800.469 248.75 801.248 250.845 800.437 252.617L794.215 266.206C794.158 266.331 794.093 266.452 794.022 266.57C793.009 268.236 790.837 268.765 789.171 267.752L770.522 256.413ZM742.019 217.687C736.288 218.904 731.037 222.145 727.364 227.05L718.217 239.26L727.893 241.317C728.629 241.474 729.114 242.18 728.993 242.924L728.689 244.808C730.635 245.114 732.151 245.382 733.243 245.614C733.936 245.762 734.469 245.896 734.857 246.025C735.098 246.105 735.298 246.187 735.474 246.284C735.91 246.526 736.224 246.826 736.321 247.425C736.435 248.13 736.104 248.613 735.648 248.918C735.478 249.032 735.302 249.109 735.099 249.176C734.844 249.26 734.525 249.332 734.123 249.402C733.48 249.514 732.613 249.622 731.528 249.732C731.269 249.758 730.998 249.784 730.715 249.81C730.103 249.867 728.793 249.977 727.84 250.057L725.919 261.936C729.967 264.868 735.995 267.201 743.996 268.902C752.048 270.614 759.532 271.059 766.45 270.243L768.948 242.303C767.653 239.988 765.36 238.206 762.505 237.599C758.955 236.845 755.462 238.103 753.289 240.585C751.536 239.348 750.125 238.098 749.055 236.833C747.022 238.171 744.777 238.963 742.333 239.194C738.147 239.59 734.166 238.269 730.452 235.283C729.841 234.792 729.747 233.898 730.242 233.29C733.203 229.659 736.81 227.613 741.005 227.216C742.103 227.112 743.186 227.126 744.255 227.257C743.352 224.452 742.607 221.262 742.019 217.687ZM669.93 214.772C669.934 214.67 669.95 214.567 669.978 214.465L678.857 181.78C678.783 181.629 678.734 181.46 678.718 181.274C678.347 177.088 676.531 174.588 673.162 173.507C669.563 172.351 666.754 173.436 664.404 176.951C664.252 177.179 664.056 177.342 663.84 177.445L655.155 210.644C655.105 210.836 655.017 211.009 654.902 211.156C654.91 211.21 654.916 211.265 654.919 211.321C655.114 215.165 656.99 217.374 660.803 218.239C664.634 219.107 667.591 217.987 669.93 214.772ZM672.561 215.546C672.56 215.56 672.559 215.574 672.559 215.588C672.326 219.058 674.009 221.351 677.906 222.724C681.528 223.999 686.011 223.306 691.393 220.543C692.415 220.017 693.354 219.344 694.179 218.544L701.382 211.56L694.634 209.258C694 209.042 693.605 208.409 693.689 207.745L696.17 188.073C696.147 182.71 694.404 179.758 690.94 178.808C687.795 177.945 684.817 178.78 681.88 181.425L672.703 215.205C672.67 215.327 672.622 215.441 672.561 215.546ZM652.391 210.49C652.365 210.308 652.373 210.118 652.423 209.929L661.412 175.569C661.441 175.456 661.484 175.35 661.537 175.252C660.468 171.726 658.305 169.517 654.969 168.493C653.616 168.077 652.361 167.91 651.203 167.983C648.458 168.156 646.135 170.075 645.449 172.739L638.063 201.402C636.855 206.09 639.398 210.93 643.943 212.596C646.709 213.61 649.472 212.952 652.391 210.49ZM648.541 178.397C648.281 180.084 649.069 181.068 651.386 181.669C653.693 182.267 654.749 181.845 655.204 180.405C655.439 179.662 656.232 179.25 656.976 179.485C657.719 179.72 658.132 180.513 657.897 181.256C656.936 184.297 654.312 185.345 650.678 184.402C647.053 183.463 645.25 181.211 645.75 177.967C645.869 177.197 646.59 176.668 647.361 176.787C648.131 176.906 648.66 177.627 648.541 178.397ZM666.541 184.065C666.281 185.751 667.069 186.735 669.387 187.336C671.694 187.934 672.749 187.513 673.204 186.073C673.439 185.329 674.233 184.917 674.976 185.152C675.72 185.387 676.132 186.18 675.897 186.924C674.936 189.964 672.313 191.012 668.678 190.07C665.054 189.13 663.25 186.878 663.75 183.635C663.869 182.864 664.59 182.335 665.361 182.454C666.132 182.573 666.66 183.294 666.541 184.065ZM684.2 188.794C683.94 190.48 684.728 191.464 687.046 192.065C689.352 192.663 690.408 192.242 690.863 190.802C691.098 190.058 691.891 189.646 692.635 189.881C693.378 190.116 693.791 190.909 693.556 191.653C692.595 194.693 689.971 195.741 686.337 194.799C682.712 193.859 680.909 191.607 681.409 188.364C681.528 187.593 682.249 187.064 683.02 187.183C683.79 187.302 684.319 188.023 684.2 188.794ZM468.887 97.7938C462.647 94.4047 457.995 91.8666 454.931 90.1792C452.03 88.5813 448.531 86.6332 444.436 84.335C437.603 90.4897 434.974 99.4256 436.567 111.305L444.432 110.34C445.206 110.245 445.91 110.795 446.005 111.569C446.1 112.343 445.55 113.047 444.776 113.143L435.541 114.276C434.786 114.369 434.093 113.847 433.975 113.095C432.41 103.181 433.546 94.9531 437.392 88.4856L433.014 92.4261C431.957 94.7135 431.388 97.2648 431.433 99.9399L431.967 132.025C438.666 134.431 446.098 135.136 454.28 134.131C462.448 133.128 469.504 131.092 475.454 128.03L472.877 116.164C472.684 115.276 473.368 114.44 474.276 114.452C474.645 114.457 475.017 114.437 475.389 114.391C479.839 113.845 483.004 109.794 482.458 105.343C481.911 100.893 477.86 97.728 473.41 98.2745C472.535 98.3818 471.699 98.6254 470.921 98.994C470.099 99.3832 469.129 98.9059 468.936 98.0175L468.914 97.9145C468.905 97.8742 468.896 97.834 468.887 97.7938ZM453.028 79.7541C461.584 81.0768 468.829 87.2571 471.301 95.8363C471.874 95.6677 472.464 95.5454 473.066 95.4715C479.064 94.735 484.524 99.0007 485.261 104.999C485.987 110.914 481.85 116.305 475.983 117.161L478.441 128.477C478.574 129.09 478.286 129.718 477.735 130.017C471.265 133.534 463.559 135.837 454.624 136.934C445.634 138.038 437.441 137.173 430.063 134.329C429.526 134.122 429.169 133.61 429.159 133.035L428.609 99.9868C428.481 92.2541 432.756 85.4105 439.194 81.9533C434.982 80.5308 432.363 76.1809 433.226 71.6937C433.692 69.2741 435.105 67.2165 437.057 65.9036C434.401 64.3418 432.852 61.2499 433.404 58.033C433.965 54.7682 436.568 52.2381 439.847 51.7705L445.376 50.9821C449.344 50.4164 453.019 53.1743 453.585 57.1421C453.586 57.1504 453.587 57.1587 453.588 57.167C453.956 59.8103 452.931 62.3374 451.062 63.9904C454.137 64.9861 456.517 67.6838 456.944 71.1027C456.945 71.1117 456.946 71.1207 456.947 71.1297C457.37 74.6156 455.76 77.8962 453.028 79.7541ZM445.959 98.7665C446.209 98.6733 446.475 98.6164 446.754 98.6018C448.311 98.5202 449.644 99.7955 449.731 101.45C449.771 102.221 449.534 102.938 449.113 103.492C450.082 103.446 451.041 103.277 451.991 102.987C454.883 102.103 457.213 100.237 459.009 97.3347C455.897 95.9326 452.922 95.6888 450.03 96.573C448.522 97.0343 447.166 97.7629 445.959 98.7665ZM444.302 100.428C443.845 100.975 443.416 101.574 443.013 102.225C443.447 102.421 443.878 102.594 444.306 102.744C444.184 102.435 444.109 102.099 444.091 101.746C444.066 101.279 444.144 100.831 444.302 100.428ZM452.817 105.687C448.771 106.924 444.598 106.368 440.376 104.064C439.702 103.696 439.446 102.857 439.799 102.175C442.01 97.904 445.159 95.1094 449.205 93.8724C453.251 92.6354 457.424 93.1915 461.646 95.496C462.32 95.8638 462.576 96.7027 462.223 97.3845C460.012 101.656 456.863 104.45 452.817 105.687ZM439.811 118.038C439.074 117.784 438.681 116.981 438.935 116.243C439.188 115.506 439.991 115.114 440.729 115.367C442.478 115.968 444.516 115.653 446.907 114.333C447.59 113.956 448.449 114.204 448.825 114.887C449.202 115.57 448.954 116.429 448.271 116.806C445.231 118.483 442.389 118.923 439.811 118.038ZM569.518 81.9506L604.388 156.129C604.619 156.622 605.113 156.937 605.657 156.941L734.35 157.764C735.241 157.769 735.914 156.959 735.745 156.084L721.227 80.8955C721.099 80.2305 720.517 79.7504 719.839 79.7512L570.795 79.9379C569.761 79.9392 569.079 81.0149 569.518 81.9506ZM718.676 82.5767L732.646 154.929L606.565 154.122L573.019 82.7591L718.676 82.5767ZM657.25 141.232C661.191 141.232 666.259 139.67 669.392 137.755C675.325 134.127 677.901 128.045 677.901 120.581C677.901 115.943 676.774 111.084 674.192 107.637C670.426 102.608 664.017 99.9309 657.25 99.9309C650.529 99.9309 644.733 103.513 640.962 108.485C638.334 111.949 636.6 115.897 636.6 120.581C636.6 126.798 639.867 132.198 644.214 135.983C647.841 139.142 652.063 141.232 657.25 141.232ZM136.257 91.9567C134.112 91.9567 132.374 93.6952 132.374 95.8397C132.374 97.9842 134.112 99.7227 136.257 99.7227H282.045C284.189 99.7227 285.928 97.9842 285.928 95.8397C285.928 93.6952 284.189 91.9567 282.045 91.9567H136.257ZM136.963 118.785C134.818 118.785 133.08 120.523 133.08 122.667C133.08 124.812 134.818 126.55 136.963 126.55H193.26C195.404 126.55 197.143 124.812 197.143 122.667C197.143 120.523 195.404 118.785 193.26 118.785H136.963ZM212.151 118.785C210.007 118.785 208.268 120.523 208.268 122.667C208.268 124.812 210.007 126.55 212.151 126.55H239.954C242.099 126.55 243.837 124.812 243.837 122.667C243.837 120.523 242.099 118.785 239.954 118.785H212.151ZM257.335 118.785C255.19 118.785 253.452 120.523 253.452 122.667C253.452 124.812 255.19 126.55 257.335 126.55H278.115C280.259 126.55 281.998 124.812 281.998 122.667C281.998 120.523 280.259 118.785 278.115 118.785H257.335Z" fill="white"/>
<path fill-rule="evenodd" clip-rule="evenodd" d="M400.281 259.927L394.971 247.173C391.417 238.637 384.693 231.911 376.334 228.315L386.507 150.203C387.581 141.956 395.092 136.109 403.35 137.091L427.479 139.957L428.885 132.192L477.542 125.081L491.459 147.559L521.19 151.091C526.747 151.752 531.598 155.17 534.089 160.181L623.018 339.082H554.743L529.474 259.833L400.281 259.927ZM223.977 152.672H262.806C268.168 152.672 272.514 157.018 272.514 162.379C272.514 167.741 268.168 172.087 262.806 172.087H223.977C218.615 172.087 214.269 167.741 214.269 162.379C214.269 157.018 218.615 152.672 223.977 152.672ZM651.986 112.793C651.986 112.615 657.516 114.763 668.577 119.238L654.946 130.786C652.973 118.97 651.986 112.972 651.986 112.793ZM530.133 257.907L514.987 200.933C514.786 200.179 514.013 199.731 513.259 199.931C512.506 200.132 512.057 200.905 512.258 201.659L527.403 258.632C527.604 259.386 528.377 259.835 529.131 259.634C529.884 259.434 530.333 258.661 530.133 257.907ZM86.7407 284.723C87.2983 284.731 87.8559 284.725 88.4132 284.707L124.169 283.514C124.657 283.497 125.141 283.608 125.573 283.834C126.955 284.558 127.489 286.264 126.765 287.646L121.761 297.205L133.162 305.335C129.935 308.716 126.963 311.303 124.246 313.098C122.514 314.243 120.871 315.16 119.733 315.831C114.328 319.023 108.843 320.663 104.929 321.629C100.35 322.758 95.6537 323.21 90.4069 323.21C89.4447 323.21 86.5308 323.027 85.5952 322.929C78.2754 322.161 69.8829 320.098 60.5507 314.133C58.836 313.037 55.6387 310.652 52.7251 307.999C52.193 307.514 51.3809 306.713 50.2888 305.595L61.6683 297.205L58.0183 288.246C57.8754 287.896 57.8045 287.52 57.8098 287.141C57.8317 285.582 59.1136 284.335 60.6731 284.357L86.7407 284.723ZM744.517 264.05L778.345 265.562C779.903 265.631 781.109 266.951 781.04 268.509C781.025 268.846 780.949 269.177 780.817 269.488L778.541 274.839C776.197 280.351 777.386 286.731 781.558 291.028L785.698 295.292C775.328 304.072 763.174 308.462 749.236 308.462C744.306 308.462 738.389 307.587 733.104 306.07C730.233 305.247 727.414 304.079 725.114 303.025C722.513 301.834 719.551 300.212 716.342 297.993C715.651 297.515 714.601 296.717 713.194 295.598C716.986 289.97 718.281 283.024 716.772 276.408L713.871 263.69C713.524 262.17 714.475 260.656 715.996 260.309C716.334 260.232 716.683 260.218 717.026 260.267L741.067 263.725C742.211 263.89 743.362 263.998 744.517 264.05Z" fill="#FF4E00"/>
</g>
</svg>
