<svg width="433" height="353" viewBox="0 0 433 353" fill="none" xmlns="http://www.w3.org/2000/svg">
<path d="M321.104 86.9933L307.28 129.47L281.225 114.864C275.459 111.634 272.214 114.187 274.009 120.546L289.609 175.798L256.558 192.737C251.814 195.171 251.814 199.147 256.558 201.58L289.615 218.519L274.015 273.771C272.221 280.131 275.465 282.683 281.232 279.453L307.28 264.841L321.104 307.324C323.702 315.314 327.956 315.314 330.56 307.324L344.384 264.847L370.439 279.453C376.206 282.683 379.45 280.131 377.655 273.771L362.055 218.519L395.112 201.58C399.856 199.147 399.856 195.171 395.112 192.737L362.055 175.798L377.655 120.546C379.45 114.187 376.206 111.634 370.439 114.864L344.384 129.47L330.56 86.9933C327.962 79.0034 323.708 79.0034 321.104 86.9933Z" fill="#171717"/>
<path fill-rule="evenodd" clip-rule="evenodd" d="M181.261 266.823C181.25 266.797 181.238 266.77 181.224 266.744L181.031 266.387L186.003 255.283C186.166 254.918 186.003 254.489 185.638 254.326C185.272 254.162 184.844 254.326 184.68 254.691L180.164 264.777L175.075 255.334C174.885 254.982 174.446 254.85 174.093 255.04C173.741 255.23 173.609 255.669 173.799 256.022L179.417 266.446L179.276 266.761C179.267 266.781 179.259 266.8 179.252 266.82L155.237 289.778L154.896 289.601L135.149 314.266C134.94 314.527 134.58 314.611 134.277 314.47L69.2594 284.152C68.7988 283.937 68.6966 283.327 69.0621 282.974L72.1208 280.018C74.1138 278.092 76.7769 277.016 79.5484 277.016H102.057L113.471 268.003L83.5949 252.426L143.329 194.534L103.364 187.487L105.451 175.652L81.7528 169.444C81.4295 169.359 81.2061 169.064 81.2119 168.73L82.254 109.031L55.8233 118.798C54.5604 121.764 52.6301 124.718 50.0402 127.885C44.1139 135.133 37.0509 139.192 28.8044 139.192C21.1177 139.192 13.9158 134.96 7.67594 127.907C2.40304 121.946 0 116.891 0 110.207C0 103.981 2.12993 97.5864 5.7328 92.6407C11.0283 85.3713 19.3558 81.2214 28.8044 81.2214C34.4119 81.2214 39.8743 83.5479 45.4153 87.6947L53.429 75.2532C56.467 70.5365 61.5191 67.4936 67.109 67.0135L92.1709 64.8613C93.3161 64.7629 94.4395 65.2163 95.1956 66.0819C96.5059 67.582 96.352 69.8603 94.852 71.1706L92.3064 73.394C91.6906 73.9319 91.3498 74.7184 91.3783 75.5355C91.4307 77.0353 92.689 78.2087 94.1889 78.1564L98.6782 77.9996C99.8094 77.9601 100.887 78.4812 101.559 79.3923C102.683 80.9171 102.358 83.0643 100.833 84.1882L97.5238 86.6275C96.9117 87.0787 96.5167 87.7656 96.4346 88.5214C96.2725 90.0134 97.3506 91.3543 98.8426 91.5164L107.345 92.44C108.711 92.5884 109.876 93.4971 110.352 94.7862C111.046 96.6632 110.087 98.747 108.21 99.4406L93.8746 104.737L101.985 121.751L113.602 129.421L116.573 112.572L157.759 129.742L158.931 124.227C159.052 123.657 159.603 123.283 160.178 123.382L204.498 130.958C205.09 131.059 205.488 131.621 205.387 132.213C205.383 132.234 205.383 132.234 205.378 132.256C204.159 137.913 203.016 143.216 201.949 148.163L202.024 148.195L223.356 179.463C219.788 177.592 215.355 178.245 212.475 181.182C210.34 183.36 208.662 185.365 207.44 187.196C205.281 190.433 203.668 192.85 202.602 194.448L211.865 196.319C211.903 196.237 211.958 196.16 212.028 196.095C213.349 194.863 214.806 192.984 216.39 190.464C218.033 187.849 220.609 184.677 224.121 180.939C224.395 180.648 224.854 180.633 225.145 180.907C225.437 181.181 225.451 181.64 225.177 181.932C221.724 185.607 219.203 188.711 217.617 191.235C216.167 193.543 214.806 195.348 213.528 196.655L221.807 198.327C221.827 198.26 221.857 198.194 221.898 198.133C223.605 195.553 225.284 193.357 226.936 191.543C228.565 189.753 230.406 187.788 232.457 185.648C232.734 185.359 233.193 185.349 233.482 185.626C233.771 185.903 233.781 186.361 233.504 186.65C231.46 188.783 229.628 190.739 228.007 192.519C226.473 194.203 224.906 196.241 223.307 198.63L227.977 199.573C226.446 198.982 225.778 197.882 226.215 196.462C226.333 196.08 226.739 195.865 227.121 195.983C227.504 196.1 227.718 196.506 227.601 196.888C227.399 197.544 227.655 197.935 228.64 198.272C229.638 198.614 230.167 198.437 230.51 197.719C230.682 197.358 231.115 197.205 231.476 197.377C231.837 197.55 231.99 197.982 231.817 198.343C231.333 199.358 230.53 199.874 229.512 199.883L231.574 200.299C231.51 200.036 231.597 199.747 231.822 199.565L241.306 191.896C241.617 191.644 242.073 191.693 242.325 192.004C242.577 192.315 242.528 192.771 242.217 193.023L232.89 200.565L239.096 201.819L237.465 208.937V209.215L253.182 212.37L253.025 212.043L291.044 219.015L278.396 247.049L282.98 249.514C286.036 251.157 289.844 250.039 291.527 247.005C297.044 237.06 302.406 227.526 307.613 218.402C313.176 208.653 317.366 197.793 320.181 185.819C320.794 183.214 319.705 180.505 317.46 179.048L303.316 169.873C302.98 169.655 302.885 169.206 303.102 168.871C303.32 168.535 303.769 168.439 304.105 168.657L318.249 177.832C321.007 179.622 322.345 182.95 321.592 186.151C318.745 198.257 314.505 209.248 308.871 219.121C303.668 228.239 298.309 237.769 292.794 247.708C290.727 251.435 286.048 252.809 282.294 250.79L277.798 248.374L268.819 268.276C267.068 272.157 263.045 274.496 258.806 274.099L181.261 266.823ZM152.931 288.576L114.88 268.737L103.692 277.571L115.879 283.088C116.243 283.253 116.405 283.682 116.24 284.047C116.075 284.411 115.646 284.573 115.281 284.408L102.152 278.465H79.5484C77.1527 278.465 74.8507 279.395 73.128 281.06L70.8271 283.284L127.019 309.486C133.576 303.149 139.393 299.955 144.505 299.955C144.581 299.955 144.655 299.966 144.724 299.988L153.551 288.962L152.931 288.576ZM105.703 174.22L113.328 130.976L101.018 122.849C100.908 122.777 100.82 122.676 100.763 122.557L91.8825 103.926C90.8873 101.839 89.1452 100.2 87.0005 99.3343L83.8946 98.0808L83.1486 140.818C83.343 140.666 83.6098 140.617 83.8563 140.713C93.488 144.438 97.1263 154.735 94.8778 171.384H94.8778L105.703 174.22ZM274.106 138.287C274.586 138.418 275.081 138.488 275.591 138.497C277.142 138.524 278.576 137.983 279.912 136.851C278.616 135.673 277.203 135.082 275.651 135.055C274.841 135.041 274.064 135.182 273.316 135.48C273.452 135.474 273.592 135.489 273.73 135.526C274.503 135.733 274.951 136.567 274.731 137.388C274.629 137.771 274.399 138.083 274.106 138.287ZM271.878 137.159C271.868 136.989 271.884 136.813 271.931 136.638C271.993 136.406 272.102 136.2 272.244 136.028C271.934 136.223 271.629 136.447 271.329 136.701C271.51 136.865 271.693 137.018 271.878 137.159ZM270.765 129.103L267.954 130.354C267.084 131.297 266.406 132.441 266.001 133.741L261.39 148.547C264.43 150.538 267.63 152.009 270.994 152.961C274.368 153.916 278.428 154.291 283.173 154.079L283.744 148.258C283.789 147.797 284.251 147.496 284.691 147.641C284.857 147.695 285.028 147.74 285.202 147.773C287.461 148.213 289.648 146.737 290.087 144.478C290.526 142.219 289.051 140.032 286.792 139.593C286.356 139.508 285.917 139.494 285.486 139.547C285.066 139.599 284.701 139.284 284.674 138.878C282.167 136.088 280.295 134.032 279.057 132.712C277.894 131.472 276.496 129.966 274.861 128.195C270.55 130.115 267.85 134.06 266.743 140.111L270.735 140.886C271.128 140.963 271.384 141.343 271.308 141.736C271.232 142.129 270.851 142.385 270.458 142.309L265.771 141.398C265.388 141.324 265.133 140.959 265.194 140.573C266.003 135.486 267.862 131.65 270.765 129.103ZM279.783 127.321C283.753 129.323 286.316 133.487 286.173 138.069C286.472 138.079 286.771 138.113 287.069 138.171C290.113 138.762 292.102 141.71 291.51 144.755C290.93 147.74 288.085 149.709 285.105 149.228L284.629 154.087C290.157 153.234 294.543 150.53 296.993 145.989C300.775 138.978 302.384 132.442 302.21 126.363C302.076 121.683 300.913 117.565 299.028 113.827C297.503 110.805 292.981 107.03 287.845 104.745C281.723 102.022 275.549 101.631 270.437 104.165C264.675 107.021 258.466 113.497 254.721 120.651C250.568 128.583 249.935 136.179 253.56 141.642C255.08 143.933 257.338 146.079 260.063 147.932L264.618 133.31C265.799 129.517 268.98 126.861 272.676 126.198C270.849 124.835 270.262 122.299 271.395 120.247C272.005 119.14 273.022 118.36 274.183 118.028C273.134 116.845 272.868 115.09 273.648 113.608C274.439 112.103 276.111 111.281 277.786 111.573L280.609 112.065C282.636 112.418 283.992 114.347 283.639 116.373C283.638 116.377 283.638 116.382 283.637 116.386C283.397 117.734 282.496 118.805 281.321 119.316C282.664 120.289 283.399 121.983 283.064 123.72C283.064 123.724 283.063 123.729 283.062 123.733C282.716 125.502 281.41 126.847 279.783 127.321ZM291.889 87.0575L287.154 102.884V102.884C287.581 103.052 288.007 103.231 288.434 103.421C293.852 105.831 298.629 109.819 300.321 113.174C302.298 117.092 303.518 121.414 303.658 126.321C303.84 132.659 302.169 139.446 298.268 146.677C294.225 154.172 285.471 157.043 275.109 155.367C265.668 153.841 256.508 148.706 252.352 142.443C248.385 136.465 249.063 128.333 253.437 119.979C257.317 112.566 263.741 105.866 269.793 102.866C274.586 100.491 280.175 100.482 285.79 102.385L290.497 86.6551C290.126 86.4555 289.813 86.1956 289.622 85.9049C288.902 84.8061 290.11 82.9901 291.14 82.4726C292.17 81.9552 293.475 82.8218 293.741 83.3563C294.007 83.8908 294.297 84.8941 293.556 86.2791C293.233 86.8825 292.581 87.0977 291.889 87.0575ZM275.566 139.946C273.395 139.908 271.446 138.975 269.751 137.18C269.48 136.894 269.488 136.444 269.768 136.167C271.525 134.433 273.505 133.568 275.676 133.606C277.847 133.644 279.796 134.577 281.491 136.371C281.762 136.658 281.754 137.108 281.473 137.385C279.717 139.119 277.736 139.984 275.566 139.946ZM267.259 143.911C266.939 143.67 266.875 143.216 267.116 142.896C267.356 142.577 267.811 142.512 268.13 142.753C268.889 143.324 269.933 143.493 271.31 143.228C271.703 143.153 272.083 143.41 272.158 143.803C272.234 144.196 271.977 144.576 271.584 144.651C269.834 144.988 268.377 144.752 267.259 143.911ZM128.428 310.143L134.374 312.916L143.558 301.445C139.205 301.814 134.152 304.7 128.428 310.143ZM93.4652 171.014C95.5864 155.061 92.1741 145.484 83.3335 142.064C83.257 142.035 83.1885 141.994 83.129 141.944L82.6709 168.186L93.4652 171.014ZM28.8044 137.743C36.5679 137.743 43.2459 133.905 48.9182 126.968C53.753 121.055 56.1594 115.996 56.1594 110.207C56.1594 101.919 52.4602 95.0726 45.5772 89.6468C39.904 85.1746 34.3862 82.6707 28.8044 82.6707C19.8147 82.6707 11.9243 86.6028 6.90421 93.494C3.47995 98.1946 1.44928 104.291 1.44928 110.207C1.44928 116.488 3.70269 121.228 8.76145 126.946C14.7521 133.718 21.6012 137.743 28.8044 137.743ZM63.4723 184.81L59.2337 205.142L71.2715 213.917L55.9187 215.728L43.9115 229.683L45.9094 212.346L34.4985 202.915L50.5973 202.842L63.4723 184.81ZM15.3971 263.701L27.5279 279.813L40.4921 277.778L32.0508 288.445L33.2538 304.572L23.7078 292.567L10.7258 293.805L20.7135 283.753L15.3971 263.701ZM339.648 80.0928L353.712 98.1032L368.97 95.6575L358.925 107.776L360.148 125.931L349.073 112.518L333.804 114.066L345.658 102.623L339.648 80.0928ZM382.388 170.291L377.16 189.77L386.745 198.733L373.142 198.648L361.175 209.525L364.757 194.612L355.789 185.144L369.86 186.826L382.388 170.291ZM369.342 281.617C368.986 281.248 368.606 280.899 368.201 280.576C381.247 273.827 391.291 268.487 393.419 267.047C400.006 262.591 400.322 254.567 393.955 250.441C389.638 247.643 379.887 249.39 364.859 255.832L356.868 260.041C360.354 262.426 362.984 265.13 364.138 267.37C365.737 270.473 367.406 274.819 367.831 280.295C365.888 278.882 363.399 278.098 360.292 278.78C350.639 280.9 347.724 288.018 338.271 283.913C328.818 279.809 328.042 273.807 318.274 275.829C314.997 276.508 312.468 277.018 310.686 277.359C314.861 268.093 322.878 259.578 330.22 256.016C338.611 251.946 348.448 254.781 355.477 259.135L364.209 254.536C364.226 254.527 364.244 254.519 364.261 254.511C379.748 247.87 389.856 246.057 394.743 249.225C402.014 253.937 401.648 263.23 394.231 268.247C392.095 269.693 382.214 274.952 369.342 281.617ZM366.99 291.264C366.091 295.269 364.486 299.646 361.904 304.37C354.315 318.254 332.448 315.752 319.029 307.148C304.747 314.254 293.494 319.698 291.154 320.495C284.05 322.915 278.087 317.47 276.861 308.795C276.073 303.216 284.648 296.085 302.551 287.011L307.125 284.602L307.065 285.453C313.281 282.449 317.959 281.465 321.099 282.503C325.808 284.06 338.705 294.092 346.869 291.291C354.677 288.612 364.372 284.397 366.99 291.264ZM317.646 306.218C314.771 304.192 312.362 301.875 310.678 299.385C307.963 295.372 307.319 290.619 308.097 285.728L303.222 288.296L303.212 288.301C285.935 297.058 277.641 303.953 278.297 308.593C278.82 312.3 280.34 315.507 282.51 317.488C284.772 319.553 287.591 320.177 290.686 319.123C292.942 318.354 303.782 313.113 317.646 306.218ZM364.885 255.819L364.833 255.843C364.841 255.84 364.85 255.836 364.859 255.832L364.885 255.819ZM219.72 90.9415L220.904 91.4886C220.932 91.4868 220.96 91.4866 220.988 91.488C222.962 91.2427 224.028 90.4381 224.348 89.0515C224.68 87.6108 224.014 86.3819 222.196 85.2621C222.151 85.2344 222.11 85.2026 222.074 85.1674L208.885 79.1311C208.753 79.0707 208.648 78.9758 208.575 78.8619C208.575 78.8619 208.575 78.8619 208.575 78.8619C206.802 78.8387 205.803 79.5535 205.393 81.1081C204.944 82.8059 205.514 84.0759 207.207 85.0836C207.321 85.1509 207.406 85.2391 207.464 85.3382C207.556 85.3419 207.649 85.3635 207.738 85.4046L219.429 90.8072C218.142 89.9769 217.865 88.6476 218.589 87.0893C219.331 85.49 220.534 84.8703 221.957 85.4775C222.325 85.6345 222.496 86.0603 222.339 86.4284C222.182 86.7965 221.756 86.9675 221.388 86.8105C220.757 86.5412 220.342 86.7552 219.903 87.6997C219.459 88.6567 219.58 89.2007 220.258 89.6168C220.599 89.8261 220.706 90.2723 220.497 90.6134C220.33 90.8849 220.014 91.008 219.72 90.9415ZM220.665 92.9748L207.13 86.7202C207 86.66 206.896 86.5661 206.824 86.4536C205.014 86.901 203.944 87.9365 203.521 89.6251C203.219 90.8277 203.309 91.8712 203.778 92.7875C204.111 93.4365 204.651 93.9553 205.313 94.2612L209.18 96.0494C209.223 96.0581 209.265 96.0707 209.307 96.0875L217.31 99.315C219.408 99.4875 220.749 98.8256 221.487 97.3108C222.196 95.8579 221.946 94.452 220.665 92.9748ZM211.906 98.6985L210.516 110.681L228.012 107.927C230.586 107.522 232.574 105.448 232.87 102.859L236.955 67.1133C234.32 64.9266 234.403 62.1125 237.121 59.0182C236.629 58.4462 235.871 58.1204 235.065 58.2131C232.576 58.4994 231.118 59.7889 230.564 62.1898C230.35 63.1142 229.332 66.9015 227.498 73.5914C227.397 73.9589 227.029 74.1855 226.655 74.1101L218.968 72.5578L224.754 75.5729C224.774 75.5833 224.793 75.5945 224.812 75.6067C227.102 77.0842 228.055 78.9906 227.542 81.2127C227.122 83.0293 225.915 84.2267 224.01 84.7805C225.553 86.0701 226.165 87.6221 225.76 89.3775C225.363 91.0961 224.175 92.2119 222.294 92.711C223.47 94.4056 223.652 96.1779 222.79 97.9461C221.757 100.064 219.796 101.005 217.071 100.749C217.001 100.742 216.933 100.726 216.868 100.699L211.906 98.6985ZM213.876 71.5296L211.366 71.0227C211.35 71.0195 211.334 71.0184 211.319 71.0194C208.861 71.1743 207.559 72.0491 207.207 73.6601C206.861 75.2389 207.424 76.4886 208.987 77.5351C209.078 77.5955 209.148 77.6679 209.199 77.7475C209.296 77.7491 209.394 77.7704 209.488 77.8133L222.271 83.664C222.33 83.6402 222.393 83.6237 222.458 83.6158C224.597 83.3595 225.765 82.4648 226.13 80.8867C226.492 79.3166 225.843 78.0057 224.054 76.8423L213.969 71.587C213.936 71.5699 213.905 71.5507 213.876 71.5296ZM237.689 60.6054C236.268 62.4569 236.105 63.9643 237.164 65.2826L237.674 60.8202C237.682 60.7488 237.687 60.6771 237.689 60.6054ZM238.484 66.4968C238.662 66.7414 238.674 67.082 238.489 67.3425C238.455 67.3911 238.416 67.4341 238.373 67.4715L234.31 103.024C233.94 106.26 231.455 108.852 228.237 109.359L209.798 112.261C209.325 112.336 208.911 111.938 208.966 111.462L210.499 98.2555L204.704 95.5767C203.749 95.1348 202.968 94.3854 202.488 93.4481C201.852 92.2055 201.732 90.803 202.115 89.2728C202.569 87.4608 203.641 86.1751 205.28 85.4509C203.945 84.2059 203.498 82.6069 203.991 80.7379C204.424 79.0991 205.411 78.0475 206.876 77.6243C205.807 76.4294 205.433 74.987 205.791 73.3503C206.299 71.0295 208.18 69.765 211.227 69.573C211.37 69.5641 211.513 69.5738 211.653 69.6021L226.279 72.5555C227.991 66.3047 228.952 62.7289 229.152 61.8638C229.844 58.8624 231.803 57.1294 234.9 56.7733C236.987 56.5332 238.874 58.0307 239.114 60.1181C239.147 60.406 239.147 60.6968 239.114 60.9847L238.484 66.4968ZM222.362 81.4442C222.671 81.6989 222.715 82.1557 222.46 82.4643C222.205 82.773 221.749 82.8167 221.44 82.562C220.221 81.5557 220.11 80.1777 221.061 78.7089C222.019 77.2286 223.296 76.7822 224.621 77.5816C224.963 77.7883 225.073 78.2337 224.867 78.5764C224.66 78.919 224.214 79.0292 223.872 78.8224C223.284 78.468 222.843 78.6221 222.278 79.4963C221.704 80.3822 221.749 80.9378 222.362 81.4442ZM217.415 97.2197C217.741 97.4523 217.816 97.9048 217.584 98.2305C217.351 98.5562 216.899 98.6317 216.573 98.3991C215.286 97.4803 215.08 96.1133 215.926 94.5818C216.778 93.0382 218.021 92.504 219.398 93.2089C219.754 93.3913 219.895 93.8279 219.713 94.1841C219.531 94.5404 219.094 94.6813 218.738 94.499C218.127 94.1864 217.698 94.3709 217.195 95.2825C216.685 96.2061 216.768 96.7573 217.415 97.2197ZM192.133 193.696C191.499 196.64 191.091 198.533 190.909 199.376L236.05 208.233L237.308 203.177L192.133 193.696ZM178.471 196.935L189.443 199.088L190.675 193.39L147.632 184.355L146.458 189.879L178.471 196.935ZM191.077 191.532L203.882 132.323L160.276 124.869L147.935 182.929L191.077 191.532ZM177.183 153.17C178.326 153.722 179.316 154.575 179.708 155.354C180.756 157.439 180.826 159.905 179.275 162.784C178.31 164.577 176.265 165.25 173.919 164.871C171.831 164.533 169.807 163.396 168.857 161.961C167.907 160.526 168.065 158.639 169.051 156.751C169.903 155.122 171.308 153.652 172.667 152.977C173.204 152.71 173.778 152.568 174.37 152.539L172.79 149.269C172.616 148.908 172.767 148.475 173.127 148.301C173.488 148.127 173.921 148.278 174.095 148.638L175.299 151.13L175.682 148.708C175.745 148.312 176.116 148.043 176.512 148.105C176.907 148.168 177.177 148.539 177.114 148.934L176.698 151.56L178.713 149.38C178.985 149.087 179.443 149.069 179.737 149.34C180.031 149.612 180.049 150.07 179.777 150.364L177.183 153.17ZM176.397 154.403C175.284 153.907 174.19 153.838 173.312 154.274C172.243 154.806 171.052 156.051 170.336 157.422C169.569 158.889 169.457 160.241 170.065 161.161C170.772 162.229 172.435 163.163 174.15 163.44C175.947 163.731 177.372 163.262 177.999 162.097C179.314 159.655 179.259 157.686 178.413 156.005C178.167 155.515 177.34 154.823 176.397 154.403ZM211.245 192.682C211.385 192.307 211.803 192.117 212.178 192.257C212.552 192.398 212.742 192.815 212.602 193.19C212.048 194.67 210.781 195.223 209.082 194.803C207.371 194.379 206.533 193.317 206.858 191.804C206.941 191.413 207.327 191.164 207.718 191.248C208.109 191.332 208.359 191.717 208.275 192.108C208.131 192.779 208.42 193.146 209.431 193.396C210.455 193.65 210.966 193.427 211.245 192.682ZM220.705 195.208C220.846 194.833 221.263 194.643 221.638 194.783C222.013 194.924 222.203 195.341 222.063 195.716C221.508 197.196 220.241 197.749 218.543 197.329C216.831 196.905 215.994 195.843 216.318 194.33C216.402 193.939 216.787 193.69 217.179 193.774C217.57 193.858 217.819 194.243 217.735 194.634C217.591 195.305 217.88 195.672 218.891 195.922C219.916 196.176 220.426 195.953 220.705 195.208Z" fill="white"/>
<path fill-rule="evenodd" clip-rule="evenodd" d="M223.269 179.417L222.375 178.023L201.679 148.195L204.748 131.736L203.305 130.857L205.813 108.918C205.98 107.461 207.15 106.323 208.612 106.199L234.956 103.959V142.113L257.14 155.104L259.705 149.418C265.378 152.46 269.463 154.223 271.959 154.706C273.986 155.098 276.814 155.83 281.171 155.83C281.896 155.83 283 155.742 284.482 155.567L284.148 159.874L303.513 163.555C306.848 164.188 309.566 166.6 310.594 169.835L325.933 218.151C327.205 222.156 324.989 226.434 320.984 227.705C319.654 228.128 318.234 228.176 316.878 227.845L253.146 212.295L246.357 198.081C244.982 195.203 242.872 192.739 240.24 190.938L224.291 180.025C223.96 179.798 223.618 179.596 223.269 179.417ZM270.472 186.52C270.079 186.442 269.698 186.698 269.62 187.09C269.542 187.483 269.797 187.864 270.19 187.942L284.219 190.724C284.769 190.833 285.229 190.303 285.044 189.774L280.336 176.273C280.204 175.895 279.791 175.696 279.413 175.827C279.035 175.959 278.836 176.372 278.968 176.75L283.259 189.056L270.472 186.52Z" fill="#FF4E00"/>
</svg>
