<svg width="232" height="210" fill="none" xmlns="http://www.w3.org/2000/svg"><g clip-path="url(#clip0)"><path d="M312.071-52.446v167.902l-.188.435-20.646-45.79-34.373 36.598-4.649-50.002-44.426 23.461 11.834-48.816-49.613 7.76 27.049-42.328-49.454-8.786 39.319-31.246-16.564-9.188h141.711z" stroke="#000" stroke-width="7" stroke-linecap="round" stroke-linejoin="round"/><path d="M476.161-12.012l-49.426 8.786 27.022 42.328-49.614-7.76 11.835 48.817-44.398-23.462-4.677 50.002-34.374-36.598-20.458 45.356V-52.446H170.36L143.012-67.61l47.316-16.785-33.644-37.3 50.211-.514-19.701-46.193 47.672 15.812-3.621-50.085 39.913 30.436 12.838-48.545 27.887 41.758 27.887-41.758 12.839 48.545 39.94-30.436-3.649 50.085 47.672-15.812-19.701 46.193 50.211.514-33.62 37.3 47.32 16.785-43.915 24.351 39.294 31.246z" fill="#FFD400" stroke="#000" stroke-width="7" stroke-linecap="round" stroke-linejoin="round"/><path d="M391.929-42.917c0 44.212-35.837 80.056-80.041 80.056-44.203 0-80.036-35.844-80.036-80.056" stroke="#817878" stroke-width="7" stroke-linecap="round" stroke-linejoin="round"/><mask id="a" maskUnits="userSpaceOnUse" x="217" y="-52" width="96" height="108"><path fill="#C4C4C4" d="M217.16-51.714h94.856V55.323H217.16z"/></mask><g mask="url(#a)"><path d="M391.929-42.918c0 44.212-35.837 80.056-80.041 80.056-44.203 0-80.036-35.844-80.036-80.056" stroke="#fff" stroke-width="7" stroke-linecap="round" stroke-linejoin="round"/></g><path d="M312.074 115.445v57.14H87.047V-52.461h83.313l16.567 9.192-39.322 31.246 49.454 8.782-27.05 42.328 49.617-7.757-11.838 48.814 44.426-23.462 4.649 50.006 34.374-36.598 20.646 45.786.191-.431z" stroke="#fff" stroke-width="7" stroke-linecap="round" stroke-linejoin="round"/><path d="M68.576 191.095h36.963v-36.97H68.576v36.97z" fill="#FF5050" stroke="#000" stroke-width="7" stroke-linecap="round" stroke-linejoin="round"/><path d="M87.048 6.49v94.575l-13.784 34.947-13.971-34.867-32.995 17.922 11.7-35.704-36.78-7.49 31.89-19.812L9.731 26.654l37.185 5.327 1.001-37.546L72.941 22.41 87.048 6.49z" fill="#3092F7" stroke="#000" stroke-width="7" stroke-linecap="round" stroke-linejoin="round"/><path d="M108.259 83.172l11.89 35.624-33.102-17.73V6.49l10.81-12.187 1.188 37.543 37.157-5.543-23.214 29.515 32.025 19.652-36.754 7.702z" stroke="#fff" stroke-width="7" stroke-linecap="round" stroke-linejoin="round"/></g><defs><clipPath id="clip0"><path fill="#fff" transform="translate(0 -222)" d="M0 0h482v432H0z"/></clipPath></defs></svg>