<svg width="695" height="566" viewBox="0 0 695 566" fill="none" xmlns="http://www.w3.org/2000/svg">
<g clip-path="url(#clip0)">
<path d="M523.602 173.396L200.402 443.929L398.932 681.292L722.133 410.759L523.602 173.396Z" fill="#FFB3B3" stroke="black" stroke-width="7" stroke-linecap="round" stroke-linejoin="round"/>
<path d="M425.165 164.115L101.965 434.648L300.495 672.011L623.695 401.478L425.165 164.115Z" fill="#FFB3B3" stroke="black" stroke-width="7" stroke-linecap="round" stroke-linejoin="round"/>
<path d="M338.274 162.353L15.0742 432.886L213.604 670.249L536.804 399.715L338.274 162.353Z" fill="#FFB3B3" stroke="black" stroke-width="7" stroke-linecap="round" stroke-linejoin="round"/>
<path d="M2.25851 200.839L272.688 524.163L509.958 325.557L239.529 2.23205L2.25851 200.839Z" fill="#3092F7" stroke="black" stroke-width="7" stroke-linecap="round" stroke-linejoin="round"/>
<path d="M56.3141 215.453L76 238.989L251.127 92.3997L231.442 68.8633L56.3141 215.453Z" fill="#FFB3B3" stroke="black" stroke-width="7" stroke-linecap="round" stroke-linejoin="round"/>
<path d="M87.4821 252.707L107.168 276.243L190.656 206.36L170.97 182.824L87.4821 252.707Z" fill="#FFB3B3" stroke="black" stroke-width="7" stroke-linecap="round" stroke-linejoin="round"/>
<path d="M276.218 277.901L275.945 278.263V277.901H276.218Z" fill="#FFD400" stroke="black" stroke-width="7" stroke-linecap="round" stroke-linejoin="round"/>
<path d="M697.392 277.901V587.393H275.945V278.263L276.218 277.901L316.824 221.709H430.384L470.99 277.901H697.392Z" fill="#FFD400" stroke="black" stroke-width="7" stroke-linecap="round" stroke-linejoin="round"/>
<path d="M641.704 132.297L318.504 402.83L517.034 640.192L840.234 369.659L641.704 132.297Z" fill="#FF5050" stroke="black" stroke-width="7" stroke-linecap="round" stroke-linejoin="round"/>
<path d="M627.094 186.391L603.566 206.084L750.1 381.279L773.627 361.585L627.094 186.391Z" fill="#FFB3B3" stroke="black" stroke-width="7" stroke-linecap="round" stroke-linejoin="round"/>
<path d="M589.852 217.564L566.324 237.257L636.181 320.778L659.708 301.084L589.852 217.564Z" fill="#FFB3B3" stroke="black" stroke-width="7" stroke-linecap="round" stroke-linejoin="round"/>
<path d="M452.402 327.088L428.875 346.781L575.408 521.976L598.936 502.283L452.402 327.088Z" fill="#FFB3B3" stroke="black" stroke-width="7" stroke-linecap="round" stroke-linejoin="round"/>
<path d="M697.371 587.387H275.957L378.082 366.459H799.496L697.371 587.387Z" fill="#FFD400" stroke="black" stroke-width="7" stroke-linecap="round" stroke-linejoin="round"/>
<path d="M196.974 390.196L216.66 413.732L391.788 267.143L372.102 243.606L196.974 390.196Z" fill="#FFB3B3" stroke="black" stroke-width="7" stroke-linecap="round" stroke-linejoin="round"/>
<path d="M898.777 295.854H558.098L728.437 10.6765L898.777 295.854Z" fill="#FFD400" stroke="black" stroke-width="7" stroke-linecap="round" stroke-linejoin="round"/>
<path d="M728.806 106.378C738.125 106.378 747.062 110.081 753.651 116.673C760.24 123.265 763.942 132.205 763.942 141.528C763.942 160.936 728.806 211.974 728.806 211.974C728.806 211.974 693.676 160.936 693.676 141.528C693.675 136.912 694.583 132.341 696.348 128.077C698.113 123.812 700.701 119.937 703.963 116.673C707.225 113.409 711.098 110.82 715.361 109.053C719.623 107.287 724.192 106.378 728.806 106.378Z" fill="black"/>
<path d="M636.172 422.697L612.551 442.338L758.692 618.231L782.313 598.591L636.172 422.697Z" fill="#FFB3B3" stroke="black" stroke-width="7.00874" stroke-linecap="round" stroke-linejoin="round"/>
<path d="M476.215 463.71L452.688 483.404L599.221 658.599L622.748 638.905L476.215 463.71Z" fill="#FFB3B3" stroke="black" stroke-width="7" stroke-linecap="round" stroke-linejoin="round"/>
<path d="M597.547 451.016L574.02 470.709L643.876 554.229L667.403 534.536L597.547 451.016Z" fill="#FFB3B3" stroke="black" stroke-width="7" stroke-linecap="round" stroke-linejoin="round"/>
<path d="M211.712 736.776C287.102 736.776 348.218 675.637 348.218 600.218C348.218 524.799 287.102 463.66 211.712 463.66C136.323 463.66 75.207 524.799 75.207 600.218C75.207 675.637 136.323 736.776 211.712 736.776Z" fill="#FF5050" stroke="black" stroke-width="7" stroke-linecap="round" stroke-linejoin="round"/>
<path d="M240.321 600.205L284.339 644.246L255.733 672.907L211.709 628.866L167.698 672.907L139.086 644.246L183.103 600.205L139.086 556.171L167.698 527.554L211.709 571.588L255.733 527.554L284.339 556.171L240.321 600.205Z" fill="#FFF9DE" stroke="black" stroke-width="7" stroke-linecap="round" stroke-linejoin="round"/>
</g>
<defs>
<clipPath id="clip0">
<rect width="901" height="739" fill="white"/>
</clipPath>
</defs>
</svg>
