<svg width="695" height="566" fill="none" xmlns="http://www.w3.org/2000/svg"><g clip-path="url(#clip0)"><path d="M523.602 173.396l-323.2 270.533 198.53 237.363 323.201-270.533-198.531-237.363z" fill="#FFB3B3" stroke="#000" stroke-width="7" stroke-linecap="round" stroke-linejoin="round"/><path d="M425.165 164.115l-323.2 270.533 198.53 237.363 323.2-270.533-198.53-237.363z" fill="#FFB3B3" stroke="#000" stroke-width="7" stroke-linecap="round" stroke-linejoin="round"/><path d="M338.274 162.353l-323.2 270.533 198.53 237.363 323.2-270.534-198.53-237.362z" fill="#FFB3B3" stroke="#000" stroke-width="7" stroke-linecap="round" stroke-linejoin="round"/><path d="M2.259 200.839l270.429 323.324 237.27-198.606L239.529 2.232 2.259 200.84z" fill="#3092F7" stroke="#000" stroke-width="7" stroke-linecap="round" stroke-linejoin="round"/><path d="M56.314 215.453L76 238.989l175.127-146.59-19.685-23.536-175.128 146.59zm31.168 37.254l19.686 23.536 83.488-69.883-19.686-23.536-83.488 69.883z" fill="#FFB3B3" stroke="#000" stroke-width="7" stroke-linecap="round" stroke-linejoin="round"/><path d="M276.218 277.901l-.273.362v-.362h.273z" fill="#FFD400" stroke="#000" stroke-width="7" stroke-linecap="round" stroke-linejoin="round"/><path d="M697.392 277.901v309.492H275.945v-309.13l.273-.362 40.606-56.192h113.56l40.606 56.192h226.402z" fill="#FFD400" stroke="#000" stroke-width="7" stroke-linecap="round" stroke-linejoin="round"/><path d="M641.704 132.297l-323.2 270.533 198.53 237.362 323.2-270.533-198.53-237.362z" fill="#FF5050" stroke="#000" stroke-width="7" stroke-linecap="round" stroke-linejoin="round"/><path d="M627.094 186.391l-23.528 19.693L750.1 381.279l23.527-19.694-146.533-175.194zm-37.242 31.173l-23.528 19.693 69.857 83.521 23.527-19.694-69.856-83.52zm-137.45 109.524l-23.527 19.693 146.533 175.195 23.528-19.693-146.534-175.195z" fill="#FFB3B3" stroke="#000" stroke-width="7" stroke-linecap="round" stroke-linejoin="round"/><path d="M697.371 587.387H275.957l102.125-220.928h421.414L697.371 587.387z" fill="#FFD400" stroke="#000" stroke-width="7" stroke-linecap="round" stroke-linejoin="round"/><path d="M196.974 390.196l19.686 23.536 175.128-146.589-19.686-23.537-175.128 146.59z" fill="#FFB3B3" stroke="#000" stroke-width="7" stroke-linecap="round" stroke-linejoin="round"/><path d="M898.777 295.854H558.098L728.437 10.676l170.34 285.178z" fill="#FFD400" stroke="#000" stroke-width="7" stroke-linecap="round" stroke-linejoin="round"/><path d="M728.806 106.378a35.127 35.127 0 0124.845 10.295 35.158 35.158 0 0110.291 24.855c0 19.408-35.136 70.446-35.136 70.446s-35.13-51.038-35.13-70.446a35.15 35.15 0 0121.685-32.475 35.124 35.124 0 0113.445-2.675z" fill="#000"/><path d="M636.172 422.697l-23.621 19.641 146.141 175.893 23.621-19.64-146.141-175.894z" fill="#FFB3B3" stroke="#000" stroke-width="7.009" stroke-linecap="round" stroke-linejoin="round"/><path d="M476.215 463.71l-23.527 19.694 146.533 175.195 23.527-19.694L476.215 463.71zm121.332-12.694l-23.527 19.693 69.856 83.52 23.527-19.693-69.856-83.52z" fill="#FFB3B3" stroke="#000" stroke-width="7" stroke-linecap="round" stroke-linejoin="round"/><path d="M211.712 736.776c75.39 0 136.506-61.139 136.506-136.558 0-75.419-61.116-136.558-136.506-136.558-75.389 0-136.505 61.139-136.505 136.558 0 75.419 61.116 136.558 136.505 136.558z" fill="#FF5050" stroke="#000" stroke-width="7" stroke-linecap="round" stroke-linejoin="round"/><path d="M240.321 600.205l44.018 44.041-28.606 28.661-44.024-44.041-44.011 44.041-28.612-28.661 44.017-44.041-44.017-44.034 28.612-28.617 44.011 44.034 44.024-44.034 28.606 28.617-44.018 44.034z" fill="#FFF9DE" stroke="#000" stroke-width="7" stroke-linecap="round" stroke-linejoin="round"/></g><defs><clipPath id="clip0"><path fill="#fff" d="M0 0h901v739H0z"/></clipPath></defs></svg>