<svg width="490" height="690" fill="none" xmlns="http://www.w3.org/2000/svg"><g clip-path="url(#clip0)"><path d="M291.549 325.765l94.992 128.039a14.081 14.081 0 0010.939 5.694l43.811 1.197a14.107 14.107 0 0110.939 5.694l44.704 60.256a14.115 14.115 0 012.627 10.473 14.104 14.104 0 01-5.547 9.262l-128.691 95.525a14.106 14.106 0 01-10.469 2.626 14.092 14.092 0 01-9.261-5.548L102.492 311.309a14.108 14.108 0 012.919-19.734l128.697-95.522a14.098 14.098 0 0119.729 2.918l44.7 60.257a14.109 14.109 0 012.281 12.126l-11.553 42.268a14.112 14.112 0 002.284 12.143z" fill="#FF5050" stroke="#000" stroke-width="7" stroke-linecap="round" stroke-linejoin="round"/><path d="M238.16 258.19a5.955 5.955 0 004.908-6.845 5.956 5.956 0 10-11.753 1.935 5.957 5.957 0 006.845 4.91zm3.089-20.886a5.957 5.957 0 004.909-6.846 5.956 5.956 0 10-11.753 1.935 5.958 5.958 0 006.844 4.911zm-6.179 41.773a5.956 5.956 0 004.908-6.846 5.955 5.955 0 10-11.752 1.935 5.956 5.956 0 006.844 4.911zm-17.789-23.98a5.955 5.955 0 004.908-6.845 5.956 5.956 0 10-11.752 1.935 5.955 5.955 0 006.844 4.91zm41.761 6.186a5.956 5.956 0 004.909-6.846 5.956 5.956 0 10-11.753 1.935 5.957 5.957 0 006.844 4.911z" fill="#FF5050" stroke="#000" stroke-width="7" stroke-linecap="round" stroke-linejoin="round"/><path d="M215.46 382.242l94.992 128.04a14.093 14.093 0 0010.94 5.698l43.81 1.192a14.108 14.108 0 0110.94 5.698l44.704 60.257a14.106 14.106 0 01-2.92 19.73l-52.601 39.048a14.102 14.102 0 01-19.73-2.923L102.493 311.309a14.116 14.116 0 012.92-19.735l52.606-39.044a14.097 14.097 0 0119.725 2.924l44.705 60.256a14.097 14.097 0 012.28 12.122l-11.548 42.297a14.099 14.099 0 002.279 12.113z" fill="#2243E5" stroke="#000" stroke-width="7" stroke-linecap="round" stroke-linejoin="round"/><path d="M234.333 315.433l55.744-41.377m-69.246 96.586l59.528-44.182m43.282 182.756l59.527-44.185m-3.773 45.926l55.744-41.373" stroke="#000" stroke-width="7" stroke-linecap="round" stroke-linejoin="round"/><path d="M120.295 228.463l-19.647 14.584 25.097 33.826 19.647-14.583-25.097-33.827z" fill="#2243E5" stroke="#000" stroke-width="7" stroke-linecap="round" stroke-linejoin="round"/><path d="M110.378 235.828l-83.491-112.54" stroke="#000" stroke-width="7" stroke-linecap="round" stroke-linejoin="round"/><path d="M281.089 421.261l-6.898 5.12a4.424 4.424 0 00-.915 6.188l5.769 7.776a4.42 4.42 0 006.186.916l6.898-5.12a4.423 4.423 0 00.915-6.187l-5.769-7.776a4.422 4.422 0 00-6.186-.917zm18.5-13.73l-6.898 5.119a4.424 4.424 0 00-.915 6.188l5.769 7.776a4.422 4.422 0 006.186.917l6.898-5.12a4.424 4.424 0 00.915-6.188l-5.769-7.776a4.42 4.42 0 00-6.186-.916zm18.496-13.731l-6.898 5.12a4.424 4.424 0 00-.915 6.188l5.769 7.776a4.42 4.42 0 006.186.916l6.898-5.12a4.422 4.422 0 00.915-6.187l-5.769-7.776a4.422 4.422 0 00-6.186-.917z" fill="#FFB3B3" stroke="#000" stroke-width="7" stroke-linecap="round" stroke-linejoin="round"/><path d="M297.905 443.929l-6.897 5.12a4.425 4.425 0 00-.916 6.188l5.77 7.776a4.42 4.42 0 006.186.916l6.897-5.12a4.422 4.422 0 00.915-6.187l-5.769-7.777a4.421 4.421 0 00-6.186-.916z" fill="#FF5050" stroke="#000" stroke-width="7" stroke-linecap="round" stroke-linejoin="round"/><path d="M316.405 430.194l-6.897 5.12a4.423 4.423 0 00-.916 6.187l5.77 7.776a4.422 4.422 0 006.186.917l6.897-5.12a4.424 4.424 0 00.915-6.188l-5.769-7.776a4.42 4.42 0 00-6.186-.916zm18.5-13.727l-6.897 5.12a4.425 4.425 0 00-.916 6.188l5.77 7.776a4.42 4.42 0 006.186.916l6.897-5.12a4.422 4.422 0 00.915-6.187l-5.769-7.776a4.422 4.422 0 00-6.186-.917zm-20.308 49.954l-6.898 5.12a4.424 4.424 0 00-.915 6.188l5.769 7.776a4.42 4.42 0 006.186.916l6.897-5.119a4.425 4.425 0 00.916-6.188l-5.769-7.776a4.422 4.422 0 00-6.186-.917zm18.496-13.73l-6.898 5.12a4.422 4.422 0 00-.915 6.187l5.769 7.777a4.422 4.422 0 006.186.916l6.897-5.12a4.425 4.425 0 00.916-6.188l-5.769-7.776a4.421 4.421 0 00-6.186-.916z" fill="#FFB3B3" stroke="#000" stroke-width="7" stroke-linecap="round" stroke-linejoin="round"/><path d="M449.853 499.305l-39.959 29.661a3.411 3.411 0 00-.706 4.771l1.019 1.373a3.409 3.409 0 004.77.706l39.958-29.66a3.41 3.41 0 00.706-4.772l-1.018-1.372a3.41 3.41 0 00-4.77-.707zm10.867 14.643l-39.959 29.66a3.411 3.411 0 00-.706 4.771l1.019 1.373a3.41 3.41 0 004.77.707l39.959-29.661a3.411 3.411 0 00.706-4.771l-1.019-1.373a3.41 3.41 0 00-4.77-.706zm-109.131-74.986l-6.898 5.12a4.424 4.424 0 00-.915 6.188l5.769 7.776a4.42 4.42 0 006.186.916l6.898-5.119a4.424 4.424 0 00.915-6.188l-5.769-7.776a4.422 4.422 0 00-6.186-.917z" fill="#FF5050" stroke="#000" stroke-width="7" stroke-linecap="round" stroke-linejoin="round"/><path d="M241.649 385.607l111.653-279.922 87.236 139.445 77.542 66.206-257.358 98.724" fill="#FFD400"/><path d="M241.649 385.607l111.653-279.922 87.236 139.445 77.542 66.206-257.358 98.724" stroke="#000" stroke-width="7" stroke-linecap="round" stroke-linejoin="round"/><path d="M285.792 351.504l-41.825 31.045a7.358 7.358 0 00-1.522 10.291l10.747 14.486a7.353 7.353 0 0010.288 1.523l41.824-31.045a7.356 7.356 0 001.522-10.29l-10.747-14.486a7.353 7.353 0 00-10.287-1.524z" fill="#fff" stroke="#000" stroke-width="7" stroke-linecap="round" stroke-linejoin="round"/><path d="M592.355 179.397s27.072 68.179 13.653 89.185c-11.705 18.329-42.396 17.971-56.168 17.622-33.895-.857-34.97-1.747-31.747 25.116l-164.261 63.019s-10.114-31.757-2.033-71.102a97.682 97.682 0 0161.849-71.873c-19.738-2.055-35.455-13.35-44.894-32.245a17.515 17.515 0 01-3.362.895 19.22 19.22 0 01-10.436-36.737c-6.076-15.135-15.039-51.048 8.493-70.027 21.31-17.205 47.608-12.454 47.608-12.454s12.481-23.113 33.88-25.645c22.961-2.75 18.847 13.721 18.847 13.721s13.891-3.433 21.758 11.22c7.068 13.258-4.314 23.599-4.314 23.599s5.218 27.756 3.514 37.801a19.213 19.213 0 014.67 38.104c-1.16.196-2.338.276-3.514.237-2.876 20.998-16.433 37.117-35.584 45.535 3.914.11 7.818.461 11.69 1.052l.073-.012c49.161 1.862 88.099 15.976 101.234 4.009 11.596-10.492-27.259-96.075-16.425-101.142 8.659-4.055 11.164 18.687 20.014 20.322 8.849 1.635 28.604-23.403 34.407-21.955 5.648 1.398-12.877 23-13.942 24.192 1.277-.818 26.383-17.2 30.847-12.097 4.595 5.196-25.518 24.535-25.518 24.535s27.246-13.336 30.328-7.321c3.082 6.014-30.667 22.446-30.667 22.446z" fill="#FFD400" stroke="#000" stroke-width="7" stroke-linecap="round" stroke-linejoin="round"/><path d="M411.905 153.235c.892 5.42-3.386 6.817-8.804 7.709-5.418.892-9.918.94-10.81-4.48a9.94 9.94 0 1119.614-3.229z" fill="#FFD400" stroke="#000" stroke-width="7" stroke-linecap="round" stroke-linejoin="round"/><path d="M387.526 141.482a9.952 9.952 0 0110.625-8.491 9.95 9.95 0 014.674 1.601" fill="#FFD400"/><path d="M387.526 141.482a9.952 9.952 0 0110.625-8.491 9.95 9.95 0 014.674 1.601" stroke="#000" stroke-width="7" stroke-linecap="round" stroke-linejoin="round"/><path d="M450.939 130.749a10.175 10.175 0 00-8.042-5.407 10.17 10.17 0 00-8.92 3.784" fill="#FFD400"/><path d="M450.939 130.749a10.175 10.175 0 00-8.042-5.407 10.17 10.17 0 00-8.92 3.784" stroke="#000" stroke-width="7" stroke-linecap="round" stroke-linejoin="round"/><path d="M449.803 146.996c.893 5.419-3.39 6.818-8.803 7.709-5.414.891-9.916.957-10.811-4.48a9.944 9.944 0 018.192-11.425 9.94 9.94 0 0111.422 8.196z" fill="#FFD400" stroke="#000" stroke-width="7" stroke-linecap="round" stroke-linejoin="round"/><path d="M420.974 157.513l14.572 13.648-13.712 2.257" fill="#FFD400"/><path d="M420.974 157.513l14.572 13.648-13.712 2.257" stroke="#000" stroke-width="7" stroke-linecap="round" stroke-linejoin="round"/><path d="M412.812 182.865c4.539 2.834 11.662-.245 13.425 5.258 1.982 6.182-11.251 13.372-21.095 6.263-9.627-6.949-7.636-16.514-2.134-17.841 5.502-1.328 5.562 3.673 9.804 6.32z" fill="#FFD400" stroke="#000" stroke-width="7" stroke-linecap="round" stroke-linejoin="round"/><path d="M379.814 385.398l117.69-39.931m-88.654 48.234l63.047-15.418M291.999 211.601l18.28-67.903" stroke="#000" stroke-width="7" stroke-linecap="round" stroke-linejoin="round"/></g><defs><clipPath id="clip0"><path fill="#fff" transform="rotate(-9.349 602.894 49.297)" d="M0 0h606.924v598.54H0z"/></clipPath></defs></svg>