<svg width="247" height="245" fill="none" xmlns="http://www.w3.org/2000/svg"><g clip-path="url(#clip0)"><path d="M103.428 115.563l33.697 45.421a5.008 5.008 0 003.881 2.02l15.542.424a4.989 4.989 0 013.88 2.02l15.859 21.376a5.005 5.005 0 01-1.036 7.001l-45.652 33.887a5.015 5.015 0 01-3.714.931 5.003 5.003 0 01-3.285-1.968l-86.24-116.24a5.008 5.008 0 011.037-7.001L83.05 69.548a5.002 5.002 0 016.999 1.035l15.857 21.376a5 5 0 01.809 4.302l-4.098 14.994a5.004 5.004 0 00.81 4.308z" fill="#FF5050" stroke="#000" stroke-width="7" stroke-linecap="round" stroke-linejoin="round"/><path d="M84.486 91.592a2.113 2.113 0 10-.687-4.17 2.113 2.113 0 00.687 4.17zm1.098-7.41a2.113 2.113 0 10-.687-4.17 2.113 2.113 0 00.687 4.17zm-2.192 14.819a2.113 2.113 0 10-.687-4.17 2.113 2.113 0 00.687 4.17zm-6.312-8.507a2.113 2.113 0 10-.687-4.17 2.113 2.113 0 00.687 4.17zm14.812 2.195a2.113 2.113 0 10-.687-4.17 2.113 2.113 0 00.687 4.17z" fill="#FF5050" stroke="#000" stroke-width="2" stroke-linecap="round" stroke-linejoin="round"/><path d="M76.432 135.599l33.698 45.421a4.997 4.997 0 003.881 2.021l15.541.423a5.004 5.004 0 013.881 2.022l15.858 21.375a5.001 5.001 0 01-1.036 7l-18.659 13.851a5.008 5.008 0 01-3.715.932 5.017 5.017 0 01-3.285-1.968L36.357 110.435a5.006 5.006 0 011.036-7l18.662-13.85a5.002 5.002 0 016.998 1.036l15.858 21.376a4.998 4.998 0 01.809 4.3l-4.096 15.005a5 5 0 00.808 4.297z" fill="#2243E5" stroke="#000" stroke-width="2" stroke-linecap="round" stroke-linejoin="round"/><path d="M83.128 111.898l19.775-14.679m-24.561 34.264l21.117-15.673m15.348 64.832l21.117-15.675m-1.335 16.292l19.775-14.676" stroke="#000" stroke-width="2" stroke-linecap="round" stroke-linejoin="round"/><path d="M42.673 81.046l-6.97 5.174 8.903 12 6.97-5.174-8.903-12z" fill="#2243E5" stroke="#000" stroke-width="2" stroke-linecap="round" stroke-linejoin="round"/><path d="M39.153 83.66L9.535 43.735" stroke="#000" stroke-width="2" stroke-linecap="round" stroke-linejoin="round"/><path d="M99.714 149.44l-2.447 1.816a1.57 1.57 0 00-.324 2.195l2.046 2.759a1.569 1.569 0 002.195.325l2.447-1.816a1.569 1.569 0 00.324-2.195l-2.046-2.759a1.57 1.57 0 00-2.195-.325zm6.563-4.871l-2.447 1.816a1.57 1.57 0 00-.325 2.195l2.047 2.759a1.568 1.568 0 002.194.325l2.447-1.816a1.57 1.57 0 00.325-2.195l-2.047-2.759a1.568 1.568 0 00-2.194-.325zm6.562-4.871l-2.447 1.816a1.57 1.57 0 00-.324 2.195l2.046 2.759a1.57 1.57 0 002.195.325l2.447-1.816a1.57 1.57 0 00.324-2.195l-2.046-2.759a1.57 1.57 0 00-2.195-.325z" fill="#FFB3B3" stroke="#000" stroke-width="2" stroke-linecap="round" stroke-linejoin="round"/><path d="M105.679 157.481l-2.447 1.816a1.57 1.57 0 00-.325 2.195l2.047 2.759a1.568 1.568 0 002.195.325l2.446-1.816a1.57 1.57 0 00.325-2.195l-2.047-2.759a1.568 1.568 0 00-2.194-.325z" fill="#FF5050" stroke="#000" stroke-width="2" stroke-linecap="round" stroke-linejoin="round"/><path d="M112.242 152.609l-2.447 1.816a1.57 1.57 0 00-.325 2.195l2.047 2.759a1.568 1.568 0 002.194.325l2.447-1.816a1.57 1.57 0 00.325-2.195l-2.047-2.759a1.568 1.568 0 00-2.194-.325zm6.562-4.87l-2.447 1.816a1.57 1.57 0 00-.325 2.195l2.047 2.759a1.57 1.57 0 002.195.325l2.446-1.816a1.57 1.57 0 00.325-2.195l-2.046-2.759a1.57 1.57 0 00-2.195-.325zm-7.203 17.721l-2.447 1.816a1.57 1.57 0 00-.325 2.195l2.047 2.759a1.569 1.569 0 002.194.325l2.447-1.817a1.57 1.57 0 00.325-2.195l-2.047-2.758a1.567 1.567 0 00-2.194-.325zm6.562-4.87l-2.446 1.816a1.57 1.57 0 00-.325 2.195l2.047 2.758a1.568 1.568 0 002.194.326l2.447-1.817a1.569 1.569 0 00.324-2.195l-2.046-2.758a1.568 1.568 0 00-2.195-.325z" fill="#FFB3B3" stroke="#000" stroke-width="2" stroke-linecap="round" stroke-linejoin="round"/><path d="M159.584 177.125l-14.175 10.522a1.21 1.21 0 00-.251 1.693l.362.487a1.209 1.209 0 001.692.25l14.175-10.522a1.21 1.21 0 00.25-1.692l-.361-.487a1.21 1.21 0 00-1.692-.251zm3.851 5.195l-14.175 10.522a1.21 1.21 0 00-.25 1.692l.361.487a1.21 1.21 0 001.692.251l14.175-10.522a1.21 1.21 0 00.251-1.693l-.361-.487a1.21 1.21 0 00-1.693-.25zm-38.713-26.6l-2.447 1.816a1.57 1.57 0 00-.325 2.195l2.047 2.758a1.568 1.568 0 002.195.325l2.446-1.816a1.57 1.57 0 00.325-2.195l-2.047-2.758a1.567 1.567 0 00-2.194-.325z" fill="#FF5050" stroke="#000" stroke-width="2" stroke-linecap="round" stroke-linejoin="round"/><path d="M85.723 136.792l39.608-99.3 30.947 49.467 27.507 23.486-91.296 35.022" fill="#FFD400"/><path d="M85.723 136.792l39.608-99.3 30.947 49.467 27.508 23.486-91.297 35.022" stroke="#000" stroke-width="2" stroke-linecap="round" stroke-linejoin="round"/><path d="M101.385 124.695l-14.837 11.013a2.61 2.61 0 00-.54 3.65l3.812 5.139a2.61 2.61 0 003.65.541l14.837-11.014a2.61 2.61 0 00.54-3.65l-3.813-5.139a2.608 2.608 0 00-3.649-.54z" fill="#fff" stroke="#000" stroke-width="2" stroke-linecap="round" stroke-linejoin="round"/><path d="M210.135 63.64s9.603 24.187 4.843 31.638c-4.152 6.503-15.04 6.376-19.925 6.252-12.024-.304-12.405-.62-11.262 8.909l-58.271 22.356s-3.588-11.265-.721-25.223a34.642 34.642 0 0121.94-25.496c-7.001-.73-12.577-4.736-15.925-11.44a6.23 6.23 0 01-1.193.318 6.812 6.812 0 01-7.668-4.863 6.815 6.815 0 013.966-8.169c-2.155-5.369-5.335-18.109 3.013-24.842 7.559-6.103 16.888-4.417 16.888-4.417s4.428-8.2 12.019-9.098c8.146-.975 6.686 4.867 6.686 4.867s4.928-1.217 7.718 3.981c2.508 4.703-1.53 8.371-1.53 8.371s1.851 9.847 1.247 13.41a6.813 6.813 0 017.293 5.967 6.82 6.82 0 01-5.637 7.55c-.411.07-.829.098-1.246.084-1.021 7.45-5.83 13.168-12.623 16.153a33.76 33.76 0 014.146.374l.026-.005c17.44.661 31.253 5.668 35.912 1.423 4.114-3.722-9.669-34.082-5.826-35.88 3.072-1.438 3.96 6.63 7.1 7.21 3.139.58 10.147-8.303 12.205-7.79 2.004.497-4.568 8.16-4.945 8.583.453-.29 9.359-6.102 10.942-4.292 1.631 1.844-9.052 8.704-9.052 8.704s9.666-4.73 10.759-2.597c1.093 2.133-10.879 7.963-10.879 7.963z" fill="#FFD400" stroke="#000" stroke-width="2" stroke-linecap="round" stroke-linejoin="round"/><path d="M146.125 54.359c.316 1.922-1.201 2.418-3.123 2.735-1.922.316-3.519.333-3.835-1.59a3.527 3.527 0 015.534-3.438 3.53 3.53 0 011.424 2.293z" fill="#FFD400" stroke="#000" stroke-width="2" stroke-linecap="round" stroke-linejoin="round"/><path d="M137.47 50.19a3.531 3.531 0 013.77-3.012 3.525 3.525 0 011.657.568" fill="#FFD400"/><path d="M137.47 50.19a3.531 3.531 0 013.77-3.012 3.525 3.525 0 011.657.568" stroke="#000" stroke-width="2" stroke-linecap="round" stroke-linejoin="round"/><path d="M159.969 46.383a3.605 3.605 0 00-6.017-.576" fill="#FFD400"/><path d="M159.969 46.383a3.605 3.605 0 00-6.017-.576" stroke="#000" stroke-width="2" stroke-linecap="round" stroke-linejoin="round"/><path d="M159.566 52.146c.317 1.923-1.202 2.419-3.123 2.735-1.92.316-3.517.34-3.835-1.59a3.527 3.527 0 015.534-3.438 3.527 3.527 0 011.424 2.293z" fill="#FFD400" stroke="#000" stroke-width="2" stroke-linecap="round" stroke-linejoin="round"/><path d="M149.338 55.877l5.169 4.841-4.864.8" fill="#FFD400"/><path d="M149.338 55.877l5.169 4.841-4.864.8" stroke="#000" stroke-width="2" stroke-linecap="round" stroke-linejoin="round"/><path d="M146.441 64.87c1.61 1.005 4.137-.087 4.763 1.865.703 2.194-3.992 4.744-7.484 2.222-3.415-2.465-2.708-5.858-.757-6.329 1.952-.47 1.973 1.303 3.478 2.242z" fill="#FFD400" stroke="#000" stroke-width="2" stroke-linecap="round" stroke-linejoin="round"/><path d="M134.735 136.718l41.75-14.166m-31.449 17.111l22.366-5.469m-63.818-59.13l6.485-24.088" stroke="#000" stroke-width="2" stroke-linecap="round" stroke-linejoin="round"/></g><defs><clipPath id="clip0"><path fill="#fff" transform="rotate(-9.349 213.873 17.488)" d="M0 0h215.303v212.329H0z"/></clipPath></defs></svg>