<svg width="322" height="279" fill="none" xmlns="http://www.w3.org/2000/svg"><path d="M273.051 66.439a66.278 66.278 0 01-.146 50.798 67.54 67.54 0 01-18.516 25.163l20.159 49.088-80.777-20.744-76.969 31.608a66.298 66.298 0 01-50.773-.171 66.424 66.424 0 01-35.806-36.048 66.426 66.426 0 01.137-50.808 66.298 66.298 0 0136-35.806l120.088-49.316a66.274 66.274 0 0125.409-4.973 66.33 66.33 0 0125.383 5.14 66.436 66.436 0 0135.811 36.069z" fill="#FFD400" stroke="#000" stroke-width="7" stroke-linecap="round" stroke-linejoin="round"/><path d="M213.467 109.95c-9.563 3.927-20.502-.649-24.433-10.221-3.931-9.572.635-20.515 10.198-24.442 9.563-3.928 20.501.648 24.432 10.22 3.931 9.573-.634 20.516-10.197 24.443zm-56.66 23.268c-9.563 3.927-20.502-.649-24.433-10.221-3.931-9.572.635-20.516 10.197-24.443 9.563-3.927 20.502.649 24.433 10.221 3.931 9.572-.635 20.515-10.197 24.443zm-52.876 21.714c-9.562 3.927-20.501-.649-24.432-10.221-3.931-9.572.635-20.515 10.198-24.443 9.562-3.927 20.501.649 24.432 10.221 3.931 9.573-.635 20.516-10.198 24.443z" fill="#000"/></svg>