<svg width="200" height="200" viewBox="0 0 200 200" fill="none" xmlns="http://www.w3.org/2000/svg">
<path d="M99.923 199.897C155.109 199.897 199.846 155.149 199.846 99.9485C199.846 44.7485 155.109 0 99.923 0C44.7371 0 0 44.7485 0 99.9485C0 155.149 44.7371 199.897 99.923 199.897Z" fill="#FF335A"/>
<mask id="mask0" mask-type="alpha" maskUnits="userSpaceOnUse" x="0" y="0" width="200" height="200">
<path d="M99.923 199.897C155.109 199.897 199.846 155.149 199.846 99.9485C199.846 44.7485 155.109 0 99.923 0C44.7371 0 0 44.7485 0 99.9485C0 155.149 44.7371 199.897 99.923 199.897Z" fill="#FF335A"/>
</mask>
<g mask="url(#mask0)">
<g opacity="0.2">
<path opacity="0.01" d="M203.708 112.949C196.316 111.079 188.975 112.111 182.271 115.704C175.309 119.437 169.469 125.262 165.073 131.778C164.489 132.644 163.937 133.528 163.408 134.427C156.283 122.268 143.112 110.736 128.377 112.066C114.812 113.292 103.017 123.124 100.142 136.587C96.8129 152.184 106.533 166.45 116.057 177.818C124.62 188.041 134.196 197.425 143.93 206.523C149.863 212.067 155.862 217.586 162.085 222.807C162.184 222.89 162.282 222.974 162.381 223.058C162.706 223.332 163.064 223.437 163.406 223.42C163.748 223.437 164.108 223.334 164.433 223.058C169.573 218.697 174.588 214.18 179.547 209.616C189.329 200.614 198.923 191.336 207.714 181.356C217.368 170.393 228.212 156.793 227.312 141.322C226.528 127.866 216.74 116.245 203.708 112.949Z" fill="black"/>
<path opacity="0.01" d="M203.073 112.369C195.682 110.498 188.34 111.53 181.637 115.124C174.674 118.857 168.834 124.682 164.438 131.197C163.854 132.063 163.302 132.948 162.774 133.847C155.648 121.688 142.477 110.155 127.742 111.486C114.177 112.712 102.382 122.544 99.5075 136.007C96.1782 151.604 105.898 165.87 115.422 177.238C123.985 187.461 133.561 196.845 143.296 205.943C149.228 211.487 155.227 217.005 161.45 222.227C161.549 222.31 161.647 222.394 161.746 222.478C162.071 222.752 162.429 222.857 162.771 222.84C163.114 222.857 163.473 222.754 163.798 222.478C168.939 218.117 173.953 213.6 178.912 209.036C188.694 200.034 198.289 190.756 207.079 180.776C216.734 169.813 227.577 156.212 226.677 140.742C225.892 127.286 216.105 115.665 203.073 112.369Z" fill="#010000"/>
<path opacity="0.01" d="M202.438 111.788C195.046 109.918 187.704 110.95 181.001 114.544C174.038 118.277 168.198 124.102 163.802 130.617C163.218 131.483 162.666 132.367 162.138 133.267C155.012 121.108 141.841 109.575 127.106 110.906C113.541 112.132 101.747 121.964 98.8717 135.427C95.5424 151.023 105.263 165.289 114.786 176.658C123.349 186.881 132.926 196.265 142.66 205.363C148.592 210.907 154.591 216.425 160.815 221.646C160.914 221.73 161.011 221.814 161.11 221.897C161.435 222.172 161.793 222.277 162.135 222.26C162.478 222.277 162.838 222.174 163.163 221.897C168.303 217.537 173.318 213.02 178.277 208.456C188.058 199.454 197.653 190.176 206.443 180.196C216.098 169.233 226.942 155.632 226.041 140.162C225.258 126.706 215.469 115.085 202.438 111.788Z" fill="#010000"/>
<path opacity="0.01" d="M201.804 111.208C194.412 109.338 187.07 110.37 180.367 113.964C173.405 117.697 167.565 123.522 163.169 130.037C162.585 130.903 162.032 131.787 161.504 132.687C154.378 120.528 141.208 108.995 126.473 110.326C112.907 111.551 101.113 121.384 98.2379 134.847C94.9086 150.443 104.629 164.709 114.152 176.078C122.715 186.301 132.292 195.685 142.026 204.783C147.958 210.327 153.957 215.845 160.181 221.066C160.28 221.15 160.378 221.234 160.477 221.317C160.801 221.592 161.16 221.697 161.501 221.68C161.844 221.697 162.204 221.594 162.529 221.317C167.669 216.957 172.684 212.44 177.643 207.876C187.425 198.874 197.019 189.596 205.809 179.615C215.464 168.653 226.308 155.052 225.407 139.581C224.624 126.126 214.835 114.505 201.804 111.208Z" fill="#010100"/>
<path opacity="0.01" d="M201.168 110.626C193.776 108.756 186.435 109.788 179.731 113.382C172.769 117.115 166.929 122.94 162.533 129.455C161.949 130.321 161.397 131.205 160.868 132.105C153.743 119.946 140.572 108.413 125.837 109.744C112.272 110.969 100.477 120.802 97.6022 134.265C94.2729 149.861 103.993 164.127 113.517 175.496C122.08 185.719 131.656 195.103 141.39 204.2C147.323 209.745 153.322 215.263 159.545 220.484C159.644 220.568 159.742 220.652 159.841 220.735C160.166 221.01 160.524 221.115 160.865 221.098C161.208 221.115 161.568 221.011 161.893 220.735C167.033 216.375 172.048 211.858 177.007 207.294C186.789 198.292 196.383 189.014 205.174 179.033C214.828 168.071 225.672 154.47 224.771 138.999C223.988 125.545 214.199 113.924 201.168 110.626Z" fill="#010100"/>
<path opacity="0.0119" d="M200.533 110.046C193.142 108.176 185.8 109.208 179.097 112.802C172.134 116.535 166.294 122.36 161.898 128.875C161.314 129.741 160.762 130.625 160.234 131.525C153.108 119.366 139.937 107.833 125.202 109.164C111.637 110.389 99.8422 120.222 96.9674 133.685C93.6381 149.281 103.358 163.547 112.882 174.915C121.445 185.139 131.021 194.523 140.756 203.62C146.688 209.165 152.687 214.683 158.91 219.904C159.009 219.988 159.107 220.072 159.206 220.155C159.531 220.43 159.889 220.535 160.231 220.518C160.574 220.535 160.933 220.431 161.258 220.155C166.399 215.795 171.413 211.278 176.372 206.713C186.154 197.712 195.749 188.434 204.539 178.453C214.193 167.491 225.037 153.89 224.137 138.419C223.353 124.965 213.565 113.344 200.533 110.046Z" fill="#020100"/>
<path opacity="0.0139" d="M199.898 109.468C192.506 107.598 185.164 108.63 178.461 112.224C171.498 115.957 165.658 121.782 161.262 128.297C160.678 129.163 160.126 130.047 159.598 130.947C152.472 118.788 139.301 107.255 124.566 108.585C111.001 109.811 99.2065 119.644 96.3317 133.107C93.0024 148.703 102.723 162.969 112.246 174.337C120.809 184.561 130.386 193.944 140.12 203.042C146.052 208.587 152.051 214.105 158.275 219.326C158.374 219.41 158.471 219.494 158.57 219.577C158.895 219.852 159.253 219.957 159.595 219.94C159.938 219.957 160.298 219.853 160.623 219.577C165.763 215.217 170.778 210.7 175.737 206.135C185.518 197.134 195.113 187.856 203.903 177.875C213.558 166.913 224.402 153.312 223.501 137.841C222.718 124.385 212.929 112.765 199.898 109.468Z" fill="#020100"/>
<path opacity="0.0158" d="M199.264 108.888C191.872 107.018 184.53 108.05 177.827 111.644C170.865 115.377 165.024 121.202 160.629 127.717C160.044 128.583 159.492 129.467 158.964 130.367C151.838 118.208 138.668 106.675 123.933 108.005C110.367 109.231 98.5727 119.064 95.6979 132.527C92.3686 148.123 102.089 162.389 111.612 173.757C120.175 183.981 129.752 193.364 139.486 202.462C145.418 208.007 151.417 213.525 157.641 218.746C157.74 218.83 157.837 218.913 157.936 218.997C158.261 219.272 158.62 219.376 158.961 219.36C159.304 219.376 159.664 219.273 159.989 218.997C165.129 214.636 170.144 210.12 175.103 205.555C184.884 196.554 194.479 187.276 203.269 177.295C212.924 166.333 223.768 152.732 222.867 137.261C222.084 123.805 212.295 112.185 199.264 108.888Z" fill="#020100"/>
<path opacity="0.0178" d="M198.629 108.308C191.237 106.438 183.896 107.47 177.192 111.064C170.23 114.797 164.39 120.622 159.994 127.137C159.41 128.003 158.858 128.887 158.329 129.786C151.204 117.628 138.033 106.095 123.298 107.425C109.733 108.651 97.9379 118.484 95.0631 131.947C91.7338 147.543 101.454 161.809 110.978 173.177C119.541 183.4 129.117 192.784 138.851 201.882C144.783 207.427 150.783 212.945 157.006 218.166C157.105 218.25 157.203 218.333 157.302 218.417C157.627 218.692 157.985 218.796 158.326 218.78C158.669 218.796 159.029 218.693 159.354 218.417C164.494 214.056 169.509 209.539 174.468 204.975C184.25 195.974 193.844 186.696 202.635 176.715C212.289 165.753 223.133 152.152 222.233 136.681C221.448 123.225 211.661 111.605 198.629 108.308Z" fill="#030100"/>
<path opacity="0.0198" d="M197.993 107.728C190.602 105.858 183.26 106.89 176.557 110.484C169.594 114.217 163.754 120.042 159.358 126.557C158.774 127.423 158.222 128.307 157.694 129.206C150.568 117.048 137.397 105.515 122.662 106.845C109.097 108.071 97.3022 117.904 94.4274 131.367C91.0981 146.963 100.818 161.229 110.342 172.597C118.905 182.82 128.481 192.204 138.216 201.302C144.148 206.847 150.147 212.365 156.37 217.586C156.469 217.67 156.567 217.753 156.666 217.837C156.991 218.112 157.349 218.216 157.691 218.2C158.034 218.216 158.393 218.113 158.718 217.837C163.859 213.476 168.873 208.959 173.832 204.395C183.614 195.393 193.209 186.116 201.999 176.135C211.654 165.173 222.497 151.572 221.597 136.101C220.813 122.645 211.025 111.025 197.993 107.728Z" fill="#030100"/>
<path opacity="0.0218" d="M197.36 107.148C189.968 105.278 182.626 106.31 175.923 109.903C168.96 113.637 163.12 119.462 158.724 125.977C158.14 126.843 157.588 127.727 157.06 128.626C149.934 116.467 136.763 104.935 122.028 106.265C108.463 107.491 96.6684 117.324 93.7936 130.786C90.4643 146.383 100.184 160.649 109.708 172.017C118.271 182.24 127.848 191.624 137.582 200.722C143.514 206.267 149.513 211.785 155.737 217.006C155.836 217.09 155.933 217.173 156.032 217.257C156.357 217.532 156.715 217.636 157.057 217.619C157.4 217.636 157.76 217.533 158.084 217.257C163.225 212.896 168.24 208.379 173.199 203.815C182.98 194.813 192.575 185.536 201.365 175.555C211.02 164.593 221.864 150.992 220.963 135.521C220.178 122.065 210.391 110.445 197.36 107.148Z" fill="#030200"/>
<path opacity="0.0238" d="M196.724 106.568C189.332 104.698 181.99 105.73 175.287 109.323C168.325 113.057 162.484 118.881 158.089 125.397C157.504 126.263 156.952 127.147 156.424 128.046C149.298 115.887 136.128 104.355 121.393 105.685C107.827 106.911 96.0326 116.744 93.1579 130.206C89.8286 145.803 99.5487 160.069 109.072 171.437C117.635 181.66 127.212 191.044 136.946 200.142C142.878 205.687 148.877 211.205 155.101 216.426C155.2 216.509 155.297 216.593 155.396 216.677C155.721 216.952 156.08 217.056 156.421 217.039C156.764 217.056 157.124 216.953 157.449 216.677C162.589 212.316 167.604 207.799 172.563 203.235C182.344 194.233 191.939 184.955 200.729 174.975C210.384 164.012 221.228 150.412 220.327 134.941C219.544 121.486 209.755 109.866 196.724 106.568Z" fill="#040200"/>
<path opacity="0.0257" d="M196.089 105.99C188.697 104.12 181.356 105.152 174.652 108.745C167.69 112.478 161.85 118.303 157.454 124.819C156.87 125.685 156.318 126.569 155.789 127.468C148.664 115.309 135.493 103.777 120.758 105.107C107.193 106.333 95.3979 116.165 92.5231 129.628C89.1938 145.225 98.914 159.491 108.438 170.859C117.001 181.082 126.577 190.466 136.311 199.564C142.243 205.108 148.243 210.627 154.466 215.848C154.565 215.931 154.663 216.015 154.762 216.099C155.087 216.373 155.445 216.478 155.786 216.461C156.129 216.478 156.489 216.375 156.814 216.099C161.954 211.738 166.969 207.221 171.928 202.657C181.71 193.655 191.304 184.377 200.095 174.397C209.749 163.434 220.593 149.834 219.692 134.363C218.909 120.907 209.12 109.286 196.089 105.99Z" fill="#040200"/>
<path opacity="0.0277" d="M195.453 105.41C188.062 103.54 180.72 104.571 174.017 108.165C167.054 111.898 161.214 117.723 156.818 124.238C156.234 125.104 155.682 125.989 155.153 126.888C148.028 114.729 134.857 103.196 120.122 104.527C106.557 105.753 94.7621 115.585 91.8873 129.048C88.5581 144.645 98.2782 158.911 107.802 170.279C116.365 180.502 125.941 189.886 135.675 198.984C141.608 204.528 147.607 210.046 153.83 215.268C153.929 215.351 154.027 215.435 154.126 215.519C154.451 215.793 154.809 215.898 155.151 215.881C155.494 215.898 155.853 215.795 156.178 215.519C161.319 211.158 166.333 206.641 171.292 202.077C181.074 193.075 190.669 183.797 199.459 173.817C209.114 162.854 219.957 149.253 219.057 133.783C218.273 120.327 208.485 108.706 195.453 105.41Z" fill="#040200"/>
<path opacity="0.0297" d="M194.819 104.829C187.427 102.959 180.085 103.991 173.382 107.585C166.419 111.318 160.579 117.143 156.183 123.658C155.599 124.524 155.047 125.409 154.519 126.308C147.393 114.149 134.222 102.616 119.487 103.947C105.922 105.173 94.1274 115.005 91.2526 128.468C87.9233 144.064 97.6435 158.33 107.167 169.699C115.73 179.922 125.307 189.306 135.041 198.404C140.973 203.948 146.972 209.466 153.196 214.687C153.295 214.771 153.392 214.855 153.491 214.939C153.816 215.213 154.174 215.318 154.516 215.301C154.859 215.318 155.219 215.215 155.543 214.939C160.684 210.578 165.698 206.061 170.658 201.497C180.439 192.495 190.034 183.217 198.824 173.237C208.479 162.274 219.322 148.673 218.422 133.203C217.638 119.747 207.85 108.126 194.819 104.829Z" fill="#040200"/>
<path opacity="0.0317" d="M194.183 104.249C186.791 102.379 179.449 103.411 172.746 107.005C165.784 110.738 159.943 116.563 155.548 123.078C154.963 123.944 154.411 124.828 153.883 125.728C146.757 113.569 133.587 102.036 118.852 103.367C105.286 104.592 93.4916 114.425 90.6168 127.888C87.2876 143.484 97.0077 157.75 106.531 169.119C115.094 179.342 124.671 188.726 134.405 197.824C140.337 203.368 146.336 208.886 152.56 214.107C152.659 214.191 152.756 214.275 152.855 214.358C153.18 214.633 153.539 214.738 153.88 214.721C154.223 214.738 154.583 214.635 154.908 214.358C160.048 209.998 165.063 205.481 170.022 200.917C179.803 191.915 189.398 182.637 198.188 172.657C207.843 161.694 218.687 148.093 217.786 132.622C217.003 119.167 207.214 107.546 194.183 104.249Z" fill="#050200"/>
<path opacity="0.0337" d="M193.549 103.669C186.157 101.799 178.816 102.831 172.112 106.425C165.15 110.158 159.31 115.983 154.914 122.498C154.33 123.364 153.778 124.248 153.249 125.148C146.124 112.989 132.953 101.456 118.218 102.787C104.653 104.012 92.8578 113.845 89.983 127.308C86.6538 142.904 96.3739 157.17 105.898 168.539C114.461 178.762 124.037 188.146 133.771 197.243C139.703 202.788 145.703 208.306 151.926 213.527C152.025 213.611 152.123 213.695 152.222 213.778C152.547 214.053 152.905 214.158 153.246 214.141C153.589 214.158 153.949 214.054 154.274 213.778C159.414 209.418 164.429 204.901 169.388 200.337C179.17 191.335 188.764 182.057 197.555 172.076C207.209 161.114 218.053 147.513 217.152 132.042C216.369 118.587 206.58 106.966 193.549 103.669Z" fill="#050200"/>
<path opacity="0.0356" d="M192.914 103.089C185.522 101.219 178.181 102.251 171.477 105.845C164.515 109.578 158.675 115.403 154.279 121.918C153.695 122.784 153.143 123.668 152.614 124.568C145.489 112.409 132.318 100.876 117.583 102.207C104.018 103.432 92.2231 113.265 89.3483 126.728C86.019 142.324 95.7392 156.59 105.263 167.958C113.826 178.182 123.402 187.565 133.136 196.663C139.069 202.208 145.068 207.726 151.291 212.947C151.39 213.031 151.488 213.115 151.587 213.198C151.912 213.473 152.27 213.578 152.612 213.561C152.955 213.578 153.314 213.474 153.639 213.198C158.779 208.838 163.794 204.321 168.753 199.756C178.535 190.755 188.129 181.477 196.92 171.496C206.574 160.534 217.418 146.933 216.518 131.462C215.733 118.008 205.946 106.387 192.914 103.089Z" fill="#050300"/>
<path opacity="0.0376" d="M192.279 102.509C184.887 100.639 177.545 101.671 170.842 105.265C163.879 108.998 158.039 114.823 153.643 121.338C153.059 122.204 152.507 123.088 151.979 123.988C144.853 111.829 131.682 100.296 116.947 101.626C103.382 102.852 91.5873 112.685 88.7125 126.148C85.3833 141.744 95.1034 156.01 104.627 167.378C113.19 177.602 122.767 186.985 132.501 196.083C138.433 201.628 144.432 207.146 150.656 212.367C150.755 212.451 150.852 212.535 150.951 212.618C151.276 212.893 151.634 212.998 151.976 212.981C152.319 212.998 152.678 212.894 153.003 212.618C158.144 208.258 163.158 203.741 168.118 199.176C177.899 190.175 187.494 180.897 196.284 170.916C205.939 159.954 216.782 146.353 215.882 130.882C215.098 117.426 205.31 105.806 192.279 102.509Z" fill="#060300"/>
<path opacity="0.0396" d="M191.645 101.929C184.253 100.059 176.911 101.091 170.208 104.685C163.246 108.418 157.405 114.243 153.01 120.758C152.425 121.624 151.873 122.508 151.345 123.408C144.219 111.249 131.049 99.716 116.314 101.046C102.748 102.272 90.9535 112.105 88.0788 125.568C84.7495 141.164 94.4696 155.43 103.993 166.798C112.556 177.022 122.133 186.405 131.867 195.503C137.799 201.048 143.798 206.566 150.022 211.787C150.121 211.871 150.218 211.954 150.317 212.038C150.642 212.313 151.001 212.417 151.342 212.401C151.685 212.417 152.045 212.314 152.37 212.038C157.51 207.677 162.525 203.161 167.484 198.596C177.265 189.595 186.86 180.317 195.65 170.336C205.305 159.374 216.149 145.773 215.248 130.302C214.463 116.846 204.676 105.226 191.645 101.929Z" fill="#060300"/>
<path opacity="0.0416" d="M191.009 101.349C183.617 99.479 176.275 100.511 169.572 104.105C162.61 107.838 156.77 113.663 152.374 120.178C151.79 121.044 151.238 121.928 150.709 122.828C143.584 110.669 130.413 99.1359 115.678 100.466C102.112 101.692 90.3178 111.525 87.443 124.988C84.1137 140.584 93.8339 154.85 103.357 166.218C111.92 176.441 121.497 185.825 131.231 194.923C137.163 200.468 143.162 205.986 149.386 211.207C149.485 211.291 149.583 211.374 149.682 211.458C150.006 211.733 150.365 211.837 150.706 211.821C151.049 211.837 151.409 211.734 151.734 211.458C156.874 207.097 161.889 202.58 166.848 198.016C176.63 189.015 186.224 179.737 195.015 169.756C204.669 158.794 215.513 145.193 214.612 129.722C213.829 116.266 204.04 104.646 191.009 101.349Z" fill="#060300"/>
<path opacity="0.0436" d="M190.374 100.769C182.982 98.8989 175.641 99.9308 168.937 103.525C161.975 107.258 156.135 113.083 151.739 119.598C151.155 120.464 150.603 121.348 150.074 122.247C142.949 110.089 129.778 98.5558 115.043 99.8862C101.478 101.112 89.683 110.945 86.8082 124.408C83.479 140.004 93.1991 154.27 102.723 165.638C111.286 175.861 120.862 185.245 130.596 194.343C136.529 199.888 142.528 205.406 148.751 210.627C148.85 210.711 148.948 210.794 149.047 210.878C149.372 211.153 149.73 211.257 150.072 211.241C150.415 211.257 150.774 211.154 151.099 210.878C156.239 206.517 161.254 202 166.213 197.436C175.995 188.434 185.589 179.157 194.38 169.176C204.034 158.214 214.878 144.613 213.978 129.142C213.194 115.686 203.406 104.066 190.374 100.769Z" fill="#070300"/>
<path opacity="0.0455" d="M189.738 100.189C182.347 98.3188 175.005 99.3508 168.302 102.944C161.339 106.678 155.499 112.503 151.103 119.018C150.519 119.884 149.967 120.768 149.439 121.667C142.313 109.508 129.142 97.9757 114.407 99.3061C100.842 100.532 89.0473 110.365 86.1725 123.827C82.8432 139.424 92.5634 153.69 102.087 165.058C110.65 175.281 120.227 184.665 129.961 193.763C135.893 199.308 141.892 204.826 148.116 210.047C148.214 210.131 148.312 210.214 148.411 210.298C148.736 210.573 149.094 210.677 149.436 210.66C149.779 210.677 150.138 210.574 150.463 210.298C155.604 205.937 160.618 201.42 165.577 196.856C175.359 187.854 184.954 178.577 193.744 168.596C203.399 157.634 214.242 144.033 213.342 128.562C212.558 115.106 202.77 103.486 189.738 100.189Z" fill="#070300"/>
<path opacity="0.0475" d="M189.105 99.6088C181.713 97.7387 174.371 98.7707 167.668 102.364C160.705 106.098 154.865 111.922 150.469 118.438C149.885 119.304 149.333 120.188 148.805 121.087C141.679 108.928 128.508 97.3957 113.773 98.726C100.208 99.9518 88.4135 109.785 85.5387 123.247C82.2094 138.844 91.9296 153.11 101.453 164.478C110.016 174.701 119.593 184.085 129.327 193.183C135.259 198.728 141.258 204.246 147.482 209.467C147.581 209.55 147.678 209.634 147.777 209.718C148.102 209.993 148.46 210.097 148.802 210.08C149.145 210.097 149.505 209.994 149.83 209.718C154.97 205.357 159.985 200.84 164.944 196.276C174.725 187.274 184.32 177.996 193.11 168.016C202.765 157.054 213.609 143.453 212.708 127.982C211.925 114.527 202.136 102.907 189.105 99.6088Z" fill="#070300"/>
<path opacity="0.0495" d="M188.469 99.0287C181.077 97.1586 173.735 98.1906 167.032 101.784C160.07 105.517 154.23 111.342 149.834 117.858C149.25 118.724 148.697 119.608 148.169 120.507C141.043 108.348 127.873 96.8156 113.138 98.146C99.5725 99.3718 87.7778 109.205 84.903 122.667C81.5737 138.264 91.2939 152.53 100.817 163.898C109.38 174.121 118.957 183.505 128.691 192.603C134.623 198.147 140.622 203.666 146.846 208.887C146.945 208.97 147.043 209.054 147.142 209.138C147.466 209.412 147.825 209.517 148.166 209.5C148.509 209.517 148.869 209.414 149.194 209.138C154.334 204.777 159.349 200.26 164.308 195.696C174.09 186.694 183.684 177.416 192.475 167.436C202.129 156.473 212.973 142.873 212.072 127.402C211.289 113.947 201.5 102.327 188.469 99.0287Z" fill="#070400"/>
<path opacity="0.0515" d="M187.834 98.4506C180.442 96.5805 173.101 97.6125 166.397 101.206C159.435 104.939 153.595 110.764 149.199 117.279C148.615 118.145 148.063 119.03 147.534 119.929C140.409 107.77 127.238 96.2375 112.503 97.5678C98.9377 98.7936 87.143 108.626 84.2682 122.089C80.9389 137.686 90.6591 151.952 100.183 163.32C108.746 173.543 118.322 182.927 128.056 192.025C133.989 197.569 139.988 203.087 146.211 208.309C146.31 208.392 146.408 208.476 146.507 208.56C146.832 208.834 147.19 208.939 147.531 208.922C147.874 208.939 148.234 208.836 148.559 208.56C153.699 204.199 158.714 199.682 163.673 195.118C173.455 186.116 183.049 176.838 191.84 166.858C201.494 155.895 212.338 142.294 211.437 126.824C210.654 113.368 200.866 101.747 187.834 98.4506Z" fill="#080400"/>
<path opacity="0.0535" d="M187.2 97.8705C179.808 96.0004 172.466 97.0324 165.763 100.626C158.8 104.359 152.96 110.184 148.564 116.699C147.98 117.565 147.428 118.45 146.9 119.349C139.774 107.19 126.603 95.6574 111.868 96.9878C98.3029 98.2136 86.5082 108.046 83.6334 121.509C80.3042 137.106 90.0243 151.372 99.5479 162.74C108.111 172.963 117.687 182.347 127.422 191.445C133.354 196.989 139.353 202.507 145.577 207.729C145.675 207.812 145.773 207.896 145.872 207.98C146.197 208.254 146.555 208.359 146.897 208.342C147.24 208.359 147.599 208.256 147.924 207.98C153.065 203.619 158.079 199.102 163.039 194.538C172.82 185.536 182.415 176.258 191.205 166.278C200.86 155.315 211.703 141.714 210.803 126.244C210.018 112.788 200.231 101.167 187.2 97.8705Z" fill="#080400"/>
<path opacity="0.0554" d="M186.564 97.2906C179.172 95.4206 171.831 96.4525 165.127 100.046C158.165 103.779 152.325 109.604 147.929 116.12C147.345 116.986 146.793 117.87 146.264 118.769C139.139 106.61 125.968 95.0761 111.233 96.4079C97.6676 97.6337 85.873 107.466 82.9982 120.929C79.6703 136.526 89.3904 150.792 98.9126 162.16C107.476 172.383 117.052 181.767 126.786 190.865C132.718 196.409 138.718 201.928 144.941 207.149C145.04 207.232 145.138 207.316 145.237 207.4C145.562 207.674 145.92 207.779 146.261 207.762C146.604 207.779 146.964 207.676 147.289 207.4C152.429 203.039 157.444 198.522 162.403 193.958C172.185 184.956 181.779 175.678 190.57 165.698C200.224 154.735 211.068 141.135 210.167 125.664C209.384 112.208 199.595 100.587 186.564 97.2906Z" fill="#080400"/>
<path opacity="0.0574" d="M185.93 96.7103C178.538 94.8403 171.196 95.8722 164.493 99.4659C157.531 103.199 151.69 109.024 147.295 115.539C146.71 116.405 146.158 117.289 145.63 118.189C138.504 106.03 125.334 94.4972 110.599 95.8276C97.0334 97.0534 85.2387 106.886 82.3639 120.349C79.0346 135.945 88.7548 150.211 98.2784 161.58C106.841 171.803 116.418 181.187 126.152 190.284C132.084 195.829 138.083 201.347 144.307 206.568C144.406 206.652 144.503 206.736 144.602 206.819C144.927 207.094 145.286 207.199 145.627 207.182C145.97 207.199 146.33 207.095 146.655 206.819C151.795 202.459 156.81 197.942 161.769 193.378C171.55 184.376 181.145 175.098 189.935 165.117C199.59 154.155 210.434 140.554 209.533 125.083C208.748 111.628 198.961 100.007 185.93 96.7103Z" fill="#090400"/>
<path opacity="0.0594" d="M185.294 96.1303C177.902 94.2602 170.561 95.2922 163.857 98.8859C156.895 102.619 151.055 108.444 146.659 114.959C146.075 115.825 145.523 116.709 144.994 117.609C137.869 105.45 124.698 93.9172 109.963 95.2475C96.3976 96.4733 84.603 106.306 81.7282 119.769C78.3989 135.365 88.119 149.631 97.6426 160.999C106.206 171.223 115.782 180.606 125.516 189.704C131.449 195.249 137.448 200.767 143.671 205.988C143.77 206.072 143.868 206.156 143.967 206.239C144.292 206.514 144.65 206.619 144.992 206.602C145.334 206.619 145.694 206.515 146.019 206.239C151.159 201.879 156.174 197.362 161.133 192.797C170.915 183.796 180.509 174.518 189.3 164.537C198.954 153.575 209.798 139.974 208.898 124.503C208.114 111.048 198.326 99.4269 185.294 96.1303Z" fill="#090400"/>
<path opacity="0.0614" d="M184.659 95.5502C177.268 93.6801 169.926 94.7121 163.223 98.3058C156.26 102.039 150.42 107.864 146.024 114.379C145.44 115.245 144.888 116.129 144.36 117.029C137.233 104.87 124.063 93.3371 109.328 94.6675C95.7629 95.8932 83.9682 105.726 81.0934 119.189C77.7641 134.785 87.4843 149.051 97.0079 160.419C105.571 170.643 115.147 180.026 124.882 189.124C130.814 194.669 136.813 200.187 143.036 205.408C143.135 205.492 143.233 205.576 143.332 205.659C143.657 205.934 144.015 206.039 144.357 206.022C144.7 206.039 145.059 205.935 145.384 205.659C150.525 201.299 155.539 196.782 160.498 192.217C170.28 183.216 179.875 173.938 188.665 163.957C198.32 152.995 209.163 139.394 208.263 123.923C207.479 110.469 197.691 98.8482 184.659 95.5502Z" fill="#090400"/>
<path opacity="0.0634" d="M184.024 94.9701C176.632 93.1001 169.29 94.132 162.587 97.7257C155.624 101.459 149.784 107.284 145.388 113.799C144.804 114.665 144.252 115.549 143.724 116.449C136.598 104.29 123.427 92.757 108.692 94.0874C95.1271 95.3132 83.3324 105.146 80.4577 118.609C77.1284 134.205 86.8485 148.471 96.3721 159.839C104.935 170.063 114.512 179.446 124.246 188.544C130.178 194.089 136.177 199.607 142.401 204.828C142.5 204.912 142.597 204.995 142.696 205.079C143.021 205.354 143.379 205.458 143.721 205.442C144.064 205.458 144.424 205.355 144.748 205.079C149.889 200.718 154.904 196.202 159.863 191.637C169.644 182.636 179.239 173.358 188.029 163.377C197.684 152.415 208.528 138.814 207.627 123.343C206.843 109.887 197.055 98.2668 184.024 94.9701Z" fill="#0A0500"/>
<path opacity="0.0653" d="M183.39 94.39C175.998 92.52 168.656 93.5519 161.953 97.1456C154.991 100.879 149.15 106.704 144.755 113.219C144.17 114.085 143.618 114.969 143.09 115.869C135.964 103.71 122.794 92.1769 108.059 93.5073C94.4933 94.7331 82.6987 104.566 79.8239 118.029C76.4946 133.625 86.2148 147.891 95.7383 159.259C104.301 169.483 113.878 178.866 123.612 187.964C129.544 193.509 135.543 199.027 141.767 204.248C141.866 204.332 141.964 204.415 142.062 204.499C142.387 204.774 142.746 204.878 143.087 204.862C143.43 204.878 143.79 204.775 144.115 204.499C149.255 200.138 154.27 195.622 159.229 191.057C169.01 182.056 178.605 172.778 187.395 162.797C197.05 151.835 207.894 138.234 206.993 122.763C206.21 109.307 196.421 97.6867 183.39 94.39Z" fill="#0A0500"/>
<path opacity="0.0673" d="M182.754 93.81C175.362 91.9399 168.021 92.9718 161.317 96.5655C154.355 100.299 148.515 106.124 144.119 112.639C143.535 113.505 142.983 114.389 142.454 115.288C135.329 103.13 122.158 91.5968 107.423 92.9272C93.8576 94.153 82.0629 103.986 79.1881 117.449C75.8588 133.045 85.579 147.311 95.1026 158.679C103.666 168.902 113.242 178.286 122.976 187.384C128.908 192.929 134.908 198.447 141.131 203.668C141.23 203.752 141.328 203.835 141.427 203.919C141.752 204.194 142.11 204.298 142.451 204.282C142.794 204.298 143.154 204.195 143.479 203.919C148.619 199.558 153.634 195.041 158.593 190.477C168.375 181.475 177.969 172.198 186.76 162.217C196.414 151.255 207.258 137.654 206.358 122.183C205.574 108.727 195.786 97.1066 182.754 93.81Z" fill="#0A0500"/>
<path opacity="0.0693" d="M182.119 93.2299C174.727 91.3598 167.386 92.3918 160.683 95.9855C153.72 99.7186 147.88 105.544 143.484 112.059C142.9 112.925 142.348 113.809 141.819 114.708C134.694 102.549 121.523 91.0168 106.788 92.3471C93.2228 93.5729 81.4281 103.406 78.5534 116.868C75.2241 132.465 84.9442 146.731 94.4678 158.099C103.031 168.322 112.607 177.706 122.341 186.804C128.274 192.349 134.273 197.867 140.496 203.088C140.595 203.172 140.693 203.255 140.792 203.339C141.117 203.614 141.475 203.718 141.817 203.701C142.16 203.718 142.519 203.615 142.844 203.339C147.984 198.978 152.999 194.461 157.958 189.897C167.74 180.895 177.335 171.618 186.125 161.637C195.779 150.675 206.623 137.074 205.723 121.603C204.939 108.147 195.151 96.5265 182.119 93.2299Z" fill="#0A0500"/>
<path opacity="0.0713" d="M181.484 92.6498C174.092 90.7797 166.75 91.8117 160.047 95.4054C153.084 99.1385 147.244 104.963 142.848 111.479C142.264 112.345 141.712 113.229 141.184 114.128C134.058 101.969 120.889 90.4367 106.152 91.7671C92.5871 92.9929 80.7924 102.826 77.9176 116.288C74.5883 131.885 84.3085 146.151 93.8321 157.519C102.395 167.742 111.972 177.126 121.706 186.224C127.638 191.769 133.637 197.287 139.861 202.508C139.96 202.591 140.057 202.675 140.156 202.759C140.481 203.034 140.839 203.138 141.181 203.121C141.524 203.138 141.884 203.035 142.208 202.759C147.349 198.398 152.364 193.881 157.323 189.317C167.104 180.315 176.699 171.038 185.489 161.057C195.144 150.095 205.988 136.494 205.087 121.023C204.303 107.567 194.516 95.9465 181.484 92.6498Z" fill="#0B0500"/>
<path opacity="0.0733" d="M180.85 92.0697C173.458 90.1997 166.116 91.2316 159.413 94.8253C152.451 98.5584 146.61 104.383 142.215 110.899C141.63 111.765 141.078 112.649 140.55 113.548C133.424 101.389 120.254 89.8566 105.519 91.187C91.9533 92.4128 80.1586 102.246 77.2838 115.708C73.9545 131.305 83.6747 145.571 93.1983 156.939C101.761 167.162 111.338 176.546 121.072 185.644C127.004 191.188 133.003 196.707 139.227 201.928C139.326 202.011 139.423 202.095 139.522 202.179C139.847 202.453 140.206 202.558 140.547 202.541C140.89 202.558 141.25 202.455 141.575 202.179C146.715 197.818 151.73 193.301 156.689 188.737C166.47 179.735 176.065 170.457 184.855 160.477C194.51 149.514 205.354 135.914 204.453 120.443C203.67 106.988 193.881 95.3678 180.85 92.0697Z" fill="#0B0500"/>
<path opacity="0.0752" d="M180.215 91.4916C172.823 89.6215 165.482 90.6535 158.778 94.2472C151.816 97.9803 145.976 103.805 141.58 110.32C140.996 111.187 140.444 112.071 139.915 112.97C132.79 100.811 119.619 89.2785 104.884 90.6089C91.3185 91.8346 79.5238 101.667 76.6491 115.13C73.3198 130.727 83.0399 144.993 92.5635 156.361C101.127 166.584 110.703 175.968 120.437 185.066C126.369 190.61 132.369 196.128 138.592 201.35C138.691 201.433 138.789 201.517 138.888 201.601C139.213 201.875 139.571 201.98 139.912 201.963C140.255 201.98 140.615 201.877 140.94 201.601C146.08 197.24 151.095 192.723 156.054 188.159C165.836 179.157 175.43 169.879 184.221 159.899C193.875 148.936 204.719 135.336 203.818 119.865C203.034 106.409 193.246 94.7883 180.215 91.4916Z" fill="#0B0600"/>
<path opacity="0.0772" d="M179.579 90.9115C172.187 89.0415 164.846 90.0734 158.143 93.6671C151.18 97.4002 145.34 103.225 140.944 109.74C140.36 110.606 139.808 111.491 139.279 112.39C132.154 100.231 118.983 88.6984 104.248 90.0288C90.6828 91.2546 78.8881 101.087 76.0133 114.55C72.684 130.147 82.4042 144.413 91.9278 155.781C100.491 166.004 110.067 175.388 119.801 184.486C125.734 190.03 131.733 195.548 137.956 200.77C138.055 200.853 138.153 200.937 138.252 201.021C138.577 201.295 138.935 201.4 139.277 201.383C139.62 201.4 139.979 201.297 140.304 201.021C145.444 196.66 150.459 192.143 155.418 187.579C165.2 178.577 174.795 169.299 183.585 159.319C193.239 148.356 204.083 134.755 203.183 119.285C202.399 105.829 192.611 94.2082 179.579 90.9115Z" fill="#0C0600"/>
<path opacity="0.0792" d="M178.945 90.3314C171.553 88.4614 164.211 89.4933 157.508 93.087C150.545 96.8202 144.705 102.645 140.309 109.16C139.725 110.026 139.173 110.91 138.645 111.81C131.519 99.6511 118.348 88.1183 103.613 89.4487C90.048 90.6745 78.2533 100.507 75.3786 113.97C72.0493 129.566 81.7694 143.832 91.293 155.201C99.856 165.424 109.433 174.808 119.167 183.906C125.099 189.45 131.098 194.968 137.322 200.189C137.421 200.273 137.518 200.357 137.617 200.44C137.942 200.715 138.3 200.82 138.642 200.803C138.985 200.82 139.345 200.717 139.669 200.44C144.81 196.08 149.825 191.563 154.784 186.999C164.565 177.997 174.16 168.719 182.95 158.739C192.605 147.776 203.449 134.175 202.548 118.704C201.764 105.249 191.976 93.6281 178.945 90.3314Z" fill="#0C0600"/>
<path opacity="0.0812" d="M178.309 89.7514C170.917 87.8813 163.575 88.9132 156.872 92.5069C149.91 96.2401 144.069 102.065 139.674 108.58C139.089 109.446 138.537 110.33 138.009 111.23C130.883 99.071 117.713 87.5382 102.978 88.8686C89.4123 90.0944 77.6176 99.9272 74.7428 113.39C71.4135 128.986 81.1337 143.252 90.6573 154.621C99.2203 164.844 108.797 174.228 118.531 183.325C124.463 188.87 130.462 194.388 136.686 199.609C136.785 199.693 136.882 199.777 136.981 199.86C137.306 200.135 137.665 200.24 138.006 200.223C138.349 200.24 138.709 200.136 139.034 199.86C144.174 195.5 149.189 190.983 154.148 186.419C163.929 177.417 173.524 168.139 182.314 158.158C191.969 147.196 202.813 133.595 201.912 118.124C201.129 104.669 191.34 93.048 178.309 89.7514Z" fill="#0C0600"/>
<path opacity="0.0832" d="M177.675 89.1713C170.283 87.3012 162.941 88.3332 156.238 91.9269C149.276 95.66 143.436 101.485 139.04 108C138.456 108.866 137.903 109.75 137.375 110.65C130.249 98.4909 117.079 86.9582 102.344 88.2885C88.7785 89.5143 76.9838 99.3471 74.109 112.81C70.7797 128.406 80.4999 142.672 90.0235 154.04C98.5865 164.264 108.163 173.648 117.897 182.745C123.829 188.29 129.828 193.808 136.052 199.029C136.151 199.113 136.249 199.197 136.348 199.28C136.672 199.555 137.031 199.66 137.372 199.643C137.715 199.66 138.075 199.556 138.4 199.28C143.54 194.92 148.555 190.403 153.514 185.838C163.296 176.837 172.89 167.559 181.68 157.578C191.335 146.616 202.179 133.015 201.278 117.544C200.495 104.089 190.706 92.4679 177.675 89.1713Z" fill="#0D0600"/>
<path opacity="0.0851" d="M177.039 88.5912C169.647 86.7211 162.306 87.7531 155.602 91.3468C148.64 95.0799 142.8 100.905 138.404 107.42C137.82 108.286 137.268 109.17 136.739 110.07C129.614 97.9108 116.443 86.3781 101.708 87.7085C88.1428 88.9343 76.3481 98.7671 73.4733 112.23C70.144 127.826 79.8642 142.092 89.3877 153.46C97.9507 163.684 107.527 173.067 117.261 182.165C123.194 187.71 129.193 193.228 135.416 198.449C135.515 198.533 135.613 198.617 135.712 198.7C136.037 198.975 136.395 199.08 136.737 199.063C137.08 199.08 137.439 198.976 137.764 198.7C142.904 194.34 147.919 189.823 152.878 185.258C162.66 176.257 172.254 166.979 181.045 156.998C190.699 146.036 201.543 132.435 200.643 116.964C199.859 103.51 190.071 91.8893 177.039 88.5912Z" fill="#0D0600"/>
<path opacity="0.0871" d="M176.405 88.0111C169.013 86.1411 161.671 87.173 154.968 90.7667C148.005 94.4999 142.165 100.325 137.769 106.84C137.185 107.706 136.633 108.59 136.105 109.49C128.979 97.3307 115.808 85.798 101.073 87.1284C87.508 88.3542 75.7133 98.187 72.8385 111.65C69.5092 127.246 79.2294 141.512 88.753 152.88C97.316 163.104 106.893 172.487 116.627 181.585C122.559 187.13 128.558 192.648 134.782 197.869C134.881 197.953 134.978 198.036 135.077 198.12C135.402 198.395 135.76 198.499 136.102 198.483C136.445 198.499 136.805 198.396 137.129 198.12C142.27 193.759 147.285 189.243 152.244 184.678C162.025 175.677 171.62 166.399 180.41 156.418C190.065 145.456 200.909 131.855 200.008 116.384C199.224 102.93 189.436 91.3092 176.405 88.0111Z" fill="#0D0600"/>
<path opacity="0.0891" d="M175.769 87.433C168.377 85.5629 161.035 86.5949 154.332 90.1886C147.37 93.9217 141.529 99.7467 137.134 106.262C136.549 107.128 135.997 108.012 135.469 108.911C128.343 96.7526 115.173 85.2199 100.438 86.5503C86.8722 87.7761 75.0776 97.6089 72.2028 111.072C68.8735 126.668 78.5937 140.934 88.1172 152.302C96.6802 162.525 106.257 171.909 115.991 181.007C121.923 186.552 127.922 192.07 134.146 197.291C134.245 197.375 134.342 197.458 134.441 197.542C134.766 197.817 135.125 197.921 135.466 197.905C135.809 197.921 136.169 197.818 136.494 197.542C141.634 193.181 146.649 188.664 151.608 184.1C161.389 175.099 170.984 165.821 179.774 155.84C189.429 144.878 200.273 131.277 199.372 115.806C198.589 102.35 188.802 90.7297 175.769 87.433Z" fill="#0D0700"/>
<path opacity="0.0911" d="M175.135 86.8529C167.743 84.9829 160.401 86.0148 153.698 89.6085C146.736 93.3417 140.896 99.1666 136.5 105.682C135.916 106.548 135.363 107.432 134.835 108.331C127.709 96.1725 114.539 84.6398 99.8037 85.9702C86.2385 87.196 74.4438 97.0288 71.569 110.492C68.2397 126.088 77.9599 140.354 87.4834 151.722C96.0464 161.945 105.623 171.329 115.357 180.427C121.289 185.972 127.288 191.49 133.512 196.711C133.611 196.795 133.709 196.878 133.808 196.962C134.132 197.237 134.491 197.341 134.832 197.325C135.175 197.341 135.535 197.238 135.86 196.962C141 192.601 146.015 188.084 150.974 183.52C160.756 174.518 170.35 165.241 179.14 155.26C188.795 144.298 199.639 130.697 198.738 115.226C197.955 101.77 188.166 90.1496 175.135 86.8529Z" fill="#0E0700"/>
<path opacity="0.0931" d="M174.5 86.2711C167.108 84.401 159.767 85.433 153.063 89.0267C146.101 92.7598 140.261 98.5848 135.865 105.1C135.281 105.966 134.729 106.85 134.2 107.75C127.073 95.5907 113.904 84.0566 99.169 85.3884C85.6037 86.6141 73.809 96.447 70.9342 109.91C67.6049 125.506 77.3251 139.772 86.8487 151.14C95.4117 161.364 104.988 170.747 114.722 179.845C120.655 185.39 126.654 190.908 132.877 196.129C132.976 196.213 133.074 196.296 133.173 196.38C133.498 196.655 133.856 196.759 134.198 196.743C134.541 196.759 134.9 196.656 135.225 196.38C140.365 192.019 145.38 187.503 150.339 182.938C160.121 173.937 169.715 164.659 178.506 154.678C188.16 143.716 199.004 130.115 198.104 114.644C197.319 101.188 187.532 89.5678 174.5 86.2711Z" fill="#0E0700"/>
<path opacity="0.095" d="M173.865 85.6928C166.473 83.8227 159.131 84.8547 152.428 88.4483C145.465 92.1815 139.625 98.0064 135.229 104.522C134.645 105.388 134.093 106.272 133.565 107.171C126.439 95.0124 113.268 83.4797 98.5332 84.81C84.968 86.0358 73.1733 95.8686 70.2985 109.331C66.9692 124.928 76.6894 139.194 86.213 150.562C94.776 160.785 104.353 170.169 114.087 179.267C120.019 184.812 126.018 190.33 132.242 195.551C132.341 195.634 132.438 195.718 132.537 195.802C132.862 196.077 133.22 196.181 133.562 196.164C133.905 196.181 134.264 196.078 134.589 195.802C139.73 191.441 144.744 186.924 149.704 182.36C159.485 173.358 169.08 164.08 177.87 154.1C187.525 143.137 198.369 129.537 197.468 114.066C196.684 100.61 186.896 88.9894 173.865 85.6928Z" fill="#0E0700"/>
<path opacity="0.097" d="M173.231 85.1107C165.839 83.2407 158.497 84.2726 151.794 87.8663C144.831 91.5995 138.991 97.4244 134.595 103.94C134.011 104.806 133.459 105.69 132.931 106.589C125.805 94.4304 112.634 82.8976 97.8994 84.228C84.3342 85.4538 72.5395 95.2866 69.6647 108.749C66.3354 124.346 76.0556 138.612 85.5791 149.98C94.1421 160.203 103.719 169.587 113.453 178.685C119.385 184.229 125.384 189.748 131.608 194.969C131.707 195.052 131.804 195.136 131.903 195.22C132.228 195.494 132.586 195.599 132.928 195.582C133.271 195.599 133.631 195.496 133.955 195.22C139.096 190.859 144.111 186.342 149.07 181.778C158.851 172.776 168.446 163.498 177.236 153.518C186.891 142.555 197.735 128.955 196.834 113.484C196.05 100.029 186.262 88.4088 173.231 85.1107Z" fill="#0F0700"/>
<path opacity="0.099" d="M172.595 84.5307C165.203 82.6606 157.861 83.6925 151.158 87.2862C144.196 91.0194 138.355 96.8443 133.96 103.36C133.375 104.226 132.823 105.11 132.295 106.009C125.169 93.8503 111.999 82.3175 97.2637 83.6479C83.6984 84.8737 71.9037 94.7065 69.0289 108.169C65.6997 123.766 75.4198 138.032 84.9434 149.4C93.5064 159.623 103.083 169.007 112.817 178.105C118.749 183.649 124.748 189.168 130.972 194.389C131.071 194.472 131.169 194.556 131.268 194.64C131.592 194.914 131.951 195.019 132.292 195.002C132.635 195.019 132.995 194.916 133.32 194.64C138.46 190.279 143.475 185.762 148.434 181.198C158.215 172.196 167.81 162.918 176.6 152.938C186.255 141.975 197.099 128.375 196.198 112.904C195.415 99.4493 185.626 87.8287 172.595 84.5307Z" fill="#0F0700"/>
<path opacity="0.101" d="M171.96 83.9525C164.568 82.0825 157.227 83.1144 150.523 86.7081C143.561 90.4413 137.721 96.2662 133.325 102.781C132.741 103.647 132.189 104.532 131.66 105.431C124.535 93.2722 111.364 81.7394 96.6289 83.0698C83.0637 84.2956 71.269 94.1284 68.3942 107.591C65.0649 123.188 74.7851 137.454 84.3086 148.822C92.8716 159.045 102.448 168.429 112.182 177.527C118.115 183.071 124.114 188.589 130.337 193.811C130.436 193.894 130.534 193.978 130.633 194.062C130.958 194.336 131.316 194.441 131.658 194.424C132 194.441 132.36 194.338 132.685 194.062C137.825 189.701 142.84 185.184 147.799 180.62C157.581 171.618 167.175 162.34 175.966 152.36C185.62 141.397 196.464 127.796 195.564 112.326C194.78 98.8698 184.992 87.2492 171.96 83.9525Z" fill="#0F0700"/>
<path opacity="0.103" d="M171.325 83.3724C163.933 81.5024 156.591 82.5343 149.888 86.128C142.925 89.8612 137.085 95.6861 132.689 102.201C132.105 103.067 131.553 103.951 131.025 104.851C123.899 92.6921 110.728 81.1593 95.9932 82.4897C82.4279 83.7155 70.6332 93.5483 67.7584 107.011C64.4292 122.607 74.1493 136.873 83.6729 148.242C92.2359 158.465 101.812 167.849 111.547 176.947C117.479 182.491 123.478 188.009 129.702 193.23C129.8 193.314 129.898 193.398 129.997 193.481C130.322 193.756 130.68 193.861 131.022 193.844C131.365 193.861 131.724 193.758 132.049 193.481C137.19 189.121 142.204 184.604 147.164 180.04C156.945 171.038 166.54 161.76 175.33 151.78C184.985 140.817 195.828 127.216 194.928 111.745C194.144 98.2897 184.356 86.6691 171.325 83.3724Z" fill="#100800"/>
<path opacity="0.105" d="M170.69 82.7924C163.298 80.9223 155.956 81.9543 149.253 85.548C142.29 89.2811 136.45 95.1061 132.054 101.621C131.47 102.487 130.918 103.371 130.39 104.271C123.264 92.112 110.093 80.5793 95.3584 81.9096C81.7931 83.1354 69.9985 92.9682 67.1237 106.431C63.7944 122.027 73.5146 136.293 83.0381 147.662C91.6011 157.885 101.178 167.269 110.912 176.366C116.844 181.911 122.843 187.429 129.067 192.65C129.166 192.734 129.263 192.818 129.362 192.901C129.687 193.176 130.045 193.281 130.387 193.264C130.73 193.281 131.09 193.178 131.414 192.901C136.555 188.541 141.57 184.024 146.529 179.46C156.31 170.458 165.905 161.18 174.695 151.199C184.35 140.237 195.194 126.636 194.293 111.165C193.509 97.7096 183.721 86.089 170.69 82.7924Z" fill="#100800"/>
<path opacity="0.1069" d="M170.054 82.2123C162.662 80.3422 155.32 81.3742 148.617 84.9679C141.655 88.701 135.814 94.526 131.419 101.041C130.834 101.907 130.282 102.791 129.754 103.691C122.628 91.5319 109.458 79.9992 94.7227 81.3296C81.1574 82.5554 69.3627 92.3882 66.4879 105.851C63.1587 121.447 72.8788 135.713 82.4024 147.081C90.9654 157.305 100.542 166.689 110.276 175.786C116.208 181.331 122.207 186.849 128.431 192.07C128.53 192.154 128.628 192.238 128.727 192.321C129.051 192.596 129.41 192.701 129.751 192.684C130.094 192.701 130.454 192.597 130.779 192.321C135.919 187.961 140.934 183.444 145.893 178.879C155.674 169.878 165.269 160.6 174.059 150.619C183.714 139.657 194.558 126.056 193.657 110.585C192.874 97.1295 183.087 85.509 170.054 82.2123Z" fill="#100800"/>
<path opacity="0.1089" d="M169.42 81.6322C162.028 79.7622 154.687 80.7941 147.983 84.3878C141.021 88.121 135.181 93.9459 130.785 100.461C130.201 101.327 129.649 102.211 129.12 103.111C121.995 90.9518 108.824 79.4191 94.0889 80.7495C80.5236 81.9753 68.7289 91.8081 65.8541 105.271C62.5249 120.867 72.245 135.133 81.7686 146.501C90.3316 156.725 99.9082 166.108 109.642 175.206C115.575 180.751 121.574 186.269 127.797 191.49C127.896 191.574 127.994 191.658 128.093 191.741C128.418 192.016 128.776 192.121 129.117 192.104C129.46 192.121 129.82 192.017 130.145 191.741C135.285 187.381 140.3 182.864 145.259 178.299C155.041 169.298 164.635 160.02 173.426 150.039C183.08 139.077 193.924 125.476 193.024 110.005C192.24 96.5495 182.452 84.9289 169.42 81.6322Z" fill="#100800"/>
<path opacity="0.1109" d="M168.785 81.0521C161.393 79.1821 154.052 80.214 147.349 83.8077C140.386 87.5409 134.546 93.3658 130.15 99.881C129.566 100.747 129.014 101.631 128.485 102.531C121.36 90.3718 108.189 78.839 93.4541 80.1694C79.8888 81.3952 68.0942 91.228 65.2194 104.691C61.8901 120.287 71.6103 134.553 81.1338 145.921C89.6968 156.145 99.2734 165.528 109.007 174.626C114.94 180.171 120.939 185.689 127.162 190.91C127.261 190.994 127.359 191.077 127.458 191.161C127.783 191.436 128.141 191.54 128.483 191.524C128.826 191.54 129.185 191.437 129.51 191.161C134.65 186.8 139.665 182.284 144.624 177.719C154.406 168.718 164.001 159.44 172.791 149.459C182.445 138.497 193.289 124.896 192.389 109.425C191.604 95.9708 181.817 84.3502 168.785 81.0521Z" fill="#110800"/>
<path opacity="0.1129" d="M168.15 80.474C160.758 78.604 153.416 79.6359 146.713 83.2296C139.75 86.9628 133.91 92.7877 129.514 99.3029C128.93 100.169 128.378 101.053 127.85 101.953C120.724 89.7936 107.553 78.2609 92.8184 79.5913C79.2531 80.8171 67.4584 90.6499 64.5836 104.113C61.2544 119.709 70.9745 133.975 80.4981 145.343C89.0611 155.566 98.6377 164.95 108.372 174.048C114.304 179.593 120.303 185.111 126.527 190.332C126.626 190.416 126.723 190.499 126.822 190.583C127.147 190.858 127.505 190.962 127.847 190.946C128.19 190.962 128.55 190.859 128.874 190.583C134.015 186.222 139.03 181.705 143.989 177.141C153.77 168.14 163.365 158.862 172.155 148.881C181.81 137.919 192.654 124.318 191.753 108.847C190.969 95.3913 181.181 83.7707 168.15 80.474Z" fill="#110800"/>
<path opacity="0.1149" d="M167.516 79.8939C160.124 78.0239 152.782 79.0558 146.079 82.6495C139.117 86.3827 133.276 92.2076 128.881 98.7228C128.296 99.5888 127.744 100.473 127.216 101.372C120.09 89.2136 106.92 77.6808 92.1846 79.0112C78.6193 80.237 66.8246 90.0698 63.9498 103.533C60.6206 119.129 70.3407 133.395 79.8643 144.763C88.4273 154.986 98.0039 164.37 107.738 173.468C113.67 179.013 119.669 184.531 125.893 189.752C125.992 189.836 126.089 189.919 126.188 190.003C126.513 190.278 126.872 190.382 127.213 190.366C127.556 190.382 127.916 190.279 128.241 190.003C133.381 185.642 138.396 181.125 143.355 176.561C153.136 167.559 162.731 158.282 171.521 148.301C181.176 137.339 192.02 123.738 191.119 108.267C190.336 94.8112 180.547 83.1906 167.516 79.8939Z" fill="#110800"/>
<path opacity="0.1168" d="M166.88 79.3139C159.488 77.4438 152.147 78.4758 145.443 82.0695C138.481 85.8026 132.641 91.6275 128.245 98.1428C127.661 99.0088 127.109 99.8929 126.58 100.792C119.455 88.6335 106.284 77.1007 91.5489 78.4311C77.9836 79.6569 66.1889 89.4897 63.3141 102.952C59.9848 118.549 69.705 132.815 79.2286 144.183C87.7916 154.406 97.3681 163.79 107.102 172.888C113.034 178.433 119.034 183.951 125.257 189.172C125.356 189.256 125.454 189.339 125.553 189.423C125.878 189.698 126.236 189.802 126.577 189.785C126.92 189.802 127.28 189.699 127.605 189.423C132.745 185.062 137.76 180.545 142.719 175.981C152.501 166.979 162.095 157.702 170.886 147.721C180.54 136.759 191.384 123.158 190.484 107.687C189.7 94.2311 179.911 82.6105 166.88 79.3139Z" fill="#120900"/>
<path opacity="0.1188" d="M166.245 78.734C158.853 76.8639 151.512 77.8959 144.809 81.4896C137.846 85.2227 132.006 91.0476 127.61 97.5629C127.026 98.4289 126.474 99.313 125.945 100.212C118.818 88.0536 105.649 76.5195 90.9141 77.8512C77.3488 79.077 65.5541 88.9098 62.6793 102.373C59.3501 117.969 69.0702 132.235 78.5938 143.603C87.1568 153.826 96.7334 163.21 106.467 172.308C112.4 177.853 118.399 183.371 124.622 188.592C124.721 188.676 124.819 188.759 124.918 188.843C125.243 189.118 125.601 189.222 125.943 189.206C126.286 189.222 126.645 189.119 126.97 188.843C132.11 184.482 137.125 179.965 142.084 175.401C151.866 166.399 161.461 157.122 170.251 147.141C179.905 136.179 190.749 122.578 189.849 107.107C189.065 93.6512 179.277 82.0306 166.245 78.734Z" fill="#120900"/>
<path opacity="0.1208" d="M165.61 78.1537C158.218 76.2836 150.876 77.3156 144.173 80.9093C137.21 84.6424 131.37 90.4674 126.974 96.9826C126.39 97.8486 125.838 98.7327 125.31 99.6322C118.184 87.4733 105.013 75.9406 90.2783 77.271C76.7131 78.4968 64.9184 88.3296 62.0436 101.792C58.7143 117.389 68.4345 131.655 77.9581 143.023C86.5211 153.246 96.0976 162.63 105.832 171.728C111.764 177.272 117.763 182.791 123.987 188.012C124.086 188.095 124.183 188.179 124.282 188.263C124.607 188.537 124.965 188.642 125.307 188.625C125.65 188.642 126.01 188.539 126.334 188.263C131.475 183.902 136.49 179.385 141.449 174.821C151.23 165.819 160.825 156.541 169.615 146.561C179.27 135.598 190.114 121.998 189.213 106.527C188.429 93.071 178.641 81.4504 165.61 78.1537Z" fill="#120900"/>
<path opacity="0.1228" d="M164.976 77.5736C157.584 75.7036 150.242 76.7355 143.539 80.3292C136.577 84.0624 130.736 89.8873 126.341 96.4025C125.756 97.2685 125.204 98.1527 124.676 99.0521C117.55 86.8933 104.38 75.3605 89.6446 76.6909C76.0793 77.9167 64.2846 87.7495 61.4098 101.212C58.0805 116.809 67.8007 131.075 77.3243 142.443C85.8873 152.666 95.4639 162.05 105.198 171.148C111.13 176.692 117.129 182.211 123.353 187.432C123.452 187.515 123.549 187.599 123.648 187.683C123.973 187.957 124.332 188.062 124.673 188.045C125.016 188.062 125.376 187.959 125.701 187.683C130.841 183.322 135.856 178.805 140.815 174.241C150.596 165.239 160.191 155.961 168.981 145.981C178.636 135.018 189.48 121.418 188.579 105.947C187.796 92.4923 178.007 80.8717 164.976 77.5736Z" fill="#130900"/>
<path opacity="0.1248" d="M164.34 76.9935C156.948 75.1235 149.607 76.1554 142.903 79.7491C135.941 83.4823 130.101 89.3072 125.705 95.8224C125.121 96.6884 124.569 97.5726 124.04 98.472C116.915 86.3132 103.744 74.7804 89.0088 76.1108C75.4435 77.3366 63.6488 87.1694 60.7741 100.632C57.4448 116.229 67.165 130.495 76.6885 141.863C85.2515 152.086 94.8281 161.47 104.562 170.568C110.494 176.112 116.494 181.63 122.717 186.852C122.816 186.935 122.914 187.019 123.013 187.103C123.338 187.377 123.696 187.482 124.037 187.465C124.38 187.482 124.74 187.379 125.065 187.103C130.205 182.742 135.22 178.225 140.179 173.661C149.961 164.659 159.555 155.381 168.346 145.401C178 134.438 188.844 120.837 187.944 105.367C187.16 91.9122 177.373 80.2916 164.34 76.9935Z" fill="#130900"/>
<path opacity="0.1267" d="M163.705 76.4135C156.313 74.5434 148.972 75.5754 142.269 79.1691C135.306 82.9022 129.466 88.7271 125.07 95.2424C124.486 96.1084 123.934 96.9925 123.405 97.892C116.28 85.7331 103.109 74.2004 88.374 75.5307C74.8088 76.7565 63.0141 86.5893 60.1393 100.052C56.81 115.648 66.5302 129.914 76.0538 141.283C84.6168 151.506 94.1933 160.89 103.927 169.988C109.86 175.532 115.859 181.05 122.082 186.271C122.181 186.355 122.279 186.439 122.378 186.522C122.703 186.797 123.061 186.902 123.403 186.885C123.746 186.902 124.105 186.799 124.43 186.522C129.57 182.162 134.585 177.645 139.544 173.081C149.326 164.079 158.92 154.801 167.711 144.821C177.365 133.858 188.209 120.257 187.309 104.787C186.525 91.3307 176.737 79.7101 163.705 76.4135Z" fill="#130900"/>
<path opacity="0.1287" d="M163.071 75.8334C155.679 73.9633 148.337 74.9953 141.634 78.589C134.671 82.3221 128.831 88.1471 124.435 94.6623C123.851 95.5283 123.299 96.4124 122.771 97.3119C115.645 85.153 102.474 73.6203 87.7393 74.9507C74.174 76.1764 62.3793 86.0092 59.5045 99.472C56.1753 115.068 65.8954 129.334 75.419 140.703C83.982 150.926 93.5586 160.31 103.293 169.408C109.225 174.952 115.224 180.47 121.448 185.691C121.547 185.775 121.644 185.859 121.743 185.942C122.068 186.217 122.426 186.322 122.768 186.305C123.111 186.322 123.471 186.219 123.795 185.942C128.936 181.582 133.951 177.065 138.91 172.501C148.691 163.499 158.286 154.221 167.076 144.24C176.731 133.278 187.575 119.677 186.674 104.206C185.889 90.7506 176.102 79.13 163.071 75.8334Z" fill="#130900"/>
<path opacity="0.1307" d="M162.435 75.2533C155.043 73.3833 147.702 74.4152 140.999 78.0089C134.036 81.742 128.196 87.567 123.8 94.0822C123.216 94.9482 122.664 95.8323 122.135 96.7318C115.01 84.5729 101.839 73.0402 87.104 74.3706C73.5387 75.5964 61.7441 85.4292 58.8693 98.8919C55.5414 114.488 65.2616 128.754 74.7837 140.122C83.3468 150.346 92.9233 159.73 102.657 168.827C108.59 174.372 114.589 179.89 120.812 185.111C120.911 185.195 121.009 185.279 121.108 185.362C121.433 185.637 121.791 185.742 122.133 185.725C122.476 185.742 122.835 185.638 123.16 185.362C128.3 181.002 133.315 176.485 138.274 171.92C148.056 162.919 157.651 153.641 166.441 143.66C176.095 132.698 186.939 119.097 186.039 103.626C185.255 90.1706 175.467 78.55 162.435 75.2533Z" fill="#140A00"/>
<path opacity="0.1327" d="M161.801 74.6732C154.409 72.8032 147.067 73.8351 140.364 77.4288C133.402 81.162 127.562 86.9869 123.166 93.5021C122.582 94.3681 122.03 95.2523 121.501 96.1517C114.374 83.9929 101.205 72.4601 86.4698 73.7905C72.9045 75.0163 61.1098 84.8491 58.235 98.3118C54.9057 113.908 64.6259 128.174 74.1495 139.542C82.7125 149.766 92.289 159.149 102.023 168.247C107.955 173.792 113.954 179.31 120.178 184.531C120.277 184.615 120.375 184.699 120.474 184.782C120.798 185.057 121.157 185.162 121.498 185.145C121.841 185.162 122.201 185.058 122.526 184.782C127.666 180.422 132.681 175.905 137.64 171.34C147.422 162.339 157.016 153.061 165.807 143.08C175.461 132.118 186.305 118.517 185.404 103.046C184.621 89.5905 174.832 77.9699 161.801 74.6732Z" fill="#140A00"/>
<path opacity="0.1347" d="M161.165 74.0932C153.773 72.2231 146.432 73.2551 139.728 76.8487C132.766 80.5819 126.926 86.4068 122.53 92.9221C121.946 93.7881 121.394 94.6722 120.865 95.5717C113.74 83.4128 100.569 71.88 85.834 73.2104C72.2687 74.4362 60.474 84.269 57.5993 97.7318C54.27 113.328 63.9901 127.594 73.5137 138.962C82.0767 149.186 91.6533 158.569 101.387 167.667C107.32 173.212 113.319 178.73 119.542 183.951C119.641 184.035 119.739 184.119 119.838 184.202C120.163 184.477 120.521 184.581 120.863 184.565C121.206 184.581 121.565 184.478 121.89 184.202C127.03 179.842 132.045 175.325 137.004 170.76C146.786 161.759 156.38 152.481 165.171 142.5C174.825 131.538 185.669 117.937 184.769 102.466C183.985 89.0118 174.197 77.3912 161.165 74.0932Z" fill="#140A00"/>
<path opacity="0.1366" d="M160.53 73.5131C153.139 71.643 145.797 72.675 139.094 76.2687C132.131 80.0018 126.291 85.8267 121.895 92.342C121.311 93.208 120.759 94.0921 120.231 94.9916C113.105 82.8327 99.9342 71.3 85.1992 72.6303C71.6339 73.8561 59.8392 83.6889 56.9644 97.1517C53.6351 112.748 63.3567 127.014 72.8789 138.384C81.4419 148.607 91.0184 157.991 100.753 167.089C106.685 172.633 112.684 178.151 118.907 183.372C119.006 183.456 119.104 183.54 119.203 183.623C119.528 183.898 119.886 184.003 120.228 183.986C120.571 184.003 120.93 183.9 121.255 183.623C126.396 179.263 131.41 174.746 136.369 170.182C146.151 161.18 155.746 151.902 164.536 141.922C174.19 130.959 185.034 117.358 184.134 101.888C183.35 88.4317 173.562 76.8111 160.53 73.5131Z" fill="#150A00"/>
<path opacity="0.1386" d="M159.895 72.935C152.503 71.0649 145.161 72.0968 138.458 75.6905C131.495 79.4237 125.655 85.2486 121.259 91.7639C120.675 92.6299 120.123 93.514 119.595 94.4135C112.469 82.2546 99.2985 70.7218 84.5635 72.0522C70.9982 73.278 59.2035 83.1108 56.3288 96.5736C52.9995 112.17 62.7196 126.436 72.2432 137.804C80.8062 148.027 90.3828 157.411 100.117 166.509C106.049 172.054 112.048 177.572 118.272 182.793C118.371 182.877 118.468 182.96 118.567 183.044C118.892 183.319 119.25 183.423 119.592 183.407C119.935 183.423 120.295 183.32 120.62 183.044C125.76 178.683 130.775 174.166 135.734 169.602C145.515 160.6 155.11 151.323 163.9 141.342C173.555 130.38 184.399 116.779 183.498 101.308C182.715 87.8522 172.926 76.2316 159.895 72.935Z" fill="#150A00"/>
<path opacity="0.1406" d="M159.261 72.3551C151.869 70.485 144.527 71.517 137.824 75.1107C130.862 78.8438 125.022 84.6687 120.626 91.184C120.042 92.05 119.489 92.9341 118.961 93.8336C111.834 81.6747 98.6647 70.1406 83.9297 71.4723C70.3644 72.6981 58.5697 82.5309 55.695 95.9937C52.3657 111.59 62.0858 125.856 71.6094 137.224C80.1724 147.448 89.749 156.831 99.4831 165.929C105.415 171.474 111.414 176.992 117.638 182.213C117.737 182.297 117.835 182.38 117.934 182.464C118.258 182.739 118.617 182.843 118.958 182.827C119.301 182.843 119.661 182.74 119.986 182.464C125.126 178.103 130.141 173.586 135.1 169.022C144.882 160.021 154.476 150.743 163.266 140.762C172.921 129.8 183.765 116.199 182.864 100.728C182.081 87.2723 172.292 75.6517 159.261 72.3551Z" fill="#150A00"/>
<path opacity="0.1426" d="M158.625 71.775C151.233 69.9049 143.892 70.9369 137.188 74.5306C130.226 78.2637 124.386 84.0887 119.99 90.6039C119.406 91.4699 118.854 92.354 118.325 93.2535C111.2 81.0946 98.029 69.5605 83.294 70.8923C69.7287 72.1181 57.934 81.9509 55.0592 95.4136C51.7299 111.01 61.4501 125.276 70.9737 136.644C79.5367 146.867 89.1133 156.251 98.8474 165.349C104.78 170.894 110.779 176.412 117.002 181.633C117.101 181.717 117.199 181.8 117.298 181.884C117.623 182.159 117.981 182.263 118.323 182.247C118.666 182.263 119.025 182.16 119.35 181.884C124.49 177.523 129.505 173.006 134.464 168.442C144.246 159.44 153.84 150.163 162.631 140.182C172.285 129.22 183.129 115.619 182.229 100.148C181.445 86.6922 171.658 75.0717 158.625 71.775Z" fill="#150A00"/>
<path opacity="0.1446" d="M157.99 71.1947C150.599 69.3247 143.257 70.3566 136.554 73.9503C129.591 77.6835 123.751 83.5084 119.355 90.0236C118.771 90.8896 118.219 91.7737 117.691 92.6732C110.565 80.5143 97.3942 68.9816 82.6592 70.312C69.0939 71.5378 57.2992 81.3706 54.4245 94.8333C51.0952 110.43 60.8153 124.696 70.3389 136.064C78.9019 146.287 88.4785 155.671 98.2126 164.769C104.145 170.313 110.144 175.832 116.367 181.053C116.466 181.136 116.564 181.22 116.663 181.304C116.988 181.578 117.346 181.683 117.688 181.666C118.031 181.683 118.39 181.58 118.715 181.304C123.856 176.943 128.87 172.426 133.829 167.862C143.611 158.86 153.206 149.582 161.996 139.602C171.651 128.639 182.494 115.039 181.594 99.5678C180.81 86.112 171.022 74.4914 157.99 71.1947Z" fill="#160B00"/>
<path opacity="0.1465" d="M157.357 70.6146C149.965 68.7446 142.623 69.7765 135.92 73.3702C128.957 77.1034 123.117 82.9283 118.721 89.4435C118.137 90.3095 117.585 91.1937 117.057 92.0931C109.931 79.9343 96.7604 68.4015 82.0254 69.7319C68.4601 70.9577 56.6654 80.7905 53.7907 94.2533C50.4614 109.85 60.1815 124.116 69.7051 135.484C78.2681 145.707 87.8447 155.091 97.5788 164.189C103.511 169.733 109.51 175.252 115.734 180.473C115.833 180.556 115.93 180.64 116.029 180.724C116.354 180.998 116.712 181.103 117.054 181.086C117.397 181.103 117.757 181 118.081 180.724C123.222 176.363 128.237 171.846 133.196 167.282C142.977 158.28 152.572 149.002 161.362 139.022C171.017 128.059 181.861 114.459 180.96 98.9877C180.175 85.5319 170.388 73.9113 157.357 70.6146Z" fill="#160B00"/>
<path opacity="0.1485" d="M156.721 70.0346C149.329 68.1645 141.987 69.1965 135.284 72.7902C128.322 76.5233 122.482 82.3482 118.086 88.8635C117.502 89.7295 116.949 90.6136 116.421 91.5131C109.295 79.3542 96.1247 67.8215 81.3897 69.1518C67.8244 70.3776 56.0297 80.2104 53.1549 93.6732C49.8256 109.27 59.5458 123.536 69.0694 134.904C77.6324 145.127 87.209 154.511 96.9431 163.609C102.875 169.153 108.874 174.671 115.098 179.893C115.197 179.976 115.295 180.06 115.394 180.144C115.718 180.418 116.077 180.523 116.418 180.506C116.761 180.523 117.121 180.42 117.446 180.144C122.586 175.783 127.601 171.266 132.56 166.702C142.341 157.7 151.936 148.422 160.726 138.442C170.381 127.479 181.225 113.878 180.324 98.4076C179.541 84.9532 169.752 73.3326 156.721 70.0346Z" fill="#160B00"/>
<path opacity="0.1505" d="M156.086 69.4545C148.694 67.5844 141.353 68.6164 134.649 72.2101C127.687 75.9432 121.847 81.7682 117.451 88.2834C116.867 89.1494 116.315 90.0335 115.786 90.933C108.661 78.7741 95.4899 67.2414 80.7549 68.5718C67.1896 69.7975 55.3949 79.6303 52.5202 93.0931C49.1909 108.689 58.911 122.955 68.4346 134.324C76.9976 144.547 86.5742 153.931 96.3083 163.029C102.24 168.573 108.24 174.091 114.463 179.312C114.562 179.396 114.66 179.48 114.759 179.563C115.084 179.838 115.442 179.943 115.783 179.926C116.126 179.943 116.486 179.84 116.811 179.563C121.951 175.203 126.966 170.686 131.925 166.122C141.707 157.12 151.301 147.842 160.092 137.862C169.746 126.899 180.59 113.298 179.689 97.8275C178.905 84.3717 169.117 72.7511 156.086 69.4545Z" fill="#170B00"/>
<path opacity="0.1525" d="M155.45 68.8744C148.058 67.0044 140.716 68.0363 134.013 71.63C127.051 75.3631 121.21 81.1881 116.815 87.7033C116.23 88.5693 115.678 89.4534 115.15 90.3529C108.024 78.194 94.8537 66.6613 80.1187 67.9917C66.5534 69.2175 54.7587 79.0503 51.8839 92.513C48.556 108.109 58.2762 122.374 67.7984 133.744C76.3614 143.967 85.9379 153.351 95.672 162.449C101.604 167.993 107.603 173.511 113.827 178.732C113.926 178.816 114.024 178.9 114.122 178.983C114.447 179.258 114.806 179.363 115.147 179.346C115.49 179.363 115.85 179.26 116.175 178.983C121.315 174.623 126.33 170.106 131.289 165.542C141.07 156.54 150.665 147.262 159.455 137.281C169.11 126.319 179.954 112.718 179.053 97.2474C178.27 83.7917 168.481 72.1711 155.45 68.8744Z" fill="#170B00"/>
<path opacity="0.1545" d="M154.816 68.2943C147.424 66.4243 140.082 67.4562 133.379 71.0499C126.416 74.7831 120.576 80.608 116.18 87.1232C115.596 87.9892 115.044 88.8734 114.516 89.7728C107.39 77.6139 94.2194 66.0812 79.4844 67.4116C65.9191 68.6374 54.1244 78.4702 51.2497 91.9329C47.9204 107.529 57.6405 121.795 67.1641 133.164C75.7271 143.387 85.3037 152.771 95.0378 161.868C100.97 167.413 106.969 172.931 113.193 178.152C113.292 178.236 113.389 178.32 113.488 178.403C113.813 178.678 114.171 178.783 114.513 178.766C114.856 178.783 115.216 178.679 115.54 178.403C120.681 174.043 125.696 169.526 130.655 164.961C140.436 155.96 150.031 146.682 158.821 136.701C168.476 125.739 179.32 112.138 178.419 96.6674C177.636 83.2116 167.847 71.591 154.816 68.2943Z" fill="#170B00"/>
<path opacity="0.1564" d="M154.18 67.7143C146.788 65.8442 139.446 66.8761 132.743 70.4698C125.781 74.203 119.941 80.0279 115.545 86.5431C114.961 87.4091 114.408 88.2933 113.88 89.1927C106.754 77.0339 93.5837 65.5011 78.8487 66.8315C65.2834 68.0573 53.4887 77.8901 50.6139 91.3529C47.2846 106.949 57.0048 121.215 66.5284 132.583C75.0914 142.807 84.668 152.19 94.4021 161.288C100.334 166.833 106.333 172.351 112.557 177.572C112.656 177.656 112.754 177.74 112.853 177.823C113.177 178.098 113.536 178.203 113.877 178.186C114.22 178.203 114.58 178.099 114.905 177.823C120.045 173.463 125.06 168.946 130.019 164.381C139.8 155.38 149.395 146.102 158.185 136.121C167.84 125.159 178.684 111.558 177.783 96.0873C177 82.6315 167.211 71.0109 154.18 67.7143Z" fill="#180B00"/>
<path opacity="0.1584" d="M153.546 67.1342C146.154 65.2641 138.812 66.2961 132.109 69.8898C125.147 73.6229 119.307 79.4479 114.911 85.9631C114.327 86.8291 113.775 87.7132 113.246 88.6127C106.121 76.4538 92.9499 64.9211 78.2149 66.2514C64.6496 67.4772 52.8549 77.31 49.9801 90.7728C46.6508 106.369 56.371 120.635 65.8946 132.003C74.4576 142.227 84.0341 151.61 93.7682 160.708C99.7004 166.253 105.7 171.771 111.923 176.992C112.022 177.076 112.12 177.16 112.219 177.243C112.544 177.518 112.902 177.623 113.243 177.606C113.586 177.623 113.946 177.519 114.271 177.243C119.411 172.883 124.426 168.366 129.385 163.801C139.167 154.8 148.761 145.522 157.552 135.541C167.206 124.579 178.05 110.978 177.149 95.5072C176.366 82.0514 166.577 70.4308 153.546 67.1342Z" fill="#180C00"/>
<path opacity="0.1604" d="M152.91 66.5541C145.518 64.684 138.176 65.716 131.473 69.3097C124.511 73.0428 118.67 78.8678 114.275 85.383C113.69 86.249 113.138 87.1331 112.61 88.0326C105.484 75.8737 92.3136 64.341 77.5786 65.6714C64.0134 66.8971 52.2187 76.73 49.3439 90.1927C46.016 105.789 55.7362 120.055 65.2597 131.423C73.8227 141.647 83.3993 151.03 93.1334 160.128C99.0656 165.673 105.065 171.191 111.288 176.412C111.387 176.496 111.485 176.579 111.584 176.663C111.909 176.938 112.267 177.042 112.609 177.026C112.952 177.042 113.311 176.939 113.636 176.663C118.776 172.302 123.791 167.786 128.75 163.221C138.532 154.22 148.127 144.942 156.917 134.961C166.571 123.999 177.415 110.398 176.515 94.9271C175.73 81.4727 165.943 69.8521 152.91 66.5541Z" fill="#180C00"/>
<path opacity="0.1624" d="M152.276 65.974C144.884 64.104 137.542 65.1359 130.839 68.7296C123.876 72.4627 118.036 78.2877 113.64 84.8029C113.056 85.6689 112.504 86.553 111.976 87.4525C104.85 75.2936 91.6794 63.7609 76.9444 65.0913C63.3791 66.3171 51.5844 76.1499 48.7096 89.6126C45.3803 105.209 55.1005 119.475 64.6241 130.843C73.1871 141.066 82.7637 150.45 92.4978 159.548C98.43 165.093 104.429 170.611 110.653 175.832C110.752 175.916 110.849 175.999 110.948 176.083C111.273 176.358 111.631 176.462 111.973 176.446C112.316 176.462 112.676 176.359 113 176.083C118.141 171.722 123.156 167.205 128.115 162.641C137.896 153.64 147.491 144.362 156.281 134.381C165.936 123.419 176.78 109.818 175.879 94.347C175.095 80.8927 165.307 69.2721 152.276 65.974Z" fill="#180C00"/>
<path opacity="0.1644" d="M151.642 65.3959C144.25 63.5258 136.908 64.5578 130.205 68.1515C123.243 71.8846 117.402 77.7096 113.007 84.2248C112.422 85.0908 111.87 85.9749 111.342 86.8744C104.216 74.7155 91.0456 63.1828 76.3106 64.5132C62.7453 65.7389 50.9506 75.5718 48.0758 89.0345C44.7465 104.631 54.4667 118.897 63.9903 130.265C72.5533 140.488 82.1298 149.872 91.8639 158.97C97.7961 164.515 103.795 170.033 110.019 175.254C110.118 175.338 110.215 175.421 110.314 175.505C110.639 175.78 110.998 175.884 111.339 175.867C111.682 175.884 112.042 175.781 112.367 175.505C117.507 171.144 122.522 166.627 127.481 162.063C137.262 153.061 146.857 143.784 155.647 133.803C165.302 122.841 176.146 109.24 175.245 93.7689C174.46 80.3131 164.673 68.6926 151.642 65.3959Z" fill="#190C00"/>
<path opacity="0.1663" d="M151.006 64.8158C143.614 62.9458 136.272 63.9777 129.569 67.5714C122.607 71.3045 116.767 77.1309 112.371 83.6447C111.787 84.5107 111.235 85.3948 110.706 86.2943C103.581 74.1354 90.4098 62.6027 75.6748 63.9331C62.1095 65.1589 50.3149 74.9917 47.4401 88.4544C44.1108 104.051 53.831 118.317 63.3545 129.685C71.9175 139.908 81.4941 149.292 91.2282 158.39C97.1604 163.935 103.16 169.453 109.383 174.674C109.482 174.757 109.58 174.841 109.679 174.925C110.004 175.2 110.362 175.304 110.703 175.287C111.046 175.304 111.406 175.201 111.731 174.925C116.871 170.564 121.886 166.047 126.845 161.483C136.627 152.481 146.221 143.204 155.012 133.223C164.666 122.261 175.51 108.66 174.609 93.1888C173.826 79.7331 164.037 68.1125 151.006 64.8158Z" fill="#190C00"/>
<path opacity="0.1683" d="M150.371 64.2357C142.979 62.3657 135.638 63.3976 128.935 66.9913C121.972 70.7245 116.132 76.5494 111.736 83.0646C111.152 83.9306 110.6 84.8148 110.071 85.7142C102.946 73.5554 89.7751 62.0226 75.0401 63.353C61.4748 64.5788 49.6801 74.4116 46.8053 87.8744C43.476 103.471 53.1962 117.737 62.7198 129.105C71.2828 139.328 80.8594 148.712 90.5935 157.81C96.5257 163.354 102.525 168.873 108.748 174.094C108.847 174.177 108.945 174.261 109.044 174.345C109.369 174.619 109.727 174.724 110.069 174.707C110.412 174.724 110.771 174.621 111.096 174.345C116.236 169.984 121.251 165.467 126.21 160.903C135.992 151.901 145.587 142.623 154.377 132.643C164.031 121.68 174.875 108.08 173.975 92.6088C173.19 79.153 163.403 67.5324 150.371 64.2357Z" fill="#190C00"/>
<path opacity="0.1703" d="M149.736 63.6557C142.344 61.7856 135.002 62.8175 128.299 66.4112C121.336 70.1444 115.496 75.9693 111.1 82.4845C110.516 83.3505 109.964 84.2347 109.436 85.1341C102.31 72.9753 89.1393 61.4425 74.4043 62.7729C60.839 63.9987 49.0444 73.8315 46.1696 87.2943C42.8403 102.891 52.5605 117.157 62.084 128.525C70.647 138.748 80.2236 148.132 89.9577 157.23C95.8899 162.774 101.889 168.293 108.113 173.514C108.212 173.597 108.309 173.681 108.408 173.765C108.733 174.039 109.091 174.144 109.433 174.127C109.776 174.144 110.136 174.041 110.46 173.765C115.601 169.404 120.616 164.887 125.575 160.323C135.356 151.321 144.951 142.043 153.741 132.063C163.396 121.1 174.24 107.5 173.339 92.0287C172.555 78.5729 162.767 66.9523 149.736 63.6557Z" fill="#1A0C00"/>
<path opacity="0.1723" d="M149.102 63.0756C141.71 61.2055 134.368 62.2375 127.665 65.8312C120.703 69.5643 114.862 75.3892 110.467 81.9045C109.882 82.7705 109.33 83.6546 108.802 84.5541C101.676 72.3952 88.5055 60.8625 73.7705 62.1928C60.2053 63.4186 48.4106 73.2514 45.5358 86.7142C42.2065 102.311 51.9267 116.577 61.4502 127.945C70.0132 138.168 79.5898 147.552 89.3239 156.65C95.2561 162.194 101.255 167.712 107.479 172.934C107.578 173.017 107.675 173.101 107.774 173.185C108.099 173.459 108.458 173.564 108.799 173.547C109.142 173.564 109.502 173.461 109.827 173.185C114.967 168.824 119.982 164.307 124.941 159.743C134.722 150.741 144.317 141.463 153.107 131.483C162.762 120.52 173.606 106.919 172.705 91.4486C171.922 77.9942 162.133 66.3736 149.102 63.0756Z" fill="#1A0D00"/>
<path opacity="0.1743" d="M148.466 62.4955C141.074 60.6254 133.732 61.6574 127.029 65.2511C120.067 68.9842 114.227 74.8092 109.831 81.3244C109.247 82.1904 108.695 83.0745 108.166 83.974C101.041 71.8151 87.8698 60.2824 73.1348 61.6128C59.5695 62.8386 47.7748 72.6714 44.9 86.1341C41.5708 101.73 51.2909 115.996 60.8145 127.365C69.3775 137.588 78.9541 146.972 88.6882 156.07C94.6204 161.614 100.619 167.132 106.843 172.353C106.942 172.437 107.04 172.521 107.139 172.604C107.463 172.879 107.822 172.984 108.163 172.967C108.506 172.984 108.866 172.881 109.191 172.604C114.331 168.244 119.346 163.727 124.305 159.163C134.087 150.161 143.681 140.883 152.472 130.903C162.126 119.94 172.97 106.339 172.069 90.8685C171.286 77.4141 161.497 65.7936 148.466 62.4955Z" fill="#1A0D00"/>
<path opacity="0.1762" d="M147.831 61.9174C140.439 60.0473 133.098 61.0793 126.395 64.673C119.432 68.4061 113.592 74.231 109.196 80.7463C108.612 81.6123 108.06 82.4964 107.531 83.3959C100.406 71.237 87.2351 59.7043 72.5001 61.0346C58.9348 62.2604 47.1401 72.0932 44.2653 85.556C40.936 101.152 50.6562 115.418 60.1797 126.787C68.7428 137.01 78.3193 146.394 88.0534 155.491C93.9856 161.036 99.9848 166.554 106.208 171.775C106.307 171.859 106.405 171.943 106.504 172.026C106.829 172.301 107.187 172.406 107.529 172.389C107.872 172.406 108.231 172.302 108.556 172.026C113.696 167.666 118.711 163.149 123.67 158.585C133.452 149.583 143.047 140.305 151.837 130.324C161.491 119.362 172.335 105.761 171.435 90.2904C170.651 76.8346 160.863 65.214 147.831 61.9174Z" fill="#1B0D00"/>
<path opacity="0.1782" d="M147.195 61.3373C139.803 59.4672 132.461 60.4992 125.758 64.0929C118.796 67.826 112.956 73.651 108.56 80.1662C107.976 81.0322 107.424 81.9163 106.895 82.8158C99.7695 70.6569 86.5988 59.1242 71.8638 60.4546C58.2985 61.6804 46.5038 71.5132 43.629 84.9759C40.3011 100.572 50.0213 114.837 59.5449 126.207C68.1079 136.43 77.6845 145.814 87.4186 154.911C93.3508 160.456 99.3499 165.974 105.573 171.195C105.672 171.279 105.77 171.363 105.869 171.446C106.194 171.721 106.552 171.826 106.894 171.809C107.237 171.826 107.596 171.722 107.921 171.446C113.062 167.086 118.076 162.569 123.035 158.005C132.817 149.003 142.412 139.725 151.202 129.744C160.857 118.782 171.7 105.181 170.8 89.7103C170.015 76.2546 160.228 64.634 147.195 61.3373Z" fill="#1B0D00"/>
<path opacity="0.1802" d="M146.561 60.7555C139.169 58.8854 131.827 59.9174 125.124 63.511C118.161 67.2442 112.321 73.0691 107.925 79.5844C107.341 80.4504 106.789 81.3345 106.261 82.2339C99.1352 70.0751 85.9645 58.541 71.2295 59.8727C57.6642 61.0985 45.8695 70.9313 42.9948 84.3941C39.6655 99.9904 49.3856 114.256 58.9092 125.625C67.4722 135.848 77.0488 145.232 86.7829 154.33C92.7151 159.874 98.7142 165.392 104.938 170.613C105.037 170.697 105.134 170.781 105.233 170.864C105.558 171.139 105.916 171.244 106.258 171.227C106.601 171.244 106.961 171.141 107.286 170.864C112.426 166.504 117.441 161.987 122.4 157.423C132.181 148.421 141.776 139.143 150.566 129.163C160.221 118.2 171.065 104.599 170.164 89.1285C169.381 75.6727 159.592 64.0521 146.561 60.7555Z" fill="#1B0D00"/>
<path opacity="0.1822" d="M145.927 60.1771C138.535 58.3071 131.193 59.339 124.49 62.9327C117.528 66.6659 111.688 72.4908 107.292 79.006C106.708 79.872 106.156 80.7562 105.627 81.6556C98.5015 69.4968 85.3308 57.964 70.5957 59.2944C57.0305 60.5202 45.2358 70.353 42.361 83.8158C39.0317 99.4121 48.7519 113.678 58.2755 125.046C66.8385 135.27 76.415 144.653 86.1491 153.751C92.0813 159.296 98.0805 164.814 104.304 170.035C104.403 170.119 104.501 170.202 104.6 170.286C104.924 170.561 105.283 170.665 105.624 170.649C105.967 170.665 106.327 170.562 106.652 170.286C111.792 165.925 116.807 161.409 121.766 156.844C131.548 147.843 141.142 138.565 149.933 128.584C159.587 117.622 170.431 104.021 169.53 88.5502C168.745 75.0944 158.958 63.4738 145.927 60.1771Z" fill="#1B0D00"/>
<path opacity="0.1842" d="M145.291 59.5951C137.899 57.7251 130.557 58.757 123.854 62.3507C116.892 66.0838 111.051 71.9088 106.656 78.424C106.071 79.29 105.519 80.1741 104.991 81.0736C97.8653 68.9147 84.6945 57.382 69.9595 58.7124C56.3942 59.9382 44.5995 69.771 41.7247 83.2337C38.3969 98.8301 48.117 113.096 57.6392 124.464C66.2022 134.688 75.7788 144.071 85.5129 153.169C91.4451 158.714 97.4442 164.232 103.668 169.453C103.767 169.537 103.864 169.62 103.963 169.704C104.288 169.979 104.647 170.083 104.988 170.067C105.331 170.083 105.691 169.98 106.016 169.704C111.156 165.343 116.171 160.827 121.13 156.262C130.911 147.261 140.506 137.983 149.296 128.002C158.951 117.04 169.795 103.439 168.894 87.9681C168.111 74.5124 158.322 62.8918 145.291 59.5951Z" fill="#1C0D00"/>
<path opacity="0.1861" d="M144.656 59.015C137.265 57.145 129.923 58.1769 123.22 61.7706C116.257 65.5038 110.417 71.3287 106.021 77.8439C105.437 78.7099 104.885 79.5941 104.357 80.4935C97.2309 68.3347 84.0602 56.8019 69.3252 58.1323C55.7599 59.3581 43.9653 69.1909 41.0905 82.6536C37.7612 98.25 47.4813 112.516 57.0049 123.884C65.5679 134.107 75.1445 143.491 84.8786 152.589C90.8108 158.134 96.8099 163.652 103.033 168.873C103.132 168.957 103.23 169.04 103.329 169.124C103.654 169.399 104.012 169.503 104.354 169.487C104.697 169.503 105.056 169.4 105.381 169.124C110.522 164.763 115.536 160.246 120.495 155.682C130.277 146.681 139.872 137.403 148.662 127.422C158.317 116.46 169.16 102.859 168.26 87.3881C167.475 73.9337 157.688 62.3131 144.656 59.015Z" fill="#1C0E00"/>
<path opacity="0.1881" d="M144.021 58.4369C136.629 56.5669 129.287 57.5988 122.584 61.1925C115.621 64.9256 109.781 70.7506 105.385 77.2658C104.801 78.1318 104.249 79.0159 103.721 79.9154C96.5952 67.7565 83.4245 56.2238 68.6895 57.5542C55.1242 58.78 43.3295 68.6128 40.4547 82.0755C37.1254 97.6719 46.8456 111.938 56.3692 123.306C64.9322 133.529 74.5088 142.913 84.2429 152.011C90.1751 157.556 96.1742 163.074 102.398 168.295C102.497 168.379 102.594 168.462 102.693 168.546C103.018 168.821 103.376 168.925 103.718 168.908C104.061 168.925 104.421 168.822 104.746 168.546C109.886 164.185 114.901 159.668 119.86 155.104C129.641 146.102 139.236 136.825 148.026 126.844C157.681 115.882 168.525 102.281 167.624 86.8099C166.841 73.3542 157.052 61.7336 144.021 58.4369Z" fill="#1C0E00"/>
<path opacity="0.1901" d="M143.387 57.857C135.995 55.987 128.653 57.0189 121.95 60.6126C114.988 64.3458 109.148 70.1707 104.752 76.6859C104.168 77.5519 103.615 78.4361 103.087 79.3355C95.9601 67.1767 82.7907 55.6425 68.0557 56.9743C54.4904 58.2001 42.6957 68.0329 39.8209 81.4956C36.4917 97.092 46.2118 111.358 55.7354 122.726C64.2984 132.949 73.875 142.333 83.6091 151.431C89.5413 156.976 95.5404 162.494 101.764 167.715C101.863 167.799 101.961 167.882 102.06 167.966C102.384 168.241 102.743 168.345 103.084 168.329C103.427 168.345 103.787 168.242 104.112 167.966C109.252 163.605 114.267 159.088 119.226 154.524C129.008 145.523 138.602 136.245 147.392 126.264C157.047 115.302 167.891 101.701 166.99 86.2301C166.207 72.7743 156.418 61.1537 143.387 57.857Z" fill="#1D0E00"/>
<path opacity="0.1921" d="M142.751 57.2768C135.359 55.4067 128.018 56.4386 121.314 60.0323C114.352 63.7655 108.512 69.5904 104.116 76.1057C103.532 76.9717 102.98 77.8558 102.451 78.7553C95.3257 66.5964 82.1549 55.0636 67.42 56.394C53.8547 57.6198 42.06 67.4526 39.1852 80.9154C35.8559 96.5118 45.5761 110.778 55.0997 122.146C63.6627 132.369 73.2392 141.753 82.9733 150.851C88.9055 156.396 94.9046 161.914 101.128 167.135C101.227 167.218 101.325 167.302 101.424 167.386C101.749 167.661 102.107 167.765 102.449 167.748C102.791 167.765 103.151 167.662 103.476 167.386C108.616 163.025 113.631 158.508 118.59 153.944C128.372 144.942 137.966 135.665 146.757 125.684C156.411 114.722 167.255 101.121 166.355 85.6498C165.571 72.194 155.783 60.5734 142.751 57.2768Z" fill="#1D0E00"/>
<path opacity="0.1941" d="M142.116 56.6967C134.725 54.8266 127.383 55.8586 120.68 59.4523C113.717 63.1854 107.877 69.0103 103.481 75.5256C102.897 76.3916 102.345 77.2757 101.817 78.1752C94.6909 66.0163 81.5202 54.4836 66.7852 55.8139C53.2199 57.0397 41.4252 66.8725 38.5504 80.3353C35.2212 95.9317 44.9413 110.198 54.4649 121.566C63.0279 131.789 72.6045 141.173 82.3386 150.271C88.2707 155.815 94.2699 161.334 100.493 166.555C100.592 166.638 100.69 166.722 100.789 166.806C101.114 167.08 101.472 167.185 101.814 167.168C102.157 167.185 102.516 167.082 102.841 166.806C107.982 162.445 112.996 157.928 117.955 153.364C127.737 144.362 137.332 135.084 146.122 125.104C155.776 114.141 166.62 100.541 165.72 85.0697C164.936 71.6139 155.148 59.9933 142.116 56.6967Z" fill="#1D0E00"/>
<path opacity="0.196" d="M141.481 56.1166C134.089 54.2465 126.747 55.2785 120.044 58.8722C113.081 62.6053 107.241 68.4303 102.845 74.9455C102.261 75.8115 101.709 76.6956 101.181 77.5951C94.0552 65.4362 80.8844 53.9035 66.1494 55.2339C52.5842 56.4596 40.7895 66.2925 37.9147 79.7552C34.5854 95.3516 44.3056 109.618 53.8292 120.986C62.3922 131.209 71.9687 140.593 81.7028 149.691C87.635 155.235 93.6341 160.754 99.8577 165.975C99.9567 166.058 100.054 166.142 100.153 166.226C100.478 166.5 100.836 166.605 101.178 166.588C101.521 166.605 101.881 166.502 102.206 166.226C107.346 161.865 112.361 157.348 117.32 152.784C127.101 143.782 136.696 134.504 145.486 124.524C155.141 113.561 165.985 99.9605 165.084 84.4896C164.301 71.0338 154.513 59.4133 141.481 56.1166Z" fill="#1E0E00"/>
<path opacity="0.198" d="M140.847 55.5365C133.455 53.6665 126.113 54.6984 119.41 58.2921C112.448 62.0252 106.607 67.8502 102.212 74.3654C101.627 75.2314 101.075 76.1155 100.547 77.015C93.4214 64.8561 80.2507 53.3234 65.5157 54.6538C51.9504 55.8796 40.1557 65.7124 37.2809 79.1751C33.9516 94.7715 43.6718 109.038 53.1954 120.406C61.7584 130.629 71.3349 140.013 81.069 149.111C87.0012 154.655 93.0004 160.173 99.2239 165.394C99.3229 165.478 99.4205 165.562 99.5195 165.645C99.8443 165.92 100.203 166.025 100.544 166.008C100.887 166.025 101.247 165.922 101.572 165.645C106.712 161.285 111.727 156.768 116.686 152.204C126.467 143.202 136.062 133.924 144.852 123.944C154.507 112.981 165.351 99.3804 164.45 83.9095C163.667 70.4552 153.878 58.8346 140.847 55.5365Z" fill="#1E0F00"/>
<path opacity="0.2" d="M140.212 54.9564C132.82 53.0864 125.479 54.1183 118.775 57.712C111.813 61.4452 105.973 67.2701 101.577 73.7853C100.993 74.6513 100.441 75.5355 99.9122 76.4349C92.7866 64.2761 79.6159 52.7433 64.8809 54.0737C51.3156 55.2995 39.5209 65.1323 36.6461 78.5951C33.3169 94.1928 43.037 108.457 52.5606 119.827C61.1236 130.05 70.7002 139.434 80.4343 148.532C86.3665 154.077 92.3656 159.595 98.5891 164.816C98.6881 164.9 98.7857 164.983 98.8847 165.067C99.2096 165.342 99.5679 165.446 99.9094 165.429C100.252 165.446 100.612 165.343 100.937 165.067C106.077 160.706 111.092 156.189 116.051 151.625C125.833 142.623 135.427 133.346 144.218 123.365C153.872 112.403 164.716 98.8018 163.815 83.3309C163.031 69.8751 153.243 58.2545 140.212 54.9564Z" fill="black"/>
</g>
</g>
<path d="M140.212 54.9564C132.82 53.0864 125.479 54.1183 118.775 57.712C111.813 61.4452 105.973 67.2701 101.577 73.7853C100.993 74.6513 100.441 75.5355 99.9122 76.4349C92.7866 64.2761 79.6159 52.7433 64.8809 54.0737C51.3156 55.2995 39.5209 65.1323 36.6461 78.5951C33.3169 94.1928 43.037 108.457 52.5606 119.827C61.1236 130.05 70.7002 139.434 80.4343 148.532C86.3665 154.077 92.3656 159.595 98.5891 164.816C98.6881 164.9 98.7857 164.983 98.8847 165.067C99.2096 165.342 99.5679 165.446 99.9094 165.429C100.252 165.446 100.612 165.343 100.937 165.067C106.077 160.706 111.092 156.189 116.051 151.625C125.833 142.623 135.427 133.346 144.218 123.365C153.872 112.403 164.716 98.8018 163.815 83.3309C163.031 69.8751 153.243 58.2545 140.212 54.9564Z" fill="#FDFFFD"/>
</svg>
