<svg width="392" height="198" fill="none" xmlns="http://www.w3.org/2000/svg"><path d="M115.701 0l-73.39 194.21h26.487l18.486-51.311h81.667l19.037 51.311h26.486L141.084 0h-25.383zm12.416 31.173l32.556 89.105H95.561l32.556-89.105zm195.632 70.898v9.379h-36.971c-33.936 0-54.629 16.276-54.629 43.035 0 26.483 20.969 42.759 48.007 42.759 17.658 0 34.212-6.62 44.696-19.586v16.552H347.2v-92.139c0-31.173-21.796-49.932-54.352-49.932-31.729 0-51.042 17.931-55.457 39.449h22.9c3.863-10.207 13.795-18.483 32.005-18.483 17.934 0 31.453 9.655 31.453 28.966zm-40.558 74.483c-15.45 0-27.038-7.724-27.038-22.345 0-14.897 12.967-22.621 32.004-22.621h35.592v10.207c0 21.242-18.486 34.759-40.558 34.759z" opacity=".25" fill="#000"/><path d="M73.39 0L0 194.21h26.487l18.485-51.311h81.667l19.037 51.311h26.487L98.773 0H73.39zm12.415 31.173l32.557 89.105H53.249l32.556-89.105zm195.632 70.898v9.379h-36.971c-33.936 0-54.628 16.276-54.628 43.035 0 26.483 20.968 42.759 48.007 42.759 17.657 0 34.212-6.62 44.696-19.586v16.552h22.348v-92.139c0-31.173-21.796-49.932-54.353-49.932-31.729 0-51.042 17.931-55.456 39.449h22.9c3.862-10.207 13.795-18.483 32.004-18.483 17.934 0 31.453 9.655 31.453 28.966zm-40.557 74.483c-15.451 0-27.039-7.724-27.039-22.345 0-14.897 12.968-22.621 32.005-22.621h35.591v10.207c0 21.242-18.485 34.759-40.557 34.759z" opacity=".1" fill="#000"/><path d="M160.501 0l-73.39 194.21h26.487l18.485-51.311h81.667l19.038 51.311h26.486L185.884 0h-25.383zm12.416 31.173l32.556 89.105H140.36l32.557-89.105zm195.632 70.898v9.379h-36.971c-33.936 0-54.629 16.276-54.629 43.035 0 26.483 20.969 42.759 48.007 42.759 17.658 0 34.212-6.62 44.696-19.586v16.552H392v-92.139c0-31.173-21.796-49.932-54.352-49.932-31.729 0-51.042 17.931-55.457 39.449h22.9c3.863-10.207 13.795-18.483 32.005-18.483 17.933 0 31.453 9.655 31.453 28.966zm-40.558 74.483c-15.451 0-27.038-7.724-27.038-22.345 0-14.897 12.967-22.621 32.004-22.621h35.592v10.207c0 21.242-18.486 34.759-40.558 34.759z" fill="#fff"/></svg>