<svg width="293" height="371" fill="none" xmlns="http://www.w3.org/2000/svg"><circle cx="146.5" cy="224.5" r="146" stroke="#000"/><g clip-path="url(#clip0)"><path fill-rule="evenodd" clip-rule="evenodd" d="M183.399 133.232c-.042-.126-.127-.21-.169-.336l.169.336zm69.547-58.302c2.819 7.072 5.343 14.944 7.447 23.7 6.479 27.151 7.615 52.956 7.994 70.889.378 17.09-10.14 22.268-28.484 27.109-31.891 8.419-67.948 15.659-100.597 20.206-18.807 2.61-30.461 1.936-36.73-14.018-6.563-16.712-15.441-40.917-19.943-68.489-1.472-8.924-2.188-17.133-2.272-24.752v.126c4.165 23.784 9.34 46.81 17.923 67.184-9.508-41.548-11.065-60.996-10.644-74.888 1.052-12.08 3.324-23.91 6.016-35.696 2.44-10.524 9.467-14.102 17.082-16.797 43.294-15.448 45.061-15.827 91.047-18.269 8.078-.42 15.945.169 22.256 8.924 7.069 9.809 13.674 19.87 19.312 30.604 5.722 12.628 11.781 31.192 19.059 73.204.042-22.1-4.039-45.337-9.382-68.869l-.084-.168zm10.813 33.508c2.272 10.987 3.702 21.637 4.628 31.53 1.136 12.165 1.514 23.11 1.725 32.076.168 8.967-2.483 14.818-7.658 19.112-.42.336-.883.715-1.346 1.01-3.955 6.819-12.033 10.061-23.309 13.092-29.493 7.913-62.899 14.649-93.192 18.732-11.612 1.558-20.279 1.684-26.59-3.073a23.524 23.524 0 01-1.641-.421c-6.437-1.936-11.149-6.314-14.431-14.691-3.282-8.335-7.153-18.606-10.77-30.267-2.946-9.471-5.723-19.869-7.869-30.898 2.062 10.061 4.628 19.575 7.363 28.33 3.618 11.661 7.49 21.89 10.771 30.267 3.282 8.335 8.036 12.713 14.431 14.691.547.169 1.052.295 1.641.421 6.311 4.757 14.978 4.631 26.59 3.073 30.293-4.083 63.699-10.776 93.193-18.732 11.317-3.031 19.353-6.272 23.308-13.092.463-.337.926-.673 1.346-1.01 5.175-4.294 7.868-10.145 7.658-19.112-.168-8.966-.589-19.911-1.725-32.076-.884-9.093-2.146-18.859-4.123-28.962zM148.057 72.994c-.084-.169-.168-.337-.294-.463a2.509 2.509 0 00-.884-.59c-.336-.126-.715-.168-1.136-.168a6.43 6.43 0 00-1.262.126l-.421.085-.252-1.305.589-.127c.294-.042.589-.126.883-.252.295-.127.547-.295.8-.463a2.4 2.4 0 00.505-.758c.126-.295.126-.632.042-1.052-.084-.337-.169-.59-.337-.8-.168-.21-.337-.38-.589-.463-.21-.127-.463-.169-.715-.169-.253 0-.547 0-.8.084-.547.127-1.009.295-1.388.548-.337.252-.631.463-.884.715l-.883-1.094c.126-.126.294-.253.463-.421.21-.169.42-.295.673-.463.252-.126.505-.295.799-.421a5.27 5.27 0 01.968-.295c.631-.126 1.22-.168 1.683-.084.505.084.926.21 1.262.421.379.21.673.505.884.884.21.379.378.758.462 1.22a2.64 2.64 0 01-.21 1.727c-.252.505-.631.968-1.094 1.263.337.042.673.084.968.21.336.126.631.295.883.505.211.168.379.337.547.59-.378.294-.799.673-1.262 1.01zm-19.354 12.965c.127-.547.295-1.22.547-1.978.253-.758.547-1.558.884-2.358.337-.8.715-1.641 1.136-2.441.421-.8.841-1.558 1.304-2.231l1.557-.295 1.557 7.661 1.43-.294.042.294c-.715.884-1.641 1.642-2.65 2.232l-.127-.632-5.385 1.094-.295-1.052zm4.166-7.072a15.52 15.52 0 00-.8 1.474l-.757 1.641a12.071 12.071 0 00-.631 1.726c-.21.59-.337 1.137-.505 1.684l3.829-.758-1.136-5.767zm-8.078 20.669c1.767-.295 3.113-.168 4.081.379.799.463 1.346 1.136 1.641 2.062-.463.421-.968.8-1.515 1.137 0-.042 0-.126-.042-.168a3.413 3.413 0 00-.463-1.137c-.21-.295-.547-.547-.968-.716-.42-.168-.967-.21-1.64-.21-.674 0-1.473.126-2.441.295a17.992 17.992 0 00-.168-1.642c-.042-.505-.126-1.01-.168-1.473a16.797 16.797 0 00-.211-1.432 14.667 14.667 0 01-.21-1.515l5.806-1.179.295 1.39-4.418.883c.042.169.042.421.084.716s.084.632.126.926c.042.337.084.632.126.968.043.295.043.505.085.716zm.084 20.374c-.253-1.179-.295-2.231-.126-3.199.126-.968.462-1.81.925-2.568a6.128 6.128 0 011.893-1.852c.8-.505 1.725-.842 2.777-1.095l.379 1.347c-.673.169-1.304.337-1.809.59a4.805 4.805 0 00-1.389.968 3.935 3.935 0 00-.883 1.389c-.211.547-.295 1.179-.337 1.937a5.3 5.3 0 01.968-.548 5.212 5.212 0 011.136-.379c.673-.126 1.304-.168 1.809-.042.505.127.968.295 1.346.59.379.294.674.631.884 1.052.21.421.379.884.463 1.347v.084c-.505.421-1.052.842-1.641 1.179 0-.295 0-.589-.042-.884-.168-.8-.463-1.347-.926-1.684-.463-.337-1.052-.421-1.809-.295-.421.085-.757.211-1.094.337-.336.127-.673.337-.968.547 0 .127.043.253.043.379 0 .127.042.253.084.379.084.505.252.968.378 1.431.169.421.379.8.631 1.137a9.532 9.532 0 01-1.893.084c-.378-.589-.631-1.347-.799-2.231zm64.456 14.986c-.421-2.02-.379-3.662.126-4.883s1.389-1.978 2.651-2.231c1.262-.253 2.356.084 3.282 1.052.925.969 1.598 2.442 2.019 4.462.168.969.295 1.811.253 2.61a10.62 10.62 0 01-1.725.758 4.761 4.761 0 000-1.094 17.113 17.113 0 00-.253-1.895 11.812 11.812 0 00-.505-1.852c-.21-.589-.421-1.052-.715-1.473a2.764 2.764 0 00-.926-.926c-.336-.211-.757-.253-1.178-.169-.463.085-.799.295-1.052.632-.252.337-.42.715-.504 1.178a6.64 6.64 0 00-.085 1.642c.043.589.127 1.221.253 1.894.126.674.294 1.263.505 1.853.042.21.126.378.21.547-.715-.084-1.388-.295-2.019-.547a14.161 14.161 0 01-.337-1.558zm-26.043-68.447c-.463.168-.884.295-1.389.42-.252.043-.505.127-.715.17l.505-.885c.294-.463.547-.884.841-1.305.253-.336.463-.673.674-1.01.21-.337.378-.631.546-.968.169-.295.253-.632.337-.926a3.736 3.736 0 000-.968c-.084-.337-.168-.632-.337-.842a2.058 2.058 0 00-.546-.505 1.42 1.42 0 00-.716-.211c-.252-.042-.547 0-.799.042-.337.084-.631.169-.884.337-.252.168-.505.295-.673.463-.21.168-.336.337-.463.505-.126.169-.21.295-.294.379l-1.052-.968c.084-.127.21-.295.379-.505.168-.21.378-.421.673-.632.252-.21.547-.42.883-.59a4.523 4.523 0 011.136-.378c1.263-.253 2.272-.168 3.03.295.757.463 1.22 1.22 1.43 2.273.084.42.084.842 0 1.263-.084.42-.252.842-.421 1.305-.21.42-.42.884-.715 1.305-.294.42-.547.884-.841 1.262l-.589.674zm-23.393 69.289c-.168.042-.337.084-.463.126-.379.084-.799.169-1.178.253v-.211c.042-1.094.168-2.146.379-3.199.21-1.052.42-2.02.715-2.947.294-.926.589-1.683.926-2.315l-5.891 1.179-.294-1.431 7.699-1.558.253 1.347c-.295.505-.589 1.221-.926 2.063-.294.884-.589 1.81-.799 2.862a26.688 26.688 0 00-.463 3.284c.084.21.042.379.042.547zm20.027 7.493a9.65 9.65 0 01-3.45 1.431c-1.347.253-2.651.253-3.871-.042-.042-.084-.084-.126-.126-.21a4.195 4.195 0 01-.421-1.053 2.728 2.728 0 01-.042-1.01c.042-.337.126-.631.252-.968.127-.295.295-.59.463-.842.211-.253.421-.505.631-.716-1.262-.421-2.019-1.263-2.272-2.525a3.41 3.41 0 010-1.305c.085-.421.253-.842.547-1.221.253-.379.589-.674 1.01-.968a4.699 4.699 0 011.473-.59 4.821 4.821 0 011.725-.042c.505.084.925.295 1.304.547.379.253.631.548.841.884.211.337.337.674.421 1.053.084.337.084.673.042.968a3.35 3.35 0 01-.252.926 4.812 4.812 0 01-.421.8c-.168.252-.379.463-.547.673 1.515.379 2.398 1.263 2.693 2.652.084.506.084.969 0 1.39a.128.128 0 010 .168zm-6.227-.21c.042.21.126.42.252.631.127.21.295.379.505.547.211.169.505.253.8.337.336.084.715.042 1.136-.042a3.596 3.596 0 001.009-.379c.253-.168.505-.379.632-.589.168-.211.252-.463.294-.716a2.296 2.296 0 000-.758c-.084-.379-.21-.673-.421-.926a2.758 2.758 0 00-.757-.631c-.295-.169-.673-.253-1.052-.337a6.245 6.245 0 00-1.304-.126 3.65 3.65 0 00-1.01 1.305 3.259 3.259 0 00-.084 1.684zm3.113-7.073a2.952 2.952 0 00-.21-.547 1.783 1.783 0 00-.463-.505 2.862 2.862 0 00-.715-.337c-.295-.084-.589-.084-.968 0a2.686 2.686 0 00-.925.379 1.791 1.791 0 00-.547.59c-.127.21-.211.421-.253.673a1.818 1.818 0 000 .674c.042.252.169.505.295.757.126.253.336.463.589.632.252.168.547.337.883.421.337.126.758.168 1.22.168.421-.379.758-.8.968-1.263.211-.463.253-1.01.126-1.642zm20.911 8.883c-.253.084-.547.126-.8.21-.504.084-.967.168-1.43.168l.252-.252c.379-.379.674-.884.884-1.431.21-.548.294-1.179.294-1.937a5.29 5.29 0 01-.967.548 5.532 5.532 0 01-1.178.378c-.674.127-1.305.169-1.809.042-.505-.126-.968-.294-1.347-.589a3.038 3.038 0 01-.883-1.052 5.081 5.081 0 01-.463-1.347c-.084-.421-.084-.884-.042-1.389.042-.506.21-.969.42-1.39.253-.463.547-.841.968-1.178a3.72 3.72 0 011.599-.716c.673-.126 1.262-.126 1.809 0a3.29 3.29 0 011.473.758c.42.379.799.842 1.094 1.473a7.44 7.44 0 01.673 2.063c.547 2.315.336 4.167-.547 5.641zm-3.072-3.663c.421-.084.8-.21 1.136-.336.337-.127.674-.337.968-.548 0-.126-.042-.252-.042-.379-.042-.126-.042-.252-.084-.378-.084-.506-.253-.969-.379-1.432a4.173 4.173 0 00-.631-1.136c-.252-.295-.547-.547-.883-.674a2.32 2.32 0 00-1.221-.084c-.378.084-.715.211-.925.421-.253.21-.421.463-.547.758-.126.294-.21.589-.21.884 0 .294 0 .589.042.884.168.8.462 1.347.925 1.684.505.421 1.136.505 1.851.336zm22.846-35.739l-.042.042-.126.295v.126l-.168.379v.211c-.211.421-.421.842-.674 1.305v.168l-.126.211v.168l-.084.126v.126l-.042.085v.084l-.126.21v.253c-.211.379-.463.716-.673 1.094v.085l-.042.042v.126l-.043.042v.463l-.042.042v.126l-.042.085c-4.712 6.23-12.075 11.029-20.91 12.797-17.503 3.494-34.121-6.02-37.193-21.258-1.052-5.22-.378-10.398 1.641-15.113l-.042.169-.042.168-1.346.295-.043.168-.042.168-.042.169-.042.168-.042.169-.042.168-.042.168-.042.169-.042.168-.042.169-.042.168-.042.168-.042.169-.042.168-.043.168-.042.169-.042.168-.042.168v.043l-.042.168-.042.168-.042.169v5.303l.042.211.042.21.042.211.042.21.042.211.042.21.043.211.042.21.042.211.042.21.042.211c3.071 15.281 19.732 24.794 37.193 21.258l.462-.084h.085l.126-.042.378-.084h.085l.42-.084.169-.043.378-.084h.084l.169-.042.336-.084.084-.042.421-.126h.042l.463-.127h.042l.421-.126.084-.042.084-.042.379-.126.084-.043.421-.168.42-.168.042-.042.127-.042.378-.127.042-.042.421-.168.126-.042.337-.127.337-.168.126-.042.294-.126.042-.042.253-.127.21-.084.211-.126.084-.042.294-.169.084-.042.379-.168h.042l.379-.211.336-.21.042-.042.085-.042.126-.085.252-.126.084-.042.211-.126h.042c.252-.126.463-.295.715-.421l.126-.084.295-.169.378-.252.379-.253.252-.168.085-.084.126-.085.252-.168.042-.042c.337-.253.674-.463.968-.716l.337-.252h.042l.336-.253.253-.21.084-.085.084-.084.252-.21c.211-.169.421-.379.632-.547l.042-.043.252-.252.084-.084.253-.253.294-.295.295-.294.589-.59c.294-.294.589-.589.841-.926l.253-.294a30.536 30.536 0 004.754-7.578v.043l-.126.463-.084.294v.042c-.085.295-.211.59-.337.884l-.126.337v.042l-.295 1.347zm-.715 6.651c-.126.211-.21.463-.295.758-.378 1.558.421 3.073 1.894 3.705l12.453 5.051 2.567 1.305c.883.463 1.472 1.221 1.683 2.189l.084.463c-7.784 12.166-20.868 21.511-36.94 24.71-29.662 5.935-58.104-11.24-63.531-38.349-5.343-26.689 13.548-53.124 42.41-59.607.463-.084.926-.21 1.388-.295l1.389-.252c30.461-5.43 59.323 12.25 64.877 39.99 1.641 8.167 1.052 16.291-1.305 23.868v.085c.127.799.043 1.473-.336 2.189l-4.839 9.513h-.042.042l-.126.042c-8.12 12.924-21.962 22.858-38.918 26.268-30.965 6.23-60.627-11.576-66.265-39.738-5.554-27.741 14.263-55.187 44.429-61.965.463-.084.926-.21 1.389-.294l1.388-.253c29.115-5.136 56.757 11.913 62.142 38.602 1.473 7.282 1.094 14.565-.757 21.426-.252-.084-.505-.168-.799-.168l-20.322-2.063a3.137 3.137 0 00-3.408 2.399l-.252.421zm19.059 10.777l-.084-.084.084.084zm-25.244-4.883c5.049-1.011 9.887 1.936 10.813 6.567l.126.757-.084-.168-.084-.168v-.043l-.042-.126-.042-.042-.042-.084v-.042l-.084-.126-.042-.085-.085-.168v-.042l-.084-.126-.084-.127-.126-.168-.084-.126-.084-.127-.043-.084-.042-.084-.084-.084-.042-.042-.084-.127-.042-.042-.126-.126-.126-.126-.127-.127-.042-.042-.084-.084-.042-.042-.084-.084-.084-.042-.084-.042-.085-.085-.042-.042-.126-.084h-.084l-.126-.084-.168-.084-.127-.084-.042-.042-.126-.085-.042-.042-.084-.042-.084-.042-.085-.042-.126-.042-.042-.042-.126-.084h-.042l-.168-.085-.169-.084-.168-.084h-.042l-.126-.042-.084-.042-.085-.042-.084-.042-.084-.042-.126-.043h-.042l-.126-.042h-.042l-.169-.042-.168-.042h-.042l-.21-.042-.127-.042-.126-.042h-.21l-.127-.042h-.042l-.168-.042h-.042l-.168-.042-.169-.043h-2.608l-.168.043h-.042l-.211.042c-4.838.968-8.036 5.43-7.11 9.934v1.642a7.645 7.645 0 01-1.767-3.662c-.589-2.821.463-5.641 2.482-7.62-3.66 2.231-7.699 3.873-11.865 4.757 4.628-.421 8.836 2.442 9.719 6.735.127.548.169 1.095.169 1.642-.042-.126-.085-.21-.127-.337l-.042-.126-.042-.042c-.042-.126-.126-.211-.168-.337l-.084-.168-.084-.169-.084-.126-.085-.168-.042-.042-.084-.085-.042-.084-.042-.084-.084-.084-.042-.042-.084-.084-.042-.042-.085-.127-.042-.042c-.126-.126-.252-.295-.378-.421v-.042l-.127-.126-.126-.084-.042-.042-.042-.043-.084-.084-.126-.126-.042-.042c-.169-.169-.379-.295-.547-.421l-.169-.126-.126-.085-.042-.042-.126-.084-.126-.084-.084-.042-.085-.042-.084-.042-.084-.042-.126-.043-.042-.042-.126-.084h-.043l-.168-.084-.168-.084-.168-.084-.295-.127h-.042l-.042-.042-.126-.042-.084-.042-.085-.042-.126-.042-.084-.042-.126-.042h-.042l-.169-.042h-.042l-.168-.043-.168-.042-.168-.042h-.043l-.168-.042h-2.65l-.169.042h-.042l-.168.042h-.042l-.211.042c-4.838.969-8.036 5.431-7.11 9.935l.042.253a8.45 8.45 0 01-1.346-3.073c-.884-4.378 2.061-8.714 6.605-10.019-12.369 1.978-25.917-2.231-33.153-12.881-1.978-2.905-3.366-6.146-4.039-9.598-.674-3.452-.674-6.988.042-10.398 2.692-13.133 14.305-22.436 27.053-25.004 12.748-2.568 27.053 1.557 34.584 12.628 1.977 2.905 3.366 6.146 4.039 9.598.715 3.452.673 6.988 0 10.398-1.515 7.493-5.974 13.765-11.907 18.227.8-.589 1.515-.842 2.272-.968zm-37.487 7.914c5.049-1.011 9.929 2.147 10.897 7.03.252 1.262.21 2.483-.042 3.704v-.8.126-.463.043-1.011c-.673-4.504-5.091-7.409-9.845-6.44-4.755.968-8.078 5.388-7.405 9.892v.547l.042.085v.084a8.154 8.154 0 01-1.22-2.989c-.758-3.999 2.524-8.798 7.573-9.808zm-16.787-7.241c5.175-1.347 10.055 1.432 10.939 6.188.463 2.484-.295 5.01-1.851 7.072l.084-.084c1.052-1.515 1.641-3.283 1.598-5.009-.084-4.336-3.954-7.072-8.667-6.104-4.712.926-8.456 5.22-8.372 9.556.042 2.104.967 3.83 2.482 4.925-2.061-1.095-3.576-3.031-3.997-5.473-.883-4.799 2.609-9.724 7.784-11.071zm8.793 13.597c-.084.126-.21.211-.294.337.126-.084.21-.211.294-.337zm-19.48-26.899c4.965-1.305 9.677 1.389 10.518 5.936a7.766 7.766 0 01-.126 3.409c.042-.463.084-.926.042-1.431-.294-4.252-4.333-6.988-8.961-6.062-4.628.926-8.12 5.136-7.826 9.43.126 1.557.715 2.904 1.641 3.915-1.431-1.095-2.482-2.695-2.819-4.589-.799-4.588 2.566-9.345 7.531-10.608zm10.098 10.271c-.127.337-.295.716-.463 1.053.21-.379.336-.716.463-1.053zm-1.767 2.947a5.178 5.178 0 01-.463.505c.21-.168.336-.337.463-.505zm-.8.842c-.126.126-.252.21-.378.337.126-.127.252-.211.378-.337zm-3.197 2.021c-.211.084-.421.168-.674.252.253-.084.463-.126.674-.252zm-.8.336a2.399 2.399 0 00-.505.169l-.252.084.252-.084c.127-.084.295-.127.505-.169zm-5.89-32.497c4.796-1.221 9.256 1.178 10.013 5.346a7.333 7.333 0 01-.294 3.578c.252-.8.421-1.642.421-2.484-.505-3.536-4.208-5.725-8.457-4.84-4.46.883-7.868 4.714-7.615 8.545.168 2.357 1.641 4.167 3.828 5.009-2.65-.716-4.67-2.694-5.175-5.346-.757-4.21 2.525-8.588 7.279-9.808zm6.059-16.207c4.796-1.22 9.172 1.094 9.761 5.136.042.378.084.8.042 1.178-.716-3.283-4.292-5.262-8.373-4.42-4.46.884-7.868 4.715-7.615 8.546.084 1.347.589 2.483 1.43 3.367-1.514-.968-2.566-2.441-2.819-4.294-.631-3.999 2.777-8.292 7.574-9.513zm9.718 7.367l-.126.505c-.042.126-.084.21-.084.337.042-.127.084-.21.084-.337.042-.127.084-.295.126-.505zm-.462 1.515c-.169.379-.337.758-.589 1.137.21-.38.42-.758.589-1.137zm-1.01 1.768c-.126.169-.21.295-.337.463.127-.168.253-.337.337-.463zm4.67-23.615c4.796-1.221 9.172 1.052 9.719 5.051a6.8 6.8 0 01.042 1.6v-.169c-.968-3.115-4.67-4.925-8.793-4.083-4.502.884-7.784 4.63-7.321 8.335.126 1.052.547 1.978 1.178 2.778-1.346-.926-2.272-2.315-2.524-4.041-.505-3.999 2.903-8.25 7.699-9.471zm17.503-6.946c5.048-1.263 9.634.8 10.223 4.588.169.926.042 1.852-.252 2.778 0-.084 0-.168-.042-.252-.463-3.704-4.46-5.935-8.962-5.051-4.502.884-7.783 4.63-7.321 8.334a5.51 5.51 0 001.01 2.568c-1.43-.842-2.44-2.189-2.692-3.788-.632-3.831 2.987-7.914 8.036-9.177zm9.508 8.419zm-.926 1.389c-.084.126-.21.253-.294.337.084-.127.21-.21.294-.337zm-1.977 1.852c-.126.084-.252.21-.421.295.169-.084.295-.168.421-.295zm-9.929 2.105a3.67 3.67 0 01-.631-.21c.168.084.42.168.631.21zm22.046-13.85c5.133-.883 9.761 1.474 10.35 5.262.379 2.316-.883 4.631-3.071 6.315 1.514-1.431 2.314-3.284 1.935-5.094-.673-3.283-4.838-5.177-9.34-4.293-4.502.884-7.615 4.293-6.942 7.577.168.926.673 1.768 1.346 2.441-1.304-.926-2.23-2.23-2.44-3.746-.631-3.789 3.029-7.577 8.162-8.461zm5.806 12.503l-.042.042h-.084l-.042.042h-.126l-.042.042h-1.683l-.379-3.83c-.126.168-.252.336-.421.505-.168.168-.378.379-.589.547-.21.168-.42.337-.673.505-.252.168-.463.337-.715.463l-.757-1.136a10.405 10.405 0 001.725-1.39c.547-.505 1.009-1.136 1.43-1.852l1.136-.21 1.262 6.272zm-9.887.59zm23.056 39.359l-.126.252.126-.252zm30.756-61.586a151.77 151.77 0 0125.833-20.332c1.725-1.095 1.304-3.705-.673-4.21-66.729-16.122-139.515-1.515-194.842 39.149-1.64 1.22-1.01 3.83 1.01 4.125a152.648 152.648 0 0131.681 8.756c-.8 3.705-1.557 7.409-2.23 11.113a221.817 221.817 0 00-2.398 16.712c-.126 1.221-.505 2.316-1.136 3.242a7.209 7.209 0 01-2.566 2.315c-4.04 2.189-8.036 4.336-12.033 6.02-3.955 1.683-7.952 2.946-11.991 3.451-3.619.506-7.069.085-10.224-1.136-3.155-1.221-6.017-3.242-8.415-6.062l-7.32-8.587a10.726 10.726 0 01-1.81-2.905 10.935 10.935 0 01-.757-3.368c-.252-3.494-.378-6.987-.252-10.566.126-3.536.463-7.156 1.136-10.776a21.24 21.24 0 01.8-3.03c.336-.97.756-1.895 1.261-2.863 2.02-3.915 4.923-7.746 9.214-11.703 4.292-3.999 9.972-8.166 17.503-12.713 29.199-17.596 58.65-29.382 89.237-35.528 30.587-6.146 62.311-6.651 96.053-1.684 8.71 1.263 15.525 2.947 21.037 4.967 5.47 2.02 9.635 4.42 13.001 7.24.841.716 1.556 1.39 2.272 2.19.673.757 1.262 1.557 1.893 2.483a75.408 75.408 0 015.217 9.514c1.473 3.241 2.735 6.567 3.829 9.85.378 1.137.589 2.273.589 3.368 0 1.094-.169 2.23-.547 3.367l-3.45 10.735c-1.136 3.494-2.987 6.482-5.428 8.84-2.44 2.357-5.511 4.083-9.045 5.051-3.913 1.095-8.078 1.474-12.37 1.431-4.333 0-8.877-.42-13.421-.926-1.22-.126-2.314-.505-3.24-1.136a7.208 7.208 0 01-2.314-2.568 210.098 210.098 0 00-8.667-14.523 1721.79 1721.79 0 01-6.437-9.303zm-70.347 4.504c33.112-6.651 64.877 12.376 70.936 42.517 6.058 30.14-15.904 59.943-49.016 66.594-33.111 6.652-64.877-12.376-70.935-42.516-6.059-30.14 15.861-59.944 49.015-66.595zm87.218 47.652c4.965 13.134 9.635 27.909 13.884 44.79 5.217 20.837-7.615 28.288-29.788 32.918-12.748 2.694-25.159 5.22-37.529 7.746l-.126.042-.673.126-.127.042-.673.127-.126.042-.673.126-.126.042-.674.126-.126.042-.673.127-.126.042-.673.126-.127.042-.673.127-.126.042-.673.126-.126.042-.673.126-.127.042-.673.127-.126.042-.673.126-.126.042-.674.126-.126.043-.673.126-.126.042-.673.126h-.127l-.673.126-.126.043-.673.126-.126.042-.674.126-.126.042c-12.369 2.484-24.823 4.883-37.613 7.325-22.257 4.252-36.983 2.357-40.18-18.859-2.609-17.217-3.997-32.624-4.46-46.684.8 12.839 2.272 26.689 4.544 41.675 3.66 24.289 21.036 27.067 46.533 22.184 12.706-2.441 25.37-4.757 37.992-7.114 12.538-2.694 25.118-5.43 37.782-8.124 25.37-5.347 40.348-14.608 34.374-38.434-3.661-14.775-7.616-28.119-11.823-40.285z" fill="#fff"/></g><defs><clipPath id="clip0"><path fill="#fff" transform="translate(30)" d="M0 0h263v225H0z"/></clipPath></defs></svg>