<svg width="293" height="371" viewBox="0 0 293 371" fill="none" xmlns="http://www.w3.org/2000/svg">
<circle cx="146.5" cy="224.5" r="146" stroke="black"/>
<g clip-path="url(#clip0)">
<path fill-rule="evenodd" clip-rule="evenodd" d="M183.399 133.232C183.357 133.106 183.272 133.022 183.23 132.896L183.399 133.232ZM252.946 74.9301C255.765 82.0022 258.289 89.874 260.393 98.6299C266.872 125.781 268.008 151.586 268.387 169.519C268.765 186.609 258.247 191.787 239.903 196.628C208.012 205.047 171.955 212.287 139.306 216.834C120.499 219.444 108.845 218.77 102.576 202.816C96.0125 186.104 87.135 161.899 82.6332 134.327C81.1606 125.403 80.4454 117.194 80.3613 109.575V109.701C84.5265 133.485 89.7015 156.511 98.2845 176.885C88.7759 135.337 87.2192 115.889 87.6399 101.997C88.6918 89.9161 90.9637 78.0873 93.6564 66.3006C96.0967 55.7767 103.123 52.1986 110.738 49.5045C154.032 34.0555 155.799 33.6766 201.785 31.2351C209.863 30.8141 217.73 31.4035 224.041 40.1593C231.11 49.9676 237.715 60.0284 243.353 70.7627C249.075 83.3913 255.134 101.955 262.412 143.967C262.454 121.867 258.373 98.6299 253.03 75.0985L252.946 74.9301ZM263.759 108.438C266.031 119.425 267.461 130.075 268.387 139.968C269.523 152.133 269.901 163.078 270.112 172.044C270.28 181.011 267.629 186.862 262.454 191.156C262.034 191.492 261.571 191.871 261.108 192.166C257.153 198.985 249.075 202.227 237.799 205.258C208.306 213.171 174.9 219.907 144.607 223.99C132.995 225.548 124.328 225.674 118.017 220.917C117.47 220.791 116.923 220.664 116.376 220.496C109.939 218.56 105.227 214.182 101.945 205.805C98.6631 197.47 94.7924 187.199 91.1741 175.538C88.229 166.067 85.4521 155.669 83.3064 144.64C85.368 154.701 87.9344 164.215 90.6692 172.97C94.2875 184.631 98.1582 194.86 101.44 203.237C104.722 211.572 109.476 215.95 115.871 217.928C116.418 218.097 116.923 218.223 117.512 218.349C123.823 223.106 132.49 222.98 144.102 221.422C174.395 217.339 207.801 210.646 237.295 202.69C248.612 199.659 256.648 196.418 260.603 189.598C261.066 189.261 261.529 188.925 261.949 188.588C267.124 184.294 269.817 178.443 269.607 169.476C269.439 160.51 269.018 149.565 267.882 137.4C266.998 128.307 265.736 118.541 263.759 108.438ZM148.057 72.9938C147.973 72.8254 147.889 72.657 147.763 72.5307C147.51 72.2781 147.216 72.0677 146.879 71.9414C146.543 71.8151 146.164 71.773 145.743 71.773C145.322 71.773 144.902 71.8151 144.481 71.8993L144.06 71.9835L143.808 70.6785L144.397 70.5522C144.691 70.5101 144.986 70.4259 145.28 70.2997C145.575 70.1734 145.827 70.005 146.08 69.8366C146.29 69.6261 146.458 69.3736 146.585 69.0789C146.711 68.7842 146.711 68.4474 146.627 68.0265C146.543 67.6897 146.458 67.4372 146.29 67.2267C146.122 67.0162 145.953 66.8478 145.701 66.7636C145.491 66.6373 145.238 66.5952 144.986 66.5952C144.733 66.5952 144.439 66.5953 144.186 66.6794C143.639 66.8057 143.177 66.9741 142.798 67.2267C142.461 67.4793 142.167 67.6897 141.914 67.9423L141.031 66.8478C141.157 66.7215 141.325 66.5953 141.494 66.4269C141.704 66.2585 141.914 66.1322 142.167 65.9638C142.419 65.8375 142.672 65.6692 142.966 65.5429C143.261 65.4166 143.555 65.3324 143.934 65.2482C144.565 65.1219 145.154 65.0798 145.617 65.164C146.122 65.2482 146.543 65.3745 146.879 65.585C147.258 65.7954 147.552 66.0901 147.763 66.469C147.973 66.8478 148.141 67.2267 148.225 67.6897C148.352 68.3212 148.268 68.9105 148.015 69.4156C147.763 69.9208 147.384 70.3838 146.921 70.6785C147.258 70.7206 147.594 70.7627 147.889 70.889C148.225 71.0153 148.52 71.1836 148.772 71.3941C148.983 71.5625 149.151 71.7309 149.319 71.9835C148.941 72.2781 148.52 72.657 148.057 72.9938ZM128.703 85.9591C128.83 85.4119 128.998 84.7384 129.25 83.9807C129.503 83.2229 129.797 82.4231 130.134 81.6233C130.471 80.8235 130.849 79.9816 131.27 79.1818C131.691 78.382 132.111 77.6243 132.574 76.9507L134.131 76.6561L135.688 84.3174L137.118 84.0228L137.16 84.3174C136.445 85.2014 135.519 85.9591 134.51 86.5485L134.383 85.917L128.998 87.0115L128.703 85.9591ZM132.869 78.8871C132.616 79.3081 132.322 79.8132 132.069 80.3605C131.817 80.9077 131.564 81.4549 131.312 82.0022C131.06 82.5494 130.849 83.1387 130.681 83.7281C130.471 84.3174 130.344 84.8647 130.176 85.4119L134.005 84.6542L132.869 78.8871ZM124.791 99.556C126.558 99.2613 127.904 99.3876 128.872 99.9348C129.671 100.398 130.218 101.071 130.513 101.997C130.05 102.418 129.545 102.797 128.998 103.134C128.998 103.092 128.998 103.008 128.956 102.966C128.872 102.545 128.703 102.166 128.493 101.829C128.283 101.534 127.946 101.282 127.525 101.113C127.105 100.945 126.558 100.903 125.885 100.903C125.211 100.903 124.412 101.029 123.444 101.198C123.402 100.608 123.36 100.061 123.276 99.556C123.234 99.0508 123.15 98.5457 123.108 98.0826C123.066 97.6196 122.981 97.1144 122.897 96.6514C122.813 96.1883 122.729 95.6832 122.687 95.1359L128.493 93.9573L128.788 95.3464L124.37 96.2304C124.412 96.3988 124.412 96.6514 124.454 96.9461C124.496 97.2407 124.538 97.5775 124.58 97.8721C124.622 98.2089 124.664 98.5036 124.706 98.8403C124.749 99.135 124.749 99.3455 124.791 99.556ZM124.875 119.93C124.622 118.751 124.58 117.699 124.749 116.731C124.875 115.763 125.211 114.921 125.674 114.163C126.137 113.447 126.768 112.816 127.567 112.311C128.367 111.806 129.292 111.469 130.344 111.216L130.723 112.563C130.05 112.732 129.419 112.9 128.914 113.153C128.367 113.405 127.904 113.742 127.525 114.121C127.147 114.5 126.852 114.963 126.642 115.51C126.431 116.057 126.347 116.689 126.305 117.447C126.6 117.236 126.894 117.068 127.273 116.899C127.61 116.731 128.03 116.605 128.409 116.52C129.082 116.394 129.713 116.352 130.218 116.478C130.723 116.605 131.186 116.773 131.564 117.068C131.943 117.362 132.238 117.699 132.448 118.12C132.658 118.541 132.827 119.004 132.911 119.467V119.551C132.406 119.972 131.859 120.393 131.27 120.73C131.27 120.435 131.27 120.141 131.228 119.846C131.06 119.046 130.765 118.499 130.302 118.162C129.839 117.825 129.25 117.741 128.493 117.867C128.072 117.952 127.736 118.078 127.399 118.204C127.063 118.331 126.726 118.541 126.431 118.751C126.431 118.878 126.474 119.004 126.474 119.13C126.474 119.257 126.516 119.383 126.558 119.509C126.642 120.014 126.81 120.477 126.936 120.94C127.105 121.361 127.315 121.74 127.567 122.077C126.936 122.161 126.305 122.203 125.674 122.161C125.296 121.572 125.043 120.814 124.875 119.93ZM189.331 134.916C188.91 132.896 188.952 131.254 189.457 130.033C189.962 128.812 190.846 128.055 192.108 127.802C193.37 127.549 194.464 127.886 195.39 128.854C196.315 129.823 196.988 131.296 197.409 133.316C197.577 134.285 197.704 135.127 197.662 135.926C197.115 136.221 196.568 136.474 195.937 136.684C195.979 136.347 195.979 135.968 195.937 135.59C195.894 135 195.81 134.369 195.684 133.695C195.558 133.022 195.39 132.432 195.179 131.843C194.969 131.254 194.758 130.791 194.464 130.37C194.212 129.949 193.875 129.654 193.538 129.444C193.202 129.233 192.781 129.191 192.36 129.275C191.897 129.36 191.561 129.57 191.308 129.907C191.056 130.244 190.888 130.622 190.804 131.085C190.719 131.548 190.677 132.096 190.719 132.727C190.762 133.316 190.846 133.948 190.972 134.621C191.098 135.295 191.266 135.884 191.477 136.474C191.519 136.684 191.603 136.852 191.687 137.021C190.972 136.937 190.299 136.726 189.668 136.474C189.541 136.011 189.415 135.463 189.331 134.916ZM163.288 66.469C162.825 66.6373 162.404 66.7636 161.899 66.8899C161.647 66.932 161.394 67.0162 161.184 67.0583C161.352 66.7636 161.521 66.469 161.689 66.1743C161.983 65.7113 162.236 65.2903 162.53 64.8693C162.783 64.5326 162.993 64.1958 163.204 63.859C163.414 63.5223 163.582 63.2276 163.75 62.8909C163.919 62.5962 164.003 62.2594 164.087 61.9648C164.129 61.628 164.129 61.3333 164.087 60.9966C164.003 60.6598 163.919 60.3651 163.75 60.1547C163.582 59.9442 163.414 59.7758 163.204 59.6495C162.993 59.5232 162.741 59.439 162.488 59.439C162.236 59.3969 161.941 59.439 161.689 59.4811C161.352 59.5653 161.058 59.6495 160.805 59.8179C160.553 59.9863 160.3 60.1126 160.132 60.2809C159.922 60.4493 159.796 60.6177 159.669 60.7861C159.543 60.9545 159.459 61.0807 159.375 61.1649L158.323 60.1967C158.407 60.0705 158.533 59.9021 158.702 59.6916C158.87 59.4811 159.08 59.2706 159.375 59.0602C159.627 58.8497 159.922 58.6392 160.258 58.4708C160.595 58.3025 160.974 58.1762 161.394 58.092C162.657 57.8394 163.666 57.9236 164.424 58.3866C165.181 58.8497 165.644 59.6074 165.854 60.6598C165.938 61.0807 165.938 61.5017 165.854 61.9227C165.77 62.3436 165.602 62.7646 165.433 63.2276C165.223 63.6486 165.013 64.1116 164.718 64.5326C164.424 64.9535 164.171 65.4166 163.877 65.7954L163.288 66.469ZM139.895 135.758C139.727 135.8 139.558 135.842 139.432 135.884C139.053 135.968 138.633 136.053 138.254 136.137V135.926C138.296 134.832 138.422 133.78 138.633 132.727C138.843 131.675 139.053 130.707 139.348 129.78C139.642 128.854 139.937 128.097 140.274 127.465L134.383 128.644L134.089 127.213L141.788 125.655L142.041 127.002C141.746 127.507 141.452 128.223 141.115 129.065C140.821 129.949 140.526 130.875 140.316 131.927C140.105 132.98 139.937 134.074 139.853 135.211C139.937 135.421 139.895 135.59 139.895 135.758ZM159.922 143.251C158.912 143.925 157.734 144.43 156.472 144.682C155.125 144.935 153.821 144.935 152.601 144.64C152.559 144.556 152.517 144.514 152.475 144.43C152.264 144.051 152.138 143.714 152.054 143.377C151.97 143.041 151.97 142.704 152.012 142.367C152.054 142.03 152.138 141.736 152.264 141.399C152.391 141.104 152.559 140.809 152.727 140.557C152.938 140.304 153.148 140.052 153.358 139.841C152.096 139.42 151.339 138.578 151.086 137.316C151.002 136.895 151.002 136.432 151.086 136.011C151.171 135.59 151.339 135.169 151.633 134.79C151.886 134.411 152.222 134.116 152.643 133.822C153.064 133.569 153.527 133.359 154.116 133.232C154.747 133.106 155.336 133.106 155.841 133.19C156.346 133.274 156.766 133.485 157.145 133.737C157.524 133.99 157.776 134.285 157.986 134.621C158.197 134.958 158.323 135.295 158.407 135.674C158.491 136.011 158.491 136.347 158.449 136.642C158.407 136.979 158.323 137.273 158.197 137.568C158.071 137.863 157.944 138.115 157.776 138.368C157.608 138.62 157.397 138.831 157.229 139.041C158.744 139.42 159.627 140.304 159.922 141.693C160.006 142.199 160.006 142.662 159.922 143.083C159.964 143.125 159.964 143.209 159.922 143.251ZM153.695 143.041C153.737 143.251 153.821 143.461 153.947 143.672C154.074 143.882 154.242 144.051 154.452 144.219C154.663 144.388 154.957 144.472 155.252 144.556C155.588 144.64 155.967 144.598 156.388 144.514C156.766 144.43 157.103 144.303 157.397 144.135C157.65 143.967 157.902 143.756 158.029 143.546C158.197 143.335 158.281 143.083 158.323 142.83C158.365 142.577 158.365 142.325 158.323 142.072C158.239 141.693 158.113 141.399 157.902 141.146C157.692 140.894 157.439 140.683 157.145 140.515C156.85 140.346 156.472 140.262 156.093 140.178C155.714 140.094 155.252 140.052 154.789 140.052C154.326 140.431 153.989 140.894 153.779 141.357C153.611 141.904 153.569 142.451 153.695 143.041ZM156.808 135.968C156.766 135.8 156.682 135.59 156.598 135.421C156.472 135.211 156.304 135.042 156.135 134.916C155.925 134.79 155.714 134.664 155.42 134.579C155.125 134.495 154.831 134.495 154.452 134.579C154.074 134.664 153.779 134.79 153.527 134.958C153.274 135.127 153.106 135.337 152.98 135.548C152.853 135.758 152.769 135.969 152.727 136.221C152.685 136.432 152.685 136.684 152.727 136.895C152.769 137.147 152.896 137.4 153.022 137.652C153.148 137.905 153.358 138.115 153.611 138.284C153.863 138.452 154.158 138.621 154.494 138.705C154.831 138.831 155.252 138.873 155.714 138.873C156.135 138.494 156.472 138.073 156.682 137.61C156.893 137.147 156.935 136.6 156.808 135.968ZM177.719 144.851C177.466 144.935 177.172 144.977 176.919 145.061C176.415 145.145 175.952 145.229 175.489 145.229C175.573 145.145 175.657 145.061 175.741 144.977C176.12 144.598 176.415 144.093 176.625 143.546C176.835 142.998 176.919 142.367 176.919 141.609C176.625 141.82 176.33 141.988 175.952 142.157C175.573 142.325 175.194 142.451 174.774 142.535C174.1 142.662 173.469 142.704 172.965 142.577C172.46 142.451 171.997 142.283 171.618 141.988C171.24 141.693 170.945 141.357 170.735 140.936C170.524 140.515 170.356 140.052 170.272 139.589C170.188 139.168 170.188 138.705 170.23 138.2C170.272 137.694 170.44 137.231 170.65 136.81C170.903 136.347 171.197 135.969 171.618 135.632C172.039 135.295 172.586 135.042 173.217 134.916C173.89 134.79 174.479 134.79 175.026 134.916C175.573 135.042 176.078 135.295 176.499 135.674C176.919 136.053 177.298 136.516 177.593 137.147C177.887 137.737 178.14 138.452 178.266 139.21C178.813 141.525 178.602 143.377 177.719 144.851ZM174.647 141.188C175.068 141.104 175.447 140.978 175.783 140.852C176.12 140.725 176.457 140.515 176.751 140.304C176.751 140.178 176.709 140.052 176.709 139.925C176.667 139.799 176.667 139.673 176.625 139.547C176.541 139.041 176.372 138.578 176.246 138.115C176.078 137.652 175.868 137.316 175.615 136.979C175.363 136.684 175.068 136.432 174.732 136.305C174.395 136.179 173.974 136.137 173.511 136.221C173.133 136.305 172.796 136.432 172.586 136.642C172.333 136.852 172.165 137.105 172.039 137.4C171.913 137.694 171.829 137.989 171.829 138.284C171.829 138.578 171.829 138.873 171.871 139.168C172.039 139.968 172.333 140.515 172.796 140.852C173.301 141.273 173.932 141.357 174.647 141.188ZM197.493 105.449L197.451 105.491L197.325 105.786V105.828V105.87V105.912L197.157 106.291V106.333V106.375V106.418V106.46V106.502C196.946 106.923 196.736 107.344 196.483 107.807V107.849V107.891V107.933V107.975L196.357 108.186V108.228V108.27V108.312V108.354L196.273 108.48V108.522V108.564V108.606L196.231 108.691V108.733V108.775L196.105 108.985V109.027V109.07V109.112V109.154V109.196V109.238C195.894 109.617 195.642 109.954 195.432 110.332V110.374V110.417L195.39 110.459V110.501V110.543V110.585L195.347 110.627V110.669V110.711V110.753V110.795V110.838V110.88V110.922V110.964V111.006V111.048V111.09L195.305 111.132V111.174V111.216V111.258L195.263 111.343C190.551 117.573 183.188 122.372 174.353 124.14C156.85 127.634 140.232 118.12 137.16 102.882C136.108 97.6617 136.782 92.4839 138.801 87.7692L138.759 87.9376L138.717 88.106L137.371 88.4007L137.328 88.5691L137.286 88.7374L137.244 88.9058L137.202 89.0742L137.16 89.2426L137.118 89.411L137.076 89.5794L137.034 89.7477L136.992 89.9161L136.95 90.0845L136.908 90.2529L136.866 90.4213L136.824 90.5896L136.782 90.758L136.739 90.9264L136.697 91.0948L136.655 91.2632L136.613 91.4315V91.4736L136.571 91.642L136.529 91.8104L136.487 91.9788V92.1472V92.3156V92.4839V92.6523V92.8207V92.9891V93.1575V93.3258V93.4942V93.6626V93.831V93.9994V94.1678V94.3782V94.5466V94.715V94.8834V95.0518V95.2622V95.4306V95.599V95.8095V96.0199V96.2304V96.4409V96.6514V96.8619V97.0723V97.2828L136.529 97.4933L136.571 97.7038L136.613 97.9142L136.655 98.1247L136.697 98.3352L136.739 98.5457L136.782 98.7561L136.824 98.9666L136.866 99.1771L136.908 99.3876L136.95 99.5981C140.021 114.879 156.682 124.392 174.143 120.856L174.605 120.772H174.69L174.816 120.73L175.194 120.646H175.279L175.699 120.562L175.868 120.519L176.246 120.435H176.33L176.499 120.393L176.835 120.309L176.919 120.267L177.34 120.141H177.382L177.845 120.014H177.887L178.308 119.888L178.392 119.846L178.476 119.804L178.855 119.678L178.939 119.635L179.36 119.467L179.78 119.299L179.822 119.257L179.949 119.215L180.327 119.088L180.369 119.046L180.79 118.878L180.916 118.836L181.253 118.709L181.59 118.541L181.716 118.499L182.01 118.373L182.052 118.331L182.305 118.204L182.515 118.12L182.726 117.994L182.81 117.952L183.104 117.783L183.188 117.741L183.567 117.573H183.609L183.988 117.362L184.324 117.152L184.366 117.11L184.451 117.068L184.577 116.983L184.829 116.857L184.913 116.815L185.124 116.689H185.166C185.418 116.563 185.629 116.394 185.881 116.268L186.007 116.184L186.302 116.015L186.68 115.763L187.059 115.51L187.311 115.342L187.396 115.258L187.522 115.173L187.774 115.005L187.816 114.963C188.153 114.71 188.49 114.5 188.784 114.247L189.121 113.995H189.163L189.499 113.742L189.752 113.532L189.836 113.447L189.92 113.363L190.172 113.153C190.383 112.984 190.593 112.774 190.804 112.606L190.846 112.563L191.098 112.311L191.182 112.227L191.435 111.974L191.729 111.679L192.024 111.385C192.234 111.174 192.402 111.006 192.613 110.795C192.907 110.501 193.202 110.206 193.454 109.869L193.707 109.575C195.684 107.259 197.283 104.692 198.461 101.997V102.04L198.335 102.503L198.251 102.797V102.839C198.166 103.134 198.04 103.429 197.914 103.723L197.788 104.06V104.102L197.493 105.449ZM196.778 112.1C196.652 112.311 196.568 112.563 196.483 112.858C196.105 114.416 196.904 115.931 198.377 116.563L210.83 121.614L213.397 122.919C214.28 123.382 214.869 124.14 215.08 125.108L215.164 125.571C207.38 137.737 194.296 147.082 178.224 150.281C148.562 156.216 120.12 139.041 114.693 111.932C109.35 85.2435 128.241 58.8076 157.103 52.3249C157.566 52.2407 158.029 52.1144 158.491 52.0302C158.954 51.946 159.417 51.8619 159.88 51.7777C190.341 46.3474 219.203 64.0274 224.757 91.7683C226.398 99.9348 225.809 108.059 223.452 115.636V115.721C223.579 116.52 223.495 117.194 223.116 117.91L218.277 127.423H218.235H218.277L218.151 127.465C210.031 140.389 196.189 150.323 179.233 153.733C148.268 159.963 118.606 142.157 112.968 113.995C107.414 86.2538 127.231 58.8076 157.397 52.0302C157.86 51.946 158.323 51.8198 158.786 51.7356C159.249 51.6514 159.711 51.5672 160.174 51.483C189.289 46.3474 216.931 63.396 222.316 90.0845C223.789 97.367 223.41 104.65 221.559 111.511C221.307 111.427 221.054 111.343 220.76 111.343L200.438 109.28C198.84 109.112 197.409 110.122 197.03 111.679L196.778 112.1ZM215.837 122.877L215.753 122.793L215.837 122.877ZM190.593 117.994C195.642 116.983 200.48 119.93 201.406 124.561C201.448 124.813 201.49 125.066 201.532 125.318L201.448 125.15L201.364 124.982V124.939L201.322 124.813L201.28 124.771L201.238 124.687V124.645L201.154 124.519L201.112 124.434L201.027 124.266V124.224L200.943 124.098L200.859 123.971L200.733 123.803L200.649 123.677L200.565 123.55L200.522 123.466L200.48 123.382L200.396 123.298L200.354 123.256L200.27 123.129L200.228 123.087L200.102 122.961L199.976 122.835L199.849 122.708L199.807 122.666L199.723 122.582L199.681 122.54L199.597 122.456L199.513 122.414L199.429 122.372L199.344 122.287L199.302 122.245L199.176 122.161H199.134H199.092L198.966 122.077L198.798 121.993L198.671 121.909L198.629 121.867L198.503 121.782L198.461 121.74L198.377 121.698L198.293 121.656L198.208 121.614L198.082 121.572L198.04 121.53L197.914 121.446H197.872L197.704 121.361L197.535 121.277L197.367 121.193H197.325L197.199 121.151L197.115 121.109L197.03 121.067L196.946 121.025L196.862 120.983L196.736 120.94H196.694L196.568 120.898H196.526L196.357 120.856L196.189 120.814H196.147L195.937 120.772L195.81 120.73L195.684 120.688H195.642H195.558H195.474L195.347 120.646H195.305L195.137 120.604H195.095L194.927 120.562L194.758 120.519H194.716H194.506H194.38H194.296H194.169H194.043H193.959H193.833H193.791H193.622H193.58H193.37H193.16H193.118H192.949H192.907H192.697H192.655H192.529H192.402H192.318H192.192H192.15L191.982 120.562H191.94L191.729 120.604C186.891 121.572 183.693 126.034 184.619 130.538V130.58V130.622V130.664V130.707V130.749V130.791V130.833V130.875V130.917V130.959V131.043V131.085V131.128V131.17V131.212V131.254V131.296V131.338V131.38V131.422V131.464V131.506V131.548V131.591V131.633V131.675V131.717V131.759V131.801V131.843V131.885V131.927V131.969V132.012V132.054V132.096V132.138V132.18C183.735 131.17 183.104 129.907 182.852 128.518C182.263 125.697 183.315 122.877 185.334 120.898C181.674 123.129 177.635 124.771 173.469 125.655C178.097 125.234 182.305 128.097 183.188 132.39C183.315 132.938 183.357 133.485 183.357 134.032C183.315 133.906 183.272 133.822 183.23 133.695L183.188 133.569L183.146 133.527C183.104 133.401 183.02 133.316 182.978 133.19L182.894 133.022L182.81 132.853L182.726 132.727L182.641 132.559L182.599 132.517L182.515 132.432L182.473 132.348L182.431 132.264L182.347 132.18L182.305 132.138L182.221 132.054L182.179 132.012L182.094 131.885L182.052 131.843C181.926 131.717 181.8 131.548 181.674 131.422V131.38L181.547 131.254L181.421 131.17L181.379 131.128L181.337 131.085L181.253 131.001L181.127 130.875L181.085 130.833C180.916 130.664 180.706 130.538 180.538 130.412L180.369 130.286L180.243 130.201L180.201 130.159L180.075 130.075L179.949 129.991L179.865 129.949L179.78 129.907L179.696 129.865L179.612 129.823L179.486 129.78L179.444 129.738L179.318 129.654H179.275L179.107 129.57L178.939 129.486L178.771 129.402L178.476 129.275H178.434L178.392 129.233L178.266 129.191L178.182 129.149L178.097 129.107L177.971 129.065L177.887 129.023L177.761 128.981H177.719L177.55 128.939H177.508L177.34 128.896L177.172 128.854L177.004 128.812H176.961L176.793 128.77H176.751H176.625H176.541H176.415H176.33H176.246H176.12H176.036H175.91H175.868H175.699H175.657H175.489H175.279H175.11H174.942H174.9H174.858H174.816H174.647H174.479H174.437H174.353H174.227H174.143L173.974 128.812H173.932L173.764 128.854H173.722L173.511 128.896C168.673 129.865 165.475 134.327 166.401 138.831L166.443 139.084C165.812 138.2 165.349 137.147 165.097 136.011C164.213 131.633 167.158 127.297 171.702 125.992C159.333 127.97 145.785 123.761 138.549 113.111C136.571 110.206 135.183 106.965 134.51 103.513C133.836 100.061 133.836 96.5251 134.552 93.1154C137.244 79.9816 148.857 70.6785 161.605 68.1107C174.353 65.5429 188.658 69.6682 196.189 80.7393C198.166 83.6439 199.555 86.8852 200.228 90.3371C200.943 93.7889 200.901 97.3249 200.228 100.735C198.713 108.228 194.254 114.5 188.321 118.962C189.121 118.373 189.836 118.12 190.593 117.994ZM153.106 125.908C158.155 124.897 163.035 128.055 164.003 132.938C164.255 134.2 164.213 135.421 163.961 136.642V136.6V136.558V136.516V136.474V136.432V136.389V136.347V136.305V136.263V136.221V136.179V136.137V136.095V136.053V136.011V135.968V135.926V135.884V135.842V135.968V135.926V135.884V135.842V135.8V135.758V135.716V135.674V135.632V135.59V135.548V135.505V135.548V135.505V135.463V135.421V135.379V135.337V135.295V135.253V135.211V135.169V135.127V135.085V135.042V135V134.958V134.916V134.874V134.832V134.79V134.748V134.706V134.621V134.579V134.537C163.288 130.033 158.87 127.128 154.116 128.097C149.361 129.065 146.038 133.485 146.711 137.989V138.031V138.073V138.115V138.157V138.2V138.242V138.284V138.326V138.368V138.41V138.452V138.494V138.536L146.753 138.621V138.663V138.705C146.164 137.821 145.743 136.81 145.533 135.716C144.775 131.717 148.057 126.918 153.106 125.908ZM136.319 118.667C141.494 117.32 146.374 120.099 147.258 124.855C147.721 127.339 146.963 129.865 145.407 131.927L145.491 131.843C146.543 130.328 147.132 128.56 147.089 126.834C147.005 122.498 143.135 119.762 138.422 120.73C133.71 121.656 129.966 125.95 130.05 130.286C130.092 132.39 131.017 134.116 132.532 135.211C130.471 134.116 128.956 132.18 128.535 129.738C127.652 124.939 131.144 120.014 136.319 118.667ZM145.112 132.264C145.028 132.39 144.902 132.475 144.818 132.601C144.944 132.517 145.028 132.39 145.112 132.264ZM125.632 105.365C130.597 104.06 135.309 106.754 136.15 111.301C136.361 112.437 136.319 113.574 136.024 114.71C136.066 114.247 136.108 113.784 136.066 113.279C135.772 109.027 131.733 106.291 127.105 107.217C122.477 108.143 118.985 112.353 119.279 116.647C119.405 118.204 119.994 119.551 120.92 120.562C119.489 119.467 118.438 117.867 118.101 115.973C117.302 111.385 120.667 106.628 125.632 105.365ZM135.73 115.636C135.603 115.973 135.435 116.352 135.267 116.689C135.477 116.31 135.603 115.973 135.73 115.636ZM133.963 118.583C133.836 118.751 133.668 118.92 133.5 119.088C133.71 118.92 133.836 118.751 133.963 118.583ZM133.163 119.425C133.037 119.551 132.911 119.635 132.785 119.762C132.911 119.635 133.037 119.551 133.163 119.425ZM129.966 121.446C129.755 121.53 129.545 121.614 129.292 121.698C129.545 121.614 129.755 121.572 129.966 121.446ZM129.166 121.782C128.998 121.824 128.83 121.867 128.661 121.951L128.409 122.035L128.661 121.951C128.788 121.867 128.956 121.824 129.166 121.782ZM123.276 89.2847C128.072 88.0639 132.532 90.4633 133.289 94.6308C133.5 95.8516 133.374 97.0723 132.995 98.2089C133.247 97.4091 133.416 96.5672 133.416 95.7253C132.911 92.1893 129.208 90.0003 124.959 90.8843C120.499 91.7683 117.091 95.599 117.344 99.4297C117.512 101.787 118.985 103.597 121.172 104.439C118.522 103.723 116.502 101.745 115.997 99.0929C115.24 94.8834 118.522 90.5054 123.276 89.2847ZM129.335 73.0779C134.131 71.8572 138.507 74.1724 139.096 78.2136C139.138 78.5924 139.18 79.0134 139.138 79.3923C138.422 76.1088 134.846 74.1303 130.765 74.9722C126.305 75.8562 122.897 79.6869 123.15 83.5176C123.234 84.8647 123.739 86.0012 124.58 86.8852C123.066 85.917 122.014 84.4437 121.761 82.5915C121.13 78.5924 124.538 74.2987 129.335 73.0779ZM139.053 80.4446C139.011 80.613 138.969 80.7814 138.927 80.9498C138.885 81.0761 138.843 81.1603 138.843 81.2866C138.885 81.1603 138.927 81.0761 138.927 80.9498C138.969 80.8235 139.011 80.6551 139.053 80.4446ZM138.591 81.9601C138.422 82.3389 138.254 82.7178 138.002 83.0967C138.212 82.7178 138.422 82.3389 138.591 81.9601ZM137.581 83.7281C137.455 83.8965 137.371 84.0228 137.244 84.1911C137.371 84.0228 137.497 83.8544 137.581 83.7281ZM142.251 60.1126C147.047 58.8918 151.423 61.1649 151.97 65.164C152.054 65.7112 152.054 66.2164 152.012 66.7636V66.5952C151.044 63.4802 147.342 61.6701 143.219 62.512C138.717 63.396 135.435 67.1425 135.898 70.8469C136.024 71.8993 136.445 72.8254 137.076 73.6252C135.73 72.6991 134.804 71.3099 134.552 69.584C134.047 65.585 137.455 61.3333 142.251 60.1126ZM159.754 53.1668C164.802 51.9039 169.388 53.9666 169.977 57.7552C170.146 58.6813 170.019 59.6074 169.725 60.5335C169.725 60.4493 169.725 60.3651 169.683 60.2809C169.22 56.5765 165.223 54.3455 160.721 55.2295C156.219 56.1135 152.938 59.86 153.4 63.5644C153.527 64.5326 153.863 65.3745 154.41 66.1322C152.98 65.2903 151.97 63.9432 151.718 62.3436C151.086 58.5129 154.705 54.4297 159.754 53.1668ZM169.262 61.5859C169.136 61.7964 169.01 62.0068 168.883 62.2173C169.01 62.0068 169.136 61.7964 169.262 61.5859ZM168.336 62.975C168.252 63.1013 168.126 63.2276 168.042 63.3118C168.126 63.1855 168.252 63.1013 168.336 62.975ZM166.359 64.8272C166.233 64.9114 166.107 65.0377 165.938 65.1219C166.107 65.0377 166.233 64.9535 166.359 64.8272ZM156.43 66.932C156.219 66.8899 156.009 66.8057 155.799 66.7215C155.967 66.8057 156.219 66.8899 156.43 66.932ZM178.476 53.0826C183.609 52.1986 188.237 54.556 188.826 58.3445C189.205 60.6598 187.943 62.975 185.755 64.6589C187.269 63.2276 188.069 61.3754 187.69 59.5653C187.017 56.2819 182.852 54.3876 178.35 55.2716C173.848 56.1556 170.735 59.5653 171.408 62.8488C171.576 63.7749 172.081 64.6168 172.754 65.2903C171.45 64.3642 170.524 63.0592 170.314 61.5438C169.683 57.7552 173.343 53.9666 178.476 53.0826ZM184.282 65.585L184.24 65.6271H184.198H184.156L184.114 65.6692H184.072H184.03H183.988L183.946 65.7112H183.904H183.861H183.819H183.777H183.735H183.693H183.651H183.609H183.567H183.525H183.483H183.441H183.399H183.357H183.315H183.272H183.23H183.188H183.146H183.104H183.062H183.02H182.978H182.936H182.894H182.852H182.81H182.768H182.726H182.683H182.641H182.599H182.557H182.515H182.473H182.431H182.389H182.347H182.305H182.263L181.884 61.8806C181.758 62.0489 181.632 62.2173 181.463 62.3857C181.295 62.5541 181.085 62.7646 180.874 62.9329C180.664 63.1013 180.454 63.2697 180.201 63.4381C179.949 63.6065 179.738 63.7749 179.486 63.9011L178.729 62.7646C179.318 62.3857 179.907 61.9227 180.454 61.3754C181.001 60.8703 181.463 60.2388 181.884 59.5232L183.02 59.3127L184.282 65.585ZM174.395 66.1743C174.227 66.1322 174.1 66.048 173.974 65.9638C174.1 66.048 174.227 66.1322 174.395 66.1743ZM197.451 105.534L197.325 105.786L197.451 105.534ZM228.207 43.9479C236.116 36.2024 244.742 29.425 254.04 23.6158C255.765 22.5213 255.344 19.9114 253.367 19.4063C186.638 3.28374 113.852 17.8909 58.5252 58.555C56.8844 59.7758 57.5155 62.3857 59.535 62.6804C70.3478 64.4484 80.9082 67.353 91.2162 71.4362C90.4168 75.1406 89.6594 78.845 88.9863 82.5494C87.9765 88.0639 87.1771 93.6626 86.5881 99.2613C86.4619 100.482 86.0832 101.577 85.4521 102.503C84.821 103.429 83.9795 104.229 82.8856 104.818C78.8466 107.007 74.8497 109.154 70.8527 110.838C66.8978 112.521 62.9008 113.784 58.8618 114.289C55.2435 114.795 51.7935 114.374 48.638 113.153C45.4825 111.932 42.6215 109.911 40.2234 107.091L32.9026 98.5036C32.1032 97.5775 31.5142 96.6093 31.0935 95.599C30.6727 94.5466 30.4203 93.4521 30.3361 92.2314C30.0837 88.7374 29.9575 85.2435 30.0837 81.6654C30.2099 78.1294 30.5465 74.5092 31.2197 70.889C31.43 69.7945 31.6825 68.8263 32.0191 67.8581C32.3557 66.8899 32.7764 65.9638 33.2813 64.9956C35.3008 61.0807 38.2038 57.2501 42.4953 53.2931C46.7868 49.294 52.4667 45.1266 59.9978 40.5803C89.1966 22.9844 118.648 11.1977 149.235 5.05175C179.822 -1.09418 211.546 -1.59933 245.288 3.36793C253.998 4.6308 260.813 6.31461 266.325 8.33519C271.795 10.3558 275.96 12.7552 279.326 15.5756C280.167 16.2912 280.882 16.9648 281.598 17.7646C282.271 18.5223 282.86 19.3221 283.491 20.2482C285.511 23.3633 287.236 26.5625 288.708 29.7618C290.181 33.0031 291.443 36.3286 292.537 39.6121C292.915 40.7487 293.126 41.8852 293.126 42.9797C293.126 44.0742 292.957 45.2108 292.579 46.3474L289.129 57.0817C287.993 60.5756 286.142 63.5644 283.701 65.9217C281.261 68.2791 278.19 70.005 274.656 70.9732C270.743 72.0677 266.578 72.4465 262.286 72.4044C257.953 72.4044 253.409 71.9835 248.865 71.4783C247.645 71.352 246.551 70.9732 245.625 70.3417C244.699 69.7103 243.9 68.8684 243.311 67.7739C240.618 62.8067 237.715 57.9657 234.644 53.251C232.498 50.178 230.352 47.063 228.207 43.9479ZM157.86 48.4521C190.972 41.801 222.737 60.8282 228.796 90.9685C234.854 121.109 212.892 150.912 179.78 157.563C146.669 164.215 114.903 145.187 108.845 115.047C102.786 84.9068 124.706 55.1032 157.86 48.4521ZM245.078 96.1041C250.043 109.238 254.713 124.013 258.962 140.894C264.179 161.731 251.347 169.182 229.174 173.812C216.426 176.506 204.015 179.032 191.645 181.558L191.519 181.6L190.846 181.726L190.719 181.768L190.046 181.895L189.92 181.937L189.247 182.063L189.121 182.105L188.447 182.231L188.321 182.273L187.648 182.4L187.522 182.442L186.849 182.568L186.722 182.61L186.049 182.737L185.923 182.779L185.25 182.905L185.124 182.947L184.451 183.073L184.324 183.115L183.651 183.242L183.525 183.284L182.852 183.41L182.726 183.452L182.052 183.578L181.926 183.621L181.253 183.747L181.127 183.789L180.454 183.915H180.327L179.654 184.041L179.528 184.084L178.855 184.21L178.729 184.252L178.055 184.378L177.929 184.42C165.56 186.904 153.106 189.303 140.316 191.745C118.059 195.997 103.333 194.102 100.136 172.886C97.5272 155.669 96.1387 140.262 95.6759 126.202C96.4753 139.041 97.9479 152.891 100.22 167.877C103.88 192.166 121.256 194.944 146.753 190.061C159.459 187.62 172.123 185.304 184.745 182.947C197.283 180.253 209.863 177.517 222.527 174.823C247.897 169.476 262.875 160.215 256.901 136.389C253.24 121.614 249.285 108.27 245.078 96.1041Z" fill="white"/>
</g>
<defs>
<clipPath id="clip0">
<rect width="263" height="225" fill="white" transform="translate(30)"/>
</clipPath>
</defs>
</svg>
