<svg width="305" height="415" fill="none" xmlns="http://www.w3.org/2000/svg"><g clip-path="url(#clip0)"><path d="M457 184.174V0l-87.936 26.95s.397 2.302 1.116 6.358l-39.883 11.991s.279 1.325.805 3.713c-5.679 1.078-10.086 1.792-11.466 1.706-5.051-.316-22.094-2.21-56.186-20.823-7.923-4.324-17.204-.633-17.204-.633s-5.206-5.204-17.993 0c-12.781 5.205-109.843 45.428-115.05 45.906-5.206.472-19.41 7.098-22.727 20.35-3.312 13.253-34.086 90.384-35.036 97.01-.945 6.626-1.262 13.091 1.578 16.246 0 0 9.152 10.726 23.355 3.783 0 0 7.258 8.461 18.938 2.339 0 0-1.986 23.076 17.832 18.167 3.736-.923 6.785-2.838 15.782-6.465 0 0-1.417 13.724 9.625 12.936 11.047-.789 16.726-12.775 20.988-24.922 0 0 24.461-6.707 38.665-5.049 14.203 1.658 39.588 7.903 58.236 3.788 22.491-4.968 39.298-21.531 39.298-21.531s28.171-3.31 40.007-21.531c0 0 11.176-3.842 23.651-7.849 2.866 6.395 5.674 11.224 8.31 13.686l28.186-6.652c3.14 9.974 6.13 17.211 8.745 19.958L457 184.174zm-311.364-26.907c-3.79 3.788-5.679 15.855-5.679 15.855s-13.259 4.26-22.255 11.83c0 0 14.439-26.499 16.334-35.491 0 0 23.436-3.31 30.538-5.913 0-.005-15.148 9.932-18.938 13.719z" fill="#000"/><path d="M314.896 52.923s-55.155-14.196-68.65-23.66c0 0-5.206-5.205-17.993 0-12.781 5.204-109.843 45.427-115.05 45.905-5.206.472-19.41 7.098-22.727 20.35-3.312 13.253-34.086 90.384-35.036 97.01-.945 6.626-1.262 13.091 1.578 16.246 0 0 1.836 2.146 5.137 3.895-2.002-3.455-4.354-10.129-1.03-19.674 5.05-14.513 35.035-96.221 38.508-102.53 3.473-6.31 9.91-10.726 17.264-11.676 7.354-.944 87.367-29.182 96.203-32.97 8.835-3.787 18.701-9.464 27.462-8.042 4.997.81 48.772 16.407 74.334 15.146z" fill="url(#paint0_linear)"/><path d="M188.483 156.205c-10.65 2.248-23.673 11.004-23.673 11.004l-15.862 3.311-8.996 2.602s-13.259 4.26-22.255 11.83c-6.866 6.862-10.967 14.358-10.967 14.358-4.735 7.254-7.419 15.586-7.419 15.586s12.008-19.53 27.618-28.13c9.952-5.484 41.666-13.644 41.666-13.644 3.312-2.838 19.206-11.739 22.491-13.011 35.981-13.961 40.716-51.818 40.716-51.818-3.785 22.947-32.664 45.664-43.319 47.912z" fill="url(#paint1_linear)"/><path d="M173.098 139.283s-22.25 18.457-22.727 19.873c-.473 1.422-1.423 11.359-1.423 11.359l-8.997 2.602s1.895-12.067 5.68-15.855c3.784-3.788 18.938-13.724 18.938-13.724l8.529-4.255zM142.56 239.528c.274-.021.542-.053.805-.086-2.174-7.302 1.133-18.113 1.133-18.113-1.261.472-11.562 5.264-11.562 5.264s-1.423 13.724 9.624 12.935z" fill="url(#paint2_linear)"/><path d="M80.379 212.557s11.798-3.235 23.592-46.769c0 0 16.334-21.295 17.757-35.728 0 0 17.043-4.968 21.541-7.806l-18.938 11.004s-7.434 22.829-17.993 34.15c.005-.005-6.94 39.392-25.96 45.149z" fill="url(#paint3_linear)"/><path d="M116.644 233.17c-19.265 4.373-17.322-18.274-17.322-18.274s2.684-8.332 7.418-15.586c0 0-2.168-3.842-3.709-5.049h-2.603s-2.368-12.302-11.048-18.14l-2.05 13.252s-3.156-8.675-5.207-11.041c0 0-5.368 16.407-6.157 18.14-.789 1.733-12.308 4.415-13.731 5.365-1.422.944-5.207 6.943-5.207 6.943l-17.682 10.714s-8.207-2.366-10.258 2.366c-2.05 4.732 0 7.098 0 7.098s-2.84 4.416-1.895 5.994c.945 1.577 2.84 3.31 2.84 3.31s2.523 10.725 5.368 11.514c2.84.789 10.891-5.204 13.098-6.154 2.211-.944 8.046 0 8.046 0s-3.473 25.791-26.91 41.881l3.077 8.043s-8.76.236-11.128 9.228c0 0-3.076.472-5.443 2.838-2.367 2.367-4.97 8.757-4.734 12.067.236 3.31 5.915 21.767 32.669 28.865 15.346 4.073 31.81 2.441 36.453-1.658 5.368-4.732 5.679-12.78 5.443-13.96-.236-1.18-2.131-3.783-2.131-3.783s7.418-9.384.789-18.537l12.78-4.099 3.474-8.992 9.624-7.731c.017.016 7.897-27.498 6.136-54.614z" fill="url(#paint4_linear)"/><path d="M86.38 197.41h2.995c.472-3.627 0-21.295 0-21.295l-2.05 13.253-.945 8.042z" fill="url(#paint5_linear)"/><path d="M62.23 201.831c-1.423.944-5.207 6.943-5.207 6.943l-17.677 10.72s-8.207-2.367-10.258 2.366c-2.05 4.732 0 7.098 0 7.098s-2.84 4.416-1.895 5.993c.945 1.577 2.84 3.31 2.84 3.31s-1.422-3.943 0-5.676c1.423-1.738 2.84-3.788 2.84-3.788s-2.523-2.683-1.734-5.365c.789-2.683 8.68-1.578 8.68-1.578s22.904-8.123 24.327-9.7c1.422-1.578 2.899-6.862 2.899-6.862s10.73-4.099 12.308-5.205c1.578-1.105 3.232-20.822 2.76-21.767 0 0-5.369 16.407-6.158 18.14-.783 1.739-12.303 4.421-13.725 5.371z" fill="url(#paint6_linear)"/><path d="M56.55 243.633s-3.472 25.791-26.908 41.881l3.075 8.043 6.157 12.855c21.778-21.295 29.593-61.127 29.593-61.127-3.317 0-11.916-1.652-11.916-1.652z" fill="url(#paint7_linear)"/><path d="M30.038 298.68c.317-4.26 2.684-5.123 2.684-5.123s-8.76.236-11.127 9.228c1.497 6.782 3.865 7.887 3.865 7.887-.79-5.204 4.568-7.098 4.568-7.098 5.985 11.358 24.558 14.513 24.558 14.513-18.38-5.521-24.864-15.146-24.548-19.407z" fill="url(#paint8_linear)"/><path d="M21.595 302.785s-3.076.472-5.443 2.838c-2.368 2.366-4.97 8.757-4.735 12.067.08 1.1.768 3.884 2.63 7.366 2.11-4.093 5.422-8.546 5.422-8.546 15.31 14.985 29.985 14.985 29.985 14.985-21.305-6.154-29.196-17.507-30.457-21.928-1.267-4.416 2.598-6.782 2.598-6.782z" fill="url(#paint9_linear)"/></g><defs><linearGradient id="paint1_linear" x1="97.66" y1="206.679" x2="239.86" y2="116.891" gradientUnits="userSpaceOnUse"><stop/><stop offset=".344" stop-color="#1A5158"/><stop offset=".661" stop-color="#2F96A2"/><stop offset=".887" stop-color="#3DC1D0"/><stop offset="1" stop-color="#42D1E2"/></linearGradient><linearGradient id="paint5_linear" x1="89.575" y1="176.871" x2="87.698" y2="199.673" gradientUnits="userSpaceOnUse"><stop stop-color="#FFF0B5"/><stop offset=".277" stop-color="#9BE0CD"/><stop offset=".534" stop-color="#42D1E2"/><stop offset=".645" stop-color="#36BFD2"/><stop offset=".866" stop-color="#1692A9"/><stop offset="1" stop-color="#00738D"/></linearGradient><linearGradient id="paint2_linear" x1="134.042" y1="243.212" x2="163.727" y2="127.572" gradientUnits="userSpaceOnUse"><stop/><stop offset=".145" stop-color="#1A5158"/><stop offset=".28" stop-color="#2F96A2"/><stop offset=".376" stop-color="#3DC1D0"/><stop offset=".423" stop-color="#42D1E2"/><stop offset=".7" stop-color="#9BE0CD"/><stop offset="1" stop-color="#FFF0B5"/></linearGradient><linearGradient id="paint3_linear" x1="84.595" y1="210.686" x2="135.764" y2="120.307" gradientUnits="userSpaceOnUse"><stop/><stop offset=".145" stop-color="#1A5158"/><stop offset=".28" stop-color="#2F96A2"/><stop offset=".376" stop-color="#3DC1D0"/><stop offset=".423" stop-color="#42D1E2"/><stop offset=".7" stop-color="#9BE0CD"/><stop offset="1" stop-color="#FFF0B5"/></linearGradient><linearGradient id="paint4_linear" x1="17.42" y1="242.276" x2="115.65" y2="280.741" gradientUnits="userSpaceOnUse"><stop stop-color="#00738D"/><stop offset=".086" stop-color="#00738D"/><stop offset=".15" stop-color="#00677E"/><stop offset=".454" stop-color="#00303A"/><stop offset=".673" stop-color="#000D10"/><stop offset=".785"/><stop offset="1"/></linearGradient><linearGradient id="paint0_linear" x1="53.264" y1="191.169" x2="283.921" y2="5.485" gradientUnits="userSpaceOnUse"><stop stop-color="#FFF0B5"/><stop offset=".277" stop-color="#9BE0CD"/><stop offset=".534" stop-color="#42D1E2"/><stop offset=".586" stop-color="#3DC1D0"/><stop offset=".692" stop-color="#2F96A2"/><stop offset=".84" stop-color="#1A5158"/><stop offset="1"/></linearGradient><linearGradient id="paint6_linear" x1="23.482" y1="228.634" x2="82.513" y2="191.767" gradientUnits="userSpaceOnUse"><stop stop-color="#00738D"/><stop offset=".134" stop-color="#1692A9"/><stop offset=".355" stop-color="#36BFD2"/><stop offset=".466" stop-color="#42D1E2"/><stop offset=".723" stop-color="#9BE0CD"/><stop offset="1" stop-color="#FFF0B5"/></linearGradient><linearGradient id="paint7_linear" x1="67.061" y1="243.309" x2="28.213" y2="308.504" gradientUnits="userSpaceOnUse"><stop stop-color="#00738D"/><stop offset=".134" stop-color="#1692A9"/><stop offset=".355" stop-color="#36BFD2"/><stop offset=".466" stop-color="#42D1E2"/><stop offset=".723" stop-color="#9BE0CD"/><stop offset="1" stop-color="#FFF0B5"/></linearGradient><linearGradient id="paint8_linear" x1="22.02" y1="296.318" x2="53.946" y2="322.623" gradientUnits="userSpaceOnUse"><stop stop-color="#FFF0B5"/><stop offset=".277" stop-color="#9BE0CD"/><stop offset=".534" stop-color="#42D1E2"/><stop offset=".645" stop-color="#36BFD2"/><stop offset=".866" stop-color="#1692A9"/><stop offset="1" stop-color="#00738D"/></linearGradient><linearGradient id="paint9_linear" x1="9.877" y1="307.699" x2="49.585" y2="338.837" gradientUnits="userSpaceOnUse"><stop stop-color="#FFF0B5"/><stop offset=".277" stop-color="#9BE0CD"/><stop offset=".534" stop-color="#42D1E2"/><stop offset=".645" stop-color="#36BFD2"/><stop offset=".866" stop-color="#1692A9"/><stop offset="1" stop-color="#00738D"/></linearGradient><clipPath id="clip0"><path fill="#fff" d="M0 0h457v415H0z"/></clipPath></defs></svg>