<svg width="579" height="229" viewBox="0 0 579 229" fill="none" xmlns="http://www.w3.org/2000/svg">
<g clip-path="url(#clip0)">
<path d="M66.5031 53.0156H71.3051C87.9762 53.3775 104.376 60.0725 116.154 71.9244C111.805 76.3575 107.366 80.6097 103.107 85.0429C96.493 79.0717 88.5199 74.4576 79.8219 72.8291C66.9561 70.1149 53.0937 72.5577 42.3118 79.8859C30.5333 87.5761 22.5601 100.604 20.8386 114.537C18.936 128.289 22.8319 142.764 31.8017 153.44C40.4091 163.844 53.5467 170.358 67.1373 170.811C79.8219 171.535 93.0501 167.644 102.292 158.778C109.54 152.535 112.892 143.036 113.98 133.808C98.9393 133.808 83.8991 133.898 68.8588 133.808V115.17H132.191C135.453 135.165 130.741 157.692 115.52 171.987C105.372 182.12 91.3286 188.091 77.0132 189.267C63.1507 190.624 48.8353 188 36.5131 181.306C21.7447 173.434 9.96615 160.135 4.16749 144.483C-1.26875 130.098 -1.35935 113.813 3.71447 99.3375C8.33528 86.1285 17.2145 74.4576 28.6306 66.3151C39.5937 58.263 52.9125 53.8299 66.5031 53.0156Z" fill="white"/>
<path d="M429.825 57.7207H449.215V186.915C442.782 186.915 436.258 187.006 429.825 186.825C429.916 143.85 429.825 100.786 429.825 57.7207Z" fill="white"/>
<path d="M175.319 102.504C187.279 100.242 200.235 102.775 210.111 109.922C219.081 116.256 225.332 126.208 227.235 137.064C229.681 149.64 226.601 163.392 218.446 173.344C209.658 184.472 195.252 190.443 181.208 189.538C168.342 188.814 155.839 182.391 148.228 171.896C139.621 160.316 137.537 144.392 142.248 130.822C146.96 116.256 160.279 105.127 175.319 102.504ZM178.037 119.693C173.144 120.96 168.614 123.765 165.353 127.746C156.564 138.24 157.108 155.34 166.802 165.111C172.329 170.72 180.665 173.344 188.366 171.806C195.524 170.539 201.775 165.744 205.218 159.411C211.198 148.645 209.477 133.807 200.326 125.393C194.436 119.965 185.829 117.703 178.037 119.693Z" fill="white"/>
<path d="M271.359 102.505C285.04 99.8808 299.99 103.681 310.228 113.271C326.899 128.199 328.711 156.155 314.486 173.344C305.879 184.201 291.926 190.172 278.154 189.539C265.017 189.177 252.06 182.663 244.268 171.897C235.48 160.045 233.577 143.76 238.56 129.918C243.543 115.804 256.59 105.038 271.359 102.505ZM274.077 119.694C269.184 120.961 264.654 123.766 261.392 127.656C252.694 137.97 253.057 154.798 262.389 164.659C267.916 170.54 276.523 173.435 284.496 171.806C291.564 170.449 297.906 165.745 301.349 159.412C307.238 148.555 305.517 133.718 296.275 125.304C290.386 119.875 281.778 117.704 274.077 119.694Z" fill="white"/>
<path d="M352.812 107.751C363.231 101.237 377.094 99.4274 388.328 105.037C391.862 106.575 394.761 109.198 397.57 111.822C397.661 109.379 397.57 106.846 397.661 104.313C403.731 104.403 409.802 104.313 415.963 104.403V184.2C415.872 196.233 412.792 208.989 404.094 217.765C394.58 227.446 379.993 230.431 366.855 228.441C352.812 226.36 340.58 216.137 335.144 203.199C340.58 200.576 346.288 198.495 351.906 196.052C355.077 203.471 361.51 209.804 369.573 211.251C377.637 212.699 386.969 210.708 392.224 204.013C397.842 197.138 397.842 187.728 397.57 179.315C393.402 183.386 388.6 187.005 382.802 188.362C370.208 191.89 356.345 187.548 346.651 179.043C336.865 170.539 331.067 157.42 331.61 144.392C331.882 129.645 340.218 115.441 352.812 107.751ZM371.567 119.331C366.04 120.236 360.875 123.312 357.342 127.564C348.825 137.697 348.825 153.892 357.432 163.844C362.325 169.724 370.208 172.981 377.818 172.167C384.976 171.443 391.59 166.92 395.124 160.677C401.104 150.092 400.107 135.707 392.043 126.479C387.06 120.779 379.087 117.974 371.567 119.331Z" fill="white"/>
<path d="M472.5 112.365C483.373 102.232 500.134 98.7939 514.087 104.132C527.316 109.108 535.742 121.683 540 134.621C520.339 142.764 500.769 150.816 481.107 158.958C483.826 164.115 487.993 168.82 493.611 170.72C501.493 173.524 510.916 172.529 517.53 167.282C520.158 165.291 522.242 162.667 524.235 160.134C529.218 163.482 534.201 166.739 539.185 170.086C532.117 180.671 520.248 188.09 507.473 189.266C493.339 190.985 478.299 185.557 469.148 174.519C454.107 157.149 455.557 128.017 472.5 112.365ZM482.195 129.102C479.114 133.535 477.846 138.964 477.936 144.302C491.074 138.873 504.211 133.445 517.349 127.926C515.175 122.86 509.92 119.784 504.574 118.969C495.967 117.431 486.997 122.045 482.195 129.102Z" fill="white"/>
</g>
<g opacity="0.5">
<mask id="path-7-inside-1" fill="white">
<path d="M259.897 73.1331C248.716 73.1331 237.058 81.3152 237.058 81.3152V76.057C237.058 74.9041 236.599 74.4423 235.449 74.4423H221.177C220.026 74.4423 219.336 75.1345 219.336 76.057V188.197C219.336 189.355 219.797 190.047 220.948 190.047H235.448C236.367 190.047 237.057 189.355 237.057 188.197V92.2067C237.057 92.2067 243.787 87.9315 251.962 87.9315C259.745 87.9315 265.889 91.8042 265.889 99.7445V188.193C265.889 189.35 266.577 190.042 267.731 190.042H281.999C283.15 190.042 283.609 189.116 283.609 188.193V94.7178C283.608 80.6401 274.975 73.1331 259.897 73.1331ZM370.903 16.8828H356.632C355.479 16.8828 354.791 17.5739 354.791 18.4987V75.0706C349.312 72.9644 344.325 71.8514 340.293 71.8514C317.117 71.8514 301.206 94.0644 301.206 136.778C301.206 173.37 316.684 192.995 336.882 192.995C345.395 192.995 352.424 188.104 357.57 183.516L360.685 188.812C361.211 189.728 361.641 190.041 362.698 190.041L370.905 190.049C371.825 190.049 372.517 189.357 372.517 188.2V18.4987C372.515 17.3435 372.052 16.8828 370.903 16.8828ZM320.078 132.998C320.078 109.461 326.949 86.1571 340.979 86.1571C345.733 86.1571 350.296 87.7251 354.793 91.3058V174.223C351.278 176.141 346.855 177.907 342.077 177.907C326.819 177.907 320.078 159.766 320.078 132.998ZM425.566 72.0829C401.8 72.0829 390.071 103.251 390.071 137.169C390.071 172.673 406.801 192.571 428.309 192.571C437.764 192.571 447.176 188.84 453.348 185.402C454.293 184.874 454.464 184.132 454.237 183.214L452.432 175.714C452.207 174.796 451.746 174.34 450.606 174.34C450.104 174.34 442.306 176.626 434.72 176.626C417.117 176.626 409.046 160.938 409.046 140.104V135.041C409.046 135.041 417.794 136.253 423.05 136.253H456.259V126.631C456.26 91.1063 443.851 72.0829 425.566 72.0829ZM424.423 121.815C419.167 121.815 409.601 123.118 409.601 123.118C409.601 123.118 409.728 119.294 410.188 115.63C412.247 96.1489 416.881 86.294 424.88 86.294C431.836 86.294 436.603 96.3759 437.747 114.023C437.973 117.69 437.973 121.815 437.973 121.815H424.423ZM192.234 86.6498C186.957 76.2246 177.558 71.6689 166.791 71.6689C159.874 71.6689 149.08 74.3202 141.87 77.5703C140.459 78.2066 139.569 78.7654 139.569 79.8772C139.569 80.5386 139.897 81.2981 140.258 81.9538L145.116 92.3812C145.616 93.558 146.419 93.8283 147.083 93.8283C147.801 93.8283 148.386 93.4873 149.03 93.0734C156.063 88.569 161.213 86.091 165.291 86.091C170.685 86.091 174.349 89.6786 176.608 95.0747C178.714 100.103 179.527 107.05 179.527 115.077C179.527 116.099 179.532 117.435 179.532 117.435C175.101 114.655 167.423 113.123 163.59 113.123C142.972 113.123 131.854 132.763 131.854 153.767C131.854 176.397 144.85 192.994 160.466 192.994C169.162 192.994 177.036 187.877 182.309 181.424C182.309 181.424 185.117 188.135 185.484 188.94C185.853 189.742 186.242 190.04 187.299 190.04L195.644 190.048C196.563 190.048 197.254 189.356 197.254 188.198V123.147C197.25 107.16 196.445 94.9664 192.234 86.6498ZM179.53 171.874C175.441 175.834 170.546 177.907 166.139 177.907C161.734 177.907 158.33 175.867 155.599 172.086C152.275 167.49 150.725 160.41 150.725 152.565C150.725 140.158 155.294 127.427 164.977 127.427C169.77 127.427 175.035 128.991 179.529 132.575L179.53 171.874ZM531.623 74.4263H518.902C517.481 74.4263 516.756 75.1721 516.39 76.1403C513.584 83.5344 510.789 90.9326 508.004 98.335C506.432 102.536 502.199 114.565 502.199 114.565L501.706 114.561C501.688 114.518 498.591 105.81 496.912 101.449C495.555 97.9131 488.466 79.1998 487.571 76.894C487.091 75.6545 486.555 74.4263 484.736 74.4263H470.811C469.28 74.4263 468.414 76.1106 468.907 77.1552C469.405 78.2032 491.591 128.87 491.591 128.87C491.591 128.87 467.765 185.605 467.067 186.878C466.37 188.152 467.244 190.038 468.939 190.038H481.142C483.218 190.038 484.038 188.947 484.662 187.189C486.416 182.263 489.027 175.413 492.726 164.825C495.175 157.809 499.051 145.494 499.051 145.494H499.478C499.478 145.494 503.721 158.045 505.3 162.148C509.287 172.525 514.386 186.079 514.929 187.51C515.492 189.006 516.28 190.039 517.706 190.039H531.546C532.915 190.039 533.55 188.472 532.904 187.108C531.364 183.854 518.221 151.838 509.094 130.79C509.094 130.79 532.777 78.389 533.24 77.0924C533.711 75.7936 533.575 74.4263 531.623 74.4263Z"/>
</mask>
<path d="M259.897 73.1331C248.716 73.1331 237.058 81.3152 237.058 81.3152V76.057C237.058 74.9041 236.599 74.4423 235.449 74.4423H221.177C220.026 74.4423 219.336 75.1345 219.336 76.057V188.197C219.336 189.355 219.797 190.047 220.948 190.047H235.448C236.367 190.047 237.057 189.355 237.057 188.197V92.2067C237.057 92.2067 243.787 87.9315 251.962 87.9315C259.745 87.9315 265.889 91.8042 265.889 99.7445V188.193C265.889 189.35 266.577 190.042 267.731 190.042H281.999C283.15 190.042 283.609 189.116 283.609 188.193V94.7178C283.608 80.6401 274.975 73.1331 259.897 73.1331ZM370.903 16.8828H356.632C355.479 16.8828 354.791 17.5739 354.791 18.4987V75.0706C349.312 72.9644 344.325 71.8514 340.293 71.8514C317.117 71.8514 301.206 94.0644 301.206 136.778C301.206 173.37 316.684 192.995 336.882 192.995C345.395 192.995 352.424 188.104 357.57 183.516L360.685 188.812C361.211 189.728 361.641 190.041 362.698 190.041L370.905 190.049C371.825 190.049 372.517 189.357 372.517 188.2V18.4987C372.515 17.3435 372.052 16.8828 370.903 16.8828ZM320.078 132.998C320.078 109.461 326.949 86.1571 340.979 86.1571C345.733 86.1571 350.296 87.7251 354.793 91.3058V174.223C351.278 176.141 346.855 177.907 342.077 177.907C326.819 177.907 320.078 159.766 320.078 132.998ZM425.566 72.0829C401.8 72.0829 390.071 103.251 390.071 137.169C390.071 172.673 406.801 192.571 428.309 192.571C437.764 192.571 447.176 188.84 453.348 185.402C454.293 184.874 454.464 184.132 454.237 183.214L452.432 175.714C452.207 174.796 451.746 174.34 450.606 174.34C450.104 174.34 442.306 176.626 434.72 176.626C417.117 176.626 409.046 160.938 409.046 140.104V135.041C409.046 135.041 417.794 136.253 423.05 136.253H456.259V126.631C456.26 91.1063 443.851 72.0829 425.566 72.0829ZM424.423 121.815C419.167 121.815 409.601 123.118 409.601 123.118C409.601 123.118 409.728 119.294 410.188 115.63C412.247 96.1489 416.881 86.294 424.88 86.294C431.836 86.294 436.603 96.3759 437.747 114.023C437.973 117.69 437.973 121.815 437.973 121.815H424.423ZM192.234 86.6498C186.957 76.2246 177.558 71.6689 166.791 71.6689C159.874 71.6689 149.08 74.3202 141.87 77.5703C140.459 78.2066 139.569 78.7654 139.569 79.8772C139.569 80.5386 139.897 81.2981 140.258 81.9538L145.116 92.3812C145.616 93.558 146.419 93.8283 147.083 93.8283C147.801 93.8283 148.386 93.4873 149.03 93.0734C156.063 88.569 161.213 86.091 165.291 86.091C170.685 86.091 174.349 89.6786 176.608 95.0747C178.714 100.103 179.527 107.05 179.527 115.077C179.527 116.099 179.532 117.435 179.532 117.435C175.101 114.655 167.423 113.123 163.59 113.123C142.972 113.123 131.854 132.763 131.854 153.767C131.854 176.397 144.85 192.994 160.466 192.994C169.162 192.994 177.036 187.877 182.309 181.424C182.309 181.424 185.117 188.135 185.484 188.94C185.853 189.742 186.242 190.04 187.299 190.04L195.644 190.048C196.563 190.048 197.254 189.356 197.254 188.198V123.147C197.25 107.16 196.445 94.9664 192.234 86.6498ZM179.53 171.874C175.441 175.834 170.546 177.907 166.139 177.907C161.734 177.907 158.33 175.867 155.599 172.086C152.275 167.49 150.725 160.41 150.725 152.565C150.725 140.158 155.294 127.427 164.977 127.427C169.77 127.427 175.035 128.991 179.529 132.575L179.53 171.874ZM531.623 74.4263H518.902C517.481 74.4263 516.756 75.1721 516.39 76.1403C513.584 83.5344 510.789 90.9326 508.004 98.335C506.432 102.536 502.199 114.565 502.199 114.565L501.706 114.561C501.688 114.518 498.591 105.81 496.912 101.449C495.555 97.9131 488.466 79.1998 487.571 76.894C487.091 75.6545 486.555 74.4263 484.736 74.4263H470.811C469.28 74.4263 468.414 76.1106 468.907 77.1552C469.405 78.2032 491.591 128.87 491.591 128.87C491.591 128.87 467.765 185.605 467.067 186.878C466.37 188.152 467.244 190.038 468.939 190.038H481.142C483.218 190.038 484.038 188.947 484.662 187.189C486.416 182.263 489.027 175.413 492.726 164.825C495.175 157.809 499.051 145.494 499.051 145.494H499.478C499.478 145.494 503.721 158.045 505.3 162.148C509.287 172.525 514.386 186.079 514.929 187.51C515.492 189.006 516.28 190.039 517.706 190.039H531.546C532.915 190.039 533.55 188.472 532.904 187.108C531.364 183.854 518.221 151.838 509.094 130.79C509.094 130.79 532.777 78.389 533.24 77.0924C533.711 75.7936 533.575 74.4263 531.623 74.4263Z" stroke="white" stroke-width="2" mask="url(#path-7-inside-1)"/>
</g>
<path opacity="0.5" d="M95.2482 105.043L95.7948 106.539L96.2013 104.999L96.2075 104.975C97.1816 101.285 101.172 86.1646 102.398 81.8752L101.917 81.7379L102.398 81.8752C103.262 78.8492 109.654 59.1147 115.863 39.9889C116.824 37.0288 117.78 34.0837 118.711 31.2182C120.785 24.8309 122.731 18.8387 124.313 13.9549C125.459 10.4175 126.415 7.46115 127.09 5.35709C127.428 4.30518 127.695 3.46557 127.882 2.87266C127.975 2.57637 128.049 2.34054 128.101 2.17018C128.147 2.01712 128.187 1.88514 128.199 1.82198C128.278 1.43609 128.481 1.11943 128.799 0.893403C129.123 0.664192 129.592 0.509766 130.222 0.509766H146.267C147.123 0.509766 147.414 0.79613 147.528 1.05586C147.672 1.38369 147.641 1.89795 147.425 2.50807C147.36 2.68872 146.292 5.6061 144.517 10.4533C141.095 19.7971 135.047 36.3118 128.503 54.2181C118.565 81.4096 107.482 111.806 102.719 125.147L102.69 125.229V125.315V188.198C102.69 188.678 102.548 189.013 102.359 189.221C102.172 189.427 101.908 189.548 101.579 189.548H86.7446C86.2732 189.548 86.0329 189.411 85.8946 189.241C85.7398 189.051 85.6328 188.724 85.6328 188.198V124.817V124.722L85.5976 124.633C79.8843 110.223 69.9556 84.1551 61.4044 61.5818C57.612 51.5706 54.0909 42.2478 51.3292 34.9354C50.9775 34.0043 50.6381 33.1057 50.3121 32.2425C48.8689 28.4215 47.6865 25.2925 46.8526 23.0927C46.4357 21.9928 46.1057 21.1248 45.8737 20.5184C45.6494 19.9324 45.5052 19.5599 45.4688 19.4825C45.3126 19.1512 45.353 18.6505 45.6326 18.2045C45.9028 17.7734 46.3538 17.4657 46.9206 17.4657H62.582C63.4825 17.4657 63.9949 17.7767 64.3294 18.1748C64.6875 18.601 64.8801 19.1717 65.0341 19.7587C65.1827 20.3268 66.5082 24.1464 68.4236 29.6012C70.3464 35.0772 72.878 42.2406 75.4547 49.531L75.5351 49.7585C80.6658 64.2752 85.9463 79.2159 86.9455 82.3155L86.9484 82.3247L86.9517 82.3337L95.2482 105.043Z" stroke="white"/>
<defs>
<clipPath id="clip0">
<rect width="540" height="176" fill="white" transform="translate(0 53)"/>
</clipPath>
</defs>
</svg>
