<svg width="117" height="62" fill="none" xmlns="http://www.w3.org/2000/svg"><path fill-rule="evenodd" clip-rule="evenodd" d="M10.769 26.371V21.2c0-2.469-.702-2.995-2.017-2.995-1.387 0-2.07.544-2.07 2.995v5.99c0 3.484 10.75 13.103 10.75 18.022v8.585c0 6.352-4.574 8.185-8.716 8.185C4.592 62 0 60.166 0 53.814v-2.632l6.663-3.938v5.953c0 2.45.684 2.995 2.071 2.995 1.333 0 2.017-.545 2.017-2.995v-5.118C10.769 41.254 0 35.464 0 27.55V20.6c0-6.335 4.592-8.186 8.698-8.186 4.142 0 8.716 1.851 8.716 8.186v1.742l-6.645 4.03zM55.538 55.43h5.403l1.836 6.515H48.875v-49.53h6.663v43.014zm53.431-43.016v6.516h-6.357v43.015h-6.681V18.93h-5.835l-.702-6.516h19.575zm-26.419 0h-9.995L67.46 61.945h6.05l1.441-13.159h4.719l1.26 13.16h6.735L82.55 12.413zm-6.987 29.857l1.44-18.168h.81l1.225 18.168h-3.475zM31.352 12.414h-6.97v49.531h6.664V18.367c2.72 0 4.088.127 4.088 4.774v11.852c0 1.597-1.423 2.087-2.99 2.196l1.567 5.88c5.349-.562 8.086-3.067 8.086-10.091v-10.8c0-6.751-3.08-9.764-10.445-9.764zm79.453-5.917V1.941h2.035c.414 0 .738.037.954.11l.504.435c.126.218.198.435.198.69 0 .326-.108.599-.324.816-.198.218-.54.363-.972.418l.36.218c.18.163.324.363.504.617l.793 1.234h-.775l-.612-.944c-.162-.272-.324-.472-.432-.635l-.306-.29-.289-.128-.324-.018h-.702v2.033h-.612zm.63-2.56h1.297c.288 0 .504-.035.648-.09l.36-.272.126-.4-.252-.526c-.144-.145-.396-.2-.738-.2h-1.441v1.489z" fill="#fff"/><path fill-rule="evenodd" clip-rule="evenodd" d="M108.266 4.338c0 2.377 1.963 4.32 4.376 4.32 2.395 0 4.358-1.943 4.358-4.32C117 1.942 115.037 0 112.642 0c-2.413 0-4.376 1.96-4.376 4.338zm.54 0c0-2.106 1.729-3.812 3.836-3.812a3.815 3.815 0 013.817 3.812 3.826 3.826 0 01-3.817 3.811c-2.125 0-3.836-1.706-3.836-3.811z" fill="#fff"/></svg>