<svg width="81" height="51" fill="none" xmlns="http://www.w3.org/2000/svg"><g clip-path="url(#clip0)"><path fill-rule="evenodd" clip-rule="evenodd" d="M40.5 0C18.132 0 0 11.416 0 25.5c0 14.086 18.132 25.502 40.5 25.502S81 39.586 81 25.5 62.868 0 40.5 0zM10.491 15.408c1.114 4.607 9.222 8.431 20.194 9.888-.002.216-.004.433-.004.65 0 10.927 3.181 20.093 7.471 22.586C20.355 47.69 6.316 37.989 6.316 26.143c0-3.887 1.513-7.546 4.175-10.736zm24.22 10.304a77.763 77.763 0 0011.579 0c-.266 8.104-2.757 14.456-5.79 14.456s-5.524-6.354-5.79-14.456zm15.604-.416c11.221-1.488 19.445-5.455 20.258-10.201 2.829 3.262 4.443 7.033 4.443 11.05 0 11.925-14.229 21.678-32.196 22.403 4.303-2.468 7.499-11.651 7.499-22.601 0-.218 0-.435-.004-.651zM44.01 4.221c11.217.565 19.816 3.792 19.816 7.688 0 3.183-5.736 5.918-13.948 7.12-.893-6.809-3.075-12.276-5.868-14.808zm2.033 15.241c-1.777.145-3.632.22-5.542.22-1.91 0-3.765-.075-5.542-.22.745-6.426 2.945-11.081 5.542-11.081s4.797 4.655 5.542 11.081zm-14.919-.433c-8.212-1.202-13.948-3.939-13.948-7.12 0-1.315.98-2.553 2.708-3.64a41.067 41.067 0 016.578-2.57c3.022-.76 6.617-1.281 10.53-1.478-2.794 2.532-4.973 8-5.868 14.808z" fill="#fff"/></g><defs><clipPath id="clip0"><path fill="#fff" d="M0 0h81v51H0z"/></clipPath></defs></svg>