<svg width="200" height="200" fill="none" xmlns="http://www.w3.org/2000/svg"><path d="M99.923 199.897c55.186 0 99.923-44.748 99.923-99.948C199.846 44.748 155.109 0 99.923 0S0 44.748 0 99.948c0 55.201 44.737 99.949 99.923 99.949z" fill="#FF335A"/><mask id="a" maskUnits="userSpaceOnUse" x="0" y="0" width="200" height="200"><path d="M99.923 199.897c55.186 0 99.923-44.748 99.923-99.948C199.846 44.748 155.109 0 99.923 0S0 44.748 0 99.948c0 55.201 44.737 99.949 99.923 99.949z" fill="#FF335A"/></mask><g opacity=".2" mask="url(#a)"><path opacity=".01" d="M203.708 112.949c-7.392-1.87-14.733-.838-21.437 2.755-6.962 3.733-12.802 9.558-17.198 16.074a50.898 50.898 0 00-1.665 2.649c-7.125-12.159-20.296-23.691-35.031-22.361-13.565 1.226-25.36 11.058-28.235 24.521-3.33 15.597 6.391 29.863 15.915 41.231 8.563 10.223 18.139 19.607 27.873 28.705 5.933 5.544 11.932 11.063 18.155 16.284l.296.251c.325.274.683.379 1.025.362a1.45 1.45 0 001.027-.362c5.14-4.361 10.155-8.878 15.114-13.442 9.782-9.002 19.376-18.28 28.167-28.26 9.654-10.963 20.498-24.563 19.598-40.034-.784-13.456-10.572-25.077-23.604-28.373z" fill="#000"/><path opacity=".01" d="M203.073 112.369c-7.391-1.871-14.733-.839-21.436 2.755-6.963 3.733-12.803 9.558-17.199 16.073a50.244 50.244 0 00-1.664 2.65c-7.126-12.159-20.297-23.692-35.032-22.361-13.565 1.226-25.36 11.058-28.235 24.521-3.329 15.597 6.391 29.863 15.915 41.231 8.563 10.223 18.139 19.607 27.874 28.705 5.932 5.544 11.931 11.062 18.154 16.284l.296.251c.325.274.683.379 1.025.362.343.017.702-.086 1.027-.362 5.141-4.361 10.155-8.878 15.114-13.442 9.782-9.002 19.377-18.28 28.167-28.26 9.655-10.963 20.498-24.564 19.598-40.034-.785-13.456-10.572-25.077-23.604-28.373z" fill="#010000"/><path opacity=".01" d="M202.438 111.788c-7.392-1.87-14.734-.838-21.437 2.756-6.963 3.733-12.803 9.558-17.199 16.073a49.837 49.837 0 00-1.664 2.65c-7.126-12.159-20.297-23.692-35.032-22.361-13.565 1.226-25.359 11.058-28.234 24.521-3.33 15.596 6.391 29.862 15.914 41.231 8.563 10.223 18.14 19.607 27.874 28.705 5.932 5.544 11.931 11.062 18.155 16.283l.295.251c.325.275.683.38 1.025.363.343.017.703-.086 1.028-.363 5.14-4.36 10.155-8.877 15.114-13.441 9.781-9.002 19.376-18.28 28.166-28.26 9.655-10.963 20.499-24.564 19.598-40.034-.783-13.456-10.572-25.077-23.603-28.374z" fill="#010000"/><path opacity=".01" d="M201.804 111.208c-7.392-1.87-14.734-.838-21.437 2.756-6.962 3.733-12.802 9.558-17.198 16.073a49.854 49.854 0 00-1.665 2.65c-7.126-12.159-20.296-23.692-35.031-22.361-13.566 1.225-25.36 11.058-28.235 24.521-3.33 15.596 6.391 29.862 15.914 41.231 8.563 10.223 18.14 19.607 27.874 28.705 5.932 5.544 11.931 11.062 18.155 16.283l.296.251c.324.275.683.38 1.024.363.343.017.703-.086 1.028-.363 5.14-4.36 10.155-8.877 15.114-13.441 9.782-9.002 19.376-18.28 28.166-28.261 9.655-10.962 20.499-24.563 19.598-40.034-.783-13.455-10.572-25.076-23.603-28.373z" fill="#010100"/><path opacity=".01" d="M201.168 110.626c-7.392-1.87-14.733-.838-21.437 2.756-6.962 3.733-12.802 9.558-17.198 16.073a50.506 50.506 0 00-1.665 2.65c-7.125-12.159-20.296-23.692-35.031-22.361-13.565 1.225-25.36 11.058-28.235 24.521-3.33 15.596 6.391 29.862 15.915 41.231 8.563 10.223 18.139 19.607 27.873 28.704 5.933 5.545 11.932 11.063 18.155 16.284l.296.251c.325.275.683.38 1.024.363.343.017.703-.087 1.028-.363 5.14-4.36 10.155-8.877 15.114-13.441 9.782-9.002 19.376-18.28 28.167-28.261 9.654-10.962 20.498-24.563 19.597-40.034-.783-13.454-10.572-25.075-23.603-28.373z" fill="#010100"/><path opacity=".012" d="M200.533 110.046c-7.391-1.87-14.733-.838-21.436 2.756-6.963 3.733-12.803 9.558-17.199 16.073a49.837 49.837 0 00-1.664 2.65c-7.126-12.159-20.297-23.692-35.032-22.361-13.565 1.225-25.36 11.058-28.235 24.521-3.329 15.596 6.391 29.862 15.915 41.23 8.563 10.224 18.139 19.608 27.874 28.705 5.932 5.545 11.931 11.063 18.154 16.284l.296.251c.325.275.683.38 1.025.363a1.45 1.45 0 001.027-.363c5.141-4.36 10.155-8.877 15.114-13.442 9.782-9.001 19.377-18.279 28.167-28.26 9.654-10.962 20.498-24.563 19.598-40.034-.784-13.454-10.572-25.075-23.604-28.373z" fill="#020100"/><path opacity=".014" d="M199.898 109.468c-7.392-1.87-14.734-.838-21.437 2.756-6.963 3.733-12.803 9.558-17.199 16.073a49.837 49.837 0 00-1.664 2.65c-7.126-12.159-20.297-23.692-35.032-22.362-13.565 1.226-25.36 11.059-28.234 24.522-3.33 15.596 6.391 29.862 15.914 41.23 8.563 10.224 18.14 19.607 27.874 28.705 5.932 5.545 11.931 11.063 18.155 16.284l.295.251c.325.275.683.38 1.025.363.343.017.703-.087 1.028-.363 5.14-4.36 10.155-8.877 15.114-13.442 9.781-9.001 19.376-18.279 28.166-28.26 9.655-10.962 20.499-24.563 19.598-40.034-.783-13.456-10.572-25.076-23.603-28.373z" fill="#020100"/><path opacity=".016" d="M199.264 108.888c-7.392-1.87-14.734-.838-21.437 2.756-6.962 3.733-12.803 9.558-17.198 16.073a49.218 49.218 0 00-1.665 2.65c-7.126-12.159-20.296-23.692-35.031-22.362-13.566 1.226-25.36 11.059-28.235 24.522-3.33 15.596 6.391 29.862 15.914 41.23 8.563 10.224 18.14 19.607 27.874 28.705 5.932 5.545 11.931 11.063 18.155 16.284l.295.251c.325.275.684.379 1.025.363.343.016.703-.087 1.028-.363 5.14-4.361 10.155-8.877 15.114-13.442 9.781-9.001 19.376-18.279 28.166-28.26 9.655-10.962 20.499-24.563 19.598-40.034-.783-13.456-10.572-25.076-23.603-28.373z" fill="#020100"/><path opacity=".018" d="M198.629 108.308c-7.392-1.87-14.733-.838-21.437 2.756-6.962 3.733-12.802 9.558-17.198 16.073a50.898 50.898 0 00-1.665 2.649c-7.125-12.158-20.296-23.691-35.031-22.361-13.565 1.226-25.36 11.059-28.235 24.522-3.33 15.596 6.391 29.862 15.915 41.23 8.563 10.223 18.139 19.607 27.873 28.705 5.932 5.545 11.932 11.063 18.155 16.284l.296.251c.325.275.683.379 1.024.363.343.016.703-.087 1.028-.363 5.14-4.361 10.155-8.878 15.114-13.442 9.782-9.001 19.376-18.279 28.167-28.26 9.654-10.962 20.498-24.563 19.598-40.034-.785-13.456-10.572-25.076-23.604-28.373z" fill="#030100"/><path opacity=".02" d="M197.993 107.728c-7.391-1.87-14.733-.838-21.436 2.756-6.963 3.733-12.803 9.558-17.199 16.073a50.217 50.217 0 00-1.664 2.649c-7.126-12.158-20.297-23.691-35.032-22.361-13.565 1.226-25.36 11.059-28.235 24.522-3.329 15.596 6.391 29.862 15.915 41.23 8.563 10.223 18.139 19.607 27.874 28.705 5.932 5.545 11.931 11.063 18.154 16.284l.296.251c.325.275.683.379 1.025.363.343.016.702-.087 1.027-.363 5.141-4.361 10.155-8.878 15.114-13.442 9.782-9.002 19.377-18.279 28.167-28.26 9.655-10.962 20.498-24.563 19.598-40.034-.784-13.456-10.572-25.076-23.604-28.373z" fill="#030100"/><path opacity=".022" d="M197.36 107.148c-7.392-1.87-14.734-.838-21.437 2.755-6.963 3.734-12.803 9.559-17.199 16.074a50.217 50.217 0 00-1.664 2.649c-7.126-12.159-20.297-23.691-35.032-22.361-13.565 1.226-25.36 11.059-28.234 24.521-3.33 15.597 6.39 29.863 15.914 41.231 8.563 10.223 18.14 19.607 27.874 28.705 5.932 5.545 11.931 11.063 18.155 16.284l.295.251a1.45 1.45 0 001.025.362c.343.017.703-.086 1.027-.362 5.141-4.361 10.156-8.878 15.115-13.442 9.781-9.002 19.376-18.279 28.166-28.26 9.655-10.962 20.499-24.563 19.598-40.034-.785-13.456-10.572-25.076-23.603-28.373z" fill="#030200"/><path opacity=".024" d="M196.724 106.568c-7.392-1.87-14.734-.838-21.437 2.755-6.962 3.734-12.803 9.558-17.198 16.074a49.59 49.59 0 00-1.665 2.649c-7.126-12.159-20.296-23.691-35.031-22.361-13.566 1.226-25.36 11.059-28.235 24.521-3.33 15.597 6.39 29.863 15.914 41.231 8.563 10.223 18.14 19.607 27.874 28.705 5.932 5.545 11.931 11.063 18.155 16.284l.295.251c.325.275.684.379 1.025.362.343.017.703-.086 1.028-.362 5.14-4.361 10.155-8.878 15.114-13.442 9.781-9.002 19.376-18.28 28.166-28.26 9.655-10.963 20.499-24.563 19.598-40.034-.783-13.455-10.572-25.075-23.603-28.373z" fill="#040200"/><path opacity=".026" d="M196.089 105.99c-7.392-1.87-14.733-.838-21.437 2.755-6.962 3.733-12.802 9.558-17.198 16.074a50.898 50.898 0 00-1.665 2.649c-7.125-12.159-20.296-23.691-35.031-22.361-13.565 1.226-25.36 11.058-28.235 24.521-3.33 15.597 6.391 29.863 15.915 41.231 8.563 10.223 18.139 19.607 27.873 28.705 5.932 5.544 11.932 11.063 18.155 16.284l.296.251c.325.274.683.379 1.024.362.343.017.703-.086 1.028-.362 5.14-4.361 10.155-8.878 15.114-13.442 9.782-9.002 19.376-18.28 28.167-28.26 9.654-10.963 20.498-24.563 19.597-40.034-.783-13.456-10.572-25.077-23.603-28.373z" fill="#040200"/><path opacity=".028" d="M195.453 105.41c-7.391-1.87-14.733-.839-21.436 2.755-6.963 3.733-12.803 9.558-17.199 16.073a50.925 50.925 0 00-1.665 2.65c-7.125-12.159-20.296-23.692-35.031-22.361-13.565 1.226-25.36 11.058-28.235 24.521-3.329 15.597 6.391 29.863 15.915 41.231 8.563 10.223 18.139 19.607 27.873 28.705 5.933 5.544 11.932 11.062 18.155 16.284l.296.251c.325.274.683.379 1.025.362.343.017.702-.086 1.027-.362 5.141-4.361 10.155-8.878 15.114-13.442 9.782-9.002 19.377-18.28 28.167-28.26 9.655-10.963 20.498-24.564 19.598-40.034-.784-13.456-10.572-25.077-23.604-28.373z" fill="#040200"/><path opacity=".03" d="M194.819 104.829c-7.392-1.87-14.734-.838-21.437 2.756-6.963 3.733-12.803 9.558-17.199 16.073a50.244 50.244 0 00-1.664 2.65c-7.126-12.159-20.297-23.692-35.032-22.361-13.565 1.226-25.36 11.058-28.234 24.521-3.33 15.596 6.39 29.862 15.914 41.231 8.563 10.223 18.14 19.607 27.874 28.705 5.932 5.544 11.931 11.062 18.155 16.283l.295.252c.325.274.683.379 1.025.362.343.017.703-.086 1.027-.362 5.141-4.361 10.155-8.878 15.115-13.442 9.781-9.002 19.376-18.28 28.166-28.26 9.655-10.963 20.498-24.564 19.598-40.034-.784-13.456-10.572-25.077-23.603-28.374z" fill="#040200"/><path opacity=".032" d="M194.183 104.249c-7.392-1.87-14.734-.838-21.437 2.756-6.962 3.733-12.803 9.558-17.198 16.073a49.218 49.218 0 00-1.665 2.65c-7.126-12.159-20.296-23.692-35.031-22.361-13.566 1.225-25.36 11.058-28.235 24.521-3.33 15.596 6.39 29.862 15.914 41.231 8.563 10.223 18.14 19.607 27.874 28.705 5.932 5.544 11.931 11.062 18.155 16.283l.295.251c.325.275.684.38 1.025.363.343.017.703-.086 1.028-.363 5.14-4.36 10.155-8.877 15.114-13.441 9.781-9.002 19.376-18.28 28.166-28.26 9.655-10.963 20.499-24.564 19.598-40.035-.783-13.455-10.572-25.076-23.603-28.373z" fill="#050200"/><path opacity=".034" d="M193.549 103.669c-7.392-1.87-14.733-.838-21.437 2.756-6.962 3.733-12.802 9.558-17.198 16.073a50.506 50.506 0 00-1.665 2.65c-7.125-12.159-20.296-23.692-35.031-22.361-13.565 1.225-25.36 11.058-28.235 24.521-3.33 15.596 6.39 29.862 15.915 41.231 8.563 10.223 18.139 19.607 27.873 28.704 5.932 5.545 11.932 11.063 18.155 16.284l.296.251c.325.275.683.38 1.024.363.343.017.703-.087 1.028-.363 5.14-4.36 10.155-8.877 15.114-13.441 9.782-9.002 19.376-18.28 28.167-28.261 9.654-10.962 20.498-24.563 19.597-40.034-.783-13.455-10.572-25.076-23.603-28.373z" fill="#050200"/><path opacity=".036" d="M192.914 103.089c-7.392-1.87-14.733-.838-21.437 2.756-6.962 3.733-12.802 9.558-17.198 16.073a50.506 50.506 0 00-1.665 2.65c-7.125-12.159-20.296-23.692-35.031-22.361-13.565 1.225-25.36 11.058-28.235 24.521-3.329 15.596 6.391 29.862 15.915 41.23 8.563 10.224 18.139 19.607 27.873 28.705 5.933 5.545 11.932 11.063 18.155 16.284l.296.251c.325.275.683.38 1.025.363a1.45 1.45 0 001.027-.363c5.14-4.36 10.155-8.877 15.114-13.442 9.782-9.001 19.376-18.279 28.167-28.26 9.654-10.962 20.498-24.563 19.598-40.034-.785-13.454-10.572-25.075-23.604-28.373z" fill="#050300"/><path opacity=".038" d="M192.279 102.509c-7.392-1.87-14.734-.838-21.437 2.756-6.963 3.733-12.803 9.558-17.199 16.073a49.837 49.837 0 00-1.664 2.65c-7.126-12.159-20.297-23.692-35.032-22.362-13.565 1.226-25.36 11.059-28.234 24.522-3.33 15.596 6.39 29.862 15.914 41.23 8.563 10.224 18.14 19.607 27.874 28.705 5.932 5.545 11.931 11.063 18.155 16.284l.295.251c.325.275.683.38 1.025.363a1.45 1.45 0 001.027-.363c5.141-4.36 10.155-8.877 15.115-13.442 9.781-9.001 19.376-18.279 28.166-28.26 9.655-10.962 20.498-24.563 19.598-40.034-.784-13.456-10.572-25.076-23.603-28.373z" fill="#060300"/><path opacity=".04" d="M191.645 101.929c-7.392-1.87-14.734-.838-21.437 2.756-6.962 3.733-12.803 9.558-17.198 16.073a49.218 49.218 0 00-1.665 2.65c-7.126-12.159-20.296-23.692-35.031-22.362-13.566 1.226-25.36 11.059-28.235 24.522-3.33 15.596 6.39 29.862 15.914 41.23 8.563 10.224 18.14 19.607 27.874 28.705 5.932 5.545 11.931 11.063 18.155 16.284l.295.251c.325.275.684.379 1.025.363.343.016.703-.087 1.028-.363 5.14-4.361 10.155-8.877 15.114-13.442 9.781-9.001 19.376-18.279 28.166-28.26 9.655-10.962 20.499-24.563 19.598-40.034-.785-13.456-10.572-25.076-23.603-28.373z" fill="#060300"/><path opacity=".042" d="M191.009 101.349c-7.392-1.87-14.734-.838-21.437 2.756-6.962 3.733-12.802 9.558-17.198 16.073a50.506 50.506 0 00-1.665 2.65c-7.125-12.159-20.296-23.692-35.031-22.362-13.566 1.226-25.36 11.059-28.235 24.522-3.33 15.596 6.39 29.862 15.914 41.23 8.563 10.223 18.14 19.607 27.874 28.705 5.932 5.545 11.931 11.063 18.155 16.284l.296.251c.324.275.683.379 1.024.363.343.016.703-.087 1.028-.363 5.14-4.361 10.155-8.878 15.114-13.442 9.782-9.001 19.376-18.279 28.167-28.26 9.654-10.962 20.498-24.563 19.597-40.034-.783-13.456-10.572-25.076-23.603-28.373z" fill="#060300"/><path opacity=".044" d="M190.374 100.769c-7.392-1.87-14.733-.838-21.437 2.756-6.962 3.733-12.802 9.558-17.198 16.073a50.898 50.898 0 00-1.665 2.649c-7.125-12.158-20.296-23.691-35.031-22.36-13.565 1.225-25.36 11.058-28.235 24.521-3.329 15.596 6.391 29.862 15.915 41.23 8.563 10.223 18.139 19.607 27.873 28.705 5.933 5.545 11.932 11.063 18.155 16.284l.296.251c.325.275.683.379 1.025.363.343.016.702-.087 1.027-.363 5.14-4.361 10.155-8.878 15.114-13.442 9.782-9.002 19.376-18.279 28.167-28.26 9.654-10.962 20.498-24.563 19.598-40.034-.784-13.456-10.572-25.076-23.604-28.373z" fill="#070300"/><path opacity=".045" d="M189.738 100.189c-7.391-1.87-14.733-.838-21.436 2.755-6.963 3.734-12.803 9.559-17.199 16.074a50.217 50.217 0 00-1.664 2.649c-7.126-12.159-20.297-23.691-35.032-22.36-13.565 1.225-25.36 11.058-28.234 24.52-3.33 15.597 6.39 29.863 15.914 41.231 8.563 10.223 18.14 19.607 27.874 28.705 5.932 5.545 11.931 11.063 18.155 16.284l.295.251a1.45 1.45 0 001.025.362c.343.017.702-.086 1.027-.362 5.141-4.361 10.155-8.878 15.114-13.442 9.782-9.002 19.377-18.279 28.167-28.26 9.655-10.962 20.498-24.563 19.598-40.034-.784-13.456-10.572-25.076-23.604-28.373z" fill="#070300"/><path opacity=".048" d="M189.105 99.609c-7.392-1.87-14.734-.838-21.437 2.755-6.963 3.734-12.803 9.558-17.199 16.074a50.217 50.217 0 00-1.664 2.649c-7.126-12.159-20.297-23.691-35.032-22.361-13.565 1.226-25.36 11.059-28.234 24.521-3.33 15.597 6.39 29.863 15.914 41.231 8.563 10.223 18.14 19.607 27.874 28.705 5.932 5.545 11.931 11.063 18.155 16.284l.295.251a1.45 1.45 0 001.025.362c.343.017.703-.086 1.028-.362 5.14-4.361 10.155-8.878 15.114-13.442 9.781-9.002 19.376-18.28 28.166-28.26 9.655-10.962 20.499-24.563 19.598-40.034-.783-13.455-10.572-25.075-23.603-28.373z" fill="#070300"/><path opacity=".05" d="M188.469 99.029c-7.392-1.87-14.734-.838-21.437 2.755-6.962 3.733-12.802 9.558-17.198 16.074a50.235 50.235 0 00-1.665 2.649c-7.126-12.159-20.296-23.691-35.031-22.361-13.566 1.226-25.36 11.059-28.235 24.521-3.33 15.597 6.39 29.863 15.914 41.231 8.563 10.223 18.14 19.607 27.874 28.705 5.932 5.544 11.931 11.063 18.155 16.284l.296.251c.324.274.683.379 1.024.362.343.017.703-.086 1.028-.362 5.14-4.361 10.155-8.878 15.114-13.442 9.782-9.002 19.376-18.28 28.167-28.26 9.654-10.963 20.498-24.563 19.597-40.034-.783-13.455-10.572-25.075-23.603-28.373z" fill="#070400"/><path opacity=".051" d="M187.834 98.45c-7.392-1.87-14.733-.838-21.437 2.756-6.962 3.733-12.802 9.558-17.198 16.073a50.925 50.925 0 00-1.665 2.65c-7.125-12.159-20.296-23.692-35.031-22.361-13.565 1.226-25.36 11.058-28.235 24.521-3.33 15.597 6.391 29.863 15.915 41.231 8.563 10.223 18.139 19.607 27.873 28.705 5.933 5.544 11.932 11.062 18.155 16.284l.296.251c.325.274.683.379 1.024.362.343.017.703-.086 1.028-.362 5.14-4.361 10.155-8.878 15.114-13.442 9.782-9.002 19.376-18.28 28.167-28.26 9.654-10.963 20.498-24.564 19.597-40.034-.783-13.456-10.571-25.077-23.603-28.373z" fill="#080400"/><path opacity=".053" d="M187.2 97.87c-7.392-1.87-14.734-.838-21.437 2.756-6.963 3.733-12.803 9.558-17.199 16.073a50.244 50.244 0 00-1.664 2.65c-7.126-12.159-20.297-23.692-35.032-22.361-13.565 1.226-25.36 11.058-28.235 24.521-3.329 15.597 6.391 29.863 15.915 41.231 8.563 10.223 18.139 19.607 27.874 28.705 5.932 5.544 11.931 11.062 18.155 16.284l.295.251c.325.274.683.379 1.025.362.343.017.702-.086 1.027-.362 5.141-4.361 10.155-8.878 15.115-13.442 9.781-9.002 19.376-18.28 28.166-28.26 9.655-10.963 20.498-24.564 19.598-40.034-.785-13.456-10.572-25.077-23.603-28.373z" fill="#080400"/><path opacity=".055" d="M186.564 97.29c-7.392-1.87-14.733-.838-21.437 2.756-6.962 3.733-12.802 9.558-17.198 16.074a50.898 50.898 0 00-1.665 2.649c-7.125-12.159-20.296-23.693-35.031-22.361-13.565 1.226-25.36 11.058-28.235 24.521-3.328 15.597 6.392 29.863 15.915 41.231 8.563 10.223 18.139 19.607 27.873 28.705 5.932 5.544 11.932 11.063 18.155 16.284l.296.251c.325.274.683.379 1.024.362.343.017.703-.086 1.028-.362 5.14-4.361 10.155-8.878 15.114-13.442 9.782-9.002 19.376-18.28 28.167-28.26 9.654-10.963 20.498-24.563 19.597-40.034-.783-13.456-10.572-25.077-23.603-28.373z" fill="#080400"/><path opacity=".057" d="M185.93 96.71c-7.392-1.87-14.734-.838-21.437 2.756-6.962 3.733-12.803 9.558-17.198 16.073a49.218 49.218 0 00-1.665 2.65c-7.126-12.159-20.296-23.692-35.031-22.361-13.566 1.225-25.36 11.058-28.235 24.521-3.33 15.596 6.39 29.862 15.914 41.231 8.563 10.223 18.14 19.607 27.874 28.704 5.932 5.545 11.931 11.063 18.155 16.284l.295.251c.325.275.684.38 1.025.363.343.017.703-.087 1.028-.363 5.14-4.36 10.155-8.877 15.114-13.441 9.781-9.002 19.376-18.28 28.166-28.261 9.655-10.962 20.499-24.563 19.598-40.034-.785-13.455-10.572-25.076-23.603-28.373z" fill="#090400"/><path opacity=".059" d="M185.294 96.13c-7.392-1.87-14.733-.838-21.437 2.756-6.962 3.733-12.802 9.558-17.198 16.073a50.506 50.506 0 00-1.665 2.65c-7.125-12.159-20.296-23.692-35.031-22.361-13.565 1.225-25.36 11.058-28.235 24.521-3.33 15.596 6.391 29.862 15.915 41.23 8.563 10.224 18.139 19.607 27.873 28.705 5.933 5.545 11.932 11.063 18.155 16.284l.296.251c.325.275.683.38 1.025.363.342.017.702-.087 1.027-.363 5.14-4.36 10.155-8.877 15.114-13.442 9.782-9.001 19.376-18.279 28.167-28.26 9.654-10.962 20.498-24.563 19.598-40.034-.784-13.455-10.572-25.076-23.604-28.373z" fill="#090400"/><path opacity=".061" d="M184.659 95.55c-7.391-1.87-14.733-.838-21.436 2.756-6.963 3.733-12.803 9.558-17.199 16.073a49.837 49.837 0 00-1.664 2.65c-7.127-12.159-20.297-23.692-35.032-22.361-13.565 1.225-25.36 11.058-28.235 24.521-3.329 15.596 6.391 29.862 15.915 41.23 8.563 10.224 18.139 19.607 27.874 28.705 5.932 5.545 11.931 11.063 18.154 16.284l.296.251c.325.275.683.38 1.025.363a1.45 1.45 0 001.027-.363c5.141-4.36 10.155-8.877 15.114-13.442 9.782-9.001 19.377-18.279 28.167-28.26 9.655-10.962 20.498-24.563 19.598-40.034-.784-13.454-10.572-25.075-23.604-28.373z" fill="#090400"/><path opacity=".063" d="M184.024 94.97c-7.392-1.87-14.734-.838-21.437 2.756-6.963 3.733-12.803 9.558-17.199 16.073a49.837 49.837 0 00-1.664 2.65c-7.126-12.159-20.297-23.692-35.032-22.362-13.565 1.226-25.36 11.059-28.234 24.522-3.33 15.596 6.39 29.862 15.914 41.23 8.563 10.224 18.14 19.607 27.874 28.705 5.932 5.545 11.931 11.063 18.155 16.284l.295.251c.325.275.683.379 1.025.363.343.016.703-.087 1.027-.363 5.141-4.361 10.156-8.877 15.115-13.442 9.781-9.001 19.376-18.279 28.166-28.26 9.655-10.962 20.499-24.563 19.598-40.034-.784-13.456-10.572-25.076-23.603-28.373z" fill="#0A0500"/><path opacity=".065" d="M183.39 94.39c-7.392-1.87-14.734-.838-21.437 2.756-6.962 3.733-12.803 9.558-17.198 16.073a49.218 49.218 0 00-1.665 2.65c-7.126-12.159-20.296-23.692-35.031-22.362-13.566 1.226-25.36 11.059-28.235 24.522-3.33 15.596 6.39 29.862 15.914 41.23 8.563 10.224 18.14 19.607 27.874 28.705 5.932 5.545 11.931 11.063 18.155 16.284l.295.251c.325.275.684.379 1.025.363.343.016.703-.087 1.028-.363 5.14-4.361 10.155-8.877 15.114-13.442 9.781-9.001 19.376-18.279 28.166-28.26 9.655-10.962 20.499-24.563 19.598-40.034-.783-13.456-10.572-25.076-23.603-28.373z" fill="#0A0500"/><path opacity=".067" d="M182.754 93.81c-7.392-1.87-14.733-.838-21.437 2.755-6.962 3.734-12.802 9.559-17.198 16.074a50.898 50.898 0 00-1.665 2.649c-7.125-12.158-20.296-23.691-35.031-22.36-13.565 1.225-25.36 11.058-28.235 24.521-3.33 15.596 6.391 29.862 15.915 41.23 8.563 10.223 18.139 19.607 27.873 28.705 5.932 5.545 11.932 11.063 18.155 16.284l.296.251c.325.275.683.379 1.024.363.343.016.703-.087 1.028-.363 5.14-4.361 10.155-8.878 15.114-13.442 9.782-9.002 19.376-18.279 28.167-28.26 9.654-10.962 20.498-24.563 19.598-40.034-.784-13.456-10.572-25.076-23.604-28.373z" fill="#0A0500"/><path opacity=".069" d="M182.119 93.23c-7.392-1.87-14.733-.838-21.436 2.755-6.963 3.734-12.803 9.559-17.199 16.074a50.898 50.898 0 00-1.665 2.649c-7.125-12.159-20.296-23.691-35.031-22.36-13.565 1.225-25.36 11.058-28.235 24.52-3.329 15.597 6.391 29.863 15.915 41.231 8.563 10.223 18.139 19.607 27.873 28.705 5.933 5.545 11.932 11.063 18.155 16.284l.296.251a1.45 1.45 0 001.025.362c.343.017.702-.086 1.027-.362 5.14-4.361 10.155-8.878 15.114-13.442 9.782-9.002 19.377-18.279 28.167-28.26 9.654-10.962 20.498-24.563 19.598-40.034-.784-13.456-10.572-25.076-23.604-28.373z" fill="#0A0500"/><path opacity=".071" d="M181.484 92.65c-7.392-1.87-14.734-.838-21.437 2.755-6.963 3.733-12.803 9.558-17.199 16.074a50.217 50.217 0 00-1.664 2.649c-7.126-12.159-20.295-23.691-35.032-22.36-13.565 1.225-25.36 11.058-28.234 24.52-3.33 15.597 6.39 29.863 15.914 41.231 8.563 10.223 18.14 19.607 27.874 28.705 5.932 5.545 11.931 11.063 18.155 16.284l.295.251a1.45 1.45 0 001.025.362c.343.017.703-.086 1.027-.362 5.141-4.361 10.156-8.878 15.115-13.442 9.781-9.002 19.376-18.279 28.166-28.26 9.655-10.962 20.499-24.563 19.598-40.034-.784-13.456-10.571-25.076-23.603-28.373z" fill="#0B0500"/><path opacity=".073" d="M180.85 92.07c-7.392-1.87-14.734-.838-21.437 2.755-6.962 3.733-12.803 9.558-17.198 16.074a49.59 49.59 0 00-1.665 2.649c-7.126-12.159-20.296-23.691-35.031-22.361-13.566 1.226-25.36 11.059-28.235 24.521-3.33 15.597 6.39 29.863 15.914 41.231 8.563 10.223 18.14 19.607 27.874 28.705 5.932 5.544 11.931 11.063 18.155 16.284l.295.251c.325.274.684.379 1.025.362.343.017.703-.086 1.028-.362 5.14-4.361 10.155-8.878 15.114-13.442 9.781-9.002 19.376-18.28 28.166-28.26 9.655-10.963 20.499-24.563 19.598-40.034-.783-13.455-10.572-25.075-23.603-28.373z" fill="#0B0500"/><path opacity=".075" d="M180.215 91.492c-7.392-1.87-14.733-.839-21.437 2.755-6.962 3.733-12.802 9.558-17.198 16.073a51.351 51.351 0 00-1.665 2.65c-7.125-12.159-20.296-23.692-35.031-22.361-13.566 1.226-25.36 11.058-28.235 24.521-3.33 15.597 6.39 29.863 15.915 41.231 8.563 10.223 18.139 19.607 27.873 28.705 5.932 5.544 11.932 11.062 18.155 16.284l.296.251c.325.274.683.379 1.024.362.343.017.703-.086 1.028-.362 5.14-4.361 10.155-8.878 15.114-13.442 9.782-9.002 19.376-18.28 28.167-28.26 9.654-10.963 20.498-24.563 19.597-40.034-.784-13.456-10.572-25.077-23.603-28.373z" fill="#0B0600"/><path opacity=".077" d="M179.579 90.912c-7.392-1.87-14.733-.839-21.436 2.755-6.963 3.733-12.803 9.558-17.199 16.073a50.925 50.925 0 00-1.665 2.65c-7.125-12.159-20.296-23.692-35.031-22.361-13.565 1.226-25.36 11.058-28.235 24.521-3.329 15.597 6.391 29.863 15.915 41.231 8.563 10.223 18.139 19.607 27.873 28.705 5.933 5.544 11.932 11.062 18.155 16.284l.296.251c.325.274.683.379 1.025.362.343.017.702-.086 1.027-.362 5.14-4.361 10.155-8.878 15.114-13.442 9.782-9.002 19.377-18.28 28.167-28.26 9.654-10.963 20.498-24.564 19.598-40.034-.784-13.456-10.572-25.077-23.604-28.373z" fill="#0C0600"/><path opacity=".079" d="M178.945 90.331c-7.392-1.87-14.734-.838-21.437 2.756-6.963 3.733-12.803 9.558-17.199 16.073a49.837 49.837 0 00-1.664 2.65c-7.126-12.159-20.297-23.692-35.032-22.361-13.565 1.225-25.36 11.058-28.234 24.521-3.33 15.596 6.39 29.862 15.914 41.231 8.563 10.223 18.14 19.607 27.874 28.705 5.932 5.544 11.931 11.062 18.155 16.283l.295.251c.325.275.683.38 1.025.363.343.017.703-.086 1.027-.363 5.141-4.36 10.156-8.877 15.115-13.441 9.781-9.002 19.376-18.28 28.166-28.26 9.655-10.963 20.499-24.564 19.598-40.035-.784-13.455-10.572-25.076-23.603-28.373z" fill="#0C0600"/><path opacity=".081" d="M178.309 89.751c-7.392-1.87-14.734-.838-21.437 2.756-6.962 3.733-12.803 9.558-17.198 16.073a49.218 49.218 0 00-1.665 2.65c-7.126-12.159-20.296-23.692-35.031-22.361-13.566 1.225-25.36 11.058-28.235 24.521-3.33 15.596 6.39 29.862 15.914 41.231 8.563 10.223 18.14 19.607 27.874 28.704 5.932 5.545 11.931 11.063 18.155 16.284l.295.251c.325.275.684.38 1.025.363.343.017.703-.087 1.028-.363 5.14-4.36 10.155-8.877 15.114-13.441 9.781-9.002 19.376-18.28 28.166-28.261 9.655-10.962 20.499-24.563 19.598-40.034-.783-13.455-10.572-25.076-23.603-28.373z" fill="#0C0600"/><path opacity=".083" d="M177.675 89.171c-7.392-1.87-14.734-.838-21.437 2.756-6.962 3.733-12.802 9.558-17.198 16.073a49.854 49.854 0 00-1.665 2.65c-7.126-12.16-20.296-23.692-35.031-22.362-13.566 1.226-25.36 11.06-28.235 24.522-3.33 15.596 6.39 29.862 15.915 41.23 8.563 10.224 18.139 19.608 27.873 28.705 5.932 5.545 11.931 11.063 18.155 16.284l.296.251c.324.275.683.38 1.024.363.343.017.703-.087 1.028-.363 5.14-4.36 10.155-8.877 15.114-13.442 9.782-9.001 19.376-18.279 28.166-28.26 9.655-10.962 20.499-24.563 19.598-40.034-.783-13.455-10.572-25.076-23.603-28.373z" fill="#0D0600"/><path opacity=".085" d="M177.039 88.591c-7.392-1.87-14.733-.838-21.437 2.756-6.962 3.733-12.802 9.558-17.198 16.073a50.506 50.506 0 00-1.665 2.65c-7.125-12.16-20.296-23.692-35.031-22.361-13.565 1.225-25.36 11.058-28.235 24.521-3.329 15.596 6.391 29.862 15.915 41.23 8.563 10.224 18.139 19.607 27.873 28.705 5.933 5.545 11.932 11.063 18.155 16.284l.296.251c.325.275.683.38 1.025.363a1.45 1.45 0 001.027-.363c5.14-4.36 10.155-8.877 15.114-13.442 9.782-9.001 19.376-18.279 28.167-28.26 9.654-10.962 20.498-24.563 19.598-40.034-.784-13.454-10.572-25.075-23.604-28.373z" fill="#0D0600"/><path opacity=".087" d="M176.405 88.011c-7.392-1.87-14.734-.838-21.437 2.756-6.963 3.733-12.803 9.558-17.199 16.073a49.837 49.837 0 00-1.664 2.65c-7.126-12.16-20.297-23.692-35.032-22.362-13.565 1.226-25.36 11.059-28.234 24.522-3.33 15.596 6.39 29.862 15.914 41.23 8.563 10.224 18.14 19.607 27.874 28.705 5.932 5.545 11.931 11.063 18.155 16.284l.295.251c.325.275.683.379 1.025.363.343.016.703-.087 1.027-.363 5.141-4.361 10.156-8.877 15.115-13.442 9.781-9.001 19.376-18.279 28.166-28.26 9.655-10.962 20.499-24.563 19.598-40.034-.784-13.454-10.572-25.075-23.603-28.373z" fill="#0D0600"/><path opacity=".089" d="M175.769 87.433c-7.392-1.87-14.734-.838-21.437 2.756-6.962 3.733-12.803 9.558-17.198 16.073a49.59 49.59 0 00-1.665 2.649c-7.126-12.158-20.296-23.691-35.031-22.36-13.566 1.225-25.36 11.058-28.235 24.521-3.33 15.596 6.39 29.862 15.914 41.23 8.563 10.223 18.14 19.607 27.874 28.705 5.932 5.545 11.931 11.063 18.155 16.284l.295.251c.325.275.684.379 1.025.363.343.016.703-.087 1.028-.363 5.14-4.361 10.155-8.878 15.114-13.442 9.781-9.001 19.376-18.279 28.166-28.26 9.655-10.962 20.499-24.563 19.598-40.034-.783-13.456-10.57-25.076-23.603-28.373z" fill="#0D0700"/><path opacity=".091" d="M175.135 86.853c-7.392-1.87-14.734-.838-21.437 2.756-6.962 3.733-12.802 9.558-17.198 16.073a50.235 50.235 0 00-1.665 2.649c-7.126-12.159-20.296-23.691-35.031-22.36-13.566 1.225-25.36 11.058-28.235 24.521-3.33 15.596 6.39 29.862 15.914 41.23 8.563 10.223 18.14 19.607 27.874 28.705 5.932 5.545 11.931 11.063 18.155 16.284l.296.251c.324.275.683.379 1.024.363.343.016.703-.087 1.028-.363 5.14-4.361 10.155-8.878 15.114-13.442 9.782-9.002 19.376-18.279 28.166-28.26 9.655-10.962 20.499-24.563 19.598-40.034-.783-13.456-10.572-25.076-23.603-28.373z" fill="#0E0700"/><path opacity=".093" d="M174.5 86.271c-7.392-1.87-14.733-.838-21.437 2.756-6.962 3.733-12.802 9.558-17.198 16.073a50.506 50.506 0 00-1.665 2.65c-7.127-12.16-20.296-23.693-35.031-22.362-13.565 1.226-25.36 11.059-28.235 24.522-3.33 15.596 6.391 29.862 15.915 41.23 8.563 10.224 18.139 19.607 27.873 28.705 5.933 5.545 11.932 11.063 18.155 16.284l.296.251c.325.275.683.379 1.025.363.343.016.702-.087 1.027-.363 5.14-4.361 10.155-8.877 15.114-13.442 9.782-9.001 19.376-18.279 28.167-28.26 9.654-10.962 20.498-24.563 19.598-40.034-.785-13.456-10.572-25.076-23.604-28.373z" fill="#0E0700"/><path opacity=".095" d="M173.865 85.693c-7.392-1.87-14.734-.838-21.437 2.755-6.963 3.734-12.803 9.558-17.199 16.074a50.217 50.217 0 00-1.664 2.649c-7.126-12.159-20.297-23.691-35.032-22.361-13.565 1.226-25.36 11.059-28.234 24.521-3.33 15.597 6.39 29.863 15.914 41.231 8.563 10.223 18.14 19.607 27.874 28.705 5.932 5.545 11.931 11.063 18.155 16.284l.295.251a1.45 1.45 0 001.025.362c.343.017.702-.086 1.027-.362 5.141-4.361 10.155-8.878 15.115-13.442 9.781-9.002 19.376-18.28 28.166-28.26 9.655-10.963 20.499-24.563 19.598-40.034-.784-13.456-10.572-25.077-23.603-28.373z" fill="#0E0700"/><path opacity=".097" d="M173.231 85.11c-7.392-1.87-14.734-.837-21.437 2.756-6.963 3.734-12.803 9.558-17.199 16.074a50.217 50.217 0 00-1.664 2.649c-7.126-12.159-20.297-23.691-35.032-22.361-13.565 1.226-25.36 11.059-28.234 24.521-3.33 15.597 6.39 29.863 15.914 41.231 8.563 10.223 18.14 19.607 27.874 28.705 5.932 5.544 11.931 11.063 18.155 16.284l.295.251c.325.274.683.379 1.025.362.343.017.703-.086 1.027-.362 5.141-4.361 10.156-8.878 15.115-13.442 9.781-9.002 19.376-18.28 28.166-28.26 9.655-10.963 20.499-24.563 19.598-40.034-.784-13.455-10.572-25.075-23.603-28.373z" fill="#0F0700"/><path opacity=".099" d="M172.595 84.53c-7.392-1.87-14.734-.838-21.437 2.756-6.962 3.733-12.803 9.558-17.198 16.074a49.59 49.59 0 00-1.665 2.649c-7.126-12.159-20.296-23.692-35.031-22.361-13.566 1.226-25.36 11.059-28.235 24.521-3.33 15.597 6.39 29.863 15.914 41.231 8.563 10.223 18.14 19.607 27.874 28.705 5.932 5.544 11.931 11.063 18.155 16.284l.296.251c.324.274.683.379 1.024.362.343.017.703-.086 1.028-.362 5.14-4.361 10.155-8.878 15.114-13.442 9.781-9.002 19.376-18.28 28.166-28.26 9.655-10.963 20.499-24.563 19.598-40.034-.783-13.455-10.572-25.075-23.603-28.373z" fill="#0F0700"/><path opacity=".101" d="M171.96 83.953c-7.392-1.87-14.733-.839-21.437 2.755-6.962 3.733-12.802 9.558-17.198 16.073a50.925 50.925 0 00-1.665 2.65c-7.125-12.159-20.296-23.692-35.031-22.361-13.565 1.226-25.36 11.058-28.235 24.521-3.33 15.597 6.391 29.863 15.915 41.231 8.563 10.223 18.139 19.607 27.873 28.705 5.933 5.544 11.932 11.062 18.155 16.284l.296.251c.325.274.683.379 1.025.362a1.45 1.45 0 001.027-.362c5.14-4.361 10.155-8.878 15.114-13.442 9.782-9.002 19.376-18.28 28.167-28.26 9.654-10.963 20.498-24.564 19.598-40.034-.784-13.456-10.572-25.077-23.604-28.373z" fill="#0F0700"/><path opacity=".103" d="M171.325 83.372c-7.392-1.87-14.734-.838-21.437 2.756-6.963 3.733-12.803 9.558-17.199 16.073a49.837 49.837 0 00-1.664 2.65c-7.126-12.159-20.297-23.692-35.032-22.361-13.565 1.226-25.36 11.058-28.235 24.521-3.329 15.596 6.391 29.862 15.915 41.231 8.563 10.223 18.139 19.607 27.874 28.705 5.932 5.544 11.931 11.062 18.155 16.283l.295.251c.325.275.683.38 1.025.363.343.017.702-.086 1.027-.363 5.141-4.36 10.155-8.877 15.115-13.441 9.781-9.002 19.376-18.28 28.166-28.26 9.655-10.963 20.498-24.564 19.598-40.035-.784-13.455-10.572-25.076-23.603-28.373z" fill="#100800"/><path opacity=".105" d="M170.69 82.792c-7.392-1.87-14.734-.838-21.437 2.756-6.963 3.733-12.803 9.558-17.199 16.073a49.837 49.837 0 00-1.664 2.65c-7.126-12.159-20.297-23.692-35.032-22.361-13.565 1.225-25.36 11.058-28.234 24.521-3.33 15.596 6.39 29.862 15.914 41.231 8.563 10.223 18.14 19.607 27.874 28.704 5.932 5.545 11.931 11.063 18.155 16.284l.295.251c.325.275.683.38 1.025.363.343.017.703-.086 1.027-.363 5.141-4.36 10.156-8.877 15.115-13.441 9.781-9.002 19.376-18.28 28.166-28.261 9.655-10.962 20.499-24.563 19.598-40.034-.784-13.455-10.572-25.076-23.603-28.373z" fill="#100800"/><path opacity=".107" d="M170.054 82.212c-7.392-1.87-14.734-.838-21.437 2.756-6.962 3.733-12.803 9.558-17.198 16.073a49.218 49.218 0 00-1.665 2.65c-7.126-12.16-20.296-23.692-35.031-22.361-13.566 1.225-25.36 11.058-28.235 24.521-3.33 15.596 6.39 29.862 15.914 41.23 8.563 10.224 18.14 19.608 27.874 28.705 5.932 5.545 11.931 11.063 18.155 16.284l.296.251c.324.275.683.38 1.024.363.343.017.703-.087 1.028-.363 5.14-4.36 10.155-8.877 15.114-13.442 9.781-9.001 19.376-18.279 28.166-28.26 9.655-10.962 20.499-24.563 19.598-40.034-.783-13.456-10.57-25.076-23.603-28.373z" fill="#100800"/><path opacity=".109" d="M169.42 81.632c-7.392-1.87-14.733-.838-21.437 2.756-6.962 3.733-12.802 9.558-17.198 16.073a50.506 50.506 0 00-1.665 2.65c-7.125-12.16-20.296-23.692-35.031-22.362-13.565 1.226-25.36 11.06-28.235 24.522-3.33 15.596 6.391 29.862 15.915 41.23 8.563 10.224 18.14 19.607 27.873 28.705 5.933 5.545 11.932 11.063 18.155 16.284l.296.251c.325.275.683.38 1.024.363.343.017.703-.087 1.028-.363 5.14-4.36 10.155-8.877 15.114-13.442 9.782-9.001 19.376-18.279 28.167-28.26 9.654-10.962 20.498-24.563 19.598-40.034-.784-13.456-10.572-25.076-23.604-28.373z" fill="#100800"/><path opacity=".111" d="M168.785 81.052c-7.392-1.87-14.733-.838-21.436 2.756-6.963 3.733-12.803 9.558-17.199 16.073a50.506 50.506 0 00-1.665 2.65c-7.125-12.16-20.296-23.692-35.03-22.362-13.566 1.226-25.36 11.059-28.236 24.522-3.329 15.596 6.391 29.862 15.915 41.23 8.563 10.224 18.14 19.607 27.873 28.705 5.933 5.545 11.932 11.063 18.155 16.284l.296.251c.325.275.683.379 1.025.363.343.016.702-.087 1.027-.363 5.14-4.361 10.155-8.877 15.114-13.442 9.782-9.001 19.377-18.279 28.167-28.26 9.654-10.962 20.498-24.563 19.598-40.034-.785-13.454-10.572-25.075-23.604-28.373z" fill="#110800"/><path opacity=".113" d="M168.15 80.474c-7.392-1.87-14.734-.838-21.437 2.756-6.963 3.733-12.803 9.558-17.199 16.073a49.88 49.88 0 00-1.664 2.65c-7.126-12.16-20.297-23.692-35.032-22.362-13.565 1.226-25.36 11.059-28.234 24.522-3.33 15.596 6.39 29.862 15.914 41.23 8.563 10.223 18.14 19.607 27.874 28.705 5.932 5.545 11.931 11.063 18.155 16.284l.295.251c.325.275.683.379 1.025.363.343.016.703-.087 1.027-.363 5.141-4.361 10.156-8.878 15.115-13.442 9.781-9.001 19.376-18.279 28.166-28.26 9.655-10.962 20.499-24.563 19.598-40.034-.784-13.456-10.572-25.076-23.603-28.373z" fill="#110800"/><path opacity=".115" d="M167.516 79.894c-7.392-1.87-14.734-.838-21.437 2.755-6.962 3.734-12.803 9.559-17.198 16.074a49.594 49.594 0 00-1.665 2.649c-7.126-12.158-20.296-23.691-35.031-22.36-13.566 1.225-25.36 11.058-28.235 24.521-3.33 15.596 6.39 29.862 15.914 41.23 8.563 10.223 18.14 19.607 27.874 28.705 5.932 5.545 11.931 11.063 18.155 16.284l.295.251c.325.275.684.379 1.025.363.343.016.703-.087 1.028-.363 5.14-4.361 10.155-8.878 15.114-13.442 9.781-9.002 19.376-18.279 28.166-28.26 9.655-10.962 20.499-24.563 19.598-40.034-.783-13.456-10.572-25.076-23.603-28.373z" fill="#110800"/><path opacity=".117" d="M166.88 79.314c-7.392-1.87-14.733-.838-21.437 2.756-6.962 3.733-12.802 9.558-17.198 16.073a50.861 50.861 0 00-1.665 2.649c-7.125-12.159-20.296-23.691-35.031-22.36-13.565 1.225-25.36 11.058-28.235 24.52-3.33 15.597 6.391 29.863 15.915 41.231 8.563 10.223 18.14 19.607 27.873 28.705 5.932 5.545 11.932 11.063 18.155 16.284l.296.251a1.45 1.45 0 001.024.362c.343.017.703-.086 1.028-.362 5.14-4.361 10.155-8.878 15.114-13.442 9.782-9.002 19.376-18.279 28.167-28.26 9.654-10.962 20.498-24.563 19.598-40.034-.784-13.456-10.573-25.076-23.604-28.373z" fill="#120900"/><path opacity=".119" d="M166.245 78.734c-7.392-1.87-14.733-.838-21.436 2.756-6.963 3.733-12.803 9.558-17.199 16.073a50.9 50.9 0 00-1.665 2.649c-7.127-12.158-20.296-23.693-35.03-22.36-13.566 1.225-25.36 11.058-28.236 24.521-3.329 15.596 6.391 29.862 15.915 41.23 8.563 10.223 18.14 19.607 27.873 28.705 5.933 5.545 11.932 11.063 18.155 16.284l.296.251c.325.275.683.379 1.025.363.343.016.702-.087 1.027-.363 5.14-4.361 10.155-8.878 15.114-13.442 9.782-9.002 19.377-18.279 28.167-28.26 9.654-10.962 20.498-24.563 19.598-40.034-.784-13.456-10.572-25.076-23.604-28.373z" fill="#120900"/><path opacity=".121" d="M165.61 78.154c-7.392-1.87-14.734-.838-21.437 2.755-6.963 3.733-12.803 9.558-17.199 16.074a50.029 50.029 0 00-1.664 2.65c-7.126-12.16-20.297-23.692-35.032-22.362-13.565 1.226-25.36 11.059-28.234 24.521-3.33 15.597 6.39 29.863 15.914 41.231 8.563 10.223 18.14 19.607 27.874 28.705 5.932 5.544 11.931 11.063 18.155 16.284l.295.251c.325.274.683.379 1.025.362.343.017.703-.086 1.027-.362 5.141-4.361 10.156-8.878 15.115-13.442 9.781-9.002 19.376-18.28 28.166-28.26 9.655-10.963 20.499-24.563 19.598-40.034-.784-13.456-10.572-25.077-23.603-28.373z" fill="#120900"/><path opacity=".123" d="M164.976 77.574c-7.392-1.87-14.734-.838-21.437 2.755-6.962 3.733-12.803 9.558-17.198 16.074a49.445 49.445 0 00-1.665 2.65C117.55 86.892 104.38 75.36 89.645 76.69c-13.566 1.226-25.36 11.058-28.235 24.521-3.33 15.597 6.39 29.863 15.914 41.231 8.563 10.223 18.14 19.607 27.874 28.705 5.932 5.544 11.931 11.063 18.155 16.284l.295.251c.325.274.684.379 1.025.362.343.017.703-.086 1.028-.362 5.14-4.361 10.155-8.878 15.114-13.442 9.781-9.002 19.376-18.28 28.166-28.26 9.655-10.963 20.499-24.563 19.598-40.034-.783-13.455-10.572-25.075-23.603-28.373z" fill="#130900"/><path opacity=".125" d="M164.34 76.993c-7.392-1.87-14.733-.838-21.437 2.756-6.962 3.733-12.802 9.558-17.198 16.073a50.746 50.746 0 00-1.665 2.65c-7.125-12.159-20.296-23.692-35.031-22.361-13.566 1.226-25.36 11.058-28.235 24.521-3.33 15.597 6.391 29.863 15.915 41.231 8.563 10.223 18.14 19.607 27.873 28.705 5.932 5.544 11.932 11.062 18.155 16.284l.296.251c.325.274.683.379 1.024.362.343.017.703-.086 1.028-.362 5.14-4.361 10.155-8.878 15.114-13.442 9.782-9.002 19.376-18.28 28.167-28.26 9.654-10.963 20.498-24.564 19.598-40.034-.784-13.455-10.571-25.075-23.604-28.374z" fill="#130900"/><path opacity=".127" d="M163.705 76.413c-7.392-1.87-14.733-.838-21.436 2.756-6.963 3.733-12.803 9.558-17.199 16.073a50.704 50.704 0 00-1.665 2.65C116.28 85.733 103.109 74.2 88.374 75.531c-13.565 1.225-25.36 11.058-28.235 24.521-3.329 15.596 6.391 29.862 15.915 41.231 8.563 10.223 18.14 19.607 27.873 28.705 5.933 5.544 11.932 11.062 18.155 16.283l.296.251c.325.275.683.38 1.025.363.343.017.702-.086 1.027-.363 5.14-4.36 10.155-8.877 15.114-13.441 9.782-9.002 19.376-18.28 28.167-28.26 9.654-10.963 20.498-24.564 19.598-40.034-.784-13.456-10.572-25.077-23.604-28.374z" fill="#130900"/><path opacity=".129" d="M163.071 75.833c-7.392-1.87-14.734-.838-21.437 2.756-6.963 3.733-12.803 9.558-17.199 16.073a50.029 50.029 0 00-1.664 2.65c-7.126-12.159-20.297-23.692-35.032-22.361-13.565 1.225-25.36 11.058-28.235 24.521-3.329 15.596 6.391 29.862 15.915 41.231 8.563 10.223 18.14 19.607 27.874 28.705 5.932 5.544 11.931 11.062 18.155 16.283l.295.251c.325.275.683.38 1.025.363.343.017.703-.086 1.027-.363 5.141-4.36 10.156-8.877 15.115-13.441 9.781-9.002 19.376-18.28 28.166-28.261 9.655-10.962 20.499-24.563 19.598-40.034-.785-13.455-10.572-25.076-23.603-28.373z" fill="#130900"/><path opacity=".131" d="M162.435 75.253c-7.392-1.87-14.733-.838-21.436 2.756-6.963 3.733-12.803 9.558-17.199 16.073a50.704 50.704 0 00-1.665 2.65c-7.125-12.16-20.296-23.692-35.031-22.361-13.565 1.225-25.36 11.058-28.235 24.52-3.328 15.597 6.393 29.863 15.915 41.231 8.563 10.224 18.14 19.608 27.873 28.705 5.933 5.545 11.932 11.063 18.155 16.284l.296.251c.325.275.683.38 1.025.363a1.45 1.45 0 001.027-.363c5.14-4.36 10.155-8.877 15.114-13.442 9.782-9.001 19.377-18.279 28.167-28.26 9.654-10.962 20.498-24.563 19.598-40.034-.784-13.455-10.572-25.076-23.604-28.373z" fill="#140A00"/><path opacity=".133" d="M161.801 74.673c-7.392-1.87-14.734-.838-21.437 2.756-6.962 3.733-12.802 9.558-17.198 16.073a50.746 50.746 0 00-1.665 2.65c-7.127-12.16-20.296-23.692-35.031-22.362-13.566 1.226-25.36 11.06-28.235 24.522-3.33 15.596 6.39 29.862 15.915 41.23 8.563 10.224 18.139 19.607 27.873 28.705 5.932 5.545 11.931 11.063 18.155 16.284l.296.251c.324.275.683.38 1.024.363.343.017.703-.087 1.028-.363 5.14-4.36 10.155-8.877 15.114-13.442 9.782-9.001 19.376-18.279 28.167-28.26 9.654-10.962 20.498-24.563 19.597-40.034-.783-13.456-10.572-25.076-23.603-28.373z" fill="#140A00"/><path opacity=".135" d="M161.165 74.093c-7.392-1.87-14.733-.838-21.437 2.756-6.962 3.733-12.802 9.558-17.198 16.073a50.704 50.704 0 00-1.665 2.65c-7.125-12.16-20.296-23.692-35.031-22.362-13.565 1.226-25.36 11.059-28.235 24.522-3.329 15.596 6.391 29.862 15.915 41.23 8.563 10.224 18.14 19.607 27.873 28.705 5.933 5.545 11.932 11.063 18.155 16.284l.296.251c.325.275.683.379 1.025.363.343.016.702-.087 1.027-.363 5.14-4.36 10.155-8.877 15.114-13.442 9.782-9.001 19.376-18.279 28.167-28.26 9.654-10.962 20.498-24.563 19.598-40.034-.784-13.454-10.572-25.075-23.604-28.373z" fill="#140A00"/><path opacity=".137" d="M160.53 73.513c-7.391-1.87-14.733-.838-21.436 2.756-6.963 3.733-12.803 9.558-17.199 16.073a50.029 50.029 0 00-1.664 2.65C113.105 82.832 99.934 71.3 85.199 72.63 71.634 73.856 59.84 83.69 56.964 97.152c-3.329 15.596 6.393 29.862 15.915 41.232 8.563 10.223 18.14 19.607 27.874 28.705 5.932 5.544 11.931 11.062 18.154 16.283l.296.251c.325.275.683.38 1.025.363.343.017.702-.086 1.027-.363 5.141-4.36 10.155-8.877 15.114-13.441 9.782-9.002 19.377-18.28 28.167-28.26 9.654-10.963 20.498-24.564 19.598-40.034-.784-13.456-10.572-25.077-23.604-28.375z" fill="#150A00"/><path opacity=".139" d="M159.895 72.935c-7.392-1.87-14.734-.838-21.437 2.755-6.963 3.734-12.803 9.559-17.199 16.074a50.029 50.029 0 00-1.664 2.65c-7.126-12.16-20.296-23.692-35.031-22.362-13.566 1.226-25.36 11.059-28.235 24.522-3.33 15.596 6.39 29.862 15.914 41.23 8.563 10.223 18.14 19.607 27.874 28.705 5.932 5.545 11.931 11.063 18.155 16.284l.295.251c.325.275.683.379 1.025.363.343.016.703-.087 1.028-.363 5.14-4.361 10.155-8.878 15.114-13.442 9.781-9.002 19.376-18.279 28.166-28.26 9.655-10.962 20.499-24.563 19.598-40.034-.783-13.456-10.572-25.076-23.603-28.373z" fill="#150A00"/><path opacity=".141" d="M159.261 72.355c-7.392-1.87-14.734-.838-21.437 2.756-6.962 3.733-12.802 9.558-17.198 16.073a50.046 50.046 0 00-1.665 2.65c-7.127-12.16-20.296-23.693-35.031-22.362-13.566 1.226-25.36 11.059-28.235 24.522-3.33 15.596 6.39 29.862 15.914 41.23 8.563 10.224 18.14 19.607 27.874 28.705 5.932 5.545 11.931 11.063 18.155 16.284l.296.251c.324.275.683.379 1.024.363.343.016.703-.087 1.028-.363 5.14-4.361 10.155-8.878 15.114-13.442 9.782-9.001 19.376-18.279 28.166-28.26 9.655-10.962 20.499-24.563 19.598-40.034-.783-13.456-10.572-25.076-23.603-28.373z" fill="#150A00"/><path opacity=".143" d="M158.625 71.775c-7.392-1.87-14.733-.838-21.437 2.756-6.962 3.733-12.802 9.558-17.198 16.073a50.704 50.704 0 00-1.665 2.65C111.2 81.094 98.029 69.56 83.294 70.892c-13.565 1.226-25.36 11.059-28.235 24.522-3.33 15.596 6.391 29.862 15.915 41.23 8.563 10.223 18.14 19.607 27.873 28.705 5.933 5.545 11.932 11.063 18.155 16.284l.296.251c.325.275.683.379 1.025.363.343.016.702-.087 1.027-.363 5.14-4.361 10.155-8.878 15.114-13.442 9.782-9.002 19.376-18.279 28.167-28.26 9.654-10.962 20.498-24.563 19.598-40.034-.784-13.456-10.571-25.076-23.604-28.373z" fill="#150A00"/><path opacity=".145" d="M157.99 71.195c-7.391-1.87-14.733-.838-21.436 2.755-6.963 3.733-12.803 9.558-17.199 16.074a50.029 50.029 0 00-1.664 2.65c-7.126-12.16-20.297-23.692-35.032-22.362-13.565 1.226-25.36 11.059-28.235 24.521-3.329 15.597 6.391 29.863 15.915 41.231 8.563 10.223 18.14 19.607 27.874 28.705 5.932 5.544 11.931 11.063 18.154 16.284l.296.251c.325.274.683.379 1.025.362.343.017.702-.086 1.027-.362 5.141-4.361 10.155-8.878 15.114-13.442 9.782-9.002 19.377-18.28 28.167-28.26 9.655-10.963 20.498-24.563 19.598-40.034-.784-13.456-10.572-25.077-23.604-28.373z" fill="#160B00"/><path opacity=".146" d="M157.357 70.615c-7.392-1.87-14.734-.838-21.437 2.755-6.963 3.733-12.803 9.558-17.199 16.073a50.07 50.07 0 00-1.664 2.65c-7.126-12.159-20.297-23.692-35.032-22.361-13.565 1.226-25.36 11.058-28.234 24.521-3.33 15.597 6.39 29.863 15.914 41.231 8.563 10.223 18.14 19.607 27.874 28.705 5.932 5.544 11.931 11.063 18.155 16.284l.295.251c.325.274.683.379 1.025.362.343.017.703-.086 1.027-.362 5.141-4.361 10.156-8.878 15.115-13.442 9.781-9.002 19.376-18.28 28.166-28.26 9.655-10.963 20.499-24.563 19.598-40.034-.785-13.456-10.572-25.077-23.603-28.373z" fill="#160B00"/><path opacity=".148" d="M156.721 70.035c-7.392-1.87-14.734-.838-21.437 2.755-6.962 3.733-12.802 9.558-17.198 16.073a50.046 50.046 0 00-1.665 2.65c-7.126-12.159-20.296-23.692-35.031-22.361-13.566 1.226-25.36 11.058-28.235 24.521-3.33 15.597 6.39 29.863 15.914 41.231 8.563 10.223 18.14 19.607 27.874 28.705 5.932 5.544 11.931 11.062 18.155 16.284l.296.251c.324.274.683.379 1.024.362.343.017.703-.086 1.028-.362 5.14-4.361 10.155-8.878 15.114-13.442 9.781-9.002 19.376-18.28 28.166-28.26 9.655-10.963 20.499-24.564 19.598-40.034-.783-13.455-10.572-25.075-23.603-28.373z" fill="#160B00"/><path opacity=".15" d="M156.086 69.454c-7.392-1.87-14.733-.838-21.437 2.756-6.962 3.733-12.802 9.558-17.198 16.073a50.704 50.704 0 00-1.665 2.65c-7.125-12.159-20.296-23.692-35.031-22.361C67.19 69.797 55.395 79.63 52.52 93.093c-3.33 15.596 6.391 29.862 15.915 41.231 8.563 10.223 18.14 19.607 27.873 28.705 5.932 5.544 11.932 11.062 18.155 16.283l.296.251c.325.275.683.38 1.024.363.343.017.703-.086 1.028-.363 5.14-4.36 10.155-8.877 15.114-13.441 9.782-9.002 19.376-18.28 28.167-28.26 9.654-10.963 20.498-24.564 19.597-40.034-.784-13.456-10.572-25.077-23.603-28.374z" fill="#170B00"/><path opacity=".152" d="M155.45 68.874c-7.392-1.87-14.734-.838-21.437 2.756-6.962 3.733-12.803 9.558-17.198 16.073a49.405 49.405 0 00-1.665 2.65c-7.126-12.159-20.296-23.692-35.031-22.361-13.566 1.225-25.36 11.058-28.235 24.521-3.328 15.596 6.392 29.861 15.914 41.231 8.563 10.223 18.14 19.607 27.874 28.705 5.932 5.544 11.931 11.062 18.155 16.283l.295.251c.325.275.684.38 1.025.363.343.017.703-.086 1.028-.363 5.14-4.36 10.155-8.877 15.114-13.441 9.781-9.002 19.376-18.28 28.166-28.261 9.655-10.962 20.499-24.563 19.598-40.034-.783-13.455-10.572-25.076-23.603-28.373z" fill="#170B00"/><path opacity=".154" d="M154.816 68.294c-7.392-1.87-14.734-.838-21.437 2.756-6.963 3.733-12.803 9.558-17.199 16.073a50.07 50.07 0 00-1.664 2.65c-7.126-12.16-20.297-23.692-35.032-22.361-13.565 1.225-25.36 11.058-28.234 24.52-3.33 15.597 6.39 29.863 15.914 41.232 8.563 10.223 18.14 19.607 27.874 28.704 5.932 5.545 11.931 11.063 18.155 16.284l.295.251c.325.275.683.38 1.025.363.343.017.703-.087 1.027-.363 5.141-4.36 10.156-8.877 15.115-13.442 9.781-9.001 19.376-18.279 28.166-28.26 9.655-10.962 20.499-24.563 19.598-40.034-.783-13.455-10.572-25.076-23.603-28.373z" fill="#170B00"/><path opacity=".156" d="M154.18 67.714c-7.392-1.87-14.734-.838-21.437 2.756-6.962 3.733-12.802 9.558-17.198 16.073a50.087 50.087 0 00-1.665 2.65c-7.126-12.16-20.296-23.692-35.031-22.361-13.566 1.225-25.36 11.058-28.235 24.52-3.33 15.597 6.39 29.863 15.914 41.231 8.563 10.224 18.14 19.607 27.874 28.705 5.932 5.545 11.931 11.063 18.155 16.284l.296.251c.324.275.683.38 1.024.363.343.017.703-.087 1.028-.363 5.14-4.36 10.155-8.877 15.114-13.442 9.781-9.001 19.376-18.279 28.166-28.26 9.655-10.962 20.499-24.563 19.598-40.034-.783-13.456-10.572-25.076-23.603-28.373z" fill="#180B00"/><path opacity=".158" d="M153.546 67.134c-7.392-1.87-14.734-.838-21.437 2.756-6.962 3.733-12.802 9.558-17.198 16.073a50.704 50.704 0 00-1.665 2.65C106.121 76.453 92.95 64.92 78.215 66.25 64.65 67.477 52.855 77.31 49.98 90.773c-3.33 15.596 6.391 29.862 15.915 41.23 8.563 10.224 18.14 19.607 27.873 28.705 5.932 5.545 11.932 11.063 18.155 16.284l.296.251c.325.275.683.38 1.024.363.343.017.703-.087 1.028-.363 5.14-4.36 10.155-8.877 15.114-13.442 9.782-9.001 19.376-18.279 28.167-28.26 9.654-10.962 20.498-24.563 19.597-40.034-.783-13.456-10.572-25.076-23.603-28.373z" fill="#180C00"/><path opacity=".16" d="M152.91 66.554c-7.392-1.87-14.734-.838-21.437 2.756-6.962 3.733-12.803 9.558-17.198 16.073a49.405 49.405 0 00-1.665 2.65c-7.126-12.16-20.296-23.692-35.031-22.362-13.566 1.226-25.36 11.059-28.235 24.522-3.328 15.596 6.392 29.862 15.916 41.23 8.563 10.224 18.14 19.607 27.873 28.705 5.933 5.545 11.932 11.063 18.155 16.284l.296.251c.325.275.683.379 1.025.363.343.016.702-.087 1.027-.363 5.14-4.361 10.155-8.877 15.114-13.442 9.782-9.001 19.377-18.279 28.167-28.26 9.654-10.962 20.498-24.563 19.598-40.034-.785-13.454-10.572-25.075-23.605-28.373z" fill="#180C00"/><path opacity=".162" d="M152.276 65.974c-7.392-1.87-14.734-.838-21.437 2.756-6.963 3.733-12.803 9.558-17.199 16.073a50.029 50.029 0 00-1.664 2.65C104.85 75.293 91.679 63.76 76.944 65.09 63.38 66.317 51.584 76.15 48.71 89.613c-3.33 15.596 6.39 29.862 15.914 41.23 8.563 10.223 18.14 19.607 27.874 28.705 5.932 5.545 11.931 11.063 18.155 16.284l.295.251c.325.275.683.379 1.025.363.343.016.703-.087 1.027-.363 5.141-4.361 10.156-8.878 15.115-13.442 9.781-9.001 19.376-18.279 28.166-28.26 9.655-10.962 20.499-24.563 19.598-40.034-.784-13.454-10.572-25.075-23.603-28.373z" fill="#180C00"/><path opacity=".164" d="M151.642 65.396c-7.392-1.87-14.734-.838-21.437 2.755-6.962 3.734-12.803 9.559-17.198 16.074a49.405 49.405 0 00-1.665 2.65c-7.126-12.16-20.296-23.692-35.031-22.362-13.566 1.226-25.36 11.059-28.235 24.521-3.33 15.597 6.39 29.863 15.914 41.231 8.563 10.223 18.14 19.607 27.874 28.705 5.932 5.545 11.931 11.063 18.155 16.284l.295.251c.325.275.684.379 1.025.362.343.017.703-.086 1.028-.362 5.14-4.361 10.155-8.878 15.114-13.442 9.781-9.002 19.376-18.279 28.166-28.26 9.655-10.962 20.499-24.563 19.598-40.034-.785-13.456-10.572-25.076-23.603-28.373z" fill="#190C00"/><path opacity=".166" d="M151.006 64.816c-7.392-1.87-14.734-.838-21.437 2.755-6.962 3.734-12.802 9.56-17.198 16.074a50.704 50.704 0 00-1.665 2.65c-7.125-12.16-20.296-23.692-35.031-22.362-13.566 1.226-25.36 11.059-28.235 24.521-3.33 15.597 6.391 29.863 15.915 41.231 8.563 10.223 18.14 19.607 27.873 28.705 5.932 5.545 11.932 11.063 18.155 16.284l.296.251a1.45 1.45 0 001.024.362c.343.017.703-.086 1.028-.362 5.14-4.361 10.155-8.878 15.114-13.442 9.782-9.002 19.376-18.279 28.167-28.26 9.654-10.962 20.498-24.563 19.597-40.034-.783-13.456-10.572-25.076-23.603-28.373z" fill="#190C00"/><path opacity=".168" d="M150.371 64.236c-7.392-1.87-14.733-.838-21.436 2.755-6.963 3.734-12.803 9.558-17.199 16.074a50.746 50.746 0 00-1.665 2.65c-7.125-12.16-20.296-23.692-35.03-22.362-13.566 1.226-25.36 11.059-28.236 24.521-3.329 15.597 6.391 29.863 15.915 41.231 8.563 10.223 18.14 19.607 27.874 28.705 5.932 5.544 11.931 11.063 18.154 16.284l.296.251c.325.274.683.379 1.025.362.343.017.702-.086 1.027-.362 5.14-4.361 10.155-8.878 15.114-13.442 9.782-9.002 19.377-18.28 28.167-28.26 9.654-10.963 20.498-24.563 19.598-40.034-.785-13.456-10.572-25.077-23.604-28.373z" fill="#190C00"/><path opacity=".17" d="M149.736 63.656c-7.392-1.87-14.734-.838-21.437 2.755-6.963 3.733-12.803 9.558-17.199 16.073a50.07 50.07 0 00-1.664 2.65c-7.126-12.159-20.297-23.691-35.032-22.361-13.565 1.226-25.36 11.059-28.234 24.521-3.33 15.597 6.39 29.863 15.914 41.231 8.563 10.223 18.14 19.607 27.874 28.705 5.932 5.544 11.931 11.063 18.155 16.284l.295.251c.325.274.683.379 1.025.362.343.017.703-.086 1.027-.362 5.141-4.361 10.156-8.878 15.115-13.442 9.781-9.002 19.376-18.28 28.166-28.26 9.655-10.963 20.499-24.563 19.598-40.034-.784-13.456-10.572-25.077-23.603-28.373z" fill="#1A0C00"/><path opacity=".172" d="M149.102 63.076c-7.392-1.87-14.734-.839-21.437 2.755-6.962 3.733-12.803 9.558-17.198 16.073a49.405 49.405 0 00-1.665 2.65c-7.126-12.159-20.297-23.692-35.032-22.361-13.565 1.226-25.36 11.058-28.234 24.521-3.33 15.597 6.39 29.863 15.914 41.231 8.563 10.223 18.14 19.607 27.874 28.705 5.932 5.544 11.931 11.062 18.155 16.284l.295.251c.325.274.684.379 1.025.362.343.017.703-.086 1.028-.362 5.14-4.361 10.155-8.878 15.114-13.442 9.781-9.002 19.376-18.28 28.166-28.26 9.655-10.963 20.499-24.564 19.598-40.034-.783-13.455-10.572-25.075-23.603-28.373z" fill="#1A0D00"/><path opacity=".174" d="M148.466 62.495c-7.392-1.87-14.734-.838-21.437 2.756-6.962 3.733-12.802 9.558-17.198 16.073a50.704 50.704 0 00-1.665 2.65c-7.125-12.159-20.296-23.692-35.031-22.361C59.569 62.839 47.775 72.67 44.9 86.134c-3.33 15.596 6.39 29.862 15.915 41.231 8.563 10.223 18.14 19.607 27.873 28.705 5.932 5.544 11.931 11.062 18.155 16.283l.296.251c.324.275.683.38 1.024.363.343.017.703-.086 1.028-.363 5.14-4.36 10.155-8.877 15.114-13.441 9.782-9.002 19.376-18.28 28.167-28.26 9.654-10.963 20.498-24.564 19.597-40.034-.783-13.455-10.572-25.075-23.603-28.373z" fill="#1A0D00"/><path opacity=".176" d="M147.831 61.917c-7.392-1.87-14.733-.838-21.436 2.756-6.963 3.733-12.803 9.558-17.199 16.073a50.704 50.704 0 00-1.665 2.65c-7.125-12.159-20.296-23.692-35.03-22.361-13.566 1.225-25.36 11.058-28.236 24.521-3.329 15.596 6.391 29.862 15.915 41.231 8.563 10.223 18.14 19.607 27.873 28.704 5.933 5.545 11.932 11.063 18.155 16.284l.296.251c.325.275.683.38 1.025.363a1.45 1.45 0 001.027-.363c5.14-4.36 10.155-8.877 15.114-13.441 9.782-9.002 19.377-18.28 28.167-28.261 9.654-10.962 20.498-24.563 19.598-40.034-.784-13.455-10.572-25.076-23.604-28.373z" fill="#1B0D00"/><path opacity=".178" d="M147.195 61.337c-7.392-1.87-14.734-.838-21.437 2.756-6.962 3.733-12.802 9.558-17.198 16.073a50.704 50.704 0 00-1.665 2.65c-7.126-12.16-20.296-23.692-35.031-22.361-13.566 1.225-25.36 11.058-28.235 24.52-3.328 15.597 6.392 29.862 15.916 41.232 8.563 10.223 18.14 19.607 27.874 28.704 5.932 5.545 11.93 11.063 18.154 16.284l.296.251c.325.275.683.38 1.025.363a1.45 1.45 0 001.027-.363c5.141-4.36 10.155-8.877 15.114-13.441 9.782-9.002 19.377-18.28 28.167-28.261 9.655-10.962 20.498-24.563 19.598-40.034-.785-13.455-10.572-25.076-23.605-28.373z" fill="#1B0D00"/><path opacity=".18" d="M146.561 60.755c-7.392-1.87-14.734-.838-21.437 2.756-6.963 3.733-12.803 9.558-17.199 16.073a50.067 50.067 0 00-1.664 2.65C99.135 70.075 85.965 58.54 71.23 59.873 57.663 61.099 45.87 70.93 42.995 84.394c-3.33 15.596 6.39 29.862 15.914 41.231 8.563 10.223 18.14 19.607 27.874 28.705 5.932 5.544 11.931 11.062 18.155 16.283l.295.251c.325.275.683.38 1.025.363.343.017.703-.086 1.028-.363 5.14-4.36 10.155-8.877 15.114-13.441 9.781-9.002 19.376-18.28 28.166-28.26 9.655-10.963 20.499-24.564 19.598-40.035-.783-13.455-10.572-25.076-23.603-28.373z" fill="#1B0D00"/><path opacity=".182" d="M145.927 60.177c-7.392-1.87-14.734-.838-21.437 2.756-6.962 3.733-12.802 9.558-17.198 16.073a50.746 50.746 0 00-1.665 2.65c-7.126-12.16-20.296-23.692-35.031-22.362C57.03 60.52 45.236 70.353 42.36 83.816c-3.33 15.596 6.39 29.862 15.915 41.23 8.562 10.224 18.139 19.607 27.873 28.705 5.932 5.545 11.931 11.063 18.155 16.284l.296.251c.324.275.683.379 1.024.363.343.016.703-.087 1.028-.363 5.14-4.361 10.155-8.877 15.114-13.442 9.782-9.001 19.376-18.279 28.167-28.26 9.654-10.962 20.498-24.563 19.597-40.034-.785-13.456-10.572-25.076-23.603-28.373z" fill="#1B0D00"/><path opacity=".184" d="M145.291 59.595c-7.392-1.87-14.734-.838-21.437 2.756-6.962 3.733-12.803 9.558-17.198 16.073a49.405 49.405 0 00-1.665 2.65c-7.126-12.16-20.296-23.692-35.031-22.362-13.566 1.226-25.36 11.059-28.235 24.522-3.328 15.596 6.392 29.862 15.914 41.23 8.563 10.224 18.14 19.607 27.874 28.705 5.932 5.545 11.931 11.063 18.155 16.284l.295.251c.325.275.684.379 1.025.363.343.016.703-.087 1.028-.363 5.14-4.361 10.155-8.877 15.114-13.442 9.781-9.001 19.376-18.279 28.166-28.26 9.655-10.962 20.499-24.563 19.598-40.034-.783-13.456-10.572-25.076-23.603-28.373z" fill="#1C0D00"/><path opacity=".186" d="M144.656 59.015c-7.391-1.87-14.733-.838-21.436 2.756-6.963 3.733-12.803 9.558-17.199 16.073a50.07 50.07 0 00-1.664 2.65c-7.126-12.16-20.297-23.692-35.032-22.362-13.565 1.226-25.36 11.059-28.235 24.522-3.329 15.596 6.391 29.862 15.915 41.23 8.563 10.223 18.14 19.607 27.874 28.705 5.932 5.545 11.93 11.063 18.154 16.284l.296.251c.325.275.683.379 1.025.363.343.016.702-.087 1.027-.363 5.141-4.361 10.155-8.878 15.114-13.442 9.782-9.001 19.377-18.279 28.167-28.26 9.655-10.962 20.498-24.563 19.598-40.034-.785-13.454-10.572-25.075-23.604-28.373z" fill="#1C0E00"/><path opacity=".188" d="M144.021 58.437c-7.392-1.87-14.734-.838-21.437 2.756-6.963 3.733-12.803 9.558-17.199 16.073a50.029 50.029 0 00-1.664 2.65c-7.126-12.16-20.297-23.692-35.032-22.362-13.565 1.226-25.36 11.059-28.234 24.522-3.33 15.596 6.39 29.862 15.914 41.23 8.563 10.223 18.14 19.607 27.874 28.705 5.932 5.545 11.931 11.063 18.155 16.284l.295.251a1.45 1.45 0 001.025.362c.343.017.703-.086 1.028-.362 5.14-4.361 10.155-8.878 15.114-13.442 9.781-9.002 19.376-18.279 28.166-28.26 9.655-10.962 20.499-24.563 19.598-40.034-.783-13.456-10.572-25.076-23.603-28.373z" fill="#1C0E00"/><path opacity=".19" d="M143.387 57.857c-7.392-1.87-14.734-.838-21.437 2.756-6.962 3.733-12.802 9.558-17.198 16.073a50.087 50.087 0 00-1.665 2.65c-7.127-12.16-20.296-23.694-35.031-22.362C54.49 58.2 42.696 68.033 39.82 81.496c-3.33 15.596 6.39 29.862 15.914 41.23 8.563 10.223 18.14 19.607 27.874 28.705 5.932 5.545 11.931 11.063 18.155 16.284l.296.251c.324.275.683.379 1.024.363.343.016.703-.087 1.028-.363 5.14-4.361 10.155-8.878 15.114-13.442 9.782-9.001 19.376-18.279 28.166-28.26 9.655-10.962 20.499-24.563 19.598-40.034-.783-13.456-10.572-25.076-23.603-28.373z" fill="#1D0E00"/><path opacity=".192" d="M142.751 57.277c-7.392-1.87-14.733-.838-21.437 2.755-6.962 3.734-12.802 9.558-17.198 16.074a50.704 50.704 0 00-1.665 2.65c-7.125-12.16-20.296-23.692-35.031-22.362-13.565 1.226-25.36 11.059-28.235 24.521-3.33 15.597 6.391 29.863 15.915 41.231 8.563 10.223 18.14 19.607 27.873 28.705 5.933 5.545 11.932 11.063 18.155 16.284l.296.251a1.45 1.45 0 001.025.362 1.45 1.45 0 001.027-.362c5.14-4.361 10.155-8.878 15.114-13.442 9.782-9.002 19.376-18.279 28.167-28.26 9.654-10.962 20.498-24.563 19.598-40.034-.784-13.456-10.572-25.077-23.604-28.373z" fill="#1D0E00"/><path opacity=".194" d="M142.116 56.697c-7.391-1.87-14.733-.838-21.436 2.755-6.963 3.733-12.803 9.558-17.199 16.074a50.029 50.029 0 00-1.664 2.65c-7.126-12.16-20.297-23.692-35.032-22.362C53.22 57.04 41.425 66.873 38.55 80.335c-3.329 15.597 6.391 29.863 15.915 41.231 8.563 10.223 18.14 19.607 27.874 28.705 5.932 5.544 11.93 11.063 18.154 16.284l.296.251c.325.274.683.379 1.025.362.343.017.702-.086 1.027-.362 5.141-4.361 10.155-8.878 15.114-13.442 9.782-9.002 19.377-18.28 28.167-28.26 9.654-10.963 20.498-24.563 19.598-40.034-.784-13.456-10.572-25.077-23.604-28.373z" fill="#1D0E00"/><path opacity=".196" d="M141.481 56.117c-7.392-1.87-14.734-.838-21.437 2.755-6.963 3.733-12.803 9.558-17.199 16.073a50.029 50.029 0 00-1.664 2.65c-7.126-12.159-20.297-23.691-35.032-22.361-13.565 1.226-25.36 11.059-28.234 24.521-3.33 15.597 6.39 29.863 15.914 41.231 8.563 10.223 18.14 19.607 27.874 28.705 5.932 5.544 11.931 11.063 18.155 16.284l.295.251c.325.274.683.379 1.025.362.343.017.703-.086 1.028-.362 5.14-4.361 10.155-8.878 15.114-13.442 9.781-9.002 19.376-18.28 28.166-28.26 9.655-10.963 20.499-24.564 19.598-40.034-.783-13.456-10.571-25.077-23.603-28.373z" fill="#1E0E00"/><path opacity=".198" d="M140.847 55.536c-7.392-1.87-14.734-.838-21.437 2.756-6.962 3.733-12.803 9.558-17.198 16.073a49.405 49.405 0 00-1.665 2.65c-7.126-12.159-20.296-23.692-35.031-22.361C51.95 55.88 40.156 65.712 37.28 79.175c-3.33 15.597 6.39 29.863 15.914 41.231 8.563 10.223 18.14 19.607 27.874 28.705 5.932 5.544 11.931 11.062 18.155 16.283l.295.251c.325.275.684.38 1.025.363.343.017.703-.086 1.028-.363 5.14-4.36 10.155-8.877 15.114-13.441 9.781-9.002 19.376-18.28 28.166-28.26 9.655-10.963 20.499-24.564 19.598-40.035-.783-13.454-10.572-25.074-23.603-28.373z" fill="#1E0F00"/><path opacity=".2" d="M140.212 54.956c-7.392-1.87-14.733-.838-21.437 2.756-6.962 3.733-12.802 9.558-17.198 16.073a50.61 50.61 0 00-1.665 2.65c-7.125-12.159-20.296-23.692-35.031-22.361C51.316 55.3 39.52 65.132 36.646 78.595c-3.33 15.598 6.391 29.862 15.915 41.232 8.563 10.223 18.14 19.607 27.873 28.705 5.933 5.545 11.932 11.063 18.155 16.284l.296.251a1.45 1.45 0 001.024.362c.343.017.703-.086 1.028-.362 5.14-4.361 10.155-8.878 15.114-13.442 9.782-9.002 19.376-18.279 28.167-28.26 9.654-10.962 20.498-24.563 19.597-40.034-.784-13.456-10.572-25.077-23.603-28.375z" fill="#000"/></g><path d="M140.212 54.956c-7.392-1.87-14.733-.838-21.437 2.756-6.962 3.733-12.802 9.558-17.198 16.073a50.61 50.61 0 00-1.665 2.65c-7.125-12.159-20.296-23.692-35.031-22.361C51.316 55.3 39.52 65.132 36.646 78.595c-3.33 15.598 6.391 29.862 15.915 41.232 8.563 10.223 18.14 19.607 27.873 28.705 5.933 5.545 11.932 11.063 18.155 16.284l.296.251a1.45 1.45 0 001.024.362c.343.017.703-.086 1.028-.362 5.14-4.361 10.155-8.878 15.114-13.442 9.782-9.002 19.376-18.279 28.167-28.26 9.654-10.962 20.498-24.563 19.597-40.034-.784-13.456-10.572-25.077-23.603-28.375z" fill="#FDFFFD"/></svg>