<svg width="329" height="213" fill="none" xmlns="http://www.w3.org/2000/svg"><path d="M82.32 167.405v3.552H26.522v-3.552h4.61c5.378 0 9.283-1.569 11.716-4.705 1.537-2.049 2.305-6.978 2.305-14.787V63.799c0-6.594-.416-10.947-1.248-13.059-.64-1.6-1.953-2.977-3.938-4.129-2.817-1.536-5.762-2.304-8.835-2.304h-4.61v-3.553H82.32v3.553h-4.705c-5.314 0-9.188 1.568-11.62 4.705-1.601 2.048-2.401 6.977-2.401 14.787v84.114c0 6.593.416 10.946 1.248 13.058.64 1.601 1.985 2.977 4.034 4.129 2.752 1.537 5.665 2.305 8.739 2.305h4.705zm27.657-79.889v-4.513c6.594-3.905 11.076-7.554 13.445-10.946 1.665-2.433 2.497-5.346 2.497-8.738 0-1.985-.352-3.457-1.057-4.417-.768-.96-1.6-1.44-2.496-1.44-.705 0-1.633.223-2.785.672-1.665.576-3.042.864-4.13.864-2.561 0-4.834-.96-6.818-2.88-1.985-1.921-2.977-4.322-2.977-7.202 0-3.201.992-5.697 2.977-7.49 2.689-2.432 5.89-3.649 9.603-3.649 4.29 0 8.131 1.825 11.524 5.474 3.457 3.584 5.186 8.065 5.186 13.442 0 7.554-2.849 14.435-8.547 20.645-3.777 4.097-9.251 7.49-16.422 10.178zm74.907 11.618c6.402-6.401 10.179-10.082 11.332-11.042 2.881-2.433 5.986-4.321 9.315-5.665 3.329-1.345 6.626-2.017 9.892-2.017 5.506 0 10.243 1.6 14.213 4.801 3.969 3.201 6.626 7.842 7.971 13.923 6.594-7.681 12.164-12.706 16.709-15.075 4.546-2.432 9.22-3.649 14.021-3.649 4.674 0 8.804 1.217 12.389 3.65 3.649 2.368 6.53 6.272 8.643 11.714 1.408 3.712 2.113 9.538 2.113 17.475v37.832c0 5.505.416 9.282 1.248 11.331.64 1.408 1.825 2.624 3.553 3.648 1.729.961 4.546 1.441 8.451 1.441v3.456h-43.407v-3.456h1.825c3.777 0 6.722-.736 8.835-2.209 1.472-1.024 2.529-2.656 3.169-4.897.256-1.088.384-4.193.384-9.314v-37.832c0-7.169-.864-12.226-2.593-15.17-2.497-4.098-6.498-6.146-12.004-6.146-3.393 0-6.819.864-10.276 2.592-3.393 1.665-7.522 4.801-12.388 9.41l-.192 1.057.192 4.128v41.961c0 6.018.32 9.762.96 11.235.704 1.472 1.985 2.72 3.841 3.744 1.857.961 5.026 1.441 9.508 1.441v3.456h-44.464v-3.456c4.866 0 8.195-.576 9.988-1.729 1.856-1.152 3.137-2.88 3.841-5.185.32-1.088.48-4.257.48-9.506v-37.832c0-7.169-1.056-12.322-3.169-15.459-2.817-4.097-6.754-6.145-11.812-6.145-3.457 0-6.883.928-10.276 2.784-5.314 2.817-9.411 5.986-12.292 9.506v47.146c0 5.761.384 9.506 1.152 11.235.832 1.728 2.017 3.04 3.553 3.936 1.601.833 4.802 1.249 9.604 1.249v3.456h-43.504v-3.456c4.034 0 6.851-.416 8.451-1.249 1.601-.896 2.817-2.272 3.65-4.128.832-1.921 1.248-5.602 1.248-11.043v-33.607c0-9.666-.288-15.907-.864-18.724-.448-2.112-1.153-3.552-2.113-4.32-.96-.833-2.273-1.249-3.937-1.249-1.793 0-3.938.48-6.435 1.44l-1.44-3.456 26.505-10.755h4.13v18.724z" fill="#fff"/><path opacity=".2" d="M26 0v213m303-41.479H0m329-91.419H0M83 0v213M155 0v213M305 0v213" stroke="#fff"/><circle opacity=".2" cx="217.546" cy="126.094" r="44.928" stroke="#fff"/><circle opacity=".2" cx="276.8" cy="126.094" r="44.928" stroke="#fff"/></svg>