<svg width="473" height="423" fill="none" xmlns="http://www.w3.org/2000/svg"><g clip-path="url(#clip0)"><path d="M478.502 213.355c-4.376 16.329-13.805 33.087-29.012 51.737-20.512 25.15-39.738 38.468-60.545 41.911-13.478 2.223-27.19.001-40.463-2.154-2.855-.46-5.687-.913-8.525-1.342-39.239-5.776-72.194-1.461-97.962 12.804-7.202 3.981-14.045 8.898-20.664 13.647-7.693 5.53-15.665 11.24-24.293 15.603-15.103 7.621-36.718 11.611-52.119-.082-5.837-4.442-9.968-10.593-13.971-16.557-1.839-2.735-3.73-5.559-5.755-8.166-13.756-17.646-35.35-27.508-56.648-35.533l-2.407-.9c-11.452-4.291-23.296-8.739-32.619-16.892-9.511-8.306-16.993-22.666-12.2-36.183 10.32-29.105 47.903-33.02 78.13-36.181 10.816-1.127 21.06-2.203 28.993-4.256 20.869-5.388 38.075-14.967 49.763-27.706 5.33-5.833 10.035-12.749 14.367-21.219 4.843-9.427 8.704-19.754 12.453-29.755 4.536-12.083 9.211-24.587 15.702-35.89 6.712-11.653 14.122-19.068 22.702-22.68 13.747-5.793 29.463-1.352 43.314 2.537l1.134.33c11.886 3.338 24.114 6.257 35.931 9.092 16.101 3.856 32.731 7.828 48.781 12.918 33.109 10.502 58.103 24.307 76.406 42.178 22.874 22.382 34.826 52.079 31.963 79.488a84.043 84.043 0 01-2.456 13.251zM23.088 233.862c-3.184 11.884 3.578 24.37 12.043 31.733 8.994 7.862 20.63 12.228 31.875 16.439l2.407.899c21.618 8.162 43.573 18.197 57.708 36.327 2.084 2.673 3.993 5.528 5.872 8.299 4.056 6.055 7.896 11.771 13.414 15.976 14.488 11.015 35.081 7.132 49.534-.153 8.454-4.282 16.335-9.94 23.956-15.388 6.679-4.783 13.582-9.736 20.911-13.809 26.257-14.568 59.744-18.969 99.494-13.108 2.838.429 5.694.889 8.55 1.348 13.076 2.128 26.616 4.33 39.675 2.148 20.167-3.334 38.941-16.391 59.039-41.041 19.002-23.314 28.848-43.527 30.925-63.631 2.791-26.663-8.875-55.621-31.233-77.457-18.015-17.616-42.678-31.23-75.414-41.607-15.979-5.07-32.561-9.03-48.615-12.873-11.841-2.842-24.092-5.768-36.026-9.118l-1.133-.33c-14.131-3.99-28.742-8.083-41.684-2.634-8.04 3.399-15.074 10.456-21.533 21.641-6.387 11.103-11.035 23.512-15.529 35.53-3.761 10.048-7.666 20.44-12.547 30.01-4.43 8.647-9.264 15.758-14.74 21.755-12.01 13.086-29.638 22.909-50.974 28.427-8.125 2.103-18.446 3.184-29.364 4.309-31.064 3.242-66.269 6.929-76.068 34.568-.207.581-.39 1.169-.543 1.74z" fill="url(#paint0_linear)"/><path d="M468.424 211.344c-1.573 5.87-3.796 11.695-6.668 17.472-6.317 12.65-15.094 23.647-22.861 32.775-12.544 14.701-32.129 34.776-57.305 39.417-12.537 2.322-25.257.672-37.561-.918-2.732-.35-5.464-.7-8.179-1.02-1.703-.202-3.418-.356-5.151-.54-33.604-3.145-62.397 1.98-85.566 15.286-6.266 3.62-12.304 7.912-18.138 12.106-7.687 5.507-15.659 11.217-24.344 15.412-16.613 8.031-33.91 8.542-46.267 1.359a32.71 32.71 0 01-3.098-2.027c-5.55-4.086-9.571-9.698-13.447-15.093-1.818-2.525-3.688-5.141-5.67-7.531-12.183-14.678-30.197-22.893-44.521-28.438a361.219 361.219 0 00-9.521-3.519l-1.162-.413c-11.249-4.008-22.878-8.117-32.17-15.906-9.383-7.838-16.664-21.712-11.868-35.05 3.775-10.477 11.561-18.632 23.105-24.277 14.623-7.163 33.273-10.064 49.763-12.6 10.946-1.703 21.299-3.286 29.134-5.924 4.842-1.633 8.469-3.005 11.775-4.513 13.731-6.206 24.845-14.335 33.023-24.142 2.588-3.103 4.99-6.459 7.327-10.24 1.994-3.262 3.89-6.728 5.823-10.617 3.552-7.175 6.734-14.678 9.822-21.926 2.218-5.24 4.529-10.633 6.933-15.899 3.599-7.825 7.521-16.097 12.425-23.853 6.884-10.867 14.237-17.788 22.462-21.214 13.746-5.692 29.317-1.57 43.06 2.061 9.935 2.637 20.144 5.015 30.013 7.329 16.531 3.869 33.631 7.89 50.096 13.143 31.358 10.007 54.828 23.225 71.802 40.358 21.419 21.636 32.298 50.586 29.087 77.392-.084.691-.167 1.382-.28 2.091-.388 3.156-1.026 6.297-1.873 9.459zM48.329 267.935c8.964 7.497 20.402 11.556 31.467 15.489l1.162.413c3.185 1.133 6.41 2.303 9.593 3.538 14.579 5.639 32.947 14.051 45.481 29.128 2.041 2.457 3.952 5.109 5.788 7.665 3.782 5.268 7.675 10.693 12.925 14.57a29.887 29.887 0 002.879 1.893c13.746 7.988 31.791 4.493 44.073-1.438 8.511-4.114 16.386-9.748 23.983-15.202 5.864-4.212 11.945-8.569 18.325-12.235 23.59-13.55 52.851-18.804 86.949-15.603 1.739.16 3.472.344 5.205.528 2.745.303 5.471.677 8.227 1.033 12.131 1.569 24.654 3.193 36.838.955 24.452-4.505 43.631-24.204 55.95-38.634 7.681-8.998 16.348-19.872 22.555-32.297 4.298-8.631 7.12-17.453 8.396-26.206.101-.661.184-1.352.261-2.019 3.104-26.121-7.513-54.339-28.433-75.46-16.686-16.877-39.88-29.893-70.864-39.775-16.37-5.227-33.423-9.236-49.929-13.098-9.893-2.32-20.095-4.723-30.061-7.342-13.386-3.536-28.554-7.549-41.555-2.167-7.785 3.213-14.758 9.853-21.379 20.307-4.842 7.62-8.721 15.827-12.277 23.587-2.398 5.242-4.702 10.611-6.914 15.827-3.101 7.296-6.313 14.817-9.884 22.063-1.976 3.954-3.891 7.491-5.921 10.794-2.393 3.894-4.844 7.338-7.505 10.523-8.409 10.102-19.808 18.436-33.857 24.785-3.39 1.537-7.077 2.944-12.003 4.604-8.027 2.69-18.465 4.3-29.535 5.996-16.305 2.509-34.787 5.353-49.068 12.379-10.977 5.338-18.368 13.063-21.937 22.96-4.526 12.238 2.306 25.125 11.065 32.439z" fill="url(#paint1_linear)"/><path d="M462.274 207.786c-1.63 6.085-3.993 12.05-7.044 17.83-6.063 11.419-14.681 21.44-22.999 30.726-13.189 14.732-31.269 32.229-54.065 36.922-11.59 2.397-23.294 1.325-34.599.283-2.632-.247-5.271-.47-7.887-.687-1.572-.116-3.152-.208-4.755-.306-29.959-1.735-57.172 4.144-78.723 17.017-5.34 3.206-10.539 6.933-15.552 10.532-7.693 5.53-15.658 11.217-24.431 15.261-15.499 7.107-31.831 7.342-43.648.609a32.51 32.51 0 01-2.932-1.881c-5.258-3.753-9.134-8.765-12.893-13.645-1.798-2.316-3.648-4.722-5.603-6.927-11.774-13.167-28.843-20.441-42.416-25.275-2.994-1.083-6.007-2.094-9.02-3.105-10.986-3.657-22.352-7.416-31.64-14.847-11.112-8.887-15.737-22.508-11.534-33.915 3.733-10.133 11.248-18.131 22.356-23.765 13.437-6.819 30.164-10.336 44.921-13.439 11.196-2.35 21.798-4.578 29.616-7.91 3.822-1.625 7.277-3.12 10.595-4.956 12.429-6.86 21.998-14.919 29.292-24.658 2.331-3.095 4.519-6.508 6.554-10.115 1.754-3.123 3.505-6.525 5.361-10.41 1.738-3.636 3.398-7.267 5.076-10.868 3.809-8.227 7.747-16.75 12.169-24.89l.567-1.071c3.805-6.98 7.721-14.184 12.422-20.898 7.165-10.206 14.215-16.47 22.247-19.743 12.74-5.172 26.403-2.479 41.665 1.28 7.805 1.938 15.822 3.755 23.577 5.502 17.156 3.909 34.895 7.923 51.929 13.43 29.576 9.53 51.553 22.144 67.221 38.545 19.958 20.913 29.776 49.07 26.229 75.327a26.57 26.57 0 01-.309 2.006 83.67 83.67 0 01-1.747 8.041zM54.02 239.094c-2.7 10.078 1.726 21.684 11.455 29.462 8.952 7.163 20.128 10.87 30.93 14.453 3.013 1.011 6.05 2.029 9.068 3.117 13.798 4.946 31.217 12.339 43.318 25.899 2.02 2.248 3.887 4.685 5.72 7.061 3.648 4.722 7.425 9.632 12.405 13.183a30.137 30.137 0 002.738 1.752c11.203 6.365 26.771 6.129 41.61-.696 8.591-3.94 16.442-9.581 24.069-15.052 5.043-3.617 10.279-7.385 15.703-10.619 21.942-13.1 49.616-19.085 79.998-17.313 1.603.099 3.206.197 4.779.313 2.622.193 5.278.446 7.941.675 11.156 1.028 22.663 2.074 33.93-.257 22.15-4.561 39.866-21.748 52.837-36.233 8.215-9.186 16.746-19.077 22.675-30.277 4.277-8.076 7.129-16.534 8.522-25.154l.29-1.935c3.44-25.572-6.128-53.051-25.628-73.484-15.41-16.128-37.08-28.558-66.283-37.963-16.944-5.457-34.629-9.483-51.738-13.379-7.749-1.77-15.789-3.594-23.625-5.515-14.875-3.68-28.176-6.301-40.285-1.394-7.599 3.084-14.359 9.12-21.249 18.966-4.646 6.602-8.526 13.765-12.288 20.68l-.567 1.071c-4.402 8.068-8.311 16.574-12.106 24.753-1.684 3.625-3.345 7.256-5.083 10.892a182.18 182.18 0 01-5.422 10.546c-2.062 3.702-4.316 7.174-6.72 10.351-7.466 9.999-17.294 18.269-29.994 25.285-3.409 1.889-6.894 3.401-10.8 5.055-8.016 3.405-18.702 5.662-30.029 8.028-14.62 3.063-31.186 6.547-44.358 13.233-10.578 5.369-17.752 12.949-21.261 22.53-.178.665-.38 1.325-.552 1.966z" fill="url(#paint2_linear)"/><path d="M459.348 202.747a77.645 77.645 0 01-7.413 18.164c-5.947 10.508-14.264 19.31-22.324 27.824l-.814.852c-13.601 14.367-30.26 29.698-50.802 34.434-10.612 2.456-21.246 1.95-31.552 1.456a672.924 672.924 0 00-7.678-.325c-1.085-.036-2.153-.042-3.244-.054l-1.139-.025c-26.725-.41-51.58 6.075-71.874 18.725-4.408 2.768-8.756 5.882-12.93 8.917-7.7 5.553-15.678 11.288-24.578 15.144-14.392 6.206-29.729 6.148-41.052-.147a35.385 35.385 0 01-2.768-1.735c-4.948-3.39-8.666-7.851-12.297-12.161-1.796-2.137-3.649-4.34-5.584-6.336-11.357-11.68-27.518-17.971-40.333-22.119-2.83-.936-5.679-1.801-8.521-2.69-11.317-3.466-21.383-6.851-29.929-13.344-10.954-8.336-15.45-21.489-11.195-32.806 3.636-9.674 11.086-17.715 21.584-23.258 12.159-6.423 26.236-10.217 39.876-13.899 11.555-3.12 22.45-6.06 30.294-10.251l.921-.492c2.823-1.51 5.731-3.05 8.447-4.92 10.893-7.399 19.236-15.634 25.536-25.18a101.213 101.213 0 005.783-9.991c1.5-2.936 3.002-6.074 4.874-10.209 5.849-12.801 11.112-23.415 17.741-33.714l2.359-3.673c3.469-5.44 7.072-11.097 11.213-16.382 4.616-5.922 11.916-14.258 22.006-18.28 12.746-5.093 26.9-2.524 40.271.499 5.473 1.237 10.983 2.433 16.516 3.635 17.997 3.906 36.595 7.946 54.387 13.758 27.747 9.04 48.231 21.05 62.617 36.725 18.52 20.197 27.248 47.578 23.353 73.232a53.8 53.8 0 01-.313 1.929 64.584 64.584 0 01-1.438 6.697zM74.612 239.491c-2.674 9.983 1.55 20.821 11.191 28.168 8.269 6.292 18.145 9.626 29.278 13.017 2.849.865 5.715 1.76 8.545 2.697 13.046 4.234 29.503 10.657 41.177 22.675 1.993 2.063 3.864 4.297 5.683 6.44 3.532 4.207 7.18 8.548 11.868 11.765a31.064 31.064 0 002.622 1.62c10.743 5.986 25.4 6.016 39.168.05 8.696-3.759 16.56-9.447 24.187-14.918 4.227-3.046 8.582-6.184 13.05-8.987 20.662-12.882 45.924-19.462 73.03-19.052l1.116.019c1.091.012 2.183.024 3.268.06 2.552.073 5.138.206 7.708.308 10.157.48 20.642.971 30.979-1.405 19.996-4.603 36.359-19.682 49.747-33.825l.814-.852c7.981-8.408 16.224-17.128 22.036-27.417a76.351 76.351 0 008.654-24.125c.118-.63.206-1.244.3-1.881 3.801-25.017-4.723-51.732-22.834-71.462-14.127-15.402-34.305-27.229-61.702-36.15-17.679-5.755-36.253-9.79-54.173-13.7-5.533-1.202-11.043-2.398-16.54-3.642-13.056-2.963-26.847-5.461-39.022-.597-9.61 3.845-16.654 11.893-21.136 17.596-4.067 5.202-7.628 10.795-11.09 16.211l-2.359 3.673c-6.574 10.187-11.794 20.736-17.594 33.448-1.901 4.152-3.417 7.338-4.916 10.274-1.827 3.586-3.818 7.027-5.912 10.185-6.435 9.765-14.984 18.2-26.125 25.762-2.83 1.916-5.774 3.496-8.651 5.018l-.921.492c-8.055 4.313-19.082 7.268-30.75 10.434-13.502 3.643-27.496 7.408-39.42 13.715-10.03 5.313-17.168 12.953-20.6 22.147-.233.778-.478 1.502-.675 2.239z" fill="url(#paint3_linear)"/><path d="M458.943 196.371c-1.771 6.608-4.382 12.837-7.813 18.516-5.487 9.077-13.005 16.514-20.297 23.68l-2.979 2.947c-13.847 13.765-29.173 27.16-47.562 31.939-9.581 2.502-19.138 2.54-28.374 2.613a317.6 317.6 0 00-7.584.082l-2.471.102-1.493.059c-23.423.857-45.913 7.925-65.054 20.45-3.469 2.306-6.942 4.815-10.264 7.236-7.72 5.625-15.716 11.431-24.769 15.094-13.231 5.295-27.603 4.959-38.456-.904a44.155 44.155 0 01-2.634-1.572c-4.613-3.019-8.18-6.905-11.661-10.639-1.798-1.935-3.649-3.959-5.611-5.758-10.858-10.119-25.416-15.268-38.221-18.98a316.436 316.436 0 00-8.003-2.246c-9.649-2.662-19.791-5.762-28.236-11.871-10.938-7.924-15.219-20.357-10.863-31.672 4.514-11.809 13.821-18.894 20.842-22.77 10.755-5.932 22.886-9.968 34.603-13.885 11.993-3.996 23.32-7.788 31.2-13.065l1.147-.762c2.353-1.561 4.773-3.18 7.042-5.094 9.424-7.996 16.345-16.153 21.781-25.702a109.326 109.326 0 005.011-9.866c1.246-2.749 2.438-5.487 3.617-8.177l.794-1.825c5.456-12.473 11.258-22.535 18.231-31.647a346.744 346.744 0 003.955-5.258c3.187-4.292 6.483-8.707 10.151-12.896 5.134-5.86 12.243-13.1 21.791-16.809 12.821-4.997 26.814-2.776 38.9-.276l8.62 1.75c19.101 3.869 38.851 7.887 57.662 14.074 25.901 8.52 44.886 19.95 58.013 34.906 17.106 19.486 24.774 46.074 20.501 71.143l-.342 1.844a65.62 65.62 0 01-1.174 5.239zm-350.871 69.892l.598-.807c8.168 5.908 18.12 8.957 27.603 11.574 2.678.743 5.379 1.492 8.044 2.283 13.043 3.775 27.879 9.024 39.043 19.428 1.997 1.86 3.871 3.891 5.711 5.861 3.374 3.656 6.889 7.451 11.284 10.336.803.52 1.635 1.024 2.481 1.479 10.314 5.592 24.054 5.911 36.745.828 8.817-3.548 16.724-9.301 24.346-14.85 3.353-2.439 6.832-4.972 10.355-7.288 19.449-12.724 42.305-19.923 66.086-20.786l1.469-.065c.848-.027 1.671-.061 2.519-.089 2.513-.066 5.06-.071 7.614-.1 9.128-.051 18.536-.103 27.896-2.537 17.921-4.649 33.017-17.851 46.658-31.417l2.979-2.947c7.195-7.09 14.633-14.421 19.986-23.279 4.186-6.979 7.134-14.749 8.761-23.102l.329-1.797c4.168-24.486-3.314-50.438-20.028-69.488-12.893-14.689-31.577-25.912-57.128-34.312-18.693-6.155-38.395-10.16-57.449-14.018l-8.644-1.755c-11.8-2.423-25.441-4.627-37.752.176-9.128 3.566-16.018 10.56-21.006 16.255-3.625 4.123-6.892 8.522-10.066 12.766-1.312 1.763-2.631 3.549-3.961 5.282-6.887 8.982-12.604 18.914-17.991 31.227l-.794 1.825c-1.186 2.714-2.378 5.452-3.623 8.2a112.683 112.683 0 01-5.104 10.02c-5.564 9.744-12.631 18.066-22.225 26.22-2.342 1.997-4.822 3.651-7.229 5.222l-1.146.763c-8.122 5.415-19.563 9.253-31.694 13.289-11.633 3.888-23.656 7.902-34.26 13.748-6.721 3.701-15.641 10.482-19.924 21.716-4.012 10.414-.02 21.929 10.169 29.321l-.652.818z" fill="url(#paint4_linear)"/><path d="M460.306 188.814c-1.86 6.941-4.628 13.281-8.249 18.909-5.177 8.013-12.199 14.36-18.967 20.521-1.484 1.36-2.986 2.69-4.454 4.08-12.48 11.61-27.241 24.417-44.322 29.445-8.513 2.508-16.94 3.077-25.087 3.646-2.568.178-5.113.362-7.616.583-.651.055-1.332.127-1.99.206l-1.572.165c-20.12 2.022-40.246 9.672-58.211 22.182-2.596 1.801-5.17 3.709-7.713 5.601-7.691 5.709-15.66 11.599-24.868 14.991-12.054 4.412-25.46 3.801-35.837-1.655a26.916 26.916 0 01-2.469-1.425c-4.233-2.638-7.655-5.924-10.93-9.094-1.925-1.841-3.721-3.596-5.703-5.222-10.313-8.546-24.069-12.793-36.139-15.823a800.715 800.715 0 00-7.504-1.832c-10.521-2.539-19.053-5.284-26.543-10.399-10.773-7.396-14.918-19.384-10.529-30.538 3.479-8.901 10.611-16.799 20.093-22.257 9.248-5.343 19.375-9.406 29.183-13.325 12.499-5.032 24.331-9.759 32.277-16.419l.817-.673c2.063-1.714 4.2-3.511 6.162-5.609 7.742-8.371 13.461-16.697 18.049-26.218 1.49-3.091 2.93-6.374 4.264-9.736l.337-.878c1.197-3.042 2.381-6.036 3.587-8.923 4.746-11.44 10.704-20.849 18.751-29.596 1.835-2.005 3.636-4.07 5.467-6.153 2.908-3.347 5.944-6.788 9.197-10.094 5.275-5.338 12.479-11.891 21.551-15.345 12.363-4.712 25.879-3.18 37.505-1.058 20.411 3.737 41.529 7.587 61.697 14.316 24.024 8.016 41.516 18.843 53.432 33.092 15.693 18.777 22.294 44.594 17.626 69.048-.106.583-.241 1.184-.346 1.767a196.951 196.951 0 01-.946 3.72zm-337.751 47.627c-2.579 9.627 1.362 19.242 10.696 25.641 7.254 4.95 15.596 7.644 25.904 10.126 2.513.597 5.02 1.217 7.527 1.838 12.29 3.064 26.278 7.398 36.902 16.206 2.017 1.687 3.943 3.527 5.803 5.325 3.217 3.104 6.556 6.317 10.635 8.862.762.484 1.56.927 2.34 1.34 9.91 5.203 22.731 5.811 34.305 1.575 8.956-3.307 16.804-9.126 24.392-14.736 2.574-1.909 5.141-3.794 7.743-5.619 18.243-12.689 38.682-20.46 59.112-22.501l1.548-.171c.681-.072 1.339-.151 2.02-.223a313.83 313.83 0 017.646-.601c8.039-.546 16.371-1.141 24.686-3.575 16.692-4.903 31.229-17.541 43.57-29.01a351.083 351.083 0 014.484-4.097c6.688-6.054 13.589-12.332 18.631-20.127 4.142-6.43 7.126-13.86 8.894-22.073.129-.577.234-1.16.357-1.713 4.552-23.924-1.881-49.136-17.229-67.489-11.682-13.983-28.873-24.601-52.571-32.505-20.032-6.667-41.073-10.522-61.435-14.246-11.359-2.075-24.553-3.572-36.49.974-8.736 3.34-15.741 9.717-20.876 14.914-3.21 3.24-6.215 6.665-9.117 9.989-1.838 2.106-3.645 4.194-5.504 6.193-7.871 8.565-13.73 17.796-18.395 29.029-1.206 2.887-2.361 5.864-3.581 8.9l-.337.878a153.298 153.298 0 01-4.296 9.854c-4.632 9.688-10.473 18.185-18.355 26.696-2.042 2.205-4.238 4.036-6.338 5.792l-.817.673c-8.176 6.853-20.128 11.649-32.79 16.714-9.73 3.915-19.797 7.943-28.924 13.216-9.097 5.256-15.937 12.824-19.254 21.31-.361.871-.65 1.762-.886 2.641z" fill="url(#paint5_linear)"/><path d="M462.753 180.248c-1.961 7.321-4.869 13.802-8.698 19.349-5.007 7.193-11.644 12.675-18.082 17.981-1.833 1.521-3.66 3.019-5.476 4.57-13.706 11.816-26.257 21.981-41.059 26.957-7.355 2.461-14.561 3.511-21.535 4.547-2.673.379-5.298.771-7.865 1.23-.563.104-1.125.208-1.664.318l-1.502.285c-16.587 2.995-34.355 11.252-51.393 23.908-1.655 1.237-3.287 2.482-4.949 3.743-7.718 5.906-15.69 11.998-25.156 15.117-10.828 3.544-23.239 2.639-33.211-2.428a42.96 42.96 0 01-2.311-1.256c-3.828-2.248-7.003-4.933-10.056-7.509-2.017-1.687-3.905-3.288-5.932-4.749-9.802-7.033-22.155-10.242-34.057-12.666l-7.003-1.418c-7.943-1.619-17.103-3.92-24.85-8.926-10.787-6.966-14.694-18.229-10.197-29.405 4.635-11.598 14.102-18.614 19.327-21.774 7.679-4.617 15.839-8.468 23.735-12.186 13.079-6.151 25.437-11.985 33.358-20.358l.177-.183c1.883-1.992 3.832-4.042 5.599-6.549 5.973-8.514 10.513-17.003 14.276-26.771a212.098 212.098 0 003.492-9.611c1.288-3.858 2.384-6.902 3.462-9.594 4.271-10.905 10.214-19.401 19.234-27.505 2.351-2.122 4.612-4.292 6.99-6.61 2.645-2.553 5.368-5.211 8.233-7.73 5.741-5.085 12.775-10.716 21.318-13.904 12.583-4.678 25.901-3.454 36.11-1.839 18.742 2.933 38.629 6.53 57.076 12.746 22.13 7.484 38.099 17.724 48.828 31.273 14.303 18.073 19.814 43.114 14.774 66.959l-.375 1.683-.618 2.305zm-303.872 77.493c7.512 4.84 16.451 7.108 24.228 8.682l7.003 1.418c12.098 2.452 24.659 5.742 34.737 12.977 2.093 1.503 4.11 3.19 6.039 4.828 3.011 2.539 6.129 5.157 9.82 7.344.726.424 1.459.824 2.199 1.2 9.569 4.857 21.456 5.724 31.864 2.322 9.16-3.022 17.035-9.039 24.627-14.851 1.662-1.262 3.3-2.53 4.955-3.767 17.255-12.802 35.288-21.192 52.138-24.218l1.478-.291c.563-.104 1.132-.232 1.694-.336 2.591-.452 5.24-.838 7.92-1.241 6.889-1.007 14.048-2.07 21.235-4.474 14.489-4.856 26.913-14.927 40.456-26.609a317.724 317.724 0 015.507-4.588c6.34-5.23 12.904-10.63 17.754-17.61 4.085-5.936 7.105-13.024 9.025-21.044l.368-1.659c4.953-23.333-.447-47.835-14.405-65.485-10.495-13.282-26.217-23.303-47.991-30.692-18.328-6.184-38.121-9.756-56.785-12.693-9.995-1.557-23.009-2.777-35.22 1.747-8.261 3.085-15.131 8.58-20.769 13.566-2.834 2.502-5.552 5.136-8.166 7.671-2.305 2.236-4.652 4.536-7.033 6.675-8.814 7.905-14.598 16.189-18.775 26.839-1.048 2.674-2.137 5.694-3.413 9.505a214.849 214.849 0 01-3.511 9.682c-3.825 9.904-8.427 18.53-14.479 27.15-1.823 2.619-3.833 4.705-5.759 6.762l-.176.182c-8.163 8.614-20.666 14.511-33.896 20.749-7.865 3.701-15.996 7.534-23.584 12.099-5.038 3.032-14.155 9.786-18.585 20.903-4.131 10.383-.508 20.805 9.5 27.257z" fill="url(#paint6_linear)"/><path d="M465.569 170.787c-2.082 7.772-5.196 14.453-9.22 19.871-4.876 6.514-11.316 11.26-17.509 15.842-2.066 1.535-4.156 3.064-6.164 4.666l-1.324 1.046c-10.823 8.564-23.122 18.261-36.488 23.392-6.047 2.329-11.929 3.759-17.643 5.132-2.965.708-5.745 1.39-8.502 2.18-.468.129-.912.265-1.355.401-.474.153-.942.283-1.409.412-13.099 3.751-27.689 12.12-44.574 25.633l-2.074 1.66c-7.73 6.234-15.743 12.672-25.556 15.469-9.669 2.733-20.841 1.574-30.615-3.185a40.45 40.45 0 01-2.147-1.11c-3.303-1.828-6.168-3.869-8.926-5.831-2.181-1.552-4.232-3.019-6.423-4.345-8.734-5.219-19.098-7.588-31.975-9.51a533.45 533.45 0 01-6.503-1.004c-6.812-1.086-15.599-2.88-23.157-7.453-10.629-6.415-14.4-17.233-9.84-28.265 3.329-8.151 10.119-15.911 18.585-21.285 6.073-3.85 12.413-7.272 18.511-10.554 13.631-7.353 26.521-14.319 34.263-24.778 1.441-1.958 3.109-4.288 4.566-7.158 4.111-8.121 7.455-16.803 10.521-27.293.899-3.071 1.8-6.243 2.696-9.493.979-3.559 1.956-6.634 2.975-9.393 3.81-10.417 9.908-18.26 19.748-25.432 2.911-2.124 5.682-4.387 8.64-6.78 2.31-1.877 4.688-3.813 7.123-5.682 6.214-4.755 13.072-9.541 21.079-12.44 9.7-3.515 21.055-4.37 34.716-2.62 21.857 2.8 38.067 6.251 52.473 11.207 20.212 6.944 34.664 16.574 44.223 29.453 12.931 17.4 17.381 41.647 11.898 64.864a35.944 35.944 0 01-.409 1.622l-.204.761zM174.608 229.55c-2.459 9.175 1.227 17.652 10.232 23.096 7.323 4.408 15.883 6.192 22.552 7.24 2.172.353 4.326.675 6.48.998 13.067 1.973 23.603 4.363 32.579 9.723 2.262 1.345 4.331 2.842 6.529 4.424 2.735 1.956 5.558 3.961 8.773 5.739.686.388 1.384.728 2.082 1.068 9.413 4.585 20.138 5.701 29.423 3.069 9.484-2.707 17.37-9.052 24.967-15.168l2.074-1.661c17.049-13.647 31.826-22.144 45.164-25.933.467-.129.911-.265 1.385-.418.474-.154.917-.29 1.385-.419 2.781-.783 5.591-1.483 8.556-2.191 5.66-1.362 11.489-2.781 17.421-5.064 13.138-5.039 25.316-14.666 36.043-23.154l1.324-1.046c2.038-1.62 4.128-3.149 6.224-4.702 6.126-4.523 12.445-9.199 17.187-15.494 4.024-5.418 7.12-12.129 9.133-20.022.14-.523.257-1.053.397-1.575 5.355-22.742 1.021-46.474-11.605-63.486-9.355-12.595-23.554-22.03-43.441-28.861-14.311-4.93-30.401-8.35-52.14-11.118-13.394-1.704-24.485-.88-33.933 2.55-7.786 2.83-14.517 7.523-20.633 12.202-2.43 1.845-4.807 3.781-7.087 5.641-2.965 2.416-5.765 4.697-8.707 6.839-9.555 6.967-15.459 14.556-19.156 24.647-1.006 2.711-1.946 5.746-2.937 9.251a633.38 633.38 0 01-2.702 9.517c-3.091 10.584-6.461 19.362-10.628 27.595-1.426 2.853-3.113 5.254-4.707 7.4-7.95 10.761-20.99 17.813-34.795 25.247-6.099 3.282-12.385 6.693-18.421 10.502-8.183 5.17-14.717 12.641-17.916 20.496a18.475 18.475 0 00-1.102 3.068z" fill="url(#paint7_linear)"/><path d="M468.089 160.431l-.306 1.141c-2.209 7.866-5.423 14.444-9.542 19.556-4.832 5.966-11.124 10.063-17.228 14.032-2.19 1.425-4.446 2.91-6.614 4.443a2291.424 2291.424 0 01-4.378 3.133c-9.59 6.907-19.494 14.035-30.164 18.794-4.484 2.008-8.824 3.571-13.049 5.088-3.44 1.244-6.705 2.407-9.811 3.74-.403.173-.806.345-1.184.524-.403.172-.782.351-1.184.523-12.626 5.406-25.397 16.581-37.761 27.382-8.441 7.368-15.627 13.187-25.162 15.421-10.75 2.495-21.159-.753-27.995-3.935-.681-.309-1.331-.637-1.982-.964-2.579-1.302-4.936-2.673-7.198-4.017-2.551-1.499-4.973-2.913-7.506-4.101-9.073-4.24-19.743-5.468-29.893-6.354a230.276 230.276 0 01-6.003-.589c-5.693-.608-14.136-1.877-21.464-5.981-10.625-5.955-14.199-16.083-9.508-27.131 3.246-7.741 9.91-15.509 17.838-20.772 4.585-3.051 9.269-5.898 13.819-8.627 14.128-8.545 27.466-16.613 34.635-29.493 1.421-2.549 2.525-5.055 3.362-7.608 2.943-8.892 4.861-18.237 6.725-27.851a885.655 885.655 0 011.924-9.369c.745-3.444 1.547-6.438 2.482-9.168 3.453-10.132 9.502-17.122 20.249-23.31 3.555-2.055 6.97-4.35 10.573-6.772a284.76 284.76 0 015.755-3.808c6.008-3.893 13.062-8.27 20.845-10.999 9.783-3.442 21.005-4.562 33.322-3.401 18.743 1.786 34.42 4.943 47.87 9.667 18.241 6.417 31.2 15.442 39.619 27.634 11.558 16.726 14.941 40.204 9.046 62.775-.062.136-.1.279-.132.397zm-257.733 86.493c5.466 3.07 11.891 4.842 20.876 5.798 2.007.206 3.99.406 5.98.583 10.299.9 21.117 2.143 30.415 6.494 2.598 1.231 5.044 2.65 7.643 4.162 2.244 1.315 4.578 2.679 7.109 3.968.627.321 1.284.625 1.934.952 6.612 3.071 16.664 6.223 26.983 3.816 9.182-2.151 16.228-7.829 24.482-15.069 12.461-10.876 25.329-22.127 38.165-27.655.379-.179.775-.327 1.154-.506.409-.196.811-.368 1.214-.541 3.161-1.344 6.432-2.531 9.895-3.768 4.172-1.506 8.511-3.069 12.935-5.043 10.526-4.695 20.37-11.789 29.894-18.637 1.479-1.056 2.935-2.118 4.384-3.156 2.174-1.558 4.454-3.036 6.674-4.479 5.984-3.899 12.185-7.944 16.858-13.698 3.967-4.923 7.106-11.317 9.265-18.993l.407-1.521c5.804-22.137 2.496-45.136-8.805-61.488-8.239-11.913-20.945-20.744-38.86-27.047-13.337-4.67-28.866-7.811-47.507-9.596-12.114-1.157-23.11-.028-32.664 3.323-7.639 2.666-14.579 6.997-20.52 10.83-1.942 1.264-3.837 2.54-5.726 3.791-3.632 2.44-7.078 4.753-10.662 6.824-10.393 6.004-16.24 12.717-19.543 22.48-.916 2.659-1.706 5.606-2.438 9.002a530.963 530.963 0 00-1.918 9.345c-1.9 9.656-3.837 19.072-6.775 28.042-.863 2.647-2.01 5.219-3.487 7.88-7.365 13.235-20.884 21.408-35.193 30.057-4.527 2.735-9.204 5.558-13.759 8.592-7.657 5.107-14.126 12.621-17.247 20.09-4.395 10.413-1.174 19.581 8.837 25.168z" fill="url(#paint8_linear)"/><path d="M470.061 147.559a55.917 55.917 0 01-.546 1.943c-.134.499-.285.968-.442 1.461-2.411 7.761-5.586 13.814-9.692 18.497-4.829 5.482-11.1 9.024-17.159 12.445-2.253 1.281-4.59 2.591-6.82 3.981-2.967 1.854-6.026 3.862-9.114 5.888-7.197 4.721-14.665 9.598-22.195 13.567a349.233 349.233 0 01-7.047 3.589c-4.47 2.241-8.7 4.343-12.529 6.757-.368.232-.705.447-1.073.68l-.923.593c-6.935 4.409-13.852 11.599-21.163 19.219-3.146 3.284-6.419 6.662-9.768 9.942-6.332 6.15-13.472 12.083-22.71 13.684-9.285 1.588-18.447-1.657-25.375-4.685a47.634 47.634 0 01-1.818-.818c-1.272-.57-2.491-1.152-3.693-1.703-3.557-1.641-6.907-3.201-10.366-4.357-8.329-2.741-17.534-3.068-27.834-3.204-1.825-.03-3.65-.061-5.51-.151-8.202-.364-14.489-1.794-19.77-4.508-10.634-5.448-13.975-14.928-9.182-25.974 3.21-7.419 9.597-15.007 17.095-20.283 3.291-2.303 6.64-4.539 9.861-6.682 14.499-9.642 28.196-18.761 34.304-34.244.935-2.348 1.661-5.057 2.183-8.051 1.086-6.333 1.6-12.716 2.168-19.493.247-2.915.476-5.86.778-8.887.311-3.254.691-6.285 1.153-9.244.522-3.376 1.157-6.314 1.995-8.968 3.053-9.78 9.264-16.14 20.756-21.213 4.418-1.95 8.651-4.254 13.148-6.692 1.223-.666 2.475-1.35 3.721-2.01 5.798-3.108 13.022-6.98 20.612-9.558 10.08-3.413 20.818-4.816 31.95-4.176 16.348.94 30.893 3.666 43.267 8.128 16.045 5.777 27.823 14.461 35.039 25.82 10.063 15.842 12.476 37.149 6.699 58.707zm-234.869 91.524c5.104 2.616 11.201 3.995 19.177 4.349 1.836.084 3.654.138 5.455.162 10.426.144 19.756.479 28.251 3.265 3.536 1.151 6.927 2.747 10.532 4.401 1.202.551 2.421 1.133 3.67 1.697.592.26 1.208.527 1.8.788 6.751 2.93 15.651 6.104 24.536 4.587 8.837-1.53 15.753-7.294 21.946-13.302 3.342-3.257 6.591-6.641 9.731-9.901 7.378-7.678 14.361-14.927 21.447-19.423l.893-.576c.368-.233.712-.472 1.103-.698 3.89-2.448 8.149-4.567 12.643-6.802a355.215 355.215 0 007.017-3.572c7.47-3.934 14.907-8.794 22.074-13.497 3.089-2.026 6.148-4.034 9.114-5.889 2.261-1.407 4.604-2.74 6.881-4.015 5.962-3.345 12.112-6.818 16.796-12.135 3.96-4.518 7.036-10.394 9.396-17.965.151-.469.285-.968.436-1.437 6.271-21.884 4.144-43.497-6-59.513-7.036-11.082-18.56-19.57-34.285-25.21-12.238-4.4-26.665-7.094-42.857-8.045-10.93-.636-21.512.758-31.4 4.12-7.476 2.532-14.64 6.37-20.384 9.467-1.246.66-2.499 1.343-3.721 2.01-4.528 2.454-8.79 4.777-13.262 6.738-11.204 4.946-16.983 10.836-19.953 20.307-.82 2.582-1.435 5.449-1.938 8.753a153.016 153.016 0 00-1.134 9.173c-.302 3.027-.531 5.972-.778 8.887-.551 6.807-1.077 13.238-2.176 19.619-.524 3.095-1.299 5.893-2.259 8.336-6.295 15.891-20.155 25.145-34.84 34.915-3.222 2.143-6.541 4.362-9.831 6.664-7.282 5.132-13.479 12.489-16.578 19.683-2.619 5.973-4.998 17.131 8.498 24.059z" fill="url(#paint9_linear)"/><path d="M470.58 133.177a110.847 110.847 0 01-1.386 4.698l-.447 1.383c-2.556 7.544-5.761 13.232-9.817 17.444-4.931 5.099-11.264 8.115-17.368 11.039-2.243 1.055-4.553 2.169-6.75 3.338-8.688 4.677-17.89 10.517-26.809 16.152l-1.23.791c-5.608 3.541-11.478 7.395-16.308 11.833a22.15 22.15 0 00-1.067 1.038l-.509.475c-3.972 3.802-7.859 9.282-11.961 15.087-3.807 5.374-7.714 10.925-12.188 15.84-6.779 7.533-13.01 11.214-20.235 11.953-7.427.735-14.579-2.124-21.517-4.925l-2.921-1.165c-5.352-2.071-9.477-3.304-13.414-4.002-8.048-1.418-16.5-.753-25.472-.049l-.287.025c-1.66.116-3.321.231-4.986.269-7.395.235-13.171-.727-18.107-3.017-10.649-4.917-13.786-13.732-8.849-24.841 3.721-8.377 10.885-15.731 16.329-19.8 2.23-1.67 4.471-3.286 6.681-4.885 14.719-10.653 28.676-20.746 33.189-38.822.568-2.217.873-5.065.979-8.501.161-5.256-.103-10.447-.392-15.925-.221-4.212-.451-8.579-.466-12.99.002-3.235.112-6.212.358-9.126.301-3.308.791-6.183 1.503-8.743 2.704-9.619 8.865-15.126 21.226-19.075 5.788-1.837 11.371-4.239 17.266-6.76l2.446-1.052c5.841-2.511 11.863-5.127 18.107-7.147 10.653-3.463 20.637-5.094 30.556-4.958 14.206.19 27.572 2.471 38.67 6.566 14.062 5.194 24.293 13.285 30.434 24 8.421 14.561 10.06 34.005 4.742 53.852zM258.388 230.14c4.76 2.192 10.316 3.121 17.502 2.906 1.665-.038 3.301-.16 4.932-.258l.286-.025c9.05-.709 17.604-1.372 25.824.067 4.038.7 8.259 1.958 13.675 4.071l2.921 1.165c6.778 2.734 13.764 5.548 20.881 4.831 6.86-.709 12.85-4.25 19.381-11.519 4.413-4.88 8.307-10.384 12.078-15.717 4.138-5.846 8.044-11.397 12.113-15.275l.485-.481c.376-.358.722-.698 1.098-1.056 4.902-4.52 10.826-8.385 16.501-11.985l1.23-.791c8.925-5.659 18.158-11.515 26.899-16.204 2.227-1.187 4.561-2.294 6.81-3.373 6.014-2.872 12.227-5.818 16.988-10.758 3.91-4.048 6.999-9.589 9.504-16.942l.44-1.36c6.801-21.105 5.648-42.075-3.2-57.514-5.985-10.444-15.969-18.316-29.728-23.404-10.955-4.056-24.155-6.294-38.206-6.493-9.763-.145-19.616 1.47-30.131 4.894-6.191 2.01-12.183 4.607-17.994 7.1l-2.445 1.052c-5.667 2.43-11.532 4.935-17.38 6.807-11.888 3.795-17.775 9.045-20.346 18.164-.699 2.513-1.188 5.287-1.463 8.5-.257 2.86-.361 5.813-.349 9 .021 4.388.233 8.724.454 12.936.283 5.502.57 10.7.39 16.027-.107 3.537-.444 6.504-1.032 8.792l-.197.737c-4.853 18.112-18.781 28.188-33.506 38.865-2.21 1.599-4.451 3.215-6.68 4.884-5.317 3.976-12.293 11.1-15.903 19.253-2.679 6.008-5.149 16.937 8.168 23.104z" fill="url(#paint10_linear)"/><path d="M468.695 118.356a97.159 97.159 0 01-2.922 9.102c-2.768 7.384-5.923 12.602-9.936 16.367-5.111 4.821-11.644 7.351-17.949 9.788-2.102.813-4.257 1.636-6.313 2.563-12.664 5.549-29.734 15.19-39.008 29.468-2.26 3.495-4.367 8.128-6.591 13.009-6.334 13.945-13.492 29.732-28.469 29.948-5.215.08-10.077-2.012-14.81-4.019-1.735-.745-3.541-1.51-5.326-2.166-11.84-4.268-22.996-2.162-34.798.076l-3.166.604c-6.026 1.111-13.856 2.019-20.907-.838-6.38-2.601-9.993-6.601-10.762-11.902-1.595-11.153 9.796-24.685 17.851-31.086 1.397-1.129 2.812-2.227 4.226-3.326 14.855-11.636 28.899-22.623 31.391-43.227.262-2.121.192-4.993-.194-8.969-.511-5.028-1.446-10.093-2.353-14.973-1.428-7.592-2.905-15.477-2.758-23.437.306-15.203 6.46-22.114 22.731-25.448 8.92-1.839 17.8-4.86 26.368-7.761 13.14-4.478 26.724-9.093 40.949-9.637 13.611-.531 46.716 1.053 59.904 27.184 6.681 13.355 7.657 30.711 2.842 48.68zm-199.218 85.129c-.611 2.282-.835 4.54-.543 6.682.687 4.846 4.055 8.525 9.997 10.958 6.748 2.751 14.346 1.857 20.234.785l3.166-.604c11.963-2.271 23.28-4.41 35.441-.006 1.808.663 3.638 1.434 5.397 2.185 4.59 1.969 9.346 3.982 14.305 3.91 14.213-.217 21.192-15.619 27.382-29.22 2.244-4.953 4.357-9.609 6.691-13.187 9.421-14.544 26.702-24.307 39.533-29.913 2.08-.92 4.266-1.761 6.367-2.573 6.198-2.416 12.611-4.876 17.552-9.538 3.879-3.648 6.942-8.712 9.635-15.913 7.786-20.791 7.81-41.496.076-56.816-12.853-25.48-45.357-27.03-58.734-26.513-14.046.541-27.546 5.127-40.602 9.577-8.599 2.919-17.509 5.957-26.506 7.8-15.769 3.265-21.466 9.61-21.757 24.283-.145 7.858 1.303 15.66 2.721 23.198.924 4.91 1.876 10.005 2.374 15.081.408 4.083.46 7.027.195 9.249-2.577 21.116-16.791 32.261-31.863 44.043-1.391 1.105-2.805 2.203-4.22 3.302-6.004 4.734-14.427 14.222-16.841 23.23z" fill="url(#paint11_linear)"/></g><defs><linearGradient id="paint0_linear" x1="470.735" y1="253.137" x2="34.114" y2="165.885" gradientUnits="userSpaceOnUse"><stop stop-color="#D900D5"/><stop offset=".487" stop-color="#FFFF25"/><stop offset="1" stop-color="#18D3FF"/></linearGradient><linearGradient id="paint1_linear" x1="464.759" y1="239.146" x2="43.371" y2="175.585" gradientUnits="userSpaceOnUse"><stop stop-color="#C713D9"/><stop offset=".487" stop-color="#FEFF26"/><stop offset=".513" stop-color="#F4FD2F"/><stop offset="1" stop-color="#2AC0FB"/></linearGradient><linearGradient id="paint2_linear" x1="461.626" y1="224.414" x2="57.151" y2="183.31" gradientUnits="userSpaceOnUse"><stop stop-color="#B626DD"/><stop offset=".487" stop-color="#FDFF27"/><stop offset=".513" stop-color="#F5FD2E"/><stop offset="1" stop-color="#3BADF7"/></linearGradient><linearGradient id="paint3_linear" x1="460.753" y1="209.263" x2="74.623" y2="189.224" gradientUnits="userSpaceOnUse"><stop stop-color="#A43AE0"/><stop offset=".487" stop-color="#FCFE28"/><stop offset=".513" stop-color="#F6FE2D"/><stop offset="1" stop-color="#4D99F4"/></linearGradient><linearGradient id="paint4_linear" x1="461.607" y1="194.089" x2="95.028" y2="193.378" gradientUnits="userSpaceOnUse"><stop stop-color="#934DE4"/><stop offset=".487" stop-color="#FBFE29"/><stop offset=".513" stop-color="#F7FE2C"/><stop offset="1" stop-color="#5E86F0"/></linearGradient><linearGradient id="paint5_linear" x1="463.706" y1="179.189" x2="117.662" y2="195.983" gradientUnits="userSpaceOnUse"><stop stop-color="#8160E8"/><stop offset=".487" stop-color="#FAFE2A"/><stop offset=".513" stop-color="#F8FE2B"/><stop offset="1" stop-color="#7073EC"/></linearGradient><linearGradient id="paint6_linear" x1="466.582" y1="164.842" x2="141.621" y2="197.107" gradientUnits="userSpaceOnUse"><stop stop-color="#7073EC"/><stop offset=".487" stop-color="#F8FE2B"/><stop offset=".513" stop-color="#FAFE2A"/><stop offset="1" stop-color="#8160E8"/></linearGradient><linearGradient id="paint7_linear" x1="469.775" y1="151.263" x2="166.269" y2="196.935" gradientUnits="userSpaceOnUse"><stop stop-color="#5E86F0"/><stop offset=".487" stop-color="#F7FE2C"/><stop offset=".513" stop-color="#FBFE29"/><stop offset="1" stop-color="#934DE4"/></linearGradient><linearGradient id="paint8_linear" x1="472.788" y1="138.567" x2="190.63" y2="195.564" gradientUnits="userSpaceOnUse"><stop stop-color="#4D99F4"/><stop offset=".487" stop-color="#F6FE2D"/><stop offset=".513" stop-color="#FCFE28"/><stop offset="1" stop-color="#A43AE0"/></linearGradient><linearGradient id="paint9_linear" x1="475.613" y1="125.073" x2="214.427" y2="191.418" gradientUnits="userSpaceOnUse"><stop stop-color="#3BADF7"/><stop offset=".487" stop-color="#F5FD2E"/><stop offset=".513" stop-color="#FDFF27"/><stop offset="1" stop-color="#B626DD"/></linearGradient><linearGradient id="paint10_linear" x1="477.241" y1="111.796" x2="236.588" y2="185.506" gradientUnits="userSpaceOnUse"><stop stop-color="#2AC0FB"/><stop offset=".487" stop-color="#F4FD2F"/><stop offset=".513" stop-color="#FEFF26"/><stop offset="1" stop-color="#C713D9"/></linearGradient><linearGradient id="paint11_linear" x1="476.469" y1="98.286" x2="255.66" y2="177.578" gradientUnits="userSpaceOnUse"><stop stop-color="#18D3FF"/><stop offset=".513" stop-color="#FFFF25"/><stop offset="1" stop-color="#D900D5"/></linearGradient><clipPath id="clip0"><path fill="#fff" transform="rotate(-75 201.776 154.523)" d="M0 0h367.214v437.047H0z"/></clipPath></defs></svg>