<svg width="579" height="229" fill="none" xmlns="http://www.w3.org/2000/svg"><g clip-path="url(#clip0)" fill="#fff"><path d="M66.503 53.016h4.802c16.671.361 33.071 7.056 44.849 18.908-4.349 4.433-8.788 8.686-13.047 13.119-6.614-5.971-14.587-10.585-23.285-12.214-12.866-2.714-26.728-.271-37.51 7.057-11.779 7.69-19.752 20.718-21.473 34.651-1.903 13.752 1.993 28.227 10.963 38.903 8.607 10.404 21.745 16.918 35.335 17.371 12.685.724 25.913-3.167 35.155-12.033 7.248-6.243 10.6-15.742 11.688-24.97-15.04 0-30.08.09-45.121 0V115.17h63.332c3.262 19.995-1.45 42.522-16.671 56.817-10.148 10.133-24.191 16.104-38.507 17.28-13.862 1.357-28.178-1.267-40.5-7.961-14.768-7.872-26.547-21.171-32.346-36.823-5.436-14.385-5.526-30.67-.453-45.145 4.621-13.21 13.5-24.88 24.917-33.023 10.963-8.052 24.282-12.485 37.872-13.3zm363.322 4.704h19.39v129.195c-6.433 0-12.957.091-19.39-.09.091-42.975 0-86.039 0-129.104zm-254.506 44.784c11.96-2.262 24.916.271 34.792 7.418 8.97 6.334 15.221 16.286 17.124 27.142 2.446 12.576-.634 26.328-8.789 36.28-8.788 11.128-23.194 17.099-37.238 16.194-12.866-.724-25.369-7.147-32.98-17.642-8.607-11.58-10.691-27.504-5.98-41.074 4.712-14.566 18.031-25.695 33.071-28.318zm2.718 17.189c-4.893 1.267-9.423 4.072-12.684 8.053-8.789 10.494-8.245 27.594 1.449 37.365 5.527 5.609 13.863 8.233 21.564 6.695 7.158-1.267 13.409-6.062 16.852-12.395 5.98-10.766 4.259-25.604-4.892-34.018-5.89-5.428-14.497-7.69-22.289-5.7zm93.322-17.188c13.681-2.624 28.631 1.176 38.869 10.766 16.671 14.928 18.483 42.884 4.258 60.073-8.607 10.857-22.56 16.828-36.332 16.195-13.137-.362-26.094-6.876-33.886-17.642-8.788-11.852-10.691-28.137-5.708-41.979 4.983-14.114 18.03-24.88 32.799-27.413zm2.718 17.189c-4.893 1.267-9.423 4.072-12.685 7.962-8.698 10.314-8.335 27.142.997 37.003 5.527 5.881 14.134 8.776 22.107 7.147 7.068-1.357 13.41-6.061 16.853-12.394 5.889-10.857 4.168-25.694-5.074-34.108-5.889-5.429-14.497-7.6-22.198-5.61zm78.735-11.943c10.419-6.514 24.282-8.324 35.516-2.714 3.534 1.538 6.433 4.161 9.242 6.785.091-2.443 0-4.976.091-7.509 6.07.09 12.141 0 18.302.09V184.2c-.091 12.033-3.171 24.789-11.869 33.565-9.514 9.681-24.101 12.666-37.239 10.676-14.043-2.081-26.275-12.304-31.711-25.242 5.436-2.623 11.144-4.704 16.762-7.147 3.171 7.419 9.604 13.752 17.667 15.199 8.064 1.448 17.396-.543 22.651-7.238 5.618-6.875 5.618-16.285 5.346-24.698-4.168 4.071-8.97 7.69-14.768 9.047-12.594 3.528-26.457-.814-36.151-9.319-9.786-8.504-15.584-21.623-15.041-34.651.272-14.747 8.608-28.951 21.202-36.641zm18.755 11.58c-5.527.905-10.692 3.981-14.225 8.233-8.517 10.133-8.517 26.328.09 36.28 4.893 5.88 12.776 9.137 20.386 8.323 7.158-.724 13.772-5.247 17.306-11.49 5.98-10.585 4.983-24.97-3.081-34.198-4.983-5.7-12.956-8.505-20.476-7.148zm100.933-6.966c10.873-10.133 27.634-13.571 41.587-8.233 13.229 4.976 21.655 17.551 25.913 30.489-19.661 8.143-39.231 16.195-58.893 24.337 2.719 5.157 6.886 9.862 12.504 11.762 7.882 2.804 17.305 1.809 23.919-3.438 2.628-1.991 4.712-4.615 6.705-7.148 4.983 3.348 9.966 6.605 14.95 9.952-7.068 10.585-18.937 18.004-31.712 19.18-14.134 1.719-29.174-3.709-38.325-14.747-15.041-17.37-13.591-46.502 3.352-62.154zm9.695 16.737c-3.081 4.433-4.349 9.862-4.259 15.2 13.138-5.429 26.275-10.857 39.413-16.376-2.174-5.066-7.429-8.142-12.775-8.957-8.607-1.538-17.577 3.076-22.379 10.133z"/></g><g opacity=".5"><mask id="a" fill="#fff"><path d="M259.897 73.133c-11.181 0-22.839 8.182-22.839 8.182v-5.258c0-1.153-.459-1.615-1.609-1.615h-14.272c-1.151 0-1.841.693-1.841 1.615v112.14c0 1.158.461 1.85 1.612 1.85h14.5c.919 0 1.609-.692 1.609-1.85v-95.99s6.73-4.275 14.905-4.275c7.783 0 13.927 3.872 13.927 11.813v88.448c0 1.157.688 1.849 1.842 1.849h14.268c1.151 0 1.61-.926 1.61-1.849V94.718c-.001-14.078-8.634-21.585-23.712-21.585zm111.006-56.25h-14.271c-1.153 0-1.841.69-1.841 1.616V75.07c-5.479-2.107-10.466-3.22-14.498-3.22-23.176 0-39.087 22.213-39.087 64.927 0 36.592 15.478 56.217 35.676 56.217 8.513 0 15.542-4.891 20.688-9.479l3.115 5.296c.526.916.956 1.229 2.013 1.229l8.207.008c.92 0 1.612-.692 1.612-1.849v-169.7c-.002-1.155-.465-1.616-1.614-1.616zm-50.825 116.115c0-23.537 6.871-46.84 20.901-46.84 4.754 0 9.317 1.567 13.814 5.148v82.917c-3.515 1.918-7.938 3.684-12.716 3.684-15.258 0-21.999-18.141-21.999-44.909zm105.488-60.915c-23.766 0-35.495 31.168-35.495 65.086 0 35.504 16.73 55.402 38.238 55.402 9.455 0 18.867-3.731 25.039-7.169.945-.528 1.116-1.27.889-2.188l-1.805-7.5c-.225-.918-.686-1.374-1.826-1.374-.502 0-8.3 2.286-15.886 2.286-17.603 0-25.674-15.688-25.674-36.522v-5.063s8.748 1.212 14.004 1.212h33.209v-9.622c.001-35.525-12.408-54.548-30.693-54.548zm-1.143 49.732c-5.256 0-14.822 1.303-14.822 1.303s.127-3.824.587-7.488c2.059-19.481 6.693-29.336 14.692-29.336 6.956 0 11.723 10.082 12.867 27.729.226 3.667.226 7.792.226 7.792h-13.55zM192.234 86.65c-5.277-10.425-14.676-14.981-25.443-14.981-6.917 0-17.711 2.651-24.921 5.901-1.411.637-2.301 1.195-2.301 2.307 0 .662.328 1.421.689 2.077l4.858 10.427c.5 1.177 1.303 1.447 1.967 1.447.718 0 1.303-.34 1.947-.755 7.033-4.504 12.183-6.982 16.261-6.982 5.394 0 9.058 3.588 11.317 8.984 2.106 5.028 2.919 11.975 2.919 20.002 0 1.022.005 2.358.005 2.358-4.431-2.78-12.109-4.312-15.942-4.312-20.618 0-31.736 19.64-31.736 40.644 0 22.63 12.996 39.227 28.612 39.227 8.696 0 16.57-5.117 21.843-11.57 0 0 2.808 6.711 3.175 7.516.369.802.758 1.1 1.815 1.1l8.345.008c.919 0 1.61-.692 1.61-1.85v-65.051c-.004-15.987-.809-28.18-5.02-36.497zm-12.704 85.224c-4.089 3.96-8.984 6.033-13.391 6.033-4.405 0-7.809-2.04-10.54-5.821-3.324-4.596-4.874-11.676-4.874-19.521 0-12.407 4.569-25.138 14.252-25.138 4.793 0 10.058 1.564 14.552 5.148l.001 39.299zm352.093-97.448h-12.721c-1.421 0-2.146.746-2.512 1.714a8310.835 8310.835 0 00-8.386 22.195c-1.572 4.201-5.805 16.23-5.805 16.23l-.493-.004c-.018-.043-3.115-8.751-4.794-13.112-1.357-3.536-8.446-22.25-9.341-24.555-.48-1.24-1.016-2.468-2.835-2.468h-13.925c-1.531 0-2.397 1.685-1.904 2.73.498 1.047 22.684 51.714 22.684 51.714s-23.826 56.735-24.524 58.008c-.697 1.274.177 3.16 1.872 3.16h12.203c2.076 0 2.896-1.091 3.52-2.849 1.754-4.926 4.365-11.776 8.064-22.364 2.449-7.016 6.325-19.331 6.325-19.331h.427s4.243 12.551 5.822 16.654c3.987 10.377 9.086 23.931 9.629 25.362.563 1.496 1.351 2.529 2.777 2.529h13.84c1.369 0 2.004-1.567 1.358-2.931-1.54-3.254-14.683-35.27-23.81-56.318 0 0 23.683-52.401 24.146-53.698.471-1.298.335-2.666-1.617-2.666z"/></mask><path d="M259.897 73.133c-11.181 0-22.839 8.182-22.839 8.182v-5.258c0-1.153-.459-1.615-1.609-1.615h-14.272c-1.151 0-1.841.693-1.841 1.615v112.14c0 1.158.461 1.85 1.612 1.85h14.5c.919 0 1.609-.692 1.609-1.85v-95.99s6.73-4.275 14.905-4.275c7.783 0 13.927 3.872 13.927 11.813v88.448c0 1.157.688 1.849 1.842 1.849h14.268c1.151 0 1.61-.926 1.61-1.849V94.718c-.001-14.078-8.634-21.585-23.712-21.585zm111.006-56.25h-14.271c-1.153 0-1.841.69-1.841 1.616V75.07c-5.479-2.107-10.466-3.22-14.498-3.22-23.176 0-39.087 22.213-39.087 64.927 0 36.592 15.478 56.217 35.676 56.217 8.513 0 15.542-4.891 20.688-9.479l3.115 5.296c.526.916.956 1.229 2.013 1.229l8.207.008c.92 0 1.612-.692 1.612-1.849v-169.7c-.002-1.155-.465-1.616-1.614-1.616zm-50.825 116.115c0-23.537 6.871-46.84 20.901-46.84 4.754 0 9.317 1.567 13.814 5.148v82.917c-3.515 1.918-7.938 3.684-12.716 3.684-15.258 0-21.999-18.141-21.999-44.909zm105.488-60.915c-23.766 0-35.495 31.168-35.495 65.086 0 35.504 16.73 55.402 38.238 55.402 9.455 0 18.867-3.731 25.039-7.169.945-.528 1.116-1.27.889-2.188l-1.805-7.5c-.225-.918-.686-1.374-1.826-1.374-.502 0-8.3 2.286-15.886 2.286-17.603 0-25.674-15.688-25.674-36.522v-5.063s8.748 1.212 14.004 1.212h33.209v-9.622c.001-35.525-12.408-54.548-30.693-54.548zm-1.143 49.732c-5.256 0-14.822 1.303-14.822 1.303s.127-3.824.587-7.488c2.059-19.481 6.693-29.336 14.692-29.336 6.956 0 11.723 10.082 12.867 27.729.226 3.667.226 7.792.226 7.792h-13.55zM192.234 86.65c-5.277-10.425-14.676-14.981-25.443-14.981-6.917 0-17.711 2.651-24.921 5.901-1.411.637-2.301 1.195-2.301 2.307 0 .662.328 1.421.689 2.077l4.858 10.427c.5 1.177 1.303 1.447 1.967 1.447.718 0 1.303-.34 1.947-.755 7.033-4.504 12.183-6.982 16.261-6.982 5.394 0 9.058 3.588 11.317 8.984 2.106 5.028 2.919 11.975 2.919 20.002 0 1.022.005 2.358.005 2.358-4.431-2.78-12.109-4.312-15.942-4.312-20.618 0-31.736 19.64-31.736 40.644 0 22.63 12.996 39.227 28.612 39.227 8.696 0 16.57-5.117 21.843-11.57 0 0 2.808 6.711 3.175 7.516.369.802.758 1.1 1.815 1.1l8.345.008c.919 0 1.61-.692 1.61-1.85v-65.051c-.004-15.987-.809-28.18-5.02-36.497zm-12.704 85.224c-4.089 3.96-8.984 6.033-13.391 6.033-4.405 0-7.809-2.04-10.54-5.821-3.324-4.596-4.874-11.676-4.874-19.521 0-12.407 4.569-25.138 14.252-25.138 4.793 0 10.058 1.564 14.552 5.148l.001 39.299zm352.093-97.448h-12.721c-1.421 0-2.146.746-2.512 1.714a8310.835 8310.835 0 00-8.386 22.195c-1.572 4.201-5.805 16.23-5.805 16.23l-.493-.004c-.018-.043-3.115-8.751-4.794-13.112-1.357-3.536-8.446-22.25-9.341-24.555-.48-1.24-1.016-2.468-2.835-2.468h-13.925c-1.531 0-2.397 1.685-1.904 2.73.498 1.047 22.684 51.714 22.684 51.714s-23.826 56.735-24.524 58.008c-.697 1.274.177 3.16 1.872 3.16h12.203c2.076 0 2.896-1.091 3.52-2.849 1.754-4.926 4.365-11.776 8.064-22.364 2.449-7.016 6.325-19.331 6.325-19.331h.427s4.243 12.551 5.822 16.654c3.987 10.377 9.086 23.931 9.629 25.362.563 1.496 1.351 2.529 2.777 2.529h13.84c1.369 0 2.004-1.567 1.358-2.931-1.54-3.254-14.683-35.27-23.81-56.318 0 0 23.683-52.401 24.146-53.698.471-1.298.335-2.666-1.617-2.666z" stroke="#fff" stroke-width="2" mask="url(#a)"/></g><path opacity=".5" d="M95.248 105.043l.547 1.496.406-1.54.007-.024c.974-3.69 4.964-18.81 6.19-23.1l-.481-.137.481.137c.864-3.026 7.256-22.76 13.465-41.886l2.848-8.77c2.074-6.388 4.02-12.38 5.602-17.264 1.146-3.537 2.102-6.494 2.777-8.598a498.769 498.769 0 001.011-3.187c.046-.153.086-.285.098-.348.079-.386.282-.703.6-.929.324-.229.793-.383 1.423-.383h16.045c.856 0 1.147.286 1.261.546.144.328.113.842-.103 1.452l-2.908 7.945a67901.21 67901.21 0 00-16.014 43.765c-9.938 27.192-21.021 57.588-25.784 70.929l-.029.082v62.969c0 .48-.142.815-.331 1.023a1.018 1.018 0 01-.78.327H86.745c-.472 0-.712-.137-.85-.307-.155-.19-.262-.517-.262-1.043v-63.476l-.035-.089c-5.714-14.41-15.642-40.478-24.194-63.051a28014.018 28014.018 0 01-11.092-29.34c-1.443-3.82-2.625-6.95-3.46-9.15-.416-1.1-.746-1.967-.978-2.574a35.207 35.207 0 00-.405-1.035c-.156-.332-.116-.832.164-1.279.27-.43.72-.738 1.288-.738h15.661c.9 0 1.413.31 1.747.709.359.426.551.997.705 1.584.149.568 1.474 4.387 3.39 9.842 1.922 5.476 4.454 12.64 7.03 19.93l.081.227c5.13 14.517 10.411 29.458 11.41 32.557l.003.01.004.009 8.296 22.709z" stroke="#fff"/><defs><clipPath id="clip0"><path fill="#fff" transform="translate(0 53)" d="M0 0h540v176H0z"/></clipPath></defs></svg>