<svg width="230" height="133" fill="none" xmlns="http://www.w3.org/2000/svg"><path d="M160.701 75.36c-.002 0-.425.377-.425.377-.606.54-1.229 1.118-1.981.829-.208-.076-.354-.352-.389-.566-.034-1.545.663-2.976 1.34-4.37l.174-.365c1.946-3.24 4.208-7.059 7.531-9.71.56-.402 1.167-.74 1.808-.476.148.137.32.376.32.615 0 .075-.068.276-.106.339-.928 1.495-1.812 3.065-2.672 4.572-1.679 2.977-3.421 6.055-5.6 8.756zm-18.002-7.637c-.127.089-2.372-.665-2.806-2.738-.368-1.784.864-3.178 2.057-3.881.511-.402 1.282-.54 1.847-.34.525.352.667.98.667 1.658 0 .415-.055.842-.104 1.231l-.01.089a16.722 16.722 0 01-1.651 3.981zm-8.574 8.429c-.229-.34-.305-.71-.313-1.111-.044-2.463 2.614-6.874 4.489-9.277h.004c.786 1.717 2.566 2.82 3.641 3.285-1.335 2.965-5.912 9.314-7.821 7.103zm32.395.437c-.445.302-1.069.07-.835-.62.581-1.76 2.892-5.343 2.892-5.343l6.436-11.384h-4.409a64.053 64.053 0 00-.657 1.131c-.204-.338-.814-1.092-1.065-1.255-1.077-.679-2.658-.358-3.748.258-4.74 2.764-8.198 8.224-10.926 12.483 0 0-2.871 4.733-4.465 5.085-1.244.1-1.116-1.57-1.062-1.96.481-2.814 1.598-5.49 2.724-7.914a61.018 61.018 0 007.277-5.928c5.152-4.912 9.496-10.477 10.131-11.72 0 0-.687.138-1.499.163-3.964 5.514-12.076 13.529-14.535 14.721 1.089-2.613 8.128-15.086 14.119-21.052l.942-.905c1.458-1.419 2.968-2.876 4.145-3.115.124-.012.284 0 .423.29.052 1.105-.36 1.921-.834 2.85l-.663 1.358s.94-.176 1.557-.378c.716-1.343 1.509-2.851 1.216-4.647-.097-.578-.517-1.017-1.065-1.118-1.787-.339-3.734.98-5.301 2.047l-.064.038c-8.055 6.293-14.857 15.363-20.804 27.748-.431.326-2.096.716-2.379.527.587-1.205 1.327-2.826 1.697-4.585.064-.502.123-1.017.123-1.52 0-1.08-.26-2.098-1.231-2.8-1.139-.566-2.546-.302-3.495.125-4.251 1.758-7.428 6.105-9.721 9.684-1.233 2.274-2.462 4.71-2.803 7.5-.24 2.185.249 3.591 1.495 4.295 1.281.653 2.894-.026 3.527-.352 4.307-2.26 7.316-6.795 9.688-10.94.094-.013 1.389-.05 2.369-.302.013 0 .018 0 .04.013-.056.188-.562 1.696-.562 1.696-1.504 4.396-2.199 7.385-.779 9.157 2.029 2.5 5.388-.088 8.121-3.505-.586 4.095 1.542 4.736 3.164 4.422 1.864-.502 3.94-2.487 4.904-3.505-.31 1.194-.225 3.33 1.47 3.543 1.162.214 2.031-.417 3.037-.957 3.609-1.96 7.93-8.49 9.052-10.378h-1.471c-1.595 2.403-3.624 5.554-6.176 7.05zm-55.602-24.384h4.131l2.331-3.776h-4.131l-2.331 3.776zm65.984-10.032c-3.15 1.785-6.415 2.94-10.367 2.538a60.645 60.645 0 00-3.145 3.806c5.547 1.407 11.428-1.72 14.708-4.697 3.469-3.003 5.249-6.783 5.249-6.783s-2.601 2.964-6.445 5.137zm-34.733-.954c-.657 7.512-6.512 11.921-7.961 12.272-.878.176-2.376-.213-1.039-3.366 1.97-4.246 5.332-7.85 8.94-9.697.088.314.085.514.06.791zm-11.41 18.93c-.419-.905-1.415-1.483-2.476-1.42-3.447.314-6.817 3.14-8.588 7.198-.928 2.085-1.435 3.806-1.768 6.544 1.072-1.23 3.258-3.253 5.739-4.358 0 0 .337-2.625 2.058-4.962.651-.967 1.955-2.525 3.418-2.11 1.279.427.83 3.957-.87 7.373-1.257 2.512-3.182 5.025-5.129 6.758-1.721 1.457-4.268 3.216-6.496 1.86-1.403-.83-2.119-2.563-1.968-4.8.671-6.342 3.566-11.744 7.71-17.899 4.272-5.715 8.982-11.581 15.327-14.71 1.294-.653 2.493-.804 3.528-.402 0 0-5.955 3.266-8.795 9.309-.722 1.532-1.726 3.604-.715 5.438.529.955 1.467 1.03 2.223.98 3.48-.804 5.728-4.045 7.565-7.009 1.065-2.248 2.012-4.484 2.012-6.972 0-.301-.016-.703-.041-1.005 1.662-.879 5.072.679 5.072.679 2.664.88 8.337 5.213 10.25 6.042.934-1.08 2.468-2.713 3.331-3.53l-1.25-.766c-2.002-1.219-4.118-2.374-6.2-3.517-4.73-2.575-8.58-1.67-10.539-.967-.77.276-1.474.515-1.474.515-1.454-1.583-3.839-1.433-5.596-1.005-6.319 1.808-12.186 6.217-18.476 13.867-4.624 5.992-7.493 11.168-9.021 16.28-1.179 3.441-1.537 8.503 1.339 11.505 2.446 2.55 5.689 1.998 7.979 1.08 4.962-2.436 9.421-7.687 11.643-13.729.537-1.796 1.132-4.333.208-6.268zM75.761 54.32a558.61 558.61 0 01-.843 1.934c-.12.1-.311.05-.53 0l-.374-.063c-1.176-.364-2.063-1.143-2.337-2.073-.377-1.809 1.172-3.228 1.855-3.743.655-.452 1.674-.69 2.265-.226.365.427.503.98.503 1.583 0 .816-.252 1.733-.539 2.588zm-1.792 3.63s-.038.113-.057.15c-.005 0-1.897 3.077-1.897 3.077-1.142 1.52-2.567 3.43-4.35 4.347-.528.175-1.258.289-1.63-.176-.789-.942-.382-2.248-.052-3.303l.117-.377c.947-2.562 2.45-4.824 3.912-6.922a.194.194 0 01.074-.025c.004.013.01.013.012.038.918 1.758 2.639 2.574 3.925 2.952.008 0 .017.012.017.037 0 .038-.021.088-.071.201zm23.666-2.023c.847-1.168 3.31-4.296 3.91-4.823 2.02-1.772 2.827-.992 2.897-.44a396.207 396.207 0 01-6.201 10.69c.004-.013-.654.992-.654.992-.924 1.406-1.855 2.612-3.372 3.454-.216.063-.573.088-.81-.088-.286-.189-.398-.503-.366-.83.09-1.08 1.193-4.383 4.596-8.955zM76.661 48.29c-2.61-1.708-7.859 1.558-12.062 7.16-3.844 5.024-5.503 10.865-3.697 13.565 2.687 3.178 7.675-1.444 9.796-3.918l.274-.29c1.442-1.544 2.557-3.404 3.636-5.187 0 0 .99-1.633 1.038-1.709a23.189 23.189 0 002.183-.527c-.012.037-3.182 5.35-2.859 7.989.1.804.024 3.743 2.902 4.635 3.835.641 6.898-2.324 9.6-4.962 0 0 .46-.439.72-.69l-.151.615c-1.123 3.894.39 4.71 1.337 5.012 2.862.83 6.28-3.316 6.291-3.316-.088 1.306-.348 2.386 1.033 3.253 1.303.465 2.621-.244 3.624-.91 3.61-2.537 6.518-6.508 8.867-9.94h-1.498c-.018 0-3.698 5.318-6.088 6.474-.003 0-.438.222-.689.046-.31-.264-.187-.812.004-1.2.012-.026 9.226-15.962 9.226-15.962h-4.351s-.475.766-.513.817c-.03-.025-.099-.157-.148-.22-2.695-3.718-8.8 2-13.395 8.632-1.769 2.55-4.021 5.422-6.357 7.495 0 0-3.46 3.162-4.939.89-.54-.955-.374-2.35-.069-3.267 1.721-4.887 4.688-9.321 8.063-11.997.953-.74 1.988-.955 2.502-.64.49.289.569 1.004.26 1.494-.787-.025-1.417.213-1.929.74-1.008 1.056-1.359 2.074-1.038 3.028 1.558 2.211 4.665-2.16 4.514-4.823-.053-.955-.564-1.86-1.326-2.3-1.136-.677-2.87-.502-3.992.039-1.501.565-3.878 2.537-5.265 4.07-1.747 1.922-4.743 4.057-5.68 3.818.307-.817 2.838-5.98.176-7.913zm21.867 27.95c-5.123-3.292-12.077-3.87-23.29-.767-11.955 2.802-15.941 4.598-21.176.993-2.01-1.771-2.732-4.623-2.193-8.73 1.248-6.695 4.623-13.139 10.617-20.286 3.346-3.718 6.45-6.909 10.548-8.19 3.14-.803 2.847 1.658 2.467 2.01-.401 0-1.075.063-1.596.402-.422.327-1.582 1.382-1.645 2.801-.09 2.173 2.166 1.72 3.138.528 1.049-1.345 2.598-3.92 1.38-6.319-.511-.854-1.394-1.444-2.49-1.645-3.752-.214-7.248 1.57-10.473 3.542-7.052 4.886-12.695 11.657-15.887 19.068-1.84 4.472-3.506 10.877-1.01 16.09 1.93 3.618 5.938 5.54 10.72 5.138 3.353-.352 7.407-1.432 10.135-2.085 2.727-.654 16.687-5.439 21.274 2.89 0 0 1.526-2.953 5.338-3.016 3.133-.288 7.655.905 10.947 3.316-1.097-1.645-4.207-4.07-6.801-5.74h-.003z" fill="#fff"/></svg>