<svg width="93" height="48" fill="none" xmlns="http://www.w3.org/2000/svg"><path fill-rule="evenodd" clip-rule="evenodd" d="M4.12 24.025C4.12 12 23.343 2.214 46.975 2.214c23.628 0 42.856 9.785 42.856 21.811 0 12.027-19.228 21.812-42.856 21.812-23.632 0-42.855-9.785-42.855-21.812zm88.876 0c0-13.24-20.603-23.964-46.02-23.964C21.557.06.955 10.79.955 24.03.955 37.27 21.557 48 46.975 48c25.417-.01 46.02-10.74 46.02-23.976z" fill="#fff"/><path fill-rule="evenodd" clip-rule="evenodd" d="M15.763 30.765h-3.435v-14.35h3.435v5.39h5.281v-5.39h3.435v14.35h-3.434v-6.169h-5.282v6.169zm22.304-3.009c-.835 2.952-3.538 3.403-5.494 3.403-1.39 0-5.681-.306-5.681-5.613 0-3.612 2.474-5.583 5.93-5.583 5.136 0 5.411 4.514 5.453 5.785l.02.57h-8.114c.02 1.007.477 2.75 2.537 2.75.918 0 1.873-.389 2.143-1.312h3.206zm-3.06-3.18c-.042-2.237-1.459-2.522-2.227-2.522-.415 0-2.288-.042-2.599 2.521h4.825zm8.403-2.974c.857-1.146 2.247-1.64 3.664-1.64 1.432 0 3.538.39 3.538 4.27v6.538h-3.16v-6.029c0-1.027-.103-2.687-1.79-2.687-2.08 0-2.121 2.397-2.121 2.848v5.868h-3.16V20.352h3.04v1.25h-.01zm16.547-1.25h3.803l-4.177 4.099 4.556 6.314h-3.767l-2.957-4.322-1.08 1.084v3.238h-3.16v-14.35h3.16v7.896l3.622-3.959zm8.031 4.223c.31-2.563 2.184-2.521 2.604-2.521.768 0 2.18.285 2.226 2.521h-4.83zm4.68 3.18c-.27.924-1.23 1.313-2.143 1.313-2.06 0-2.522-1.743-2.537-2.75h8.114l-.02-.57c-.042-1.271-.312-5.785-5.453-5.785-3.45 0-5.93 1.971-5.93 5.582 0 5.308 4.285 5.614 5.68 5.614 1.956 0 4.66-.451 5.49-3.403h-3.201zm8.674-11.341v14.35h-3.16v-14.35h3.16z" fill="#fff"/></svg>