<svg width="230" height="133" fill="none" xmlns="http://www.w3.org/2000/svg"><g clip-path="url(#clip0)" fill="#fff"><path fill-rule="evenodd" clip-rule="evenodd" d="M67.293 66.229c0-3.413-2.445-5.326-6.848-5.326h-2.108v10.84c.3.076 1.73.414 3.085.414 3.727-.002 5.87-2.14 5.87-5.928zm-8.956-7.164h1.617c3.462 0 5.72-1.388 5.72-4.614.001-3.038-1.618-4.463-5.08-4.463-.79 0-2.106.262-2.257.3v8.777zm-4.364-4.352c0-4.387-.528-5.775-2.973-6.675V48h9.257c6.81 0 9.858 2.137 9.858 6.34 0 2.663-2.106 4.724-5.343 5.213 3.913.15 7 2.55 7 6.64 0 4.763-3.576 7.351-8.392 7.914-.903.113-1.807.15-2.822.15h-6.585V54.714zm29.767-1.537l-3.575 10.878h7.263l-3.65-10.878h-.039zm12.228 21.08h-4.854l-2.86-7.952h-8.805l-2.748 7.952h-3.047l7.261-20.292c.415-1.088.716-2.402.716-3.227 0-1.425-.716-2.212-2.22-2.7V48h6.773l9.784 26.256zm6.624-19.543c0-4.39-.79-5.777-3.236-6.677V48h7.601v26.256h-4.365V54.713zm13.661 0c0-4.39-.789-5.777-3.236-6.677V48h7.602v12.903L131.341 48h3.538l-8.391 9.902 10.084 16.354h-5.38l-7.714-13.277-2.861 3.6v9.677h-4.366V54.713h.002zm31.834-1.537l-3.574 10.878h7.263l-3.649-10.878h-.04zm12.228 21.08h-4.854l-2.859-7.952h-8.805l-2.748 7.952h-3.047l7.263-20.292c.413-1.088.714-2.402.714-3.227 0-1.425-.714-2.212-2.22-2.7V48h6.773l9.783 26.256zm5.123 0V54.715c0-4.39-.79-5.777-3.237-6.677V48h7.602v23.854c.225 0 1.43.3 2.634.3h1.129c4.629 0 5.795-1.612 6.398-3.45h.038v5.552h-14.564z"/><path d="M174.599 54.03h.493v-.62h2.884v-.844l-2.95-2.203h-.427v2.217h-1.695v.83h1.695v.62zm.495-3.017l2.166 1.567h-2.166v-1.567zm2.529 5.373c0 .563-.311.853-.834.853-.644 0-.971-.361-.971-1.133v-.145h-.405c0 .974-.094 1.56-.883 1.56-.862 0-1.247-.657-1.247-1.79v-.595h-.377v.592c0 1.805.573 2.666 1.63 2.666.759 0 1.188-.62 1.172-1.437h.008c.058.672.638 1.133 1.153 1.133.833 0 1.196-.614 1.196-1.566 0-.42-.151-.968-.333-1.314h-.682v.014c.317.31.573.779.573 1.163zm-4.812 4.65c0 1.408 1.334 1.857 2.825 1.857 1.434 0 2.427-.557 2.427-1.857 0-1.308-.993-1.863-2.427-1.863-1.491 0-2.825.456-2.825 1.863zm4.847 0c0 .672-.811.974-2.036.974-1.216 0-2.405-.145-2.405-.974 0-.837 1.189-.982 2.405-.982 1.225 0 2.036.304 2.036.982zm-1.058 4.016v-1.38h-.008c-.074.368-.319.499-.603.455l-3.087-.455v.477l2.84.398v.008l-2.84 1.212v.434l2.84 1.234v.008l-2.84.354v.859l3.696-.535v-1.33h-.008c-.052.209-.168.324-.298.324a.722.722 0 01-.275-.05l-2.064-.894v-.008l2.647-1.111zM57.39 80.506v-.54h-3.416v5.667h.606v-5.125h2.81v-.002zm4.51 5.125v-5.666h-3.128v2.3c0 2.356-.503 2.825-1.207 2.825h-.151v.54h.287c1.085 0 1.661-.794 1.661-3.184v-1.942h1.932v5.125h.607v.002zm5.11-5.666h-.646l-1.382 3.352-1.534-3.352h-.646l1.877 4.028-.232.532c-.167.39-.359.565-.75.565h-.358v.54h.494c.566 0 .894-.365 1.119-.884l2.058-4.78zm4.792 4.004c0-1.002-.686-1.672-1.749-1.672h-1.541v-1.791h2.937v-.54h-3.544v5.667h2.148c1.06-.002 1.749-.67 1.749-1.664zm-.608 0c0 .707-.439 1.123-1.199 1.123H68.51V82.84h1.486c.76-.002 1.199.411 1.199 1.129zm6.02 1.662v-5.666h-.574l-2.89 4.616v-4.616h-.606v5.668h.574l2.89-4.624v4.624h.606v-.002zm5.556 0v-5.666h-.606v2.539h-2.698v-2.539h-.606v5.668h.606v-2.587h2.698v2.587h.606v-.002zm5.558 0v-5.666h-.606v2.539h-2.7v-2.539h-.607v5.668h.607v-2.587h2.698v2.587h.608v-.002zm5.604 0l-2.084-5.668h-.51l-2.093 5.668h.646l.455-1.283h2.483l.455 1.283h.648zm-1.276-1.805h-2.124l1.069-2.992 1.055 2.992zm3.767-.527h1.406v2.332h.606v-5.666h-2.116c-1.053 0-1.757.652-1.757 1.664 0 .811.47 1.401 1.222 1.584l-1.31 2.42h.71l1.239-2.334zm1.406-.54h-1.454c-.758 0-1.207-.422-1.207-1.132 0-.708.447-1.131 1.207-1.131h1.454v2.262zm8.136 1.21c0-1.002-.686-1.672-1.749-1.672h-1.542v-1.791h2.938v-.54h-3.546v5.667h2.148c1.063-.002 1.751-.67 1.751-1.664zm-.608 0c0 .707-.439 1.123-1.199 1.123h-1.486V82.84h1.486c.76-.002 1.199.411 1.199 1.129zm5.909 1.662l-2.084-5.668h-.511l-2.092 5.668h.646l.455-1.283h2.483l.454 1.283h.649zm-1.279-1.805h-2.124l1.069-2.992 1.055 2.992zm6.268 1.805v-5.666h-.574l-2.89 4.616v-4.616h-.606v5.668h.574l2.89-4.624v4.624h.606v-.002zm-.869-7.028h-.511c-.032.39-.263.589-.654.589s-.622-.199-.654-.588h-.511c.048.707.503 1.001 1.167 1.001.66.002 1.115-.292 1.163-1.002zm3.152 7.028v-2.952l2.611 2.952h.806l-2.707-2.976 2.491-2.69h-.766l-2.435 2.698v-2.698h-.606v5.668h.606v-.002zm8.193 0l-2.084-5.666h-.511l-2.092 5.668h.646l.455-1.283h2.483l.455 1.283h.648v-.002zm-1.279-1.805h-2.123l1.07-2.992 1.053 2.992zm5.957 1.805v-5.666h-3.129v2.3c0 2.356-.502 2.825-1.204 2.825h-.152v.54h.287c1.087 0 1.661-.794 1.661-3.184v-1.942h1.933v5.125h.604v.002zm5.534-1.662c0-1.002-.694-1.672-1.757-1.672h-1.525v-2.332h-.607v5.668h2.132c1.053-.002 1.757-.67 1.757-1.664zm-.616 0c0 .707-.439 1.123-1.199 1.123h-1.469V82.84h1.469c.76-.002 1.199.411 1.199 1.129zm5.502.024h-.606c-.152.691-.654 1.147-1.366 1.147a1.37 1.37 0 01-.981-.398c-.359-.366-.399-.755-.399-1.942 0-1.185.04-1.576.399-1.942.247-.255.606-.398.981-.398.71 0 1.198.453 1.35 1.147h.622c-.192-1.067-.949-1.688-1.972-1.688-.559 0-1.071.207-1.454.589-.535.533-.535 1.09-.535 2.292 0 1.203 0 1.76.535 2.292.383.382.893.588 1.454.588 1.013-.002 1.788-.622 1.972-1.687zm1.98 1.638v-2.952l2.611 2.952h.805l-2.706-2.976 2.491-2.69h-.766l-2.435 2.698v-2.698h-.606v5.668h.606v-.002zm8.19 0l-2.083-5.668h-.511l-2.092 5.668h.646l.455-1.283h2.483l.454 1.283h.648zm-1.278-1.805h-2.124l1.071-2.992 1.053 2.992zm3.769-.527h1.406v2.332h.606v-5.666h-2.115c-1.053 0-1.757.652-1.757 1.664 0 .811.47 1.401 1.22 1.584l-1.31 2.42h.71l1.24-2.334zm1.406-.54h-1.454c-.757 0-1.204-.422-1.204-1.132 0-.708.447-1.131 1.204-1.131h1.454v2.262zm8.145 1.321c0-.43-.144-.78-.423-1.052-.136-.135-.24-.198-.503-.31.216-.095.303-.143.423-.262.271-.254.415-.596.415-1.002 0-.89-.67-1.489-1.677-1.489h-2.14v5.668h2.211c1.053-.002 1.694-.59 1.694-1.553zm-.696-2.594c0 .62-.415.986-1.119.986h-1.486v-1.966h1.486c.704 0 1.119.366 1.119.98zm.087 2.562c0 .636-.438 1.044-1.14 1.044h-1.55v-2.077h1.55c.702-.002 1.14.395 1.14 1.033zm5.798-1.64c0-.692-.04-1.41-.535-1.902a2.029 2.029 0 00-1.454-.588c-.558 0-1.071.206-1.454.588-.486.485-.534 1.177-.534 1.855v.437c0 1.131.016 1.775.534 2.292a2.02 2.02 0 001.454.588c.567 0 1.071-.206 1.454-.588.519-.517.535-1.163.535-2.292v-.39zm-.609.668c0 .652-.008 1.267-.399 1.656a1.371 1.371 0 01-.983.406 1.37 1.37 0 01-.981-.406c-.367-.366-.399-.922-.399-1.537v-.564c0-.78 0-1.37.399-1.767a1.392 1.392 0 011.964 0c.375.373.399.964.399 1.632v.58zm1.263 2.014V87h.598v-1.37h3.809V87h.598v-1.91h-.678v-5.125h-3.105v1.91c0 1.384-.199 2.404-.718 3.215h-.504zm1.182 0c.455-.795.614-1.791.614-2.84v-1.744h1.925v4.584h-2.539zm8.934.54l-2.084-5.667h-.51l-2.092 5.668h.646l.455-1.283h2.482l.455 1.283H180zm-1.278-1.804h-2.124l1.071-2.992 1.053 2.992z"/></g><defs><clipPath id="clip0"><path fill="#fff" transform="translate(51 48)" d="M0 0h129v39H0z"/></clipPath></defs></svg>