<svg width="149" height="52" fill="none" xmlns="http://www.w3.org/2000/svg"><g clip-path="url(#clip0)"><path d="M56.989 7.309a51.98 51.98 0 00-.479 2.378l-.048.034h-.31l-.05-.034-.03-.977c-.012-.45-.067-.721-.162-.816a.43.43 0 00-.201-.114c-.109-.022-.393-.038-.856-.047l-.74-.016-2.929.016c-.402.003-.629.132-.683.385-.026.13-.051.655-.073 1.572l-.051.035h-.31l-.048-.035-.179-.958c-.035-.2-.08-.408-.128-.633l-.172-.787.038-.142c.278.022.48.035.607.035.045 0 .118-.007.214-.016.137-.193.294-.424.47-.696l3.106-4.812a.72.72 0 00.09-.17c0-.096-.441-.19-1.32-.285l-.05-.045V.843l.044-.029c.31.02.885.029 1.728.029.868 0 1.41-.01 1.631-.029l.064.038c-.029 1.142-.045 1.86-.045 2.157V5.11c0 .617.016 1.316.045 2.094l.137.006a6.37 6.37 0 00.658-.044l.032.142zm-2.292-1.907V3.92l-.02-2.396-.118-.007c-.118.187-.294.468-.523.841l-2.8 4.857h3.438a67.41 67.41 0 00.023-1.812zm8.646.68a10.695 10.695 0 00-.109 1.616l-.051.047-3.592-.028c-.6 0-1.022.01-1.27.028l-.049-.047v-.14l.026-.06c.243-.151.377-.25.396-.287.029-.063.048-.278.054-.651l.016-1.098V2.987c0-.775-.022-1.28-.064-1.518-.016-.095-.073-.155-.169-.18a5.736 5.736 0 00-.578-.048l-.048-.047V.859l.048-.045c.332.02.846.029 1.542.029.62 0 1.798-.01 3.532-.029l.054.038-.064.544c-.02.174-.035.32-.045.44l-.035.455-.048.054h-.287l-.051-.048c-.003-.442-.029-.695-.08-.758-.035-.045-.214-.083-.53-.108a10.74 10.74 0 00-.837-.038c-.287 0-.577.013-.868.035-.035.341-.054.816-.054 1.423v1.011c.258.016.47.026.632.026l.648-.007c.303-.003.476-.028.514-.072.054-.06.086-.279.102-.661l.051-.048h.307l.051.048a28.85 28.85 0 000 2.084l-.051.044h-.332l-.051-.048c0-.376-.026-.597-.08-.667-.054-.07-.214-.117-.479-.139a8.176 8.176 0 00-1.312 0v1.493c0 .426.01.84.025 1.242h.67c.962 0 1.552-.038 1.77-.114a.169.169 0 00.08-.053.893.893 0 00.092-.294l.118-.608.048-.053h.3l.058.047zm8.62 1.628l-.048.035a60.042 60.042 0 00-1.52-.028c-.711 0-1.22.01-1.522.028l-.045-.044-.007-.332.048-.047c.336-.02.53-.035.578-.048a.216.216 0 00.17-.18c.041-.234.063-.74.063-1.518V2.942c0-.657-.016-1.192-.044-1.6h-2.998c-.03.408-.045.943-.045 1.6v2.631c0 .775.022 1.28.064 1.518.016.095.073.155.169.18a5.5 5.5 0 00.572.047l.054.048v.332l-.045.044a39.557 39.557 0 00-3.046 0l-.045-.044v-.329l.048-.047c.335-.02.53-.035.578-.048a.216.216 0 00.17-.18c.04-.234.063-.74.063-1.518v-2.59c0-.774-.022-1.28-.064-1.517-.016-.095-.073-.155-.169-.18a5.736 5.736 0 00-.578-.048l-.048-.047V.859l.048-.045 2.689.029h2.777c.393 0 1.086-.01 2.085-.029l.048.045v.332l-.054.047a5.62 5.62 0 00-.578.048.216.216 0 00-.17.18c-.04.234-.063.74-.063 1.517V5.57c0 .775.022 1.28.064 1.518a.212.212 0 00.17.18c.044.012.239.028.583.047l.048.048v.347zm8.219-.013l-.045.048a79.773 79.773 0 00-1.325-.029c-.606 0-1.168.01-1.689.029l-.044-.048v-.306l.05-.054.432-.025c.182-.01.271-.073.271-.19 0-.07-.045-.221-.137-.458l-.4-1.031a90.412 90.412 0 00-2.538 0l-.217.597c-.166.452-.246.737-.246.85 0 .124.077.197.233.222.087.013.253.026.505.038l.048.048V7.7l-.048.047a50.696 50.696 0 00-1.175-.028c-.134 0-.47.01-1.003.028l-.057-.047v-.32l.054-.047c.339-.02.546-.086.626-.2.077-.113.367-.793.872-2.039L75.635 1.9l.434-1.12h.703l2.618 6.1c.102.23.195.363.278.392.108.038.265.06.47.06l.044.053v.313zM77.05 5.064l-1.057-2.565-1.012 2.565c.271.01.62.015 1.053.015.415 0 .754-.006 1.016-.015zm9.574-2.72c0 .67-.23 1.195-.692 1.572a2.424 2.424 0 01-1.568.565c-.198 0-.396-.022-.597-.07a1.886 1.886 0 00-.173-.35l.103-.108c.137.045.265.07.38.07.332 0 .6-.117.8-.351.202-.234.301-.56.301-.98 0-.91-.412-1.366-1.239-1.366-.099 0-.297.019-.594.06-.028.08-.044.61-.044 1.6v2.586c0 .775.022 1.28.064 1.518.016.095.073.155.169.18.028.007.255.022.677.048l.054.053v.323l-.048.047c-.45-.019-.99-.028-1.619-.028-.709 0-1.216.01-1.523.028l-.048-.044v-.329l.055-.054c.332-.018.523-.034.571-.047a.216.216 0 00.17-.18c.04-.234.063-.74.063-1.518V2.986c0-.775-.022-1.28-.064-1.518-.016-.095-.073-.155-.169-.18a5.723 5.723 0 00-.578-.047l-.048-.054V.86l.055-.047c.322.019.817.028 1.488.028.277 0 .673-.006 1.194-.016.52-.01.82-.015.9-.015.904 0 1.488.227 1.76.68.13.236.2.521.2.853zM93.7.842c-.038.24-.06.49-.063.749l-.01.816-.048.047h-.31l-.054-.044c-.016-.417-.035-.66-.054-.734-.038-.13-.144-.205-.316-.23-.067-.01-.377-.016-.93-.016h-.66c-.007.114-.01.566-.01 1.36v2.779c0 .774.023 1.28.064 1.517.016.095.073.155.17.18.047.013.242.029.577.048l.048.047v.33l-.048.047a29.06 29.06 0 00-1.523-.029c-.705 0-1.213.01-1.52.029l-.044-.045v-.325l.05-.048a5.62 5.62 0 00.579-.047.216.216 0 00.169-.18c.041-.234.064-.74.064-1.518V2.792c0-.806-.007-1.258-.016-1.36h-.706c-.59 0-.932.02-1.031.055a.209.209 0 00-.109.072 1.012 1.012 0 00-.073.313 5.696 5.696 0 00-.045.535l-.048.047h-.31l-.054-.047-.01-.838a5.347 5.347 0 00-.06-.73l.045-.048c.195.032.903.047 2.123.047h2.002c1.127 0 1.836-.015 2.123-.047l.038.05zm8.11 6.855l-.044.048a80.002 80.002 0 00-1.325-.029c-.607 0-1.169.01-1.69.029l-.044-.048v-.306l.05-.054.432-.025c.182-.01.271-.073.271-.19 0-.07-.044-.221-.137-.458l-.4-1.031a90.28 90.28 0 00-2.537 0l-.218.597c-.166.452-.245.737-.245.85 0 .124.076.197.233.222.086.013.252.026.504.038l.048.048V7.7l-.048.047a50.68 50.68 0 00-1.175-.028c-.134 0-.47.01-1.002.028l-.051-.044v-.32l.054-.047c.338-.019.546-.085.626-.2.076-.113.367-.793.871-2.039l1.284-3.2L97.7.78h.703l2.618 6.1c.102.23.194.363.277.392.109.038.265.06.47.06l.044.053v.313h-.003zm-3.132-2.633l-1.057-2.565-1.012 2.565c.272.01.62.015 1.054.015.418 0 .757-.006 1.015-.015zm13.419 2.633l-.048.048a29.036 29.036 0 00-1.523-.029c-.705 0-1.213.01-1.519.029l-.045-.045v-.332l.051-.047c.335-.02.53-.035.578-.048a.216.216 0 00.169-.18c.042-.234.064-.74.064-1.518v-3.31L108.722 4.5c-.063.124-.277.582-.641 1.37l-.904 1.957h-.332a39.871 39.871 0 00-.696-1.53l-.693-1.455-1.293-2.666v3.396c0 .775.022 1.28.064 1.518.016.095.073.155.169.18.051.013.243.029.578.048l.048.047v.332l-.048.044a21.256 21.256 0 00-2.197 0l-.048-.044v-.329l.048-.047c.336-.02.53-.035.578-.048a.218.218 0 00.17-.18c.041-.234.063-.74.063-1.518v-2.59c0-.774-.022-1.28-.063-1.517-.016-.095-.074-.155-.17-.18a5.703 5.703 0 00-.578-.047l-.048-.048V.858l.048-.044a24.294 24.294 0 002.35 0l.463 1.046.316.674 1.571 3.253.757-1.517 1.181-2.501c.138-.298.275-.617.406-.958.37.019.622.028.75.028.645 0 1.14-.01 1.482-.028l.047.044v.338l-.047.044c-.336.02-.53.035-.578.048a.218.218 0 00-.17.18c-.041.234-.063.74-.063 1.518v2.586c0 .775.022 1.28.063 1.518.016.095.074.155.17.18.048.013.242.029.578.047l.047.048v.335h-.003zm6.392-1.615a10.766 10.766 0 00-.108 1.616l-.051.047-3.592-.028c-.601 0-1.022.01-1.271.028l-.048-.047v-.14l.025-.06c.243-.151.377-.25.396-.287.029-.063.048-.278.055-.651l.016-1.098V2.987c0-.775-.023-1.28-.064-1.518a.212.212 0 00-.169-.18 5.777 5.777 0 00-.578-.048l-.048-.047V.859l.048-.045c.332.02.846.029 1.542.029.619 0 1.797-.01 3.531-.029l.054.038-.064.544c-.019.174-.035.32-.044.44l-.035.455-.048.054h-.288l-.051-.048c-.003-.442-.028-.695-.079-.758-.036-.045-.214-.083-.53-.108a10.93 10.93 0 00-.837-.038c-.287 0-.578.013-.868.035-.036.341-.055.816-.055 1.423v1.011c.259.016.47.026.632.026l.649-.007c.303-.003.475-.028.514-.072.054-.06.086-.279.102-.661l.051-.048h.306l.051.048c-.012.367-.019.699-.019 1.002 0 .329.007.69.019 1.082l-.051.044h-.332l-.051-.048c0-.376-.025-.597-.08-.667-.054-.07-.213-.117-.478-.139a8.216 8.216 0 00-1.313 0v1.493c0 .426.01.84.026 1.242h.67c.961 0 1.552-.038 1.769-.114a.17.17 0 00.08-.053c.032-.045.064-.143.093-.294l.118-.608.048-.053h.3l.057.047zm8.771 1.616l-.051.047a29.005 29.005 0 00-1.52-.028c-.705 0-1.213.01-1.519.028l-.052-.044v-.332l.055-.047c.335-.02.53-.035.578-.048a.217.217 0 00.169-.18c.041-.234.064-.74.064-1.518v-1.18c-.169-.015-.703-.024-1.6-.024-.83 0-1.376.009-1.641.025v1.18c0 .774.022 1.28.064 1.517.016.095.073.155.169.18.048.013.243.029.578.048l.051.047v.329l-.045.047a29.12 29.12 0 00-1.519-.028c-.709 0-1.217.01-1.523.028l-.048-.044v-.332l.048-.047c.335-.02.53-.035.578-.048a.217.217 0 00.169-.18c.041-.234.064-.74.064-1.518v-2.59c0-.774-.023-1.28-.064-1.517a.212.212 0 00-.169-.18 5.777 5.777 0 00-.578-.048l-.048-.047V.859l.048-.045c.316.02.823.029 1.523.029.715 0 1.222-.01 1.519-.029l.045.045v.338l-.051.044a5.77 5.77 0 00-.578.048.216.216 0 00-.169.18c-.042.234-.064.74-.064 1.518v.806c.348.016.83.025 1.443.025.961 0 1.561-.01 1.798-.025v-.806c0-.775-.023-1.28-.064-1.518a.212.212 0 00-.169-.18 5.643 5.643 0 00-.578-.048l-.055-.047V.859l.052-.045c.319.02.827.029 1.519.029.719 0 1.226-.01 1.52-.029l.051.045v.338l-.044.044a5.662 5.662 0 00-.585.048.216.216 0 00-.169.18c-.041.234-.064.74-.064 1.518v2.586c0 .775.023 1.28.064 1.518.016.095.073.155.169.18a5.6 5.6 0 00.578.047l.051.048v.332zm7.133-6.856c-.038.24-.061.49-.064.749l-.01.816-.047.047h-.31l-.054-.044c-.016-.417-.036-.66-.055-.734-.038-.13-.143-.205-.316-.23-.067-.01-.377-.016-.929-.016h-.661c-.006.114-.009.566-.009 1.36v2.779c0 .774.022 1.28.063 1.517.016.095.074.155.17.18.048.013.242.029.578.048l.048.047v.33l-.048.047a29.086 29.086 0 00-1.523-.029c-.706 0-1.214.01-1.52.029l-.045-.045v-.325l.051-.048c.335-.019.53-.035.578-.047a.216.216 0 00.169-.18c.042-.234.064-.74.064-1.518V2.792c0-.806-.006-1.258-.016-1.36h-.705c-.591 0-.933.02-1.032.055a.221.221 0 00-.108.072.999.999 0 00-.074.313 5.732 5.732 0 00-.044.535l-.048.047h-.31l-.054-.047-.01-.838a5.375 5.375 0 00-.06-.73l.044-.048c.195.032.904.047 2.123.047h2.002c1.127 0 1.836-.015 2.124-.047l.038.05zM57.257 17.413c0 1.205-.355 2.147-1.063 2.833-.69.664-1.629 1-2.82 1-1.127 0-2.011-.313-2.653-.943-.642-.629-.964-1.502-.964-2.618 0-1.568.603-2.656 1.813-3.256.55-.276 1.226-.411 2.031-.411 1.15 0 2.043.297 2.682.894.648.604.974 1.439.974 2.501zm-1.523.256c0-.945-.192-1.697-.575-2.25-.383-.557-.945-.835-1.686-.835-.977 0-1.625.436-1.944 1.305a4.286 4.286 0 00-.246 1.502c0 1.009.188 1.803.562 2.388.39.603.97.904 1.743.904.939 0 1.568-.459 1.89-1.376a4.96 4.96 0 00.256-1.637zm8.483 1.255c0 .718-.29 1.268-.875 1.648-.498.328-1.13.493-1.896.493-.157 0-.457-.01-.904-.026-.271-.01-.498-.015-.683-.015-.16 0-.674.01-1.536.028l-.045-.035v-.341l.048-.048c.335-.019.53-.034.578-.05a.216.216 0 00.17-.18c.04-.234.063-.74.063-1.518v-2.586c0-.778-.022-1.281-.064-1.518-.016-.095-.073-.155-.169-.18a5.708 5.708 0 00-.578-.048l-.048-.047v-.332l.048-.045 2.673.029 2.04-.01c.233-.006.43-.019.594-.038l.054.048c-.038.224-.06.468-.064.727l-.01.838-.047.05h-.316l-.048-.044-.03-.566c-.034-.25-.124-.401-.267-.449-.102-.034-.438-.053-1.01-.053h-1.292c-.029.81-.045 1.309-.045 1.495v.936c.9 0 1.545.035 1.935.104 1.15.2 1.724.778 1.724 1.733zm-1.491.095c0-.465-.137-.825-.415-1.075-.246-.221-.569-.341-.968-.357a23.07 23.07 0 00-.785-.01v2.931c.153.022.342.035.562.035.377 0 .648-.028.82-.088.246-.089.444-.266.594-.528.128-.235.192-.538.192-.908zm8.234-3.36c0 .67-.23 1.195-.692 1.57a2.424 2.424 0 01-1.568.567c-.198 0-.396-.022-.597-.07a1.883 1.883 0 00-.173-.35l.102-.108c.138.044.266.07.38.07.332 0 .6-.117.802-.352.201-.233.3-.56.3-.98 0-.91-.412-1.366-1.239-1.366a5.31 5.31 0 00-.594.06c-.028.08-.044.61-.044 1.6v2.587c0 .778.022 1.28.063 1.517.016.095.074.155.17.18.028.007.255.023.676.051l.055.054v.323l-.048.047a39.19 39.19 0 00-1.619-.029c-.709 0-1.216.01-1.523.029l-.048-.044v-.33l.055-.053c.332-.019.523-.035.571-.05a.216.216 0 00.17-.18c.04-.235.063-.74.063-1.518v-2.587c0-.778-.022-1.28-.064-1.518-.016-.094-.073-.154-.169-.18a5.694 5.694 0 00-.578-.047l-.048-.054v-.322l.055-.048c.322.02.817.029 1.487.029.278 0 .674-.007 1.195-.016.52-.01.82-.016.9-.016.903 0 1.488.228 1.76.68.13.237.2.521.2.854zm8.127 5.353l-.045.048a79.05 79.05 0 00-1.325-.029c-.607 0-1.169.01-1.69.029l-.044-.048v-.306l.051-.054.431-.026c.182-.009.272-.072.272-.19 0-.069-.045-.22-.138-.458l-.399-1.03a90.504 90.504 0 00-2.538 0l-.217.597c-.166.452-.246.737-.246.85 0 .124.077.197.233.222.086.013.252.025.505.038l.047.05v.314l-.047.047a50.983 50.983 0 00-1.175-.028c-.135 0-.47.009-1.003.028l-.051-.044v-.316l.054-.051c.339-.02.546-.085.626-.2.077-.113.367-.793.872-2.039l1.29-3.193.434-1.12h.702l2.618 6.1c.103.23.195.36.278.392.109.038.265.06.47.06l.044.054v.303h-.01zm-3.133-2.634l-1.056-2.564-1.013 2.564c.272.01.62.016 1.054.016.418 0 .757-.006 1.016-.016zm9.259.412c0 .793-.304 1.397-.91 1.82-.527.36-1.21.544-2.05.544-.92 0-1.65-.19-2.194-.566l-.035-.082c.02-.24.03-.459.03-.654 0-.197-.01-.478-.03-.842l.035-.034h.282l.028.034c.1.535.278.94.54 1.208.294.307.651.462 1.076.462.54 0 .964-.168 1.274-.503.29-.313.434-.73.434-1.249 0-.506-.17-.891-.508-1.16-.31-.244-.725-.367-1.248-.367a5.3 5.3 0 00-.642.038l-.06-.047v-.475l.06-.038c.176.013.323.02.444.02.3 0 .533-.032.702-.099.211-.082.39-.23.534-.449.134-.205.2-.449.2-.727 0-.2-.047-.386-.143-.556-.204-.373-.533-.557-.986-.557-.313 0-.591.108-.834.323-.214.19-.377.477-.488.866l-.03.035h-.223l-.028-.035a7.504 7.504 0 00-.109-1.09l.045-.055a4.084 4.084 0 012.011-.528c.585 0 1.064.095 1.444.288.491.247.737.632.737 1.151 0 .436-.17.797-.508 1.081-.3.253-.68.411-1.14.475v.088c1.057 0 1.744.247 2.057.743.153.244.233.56.233.936zm8.427-1.377c0 1.205-.355 2.147-1.064 2.833-.69.664-1.628 1-2.819 1-1.127 0-2.011-.313-2.653-.943-.642-.629-.964-1.502-.964-2.618 0-1.568.603-2.656 1.813-3.256.55-.276 1.226-.411 2.03-.411 1.15 0 2.044.297 2.683.894.651.604.974 1.439.974 2.501zm-1.52.256c0-.945-.192-1.697-.575-2.25-.383-.557-.945-.835-1.686-.835-.977 0-1.625.436-1.944 1.305a4.286 4.286 0 00-.246 1.502c0 1.009.188 1.803.562 2.388.39.603.97.904 1.743.904.939 0 1.568-.459 1.89-1.376a4.96 4.96 0 00.256-1.637zm8.34 1.154c0 .82-.4 1.451-1.201 1.904-.396.221-.904.332-1.526.332-.198 0-.361 0-.489-.007l-1.181-.025c-.422 0-.747.01-.977.028l-.048-.047v-.136l.026-.06c.242-.152.376-.25.396-.288.028-.06.047-.275.054-.651l.016-1.094V16.3c0-.778-.023-1.28-.064-1.518-.016-.095-.073-.155-.17-.18a5.711 5.711 0 00-.577-.047l-.048-.048v-.332l.048-.044c.294.019.798.028 1.51.028.453 0 .865-.009 1.23-.025.29-.012.536-.019.734-.019.92 0 1.523.209 1.807.62a1.3 1.3 0 01.226.753c0 .461-.182.85-.549 1.16a1.962 1.962 0 01-.543.329 5.57 5.57 0 01-.712.212c1.357.053 2.038.6 2.038 1.634zm-1.725-3.095c0-.721-.38-1.082-1.136-1.082-.25 0-.463.013-.639.038-.013.342-.019.658-.019.949v1.35c.077.006.227.01.453.01.597 0 .987-.19 1.175-.566.112-.219.166-.453.166-.7zm.211 3.247c0-.977-.517-1.467-1.555-1.467-.13 0-.28.006-.45.016v2.264c0 .243.006.483.02.717.133.023.325.035.567.035.46 0 .818-.142 1.067-.43.236-.275.351-.651.351-1.135zm9.965 2.037l-.045.048a79.095 79.095 0 00-1.325-.029c-.606 0-1.168.01-1.689.029l-.045-.048v-.306l.052-.054.431-.026c.182-.009.271-.072.271-.19 0-.069-.045-.22-.137-.458l-.399-1.03a90.635 90.635 0 00-2.539 0l-.217.597c-.166.452-.246.737-.246.85 0 .124.077.197.233.222.087.013.253.025.505.038l.048.05v.314l-.048.047a51.073 51.073 0 00-1.175-.028c-.134 0-.469.009-1.003.028l-.051-.044v-.316l.055-.051c.338-.02.545-.085.625-.2.077-.113.367-.793.872-2.039l1.29-3.193c.096-.247.239-.62.434-1.12h.702l2.619 6.1c.102.23.194.36.277.392.109.038.265.06.47.06l.044.054v.303h-.009zm-3.132-2.634l-1.057-2.564-1.012 2.564c.271.01.619.016 1.053.016.415 0 .757-.006 1.016-.016zm11.736 2.633l-.051.047a28.961 28.961 0 00-1.52-.028c-.705 0-1.213.01-1.52.028l-.051-.044v-.332l.055-.047c.335-.02.53-.035.578-.05a.217.217 0 00.169-.181c.041-.234.064-.74.064-1.518v-1.18c-.17-.015-.703-.024-1.6-.024-.83 0-1.376.01-1.641.025v1.18c0 .777.022 1.28.064 1.517.016.095.073.155.169.18.048.013.243.029.578.05l.051.048v.33l-.045.046a29.12 29.12 0 00-1.52-.028c-.708 0-1.216.01-1.523.028l-.047-.044v-.332l.047-.047c.336-.02.531-.035.578-.05a.218.218 0 00.17-.181c.041-.234.063-.74.063-1.518V16.3c0-.778-.022-1.28-.063-1.518-.016-.095-.074-.155-.17-.18a5.685 5.685 0 00-.578-.047l-.047-.048v-.332l.047-.044c.317.019.824.028 1.523.028.716 0 1.223-.01 1.52-.028l.045.044v.338l-.051.045a5.6 5.6 0 00-.578.047.216.216 0 00-.169.18c-.042.234-.064.74-.064 1.518v.806c.348.016.83.026 1.443.026.961 0 1.561-.01 1.798-.026v-.806c0-.778-.023-1.28-.064-1.518a.212.212 0 00-.169-.18 5.667 5.667 0 00-.578-.047l-.055-.048v-.332l.051-.044c.32.019.827.028 1.52.028.719 0 1.226-.009 1.52-.028l.051.044v.339l-.045.044a5.651 5.651 0 00-.584.047.216.216 0 00-.169.18c-.042.235-.064.74-.064 1.518v2.587c0 .777.022 1.28.064 1.517.016.095.073.155.169.18.048.013.243.029.578.051l.051.048v.322zm8.522.014l-.048.035a59.938 59.938 0 00-1.542-.029c-.705 0-1.21.01-1.51.029l-.045-.045v-.332l.048-.047c.342-.019.537-.035.584-.05a.218.218 0 00.17-.18c.041-.235.064-.74.064-1.518v-3.611l-3.088 5.783a25.55 25.55 0 00-.948-.02c-.185 0-.61.007-1.281.02l-.047-.045v-.332l.047-.047c.336-.019.53-.035.578-.05a.218.218 0 00.17-.18c.041-.235.063-.74.063-1.518V16.3c0-.778-.022-1.28-.063-1.518-.016-.094-.074-.154-.17-.18a5.668 5.668 0 00-.578-.047l-.047-.048v-.332l.044-.044c.511.019 1.019.029 1.526.029.336 0 .843-.01 1.52-.029l.045.044v.332l-.051.048c-.335.019-.53.035-.578.047a.216.216 0 00-.169.18c-.042.234-.064.74-.064 1.518v3.684l3.087-5.856c.431.019.725.028.878.028.112 0 .562-.01 1.354-.028l.048.044v.332l-.054.048c-.336.019-.53.034-.578.047a.216.216 0 00-.169.18c-.042.234-.064.74-.064 1.518v2.586c0 .778.022 1.28.064 1.518.016.095.073.155.169.18.045.013.239.029.584.05l.048.048v.345h.003zm7.646-.002l-.047.035a39.92 39.92 0 00-3.043 0l-.045-.035-.006-.341.048-.047c.335-.02.53-.035.578-.051a.217.217 0 00.169-.18c.041-.234.064-.74.064-1.518v-2.637c0-.958-.016-1.477-.045-1.556a9.405 9.405 0 00-.738-.044c-1.085 0-1.631.42-1.631 1.259 0 .477.211.856.632 1.141.188.123.383.209.587.253.17.035.46.063.879.082l.006.136c-.31.43-.741 1.078-1.29 1.942-.52.822-.846 1.353-.974 1.593a15.326 15.326 0 00-.91-.028c-.22 0-.6.01-1.136.028l-.052-.035v-.341l.039-.048c.396-.038.766-.271 1.111-.698.255-.383.514-.766.776-1.151.329-.475.6-.87.814-1.19l-.035-.053c-.533-.066-.974-.24-1.325-.525a1.527 1.527 0 01-.594-1.236c0-.6.252-1.04.76-1.325.402-.221.932-.332 1.59-.332.169 0 .373.006.616.016a50.597 50.597 0 003.139-.01l.048.045v.332l-.055.047c-.335.02-.53.035-.578.047a.217.217 0 00-.169.18c-.041.235-.064.74-.064 1.519v2.586c0 .778.023 1.28.064 1.518.016.094.074.154.169.18.045.012.24.028.585.05l.048.048v.344h.015zM57.257 34.34l-.048.034a60.044 60.044 0 00-1.542-.028c-.706 0-1.21.01-1.51.028l-.045-.044v-.332l.048-.047c.342-.02.536-.035.584-.051a.216.216 0 00.17-.18c.04-.234.063-.74.063-1.518v-3.61l-3.087 5.782a25.383 25.383 0 00-.949-.019c-.185 0-.61.007-1.28.02l-.048-.045v-.332l.048-.047c.335-.02.53-.035.578-.051a.216.216 0 00.17-.18c.04-.234.063-.74.063-1.518v-2.586c0-.778-.022-1.281-.064-1.518-.016-.095-.073-.155-.169-.18a5.761 5.761 0 00-.578-.048l-.048-.047v-.332l.045-.044c.51.018 1.018.028 1.526.028.335 0 .843-.01 1.52-.029l.045.045v.332l-.051.047a5.65 5.65 0 00-.578.048.216.216 0 00-.17.18c-.041.234-.063.74-.063 1.518v3.683l3.087-5.856c.431.02.725.029.878.029.112 0 .562-.01 1.354-.029l.048.045v.332l-.054.047c-.336.019-.53.035-.578.047a.216.216 0 00-.17.18c-.041.235-.063.74-.063 1.518V32.2c0 .778.022 1.28.063 1.518.016.094.074.154.17.18.044.012.239.028.584.05l.048.048v.344h.003zm11.44-.012l-.051.047a28.957 28.957 0 00-1.52-.029c-.706 0-1.213.01-1.52.029l-.051-.044v-.332l.054-.048c.336-.019.53-.035.578-.05a.216.216 0 00.17-.18c.04-.235.063-.74.063-1.518v-1.18c-.169-.015-.702-.025-1.6-.025-.83 0-1.375.01-1.64.025v1.18c0 .777.022 1.28.063 1.517.016.095.074.155.17.18.048.013.242.03.578.051l.05.048v.328l-.044.048a29.124 29.124 0 00-1.52-.029c-.709 0-1.216.01-1.523.029l-.048-.044v-.332l.048-.048c.335-.019.53-.035.578-.05a.216.216 0 00.17-.18c.04-.235.063-.74.063-1.518v-2.587c0-.777-.022-1.28-.064-1.517-.016-.095-.073-.155-.169-.18a5.687 5.687 0 00-.578-.048l-.048-.047v-.333l.048-.044c.316.02.824.029 1.523.029.715 0 1.223-.01 1.52-.029l.045.044v.339l-.052.044c-.335.02-.53.035-.577.048a.216.216 0 00-.17.18c-.041.234-.063.74-.063 1.517v.807c.348.016.83.025 1.443.025.96 0 1.561-.01 1.797-.025v-.806c0-.778-.022-1.281-.064-1.518-.015-.095-.073-.155-.169-.18a5.653 5.653 0 00-.578-.048l-.054-.047v-.332l.051-.045c.32.02.827.029 1.52.029.718 0 1.226-.01 1.52-.029l.05.045v.338l-.044.044a5.668 5.668 0 00-.584.048.216.216 0 00-.17.18c-.04.234-.063.74-.063 1.518v2.586c0 .778.022 1.28.064 1.518.016.095.073.155.169.18.048.013.242.028.578.05l.05.048v.322zm8.186-.001l-.044.047a79.575 79.575 0 00-1.325-.028c-.607 0-1.169.01-1.69.028l-.044-.047v-.307l.051-.054.431-.025c.182-.01.272-.073.272-.19 0-.07-.045-.221-.138-.458l-.399-1.031c-.453-.006-.92-.01-1.392-.01-.255 0-.638.004-1.146.01l-.217.597c-.166.453-.246.737-.246.851 0 .123.077.196.233.221.086.013.252.026.505.038l.047.05v.314l-.047.047a50.627 50.627 0 00-1.175-.028c-.135 0-.47.01-1.003.028l-.051-.044v-.316l.054-.05c.339-.02.546-.086.626-.2.077-.114.367-.794.872-2.04l1.29-3.193c.095-.246.239-.62.434-1.119h.702l2.618 6.1c.103.23.195.36.278.391.109.038.265.06.47.06l.044.054v.304h-.01zm-3.132-2.634l-1.056-2.565-1.013 2.565c.272.01.62.016 1.054.016.415 0 .757-.007 1.015-.016zm10.361-4.196v.323l-.054.047c-.345.054-.588.145-.728.281-.14.136-.422.614-.846 1.433-.416.806-.83 1.61-1.249 2.412-.712 1.306-1.223 2.052-1.532 2.242a1.544 1.544 0 01-.821.221 1.54 1.54 0 01-.444-.07l-.048-.072c.003-.066.007-.114.007-.145 0-.332-.048-.788-.144-1.366l.045-.07.162-.025.074.028c.265.43.568.645.913.645.275 0 .482-.085.626-.253a1.87 1.87 0 00.233-.395 107.927 107.927 0 01-1.823-4.088c-.14-.342-.262-.553-.355-.636-.08-.07-.306-.114-.686-.136l-.054-.047v-.323l.048-.06c.2.022.721.035 1.56.035.473 0 .962-.01 1.466-.028l.055.053v.323l-.045.047c-.054.003-.233.026-.54.064-.13.015-.198.07-.198.158 0 .025.02.098.061.221.093.281.31.79.651 1.527l.67 1.442.822-1.745c.213-.453.367-.813.46-1.082.047-.139.073-.237.073-.294 0-.085-.112-.152-.332-.199a5.947 5.947 0 00-.47-.088l-.054-.048V27.5l.054-.053c.316.022.75.034 1.303.034.46 0 .824-.01 1.086-.028l.054.044zm7.848 6.823l-.055.06a38.822 38.822 0 00-.859-.035c-.16 0-.306.003-.44.01-.195.01-.32.016-.37.016a.435.435 0 01-.278-.089c-.186-.14-.422-.37-.706-.69l-2.302-2.548v1.16c0 .779.022 1.281.064 1.518.016.095.073.155.17.18.047.013.242.029.577.051l.051.048v.328l-.045.048a29.124 29.124 0 00-1.52-.029c-.708 0-1.216.01-1.522.029l-.048-.044V34l.048-.048c.335-.019.53-.035.578-.05a.216.216 0 00.169-.18c.041-.235.064-.74.064-1.518v-2.587c0-.778-.023-1.28-.064-1.517-.016-.095-.074-.155-.17-.18a5.762 5.762 0 00-.577-.048l-.048-.047v-.332l.048-.045c.316.02.823.029 1.523.029.715 0 1.222-.01 1.52-.029l.044.044v.333l-.051.047c-.335.019-.53.035-.578.047a.216.216 0 00-.17.18c-.04.234-.063.74-.063 1.518v1.214c.16-.167.514-.524 1.057-1.072.287-.29.488-.499.606-.632.323-.354.54-.604.649-.743.178-.228.268-.389.268-.484 0-.038-.016-.066-.045-.082l-.054-.044v-.278l.06-.048c.361.02.703.029 1.02.029.216 0 .539-.01.967-.029l.054.048v.329l-.051.044c-.355.012-.616.057-.786.133-.137.063-.354.218-.651.47a30.72 30.72 0 00-1.274 1.161c-.195.19-.453.436-.78.743l2.827 2.906c.39.401.756.632 1.101.695l.045.051v.291h-.003zm8.343.02l-.048.034a60.058 60.058 0 00-1.542-.028c-.706 0-1.21.01-1.51.028l-.045-.044v-.332l.048-.047c.341-.02.536-.035.584-.051a.216.216 0 00.17-.18c.04-.234.063-.74.063-1.518v-3.61l-3.087 5.782a25.383 25.383 0 00-.949-.019c-.185 0-.61.007-1.28.02l-.048-.045v-.332l.048-.047c.335-.02.53-.035.578-.051a.216.216 0 00.17-.18c.04-.234.063-.74.063-1.518v-2.586c0-.778-.022-1.281-.064-1.518-.016-.095-.073-.155-.169-.18a5.761 5.761 0 00-.578-.048l-.048-.047v-.332l.045-.044c.51.018 1.018.028 1.526.028.335 0 .843-.01 1.52-.029l.044.045v.332l-.05.047c-.336.02-.53.035-.578.048a.216.216 0 00-.17.18c-.041.234-.063.74-.063 1.518v3.683l3.087-5.856c.431.02.725.029.878.029.112 0 .562-.01 1.354-.029l.048.045v.332l-.055.047c-.335.019-.53.035-.578.047a.216.216 0 00-.169.18c-.041.235-.064.74-.064 1.518V32.2c0 .778.023 1.28.064 1.518.016.094.074.154.17.18.044.012.239.028.584.05l.048.048v.344h.003zm-45.332 6.759c-.045.304-.07.832-.07 1.584l-.054.047h-.313l-.048-.047a2.644 2.644 0 01-.016-.196 13.622 13.622 0 00-.026-.405c-.025-.199-.073-.322-.137-.373-.099-.073-.415-.107-.955-.107h-1.465v4.23c0 .778.022 1.28.064 1.518.016.095.073.155.169.18.048.013.243.029.578.048l.05.047.004.332-.045.044a53.51 53.51 0 00-1.526-.029c-.325 0-.836.01-1.526.03l-.045-.045v-.332l.048-.047c.335-.02.53-.035.578-.048a.216.216 0 00.17-.18c.04-.234.063-.74.063-1.518v-2.586c0-.778-.022-1.28-.064-1.515-.016-.095-.073-.155-.169-.18a5.72 5.72 0 00-.578-.047l-.048-.048v-.332l.048-.044 1.2.028c2.124 0 3.48-.018 4.065-.053l.048.044zm8.407 3.26c0 1.204-.355 2.147-1.063 2.833-.69.667-1.629.999-2.82.999-1.127 0-2.011-.313-2.653-.942-.642-.626-.964-1.502-.964-2.618 0-1.569.603-2.656 1.813-3.257.55-.275 1.226-.411 2.031-.411 1.15 0 2.044.297 2.682.895.648.604.974 1.438.974 2.5zm-1.523.256c0-.946-.192-1.698-.575-2.251-.383-.557-.945-.835-1.686-.835-.977 0-1.625.436-1.944 1.306a4.286 4.286 0 00-.246 1.502c0 1.008.188 1.805.562 2.387.39.604.97.904 1.743.904.939 0 1.568-.458 1.89-1.375.173-.484.256-1.031.256-1.638zm8.148-2.012c0 .67-.23 1.195-.693 1.571a2.424 2.424 0 01-1.567.566c-.198 0-.396-.022-.597-.07a1.883 1.883 0 00-.173-.35l.103-.108c.137.044.265.07.38.07.331 0 .6-.117.8-.351.202-.234.3-.56.3-.98 0-.911-.41-1.367-1.238-1.367a5.31 5.31 0 00-.594.06c-.029.08-.044.61-.044 1.6v2.587c0 .778.022 1.28.063 1.518a.213.213 0 00.17.18c.028.006.255.022.677.047l.054.054v.322l-.048.048c-.45-.02-.99-.029-1.619-.029-.709 0-1.216.01-1.523.029l-.048-.044v-.33l.054-.053c.333-.019.524-.035.572-.047a.216.216 0 00.17-.18c.04-.235.063-.74.063-1.518V43.24c0-.777-.022-1.28-.064-1.514-.016-.095-.073-.155-.169-.18a5.755 5.755 0 00-.578-.048l-.048-.054v-.322l.054-.048c.323.02.818.029 1.488.029.278 0 .674-.006 1.195-.016.52-.01.82-.016.9-.016.903 0 1.488.228 1.76.68.13.234.2.519.2.85zm8.461 1.756c0 1.204-.355 2.147-1.063 2.833-.69.667-1.629.999-2.82.999-1.127 0-2.011-.313-2.653-.942-.642-.626-.964-1.502-.964-2.618 0-1.569.603-2.656 1.813-3.257.55-.275 1.226-.411 2.031-.411 1.15 0 2.043.297 2.682.895.648.604.974 1.438.974 2.5zm-1.52.256c0-.946-.192-1.698-.575-2.251-.383-.557-.945-.835-1.686-.835-.977 0-1.625.436-1.944 1.306a4.289 4.289 0 00-.246 1.502c0 1.008.189 1.805.562 2.387.39.604.97.904 1.743.904.94 0 1.568-.458 1.89-1.375.17-.484.256-1.031.256-1.638zm9.924 2.953a51.97 51.97 0 00-.48 2.377l-.047.035h-.31l-.05-.035-.03-.977c-.012-.449-.067-.724-.162-.816a.43.43 0 00-.201-.113c-.11-.023-.393-.038-.856-.048l-.74-.016-2.929.016c-.402.003-.629.133-.683.386-.026.13-.051.654-.073 1.571l-.052.035h-.31l-.047-.035-.179-.958c-.035-.199-.08-.408-.128-.629l-.172-.787.038-.142c.278.022.48.034.607.034a2.6 2.6 0 00.214-.016c.137-.192.294-.423.47-.695l3.106-4.813a.721.721 0 00.09-.17c0-.095-.441-.19-1.32-.285l-.05-.044v-.338l.044-.029c.31.02.885.029 1.73.029.87 0 1.412-.01 1.632-.029l.064.038c-.029 1.142-.045 1.86-.045 2.157v2.102c0 .617.016 1.316.045 2.093l.137.007c.128.003.348-.013.658-.045l.029.14zm-2.293-1.907v-1.483l-.019-2.397-.118-.006c-.118.187-.294.465-.523.841l-2.8 4.857h3.438c.016-.595.022-1.199.022-1.812zm10.488 2.291L95.02 48a80.286 80.286 0 00-1.326-.028c-.606 0-1.168.01-1.689.029l-.044-.048v-.307l.05-.053.432-.026c.182-.01.271-.072.271-.19 0-.069-.044-.22-.137-.458l-.4-1.034c-.453-.006-.919-.01-1.391-.01-.256 0-.639.004-1.146.01l-.218.598c-.166.452-.245.737-.245.85 0 .124.076.196.233.222.086.012.252.025.504.038l.048.047v.313l-.048.047a51.009 51.009 0 00-1.175-.028c-.134 0-.47.01-1.002.029l-.051-.045v-.32l.054-.046c.338-.02.546-.086.626-.2.076-.114.367-.793.871-2.04l1.29-3.193.434-1.119h.703l2.618 6.1c.102.23.195.36.278.391.108.038.265.06.47.06l.044.054v.31h-.01zm-3.132-2.63l-1.057-2.565-1.012 2.564c.272.01.62.013 1.054.013.415.003.756-.003 1.015-.013zm16.159 2.632l-.047.047a29.041 29.041 0 00-1.523-.028c-.706 0-1.214.01-1.52.028l-.045-.044v-.332l.051-.047c.335-.02.53-.035.578-.048a.216.216 0 00.169-.18c.042-.234.064-.74.064-1.518v-3.307l-1.101 2.236a64.41 64.41 0 00-.642 1.369l-.904 1.957h-.332a39.84 39.84 0 00-.696-1.53l-.693-1.455-1.293-2.665v3.395c0 .778.023 1.28.064 1.518a.212.212 0 00.169.18c.051.013.243.029.578.048l.048.047v.332l-.048.044a21.22 21.22 0 00-2.197 0l-.047-.044v-.332l.047-.047c.336-.02.53-.035.578-.048a.216.216 0 00.17-.18c.041-.234.064-.74.064-1.518v-2.586c0-.778-.023-1.28-.064-1.515-.016-.094-.074-.154-.17-.18a5.687 5.687 0 00-.578-.047l-.047-.048v-.332l.047-.044a24.36 24.36 0 002.35 0c.109.25.265.598.463 1.047l.317.673 1.57 3.254.757-1.518 1.181-2.498a15.2 15.2 0 00.406-.958c.37.019.623.029.75.029.645 0 1.14-.01 1.482-.029l.048.044v.339l-.048.044c-.336.019-.53.035-.578.047a.215.215 0 00-.169.18c-.042.235-.064.74-.064 1.515v2.587c0 .777.022 1.28.064 1.517.016.095.073.155.169.18.048.013.242.029.578.048l.048.047v.326h-.004zm8.56-3.595c0 1.204-.354 2.147-1.063 2.833-.69.667-1.628.999-2.819.999-1.127 0-2.012-.313-2.653-.942-.642-.626-.965-1.502-.965-2.618 0-1.569.604-2.656 1.814-3.257.549-.275 1.226-.411 2.031-.411 1.149 0 2.043.297 2.682.895.651.604.973 1.438.973 2.5zm-1.519.256c0-.946-.192-1.698-.575-2.251-.383-.557-.945-.835-1.686-.835-.977 0-1.625.436-1.944 1.306a4.289 4.289 0 00-.246 1.502c0 1.008.188 1.805.562 2.387.389.604.97.904 1.743.904.939 0 1.568-.458 1.89-1.375a4.95 4.95 0 00.256-1.638zm9.217 2.503l-.226.5c-.696.38-1.472.566-2.331.566-1.718 0-2.896-.614-3.528-1.84a3.945 3.945 0 01-.441-1.844c0-1.068.358-1.922 1.076-2.558.735-.654 1.737-.983 3.008-.983a6.64 6.64 0 012.366.436l.064.073a8.02 8.02 0 00-.208 1.581l-.045.047h-.29l-.048-.053a7.022 7.022 0 00-.054-.822c-.412-.462-1.006-.69-1.782-.69-.801 0-1.427.25-1.88.753-.454.502-.681 1.182-.681 2.046 0 1.163.406 2.058 1.217 2.68.431.333 1.009.5 1.734.5.657 0 1.302-.167 1.931-.502l.118.11zm8.161.832l-.054.06a38.56 38.56 0 00-.859-.035 8.52 8.52 0 00-.44.01c-.195.01-.32.013-.371.013a.434.434 0 01-.277-.089c-.186-.14-.422-.37-.706-.69l-2.302-2.548v1.16c0 .778.022 1.281.064 1.518.016.095.073.155.169.18.048.013.243.029.578.048l.051.047v.33l-.045.047a29.12 29.12 0 00-1.52-.029c-.708 0-1.216.01-1.523.029l-.047-.045v-.332l.047-.047c.336-.019.53-.035.578-.047a.218.218 0 00.17-.18c.041-.235.063-.74.063-1.518v-2.587c0-.778-.022-1.28-.063-1.514-.016-.095-.074-.155-.17-.18a5.685 5.685 0 00-.578-.048l-.047-.047v-.332l.047-.045c.317.02.824.029 1.523.029.716 0 1.223-.01 1.52-.029l.045.045v.332l-.051.047c-.335.019-.53.035-.578.047a.215.215 0 00-.169.18c-.042.235-.064.74-.064 1.515v1.214c.16-.167.514-.525 1.057-1.072.287-.29.488-.5.606-.632.323-.354.54-.604.648-.743.179-.228.269-.389.269-.484 0-.038-.016-.066-.045-.082l-.054-.044v-.278l.06-.048c.361.02.703.029 1.019.029.217 0 .539-.01.967-.029l.055.048v.328l-.052.045c-.354.012-.616.057-.785.133-.137.063-.354.218-.651.47a29.87 29.87 0 00-1.274 1.161c-.195.19-.454.436-.779.743l2.825 2.906c.39.401.757.632 1.102.695l.045.048v.297h-.004zm6.492-2.183c0 .82-.4 1.455-1.201 1.904-.396.221-.904.332-1.526.332-.198 0-.361 0-.489-.007l-1.181-.025c-.421 0-.747.01-.977.029l-.048-.048v-.136l.026-.06c.242-.152.376-.25.396-.288.028-.06.047-.275.054-.65l.016-1.095v-2.479c0-.778-.023-1.28-.064-1.514a.212.212 0 00-.169-.18 5.768 5.768 0 00-.578-.048l-.048-.047v-.332l.048-.045c.294.02.798.029 1.51.029.453 0 .865-.01 1.229-.026.291-.012.537-.019.735-.019.919 0 1.523.21 1.807.62.15.218.226.471.226.753 0 .461-.182.85-.549 1.16a1.946 1.946 0 01-.543.329 5.531 5.531 0 01-.712.212c1.361.05 2.038.597 2.038 1.631zm-1.725-3.095c0-.721-.38-1.081-1.136-1.081a4.59 4.59 0 00-.639.038c-.013.341-.019.657-.019.948v1.35c.077.007.227.01.453.01.597 0 .987-.19 1.175-.566a1.51 1.51 0 00.166-.7zm.214 3.247c0-.977-.517-1.467-1.555-1.467-.131 0-.281.006-.45.013v2.264c0 .243.007.483.019.717.134.022.326.035.569.035.459 0 .817-.145 1.066-.43.233-.272.351-.651.351-1.132zm8.547-.046c0 .718-.29 1.268-.875 1.648-.498.329-1.13.493-1.896.493-.153 0-.457-.01-.904-.025-.271-.01-.498-.016-.68-.016-.127 0-.626.01-1.488.028l-.048-.034v-.342l.055-.047c.293-.016.469-.032.53-.048a.216.216 0 00.169-.18c.041-.234.064-.74.064-1.518v-2.586c0-.778-.023-1.28-.064-1.515-.016-.094-.073-.154-.169-.18-.055-.016-.233-.031-.533-.047l-.048-.048v-.332l.048-.044c.284.019.769.029 1.462.029.357 0 .868-.01 1.532-.029l.048.044v.332l-.048.048c-.335.019-.53.035-.577.047a.217.217 0 00-.17.18c-.041.234-.064.74-.064 1.515v.787c.901 0 1.546.035 1.935.105 1.143.199 1.721.777 1.721 1.736zm-1.494.092c0-.465-.137-.825-.415-1.075-.246-.221-.568-.341-.967-.357-.167-.007-.425-.01-.786-.01v2.931c.153.023.342.035.562.035.377 0 .648-.028.821-.088.245-.089.443-.266.593-.528.128-.234.192-.538.192-.908zM149 47.954l-.044.047a29.272 29.272 0 00-1.527-.028c-.686 0-1.191.01-1.519.028l-.045-.047v-.329l.048-.047c.335-.02.53-.035.578-.048a.217.217 0 00.169-.18c.041-.234.064-.74.064-1.518v-2.586c0-.778-.023-1.28-.064-1.515-.016-.094-.074-.154-.169-.18a5.602 5.602 0 00-.578-.047l-.048-.048v-.332l.048-.044c.316.019.824.029 1.523.029.696 0 1.2-.01 1.516-.029l.051.044v.332l-.051.048c-.335.019-.53.035-.578.047a.217.217 0 00-.169.18c-.041.234-.064.74-.064 1.515v2.586c0 .778.023 1.28.064 1.518a.212.212 0 00.169.18c.048.013.243.029.578.048l.051.047v.329H149zM25.53 22.09l-.108-.01.076.05.032-.04zm-7.49-1.449l-.173.067-.156.104.22-.054.192-.095.204-.075.271-.073.243-.123.176-.041.179-.016.204-.073.21-.047.227-.048-.166.085.067.07-.127.127.166.17.178-.114.22-.05.186-.13.21-.047.17-.136-.246-.013-.214.073.096.041-.156.047-.074-.11.06-.057-.169-.013.192-.063.21.013.186-.067-.144.02-.16-.02.112-.038-.223.067-.233.047.022-.025-.182.019-.147.003-.012.003-.182.073.162-.07h.042l.198-.06.217-.01.166-.034-.195-.01h.227l.15-.053.185-.026.192-.031-.051.019.191.006.192-.013.195.013.086.006.032-.003.204-.025.188.028.07-.006.195-.013.192.029.188-.02-.217-.024h-.05l-.03.003-.019-.003-.124-.004-.211-.022.176-.003.16.025h.047l.153-.012.18.025.175.016.185.031.185.016.182.048.182.031.182.041.201.054.205.048.188.098.176.107.175.057.157.092.182.047.169.07.166.082.185-.006.192.056.185.08-.217-.165.178.073.16.101.173.089-.074-.098-.175-.073-.167-.095-.178-.063-.17-.089-.181-.057-.166-.098-.176-.072-.179-.067-.188-.04-.173-.083-.182-.054-.191-.025-.182-.063-.195-.023-.185-.053h-.195l-.188-.035-.186-.047-.191-.013-.195-.006-.195-.007-.194-.019-.195.016-.192.022-.194-.019-.195-.01-.195.013-.188.051-.195-.006-.189.047-.194-.003-.189.054-.188.038-.192.025-.169.028c-.013.004-.022.007-.032.007l-.169.07-.182.063-.172.044.169-.022.17-.051-.19.101.09-.003-.188.057-.186.076-.185.06-.194.016.16-.108-.154.067-.179.053-.175.07-.173.073-.16.1-.169.102.198-.085.208-.045zm1.676-.496l.121-.025-.121.06v-.035zm1.823-.262l-.105-.01-.182.019.214.006h.204l.201-.025-.016-.003-.121.01-.195.003zm-1.095.075l.14.007.166-.007h-.067l.157-.003.144-.047-.23.019.111-.038-.23.04-.236.03h.045l.01-.004-.01.003zm9.796 13.3l.08-.197-.141.155-.118.161-.115.162-.106.17-.073.193-.096.044-.102.13-.108.142-.074.158-.07.165-.182.13-.096.183-.115.155-.15.123-.134.143-.144.13-.156.12-.16.107-.147.126-.124.149-.083.174v.076l-.09.19-.127.17-.16.155.099-.06.147-.11.07-.064.15-.12.042-.029a9.463 9.463 0 002.308-2.864l.023-.076.012-.02-.092.121.032-.193zM19.298 36.1l-.18-.003-.104.16-.131.127h-.22l-.167.212.103.212-.125-.016.02.193.124.127.163.094.188.041.185-.031.099-.101-.073-.108.105-.11.147-.086.01-.18.04-.174-.124-.168-.06-.19zm11.293-3.52l-.093.171-.08.177-.06.18-.042.175.055-.095.016-.023c.05-.107.102-.215.146-.325l.026-.17.057-.137.064-.133-.025-.006-.064.187zm-2.9 1.926l.093-.161.106-.152-.096-.193-.192-.104-.143-.149.089-.095.125-.085-.055-.19-.092-.174-.122-.145-.15-.047-.143-.086-.035-.224.038-.222.156-.151.176.107.195.08.2.056.164-.139.118-.187.127-.17.061-.2-.019-.164-.045-.164-.041-.162-.195-.13-.21-.11.022-.19.067-.173.07-.184.278.06.13-.139.1-.168.127-.145.138-.133.047-.202.119-.174.06-.2.067-.195-.01-.203.014-.202.01-.202.009-.203-.125-.133-.14-.117-.138-.12-.057-.174-.058-.17.07-.168-.2-.073-.22.026.076-.225.16-.06.137-.085.134.072.128.01.118.2.15.164.179-.187-.055-.18-.102-.158-.102-.155-.125-.158.023-.124v-.199l-.1-.177.004-.19.112-.066-.007-.202-.041-.206-.02-.183-.095-.231-.058-.174-.089-.158-.096-.152-.073-.142.137.088.109.146.102.145.153.08-.045-.156-.124-.11-.09-.146-.099-.148-.137-.111-.121-.136-.15-.07.006.178-.2-.032-.068.145-.121-.154-.122-.165-.047-.196-.045-.196.038-.202-.051-.187.013-.193.095-.044-.108-.165-.09-.16.013-.178-.127-.208.143.12.1.164.114.152.125.142.111.155.144.11.233.127.243.101-.112-.17-.14-.155-.208-.187-.128-.136-.137-.13-.128-.132-.162-.12-.119-.162-.114-.167-.112-.168-.144-.142-.118-.165-.144-.142-.191-.076-.176-.091-.134-.133-.147-.114-.13-.104-.033.19.055.183.089.17.156.14-.089.202-.102.076.048.104-.106.029.048.082-.13.031-.125.12.045.096-.093.173-.029.206-.073.183-.21-.022-.209.035-.16.114-.165.101-.128-.019-.09.149-.13.082-.051-.152-.039-.164-.16-.026-.165-.006-.17.035-.13.243-.227.06-.243.026-.105.205-.208.11-.05.156-.106.12-.06-.013.124.13-.179.054-.198.031-.188-.053-.026.136-.019.132-.125-.193-.099-.224-.143.183-.048.218-.067.203h-.176l-.169-.07-.17-.01-.168.06-.182.01-.18.035-.22.013h-.223l-.217.054-.182-.14-.131.24-.176-.003-.169.032-.17.08-.178.04-.105-.136-.035-.177.099-.079.178.12.198.045.211-.02-.016-.195-.134-.108-.115-.139-.14-.114-.163-.085-.109-.222-.175-.06-.189-.022-.166.02-.153.069h-.163l-.249.088-.198.004-.179.091-.191.08-.182-.004-.182-.025-.15.142-.153.136-.077.183.166.222-.038.167-.048.168-.003.164.16.124.204-.083.185-.104.156-.14.067-.008.01-.159.067-.18.166-.11.179-.083.188-.063.179-.006-.118.113-.163.076-.154.073-.08.247.061.161-.073.168-.137.123-.17-.032-.127.124-.1.139-.216-.032-.214-.032-.138-.088-.12-.11-.106-.111.156-.07.026-.186.08-.18-.157.126-.134.133-.16.136-.102-.08-.15.029-.134-.06-.179.076-.163.1-.191.02-.112-.076-.15-.022-.073.177-.042.18-.092.158-.138.114-.198-.13-.137-.208-.163.158-.163.136-.086.142-.045.165-.06.151.054.206.035.218.15.06.153.003.163-.091.134-.146.16-.022.24-.127.133.092.157.054.14.063-.003.18.026.19.054.183.1.174.079.18-.067.168-.016.19.134-.12.128-.155.028.082.023-.212-.038-.136-.052-.145-.099-.212.068-.25.14.14.064.205.099.209.057.233-.156.095.054.177.051.174-.025.218-.013.24.137.077.048-.041.118.075-.041-.199.086.035.003-.2.006-.195.157-.089.166.133.21.035-.153.12-.035.183.023.19-.01.19.163.073.163.075.163.076.16.086.188.003-.023.208-.05.197-.177.123-.114.12-.138-.066-.277-.06-.224-.023-.147-.113-.143-.117-.141-.155-.166-.127-.16-.126-.162.012-.18.206-.12-.146-.106-.155-.093-.167-.028-.196-.17-.101-.08-.184.061-.199.029-.205-.022-.197-.154-.11-.169-.101-.143-.133-.15-.127-.192-.05-.16-.02-.025-.268-.217.114-.234-.022-.12.174-.16.145-.211.022-.173.155-.089.212-.073.215-.068.18-.07.18-.054.184-.029.19-.025.186-.016.187.013.186.028.187-.01.186-.025.247.023.202-.01.203.064.193.038.196.045.199.092.18.144.146.099.195.147.162.207.07.093.135.077.152.092.142.144.149.128.167.073.178-.025.211-.03.215.068.21.112.186.06.186.1.171.05.19.096.17.105.162.122.148.025.165.004.158-.064.095.067.19.003.208.137.136.144.12.112.149.108.148.112.149.115.145.108.152.135.13.13.133.004.01c.319.271.657.518 1.012.745l.076.032.15.06.157.057.166.038.182-.136-.051-.2.118-.135-.051-.127-.032-.142.13-.082.177-.038.185-.048.111-.154-.083-.184-.054-.221-.057-.196-.102-.177-.045-.2-.08-.186.147-.158.179-.117.2-.073.16-.136.16-.148.201-.092.201-.063.173-.12.06-.197.109-.174.108-.173.15-.117-.009-.184-.124-.076-.131-.066-.211.003-.21.029-.212.015-.213-.006-.144-.158.029-.142.207.034.195-.05.198-.032.195-.038.2-.006.196-.054.178-.076.17-.114.284.038.166-.056.172-.054.102-.162.093-.17.13-.143.11-.148-.061-.155-.048-.168-.17-.158-.105-.186.189.022.162.088.18.051.152.082.17-.06.185-.028.185-.016.182.022.029.073.134.11.166.064.121.13.166.17.173.152.16-.041.085.126.106.114-.026.183.003.18-.012.19.115.111.13.095-.018.212.095.13.093.129.092.133.134.066.08.12.131-.136.157-.11.083-.171.111-.155.023-.19-.01-.183.003-.187.106-.17.15-.136.172-.105.195-.07.137-.262.205-.117.118-.177.182-.107.182-.08.255.045.154.12.124.149.086.174.118.155.208.006.214.041.121.152.013.196-.026.19-.025.192.041.19.074.18.163.092.044.209.074.193-.14-.092-.176-.025-.173-.026-.182-.006-.054.101.182.149.23.076-.064.148.185.098.035.155.064.14.172.063.182.047.186.003zm-11.05-.158l-.15-.212.125.054.012-.06.11.101-.097.117zm1.22-1.916l-.115-.269-.13-.136-.106-.158-.096-.164.029-.19.118-.17-.096-.162-.17-.066-.044-.174-.054-.168-.07-.164-.016-.177-.048-.174.156.028.153.101.087.162-.003.202.028.2.058.192.083.17.083.172.115.151.111.158.09.231.01.18.012.18.054.178-.239-.133zm.667-4.07l-.252.004-.17-.08-.184-.044-.144-.117-.179-.05-.198-.032-.198-.025-.198-.01.131-.13.08-.163.064-.171.108-.146.147-.015.122.031.073.133.054.142-.099.06.173.165.249-.092-.227-.12.14-.117.183-.026.166-.028-.032.149-.14.12.114.133.122.126.105.142-.01.162zm1.028-.28l.061-.146.201-.076.179.047.134-.038-.16.143-.175.091-.01.146.01.145.073.162.058.17.038.177.045.177-.007.177-.156.06-.198-.04-.083-.194-.067-.205.14-.104-.073-.184-.064-.18-.006-.19.06-.139zm.502 3.237l-.173-.028-.169-.064-.112-.142-.102-.149-.112-.145-.08-.165-.134-.13.122-.043.143-.032.061.158.067.155.115.123.102.14.211.015.192.07-.131.237zm10.255 1.98l.003-.017-.025.045.022-.029zM20.265 19.967h.003-.003zm4.936 2.39l.243.08-.003-.203-.198.019-.042.104zm-10.035 4.594l-.111.048-.007.155-.006.158.115-.177.01-.184zm1.14 1.815l.102.02-.08-.146-.022.126zm4.007-8.812h-.02l-.025.01.045-.01zm-4.997 7.835l.048.158.15-.136-.038-.173-.157.028-.041-.123-.06.117.098.13zm-.016-1.062l-.048.114.058-.022-.01-.092zm14.796 5.919l.105-.114.051-.145-.172.174.016.085zm-.53-5.255l-.134-.013-.032.196.166.054v-.237zm-.252 3.478l.198.104.233-.123-.09-.18-.102-.187.051-.145-.038-.146-.16.045-.038.212-.048.211-.006.209zm0 .813l.09-.168-.164.092-.05.202.124-.126zm.383-.522l-.07.025-.004.13.08.07-.006-.225zm-.163-4.945l.032.183-.02.183-.002.187-.061.177-.045.18-.032.193.195-.028.125-.127.025-.18-.029-.177.02-.174.015-.196-.038-.187-.099-.164-.067-.183-.093-.19-.06.073.073.212.061.218zm-1.232 8.11l-.224.054-.22.01-.128.157.16-.003.166-.006.16-.038.207-.041.188-.092.144-.168-.281-.022-.172.149zm-.125-3.481l-.09.158.183.085.041-.136.013-.139-.147.032zm.977-1.512l-.032.184.042.186.067-.022.038-.202-.026-.193-.089.047zm-4.87 4.133l-.171.035-.096.139.022.167.086.149-.019.066.22-.038.052-.177-.016-.183-.077-.158zm4.854-7.962l.083.158.07-.13.01-.16.022-.168-.147-.08-.16.023.08.174.042.183zm1.75 5.9l-.112.184-.112.18-.067.215-.13-.11-.093.138-.055.168.07.174.211-.136.026.104.045.016.092-.19.074-.199.07-.126c.019-.07.041-.14.057-.209l.013-.06.032-.215-.121.066zm-1.073.244l.16.06.047-.193.01-.193-.035-.19-.029-.006-.102.193-.073.209-.128.183.15-.063zm-.406 2.2l.061-.136-.128.089-.095.133-.067.148.111-.12.118-.114zm-5.76-10.73l.192-.051-.262-.089.07.14zm5.317 10.443l.092-.161.055-.18.082-.165.08-.17.01-.19-.051-.178.099-.123.073-.142-.134-.095h-.166l-.057.19-.096.17-.096.174-.16.212-.102.145-.147.105-.127.12-.109.14-.057.164.105.16.192.055.191-.029.198-.003.125-.2zm-9.432-10.77l-.006-.174-.176-.056-.156.076-.112.13-.026.173.24.003.223-.085.06.07.272-.073-.166-.13-.153.066zm-2.474-1.546l-.15.108-.163.085-.134.13-.198.136-.109.215.172-.067.138-.091.16-.01-.039.089.189.066.098.161.039.174.179-.012.175-.035.134-.117.176-.007.163-.056.22-.083.157-.034.14-.032.026-.038.188.032.195.019.169-.02.022-.138.022-.127.192-.11v-.216l.185-.211-.073-.038.048-.041.102-.225-.144-.032.1-.091-.01-.146.115-.035-.18-.018-.178.025-.163.073-.16.07-.044.069-.173.07-.166.075-.178.041-.166.08-.218.085.039-.054-.176.07-.15.094-.054-.063-.182.032-.166.085-.17.063zm-.588 1.376l-.102.148.006.171h.16l.156.016.093-.234-.17-.218-.143.117zm5.785-2.723l-.213.01-.211.028.214.01.21-.048zm-.884 3.994l.179-.054.153-.11.192.012.016-.098-.192-.06-.201.035-.16.098-.198.063-.178.107-.103.177-.076.19.134.067.128.088.07-.082-.048-.177.137-.133.147-.123zm1.97-1.037l-.163.04.013.219.185-.003.176-.003-.083-.136-.128-.117zm6.775 9.264v-.155l-.041.155.006.145.035-.145zm-13.585-10.76l.185-.095.17-.12.194-.076.188-.091.093-.133-.182.1-.058.023a9.44 9.44 0 00-.92.595l.16-.076.17-.127zm13.196 11.146l-.214.1-.08.175-.105.158-.055.183-.032.184.058.164.17-.07.117-.16.048-.194-.013-.193-.086-.037.125-.15.121-.17.102-.19-.156.2zm-14.387-7.933l.166-.064.134-.12.045-.17-.023-.004-.178.057-.16.095-.16.095.016.136.16-.025zm14.22 9.226l.135-.196.102-.202-.125.199-.111.199zm-13.891-9.179l-.176.098-.156.127-.147.132.016.174.23.003.226-.031.106-.187.044-.205.083-.18.154-.137.105-.173.058-.203-.154.063-.14.067.01.167-.138.136-.121.149zm-.003-2.64a.327.327 0 00-.036.028l-.044.041-.173.168.176-.161.077-.076zm-1.623 23.225s-7.017-3.855-6.471-9.91c0 0-.6 1.72.373 4.003 0 0-3.413-1.268-.46-6.333 0 0 3.8 2.615 1.102 6.368 0 0 .686 1.672 3.017 3.111 2.33 1.439 3.01 2.017 3.01 2.017s.122.636-.57.743z" fill="#fff"/><path d="M8.675 40.998s-2.835 3.462-7.063.607c0 0 3.28-3.124 6.616-1.369 0 0-2.012.038-3.052.67 0-.003 1.794-.461 3.499.092zm1.725-.142s-1.064-2.562 1.666-3.567c0 .003.393 3.352-1.667 3.567z" fill="#fff"/><path d="M21.96 18.055c-.546-.793-4.217-8.024-21.96-6.785V8.753v33.023s.405 7.104 7.1 7.104c6.696 0 11.67-.408 14.812 3.124 0 0 3.248-3.07 7.306-3.016 4.058.054 7.608 0 7.608 0s7.101-.424 7.101-7.74V8.75v2.517c-17.746-1.236-21.42 5.995-21.967 6.788z" fill="#B7B7B7"/><path opacity=".5" d="M43.92 19.673V.092C26.179-1.144 22.507 10.475 21.96 11.269 21.414 10.476 17.743-1.144 0 .092V19.67" fill="#A4ADB2"/><path d="M43.92 20.016V3.027C26.179 1.791 22.507 13.455 21.96 14.245 21.414 13.456 17.743 1.791 0 3.027v16.989" fill="#fff"/><path d="M43.92 20.619V6.157c-17.742-1.237-21.414 9.45-21.96 10.24-.546-.793-4.217-11.48-21.96-10.24v14.465" fill="#404040"/><path d="M43.92 19.674V9.384c-17.742-1.235-21.414 7.08-21.96 7.874-.546-.794-4.217-9.11-21.96-7.873v10.289" fill="#fff"/><path d="M43.92 23.139v-10.83c-17.742-1.236-21.414 4.952-21.96 5.745-.546-.793-4.217-6.981-21.96-5.745v10.826" fill="#B7B7B7"/><path d="M25.961 22.356l-.108-.01.076.05.032-.04zm-7.49-1.449l-.176.067-.156.104.217-.054.192-.094.204-.076.271-.073.246-.123.176-.041.182-.016.204-.073.21-.047.227-.048-.166.085.067.07-.127.127.166.17.179-.114.22-.05.185-.13.21-.047.17-.136-.246-.013-.214.073.096.041-.156.047-.074-.11.06-.057-.168-.013.191-.063.211.013.185-.067-.143.02-.157-.02.112-.038-.224.067-.23.047.023-.025-.182.019-.147.003-.013.003-.195.067.163-.07h.042l.198-.06.217-.01.166-.034-.195-.01h.227l.15-.054.185-.025.192-.031-.052.018.192.007.192-.013.194.013.087.006.031-.003.205-.025.188.028.07-.006.195-.013.192.029.188-.02-.217-.025h-.051l-.029.004-.019-.004-.121-.003-.211-.022.176-.003.16.025h.047l.153-.012.18.025.175.016.185.031.185.016.182.047.182.032.182.041.204.054.205.047.188.098.176.108.175.057.16.091.179.048.17.07.165.082.185-.007.192.057.185.08-.22-.165.179.073.16.1.172.09-.074-.099-.175-.072-.166-.095-.18-.064-.168-.088-.183-.057-.165-.098-.176-.073-.179-.066-.188-.041-.173-.082-.182-.054-.191-.025-.182-.064-.192-.022-.185-.053h-.195l-.188-.035-.185-.048-.192-.012-.195-.007-.194-.006-.192-.019-.195.016-.191.022-.195-.019-.195-.01-.195.013-.188.05-.195-.006-.188.048-.195-.003-.188.053-.189.038-.191.026-.17.028a.112.112 0 01-.031.006l-.17.07-.182.063-.175.044.169-.022.17-.05-.19.101.09-.003-.191.063-.186.076-.185.06-.194.016.162-.108-.153.067-.179.053-.175.07-.173.073-.16.1-.169.102.198-.085.208-.045zm1.676-.496l.122-.025-.122.06v-.035zm1.823-.262l-.105-.01-.182.02.214.005h.204l.201-.025-.016-.003-.12.01-.196.003zm-1.095.075l.14.007.163-.007h-.067l.157-.003.144-.047-.227.019.112-.038-.227.041-.236.028h.041l.01-.003-.01.003zm9.796 13.3l.083-.197-.14.155-.119.161-.115.162-.105.17-.077.193-.096.045-.102.13-.108.141-.074.159-.07.164-.182.13-.099.183-.115.155-.15.123-.134.143-.144.13-.153.12-.16.107-.146.126-.125.149-.083.174v.079l-.09.19-.127.17-.16.155.1-.06.146-.11.07-.064.15-.12.042-.028a9.462 9.462 0 002.308-2.865l.023-.076.012-.019-.089.12.029-.196zm-10.942 2.839h-.179l-.105.16-.131.127h-.22l-.167.212.103.212-.125-.016.02.193.124.127.163.094.188.042.185-.032.1-.101-.074-.108.105-.11.147-.086.01-.18.041-.174-.124-.167-.061-.193zm11.293-3.516l-.093.17-.08.177-.063.18-.042.175.055-.095.015-.022c.052-.108.1-.215.147-.326l.026-.17.057-.137.064-.133-.025-.006-.061.187zm-2.902 1.922l.092-.161.106-.152-.096-.193-.192-.104-.137-.146.09-.094.124-.086-.054-.19-.096-.174-.122-.145-.15-.047-.143-.086-.035-.224.038-.221.156-.152.176.107.195.08.201.056.163-.139.118-.187.128-.17.06-.2-.019-.164-.045-.164-.041-.162-.195-.13-.21-.11.022-.19.067-.173.07-.184.281.06.131-.139.099-.168.124-.145.138-.133.048-.202.118-.174.06-.2.067-.195-.01-.203.014-.202.01-.202.009-.203-.125-.132-.14-.117-.14-.12-.058-.174-.058-.171.07-.168-.2-.073-.22.026.076-.225.16-.06.137-.085.134.073.128.012.118.2.15.164.179-.187-.058-.18-.102-.158-.105-.155-.125-.158.022-.123v-.2l-.099-.177.004-.19.111-.066-.006-.202-.041-.206-.02-.183-.095-.23-.058-.175-.09-.158-.092-.152-.073-.142.137.089.108.145.103.145.153.08-.045-.155-.124-.111-.09-.146-.099-.148-.137-.11-.121-.137-.15-.07.006.178-.201-.032-.067.146-.122-.155-.12-.165-.049-.196-.044-.196.038-.202-.051-.187.013-.193.095-.044-.105-.164-.09-.162.013-.177-.127-.208.143.12.1.164.114.152.125.142.111.155.141.13.233.126.243.102-.112-.171-.14-.155-.208-.187-.13-.136-.135-.13-.128-.132-.163-.12-.118-.161-.115-.165-.111-.167-.144-.143-.118-.164-.144-.142-.191-.076-.176-.092-.134-.133-.147-.114-.131-.104-.032.19.054.183.09.17.153.14-.086.202-.106.076.048.105-.105.028.048.082-.131.032-.124.12.044.095-.092.174-.03.205-.073.184-.21-.022-.208.034-.16.114-.166.101-.127-.019-.09.149-.13.082-.052-.152-.038-.164-.16-.019-.166-.006-.169.035-.13.243-.227.06-.24.025-.105.206-.208.11-.05.155-.106.12-.06-.012.124.13-.18.053-.197.032-.189-.054-.025.136-.02.133-.124-.193-.099-.224-.143.183-.048.215-.067.202h-.176l-.17-.07-.168-.009-.17.06-.182.01-.178.035-.218.012h-.223l-.217.054-.182-.14-.131.241-.176-.003-.169.032-.17.079-.178.04-.105-.135-.035-.177.099-.08.178.12.198.045.211-.019-.016-.196-.134-.107-.115-.14-.14-.113-.163-.086-.109-.221-.175-.06-.189-.022-.166.019-.153.066h-.163l-.249.089-.198.003-.179.092-.191.079-.182-.004-.182-.025-.15.142-.153.136-.08.18.166.222-.039.168-.047.167-.004.165.16.123.204-.082.189-.105.16-.161.066-.01.01-.157.067-.18.166-.111.179-.083.188-.063.182-.006-.118.114-.166.076-.153.072-.08.247.06.161-.073.168-.137.123-.17-.032-.127.124-.1.139-.216-.032-.214-.031-.137-.089-.125-.11-.112-.108.157-.07.025-.186.08-.18-.156.126-.134.133-.16.136-.102-.08-.15.03-.134-.06-.18.075-.162.101-.192.02-.111-.077-.15-.022-.07.18-.042.18-.093.159-.137.113-.201-.13-.137-.208-.163.158-.163.136-.086.142-.045.165-.06.152.054.205.035.218.15.06.153.004.163-.092.134-.145.16-.023.24-.126.133.092.157.053.143.064-.003.18.026.19.054.183.099.174.08.18-.064.168-.02.19.135-.12.128-.156.028.082.023-.211-.039-.136-.05-.146-.1-.212.07-.25.14.14.065.205.099.209.057.234-.156.095.054.177.051.174-.025.218-.013.24.137.07.048-.041.118.076-.044-.2.086.035.003-.2.006-.195.157-.089.166.133.21.035-.153.12-.035.183.022.19-.01.19.164.073.162.075.163.076.16.086.188.003-.022.209-.051.196-.176.123-.108.12-.137-.066-.278-.06-.224-.023-.147-.113-.143-.12-.14-.155-.167-.127-.16-.126-.162.012-.18.206-.12-.146-.106-.155-.092-.167-.032-.196-.17-.101-.08-.184.061-.199.029-.206-.022-.195-.157-.111-.169-.101-.144-.133-.15-.127-.191-.05-.16-.02-.026-.268-.217.114-.233-.022-.121.174-.16.145-.21.022-.173.155-.09.212-.073.215-.067.18-.07.18-.054.184-.029.19-.026.186-.015.187.012.186.03.187-.01.186-.026.247.022.202-.01.203.065.192.038.197.045.199.092.18.144.145.099.196.147.162.207.07.093.135.076.152.093.142.144.149.127.167.074.177-.026.212-.028.215.067.21.111.186.061.186.099.17.051.19.096.171.105.162.122.148.025.165.003.158-.063.095.067.19.003.208.137.136.144.12.111.149.109.148.112.149.115.145.108.152.134.13.131.133.003.009c.32.272.658.519 1.013.746l.076.032.15.06.157.057.166.038.182-.136-.051-.2.118-.135-.051-.127-.032-.142.13-.082.176-.038.189-.048.111-.155-.083-.183-.05-.196-.058-.196-.102-.177-.045-.2-.08-.186.147-.158.179-.117.201-.073.16-.136.162-.148.202-.092.2-.063.173-.12.06-.196.11-.174.108-.174.15-.117-.01-.184-.124-.075-.134-.067-.21.003-.209.029-.21.016-.214-.007-.144-.158.029-.142.21.035.195-.05.198-.032.195-.039.201-.006.195-.053.179-.076.17-.114.283.038.166-.057.173-.054.102-.161.092-.171.131-.142.109-.149-.06-.155-.049-.167-.169-.159-.105-.186.188.022.163.089.179.05.153.082.17-.06.184-.028.186-.016.182.022.028.073.134.11.166.064.122.13.166.17.172.152.16-.041.086.126.105.114-.025.184.003.18-.013.19.115.11.131.095-.019.212.096.13.096.13.092.132.134.066.083.12.131-.135.157-.111.083-.17.111-.156.023-.19-.01-.183.003-.186.106-.171.15-.136.175-.105.195-.069.137-.263.205-.116.118-.177.182-.108.182-.08.236.036.154.12.124.148.086.174.118.155.208.007.214.04.121.152.01.197-.026.19-.025.192.041.19.073.18.163.092.045.208.073.193-.14-.091-.176-.026-.172-.025-.182-.006-.054.1.182.15.23.075-.064.149.182.098.038.155.06.14.173.062.185.048.189-.013zm-11.047-.158l-.15-.209.124.054.013-.06.112.101-.1.114zm1.22-1.913l-.116-.269-.13-.136-.106-.158-.096-.164.029-.19.118-.17-.093-.162-.169-.066-.044-.174-.055-.168-.07-.164-.02-.177-.047-.171.156.029.154.1.086.162-.003.202.028.2.058.192.086.171.083.17.115.153.112.158.09.23.009.18.012.18.055.178-.243-.136zm.666-4.07l-.252.004-.169-.08-.185-.043-.144-.117-.179-.051-.198-.032-.2-.025-.199-.01.131-.129.08-.165.064-.17.108-.146.147-.015.122.031.073.133.054.142-.099.06.176.165.249-.092-.224-.12.141-.117.182-.025.166-.029-.032.149-.14.12.114.133.122.126.105.143-.013.16zm1.029-.28l.06-.146.201-.076.18.047.133-.037-.16.142-.175.091-.01.143.007.145.073.161.058.171.038.177.045.177-.003.177-.157.06-.198-.04-.083-.194-.067-.205.14-.104-.076-.184-.064-.18-.006-.19.064-.136zm.5 3.237l-.172-.028-.172-.064-.112-.142-.102-.148-.112-.146-.08-.164-.134-.13.122-.044.143-.032.061.158.067.155.115.123.102.14.211.015.191.07-.127.237zm10.256 1.98l.003-.016-.025.044.022-.029zM20.696 20.23h.003-.003zm4.936 2.393l.243.08-.003-.203-.198.019-.041.104zM15.598 27.22l-.111.047-.007.155-.006.158.115-.177.01-.184zm1.14 1.814l.102.02-.08-.146-.022.126zm4.007-8.812h-.019l-.026.01.045-.01zm-4.996 7.835l.047.159.15-.136-.038-.174-.16.028-.041-.123-.06.117.101.13zm-.016-1.062l-.048.114.057-.022-.01-.092zm14.795 5.92l.105-.115.051-.145-.172.174.016.085zm-.53-5.256l-.13-.013-.033.196.166.054-.003-.237zm-.252 3.478l.198.104.233-.123-.096-.18-.102-.187.051-.145-.038-.146-.16.045-.038.212-.048.211v.21zm0 .813l.09-.168-.164.092-.05.202.124-.126zm.38-.522l-.07.025-.004.13.08.07-.006-.225zm-.16-4.945l.032.183-.02.184-.002.186-.06.177-.046.18-.035.193.195-.028.125-.127.025-.18-.032-.177.02-.174.015-.196-.038-.186-.096-.165-.067-.183-.093-.19-.06.073.073.212.064.218zm-1.232 8.11l-.224.054-.22.01-.128.157.16-.003.166-.006.16-.038.207-.041.188-.092.144-.168-.28-.022-.173.149zm-.125-3.481l-.09.158.183.085.041-.136.016-.139-.15.032zm.977-1.515l-.032.184.042.186.067-.022.038-.202-.025-.193-.09.047zm-4.869 4.136l-.172.035-.1.139.023.168.086.148-.019.066.22-.037.051-.177-.015-.184-.074-.158zm4.853-7.962l.08.159.07-.13.01-.161.022-.168-.147-.079-.16.022.08.174.045.183zm1.75 5.9l-.112.184-.112.18-.067.215-.13-.11-.093.139-.051.167.07.174.21-.136.026.104.045.016.093-.19.073-.199.07-.126c.02-.07.042-.14.06-.209l.014-.06.032-.215-.128.066zm-1.073.244l.157.06.048-.193.009-.19-.035-.19-.029-.006-.105.193-.074.209-.127.183.156-.066zm-.405 2.2l.06-.135-.127.088-.096.133-.067.148.111-.12.119-.113zM24.08 23.38l.195-.05-.265-.09.07.14zm5.316 10.447l.09-.161.054-.18.082-.165.08-.17.01-.19-.051-.178.099-.123.073-.148-.134-.095h-.166l-.057.19-.1.17-.095.174-.16.212-.099.145-.147.105-.127.12-.109.139-.057.164.105.162.192.053.191-.031.198-.004.128-.19zm-9.432-10.773l-.006-.173-.176-.058-.156.076-.112.133-.026.174.24.003.22-.085.06.07.272-.073-.166-.13-.15.063zm-2.474-1.543l-.15.108-.163.085-.134.13-.198.136-.109.215.173-.067.137-.091.16-.01-.039.089.189.066.099.162.038.173.179-.016.175-.034.134-.117.176-.006.163-.058.22-.082.157-.034.14-.032.026-.038.188.032.195.019.169-.02.022-.138.023-.127.191-.11.003-.216.186-.212-.074-.037.051-.041.102-.225-.146-.032.099-.091-.01-.146.115-.035-.179-.019-.179.026-.163.073-.16.069-.044.07-.172.07-.166.075-.179.041-.163.08-.217.085.038-.054-.175.07-.15.094-.055-.063-.182.032-.166.085-.175.066zm-.584 1.376l-.103.148.007.171h.16l.156.016.092-.234-.169-.218-.143.117zm5.782-2.723l-.214.01-.211.028.214.01.21-.048zm-.885 3.994l.18-.054.152-.11.192.012.016-.098-.192-.06-.198.035-.163.095-.198.063-.178.107-.102.18-.077.19.134.067.128.088.07-.082-.048-.177.137-.133.147-.123zm1.97-1.037l-.163.04.013.219.185-.003.176-.003-.083-.136-.128-.117zm6.775 9.264v-.155l-.041.155.006.146.035-.146zM16.96 21.625l.185-.095.17-.12.194-.076.188-.091.09-.133-.182.101-.058.022c-.32.18-.626.38-.92.595l.16-.076.173-.127zm13.2 11.146l-.214.101-.08.174-.105.158-.055.183-.031.184.057.164.17-.07.117-.16.048-.194-.012-.192-.09-.038.128-.149.121-.17.102-.19-.156.199zm-14.387-7.933l.166-.064.134-.12.045-.17-.022-.004-.18.057-.162.092-.16.095.016.136.163-.022zm14.22 9.226l.132-.196.102-.202-.125.199-.108.199zm-13.891-9.179l-.176.098-.153.127-.147.132.02.171.23.003.226-.031.105-.187.045-.205.083-.18.15-.137.105-.173.058-.203-.153.063-.14.067.009.167-.138.136-.124.152zm-.003-2.643l-.035.028-.045.041-.173.168.176-.161.077-.076zm-1.623 23.227s-7.018-3.858-6.472-9.906c0 0-.6 1.717.374 4 0 0-3.413-1.265-.46-6.33 0 0 3.8 2.614 1.102 6.367 0 0 .686 1.673 3.017 3.112 2.33 1.438 3.01 2.017 3.01 2.017s.122.632-.57.74z" fill="#fff"/><path d="M9.103 41.26s-2.836 3.462-7.063.607c0 0 3.28-3.124 6.616-1.37 0 0-2.012.039-3.053.671.003 0 1.795-.458 3.5.092zm1.727-.139s-1.063-2.56 1.666-3.566c0 0 .393 3.351-1.666 3.566zM34.76 28.45c-.255-3.13-1.529-5.817-3.783-8.034-1.169-1.15-2.532-2.01-4.11-2.703-.156.465-.472.945-.35 1.125.284.408-.042.598-.15.842-.03.066-.396.038-.582-.023-3.988-1.324-7.64-.686-10.753 2.094-3.126 2.795-4.119 6.377-3.116 10.396.692 2.77 2.391 4.9 4.898 6.365.207.12.418.237.657.373-.134.262-.24.657-.354.664-.706.025-.518.67-.923 1.068a14.977 14.977 0 005.29 1.373v1.334h1.37v-1.306c7.037-.38 12.481-6.573 11.906-13.567zm-19.386 8.067c-.013-.01-.023-.023-.036-.032a9.686 9.686 0 01-3.065-7.073c0-5.391 4.416-9.764 9.86-9.764 5.447 0 9.86 4.373 9.86 9.764 0 5.122-3.985 9.318-9.05 9.729-.063.006-.127.01-.194.013-.06.006-.121.009-.179.012-.575.025-1.156.003-1.75-.073.004 0 .004-.003.007-.006a9.78 9.78 0 01-1.648-.357c-.255-.054-.546-.165-.843-.218a.51.51 0 01.036-.073 9.701 9.701 0 01-1.067-.512 3.15 3.15 0 01-.488-.291c-.518-.332-1-.705-1.444-1.12zm17.072-2.201c-3.008 6.22-10.214 7.709-14.853 5.486l.332-.702c3.441 1.318 6.765 1.106 9.9-.838 1.993-1.233 3.366-2.991 4.209-5.167 1.657-4.274.198-10.295-5.246-13.064.128-.257.252-.516.38-.775 4.971 2.223 8.285 8.844 5.278 15.06zm-6.524 10.072c-2.5-.013-5-.01-7.5-.004-1.315.004-2.324.968-2.458 2.346h12.343c-.057-1.302-1.107-2.34-2.385-2.342zm-.887-.463c-.293-.114-.58-.316-.878-.325a74.323 74.323 0 00-4.023 0c-.297.009-.59.227-.884.35.022.06.048.12.07.18h5.642c.026-.069.051-.135.073-.205z" fill="#fff"/></g><defs><clipPath id="clip0"><path fill="#fff" d="M0 0h149v52H0z"/></clipPath></defs></svg>