<svg width="39" height="40" fill="none" xmlns="http://www.w3.org/2000/svg"><g clip-path="url(#clip0)"><path d="M38.801 1.639a.572.572 0 00-.63-.093L.337 19.576A.599.599 0 000 20.11a.6.6 0 00.326.543l10.707 5.39a.57.57 0 00.606-.058l10.41-7.98-8.172 8.621a.607.607 0 00-.164.463l.814 10.869c.018.24.176.446.4.522a.57.57 0 00.623-.178l5.683-6.754 7.025 3.443a.57.57 0 00.484.009.593.593 0 00.323-.37l9.908-32.364a.608.608 0 00-.172-.628z" fill="#000"/></g><defs><clipPath id="clip0"><path fill="#fff" d="M0 0h39v40H0z"/></clipPath></defs></svg>