<svg width="371" height="353" fill="none" xmlns="http://www.w3.org/2000/svg"><path d="M284.079 208.219l-44.092-7.161 10.447-27.983c2.31-6.193-.709-9.008-6.719-6.262l-52.214 23.871-21.797-30.069c-3.131-4.316-7.06-3.708-8.739 1.353l-11.681 35.26-56.989-6.962c-6.559-.8-8.585 2.797-4.51 8.001l18.426 23.505-39.868 20.163c-7.498 3.79-6.847 7.994 1.447 9.345l44.092 7.161-10.447 27.983c-2.31 6.193.709 9.008 6.719 6.262l52.214-23.871 21.799 30.076c3.13 4.315 7.06 3.707 8.738-1.354l11.682-35.26 56.988 6.962c6.559.8 8.585-2.796 4.511-8.001l-18.421-23.512 39.861-20.162c7.498-3.79 6.847-7.994-1.447-9.345z" fill="#171717"/><mask id="a" maskUnits="userSpaceOnUse" x="0" y="32" width="371" height="304"><path d="M0 230.091l32.3 94.25 13.943 10.943 100.427-10.943 52.773-88.779 95.486-13.414L371 85.362l-38.3-52.95H81.013L54.715 150.49 0 230.091z" fill="#fff"/></mask><g mask="url(#a)" fill-rule="evenodd" clip-rule="evenodd"><path d="M299.18 272.972h53.014a1.412 1.412 0 100-2.824h-89.409L156.646 562.327a1.412 1.412 0 11-2.654-.964L259.78 270.148h-48.473a4.451 4.451 0 010-8.902h92.865a1.398 1.398 0 01.007-1.145l15.189-33.725a10.604 10.604 0 013.267-4.097l2.858-2.162a13.922 13.922 0 0111.499-2.467l20.808-50.645c2.687-3.075 5.476-4.011 8.366-2.809l.137.059a6.668 6.668 0 013.4 8.795 816578.79 816578.79 0 01-21.09 47.677l27.912 7.402a1.412 1.412 0 11-.724 2.73l-28.344-7.517-3.323 7.51c2.198.837 3.2 4.153 3.585 10.001a1.412 1.412 0 01-1.362 1.504c-7.91.263-14.578 1.54-20.004 3.819-2.645 1.11-4.813 2.95-6.5 5.543 1.726.05 3.3.262 4.939.758 3.614 1.094 6.228 3.352 7.311 6.989l25.982.217H529.92l32.679 103.336a14.799 14.799 0 01-1.732 12.593h50.383c1.042-3.251 3.439-5.282 6.719-6.273 1.447-.438 2.837-.636 4.347-.693-1.518-2.262-3.448-3.874-5.79-4.856-4.956-2.079-11.048-3.246-18.277-3.487l-17.082-.001c-.78 0-1.412-.632-1.413-1.411a1.413 1.413 0 011.413-1.412h17.152c7.562.251 13.995 1.482 19.299 3.707 5.348 2.243 8.849 7.102 10.514 14.426h14.445c-1.537-7.451-4.518-12.19-8.881-14.34-5.077-2.501-15.427-6.579-31.007-12.211a1.413 1.413 0 01-.926-1.192l-8.947-7.716a1.413 1.413 0 011.845-2.139l8.725 7.526c27.139 6.428 42.107 10.883 45.577 13.668 5.231 4.199 8.631 10.06 10.194 17.526.031.152.038.301.022.445h24.702a4.451 4.451 0 010 8.902h-117.66l83.241 175.158a1.412 1.412 0 11-2.551 1.212l-83.817-176.37h-39.871l64.348 125.065h-19.374l16.025 50.27a1.412 1.412 0 01-1.345 1.841H442.829c-.99 0-1.673-.993-1.319-1.918l2.221-5.79a20.824 20.824 0 0114.119-12.677l24.119-6.381-7.904-25.345h-31.237l-43.851-112.333c.478-.33.722-.936.563-1.529l-22.967-85.923a10.944 10.944 0 017.086-13.199l56.45-18.97a1.412 1.412 0 10-.9-2.677l-56.449 18.971c-6.888 2.314-10.791 9.584-8.915 16.604l22.604 84.563-11.482 114.079h-34.622v51.113c0 .78-.633 1.412-1.412 1.412h-13.965a1.412 1.412 0 01-1.412-1.412v-31.137l-24.828 32.002a1.41 1.41 0 01-1.115.547h-98.467a1.413 1.413 0 01-1.319-1.918l2.22-5.79a20.827 20.827 0 0114.12-12.677l24.704-6.535 5.412-25.605h-39.844l46.393-133.255.154.002 38.194-104.507zm337.226-76.456l-43.23-1.032-55.192-122.801a9.53 9.53 0 018.66-13.438l186.372-.638a9.53 9.53 0 019.428 7.93l21.494 126.068c26.133 6.561 45.484 30.21 45.484 58.378 0 33.24-26.946 60.186-60.186 60.186-33.239 0-60.186-26.946-60.186-60.186 0-12.278 3.677-23.696 9.988-33.216l-2.893 2.805a14.512 14.512 0 01-3.462 2.484c-6.014 3.088-11.265 3.9-15.715 2.332-3.751-1.321-6.099-3.549-6.923-6.58-2.701 2.31-6.03 3.056-9.867 2.186-4.169-.945-6.79-3.347-7.719-7.041-3.108 2.006-6.303 2.463-9.489 1.295a12.244 12.244 0 01-7.641-14.55l1.077-4.182zm-537.88 9.501l5.759-146.974a9.531 9.531 0 019.524-9.157H326.77a9.531 9.531 0 019.129 12.271l-39.208 130.615a16.237 16.237 0 01-15.552 11.569h-90.328l-.118.001c.247.155.491.32.734.496a13.647 13.647 0 011.831 1.58 9.177 9.177 0 01.924 11.603l-17.265 24.841a1.337 1.337 0 01-.12.15l-4.738 5.155a14.11 14.11 0 01-12.139 4.459l-8.413 7.32c.186 1.929.282 3.885.282 5.863 0 33.24-26.946 60.186-60.186 60.186-33.24 0-60.186-26.946-60.186-60.186 0-33.24 26.946-60.186 60.186-60.186 2.341 0 4.651.134 6.923.394zm466.707 305.129h-88.21l7.963 25.534h44.488a1.412 1.412 0 110 2.824h-47.463c-.096 0-.19-.01-.282-.028l-23.156 6.126a18.005 18.005 0 00-12.206 10.958l-1.485 3.873h126.856l-11.55-33.387a1.412 1.412 0 112.669-.923l11.869 34.31h6.219l-15.712-49.287zm-217.712-.414H257.17l-5.716 27.039a1.41 1.41 0 01-1.02 1.073l-25.545 6.758a18.005 18.005 0 00-12.205 10.958l-1.485 3.873h95.722l26.932-34.714c.825-1.063 2.527-.48 2.527.865v33.849h11.141v-49.701zM147.147 239.008l-.192.166a58.384 58.384 0 00-.506-.84l.698.674zm476.696 132.449c-1.884-.032-3.464.103-5.057.585-2.119.64-3.652 1.776-4.505 3.57h10.949c-.377-1.522-.839-2.906-1.387-4.155zm21.613 4.155h10.539c-1.565-6.029-4.496-10.748-8.8-14.202-2.223-1.785-11.234-4.747-26.75-8.758 6.625 2.56 11.455 4.588 14.499 6.087 5.372 2.647 8.854 8.316 10.512 16.873zM335.9 220.306a11.087 11.087 0 00-8.703 2.064l-2.858 2.162a7.762 7.762 0 00-2.396 3.004l-14.289 31.726 6.196.052c1.8-8.004 5.599-13.302 11.41-15.742.425-.179.856-.351 1.294-.518l9.346-22.748zm4.204 19.658a79.622 79.622 0 014.682-.368c-.184-1.951-.458-3.477-.814-4.564-.195-.597-.407-1.035-.616-1.309-.129-.17-.214-.231-.261-.242a.766.766 0 00-.115-.019l-2.876 6.502zm-11.006 19.477c-.915-2.165-2.667-3.517-5.124-4.261-1.776-.537-3.533-.683-5.636-.641-.635 1.435-1.167 3.034-1.595 4.799l12.355.103zm-206.216-76.514c5.776 5.704 6.003 11.294.434 16.021a1.41 1.41 0 01-1.116.32l1.16 15.406c14.584 9.076 25.001 24.217 27.724 41.897l6.952-6.049a1.415 1.415 0 011.546-.805 11.291 11.291 0 0010.398-3.46l4.673-5.085 17.21-24.763a6.354 6.354 0 00-.639-8.033 10.9 10.9 0 00-1.454-1.251c-2.76-2-5.769-2.237-9.228-.687l-12.619 16.747a1.411 1.411 0 01-2.255-1.7l12.956-17.193c.97-3.212.183-5.648-2.42-7.61-2.591-1.952-5.102-2.163-7.798-.674a.628.628 0 01-.051.027 1.426 1.426 0 01-.197.36l-12.961 17.2a1.412 1.412 0 11-2.255-1.7l12.961-17.199a1.4 1.4 0 01.489-.411c.047-.121.114-.242.201-.359l18.437-24.613c1.467-4.256.96-7.124-1.383-8.932-2.534-1.955-5.723-1.837-9.823.525a.357.357 0 00-.096.081l-33.33 40.456a1.412 1.412 0 01-2.421-.428 930.55 930.55 0 01-2.951-8.457 48.744 48.744 0 01-.347-1.06 96.316 96.316 0 01-.291-.932c-1.117-3.606-1.705-4.973-2.7-5.858-1.328-1.179-2.765-2.041-4.318-2.592a4.589 4.589 0 00-4.488.811zm-1.517 2.479a4.54 4.54 0 00-.106 1.366l.722 9.586c3.559-3.309 3.419-6.764-.616-10.952zm53.233 55.845l.12-.15-.065.071-.055.079zm5.622-73.289a1.412 1.412 0 112.013 1.981c-1.973 2.004-4.448 1.985-6.89.083-2.463-1.918-3.063-4.274-1.435-6.506a1.413 1.413 0 012.281 1.664c-.639.876-.464 1.56.889 2.614 1.375 1.071 2.243 1.078 3.142.164zM91.603 323.171c31.68 0 57.362-25.682 57.362-57.362 0-31.68-25.682-57.362-57.362-57.362-31.68 0-57.362 25.682-57.362 57.362 0 31.68 25.681 57.362 57.362 57.362zm19.554-61.316c-1.642.499-3.574.117-5.703-1.055a1.412 1.412 0 011.362-2.474c1.742.959 2.981 1.134 3.871.676l-.258-1.564a1.414 1.414 0 01.643-1.426l13.052-8.196-10.052-2.708a5.297 5.297 0 01-2.728 6.078 20.322 20.322 0 01-6.756 2.036 20.334 20.334 0 01-7.049-.341 5.295 5.295 0 01-1.214-9.886 20.327 20.327 0 016.757-2.036 20.775 20.775 0 014.216-.094 16.248 16.248 0 00-5.115-6.756l-19.077 8.751-16.444 2.917c-.09.582-.136 1.177-.136 1.779v40.354c9.302 2.144 18.111 2.85 26.431 2.122 8.228-.72 15.51-2.717 21.857-5.987l-3.657-22.19zm-5.575-18.232c-.712.004-1.43.05-2.156.139-2.084.256-4.023.84-5.825 1.752a2.471 2.471 0 00.567 4.614 17.51 17.51 0 006.076.291 17.51 17.51 0 005.824-1.752 2.47 2.47 0 00.625-3.958c.024.117.041.237.052.36.144 1.65-.998 3.099-2.552 3.235-1.554.136-2.93-1.092-3.075-2.743a3.107 3.107 0 01.464-1.938zm4.834-2.425l17.563 4.732c1.19.321 1.427 1.905.384 2.56l-14.995 9.415 4.397 26.684a1.412 1.412 0 01-.721 1.471c-6.905 3.739-14.855 5.999-23.84 6.785-8.958.784-18.433-.033-28.421-2.445a1.413 1.413 0 01-1.08-1.373v-41.471a14.471 14.471 0 019.105-13.441l12.265-4.897a19.14 19.14 0 013.986-1.11c9.445-1.556 18.515 4.103 21.357 13.09zm-17.41 26.388c-5.337 2.837-11.963.811-14.8-4.525-2.837-5.336-.812-11.962 4.525-14.799a1.411 1.411 0 111.325 2.493 8.119 8.119 0 107.624 14.337 1.412 1.412 0 111.325 2.494zm656.23 40.759c31.681 0 57.362-25.682 57.362-57.362 0-31.68-25.681-57.362-57.362-57.362-31.68 0-57.362 25.682-57.362 57.362 0 31.68 25.682 57.362 57.362 57.362zm-9.535-78.066c.671.666.999 1.663.784 2.674-.332 1.564-1.838 2.569-3.364 2.245-1.252-.266-2.128-1.345-2.218-2.588-.512.406-1.009.858-1.492 1.358 2.79 1.906 5.661 2.699 8.656 2.416a11.748 11.748 0 005.369-1.865 30.896 30.896 0 01-2.065-4.185 12.042 12.042 0 00-4.1-.306 12.26 12.26 0 00-1.57.251zm30.821 26.135l-1.361 15.212a1.41 1.41 0 01-1.212 1.273c-7.565 1.049-15.746.635-24.54-1.234-8.833-1.877-15.46-4.53-19.891-8.001a1.411 1.411 0 01-.523-1.337l2.186-13.52a1.417 1.417 0 01.091-.561l.719-4.445-10.522-2.237a1.411 1.411 0 01-.837-2.227l10.471-13.979a27.545 27.545 0 0129.983-9.864l8.676 2.61a12.708 12.708 0 018.996 13.301l-.741 8.286 26.249 8.084a3.531 3.531 0 012.171 4.843l-6.222 13.589a3.53 3.53 0 01-5.044 1.546l-18.649-11.339zm-28.503-38.726a24.7 24.7 0 00-14.655 9.363l-9.147 12.21 9.676 2.057a1.412 1.412 0 011.1 1.607l-.304 1.884c1.946.306 3.462.574 4.554.806.693.148 1.226.282 1.614.411.241.08.441.162.617.259.436.242.75.542.847 1.141.114.705-.217 1.188-.673 1.493-.17.114-.346.191-.549.258a7.079 7.079 0 01-.976.226c-.643.112-1.51.22-2.595.33-.259.026-.53.052-.813.078-.612.057-1.922.167-2.875.247l-1.921 11.879c4.048 2.932 10.076 5.265 18.077 6.966 8.052 1.712 15.536 2.157 22.454 1.341l2.498-27.94c-1.295-2.315-3.588-4.097-6.443-4.704-3.55-.754-7.043.504-9.216 2.986-1.753-1.237-3.164-2.487-4.234-3.752a14.552 14.552 0 01-6.722 2.361c-4.186.396-8.167-.925-11.881-3.911a1.412 1.412 0 01-.21-1.993c2.961-3.631 6.568-5.677 10.763-6.074a15.006 15.006 0 013.25.041c-.903-2.805-1.648-5.995-2.236-9.57zm-72.089-2.915c.004-.102.02-.205.048-.307l8.879-32.685a1.419 1.419 0 01-.139-.506c-.371-4.186-2.187-6.686-5.556-7.767-3.599-1.156-6.408-.071-8.758 3.444a1.4 1.4 0 01-.564.494l-8.685 33.199c-.05.192-.138.365-.253.512.008.054.014.109.017.165.195 3.844 2.071 6.053 5.884 6.918 3.831.868 6.788-.252 9.127-3.467zm2.631.774a.59.59 0 00-.002.042c-.233 3.47 1.45 5.763 5.347 7.136 3.622 1.275 8.105.582 13.487-2.181a11.677 11.677 0 002.786-1.999l7.203-6.984-6.748-2.302a1.413 1.413 0 01-.945-1.513l2.481-19.672c-.023-5.363-1.766-8.315-5.23-9.265-3.145-.863-6.123-.028-9.06 2.617l-9.177 33.78a1.41 1.41 0 01-.142.341zm-20.17-5.056a1.408 1.408 0 01.032-.561l8.989-34.36c.029-.113.072-.219.125-.317-1.069-3.526-3.232-5.735-6.568-6.759-1.353-.416-2.608-.583-3.766-.51a6.354 6.354 0 00-5.754 4.756l-7.386 28.663a9.42 9.42 0 005.88 11.194c2.766 1.014 5.529.356 8.448-2.106zm-3.85-32.093c-.26 1.687.528 2.671 2.845 3.272 2.307.598 3.363.176 3.818-1.264a1.412 1.412 0 012.693.851c-.961 3.041-3.585 4.089-7.219 3.146-3.625-.939-5.428-3.191-4.928-6.435a1.412 1.412 0 012.791.43zm18 5.668c-.26 1.686.528 2.67 2.846 3.271 2.307.598 3.362.177 3.817-1.263a1.412 1.412 0 112.693.851c-.961 3.04-3.584 4.088-7.219 3.146-3.624-.94-5.428-3.192-4.928-6.435a1.412 1.412 0 112.791.43zm17.659 4.729c-.26 1.686.528 2.67 2.846 3.271 2.306.598 3.362.177 3.817-1.263a1.412 1.412 0 112.693.851c-.961 3.04-3.585 4.088-7.219 3.146-3.625-.94-5.428-3.192-4.928-6.435a1.412 1.412 0 112.791.43zm-215.313-91c-6.24-3.39-10.892-5.927-13.956-7.615-2.901-1.598-6.4-3.546-10.495-5.844-6.833 6.155-9.462 15.09-7.869 26.97l7.865-.965a1.411 1.411 0 11.344 2.803l-9.235 1.133a1.41 1.41 0 01-1.566-1.181c-1.565-9.914-.429-18.142 3.417-24.61l-4.378 3.941a17.181 17.181 0 00-1.581 7.514l.534 32.085c6.699 2.405 14.131 3.111 22.313 2.106 8.168-1.003 15.224-3.039 21.174-6.101l-2.577-11.867a1.412 1.412 0 011.399-1.711 8.12 8.12 0 10-3.355-15.458 1.412 1.412 0 01-1.985-.976l-.022-.104-.027-.12zm-15.859-18.04c8.556 1.323 15.801 7.503 18.273 16.082a11.01 11.01 0 011.765-.365c5.998-.736 11.458 3.53 12.195 9.528.726 5.915-3.411 11.306-9.278 12.162l2.457 11.316a1.41 1.41 0 01-.705 1.54c-6.47 3.517-14.176 5.82-23.111 6.917-8.99 1.104-17.183.239-24.561-2.605a1.413 1.413 0 01-.904-1.294l-.55-33.048c-.128-7.733 4.147-14.576 10.585-18.034a9.033 9.033 0 01-2.137-16.05 7.63 7.63 0 012.79-14.133l5.529-.788a7.257 7.257 0 018.209 6.16l.003.025a7.683 7.683 0 01-2.526 6.823 8.591 8.591 0 015.882 7.113l.003.027a9.1 9.1 0 01-3.919 8.624zm-7.069 19.013c.249-.094.516-.15.795-.165 1.557-.082 2.89 1.194 2.977 2.848a3.102 3.102 0 01-.618 2.042 11.728 11.728 0 002.878-.505c2.892-.884 5.222-2.75 7.018-5.652-3.112-1.402-6.087-1.646-8.979-.762a11.608 11.608 0 00-4.071 2.194zm-1.657 1.661a15.615 15.615 0 00-1.289 1.797 16 16 0 001.293.519 3.152 3.152 0 01-.215-.998 3.147 3.147 0 01.211-1.318zm8.515 5.259c-4.046 1.237-8.219.681-12.441-1.623a1.412 1.412 0 01-.577-1.889c2.211-4.271 5.36-7.066 9.406-8.303 4.046-1.237 8.219-.68 12.441 1.624.674.368.93 1.207.577 1.888-2.211 4.272-5.36 7.066-9.406 8.303zm-13.006 12.351a1.413 1.413 0 01.918-2.671c1.749.601 3.787.286 6.178-1.034a1.411 1.411 0 111.364 2.472c-3.04 1.678-5.882 2.118-8.46 1.233zm129.707-36.087l34.87 74.178c.231.493.725.808 1.269.812l128.693.823a1.412 1.412 0 001.395-1.68l-14.518-75.189a1.411 1.411 0 00-1.388-1.144l-149.044.187a1.413 1.413 0 00-1.277 2.013zm149.158.626l13.97 72.352-126.081-.807-33.546-71.363 145.657-.182zm-61.426 58.655c3.941 0 9.009-1.562 12.142-3.477 5.933-3.628 8.509-9.71 8.509-17.174 0-4.638-1.127-9.497-3.709-12.944-3.766-5.029-10.175-7.706-16.942-7.706-6.721 0-12.517 3.582-16.288 8.554-2.628 3.464-4.362 7.412-4.362 12.096 0 6.217 3.267 11.617 7.614 15.402 3.627 3.159 7.848 5.249 13.036 5.249zM136.257 91.958a3.883 3.883 0 100 7.766h145.788a3.883 3.883 0 000-7.766H136.257zm.706 26.827a3.883 3.883 0 000 7.766h56.297a3.882 3.882 0 000-7.766h-56.297zm75.188 0a3.884 3.884 0 000 7.766h27.803a3.882 3.882 0 100-7.766h-27.803zm45.184 0a3.883 3.883 0 000 7.766h20.78a3.883 3.883 0 000-7.766h-20.78z" fill="#fff"/><path d="M400.281 259.928l-5.31-12.754a35.3 35.3 0 00-18.637-18.858l10.173-78.112c1.074-8.247 8.585-14.094 16.843-13.112l24.129 2.866 1.406-7.765 48.657-7.111 13.918 22.478 29.73 3.532a16.594 16.594 0 0112.899 9.09l88.929 178.901h-68.275l-25.269-79.249-129.193.094zM223.977 152.673h38.829c5.362 0 9.708 4.346 9.708 9.707a9.707 9.707 0 01-9.708 9.708h-38.829a9.707 9.707 0 01-9.708-9.708c0-5.361 4.346-9.707 9.708-9.707zm428.009-39.879c0-.178 5.53 1.97 16.591 6.445l-13.631 11.548c-1.973-11.816-2.96-17.814-2.96-17.993zM530.133 257.908l-15.146-56.974a1.413 1.413 0 00-2.729.726l15.145 56.973a1.412 1.412 0 002.73-.725zM86.741 284.724a35.85 35.85 0 001.672-.016l35.756-1.193a2.824 2.824 0 012.596 4.132l-5.004 9.559 11.401 8.13c-3.227 3.381-6.199 5.968-8.916 7.763-1.732 1.145-3.375 2.062-4.513 2.733-5.405 3.192-10.89 4.832-14.804 5.798-4.579 1.129-9.275 1.581-14.522 1.581-.962 0-3.876-.183-4.812-.281-7.32-.768-15.712-2.831-25.044-8.796-1.715-1.096-4.912-3.481-7.826-6.134-.532-.485-1.344-1.286-2.436-2.404l11.38-8.39-3.65-8.959a2.824 2.824 0 012.655-3.889l26.067.366zm657.776-20.673l33.828 1.511a2.825 2.825 0 012.472 3.927l-2.276 5.351a14.88 14.88 0 003.017 16.189l4.14 4.264c-10.37 8.78-22.524 13.169-36.462 13.169-4.93 0-10.847-.874-16.132-2.391-2.871-.823-5.69-1.991-7.99-3.045-2.601-1.191-5.563-2.813-8.772-5.032-.691-.478-1.741-1.276-3.148-2.395a24.567 24.567 0 003.578-19.19l-2.901-12.718a2.823 2.823 0 013.155-3.423l24.041 3.458c1.144.165 2.295.273 3.45.325z" fill="#1840F8"/></g></svg>