<svg width="307" height="353" viewBox="0 0 307 353" fill="none" xmlns="http://www.w3.org/2000/svg">
<path d="M277.079 208.219L232.987 201.058L243.434 173.075C245.744 166.882 242.725 164.067 236.715 166.813L184.501 190.684L162.704 160.615C159.573 156.299 155.644 156.907 153.965 161.968L142.284 197.228L85.2951 190.266C78.736 189.466 76.71 193.063 80.7843 198.267L99.2107 221.772L59.3432 241.935C51.8449 245.725 52.496 249.929 60.7903 251.28L104.882 258.441L94.4349 286.424C92.1256 292.617 95.1444 295.432 101.154 292.686L153.368 268.815L175.167 298.891C178.297 303.206 182.227 302.598 183.905 297.537L195.587 262.277L252.575 269.239C259.134 270.039 261.16 266.443 257.086 261.238L238.665 237.726L278.526 217.564C286.024 213.774 285.373 209.57 277.079 208.219Z" fill="#171717"/>
<mask id="mask0" mask-type="alpha" maskUnits="userSpaceOnUse" x="0" y="30" width="307" height="293">
<path d="M152.977 290.983L239.234 322.5L278.124 307.571L306.692 265.548L300.794 215.232L260.246 175.605L230.203 30H21.7486L0 50.2741L64.5085 201.777L152.977 290.983Z" fill="#ffffff"/>
</mask>
<g mask="url(#mask0)">
<path fill-rule="evenodd" clip-rule="evenodd" d="M-236.822 269.041H-181.462C-180.648 269.041 -179.988 268.381 -179.988 267.567C-179.988 266.753 -180.648 266.092 -181.462 266.092H-246.8H-274.829L-385.665 571.203C-385.943 571.968 -386.789 572.363 -387.554 572.085C-388.32 571.807 -388.715 570.961 -388.437 570.196L-277.966 266.092H-328.585C-331.152 266.092 -333.232 264.012 -333.232 261.445C-333.232 258.877 -331.152 256.797 -328.585 256.797H-231.61C-231.768 256.435 -231.785 256.007 -231.602 255.601L-215.741 220.384C-214.98 218.694 -213.807 217.223 -212.329 216.105L-209.345 213.848C-205.917 211.255 -201.521 210.314 -197.338 211.271V211.271L-175.609 158.384C-172.803 155.173 -169.89 154.196 -166.872 155.452C-166.824 155.472 -166.776 155.492 -166.729 155.513C-163.213 157.068 -161.623 161.18 -163.178 164.697C-172.62 186.042 -179.961 202.637 -185.202 214.484L-156.055 222.214C-155.268 222.423 -154.799 223.23 -155.008 224.018C-155.216 224.805 -156.024 225.274 -156.811 225.065L-186.409 217.215C-187.714 220.165 -188.871 222.779 -189.879 225.058C-187.583 225.931 -186.538 229.394 -186.136 235.501C-186.081 236.333 -186.725 237.044 -187.558 237.072C-195.818 237.346 -202.781 238.68 -208.447 241.059C-211.21 242.219 -213.473 244.14 -215.234 246.848C-213.433 246.9 -211.789 247.122 -210.078 247.64C-206.303 248.782 -203.573 251.14 -202.443 254.938L-175.31 255.165H4.12927L38.2548 363.074C39.7129 367.685 38.9011 372.47 36.446 376.224H89.0592C90.1469 372.829 92.6497 370.709 96.075 369.673C97.5858 369.216 99.0381 369.009 100.614 368.95C99.03 366.587 97.014 364.905 94.5681 363.879C89.3932 361.708 83.0316 360.49 75.4824 360.237H57.6442C56.8298 360.237 56.1697 359.577 56.1693 358.763C56.1697 357.948 56.8298 357.288 57.6442 357.288L75.507 357.288L75.5559 357.289C83.4525 357.551 90.1703 358.836 95.7087 361.159C101.294 363.502 104.949 368.577 106.688 376.224H121.772C120.167 368.443 117.055 363.495 112.498 361.25C107.196 358.638 96.3882 354.38 80.1188 348.498C79.566 348.298 79.2057 347.802 79.1522 347.254L69.8092 339.196C69.1925 338.664 69.1238 337.733 69.6556 337.116C70.1874 336.5 71.1185 336.431 71.7352 336.963L80.847 344.821C109.187 351.534 124.818 356.185 128.441 359.094C133.903 363.479 137.454 369.599 139.086 377.396C139.119 377.554 139.126 377.71 139.109 377.861H164.904C167.471 377.861 169.552 379.942 169.552 382.509C169.552 385.076 167.471 387.157 164.904 387.157H42.037L128.962 570.066C129.311 570.802 128.998 571.681 128.263 572.031C127.527 572.381 126.648 572.068 126.298 571.332L38.772 387.157H-2.86414L64.3322 517.756H44.1004L60.835 570.251C61.1382 571.203 60.4285 572.174 59.4302 572.174H49.9022C49.8793 572.174 49.8564 572.174 49.8336 572.174H-86.8163C-87.8504 572.174 -88.5633 571.137 -88.193 570.171L-85.8746 564.125C-83.3723 557.6 -77.8865 552.674 -71.13 550.887L-45.9442 544.224L-54.1977 517.756H-86.8166L-132.609 400.452C-132.109 400.108 -131.855 399.475 -132.02 398.855L-156.004 309.13C-157.562 303.303 -154.322 297.268 -148.605 295.347L-89.6564 275.536C-88.8845 275.277 -88.4691 274.441 -88.7285 273.669C-88.9879 272.897 -89.8239 272.482 -90.5958 272.741L-149.544 292.552C-156.737 294.969 -160.813 302.56 -158.853 309.891L-135.249 398.196L-147.239 517.324H-183.394V570.699C-183.394 571.514 -184.054 572.174 -184.868 572.174H-199.45C-200.265 572.174 -200.925 571.514 -200.925 570.699V538.184L-226.852 571.603C-227.131 571.963 -227.561 572.174 -228.017 572.174H-330.842C-331.876 572.174 -332.589 571.137 -332.218 570.171L-329.9 564.125C-327.398 557.6 -321.912 552.674 -315.155 550.887L-289.358 544.062L-283.706 517.324H-325.314L-276.868 378.171L-276.707 378.174L-236.822 269.041ZM115.328 189.202L70.1849 188.124L12.5499 59.888C10.2966 54.8744 12.5342 48.9833 17.5479 46.73C18.8204 46.1581 20.1989 45.8601 21.5939 45.8553L216.214 45.1894C221.078 45.1728 225.242 48.6744 226.059 53.4694L248.504 185.118C275.794 191.969 296.002 216.664 296.002 246.079C296.002 280.79 267.863 308.929 233.152 308.929C198.441 308.929 170.302 280.79 170.302 246.079C170.302 233.258 174.141 221.334 180.732 211.393L177.711 214.323C176.64 215.361 175.422 216.235 174.096 216.916C167.816 220.141 162.332 220.989 157.685 219.352C153.769 217.972 151.317 215.645 150.456 212.481C147.635 214.893 144.159 215.671 140.153 214.763C135.799 213.776 133.062 211.268 132.091 207.411C128.846 209.505 125.51 209.983 122.183 208.763C116.014 206.501 112.564 199.932 114.203 193.569L115.328 189.202ZM-446.357 199.123L-440.343 45.6451C-440.134 40.304 -435.743 36.082 -430.398 36.082H-208.011C-207.042 36.082 -206.078 36.2236 -205.15 36.5022C-199.885 38.0826 -196.898 43.6316 -198.479 48.8962L-239.422 185.292C-241.574 192.463 -248.175 197.373 -255.662 197.373H-349.988C-350.029 197.373 -350.07 197.373 -350.111 197.374C-349.854 197.536 -349.598 197.709 -349.344 197.892C-348.631 198.409 -347.993 198.959 -347.433 199.542C-344.263 202.834 -343.859 207.906 -346.467 211.658L-364.497 237.599C-364.535 237.654 -364.576 237.707 -364.622 237.756L-369.57 243.139C-372.834 246.691 -377.566 248.376 -382.246 247.796L-391.032 255.439C-390.837 257.454 -390.737 259.496 -390.737 261.561C-390.737 296.272 -418.876 324.411 -453.587 324.411C-488.298 324.411 -516.437 296.272 -516.437 261.561C-516.437 226.85 -488.298 198.712 -453.587 198.712C-451.142 198.712 -448.729 198.851 -446.357 199.123ZM41.0052 517.756H-51.1087L-42.7938 544.421H3.66364C4.47797 544.421 5.13812 545.081 5.13812 545.895C5.13812 546.709 4.47797 547.37 3.66364 547.37H-45.8998C-46.0005 547.37 -46.0989 547.36 -46.1939 547.34L-70.3758 553.737C-76.2161 555.283 -80.9582 559.54 -83.1211 565.181L-84.6718 569.225H47.7977L35.7369 534.36C35.4707 533.591 35.8788 532.751 36.6484 532.485C37.418 532.219 38.2576 532.627 38.5239 533.396L50.9181 569.225H57.4125L41.0052 517.756ZM-186.343 517.324H-280.692L-286.661 545.56C-286.776 546.105 -287.188 546.538 -287.726 546.681L-314.401 553.737C-320.242 555.283 -324.984 559.54 -327.147 565.181L-328.697 569.225H-228.739L-200.615 532.974C-199.754 531.865 -197.976 532.473 -197.976 533.878V569.225H-186.343V517.324ZM-395.584 233.575L-395.785 233.748C-395.959 233.454 -396.135 233.161 -396.313 232.87L-395.584 233.575ZM102.209 371.886C100.242 371.852 98.5919 371.993 96.9284 372.496C94.7161 373.165 93.1143 374.35 92.2238 376.224H103.658C103.264 374.635 102.781 373.189 102.209 371.886ZM124.779 376.224H135.784C134.15 369.929 131.089 365.001 126.595 361.394C124.273 359.53 114.864 356.437 98.6608 352.248C105.579 354.921 110.623 357.039 113.801 358.605C119.411 361.368 123.047 367.288 124.779 376.224ZM-198.477 214.045C-201.647 213.454 -204.958 214.227 -207.566 216.2L-210.55 218.457C-211.634 219.277 -212.494 220.356 -213.052 221.595L-227.973 254.725L-221.504 254.779C-219.624 246.421 -215.657 240.888 -209.588 238.34C-209.145 238.154 -208.695 237.974 -208.237 237.8L-198.477 214.045ZM-194.087 234.572C-192.509 234.4 -190.879 234.272 -189.198 234.188C-189.39 232.151 -189.677 230.558 -190.048 229.423C-190.252 228.799 -190.473 228.341 -190.691 228.055C-190.827 227.878 -190.915 227.815 -190.965 227.803C-191.004 227.793 -191.044 227.787 -191.084 227.782C-192.433 230.833 -193.434 233.096 -194.087 234.572ZM-205.58 254.912C-206.536 252.651 -208.366 251.239 -210.932 250.463C-212.786 249.901 -214.621 249.749 -216.817 249.792C-217.48 251.291 -218.035 252.961 -218.482 254.804L-205.58 254.912ZM-420.923 175.012C-414.892 180.968 -414.655 186.806 -420.47 191.741C-420.806 192.026 -421.232 192.134 -421.636 192.076L-420.424 208.163C-405.195 217.641 -394.317 233.453 -391.473 251.914L-384.213 245.598C-383.94 244.994 -383.281 244.631 -382.599 244.758C-378.625 245.5 -374.519 244.167 -371.741 241.144L-366.861 235.834L-348.889 209.975C-347.083 207.377 -347.363 203.866 -349.557 201.587C-349.994 201.133 -350.5 200.697 -351.075 200.28C-353.957 198.192 -357.099 197.944 -360.711 199.563L-373.889 217.051C-374.379 217.701 -375.303 217.831 -375.954 217.341C-376.604 216.851 -376.734 215.926 -376.244 215.276L-362.714 197.322C-361.701 193.968 -362.523 191.424 -365.241 189.375C-367.947 187.336 -370.569 187.116 -373.384 188.671C-373.402 188.681 -373.42 188.691 -373.438 188.7C-373.486 188.831 -373.555 188.958 -373.643 189.076L-387.178 207.037C-387.668 207.687 -388.593 207.817 -389.243 207.327C-389.893 206.837 -390.023 205.912 -389.533 205.262L-375.999 187.301C-375.858 187.115 -375.682 186.971 -375.488 186.873C-375.438 186.745 -375.369 186.619 -375.277 186.497L-356.024 160.795C-354.492 156.35 -355.023 153.355 -357.469 151.468C-360.115 149.426 -363.445 149.549 -367.727 152.016C-367.765 152.038 -367.799 152.067 -367.827 152.101L-402.632 194.347C-403.362 195.233 -404.779 194.982 -405.161 193.9C-406.559 189.936 -407.586 186.993 -408.242 185.068C-408.357 184.729 -408.474 184.372 -408.604 183.962C-408.691 183.687 -408.768 183.441 -408.908 182.988C-410.075 179.222 -410.688 177.795 -411.728 176.872C-413.114 175.64 -414.615 174.74 -416.237 174.165C-417.897 173.576 -419.665 173.956 -420.923 175.012ZM-422.508 177.6C-422.616 178.066 -422.653 178.547 -422.619 179.027L-421.865 189.037C-418.147 185.581 -418.294 181.973 -422.508 177.6ZM-366.918 235.916L-366.793 235.76L-366.861 235.834L-366.918 235.916ZM-361.047 159.384C-360.476 158.804 -359.542 158.796 -358.962 159.367C-358.382 159.938 -358.374 160.872 -358.945 161.452C-361.005 163.546 -363.591 163.525 -366.14 161.54C-368.712 159.537 -369.339 157.077 -367.639 154.746C-367.159 154.088 -366.237 153.943 -365.579 154.423C-364.921 154.903 -364.777 155.825 -365.257 156.483C-365.924 157.398 -365.742 158.113 -364.329 159.213C-362.893 160.331 -361.986 160.338 -361.047 159.384ZM-453.587 321.462C-420.505 321.462 -393.686 294.644 -393.686 261.561C-393.686 228.479 -420.505 201.661 -453.587 201.661C-486.669 201.661 -513.488 228.479 -513.488 261.561C-513.488 294.644 -486.669 321.462 -453.587 321.462ZM-433.167 257.433C-434.882 257.953 -436.899 257.555 -439.123 256.331C-439.836 255.938 -440.096 255.041 -439.703 254.328C-439.311 253.615 -438.414 253.355 -437.701 253.747C-435.881 254.749 -434.587 254.932 -433.658 254.453L-433.927 252.82C-434.024 252.234 -433.759 251.647 -433.256 251.331L-419.626 242.773L-430.124 239.944C-429.467 242.414 -430.6 245.09 -432.971 246.291C-435.16 247.4 -437.515 248.109 -440.027 248.417C-442.54 248.726 -444.996 248.608 -447.388 248.061C-448.99 247.695 -450.347 246.635 -451.089 245.169C-452.469 242.445 -451.38 239.118 -448.655 237.738C-446.466 236.629 -444.112 235.92 -441.6 235.612C-440.112 235.429 -438.644 235.396 -437.197 235.513C-438.344 232.673 -440.213 230.263 -442.539 228.458L-462.459 237.597L-479.631 240.643C-479.725 241.251 -479.773 241.872 -479.773 242.5V284.64C-470.06 286.88 -460.861 287.617 -452.173 286.857C-443.581 286.105 -435.976 284.019 -429.349 280.604L-433.167 257.433ZM-438.989 238.394C-439.732 238.397 -440.482 238.446 -441.24 238.539C-443.416 238.806 -445.441 239.416 -447.323 240.369C-448.594 241.013 -449.103 242.565 -448.459 243.837C-448.112 244.521 -447.479 245.016 -446.731 245.186C-444.675 245.656 -442.563 245.758 -440.387 245.49C-438.21 245.223 -436.186 244.613 -434.304 243.66C-433.033 243.016 -432.524 241.464 -433.168 240.193C-433.294 239.944 -433.458 239.72 -433.652 239.528C-433.627 239.65 -433.609 239.775 -433.598 239.903C-433.447 241.627 -434.64 243.14 -436.262 243.282C-437.885 243.424 -439.322 242.141 -439.473 240.417C-439.538 239.672 -439.352 238.966 -438.989 238.394ZM-433.941 235.861L-415.6 240.803C-414.358 241.138 -414.11 242.792 -415.2 243.476L-430.858 253.308L-426.267 281.172C-426.164 281.792 -426.466 282.409 -427.019 282.709C-434.23 286.614 -442.533 288.974 -451.916 289.795C-461.269 290.613 -471.163 289.76 -481.594 287.24C-482.256 287.081 -482.722 286.488 -482.722 285.807V242.5C-482.722 236.317 -478.956 230.757 -473.213 228.464L-460.406 223.351C-459.064 222.816 -457.669 222.427 -456.244 222.192C-446.38 220.567 -436.909 226.477 -433.941 235.861ZM-452.122 263.417C-457.695 266.38 -464.614 264.264 -467.577 258.692C-470.54 253.12 -468.424 246.2 -462.852 243.238C-462.133 242.855 -461.24 243.128 -460.858 243.847C-460.475 244.566 -460.748 245.459 -461.467 245.841C-465.602 248.04 -467.171 253.173 -464.973 257.307C-462.775 261.442 -457.641 263.011 -453.507 260.813C-452.788 260.431 -451.895 260.704 -451.513 261.423C-451.13 262.142 -451.403 263.035 -452.122 263.417ZM233.152 305.98C266.234 305.98 293.053 279.162 293.053 246.079C293.053 212.997 266.234 186.179 233.152 186.179C200.07 186.179 173.251 212.997 173.251 246.079C173.251 279.162 200.07 305.98 233.152 305.98ZM223.195 224.459C223.896 225.155 224.238 226.196 224.014 227.252C223.667 228.885 222.094 229.934 220.501 229.595C219.194 229.318 218.279 228.191 218.185 226.894C217.65 227.317 217.13 227.789 216.627 228.311C219.54 230.301 222.538 231.13 225.666 230.834C227.696 230.642 229.561 229.997 231.273 228.887C230.491 227.581 229.772 226.125 229.115 224.517C227.713 224.165 226.288 224.06 224.834 224.197C224.275 224.25 223.729 224.337 223.195 224.459ZM255.38 251.751L253.959 267.636C253.898 268.32 253.373 268.871 252.693 268.965C244.793 270.061 236.25 269.629 227.066 267.677C217.843 265.716 210.922 262.946 206.296 259.322C205.873 258.991 205.664 258.456 205.749 257.926L208.033 243.807C208.024 243.602 208.058 243.403 208.127 243.221L208.878 238.579L197.89 236.244C196.837 236.02 196.371 234.779 197.017 233.918L207.951 219.32C215.191 209.655 227.696 205.541 239.26 209.02L248.321 211.746C254.351 213.56 258.276 219.363 257.715 225.635L256.941 234.288L284.352 242.73C284.505 242.777 284.655 242.834 284.801 242.901C286.652 243.749 287.466 245.936 286.618 247.787L280.121 261.977C280.062 262.107 279.994 262.235 279.919 262.357C278.862 264.097 276.594 264.65 274.855 263.592L255.38 251.751ZM225.615 211.311C219.631 212.582 214.148 215.966 210.312 221.088L200.76 233.839L210.864 235.987C211.633 236.15 212.139 236.888 212.013 237.664L211.695 239.632C213.727 239.952 215.311 240.232 216.451 240.474C217.174 240.628 217.731 240.769 218.136 240.903C218.388 240.987 218.597 241.072 218.781 241.174C219.236 241.426 219.564 241.74 219.665 242.365C219.784 243.101 219.439 243.606 218.963 243.924C218.784 244.043 218.602 244.123 218.39 244.193C218.123 244.281 217.789 244.357 217.37 244.43C216.699 244.546 215.793 244.659 214.66 244.774C214.389 244.801 214.107 244.828 213.811 244.856C213.172 244.915 211.804 245.03 210.809 245.114L208.802 257.518C213.03 260.58 219.324 263.016 227.68 264.792C236.089 266.58 243.904 267.045 251.127 266.193L253.737 237.016C252.384 234.599 249.99 232.738 247.008 232.104C243.301 231.316 239.653 232.63 237.384 235.222C235.554 233.931 234.08 232.625 232.963 231.304C230.84 232.702 228.496 233.528 225.944 233.77C221.572 234.183 217.415 232.803 213.536 229.686C212.898 229.173 212.8 228.239 213.317 227.605C216.409 223.813 220.176 221.676 224.556 221.261C225.703 221.153 226.834 221.168 227.95 221.305C227.007 218.375 226.229 215.044 225.615 211.311ZM150.335 208.266C150.34 208.16 150.357 208.053 150.386 207.946L159.658 173.814C159.581 173.657 159.53 173.48 159.513 173.286C159.126 168.915 157.229 166.305 153.711 165.175C149.952 163.969 147.02 165.102 144.566 168.772C144.407 169.01 144.202 169.18 143.977 169.287L134.907 203.956C134.854 204.157 134.763 204.337 134.643 204.491C134.652 204.547 134.658 204.604 134.661 204.663C134.864 208.677 136.823 210.984 140.805 211.887C144.805 212.794 147.893 211.624 150.335 208.266ZM153.083 209.075C153.083 209.09 153.082 209.104 153.081 209.119C152.838 212.743 154.596 215.137 158.665 216.57C162.447 217.903 167.128 217.179 172.748 214.293C173.816 213.744 174.796 213.041 175.658 212.206L183.18 204.913L176.133 202.509C175.471 202.283 175.059 201.623 175.146 200.929L177.737 180.386C177.713 174.786 175.893 171.703 172.276 170.711C168.992 169.81 165.882 170.682 162.815 173.444L153.232 208.719C153.197 208.847 153.147 208.966 153.083 209.075ZM132.021 203.796C131.993 203.606 132.002 203.407 132.054 203.21L141.441 167.329C141.472 167.211 141.516 167.1 141.571 166.998C140.456 163.315 138.196 161.009 134.713 159.939C133.299 159.506 131.99 159.331 130.78 159.407C127.913 159.587 125.488 161.592 124.771 164.373L117.059 194.305C115.798 199.2 118.452 204.254 123.198 205.994C126.088 207.054 128.973 206.366 132.021 203.796ZM128 170.282C127.729 172.044 128.551 173.071 130.972 173.699C133.381 174.323 134.483 173.883 134.958 172.379C135.204 171.603 136.032 171.172 136.809 171.418C137.585 171.663 138.016 172.491 137.77 173.268C136.767 176.443 134.027 177.537 130.231 176.553C126.447 175.572 124.564 173.22 125.086 169.833C125.21 169.028 125.963 168.477 126.768 168.601C127.572 168.725 128.124 169.478 128 170.282ZM146.797 176.2C146.526 177.962 147.348 178.989 149.769 179.617C152.178 180.241 153.28 179.801 153.755 178.297C154.001 177.521 154.829 177.09 155.605 177.336C156.382 177.581 156.812 178.41 156.567 179.186C155.564 182.361 152.824 183.456 149.028 182.471C145.244 181.49 143.361 179.138 143.883 175.751C144.007 174.946 144.76 174.395 145.565 174.519C146.369 174.643 146.921 175.396 146.797 176.2ZM165.237 181.139C164.966 182.9 165.789 183.927 168.209 184.555C170.618 185.18 171.72 184.739 172.195 183.236C172.441 182.459 173.269 182.029 174.046 182.274C174.822 182.519 175.253 183.348 175.007 184.124C174.004 187.299 171.264 188.394 167.469 187.41C163.684 186.428 161.801 184.077 162.323 180.69C162.447 179.885 163.2 179.333 164.005 179.457C164.81 179.581 165.362 180.334 165.237 181.139ZM-59.6043 86.1114C-66.1208 82.5724 -70.9787 79.9218 -74.1781 78.1598C-77.208 76.4912 -80.8612 74.4569 -85.1379 72.0569C-92.2732 78.4841 -95.0187 87.8154 -93.3553 100.221L-85.1426 99.2125C-84.3344 99.1132 -83.5987 99.688 -83.4994 100.496C-83.4002 101.305 -83.9749 102.04 -84.7832 102.139L-94.4262 103.323C-95.2149 103.42 -95.9385 102.875 -96.0624 102.09C-97.6963 91.7365 -96.5097 83.145 -92.494 76.3912L-97.066 80.5061C-98.1691 82.8948 -98.763 85.559 -98.7165 88.3524L-98.1591 121.857C-91.1636 124.37 -83.4025 125.106 -74.8587 124.057C-66.329 123.01 -58.9606 120.883 -52.7477 117.685L-55.4384 105.294C-55.6397 104.367 -54.9259 103.494 -53.9773 103.507C-53.5916 103.512 -53.2038 103.491 -52.8154 103.443C-48.1679 102.873 -44.863 98.6427 -45.4336 93.9952C-46.0042 89.3477 -50.2344 86.0427 -54.8819 86.6133C-55.7949 86.7255 -56.6686 86.9798 -57.481 87.3647C-58.3389 87.7711 -59.3518 87.2727 -59.5532 86.3451L-59.5766 86.2374C-59.5857 86.1954 -59.5949 86.1533 -59.6043 86.1114ZM-76.166 67.2733C-67.2313 68.6545 -59.6653 75.1084 -57.0843 84.0672C-56.4857 83.8912 -55.8699 83.7636 -55.2413 83.6864C-48.9772 82.9172 -43.2757 87.3717 -42.5066 93.6358C-41.7482 99.8123 -46.0686 105.442 -52.1946 106.335L-49.6285 118.153C-49.4895 118.793 -49.7896 119.448 -50.3653 119.761C-57.122 123.434 -65.169 125.838 -74.4993 126.984C-83.8865 128.136 -92.4422 127.233 -100.147 124.264C-100.707 124.048 -101.081 123.513 -101.091 122.913L-101.665 88.4015C-101.799 80.3265 -97.3353 73.1801 -90.6122 69.5698C-95.0101 68.0844 -97.7452 63.542 -96.8438 58.8562C-96.3578 56.3295 -94.882 54.1808 -92.8431 52.8098C-95.6171 51.1789 -97.2344 47.9502 -96.6577 44.5909C-96.0725 41.1816 -93.3543 38.5395 -89.9298 38.0512L-84.1563 37.228C-80.0128 36.6372 -76.175 39.5171 -75.5842 43.6606C-75.5829 43.6692 -75.5817 43.6779 -75.5805 43.6866C-75.1967 46.4468 -76.2665 49.0858 -78.2189 50.812C-75.008 51.8517 -72.5219 54.6688 -72.0768 58.239C-72.0756 58.2484 -72.0744 58.2578 -72.0733 58.2673C-71.6311 61.9074 -73.3126 65.3332 -76.166 67.2733ZM-83.5479 87.1272C-83.287 87.0299 -83.0085 86.9704 -82.7177 86.9552C-81.0913 86.8699 -79.6994 88.2017 -79.6089 89.9298C-79.5667 90.7343 -79.814 91.4828 -80.2545 92.0618C-79.2417 92.0138 -78.2403 91.8376 -77.2482 91.5343C-74.2283 90.6111 -71.7951 88.6628 -69.9201 85.632C-73.1694 84.1678 -76.276 83.9133 -79.2959 84.8366C-80.8716 85.3183 -82.2876 86.0791 -83.5479 87.1272ZM-85.2775 88.8619C-85.7547 89.4335 -86.2034 90.059 -86.624 90.7389C-86.1711 90.943 -85.7208 91.1236 -85.2732 91.2808C-85.4007 90.958 -85.4793 90.6073 -85.4987 90.2385C-85.5242 89.7506 -85.4434 89.2833 -85.2775 88.8619ZM-76.386 94.3544C-80.611 95.6461 -84.9689 95.0654 -89.3776 92.659C-90.0813 92.2749 -90.3492 91.3988 -89.9806 90.6868C-87.6712 86.2265 -84.3831 83.3082 -80.1581 82.0165C-75.9331 80.7247 -71.5752 81.3054 -67.1665 83.7119C-66.4627 84.096 -66.1949 84.9721 -66.5635 85.684C-68.8729 90.1444 -72.1609 93.0627 -76.386 94.3544ZM-89.9673 107.251C-90.7375 106.987 -91.1473 106.148 -90.8827 105.378C-90.618 104.607 -89.7792 104.198 -89.0091 104.462C-87.1822 105.09 -85.0548 104.761 -82.5578 103.383C-81.8448 102.989 -80.9479 103.248 -80.5544 103.961C-80.161 104.674 -80.42 105.571 -81.1329 105.965C-84.3078 107.717 -87.2757 108.176 -89.9673 107.251ZM45.4803 69.567L81.8932 147.029C82.1349 147.543 82.6503 147.872 83.2182 147.876L217.607 148.735C218.537 148.741 219.241 147.895 219.064 146.981L203.904 68.4653C203.77 67.7708 203.161 67.2694 202.454 67.2703L46.8129 67.4653C45.7332 67.4666 45.0211 68.5899 45.4803 69.567ZM201.239 70.2208L215.828 145.775L84.1666 144.933L49.1358 70.4114L201.239 70.2208ZM137.095 131.472C141.21 131.472 146.502 129.841 149.774 127.841C155.97 124.053 158.659 117.702 158.659 109.907C158.659 105.064 157.483 99.9898 154.787 96.3898C150.854 91.1383 144.161 88.3431 137.095 88.3431C130.077 88.3431 124.023 92.084 120.086 97.2755C117.341 100.893 115.531 105.016 115.531 109.907C115.531 116.4 118.943 122.038 123.482 125.991C127.27 129.29 131.678 131.472 137.095 131.472ZM-406.956 80.016C-409.196 80.016 -411.011 81.8314 -411.011 84.0708C-411.011 86.3102 -409.196 88.1257 -406.956 88.1257H-254.716C-252.477 88.1257 -250.662 86.3102 -250.662 84.0708C-250.662 81.8314 -252.477 80.016 -254.716 80.016H-406.956ZM-406.219 108.031C-408.459 108.031 -410.274 109.847 -410.274 112.086C-410.274 114.325 -408.459 116.141 -406.219 116.141H-347.431C-345.192 116.141 -343.376 114.325 -343.376 112.086C-343.376 109.847 -345.192 108.031 -347.431 108.031H-406.219ZM-327.703 108.031C-329.943 108.031 -331.758 109.847 -331.758 112.086C-331.758 114.325 -329.943 116.141 -327.703 116.141H-298.669C-296.43 116.141 -294.615 114.325 -294.615 112.086C-294.615 109.847 -296.43 108.031 -298.669 108.031H-327.703ZM-280.52 108.031C-282.759 108.031 -284.575 109.847 -284.575 112.086C-284.575 114.325 -282.759 116.141 -280.52 116.141H-258.82C-256.581 116.141 -254.765 114.325 -254.765 112.086C-254.765 109.847 -256.581 108.031 -258.82 108.031H-280.52Z" fill="white"/>
<path fill-rule="evenodd" clip-rule="evenodd" d="M-131.247 255.421L-136.792 242.102C-140.503 233.189 -147.525 226.164 -156.254 222.409L-145.63 140.841C-144.509 132.229 -136.666 126.123 -128.042 127.148L-102.845 130.141L-101.378 122.032L-50.5667 114.607L-36.0333 138.08L-4.98724 141.768C0.816437 142.458 5.88126 146.027 8.48279 151.261L101.348 338.079H30.0505L3.66367 255.322L-131.247 255.421ZM-315.354 143.419H-274.806C-269.208 143.419 -264.669 147.957 -264.669 153.556C-264.669 159.154 -269.208 163.693 -274.806 163.693H-315.354C-320.953 163.693 -325.491 159.154 -325.491 153.556C-325.491 147.957 -320.953 143.419 -315.354 143.419ZM131.597 101.775C131.597 101.589 137.372 103.832 148.923 108.505L134.689 120.564C132.628 108.225 131.597 101.962 131.597 101.775ZM4.35141 253.311L-11.4648 193.816C-11.674 193.029 -12.4816 192.56 -13.2686 192.77C-14.0556 192.979 -14.524 193.786 -14.3147 194.573L1.50146 254.069C1.71066 254.856 2.51828 255.324 3.30527 255.115C4.09229 254.906 4.56064 254.098 4.35141 253.311ZM-458.664 281.314C-458.082 281.322 -457.499 281.316 -456.918 281.297L-419.579 280.051C-419.069 280.034 -418.564 280.149 -418.113 280.386C-416.67 281.141 -416.113 282.923 -416.868 284.366L-422.094 294.348L-410.188 302.838C-413.559 306.369 -416.662 309.071 -419.499 310.945C-421.308 312.14 -423.024 313.098 -424.211 313.799C-429.856 317.132 -435.584 318.845 -439.671 319.853C-444.453 321.033 -449.357 321.504 -454.836 321.504C-455.84 321.504 -458.883 321.313 -459.86 321.211C-467.504 320.409 -476.268 318.254 -486.013 312.026C-487.804 310.882 -491.143 308.39 -494.185 305.62C-494.741 305.114 -495.589 304.277 -496.729 303.11L-484.846 294.348L-488.658 284.993C-488.807 284.627 -488.881 284.235 -488.875 283.839C-488.853 282.211 -487.514 280.909 -485.885 280.932L-458.664 281.314ZM228.224 259.726L263.549 261.305C265.176 261.377 266.436 262.755 266.363 264.382C266.347 264.734 266.269 265.081 266.131 265.405L263.754 270.993C261.306 276.748 262.548 283.411 266.904 287.898L271.228 292.351C260.399 301.519 247.707 306.103 233.152 306.103C228.004 306.103 221.825 305.19 216.306 303.606C213.308 302.746 210.364 301.527 207.962 300.426C205.247 299.183 202.153 297.489 198.802 295.172C198.08 294.673 196.984 293.839 195.514 292.671C199.475 286.794 200.827 279.54 199.251 272.631L196.221 259.351C195.859 257.763 196.853 256.182 198.441 255.82C198.794 255.739 199.158 255.724 199.516 255.776L224.621 259.387C225.816 259.559 227.018 259.672 228.224 259.726Z" fill="#1840F8"/>
</g>
</svg>
