<svg width="307" height="353" fill="none" xmlns="http://www.w3.org/2000/svg"><path d="M277.079 208.219l-44.092-7.161 10.447-27.983c2.31-6.193-.709-9.008-6.719-6.262l-52.214 23.871-21.797-30.069c-3.131-4.316-7.06-3.708-8.739 1.353l-11.681 35.26-56.989-6.962c-6.559-.8-8.585 2.797-4.51 8.001l18.426 23.505-39.868 20.163c-7.498 3.79-6.847 7.994 1.447 9.345l44.092 7.161-10.447 27.983c-2.31 6.193.71 9.008 6.719 6.262l52.214-23.871 21.799 30.076c3.13 4.315 7.06 3.707 8.738-1.354l11.682-35.26 56.988 6.962c6.559.8 8.585-2.796 4.511-8.001l-18.421-23.512 39.861-20.162c7.498-3.79 6.847-7.994-1.447-9.345z" fill="#171717"/><mask id="a" maskUnits="userSpaceOnUse" x="0" y="30" width="307" height="293"><path d="M152.977 290.983l86.257 31.517 38.89-14.929 28.568-42.023-5.898-50.316-40.548-39.627L230.203 30H21.749L0 50.274l64.508 151.503 88.469 89.206z" fill="#C4C4C4"/></mask><g mask="url(#a)" fill-rule="evenodd" clip-rule="evenodd"><path d="M-236.822 269.041h55.36a1.474 1.474 0 000-2.949h-93.367l-110.836 305.111a1.474 1.474 0 01-2.772-1.007l110.471-304.104h-50.619a4.646 4.646 0 01-4.647-4.647 4.647 4.647 0 014.647-4.648h96.975a1.462 1.462 0 01.008-1.196l15.861-35.217a11.057 11.057 0 013.412-4.279l2.984-2.257a14.531 14.531 0 0112.007-2.577l21.729-52.887c2.806-3.211 5.719-4.188 8.737-2.932l.143.061a6.963 6.963 0 013.551 9.184l-22.024 49.787 29.147 7.73a1.475 1.475 0 01-.756 2.851l-29.598-7.85-3.47 7.843c2.296.873 3.341 4.336 3.743 10.443a1.474 1.474 0 01-1.422 1.571c-8.26.274-15.223 1.608-20.889 3.987-2.763 1.16-5.026 3.081-6.787 5.789 1.801.052 3.445.274 5.156.792 3.775 1.142 6.505 3.5 7.635 7.298l27.133.227H4.13l34.125 107.909a15.451 15.451 0 01-1.809 13.15h52.613c1.088-3.395 3.59-5.515 7.016-6.551 1.51-.457 2.963-.664 4.539-.723-1.584-2.363-3.6-4.045-6.046-5.071-5.175-2.171-11.536-3.389-19.086-3.642H57.644a1.475 1.475 0 110-2.949h17.863l.049.001c7.897.262 14.614 1.547 20.153 3.87 5.585 2.343 9.24 7.418 10.979 15.065h15.084c-1.605-7.781-4.717-12.729-9.274-14.974-5.302-2.612-16.11-6.87-32.38-12.752a1.475 1.475 0 01-.966-1.244l-9.343-8.058a1.475 1.475 0 011.926-2.233l9.112 7.858c28.34 6.713 43.971 11.364 47.594 14.273 5.462 4.385 9.013 10.505 10.645 18.302.033.158.04.314.023.465h25.795a4.648 4.648 0 010 9.296H42.037l86.925 182.909a1.476 1.476 0 01-2.664 1.266L38.772 387.157H-2.864l67.196 130.599H44.1l16.735 52.495a1.475 1.475 0 01-1.405 1.923H-86.816a1.475 1.475 0 01-1.377-2.003l2.318-6.046a21.748 21.748 0 0114.745-13.238l25.186-6.663-8.254-26.468h-32.619l-45.792-117.304c.5-.344.754-.977.589-1.597l-23.984-89.725a11.427 11.427 0 017.399-13.783l58.949-19.811a1.474 1.474 0 10-.94-2.795l-58.948 19.811c-7.193 2.417-11.269 10.008-9.309 17.339l23.604 88.305-11.99 119.128h-36.155v53.375c0 .815-.66 1.475-1.474 1.475h-14.582c-.815 0-1.475-.66-1.475-1.475v-32.515l-25.927 33.419c-.279.36-.709.571-1.165.571h-102.825a1.474 1.474 0 01-1.376-2.003l2.318-6.046a21.747 21.747 0 0114.745-13.238l25.797-6.825 5.652-26.738h-41.608l48.446-139.153.161.003 39.885-109.133zm352.15-79.839l-45.143-1.078L12.55 59.888c-2.253-5.014-.016-10.905 4.998-13.158a9.954 9.954 0 014.046-.875l194.62-.666a9.952 9.952 0 019.845 8.28l22.445 131.649c27.29 6.851 47.498 31.546 47.498 60.961 0 34.711-28.139 62.85-62.85 62.85s-62.85-28.139-62.85-62.85c0-12.821 3.839-24.745 10.43-34.686l-3.021 2.93a15.12 15.12 0 01-3.615 2.593c-6.28 3.225-11.764 4.073-16.411 2.436-3.916-1.38-6.368-3.707-7.229-6.871-2.821 2.412-6.297 3.19-10.303 2.282-4.354-.987-7.091-3.495-8.062-7.352-3.245 2.094-6.581 2.572-9.908 1.352a12.786 12.786 0 01-7.98-15.194l1.125-4.367zm-561.685 9.921l6.014-153.478a9.953 9.953 0 019.945-9.563h222.387a9.95 9.95 0 012.861.42c5.265 1.58 8.252 7.13 6.671 12.394l-40.943 136.396a16.955 16.955 0 01-16.24 12.081h-94.326l-.123.001c.257.162.513.335.767.518a14.192 14.192 0 011.911 1.65 9.583 9.583 0 01.966 12.116l-18.03 25.941a1.345 1.345 0 01-.125.157l-4.948 5.383a14.74 14.74 0 01-12.676 4.657l-8.786 7.643a63.54 63.54 0 01.295 6.122c0 34.711-28.139 62.85-62.85 62.85s-62.85-28.139-62.85-62.85 28.139-62.849 62.85-62.849c2.445 0 4.858.139 7.23.411zM41.005 517.756h-92.114l8.315 26.665H3.664a1.474 1.474 0 110 2.949H-45.9c-.1 0-.199-.01-.294-.03l-24.182 6.397a18.802 18.802 0 00-12.745 11.444l-1.55 4.044H47.797l-12.06-34.865a1.474 1.474 0 012.787-.964l12.394 35.829h6.495l-16.408-51.469zm-227.348-.432h-94.349l-5.969 28.236a1.475 1.475 0 01-1.065 1.121l-26.675 7.056a18.802 18.802 0 00-12.746 11.444l-1.55 4.044h99.958l28.124-36.251c.861-1.109 2.639-.501 2.639.904v35.347h11.633v-51.901zm-209.241-283.749l-.201.173c-.174-.294-.35-.587-.528-.878l.729.705zm497.793 138.311c-1.967-.034-3.617.107-5.28.61-2.213.669-3.815 1.854-4.705 3.728h11.434c-.394-1.589-.877-3.035-1.449-4.338zm22.57 4.338h11.005c-1.634-6.295-4.695-11.223-9.189-14.83-2.322-1.864-11.731-4.957-27.934-9.146 6.918 2.673 11.962 4.791 15.14 6.357 5.61 2.763 9.246 8.683 10.978 17.619zm-323.256-162.179a11.574 11.574 0 00-9.089 2.155l-2.984 2.257a8.11 8.11 0 00-2.502 3.138l-14.921 33.13 6.469.054c1.88-8.358 5.847-13.891 11.916-16.439.443-.186.893-.366 1.351-.54l9.76-23.755zm4.39 20.527c1.578-.172 3.208-.3 4.889-.384-.192-2.037-.479-3.63-.85-4.765-.204-.624-.425-1.082-.643-1.368-.136-.177-.224-.24-.274-.252a.956.956 0 00-.119-.021l-3.003 6.79zm-11.493 20.34c-.956-2.261-2.786-3.673-5.352-4.449-1.854-.562-3.689-.714-5.885-.671-.663 1.499-1.218 3.169-1.665 5.012l12.902.108zm-215.343-79.9c6.031 5.956 6.268 11.794.453 16.729a1.473 1.473 0 01-1.166.335l1.212 16.087c15.229 9.478 26.107 25.29 28.951 43.751l7.26-6.316a1.475 1.475 0 011.614-.84c3.974.742 8.08-.591 10.858-3.614l4.88-5.31 17.972-25.859a6.634 6.634 0 00-.668-8.388 11.34 11.34 0 00-1.518-1.307c-2.882-2.088-6.024-2.336-9.636-.717l-13.178 17.488a1.475 1.475 0 01-2.355-1.775l13.53-17.954c1.013-3.354.191-5.898-2.527-7.947-2.706-2.039-5.328-2.259-8.143-.704l-.054.029a1.486 1.486 0 01-.205.376l-13.535 17.961a1.475 1.475 0 01-2.355-1.775l13.534-17.961c.141-.186.317-.33.511-.428.05-.128.119-.254.211-.376l19.253-25.702c1.532-4.445 1.001-7.44-1.445-9.327-2.646-2.042-5.976-1.919-10.258.548a.37.37 0 00-.1.085l-34.805 42.246a1.475 1.475 0 01-2.529-.447 975.57 975.57 0 01-3.081-8.832 57.53 57.53 0 01-.362-1.106c-.087-.275-.164-.521-.304-.974-1.167-3.766-1.78-5.193-2.82-6.116-1.386-1.232-2.887-2.132-4.509-2.707a4.788 4.788 0 00-4.686.847zm-1.585 2.588a4.814 4.814 0 00-.111 1.427l.754 10.01c3.718-3.456 3.571-7.064-.643-11.437zm55.59 58.316l.125-.156-.068.074-.057.082zm5.871-76.532a1.475 1.475 0 012.102 2.068c-2.06 2.094-4.646 2.073-7.195.088-2.572-2.003-3.199-4.463-1.499-6.794a1.474 1.474 0 112.382 1.737c-.667.915-.485 1.63.928 2.73 1.436 1.118 2.343 1.125 3.282.171zm-92.54 162.078c33.082 0 59.901-26.818 59.901-59.901 0-33.082-26.819-59.9-59.901-59.9-33.082 0-59.901 26.818-59.901 59.9 0 33.083 26.819 59.901 59.901 59.901zm20.42-64.029c-1.715.52-3.732.122-5.956-1.102a1.475 1.475 0 011.422-2.584c1.82 1.002 3.114 1.185 4.043.706l-.269-1.633a1.475 1.475 0 01.671-1.489l13.63-8.558-10.498-2.829a5.53 5.53 0 01-2.847 6.347 21.206 21.206 0 01-7.056 2.126 21.19 21.19 0 01-7.361-.356 5.528 5.528 0 01-1.267-10.323 21.2 21.2 0 017.055-2.126 21.678 21.678 0 014.403-.099 16.974 16.974 0 00-5.342-7.055l-19.92 9.139-17.172 3.046a12.156 12.156 0 00-.142 1.857v42.14c9.713 2.24 18.912 2.977 27.6 2.217 8.592-.752 16.197-2.838 22.824-6.253l-3.818-23.171zm-5.822-19.039c-.743.003-1.493.052-2.251.145a18.274 18.274 0 00-6.083 1.83 2.58 2.58 0 00.592 4.817c2.056.47 4.168.572 6.344.304a18.267 18.267 0 006.083-1.83 2.58 2.58 0 00.652-4.132c.025.122.043.247.054.375.151 1.724-1.042 3.237-2.664 3.379-1.623.142-3.06-1.141-3.211-2.865a3.243 3.243 0 01.484-2.023zm5.048-2.533l18.341 4.942c1.242.335 1.49 1.989.4 2.673l-15.658 9.832 4.591 27.864a1.474 1.474 0 01-.752 1.537c-7.211 3.905-15.514 6.265-24.897 7.086-9.353.818-19.247-.035-29.678-2.555a1.473 1.473 0 01-1.128-1.433V242.5a15.113 15.113 0 019.509-14.036l12.807-5.113a20.047 20.047 0 014.162-1.159c9.864-1.625 19.335 4.285 22.303 13.669zm-18.181 27.556c-5.573 2.963-12.492.847-15.455-4.725-2.963-5.572-.847-12.492 4.725-15.454a1.473 1.473 0 111.385 2.603 8.478 8.478 0 107.96 14.972 1.475 1.475 0 011.385 2.604zm685.274 42.563c33.082 0 59.901-26.818 59.901-59.901 0-33.082-26.819-59.9-59.901-59.9-33.082 0-59.901 26.818-59.901 59.9 0 33.083 26.819 59.901 59.901 59.901zm-9.957-81.521a3.04 3.04 0 01.819 2.793c-.347 1.633-1.92 2.682-3.513 2.343-1.307-.277-2.222-1.404-2.316-2.701-.535.423-1.055.895-1.558 1.417 2.913 1.99 5.911 2.819 9.039 2.523a12.27 12.27 0 005.607-1.947 32.224 32.224 0 01-2.158-4.37 12.59 12.59 0 00-4.281-.32c-.559.053-1.105.14-1.639.262zm32.185 27.292l-1.421 15.885a1.474 1.474 0 01-1.266 1.329c-7.9 1.096-16.443.664-25.627-1.288-9.223-1.961-16.144-4.731-20.77-8.355a1.476 1.476 0 01-.547-1.396l2.284-14.119a1.47 1.47 0 01.094-.586l.751-4.642-10.988-2.335a1.474 1.474 0 01-.873-2.326l10.934-14.598a28.765 28.765 0 0131.309-10.3l9.061 2.726a13.27 13.27 0 019.394 13.889l-.774 8.653 27.411 8.442a3.686 3.686 0 012.266 5.057l-6.497 14.19a3.685 3.685 0 01-5.266 1.615l-19.475-11.841zm-29.765-40.44a25.796 25.796 0 00-15.303 9.777l-9.552 12.751 10.104 2.148a1.473 1.473 0 011.149 1.677l-.318 1.968c2.032.32 3.616.6 4.756.842.723.154 1.28.295 1.685.429.252.084.461.169.645.271.455.252.783.566.884 1.191.119.736-.226 1.241-.702 1.559a2.299 2.299 0 01-.573.269 7.387 7.387 0 01-1.02.237c-.671.116-1.577.229-2.71.344l-.849.082c-.639.059-2.007.174-3.002.258l-2.007 12.404c4.228 3.062 10.522 5.498 18.878 7.274 8.409 1.788 16.224 2.253 23.447 1.401l2.61-29.177c-1.353-2.417-3.747-4.278-6.729-4.912-3.707-.788-7.355.526-9.624 3.118-1.83-1.291-3.304-2.597-4.421-3.918a15.196 15.196 0 01-7.019 2.466c-4.372.413-8.529-.967-12.408-4.084a1.475 1.475 0 01-.219-2.081c3.092-3.792 6.859-5.929 11.239-6.344a15.696 15.696 0 013.394.044c-.943-2.93-1.721-6.261-2.335-9.994zm-75.28-3.045a1.49 1.49 0 01.051-.32l9.272-34.132a1.489 1.489 0 01-.145-.528c-.387-4.371-2.284-6.981-5.802-8.111-3.759-1.206-6.691-.073-9.145 3.597a1.461 1.461 0 01-.589.515l-9.07 34.669a1.482 1.482 0 01-.264.535c.009.056.015.113.018.172.203 4.014 2.162 6.321 6.144 7.224 4 .907 7.088-.263 9.53-3.621zm2.748.809l-.002.044c-.243 3.624 1.515 6.018 5.584 7.451 3.782 1.333 8.463.609 14.083-2.277a12.194 12.194 0 002.91-2.087l7.522-7.293-7.047-2.404a1.475 1.475 0 01-.987-1.58l2.591-20.543c-.024-5.6-1.844-8.683-5.461-9.675-3.284-.901-6.394-.029-9.461 2.733l-9.583 35.275a1.463 1.463 0 01-.149.356zm-21.062-5.279a1.46 1.46 0 01.033-.586l9.387-35.881a1.5 1.5 0 01.13-.331c-1.115-3.683-3.375-5.989-6.858-7.059-1.414-.433-2.723-.608-3.933-.532a6.635 6.635 0 00-6.009 4.966l-7.712 29.932a9.836 9.836 0 006.139 11.689c2.89 1.06 5.775.372 8.823-2.198zM128 170.282c-.271 1.762.551 2.789 2.972 3.417 2.409.624 3.511.184 3.986-1.32a1.475 1.475 0 012.812.889c-1.003 3.175-3.743 4.269-7.539 3.285-3.784-.981-5.667-3.333-5.145-6.72a1.474 1.474 0 012.914.449zm18.797 5.918c-.271 1.762.551 2.789 2.972 3.417 2.409.624 3.511.184 3.986-1.32a1.474 1.474 0 012.812.889c-1.003 3.175-3.743 4.27-7.539 3.285-3.784-.981-5.667-3.333-5.145-6.72a1.474 1.474 0 012.914.449zm18.44 4.939c-.271 1.761.552 2.788 2.972 3.416 2.409.625 3.511.184 3.986-1.319a1.475 1.475 0 012.812.888c-1.003 3.175-3.743 4.27-7.538 3.286-3.785-.982-5.668-3.333-5.146-6.72a1.475 1.475 0 112.914.449zM-59.604 86.111a3094.834 3094.834 0 01-14.574-7.951 1605.05 1605.05 0 01-10.96-6.103c-7.135 6.427-9.88 15.758-8.217 28.164l8.212-1.008a1.474 1.474 0 11.36 2.926l-9.643 1.184a1.474 1.474 0 01-1.636-1.233c-1.634-10.353-.448-18.945 3.568-25.699l-4.572 4.115a17.958 17.958 0 00-1.65 7.846l.557 33.505c6.995 2.513 14.757 3.249 23.3 2.2 8.53-1.047 15.898-3.174 22.111-6.372l-2.69-12.391a1.474 1.474 0 011.46-1.787 8.477 8.477 0 008.544-9.512 8.478 8.478 0 00-9.448-7.382 8.47 8.47 0 00-2.599.752 1.475 1.475 0 01-2.072-1.02l-.024-.108-.027-.126zm-16.562-18.838c8.935 1.382 16.5 7.835 19.082 16.794a11.5 11.5 0 011.843-.38c6.264-.77 11.965 3.685 12.734 9.949.759 6.176-3.562 11.806-9.688 12.699l2.566 11.818a1.474 1.474 0 01-.736 1.608c-6.757 3.673-14.804 6.077-24.134 7.223-9.388 1.152-17.943.249-25.648-2.72a1.476 1.476 0 01-.944-1.351l-.574-34.511c-.134-8.076 4.33-15.222 11.053-18.832-4.398-1.486-7.133-6.028-6.232-10.714a9.427 9.427 0 014-6.046 7.97 7.97 0 012.914-14.76l5.774-.823a7.578 7.578 0 018.572 6.433l.004.026a8.024 8.024 0 01-2.639 7.125 8.97 8.97 0 016.146 7.455 9.5 9.5 0 01-4.093 9.006zm-7.382 19.854c.261-.097.54-.157.83-.172 1.627-.085 3.019 1.247 3.11 2.975a3.234 3.234 0 01-.646 2.132 12.224 12.224 0 003.006-.528c3.02-.923 5.453-2.871 7.328-5.902-3.25-1.464-6.356-1.719-9.376-.795a12.116 12.116 0 00-4.252 2.29zm-1.73 1.735a16.316 16.316 0 00-1.346 1.877c.453.204.903.385 1.35.542a3.306 3.306 0 01-.225-1.043 3.284 3.284 0 01.221-1.376zm8.892 5.492c-4.225 1.292-8.583.711-12.992-1.695a1.475 1.475 0 01-.603-1.972c2.31-4.46 5.598-7.379 9.823-8.67 4.225-1.292 8.583-.712 12.992 1.695.703.384.971 1.26.602 1.972-2.309 4.46-5.597 7.379-9.822 8.67zm-13.581 12.897a1.474 1.474 0 11.958-2.789c1.827.628 3.954.299 6.451-1.079a1.474 1.474 0 111.425 2.582c-3.175 1.752-6.143 2.211-8.834 1.286zM45.48 69.567l36.413 77.462c.242.514.757.843 1.325.847l134.389.859c.93.006 1.634-.84 1.457-1.754l-15.16-78.516a1.475 1.475 0 00-1.45-1.195l-155.641.195a1.475 1.475 0 00-1.333 2.102zm155.759.654l14.589 75.554-131.661-.842-35.031-74.522 152.103-.19zm-64.144 61.251c4.115 0 9.407-1.631 12.679-3.631 6.196-3.788 8.885-10.139 8.885-17.934 0-4.843-1.176-9.917-3.872-13.517-3.933-5.252-10.626-8.047-17.692-8.047-7.018 0-13.072 3.741-17.009 8.932-2.745 3.618-4.555 7.741-4.555 12.632 0 6.493 3.412 12.131 7.951 16.084 3.788 3.299 8.196 5.481 13.613 5.481zm-544.051-51.456a4.055 4.055 0 100 8.11h152.24a4.054 4.054 0 000-8.11h-152.24zm.737 28.015a4.055 4.055 0 000 8.11h58.788a4.056 4.056 0 000-8.11h-58.788zm78.516 0a4.055 4.055 0 000 8.11h29.034a4.055 4.055 0 000-8.11h-29.034zm47.183 0a4.056 4.056 0 000 8.11h21.7a4.056 4.056 0 000-8.11h-21.7z" fill="#fff"/><path d="M-131.247 255.421l-5.545-13.319a36.864 36.864 0 00-19.462-19.693l10.624-81.568c1.121-8.612 8.964-14.718 17.588-13.693l25.197 2.993 1.467-8.109 50.811-7.425 14.534 23.473 31.046 3.688a17.326 17.326 0 0113.47 9.493l92.865 186.818H30.051L3.663 255.322l-134.911.099zm-184.107-112.002h40.548c5.598 0 10.137 4.538 10.137 10.137 0 5.598-4.539 10.137-10.137 10.137h-40.548c-5.599 0-10.137-4.539-10.137-10.137 0-5.599 4.538-10.137 10.137-10.137zm446.951-41.644c0-.186 5.775 2.057 17.326 6.73l-14.234 12.059c-2.061-12.339-3.092-18.602-3.092-18.789zM4.351 253.311l-15.816-59.495a1.474 1.474 0 10-2.85.757l15.816 59.496a1.475 1.475 0 002.85-.758zm-463.015 28.003c.582.008 1.165.002 1.746-.017l37.339-1.246a2.949 2.949 0 012.711 4.315l-5.226 9.982 11.906 8.49c-3.371 3.531-6.474 6.233-9.311 8.107-1.809 1.195-3.525 2.153-4.712 2.854-5.645 3.333-11.373 5.046-15.46 6.054-4.782 1.18-9.686 1.651-15.165 1.651-1.004 0-4.047-.191-5.024-.293-7.644-.802-16.408-2.957-26.153-9.185-1.791-1.144-5.13-3.636-8.172-6.406-.556-.506-1.404-1.343-2.544-2.51l11.883-8.762-3.812-9.355a2.948 2.948 0 012.773-4.061l27.221.382zm686.888-21.588l35.325 1.579a2.947 2.947 0 012.582 4.1l-2.377 5.588a15.54 15.54 0 003.15 16.905l4.324 4.453c-10.829 9.168-23.521 13.752-38.076 13.752-5.148 0-11.327-.913-16.846-2.497-2.998-.86-5.942-2.079-8.344-3.18-2.715-1.243-5.809-2.937-9.16-5.254-.722-.499-1.818-1.333-3.288-2.501a25.65 25.65 0 003.737-20.04l-3.03-13.28a2.95 2.95 0 013.295-3.575l25.105 3.611c1.195.172 2.397.285 3.603.339z" fill="#1840F8"/></g></svg>