<svg width="14" height="14" viewBox="0 0 14 14" fill="none" xmlns="http://www.w3.org/2000/svg">
<path d="M0.700043 7.7L6.29996 7.7L6.29996 13.3C6.29996 13.6864 6.6136 14 7.00004 14C7.38636 14 7.7 13.6864 7.7 13.3L7.7 7.7L13.3 7.7C13.6864 7.7 14 7.38636 14 7.00004C14 6.6136 13.6864 6.29996 13.3 6.29996L7.7 6.29996L7.7 0.70004C7.7 0.313596 7.38636 -4.42445e-05 7.00004 -4.42107e-05C6.6136 -4.4177e-05 6.29996 0.313596 6.29996 0.700041L6.29996 6.29996L0.700043 6.29996C0.313599 6.29996 -4.26074e-05 6.6136 -4.25736e-05 7.00004C-4.25399e-05 7.38636 0.313599 7.7 0.700043 7.7Z" fill="#202020"/>
</svg>
