<svg xmlns="http://www.w3.org/2000/svg" viewBox="0 0 1568 119.3"><path d="M67.6 35.6c-3.1-1.1-7.4-1.6-13.1-1.6-5.9 0-10 .4-12.3 1.3s-3.5 2.2-3.5 4a3 3 0 002 3 25.83 25.83 0 007.4 1.4L85 46.5a59.44 59.44 0 0116.5 3.2 19.81 19.81 0 019.7 7.4q3.3 4.95 3.3 13.5c0 6.9-2.1 12.2-6.2 15.9s-10.2 6.1-18.2 7.4-18.9 2-32.6 2c-13.1 0-23.6-.7-31.6-2S11.7 90 7.2 86.3.3 77 0 69.7h38.9a10.18 10.18 0 005.9 6.7c2.9 1.2 7.6 1.8 14 1.8 6.8 0 11.4-.5 13.9-1.4s3.8-2.5 3.8-4.5a3.49 3.49 0 00-2-3.4c-1.3-.7-3.6-1.2-7-1.6l-34.3-3.2c-10.5-1-18.2-3.2-23.3-6.5s-7.6-8.8-7.6-16.5c0-6.7 2-11.8 6.1-15.3s9.8-6 17.4-7.2 17.3-1.9 29.3-1.9a192.2 192.2 0 0130.2 2c8 1.3 14.2 3.8 18.8 7.4s7 8.7 7.2 15.3h-38c-.7-2.9-2.6-4.7-5.7-5.8zm90.1-6.4h.8a34.62 34.62 0 0114-8.6 59.48 59.48 0 0118.9-2.9 54.34 54.34 0 0118.3 2.7 21.56 21.56 0 0111.4 9.1 37.37 37.37 0 0114.9-8.8 65.25 65.25 0 0120.4-3c10.4 0 18.6 2.4 24.8 7.1s9.3 11.8 9.3 21.3v46.7h-34.3V55.3c0-8-4.8-12-14.5-12a21.13 21.13 0 00-12.2 3.5c-3.3 2.3-5 6.3-5 11.9v34.1h-34.3V55.3c0-8-4.8-12-14.5-12a21.13 21.13 0 00-12.2 3.5c-3.3 2.3-5 6.3-5 11.9v34.1h-34.3V19.6h33.7v9.6zm177.8 0h.8a34.62 34.62 0 0114-8.6 59.48 59.48 0 0118.9-2.9 54.34 54.34 0 0118.3 2.7 21.56 21.56 0 0111.4 9.1 37.37 37.37 0 0114.9-8.8 65.25 65.25 0 0120.4-3c10.4 0 18.6 2.4 24.8 7.1s9.3 11.8 9.3 21.3v46.7H434V55.3c0-8-4.8-12-14.5-12a21.13 21.13 0 00-12.2 3.5c-3.3 2.3-5 6.3-5 11.9v34.1H368V55.3c0-8-4.8-12-14.5-12a21.13 21.13 0 00-12.2 3.5c-3.3 2.3-5 6.3-5 11.9v34.1H302V19.6h33.7v9.6zm252.1 58.5a8.25 8.25 0 001.6 4.3v.8h-33.8c-1.2-1.4-1.8-3.8-1.8-7.4V83c-3.6 4.2-8.7 7.5-15.3 9.7s-14.6 3.3-24 3.3c-10.9 0-19.8-2-26.7-5.9s-10.3-10-10.3-18.3c0-7.9 2.3-13.7 6.8-17.3s11.2-5.7 19.9-6.4l39.6-3.2c2.8-.2 4.8-.6 6.1-1.4a3.51 3.51 0 001.9-3.4c0-1.9-1.2-3.3-3.6-4.1s-6.2-1.3-11.4-1.3c-5 0-8.9.5-11.8 1.6a8.54 8.54 0 00-5.6 5.5h-36.8q.45-10 6.9-15.6c4.3-3.7 10.3-6.2 17.8-7.6s17-2.1 28.5-2.1c12 0 21.6.6 28.9 1.8s12.9 3.4 16.9 6.8 5.9 8.3 5.9 14.8V81a43.07 43.07 0 00.3 6.7zm-34.6-29a9.22 9.22 0 01-3.1 1.1 32.37 32.37 0 01-3.9.7l-23 2.8c-3.4.5-6 1.3-7.6 2.4a5.83 5.83 0 00-2.5 5.1 5.68 5.68 0 003.2 5.4c2.1 1.1 5.4 1.6 9.8 1.6 7.6 0 14-1.4 19.3-4.2s7.9-7.1 7.9-12.8v-2.1zm156.8-39.1v68.2c0 8.2-1.3 14.5-3.9 18.8s-7.8 7.5-15.6 9.6-19.8 3.1-36 3.1c-15.4 0-27.1-1-35.1-3.1s-13.4-5-16.2-8.7-4.5-8.6-4.9-14.6H636a12.87 12.87 0 002.5 4.1c1 1.1 2.8 2 5.4 2.6a49.41 49.41 0 0010.8 1c5.9 0 10.3-.4 13.3-1.3s5-2.2 6-4a15.63 15.63 0 001.6-7.6V77.3h-.8c-7.6 6.4-18.1 9.6-31.6 9.6-15.2 0-26.8-2.9-34.7-8.7s-11.8-14.4-11.8-26c0-11.4 3.9-20.1 11.8-25.9s19.4-8.7 34.7-8.7c14 0 24.7 3.4 32.3 10.3h.8v-8.4h33.5zm-39 42.7a11.66 11.66 0 000-19.8c-3.7-2.3-9.4-3.5-17-3.5s-13.1 1.1-16.5 3.4a11.23 11.23 0 00-5.1 9.9 11.46 11.46 0 005.1 10.1c3.4 2.3 8.9 3.4 16.5 3.4s13.3-1.1 17-3.5zM755.1 29h.8C765 21.5 777 17.8 792 17.8c11.6 0 20.7 2.4 27.3 7.1s9.9 11.9 9.9 21.4v46.5h-34.3V57.4c0-4.9-1.5-8.4-4.5-10.7s-7.4-3.4-13.2-3.4a27.14 27.14 0 00-15.2 4.1c-4.1 2.8-6.2 7.4-6.2 13.9v31.5h-34.3V19.6h33.7V29zm193.7 58.7a8.25 8.25 0 001.6 4.3v.8h-33.8c-1.2-1.4-1.8-3.8-1.8-7.4V83c-3.6 4.2-8.7 7.5-15.3 9.7s-14.6 3.3-24 3.3c-10.9 0-19.8-2-26.7-5.9s-10.3-10-10.3-18.3c0-7.9 2.3-13.7 6.8-17.3s11.2-5.7 19.9-6.4l39.6-3.2c2.8-.2 4.8-.6 6.1-1.4a3.51 3.51 0 001.9-3.4c0-1.9-1.2-3.3-3.6-4.1s-6.2-1.3-11.4-1.3c-5 0-8.9.5-11.8 1.6a8.54 8.54 0 00-5.6 5.5h-36.8q.45-10 6.9-15.6c4.3-3.7 10.3-6.2 17.8-7.6s17-2.1 28.5-2.1c12 0 21.6.6 28.9 1.8s12.9 3.4 16.9 6.8 6 8.3 6 14.8V81a28 28 0 00.2 6.7zm-34.6-29a9.22 9.22 0 01-3.1 1.1 32.37 32.37 0 01-3.9.7l-23 2.8c-3.4.5-6 1.3-7.6 2.4a5.83 5.83 0 00-2.5 5.1 5.68 5.68 0 003.2 5.4c2.1 1.1 5.4 1.6 9.8 1.6 7.6 0 14-1.4 19.3-4.2s7.9-7.1 7.9-12.8v-2.1zm112.6 9.1v25c-2.2.3-5.3.5-9.3.8s-7.9.4-11.5.4c-9.6 0-16.9-.8-22.2-2.4s-8.9-4.1-11-7.6-3.2-8.5-3.2-14.9V38.5h-14.5V19.6h14.5V0h34.3v19.6h23v18.9h-23v23.9c0 2.3.7 3.8 2.2 4.6s4.1 1.2 7.8 1.2a118.72 118.72 0 0012.9-.4zm125 0v25c-2.2.3-5.3.5-9.3.8s-7.9.4-11.5.4c-9.6 0-16.9-.8-22.2-2.4s-8.9-4.1-11-7.6-3.2-8.5-3.2-14.9V38.5h-14.5V19.6h14.5V0h34.3v19.6h23v18.9h-23v23.9c0 2.3.7 3.8 2.2 4.6s4.1 1.2 7.8 1.2a119.68 119.68 0 0012.9-.4zm121.1-4.2H1193c.6 4.7 2.7 8.2 6.3 10.4s8.9 3.4 16.2 3.4c6.5 0 11.1-.7 13.9-2.2s4.6-3.1 5.4-4.9h37.5c-.7 7.8-5.2 14-13.3 18.7s-22.6 7-43.5 7c-20.3 0-35.1-3.4-44.4-10.1s-13.9-16.6-13.9-29.5 4.6-22.9 13.9-29.6 24-10.1 44.1-10.1 34.7 3.4 44 10.1 14 16.6 14 29.6q0 3.15-.3 7.2zm-72.5-25.8a13 13 0 00-6.8 8.4h43.3a13.35 13.35 0 00-6.8-8.4c-3.5-1.8-8.4-2.7-14.8-2.7s-11.4.9-14.9 2.7zm190.4 49.9a8.25 8.25 0 001.6 4.3v.8h-33.8c-1.2-1.4-1.8-3.8-1.8-7.4V83c-3.6 4.2-8.7 7.5-15.3 9.7s-14.6 3.3-24 3.3c-10.9 0-19.8-2-26.7-5.9s-10.3-10-10.3-18.3c0-7.9 2.3-13.7 6.8-17.3s11.2-5.7 19.9-6.4l39.6-3.2c2.8-.2 4.8-.6 6.1-1.4a3.51 3.51 0 001.9-3.4c0-1.9-1.2-3.3-3.6-4.1s-6.2-1.3-11.4-1.3c-5 0-8.9.5-11.8 1.6a8.54 8.54 0 00-5.6 5.5h-36.8q.45-10 6.9-15.6c4.3-3.7 10.3-6.2 17.8-7.6s17-2.1 28.5-2.1c12 0 21.6.6 28.9 1.8s12.9 3.4 16.9 6.8 5.9 8.3 5.9 14.8V81a43.07 43.07 0 00.3 6.7zm-34.6-29a9.22 9.22 0 01-3.1 1.1 32.37 32.37 0 01-3.9.7l-23 2.8c-3.4.5-6 1.3-7.6 2.4a5.83 5.83 0 00-2.5 5.1 5.68 5.68 0 003.2 5.4c2.1 1.1 5.4 1.6 9.8 1.6 7.6 0 14-1.4 19.3-4.2s7.9-7.1 7.9-12.8v-2.1zm79.1-29.5h.8a34.62 34.62 0 0114-8.6 59.48 59.48 0 0118.9-2.9 54.34 54.34 0 0118.3 2.7 21.56 21.56 0 0111.4 9.1 37.37 37.37 0 0114.9-8.8 65 65 0 0120.3-3c10.4 0 18.6 2.4 24.8 7.1s9.3 11.8 9.3 21.3v46.7h-34.4V55.3c0-8-4.8-12-14.5-12a21.13 21.13 0 00-12.2 3.5c-3.3 2.3-5 6.3-5 11.9v34.1h-34.3V55.3c0-8-4.8-12-14.5-12a21.13 21.13 0 00-12.2 3.5c-3.3 2.3-5 6.3-5 11.9v34.1h-34.3V19.6h33.7z" fill="#fff"/></svg>