<svg width="473" height="423" viewBox="0 0 473 423" fill="none" xmlns="http://www.w3.org/2000/svg">
<g clip-path="url(#clip0)">
<path d="M478.502 213.355C474.126 229.684 464.697 246.442 449.49 265.092C428.978 290.242 409.752 303.56 388.945 307.003C375.467 309.226 361.755 307.004 348.482 304.849C345.627 304.389 342.795 303.936 339.957 303.507C300.718 297.731 267.763 302.046 241.995 316.311C234.793 320.292 227.95 325.209 221.331 329.958C213.638 335.488 205.666 341.198 197.038 345.561C181.935 353.182 160.32 357.172 144.919 345.479C139.082 341.037 134.951 334.886 130.948 328.922C129.109 326.187 127.218 323.363 125.193 320.756C111.437 303.11 89.8427 293.248 68.5449 285.223L66.1381 284.323C54.6856 280.032 42.8421 275.584 33.5192 267.431C24.008 259.125 16.5263 244.765 21.3193 231.248C31.6383 202.143 69.2217 198.228 99.4488 195.067C110.265 193.94 120.509 192.864 128.442 190.811C149.311 185.423 166.517 175.844 178.205 163.105C183.535 157.272 188.24 150.356 192.572 141.886C197.415 132.459 201.276 122.132 205.025 112.131C209.561 100.048 214.236 87.5442 220.727 76.2403C227.439 64.5878 234.849 57.1728 243.429 53.5616C257.176 47.7684 272.892 52.2085 286.743 56.0984L287.877 56.4277C299.763 59.7655 311.991 62.6851 323.808 65.5203C339.909 69.3761 356.539 73.348 372.589 78.4384C405.698 88.9404 430.692 102.745 448.995 120.616C471.869 142.998 483.821 172.695 480.958 200.104C480.5 204.567 479.686 208.934 478.502 213.355ZM23.0884 233.862C19.904 245.746 26.6658 258.232 35.1312 265.595C44.125 273.457 55.7611 277.823 67.0062 282.034L69.4129 282.933C91.0306 291.095 112.986 301.13 127.121 319.26C129.205 321.933 131.114 324.788 132.993 327.559C137.049 333.614 140.889 339.33 146.407 343.535C160.895 354.55 181.488 350.667 195.941 343.382C204.395 339.1 212.276 333.442 219.897 327.994C226.576 323.211 233.479 318.258 240.808 314.185C267.065 299.617 300.552 295.216 340.302 301.077C343.14 301.506 345.996 301.966 348.852 302.425C361.928 304.553 375.468 306.755 388.527 304.573C408.694 301.239 427.468 288.182 447.566 263.532C466.568 240.218 476.414 220.005 478.491 199.901C481.282 173.238 469.616 144.28 447.258 122.444C429.243 104.828 404.58 91.2138 371.844 80.8374C355.865 75.7661 339.283 71.8068 323.229 67.9639C311.388 65.1222 299.137 62.1962 287.203 58.8457L286.07 58.5164C271.939 54.5265 257.328 50.433 244.386 55.8815C236.346 59.2809 229.312 66.338 222.853 77.5232C216.466 88.626 211.818 101.035 207.324 113.053C203.563 123.101 199.658 133.493 194.777 143.063C190.347 151.71 185.513 158.821 180.037 164.818C168.027 177.904 150.399 187.727 129.063 193.245C120.938 195.348 110.617 196.429 99.6989 197.554C68.6353 200.796 33.43 204.483 23.631 232.122C23.4243 232.703 23.2413 233.291 23.0884 233.862Z" fill="url(#paint0_linear)"/>
<path d="M468.424 211.344C466.851 217.214 464.628 223.039 461.756 228.816C455.439 241.466 446.662 252.463 438.895 261.591C426.351 276.292 406.766 296.367 381.59 301.008C369.053 303.33 356.333 301.68 344.029 300.09C341.297 299.74 338.565 299.39 335.85 299.07C334.147 298.868 332.432 298.714 330.699 298.53C297.095 295.385 268.302 300.51 245.133 313.816C238.867 317.436 232.829 321.728 226.995 325.922C219.308 331.429 211.336 337.139 202.651 341.334C186.038 349.365 168.741 349.876 156.384 342.693C155.302 342.072 154.264 341.386 153.286 340.666C147.736 336.58 143.715 330.968 139.839 325.573C138.021 323.048 136.151 320.432 134.169 318.042C121.986 303.364 103.972 295.149 89.6477 289.604C86.4889 288.376 83.2873 287.212 80.1268 286.085L78.9646 285.672C67.7161 281.664 56.0875 277.555 46.7942 269.766C37.4123 261.928 30.1312 248.054 34.9271 234.716C38.7021 224.239 46.4882 216.084 58.0317 210.439C72.6554 203.276 91.305 200.375 107.795 197.839C118.741 196.136 129.094 194.553 136.929 191.915C141.771 190.282 145.398 188.91 148.704 187.402C162.435 181.196 173.549 173.067 181.727 163.26C184.315 160.157 186.717 156.801 189.054 153.02C191.048 149.758 192.944 146.292 194.877 142.403C198.429 135.228 201.611 127.725 204.699 120.477C206.917 115.237 209.228 109.844 211.632 104.578C215.231 96.7535 219.153 88.4806 224.057 80.7254C230.941 69.8577 238.294 62.9372 246.519 59.511C260.265 53.8193 275.836 57.9407 289.579 61.572C299.514 64.2088 309.723 66.5874 319.592 68.9008C336.123 72.7696 353.223 76.7912 369.688 82.0437C401.046 92.0509 424.516 105.269 441.49 122.402C462.909 144.038 473.788 172.988 470.577 199.794C470.493 200.485 470.41 201.176 470.297 201.885C469.909 205.041 469.271 208.182 468.424 211.344ZM48.3286 267.935C57.2928 275.432 68.7313 279.491 79.7962 283.424L80.9584 283.837C84.1426 284.97 87.368 286.14 90.5505 287.375C105.13 293.014 123.498 301.426 136.032 316.503C138.073 318.96 139.984 321.612 141.82 324.168C145.602 329.436 149.495 334.861 154.745 338.738C155.658 339.416 156.631 340.059 157.624 340.631C171.37 348.619 189.415 345.124 201.697 339.193C210.208 335.079 218.083 329.445 225.68 323.991C231.544 319.779 237.625 315.422 244.005 311.756C267.595 298.206 296.856 292.952 330.954 296.153C332.693 296.313 334.426 296.497 336.159 296.681C338.904 296.984 341.63 297.358 344.386 297.714C356.517 299.283 369.04 300.907 381.224 298.669C405.676 294.164 424.855 274.465 437.174 260.035C444.855 251.037 453.522 240.163 459.729 227.738C464.027 219.107 466.849 210.285 468.125 201.532C468.226 200.871 468.309 200.18 468.386 199.513C471.49 173.392 460.873 145.174 439.953 124.053C423.267 107.176 400.073 94.1596 369.089 84.278C352.719 79.0509 335.666 75.0421 319.16 71.1796C309.267 68.8599 299.065 66.4575 289.099 63.8381C275.713 60.3022 260.545 56.289 247.544 61.6709C239.759 64.8836 232.786 71.5239 226.165 81.9782C221.323 89.5971 217.444 97.8051 213.888 105.565C211.49 110.807 209.186 116.176 206.974 121.392C203.873 128.688 200.661 136.209 197.09 143.455C195.114 147.409 193.199 150.946 191.169 154.249C188.776 158.143 186.325 161.587 183.664 164.772C175.255 174.874 163.856 183.208 149.807 189.557C146.417 191.094 142.73 192.501 137.804 194.161C129.777 196.851 119.339 198.461 108.269 200.157C91.9641 202.666 73.4825 205.51 59.2012 212.536C48.2236 217.874 40.8325 225.599 37.2642 235.496C32.7376 247.734 39.5701 260.621 48.3286 267.935Z" fill="url(#paint1_linear)"/>
<path d="M462.274 207.786C460.644 213.871 458.281 219.836 455.23 225.616C449.167 237.035 440.549 247.056 432.231 256.342C419.042 271.074 400.962 288.571 378.166 293.264C366.576 295.661 354.872 294.589 343.567 293.547C340.935 293.3 338.296 293.077 335.68 292.86C334.108 292.744 332.528 292.652 330.925 292.554C300.966 290.819 273.753 296.698 252.202 309.571C246.862 312.777 241.663 316.504 236.65 320.103C228.957 325.633 220.992 331.32 212.219 335.364C196.72 342.471 180.388 342.706 168.571 335.973C167.579 335.401 166.575 334.776 165.639 334.092C160.381 330.339 156.505 325.327 152.746 320.447C150.948 318.131 149.098 315.725 147.143 313.52C135.369 300.353 118.3 293.079 104.727 288.245C101.733 287.162 98.7199 286.151 95.7066 285.14C84.7205 281.483 73.3545 277.724 64.067 270.293C52.955 261.406 48.3302 247.785 52.5326 236.378C56.2659 226.245 63.781 218.247 74.8889 212.613C88.3255 205.794 105.053 202.277 119.81 199.174C131.006 196.824 141.608 194.596 149.426 191.264C153.248 189.639 156.703 188.144 160.021 186.308C172.45 179.448 182.019 171.389 189.313 161.65C191.644 158.555 193.832 155.142 195.867 151.535C197.621 148.412 199.372 145.01 201.228 141.125C202.966 137.489 204.626 133.858 206.304 130.257C210.113 122.03 214.051 113.507 218.473 105.367L219.04 104.296C222.845 97.3168 226.761 90.1122 231.462 83.3981C238.627 73.1917 245.677 66.9287 253.709 63.6545C266.449 58.4831 280.112 61.176 295.374 64.9342C303.179 66.8729 311.196 68.6897 318.951 70.4366C336.107 74.3457 353.846 78.36 370.88 83.8667C400.456 93.3966 422.433 106.011 438.101 122.412C458.059 143.325 467.877 171.482 464.33 197.739C464.253 198.406 464.152 199.067 464.021 199.745C463.575 202.454 462.981 205.147 462.274 207.786ZM54.0196 239.094C51.3193 249.172 55.7456 260.778 65.4745 268.556C74.4265 275.719 85.6025 279.426 96.4049 283.009C99.4182 284.02 102.455 285.038 105.473 286.126C119.271 291.072 136.69 298.465 148.791 312.025C150.811 314.273 152.678 316.71 154.511 319.086C158.159 323.808 161.936 328.718 166.916 332.269C167.812 332.916 168.727 333.493 169.654 334.021C180.857 340.386 196.425 340.15 211.264 333.325C219.855 329.385 227.706 323.744 235.333 318.273C240.376 314.656 245.612 310.888 251.036 307.654C272.978 294.554 300.652 288.569 331.034 290.341C332.637 290.44 334.24 290.538 335.813 290.654C338.435 290.847 341.091 291.1 343.754 291.329C354.91 292.357 366.417 293.403 377.684 291.072C399.834 286.511 417.55 269.324 430.521 254.839C438.736 245.653 447.267 235.762 453.196 224.562C457.473 216.486 460.325 208.028 461.718 199.408C461.813 198.771 461.913 198.11 462.008 197.473C465.448 171.901 455.88 144.422 436.38 123.989C420.97 107.861 399.3 95.4306 370.097 86.0263C353.153 80.5688 335.468 76.5435 318.359 72.6471C310.61 70.8765 302.57 69.0532 294.734 67.1319C279.859 63.4519 266.558 60.8306 254.449 65.738C246.85 68.8224 240.09 74.8575 233.2 84.7044C228.554 91.306 224.674 98.4694 220.912 105.384L220.345 106.455C215.943 114.523 212.034 123.029 208.239 131.208C206.555 134.833 204.894 138.464 203.156 142.1C201.288 146.032 199.499 149.476 197.734 152.646C195.672 156.348 193.418 159.82 191.014 162.997C183.548 172.996 173.72 181.266 161.02 188.282C157.611 190.171 154.126 191.683 150.22 193.337C142.204 196.742 131.518 198.999 120.191 201.365C105.571 204.428 89.0054 207.912 75.8335 214.598C65.2551 219.967 58.0812 227.547 54.572 237.128C54.3937 237.793 54.1916 238.453 54.0196 239.094Z" fill="url(#paint2_linear)"/>
<path d="M459.348 202.747C457.647 209.093 455.176 215.182 451.935 220.911C445.988 231.419 437.671 240.221 429.611 248.735L428.797 249.587C415.196 263.954 398.537 279.285 377.995 284.021C367.383 286.477 356.749 285.971 346.443 285.477C343.88 285.351 341.311 285.248 338.765 285.152C337.68 285.116 336.612 285.11 335.521 285.098L334.382 285.073C307.657 284.663 282.802 291.148 262.508 303.798C258.1 306.566 253.752 309.68 249.578 312.715C241.878 318.268 233.9 324.003 225 327.859C210.608 334.065 195.271 334.007 183.948 327.712C182.997 327.177 182.082 326.6 181.18 325.977C176.232 322.587 172.514 318.126 168.883 313.816C167.087 311.679 165.234 309.476 163.299 307.48C151.942 295.8 135.781 289.509 122.966 285.361C120.136 284.425 117.287 283.56 114.445 282.671C103.128 279.205 93.0617 275.82 84.516 269.327C73.5616 260.991 69.0661 247.838 73.3206 236.521C76.9567 226.847 84.4068 218.806 94.9047 213.263C107.064 206.84 121.141 203.046 134.781 199.364C146.336 196.244 157.231 193.304 165.075 189.113L165.996 188.621C168.819 187.111 171.727 185.571 174.443 183.701C185.336 176.302 193.679 168.067 199.979 158.521C202.036 155.404 203.978 152.052 205.762 148.53C207.262 145.594 208.764 142.456 210.636 138.321C216.485 125.52 221.748 114.906 228.377 104.607L230.736 100.934C234.205 95.4945 237.808 89.8365 241.949 84.5516C246.565 78.63 253.865 70.2941 263.955 66.2723C276.701 61.1786 290.855 63.7484 304.226 66.7707C309.699 68.0079 315.209 69.2041 320.742 70.4065C338.739 74.3117 357.337 78.3523 375.129 84.1641C402.876 93.2039 423.36 105.214 437.746 120.889C456.266 141.086 464.994 168.467 461.099 194.121C461.004 194.758 460.904 195.419 460.786 196.05C460.424 198.348 459.934 200.56 459.348 202.747ZM74.6125 239.491C71.9376 249.474 76.1621 260.312 85.803 267.659C94.0718 273.951 103.948 277.285 115.081 280.676C117.93 281.541 120.796 282.436 123.626 283.373C136.672 287.607 153.129 294.03 164.803 306.048C166.796 308.111 168.667 310.345 170.486 312.488C174.018 316.695 177.666 321.036 182.354 324.253C183.215 324.841 184.065 325.374 184.976 325.873C195.719 331.859 210.376 331.889 224.144 325.923C232.84 322.164 240.704 316.476 248.331 311.005C252.558 307.959 256.913 304.821 261.381 302.018C282.043 289.136 307.305 282.556 334.411 282.966L335.527 282.985C336.618 282.997 337.71 283.009 338.795 283.045C341.347 283.118 343.933 283.251 346.503 283.353C356.66 283.833 367.145 284.324 377.482 281.948C397.478 277.345 413.841 262.266 427.229 248.123L428.043 247.271C436.024 238.863 444.267 230.143 450.079 219.854C454.305 212.35 457.223 204.216 458.733 195.729C458.851 195.099 458.939 194.485 459.033 193.848C462.834 168.831 454.31 142.116 436.199 122.386C422.072 106.984 401.894 95.1572 374.497 86.2367C356.818 80.4805 338.244 76.4463 320.324 72.5364C314.791 71.3339 309.281 70.1378 303.784 68.8942C290.728 65.9309 276.937 63.4327 264.762 68.2972C255.152 72.1419 248.108 80.1897 243.626 85.8927C239.559 91.0953 235.998 96.6883 232.536 102.104L230.177 105.777C223.603 115.964 218.383 126.513 212.583 139.225C210.682 143.377 209.166 146.563 207.667 149.499C205.84 153.085 203.849 156.526 201.755 159.684C195.32 169.449 186.771 177.884 175.63 185.446C172.8 187.362 169.856 188.942 166.979 190.464L166.058 190.956C158.003 195.269 146.976 198.224 135.308 201.39C121.806 205.033 107.812 208.798 95.8876 215.105C85.8589 220.418 78.7198 228.058 75.2888 237.252C75.0548 238.03 74.8099 238.754 74.6125 239.491Z" fill="url(#paint3_linear)"/>
<path d="M458.943 196.371C457.172 202.979 454.561 209.208 451.13 214.887C445.643 223.964 438.125 231.401 430.833 238.567L427.854 241.514C414.007 255.279 398.681 268.674 380.292 273.453C370.711 275.955 361.154 275.993 351.918 276.066C349.37 276.071 346.847 276.083 344.334 276.148C343.51 276.182 342.687 276.216 341.863 276.25L340.37 276.309C316.947 277.166 294.457 284.234 275.316 296.759C271.847 299.065 268.374 301.574 265.052 303.995C257.332 309.62 249.336 315.426 240.283 319.089C227.052 324.384 212.68 324.048 201.827 318.185C200.941 317.693 200.061 317.177 199.193 316.613C194.58 313.594 191.013 309.708 187.532 305.974C185.734 304.039 183.883 302.015 181.921 300.216C171.063 290.097 156.505 284.948 143.7 281.236C141.035 280.446 138.357 279.703 135.697 278.99C126.048 276.328 115.906 273.228 107.461 267.119C96.5233 259.195 92.2423 246.762 96.5982 235.447C101.112 223.638 110.419 216.553 117.44 212.677C128.195 206.745 140.326 202.709 152.043 198.792C164.036 194.796 175.363 191.004 183.243 185.727L184.39 184.965C186.743 183.404 189.163 181.785 191.432 179.871C200.856 171.875 207.777 163.718 213.213 154.169C214.983 151.077 216.686 147.763 218.224 144.303C219.47 141.554 220.662 138.816 221.841 136.126L222.635 134.301C228.091 121.828 233.893 111.766 240.866 102.654C242.196 100.922 243.502 99.1828 244.821 97.3962C248.008 93.1041 251.304 88.6885 254.972 84.4999C260.106 78.6407 267.215 71.3998 276.763 67.6912C289.584 62.6943 303.577 64.9153 315.663 67.4148L324.283 69.1641C343.384 73.034 363.134 77.052 381.945 83.239C407.846 91.7586 426.831 103.189 439.958 118.145C457.064 137.631 464.732 164.219 460.459 189.288C460.347 189.895 460.229 190.525 460.117 191.132C459.795 192.906 459.401 194.66 458.943 196.371ZM108.072 266.263L108.67 265.456C116.838 271.364 126.79 274.413 136.273 277.03C138.951 277.773 141.652 278.522 144.317 279.313C157.36 283.088 172.196 288.337 183.36 298.741C185.357 300.601 187.231 302.632 189.071 304.602C192.445 308.258 195.96 312.053 200.355 314.938C201.158 315.458 201.99 315.962 202.836 316.417C213.15 322.009 226.89 322.328 239.581 317.245C248.398 313.697 256.305 307.944 263.927 302.395C267.28 299.956 270.759 297.423 274.282 295.107C293.731 282.383 316.587 275.184 340.368 274.321L341.837 274.256C342.685 274.229 343.508 274.195 344.356 274.167C346.869 274.101 349.416 274.096 351.97 274.067C361.098 274.016 370.506 273.964 379.866 271.53C397.787 266.881 412.883 253.679 426.524 240.113L429.503 237.166C436.698 230.076 444.136 222.745 449.489 213.887C453.675 206.908 456.623 199.138 458.25 190.785C458.362 190.178 458.467 189.595 458.579 188.988C462.747 164.502 455.265 138.55 438.551 119.5C425.658 104.811 406.974 93.5883 381.423 85.188C362.73 79.0329 343.028 75.0276 323.974 71.1704L315.33 69.4147C303.53 66.9916 289.889 64.7885 277.578 69.5909C268.45 73.1572 261.56 80.1511 256.572 85.8457C252.947 89.9693 249.68 94.3675 246.506 98.6121C245.194 100.375 243.875 102.161 242.545 103.894C235.658 112.876 229.941 122.808 224.554 135.121L223.76 136.946C222.574 139.66 221.382 142.398 220.137 145.146C218.562 148.648 216.84 152.033 215.033 155.166C209.469 164.91 202.402 173.232 192.808 181.386C190.466 183.383 187.986 185.037 185.579 186.608L184.433 187.371C176.311 192.786 164.87 196.624 152.739 200.66C141.106 204.548 129.083 208.562 118.479 214.408C111.758 218.109 102.838 224.89 98.5553 236.124C94.5428 246.538 98.5352 258.053 108.724 265.445L108.072 266.263Z" fill="url(#paint4_linear)"/>
<path d="M460.306 188.814C458.446 195.755 455.678 202.095 452.057 207.723C446.88 215.736 439.858 222.083 433.09 228.244C431.606 229.604 430.104 230.934 428.636 232.324C416.156 243.934 401.395 256.741 384.314 261.769C375.801 264.277 367.374 264.846 359.227 265.415C356.659 265.593 354.114 265.777 351.611 265.998C350.96 266.053 350.279 266.125 349.621 266.204L348.049 266.369C327.929 268.391 307.803 276.041 289.838 288.551C287.242 290.352 284.668 292.26 282.125 294.152C274.434 299.861 266.465 305.751 257.257 309.143C245.203 313.555 231.797 312.944 221.42 307.488C220.569 307.056 219.753 306.583 218.951 306.063C214.718 303.425 211.296 300.139 208.021 296.969C206.096 295.128 204.3 293.373 202.318 291.747C192.005 283.201 178.249 278.954 166.179 275.924C163.696 275.309 161.189 274.689 158.675 274.092C148.154 271.553 139.622 268.808 132.132 263.693C121.359 256.297 117.214 244.309 121.603 233.155C125.082 224.254 132.214 216.356 141.696 210.898C150.944 205.555 161.071 201.492 170.879 197.573C183.378 192.541 195.21 187.814 203.156 181.154L203.973 180.481C206.036 178.767 208.173 176.97 210.135 174.872C217.877 166.501 223.596 158.175 228.184 148.654C229.674 145.563 231.114 142.28 232.448 138.918L232.785 138.04C233.982 134.998 235.166 132.004 236.372 129.117C241.118 117.677 247.076 108.268 255.123 99.5206C256.958 97.5159 258.759 95.4509 260.59 93.3685C263.498 90.0208 266.534 86.5797 269.787 83.2735C275.062 77.9359 282.266 71.383 291.338 67.9292C303.701 63.2171 317.217 64.7496 328.843 66.8714C349.254 70.608 370.372 74.4578 390.54 81.1866C414.564 89.2034 432.056 100.03 443.972 114.279C459.665 133.056 466.266 158.873 461.598 183.327C461.492 183.91 461.357 184.511 461.252 185.094C460.957 186.289 460.643 187.555 460.306 188.814ZM122.555 236.441C119.976 246.068 123.917 255.683 133.251 262.082C140.505 267.032 148.847 269.726 159.155 272.208C161.668 272.805 164.175 273.425 166.682 274.046C178.972 277.11 192.96 281.444 203.584 290.252C205.601 291.939 207.527 293.779 209.387 295.577C212.604 298.681 215.943 301.894 220.022 304.439C220.784 304.923 221.582 305.366 222.362 305.779C232.272 310.982 245.093 311.59 256.667 307.354C265.623 304.047 273.471 298.228 281.059 292.618C283.633 290.709 286.2 288.824 288.802 286.999C307.045 274.31 327.484 266.539 347.914 264.498L349.462 264.327C350.143 264.255 350.801 264.176 351.482 264.104C354.016 263.866 356.56 263.681 359.128 263.503C367.167 262.957 375.499 262.362 383.814 259.928C400.506 255.025 415.043 242.387 427.384 230.918C428.875 229.534 430.359 228.174 431.868 226.821C438.556 220.767 445.457 214.489 450.499 206.694C454.641 200.264 457.625 192.834 459.393 184.621C459.522 184.044 459.627 183.461 459.75 182.908C464.302 158.984 457.869 133.772 442.521 115.419C430.839 101.436 413.648 90.8176 389.95 82.9137C369.918 76.2468 348.877 72.3923 328.515 68.6685C317.156 66.5929 303.962 65.0956 292.025 69.6417C283.289 72.9818 276.284 79.3589 271.149 84.5556C267.939 87.7969 264.934 91.2206 262.032 94.5445C260.194 96.6507 258.387 98.7394 256.528 100.738C248.657 109.303 242.798 118.534 238.133 129.767C236.927 132.654 235.772 135.631 234.552 138.667L234.215 139.545C232.868 142.954 231.422 146.261 229.919 149.399C225.287 159.087 219.446 167.584 211.564 176.095C209.522 178.3 207.326 180.131 205.226 181.887L204.409 182.56C196.233 189.413 184.281 194.209 171.619 199.274C161.889 203.189 151.822 207.217 142.695 212.49C133.598 217.746 126.758 225.314 123.441 233.8C123.08 234.671 122.791 235.562 122.555 236.441Z" fill="url(#paint5_linear)"/>
<path d="M462.753 180.248C460.792 187.569 457.884 194.05 454.055 199.597C449.048 206.79 442.411 212.272 435.973 217.578C434.14 219.099 432.313 220.597 430.497 222.148C416.791 233.964 404.24 244.129 389.438 249.105C382.083 251.566 374.877 252.616 367.903 253.652C365.23 254.031 362.605 254.423 360.038 254.882C359.475 254.986 358.913 255.09 358.374 255.2L356.872 255.485C340.285 258.48 322.517 266.737 305.479 279.393C303.824 280.63 302.192 281.875 300.53 283.136C292.812 289.042 284.84 295.134 275.374 298.253C264.546 301.797 252.135 300.892 242.163 295.825C241.376 295.436 240.602 294.999 239.852 294.569C236.024 292.321 232.849 289.636 229.796 287.06C227.779 285.373 225.891 283.772 223.864 282.311C214.062 275.278 201.709 272.069 189.807 269.645L182.804 268.227C174.861 266.608 165.701 264.307 157.954 259.301C147.167 252.335 143.26 241.072 147.757 229.896C152.392 218.298 161.859 211.282 167.084 208.122C174.763 203.505 182.923 199.654 190.819 195.936C203.898 189.785 216.256 183.951 224.177 175.578L224.354 175.395C226.237 173.403 228.186 171.353 229.953 168.846C235.926 160.332 240.466 151.843 244.229 142.075C245.433 139.009 246.609 135.758 247.721 132.464C249.009 128.606 250.105 125.562 251.183 122.87C255.454 111.965 261.397 103.469 270.417 95.3647C272.768 93.2432 275.029 91.0725 277.407 88.7545C280.052 86.2022 282.775 83.5438 285.64 81.025C291.381 75.9399 298.415 70.3093 306.958 67.1212C319.541 62.4426 332.859 63.6674 343.068 65.2821C361.81 68.2149 381.697 71.8115 400.144 78.0281C422.274 85.5119 438.243 95.752 448.972 109.301C463.275 127.374 468.786 152.415 463.746 176.26C463.623 176.813 463.494 177.39 463.371 177.943C463.167 178.703 462.957 179.488 462.753 180.248ZM158.881 257.741C166.393 262.581 175.332 264.849 183.109 266.423L190.112 267.841C202.21 270.293 214.771 273.583 224.849 280.818C226.942 282.321 228.959 284.008 230.888 285.646C233.899 288.185 237.017 290.803 240.708 292.99C241.434 293.414 242.167 293.814 242.907 294.19C252.476 299.047 264.363 299.914 274.771 296.512C283.931 293.49 291.806 287.473 299.398 281.661C301.06 280.399 302.698 279.131 304.353 277.894C321.608 265.092 339.641 256.702 356.491 253.676L357.969 253.385C358.532 253.281 359.101 253.153 359.663 253.049C362.254 252.597 364.903 252.211 367.583 251.808C374.472 250.801 381.631 249.738 388.818 247.334C403.307 242.478 415.731 232.407 429.274 220.725C431.09 219.174 432.924 217.652 434.781 216.137C441.121 210.907 447.685 205.507 452.535 198.527C456.62 192.591 459.64 185.503 461.56 177.483C461.682 176.93 461.805 176.377 461.928 175.824C466.881 152.491 461.481 127.989 447.523 110.339C437.028 97.0567 421.306 87.0357 399.532 79.6474C381.204 73.4625 361.411 69.8915 342.747 66.954C332.752 65.3966 319.738 64.1768 307.527 68.7005C299.266 71.7858 292.396 77.2819 286.758 82.2672C283.924 84.7686 281.206 87.4033 278.592 89.9382C276.287 92.1738 273.94 94.4744 271.559 96.6133C262.745 104.518 256.961 112.802 252.784 123.452C251.736 126.126 250.647 129.146 249.371 132.957C248.253 136.275 247.07 139.55 245.86 142.639C242.035 152.543 237.433 161.169 231.381 169.789C229.558 172.408 227.548 174.494 225.622 176.551L225.446 176.733C217.283 185.347 204.78 191.244 191.55 197.482C183.685 201.183 175.554 205.016 167.966 209.581C162.928 212.613 153.811 219.367 149.381 230.484C145.25 240.867 148.873 251.289 158.881 257.741Z" fill="url(#paint6_linear)"/>
<path d="M465.569 170.787C463.487 178.559 460.373 185.24 456.349 190.658C451.473 197.172 445.033 201.918 438.84 206.5C436.774 208.035 434.684 209.564 432.676 211.166L431.352 212.212C420.529 220.776 408.23 230.473 394.864 235.604C388.817 237.933 382.935 239.363 377.221 240.736C374.256 241.444 371.476 242.126 368.719 242.916C368.251 243.045 367.807 243.181 367.364 243.317C366.89 243.47 366.422 243.6 365.955 243.729C352.856 247.48 338.266 255.849 321.381 269.362L319.307 271.022C311.577 277.256 303.564 283.694 293.751 286.491C284.082 289.224 272.91 288.065 263.136 283.306C262.414 282.96 261.699 282.59 260.989 282.196C257.686 280.368 254.821 278.327 252.063 276.365C249.882 274.813 247.831 273.346 245.64 272.02C236.906 266.801 226.542 264.432 213.665 262.51C211.511 262.187 209.333 261.859 207.162 261.506C200.35 260.42 191.563 258.626 184.005 254.053C173.376 247.638 169.605 236.82 174.165 225.788C177.494 217.637 184.284 209.877 192.75 204.503C198.823 200.653 205.163 197.231 211.261 193.949C224.892 186.596 237.782 179.63 245.524 169.171C246.965 167.213 248.633 164.883 250.09 162.013C254.201 153.892 257.545 145.21 260.611 134.72C261.51 131.649 262.411 128.477 263.307 125.227C264.286 121.668 265.263 118.593 266.282 115.834C270.092 105.417 276.19 97.5738 286.03 90.4023C288.941 88.2783 291.712 86.0146 294.67 83.6227C296.98 81.7452 299.358 79.8092 301.793 77.9398C308.007 73.1849 314.865 68.3989 322.872 65.5003C332.572 61.9853 343.927 61.1302 357.588 62.88C379.445 65.6797 395.655 69.1314 410.061 74.0869C430.273 81.0313 444.725 90.6611 454.284 103.54C467.215 120.94 471.665 145.187 466.182 168.404C466.06 168.957 465.92 169.48 465.773 170.026C465.697 170.312 465.633 170.549 465.569 170.787ZM174.608 229.55C172.149 238.725 175.835 247.202 184.84 252.646C192.163 257.054 200.723 258.838 207.392 259.886C209.564 260.239 211.718 260.561 213.872 260.884C226.939 262.857 237.475 265.247 246.451 270.607C248.713 271.952 250.782 273.449 252.98 275.031C255.715 276.987 258.538 278.992 261.753 280.77C262.439 281.158 263.137 281.498 263.835 281.838C273.248 286.423 283.973 287.539 293.258 284.907C302.742 282.2 310.628 275.855 318.225 269.739L320.299 268.078C337.348 254.431 352.125 245.934 365.463 242.145C365.93 242.016 366.374 241.88 366.848 241.727C367.322 241.573 367.765 241.437 368.233 241.308C371.014 240.525 373.824 239.825 376.789 239.117C382.449 237.755 388.278 236.336 394.21 234.053C407.348 229.014 419.526 219.387 430.253 210.899L431.577 209.853C433.615 208.233 435.705 206.704 437.801 205.151C443.927 200.628 450.246 195.952 454.988 189.657C459.012 184.239 462.108 177.528 464.121 169.635C464.261 169.112 464.378 168.582 464.518 168.06C469.873 145.318 465.539 121.586 452.913 104.574C443.558 91.9787 429.359 82.5441 409.472 75.7125C395.161 70.7824 379.071 67.3626 357.332 64.5947C343.938 62.8911 332.847 63.7149 323.399 67.1445C315.613 69.9752 308.882 74.6678 302.766 79.3468C300.336 81.1924 297.959 83.1284 295.679 84.9884C292.714 87.4041 289.914 89.6852 286.972 91.8267C277.417 98.794 271.513 106.383 267.816 116.474C266.81 119.185 265.87 122.22 264.879 125.725C263.977 128.998 263.082 132.147 262.177 135.242C259.086 145.826 255.716 154.604 251.549 162.837C250.123 165.69 248.436 168.091 246.842 170.237C238.892 180.998 225.852 188.05 212.047 195.484C205.948 198.766 199.662 202.177 193.626 205.986C185.443 211.156 178.909 218.627 175.71 226.482C175.233 227.501 174.882 228.528 174.608 229.55Z" fill="url(#paint7_linear)"/>
<path d="M468.089 160.431C467.987 160.812 467.885 161.192 467.783 161.572C465.574 169.438 462.36 176.016 458.241 181.128C453.409 187.094 447.117 191.191 441.013 195.16C438.823 196.585 436.567 198.07 434.399 199.603C432.95 200.642 431.501 201.68 430.021 202.736C420.431 209.643 410.527 216.771 399.857 221.53C395.373 223.538 391.033 225.101 386.808 226.618C383.368 227.862 380.103 229.025 376.997 230.358C376.594 230.531 376.191 230.703 375.813 230.882C375.41 231.054 375.031 231.233 374.629 231.405C362.003 236.811 349.232 247.986 336.868 258.787C328.427 266.155 321.241 271.974 311.706 274.208C300.956 276.703 290.547 273.455 283.711 270.273C283.03 269.964 282.38 269.636 281.729 269.309C279.15 268.007 276.793 266.636 274.531 265.292C271.98 263.793 269.558 262.379 267.025 261.191C257.952 256.951 247.282 255.723 237.132 254.837C235.143 254.661 233.129 254.478 231.129 254.248C225.436 253.64 216.993 252.371 209.665 248.267C199.04 242.312 195.466 232.184 200.157 221.136C203.403 213.395 210.067 205.627 217.995 200.364C222.58 197.313 227.264 194.466 231.814 191.737C245.942 183.192 259.28 175.124 266.449 162.244C267.87 159.695 268.974 157.189 269.811 154.636C272.754 145.744 274.672 136.399 276.536 126.785C277.148 123.739 277.78 120.622 278.46 117.416C279.205 113.972 280.007 110.978 280.942 108.248C284.395 98.1165 290.444 91.1265 301.191 84.9371C304.746 82.8834 308.161 80.5887 311.764 78.1658C313.658 76.8902 315.553 75.6146 317.519 74.3582C323.527 70.4653 330.581 66.0885 338.364 63.3592C348.147 59.9172 359.369 58.7972 371.686 59.9576C390.429 61.7444 406.106 64.9007 419.556 69.6254C437.797 76.0416 450.756 85.0675 459.175 97.2588C470.733 113.985 474.116 137.463 468.221 160.034C468.159 160.17 468.121 160.313 468.089 160.431ZM210.356 246.924C215.822 249.994 222.247 251.766 231.232 252.722C233.239 252.928 235.222 253.128 237.212 253.305C247.511 254.205 258.329 255.448 267.627 259.799C270.225 261.03 272.671 262.449 275.27 263.961C277.514 265.276 279.848 266.64 282.379 267.929C283.006 268.25 283.663 268.554 284.313 268.881C290.925 271.952 300.977 275.104 311.296 272.697C320.478 270.546 327.524 264.868 335.778 257.628C348.239 246.752 361.107 235.501 373.943 229.973C374.322 229.794 374.718 229.646 375.097 229.467C375.506 229.271 375.908 229.099 376.311 228.926C379.472 227.582 382.743 226.395 386.206 225.158C390.378 223.652 394.717 222.089 399.141 220.115C409.667 215.42 419.511 208.326 429.035 201.478C430.514 200.422 431.97 199.36 433.419 198.322C435.593 196.764 437.873 195.286 440.093 193.843C446.077 189.944 452.278 185.899 456.951 180.145C460.918 175.222 464.057 168.828 466.216 161.152C466.349 160.653 466.483 160.154 466.623 159.631C472.427 137.494 469.119 114.495 457.818 98.1434C449.579 86.2297 436.873 77.399 418.958 71.0957C405.621 66.4266 390.092 63.2847 371.451 61.4996C359.337 60.3426 348.341 61.4723 338.787 64.8226C331.148 67.4886 324.208 71.8196 318.267 75.6539C316.325 76.9168 314.43 78.1923 312.541 79.4441C308.909 81.8844 305.463 84.1966 301.879 86.2676C291.486 92.272 285.639 98.9848 282.336 108.748C281.42 111.407 280.63 114.354 279.898 117.75C279.224 120.932 278.569 124.043 277.98 127.095C276.08 136.751 274.143 146.167 271.205 155.137C270.342 157.784 269.195 160.356 267.718 163.017C260.353 176.252 246.834 184.425 232.525 193.074C227.998 195.809 223.321 198.632 218.766 201.666C211.109 206.773 204.64 214.287 201.519 221.756C197.124 232.169 200.345 241.337 210.356 246.924Z" fill="url(#paint8_linear)"/>
<path d="M470.061 147.559C469.889 148.201 469.717 148.843 469.515 149.502C469.381 150.001 469.23 150.47 469.073 150.963C466.662 158.724 463.487 164.777 459.381 169.46C454.552 174.942 448.281 178.484 442.222 181.905C439.969 183.186 437.632 184.496 435.402 185.886C432.435 187.74 429.376 189.748 426.288 191.774C419.091 196.495 411.623 201.372 404.093 205.341C401.691 206.608 399.338 207.786 397.046 208.93C392.576 211.171 388.346 213.273 384.517 215.687C384.149 215.919 383.812 216.134 383.444 216.367C383.136 216.565 382.829 216.763 382.521 216.96C375.586 221.369 368.669 228.559 361.358 236.179C358.212 239.463 354.939 242.841 351.59 246.121C345.258 252.271 338.118 258.204 328.88 259.805C319.595 261.393 310.433 258.148 303.505 255.12C302.889 254.853 302.273 254.586 301.687 254.302C300.415 253.732 299.196 253.15 297.994 252.599C294.437 250.958 291.087 249.398 287.628 248.242C279.299 245.501 270.094 245.174 259.794 245.038C257.969 245.008 256.144 244.977 254.284 244.887C246.082 244.523 239.795 243.093 234.514 240.379C223.88 234.931 220.539 225.451 225.332 214.405C228.542 206.986 234.929 199.398 242.427 194.122C245.718 191.819 249.067 189.583 252.288 187.44C266.787 177.798 280.484 168.679 286.592 153.196C287.527 150.848 288.253 148.139 288.775 145.145C289.861 138.812 290.375 132.429 290.943 125.652C291.19 122.737 291.419 119.792 291.721 116.765C292.032 113.511 292.412 110.48 292.874 107.521C293.396 104.145 294.031 101.207 294.869 98.5533C297.922 88.7737 304.133 82.4131 315.625 77.3403C320.043 75.3906 324.276 73.0856 328.773 70.6477C329.996 69.9817 331.248 69.2983 332.494 68.6386C338.292 65.5301 345.516 61.6575 353.106 59.0802C363.186 55.667 373.924 54.2644 385.056 54.9036C401.404 55.8447 415.949 58.5703 428.323 63.0324C444.368 68.8091 456.146 77.493 463.362 88.8525C473.425 104.694 475.838 126.001 470.061 147.559ZM235.192 239.083C240.296 241.699 246.393 243.078 254.369 243.432C256.205 243.516 258.023 243.57 259.824 243.594C270.25 243.738 279.58 244.073 288.075 246.859C291.611 248.01 295.002 249.606 298.607 251.26C299.809 251.811 301.028 252.393 302.277 252.957C302.869 253.217 303.485 253.484 304.077 253.745C310.828 256.675 319.728 259.849 328.613 258.332C337.45 256.802 344.366 251.038 350.559 245.03C353.901 241.773 357.15 238.389 360.29 235.129C367.668 227.451 374.651 220.202 381.737 215.706C382.045 215.508 382.322 215.328 382.63 215.13C382.998 214.897 383.342 214.658 383.733 214.432C387.623 211.984 391.882 209.865 396.376 207.63C398.668 206.486 401.021 205.308 403.393 204.058C410.863 200.124 418.3 195.264 425.467 190.561C428.556 188.535 431.615 186.527 434.581 184.672C436.842 183.265 439.185 181.932 441.462 180.657C447.424 177.312 453.574 173.839 458.258 168.522C462.218 164.004 465.294 158.128 467.654 150.557C467.805 150.088 467.939 149.589 468.09 149.12C474.361 127.236 472.234 105.623 462.09 89.6072C455.054 78.5253 443.53 70.0366 427.805 64.3966C415.567 59.9965 401.14 57.3027 384.948 56.3523C374.018 55.7164 363.436 57.1097 353.548 60.4723C346.072 63.0037 338.908 66.8415 333.164 69.939C331.918 70.5987 330.665 71.2822 329.443 71.9482C324.915 74.4034 320.653 76.7258 316.181 78.6866C304.977 83.6328 299.198 89.5231 296.228 98.9937C295.408 101.576 294.793 104.443 294.29 107.747C293.834 110.682 293.461 113.69 293.156 116.92C292.854 119.947 292.625 122.892 292.378 125.807C291.827 132.614 291.301 139.045 290.202 145.426C289.678 148.521 288.903 151.319 287.943 153.762C281.648 169.653 267.788 178.907 253.103 188.677C249.881 190.82 246.562 193.039 243.272 195.341C235.99 200.473 229.793 207.83 226.694 215.024C224.075 220.997 221.696 232.155 235.192 239.083Z" fill="url(#paint9_linear)"/>
<path d="M470.58 133.177C470.159 134.745 469.692 136.301 469.194 137.875C469.042 138.344 468.898 138.789 468.747 139.258C466.191 146.802 462.986 152.49 458.93 156.702C453.999 161.801 447.666 164.817 441.562 167.741C439.319 168.796 437.009 169.91 434.812 171.079C426.124 175.756 416.922 181.596 408.003 187.231L406.773 188.022C401.165 191.563 395.295 195.417 390.465 199.855C390.096 200.189 389.75 200.529 389.398 200.893L388.889 201.368C384.917 205.17 381.03 210.65 376.928 216.455C373.121 221.829 369.214 227.38 364.74 232.295C357.961 239.828 351.73 243.509 344.505 244.248C337.078 244.983 329.926 242.124 322.988 239.323L320.067 238.158C314.715 236.087 310.59 234.854 306.653 234.156C298.605 232.738 290.153 233.403 281.181 234.107L280.894 234.132C279.234 234.248 277.573 234.363 275.908 234.401C268.513 234.636 262.737 233.674 257.801 231.384C247.152 226.467 244.015 217.652 248.952 206.543C252.673 198.166 259.837 190.812 265.281 186.743C267.511 185.073 269.752 183.457 271.962 181.858C286.681 171.205 300.638 161.112 305.151 143.036C305.719 140.819 306.024 137.971 306.13 134.535C306.291 129.279 306.027 124.088 305.738 118.61C305.517 114.398 305.287 110.031 305.272 105.62C305.274 102.385 305.384 99.4084 305.63 96.4938C305.931 93.1861 306.421 90.3114 307.133 87.7507C309.837 78.1324 315.998 72.6246 328.359 68.6765C334.147 66.8391 339.73 64.4373 345.625 61.9153L348.071 60.8638C353.912 58.3529 359.934 55.7375 366.178 53.7168C376.831 50.2535 386.815 48.6234 396.734 48.7589C410.94 48.9481 424.306 51.2302 435.404 55.3248C449.466 60.5193 459.697 68.6104 465.838 79.3252C474.259 93.8861 475.898 113.33 470.58 133.177ZM258.388 230.14C263.148 232.332 268.704 233.261 275.89 233.046C277.555 233.008 279.191 232.886 280.822 232.788L281.108 232.763C290.158 232.054 298.712 231.391 306.932 232.83C310.97 233.53 315.191 234.788 320.607 236.901L323.528 238.066C330.306 240.8 337.292 243.614 344.409 242.897C351.269 242.188 357.259 238.647 363.79 231.378C368.203 226.498 372.097 220.994 375.868 215.661C380.006 209.815 383.912 204.264 387.981 200.386L388.466 199.905C388.842 199.547 389.188 199.207 389.564 198.849C394.466 194.329 400.39 190.464 406.065 186.864L407.295 186.073C416.22 180.414 425.453 174.558 434.194 169.869C436.421 168.682 438.755 167.575 441.004 166.496C447.018 163.624 453.231 160.678 457.992 155.738C461.902 151.69 464.991 146.149 467.496 138.796C467.64 138.35 467.792 137.881 467.936 137.436C474.737 116.331 473.584 95.3611 464.736 79.9216C458.751 69.478 448.767 61.6059 435.008 56.5179C424.053 52.4615 410.853 50.2239 396.802 50.0254C387.039 49.8805 377.186 51.4949 366.671 54.9187C360.48 56.9284 354.488 59.5264 348.677 62.0199L346.232 63.0714C340.565 65.5017 334.7 68.0063 328.852 69.8784C316.964 73.6733 311.077 78.9231 308.506 88.0422C307.807 90.5554 307.318 93.3286 307.043 96.5412C306.786 99.4019 306.682 102.355 306.694 105.542C306.715 109.93 306.927 114.266 307.148 118.478C307.431 123.98 307.718 129.178 307.538 134.505C307.431 138.042 307.094 141.009 306.506 143.297C306.443 143.535 306.373 143.796 306.309 144.034C301.456 162.146 287.528 172.222 272.803 182.899C270.593 184.498 268.352 186.114 266.123 187.783C260.806 191.759 253.83 198.883 250.22 207.036C247.541 213.044 245.071 223.973 258.388 230.14Z" fill="url(#paint10_linear)"/>
<path d="M468.695 118.356C467.887 121.375 466.922 124.403 465.773 127.458C463.005 134.842 459.85 140.06 455.837 143.825C450.726 148.646 444.193 151.176 437.888 153.613C435.786 154.426 433.631 155.249 431.575 156.176C418.911 161.725 401.841 171.366 392.567 185.644C390.307 189.139 388.2 193.772 385.976 198.653C379.642 212.598 372.484 228.385 357.507 228.601C352.292 228.681 347.43 226.589 342.697 224.582C340.962 223.837 339.156 223.072 337.371 222.416C325.531 218.148 314.375 220.254 302.573 222.492L299.407 223.096C293.381 224.207 285.551 225.115 278.5 222.258C272.12 219.657 268.507 215.657 267.738 210.356C266.143 199.203 277.534 185.671 285.589 179.27C286.986 178.141 288.401 177.043 289.815 175.944C304.67 164.308 318.714 153.321 321.206 132.717C321.468 130.596 321.398 127.724 321.012 123.748C320.501 118.72 319.566 113.655 318.659 108.775C317.231 101.183 315.754 93.2977 315.901 85.3379C316.207 70.1346 322.361 63.224 338.632 59.8902C347.552 58.0513 356.432 55.03 365 52.1288C378.14 47.6505 391.724 43.0364 405.949 42.4917C419.56 41.9607 452.665 43.5453 465.853 69.6755C472.534 83.0315 473.51 100.387 468.695 118.356ZM269.477 203.485C268.866 205.767 268.642 208.025 268.934 210.167C269.621 215.013 272.989 218.692 278.931 221.125C285.679 223.876 293.277 222.982 299.165 221.91L302.331 221.306C314.294 219.035 325.611 216.896 337.772 221.3C339.58 221.963 341.41 222.734 343.169 223.485C347.759 225.454 352.515 227.467 357.474 227.395C371.687 227.178 378.666 211.776 384.856 198.175C387.1 193.222 389.213 188.566 391.547 184.988C400.968 170.444 418.249 160.681 431.08 155.075C433.16 154.155 435.346 153.314 437.447 152.502C443.645 150.086 450.058 147.626 454.999 142.964C458.878 139.316 461.941 134.252 464.634 127.051C472.42 106.26 472.444 85.5548 464.71 70.2354C451.857 44.7554 419.353 43.2047 405.976 43.7217C391.93 44.2634 378.43 48.8491 365.374 53.299C356.775 56.2175 347.865 59.2563 338.868 61.0998C323.099 64.3644 317.402 70.7096 317.111 85.3819C316.966 93.2403 318.414 101.042 319.832 108.58C320.756 113.49 321.708 118.585 322.206 123.661C322.614 127.744 322.666 130.688 322.401 132.91C319.824 154.026 305.61 165.171 290.538 176.953C289.147 178.058 287.733 179.156 286.318 180.255C280.314 184.989 271.891 194.477 269.477 203.485Z" fill="url(#paint11_linear)"/>
</g>
<defs>
<linearGradient id="paint0_linear" x1="470.735" y1="253.137" x2="34.1139" y2="165.885" gradientUnits="userSpaceOnUse">
<stop stop-color="#D900D5"/>
<stop offset="0.4871" stop-color="#FFFF25"/>
<stop offset="1" stop-color="#18D3FF"/>
</linearGradient>
<linearGradient id="paint1_linear" x1="464.759" y1="239.146" x2="43.3709" y2="175.585" gradientUnits="userSpaceOnUse">
<stop stop-color="#C713D9"/>
<stop offset="0.4871" stop-color="#FEFF26"/>
<stop offset="0.5129" stop-color="#F4FD2F"/>
<stop offset="1" stop-color="#2AC0FB"/>
</linearGradient>
<linearGradient id="paint2_linear" x1="461.626" y1="224.414" x2="57.1511" y2="183.31" gradientUnits="userSpaceOnUse">
<stop stop-color="#B626DD"/>
<stop offset="0.4871" stop-color="#FDFF27"/>
<stop offset="0.5129" stop-color="#F5FD2E"/>
<stop offset="1" stop-color="#3BADF7"/>
</linearGradient>
<linearGradient id="paint3_linear" x1="460.753" y1="209.263" x2="74.6234" y2="189.224" gradientUnits="userSpaceOnUse">
<stop stop-color="#A43AE0"/>
<stop offset="0.4871" stop-color="#FCFE28"/>
<stop offset="0.5129" stop-color="#F6FE2D"/>
<stop offset="1" stop-color="#4D99F4"/>
</linearGradient>
<linearGradient id="paint4_linear" x1="461.607" y1="194.089" x2="95.0276" y2="193.378" gradientUnits="userSpaceOnUse">
<stop stop-color="#934DE4"/>
<stop offset="0.4871" stop-color="#FBFE29"/>
<stop offset="0.5129" stop-color="#F7FE2C"/>
<stop offset="1" stop-color="#5E86F0"/>
</linearGradient>
<linearGradient id="paint5_linear" x1="463.706" y1="179.189" x2="117.662" y2="195.983" gradientUnits="userSpaceOnUse">
<stop stop-color="#8160E8"/>
<stop offset="0.4871" stop-color="#FAFE2A"/>
<stop offset="0.5129" stop-color="#F8FE2B"/>
<stop offset="1" stop-color="#7073EC"/>
</linearGradient>
<linearGradient id="paint6_linear" x1="466.582" y1="164.842" x2="141.621" y2="197.107" gradientUnits="userSpaceOnUse">
<stop stop-color="#7073EC"/>
<stop offset="0.4871" stop-color="#F8FE2B"/>
<stop offset="0.5129" stop-color="#FAFE2A"/>
<stop offset="1" stop-color="#8160E8"/>
</linearGradient>
<linearGradient id="paint7_linear" x1="469.775" y1="151.263" x2="166.269" y2="196.935" gradientUnits="userSpaceOnUse">
<stop stop-color="#5E86F0"/>
<stop offset="0.4871" stop-color="#F7FE2C"/>
<stop offset="0.5129" stop-color="#FBFE29"/>
<stop offset="1" stop-color="#934DE4"/>
</linearGradient>
<linearGradient id="paint8_linear" x1="472.788" y1="138.567" x2="190.63" y2="195.564" gradientUnits="userSpaceOnUse">
<stop stop-color="#4D99F4"/>
<stop offset="0.4871" stop-color="#F6FE2D"/>
<stop offset="0.5129" stop-color="#FCFE28"/>
<stop offset="1" stop-color="#A43AE0"/>
</linearGradient>
<linearGradient id="paint9_linear" x1="475.613" y1="125.073" x2="214.427" y2="191.418" gradientUnits="userSpaceOnUse">
<stop stop-color="#3BADF7"/>
<stop offset="0.4871" stop-color="#F5FD2E"/>
<stop offset="0.5129" stop-color="#FDFF27"/>
<stop offset="1" stop-color="#B626DD"/>
</linearGradient>
<linearGradient id="paint10_linear" x1="477.241" y1="111.796" x2="236.588" y2="185.506" gradientUnits="userSpaceOnUse">
<stop stop-color="#2AC0FB"/>
<stop offset="0.4871" stop-color="#F4FD2F"/>
<stop offset="0.5129" stop-color="#FEFF26"/>
<stop offset="1" stop-color="#C713D9"/>
</linearGradient>
<linearGradient id="paint11_linear" x1="476.469" y1="98.2857" x2="255.66" y2="177.578" gradientUnits="userSpaceOnUse">
<stop stop-color="#18D3FF"/>
<stop offset="0.5129" stop-color="#FFFF25"/>
<stop offset="1" stop-color="#D900D5"/>
</linearGradient>
<clipPath id="clip0">
<rect width="367.214" height="437.047" fill="white" transform="translate(0.294922 309.43) rotate(-75)"/>
</clipPath>
</defs>
</svg>
